<?xml version="1.0" encoding="UTF-8" standalone="no"?>
<!-- Created with Inkscape (http://www.inkscape.org/) -->

<svg
   width="153.57512mm"
   height="65.848274mm"
   viewBox="0 0 153.57512 65.848274"
   version="1.1"
   id="svg1"
   inkscape:version="1.3.2 (091e20e, 2023-11-25, custom)"
   sodipodi:docname="+1 size comparison.svg"
   xmlns:inkscape="http://www.inkscape.org/namespaces/inkscape"
   xmlns:sodipodi="http://sodipodi.sourceforge.net/DTD/sodipodi-0.dtd"
   xmlns="http://www.w3.org/2000/svg"
   xmlns:svg="http://www.w3.org/2000/svg">
  <sodipodi:namedview
     id="namedview1"
     pagecolor="#ffffff"
     bordercolor="#000000"
     borderopacity="0.25"
     inkscape:showpageshadow="2"
     inkscape:pageopacity="0.0"
     inkscape:pagecheckerboard="0"
     inkscape:deskcolor="#d1d1d1"
     inkscape:document-units="mm"
     inkscape:zoom="1.4142136"
     inkscape:cx="304.76301"
     inkscape:cy="106.41957"
     inkscape:window-width="1920"
     inkscape:window-height="1051"
     inkscape:window-x="-9"
     inkscape:window-y="-9"
     inkscape:window-maximized="1"
     inkscape:current-layer="g41" />
  <defs
     id="defs1" />
  <g
     inkscape:label="Layer 1"
     inkscape:groupmode="layer"
     id="layer1"
     transform="translate(-29.632133,0.21795696)">
    <g
       id="g41"
       transform="matrix(1.0309699,0,0,1,66.914316,-6.5481032)"
       style="stroke-width:0.984866">
      <path
         style="opacity:0.2;stroke-width:0.260579"
         d="m -34.989814,59.56372 c 0.0019,0.392977 2.102442,0.40378 5.506307,0.534336 0.628031,0.02408 1.201883,0.460058 1.915372,0.481132 0.656325,0.01939 1.446069,-0.375894 2.167196,-0.358976 6.568493,0.154082 15.6760043,0.207256 24.60320991,0.188193 8.13894569,-0.01738 16.04300009,-0.02701 21.94725909,-0.0053 0.847711,0.0031 1.570344,0.573736 2.330386,0.571979 0.652709,-0.0016 1.355019,-0.574651 1.935909,-0.580732 3.525213,-0.0369 5.667002,-0.03404 5.685946,-0.356952 0.0254,-0.432874 -2.218323,-0.712679 -5.71907,-0.886613 C 24.839372,59.1238 24.26576,58.504042 23.665654,58.481971 22.910564,58.4542 22.113526,59.025502 21.282075,59.004896 14.830018,58.845 6.305783,58.890247 -0.76837093,58.976392 -9.7646645,59.085946 -18.911874,58.893329 -25.483245,58.924037 c -0.703247,0.0033 -1.525823,-0.356011 -2.166729,-0.34993 -0.695748,0.0066 -1.203968,0.378862 -1.818034,0.389633 -3.454807,0.06061 -5.524145,0.124309 -5.521806,0.599969 z"
         id="path24"
         sodipodi:nodetypes="sssssssssssssssss" />
      <rect
         style="fill:#e6e6e6;fill-opacity:1;stroke:#222222;stroke-width:0.196973;stroke-linecap:round;stroke-linejoin:round;stroke-dasharray:none;stroke-opacity:1"
         id="rect22"
         width="68.287361"
         height="50.420395"
         x="-36.063755"
         y="6.4286327"
         ry="0" />
      <path
         style="fill:none;fill-opacity:1;stroke:#222222;stroke-width:1.08335;stroke-linecap:round;stroke-linejoin:round;stroke-dasharray:none;stroke-opacity:1"
         d="m -33.245461,49.695437 c 0.473934,-0.438964 0.683098,-1.335982 0.470209,-1.870264"
         id="path26" />
      <path
         style="fill:none;fill-opacity:1;stroke:#222222;stroke-width:1.08335;stroke-linecap:round;stroke-linejoin:round;stroke-dasharray:none;stroke-opacity:1"
         d="m -32.393582,44.469725 c -0.423869,-0.186548 -0.861761,-0.381965 -1.236021,-0.651072 0.728899,-0.379095 0.910031,-0.916228 1.020518,-1.651368"
         id="path27" />
      <path
         style="fill:none;fill-opacity:1;stroke:#222222;stroke-width:1.08335;stroke-linecap:round;stroke-linejoin:round;stroke-dasharray:none;stroke-opacity:1"
         d="m -32.091956,38.695019 c 0.626958,-0.472123 0.761309,-1.298199 0.634331,-2.060668"
         id="path28" />
      <path
         style="fill:none;fill-opacity:1;stroke:#222222;stroke-width:1.08335;stroke-linecap:round;stroke-linejoin:round;stroke-dasharray:none;stroke-opacity:1"
         d="m -34.041411,38.583592 c 0.454107,-0.474416 0.75051,-1.313153 0.571899,-1.9615"
         id="path29" />
      <circle
         style="fill:none;fill-opacity:1;stroke:#222222;stroke-width:1.08335;stroke-linecap:round;stroke-linejoin:round;stroke-dasharray:none;stroke-opacity:1"
         id="path30"
         cx="-32.940052"
         cy="54.963005"
         r="0.54957294" />
      <path
         style="fill:none;fill-opacity:1;stroke:#222222;stroke-width:1.08335;stroke-linecap:round;stroke-linejoin:round;stroke-dasharray:none;stroke-opacity:1"
         d="m -33.406357,31.169517 c -0.222319,0.529761 -0.582606,0.981917 -0.248047,1.471744 0.277263,0.405941 0.936036,0.605325 1.446941,0.496094 0.241489,-0.273011 0.313334,-1.401584 0.231512,-1.827279"
         id="path31"
         sodipodi:nodetypes="cscc" />
      <path
         style="fill:none;fill-opacity:1;stroke:#222222;stroke-width:1.08335;stroke-linecap:round;stroke-linejoin:round;stroke-dasharray:none;stroke-opacity:1"
         d="m -34.010816,27.536058 c 0.0046,-0.686234 0.162711,-1.276258 0.474894,-1.857926"
         id="path32" />
      <path
         style="fill:none;fill-opacity:1;stroke:#222222;stroke-width:1.08335;stroke-linecap:round;stroke-linejoin:round;stroke-dasharray:none;stroke-opacity:1"
         d="m -31.350184,25.659441 c -0.933239,1.72653 -1.273359,1.614184 0.07278,2.014272"
         id="path33" />
      <path
         style="fill:none;fill-opacity:1;stroke:#222222;stroke-width:1.08335;stroke-linecap:round;stroke-linejoin:round;stroke-dasharray:none;stroke-opacity:1"
         d="m -33.057763,20.090688 c -1.068271,1.911947 0.237615,1.059534 1.016029,2.385381"
         id="path34" />
      <path
         style="fill:none;fill-opacity:1;stroke:#222222;stroke-width:1.08335;stroke-linecap:round;stroke-linejoin:round;stroke-dasharray:none;stroke-opacity:1"
         d="m -32.217086,21.716021 c 0.498698,-0.369394 0.575787,-0.984239 0.841899,-1.555175"
         id="path35" />
      <path
         style="fill:none;fill-opacity:1;stroke:#222222;stroke-width:1.08335;stroke-linecap:round;stroke-linejoin:round;stroke-dasharray:none;stroke-opacity:1"
         d="m -33.750881,14.780385 c -0.04766,0.538125 -0.405718,1.039202 -0.596345,1.496709"
         id="path36" />
      <path
         style="fill:none;fill-opacity:1;stroke:#222222;stroke-width:1.08335;stroke-linecap:round;stroke-linejoin:round;stroke-dasharray:none;stroke-opacity:1"
         d="m -32.164516,14.778987 c -0.08036,0.623291 -0.160197,1.221321 -0.425536,1.706338"
         id="path37" />
      <path
         style="fill:none;fill-opacity:1;stroke:#222222;stroke-width:1.08335;stroke-linecap:round;stroke-linejoin:round;stroke-dasharray:none;stroke-opacity:1"
         d="m -30.55868,14.792078 c 0.0046,0.538043 -0.17323,1.064642 -0.327406,1.578561"
         id="path38" />
      <path
         style="fill:none;fill-opacity:1;stroke:#222222;stroke-width:1.08335;stroke-linecap:round;stroke-linejoin:round;stroke-dasharray:none;stroke-opacity:1"
         d="m -33.152529,9.0397898 c -0.810461,1.7349342 -1.424609,0.6450597 0.140317,2.2099852"
         id="path39" />
      <path
         style="fill:none;fill-opacity:1;stroke:#222222;stroke-width:1.08335;stroke-linecap:round;stroke-linejoin:round;stroke-dasharray:none;stroke-opacity:1"
         d="m -31.234871,9.098255 c -0.715373,1.548373 -1.141254,0.8390308 0.350792,1.99951"
         id="path40" />
      <rect
         style="fill:#5d5d5d;fill-opacity:1;stroke:none;stroke-width:0.29546;stroke-linecap:round;stroke-linejoin:round;stroke-dasharray:none;stroke-opacity:1"
         id="rect23"
         width="1.6536458"
         height="2.9965065"
         x="-28.426779"
         y="56.828671" />
      <path
         style="fill:none;stroke:#5a5a5a;stroke-width:0.886379;stroke-linecap:round;stroke-linejoin:round;stroke-opacity:1"
         d="M -34.473187,14.088203 H 30.053329"
         id="path14" />
      <path
         style="fill:none;stroke:#5a5a5a;stroke-width:0.886379;stroke-linecap:round;stroke-linejoin:round;stroke-opacity:1"
         d="M -34.473187,19.642398 H 30.053329"
         id="path15" />
      <path
         style="fill:none;stroke:#5a5a5a;stroke-width:0.886379;stroke-linecap:round;stroke-linejoin:round;stroke-opacity:1"
         d="M -34.473187,25.196593 H 30.053329"
         id="path16" />
      <path
         style="fill:none;stroke:#5a5a5a;stroke-width:0.886379;stroke-linecap:round;stroke-linejoin:round;stroke-opacity:1"
         d="M -34.473187,30.750788 H 30.053329"
         id="path17" />
      <path
         style="fill:none;stroke:#5a5a5a;stroke-width:0.886379;stroke-linecap:round;stroke-linejoin:round;stroke-opacity:1"
         d="M -34.473187,36.304982 H 30.053329"
         id="path18" />
      <path
         style="fill:none;stroke:#5a5a5a;stroke-width:0.886379;stroke-linecap:round;stroke-linejoin:round;stroke-opacity:1"
         d="M -34.473187,41.859177 H 30.053329"
         id="path19" />
      <path
         style="fill:none;stroke:#5a5a5a;stroke-width:0.886379;stroke-linecap:round;stroke-linejoin:round;stroke-opacity:1"
         d="M -34.473187,47.413372 H 30.053329"
         id="path20" />
      <path
         style="fill:none;stroke:#5a5a5a;stroke-width:0.886379;stroke-linecap:round;stroke-linejoin:round;stroke-opacity:1"
         d="M -34.473187,52.967567 H 30.053329"
         id="path21" />
      <path
         style="fill:none;stroke:#5a5a5a;stroke-width:0.886379;stroke-linecap:round;stroke-linejoin:round;stroke-opacity:1"
         d="M -34.473187,8.5340086 H 30.053329"
         id="path22" />
      <rect
         style="fill:#5d5d5d;fill-opacity:1;stroke:none;stroke-width:0.29546;stroke-linecap:round;stroke-linejoin:round;stroke-dasharray:none;stroke-opacity:1"
         id="rect24"
         width="1.6536458"
         height="2.9965065"
         x="22.835516"
         y="56.828671" />
    </g>
    <g
       id="g40">
      <path
         style="opacity:0.2;stroke-width:0.264583"
         d="m 84.138894,63.445811 c 1.455208,-0.05292 1.825625,-0.687917 2.169583,-1.931459 0.370416,-1.243541 -0.105834,-1.508125 0.767291,-2.143125 0.873125,-0.635 1.561042,-1.27 1.322917,-2.2225 -0.449792,-1.825625 -2.38125,-3.995208 -4.206875,-3.995208 -1.825625,0 -5.23875,2.69875 -5.344583,2.963333 -0.105833,0.264584 -0.899583,0.608542 -0.105833,1.693334 1.27,1.719791 2.2225,5.715 5.3975,5.635625 z"
         id="path2265" />
      <path
         style="fill:#ffffff;stroke-width:0.264583"
         d="m 80.170144,54.714561 c 0,0 -0.635,0.608541 -1.137709,0.978958 -0.502708,0.370417 -0.529166,1.084792 -0.502708,1.322917 0.02646,0.238125 0.555625,0.873125 1.455208,0.714375 0.899584,-0.15875 1.5875,-1.137709 2.196042,-1.693334 0.608542,-0.582083 0.608542,-0.529166 1.058333,-0.608541 0.449792,-0.07937 0,-1.11125 -0.608541,-1.137709 -0.608542,-0.02646 -1.799167,-0.608541 -1.799167,-0.608541 0,0 -0.396875,0.740833 -0.661458,1.031875 z"
         id="path2267" />
      <path
         style="fill:#ffffff;stroke-width:0.264583"
         d="m 80.170144,54.714561 c 0,0 -0.635,0.608541 -1.137709,0.978958 -0.502708,0.370417 -0.529166,1.084792 -0.502708,1.322917 0.02646,0.238125 0.555625,0.873125 1.455208,0.714375 0.899584,-0.15875 1.5875,-1.137709 2.196042,-1.693334 0.608542,-0.582083 0.608542,-0.529166 1.058333,-0.608541 0.449792,-0.07937 0,-1.11125 -0.608541,-1.137709 -0.608542,-0.02646 -1.799167,-0.608541 -1.799167,-0.608541 0,0 -0.396875,0.740833 -0.661458,1.031875 z"
         id="path2269" />
      <path
         style="fill:#262626;stroke-width:0.264583"
         d="m 82.180977,56.063936 c 0.608542,-0.582084 0.608542,-0.529167 1.058333,-0.608542 0.05292,0 0.105834,-0.02646 0.132292,-0.07937 l -1.74625,-0.343958 c 0,0 0.07937,0.687916 -0.47625,1.296458 -0.529167,0.608542 -0.846667,0.9525 -1.508125,0.9525 -0.47625,0 -0.820208,-0.105833 -1.084792,-0.423333 0,0.07937 0,0.132291 0,0.185208 0.02646,0.264583 0.555625,0.873125 1.455209,0.714375 0.899583,-0.15875 1.561041,-1.11125 2.169583,-1.693333 z"
         id="path2271" />
      <path
         style="fill:#cc291f;stroke-width:0.264583"
         d="m 79.535144,32.251436 c 0,0 -0.899584,2.487083 -0.820209,5.3975 0.07937,3.042708 0.423334,4.947708 0.635,5.741458 0.291042,1.190625 0.899584,1.561042 1.031875,4.153958 0.132292,2.592917 0.15875,5.23875 -0.05292,6.006042 -0.211667,0.767292 -0.714375,1.058333 -0.635,1.243542 0.07937,0.185208 1.005416,-0.105834 1.455208,0.3175 0.449792,0.423333 1.190625,0.714375 1.561042,0.714375 0.370416,0.02646 0.529166,0 0.529166,0 L 82.260352,35.135394 Z"
         id="path2273" />
      <path
         style="opacity:0.2;stroke-width:0.264583"
         d="m 79.535144,32.251436 c 0,0 -0.899584,2.487083 -0.820209,5.3975 0.07937,3.042708 0.423334,4.947708 0.635,5.741458 0.291042,1.190625 0.899584,1.561042 1.031875,4.153958 0.132292,2.592917 0.15875,5.23875 -0.05292,6.006042 -0.211667,0.767292 -0.714375,1.058333 -0.635,1.243542 0.07937,0.185208 1.005416,-0.105834 1.455208,0.3175 0.449792,0.423333 1.190625,0.714375 1.561042,0.714375 0.370416,0.02646 0.529166,0 0.529166,0 L 82.260352,35.135394 Z"
         id="path2275" />
      <path
         style="fill:#ffffff;stroke-width:0.264583"
         d="m 83.847852,60.297269 c 0,0 -0.449792,1.190625 -0.449792,1.42875 0,0.238125 -0.05292,1.031875 0.105834,1.217083 0.132291,0.15875 0.846666,0.396875 1.402291,0.3175 0.582084,-0.07937 1.137708,-0.635 1.190625,-0.846666 0.05292,-0.238125 -0.02646,-1.666875 -0.05292,-1.878542 -0.02646,-0.211667 -0.132291,-0.687917 -0.132291,-0.687917 z"
         id="path2277" />
      <path
         style="fill:#262626;stroke-width:0.264583"
         d="m 85.93806,59.821019 -0.370416,0.07937 c 0.105833,0.502708 0.238125,1.666875 0.07937,2.143125 -0.211667,0.555625 -0.79375,0.714375 -1.296459,0.714375 -0.291041,0 -0.79375,-0.15875 -0.926041,-0.529167 0,0.291042 0.02646,0.608542 0.105833,0.714375 0.132292,0.15875 0.846667,0.396875 1.402292,0.3175 0.582083,-0.07937 1.137708,-0.635 1.190624,-0.846666 0.05292,-0.238125 -0.02646,-1.666875 -0.05292,-1.878542 -0.02646,-0.211667 -0.132292,-0.714375 -0.132292,-0.714375 z"
         id="path2279" />
      <path
         style="fill:#cc291f;stroke-width:0.264583"
         d="m 81.757644,35.373519 c 0,0 -0.79375,1.878542 -0.926042,4.577292 -0.132292,2.69875 0.185208,4.497917 0.238125,5.106458 0.02646,0.608542 0.132292,2.487083 0.47625,3.201458 0.343958,0.714375 0.978958,2.090209 1.217083,3.81 0.238125,1.719792 0.343959,4.868334 0.370417,5.662084 0.02646,1.058333 -0.132292,1.931458 0.05292,2.434166 0.185208,0.502709 0.79375,-0.105833 1.455208,0.07937 0.661458,0.15875 1.693333,0.370417 1.878541,0.264584 0.185209,-0.105834 -0.132291,-1.984375 -0.105833,-3.069167 0.02646,-1.084792 -0.05292,-5.23875 -0.291042,-6.985 -0.211666,-1.74625 -1.481666,-3.386667 -1.269999,-5.159375 0.211666,-1.772708 1.428749,-5.503333 1.719791,-6.614583 0.291042,-1.084792 0.370417,-2.69875 0.211667,-4.153958 -0.132292,-1.481667 -5.027083,0.846666 -5.027083,0.846666 z"
         id="path2281" />
      <path
         style="fill:#fbd7c7;stroke-width:0.264583"
         d="m 79.535144,30.902061 c 0,0 -1.137709,0.820208 -1.561042,1.349375 -0.423333,0.529167 -0.635,0.767292 -0.635,1.243542 0,0.47625 0.211667,0.767291 0.423333,0.714375 0.211667,-0.05292 0,-0.714375 0,-0.714375 l 0.211667,-0.423334 c 0,0 -0.211667,0.370417 -0.105833,0.529167 0.105833,0.132292 0.582083,0.635 0.714375,0.529167 0.15875,-0.105834 0.105833,-0.3175 0.105833,-0.3175 0,0 -0.396875,-0.264584 -0.3175,-0.423334 0.07937,-0.15875 0.211667,-0.211666 0.211667,-0.211666 0,0 -0.07937,0.47625 0,0.635 0.07937,0.132291 0.423333,0.105833 0.423333,0.105833 l 0.635,-1.455208 z"
         id="path2283" />
      <path
         style="fill:#ffcc00;stroke-width:0.264583"
         d="m 84.66806,19.498519 c -1.217083,-0.238125 -3.518958,-0.423333 -4.365625,0.635 -0.846666,1.058334 -0.635,1.349375 -0.635,1.878542 0,0.529167 -0.396875,1.402292 -0.635,1.984375 -0.238125,0.582083 -0.608541,1.561042 -0.211666,2.169583 0.396875,0.635 1.137708,0.926042 1.137708,0.926042 0,0 -0.211667,2.460625 -0.449792,3.413125 -0.238125,0.926042 -0.529166,2.592917 -0.635,3.122083 -0.105833,0.529167 0.423334,2.090209 1.455209,2.487084 1.031875,0.423333 3.386666,0.608541 4.788958,-0.423334 1.402291,-1.031875 1.666875,-1.666875 1.666875,-1.666875 0,0 -0.502709,-2.037291 -0.423334,-2.804583 0.07937,-0.767292 1.375834,-4.656667 1.375834,-4.656667 l 0.9525,-3.122083 0.3175,-0.211667 c 0,0 0.07937,-0.687916 -0.3175,-1.349375 -0.396875,-0.687916 -1.058334,-1.375833 -1.984375,-1.666875 -0.926042,-0.291041 -0.978958,-0.502708 -2.037292,-0.714375 z"
         id="path2285" />
      <path
         style="fill:#fbd7c7;stroke-width:0.264583"
         d="m 81.863477,20.001228 c 0,0 -1.825625,1.455208 -0.635,2.69875 1.190625,1.243541 3.518958,-1.11125 3.942292,-2.090209 0.449791,-0.926041 -1.878542,-2.010833 -3.307292,-0.608541 z"
         id="path2287" />
      <path
         style="opacity:0.2;fill:#262626;stroke-width:0.264583"
         d="m 78.714935,25.213519 c 0,0 -0.02646,1.137709 2.910417,1.719792 4.365625,0.873125 5.23875,-0.767292 5.23875,-0.767292 0,0 -0.820209,2.275417 -5.08,1.455209 -3.704167,-0.714375 -3.069167,-2.407709 -3.069167,-2.407709 z"
         id="path2289" />
      <path
         style="fill:#825012;stroke-width:0.264583"
         d="m 84.165352,12.566436 c -2.143125,-0.132291 -3.175,0.79375 -3.571875,2.275417 -0.396875,1.42875 1.058333,4.048125 -0.47625,4.736041 0.02646,0.582084 1.349375,1.190625 1.931458,0.555625 0.582084,-0.608541 0.767292,-0.635 0.767292,-0.635 z"
         id="path2291" />
      <path
         style="fill:#fbd7c7;stroke-width:0.264583"
         d="m 81.360769,15.238728 c -0.396875,0.820208 -0.502709,4.1275 0.15875,4.656666 0.661458,0.529167 2.010833,-0.343958 3.307291,-0.926041 1.296458,-0.582083 1.455208,-5.027083 -0.502708,-5.08 -1.957917,-0.05292 -2.54,0.47625 -2.963333,1.349375 z"
         id="path2293" />
      <path
         style="fill:#825012;stroke-width:0.264583"
         d="m 83.768477,12.619353 c -0.873125,0.211667 -1.878542,1.375833 -1.693333,2.645833 0.264583,1.640417 3.4925,4.841875 1.217083,5.87375 0.370417,1.217083 2.513542,1.137708 3.704166,0.529167 1.137709,-0.608542 1.243542,-1.190625 1.217084,-1.402292 -0.02646,-0.211667 -1.005417,-1.296458 -1.005417,-2.883958 -0.02646,-1.613958 -0.105833,-5.582708 -3.439583,-4.7625 z"
         id="path2295" />
      <path
         style="fill:#fbd7c7;stroke-width:0.264583"
         d="m 86.202643,24.049353 c 0,0 0.740834,0 1.27,-0.07937 0.529167,-0.07938 1.243542,-0.529167 1.243542,-0.529167 0,0 0.05292,1.217083 0.211667,1.931458 0.15875,0.714375 0.423333,2.751667 0.529166,3.042709 0.105834,0.291041 0.502709,0.529166 0,1.561041 -0.502708,1.031875 -2.566458,4.206875 -2.936875,5.053542 -0.370416,0.846667 -0.343958,1.640417 -0.529166,1.878542 -0.185208,0.238125 -0.661458,0.449791 -0.714375,0.423333 -0.07937,-0.02646 -0.185208,-0.02646 -0.185208,-0.02646 0,0 -0.105834,0.105833 -0.291042,0.105833 -0.185208,0 -0.238125,-0.105833 -0.238125,-0.105833 0,0 -0.132292,0.211666 -0.423333,0.185208 -0.291042,-0.02646 -0.264584,-0.211667 -0.264584,-0.211667 0,0 -0.423333,0.211667 -0.635,0.15875 -0.211666,-0.05292 -0.3175,-0.264583 -0.185208,-0.343958 0.132292,-0.07937 0.423333,-0.05292 0.635,-0.238125 0.211667,-0.185208 0.555625,-0.740833 0.555625,-0.740833 0,0 -0.07937,-0.05292 -0.05292,-0.370417 0,-0.3175 -0.02646,-0.820208 0.264584,-0.978958 0.3175,-0.15875 0.687916,-0.15875 0.899583,-0.423334 0.661458,-0.79375 0.846666,-2.169583 1.42875,-3.360208 0.555625,-1.190625 0.9525,-1.640417 0.9525,-1.74625 0,-0.105833 -0.740834,-1.772708 -1.005417,-2.69875 -0.291042,-1.005417 -0.529167,-2.487083 -0.529167,-2.487083 z"
         id="path2297" />
    </g>
    <g
       transform="matrix(-0.26458333,0,0,0.26458333,56.843545,24.371407)"
       id="g2690">
      <ellipse
         style="opacity:0.2"
         transform="matrix(0.9564,-0.2919,0.2919,0.9564,-38.1725,17.888)"
         cx="40.900002"
         cy="136.89999"
         rx="26.799999"
         ry="14.6"
         id="ellipse2672" />
      <path
         style="fill:#825012"
         d="m 41.1,114.4 c 0,0 -12.3,0.8 -17.3,2.2 -5,1.4 -3.7,8.6 0.8,11.3 4.5,2.7 7.4,3.8 7.4,3.8 0,0 -7.3,0.1 -9.2,1 -1.9,0.9 -6,2.7 -5.6,5.4 0.4,2.7 3.8,4.1 6.3,3.1 2.4,-1 6.2,-4.2 8.3,-4.7 2.1,-0.5 8.3,0 8.8,-0.5 0.5,-0.5 0.9,-1.3 0.9,-1.3 l 3.5,0.9 12.7,-12.9 z"
         id="path2674" />
      <path
         style="opacity:0.2"
         d="m 41.1,114.4 c 0,0 -12.3,0.8 -17.3,2.2 -5,1.4 -3.7,8.6 0.8,11.3 4.5,2.7 7.4,3.8 7.4,3.8 0,0 -7.3,0.1 -9.2,1 -1.9,0.9 -6,2.7 -5.6,5.4 0.4,2.7 3.8,4.1 6.3,3.1 2.4,-1 6.2,-4.2 8.3,-4.7 2.1,-0.5 8.3,0 8.8,-0.5 0.5,-0.5 0.9,-1.3 0.9,-1.3 l 3.5,0.9 12.7,-12.9 z"
         id="path2676" />
      <path
         style="fill:#825012"
         d="m 63.7,127.2 c -0.2,-2.9 -4.9,-6.2 -10.4,-4.4 -5.5,1.8 -10.4,7.2 -10,10.4 0.4,3.2 4.1,6.8 4.1,6.8 0,0 -4.3,-0.1 -5.9,1.3 -1.7,1.4 -1.4,2.4 -2.7,4.2 -1.3,1.8 -3.1,4.2 -0.3,5.2 2.8,1 5,0.9 6.4,-0.6 1.4,-1.5 1.8,-4.9 1.8,-4.9 0,0 5.1,-1.2 6.4,-1.9 2.6,-1.4 1.4,-4.6 1.4,-4.6 0,0 4.3,-1 6.6,-4.2 2.3,-3.2 2.9,-3.4 2.6,-7.3 z"
         id="path2678" />
      <path
         style="fill:#2d3134"
         d="m 14.5,64.7 c 2.5,-2.4 7.6,-5.6 8.1,-6.7 0.5,-1.2 -0.7,-5.2 0.4,-5.9 1.1,-0.7 3.5,-1.4 3.5,-1.4 0,0 0,-2.1 0.8,-4.8 0.8,-2.7 1,-5.3 1,-5.3 0,0 2.3,2.6 2.8,4.1 0.5,1.5 2.2,3.5 2.2,3.5 0,0 2.3,-0.7 4.5,0.4 1.9,0.9 2.5,1.8 2.5,1.8 L 41.2,46 c 0,0 2.5,2.6 3.1,6.1 0.5,3 0.4,3.8 0.4,3.8 0,0 2.2,4.6 2.4,9.5 0.2,4.9 2.3,9.8 5.6,14.3 3.3,4.5 9,11 10.1,17.3 1.1,6.3 4.2,17.6 3.9,22.7 -0.3,5.4 -0.8,13.8 -5.7,17.2 -3.3,2.3 -6.4,1.8 -6.4,1.8 0,0 -4.9,-4.2 -5,-5.1 -0.1,-0.9 7,-6.8 8.8,-8.3 1.8,-1.4 0.5,-2.6 0.5,-2.6 0,0 -4.3,-1.1 -6.2,-1.5 -4.6,-1.2 -9,-4 -9,-4 0,0 -1.5,5.3 -1.3,8.7 0.3,3.4 0.4,6.9 -1.1,9.1 -1.5,2.2 -3.4,6.4 -3.5,8.7 -0.1,2.3 -0.6,5.3 -2.9,6.4 -2.3,1.2 -6.6,-0.2 -6.6,-1.5 0,-1.3 1.5,-3.2 3,-4.8 1.5,-1.6 5.3,-10.1 5.7,-12.6 0.4,-2.5 0.5,-18.2 0.5,-18.2 l -5.6,-2 c 0,0 0.1,8.7 0.2,11.4 0.1,2.8 -0.2,6.3 -1.5,10.2 -1.3,3.9 -2.6,9.3 -3.1,10.7 -0.5,1.3 -2,3.2 -3.9,3.5 -3.2,0.4 -6.2,-1.5 -5.3,-3.3 0.9,-1.7 3.7,-3.8 5,-6 1.4,-2.4 3.2,-6.2 3.4,-10.3 0.3,-8 -1.9,-19.9 -2.3,-22.1 -0.4,-2.2 -3,-4.7 -2,-11 1,-6.3 5.1,-10.9 5.2,-13.1 0.1,-2.2 1.3,-8.3 -0.4,-9 -1.7,-0.7 -6.3,2 -10.5,-1.3 -4.2,-3.2 -2.2,-6 -2.2,-6 z"
         id="path2680" />
      <path
         style="fill:#825012"
         d="m 39.9,65.8 c -0.4,-1 -7.1,-1 -12.8,-2.1 C 23.6,63 19.3,62.9 16.6,63 c -0.8,0.6 -1.5,1.2 -2.1,1.8 0,0 -2,2.8 2.1,6.1 4.1,3.3 8.8,0.5 10.5,1.3 0.5,0.2 0.8,1 0.9,2 0.6,1.2 1.6,2.5 2.6,2.2 1.8,-0.6 9.7,-9.6 9.3,-10.6 z"
         id="path2682" />
      <path
         d="m 28.5,59.5 c -0.1,-0.7 3.8,-0.7 3.9,-0.1 0.1,0.6 -3.7,1.4 -3.9,0.1 z"
         id="path2684" />
      <path
         style="fill:#825012"
         d="m 39.7,59.9 c -1.4,-0.7 -1.2,-3.9 0,-6.3 1.2,-2.3 2.1,-5.3 2.1,-5.3 0,0 2.4,4.7 2,7.4 -0.4,2.6 -1.8,5.3 -4.1,4.2 z"
         id="path2686" />
      <path
         style="fill:#262626"
         d="m 15.8,66.9 c -0.7,-0.6 -1.9,-2.2 -1.3,-3.7 0.6,-1.4 4,-2.9 5.6,-1.6 1.6,1.3 0.2,4.1 -0.5,4.9 -0.8,0.9 -2.7,1.3 -3.8,0.4 z"
         id="path2688" />
    </g>
    <g
       id="g2"
       transform="translate(4.1928866,-3.9817523)">
      <ellipse
         style="opacity:0.2;stroke-width:0.999953"
         transform="matrix(-0.26457129,-0.00252382,-0.00302999,0.26456598,49.12351,27.119167)"
         cx="-44.536831"
         cy="139.52534"
         rx="17.269098"
         ry="8.7139912"
         id="ellipse2672-6" />
      <g
         id="g1">
        <g
           transform="matrix(0.26458333,0,0,0.26458333,55.227163,50.734011)"
           id="g1922">
          <path
             style="fill:#656565"
             d="m 21,12 12,-6 4,2 v 18 l -2,1 -4,-2 V 13 l -6,3 z"
             id="path1869" />
          <path
             style="opacity:0.29"
             d="m 37,8 v 18 l -2,1 V 11 l -10,5 v -2 z"
             id="path1871" />
          <path
             style="opacity:0.11"
             d="m 31,13 4,-2 v 16 l -4,-2 z"
             id="path1873" />
          <ellipse
             style="fill:#656565"
             cx="20"
             cy="14"
             rx="12"
             ry="6"
             id="ellipse1875" />
          <path
             style="fill:#cc291f"
             d="M 35.9,46.2 32,14 H 8 L 4.1,46.2 C 4.1,46.3 4,47 4,47 v 2 c 0,4.4 7.2,8 16,8 8.8,0 16,-3.6 16,-8 v -1.9 c 0,-0.3 0,-0.6 -0.1,-0.9 z"
             id="path1877" />
          <g
             style="fill:#656565"
             id="g1885">
            <path
               d="m 20,55.1 c -8.8,0 -16,-3.6 -16,-8 V 50 c 0,4.4 7.2,8 16,8 8.8,0 16,-3.6 16,-8 v -2.9 c 0,4.4 -7.2,8 -16,8 z"
               id="path1879" />
            <path
               d="m 20,23 c 6,0 11,-2 12.5,-4.8 L 32,14 C 32,10.7 26.6,8 20,8 13.4,8 8,10.7 8,14 L 7.5,18.2 C 9,21 14,23 20,23 Z"
               id="path1881" />
            <path
               d="M 21.1,47 H 19 c -1.1,0 -1.9,-0.9 -1.9,-1.9 V 28.9 C 17.1,27.8 18,27 19,27 h 2.1 c 1.1,0 1.9,0.9 1.9,1.9 V 45 c 0,1.1 -0.9,2 -1.9,2 z"
               id="path1883" />
          </g>
          <path
             style="fill:#3399cc"
             d="m 19,29 h 2 v 16 h -2 z"
             id="path1887" />
          <ellipse
             style="opacity:0.2;fill:#ffffff"
             cx="20"
             cy="14"
             rx="8"
             ry="4"
             id="ellipse1889" />
          <path
             style="opacity:0.15"
             d="M 35.9,46.2 34.4,33.8 32,14 c 0,3.3 -5.4,6 -12,6 C 13.4,20 8,17.3 8,14 L 7.6,17.5 4.1,46.2 C 4.1,46.3 4,47 4,47 v 3 c 0,4.4 7.2,8 16,8 8.8,0 16,-3.6 16,-8 v -2.9 c 0,-0.3 0,-0.6 -0.1,-0.9 z"
             id="path1891" />
          <path
             style="fill:#656565"
             d="M 8,14 4,19 8,29 12,18 Z"
             id="path1893" />
          <path
             style="opacity:0.29"
             d="M 8,29 12,18 4,19 Z"
             id="path1895" />
          <path
             style="opacity:0.29"
             d="m 8.7,15.3 -3,3 5,-1 z"
             id="path1897" />
        </g>
      </g>
    </g>
    <path
       style="fill:none;stroke:#000000;stroke-width:1.00542;stroke-linecap:round;stroke-linejoin:round;stroke-opacity:1"
       d="m 126.84833,32.767068 c 7.9749,1.043525 7.69593,11.990115 17.82317,11.990115"
       id="path1" />
    <path
       style="fill:none;stroke:#ff4400;stroke-width:1.00542;stroke-linecap:round;stroke-linejoin:round;stroke-opacity:1"
       d="m 123.96539,32.643399 c 0.68296,0 1.8557,-0.01075 2.88294,0.123669"
       id="path2" />
    <path
       style="fill:none;stroke:#000000;stroke-width:1.00542;stroke-linecap:round;stroke-linejoin:round;stroke-opacity:1"
       d="m 145.17331,32.588103 c -6.27272,0 -8.27999,3.010908 -10.53817,6.147268"
       id="path3" />
    <circle
       style="fill:none;stroke:#000000;stroke-width:1.00542;stroke-linecap:round;stroke-linejoin:round;stroke-opacity:1"
       id="path4"
       cx="149.03105"
       cy="38.484459"
       r="0.5018177" />
    <circle
       style="fill:none;stroke:#000000;stroke-width:1.00542;stroke-linecap:round;stroke-linejoin:round;stroke-opacity:1"
       id="path4-3"
       cx="154.00696"
       cy="41.882652"
       r="0.5018177" />
    <circle
       style="fill:none;stroke:#000000;stroke-width:1.00542;stroke-linecap:round;stroke-linejoin:round;stroke-opacity:1"
       id="path4-5"
       cx="157.90956"
       cy="34.67276"
       r="0.5018177" />
    <path
       style="fill:none;stroke:#000000;stroke-width:1.00542;stroke-linecap:round;stroke-linejoin:round;stroke-opacity:1"
       d="m 149.18096,35.332231 c 0.42095,-7.577091 -1.02899,-11.272092 -2.66602,-14.312283 -1.63702,-3.04019 -0.35245,-5.710052 1.56687,-5.495729 1.91927,0.214323 2.67328,2.839781 1.98781,4.232881"
       id="path5"
       sodipodi:nodetypes="cssc" />
    <path
       style="fill:none;stroke:#000000;stroke-width:1.00542;stroke-linecap:round;stroke-linejoin:round;stroke-opacity:1"
       d="m 146.14076,20.365138 c -4.67722,1.96443 -5.07478,3.250666 -4.34981,4.677217 0.89124,1.753746 4.39659,1.216076 6.26747,-0.233861"
       id="path6"
       sodipodi:nodetypes="csc" />
    <path
       style="fill:none;stroke:#000000;stroke-width:1.00542;stroke-linecap:round;stroke-linejoin:round;stroke-opacity:1"
       d="m 141.83773,24.995583 c 5.00462,-2.104748 5.42557,-2.385381 5.42557,-2.385381"
       id="path7" />
    <path
       style="fill:none;stroke:#000000;stroke-width:1.00542;stroke-linecap:round;stroke-linejoin:round;stroke-opacity:1"
       d="m 155.78041,44.843729 c 3.74178,5.612662 10.28988,11.225321 10.28988,11.225321"
       id="path8" />
    <path
       style="fill:none;stroke:#000000;stroke-width:1.00542;stroke-linecap:round;stroke-linejoin:round;stroke-opacity:1"
       d="m 167.98933,46.334931 c 0.0935,7.10937 -4.16216,18.792677 -4.16216,18.792677"
       id="path9"
       sodipodi:nodetypes="cc" />
    <path
       style="fill:none;stroke:#000000;stroke-width:1.00542;stroke-linecap:round;stroke-linejoin:round;stroke-opacity:1"
       d="m 163.12364,53.169174 c 2.71279,-1.683798 4.63045,-2.43215 4.63045,-2.43215 0,0 2.94665,3.601454 2.19829,6.828734 -0.6844,2.951427 -2.94665,4.139337 -2.94665,4.139337"
       id="path10"
       sodipodi:nodetypes="ccsc" />
    <path
       style="fill:none;stroke:#000000;stroke-width:1.00542;stroke-linecap:round;stroke-linejoin:round;stroke-opacity:1"
       d="m 160.26711,32.582498 c 6.15157,-5.886979 13.5599,-9.988021 17.66094,-11.1125 4.10104,-1.124479 6.91929,3.676079 2.65386,5.591673 -5.10303,2.291755 -7.26891,-3.315041 -3.78235,-5.208497"
       id="path11"
       sodipodi:nodetypes="cssc" />
    <path
       style="fill:none;stroke:#000000;stroke-width:1.00542;stroke-linecap:round;stroke-linejoin:round;stroke-opacity:1"
       d="m 181.92606,25.971161 c -2.73618,-2.432153 -3.39098,-1.894273 -8.83994,6.665034"
       id="path12"
       sodipodi:nodetypes="cc" />
    <path
       style="fill:none;stroke:#ff4400;stroke-width:1.00542;stroke-linecap:round;stroke-linejoin:round;stroke-opacity:1"
       d="m 121.14162,27.096065 c -0.34352,6.385198 -0.51527,9.606559 -0.51527,9.606559 0,0 -11.39323,-0.862865 -11.73674,-0.977912 -0.3435,-0.115043 1.94658,-3.969177 6.24051,-3.393933 4.29393,0.575241 5.43898,3.451458 5.43898,4.256797"
       id="path13"
       sodipodi:nodetypes="ccssc" />
  </g>
</svg>
