<?xml version="1.0" encoding="UTF-8" standalone="no"?>
<!-- Created with Inkscape (http://www.inkscape.org/) -->

<svg
   width="136.67137mm"
   height="56.695492mm"
   viewBox="0 0 136.67137 56.695492"
   version="1.1"
   id="svg1"
   inkscape:version="1.3 (0e150ed6c4, 2023-07-21)"
   sodipodi:docname="+1 size comparison.svg"
   xmlns:inkscape="http://www.inkscape.org/namespaces/inkscape"
   xmlns:sodipodi="http://sodipodi.sourceforge.net/DTD/sodipodi-0.dtd"
   xmlns="http://www.w3.org/2000/svg"
   xmlns:svg="http://www.w3.org/2000/svg">
  <sodipodi:namedview
     id="namedview1"
     pagecolor="#ffffff"
     bordercolor="#000000"
     borderopacity="0.25"
     inkscape:showpageshadow="2"
     inkscape:pageopacity="0.0"
     inkscape:pagecheckerboard="0"
     inkscape:deskcolor="#d1d1d1"
     inkscape:document-units="mm"
     inkscape:zoom="5.6568544"
     inkscape:cx="251.73001"
     inkscape:cy="123.92046"
     inkscape:window-width="1920"
     inkscape:window-height="1051"
     inkscape:window-x="-9"
     inkscape:window-y="-9"
     inkscape:window-maximized="1"
     inkscape:current-layer="layer1" />
  <defs
     id="defs1" />
  <g
     inkscape:label="Layer 1"
     inkscape:groupmode="layer"
     id="layer1"
     transform="translate(-38.678169,-11.386482)">
    <g
       transform="matrix(-0.26458333,0,0,0.26458333,56.375823,20.536089)"
       id="g2690">
      <ellipse
         style="opacity:0.2"
         transform="matrix(0.9564,-0.2919,0.2919,0.9564,-38.1725,17.888)"
         cx="40.900002"
         cy="136.89999"
         rx="26.799999"
         ry="14.6"
         id="ellipse2672" />
      <path
         style="fill:#825012"
         d="m 41.1,114.4 c 0,0 -12.3,0.8 -17.3,2.2 -5,1.4 -3.7,8.6 0.8,11.3 4.5,2.7 7.4,3.8 7.4,3.8 0,0 -7.3,0.1 -9.2,1 -1.9,0.9 -6,2.7 -5.6,5.4 0.4,2.7 3.8,4.1 6.3,3.1 2.4,-1 6.2,-4.2 8.3,-4.7 2.1,-0.5 8.3,0 8.8,-0.5 0.5,-0.5 0.9,-1.3 0.9,-1.3 l 3.5,0.9 12.7,-12.9 z"
         id="path2674" />
      <path
         style="opacity:0.2"
         d="m 41.1,114.4 c 0,0 -12.3,0.8 -17.3,2.2 -5,1.4 -3.7,8.6 0.8,11.3 4.5,2.7 7.4,3.8 7.4,3.8 0,0 -7.3,0.1 -9.2,1 -1.9,0.9 -6,2.7 -5.6,5.4 0.4,2.7 3.8,4.1 6.3,3.1 2.4,-1 6.2,-4.2 8.3,-4.7 2.1,-0.5 8.3,0 8.8,-0.5 0.5,-0.5 0.9,-1.3 0.9,-1.3 l 3.5,0.9 12.7,-12.9 z"
         id="path2676" />
      <path
         style="fill:#825012"
         d="m 63.7,127.2 c -0.2,-2.9 -4.9,-6.2 -10.4,-4.4 -5.5,1.8 -10.4,7.2 -10,10.4 0.4,3.2 4.1,6.8 4.1,6.8 0,0 -4.3,-0.1 -5.9,1.3 -1.7,1.4 -1.4,2.4 -2.7,4.2 -1.3,1.8 -3.1,4.2 -0.3,5.2 2.8,1 5,0.9 6.4,-0.6 1.4,-1.5 1.8,-4.9 1.8,-4.9 0,0 5.1,-1.2 6.4,-1.9 2.6,-1.4 1.4,-4.6 1.4,-4.6 0,0 4.3,-1 6.6,-4.2 2.3,-3.2 2.9,-3.4 2.6,-7.3 z"
         id="path2678" />
      <path
         style="fill:#2d3134"
         d="m 14.5,64.7 c 2.5,-2.4 7.6,-5.6 8.1,-6.7 0.5,-1.2 -0.7,-5.2 0.4,-5.9 1.1,-0.7 3.5,-1.4 3.5,-1.4 0,0 0,-2.1 0.8,-4.8 0.8,-2.7 1,-5.3 1,-5.3 0,0 2.3,2.6 2.8,4.1 0.5,1.5 2.2,3.5 2.2,3.5 0,0 2.3,-0.7 4.5,0.4 1.9,0.9 2.5,1.8 2.5,1.8 L 41.2,46 c 0,0 2.5,2.6 3.1,6.1 0.5,3 0.4,3.8 0.4,3.8 0,0 2.2,4.6 2.4,9.5 0.2,4.9 2.3,9.8 5.6,14.3 3.3,4.5 9,11 10.1,17.3 1.1,6.3 4.2,17.6 3.9,22.7 -0.3,5.4 -0.8,13.8 -5.7,17.2 -3.3,2.3 -6.4,1.8 -6.4,1.8 0,0 -4.9,-4.2 -5,-5.1 -0.1,-0.9 7,-6.8 8.8,-8.3 1.8,-1.4 0.5,-2.6 0.5,-2.6 0,0 -4.3,-1.1 -6.2,-1.5 -4.6,-1.2 -9,-4 -9,-4 0,0 -1.5,5.3 -1.3,8.7 0.3,3.4 0.4,6.9 -1.1,9.1 -1.5,2.2 -3.4,6.4 -3.5,8.7 -0.1,2.3 -0.6,5.3 -2.9,6.4 -2.3,1.2 -6.6,-0.2 -6.6,-1.5 0,-1.3 1.5,-3.2 3,-4.8 1.5,-1.6 5.3,-10.1 5.7,-12.6 0.4,-2.5 0.5,-18.2 0.5,-18.2 l -5.6,-2 c 0,0 0.1,8.7 0.2,11.4 0.1,2.8 -0.2,6.3 -1.5,10.2 -1.3,3.9 -2.6,9.3 -3.1,10.7 -0.5,1.3 -2,3.2 -3.9,3.5 -3.2,0.4 -6.2,-1.5 -5.3,-3.3 0.9,-1.7 3.7,-3.8 5,-6 1.4,-2.4 3.2,-6.2 3.4,-10.3 0.3,-8 -1.9,-19.9 -2.3,-22.1 -0.4,-2.2 -3,-4.7 -2,-11 1,-6.3 5.1,-10.9 5.2,-13.1 0.1,-2.2 1.3,-8.3 -0.4,-9 -1.7,-0.7 -6.3,2 -10.5,-1.3 -4.2,-3.2 -2.2,-6 -2.2,-6 z"
         id="path2680" />
      <path
         style="fill:#825012"
         d="m 39.9,65.8 c -0.4,-1 -7.1,-1 -12.8,-2.1 C 23.6,63 19.3,62.9 16.6,63 c -0.8,0.6 -1.5,1.2 -2.1,1.8 0,0 -2,2.8 2.1,6.1 4.1,3.3 8.8,0.5 10.5,1.3 0.5,0.2 0.8,1 0.9,2 0.6,1.2 1.6,2.5 2.6,2.2 1.8,-0.6 9.7,-9.6 9.3,-10.6 z"
         id="path2682" />
      <path
         d="m 28.5,59.5 c -0.1,-0.7 3.8,-0.7 3.9,-0.1 0.1,0.6 -3.7,1.4 -3.9,0.1 z"
         id="path2684" />
      <path
         style="fill:#825012"
         d="m 39.7,59.9 c -1.4,-0.7 -1.2,-3.9 0,-6.3 1.2,-2.3 2.1,-5.3 2.1,-5.3 0,0 2.4,4.7 2,7.4 -0.4,2.6 -1.8,5.3 -4.1,4.2 z"
         id="path2686" />
      <path
         style="fill:#262626"
         d="m 15.8,66.9 c -0.7,-0.6 -1.9,-2.2 -1.3,-3.7 0.6,-1.4 4,-2.9 5.6,-1.6 1.6,1.3 0.2,4.1 -0.5,4.9 -0.8,0.9 -2.7,1.3 -3.8,0.4 z"
         id="path2688" />
    </g>
    <g
       transform="matrix(0.26458333,0,0,0.26458333,72.534094,-0.5946373)"
       id="g2323">
      <path
         style="opacity:0.2"
         d="m 42.8,237.8 c 5.5,-0.2 6.9,-2.6 8.2,-7.3 1.4,-4.7 -0.4,-5.7 2.9,-8.1 3.3,-2.4 5.9,-4.8 5,-8.4 -1.7,-6.9 -9,-15.1 -15.9,-15.1 -6.9,0 -19.8,10.2 -20.2,11.2 -0.4,1 -3.4,2.3 -0.4,6.4 4.8,6.5 8.4,21.6 20.4,21.3 z"
         id="path2265" />
      <path
         style="fill:#ffffff"
         d="m 27.8,204.8 c 0,0 -2.4,2.3 -4.3,3.7 -1.9,1.4 -2,4.1 -1.9,5 0.1,0.9 2.1,3.3 5.5,2.7 3.4,-0.6 6,-4.3 8.3,-6.4 2.3,-2.2 2.3,-2 4,-2.3 1.7,-0.3 0,-4.2 -2.3,-4.3 -2.3,-0.1 -6.8,-2.3 -6.8,-2.3 0,0 -1.5,2.8 -2.5,3.9 z"
         id="path2267" />
      <path
         style="fill:#ffffff"
         d="m 27.8,204.8 c 0,0 -2.4,2.3 -4.3,3.7 -1.9,1.4 -2,4.1 -1.9,5 0.1,0.9 2.1,3.3 5.5,2.7 3.4,-0.6 6,-4.3 8.3,-6.4 2.3,-2.2 2.3,-2 4,-2.3 1.7,-0.3 0,-4.2 -2.3,-4.3 -2.3,-0.1 -6.8,-2.3 -6.8,-2.3 0,0 -1.5,2.8 -2.5,3.9 z"
         id="path2269" />
      <path
         style="fill:#262626"
         d="m 35.4,209.9 c 2.3,-2.2 2.3,-2 4,-2.3 0.2,0 0.4,-0.1 0.5,-0.3 L 33.3,206 c 0,0 0.3,2.6 -1.8,4.9 -2,2.3 -3.2,3.6 -5.7,3.6 -1.8,0 -3.1,-0.4 -4.1,-1.6 0,0.3 0,0.5 0,0.7 0.1,1 2.1,3.3 5.5,2.7 3.4,-0.6 5.9,-4.2 8.2,-6.4 z"
         id="path2271" />
      <path
         style="fill:#cc291f"
         d="m 25.4,119.9 c 0,0 -3.4,9.4 -3.1,20.4 0.3,11.5 1.6,18.7 2.4,21.7 1.1,4.5 3.4,5.9 3.9,15.7 0.5,9.8 0.6,19.8 -0.2,22.7 -0.8,2.9 -2.7,4 -2.4,4.7 0.3,0.7 3.8,-0.4 5.5,1.2 1.7,1.6 4.5,2.7 5.9,2.7 1.4,0.1 2,0 2,0 l -3.7,-78.2 z"
         id="path2273" />
      <path
         style="opacity:0.2"
         d="m 25.4,119.9 c 0,0 -3.4,9.4 -3.1,20.4 0.3,11.5 1.6,18.7 2.4,21.7 1.1,4.5 3.4,5.9 3.9,15.7 0.5,9.8 0.6,19.8 -0.2,22.7 -0.8,2.9 -2.7,4 -2.4,4.7 0.3,0.7 3.8,-0.4 5.5,1.2 1.7,1.6 4.5,2.7 5.9,2.7 1.4,0.1 2,0 2,0 l -3.7,-78.2 z"
         id="path2275" />
      <path
         style="fill:#ffffff"
         d="m 41.7,225.9 c 0,0 -1.7,4.5 -1.7,5.4 0,0.9 -0.2,3.9 0.4,4.6 0.5,0.6 3.2,1.5 5.3,1.2 2.2,-0.3 4.3,-2.4 4.5,-3.2 0.2,-0.9 -0.1,-6.3 -0.2,-7.1 -0.1,-0.8 -0.5,-2.6 -0.5,-2.6 z"
         id="path2277" />
      <path
         style="fill:#262626"
         d="m 49.6,224.1 -1.4,0.3 c 0.4,1.9 0.9,6.3 0.3,8.1 -0.8,2.1 -3,2.7 -4.9,2.7 -1.1,0 -3,-0.6 -3.5,-2 0,1.1 0.1,2.3 0.4,2.7 0.5,0.6 3.2,1.5 5.3,1.2 2.2,-0.3 4.3,-2.4 4.5,-3.2 0.2,-0.9 -0.1,-6.3 -0.2,-7.1 -0.1,-0.8 -0.5,-2.7 -0.5,-2.7 z"
         id="path2279" />
      <path
         style="fill:#cc291f"
         d="m 33.8,131.7 c 0,0 -3,7.1 -3.5,17.3 -0.5,10.2 0.7,17 0.9,19.3 0.1,2.3 0.5,9.4 1.8,12.1 1.3,2.7 3.7,7.9 4.6,14.4 0.9,6.5 1.3,18.4 1.4,21.4 0.1,4 -0.5,7.3 0.2,9.2 0.7,1.9 3,-0.4 5.5,0.3 2.5,0.6 6.4,1.4 7.1,1 0.7,-0.4 -0.5,-7.5 -0.4,-11.6 0.1,-4.1 -0.2,-19.8 -1.1,-26.4 -0.8,-6.6 -5.6,-12.8 -4.8,-19.5 0.8,-6.7 5.4,-20.8 6.5,-25 1.1,-4.1 1.4,-10.2 0.8,-15.7 -0.5,-5.6 -19,3.2 -19,3.2 z"
         id="path2281" />
      <path
         style="fill:#fbd7c7"
         d="m 25.4,114.8 c 0,0 -4.3,3.1 -5.9,5.1 -1.6,2 -2.4,2.9 -2.4,4.7 0,1.8 0.8,2.9 1.6,2.7 0.8,-0.2 0,-2.7 0,-2.7 l 0.8,-1.6 c 0,0 -0.8,1.4 -0.4,2 0.4,0.5 2.2,2.4 2.7,2 0.6,-0.4 0.4,-1.2 0.4,-1.2 0,0 -1.5,-1 -1.2,-1.6 0.3,-0.6 0.8,-0.8 0.8,-0.8 0,0 -0.3,1.8 0,2.4 0.3,0.5 1.6,0.4 1.6,0.4 l 2.4,-5.5 z"
         id="path2283" />
      <path
         style="fill:#ffcc00"
         d="m 44.8,71.7 c -4.6,-0.9 -13.3,-1.6 -16.5,2.4 -3.2,4 -2.4,5.1 -2.4,7.1 0,2 -1.5,5.3 -2.4,7.5 -0.9,2.2 -2.3,5.9 -0.8,8.2 1.5,2.4 4.3,3.5 4.3,3.5 0,0 -0.8,9.3 -1.7,12.9 -0.9,3.5 -2,9.8 -2.4,11.8 -0.4,2 1.6,7.9 5.5,9.4 3.9,1.6 12.8,2.3 18.1,-1.6 5.3,-3.9 6.3,-6.3 6.3,-6.3 0,0 -1.9,-7.7 -1.6,-10.6 0.3,-2.9 5.2,-17.6 5.2,-17.6 L 60,86.6 61.2,85.8 c 0,0 0.3,-2.6 -1.2,-5.1 -1.5,-2.6 -4,-5.2 -7.5,-6.3 -3.5,-1.1 -3.7,-1.9 -7.7,-2.7 z"
         id="path2285" />
      <path
         style="fill:#fbd7c7"
         d="m 34.2,73.6 c 0,0 -6.9,5.5 -2.4,10.2 4.5,4.7 13.3,-4.2 14.9,-7.9 1.7,-3.5 -7.1,-7.6 -12.5,-2.3 z"
         id="path2287" />
      <path
         style="opacity:0.2;fill:#262626"
         d="m 22.3,93.3 c 0,0 -0.1,4.3 11,6.5 16.5,3.3 19.8,-2.9 19.8,-2.9 0,0 -3.1,8.6 -19.2,5.5 -14,-2.7 -11.6,-9.1 -11.6,-9.1 z"
         id="path2289" />
      <path
         style="fill:#825012"
         d="m 42.9,45.5 c -8.1,-0.5 -12,3 -13.5,8.6 -1.5,5.4 4,15.3 -1.8,17.9 0.1,2.2 5.1,4.5 7.3,2.1 2.2,-2.3 2.9,-2.4 2.9,-2.4 z"
         id="path2291" />
      <path
         style="fill:#fbd7c7"
         d="m 32.3,55.6 c -1.5,3.1 -1.9,15.6 0.6,17.6 2.5,2 7.6,-1.3 12.5,-3.5 4.9,-2.2 5.5,-19 -1.9,-19.2 -7.4,-0.2 -9.6,1.8 -11.2,5.1 z"
         id="path2293" />
      <path
         style="fill:#825012"
         d="m 41.4,45.7 c -3.3,0.8 -7.1,5.2 -6.4,10 1,6.2 13.2,18.3 4.6,22.2 1.4,4.6 9.5,4.3 14,2 4.3,-2.3 4.7,-4.5 4.6,-5.3 -0.1,-0.8 -3.8,-4.9 -3.8,-10.9 -0.1,-6.1 -0.4,-21.1 -13,-18 z"
         id="path2295" />
      <path
         style="fill:#fbd7c7"
         d="m 50.6,88.9 c 0,0 2.8,0 4.8,-0.3 2,-0.3 4.7,-2 4.7,-2 0,0 0.2,4.6 0.8,7.3 0.6,2.7 1.6,10.4 2,11.5 0.4,1.1 1.9,2 0,5.9 -1.9,3.9 -9.7,15.9 -11.1,19.1 -1.4,3.2 -1.3,6.2 -2,7.1 -0.7,0.9 -2.5,1.7 -2.7,1.6 -0.3,-0.1 -0.7,-0.1 -0.7,-0.1 0,0 -0.4,0.4 -1.1,0.4 -0.7,0 -0.9,-0.4 -0.9,-0.4 0,0 -0.5,0.8 -1.6,0.7 -1.1,-0.1 -1,-0.8 -1,-0.8 0,0 -1.6,0.8 -2.4,0.6 -0.8,-0.2 -1.2,-1 -0.7,-1.3 0.5,-0.3 1.6,-0.2 2.4,-0.9 0.8,-0.7 2.1,-2.8 2.1,-2.8 0,0 -0.3,-0.2 -0.2,-1.4 0,-1.2 -0.1,-3.1 1,-3.7 1.2,-0.6 2.6,-0.6 3.4,-1.6 2.5,-3 3.2,-8.2 5.4,-12.7 2.1,-4.5 3.6,-6.2 3.6,-6.6 0,-0.4 -2.8,-6.7 -3.8,-10.2 -1.1,-3.8 -2,-9.4 -2,-9.4 z"
         id="path2297" />
    </g>
    <g
       id="g2"
       transform="translate(3.6316206,1.6309076)">
      <ellipse
         style="opacity:0.2;stroke-width:0.999953"
         transform="matrix(-0.26457129,-0.00252382,-0.00302999,0.26456598,49.12351,27.119167)"
         cx="-44.536831"
         cy="139.52534"
         rx="17.269098"
         ry="8.7139912"
         id="ellipse2672-6" />
      <g
         id="g1">
        <g
           transform="matrix(0.26458333,0,0,0.26458333,55.227163,50.734011)"
           id="g1922">
          <path
             style="fill:#656565"
             d="m 21,12 12,-6 4,2 v 18 l -2,1 -4,-2 V 13 l -6,3 z"
             id="path1869" />
          <path
             style="opacity:0.29"
             d="m 37,8 v 18 l -2,1 V 11 l -10,5 v -2 z"
             id="path1871" />
          <path
             style="opacity:0.11"
             d="m 31,13 4,-2 v 16 l -4,-2 z"
             id="path1873" />
          <ellipse
             style="fill:#656565"
             cx="20"
             cy="14"
             rx="12"
             ry="6"
             id="ellipse1875" />
          <path
             style="fill:#cc291f"
             d="M 35.9,46.2 32,14 H 8 L 4.1,46.2 C 4.1,46.3 4,47 4,47 v 2 c 0,4.4 7.2,8 16,8 8.8,0 16,-3.6 16,-8 v -1.9 c 0,-0.3 0,-0.6 -0.1,-0.9 z"
             id="path1877" />
          <g
             style="fill:#656565"
             id="g1885">
            <path
               d="m 20,55.1 c -8.8,0 -16,-3.6 -16,-8 V 50 c 0,4.4 7.2,8 16,8 8.8,0 16,-3.6 16,-8 v -2.9 c 0,4.4 -7.2,8 -16,8 z"
               id="path1879" />
            <path
               d="m 20,23 c 6,0 11,-2 12.5,-4.8 L 32,14 C 32,10.7 26.6,8 20,8 13.4,8 8,10.7 8,14 L 7.5,18.2 C 9,21 14,23 20,23 Z"
               id="path1881" />
            <path
               d="M 21.1,47 H 19 c -1.1,0 -1.9,-0.9 -1.9,-1.9 V 28.9 C 17.1,27.8 18,27 19,27 h 2.1 c 1.1,0 1.9,0.9 1.9,1.9 V 45 c 0,1.1 -0.9,2 -1.9,2 z"
               id="path1883" />
          </g>
          <path
             style="fill:#3399cc"
             d="m 19,29 h 2 v 16 h -2 z"
             id="path1887" />
          <ellipse
             style="opacity:0.2;fill:#ffffff"
             cx="20"
             cy="14"
             rx="8"
             ry="4"
             id="ellipse1889" />
          <path
             style="opacity:0.15"
             d="M 35.9,46.2 34.4,33.8 32,14 c 0,3.3 -5.4,6 -12,6 C 13.4,20 8,17.3 8,14 L 7.6,17.5 4.1,46.2 C 4.1,46.3 4,47 4,47 v 3 c 0,4.4 7.2,8 16,8 8.8,0 16,-3.6 16,-8 v -2.9 c 0,-0.3 0,-0.6 -0.1,-0.9 z"
             id="path1891" />
          <path
             style="fill:#656565"
             d="M 8,14 4,19 8,29 12,18 Z"
             id="path1893" />
          <path
             style="opacity:0.29"
             d="M 8,29 12,18 4,19 Z"
             id="path1895" />
          <path
             style="opacity:0.29"
             d="m 8.7,15.3 -3,3 5,-1 z"
             id="path1897" />
        </g>
      </g>
    </g>
    <path
       style="fill:none;stroke:#000000;stroke-width:1.00542;stroke-linecap:round;stroke-linejoin:round;stroke-opacity:1"
       d="m 118.99061,32.767068 c 7.9749,1.043525 7.69593,11.990115 17.82317,11.990115"
       id="path1" />
    <path
       style="fill:none;stroke:#ff4400;stroke-width:1.00542;stroke-linecap:round;stroke-linejoin:round;stroke-opacity:1"
       d="m 116.10767,32.643399 c 0.68296,0 1.8557,-0.01075 2.88294,0.123669"
       id="path2" />
    <path
       style="fill:none;stroke:#000000;stroke-width:1.00542;stroke-linecap:round;stroke-linejoin:round;stroke-opacity:1"
       d="m 137.31559,32.588103 c -6.27272,0 -8.27999,3.010908 -10.53817,6.147268"
       id="path3" />
    <circle
       style="fill:none;stroke:#000000;stroke-width:1.00542;stroke-linecap:round;stroke-linejoin:round;stroke-opacity:1"
       id="path4"
       cx="141.17332"
       cy="38.484459"
       r="0.5018177" />
    <circle
       style="fill:none;stroke:#000000;stroke-width:1.00542;stroke-linecap:round;stroke-linejoin:round;stroke-opacity:1"
       id="path4-3"
       cx="146.14923"
       cy="41.882652"
       r="0.5018177" />
    <circle
       style="fill:none;stroke:#000000;stroke-width:1.00542;stroke-linecap:round;stroke-linejoin:round;stroke-opacity:1"
       id="path4-5"
       cx="150.05183"
       cy="34.67276"
       r="0.5018177" />
    <path
       style="fill:none;stroke:#000000;stroke-width:1.00542;stroke-linecap:round;stroke-linejoin:round;stroke-opacity:1"
       d="m 141.32324,35.332231 c 0.42095,-7.577091 -1.02899,-11.272092 -2.66602,-14.312283 -1.63702,-3.04019 -0.35245,-5.710052 1.56687,-5.495729 1.91927,0.214323 2.67328,2.839781 1.98781,4.232881"
       id="path5"
       sodipodi:nodetypes="cssc" />
    <path
       style="fill:none;stroke:#000000;stroke-width:1.00542;stroke-linecap:round;stroke-linejoin:round;stroke-opacity:1"
       d="m 138.28304,20.365138 c -4.67722,1.96443 -5.07478,3.250666 -4.34981,4.677217 0.89124,1.753746 4.39659,1.216076 6.26747,-0.233861"
       id="path6"
       sodipodi:nodetypes="csc" />
    <path
       style="fill:none;stroke:#000000;stroke-width:1.00542;stroke-linecap:round;stroke-linejoin:round;stroke-opacity:1"
       d="m 133.98001,24.995583 c 5.00462,-2.104748 5.42557,-2.385381 5.42557,-2.385381"
       id="path7" />
    <path
       style="fill:none;stroke:#000000;stroke-width:1.00542;stroke-linecap:round;stroke-linejoin:round;stroke-opacity:1"
       d="m 147.92269,44.843729 c 3.74178,5.612662 10.28988,11.225321 10.28988,11.225321"
       id="path8" />
    <path
       style="fill:none;stroke:#000000;stroke-width:1.00542;stroke-linecap:round;stroke-linejoin:round;stroke-opacity:1"
       d="m 160.13161,46.334931 c 0.0935,7.10937 -4.16216,18.792677 -4.16216,18.792677"
       id="path9"
       sodipodi:nodetypes="cc" />
    <path
       style="fill:none;stroke:#000000;stroke-width:1.00542;stroke-linecap:round;stroke-linejoin:round;stroke-opacity:1"
       d="m 155.26592,53.169174 c 2.71279,-1.683798 4.63045,-2.43215 4.63045,-2.43215 0,0 2.94665,3.601454 2.19829,6.828734 -0.6844,2.951427 -2.94665,4.139337 -2.94665,4.139337"
       id="path10"
       sodipodi:nodetypes="ccsc" />
    <path
       style="fill:none;stroke:#000000;stroke-width:1.00542;stroke-linecap:round;stroke-linejoin:round;stroke-opacity:1"
       d="m 152.40939,32.582498 c 6.15157,-5.886979 13.5599,-9.988021 17.66094,-11.1125 4.10104,-1.124479 6.91929,3.676079 2.65386,5.591673 -5.10303,2.291755 -7.26891,-3.315041 -3.78235,-5.208497"
       id="path11"
       sodipodi:nodetypes="cssc" />
    <path
       style="fill:none;stroke:#000000;stroke-width:1.00542;stroke-linecap:round;stroke-linejoin:round;stroke-opacity:1"
       d="m 174.06834,25.971161 c -2.73618,-2.432153 -3.39098,-1.894273 -8.83994,6.665034"
       id="path12"
       sodipodi:nodetypes="cc" />
    <path
       style="fill:none;stroke:#ff4400;stroke-width:1.00542;stroke-linecap:round;stroke-linejoin:round;stroke-opacity:1"
       d="m 113.2839,27.096065 c -0.34352,6.385198 -0.51527,9.606559 -0.51527,9.606559 0,0 -11.39323,-0.862865 -11.73674,-0.977912 -0.3435,-0.115043 1.94658,-3.969177 6.24051,-3.393933 4.29393,0.575241 5.43898,3.451458 5.43898,4.256797"
       id="path13"
       sodipodi:nodetypes="ccssc" />
  </g>
</svg>
