<?xml version="1.0" encoding="UTF-8" standalone="no"?>
<svg
   id="svg8"
   version="1.1"
   viewBox="0 0 100.22802 45.079372"
   height="45.079372mm"
   width="100.22802mm"
   sodipodi:docname="+2a similar creatures.svg"
   inkscape:version="1.3 (0e150ed6c4, 2023-07-21)"
   xmlns:inkscape="http://www.inkscape.org/namespaces/inkscape"
   xmlns:sodipodi="http://sodipodi.sourceforge.net/DTD/sodipodi-0.dtd"
   xmlns="http://www.w3.org/2000/svg"
   xmlns:svg="http://www.w3.org/2000/svg"
   xmlns:rdf="http://www.w3.org/1999/02/22-rdf-syntax-ns#"
   xmlns:cc="http://creativecommons.org/ns#"
   xmlns:dc="http://purl.org/dc/elements/1.1/">
  <sodipodi:namedview
     id="namedview1"
     pagecolor="#ffffff"
     bordercolor="#000000"
     borderopacity="0.25"
     inkscape:showpageshadow="2"
     inkscape:pageopacity="0.0"
     inkscape:pagecheckerboard="0"
     inkscape:deskcolor="#d1d1d1"
     inkscape:document-units="mm"
     showgrid="false"
     inkscape:zoom="2"
     inkscape:cx="135"
     inkscape:cy="145.25"
     inkscape:window-width="1920"
     inkscape:window-height="1051"
     inkscape:window-x="-9"
     inkscape:window-y="-9"
     inkscape:window-maximized="1"
     inkscape:current-layer="svg8" />
  <defs
     id="defs2" />
  <metadata
     id="metadata5">
    <rdf:RDF>
      <cc:Work
         rdf:about="">
        <dc:format>image/svg+xml</dc:format>
        <dc:type
           rdf:resource="http://purl.org/dc/dcmitype/StillImage" />
        <dc:title />
      </cc:Work>
    </rdf:RDF>
  </metadata>
  <g
     transform="translate(-118.00745,-72.489001)"
     id="layer1">
    <g
       transform="matrix(0.26458333,0,0,0.26458333,126.39757,78.123821)"
       id="g989">
      <path
         style="opacity:0.2"
         d="m 103.2,117 c 12.7,8.2 34.5,15.5 14.8,27.5 -18.4,11.2 -39.2,-0.4 -49.5,-10.6 -20.7,-20.6 -56.1,-20.3 -31.1,-23.8 1.9,-0.3 15.8,0 29.6,2 14.3,2 32.4,2.4 36.2,4.9 z"
         id="path961" />
      <path
         style="opacity:1;fill:#f8ebcb"
         d="m 96.1,110.4 c 0,0 2,4.7 1.9,6.2 -0.1,1.5 -0.8,3.5 0.1,4.3 0.9,0.7 7.8,5.2 9.1,7.1 1.3,1.9 2,5.2 6.6,3 4.6,-2.2 3.1,-5.5 0.9,-6.4 -2.1,-0.9 -6.5,-1.7 -8.8,-3.9 -2.3,-2.2 -3.2,-2.9 -1.2,-6.3 2,-3.4 2.9,-6.1 2.9,-6.1 z"
         id="path963" />
      <path
         style="opacity:0.2"
         d="m 96.1,110.4 c 0,0 2,4.7 1.9,6.2 -0.1,1.5 -0.8,3.5 0.1,4.3 0.9,0.7 7.8,5.2 9.1,7.1 1.3,1.9 2,5.2 6.6,3 4.6,-2.2 3.1,-5.5 0.9,-6.4 -2.1,-0.9 -6.5,-1.7 -8.8,-3.9 -2.3,-2.2 -3.2,-2.9 -1.2,-6.3 2,-3.4 2.9,-6.1 2.9,-6.1 z"
         id="path965" />
      <path
         style="opacity:1;fill:#f8ebcb"
         d="m 86.8,47.8 c 0.8,-1.5 2.6,-3.6 5.5,-5 2.9,-1.4 5,-1.9 5,-1.9 0,0 1.7,-3.1 5.5,-1.8 3.8,1.3 7.5,8.5 8.4,11.6 0.9,3.1 2.2,8.7 1,9.4 -1.2,0.7 -3,-2.1 -3,-2.1 0,0 1,4.5 1.8,7.3 0.7,2.8 -0.1,7.7 0.7,9.3 0.7,1.6 4.2,7.5 3.8,13.7 -0.4,6.2 -2.8,12.2 -2.9,14.8 -0.1,2.6 3.4,16.8 4,17.9 0.6,1.1 0.2,4.4 1.2,6.4 1,2 8.7,3.9 6.2,7.8 -2.4,3.9 -9.3,2 -10.3,-0.2 -1,-2.2 0.1,-4.6 -1.1,-8.8 -1.2,-4.2 -6.7,-15.8 -6.7,-15.8 0,0 -2,0.6 -4.8,0.9 -2.9,0.4 -5.9,3.9 -4.9,9.7 1,5.8 2,8 2.6,9.4 0.6,1.4 0.2,4.6 1.1,6.4 0.9,1.9 7.2,4.2 4.8,7.3 -2.4,3.1 -7.5,3.2 -10.2,0.6 -2.7,-2.6 -0.4,-3.8 -2.2,-10.2 -1.9,-6.4 -4,-13.8 -4,-13.8 l -6.3,1.5 -4.4,9.3 c 0,0 3.8,2.8 5.7,3.9 1.9,1.1 5.7,0.2 7,1.9 1.3,1.7 1.8,5.5 -2.2,7 -4,1.5 -6.3,-3.4 -7.7,-4.5 -1.4,-1 -7,-3.3 -8.5,-5 -1.5,-1.7 -0.2,-5.8 -0.2,-5.8 0,0 -5.9,-0.6 -8.8,-4.4 -2.9,-3.8 -2.5,-4.6 -3.7,-5.5 -1.2,-0.9 -3.1,-1.7 -8.8,-1.1 -5.7,0.6 -12.7,-1.8 -15.7,-5.2 -3.1,-3.4 -3.7,-11.3 -2.9,-12 0.8,-0.7 2.2,4.5 3.8,5.7 1.6,1.2 5.3,4.2 9.7,3.8 4.4,-0.4 12.5,-3.6 12.5,-3.6 0,0 4.6,-12.8 10.8,-19.7 6.2,-7 14.6,-11.7 15.9,-16.8 1.1,-5.1 1,-19.9 2.3,-22.4 z"
         id="path967" />
      <g
         id="g971">
        <path
           style="opacity:0.2"
           d="m 84.6,108.1 c 0,0 -1.2,1.6 -4,1.6 -1.5,0 -3.7,-0.2 -5.3,-0.4 0.6,0.1 1.4,0.3 2.2,0.6 2.8,0.9 3.9,2.1 5.1,4.6 1.1,2.5 -0.8,7.7 -0.8,7.7 l 6.3,-1.5 c 0,0 -0.7,-2.1 -1,-3.2 -0.3,-1 -2.6,-6.6 -2.5,-9.4 z"
           id="path969" />
      </g>
      <path
         style="opacity:0.2"
         d="m 94.9,65.4 c -0.4,-1.5 -1.8,-5.1 -4,-7.5 -1.6,-1.8 -3,-5.8 -3.6,-8.3 l -1.1,0.3 c -0.6,3.7 -0.8,10.7 -1.3,15.8 0.9,0.7 4.2,1.9 5.3,2.5 4.7,2.6 5.5,0.5 4.7,-2.8 z"
         id="path973" />
      <path
         style="opacity:1;fill:#262626"
         d="m 93.7,52.8 c 0,0 -0.1,-2.2 0.8,-3.1 0.8,-0.9 2.5,-0.6 1.7,1.3 -0.8,2 -2.5,1.8 -2.5,1.8 z"
         id="path975" />
      <path
         style="opacity:1;fill:#262626"
         d="m 102.9,45.7 c 0,0 -0.2,-1.1 0.7,-1.5 0.9,-0.3 1.8,1.5 1.8,1.5 z"
         id="path977" />
      <path
         style="opacity:1;fill:#262626"
         d="m 111.1,53.4 c 0,0 -0.3,-0.6 -1,-0.8 -0.6,-0.2 -1.3,-0.1 -2.1,0.2 l -0.9,-1.8 -0.3,0.2 0.9,1.8 c -1.3,0.7 -1.9,1.5 -2.6,2.5 -0.4,0.6 -0.9,1.3 -1.6,1.9 -1.8,1.8 -2.8,2.1 -2.8,2.1 -0.1,0 -0.1,0.1 -0.1,0.2 0,0.1 0.1,0.1 0.2,0.1 0,0 0,0 0.1,0 0,0 1.1,-0.4 3,-2.2 0.7,-0.7 1.2,-1.4 1.6,-2 0.7,-1 1.3,-1.8 2.6,-2.5 0.8,-0.4 1.4,-0.5 1.9,-0.3 0.6,0.2 0.8,0.6 0.8,0.6 0,0.1 0.2,0.1 0.2,0.1 0.1,0.1 0.1,0 0.1,-0.1 z"
         id="path979" />
      <path
         style="opacity:1;fill:#f8ebcb"
         d="m 87.4,47.1 c -0.8,-0.5 -2.7,0.7 -4.1,3.4 -1.4,2.7 -3.4,7.5 -1.8,9.9 1.6,2.4 4.3,4.5 6.7,5.4 2.3,0.9 5,2.6 5.7,2.1 0.7,-0.5 -1.1,-5.7 -3,-8.4 -1.9,-2.7 -4,-5.8 -4,-5.8 0,0 2.5,-5.3 0.5,-6.6 z"
         id="path981" />
      <path
         style="opacity:0.2"
         d="m 111.1,50.6 c 0.7,1.7 0.5,3.5 -0.1,5.2 -0.6,1.6 -1.7,2.3 -1.7,2.3 v 0.1 c 0.3,0.5 1.8,2.7 2.9,2 1.2,-0.7 -0.1,-6.3 -1,-9.4 -0.9,-3.1 -4.6,-10.2 -8.4,-11.6 -3.5,-1.2 -5.2,1.3 -5.5,1.7 1.6,0 4.4,0.4 5.9,1.9 1.6,1.5 2.6,2.4 3.6,3.8 1,1.4 3.5,2.2 4.3,4 z"
         id="path983" />
      <path
         style="opacity:1;fill:#262626"
         d="m 102.6,48.5 c -0.7,1.6 1.8,4 4.3,2.9 2.5,-1.2 1.5,-4 0.7,-4.6 -0.8,-0.7 -4.2,-0.2 -5,1.7 z"
         id="path985" />
      <path
         style="opacity:1;fill:#262626"
         d="M 112.2,69.8 C 108,70.5 102.9,70.9 97.7,70.6 90,70.3 85.7,69 84,68 c -0.1,0.7 -0.2,1.4 -0.4,2 -0.2,0.6 -0.4,1.3 -0.8,1.9 4,2 10.5,2.6 14.7,2.7 1.1,0 2.2,0.1 3.3,0.1 3.7,0 7.7,-0.2 11.5,-0.9 -0.2,-1 -0.1,-2.5 -0.1,-4 z"
         id="path987" />
    </g>
    <g
       id="g1375"
       transform="matrix(0.26458333,0,0,0.26458333,112.87453,61.412702)">
      <path
         id="path1357"
         d="m 63.6,114.3 c -14.1,9.1 -38.5,17.2 -16.5,30.7 20.5,12.5 40.7,-4.1 55.2,-11.8 21.3,-11.3 32.2,-21.2 19.2,-29.4 -13.4,-8.4 -49.5,5.1 -57.9,10.5 z"
         style="opacity:0.2" />
      <path
         id="path1359"
         d="m 88.4,90.5 c 0,0 8.9,2.3 8.9,4.9 0,1.4 0,5.8 0,7 0,2.2 -4.6,3.8 -4.6,6 0,2.9 5.7,4.7 7.3,4.3 1.6,-0.4 2.5,-1.2 2.5,-4 0,-2.8 1,-14.5 1.4,-18.1 0.4,-3.6 -1.1,-14.8 -1.1,-14.8 z"
         style="opacity:1;fill:#f8ebcb" />
      <path
         id="path1361"
         d="m 88.4,90.5 c 0,0 8.9,2.3 8.9,4.9 0,1.4 0,5.8 0,7 0,2.2 -4.6,3.8 -4.6,6 0,2.9 5.7,4.7 7.3,4.3 1.6,-0.4 2.5,-1.2 2.5,-4 0,-2.8 1,-14.5 1.4,-18.1 0.4,-3.6 -1.1,-14.8 -1.1,-14.8 z"
         style="opacity:0.2" />
      <path
         id="path1363"
         d="m 21.6,54.3 c 1.6,-0.6 7.9,-2.8 8,-4 0.1,-1.2 0,-3.1 1.5,-3.8 1.5,-0.7 2.8,-4.2 4.6,-4.5 1.8,-0.4 2.8,0.1 6.3,1.2 3.5,1.1 7.7,3.4 10.4,5.3 2.8,2 4.1,4 5.9,6.7 1.8,2.7 2.4,3.5 2.1,4.2 -0.3,0.7 -0.8,0.3 -0.4,1.5 0.6,1.6 0.9,3.7 3,4.3 7.1,1.9 23.5,-9.6 27.8,-10.9 10.1,-3.3 19.9,1.8 25,6 3.3,2.7 6.5,10.1 8.9,14.9 2.4,4.8 6.7,5.4 6.3,7.5 -0.2,0.9 -1.5,1.5 -4.1,0.5 -3.3,-1.3 -10.5,-9.4 -10.5,-9.4 0,0 1,3 -0.5,7 -1.5,4 -3.8,10.5 -1.7,12.7 2,2.1 4.6,4.5 4.9,6.7 0.3,2.2 1.2,18.2 1.2,19 0,0.8 -0.5,2.3 -2,2.8 -4.5,1.5 -10.1,-1.7 -9.3,-4.5 0.8,-2.8 4,-2.1 4,-6.3 0,-1.5 -0.4,-6 -0.7,-6.9 -0.4,-1.2 -1.7,-2.4 -3.3,-3 -1.4,-0.5 -7.3,-3.8 -8.5,-7.5 -1.2,-3.7 -1.7,-7.9 -3.7,-8.2 -2,-0.6 -8.8,10.6 -14.5,14.4 -5.7,3.8 -9.5,4.1 -9.5,4.1 0,0 -1.1,18.6 -1.1,22.2 0,3.6 2.6,7.4 3,9.8 0.4,2.5 1,6.8 -2.1,8.8 -3.7,2.4 -8.4,0.2 -9.5,-1.1 -1,-1.3 -1.2,-3.7 0.4,-5.2 1.5,-1.5 3.3,-2.7 2.8,-3.4 -0.5,-0.7 -2.5,-4.1 -2.9,-6.2 -0.5,-3.3 -1,-17.2 -4.9,-19.6 -1.2,-0.7 -4.1,-1.1 -4.9,0.1 -0.8,1.3 -0.7,8.7 -0.7,9.9 0,1.9 2.8,6 2.8,9.3 0,3.3 -1.2,5.1 -4.1,6.1 -2.3,0.8 -5.4,0.2 -7.7,-2.7 -1.5,-1.9 -0.3,-4 1.2,-4.9 1,-0.6 2.3,-0.8 2.4,-2.1 0.1,-1.3 -1.8,-3.2 -1.8,-5.6 0,-2.4 -1,-12 -1,-13.2 0,-3.9 -6.4,-7.6 -8.8,-15.6 C 34.7,86.8 35.6,82.3 35.3,79 35.3,76.8 34.8,67.8 31,67 29.6,66.7 23.4,66.8 21.7,64.9 20.4,63.5 19.6,61.6 20,59.4 c 0.4,-2.3 1.6,-5.1 1.6,-5.1 z"
         style="opacity:1;fill:#f8ebcb" />
      <path
         id="path1365"
         d="m 41.3,56.5 c 0,0 -0.7,-1.9 -2.4,-2.9 -1.6,-0.9 -3.2,0.9 -1.2,2.4 1.8,1.4 3.6,0.5 3.6,0.5 z"
         style="opacity:1;fill:#262626" />
      <path
         id="path1367"
         d="m 25.7,57.1 c 0.2,-1.8 -1,-2.7 -3.3,-3.2 -1.4,-0.3 -3,0.5 -3,2.3 0,2.5 2.1,4.4 2.1,4.4 0,0 3.8,0 4.2,-3.5 z"
         style="opacity:1;fill:#262626" />
      <path
         id="path1369"
         d="m 29.8,48.5 c 0,0 1.2,0.6 0.3,1.5 -0.8,1.1 -0.3,-1.5 -0.3,-1.5 z"
         style="opacity:1;fill:#262626" />
      <path
         id="path1371"
         d="m 34.6,73.3 c 0,0 2.8,1.6 7.3,1.6 4.5,0 8.4,-1.8 10.6,-3.9 2.2,-2.1 8.1,-8.5 8.1,-8.5 l 2,2.1 c 0,0 -7,8.9 -10,10.7 -3.1,1.8 -6.3,3.4 -10.8,3.3 -4.5,-0.1 -6.6,-1.5 -6.6,-1.5 z"
         style="opacity:1;fill:#262626" />
      <path
         id="path1373"
         d="m 46.7,54.8 c 0,0 -4.9,18.4 0.8,18.2 2.9,-0.1 12.3,-13.1 12.3,-13.1 0,0 -5.6,16.4 -13.4,16.5 -7.7,0.1 0.3,-21.6 0.3,-21.6 z"
         style="opacity:0.2" />
    </g>
  </g>
  <path
     style="fill:none;stroke:#ff4400;stroke-width:1.00542;stroke-linecap:round;stroke-linejoin:round;stroke-opacity:1"
     d="M 99.395901,0.61346796 C 99.46928,11.173272 85.695902,10.928326 86.287603,22.676822"
     id="path1" />
  <path
     style="fill:none;stroke:#ff4400;stroke-width:1.00542;stroke-linecap:round;stroke-linejoin:round;stroke-opacity:1"
     d="m 92.921433,10.878117 c 5.567812,3.005916 6.907896,6.232829 6.797748,11.790534"
     id="path2"
     sodipodi:nodetypes="cc" />
  <ellipse
     style="fill:none;stroke:#ff4400;stroke-width:1.00542;stroke-linecap:round;stroke-linejoin:round;stroke-opacity:1"
     id="path3"
     cx="28.100971"
     cy="-92.969177"
     rx="0.64935851"
     ry="0.64818829"
     transform="rotate(89.601865)" />
  <ellipse
     style="fill:none;stroke:#ff4400;stroke-width:1.00542;stroke-linecap:round;stroke-linejoin:round;stroke-opacity:1"
     id="path3-9"
     cx="35.017551"
     cy="-93.010681"
     rx="0.64935851"
     ry="0.64818829"
     transform="rotate(89.601865)" />
  <path
     style="fill:none;stroke:#000000;stroke-width:1.00542;stroke-linecap:round;stroke-linejoin:round;stroke-opacity:1"
     d="m 89.313937,27.595294 c -7.343246,-0.03414 -11.997184,1.147914 -11.997184,1.147914"
     id="path4"
     sodipodi:nodetypes="cc" />
  <path
     style="fill:none;stroke:#000000;stroke-width:1.00542;stroke-linecap:round;stroke-linejoin:round;stroke-opacity:1"
     d="M 90.025077,34.488622 C 83.585153,34.91661 77.506052,34.320124 77.506052,34.320124"
     id="path5"
     sodipodi:nodetypes="cc" />
  <path
     style="fill:none;stroke:#000000;stroke-width:1.00542;stroke-linecap:round;stroke-linejoin:round;stroke-opacity:1"
     d="m 76.539655,31.549685 c -7.104948,0.275034 -10.967936,0.583957 -16.828479,0.511852 -5.860544,-0.07211 -4.267593,-4.088704 -1.908554,-5.515493 2.359039,-1.426788 5.121897,1.431221 5.121897,1.431221"
     id="path6" />
</svg>
