<?xml version="1.0" encoding="UTF-8" standalone="no"?>
<svg
   id="svg8"
   version="1.1"
   viewBox="0 0 102.95241 66.768234"
   height="66.768234mm"
   width="102.95242mm"
   sodipodi:docname="+2b different creatures.svg"
   inkscape:version="1.3 (0e150ed6c4, 2023-07-21)"
   xmlns:inkscape="http://www.inkscape.org/namespaces/inkscape"
   xmlns:sodipodi="http://sodipodi.sourceforge.net/DTD/sodipodi-0.dtd"
   xmlns="http://www.w3.org/2000/svg"
   xmlns:svg="http://www.w3.org/2000/svg"
   xmlns:rdf="http://www.w3.org/1999/02/22-rdf-syntax-ns#"
   xmlns:cc="http://creativecommons.org/ns#"
   xmlns:dc="http://purl.org/dc/elements/1.1/">
  <sodipodi:namedview
     id="namedview1"
     pagecolor="#ffffff"
     bordercolor="#000000"
     borderopacity="0.25"
     inkscape:showpageshadow="2"
     inkscape:pageopacity="0.0"
     inkscape:pagecheckerboard="0"
     inkscape:deskcolor="#d1d1d1"
     inkscape:document-units="mm"
     showgrid="false"
     inkscape:zoom="2"
     inkscape:cx="210"
     inkscape:cy="138.25"
     inkscape:window-width="1920"
     inkscape:window-height="1051"
     inkscape:window-x="-9"
     inkscape:window-y="-9"
     inkscape:window-maximized="1"
     inkscape:current-layer="svg8" />
  <defs
     id="defs2" />
  <metadata
     id="metadata5">
    <rdf:RDF>
      <cc:Work
         rdf:about="">
        <dc:format>image/svg+xml</dc:format>
        <dc:type
           rdf:resource="http://purl.org/dc/dcmitype/StillImage" />
        <dc:title />
      </cc:Work>
    </rdf:RDF>
  </metadata>
  <g
     transform="matrix(-0.26458333,0,0,0.26458333,76.014791,-18.684481)"
     id="g2465">
    <path
       style="opacity:0.2"
       d="m 186.9,284 c 22.7,-12.3 71.8,-34.2 38,-54.9 -31.5,-19.3 -75.1,8.2 -97.4,20 -32.8,17.5 -65.8,41.1 -45.8,53.7 20.6,12.9 62.4,4.4 105.2,-18.8 z"
       id="path2425" />
    <path
       style="fill:#762c07"
       d="m 181.9,201.4 c -4.6,12.9 -7,15.9 -6.6,21.2 0.4,5.3 0.2,7.6 -2,12.6 -2.2,5 -4.6,9.5 -0.7,11.9 4,2.5 13.3,0 15.3,-3.3 2,-3.3 1.7,-6 0.7,-9.3 -1,-3.3 -2.2,-5.5 0,-14.6 2.2,-9.1 13.3,-43.1 13.3,-43.1 0,0 -3.6,-5.8 -4.6,-8.6 -1,-2.8 0,-7.3 0,-7.3 L 182,173.5 c -0.1,0 4.6,15 -0.1,27.9 z"
       id="path2427" />
    <path
       style="opacity:0.15"
       d="m 181.9,201.4 c -4.6,12.9 -7,15.9 -6.6,21.2 0.4,5.3 0.2,7.6 -2,12.6 -2.2,5 -4.6,9.5 -0.7,11.9 4,2.5 13.3,0 15.3,-3.3 2,-3.3 1.7,-6 0.7,-9.3 -1,-3.3 -2.2,-5.5 0,-14.6 2.2,-9.1 13.3,-43.1 13.3,-43.1 0,0 -3.6,-5.8 -4.6,-8.6 -1,-2.8 0,-7.3 0,-7.3 L 182,173.5 c -0.1,0 4.6,15 -0.1,27.9 z"
       id="path2429" />
    <path
       style="fill:#762c07"
       d="M 225,95.3 C 214.2,83.9 207.7,84.6 193.2,86 165.8,88.7 162.7,105.1 144.8,109.9 126.9,114.7 112.5,102.1 94.4,89.3 76.3,76.5 61.5,75.7 53.9,78.7 46.3,81.7 39.2,94 38,95.9 c -1.2,2 1.3,10.6 -1.3,15.9 -2.7,5.3 -6.1,16.7 -9.3,20.6 -3.2,3.9 -4,13.9 3.3,18.6 7.3,4.7 11.3,0.8 15.3,-5.3 4,-6.1 9.5,-13.6 13.9,-14.6 4.4,-1 8,-4 8,-4 l 8,22.5 c 0,0 -4.6,7 -1.3,26.5 3.3,19.6 11.8,38.3 12.6,45.1 0.8,6.8 5.1,30.7 5.3,40.5 0.2,9.8 0.7,11.3 -3.3,14.6 -4,3.3 -8.5,8.8 -2,11.9 6.5,3.1 14.9,0.7 17.2,-2.7 2.3,-3.3 1.7,-18.7 0.7,-26.5 -1,-7.8 -4,-20.4 -3.3,-26.5 0.7,-6.1 2,-28.5 2,-28.5 l 8.6,3.3 c 0,0 2.2,21.9 4,33.8 1.8,11.9 5,23.9 3.3,34.5 -1.7,10.6 -9,21.1 -6.6,24.5 2.4,3.4 14.6,2.8 16.6,0 2,-2.8 0.5,-14.6 0,-23.9 -0.5,-9.3 2.7,-50.1 4,-59.7 1.3,-9.6 4,-18.6 4,-18.6 0,0 15.9,-4.6 25.9,-9.3 9.9,-4.6 19.2,-12.6 19.2,-12.6 l 14.6,-13.9 c 0,0 16.9,18.6 19.2,26.5 2.3,8 -3.5,30.7 -6.6,37.8 -3.2,7.1 -3.3,13.3 -2.7,15.9 0.7,2.7 0.5,8.1 -1.3,11.3 -1.8,3.2 -2,7.8 4.6,9.9 6.6,2.2 11.3,-2.3 12.6,-6.6 1.3,-4.3 -1.8,-8.8 -2.7,-11.9 -0.8,-3.2 4,-32.7 7.3,-39.8 3.3,-7.1 4.1,-5.1 3.3,-13.3 -0.8,-8.1 -1.3,-22.9 1.3,-35.8 2.6,-12.9 5.1,-47.7 -7.4,-60.8 z"
       id="path2431" />
    <path
       style="fill:#2d3134"
       d="m 214.4,88 c 0,0 4.1,-9.9 17.9,-9.9 13.8,0 22.5,7.8 32.5,29.2 9.9,21.4 22.5,27.9 22.5,27.9 0,0 -16.9,9.8 -29.8,-6.6 C 244.6,112.2 241.3,90.3 231,88 c -10.3,-2.3 -11.3,4.6 -11.3,4.6 z"
       id="path2433" />
    <path
       style="fill:#2d3134"
       d="m 172.6,247.1 c 4,2.5 13.3,0 15.3,-3.3 1.2,-2.1 1.6,-3.8 1.4,-5.7 -2.3,1.7 -14.7,3.1 -16.8,-1.1 -1.9,4.2 -3.4,8 0.1,10.1 z"
       id="path2435" />
    <path
       style="fill:#762c07"
       d="m 55.2,80 c 0,0 -14.3,-10.4 -15.3,-9.3 -1,1.1 4.5,12.7 7.3,14.6 2.9,1.9 8,-5.3 8,-5.3 z"
       id="path2437" />
    <path
       style="opacity:0.15"
       d="m 55.2,80 c 0,0 -14.3,-10.4 -15.3,-9.3 -1,1.1 4.5,12.7 7.3,14.6 2.9,1.9 8,-5.3 8,-5.3 z"
       id="path2439" />
    <path
       style="fill:#2d3134"
       d="m 53.3,107.2 7.3,-0.7 c 0,0 0.3,2.9 -3.3,3.3 -3.7,0.5 -4,-2.6 -4,-2.6 z"
       id="path2441" />
    <path
       style="fill:#2d3134"
       d="m 32,145 1.3,-6.6 c 0,0 3.2,1 2.7,4 -0.5,2.9 -4,2.6 -4,2.6 z"
       id="path2443" />
    <path
       style="opacity:0.15"
       d="m 36,139.7 c -3.3,-1.4 -6.4,-5 -8.3,-7.7 -0.1,0.1 -0.2,0.3 -0.3,0.4 -3.2,3.8 -4,13.9 3.3,18.6 7.3,4.7 11.3,0.8 15.3,-5.3 0.9,-1.4 1.9,-2.9 3,-4.4 -3.9,0.1 -9.5,-0.1 -13,-1.6 z"
       id="path2445" />
    <path
       style="fill:#2d3134"
       d="m 44.3,85.7 c -1.8,1.5 -3.6,6.8 1.3,8 4.9,1.2 10.1,-5 12.6,-6.6 2.5,-1.6 10.3,-5.5 19.2,-2 9,3.5 20.5,7.2 30.5,16.6 10.4,9.8 17.6,10.1 19.9,8.6 2.3,-1.5 -7.5,-2.2 -15.9,-10.6 C 105.8,93.6 93.8,84.8 78.7,79.8 63.8,74.8 56.6,75.3 44.3,85.7 Z"
       id="path2447" />
    <path
       style="opacity:0.15"
       d="m 116.3,142.4 -17.9,9.3 -19.9,-42.4 c 0,0 -1.1,4.6 -3.3,8.6 -2.2,4 -7.3,9.3 -7.3,9.3 l 8,22.5 c 0,0 -4.6,7 -1.3,26.5 3.3,19.6 11.8,38.3 12.6,45.1 0.8,6.8 5.1,30.7 5.3,40.5 0.2,9.8 0.7,11.3 -3.3,14.6 -4,3.3 -8.5,8.8 -2,11.9 6.5,3.1 14.9,0.7 17.2,-2.7 2.3,-3.3 1.7,-18.7 0.7,-26.5 -1,-7.8 -4,-20.4 -3.3,-26.5 0.7,-6.1 2,-28.5 2,-28.5 l 8.6,3.3 c 0,0 2.2,21.9 4,33.8 1.8,11.9 5,23.9 3.3,34.5 -1.7,10.6 -9,21.1 -6.6,24.5 0.9,1.4 3.5,2.2 6.4,2.3 l 4.8,-14.9 v -84.9 c 0,0 -7.1,-15.9 -10.6,-30.5 -3.5,-14.6 2.6,-29.8 2.6,-29.8 z"
       id="path2449" />
    <path
       style="opacity:0.15"
       d="m 197.2,162.3 c 0,0 16.9,18.6 19.2,26.5 2.3,8 -3.5,30.7 -6.6,37.8 -3.2,7.1 -3.3,13.3 -2.7,15.9 0.7,2.7 0.5,8.1 -1.3,11.3 -1.8,3.2 -2,7.8 4.6,9.9 0.2,0.1 0.4,0.1 0.6,0.2 1.3,-3.1 2.5,-6.1 2.7,-7.5 0.7,-3.5 1.3,-16.6 1.3,-19.9 0,-3.3 10.6,-41.1 10.6,-41.1 l -19.9,-39.1 z"
       id="path2451" />
    <g
       id="g2459">
      <path
         style="fill:#2d3134"
         d="m 87.1,288.3 c 6.5,3.2 14.9,0.7 17.2,-2.7 0.7,-1 1.1,-3.2 1.4,-5.9 -1.9,1 -5.9,2.5 -10.7,1.2 -3.8,-1 -5,-3.3 -5.3,-5.2 -0.2,0.2 -0.4,0.4 -0.6,0.6 -4,3.3 -8.5,8.8 -2,12 z"
         id="path2453" />
      <path
         style="fill:#2d3134"
         d="m 206.3,252.7 c -0.2,0.4 -0.3,0.7 -0.5,1.1 -1.8,3.2 -2,7.8 4.6,9.9 6.6,2.2 11.3,-2.3 12.6,-6.6 0.6,-2 0.3,-4 -0.4,-5.9 -1.9,1.8 -5,3.8 -8.9,3.9 -3.6,0.1 -6,-1.2 -7.4,-2.4 z"
         id="path2455" />
      <path
         style="fill:#2d3134"
         d="m 129.5,300.2 c 0.8,-1.1 1,-3.7 1,-7 -2.2,0.3 -5,0.6 -8.3,0.4 -3.4,-0.2 -6,-1.3 -7.7,-2.3 -1.6,4.1 -2.7,7.3 -1.6,8.9 2.4,3.5 14.6,2.8 16.6,0 z"
         id="path2457" />
    </g>
    <path
       style="fill:#762c07"
       d="m 59.2,87.3 c -1,-1 -0.9,-7.6 1.3,-8 2.2,-0.4 9.3,7.3 9.3,7.3 l -3.3,6 z"
       id="path2461" />
    <path
       style="opacity:0.1"
       d="m 59.2,87.3 c -1,-1 -0.9,-7.6 1.3,-8 2.2,-0.4 6,13.3 6,13.3 z"
       id="path2463" />
  </g>
  <g
     transform="matrix(0.26458333,0,0,0.26458333,13.480359,27.090581)"
     id="g2848">
    <path
       style="opacity:0.2"
       d="m 54.4,127.4 c 9.1,5.9 23.5,12.9 10.6,19.8 C 51.3,154.5 33.1,145.9 26.3,138 17.2,127.5 6.9,124 2.4,122.8 c -3.7,-1 -3.8,-3.1 4.4,-1.8 1.4,0.2 11.6,1.5 21.6,2.9 10.2,1.4 23.2,1.7 26,3.5 z"
       id="path2824" />
    <path
       style="fill:#999999"
       d="m 46.3,127.9 c 0,0 0.8,2.9 2.8,4.1 2,1.2 6.1,3.4 6.5,4.3 0.4,0.9 1.4,3 3.5,2.6 2.1,-0.4 4.8,-2.2 4.1,-3.5 -0.7,-1.3 -1.7,-0.9 -3.8,-1.4 -2.1,-0.5 -5.2,-2.4 -6,-3.7 -0.9,-1.3 -1.7,-4 -1.7,-4 z"
       id="path2826" />
    <path
       style="opacity:0.2"
       d="m 46.3,127.9 c 0,0 0.8,2.9 2.8,4.1 2,1.2 6.1,3.4 6.5,4.3 0.4,0.9 1.4,3 3.5,2.6 2.1,-0.4 4.8,-2.2 4.1,-3.5 -0.7,-1.3 -1.7,-0.9 -3.8,-1.4 -2.1,-0.5 -5.2,-2.4 -6,-3.7 -0.9,-1.3 -1.7,-4 -1.7,-4 z"
       id="path2828" />
    <path
       style="fill:#999999"
       d="m 19.4,120.4 c 0,0 -8.5,-1.5 -12,-8.3 C 4,105.3 5.4,99.8 4.5,98.2 3.6,96.6 1.4,97 0.9,98.8 c -0.5,1.8 -1.2,13.5 4.9,19.8 6.3,6.3 13.8,7.8 13.8,7.8 0,0 1.8,6.3 5.5,8 3.7,1.7 5.1,0.5 5.1,0.5 0,0 -0.9,2 -0.2,3.1 0.7,1 8.4,3.1 9.5,4 1.1,1 2.1,3.8 4.9,2.8 2.8,-1 3.7,-2.1 3,-3.4 -0.7,-1.3 -2.6,-1.8 -4,-1.9 -1.4,-0.1 -6.5,-2.5 -6.5,-2.5 0,0 2.2,-2.1 2.7,-3.7 0.5,-1.6 0.3,-2.7 0.3,-2.7 l 6.9,-2.6 c 0,0 1.2,5.4 1.5,9.2 0.3,3.8 0.5,5.6 0.9,7.4 0.4,1.9 0.2,4.3 3.3,4 3.1,-0.3 4.3,-1.1 3.9,-2.3 -0.4,-1.2 -2.4,-2.4 -2.8,-4.6 -0.4,-2.1 0.1,-12.9 0.4,-14 0.2,-1.1 2.5,-7.1 2.5,-7.1 l 2.5,-0.5 c 0,0 1.1,7.8 1.5,11.3 0.4,3.5 0.7,9.2 0.7,10.4 0,1.2 0.7,2.6 2.2,2.7 1.5,0.2 4.6,-0.8 4.5,-2.1 -0.1,-1.3 -2.3,-3.1 -2.5,-4.6 -0.2,-1.5 -0.5,-14.8 0.9,-19.4 1.4,-4.6 2.4,-7.1 2.4,-7.1 L 60,91.5 c 0,0 -3.5,0.8 -7.9,0.7 -4.5,-0.1 -17.8,-0.1 -25.4,9.5 -7.8,9.7 -7.3,18.7 -7.3,18.7 z"
       id="path2830" />
    <path
       style="fill:#e5e5e5"
       d="m 56.3,120.7 c 0,0 2.5,-2.1 2.7,-4.9 0.2,-2.8 1.8,-5.1 3.2,-6 1.4,-1 6.2,-3.4 6.2,-3.4 0,0 1.3,4.3 -0.5,7.3 -1.8,3 -4.8,5.4 -7.3,6.2 -2.5,0.8 -4.3,0.8 -4.3,0.8 z"
       id="path2832" />
    <path
       style="opacity:0.2"
       d="m 46.8,128 c 0,0 -0.7,-3.1 -1,-5.4 -0.2,-2.4 -0.9,-6 -0.9,-6 0,0 -0.9,2.1 -2.8,3 -1.9,0.9 -3.7,1.3 -5.3,0.6 -1.6,-0.7 -5.4,-2.7 -5.4,-2.7 0,0 5.7,3.8 6.8,6.9 1.2,3.1 1.6,6.3 1.6,6.3 z"
       id="path2834" />
    <path
       style="fill:#999999"
       d="m 58.2,96 c 0,0 -0.5,2.8 0.7,5.7 1.3,2.9 4,5.2 5.4,6.9 1.3,1.6 2.8,3.2 5.8,2.9 3,-0.4 3.2,-1.9 4.1,-3.1 0.9,-1.2 4.1,-5.7 4.6,-8.7 0.5,-3.1 0.1,-5.3 0.1,-5.3 0,0 2.1,-7.3 0.5,-8.2 -1.6,-0.9 -3.2,2.7 -5.1,2.9 -2,0.2 -2.9,-0.3 -5.1,-0.2 -2.2,0.1 -5.7,1 -5.7,1 0,0 -3.3,-3.4 -5.3,-2.7 -2.4,0.9 0,8.8 0,8.8 z"
       id="path2836" />
    <path
       style="fill:#2d3134"
       d="m 69.7,110.5 c -0.6,0 -1.7,-1 -1.6,-1.5 0.1,-0.5 2.9,-0.5 3.1,0.1 0.2,0.5 -0.9,1.4 -1.5,1.4 z"
       id="path2838" />
    <path
       style="fill:#2d3134"
       d="m 72,104.4 c 0,0 0.3,-1.8 1.8,-2.4 1.5,-0.6 2.1,-0.3 2.1,-0.3 0,0 -0.3,1.7 -1.5,2.3 -1.1,0.6 -2.4,0.4 -2.4,0.4 z"
       id="path2840" />
    <path
       style="fill:#2d3134"
       d="m 67.3,104.4 c 0,0 -0.6,-1.8 -2,-2.3 -1.4,-0.5 -2.4,0 -2.4,0 0,0 0.2,1.5 1.4,2 1.2,0.5 3,0.3 3,0.3 z"
       id="path2842" />
    <path
       style="opacity:0.2"
       d="m 72.9,93.3 c 0,0 4.8,-7.5 6.4,-6.9 1.2,0.4 -0.4,8 -0.4,8 0,0 -1.3,-1.2 -3,-1.5 -1.6,-0.3 -3,0.4 -3,0.4 z"
       id="path2844" />
    <path
       style="opacity:0.2"
       d="m 65.2,93.2 c 0,0 -5.3,-6.3 -6.9,-5.8 -2.2,0.7 -0.1,8.6 -0.1,8.6 0,0 1.6,-2.1 2.9,-2.6 1.3,-0.5 4.1,-0.2 4.1,-0.2 z"
       id="path2846" />
  </g>
  <path
     style="fill:none;stroke:#000000;stroke-width:1.00542;stroke-linecap:round;stroke-linejoin:round"
     d="M 101.97827,6.2120032 C 102.5605,14.858536 89.779126,17.444204 90.031076,26.107918"
     id="path1" />
  <path
     style="fill:none;stroke:#000000;stroke-width:1.00542;stroke-linecap:round;stroke-linejoin:round"
     d="m 95.940336,16.196425 c 0,0 6.513224,2.972965 6.509364,9.265516"
     id="path2" />
  <circle
     style="fill:none;stroke:#000000;stroke-width:1.00542;stroke-linecap:round;stroke-linejoin:round"
     id="path3"
     cx="35.033031"
     cy="-98.896271"
     r="0.49589029"
     transform="rotate(87.022343)" />
  <circle
     style="fill:none;stroke:#000000;stroke-width:1.00542;stroke-linecap:round;stroke-linejoin:round"
     id="path3-9"
     cx="34.85416"
     cy="-90.616554"
     r="0.49589029"
     transform="rotate(87.022343)" />
  <path
     style="fill:none;stroke:#000000;stroke-width:1.00542;stroke-linecap:round;stroke-linejoin:round"
     d="m 100.73792,33.300506 c 0.33827,3.956519 -2.088744,6.003588 -2.025004,9.77569"
     id="path4"
     sodipodi:nodetypes="cc" />
  <path
     style="fill:none;stroke:#000000;stroke-width:1.00542;stroke-linecap:round;stroke-linejoin:round"
     d="m 92.404486,33.535286 c 0.18898,3.633108 1.71571,5.606984 1.53241,9.723104"
     id="path5"
     sodipodi:nodetypes="cc" />
  <path
     style="fill:none;stroke:#000000;stroke-width:1.00542;stroke-linecap:round;stroke-linejoin:round"
     d="m 96.344136,43.696173 c 0.142,6.549907 0.55307,11.710771 0.37146,15.41785 -0.18161,3.707069 -1.96568,4.501948 -4.06272,2.879222 -2.09705,-1.622717 0.21536,-6.657566 0.21536,-6.657566"
     id="path6"
     sodipodi:nodetypes="cssc" />
</svg>
