<?xml version="1.0" encoding="UTF-8" standalone="no"?>
<!-- Generator: Adobe Illustrator 18.1.0, SVG Export Plug-In . SVG Version: 6.00 Build 0)  -->

<svg
   version="1.1"
   id="Layer_1"
   x="0px"
   y="0px"
   viewBox="0 0 236.00813 242.9191"
   enable-background="new 0 0 160 320"
   xml:space="preserve"
   sodipodi:docname="+4 person harms dog.svg"
   width="236.00813"
   height="242.9191"
   inkscape:version="1.3.2 (091e20e, 2023-11-25, custom)"
   xmlns:inkscape="http://www.inkscape.org/namespaces/inkscape"
   xmlns:sodipodi="http://sodipodi.sourceforge.net/DTD/sodipodi-0.dtd"
   xmlns="http://www.w3.org/2000/svg"
   xmlns:svg="http://www.w3.org/2000/svg"
   xmlns:rdf="http://www.w3.org/1999/02/22-rdf-syntax-ns#"
   xmlns:cc="http://creativecommons.org/ns#"
   xmlns:dc="http://purl.org/dc/elements/1.1/"><metadata
   id="metadata131"><rdf:RDF><cc:Work
       rdf:about=""><dc:format>image/svg+xml</dc:format><dc:type
         rdf:resource="http://purl.org/dc/dcmitype/StillImage" /><dc:title /></cc:Work></rdf:RDF></metadata><defs
   id="defs129" /><sodipodi:namedview
   pagecolor="#ffffff"
   bordercolor="#666666"
   borderopacity="1"
   objecttolerance="10"
   gridtolerance="10"
   guidetolerance="10"
   inkscape:pageopacity="0"
   inkscape:pageshadow="2"
   inkscape:window-width="1920"
   inkscape:window-height="1051"
   id="namedview127"
   showgrid="false"
   fit-margin-top="0"
   fit-margin-left="0"
   fit-margin-right="0"
   fit-margin-bottom="0"
   inkscape:zoom="1.4142136"
   inkscape:cx="51.618795"
   inkscape:cy="83.085046"
   inkscape:window-x="-9"
   inkscape:window-y="-9"
   inkscape:window-maximized="1"
   inkscape:current-layer="g989"
   inkscape:showpageshadow="2"
   inkscape:pagecheckerboard="0"
   inkscape:deskcolor="#d1d1d1" />




<path
   id="path961"
   d="m 90.449461,210.83732 c 12.699999,8.2 34.499999,15.5 14.799999,27.5 -18.399999,11.2 -39.199999,-0.4 -49.499999,-10.6 -20.7,-20.6 -56.10000037,-20.3 -31.1,-23.8 1.9,-0.3 15.8,0 29.6,2 14.3,2 32.4,2.4 36.2,4.9 z"
   style="opacity:0.2" /><path
   id="path4344"
   d="m 15.559942,198.83928 c 0.6,1.8 -6.7000003,11.8 7.1,13.5 20.6,2.7 21.6,-13.7 29.3,-18.2 13.9,-8.1 -3.1,-14.1 -22.5,-14.1 -16.3,0.1 -30.5000004,1.9 -29.40000037,10.1 0.7,6.1 14.60000037,5.6 15.50000037,8.7 z"
   style="opacity:0.3;fill:#262626" /><g
   id="g989"
   transform="translate(-12.750539,93.837325)"><path
     id="path963"
     d="m 96.1,110.4 c 0,0 2,4.7 1.9,6.2 -0.1,1.5 -0.8,3.5 0.1,4.3 0.9,0.7 7.8,5.2 9.1,7.1 1.3,1.9 2,5.2 6.6,3 4.6,-2.2 3.1,-5.5 0.9,-6.4 -2.1,-0.9 -6.5,-1.7 -8.8,-3.9 -2.3,-2.2 -3.2,-2.9 -1.2,-6.3 2,-3.4 2.9,-6.1 2.9,-6.1 z"
     style="opacity:1;fill:#f8ebcb" /><path
     id="path965"
     d="m 96.1,110.4 c 0,0 2,4.7 1.9,6.2 -0.1,1.5 -0.8,3.5 0.1,4.3 0.9,0.7 7.8,5.2 9.1,7.1 1.3,1.9 2,5.2 6.6,3 4.6,-2.2 3.1,-5.5 0.9,-6.4 -2.1,-0.9 -6.5,-1.7 -8.8,-3.9 -2.3,-2.2 -3.2,-2.9 -1.2,-6.3 2,-3.4 2.9,-6.1 2.9,-6.1 z"
     style="opacity:0.2" /><path
     id="path967"
     d="m 86.8,47.8 c 0.8,-1.5 2.6,-3.6 5.5,-5 2.9,-1.4 5,-1.9 5,-1.9 0,0 1.7,-3.1 5.5,-1.8 3.8,1.3 7.5,8.5 8.4,11.6 0.28998,0.998817 0.58054,1.787972 0.85061,3.042897 l 0.38012,2.272934 c 0.31807,1.958828 0.38481,3.657293 -0.16822,4.123234 -0.65029,0.547885 -1.29634,-0.10898 -1.81619,-0.438594 -0.17394,0.07654 -0.42954,0.238479 -0.80368,0.435906 0,0 0.55737,2.363626 1.35737,5.163626 0.7,2.8 -0.1,7.7 0.7,9.3 0.7,1.6 4.2,7.5 3.8,13.7 -0.4,6.2 -2.8,12.199997 -2.9,14.799997 -0.1,2.6 3.4,16.8 4,17.9 0.6,1.1 0.2,4.4 1.2,6.4 1,2 8.7,3.9 6.2,7.8 -2.4,3.9 -9.3,2 -10.3,-0.2 -1,-2.2 0.1,-4.6 -1.1,-8.8 -1.2,-4.2 -6.7,-15.8 -6.7,-15.8 0,0 -2,0.6 -4.8,0.9 -2.9,0.4 -5.9,3.9 -4.9,9.7 1,5.8 2,8 2.6,9.4 0.6,1.4 0.2,4.6 1.1,6.4 0.9,1.9 7.2,4.2 4.8,7.3 -2.4,3.1 -7.5,3.2 -10.2,0.6 -2.7,-2.6 -0.4,-3.8 -2.2,-10.2 -1.9,-6.4 -4,-13.8 -4,-13.8 l -6.3,1.5 -4.4,9.3 c 0,0 3.8,2.8 5.7,3.9 1.9,1.1 5.7,0.2 7,1.9 1.3,1.7 1.8,5.5 -2.2,7 -4,1.5 -6.3,-3.4 -7.7,-4.5 -1.4,-1 -7,-3.3 -8.5,-5 -1.5,-1.7 -0.2,-5.8 -0.2,-5.8 0,0 -5.9,-0.6 -8.8,-4.4 -2.9,-3.8 -2.5,-4.6 -3.7,-5.5 -1.2,-0.9 -3.1,-1.7 -8.8,-1.1 -5.7,0.6 -12.7,-1.8 -15.7,-5.2 -3.1,-3.4 -3.7,-11.3 -2.9,-12 0.8,-0.7 2.2,4.5 3.8,5.7 1.6,1.2 5.3,4.2 9.7,3.8 4.4,-0.4 12.5,-3.6 12.5,-3.6 0,0 4.6,-12.799997 10.8,-19.699997 6.2,-7 14.6,-11.7 15.9,-16.8 1.1,-5.1 1,-19.9 2.3,-22.4 z"
     style="opacity:1;fill:#f8ebcb"
     sodipodi:nodetypes="cscssccsccccsssscssccsscssccccssscscssscsssccccc" /><g
     id="g971"><path
       id="path969"
       d="m 84.6,108.1 c 0,0 -1.2,1.6 -4,1.6 -1.5,0 -3.7,-0.2 -5.3,-0.4 0.6,0.1 1.4,0.3 2.2,0.6 2.8,0.9 3.9,2.1 5.1,4.6 1.1,2.5 -0.8,7.7 -0.8,7.7 l 6.3,-1.5 c 0,0 -0.7,-2.1 -1,-3.2 -0.3,-1 -2.6,-6.6 -2.5,-9.4 z"
       style="opacity:0.2" /></g><path
     id="path973"
     d="m 94.9,65.4 c -0.4,-1.5 -1.8,-5.1 -4,-7.5 -1.6,-1.8 -3,-5.8 -3.6,-8.3 l -1.1,0.3 c -0.6,3.7 -0.8,10.7 -1.3,15.8 0.9,0.7 4.2,1.9 5.3,2.5 4.7,2.6 5.5,0.5 4.7,-2.8 z"
     style="opacity:0.2" /><path
     id="path975"
     d="m 94.107739,52.337449 c 0,0 -0.229755,-2.190254 0.615521,-3.141836 0.745451,-0.945676 2.460201,-0.7466 1.773809,1.197331 -0.680486,2.043756 -2.38933,1.944505 -2.38933,1.944505 z"
     style="opacity:1;fill:#262626" /><path
     id="path977"
     d="m 101.6866,45.378651 c 0,0 -0.0692,-0.878902 1.10936,-0.984795 1.16237,-0.02999 1.9844,1.534048 1.9844,1.534048 z"
     style="opacity:1;fill:#262626;stroke-width:1" /><path
     id="path981"
     d="m 87.4,47.1 c -0.8,-0.5 -2.7,0.7 -4.1,3.4 -1.4,2.7 -3.4,7.5 -1.8,9.9 1.6,2.4 4.3,4.5 6.7,5.4 2.3,0.9 5,2.6 5.7,2.1 0.7,-0.5 -1.1,-5.7 -3,-8.4 -1.9,-2.7 -4,-5.8 -4,-5.8 0,0 2.5,-5.3 0.5,-6.6 z"
     style="opacity:1;fill:#f8ebcb" /><path
     id="path11"
     style="opacity:0.2"
     d="m 112.31304,56.315266 c 0.005,0.762808 -0.0429,1.319219 -0.21522,1.807497 -0.35484,0.648144 -0.93649,1.235209 -1.65449,1.520194 0.14792,0.141151 0.29923,0.269237 0.44659,0.371985 0.43717,0.304817 0.90123,0.445214 1.31004,0.185063 0.63898,-0.37274 0.56911,-2.134833 0.22824,-4.169014 l -0.16096,-1.438057 C 111.99852,53.3774 111.47778,51.756806 111.2,50.800005 c -0.9,-3.1 -4.6,-10.2 -8.4,-11.6 -3.5,-1.2 -5.2,1.3 -5.5,1.7 1.6,0 4.4,0.4 5.9,1.9 1.6,1.5 2.6,2.4 3.6,3.8 1,1.4 3.5,2.2 4.3,4 V 50.6 c 0.0884,0.288321 0.80478,2.279223 0.65159,3.052226 -0.16797,-0.384275 -1.41678,-1.363571 -2.77292,-0.987883 -1.51103,0.418596 -3.17397,2.273916 -4.01085,3.418318 -0.0571,0.07805 -0.67613,0.643715 -0.38529,0.663775 1.49234,0.10293 7.76073,-0.581274 7.73051,-0.43117 z"
     sodipodi:nodetypes="cccscccscccssccsssc" /><path
     style="fill:#800000;fill-opacity:1;stroke:none;stroke-width:3.32598;stroke-linecap:round;stroke-linejoin:round;stroke-opacity:1"
     d="m 101.04044,59.335478 c 1.96425,-0.284111 2.97058,-2.136239 3.8998,-3.249038 1.75607,-0.201076 6.32563,-0.06691 6.88261,0.230728 0.008,0.450247 -0.5056,1.118493 -1.15178,1.490139 -2.31166,1.329537 -5.14109,0.589716 -7.80699,0.66147"
     id="path9"
     sodipodi:nodetypes="cccsc" /><path
     id="path985"
     d="m 102.6,48.5 c -0.7,1.6 1.8,4 4.3,2.9 2.5,-1.2 1.5,-4 0.7,-4.6 -0.8,-0.7 -4.2,-0.2 -5,1.7 z"
     style="opacity:1;fill:#262626" /><path
     id="path987"
     d="M 112.2,69.8 C 108,70.5 102.9,70.9 97.7,70.6 90,70.3 85.7,69 84,68 c -0.1,0.7 -0.2,1.4 -0.4,2 -0.2,0.6 -0.4,1.3 -0.8,1.9 4,2 10.5,2.6 14.7,2.7 1.1,0 2.2,0.1 3.3,0.1 3.7,0 7.7,-0.2 11.5,-0.9 -0.2,-1 -0.1,-2.5 -0.1,-4 z"
     style="opacity:1;fill:#262626" /><path
     style="fill:#800000;fill-opacity:1;stroke:none;stroke-width:3.32598;stroke-linecap:round;stroke-linejoin:round;stroke-opacity:1"
     d="m 107.83745,54.407256 c -0.90884,0.43245 -2.50269,1.308741 -2.63471,1.219979 -0.0454,-0.02998 1.6226,-1.843895 1.82168,-1.975223 1.01411,-0.668967 3.43807,-1.737566 4.25015,-0.532229 -1.03744,0.274597 -2.36127,0.775557 -3.43712,1.287473 z"
     id="path14"
     sodipodi:nodetypes="scscs" /><path
     id="path979"
     d="m 111.86562,53.4625 c 0,0 -0.53437,-0.725 -1.23437,-0.925 C 110.03125,52.3375 108.8,52.5 108,52.8 l -0.9,-1.8 -0.3,0.2 0.9,1.8 c -1.3,0.7 -1.9,1.5 -2.6,2.5 -0.4,0.6 -0.9,1.3 -1.6,1.9 -1.8,1.8 -2.8,2.1 -2.8,2.1 -0.1,0 -0.1,0.1 -0.1,0.2 0,0.1 0.1,0.1 0.2,0.1 h 0.1 c 0,0 1.1,-0.4 3,-2.2 0.7,-0.7 1.2,-1.4 1.6,-2 0.7,-1 1.3,-1.8 2.6,-2.5 0.8,-0.4 1.93125,-0.5625 2.43125,-0.3625 0.6,0.2 1.03437,0.725 1.03437,0.725 0,0.1 0.2,0.1 0.2,0.1 0.1,0.1 0.1,0 0.1,-0.1 z"
     style="opacity:1;fill:#262626"
     sodipodi:nodetypes="cccccccccsscccccccc" /></g><g
   id="g4380"
   transform="translate(-12.540058,-18.060721)"><path
     id="path4342"
     d="m 13.4,105 c 0,0 1,9.1 1.3,12.3 0.3,3.2 1.3,5.5 2.1,7.3 0.8,1.8 4.5,6.2 5,5.9 0.5,-0.3 -0.3,-2.1 -0.3,-2.5 0,-0.4 0.4,-1.7 -0.2,-2.5 -0.6,-0.7 -1.7,-4 -1.6,-4.7 0.1,-0.7 1.4,-0.9 1.5,-1.4 0.1,-0.5 0.1,-0.5 0.1,-0.5 0,0 -3.6,-6 -3.6,-8.6 0,-2.7 -0.1,-6.1 -0.1,-6.1 0,0 -0.6,-0.3 -2,0 -1.4,0.2 -2.2,0.8 -2.2,0.8 z"
     style="fill:#fbd7c7" /><path
     id="path4346"
     d="m 34,200.2 c 0,0 -1.6,1.2 -5.5,1.1 -3.9,-0.1 -7.3,-0.8 -11.4,1.5 -4.8,2.7 -1.2,7 0.1,7.4 1.3,0.4 18.1,0.9 21.2,0.7 3.1,-0.2 2.1,-8.2 2.1,-8.2 z"
     style="fill:#762c07" /><path
     id="path4348"
     d="m 39.4,209.1 c -1.5,0.1 -9,0.6 -13.5,0.5 -5,-0.1 -6.4,-0.5 -7.8,-1 -1.7,-0.6 -3.2,-1.4 -3.3,-3.1 -0.5,2.2 0.9,4.1 2.5,4.6 1.5,0.5 3.3,0.9 8.6,1.1 4.2,0.1 11.3,-0.3 12.6,-0.4 0.8,-0.1 1.4,-0.7 1.7,-1.6 -0.4,0.3 -0.5,-0.1 -0.8,-0.1 z"
     style="fill:#262626" /><path
     id="path4350"
     d="m 39.7,211 c 0,0 -3.9,4.4 -6.6,7.6 -2.7,3.2 -3.8,5.6 -3.6,7.9 0.2,2.3 3.5,3.4 8,3.4 4.5,0 9.3,-2.8 11.5,-5.9 2.3,-3.1 5.6,-5.9 5.6,-7.4 0,-1.5 -0.1,-6.2 -0.1,-6.2 z"
     style="fill:#762c07" /><path
     id="path4352"
     d="m 54.6,210.4 h -0.5 c 0,1.5 0.1,3.3 0.1,4.1 0,1.5 -3.4,4.3 -5.6,7.4 -2.3,3.1 -7,5.9 -11.5,5.9 -3.5,0 -6.3,-0.6 -7.4,-2 0,0.2 0,0.4 0,0.6 0.1,2.3 3.5,3.4 8,3.4 4.6,0 9.3,-2.8 11.5,-5.9 2.3,-3.1 5.6,-5.9 5.6,-7.4 -0.1,-1.4 -0.2,-6.1 -0.2,-6.1 z"
     style="fill:#262626" /><path
     id="path4354"
     d="m 19.7,114.3 c 0,0 -0.5,13 1.6,23.9 2.1,10.9 9.5,26.4 9.5,31.1 0,4.7 2.3,19 2.1,22.8 -0.1,3.8 -0.9,8.6 -0.9,8.6 0,0 2.7,5 6.2,6.7 3.5,1.7 7.2,-0.4 7.2,-0.4 L 39,116.5 Z"
     style="fill:#3399cc" /><path
     id="path4356"
     d="m 19.7,114.3 c 0,0 -0.5,13 1.6,23.9 2.1,10.9 9.5,26.4 9.5,31.1 0,4.7 2.3,19 2.1,22.8 -0.1,3.8 -0.9,8.6 -0.9,8.6 0,0 2.7,5 6.2,6.7 3.5,1.7 7.2,-0.4 7.2,-0.4 L 39,116.5 Z"
     style="opacity:0.2" /><path
     id="path4358"
     d="m 31.1,119.4 c 0,0 0.3,14.3 -0.3,25.6 -0.5,11.3 2.3,21.7 3.4,25.3 1.1,3.6 1.5,9.7 1.5,15.2 0,5.5 0.2,26.2 1,27 0.8,0.8 5.2,3.6 10.9,4 4.3,0.3 9,-2.4 9,-3.1 0,-0.7 1.5,-16.4 0.3,-29.1 -1.2,-12.7 -3.8,-19.3 -3.6,-21.3 0.1,-2 3.1,-29.1 2.8,-34.7 -0.3,-5.6 -2,-18.4 -2,-18.4 z"
     style="fill:#3399cc" /><path
     id="path4360"
     d="m 17.9,69.4 c 0,0 -2.2,7.4 -3.6,17.6 -1.5,10.7 -0.7,25.3 -0.7,25.3 0,0 2.1,-1.6 6.2,-1.6 4.1,0 -1.9,-41.3 -1.9,-41.3 z"
     style="fill:#ffcc00" /><path
     id="path4362"
     d="m 17.9,69.4 c 0,0 -2.2,7.4 -3.6,17.6 -1.5,10.7 -0.7,25.3 -0.7,25.3 0,0 2.1,-1.6 6.2,-1.6 4.1,0 -1.9,-41.3 -1.9,-41.3 z"
     style="opacity:0.2" /><path
     id="path4364"
     d="m 51.5,127 c 0,0 -0.4,2.9 -2.3,5.1 -1.9,2.1 -3.5,5.8 -3.5,7.3 0,2.1 0,3.9 0.9,4 1.8,0.2 1.1,-1.3 1.7,-1.3 0.6,0 0.3,2.6 3,2.7 3.5,0.1 8.5,-2.3 8.5,-4.6 0,-1.2 -0.5,-4.4 -0.9,-6.2 -0.5,-1.9 -0.5,-4.5 -0.5,-4.5 z"
     style="fill:#fbd7c7" /><path
     id="path4366"
     d="m 38.8,44 c 9.5,2.5 20.1,4.6 23.7,12.3 3.1,6.6 2.9,8.7 2.7,14.9 -0.3,6.2 -0.8,18.5 -0.5,22.5 0.3,4 -1.1,20.8 -2.3,26.4 -1.2,5.6 -1.6,10.3 -2.5,10.6 -0.9,0.3 -10.2,-0.9 -9.5,-2.3 0.9,-2 1.2,-7.6 1.2,-7.6 0,0 -4.4,5.4 -14.2,4 -9.8,-1.3 -18.2,-6.1 -19.1,-8.6 -0.4,-1.2 -0.6,-19.8 0.3,-24.8 0.9,-5 -2,-15.7 -2.1,-20.4 -0.1,-4.7 2.9,-17.4 3.1,-19.7 0.1,-3.4 4.2,-11.2 19.2,-7.3 z"
     style="fill:#ffcc00" /><path
     id="path4368"
     d="m 51.5,120.9 c 0,0 0.7,-5.2 0.7,-9.8 0,-4.6 0.1,-11.3 -0.4,-13.9 C 51.3,94.5 49.6,85 49.3,82.5 48.6,76.4 49,72.7 49.5,71.4 c -2.4,4.1 -1,19 -0.3,25.2 0.9,8.7 -0.3,25.8 -0.6,26.6 -0.3,0.7 2.9,-2.3 2.9,-2.3 z"
     style="opacity:0.2" /><path
     id="path4370"
     d="m 42.5,38.2 c 0,0 0,5.2 0.9,6.1 0.9,0.9 3,1.3 2.3,2.6 -0.7,1.3 -8.1,9.7 -13.5,9.2 -5.3,-0.5 -4,-9.4 -4,-9.4 z"
     style="fill:#fbd7c7" /><path
     id="path4372"
     d="m 22.8,26.5 c -2.2,2.8 -1.3,11 -0.3,14.7 1,3.7 2.2,5.9 2.7,7.3 0.4,1.4 1.9,3.6 3.9,3.5 2,-0.1 8.2,-4.1 10.1,-7.1 C 41,41.9 43.6,39 44,37 44.4,35 44.6,34.1 42.9,33.7 41.2,33.3 37.6,25.9 33,25.6 28.4,25.3 24.1,24.8 22.8,26.5 Z"
     style="fill:#fbd7c7" /><path
     id="path4374"
     d="m 21.5,28.4 c -0.4,1.6 0.8,3.3 5.5,3.3 4.7,0 7.6,-2.3 8.1,-0.8 0.5,1.5 1.8,5.7 2.2,6.6 0.4,0.9 1,2 1.3,1.6 0.3,-0.4 1.8,-3.9 2.9,-4.7 1.1,-0.8 1.7,-0.8 1.7,-0.8 0,0 1.6,-8.3 -2,-12.6 C 37.6,16.7 25,15.6 21.5,28.4 Z"
     style="fill:#825012" /><path
     id="path4376"
     d="m 25,46.6 c 0,0 0.7,-0.7 1.6,-0.8 0.4,0 1.3,0.1 1.9,0.2 0.8,0.2 2.7,1.1 2.7,1.1 0,0 -2.8,0 -3.7,-0.1 C 26.4,46.9 25,46.6 25,46.6 Z"
     style="fill:#825012" /><path
     id="path4378"
     d="m 26.8,49 1.2,0.1 c 0,0 -0.2,0.6 0.6,1.3 0.8,0.7 2.9,0.8 2.9,0.8 0,0 -1.7,1.3 -3.2,0.9 -1.5,-0.4 -2.3,-1.8 -2.3,-1.8 0,0 0.5,-0.1 0.6,-0.5 0.2,-0.4 0.2,-0.8 0.2,-0.8 z"
     style="fill:#825012" /></g><path
   style="fill:none;stroke:#ff4400;stroke-width:3.32598;stroke-linecap:round;stroke-linejoin:round;stroke-opacity:1"
   d="m 163.95412,98.499077 c 4.45793,6.908813 8.02976,12.620253 9.32807,15.536863"
   id="path8" /><path
   style="fill:none;stroke:#000000;stroke-width:3.32598;stroke-linecap:round;stroke-linejoin:round"
   d="m 140.86187,61.350944 c 8.17813,9.266148 20.74588,-3.745877 16.27798,-14.898069 -5.28788,-13.198967 -21.2512,-11.595123 -21.56834,2.302429 -0.15215,6.66737 17.00245,32.107033 28.38261,49.743773"
   id="path1" /><path
   style="fill:none;stroke:#ff4400;stroke-width:3.32599;stroke-linecap:round;stroke-linejoin:round;stroke-opacity:1"
   d="m 173.26638,114.09224 c -5.64406,6.09093 -3.30754,17.65406 2.4324,22.31469"
   id="path2"
   sodipodi:nodetypes="cc" /><path
   style="fill:none;stroke:#ff4400;stroke-width:3.32599;stroke-linecap:round;stroke-linejoin:round;stroke-opacity:1"
   d="m 183.95498,116.04539 c -9.08347,4.01639 -2.8778,17.49965 7.39295,26.66982"
   id="path3"
   sodipodi:nodetypes="cc" /><path
   style="fill:none;stroke:#000000;stroke-width:3.32598;stroke-linecap:round;stroke-linejoin:round"
   d="m 191.36892,142.7479 c 7.5324,6.5546 36.07601,38.31147 31.05429,47.63023 -3.29948,6.12283 -12.01153,-1.54799 -10.34478,-9.47747"
   id="path4"
   sodipodi:nodetypes="csc" /><path
   style="fill:none;stroke:#000000;stroke-width:3.32598;stroke-linecap:round;stroke-linejoin:round"
   d="m 216.14843,169.34099 c 1.41209,-1.23719 3.0347,-2.18751 4.57967,-3.24117 16.0033,-10.9143 15.47054,7.24859 10.60591,11.28844 -2.278,1.89179 -5.19546,2.69778 -7.81661,3.93944"
   id="path5" /><path
   style="fill:none;stroke:#000000;stroke-width:3.32598;stroke-linecap:round;stroke-linejoin:round"
   d="m 221.46967,175.4637 c 4.01165,-2.14389 7.43094,-5.407 11.12829,-7.70734"
   id="path6" /><path
   style="fill:none;stroke:#000000;stroke-width:3.32598;stroke-linecap:round;stroke-linejoin:round"
   d="m 153.4773,45.233942 c -14.7145,10.065064 7.51133,26.045225 19.53359,28.712644"
   id="path7" /></svg>
