<?xml version="1.0" encoding="UTF-8" standalone="no"?>
<!-- Generator: Adobe Illustrator 18.1.0, SVG Export Plug-In . SVG Version: 6.00 Build 0)  -->

<svg
   version="1.1"
   id="Layer_1"
   x="0px"
   y="0px"
   viewBox="0 0 220.21776 192.40814"
   enable-background="new 0 0 160 320"
   xml:space="preserve"
   sodipodi:docname="0 jan.svg"
   width="220.21776"
   height="192.40814"
   inkscape:version="1.3 (0e150ed6c4, 2023-07-21)"
   xmlns:inkscape="http://www.inkscape.org/namespaces/inkscape"
   xmlns:sodipodi="http://sodipodi.sourceforge.net/DTD/sodipodi-0.dtd"
   xmlns="http://www.w3.org/2000/svg"
   xmlns:svg="http://www.w3.org/2000/svg"
   xmlns:rdf="http://www.w3.org/1999/02/22-rdf-syntax-ns#"
   xmlns:cc="http://creativecommons.org/ns#"
   xmlns:dc="http://purl.org/dc/elements/1.1/"><metadata
   id="metadata131"><rdf:RDF><cc:Work
       rdf:about=""><dc:format>image/svg+xml</dc:format><dc:type
         rdf:resource="http://purl.org/dc/dcmitype/StillImage" /><dc:title /></cc:Work></rdf:RDF></metadata><defs
   id="defs129" /><sodipodi:namedview
   pagecolor="#ffffff"
   bordercolor="#666666"
   borderopacity="1"
   objecttolerance="10"
   gridtolerance="10"
   guidetolerance="10"
   inkscape:pageopacity="0"
   inkscape:pageshadow="2"
   inkscape:window-width="1920"
   inkscape:window-height="1051"
   id="namedview127"
   showgrid="false"
   fit-margin-top="0"
   fit-margin-left="0"
   fit-margin-right="0"
   fit-margin-bottom="0"
   inkscape:zoom="2.085965"
   inkscape:cx="75.984017"
   inkscape:cy="116.73254"
   inkscape:window-x="-9"
   inkscape:window-y="-9"
   inkscape:window-maximized="1"
   inkscape:current-layer="Layer_1"
   inkscape:showpageshadow="2"
   inkscape:pagecheckerboard="0"
   inkscape:deskcolor="#d1d1d1" />&#10;&#10;&#10;<g
   id="g92"
   transform="translate(-71.999917,-57.485261)"
   style="stroke:none">&#10;	<path
   d="m 95.4,93.2 c 0,0 1.5,13.1 0.2,18.2 -1.3,5.1 -2.3,8.4 -2.9,14 -0.6,5.6 -0.3,10.3 -1.3,13 -1,2.7 -0.8,7.1 -0.3,10 0.3,2.2 1,6.4 2.1,6.2 1.1,-0.2 0.7,-1.5 0.9,-2.7 0.2,-1.1 0.4,-2.8 0.2,-3.7 -0.1,-0.9 -0.1,-0.8 0.6,-1.4 0.7,-0.6 0.2,-3.4 0.1,-4.7 -0.4,-2.9 2,-9.6 3,-14.3 1,-4.7 4.1,-11.6 3.5,-16.2 -0.6,-4.5 -0.7,-16.9 -0.7,-16.9 z"
   id="path54"
   inkscape:connector-curvature="0"
   style="fill:#fbd7c7;stroke:none" />&#10;	<path
   d="m 73.8,232.6 c -6.2,7.5 4.4,11.2 19.8,12.5 15.4,1.3 29.8,8.1 40.2,2.8 10.5,-5.2 4,-15.3 -16.3,-16.6 -20.3,-1.3 -19.7,-6.1 -28.8,-4.1 -9.1,2 -12.7,2.7 -14.9,5.4 z"
   id="path56"
   inkscape:connector-curvature="0"
   style="opacity:0.2;stroke:none" />&#10;	<g
   id="g62"
   style="stroke:none">&#10;		<path
   d="m 99.6,230.3 c 2.4,0 4,4.7 -0.4,6 -4.4,1.3 -9.2,1.9 -10.6,2.1 -2.1,0.2 -7.3,0.7 -9.8,0 -2.7,-0.7 -2.2,-3.4 -1.5,-4.6 0.7,-1.1 15.1,-4.3 17.7,-4.3 2.6,0.1 4.2,0.8 4.6,0.8 z"
   id="path58"
   inkscape:connector-curvature="0"
   style="fill:#262626;stroke:none" />&#10;		<path
   d="m 78.2,236.5 c 1.5,0.5 6,0.5 9.8,0 1.5,-0.2 13.2,-2.5 13.9,-3.9 0.7,-1.4 -9.9,-5.6 -9.9,-5.6 0,0 -5.5,2.7 -7.7,3.1 -2.2,0.4 -5.4,0.8 -7.1,2.7 -1.1,1.3 -0.3,3.4 1,3.7 z"
   id="path60"
   inkscape:connector-curvature="0"
   style="fill:#ffffff;stroke:none" />&#10;	</g>&#10;	<path
   d="m 122,233.4 c -0.2,2 -1.2,6.7 0.5,10.2 1,2.1 6.8,3 9.2,0.5 2.4,-2.5 -1.4,-14.2 -1.4,-14.2 z"
   id="path64"
   inkscape:connector-curvature="0"
   style="fill:#262626;stroke:none" />&#10;	<path
   d="m 122.6,232.7 c 0,0 -2.8,11.2 4.3,11.1 7.2,-0.1 5.1,-5.1 4.5,-8.5 -0.6,-3.4 -2,-5.2 -2,-5.2 z"
   id="path66"
   inkscape:connector-curvature="0"
   style="fill:#ffffff;stroke:none" />&#10;	<path
   d="m 121.3,234.3 c 0,0 2.9,0.1 6.7,0.3 3.8,0.2 4.1,-1.6 4.1,-1.6 0,0 -0.8,-6.5 -0.9,-11.4 -0.1,-4.9 0.4,-18.8 -0.2,-25.2 -0.7,-6.4 -0.8,-11.7 0.4,-23.3 1.1,-11.6 2.5,-18.7 0.2,-24.7 -2.3,-6 -3.7,-8.5 -3.7,-8.5 L 96,143.3 c 0,0 -3.8,9 -4.2,20 -0.4,11 2.6,20.8 1.7,26.6 -0.9,5.9 -1.3,18.7 -1.9,24.7 -0.9,9.4 -4.4,15.5 -4.4,15.5 0,0 1,3 6.1,3.8 5.1,0.8 8.7,-1.7 8.7,-1.7 0,0 0.2,-6.5 0.9,-14.7 0.8,-8.2 2.2,-16.2 2.4,-22.7 0.2,-6.5 0.6,-7.5 1,-9.2 0.5,-1.7 2.3,-13.6 3.4,-17.1 1.4,-4.7 1.8,-9.4 2.9,-9.4 1.1,0.1 0.9,4.1 2.2,11.9 1.1,6.5 4.8,32.8 4.9,40.8 0.1,8 1.6,22.5 1.6,22.5 z"
   id="path68"
   inkscape:connector-curvature="0"
   style="fill:#cc291f;stroke:none" />&#10;	<g
   id="g76"
   style="stroke:none">&#10;		<path
   d="m 95.9,143.2 c 0,0 -3.8,9 -4.2,20 -0.4,11 2.6,20.8 1.7,26.6 -0.9,5.9 -1.3,18.7 -1.9,24.7 -0.9,9.4 -4.4,15.5 -4.4,15.5 0,0 1,3 6.1,3.8 5.1,0.8 8.7,-1.7 8.7,-1.7 0,0 0.2,-6.5 0.9,-14.7 0.8,-8.2 2.2,-16.2 2.4,-22.7 0.2,-6.5 0.6,-7.5 1,-9.2 0.5,-1.7 2.3,-13.6 3.4,-17.1 1.4,-4.7 1.8,-9.4 2.9,-9.4 0,0 1.1,-10.4 0.5,-17.5 z"
   id="path70"
   inkscape:connector-curvature="0"
   style="fill:#cc291f;stroke:none" />&#10;		<path
   d="m 95.9,143.2 c 0,0 -3.8,9 -4.2,20 -0.4,11 2.6,20.8 1.7,26.6 -0.9,5.9 -1.3,18.7 -1.9,24.7 -0.9,9.4 -4.4,15.5 -4.4,15.5 0,0 1,3 6.1,3.8 5.1,0.8 8.7,-1.7 8.7,-1.7 0,0 0.2,-6.5 0.9,-14.7 0.8,-8.2 2.2,-16.2 2.4,-22.7 0.2,-6.5 0.6,-7.5 1,-9.2 0.5,-1.7 2.3,-13.6 3.4,-17.1 1.4,-4.7 1.8,-9.4 2.9,-9.4 0,0 1.1,-10.4 0.5,-17.5 z"
   id="path72"
   inkscape:connector-curvature="0"
   style="opacity:0.2;stroke:none" />&#10;		<path
   d="m 114.8,171.1 c 1.1,6.5 4.8,32.8 4.9,40.8 0.1,8 1.6,22.4 1.6,22.4 0,0 2.9,0.1 6.7,0.3 3.8,0.2 4.1,-1.6 4.1,-1.6 0,0 -0.8,-6.5 -0.9,-11.4 -0.2,-4.9 0.4,-18.8 -0.2,-25.2 -0.7,-6.4 -0.8,-11.7 0.4,-23.3 1.1,-11.6 2.5,-18.7 0.2,-24.7 -2.3,-6 -3.7,-8.5 -3.7,-8.5 l -17.5,1.9 c 0.6,7.1 2.3,17.5 2.3,17.5 1,0 0.8,3.9 2.1,11.8 z"
   id="path74"
   inkscape:connector-curvature="0"
   style="fill:#cc291f;stroke:none" />&#10;	</g>&#10;	<path
   d="m 127.8,100.1 c 0,0 -2.6,15.5 -2.1,20.6 0.5,5.1 1.3,11.2 2.3,14.8 1,3.6 1.7,6 0.9,7.3 -0.8,1.3 -1.8,5.3 -1.1,6 1.8,1.6 2.5,5.6 3,6.6 0.3,0.6 0.9,1.1 1.8,0.6 0.9,-0.5 0.2,-4.7 0.3,-5.7 0.1,-1 0.4,-5.8 0.4,-7.4 0,-1.6 0.6,-15.7 0,-18.8 -0.5,-3 -1.4,-8.2 0.4,-14.7 1.8,-6.4 2.8,-7.3 2.8,-10.2 0,-2.9 -8.7,0.9 -8.7,0.9 z"
   id="path78"
   inkscape:connector-curvature="0"
   style="fill:#fbd7c7;stroke:none" />&#10;	<path
   d="m 107.5,84.4 c 0,0 -12.3,13.3 1.7,14.9 14,1.6 16.5,-7.7 13.9,-12.8 -2.6,-5.2 -6.9,-7.9 -6.9,-7.9 z"
   id="path80"
   inkscape:connector-curvature="0"
   style="fill:#fbd7c7;stroke:none" />&#10;	<path
   d="m 107.8,85.3 c 0,0 -5.6,-1.7 -8.9,0.6 -3.3,2.4 -3.8,7.7 -3.8,7.7 0,0 0.6,0.5 1.4,0.9 0.8,0.4 1.3,0.4 1.3,0.4 0,0 0,1.7 -0.9,4.2 -0.8,2.6 -2.7,5 -1.7,8.5 0.9,3.4 3.1,3.9 3.1,4.6 0,0.8 0.6,12.2 -0.7,18.5 -1.3,6.3 -2.5,12.8 -2.4,14.6 0,0.3 0.4,5.5 13.1,5.8 12.7,0.3 20.7,-8.8 20.7,-8.8 0,0 -2.6,-6.8 -3.7,-11 -1,-3.9 2.4,-17.8 2.4,-21.4 0,-3.6 0,-8.5 0,-8.5 0,0 1.3,1.2 5.2,1.1 2.1,-0.1 3.7,-1.4 3.7,-1.4 0,0 0.9,-5.6 -3.1,-8.9 -4,-3.3 -8.6,-3.4 -8.6,-3.4 0,0 -5.1,10.4 -13.9,8.1 -9.4,-2.6 -3.2,-11.6 -3.2,-11.6 z"
   id="path82"
   inkscape:connector-curvature="0"
   style="fill:#3399cc;stroke:none" />&#10;	<path
   d="m 115.4,57.7 c -8.1,-0.5 -12,3 -13.5,8.6 -1.5,5.4 4,15.3 -1.8,17.9 0.1,2.2 5.1,4.5 7.3,2.1 2.2,-2.3 2.9,-2.4 2.9,-2.4 z"
   id="path84"
   inkscape:connector-curvature="0"
   style="fill:#262626;stroke:none" />&#10;	<path
   d="m 104.7,67.9 c -1.5,3.1 -1.9,15.6 0.6,17.6 2.5,2 7.6,-1.3 12.5,-3.5 4.9,-2.3 5.5,-19 -1.9,-19.2 -7.3,-0.3 -9.6,1.8 -11.2,5.1 z"
   id="path86"
   inkscape:connector-curvature="0"
   style="fill:#fbd7c7;stroke:none" />&#10;	<path
   d="m 113.9,57.9 c -3.3,0.8 -7.1,5.2 -6.4,10 1,6.2 13.2,18.3 4.6,22.2 1.4,4.6 9.5,4.3 14,2 4.3,-2.3 4.7,-4.5 4.6,-5.3 -0.1,-0.8 -3.8,-4.9 -3.8,-10.9 -0.1,-6 -0.5,-21.1 -13,-18 z"
   id="path88"
   inkscape:connector-curvature="0"
   style="fill:#262626;stroke:none" />&#10;	<path
   d="m 95.4,107.5 c 0,0 1.1,4.3 13.6,5.1 12.5,0.9 18.6,-4.8 18.6,-4.8 0,0 -3.3,7.9 -17.4,7.4 -14.2,-0.6 -14.8,-7.7 -14.8,-7.7 z"
   id="path90"
   inkscape:connector-curvature="0"
   style="opacity:0.2;stroke:none" />&#10;</g>&#10;&#10;<path
   style="fill:#ff4400;fill-opacity:1;stroke:none;stroke-width:0;stroke-dasharray:none"
   id="path13"
   d="m 194.24021,85.181466 c 1.81332,2.00815 3.80532,2.59221 6.5142,2.53817 0.82369,-0.0164 1.63871,-0.17199 2.45807,-0.25798 3.20561,-0.6977 5.99864,-1.84714 8.1431,-4.43391 1.23789,-1.49322 1.34723,-2.0607 2.11449,-3.7985 0.14981,-0.68099 0.37137,-1.35007 0.44941,-2.04296 0.24543,-2.17891 -0.22862,-4.42268 -1.37356,-6.29883 -0.97523,-1.59807 -1.88633,-2.33069 -3.20002,-3.61108 -3.47781,-2.89984 -7.66892,-4.531887 -11.9624,-5.782497 -1.14056,-0.14778 -2.65052,-0.481152 -3.81057,-0.10281 -1.58317,0.51633 -2.63161,1.47267 -3.45442,2.894227 -1.06524,1.84039 -0.9887,2.85978 -1.27971,4.94639 0.0457,1.04229 -0.004,2.09319 0.13711,3.12687 0.3702,2.70874 1.26053,5.35136 2.16727,7.91158 1.68837,4.76718 3.80259,9.36865 5.84147,13.99141 4.91167,11.103094 9.98081,22.136304 15.13766,33.127464 2.22524,4.66835 1.16269,2.44116 3.18724,6.68177 1.01326,2.12236 4.01473,0.6894 3.00147,-1.43295 v 0 c -2.02076,-4.23267 -0.96141,-2.01222 -3.17767,-6.66155 -5.14595,-10.96777 -10.2043,-21.97754 -15.10559,-33.056994 -1.9957,-4.52425 -4.05919,-9.02636 -5.72465,-13.68694 -0.78545,-2.19798 -1.64495,-4.70572 -2.00568,-7.04614 -0.1297,-0.84144 -0.10495,-1.69952 -0.15742,-2.54928 0.17768,-1.78407 0.18993,-2.87404 1.25595,-4.36295 0.14982,-0.20926 0.28084,-0.46986 0.51607,-0.57426 0.7028,-0.31193 1.86981,-0.0803 2.54459,-0.0116 3.7773,1.09151 7.48357,2.48801 10.58247,4.98428 0.91125,0.86421 1.80125,1.60691 2.50978,2.65723 1.13579,1.6837 1.33367,3.66024 0.86174,5.59508 -0.52599,1.29651 -0.57226,1.65845 -1.44601,2.79104 -1.57117,2.0366 -3.69177,2.85786 -6.12384,3.44077 -2.55099,0.31089 -4.415,0.77089 -6.24872,-1.32687 -1.663,-1.66299 -4.01482,0.68883 -2.35183,2.35183 z" /><path
   style="fill:#ff4400;fill-opacity:1;stroke:none;stroke-width:0;stroke-dasharray:none"
   id="path15"
   d="m 205.59017,67.930946 c -0.50612,0.39756 -0.85358,0.60975 -1.20043,1.22419 -1.18375,2.09701 -1.07571,5.86642 -1.17616,8.23132 0.0607,2.20836 -0.0753,3.74186 0.78054,5.8854 1.04534,2.61806 3.02844,5.16559 4.73717,7.34243 0.0559,0.0712 5.70017,6.88626 5.83482,7.04886 0.88034,1.04927 1.76067,2.09854 2.64101,3.147814 1.51163,1.80169 4.05959,-0.33608 2.54796,-2.137764 v 0 c -0.87576,-1.04379 -1.75153,-2.08758 -2.62729,-3.13137 -1.91038,-2.30694 -3.87374,-4.57095 -5.73289,-6.91938 -1.14024,-1.44031 -3.36631,-4.28087 -4.16446,-6.11769 -0.77636,-1.78667 -0.63594,-3.09124 -0.69383,-4.97815 0.0779,-1.85988 0.0897,-2.70083 0.24757,-4.49988 0.054,-0.61551 0.009,-1.78534 0.56876,-2.27535 1.99434,-1.24647 0.23157,-4.0669 -1.76277,-2.82043 z" /></svg>
