<?xml version="1.0" encoding="UTF-8" standalone="no"?>
<!-- Generator: Adobe Illustrator 18.1.0, SVG Export Plug-In . SVG Version: 6.00 Build 0)  -->

<svg
   version="1.1"
   id="Layer_1"
   x="0px"
   y="0px"
   viewBox="0 0 277.38043 262.84952"
   enable-background="new 0 0 160 320"
   xml:space="preserve"
   sodipodi:docname="0 jan.svg"
   width="277.38043"
   height="262.84952"
   inkscape:version="1.3 (0e150ed6c4, 2023-07-21)"
   xmlns:inkscape="http://www.inkscape.org/namespaces/inkscape"
   xmlns:sodipodi="http://sodipodi.sourceforge.net/DTD/sodipodi-0.dtd"
   xmlns="http://www.w3.org/2000/svg"
   xmlns:svg="http://www.w3.org/2000/svg"
   xmlns:rdf="http://www.w3.org/1999/02/22-rdf-syntax-ns#"
   xmlns:cc="http://creativecommons.org/ns#"
   xmlns:dc="http://purl.org/dc/elements/1.1/"><metadata
   id="metadata131"><rdf:RDF><cc:Work
       rdf:about=""><dc:format>image/svg+xml</dc:format><dc:type
         rdf:resource="http://purl.org/dc/dcmitype/StillImage" /><dc:title /></cc:Work></rdf:RDF></metadata><defs
   id="defs129" /><sodipodi:namedview
   pagecolor="#ffffff"
   bordercolor="#666666"
   borderopacity="1"
   objecttolerance="10"
   gridtolerance="10"
   guidetolerance="10"
   inkscape:pageopacity="0"
   inkscape:pageshadow="2"
   inkscape:window-width="1920"
   inkscape:window-height="1051"
   id="namedview127"
   showgrid="false"
   fit-margin-top="0"
   fit-margin-left="0"
   fit-margin-right="0"
   fit-margin-bottom="0"
   inkscape:zoom="0.52149125"
   inkscape:cx="-186.96383"
   inkscape:cy="179.29352"
   inkscape:window-x="-9"
   inkscape:window-y="-9"
   inkscape:window-maximized="1"
   inkscape:current-layer="Layer_1"
   inkscape:showpageshadow="2"
   inkscape:pagecheckerboard="0"
   inkscape:deskcolor="#d1d1d1" />&#10;<g
   id="g30"
   transform="translate(-9.0844968,-47.870981)"
   style="stroke:none">&#10;	<path
   d="M 40.8,91.2 53.5,83.5 50.4,74.8 44,67.4 34.4,66.1 c -0.1,4 -1,10.7 -6.9,13.6 -1.1,0.6 13.3,11.5 13.3,11.5 z"
   id="path2"
   inkscape:connector-curvature="0"
   style="fill:#fbd7c7;stroke:none" />&#10;	<path
   d="m 26.9,255 c -7,-2.4 -25,-17.2 -4.2,-23 18.4,-5.2 23.6,-17.9 45.3,-5.8 10.7,6 7.3,13.9 -10.6,18.2 -12.1,2.9 -14.3,16.3 -30.5,10.6 z"
   id="path4"
   inkscape:connector-curvature="0"
   style="opacity:0.2;stroke:none" />&#10;	<path
   d="m 38.2,225.7 c -0.3,2.3 1.2,4.4 4.9,5.7 4.1,1.5 9.1,4.3 11.5,5.7 4,2.3 8.7,2.3 11.9,1 2.4,-1 2.7,-2.5 2.3,-5 -0.4,-2.6 -3,-2.7 -7.2,-4.3 -3.8,-1.5 -10.1,-7.2 -10.1,-7.2 z"
   id="path6"
   inkscape:connector-curvature="0"
   style="fill:#262626;stroke:none" />&#10;	<path
   d="m 39.6,226.7 c 3,1 6.4,2 9.3,3.7 3,1.8 10.3,6.3 14.7,5.4 3.2,-0.7 4.6,-1.9 4.4,-3.4 -0.2,-1.5 -4.1,-2.4 -7.1,-3.7 -2,-0.8 -9,-6.8 -9,-6.8 z"
   id="path8"
   inkscape:connector-curvature="0"
   style="fill:#ffffff;stroke:none" />&#10;	<path
   d="m 19.1,241 c 2.5,4.3 3.8,10 8.3,12.5 4.5,2.5 8.6,1.9 12.3,0.3 2.2,-1 1.4,-3.9 0.9,-5 -0.5,-1.1 -2.4,-2.3 -4.8,-4.8 -3,-3.1 -4.5,-7.7 -4.5,-7.7 z"
   id="path10"
   inkscape:connector-curvature="0"
   style="fill:#262626;stroke:none" />&#10;	<path
   d="m 21.4,240.5 c 0,0 2.6,7.9 6.4,9.9 4,2.1 6.6,1.6 10,0.6 3.4,-1 3.2,-1.8 0.7,-3.9 -2.5,-2.1 -5.7,-5.9 -5.8,-7.3 -0.1,-1.4 -11.3,0.7 -11.3,0.7 z"
   id="path12"
   inkscape:connector-curvature="0"
   style="fill:#ffffff;stroke:none" />&#10;	<path
   d="m 58.4,135.3 c 1.8,3.9 4.3,11.7 4.1,24.2 -0.2,12.5 -0.1,17.1 0,20.3 0.1,3.3 -0.8,5.5 -2.7,11.2 -1.6,5.1 -6.6,23.6 -6.3,27.4 0.1,0.9 2,1.6 2.4,3.6 0.4,2 0.5,2.7 -1.9,4 -2.4,1.3 -9.4,5.2 -14.4,3.2 -2.1,-0.8 -3,-1 -2.8,-5.4 0.2,-4.4 0.6,-12.9 1.7,-21.5 1.1,-8.6 4.6,-15.5 4.1,-21.2 -0.5,-5.7 -9,-21.5 -8.2,-29.6 0.8,-8.1 1,-10.3 1,-10.3 z"
   id="path14"
   inkscape:connector-curvature="0"
   style="fill:#06547a;stroke:none" />&#10;	<path
   d="m 58.4,135.3 c 1.8,3.9 4.3,11.7 4.1,24.2 -0.2,12.5 -0.1,17.1 0,20.3 0.1,3.3 -0.8,5.5 -2.7,11.2 -1.6,5.1 -6.6,23.6 -6.3,27.4 0.1,0.9 2,1.6 2.4,3.6 0.4,2 0.5,2.7 -1.9,4 -2.4,1.3 -9.4,5.2 -14.4,3.2 -2.1,-0.8 -3,-1 -2.8,-5.4 0.2,-4.4 0.6,-12.9 1.7,-21.5 1.1,-8.6 4.6,-15.5 4.1,-21.2 -0.5,-5.7 -9,-21.5 -8.2,-29.6 0.8,-8.1 1,-10.3 1,-10.3 z"
   id="path16"
   inkscape:connector-curvature="0"
   style="opacity:0.2;stroke:none" />&#10;	<path
   d="m 48.5,144.7 c 0,0 2,10.2 0.8,13.5 -1.2,3.3 -3.8,3.5 -4,6.7 -0.2,3.1 -0.6,12.1 -1.8,17.3 -1.2,5.2 -3.5,16.2 -5,20.2 -1.5,4 -2.7,14.6 -3.9,20.3 -0.9,4.7 -2.1,8.5 -1.6,12 0.5,3.5 1.1,5.2 0.7,5.5 -0.4,0.3 -4.4,0.4 -7.3,1.6 -2.8,1.2 -6.3,1 -8.1,-0.5 -1.8,-1.5 -2.7,-4.5 -1.7,-6.9 1,-2.4 1.3,-3.5 0.2,-7.4 -1.1,-3.8 0.7,-5.2 1.3,-7.5 0.6,-2.3 -0.4,-5.5 0.7,-10.1 0.7,-3.4 4,-10 3.9,-15.6 -0.1,-5.6 -3.3,-27.2 -2.4,-36.3 1,-9.1 3.3,-14.2 3.3,-14.2 z"
   id="path18"
   inkscape:connector-curvature="0"
   style="fill:#06547a;stroke:none" />&#10;	<path
   d="m 61.5,84.4 c 0,0 -3.9,23.1 -3.6,29.4 0.3,6.3 0.8,20.6 0.8,20.6 L 49,128.8 c 0,0 -1.5,-12.7 -1,-16.1 0.5,-3.4 5.5,-16.3 5.5,-16.3 z"
   id="path20"
   inkscape:connector-curvature="0"
   style="fill:#fbd7c7;stroke:none" />&#10;	<path
   d="m 47.9,74.5 c 0,0 7.9,0.4 11.5,4.3 3.6,3.9 2,6.5 1.2,8.4 -0.8,1.9 -0.3,3 -0.3,6.6 0,3.6 -1.4,9.9 -3.1,12.5 -1.7,2.6 -0.7,5 -0.6,7.9 0.1,2.9 1,5.9 1.2,10.5 0.2,4.6 1.7,12.6 2,13.7 0.3,1.2 -2.7,4.4 -11.1,7.4 -6.7,2.3 -23.4,1.4 -25.7,-2.4 -2.4,-3.8 2.3,-6.9 2,-11.8 -0.3,-4.9 -5.4,-21 -5.4,-21 0,0 -5.1,-11.8 -5.4,-14.2 C 13.9,94 13.9,87.5 16.9,85.1 19.8,82.7 29,78.7 29,78.7 c 0,0 6.6,11 14.8,8.9 9.2,-2.4 4.1,-13.1 4.1,-13.1 z"
   id="path22"
   inkscape:connector-curvature="0"
   style="fill:#656565;stroke:none" />&#10;	<path
   d="m 29,152.5 c 0.2,-0.9 0.9,-1.2 0.9,-2.7 -0.1,-1.4 0.1,-2.7 -0.6,-3.5 -0.7,-0.8 -1.6,-0.7 -2.6,-2.1 -1,-1.4 -3,-7.2 -4.5,-13.7 -1.4,-6.5 -3.5,-11.3 -3.7,-11.7 -0.3,-0.5 2,-3.8 4.4,-8.7 2.1,-4.4 3.5,-8.3 5.3,-11 -2.4,0.2 -7.3,0.4 -9.5,-0.2 -1.7,-0.5 -3.4,-1.5 -4.5,-2.2 -1.1,7.1 -3.8,15.2 -4.3,16.8 -0.5,1.8 -1.7,4.9 0.3,10.5 2,5.6 9,19 8.9,21.3 -0.1,2.3 -0.6,7.8 -0.5,9.6 0.1,1.8 1.8,1.7 2.6,2.5 0.8,0.8 2.6,0.7 2.9,1.7 0.3,1 1.8,1 2.5,1.6 0.7,0.6 2.2,1.2 2.9,0.7 0.7,-0.5 0.3,-1.8 -0.2,-2.6 -0.4,-0.9 -0.5,-5.4 -0.3,-6.3 z"
   id="path24"
   inkscape:connector-curvature="0"
   style="fill:#fbd7c7;stroke:none" />&#10;	<path
   d="m 40.6,48.2 c -5.4,0.3 -8.4,3.5 -8.6,7.1 -0.2,3.5 0,6.2 0,6.2 0,0 -1,-0.4 -1.3,0.8 -0.3,1.3 0.7,4.6 2.5,6.2 1.8,1.6 2.7,4.7 4.8,6.9 2.1,2.2 6.7,5.4 9.9,5 C 51.1,80 53.6,68 53.3,64 53.1,60 53.3,47.5 40.6,48.2 Z"
   id="path26"
   inkscape:connector-curvature="0"
   style="fill:#fbd7c7;stroke:none" />&#10;	<path
   d="m 40.6,47.9 c -5.4,0.3 -8.4,3.6 -8.8,7.4 -0.3,2.8 -0.1,5.1 0.1,6.1 0.6,0.3 1.6,0.6 2.3,1.7 1,1.7 1,2.4 1,2.4 L 36.6,65 c 0,0 1.5,-7.5 3.7,-8.3 2.2,-0.8 4.1,1.9 7,1.3 2.9,-0.6 2.5,-2.9 3.7,-3 0.2,0 0.6,0.1 1,0.3 -1.5,-4 -4.5,-7.8 -11.4,-7.4 z"
   id="path28"
   inkscape:connector-curvature="0"
   style="fill:#762c07;stroke:none" />&#10;</g>&#10;<g
   id="g52"
   transform="translate(-9.0844968,-47.870981)"
   style="stroke:none">&#10;	<path
   d="m 57.4,309 c 5.7,0.4 17.8,-11.4 17.8,-14.3 0,-2.9 -3.6,-6.2 -12.4,-5.9 -5.7,0.2 -9.2,-5.7 -14.6,-5.4 -5.4,0.3 -9.7,5.4 -10.3,8.1 -0.5,2.7 2.7,5.9 8.6,10.3 6,4.2 2.5,6.7 10.9,7.2 z"
   id="path32"
   inkscape:connector-curvature="0"
   style="opacity:0.2;stroke:none" />&#10;	<path
   d="m 55.7,303.8 c 0,0 0.5,3.6 4.8,2.6 4.3,-1 11.6,-7.2 11.9,-10 0.3,-2.8 0.7,-5.7 -3,-5.8 -3.8,-0.2 -13.8,1.7 -13.7,13.2 z"
   id="path34"
   inkscape:connector-curvature="0"
   style="fill:#ffffff;stroke:none" />&#10;	<path
   d="m 60.5,306.4 c 4.3,-1 11.6,-7.2 11.9,-10 0.1,-1.1 0.2,-2.2 0.1,-3.2 -0.6,2.6 -3.2,5.6 -7.6,9.1 -3.2,2.6 -6.8,3 -8.6,3.1 0.8,0.8 2,1.5 4.2,1 z"
   id="path36"
   inkscape:connector-curvature="0"
   style="fill:#262626;stroke:none" />&#10;	<path
   d="m 43.9,199.3 c 0,0 -4.5,9.1 -3.1,16.5 1.4,7.4 8.4,22.7 7.2,27.2 -1.2,4.5 -3.4,17.4 -3.2,26.5 0.1,9.1 -2.2,13.6 -1.1,15.8 1.1,2.2 2.7,6.2 7.3,5.4 4.6,-0.8 6.2,-2.6 6.2,-2.6 0,0 2.3,-41.6 2.3,-45.8 0,-4.2 -2.3,-40.9 -2.3,-40.9 z"
   id="path38"
   inkscape:connector-curvature="0"
   style="fill:#2d3134;stroke:none" />&#10;	<path
   d="m 43.9,199.3 c 0,0 -4.5,9.1 -3.1,16.5 1.4,7.4 8.4,22.7 7.2,27.2 -1.2,4.5 -3.4,17.4 -3.2,26.5 0.1,9.1 -2.2,13.6 -1.1,15.8 1.1,2.2 2.7,6.2 7.3,5.4 4.6,-0.8 6.2,-2.6 6.2,-2.6 0,0 2.3,-41.6 2.3,-45.8 0,-4.2 -2.3,-40.9 -2.3,-40.9 z"
   id="path40"
   inkscape:connector-curvature="0"
   style="opacity:0.2;stroke:none" />&#10;	<path
   d="m 50.3,201.2 c 0,0 -6.4,8.1 -4.2,16.9 2.2,8.8 5.5,10.9 7.2,17.2 1.6,6.2 4.2,12.7 3.2,17.3 -0.9,4.6 -4.9,12.3 -4.2,20.9 0.7,8.6 0.5,21.5 -0.3,25.3 -0.8,3.8 2.2,7.2 5.7,7.2 3.5,0 9.6,-5 9.9,-6.9 0.3,-1.9 -0.4,-3.6 -1.2,-5.5 -0.8,-1.9 -2.2,-10.5 -0.1,-20.1 2,-9.6 4.1,-18.5 4.5,-24.3 0.4,-5.8 3.4,-12.6 2.3,-23.5 -1.1,-10.9 -3.9,-21.1 -3.9,-21.1 z"
   id="path42"
   inkscape:connector-curvature="0"
   style="fill:#2d3134;stroke:none" />&#10;	<path
   d="m 33.5,158.7 c 0,0 -0.1,7.3 -1.6,12.4 -1.5,5.1 -3.1,10.7 -1.8,13.4 1.4,2.7 8.2,5.8 10.3,9.5 2,3.6 4.6,7.4 4.6,7.4 l 2.3,-7.4 c 0,0 -5.5,-8.2 -7.2,-10 -1.6,-1.8 -2.6,-3.4 -2.6,-3.4 l 2.4,-5.8 -3.6,-15.7 z"
   id="path44"
   inkscape:connector-curvature="0"
   style="fill:#fbd7c7;stroke:none" />&#10;	<path
   d="m 47.4,152.7 c 0,0 -6.6,-2.4 -10.8,-0.8 -4.2,1.6 -3.9,7.4 -3.9,7.4 l 1.5,1.1 c 0,0 2,4.9 2,8 0,3.1 4.1,12.4 5,18.4 0.9,5.9 2.2,9.3 0.8,12.7 -1.4,3.4 -1.9,7.7 -1.9,7.7 0,0 0.7,2 7.4,4.2 8.5,2.7 23,3.6 23.5,2.4 0.5,-1.1 -1.1,-10.4 -1.7,-15.3 -0.5,-4.9 -1.5,-15.7 -0.7,-16.9 0.8,-1.2 3.9,-4.3 3.6,-7.3 -0.3,-3 -1.9,-5.1 -4.7,-7.3 -2.8,-2.2 -5.1,-9.2 -7.3,-9.7 -2.2,-0.5 -12.8,-4.6 -12.8,-4.6 z"
   id="path46"
   inkscape:connector-curvature="0"
   style="fill:#cc291f;stroke:none" />&#10;	<path
   d="m 58.1,122.7 c 5.3,0 11.4,0.9 11.8,13.9 0.4,13 3.2,13.6 2.4,17.8 -0.8,4.2 -4.3,8.4 -18.2,7.7 -13.9,-0.7 -15.3,-6.6 -14.6,-9.7 0.7,-3.1 4.6,-8.8 5.4,-15 0.7,-5.9 2.8,-14.7 13.2,-14.7 z"
   id="path48"
   inkscape:connector-curvature="0"
   style="fill:#825012;stroke:none" />&#10;	<path
   d="m 56.9,175.2 c 0,0 1.8,1.3 4.3,1.8 2.4,0.5 6.1,0.3 6.1,0.3 0,0 -3.5,9.6 -5.7,13 -2.2,3.4 -3.1,6.6 -3.1,6.6 0,0 2.2,2.2 4.5,6.1 2.3,3.9 6.2,10 7.3,10.3 1.1,0.3 1.9,-0.1 3.4,1.6 1.5,1.8 5.8,6.1 4.9,6.5 -0.9,0.4 -3.2,-1.3 -3.2,-1.3 0,0 1.8,3 1,3.6 -0.8,0.6 -3,-1.8 -3,-1.8 0,0 0.9,1.6 0.2,2.1 -0.7,0.5 -0.9,0.2 -0.9,0.2 0,0 -0.4,0.8 -1.3,0.5 -0.9,-0.3 -3.9,-4.3 -4.8,-6.1 -0.9,-1.8 -2.2,-4.5 -3.7,-6.2 -1.6,-1.8 -12.4,-11 -12.2,-14.1 0.3,-3.1 2,-12.7 4,-17.2 1.9,-4.7 2.2,-5.9 2.2,-5.9 z"
   id="path50"
   inkscape:connector-curvature="0"
   style="fill:#fbd7c7;stroke:none" />&#10;</g>&#10;<g
   id="g92"
   transform="translate(-9.0844968,-47.870981)"
   style="stroke:none">&#10;	<path
   d="m 95.4,93.2 c 0,0 1.5,13.1 0.2,18.2 -1.3,5.1 -2.3,8.4 -2.9,14 -0.6,5.6 -0.3,10.3 -1.3,13 -1,2.7 -0.8,7.1 -0.3,10 0.3,2.2 1,6.4 2.1,6.2 1.1,-0.2 0.7,-1.5 0.9,-2.7 0.2,-1.1 0.4,-2.8 0.2,-3.7 -0.1,-0.9 -0.1,-0.8 0.6,-1.4 0.7,-0.6 0.2,-3.4 0.1,-4.7 -0.4,-2.9 2,-9.6 3,-14.3 1,-4.7 4.1,-11.6 3.5,-16.2 -0.6,-4.5 -0.7,-16.9 -0.7,-16.9 z"
   id="path54"
   inkscape:connector-curvature="0"
   style="fill:#fbd7c7;stroke:none" />&#10;	<path
   d="m 73.8,232.6 c -6.2,7.5 4.4,11.2 19.8,12.5 15.4,1.3 29.8,8.1 40.2,2.8 10.5,-5.2 4,-15.3 -16.3,-16.6 -20.3,-1.3 -19.7,-6.1 -28.8,-4.1 -9.1,2 -12.7,2.7 -14.9,5.4 z"
   id="path56"
   inkscape:connector-curvature="0"
   style="opacity:0.2;stroke:none" />&#10;	<g
   id="g62"
   style="stroke:none">&#10;		<path
   d="m 99.6,230.3 c 2.4,0 4,4.7 -0.4,6 -4.4,1.3 -9.2,1.9 -10.6,2.1 -2.1,0.2 -7.3,0.7 -9.8,0 -2.7,-0.7 -2.2,-3.4 -1.5,-4.6 0.7,-1.1 15.1,-4.3 17.7,-4.3 2.6,0.1 4.2,0.8 4.6,0.8 z"
   id="path58"
   inkscape:connector-curvature="0"
   style="fill:#262626;stroke:none" />&#10;		<path
   d="m 78.2,236.5 c 1.5,0.5 6,0.5 9.8,0 1.5,-0.2 13.2,-2.5 13.9,-3.9 0.7,-1.4 -9.9,-5.6 -9.9,-5.6 0,0 -5.5,2.7 -7.7,3.1 -2.2,0.4 -5.4,0.8 -7.1,2.7 -1.1,1.3 -0.3,3.4 1,3.7 z"
   id="path60"
   inkscape:connector-curvature="0"
   style="fill:#ffffff;stroke:none" />&#10;	</g>&#10;	<path
   d="m 122,233.4 c -0.2,2 -1.2,6.7 0.5,10.2 1,2.1 6.8,3 9.2,0.5 2.4,-2.5 -1.4,-14.2 -1.4,-14.2 z"
   id="path64"
   inkscape:connector-curvature="0"
   style="fill:#262626;stroke:none" />&#10;	<path
   d="m 122.6,232.7 c 0,0 -2.8,11.2 4.3,11.1 7.2,-0.1 5.1,-5.1 4.5,-8.5 -0.6,-3.4 -2,-5.2 -2,-5.2 z"
   id="path66"
   inkscape:connector-curvature="0"
   style="fill:#ffffff;stroke:none" />&#10;	<path
   d="m 121.3,234.3 c 0,0 2.9,0.1 6.7,0.3 3.8,0.2 4.1,-1.6 4.1,-1.6 0,0 -0.8,-6.5 -0.9,-11.4 -0.1,-4.9 0.4,-18.8 -0.2,-25.2 -0.7,-6.4 -0.8,-11.7 0.4,-23.3 1.1,-11.6 2.5,-18.7 0.2,-24.7 -2.3,-6 -3.7,-8.5 -3.7,-8.5 L 96,143.3 c 0,0 -3.8,9 -4.2,20 -0.4,11 2.6,20.8 1.7,26.6 -0.9,5.9 -1.3,18.7 -1.9,24.7 -0.9,9.4 -4.4,15.5 -4.4,15.5 0,0 1,3 6.1,3.8 5.1,0.8 8.7,-1.7 8.7,-1.7 0,0 0.2,-6.5 0.9,-14.7 0.8,-8.2 2.2,-16.2 2.4,-22.7 0.2,-6.5 0.6,-7.5 1,-9.2 0.5,-1.7 2.3,-13.6 3.4,-17.1 1.4,-4.7 1.8,-9.4 2.9,-9.4 1.1,0.1 0.9,4.1 2.2,11.9 1.1,6.5 4.8,32.8 4.9,40.8 0.1,8 1.6,22.5 1.6,22.5 z"
   id="path68"
   inkscape:connector-curvature="0"
   style="fill:#cc291f;stroke:none" />&#10;	<g
   id="g76"
   style="stroke:none">&#10;		<path
   d="m 95.9,143.2 c 0,0 -3.8,9 -4.2,20 -0.4,11 2.6,20.8 1.7,26.6 -0.9,5.9 -1.3,18.7 -1.9,24.7 -0.9,9.4 -4.4,15.5 -4.4,15.5 0,0 1,3 6.1,3.8 5.1,0.8 8.7,-1.7 8.7,-1.7 0,0 0.2,-6.5 0.9,-14.7 0.8,-8.2 2.2,-16.2 2.4,-22.7 0.2,-6.5 0.6,-7.5 1,-9.2 0.5,-1.7 2.3,-13.6 3.4,-17.1 1.4,-4.7 1.8,-9.4 2.9,-9.4 0,0 1.1,-10.4 0.5,-17.5 z"
   id="path70"
   inkscape:connector-curvature="0"
   style="fill:#cc291f;stroke:none" />&#10;		<path
   d="m 95.9,143.2 c 0,0 -3.8,9 -4.2,20 -0.4,11 2.6,20.8 1.7,26.6 -0.9,5.9 -1.3,18.7 -1.9,24.7 -0.9,9.4 -4.4,15.5 -4.4,15.5 0,0 1,3 6.1,3.8 5.1,0.8 8.7,-1.7 8.7,-1.7 0,0 0.2,-6.5 0.9,-14.7 0.8,-8.2 2.2,-16.2 2.4,-22.7 0.2,-6.5 0.6,-7.5 1,-9.2 0.5,-1.7 2.3,-13.6 3.4,-17.1 1.4,-4.7 1.8,-9.4 2.9,-9.4 0,0 1.1,-10.4 0.5,-17.5 z"
   id="path72"
   inkscape:connector-curvature="0"
   style="opacity:0.2;stroke:none" />&#10;		<path
   d="m 114.8,171.1 c 1.1,6.5 4.8,32.8 4.9,40.8 0.1,8 1.6,22.4 1.6,22.4 0,0 2.9,0.1 6.7,0.3 3.8,0.2 4.1,-1.6 4.1,-1.6 0,0 -0.8,-6.5 -0.9,-11.4 -0.2,-4.9 0.4,-18.8 -0.2,-25.2 -0.7,-6.4 -0.8,-11.7 0.4,-23.3 1.1,-11.6 2.5,-18.7 0.2,-24.7 -2.3,-6 -3.7,-8.5 -3.7,-8.5 l -17.5,1.9 c 0.6,7.1 2.3,17.5 2.3,17.5 1,0 0.8,3.9 2.1,11.8 z"
   id="path74"
   inkscape:connector-curvature="0"
   style="fill:#cc291f;stroke:none" />&#10;	</g>&#10;	<path
   d="m 127.8,100.1 c 0,0 -2.6,15.5 -2.1,20.6 0.5,5.1 1.3,11.2 2.3,14.8 1,3.6 1.7,6 0.9,7.3 -0.8,1.3 -1.8,5.3 -1.1,6 1.8,1.6 2.5,5.6 3,6.6 0.3,0.6 0.9,1.1 1.8,0.6 0.9,-0.5 0.2,-4.7 0.3,-5.7 0.1,-1 0.4,-5.8 0.4,-7.4 0,-1.6 0.6,-15.7 0,-18.8 -0.5,-3 -1.4,-8.2 0.4,-14.7 1.8,-6.4 2.8,-7.3 2.8,-10.2 0,-2.9 -8.7,0.9 -8.7,0.9 z"
   id="path78"
   inkscape:connector-curvature="0"
   style="fill:#fbd7c7;stroke:none" />&#10;	<path
   d="m 107.5,84.4 c 0,0 -12.3,13.3 1.7,14.9 14,1.6 16.5,-7.7 13.9,-12.8 -2.6,-5.2 -6.9,-7.9 -6.9,-7.9 z"
   id="path80"
   inkscape:connector-curvature="0"
   style="fill:#fbd7c7;stroke:none" />&#10;	<path
   d="m 107.8,85.3 c 0,0 -5.6,-1.7 -8.9,0.6 -3.3,2.4 -3.8,7.7 -3.8,7.7 0,0 0.6,0.5 1.4,0.9 0.8,0.4 1.3,0.4 1.3,0.4 0,0 0,1.7 -0.9,4.2 -0.8,2.6 -2.7,5 -1.7,8.5 0.9,3.4 3.1,3.9 3.1,4.6 0,0.8 0.6,12.2 -0.7,18.5 -1.3,6.3 -2.5,12.8 -2.4,14.6 0,0.3 0.4,5.5 13.1,5.8 12.7,0.3 20.7,-8.8 20.7,-8.8 0,0 -2.6,-6.8 -3.7,-11 -1,-3.9 2.4,-17.8 2.4,-21.4 0,-3.6 0,-8.5 0,-8.5 0,0 1.3,1.2 5.2,1.1 2.1,-0.1 3.7,-1.4 3.7,-1.4 0,0 0.9,-5.6 -3.1,-8.9 -4,-3.3 -8.6,-3.4 -8.6,-3.4 0,0 -5.1,10.4 -13.9,8.1 -9.4,-2.6 -3.2,-11.6 -3.2,-11.6 z"
   id="path82"
   inkscape:connector-curvature="0"
   style="fill:#3399cc;stroke:none" />&#10;	<path
   d="m 115.4,57.7 c -8.1,-0.5 -12,3 -13.5,8.6 -1.5,5.4 4,15.3 -1.8,17.9 0.1,2.2 5.1,4.5 7.3,2.1 2.2,-2.3 2.9,-2.4 2.9,-2.4 z"
   id="path84"
   inkscape:connector-curvature="0"
   style="fill:#262626;stroke:none" />&#10;	<path
   d="m 104.7,67.9 c -1.5,3.1 -1.9,15.6 0.6,17.6 2.5,2 7.6,-1.3 12.5,-3.5 4.9,-2.3 5.5,-19 -1.9,-19.2 -7.3,-0.3 -9.6,1.8 -11.2,5.1 z"
   id="path86"
   inkscape:connector-curvature="0"
   style="fill:#fbd7c7;stroke:none" />&#10;	<path
   d="m 113.9,57.9 c -3.3,0.8 -7.1,5.2 -6.4,10 1,6.2 13.2,18.3 4.6,22.2 1.4,4.6 9.5,4.3 14,2 4.3,-2.3 4.7,-4.5 4.6,-5.3 -0.1,-0.8 -3.8,-4.9 -3.8,-10.9 -0.1,-6 -0.5,-21.1 -13,-18 z"
   id="path88"
   inkscape:connector-curvature="0"
   style="fill:#262626;stroke:none" />&#10;	<path
   d="m 95.4,107.5 c 0,0 1.1,4.3 13.6,5.1 12.5,0.9 18.6,-4.8 18.6,-4.8 0,0 -3.3,7.9 -17.4,7.4 -14.2,-0.6 -14.8,-7.7 -14.8,-7.7 z"
   id="path90"
   inkscape:connector-curvature="0"
   style="opacity:0.2;stroke:none" />&#10;</g>&#10;<g
   id="g124"
   transform="translate(-9.0844968,-47.870981)"
   style="stroke:none">&#10;	<path
   d="m 101.9,195.3 c 0,0 0.5,4.7 2.1,7 1.6,2.3 3.4,3.5 3.4,3.5 l -0.1,-8.3 -1.1,-4.3 z"
   id="path94"
   inkscape:connector-curvature="0"
   style="fill:#fbd7c7;stroke:none" />&#10;	<path
   d="m 152.1,191.9 c 0,0 0.7,6.3 1.1,7.5 0.3,1.2 -0.7,3.3 -2.1,4 -3.1,1.6 -5.5,1.1 -6.3,0.8 -1.2,-0.4 2.6,-12.7 2.6,-12.7 z"
   id="path96"
   inkscape:connector-curvature="0"
   style="fill:#fbd7c7;stroke:none" />&#10;	<path
   d="m 146.3,129.6 c 0,0 7,1.1 9.7,5.3 2.7,4.2 0.2,14.2 0.4,20.6 0.2,6.4 0.2,17.5 -0.3,21.8 -0.5,4.3 -2.2,10.6 -2.2,12.4 0,1.8 0.4,3.3 -2.4,3.5 -2.8,0.3 -5.6,-0.6 -5.6,-0.6 0,0 -2.7,-23.8 -2.3,-28.9 0.5,-5 2.7,-34.1 2.7,-34.1 z"
   id="path98"
   inkscape:connector-curvature="0"
   style="fill:#06547a;stroke:none" />&#10;	<path
   d="m 150,142.9 c 0,0 1.2,11.1 -0.1,16.2 -1.3,5 -2.5,9.9 -1.8,13.6 0.7,3.7 2,9.6 1.3,14.2 -0.7,4.6 -2.2,7 -2.2,7 l -5.9,-25.3 5.4,-16.4 z"
   id="path100"
   inkscape:connector-curvature="0"
   style="opacity:0.2;stroke:none" />&#10;	<path
   d="m 141.5,293.2 c 3.1,3.1 9.5,10.6 2.8,14.2 -6.7,3.5 -13.8,3.5 -20.9,3.2 -7.1,-0.3 -25.2,-3.2 -28,-6.3 -2.8,-3.2 -3.9,-7.9 2.8,-9.1 6.7,-1.2 11,-5.9 20.1,-5.5 9.1,0.4 22.4,2.7 23.2,3.5 z"
   id="path102"
   inkscape:connector-curvature="0"
   style="opacity:0.3;fill:#262626;stroke:none" />&#10;	<path
   d="m 142.1,297.1 c 0,0 -1.4,6.3 -5.7,6.3 -4.3,0 -18.7,-2.2 -18.7,-2.2 l 11.4,-8.7 z"
   id="path104"
   inkscape:connector-curvature="0"
   style="fill:#262626;stroke:none" />&#10;	<path
   d="m 135.2,302 c 0,0 0.8,6.5 -2.4,6.9 -3.2,0.4 -14.4,-1 -17.6,-1 -3.2,0 -14.8,-2.4 -15.8,-5.1 -1,-2.7 0.4,-5.7 4.7,-5.7 4.3,0 12.2,0.2 13.6,-0.2 1.4,-0.4 17.5,5.1 17.5,5.1 z"
   id="path106"
   inkscape:connector-curvature="0"
   style="fill:#262626;stroke:none" />&#10;	<path
   d="m 99.3,300.1 c 0,0.5 0.1,0.9 0.3,1.4 1,2.8 13,5.3 16.2,5.3 3.2,0 14.8,1.4 18.1,1 0.2,0 0.5,-0.1 0.7,-0.2 -0.4,0.7 -0.9,1.3 -1.8,1.4 -3.2,0.4 -14.4,-1 -17.6,-1 -3.2,0 -14.8,-2.4 -15.8,-5.1 -0.2,-1 -0.3,-2 -0.1,-2.8 z"
   id="path108"
   inkscape:connector-curvature="0"
   style="fill:#262626;stroke:none" />&#10;	<path
   d="m 147.2,191.2 c 0.8,2.6 -3.5,29.6 -3.5,32.7 0,3.1 -1.8,17 -1.4,21.5 0.4,4.5 1.4,27.2 1.8,34.5 0.4,7.3 -0.4,18.9 -2.4,20.1 -2,1.2 -8.7,1.2 -10.6,0.8 -2,-0.4 -3.9,-105.5 -3.9,-105.5 z"
   id="path110"
   inkscape:connector-curvature="0"
   style="fill:#656565;stroke:none" />&#10;	<path
   d="m 147.2,191.2 c 0.8,2.6 -3.5,29.6 -3.5,32.7 0,3.1 -1.8,17 -1.4,21.5 0.4,4.5 1.4,27.2 1.8,34.5 0.4,7.3 -0.4,18.9 -2.4,20.1 -2,1.2 -8.7,1.2 -10.6,0.8 -2,-0.4 -3.9,-105.5 -3.9,-105.5 z"
   id="path112"
   inkscape:connector-curvature="0"
   style="opacity:0.2;stroke:none" />&#10;	<path
   d="m 133.8,197.1 c 0,0 -1,11.8 -1,17.2 0,5.3 2.8,45 3.4,52.7 0.6,7.7 1.4,33.9 0.2,36.5 -1.2,2.6 -3.4,3.5 -7.4,2.6 -3.9,-1 -9.1,-2.4 -12.1,-6.1 -0.8,-1 -2.9,-2.7 -2.9,-2.7 0,0 3.2,-5 2.6,-10.5 -0.6,-5.5 -1.2,-15.4 -1,-19.7 0.2,-4.3 0.2,-10.6 -1.4,-16.4 -1.6,-5.7 -5.7,-17.9 -6.9,-35.9 -1.2,-17.9 -0.8,-21.5 -0.8,-21.5 z"
   id="path114"
   inkscape:connector-curvature="0"
   style="fill:#656565;stroke:none" />&#10;	<path
   d="m 139,128.1 c 0,0 -4.9,0.4 -4.9,-3.7 0,-4.1 0.1,-6.7 0.1,-6.7 0,0 2.6,-1.1 2.4,-4.7 -0.2,-3.6 -1.3,-2.8 -1.3,-2.8 l -19.4,1.8 c 0,0 -1.3,0.4 -0.3,3.9 0.4,1.3 1.4,3 1.4,3.5 0,0.5 1,3.5 1.7,3.9 0.7,0.4 1.9,4.8 1.9,6.3 0,1.5 -0.7,3.5 -0.7,3.5 0,0 8.1,0.1 12.8,-1 4.7,-1.1 6.3,-4 6.3,-4 z"
   id="path116"
   inkscape:connector-curvature="0"
   style="fill:#fbd7c7;stroke:none" />&#10;	<path
   d="m 133.8,122.1 c 0.4,-0.2 0.6,-4.3 0.9,-6.6 0.3,-2.3 2.8,-10 -1.2,-14.9 -3.9,-4.9 -15.2,-4.5 -17.3,2.4 -1.9,6.2 -0.7,10 1,13.5 1.7,3.5 3.5,5.2 4.1,6 0.6,0.7 6.2,1.5 7.5,1.4 1.2,-0.1 3.6,-1.3 5,-1.8 z"
   id="path118"
   inkscape:connector-curvature="0"
   style="fill:#762c07;stroke:none" />&#10;	<path
   d="m 120.1,131.1 c 0.6,-0.2 6,0.6 10.5,-0.7 4.4,-1.3 6.5,-3.3 6.5,-3.3 0,0 9.3,1.8 11.7,3 2.7,1.3 3.1,3.4 3.5,5.5 0.5,2.6 0.7,5.4 0.4,8.3 -0.9,9.1 -4.1,11.7 -5,14 -0.9,2.4 -2.9,10.9 -1.5,17.9 1.4,7 2,15.4 1.8,17.6 -0.2,2.2 -2.4,7.7 -14.7,8.3 -14.5,0.7 -26.8,-4.6 -26.8,-4.6 V 196 c 0,0 -0.7,1.3 -2.6,1.2 -1.9,-0.1 -4,-2.3 -4,-3 0,-0.7 -0.4,-7.8 -0.7,-9.4 -0.3,-1.6 -1.2,-2.5 0,-6.6 1.2,-4.1 3.8,-17.8 4.5,-24.4 0.7,-6.5 0.9,-8.8 4.1,-12.6 3.2,-3.8 12.3,-10.1 12.3,-10.1 z"
   id="path120"
   inkscape:connector-curvature="0"
   style="fill:#06547a;stroke:none" />&#10;	<path
   d="m 106.5,196 c 0,0 2.1,-3.1 2.4,-5.1 0.3,-2 1,-9.3 1.6,-10.9 0.6,-1.7 0.8,-4.8 1.9,-7.1 1.1,-2.3 7.4,-16.2 7.4,-16.2 0,0 -0.9,6.4 -3,11.3 -0.8,1.9 -2.5,3.9 -2.5,9.6 0,5.6 -2.8,11.4 -3.4,12.7 -1.6,3.4 -1.5,7 -1.5,8 -1.8,-0.6 -2.9,-1.1 -2.9,-1.1 V 196 c 0,0 0,0.1 0,0 z"
   id="path122"
   inkscape:connector-curvature="0"
   style="opacity:0.2;stroke:none" />&#10;</g>&#10;<path
   style="fill:#ff4400;fill-opacity:1;stroke:none;stroke-width:0;stroke-dasharray:none"
   id="path13"
   d="m 251.40289,113.97153 c 1.81332,2.00815 3.80532,2.59221 6.5142,2.53817 0.82369,-0.0164 1.63871,-0.17199 2.45807,-0.25798 3.20561,-0.6977 5.99864,-1.84714 8.1431,-4.43391 1.23789,-1.49322 1.34723,-2.0607 2.11449,-3.7985 0.14981,-0.68099 0.37137,-1.35007 0.44941,-2.04296 0.24543,-2.17891 -0.22862,-4.42268 -1.37356,-6.298835 -0.97523,-1.598068 -1.88633,-2.330688 -3.20002,-3.611073 -3.47781,-2.899849 -7.66892,-4.531896 -11.9624,-5.782501 -1.14056,-0.147788 -2.65052,-0.481156 -3.81057,-0.102819 -1.58317,0.516337 -2.63161,1.472678 -3.45442,2.894239 -1.06524,1.840389 -0.9887,2.859781 -1.27971,4.946388 0.0457,1.042289 -0.004,2.093191 0.13711,3.126871 0.3702,2.70874 1.26053,5.35136 2.16727,7.91158 1.68837,4.76718 3.80259,9.36865 5.84147,13.99141 4.91167,11.10309 9.98081,22.1363 15.13766,33.12746 2.22524,4.66835 1.16269,2.44116 3.18724,6.68177 1.01326,2.12236 4.01473,0.6894 3.00147,-1.43295 v 0 c -2.02076,-4.23267 -0.96141,-2.01222 -3.17767,-6.66155 -5.14595,-10.96777 -10.2043,-21.97754 -15.10559,-33.05699 -1.9957,-4.52425 -4.05919,-9.02636 -5.72465,-13.68694 -0.78545,-2.19798 -1.64495,-4.70572 -2.00568,-7.04614 -0.1297,-0.84144 -0.10495,-1.699523 -0.15742,-2.549284 0.17768,-1.784065 0.18993,-2.874037 1.25595,-4.362948 0.14982,-0.209256 0.28084,-0.46986 0.51607,-0.574263 0.7028,-0.311924 1.86981,-0.08034 2.54459,-0.01161 3.7773,1.091516 7.48357,2.488017 10.58247,4.984278 0.91125,0.864212 1.80125,1.606917 2.50978,2.657237 1.13579,1.6837 1.33367,3.66024 0.86174,5.59508 -0.52599,1.29651 -0.57226,1.65845 -1.44601,2.79104 -1.57117,2.0366 -3.69177,2.85786 -6.12384,3.44077 -2.55099,0.31089 -4.415,0.77089 -6.24872,-1.32687 -1.663,-1.66299 -4.01482,0.68883 -2.35183,2.35183 z" /><path
   style="fill:#ff4400;fill-opacity:1;stroke:none;stroke-width:0;stroke-dasharray:none"
   id="path15"
   d="m 262.75285,96.721005 c -0.50612,0.397564 -0.85358,0.609757 -1.20043,1.224189 -1.18375,2.097016 -1.07571,5.866426 -1.17616,8.231326 0.0607,2.20836 -0.0753,3.74186 0.78054,5.8854 1.04534,2.61806 3.02844,5.16559 4.73717,7.34243 0.0559,0.0712 5.70017,6.88626 5.83482,7.04886 0.88034,1.04927 1.76067,2.09854 2.64101,3.14781 1.51163,1.80169 4.05959,-0.33608 2.54796,-2.13776 v 0 c -0.87576,-1.04379 -1.75153,-2.08758 -2.62729,-3.13137 -1.91038,-2.30694 -3.87374,-4.57095 -5.73289,-6.91938 -1.14024,-1.44031 -3.36631,-4.28087 -4.16446,-6.11769 -0.77636,-1.78667 -0.63594,-3.09124 -0.69383,-4.97815 0.0779,-1.85988 0.0897,-2.70083 0.24757,-4.49988 0.054,-0.61551 0.009,-1.78534 0.56876,-2.275356 1.99434,-1.246465 0.23157,-4.066894 -1.76277,-2.820429 z" /></svg>
