<?xml version="1.0" encoding="UTF-8" standalone="no"?>
<svg
   id="svg1880"
   version="1.1"
   viewBox="0 0 124.88036 54.553207"
   height="54.553207mm"
   width="124.88036mm"
   sodipodi:docname="1 soweli.svg"
   inkscape:version="1.3 (0e150ed6c4, 2023-07-21)"
   xmlns:inkscape="http://www.inkscape.org/namespaces/inkscape"
   xmlns:sodipodi="http://sodipodi.sourceforge.net/DTD/sodipodi-0.dtd"
   xmlns="http://www.w3.org/2000/svg"
   xmlns:svg="http://www.w3.org/2000/svg"
   xmlns:rdf="http://www.w3.org/1999/02/22-rdf-syntax-ns#"
   xmlns:cc="http://creativecommons.org/ns#"
   xmlns:dc="http://purl.org/dc/elements/1.1/">
  <sodipodi:namedview
     id="namedview1"
     pagecolor="#ffffff"
     bordercolor="#000000"
     borderopacity="0.25"
     inkscape:showpageshadow="2"
     inkscape:pageopacity="0.0"
     inkscape:pagecheckerboard="0"
     inkscape:deskcolor="#d1d1d1"
     inkscape:document-units="mm"
     inkscape:zoom="1.3637995"
     inkscape:cx="198.34294"
     inkscape:cy="103.02101"
     inkscape:window-width="1920"
     inkscape:window-height="1051"
     inkscape:window-x="-9"
     inkscape:window-y="-9"
     inkscape:window-maximized="1"
     inkscape:current-layer="svg1880" />
  <defs
     id="defs1874" />
  <metadata
     id="metadata1877">
    <rdf:RDF>
      <cc:Work
         rdf:about="">
        <dc:format>image/svg+xml</dc:format>
        <dc:type
           rdf:resource="http://purl.org/dc/dcmitype/StillImage" />
        <dc:title />
      </cc:Work>
    </rdf:RDF>
  </metadata>
  <g
     transform="translate(-59.806349,-88.710472)"
     id="layer1">
    <g
       transform="matrix(-0.26458333,0,0,0.26458333,136.45614,83.450575)"
       id="g2537">
      <path
         style="opacity:0.2"
         d="m 202,201.7 c 22.3,-12.1 93.7,-42.5 60.6,-62.8 -31,-18.9 -97,16.9 -118.8,28.6 -32.2,17.1 -64.6,40.4 -44.9,52.7 20,12.6 61.1,4.2 103.1,-18.5 z"
         id="path2495" />
      <path
         style="fill:#825012"
         d="m 234.5,22.4 c 2.4,-1.7 7.1,-4.7 14.5,0 7.4,4.7 7.5,18.3 11,26.9 5.5,13.6 14.6,19.6 13.8,23.4 C 272.9,76.5 264.2,71 259.3,61 254.5,51 246.9,27.9 246.9,27.9 Z"
         id="path2497" />
      <path
         style="fill:#2d3134"
         d="m 207,144.3 c 0,0 -0.9,3.3 -0.7,4.1 0.2,0.9 3.4,1.9 6.9,2.1 3.4,0.2 7.4,-2.4 7.6,-3.4 0.2,-1 -1.4,-10.3 -1.4,-10.3 z"
         id="path2499" />
      <path
         style="fill:#fbd7c7"
         d="m 233.2,116.7 c 0.9,2.4 2.3,9.2 -1.4,13.8 -1.9,2.4 -3.4,2.8 -3.4,2.8 0,0 0.3,6 -1.4,6.9 -1.7,0.9 -4.1,-5.5 -4.1,-5.5 z"
         id="path2501" />
      <path
         style="fill:#f8ebcb"
         d="m 52,121.6 c 0,0 -1.4,5.9 -4.8,9.6 -3.4,3.8 -2.8,11 0,14.5 2.8,3.4 6,10 3.4,17.9 -2.6,7.9 -6.4,10.3 -3.4,15.2 2.9,4.8 11.2,8.6 16.5,3.4 5.3,-5.2 17.9,-17.9 21.4,-20.7 3.4,-2.8 7.8,-12.1 11.7,-13.8 4.4,-1.9 7.8,-2.1 9.6,2.8 1.9,4.8 2,5.6 3.4,9 1.3,2.9 6.2,5.3 5.5,13.8 -0.7,8.4 -5.5,20.3 -4.8,22 0.7,1.7 4.8,4 9,4.1 4.1,0.2 7.4,-2.8 7.6,-4.1 0.2,-1.4 -2.2,-4.7 -2.8,-9.6 -0.5,-5 0.7,-15.8 0.7,-15.8 0,0 4.3,-0.2 9,-1.4 4.7,-1.2 9.8,-4.8 11.7,1.4 1.9,6.2 4,22 2.8,28.2 -1.2,6.2 -4.5,13.4 -3.4,15.2 1,1.7 4.7,2.8 7.6,2.8 2.9,0 6.7,-2.2 7.6,-3.4 0.9,-1.2 -2.8,-11.5 -2.8,-17.9 0,-6.4 5.5,-25.5 6.9,-30.3 1.4,-4.8 3.4,-12.4 3.4,-12.4 0,0 38.9,-1.2 51.7,-13.1 12.7,-11.9 17.2,-24.8 17.2,-24.8 0,0 3.3,6.2 4.1,10.3 0.9,4.1 7.1,5.3 8.3,14.5 1.2,9.2 -4,23.9 -4.1,25.5 -0.2,1.6 1.9,4.1 7.6,4.1 5.7,0 7.6,-2.6 7.6,-4.1 0,-1.5 -2.4,-19.6 -2.8,-24.8 -0.4,-5.2 2.6,-14 0.7,-18.6 -1.9,-4.7 -2.6,-8.3 -2.1,-17.2 0.5,-8.9 5.9,-46.7 1.4,-60.6 -4.5,-14 -7.8,-18.9 -22.7,-20.7 -14.9,-1.8 -21.4,3.6 -33.8,9 -12.4,5.3 -25.7,23.3 -42,29.6 -16.3,6.3 -26.7,7.8 -40,15.2 -13.3,7.4 -41,33.6 -53,34.4 -12.1,0.9 -22.7,-6.2 -22.7,-6.2 0,0 -0.4,15.6 8.8,17 z"
         id="path2503" />
      <path
         style="fill:#825012"
         d="m 73.3,170.1 c -2.3,1.6 -14.1,-5.2 -13.1,-14.5 1,-9.3 8.6,-16.5 15.2,-15.2 6.5,1.4 15.2,-2.4 14.1,5.2 -1,7.7 -4.5,16.6 -16.2,24.5 z"
         id="path2505" />
      <g
         id="g2513">
        <path
           style="fill:#2d3134"
           d="m 244.9,164.3 c -0.2,1.6 1.9,4.1 7.6,4.1 5.7,0 7.6,-2.6 7.6,-4.1 0,-0.6 -0.4,-3.8 -0.9,-7.8 -4.2,2.2 -8.3,2.5 -12,-0.9 -1.1,4.4 -2.3,8 -2.3,8.7 z"
           id="path2507" />
        <path
           style="fill:#2d3134"
           d="m 110.5,195.3 c 0.7,1.7 4.8,4 9,4.1 4.1,0.2 7.4,-2.8 7.6,-4.1 0.1,-1.1 -1.3,-3.3 -2.2,-6.5 -3.4,1.4 -8,1.1 -12.7,-0.1 -1.1,3.3 -2,5.8 -1.7,6.6 z"
           id="path2509" />
        <path
           style="fill:#2d3134"
           d="m 152.6,215.9 c 2.9,0 6.7,-2.2 7.6,-3.4 0.4,-0.6 -0.3,-3.7 -1.1,-7.4 -5.6,2 -9.7,1.5 -12.3,-0.5 -1.2,4 -2.4,7.4 -1.7,8.6 0.9,1.7 4.5,2.7 7.5,2.7 z"
           id="path2511" />
      </g>
      <path
         style="fill:#2d3134"
         d="m 67.1,152.6 c -0.4,-0.3 4.1,-4.1 5.5,-2.8 1.4,1.4 -1.2,6 -5.5,2.8 z"
         id="path2515" />
      <path
         style="opacity:0.15"
         d="m 76.8,131.2 c 0,0 6.5,1 12.4,1.4 5.9,0.3 9,0.7 9,0.7 0,0 -1.4,5 -4.8,6.2 -3.5,1.2 -11.8,-0.3 -16.6,-8.3 z"
         id="path2517" />
      <path
         style="opacity:0.15"
         d="m 60.9,178.7 c -0.5,-2.1 -1.7,-2.8 -3.4,-0.7 -1.4,1.7 -5.8,3.1 -9.4,1.9 3.1,3.8 9.4,6.4 14.2,3.3 -0.5,-1.4 -1.1,-3.3 -1.4,-4.5 z"
         id="path2519" />
      <path
         style="fill:#2d3134"
         d="m 270.1,65.6 -5.2,3.6 c 0,0 0.6,6.2 5.6,10.5 4.3,3.8 12.6,6 19.2,4.3 -5.3,-3.2 -6.9,-8.7 -9.9,-11.8 -4.6,-4.7 -9.7,-6.6 -9.7,-6.6 z"
         id="path2521" />
      <path
         style="fill:#825012"
         d="m 210.1,123.6 c -0.7,-11.4 -2.8,-13.1 -7.6,-8.6 -4.8,4.5 -20.3,16.5 -27.9,21.4 -5.4,3.5 -6.6,11.3 -6.8,15.5 0.8,0 14.6,-0.5 28.2,-3.4 1.8,-0.4 14.8,-13.5 14.1,-24.9 z"
         id="path2523" />
      <path
         style="fill:#825012"
         d="m 118.8,76.1 c -3.8,2.1 -8.7,5.8 -14.2,9.9 11.9,-0.9 27.6,-1.8 32.4,4.2 9.3,11.7 34.4,11 38.6,-2.4 4.1,-13.4 11.4,-10 14.8,-1.4 4.1,10.3 24.7,-17.3 10.7,-25.1 -9.3,-5.2 9,-13.3 1,-13 -2.3,0.1 4.9,-12.9 8.5,-21.6 -3,1.4 -6.2,3 -9.9,4.6 -12.4,5.3 -25.7,23.3 -42,29.6 -6.3,2.4 -21.5,7.9 -36.1,13.2 -1.2,0.6 -2.5,1.3 -3.8,2 z"
         id="path2525" />
      <path
         style="fill:#825012"
         d="m 132.2,129.5 c -12.1,-11.4 -5.2,-18.3 -12.1,-13.8 -6.9,4.5 -9,16.9 -16.9,25.8 0,0 0.3,2.3 0.7,5.7 0.9,0.6 1.8,1.7 2.4,3.3 1.9,4.8 2,5.6 3.4,9 1.2,2.7 15.2,10.3 15.2,10.3 0,0 4.3,-0.2 9,-1.4 3.5,-0.9 7.2,-3.1 9.7,-1.6 7.3,-3 7.8,-7.5 9.6,-18 2.1,-12.1 -8.9,-7.9 -21,-19.3 z"
         id="path2527" />
      <path
         style="fill:#825012"
         d="m 231.8,33 c -6.9,3.3 8.3,16.9 0.3,20 -7.9,3.1 -18.9,0 -14.8,7.6 4.1,7.6 1.7,21.4 5.5,26.2 3.8,4.8 9,16.9 11.7,5.2 2.7,-11.7 4.8,-20 12.7,-21.7 7.9,-1.7 8.6,-7.6 7.6,-16.2 -1,-8.7 -14.4,-25.2 -23,-21.1 z"
         id="path2529" />
      <path
         style="fill:#825012"
         d="m 76.8,131.2 21.4,2.1 c 0,0 -6.2,-7.1 -11.3,-7.3 -5.1,-0.2 -10.1,5.2 -10.1,5.2 z"
         id="path2531" />
      <path
         style="fill:#825012"
         d="m 43,104.3 c 0,0 -0.2,15.8 9,17.2 0,0 13.6,-5 17.1,-2.8 4.3,2.8 11.2,0.5 11.4,-4.3 0.1,-2.7 -1.2,-6.4 -2.4,-9.1 -4.8,2.9 -9,4.9 -12.2,5.1 -12.2,1 -22.9,-6.1 -22.9,-6.1 z"
         id="path2533" />
      <path
         style="opacity:0.15"
         d="m 51.9,121.5 c 0.7,-1 1.6,-3 -0.6,-4.8 -3.1,-2.6 -6.4,-7.6 -8.3,-12.4 0,0 -0.2,15.8 8.9,17.2 z"
         id="path2535" />
    </g>
  </g>
  <path
     style="opacity:1;fill:#ff4400;fill-opacity:1;stroke:none;stroke-width:0.264999"
     id="path1"
     d="m 100.29674,28.835193 c -1.191079,-0.09008 -2.379469,0.05121 -3.512049,0.436353 -0.28678,0.09752 -0.56313,0.223346 -0.84469,0.335019 -1.07521,0.517892 -2.05479,1.24787 -2.70486,2.267172 -0.36587,0.573677 -0.42097,0.848907 -0.63859,1.478102 -0.0355,0.254747 -0.0969,0.507212 -0.10639,0.764236 -0.0282,0.763228 0.20254,1.505159 0.72905,2.071846 0.51176,0.550821 0.818,0.617596 1.49318,0.946105 0.34479,0.08449 0.68143,0.215313 1.03436,0.253455 1.07001,0.115642 1.99053,-0.04233 3.03168,-0.326403 2.602229,-0.710004 4.790529,-2.068123 7.114219,-3.387839 0.96099,-0.589491 1.92597,-1.172543 2.88298,-1.768475 0.98036,-0.610467 1.9517,-1.235302 2.92901,-1.850644 2.8783,-1.812263 5.76297,-3.611784 8.58686,-5.508693 0.78361,-0.526376 1.55717,-1.067549 2.33576,-1.601322 0.68043,-0.477568 1.36086,-0.955135 2.0413,-1.432703 0.50932,-0.357481 0.004,-1.07777 -0.50556,-0.720291 v 0 c -0.67778,0.475731 -1.35557,0.951463 -2.03336,1.427194 -0.77422,0.530844 -1.54344,1.069057 -2.32267,1.592527 -2.81906,1.893793 -5.69897,3.690123 -8.57239,5.499349 -0.97402,0.613286 -1.94213,1.23598 -2.91914,1.8445 -0.94861,0.590833 -1.90506,1.168988 -2.8576,1.753481 -1.68965,0.960909 -3.22016,1.905977 -5.00815,2.661756 -0.598959,0.253177 -1.220759,0.452565 -1.846679,0.628822 -0.89213,0.251219 -1.73117,0.412287 -2.65452,0.332177 -0.293,-0.02543 -0.57396,-0.128612 -0.86094,-0.192916 -0.50949,-0.230362 -0.7608,-0.284866 -1.15634,-0.667247 -0.56854,-0.549622 -0.632,-1.297438 -0.50138,-2.036001 0.16431,-0.494937 0.22643,-0.778351 0.50537,-1.227804 0.55358,-0.891974 1.40099,-1.528358 2.33122,-1.983166 0.25377,-0.102153 0.50275,-0.217112 0.7613,-0.306462 1.03835,-0.358833 2.12666,-0.488984 3.220209,-0.403481 0.62129,0.03451 0.67011,-0.844129 0.0488,-0.878647 z" />
</svg>
