<?xml version="1.0" encoding="UTF-8" standalone="no"?>
<svg
   id="svg1880"
   version="1.1"
   viewBox="0 0 73.10008 17.565111"
   height="17.565111mm"
   width="73.100082mm"
   sodipodi:docname="1.1 cat.svg"
   inkscape:version="1.3 (0e150ed6c4, 2023-07-21)"
   xmlns:inkscape="http://www.inkscape.org/namespaces/inkscape"
   xmlns:sodipodi="http://sodipodi.sourceforge.net/DTD/sodipodi-0.dtd"
   xmlns="http://www.w3.org/2000/svg"
   xmlns:svg="http://www.w3.org/2000/svg"
   xmlns:rdf="http://www.w3.org/1999/02/22-rdf-syntax-ns#"
   xmlns:cc="http://creativecommons.org/ns#"
   xmlns:dc="http://purl.org/dc/elements/1.1/">
  <sodipodi:namedview
     id="namedview1"
     pagecolor="#ffffff"
     bordercolor="#000000"
     borderopacity="0.25"
     inkscape:showpageshadow="2"
     inkscape:pageopacity="0.0"
     inkscape:pagecheckerboard="0"
     inkscape:deskcolor="#d1d1d1"
     inkscape:document-units="mm"
     inkscape:zoom="2.727599"
     inkscape:cx="101.73783"
     inkscape:cy="25.480285"
     inkscape:window-width="1920"
     inkscape:window-height="1051"
     inkscape:window-x="-9"
     inkscape:window-y="-9"
     inkscape:window-maximized="1"
     inkscape:current-layer="svg1880" />
  <defs
     id="defs1874" />
  <metadata
     id="metadata1877">
    <rdf:RDF>
      <cc:Work
         rdf:about="">
        <dc:format>image/svg+xml</dc:format>
        <dc:type
           rdf:resource="http://purl.org/dc/dcmitype/StillImage" />
      </cc:Work>
    </rdf:RDF>
  </metadata>
  <g
     transform="matrix(0.26458333,0,0,0.26458333,0.00313048,-22.768938)"
     id="g1693">
    <path
       style="opacity:0.2"
       d="m 54.4,127.4 c 9.1,5.9 23.5,12.9 10.6,19.8 C 51.3,154.5 33.1,145.9 26.3,138 17.2,127.5 6.9,124 2.4,122.8 c -3.7,-1 -3.8,-3.1 4.4,-1.8 1.4,0.2 11.6,1.5 21.6,2.9 10.2,1.4 23.2,1.7 26,3.5 z"
       id="path1669" />
    <path
       style="fill:#999999"
       d="m 46.3,127.9 c 0,0 0.8,2.9 2.8,4.1 2,1.2 6.1,3.4 6.5,4.3 0.4,0.9 1.4,3 3.5,2.6 2.1,-0.4 4.8,-2.2 4.1,-3.5 -0.7,-1.3 -1.7,-0.9 -3.8,-1.4 -2.1,-0.5 -5.2,-2.4 -6,-3.7 -0.9,-1.3 -1.7,-4 -1.7,-4 z"
       id="path1671" />
    <path
       style="opacity:0.2"
       d="m 46.3,127.9 c 0,0 0.8,2.9 2.8,4.1 2,1.2 6.1,3.4 6.5,4.3 0.4,0.9 1.4,3 3.5,2.6 2.1,-0.4 4.8,-2.2 4.1,-3.5 -0.7,-1.3 -1.7,-0.9 -3.8,-1.4 -2.1,-0.5 -5.2,-2.4 -6,-3.7 -0.9,-1.3 -1.7,-4 -1.7,-4 z"
       id="path1673" />
    <path
       style="fill:#999999"
       d="m 19.4,120.4 c 0,0 -8.5,-1.5 -12,-8.3 C 4,105.3 5.4,99.8 4.5,98.2 3.6,96.6 1.4,97 0.9,98.8 c -0.5,1.8 -1.2,13.5 4.9,19.8 6.3,6.3 13.8,7.8 13.8,7.8 0,0 1.8,6.3 5.5,8 3.7,1.7 5.1,0.5 5.1,0.5 0,0 -0.9,2 -0.2,3.1 0.7,1 8.4,3.1 9.5,4 1.1,1 2.1,3.8 4.9,2.8 2.8,-1 3.7,-2.1 3,-3.4 -0.7,-1.3 -2.6,-1.8 -4,-1.9 -1.4,-0.1 -6.5,-2.5 -6.5,-2.5 0,0 2.2,-2.1 2.7,-3.7 0.5,-1.6 0.3,-2.7 0.3,-2.7 l 6.9,-2.6 c 0,0 1.2,5.4 1.5,9.2 0.3,3.8 0.5,5.6 0.9,7.4 0.4,1.9 0.2,4.3 3.3,4 3.1,-0.3 4.3,-1.1 3.9,-2.3 -0.4,-1.2 -2.4,-2.4 -2.8,-4.6 -0.4,-2.1 0.1,-12.9 0.4,-14 0.2,-1.1 2.5,-7.1 2.5,-7.1 l 2.5,-0.5 c 0,0 1.1,7.8 1.5,11.3 0.4,3.5 0.7,9.2 0.7,10.4 0,1.2 0.7,2.6 2.2,2.7 1.5,0.2 4.6,-0.8 4.5,-2.1 -0.1,-1.3 -2.3,-3.1 -2.5,-4.6 -0.2,-1.5 -0.5,-14.8 0.9,-19.4 1.4,-4.6 2.4,-7.1 2.4,-7.1 L 60,91.5 c 0,0 -3.5,0.8 -7.9,0.7 -4.5,-0.1 -17.8,-0.1 -25.4,9.5 -7.8,9.7 -7.3,18.7 -7.3,18.7 z"
       id="path1675" />
    <path
       style="fill:#e5e5e5"
       d="m 56.3,120.7 c 0,0 2.5,-2.1 2.7,-4.9 0.2,-2.8 1.8,-5.1 3.2,-6 1.4,-1 6.2,-3.4 6.2,-3.4 0,0 1.3,4.3 -0.5,7.3 -1.8,3 -4.8,5.4 -7.3,6.2 -2.5,0.8 -4.3,0.8 -4.3,0.8 z"
       id="path1677" />
    <path
       style="opacity:0.2"
       d="m 46.8,128 c 0,0 -0.7,-3.1 -1,-5.4 -0.2,-2.4 -0.9,-6 -0.9,-6 0,0 -0.9,2.1 -2.8,3 -1.9,0.9 -3.7,1.3 -5.3,0.6 -1.6,-0.7 -5.4,-2.7 -5.4,-2.7 0,0 5.7,3.8 6.8,6.9 1.2,3.1 1.6,6.3 1.6,6.3 z"
       id="path1679" />
    <path
       style="fill:#999999"
       d="m 58.2,96 c 0,0 -0.5,2.8 0.7,5.7 1.3,2.9 4,5.2 5.4,6.9 1.3,1.6 2.8,3.2 5.8,2.9 3,-0.4 3.2,-1.9 4.1,-3.1 0.9,-1.2 4.1,-5.7 4.6,-8.7 0.5,-3.1 0.1,-5.3 0.1,-5.3 0,0 2.1,-7.3 0.5,-8.2 -1.6,-0.9 -3.2,2.7 -5.1,2.9 -2,0.2 -2.9,-0.3 -5.1,-0.2 -2.2,0.1 -5.7,1 -5.7,1 0,0 -3.3,-3.4 -5.3,-2.7 -2.4,0.9 0,8.8 0,8.8 z"
       id="path1681" />
    <path
       style="fill:#2d3134"
       d="m 69.7,110.5 c -0.6,0 -1.7,-1 -1.6,-1.5 0.1,-0.5 2.9,-0.5 3.1,0.1 0.2,0.5 -0.9,1.4 -1.5,1.4 z"
       id="path1683" />
    <path
       style="fill:#2d3134"
       d="m 72,104.4 c 0,0 0.3,-1.8 1.8,-2.4 1.5,-0.6 2.1,-0.3 2.1,-0.3 0,0 -0.3,1.7 -1.5,2.3 -1.1,0.6 -2.4,0.4 -2.4,0.4 z"
       id="path1685" />
    <path
       style="fill:#2d3134"
       d="m 67.3,104.4 c 0,0 -0.6,-1.8 -2,-2.3 -1.4,-0.5 -2.4,0 -2.4,0 0,0 0.2,1.5 1.4,2 1.2,0.5 3,0.3 3,0.3 z"
       id="path1687" />
    <path
       style="opacity:0.2"
       d="m 72.9,93.3 c 0,0 4.8,-7.5 6.4,-6.9 1.2,0.4 -0.4,8 -0.4,8 0,0 -1.3,-1.2 -3,-1.5 -1.6,-0.3 -3,0.4 -3,0.4 z"
       id="path1689" />
    <path
       style="opacity:0.2"
       d="m 65.2,93.2 c 0,0 -5.3,-6.3 -6.9,-5.8 -2.2,0.7 -0.1,8.6 -0.1,8.6 0,0 1.6,-2.1 2.9,-2.6 1.3,-0.5 4.1,-0.2 4.1,-0.2 z"
       id="path1691" />
  </g>
  <path
     style="fill:#000000;fill-opacity:1;fill-rule:nonzero;stroke:none;stroke-width:0.264583"
     d="m 60.517681,12.495445 c 1.369944,-1.099434 2.314354,-1.852844 3.615482,-3.0336336 1.187648,-1.083048 2.349222,-2.193417 3.521197,-3.293295 1.053255,-0.984539 2.083043,-1.99454 3.16272,-2.950446 0.6642,-0.571128 1.328058,-1.144261 2.072262,-1.610896 0.50837,-0.358843 8e-4,-1.07777501 -0.50748,-0.71893201 l 7e-5,-3e-6 C 71.614744,1.3707104 70.928915,1.9615854 70.243464,2.5507724 c -1.089446,0.963285 -2.127769,1.982026 -3.189957,2.974862 -1.169424,1.097309 -2.328209,2.205368 -3.513225,3.285934 -1.28751,1.168257 -2.217767,1.9097416 -3.573314,2.9975526"
     id="path5" />
  <path
     style="fill:#ff4400;fill-opacity:1;fill-rule:nonzero;stroke:none;stroke-width:0.264583"
     d="m 59.966968,11.809121 c -1.18064,0.954481 -2.853775,2.165547 -4.132347,2.981578 -0.810652,0.481798 -1.616001,0.986795 -2.474341,1.38212 -0.134646,0.06201 -0.273402,0.114686 -0.410101,0.172029 -0.557184,0.21739 -1.14372,0.347739 -1.743531,0.340691 -0.09409,-0.0011 -0.187867,-0.01117 -0.281799,-0.01677 -0.38785,-0.03646 -0.761365,-0.163303 -1.060165,-0.41969 -0.05289,-0.04538 -0.0994,-0.09772 -0.149092,-0.146576 -0.30707,-0.340927 -0.392123,-0.666092 -0.385842,-1.114989 0.04254,-0.463312 0.338629,-0.833025 0.643972,-1.16237 0.460335,-0.412036 1.01932,-0.678836 1.582317,-0.918837 0.551444,-0.223801 1.142891,-0.302146 1.73192,-0.347223 0.258344,-0.01913 0.517411,-0.02096 0.776287,-0.02373 0.622216,-0.0069 0.612537,-0.886794 -0.0097,-0.879949 v 0 c -0.278496,0.0031 -0.557181,0.0055 -0.835086,0.02635 -0.684549,0.05434 -1.370047,0.151395 -2.0095,0.415457 -0.677762,0.290748 -1.346319,0.620752 -1.886236,1.134697 -0.07613,0.0844 -0.156308,0.165307 -0.228375,0.253196 -0.355237,0.433218 -0.615667,0.941012 -0.645604,1.507768 0.0019,0.104566 -0.003,0.209484 0.0058,0.313693 0.04604,0.543541 0.279974,1.041082 0.654619,1.434642 0.07946,0.07355 0.154321,0.152402 0.238371,0.22066 0.4368,0.354727 0.973611,0.536173 1.529199,0.585647 0.119578,0.0058 0.239016,0.01685 0.358735,0.01752 0.707012,0.004 1.399403,-0.152445 2.055686,-0.409379 0.153752,-0.06519 0.309639,-0.12555 0.461253,-0.195561 0.885894,-0.409086 1.717987,-0.929344 2.554634,-1.427634 1.305198,-0.833284 3.004335,-2.062548 4.209639,-3.037016"
     id="path1" />
  <path
     style="fill:#ff4400;fill-opacity:1;fill-rule:nonzero;stroke:none;stroke-width:0.264583"
     id="path2"
     d="m 43.408378,14.030747 c 0.0042,-0.392123 -0.008,-0.784053 -0.02125,-1.175899 -0.03148,-0.635886 -0.09456,-1.269875 -0.167344,-1.902219 -0.04799,-0.416298 -0.101349,-0.831929 -0.154435,-1.2475946 -0.07883,-0.617241 -0.951743,-0.505756 -0.87291,0.111485 v 0 c 0.05263,0.4120856 0.105558,0.8241316 0.15313,1.2368446 0.07023,0.608756 0.130961,1.219113 0.162062,1.831245 0.01294,0.381931 0.025,0.763934 0.02074,1.146138 0,0.622255 0.879999,0.622255 0.879999,0 z" />
  <path
     style="fill:#ff4400;fill-opacity:1;fill-rule:nonzero;stroke:none;stroke-width:0.264583"
     id="path3"
     d="m 42.513411,9.9933434 c 0.203499,0.1547066 0.409096,0.3067886 0.60642,0.4693546 0.235545,0.189907 0.462259,0.390276 0.693544,0.585234 0.186619,0.159986 0.357608,0.336696 0.53367,0.5079 0.168564,0.169592 0.342392,0.333398 0.517245,0.496432 0.135085,0.124304 0.269764,0.248981 0.404574,0.373597 0.108196,0.111466 0.219403,0.219893 0.329901,0.329044 0.442836,0.437144 1.061053,-0.189119 0.618218,-0.626266 v 0 C 46.09956,12.012796 45.982205,11.896922 45.866198,11.779645 45.732229,11.65581 45.598329,11.531979 45.464142,11.40839 45.293703,11.249722 45.124476,11.090101 44.960386,10.92479 44.769318,10.739174 44.583654,10.547645 44.380422,10.374986 44.146253,10.177741 43.916878,9.9748224 43.678395,9.7826954 c -0.217109,-0.177893 -0.441658,-0.346462 -0.666437,-0.514509 -0.512763,-0.352526 -1.011309,0.372634 -0.498547,0.725157 z" />
  <path
     style="fill:#ff4400;fill-opacity:1;fill-rule:nonzero;stroke:none;stroke-width:0.264583"
     id="path4"
     d="m 46.364826,12.319139 c -0.0021,0.01373 -0.01521,0.05166 -0.0061,0.04118 0.0136,-0.01564 0.01339,-0.03922 0.02109,-0.05844 0.0097,-0.02405 0.02008,-0.04783 0.03103,-0.07132 0.06397,-0.137202 0.134176,-0.271362 0.204904,-0.405146 0.213246,-0.421849 0.519052,-0.783259 0.829223,-1.135845 0.39929,-0.426522 0.83694,-0.8133746 1.297702,-1.1716726 0.477149,-0.357455 1.013653,-0.619014 1.558152,-0.855636 0.362511,-0.142246 0.73411,-0.269232 1.116444,-0.347184 0.211608,-0.04314 0.319847,-0.05055 0.533781,-0.07465 0.466315,-0.02929 0.932376,-5.29e-4 1.389409,0.09453 0.229269,0.06336 0.116763,0.02941 0.337621,0.101473 0.592122,0.191288 0.862645,-0.646099 0.270521,-0.837388 v 0 c -0.278887,-0.08937 -0.134959,-0.04693 -0.432091,-0.126296 -0.548629,-0.11026 -1.107062,-0.148833 -1.666124,-0.106545 -0.269885,0.03164 -0.370824,0.03758 -0.639714,0.09347 -0.432009,0.08979 -0.852065,0.233394 -1.261431,0.395875 -0.611507,0.2672 -1.213011,0.563793 -1.747459,0.968206 -0.503544,0.393091 -0.983043,0.816134 -1.417947,1.2850436 -0.355269,0.404958 -0.701548,0.822494 -0.946414,1.306002 -0.132075,0.250812 -0.274733,0.502973 -0.34376,0.779894 -0.088,0.616 0.783156,0.740452 0.871156,0.124452 z" />
</svg>
