<?xml version="1.0" encoding="UTF-8" standalone="no"?>
<svg
   id="svg1880"
   version="1.1"
   viewBox="0 0 95.46991 33.103355"
   height="33.103355mm"
   width="95.46991mm"
   sodipodi:docname="10 jan li kute e waso..svg"
   inkscape:version="1.3 (0e150ed6c4, 2023-07-21)"
   xmlns:inkscape="http://www.inkscape.org/namespaces/inkscape"
   xmlns:sodipodi="http://sodipodi.sourceforge.net/DTD/sodipodi-0.dtd"
   xmlns="http://www.w3.org/2000/svg"
   xmlns:svg="http://www.w3.org/2000/svg"
   xmlns:rdf="http://www.w3.org/1999/02/22-rdf-syntax-ns#"
   xmlns:cc="http://creativecommons.org/ns#"
   xmlns:dc="http://purl.org/dc/elements/1.1/">
  <sodipodi:namedview
     id="namedview1"
     pagecolor="#ffffff"
     bordercolor="#000000"
     borderopacity="0.25"
     inkscape:showpageshadow="2"
     inkscape:pageopacity="0.0"
     inkscape:pagecheckerboard="0"
     inkscape:deskcolor="#d1d1d1"
     inkscape:document-units="mm"
     inkscape:zoom="2.8284271"
     inkscape:cx="204.35386"
     inkscape:cy="54.977553"
     inkscape:window-width="1920"
     inkscape:window-height="1051"
     inkscape:window-x="-9"
     inkscape:window-y="-9"
     inkscape:window-maximized="1"
     inkscape:current-layer="svg1880" />
  <defs
     id="defs1874">
    <inkscape:path-effect
       effect="fillet_chamfer"
       id="path-effect11"
       is_visible="true"
       lpeversion="1"
       nodesatellites_param="F,0,1,1,0,0.43755088,0,1 @ F,0,0,1,0,0,0,1 @ F,0,0,1,0,0,0,1 @ F,0,0,1,0,0,0,1 @ F,0,0,1,0,0,0,1 @ F,0,0,1,0,0,0,1 @ F,0,0,1,0,0,0,1 @ F,0,0,1,0,0,0,1 @ F,0,0,1,0,0,0,1 @ F,0,0,1,0,0,0,1 @ F,0,0,1,0,0,0,1 @ F,0,0,1,0,0,0,1 @ F,0,1,1,0,0.43755088,0,1"
       radius="0"
       unit="px"
       method="auto"
       mode="F"
       chamfer_steps="1"
       flexible="false"
       use_knot_distance="true"
       apply_no_radius="true"
       apply_with_radius="true"
       only_selected="false"
       hide_knots="false" />
    <inkscape:path-effect
       effect="fillet_chamfer"
       id="path-effect10"
       is_visible="true"
       lpeversion="1"
       nodesatellites_param="F,0,0,1,0,0,0,1 @ F,0,0,1,0,0,0,1 @ F,0,0,1,0,0,0,1 @ F,0,0,1,0,0,0,1 @ F,0,0,1,0,0,0,1 @ F,0,0,1,0,0,0,1 @ F,0,0,1,0,0,0,1 @ F,0,0,1,0,0,0,1 @ F,0,0,1,0,0,0,1 @ F,0,0,1,0,0,0,1 @ F,0,0,1,0,0,0,1 @ F,0,0,1,0,0,0,1 @ F,0,0,1,0,0,0,1"
       radius="0"
       unit="px"
       method="auto"
       mode="F"
       chamfer_steps="1"
       flexible="false"
       use_knot_distance="true"
       apply_no_radius="true"
       apply_with_radius="true"
       only_selected="false"
       hide_knots="false" />
  </defs>
  <metadata
     id="metadata1877">
    <rdf:RDF>
      <cc:Work
         rdf:about="">
        <dc:format>image/svg+xml</dc:format>
        <dc:type
           rdf:resource="http://purl.org/dc/dcmitype/StillImage" />
        <dc:title />
      </cc:Work>
    </rdf:RDF>
  </metadata>
  <g
     transform="translate(-58.869499,-97.04354)"
     id="layer1">
    <g
       transform="matrix(0.26458333,0,0,0.26458333,54.18092,85.532919)"
       id="g3018">
      <path
         style="opacity:0.2"
         d="m 21.1,135.6 c 8.8,4.6 19.7,1.3 24.8,-1.3 5.1,-2.6 8.3,-0.3 9.5,1.9 1.2,2.2 3.3,10 9.1,12.3 5.8,2.3 12.3,2.3 19.7,-5 7.5,-7.3 14.5,-5.5 18.6,-3.5 4.1,2 8,8.2 9.7,9.1 1.8,0.9 1.1,-2.8 3.4,-1.8 2.4,1.1 8.5,5.1 12,2.7 3.4,-2.5 -4.7,-7.5 -9.8,-9.8 -24.6,-11 -9,-14.8 -20.3,-22.6 -11.3,-7.8 -20.3,2.7 -28.3,-2.6 -8,-5.3 -17,-3.4 -24.7,1.4 -7.7,4.8 -36.9,12.3 -23.7,19.2 z"
         id="path2966" />
      <path
         style="fill:#262626"
         d="m 54.6,129 c -3.6,2.1 -12.3,6.9 -16.2,7.3 -4.8,0.5 -7.4,-1.6 -8.3,-5.1 -1.4,-5.2 18.2,-13.5 18.2,-13.5 z"
         id="path2968" />
      <path
         style="fill:#ffffff"
         d="m 52.8,127.7 c -4.5,2 -12.3,7.5 -16.9,6 -4.5,-1.6 -4.6,-4.4 -3.4,-6.7 2.4,-4.6 17.4,-7.2 17.4,-7.2 z"
         id="path2970" />
      <path
         style="fill:#262626"
         d="m 47,121.8 c 1.7,-0.2 1.3,2.9 0.4,3.9 -0.9,1 -7.6,4.5 -11.5,6.1 -3.9,1.6 -10.3,3 -13.5,2.5 -3.2,-0.5 -3.4,-3.7 -1.9,-4.9 1.6,-1.2 6.4,-2.4 9.2,-5.7 2,-2.4 4.6,-6.5 4.6,-6.5 z"
         id="path2972" />
      <path
         style="fill:#ffffff"
         d="m 45.1,123.1 c -2.1,1 -7.6,4.6 -12.4,6.1 -4.8,1.5 -9.6,2.2 -11.6,0.9 -1.3,-0.9 3.8,-1.7 6.5,-4 3.8,-3.1 5.1,-6.6 5.1,-6.6 z"
         id="path2974" />
      <path
         style="fill:#06547a"
         d="m 58.5,111.1 c -3,-0.3 -8.1,1.1 -9.9,6.2 -1.8,5.1 -1.2,9.7 1,10.6 2.2,0.9 3.5,0.1 4.4,1.5 0.9,1.4 3.3,7 4.5,10.1 1.2,3.1 3.2,6.4 5.5,8 2.3,1.6 6.2,2.7 10.2,0.4 4,-2.4 8,-6.5 11.6,-8.8 4.7,-3 14.9,-12.6 17.2,-16.3 2.3,-3.7 2.1,-6.2 2.1,-6.2 L 80.7,105.8 c 0,0 -9.5,9.1 -9.7,10.2 -0.2,1.1 2.2,3.3 1.9,4.6 -0.3,1.3 -0.6,2 -0.6,2 0,0 -7.7,-10.9 -13.8,-11.5 z"
         id="path2976" />
      <path
         style="fill:#06547a"
         d="m 80.3,108.2 -9,8.1 c 0,0 -2.3,-1.2 -3.7,-3 -1.6,-2.1 -5.7,-12.6 -5.7,-12.6 0,0 -3.6,7 -4.7,9.8 -1.1,2.8 -7.6,8.8 -7.8,10.5 -0.2,1.7 -0.1,3.4 -1.9,3.6 -1.8,0.2 -14.1,-0.2 -16.6,-1.8 -1.9,-1.2 -0.7,-5.1 2.5,-7.1 2,-1.3 2.8,-3.3 3.8,-6.2 1,-2.8 3.7,-4.9 5.5,-8.6 1.8,-3.7 7.3,-20.2 9.3,-24.4 2,-4 6.5,-9.2 13,-4.9 6.8,4.5 7.9,5.7 11.6,10.2 3.5,4.2 7.3,9.2 7.3,9.2 z"
         id="path2978" />
      <path
         style="opacity:0.2"
         d="m 80.3,108.2 -9,8.1 c 0,0 -2.3,-1.2 -3.7,-3 -1.6,-2.1 -5.7,-12.6 -5.7,-12.6 0,0 -3.6,7 -4.7,9.8 -1.1,2.8 -7.6,8.8 -7.8,10.5 -0.2,1.7 -0.1,3.4 -1.9,3.6 -1.8,0.2 -14.1,-0.2 -16.6,-1.8 -1.9,-1.2 -0.7,-5.1 2.5,-7.1 2,-1.3 2.8,-3.3 3.8,-6.2 1,-2.8 3.7,-4.9 5.5,-8.6 1.8,-3.7 7.3,-20.2 9.3,-24.4 2,-4 6.5,-9.2 13,-4.9 6.8,4.5 7.9,5.7 11.6,10.2 3.5,4.2 7.3,9.2 7.3,9.2 z"
         id="path2980" />
      <path
         style="fill:#fbd7c7"
         d="m 87.9,59.2 c -5,0.1 -13.4,-1.6 -17.7,-2.6 -4.3,-1 -7.6,-1.7 -9.5,2.6 -1.9,4.3 -6.6,19.9 -7,21.5 -0.4,1.6 -1.9,8.3 -2.1,10.5 -0.1,1.3 0.8,5 1.5,5.7 0.7,0.7 1.4,0 1.5,0.4 0.2,0.3 0.9,3.1 1.7,3.5 0.8,0.3 1.3,-0.4 1.6,-0.2 0.3,0.2 0.8,2.2 2,2.1 1,-0.1 0.8,-0.8 0.8,-0.8 0,0 0.9,1.5 1.8,1.2 1.2,-0.4 -0.1,-3.1 -0.3,-5.6 -0.2,-3.2 0.1,-4.4 0.1,-4.4 0,0 1.1,-0.3 1.3,-1.3 0.2,-1 0.5,-5.5 -0.2,-6.7 -0.7,-1.2 -2.6,-2.9 -2.6,-3.9 0,-1 1.1,-4.6 3.7,-8 2.6,-3.4 3.5,-6.5 3.5,-6.5 0,0 3.8,2.1 9.1,3.8 5.3,1.6 10.5,2.6 10.5,2.6 z"
         id="path2982" />
      <path
         style="fill:#e5e5e5"
         d="m 95.9,60.7 c -3.3,-0.8 -4.1,-1.9 -7.5,-2.2 -3.4,-0.3 -4.2,-0.2 -4.9,0.9 -0.7,1.1 -1.5,5 -1,8.5 0.5,3.5 1.8,5.2 2,7.2 0.2,2 0.2,5 0.9,8.2 0.6,3.2 1.3,4.9 1.3,4.9 0,0 -2,0.9 -3.3,1.6 -1.4,0.7 -2.5,7 -3.9,10.4 -1.4,3.4 -3.5,5.7 0.6,11.2 4.5,5.9 9.7,12.4 16.2,12.9 4,0.3 6.4,0.1 7.6,-1.9 1.3,-2 2.2,-5.3 3.2,-6.4 1,-1.1 12.1,-11.1 13.2,-13.6 1.1,-2.5 0.3,-2.7 1.9,-4.5 1.6,-1.8 3.5,-7.4 2.6,-11.2 -0.9,-3.8 -6.7,-12.4 -10.3,-16.8 -8.1,-9.6 -18.6,-9.2 -18.6,-9.2 z"
         id="path2984" />
      <path
         style="fill:#fbd7c7"
         d="m 108.8,64.6 c 0,0 0.1,1.3 1.5,2.2 1.4,0.9 4.6,3.8 4.7,6.2 0.1,2.4 -6.3,9.7 -11.6,9.3 -5.3,-0.4 -7.5,-7.3 -7.4,-8.6 0.1,-1.3 5.4,-9.6 5.4,-9.6 z"
         id="path2986" />
      <path
         style="fill:#fbd7c7"
         d="m 111.4,60.6 c 0,0 1.6,1 -1,3.9 -2.6,2.8 -3.3,1.9 -3.3,1.9 0,0 -0.7,3.8 -4.5,5.6 -3.8,1.8 -9.9,4.9 -12.3,2.4 -2.2,-2.3 -1.7,-11.4 -1.2,-16.7 0.5,-5.3 4.3,-12.2 10,-13.8 5.2,-1.4 13,0.9 13.9,7.2 0.9,6.3 -1.6,9.5 -1.6,9.5 z"
         id="path2988" />
      <path
         style="fill:#825012"
         d="m 111.4,60.6 c 0,0 0,0 0,0 0,0 2.5,-3.2 1.6,-9.5 -0.9,-6.3 -8.7,-8.6 -13.9,-7.2 -2.5,0.7 -4.6,2.4 -6.2,4.5 0.3,1.2 -0.7,3.6 1.4,4.9 2.4,1.4 5.2,-0.7 8.2,0.8 3,1.5 2,9.3 2,9.3 l 2.2,-0.1 c 0,0 0.6,-2 2.2,-2.6 1.1,-0.5 1.9,-0.4 2.5,-0.1 z"
         id="path2990" />
      <path
         style="fill:#fbd7c7"
         d="m 108.9,96.1 c 0,0 3.6,2.8 6.7,3.1 3.1,0.3 6.2,-0.8 6.2,-0.8 0,0 -1.2,5.9 -1.4,8.8 -0.2,2.9 0,7.5 -1.4,11.4 -1.4,3.9 -5.6,17.2 -5.2,17.9 0.3,0.7 8.8,4.2 10.3,5 1.5,0.8 4.1,2.7 4.2,3.2 0,0.1 0,0.4 -0.5,0.7 1,0.8 2.8,2.1 2.2,2.8 -0.5,0.6 -1.1,0.6 -1.5,0.4 0.1,0.1 1.2,0.9 0.8,1.5 -0.7,0.8 -2.5,-0.1 -3.4,-0.7 0.3,0.3 0.3,0.7 -0.2,1.2 -0.6,0.6 -2.8,-0.3 -4.1,-1.1 -1.3,-0.8 -7.3,-4.1 -7.3,-4.1 0,0 0.7,1.6 0.5,2.8 -0.2,1.2 -1.4,1.3 -1.9,0.8 -0.5,-0.5 -2.2,-3.6 -2.7,-3.9 -0.5,-0.3 -1.3,-1.6 -1.2,-2.3 0.1,-0.7 -0.1,-1.5 -0.7,-2.9 -0.6,-1.4 -0.9,-2 -0.5,-6.5 0.5,-4.5 0.2,-10.7 1.3,-15.3 0.7,-3.2 1.6,-5.2 1.4,-6.2 -0.1,-1 -1.7,-5.8 -1.8,-9.8 -0.1,-3.1 0.2,-6 0.2,-6 z"
         id="path2992" />
      <path
         style="fill:#fbd7c7"
         d="M 127.3,144.3"
         id="path2994" />
    </g>
    <g
       transform="matrix(0.26458333,0,0,0.26458333,83.681962,109.42478)"
       id="g3078">
      <polygon
         style="fill:#baa794"
         points="57.7,7.9 59.3,10.4 55.9,10.5 "
         id="polygon3060" />
      <path
         style="opacity:0.2"
         d="m 33,61.7 c -6.5,4 -7,8.7 1.4,13.3 9.2,5 14.7,3.9 21.8,-0.3 6.3,-3.6 4.9,-8.6 -5.7,-12.8 C 42,58.5 37.6,58.9 33,61.7 Z"
         id="path3062" />
      <polygon
         style="fill:#baa794"
         points="37,70.3 38.7,71.6 38.5,69.7 42.5,68.7 38.1,68.5 36.3,63.8 34.9,64.2 36.6,68.9 34.4,72.1 "
         id="polygon3064" />
      <polygon
         style="fill:#baa794"
         points="45.3,73.5 47.2,74.7 46.8,72.9 51.7,71 46.2,71.3 43.7,64.7 42.1,65.5 44.3,72.1 41.7,75 "
         id="polygon3066" />
      <path
         style="fill:#825012"
         d="m 40.9,24.3 c -5.1,1.3 -10.8,4.8 -12.4,6.3 -1.6,1.5 -9.7,6.5 -9.7,17.4 0,4.1 1.4,10.8 9,15.1 2,1.1 4.1,1.3 5.3,1.4 1,0.1 1.8,0.8 3,0.6 1.9,-0.3 1.9,-0.6 1.9,-0.6 0,0 2.2,2 4.9,1.1 3.5,-1.2 3.5,-5.1 3.5,-5.1 0,0 11.2,-7.3 12.9,-17.1 1.4,-8 -2.5,-15.5 -4.3,-17.3 -1.7,-2 -9,-3.2 -14.1,-1.8 z"
         id="path3068" />
      <path
         style="fill:#762c07"
         d="m 55,6.6 c -3.4,-1.3 -6,-1.3 -9.3,5.1 -3.2,6.2 -3,9.2 -4.7,11 -1.7,1.8 -4.3,2.9 -4.3,2.9 l 4.9,-0.3 0.1,4.9 3.9,-4.1 2.3,5.6 2.8,-4.6 3.3,5.3 0.3,-4.8 3.9,4.1 c 0,0 -2.8,-5.6 -3,-7.1 C 55,23.1 53,16.7 53.9,14.7 54.8,12.7 58,7.8 55,6.6 Z"
         id="path3070" />
      <path
         style="fill:#762c07"
         d="m 24,18.1 c -3.2,-0.3 -2.5,2.7 -2.5,2.7 0,0 -1.5,-1.5 -2.9,0 -1.3,1.5 0.2,3.3 0.2,3.3 0,0 -1.8,-0.6 -2.6,1.4 -1,2.5 1.2,3.4 1.2,3.4 0,0 -2.4,-0.9 -2.6,2.1 -0.1,2 2,3.1 2.4,6.7 0.8,7.9 1.6,10.7 1.6,10.7 0,0 10.7,-4.9 12.9,-9.8 2.2,-4.9 0.7,-6.9 0.7,-6.9 0,0 -2.8,-1.9 -3.3,-4.8 C 28.6,24 27.5,18.4 24,18.1 Z"
         id="path3072" />
      <path
         style="fill:#cc291f"
         d="M 55.3,7.4 C 55,7.4 53,6.1 51.8,6 50.6,5.8 50.6,4.8 51,4.4 51.3,4 52,4.1 52,4.1 c 0,0 -0.4,-0.5 0.2,-1 0.7,-0.5 1.3,-0.1 1.3,-0.1 0,0 -0.1,-0.7 0.5,-1 0.5,-0.2 0.9,0.4 0.9,0.4 0,0 0.1,-1 1.1,-0.4 1,0.6 0.9,5.1 0.9,5.1 L 57.8,8 56.6,9.5 c 0,0 0.5,1.2 -0.2,2.6 -0.8,1.4 -2.3,3.1 -3,2.3 -0.7,-0.8 2.3,-3.7 2.3,-3.7 0,0 -1.2,0 -1.5,-1.2 -0.3,-1.2 1.1,-2.1 1.1,-2.1 z"
         id="path3074" />
      <path
         style="fill:#2d3134"
         d="m 55.8,8.9 c -0.5,0.1 -0.4,1.1 0.1,1 0.6,-0.1 0.4,-1.1 -0.1,-1 z"
         id="path3076" />
    </g>
    <rect
       style="fill:#999999;stroke-width:0.132288"
       x="123.09895"
       y="78.373459"
       transform="rotate(14.016788)"
       width="0.26457658"
       height="4.3655133"
       id="rect3097" />
    <path
       style="clip-rule:evenodd;fill:#2d3134;fill-rule:evenodd;stroke-width:0.132292"
       d="m 102.57124,101.1654 -2.791347,0.48948 v 2.69877 c -0.0926,-0.0794 -0.18521,-0.11906 -0.317497,-0.11906 -0.13229,0 -0.25136,0.0397 -0.39688,0.10583 -0.145517,0.0661 -0.251347,0.15875 -0.343957,0.27781 -0.0926,0.11907 -0.13229,0.25136 -0.13229,0.38365 0.0132,0.11906 0.0529,0.2249 0.14552,0.29104 0.0794,0.0661 0.18521,0.10584 0.317497,0.10584 0.13229,0 0.29105,-0.0265 0.436567,-0.0926 0.14552,-0.0662 0.29104,-0.15875 0.38364,-0.26459 0.0926,-0.11906 0.185207,-0.25135 0.185207,-0.38364 v -1.74626 l 2.23573,-0.37042 v 1.37584 c -0.0926,-0.0794 -0.18521,-0.11906 -0.3175,-0.11906 -0.13229,0 -0.25136,0.0397 -0.39688,0.10583 -0.14551,0.0662 -0.25135,0.15875 -0.34395,0.27781 -0.0926,0.11907 -0.1323,0.25136 -0.1323,0.38365 0.0132,0.11907 0.0529,0.2249 0.14553,0.29104 0.0926,0.0661 0.19843,0.10584 0.33072,0.10584 0.1323,0 0.29105,-0.0265 0.43657,-0.0926 0.14552,-0.0662 0.29104,-0.15875 0.38364,-0.26459 0.0926,-0.11906 0.18522,-0.25135 0.18522,-0.38365 v -3.05595 z m -0.27781,1.09803 -2.23573,0.37042 v -0.29105 l 2.23573,-0.37042 z"
       id="path3107" />
  </g>
  <path
     style="fill:#000000;fill-opacity:1;fill-rule:nonzero;stroke:none;stroke-width:0.264583"
     id="path1"
     d="m 90.50139,18.474365 c -0.262988,0.266857 -0.525471,0.540986 -0.730353,0.856603 -0.05868,0.09039 -0.108577,0.186178 -0.162867,0.279268 -0.04331,0.106199 -0.09899,0.208157 -0.129927,0.318597 -0.101443,0.362159 -0.101959,0.771211 0.02638,1.127454 0.123333,0.342358 0.222552,0.426646 0.439669,0.709359 0.101661,0.09575 0.192236,0.20484 0.304985,0.287239 0.532133,0.38889 1.302139,0.61898 1.948675,0.709811 0.166436,0.02339 0.334952,0.02829 0.502428,0.04243 0.605364,0.01704 1.206444,-0.07243 1.745633,-0.360978 0.119735,-0.06408 0.238959,-0.132379 0.34349,-0.21907 0.112567,-0.09335 0.202073,-0.21145 0.303112,-0.317175 0.06782,-0.116157 0.14731,-0.226242 0.203452,-0.348472 0.14456,-0.31473 0.210145,-0.678954 0.153683,-1.022236 -0.04457,-0.270948 -0.119041,-0.385321 -0.233781,-0.625451 -0.06809,-0.09268 -0.127399,-0.192499 -0.204266,-0.27804 -0.444439,-0.494593 -1.08472,-0.711809 -1.700157,-0.900129 -0.76912,-0.215329 -1.564791,-0.305364 -2.358091,-0.374854 -0.631962,-0.06577 -1.265571,-0.06096 -1.899541,-0.04365 -0.697995,0.02429 -1.396339,0.0344 -2.094675,0.04234 -0.857501,1.2e-5 -1.714164,0.0345 -2.569535,0.09261 -0.870868,0.07058 -1.743144,0.118597 -2.616248,0.149684 -0.797396,0.04367 -1.594741,0.08673 -2.392786,0.11677 -0.594053,0.02248 -1.187378,0.05747 -1.780616,0.09506 -0.527116,0.04982 -1.054375,0.0969 -1.581198,0.149628 -0.569158,0.05949 -1.140804,0.08592 -1.712473,0.105757 -0.486656,0.01562 -0.973542,0.02176 -1.460402,0.02674 -0.23966,0.0024 -0.47933,0.0037 -0.718998,0.0046 -0.622249,0.0023 -0.618945,0.882331 0.0033,0.879994 v 0 c 0.24157,-9e-4 0.483139,-0.0022 0.724701,-0.0046 0.494052,-0.0051 0.988127,-0.01134 1.481971,-0.02723 0.590725,-0.02057 1.181413,-0.04817 1.769544,-0.109603 0.516176,-0.05167 1.032791,-0.09754 1.549194,-0.147013 0.585734,-0.03711 1.171551,-0.07173 1.75809,-0.09392 0.797457,-0.03005 1.594239,-0.07274 2.391032,-0.116706 0.882586,-0.03152 1.764355,-0.07982 2.644687,-0.15116 0.838782,-0.05729 1.678861,-0.0906 2.519741,-0.09063 0.703019,-0.008 1.406046,-0.01819 2.108724,-0.04261 0.600419,-0.01645 1.200356,-0.02248 1.798889,0.04064 0.732832,0.06386 1.468265,0.144511 2.179518,0.340388 0.432758,0.129574 0.924467,0.272261 1.25898,0.595994 0.04176,0.04041 0.07539,0.08845 0.113091,0.132678 0.07212,0.134556 0.171921,0.292717 0.17199,0.452855 8.2e-5,0.197227 -0.07585,0.3937 -0.164743,0.565066 -0.04256,0.05537 -0.07572,0.119452 -0.127672,0.166116 -0.06969,0.06259 -0.151553,0.110736 -0.232685,0.157549 -0.398156,0.229724 -0.852493,0.288901 -1.305624,0.281837 -0.135212,-0.0098 -0.271235,-0.01162 -0.405638,-0.02934 -0.423743,-0.05586 -0.843777,-0.176406 -1.234659,-0.348581 -0.09753,-0.04296 -0.196318,-0.08584 -0.284851,-0.14515 -0.07856,-0.05263 -0.141618,-0.125344 -0.212426,-0.188014 -0.110741,-0.130364 -0.204099,-0.219495 -0.274378,-0.376244 -0.07726,-0.172325 -0.102428,-0.405746 -0.06015,-0.590714 0.01595,-0.06984 0.04929,-0.134533 0.07394,-0.2018 0.03786,-0.06759 0.07201,-0.13739 0.11357,-0.202766 0.176519,-0.277667 0.409271,-0.515037 0.638524,-0.748631 0.440002,-0.44 -0.182253,-1.062254 -0.622252,-0.622254 z" />
  <path
     style="fill:#000000;fill-opacity:1;fill-rule:nonzero;stroke:none;stroke-width:0.264583"
     d="m 68.748377,14.37058 c -0.0155,0.679649 -0.04793,1.972215 -0.08243,2.561787 -0.04625,0.887457 -0.07737,1.776015 -0.02829,2.664294 0.03749,0.917328 0.08362,1.835258 0.19095,2.747526 0.08878,0.763659 0.191039,1.525984 0.241374,2.293545 0.0264,0.408453 0.07187,0.816663 0.06962,1.226224 0,0.622254 0.879999,0.622254 0.879999,0 l -3e-6,10e-7 c 0.0032,-0.428547 -0.04389,-0.855606 -0.07145,-1.282933 -0.05103,-0.78259 -0.154929,-1.559861 -0.24543,-2.338451 -0.104664,-0.890441 -0.149278,-1.786438 -0.185796,-2.681807 -0.04804,-0.861051 -0.01706,-1.722327 0.02783,-2.582564 0.03486,-0.595852 0.06766,-1.900846 0.08329,-2.584289 0.0055,-0.241391 -0.186284,-0.442364 -0.427849,-0.448873 l -0.0049,-1.32e-4 c -0.241565,-0.0065 -0.441406,0.184077 -0.446915,0.425672 z"
     id="path9"
     sodipodi:nodetypes="ccccccsscccccc"
     inkscape:path-effect="#path-effect11"
     inkscape:original-d="m 68.7579,13.933123 c 0,0 -0.04397,2.179366 -0.09195,2.999244 -0.04625,0.887457 -0.07737,1.776015 -0.02829,2.664294 0.03749,0.917328 0.08362,1.835258 0.19095,2.747526 0.08878,0.763659 0.191039,1.525984 0.241374,2.293545 0.0264,0.408453 0.07187,0.816663 0.06962,1.226224 0,0.622254 0.879999,0.622254 0.879999,0 l -3e-6,10e-7 c 0.0032,-0.428547 -0.04389,-0.855606 -0.07145,-1.282933 -0.05103,-0.78259 -0.154929,-1.559861 -0.24543,-2.338451 -0.104664,-0.890441 -0.149278,-1.786438 -0.185796,-2.681807 -0.04804,-0.861051 -0.01706,-1.722327 0.02783,-2.582564 0.0484,-0.82725 0.09283,-3.021377 0.09283,-3.021377 z"
     transform="translate(2.2450638,-6.4751343)" />
  <path
     style="fill:#000000;fill-opacity:1;fill-rule:nonzero;stroke:none;stroke-width:0.264583"
     d="m 68.604633,19.096156 c -0.675691,-0.01712 -1.351575,-0.02392 -2.027448,-0.02844 -0.715172,-0.0052 -1.431687,-0.03169 -2.143268,-0.105013 -1.143091,-0.164645 -2.258508,-0.475295 -3.373438,-0.76916 -0.64416,-0.179848 -1.288239,-0.36477 -1.914561,-0.600718 -0.24568,-0.09255 -0.486704,-0.194423 -0.729214,-0.294759 -0.38666,-0.186494 -0.806754,-0.354399 -1.114313,-0.666112 -0.04082,-0.04137 -0.0749,-0.08888 -0.112358,-0.133329 -0.117638,-0.175366 -0.238711,-0.364453 -0.278999,-0.575998 -0.0225,-0.118152 -0.0067,-0.206703 0.0021,-0.327525 0.04507,-0.340114 0.154981,-0.670343 0.412969,-0.909362 0.04403,-0.04079 0.09619,-0.07184 0.144281,-0.107754 0.142165,-0.0898 0.188628,-0.130676 0.347961,-0.18619 0.294626,-0.102656 0.620861,-0.125408 0.92943,-0.142547 0.468046,-0.01344 0.928579,0.06815 1.37861,0.188931 0.306506,0.09311 0.601677,0.214685 0.892247,0.348234 0.565445,0.259752 0.932791,-0.539906 0.367346,-0.799661 v 0 c -0.336202,-0.154372 -0.678544,-0.293675 -1.033764,-0.399106 -0.541486,-0.142481 -1.095139,-0.238083 -1.657592,-0.216792 -0.651194,0.04196 -1.239367,0.123613 -1.779284,0.524251 -0.08652,0.0735 -0.179514,0.139983 -0.259554,0.220485 -0.386685,0.388908 -0.562809,0.91095 -0.621963,1.444805 -0.0061,0.29125 -0.02628,0.349938 0.03865,0.62915 0.07644,0.328694 0.260888,0.62343 0.457818,0.891458 0.06558,0.07227 0.126661,0.148881 0.196727,0.216807 0.382231,0.370552 0.877189,0.593016 1.353363,0.813456 0.262765,0.108625 0.501268,0.209558 0.768324,0.309854 0.650393,0.244266 1.318646,0.43715 1.987477,0.623361 1.159183,0.305517 2.31926,0.627697 3.508606,0.793697 0.73943,0.07443 1.48339,0.105309 2.226487,0.109516 0.669937,0.0045 1.362131,0.0149 2.033121,0.02072"
     id="path2"
     sodipodi:nodetypes="ccccscscscscscccsscccscscscscccc" />
  <path
     style="fill:#000000;fill-opacity:1;fill-rule:nonzero;stroke:none;stroke-width:0.264583"
     id="path3"
     d="m 63.41973,22.636804 c 0.0526,-0.293243 0.08722,-0.589727 0.127874,-0.884883 0.0513,-0.383874 0.141624,-0.759809 0.232303,-1.135722 0.06385,-0.219749 0.131366,-0.438406 0.196596,-0.657746 0.0289,-0.105103 0.06312,-0.209378 0.101685,-0.311441 0.214953,-0.583948 -0.610874,-0.887939 -0.825827,-0.30399 v 0 c -0.04359,0.120131 -0.08538,0.241514 -0.119372,0.364664 -0.06955,0.234043 -0.142391,0.467122 -0.208546,0.702157 -0.09754,0.404371 -0.193297,0.809128 -0.248608,1.221997 -0.02852,0.207049 -0.05587,0.414276 -0.0846,0.621292 -0.01261,0.09088 -0.03083,0.180948 -0.04235,0.271973 -0.0047,0.03706 -0.0061,0.07447 -0.0092,0.111699 0,0.622255 0.88,0.622255 0.88,0 z" />
  <path
     style="fill:#000000;fill-opacity:1;fill-rule:nonzero;stroke:none;stroke-width:0.264583"
     id="path4"
     d="m 60.111567,22.533767 c 0.0048,-0.0013 0.01894,-0.0016 0.01452,-0.0039 -0.01861,-0.01 -0.04007,-0.01339 -0.05998,-0.02043 -0.06996,-0.02477 -0.198928,-0.07075 -0.261606,-0.100735 -0.08182,-0.03914 -0.190465,-0.112813 -0.264491,-0.160419 -0.178346,-0.169363 -0.392426,-0.402609 -0.484579,-0.633744 -0.01881,-0.04718 -0.02866,-0.09745 -0.04299,-0.146182 -0.08882,-0.411014 -0.149683,-0.830638 -0.169052,-1.250987 -0.03099,-0.621482 -0.909894,-0.577659 -0.878908,0.04382 v 0 c 0.02643,0.500856 0.093,1.00208 0.214307,1.488985 0.03375,0.09349 0.06119,0.189503 0.101241,0.280472 0.11561,0.262583 0.365445,0.581559 0.571922,0.778092 0.06848,0.06518 0.144598,0.121853 0.216898,0.182779 0.06477,0.04063 0.127977,0.08385 0.1943,0.121883 0.211546,0.121312 0.473214,0.23463 0.714085,0.283784 0.04421,0.009 0.08956,0.01109 0.134334,0.01662 0.622254,0 0.622254,-0.880001 0,-0.880001 z" />
  <path
     style="fill:#000000;fill-opacity:1;fill-rule:nonzero;stroke:none;stroke-width:0.264583"
     id="path5"
     d="m 57.889998,19.852874 c -0.269022,0.137435 -0.56653,0.20915 -0.857361,0.285065 -0.469149,0.117229 -0.952084,0.170635 -1.434294,0.19364 -0.30911,0.01386 -0.621016,0.0039 -0.922556,-0.06998 -0.606227,-0.140317 -0.804664,0.717018 -0.198437,0.857335 v 0 c 0.382399,0.08548 0.773094,0.114199 1.16465,0.09156 0.542813,-0.02787 1.086182,-0.08726 1.614033,-0.221385 0.383939,-0.101248 0.777973,-0.199019 1.122101,-0.404032 0.517747,-0.345165 0.02961,-1.07737 -0.488136,-0.732205 z" />
  <path
     style="fill:#ff4400;fill-opacity:1;fill-rule:nonzero;stroke:none;stroke-width:0.264583"
     id="path8"
     d="m 73.840877,12.538287 c -0.20083,0.216353 -0.366993,0.464345 -0.498227,0.728594 -0.03736,0.07522 -0.0698,0.152783 -0.104695,0.229175 -0.103386,0.263102 -0.17838,0.535892 -0.23739,0.812027 -0.01855,0.08678 -0.038,0.173532 -0.05034,0.261407 -0.03365,0.239777 -0.02672,0.31312 -0.02845,0.549668 0.03083,0.364442 0.121925,0.71924 0.330237,1.024733 0.131328,0.192596 0.209068,0.250862 0.375388,0.410704 0.280551,0.236624 0.607015,0.413038 0.958747,0.518988 0.236812,0.07133 0.337928,0.07983 0.57813,0.118685 0.339381,0.04071 0.681635,0.05215 1.017061,-0.02416 0.191532,-0.04358 0.286824,-0.08539 0.468297,-0.152653 0.330869,-0.140829 0.640397,-0.325815 0.931058,-0.536459 0.115324,-0.08592 0.06134,-0.04639 0.161687,-0.118941 0.504081,-0.364832 -0.01188,-1.077711 -0.515951,-0.712879 v 0 c -0.107844,0.07813 -0.05304,0.03787 -0.164357,0.120883 -0.225224,0.165789 -0.467293,0.308598 -0.722307,0.423757 -0.15231,0.05846 -0.305173,0.120107 -0.468193,0.142279 -0.189672,0.0258 -0.381474,0.0045 -0.570791,-0.01117 -0.15435,-0.02328 -0.268211,-0.03528 -0.418317,-0.07795 -0.237159,-0.06742 -0.460835,-0.177654 -0.653047,-0.33223 -0.110607,-0.09966 -0.228423,-0.200478 -0.299522,-0.334733 -0.07483,-0.141294 -0.102849,-0.301661 -0.128122,-0.457408 -7.93e-4,-0.142455 -0.0065,-0.243706 0.01278,-0.385802 0.01037,-0.07661 0.02738,-0.152194 0.04324,-0.227858 0.04609,-0.219909 0.104256,-0.437307 0.181983,-0.648297 0.0263,-0.05895 0.05083,-0.118723 0.07891,-0.176846 0.09081,-0.187973 0.20602,-0.36489 0.344437,-0.521258 0.44,-0.44 -0.182253,-1.062254 -0.622255,-0.622254 z" />
  <path
     style="fill:#000000;fill-opacity:1;fill-rule:nonzero;stroke:none;stroke-width:0.264583"
     id="path6"
     d="m 71.294037,10.133516 c 0.643972,0.658122 1.269114,1.334166 1.895467,2.008972 0.98548,1.065598 1.993747,2.110438 3.026333,3.130459 0.132358,0.128506 0.264126,0.257623 0.397074,0.385518 0.275746,0.265263 0.416832,0.40006 0.70054,0.650808 0.289954,0.256269 0.590394,0.498539 0.893754,0.738546 0.366025,0.297421 0.737391,0.587962 1.109877,0.877163 0.334613,0.263381 0.687512,0.502079 1.032642,0.751268 0.244163,0.196583 0.514387,0.354888 0.781357,0.517434 0.531506,0.323576 0.989111,-0.428087 0.457605,-0.751663 v 0 C 81.34134,18.291456 81.090322,18.146015 80.864852,17.962778 80.527977,17.71956 80.183497,17.486621 79.856692,17.229839 79.486243,16.942332 79.117076,16.653284 78.75307,16.357578 78.464833,16.129731 78.179279,15.899839 77.903718,15.656597 77.628241,15.413431 77.49504,15.285958 77.225892,15.027073 77.094751,14.900935 76.96478,14.77359 76.834224,14.646849 75.810543,13.635936 74.811408,12.599974 73.834482,11.543821 73.208684,10.869612 72.584304,10.193944 71.940666,9.5366294 71.518602,9.0793944 70.871974,9.6762814 71.294037,10.133516 Z" />
  <path
     style="fill:#000000;fill-opacity:1;fill-rule:nonzero;stroke:none;stroke-width:0.264583"
     id="path7"
     d="m 93.887376,22.085567 c -0.0067,-0.231929 -0.07001,-0.463958 -0.157501,-0.678225 -0.03194,-0.07823 -0.06159,-0.158544 -0.106984,-0.229819 -0.06288,-0.09874 -0.143875,-0.184712 -0.21581,-0.277069 C 93.13347,20.68504 93.06167,20.593329 92.715518,20.475405 92.184082,20.29436 91.545237,20.297146 90.994872,20.36693 c -0.244739,0.03103 -0.485701,0.08682 -0.728551,0.13023 -1.19457,0.238413 -2.346368,0.635509 -3.481721,1.068937 -0.430485,0.173985 -0.225303,0.08841 -0.616,0.255619 -0.57199,0.245002 -0.225507,1.05392 0.346485,0.808919 v 0 c 0.368845,-0.158128 0.174524,-0.07694 0.58343,-0.24243 1.084815,-0.414322 2.18467,-0.795917 3.325839,-1.02535 0.210484,-0.03935 0.419282,-0.08914 0.631457,-0.118039 0.387133,-0.05272 0.911677,-0.07367 1.295612,0.03173 0.18238,0.05007 0.23749,0.09841 0.383913,0.192373 0.03136,0.02971 0.0688,0.0541 0.09408,0.08912 0.05361,0.07428 0.09591,0.211267 0.123706,0.294608 0.02529,0.07587 0.05444,0.152003 0.05426,0.232916 0,0.622255 0.879998,0.622255 0.879998,0 z" />
  <path
     style="fill:#000000;fill-opacity:1;fill-rule:nonzero;stroke:none;stroke-width:0.264583"
     id="path10"
     d="m 68.431769,19.968996 c 0.02666,0 0.05332,0 0.07999,0 0.04843,0 0.09687,0 0.145303,0 0.09578,-1.24e-4 0.191501,0.0043 0.287245,0.0067 0.171016,0.004 0.34208,0.0053 0.513136,0.0064 0.161433,1.52e-4 0.32286,-0.0011 0.484293,-0.0018 0.167727,-6.88e-4 0.335457,-8.99e-4 0.503185,-0.0011 0.158985,3.17e-4 0.317942,-0.0034 0.476901,-0.0059 0.145552,-0.0021 0.291123,-0.0028 0.436689,-0.0034 0.137449,-7.14e-4 0.274894,8.73e-4 0.412335,0.0021 0.0696,5.82e-4 0.139197,0.0012 0.208796,0.0016 0.04033,2.27e-4 0.08066,2.91e-4 0.120991,3.44e-4 0.01484,2e-5 0.02966,3.2e-5 0.04449,4.3e-5 0.622255,5.03e-4 0.622951,-0.879508 7.94e-4,-0.879999 v 0 c -0.01466,-1.2e-5 -0.0293,-2.4e-5 -0.04395,-4.3e-5 -0.03908,-5.5e-5 -0.07817,-1.23e-4 -0.117258,-3.44e-4 -0.06873,-3.97e-4 -0.137456,-9.79e-4 -0.206182,-0.0016 -0.141073,-0.0012 -0.282149,-0.0028 -0.42323,-0.0021 -0.149032,5.56e-4 -0.298069,0.0013 -0.447088,0.0035 -0.154704,0.0024 -0.309406,0.0061 -0.464134,0.0058 -0.168707,1.81e-4 -0.337413,3.97e-4 -0.506119,0.0011 -0.158279,6.88e-4 -0.316556,0.0019 -0.474837,0.0018 -0.165677,-0.0011 -0.331359,-0.0023 -0.496999,-0.0061 -0.102981,-0.0025 -0.205941,-0.0073 -0.308962,-0.007 -0.04843,0 -0.09687,0 -0.145304,0 -0.02666,0 -0.05332,0 -0.07999,0 -0.622252,0 -0.622252,0.88 0,0.88 z" />
</svg>
