<?xml version="1.0" encoding="UTF-8" standalone="no"?>
<svg
   id="svg1880"
   version="1.1"
   viewBox="0 0 95.597763 37.830009"
   height="37.830009mm"
   width="95.597763mm"
   sodipodi:docname="10.-1 person hears bird flying..svg"
   inkscape:version="1.3 (0e150ed6c4, 2023-07-21)"
   xmlns:inkscape="http://www.inkscape.org/namespaces/inkscape"
   xmlns:sodipodi="http://sodipodi.sourceforge.net/DTD/sodipodi-0.dtd"
   xmlns="http://www.w3.org/2000/svg"
   xmlns:svg="http://www.w3.org/2000/svg"
   xmlns:rdf="http://www.w3.org/1999/02/22-rdf-syntax-ns#"
   xmlns:cc="http://creativecommons.org/ns#"
   xmlns:dc="http://purl.org/dc/elements/1.1/">
  <sodipodi:namedview
     id="namedview1"
     pagecolor="#ffffff"
     bordercolor="#000000"
     borderopacity="0.25"
     inkscape:showpageshadow="2"
     inkscape:pageopacity="0.0"
     inkscape:pagecheckerboard="0"
     inkscape:deskcolor="#d1d1d1"
     inkscape:document-units="mm"
     inkscape:zoom="5.8531532"
     inkscape:cx="268.91488"
     inkscape:cy="108.74481"
     inkscape:window-width="1920"
     inkscape:window-height="1051"
     inkscape:window-x="-9"
     inkscape:window-y="-9"
     inkscape:window-maximized="1"
     inkscape:current-layer="svg1880" />
  <defs
     id="defs1874">
    <inkscape:path-effect
       effect="simplify"
       id="path-effect13"
       is_visible="true"
       lpeversion="1.3"
       threshold="40.6897"
       steps="1"
       smooth_angles="360"
       helper_size="0"
       simplify_individual_paths="false"
       simplify_just_coalesce="false" />
    <inkscape:path-effect
       effect="simplify"
       id="path-effect12"
       is_visible="true"
       lpeversion="1.3"
       threshold="40.6897"
       steps="1"
       smooth_angles="360"
       helper_size="0"
       simplify_individual_paths="false"
       simplify_just_coalesce="false" />
    <inkscape:path-effect
       effect="fillet_chamfer"
       id="path-effect11"
       is_visible="true"
       lpeversion="1"
       nodesatellites_param="F,0,1,1,0,0.43755088,0,1 @ F,0,0,1,0,0,0,1 @ F,0,0,1,0,0,0,1 @ F,0,0,1,0,0,0,1 @ F,0,0,1,0,0,0,1 @ F,0,0,1,0,0,0,1 @ F,0,0,1,0,0,0,1 @ F,0,0,1,0,0,0,1 @ F,0,0,1,0,0,0,1 @ F,0,0,1,0,0,0,1 @ F,0,0,1,0,0,0,1 @ F,0,0,1,0,0,0,1 @ F,0,1,1,0,0.43755088,0,1"
       radius="0"
       unit="px"
       method="auto"
       mode="F"
       chamfer_steps="1"
       flexible="false"
       use_knot_distance="true"
       apply_no_radius="true"
       apply_with_radius="true"
       only_selected="false"
       hide_knots="false" />
    <inkscape:path-effect
       effect="fillet_chamfer"
       id="path-effect10"
       is_visible="true"
       lpeversion="1"
       nodesatellites_param="F,0,0,1,0,0,0,1 @ F,0,0,1,0,0,0,1 @ F,0,0,1,0,0,0,1 @ F,0,0,1,0,0,0,1 @ F,0,0,1,0,0,0,1 @ F,0,0,1,0,0,0,1 @ F,0,0,1,0,0,0,1 @ F,0,0,1,0,0,0,1 @ F,0,0,1,0,0,0,1 @ F,0,0,1,0,0,0,1 @ F,0,0,1,0,0,0,1 @ F,0,0,1,0,0,0,1 @ F,0,0,1,0,0,0,1"
       radius="0"
       unit="px"
       method="auto"
       mode="F"
       chamfer_steps="1"
       flexible="false"
       use_knot_distance="true"
       apply_no_radius="true"
       apply_with_radius="true"
       only_selected="false"
       hide_knots="false" />
  </defs>
  <metadata
     id="metadata1877">
    <rdf:RDF>
      <cc:Work
         rdf:about="">
        <dc:format>image/svg+xml</dc:format>
        <dc:type
           rdf:resource="http://purl.org/dc/dcmitype/StillImage" />
        <dc:title />
      </cc:Work>
    </rdf:RDF>
  </metadata>
  <g
     transform="translate(-58.869499,-92.711151)"
     id="layer1">
    <g
       transform="matrix(0.26458333,0,0,0.26458333,54.18092,85.532919)"
       id="g3018">
      <path
         style="opacity:0.2"
         d="m 21.1,135.6 c 8.8,4.6 19.7,1.3 24.8,-1.3 5.1,-2.6 8.3,-0.3 9.5,1.9 1.2,2.2 3.3,10 9.1,12.3 5.8,2.3 12.3,2.3 19.7,-5 7.5,-7.3 14.5,-5.5 18.6,-3.5 4.1,2 8,8.2 9.7,9.1 1.8,0.9 1.1,-2.8 3.4,-1.8 2.4,1.1 8.5,5.1 12,2.7 3.4,-2.5 -4.7,-7.5 -9.8,-9.8 -24.6,-11 -9,-14.8 -20.3,-22.6 -11.3,-7.8 -20.3,2.7 -28.3,-2.6 -8,-5.3 -17,-3.4 -24.7,1.4 -7.7,4.8 -36.9,12.3 -23.7,19.2 z"
         id="path2966" />
      <path
         style="fill:#262626"
         d="m 54.6,129 c -3.6,2.1 -12.3,6.9 -16.2,7.3 -4.8,0.5 -7.4,-1.6 -8.3,-5.1 -1.4,-5.2 18.2,-13.5 18.2,-13.5 z"
         id="path2968" />
      <path
         style="fill:#ffffff"
         d="m 52.8,127.7 c -4.5,2 -12.3,7.5 -16.9,6 -4.5,-1.6 -4.6,-4.4 -3.4,-6.7 2.4,-4.6 17.4,-7.2 17.4,-7.2 z"
         id="path2970" />
      <path
         style="fill:#262626"
         d="m 47,121.8 c 1.7,-0.2 1.3,2.9 0.4,3.9 -0.9,1 -7.6,4.5 -11.5,6.1 -3.9,1.6 -10.3,3 -13.5,2.5 -3.2,-0.5 -3.4,-3.7 -1.9,-4.9 1.6,-1.2 6.4,-2.4 9.2,-5.7 2,-2.4 4.6,-6.5 4.6,-6.5 z"
         id="path2972" />
      <path
         style="fill:#ffffff"
         d="m 45.1,123.1 c -2.1,1 -7.6,4.6 -12.4,6.1 -4.8,1.5 -9.6,2.2 -11.6,0.9 -1.3,-0.9 3.8,-1.7 6.5,-4 3.8,-3.1 5.1,-6.6 5.1,-6.6 z"
         id="path2974" />
      <path
         style="fill:#06547a"
         d="m 58.5,111.1 c -3,-0.3 -8.1,1.1 -9.9,6.2 -1.8,5.1 -1.2,9.7 1,10.6 2.2,0.9 3.5,0.1 4.4,1.5 0.9,1.4 3.3,7 4.5,10.1 1.2,3.1 3.2,6.4 5.5,8 2.3,1.6 6.2,2.7 10.2,0.4 4,-2.4 8,-6.5 11.6,-8.8 4.7,-3 14.9,-12.6 17.2,-16.3 2.3,-3.7 2.1,-6.2 2.1,-6.2 L 80.7,105.8 c 0,0 -9.5,9.1 -9.7,10.2 -0.2,1.1 2.2,3.3 1.9,4.6 -0.3,1.3 -0.6,2 -0.6,2 0,0 -7.7,-10.9 -13.8,-11.5 z"
         id="path2976" />
      <path
         style="fill:#06547a"
         d="m 80.3,108.2 -9,8.1 c 0,0 -2.3,-1.2 -3.7,-3 -1.6,-2.1 -5.7,-12.6 -5.7,-12.6 0,0 -3.6,7 -4.7,9.8 -1.1,2.8 -7.6,8.8 -7.8,10.5 -0.2,1.7 -0.1,3.4 -1.9,3.6 -1.8,0.2 -14.1,-0.2 -16.6,-1.8 -1.9,-1.2 -0.7,-5.1 2.5,-7.1 2,-1.3 2.8,-3.3 3.8,-6.2 1,-2.8 3.7,-4.9 5.5,-8.6 1.8,-3.7 7.3,-20.2 9.3,-24.4 2,-4 6.5,-9.2 13,-4.9 6.8,4.5 7.9,5.7 11.6,10.2 3.5,4.2 7.3,9.2 7.3,9.2 z"
         id="path2978" />
      <path
         style="opacity:0.2"
         d="m 80.3,108.2 -9,8.1 c 0,0 -2.3,-1.2 -3.7,-3 -1.6,-2.1 -5.7,-12.6 -5.7,-12.6 0,0 -3.6,7 -4.7,9.8 -1.1,2.8 -7.6,8.8 -7.8,10.5 -0.2,1.7 -0.1,3.4 -1.9,3.6 -1.8,0.2 -14.1,-0.2 -16.6,-1.8 -1.9,-1.2 -0.7,-5.1 2.5,-7.1 2,-1.3 2.8,-3.3 3.8,-6.2 1,-2.8 3.7,-4.9 5.5,-8.6 1.8,-3.7 7.3,-20.2 9.3,-24.4 2,-4 6.5,-9.2 13,-4.9 6.8,4.5 7.9,5.7 11.6,10.2 3.5,4.2 7.3,9.2 7.3,9.2 z"
         id="path2980" />
      <path
         style="fill:#fbd7c7"
         d="m 87.9,59.2 c -5,0.1 -13.4,-1.6 -17.7,-2.6 -4.3,-1 -7.6,-1.7 -9.5,2.6 -1.9,4.3 -6.6,19.9 -7,21.5 -0.4,1.6 -1.9,8.3 -2.1,10.5 -0.1,1.3 0.8,5 1.5,5.7 0.7,0.7 1.4,0 1.5,0.4 0.2,0.3 0.9,3.1 1.7,3.5 0.8,0.3 1.3,-0.4 1.6,-0.2 0.3,0.2 0.8,2.2 2,2.1 1,-0.1 0.8,-0.8 0.8,-0.8 0,0 0.9,1.5 1.8,1.2 1.2,-0.4 -0.1,-3.1 -0.3,-5.6 -0.2,-3.2 0.1,-4.4 0.1,-4.4 0,0 1.1,-0.3 1.3,-1.3 0.2,-1 0.5,-5.5 -0.2,-6.7 -0.7,-1.2 -2.6,-2.9 -2.6,-3.9 0,-1 1.1,-4.6 3.7,-8 2.6,-3.4 3.5,-6.5 3.5,-6.5 0,0 3.8,2.1 9.1,3.8 5.3,1.6 10.5,2.6 10.5,2.6 z"
         id="path2982" />
      <path
         style="fill:#e5e5e5"
         d="m 95.9,60.7 c -3.3,-0.8 -4.1,-1.9 -7.5,-2.2 -3.4,-0.3 -4.2,-0.2 -4.9,0.9 -0.7,1.1 -1.5,5 -1,8.5 0.5,3.5 1.8,5.2 2,7.2 0.2,2 0.2,5 0.9,8.2 0.6,3.2 1.3,4.9 1.3,4.9 0,0 -2,0.9 -3.3,1.6 -1.4,0.7 -2.5,7 -3.9,10.4 -1.4,3.4 -3.5,5.7 0.6,11.2 4.5,5.9 9.7,12.4 16.2,12.9 4,0.3 6.4,0.1 7.6,-1.9 1.3,-2 2.2,-5.3 3.2,-6.4 1,-1.1 12.1,-11.1 13.2,-13.6 1.1,-2.5 0.3,-2.7 1.9,-4.5 1.6,-1.8 3.5,-7.4 2.6,-11.2 -0.9,-3.8 -6.7,-12.4 -10.3,-16.8 -8.1,-9.6 -18.6,-9.2 -18.6,-9.2 z"
         id="path2984" />
      <path
         style="fill:#fbd7c7"
         d="m 108.8,64.6 c 0,0 0.1,1.3 1.5,2.2 1.4,0.9 4.6,3.8 4.7,6.2 0.1,2.4 -6.3,9.7 -11.6,9.3 -5.3,-0.4 -7.5,-7.3 -7.4,-8.6 0.1,-1.3 5.4,-9.6 5.4,-9.6 z"
         id="path2986" />
      <path
         style="fill:#fbd7c7"
         d="m 111.4,60.6 c 0,0 1.6,1 -1,3.9 -2.6,2.8 -3.3,1.9 -3.3,1.9 0,0 -0.7,3.8 -4.5,5.6 -3.8,1.8 -9.9,4.9 -12.3,2.4 -2.2,-2.3 -1.7,-11.4 -1.2,-16.7 0.5,-5.3 4.3,-12.2 10,-13.8 5.2,-1.4 13,0.9 13.9,7.2 0.9,6.3 -1.6,9.5 -1.6,9.5 z"
         id="path2988" />
      <path
         style="fill:#825012"
         d="m 111.4,60.6 c 0,0 0,0 0,0 0,0 2.5,-3.2 1.6,-9.5 -0.9,-6.3 -8.7,-8.6 -13.9,-7.2 -2.5,0.7 -4.6,2.4 -6.2,4.5 0.3,1.2 -0.7,3.6 1.4,4.9 2.4,1.4 5.2,-0.7 8.2,0.8 3,1.5 2,9.3 2,9.3 l 2.2,-0.1 c 0,0 0.6,-2 2.2,-2.6 1.1,-0.5 1.9,-0.4 2.5,-0.1 z"
         id="path2990" />
      <path
         style="fill:#fbd7c7"
         d="m 108.9,96.1 c 0,0 3.6,2.8 6.7,3.1 3.1,0.3 6.2,-0.8 6.2,-0.8 0,0 -1.2,5.9 -1.4,8.8 -0.2,2.9 0,7.5 -1.4,11.4 -1.4,3.9 -5.6,17.2 -5.2,17.9 0.3,0.7 8.8,4.2 10.3,5 1.5,0.8 4.1,2.7 4.2,3.2 0,0.1 0,0.4 -0.5,0.7 1,0.8 2.8,2.1 2.2,2.8 -0.5,0.6 -1.1,0.6 -1.5,0.4 0.1,0.1 1.2,0.9 0.8,1.5 -0.7,0.8 -2.5,-0.1 -3.4,-0.7 0.3,0.3 0.3,0.7 -0.2,1.2 -0.6,0.6 -2.8,-0.3 -4.1,-1.1 -1.3,-0.8 -7.3,-4.1 -7.3,-4.1 0,0 0.7,1.6 0.5,2.8 -0.2,1.2 -1.4,1.3 -1.9,0.8 -0.5,-0.5 -2.2,-3.6 -2.7,-3.9 -0.5,-0.3 -1.3,-1.6 -1.2,-2.3 0.1,-0.7 -0.1,-1.5 -0.7,-2.9 -0.6,-1.4 -0.9,-2 -0.5,-6.5 0.5,-4.5 0.2,-10.7 1.3,-15.3 0.7,-3.2 1.6,-5.2 1.4,-6.2 -0.1,-1 -1.7,-5.8 -1.8,-9.8 -0.1,-3.1 0.2,-6 0.2,-6 z"
         id="path2992" />
      <path
         style="fill:#fbd7c7"
         d="M 127.3,144.3"
         id="path2994" />
    </g>
    <g
       transform="matrix(0.26458333,0,0,0.26458333,91.446142,107.36681)"
       id="g3078">
      <polygon
         style="fill:#baa794"
         points="59.3,10.4 55.9,10.5 57.7,7.9 "
         id="polygon3060"
         transform="translate(6.6568544,-57.19975)" />
      <path
         style="opacity:0.2"
         d="m 36.474873,70.96829 c -6.5,4 -7,8.7 1.4,13.3 9.2,5 14.7,3.9 21.8,-0.3 6.3,-3.6 4.9,-8.6 -5.7,-12.8 -8.5,-3.4 -12.9,-3 -17.5,-0.2 z"
         id="path3062" />
      <path
         id="polygon3066"
         style="fill:#baa794;stroke-width:1"
         d="M 50.95021,6.3510155 56.129638,5.7531853 53.543837,8.57245 57.283012,6.6610788 58.945843,7.736726 58.926033,5.8983993 61.619447,3.9516999 58.275081,4.5411977 c 0,0 -0.329032,-0.1208388 -0.924412,-0.2219776 -0.79928,-0.1357749 -5.258831,0.5105267 -5.258831,0.5105267 z"
         sodipodi:nodetypes="ccccccccscc" />
      <path
         style="fill:#825012"
         d="m 47.556854,-32.89975 c -5.1,1.3 -10.8,4.8 -12.4,6.3 -1.6,1.5 -9.7,6.5 -9.7,17.4000008 0,4.1 1.4,10.8 9,15.0999996 2,1.1 4.1,1.300001 5.3,1.400001 1,0.1 1.8,0.8 3,0.6 1.9,-0.3 1.9,-0.6 1.9,-0.6 0,0 2.2,2 4.9,1.1 3.5,-1.2 3.5,-5.1000006 3.5,-5.1000006 0,0 11.2,-7.2999999 12.9,-17.0999998 1.4,-8.000001 -2.5,-15.500001 -4.3,-17.300001 -1.7,-2 -9,-3.2 -14.1,-1.8 z"
         id="path3068" />
      <path
         style="fill:#762c07"
         d="m 61.656854,-50.59975 c -3.4,-1.3 -6,-1.3 -9.3,5.1 -3.2,6.2 -3,9.2 -4.7,11 -1.7,1.8 -4.3,2.9 -4.3,2.9 l 4.9,-0.3 0.1,4.9 3.9,-4.1 2.3,5.6 2.8,-4.6 3.3,5.3 0.3,-4.8 3.9,4.1 c 0,0 -2.8,-5.6 -3,-7.1 -0.2,-1.5 -2.2,-7.9 -1.3,-9.9 0.9,-2 4.1,-6.9 1.1,-8.1 z"
         id="path3070" />
      <path
         style="fill:#cc291f"
         d="m 61.956854,-49.79975 c -0.3,0 -2.3,-1.3 -3.5,-1.4 -1.2,-0.2 -1.2,-1.2 -0.8,-1.6 0.3,-0.4 1,-0.3 1,-0.3 0,0 -0.4,-0.5 0.2,-1 0.7,-0.5 1.3,-0.1 1.3,-0.1 0,0 -0.1,-0.7 0.5,-1 0.5,-0.2 0.9,0.4 0.9,0.4 0,0 0.1,-1 1.1,-0.4 1,0.6 0.9,5.1 0.9,5.1 l 0.9,0.9 -1.2,1.5 c 0,0 0.5,1.2 -0.2,2.6 -0.8,1.4 -2.3,3.1 -3,2.3 -0.7,-0.8 2.3,-3.7 2.3,-3.7 0,0 -1.2,0 -1.5,-1.2 -0.3,-1.2 1.1,-2.1 1.1,-2.1 z"
         id="path3074" />
      <path
         style="fill:#2d3134"
         d="m 62.456854,-48.29975 c -0.5,0.1 -0.4,1.1 0.1,1 0.6,-0.1 0.4,-1.1 -0.1,-1 z"
         id="path3076" />
      <path
         style="fill:#825012;fill-opacity:1;stroke:none;stroke-width:1px;stroke-linecap:butt;stroke-linejoin:miter;stroke-opacity:1"
         d="m 42.647062,-28.952549 c -3.67425,-2.288435 -6.219404,-4.542007 -10.178399,-6.585156 -4.139877,-2.136499 -11.874305,-3.603592 -16.322265,-4.32723 -2.726485,-0.443569 -4.078901,1.343844 -0.764879,2.71918 -4.86147,-0.880358 -7.7525848,-1.584071 -8.4660438,-0.247588 -0.8502818,1.592798 1.4657187,3.097174 4.1166048,4.381493 -3.0140455,-1.114039 -5.2588337,-1.030872 -5.7785447,0.233737 -0.6632842,1.613962 0.6987157,2.570996 3.2006427,3.711342 -2.2827104,-0.655303 -4.6997787,0.275264 -2.8882581,2.551941 0.3142523,0.394945 2.2648531,1.690405 4.2420243,1.520697 -1.3160229,0.530034 -1.8702709,1.637292 -1.0452079,3.065619 1.2969127,2.245183 7.0441277,3.359133 9.5679667,3.734311 3.860964,0.573946 10.829199,1.23042 14.450066,0.677933"
         id="path13"
         sodipodi:nodetypes="csscscscscssc" />
      <path
         style="fill:#762c07"
         d="m 30.656854,-39.09975 c -3.2,-0.3 -2.5,2.7 -2.5,2.7 0,0 -1.5,-1.5 -2.9,0 -1.3,1.5 0.2,3.3 0.2,3.3 0,0 -1.8,-0.6 -2.6,1.4 -1,2.5 1.2,3.4 1.2,3.4 0,0 -2.4,-0.9 -2.6,2.1 -0.1,2 2,3.1 2.4,6.7 0.8,7.900001 1.6,10.7000008 1.6,10.7000008 0,0 10.7,-4.8999998 12.9,-9.8000008 2.2,-4.9 0.7,-6.9 0.7,-6.9 0,0 -2.8,-1.9 -3.3,-4.8 -0.5,-2.9 -1.6,-8.5 -5.1,-8.8 z"
         id="path3072" />
      <path
         style="fill:#762c07;fill-opacity:1;stroke:none;stroke-width:8.50394;stroke-linecap:round;stroke-linejoin:round"
         d="m 48.87568,-12.954584 c 3.1875,6.8125 10.226882,9.4608961 12.90625,5.59375 3.376988,-4.874024 -1.46875,-16.59375 -1.46875,-16.59375"
         id="path11"
         sodipodi:nodetypes="csc" />
      <path
         style="fill:#825012;fill-opacity:1;stroke:none;stroke-width:1px;stroke-linecap:butt;stroke-linejoin:miter;stroke-opacity:1"
         d="m 60.121207,-24.443199 c 6.07606,0.695636 6.370365,0.729233 11.82128,1.644966 5.043503,0.847284 9.284295,2.73906 12.93451,3.965124 2.583724,0.867843 4.394348,2.459872 4.527898,3.410571 0.196921,1.401817 -1.081841,1.844624 -3.301048,1.316506 2.34619,0.86459 4.802134,2.384722 4.27445,3.991536 -0.569888,1.7353246 -6.494514,-0.295608 -5.927381,-0.133782 1.783987,0.5090381 3.422849,1.6673936 3.306322,2.835944 -0.173068,1.7355495 -1.896471,2.2610552 -7.674419,0.8761612 2.439552,1.0573511 3.597009,1.872589 2.905167,3.2950805 -0.131618,0.2706185 -2.053522,1.7222958 -4.470953,-0.4328963 1.733095,1.869395 -0.212673,2.8160629 -0.913352,2.8603063 -2.386955,0.1507213 -7.050026,-1.21707 -9.87649,-2.188823 -5.244015,-1.8029203 -12.573695,-6.049748 -19.003907,-10.0974657"
         id="path12"
         sodipodi:nodetypes="cssscscscscssc" />
    </g>
  </g>
  <path
     style="fill:#000000;fill-opacity:1;fill-rule:nonzero;stroke:none;stroke-width:0.264583"
     id="path1"
     d="m 90.629245,30.605907 c -0.262988,0.266857 -0.525471,0.540986 -0.730353,0.856603 -0.05868,0.09039 -0.108577,0.186178 -0.162867,0.279268 -0.04331,0.106199 -0.09899,0.208157 -0.129927,0.318597 -0.101443,0.362159 -0.101959,0.771211 0.02638,1.127454 0.123333,0.342358 0.222552,0.426646 0.439669,0.709359 0.101661,0.09575 0.192236,0.20484 0.304985,0.287239 0.532133,0.38889 1.302139,0.61898 1.948675,0.709811 0.166436,0.02339 0.334952,0.02829 0.502428,0.04243 0.605364,0.01704 1.206444,-0.07243 1.745633,-0.360978 0.119735,-0.06408 0.238959,-0.132379 0.34349,-0.21907 0.112567,-0.09335 0.202073,-0.21145 0.303112,-0.317175 0.06782,-0.116157 0.14731,-0.226242 0.203452,-0.348472 0.14456,-0.31473 0.210145,-0.678954 0.153683,-1.022236 -0.04457,-0.270948 -0.119041,-0.385321 -0.233781,-0.625451 -0.06809,-0.09268 -0.127399,-0.192499 -0.204266,-0.27804 -0.444439,-0.494593 -1.08472,-0.711809 -1.700157,-0.900129 -0.76912,-0.215329 -1.564791,-0.305364 -2.358091,-0.374854 -0.631962,-0.06577 -1.265571,-0.06096 -1.899541,-0.04365 -0.697995,0.02429 -1.396339,0.0344 -2.094675,0.04234 -0.857501,1.2e-5 -1.714164,0.0345 -2.569535,0.09261 -0.870868,0.07058 -1.743144,0.118597 -2.616248,0.149684 -0.797396,0.04367 -1.594741,0.08673 -2.392786,0.11677 -0.594053,0.02248 -1.187378,0.05747 -1.780616,0.09506 -0.527116,0.04982 -1.054375,0.0969 -1.581198,0.149628 -0.569158,0.05949 -1.140804,0.08592 -1.712473,0.105757 -0.486656,0.01562 -0.973542,0.02176 -1.460402,0.02674 -0.23966,0.0024 -0.47933,0.0037 -0.718998,0.0046 -0.622249,0.0023 -0.618945,0.882331 0.0033,0.879994 v 0 c 0.24157,-9e-4 0.483139,-0.0022 0.724701,-0.0046 0.494052,-0.0051 0.988127,-0.01134 1.481971,-0.02723 0.590725,-0.02057 1.181413,-0.04817 1.769544,-0.109603 0.516176,-0.05167 1.032791,-0.09754 1.549194,-0.147013 0.585734,-0.03711 1.171551,-0.07173 1.75809,-0.09392 0.797457,-0.03005 1.594239,-0.07274 2.391032,-0.116706 0.882586,-0.03152 1.764355,-0.07982 2.644687,-0.15116 0.838782,-0.05729 1.678861,-0.0906 2.519741,-0.09063 0.703019,-0.008 1.406046,-0.01819 2.108724,-0.04261 0.600419,-0.01645 1.200356,-0.02248 1.798889,0.04064 0.732832,0.06386 1.468265,0.144511 2.179518,0.340388 0.432758,0.129574 0.924467,0.272261 1.25898,0.595994 0.04176,0.04041 0.07539,0.08845 0.113091,0.132678 0.07212,0.134556 0.171921,0.292717 0.17199,0.452855 8.2e-5,0.197227 -0.07585,0.3937 -0.164743,0.565066 -0.04256,0.05537 -0.07572,0.119452 -0.127672,0.166116 -0.06969,0.06259 -0.151553,0.110736 -0.232685,0.157549 -0.398156,0.229724 -0.852493,0.288901 -1.305624,0.281837 -0.135212,-0.0098 -0.271235,-0.01162 -0.405638,-0.02934 -0.423743,-0.05586 -0.843777,-0.176406 -1.234659,-0.348581 -0.09753,-0.04296 -0.196318,-0.08584 -0.284851,-0.14515 -0.07856,-0.05263 -0.141618,-0.125344 -0.212426,-0.188014 -0.110741,-0.130364 -0.204099,-0.219495 -0.274378,-0.376244 -0.07726,-0.172325 -0.102428,-0.405746 -0.06015,-0.590714 0.01595,-0.06984 0.04929,-0.134533 0.07394,-0.2018 0.03786,-0.06759 0.07201,-0.13739 0.11357,-0.202766 0.176519,-0.277667 0.409271,-0.515037 0.638524,-0.748631 0.440002,-0.44 -0.182253,-1.062254 -0.622252,-0.622254 z" />
  <path
     style="fill:#000000;fill-opacity:1;fill-rule:nonzero;stroke:none;stroke-width:0.264583"
     d="m 68.748377,14.37058 c -0.0155,0.679649 -0.04793,1.972215 -0.08243,2.561787 -0.04625,0.887457 -0.07737,1.776015 -0.02829,2.664294 0.03749,0.917328 0.08362,1.835258 0.19095,2.747526 0.08878,0.763659 0.191039,1.525984 0.241374,2.293545 0.0264,0.408453 0.07187,0.816663 0.06962,1.226224 0,0.622254 0.879999,0.622254 0.879999,0 l -3e-6,10e-7 c 0.0032,-0.428547 -0.04389,-0.855606 -0.07145,-1.282933 -0.05103,-0.78259 -0.154929,-1.559861 -0.24543,-2.338451 -0.104664,-0.890441 -0.149278,-1.786438 -0.185796,-2.681807 -0.04804,-0.861051 -0.01706,-1.722327 0.02783,-2.582564 0.03486,-0.595852 0.06766,-1.900846 0.08329,-2.584289 0.0055,-0.241391 -0.186284,-0.442364 -0.427849,-0.448873 l -0.0049,-1.32e-4 c -0.241565,-0.0065 -0.441406,0.184077 -0.446915,0.425672 z"
     id="path9"
     sodipodi:nodetypes="ccccccsscccccc"
     inkscape:path-effect="#path-effect11"
     inkscape:original-d="m 68.7579,13.933123 c 0,0 -0.04397,2.179366 -0.09195,2.999244 -0.04625,0.887457 -0.07737,1.776015 -0.02829,2.664294 0.03749,0.917328 0.08362,1.835258 0.19095,2.747526 0.08878,0.763659 0.191039,1.525984 0.241374,2.293545 0.0264,0.408453 0.07187,0.816663 0.06962,1.226224 0,0.622254 0.879999,0.622254 0.879999,0 l -3e-6,10e-7 c 0.0032,-0.428547 -0.04389,-0.855606 -0.07145,-1.282933 -0.05103,-0.78259 -0.154929,-1.559861 -0.24543,-2.338451 -0.104664,-0.890441 -0.149278,-1.786438 -0.185796,-2.681807 -0.04804,-0.861051 -0.01706,-1.722327 0.02783,-2.582564 0.0484,-0.82725 0.09283,-3.021377 0.09283,-3.021377 z"
     transform="translate(2.3729186,5.6564075)" />
  <path
     style="fill:#000000;fill-opacity:1;fill-rule:nonzero;stroke:none;stroke-width:0.264583"
     d="m 72.072562,16.451478 c 0.03168,-0.675163 0.05305,-1.350745 0.07213,-2.026363 0.02061,-0.714895 0.06254,-1.430672 0.151187,-2.140507 0.189244,-1.139277 0.523866,-2.247739 0.841695,-3.3560755 0.193691,-0.640134 0.392453,-1.280077 0.641847,-1.901168 0.09782,-0.243628 0.204868,-0.482401 0.310408,-0.722692 0.194785,-0.382549 0.371706,-0.798927 0.689976,-1.099695 0.04225,-0.03991 0.09048,-0.07297 0.13572,-0.109458 0.177861,-0.113832 0.369514,-0.2308 0.581878,-0.266519 0.11861,-0.01995 0.2068,-0.0022 0.327403,0.0092 0.339058,0.05242 0.666846,0.169398 0.900249,0.432474 0.03983,0.0449 0.06975,0.09772 0.104619,0.146571 0.08671,0.144067 0.12658,0.1914 0.178647,0.351893 0.09628,0.29677 0.111996,0.62342 0.12248,0.932286 0.0033,0.468228 -0.08815,0.926895 -0.218598,1.374219 -0.09969,0.304428 -0.227604,0.596909 -0.367386,0.884533 -0.271879,0.559715 0.519675,0.944212 0.791558,0.384497 v 0 c 0.161587,-0.332795 0.308233,-0.672056 0.421296,-1.024921 0.154118,-0.538289 0.261631,-1.089753 0.252476,-1.652532 -0.02792,-0.651948 -0.09687,-1.241745 -0.485778,-1.790171 -0.07161,-0.08809 -0.136081,-0.18249 -0.214838,-0.264247 -0.380484,-0.394978 -0.898608,-0.5823135 -1.431064,-0.6529604 -0.29105,-0.01238 -0.34929,-0.033817 -0.629837,0.02508 -0.330265,0.069337 -0.628909,0.2473894 -0.901119,0.4384954 -0.07366,0.06401 -0.151577,0.123423 -0.220997,0.192008 -0.378704,0.374155 -0.611786,0.864204 -0.842439,1.335516 -0.114263,0.260362 -0.220314,0.496634 -0.326342,0.761466 -0.258229,0.644977 -0.465472,1.308917 -0.666057,1.973578 -0.330431,1.152329 -0.677542,2.3051925 -0.86914,3.4906845 -0.09035,0.737654 -0.137258,1.480775 -0.157481,2.223609 -0.01894,0.669684 -0.04426,1.361494 -0.06454,2.032202"
     id="path2"
     sodipodi:nodetypes="ccccscscscscscccsscccscscscscccc" />
  <path
     style="fill:#000000;fill-opacity:1;fill-rule:nonzero;stroke:none;stroke-width:0.264583"
     id="path3"
     d="m 68.644495,11.191462 c 0.292042,0.05891 0.587717,0.09988 0.88192,0.14692 0.382684,0.05954 0.75658,0.157971 1.130453,0.256725 0.218321,0.06857 0.435472,0.140785 0.653355,0.210731 0.104456,0.03115 0.207969,0.06761 0.309177,0.108373 0.579179,0.22749 0.9009,-0.591593 0.321719,-0.819083 v 0 c -0.119163,-0.04617 -0.239617,-0.09057 -0.362006,-0.1272 -0.23249,-0.07457 -0.463944,-0.152427 -0.6975,-0.223628 -0.402176,-0.106229 -0.804773,-0.210695 -1.216355,-0.274889 -0.206388,-0.03296 -0.412976,-0.06478 -0.619323,-0.09797 -0.09059,-0.01454 -0.180244,-0.03471 -0.271004,-0.04817 -0.03695,-0.0055 -0.07432,-0.0077 -0.111469,-0.01163 -0.62211,-0.01342 -0.641079,0.866383 -0.01897,0.879795 z" />
  <path
     style="fill:#000000;fill-opacity:1;fill-rule:nonzero;stroke:none;stroke-width:0.264583"
     id="path4"
     d="m 68.818815,7.8862875 c 0.0012,0.0048 0.0012,0.01897 0.0035,0.01459 0.01036,-0.01839 0.01425,-0.03977 0.02172,-0.05952 0.02627,-0.06941 0.07503,-0.197355 0.106349,-0.259373 0.0409,-0.08096 0.116895,-0.187989 0.166082,-0.260973 0.173168,-0.174653 0.410975,-0.383656 0.644042,-0.470806 0.04757,-0.01778 0.09804,-0.02656 0.147074,-0.03983 0.412833,-0.07994 0.833672,-0.131744 1.25434,-0.142048 0.622006,-0.01759 0.597138,-0.897231 -0.02486,-0.879649 v 0 c -0.50131,0.01563 -1.003852,0.07138 -1.493259,0.182163 -0.0942,0.03173 -0.190778,0.05709 -0.282589,0.09517 -0.265014,0.109923 -0.589301,0.352825 -0.790239,0.555018 -0.06664,0.06706 -0.124944,0.141937 -0.187412,0.212908 -0.04202,0.06388 -0.08659,0.126139 -0.126043,0.191626 -0.125848,0.208882 -0.244776,0.468048 -0.299111,0.707803 -0.0099,0.04401 -0.01299,0.08931 -0.01948,0.13395 -0.01342,0.622109 0.866385,0.641078 0.879797,0.01897 z" />
  <path
     style="fill:#000000;fill-opacity:1;fill-rule:nonzero;stroke:none;stroke-width:0.264583"
     id="path5"
     d="m 71.546971,5.7230215 c -0.131604,-0.271922 -0.19689,-0.570907 -0.266518,-0.863307 -0.107091,-0.471566 -0.150074,-0.9555409 -0.16268,-1.4381345 -0.0072,-0.3093369 0.0095,-0.6209551 0.08985,-0.9208331 0.153356,-0.6030615 -0.699506,-0.8199325 -0.852858,-0.2168693 v 0 c -0.0937,0.3804683 -0.130875,0.7704466 -0.116642,1.1624066 0.01616,0.5432876 0.06383,1.0878103 0.186543,1.6184293 0.09295,0.386033 0.182204,0.782082 0.379752,1.130549 0.333925,0.525067 1.076482,0.05283 0.742556,-0.472239 z" />
  <path
     style="fill:#ff4400;fill-opacity:1;fill-rule:nonzero;stroke:none;stroke-width:0.264583"
     id="path8"
     d="m 73.968732,24.669829 c -0.20083,0.216353 -0.366993,0.464345 -0.498227,0.728594 -0.03736,0.07522 -0.0698,0.152783 -0.104695,0.229175 -0.103386,0.263102 -0.17838,0.535892 -0.23739,0.812027 -0.01855,0.08678 -0.038,0.173532 -0.05034,0.261407 -0.03365,0.239777 -0.02672,0.31312 -0.02845,0.549668 0.03083,0.364442 0.121925,0.71924 0.330237,1.024733 0.131328,0.192596 0.209068,0.250862 0.375388,0.410704 0.280551,0.236624 0.607015,0.413038 0.958747,0.518988 0.236812,0.07133 0.337928,0.07983 0.57813,0.118685 0.339381,0.04071 0.681635,0.05215 1.017061,-0.02416 0.191532,-0.04358 0.286824,-0.08539 0.468297,-0.152653 0.330869,-0.140829 0.640397,-0.325815 0.931058,-0.536459 0.115324,-0.08592 0.06134,-0.04639 0.161687,-0.118941 0.504081,-0.364832 -0.01188,-1.077711 -0.515951,-0.712879 v 0 c -0.107844,0.07813 -0.05304,0.03787 -0.164357,0.120883 -0.225224,0.165789 -0.467293,0.308598 -0.722307,0.423757 -0.15231,0.05846 -0.305173,0.120107 -0.468193,0.142279 -0.189672,0.0258 -0.381474,0.0045 -0.570791,-0.01117 -0.15435,-0.02328 -0.268211,-0.03528 -0.418317,-0.07795 -0.237159,-0.06742 -0.460835,-0.177654 -0.653047,-0.33223 -0.110607,-0.09966 -0.228423,-0.200478 -0.299522,-0.334733 -0.07483,-0.141294 -0.102849,-0.301661 -0.128122,-0.457408 -7.93e-4,-0.142455 -0.0065,-0.243706 0.01278,-0.385802 0.01037,-0.07661 0.02738,-0.152194 0.04324,-0.227858 0.04609,-0.219909 0.104256,-0.437307 0.181983,-0.648297 0.0263,-0.05895 0.05083,-0.118723 0.07891,-0.176846 0.09081,-0.187973 0.20602,-0.36489 0.344437,-0.521258 0.44,-0.44 -0.182253,-1.062254 -0.622255,-0.622254 z" />
  <path
     style="fill:#000000;fill-opacity:1;fill-rule:nonzero;stroke:none;stroke-width:0.264583"
     id="path6"
     d="m 71.421892,22.265058 c 0.643972,0.658122 1.269114,1.334166 1.895467,2.008972 0.98548,1.065598 1.993747,2.110438 3.026333,3.130459 0.132358,0.128506 0.264126,0.257623 0.397074,0.385518 0.275746,0.265263 0.416832,0.40006 0.70054,0.650808 0.289954,0.256269 0.590394,0.498539 0.893754,0.738546 0.366025,0.297421 0.737391,0.587962 1.109877,0.877163 0.334613,0.263381 0.687512,0.502079 1.032642,0.751268 0.244163,0.196583 0.514387,0.354888 0.781357,0.517434 0.531506,0.323576 0.989111,-0.428087 0.457605,-0.751663 v 0 C 81.469195,30.422998 81.218177,30.277557 80.992707,30.09432 80.655832,29.851102 80.311352,29.618163 79.984547,29.361381 79.614098,29.073874 79.244931,28.784826 78.880925,28.48912 78.592688,28.261273 78.307134,28.031381 78.031573,27.788139 77.756096,27.544973 77.622895,27.4175 77.353747,27.158615 c -0.131141,-0.126138 -0.261112,-0.253483 -0.391668,-0.380224 -1.023681,-1.010913 -2.022816,-2.046875 -2.999742,-3.103028 -0.625798,-0.674209 -1.250178,-1.349877 -1.893816,-2.007191 -0.422064,-0.457235 -1.068692,0.139652 -0.646629,0.596886 z" />
  <path
     style="fill:#000000;fill-opacity:1;fill-rule:nonzero;stroke:none;stroke-width:0.264583"
     id="path7"
     d="m 94.015231,34.217109 c -0.0067,-0.231929 -0.07001,-0.463958 -0.157501,-0.678225 -0.03194,-0.07823 -0.06159,-0.158544 -0.106984,-0.229819 -0.06288,-0.09874 -0.143875,-0.184712 -0.21581,-0.277069 -0.273611,-0.215414 -0.345411,-0.307125 -0.691563,-0.425049 -0.531436,-0.181045 -1.170281,-0.178259 -1.720646,-0.108475 -0.244739,0.03103 -0.485701,0.08682 -0.728551,0.13023 -1.19457,0.238413 -2.346368,0.635509 -3.481721,1.068937 -0.430485,0.173985 -0.225303,0.08841 -0.616,0.255619 -0.57199,0.245002 -0.225507,1.05392 0.346485,0.808919 v 0 c 0.368845,-0.158128 0.174524,-0.07694 0.58343,-0.24243 1.084815,-0.414322 2.18467,-0.795917 3.325839,-1.02535 0.210484,-0.03935 0.419282,-0.08914 0.631457,-0.118039 0.387133,-0.05272 0.911677,-0.07367 1.295612,0.03173 0.18238,0.05007 0.23749,0.09841 0.383913,0.192373 0.03136,0.02971 0.0688,0.0541 0.09408,0.08912 0.05361,0.07428 0.09591,0.211267 0.123706,0.294608 0.02529,0.07587 0.05444,0.152003 0.05426,0.232916 0,0.622255 0.879998,0.622255 0.879998,0 z" />
  <path
     style="fill:#000000;fill-opacity:1;fill-rule:nonzero;stroke:none;stroke-width:0.264583"
     id="path10"
     d="m 71.20365,16.259841 c -5.79e-4,0.02666 -0.0012,0.0533 -0.0017,0.07997 -0.0011,0.04841 -0.0021,0.09685 -0.0031,0.145268 -0.0019,0.09576 -0.0084,0.191364 -0.01289,0.287035 -0.0077,0.17089 -0.01267,0.341886 -0.01745,0.512879 -0.0036,0.161394 -0.0059,0.322809 -0.0086,0.48422 -0.0029,0.167703 -0.0063,0.335398 -0.0098,0.503091 -0.0037,0.158942 -0.0035,0.317941 -0.0044,0.476918 -10e-4,0.145564 -0.0035,0.291116 -0.006,0.436661 -0.0022,0.137432 -0.0068,0.274812 -0.01098,0.412195 -0.0021,0.06957 -0.0042,0.13914 -0.0061,0.208713 -0.0011,0.04031 -0.002,0.08064 -0.003,0.120956 -3.6e-4,0.01483 -7.15e-4,0.02964 -9.75e-4,0.04448 -0.01391,0.6221 0.865876,0.641763 0.879777,0.01976 v 0 c 3.28e-4,-0.01466 6.53e-4,-0.0293 9.79e-4,-0.04394 9.06e-4,-0.03907 0.0018,-0.07815 0.0029,-0.117223 0.0019,-0.0687 0.0039,-0.137404 0.006,-0.2061 0.0042,-0.141014 0.0089,-0.282023 0.01122,-0.423087 0.0027,-0.14901 0.0051,-0.298029 0.0061,-0.44706 9.31e-4,-0.15472 5.75e-4,-0.309465 0.0042,-0.464152 0.0035,-0.168672 0.0069,-0.337344 0.0098,-0.506026 0.0027,-0.158257 0.0049,-0.316522 0.0084,-0.474766 0.0047,-0.165615 0.0094,-0.331232 0.01681,-0.496752 0.0047,-0.102904 0.01173,-0.205737 0.01366,-0.308741 0.0011,-0.04841 0.0021,-0.09685 0.0031,-0.145269 5.79e-4,-0.02666 0.0012,-0.0533 0.0017,-0.07997 0.01341,-0.622107 -0.866383,-0.641076 -0.879796,-0.01897 z" />
</svg>
