<?xml version="1.0" encoding="UTF-8" standalone="no"?>
<svg
   enable-background="new 0 0 160 240"
   height="227.34409"
   viewBox="0 0 234.83752 227.34409"
   width="234.83752"
   version="1.1"
   id="svg24"
   sodipodi:docname="11 ni li supa..svg"
   inkscape:version="1.3 (0e150ed6c4, 2023-07-21)"
   xmlns:inkscape="http://www.inkscape.org/namespaces/inkscape"
   xmlns:sodipodi="http://sodipodi.sourceforge.net/DTD/sodipodi-0.dtd"
   xmlns="http://www.w3.org/2000/svg"
   xmlns:svg="http://www.w3.org/2000/svg"
   xmlns:rdf="http://www.w3.org/1999/02/22-rdf-syntax-ns#"
   xmlns:cc="http://creativecommons.org/ns#"
   xmlns:dc="http://purl.org/dc/elements/1.1/">
  <metadata
     id="metadata30">
    <rdf:RDF>
      <cc:Work
         rdf:about="">
        <dc:format>image/svg+xml</dc:format>
        <dc:type
           rdf:resource="http://purl.org/dc/dcmitype/StillImage" />
        <dc:title />
      </cc:Work>
    </rdf:RDF>
  </metadata>
  <defs
     id="defs28" />
  <sodipodi:namedview
     pagecolor="#ffffff"
     bordercolor="#666666"
     borderopacity="1"
     objecttolerance="10"
     gridtolerance="10"
     guidetolerance="10"
     inkscape:pageopacity="0"
     inkscape:pageshadow="2"
     inkscape:window-width="1920"
     inkscape:window-height="1051"
     id="namedview26"
     showgrid="false"
     fit-margin-top="0"
     fit-margin-left="0"
     fit-margin-right="0"
     fit-margin-bottom="0"
     inkscape:zoom="1.3906433"
     inkscape:cx="48.538686"
     inkscape:cy="48.538686"
     inkscape:window-x="-9"
     inkscape:window-y="-9"
     inkscape:window-maximized="1"
     inkscape:current-layer="svg24"
     inkscape:showpageshadow="2"
     inkscape:pagecheckerboard="0"
     inkscape:deskcolor="#d1d1d1" />
  <ellipse
     cx="80"
     cy="192.34409"
     rx="70"
     ry="35"
     id="ellipse2"
     style="opacity:0.2" />
  <path
     d="m 100,112.34409 c -2.8,0 -5,1.1 -5,2.5 l 35,97 c 0,1.4 2.2,2.5 5,2.5 2.8,0 5,-1.1 5,-2.5 l -35,-97 c 0,-1.4 -2.2,-2.5 -5,-2.5 z"
     id="path4"
     inkscape:connector-curvature="0"
     style="fill:#825012" />
  <path
     d="m 100,117.34409 c -2.8,0 -5,-1.1 -5,-2.5 l 35,97 c 0,1.4 2.2,2.5 5,2.5 2.8,0 5,-1.1 5,-2.5 l -35,-97 c 0,1.4 -2.2,2.5 -5,2.5 z"
     id="path6"
     inkscape:connector-curvature="0"
     style="opacity:0.2" />
  <path
     d="m 100,105.34409 c -2.8,0 -5,1.1 -5,2.5 l 35,63 c 0,1.4 2.2,2.5 5,2.5 2.8,0 5,-1.1 5,-2.5 l -35,-63 c 0,-1.4 -2.2,-2.5 -5,-2.5 z"
     id="path8"
     inkscape:connector-curvature="0"
     style="fill:#825012" />
  <path
     d="m 100,110.34409 c -2.8,0 -5,-1.1 -5,-2.5 l 35,63 c 0,1.4 2.2,2.5 5,2.5 2.8,0 5,-1.1 5,-2.5 l -35,-63 c 0,1.4 -2.2,2.5 -5,2.5 z"
     id="path10"
     inkscape:connector-curvature="0"
     style="opacity:0.2" />
  <path
     d="m 60,112.34409 c 2.8,0 5,1.1 5,2.5 l -35,97 c 0,1.4 -2.2,2.5 -5,2.5 -2.8,0 -5,-1.1 -5,-2.5 l 35,-97 c 0,-1.4 2.2,-2.5 5,-2.5 z"
     id="path12"
     inkscape:connector-curvature="0"
     style="fill:#825012" />
  <path
     d="m 60,117.34409 c 2.8,0 5,-1.1 5,-2.5 l -35,97 c 0,1.4 -2.2,2.5 -5,2.5 -2.8,0 -5,-1.1 -5,-2.5 l 35,-97 c 0,1.4 2.2,2.5 5,2.5 z"
     id="path14"
     inkscape:connector-curvature="0"
     style="opacity:0.2" />
  <path
     d="m 60,105.34409 c 2.8,0 5,1.1 5,2.5 l -35,63 c 0,1.4 -2.2,2.5 -5,2.5 -2.8,0 -5,-1.1 -5,-2.5 l 35,-63 c 0,-1.4 2.2,-2.5 5,-2.5 z"
     id="path16"
     inkscape:connector-curvature="0"
     style="fill:#825012" />
  <path
     d="m 60,110.34409 c 2.8,0 5,-1.1 5,-2.5 l -35,63 c 0,1.4 -2.2,2.5 -5,2.5 -2.8,0 -5,-1.1 -5,-2.5 l 35,-63 c 0,1.4 2.2,2.5 5,2.5 z"
     id="path18"
     inkscape:connector-curvature="0"
     style="opacity:0.2" />
  <path
     d="m 80,72.344088 c -44.2,0 -80,17.9 -80,40.000002 v 10 c 0,22.1 35.8,40 80,40 44.2,0 80,-17.9 80,-40 v -10 C 160,90.244088 124.2,72.344088 80,72.344088 Z"
     id="path20"
     inkscape:connector-curvature="0"
     style="fill:#825012" />
  <path
     d="m 80,152.34409 c -44.2,0 -80,-17.9 -80,-40 v 10 c 0,22.1 35.8,40 80,40 44.2,0 80,-17.9 80,-40 v -10 c 0,22.1 -35.8,40 -80,40 z"
     id="path22"
     inkscape:connector-curvature="0"
     style="opacity:0.2" />
  <path
     style="fill:#000000;fill-opacity:1;fill-rule:nonzero;stroke:none"
     id="path1"
     d="m 166.59592,41.696238 c -0.29507,1.660517 -0.6497,3.381995 -0.57445,5.079351 0.0253,0.571494 0.12971,1.136734 0.19457,1.705101 0.23104,0.639645 0.39542,1.307458 0.69312,1.918935 1.3141,2.69924 3.80498,4.650386 6.43687,5.969517 0.6964,0.349044 1.43127,0.615384 2.1469,0.923076 2.56109,1.006194 5.27864,1.53177 8.03155,1.519643 1.21466,-0.0054 2.03608,-0.120498 3.22416,-0.246734 0.43492,-0.0722 0.86984,-0.144406 1.30476,-0.216608 2.31921,-0.390296 1.76725,-3.67016 -0.55196,-3.279864 v 0 c -0.36977,0.06322 -0.73954,0.126432 -1.1093,0.189648 -0.94557,0.103603 -1.79234,0.218582 -2.74799,0.229727 -2.34771,0.02738 -4.66632,-0.402451 -6.85256,-1.257785 -0.59866,-0.24973 -1.21244,-0.465923 -1.79598,-0.749189 -2.39262,-1.161449 -4.53781,-2.866147 -5.48015,-5.419821 -0.0567,-0.388103 -0.14873,-0.77267 -0.17022,-1.16431 -0.0853,-1.554825 0.26156,-3.133236 0.53141,-4.653899 0.38664,-2.319827 -2.89409,-2.866615 -3.28073,-0.546788 z" />
  <path
     style="fill:#000000;fill-opacity:1;fill-rule:nonzero;stroke:none"
     id="path2"
     d="m 173.45432,42.582622 c -0.16689,1.015923 -0.20921,2.119084 0.0832,3.120069 0.0919,0.314753 0.23286,0.613086 0.34929,0.919629 0.19562,0.308809 0.3588,0.640728 0.58684,0.926426 0.96624,1.210513 2.35679,2.056079 3.76018,2.66086 0.33577,0.144701 0.68292,0.261449 1.02438,0.392173 1.65958,0.593253 3.39749,0.870605 5.14198,1.059544 0.77655,0.06742 1.56173,0.09072 2.33202,-0.05578 0.26567,-0.05052 0.52338,-0.136359 0.78507,-0.204539 2.2636,-0.638137 1.36114,-3.839345 -0.90246,-3.201208 v 0 c -0.60769,0.202109 -1.22048,0.234949 -1.8588,0.154627 -1.46512,-0.156486 -2.92674,-0.375843 -4.32388,-0.86457 -1.27716,-0.472372 -2.61432,-1.035158 -3.47322,-2.142028 -0.0547,-0.106056 -0.12302,-0.206154 -0.16422,-0.318168 -0.18925,-0.514561 -0.14725,-1.104621 -0.11371,-1.64037 0.5704,-2.281606 -2.65628,-3.088276 -3.22668,-0.806669 z" />
  <path
     style="fill:#000000;fill-opacity:1;fill-rule:nonzero;stroke:none"
     d="m 197.42814,18.199109 c -1.12377,1.821039 -6.80616,11.54502 -7.99763,13.316235 -1.84191,2.73816 -3.91735,5.309417 -5.91721,7.931095 -1.82881,2.348289 -3.6155,4.727755 -5.39197,7.115821 -1.36697,1.913759 1.33949,3.846948 2.70646,1.933189 1.75027,-2.350261 3.50865,-4.693437 5.30949,-7.005258 2.03368,-2.663444 4.13934,-5.278998 6.01304,-8.060477 1.2603,-1.870886 7.11133,-12.005428 8.29871,-13.928502"
     id="path25" />
  <path
     style="fill:#ff4400;fill-opacity:1;fill-rule:nonzero;stroke:none"
     d="m 200.44903,19.501212 c 3.01606,-5.054816 0.95608,-1.534904 3.89631,-6.633932 1.17481,-2.037382 -1.70649,-3.698804 -2.88129,-1.661422 v 0 c -2.92362,5.070262 -1.03834,1.966105 -4.03591,6.993251"
     id="path3" />
  <path
     style="fill:#ff4400;fill-opacity:1;fill-rule:nonzero;stroke:none"
     id="path5"
     d="m 202.38763,12.942201 c 1.19769,0.716912 2.33834,1.52853 3.48761,2.320399 1.60387,1.092546 3.20639,2.186507 4.7832,3.3179 0.26292,0.184002 0.52578,0.368088 0.78876,0.552005 0.46522,0.325347 0.91571,0.646834 1.39357,0.953299 0.69309,0.444498 1.41181,0.849936 2.11881,1.27162 1.33311,0.814476 2.63262,1.681609 3.94338,2.53099 1.05439,0.710859 2.03731,1.524015 3.02746,2.320927 0.81755,0.696435 1.6551,1.36847 2.48153,2.054359 0.71464,0.637902 1.4484,1.253613 2.212,1.832031 0.52113,0.394707 1.01985,0.816277 1.5562,1.191037 0.13923,0.112042 0.27322,0.230416 0.4092,0.346351 1.78968,1.525822 3.94752,-1.005167 2.15784,-2.530989 v 0 c -0.2195,-0.18714 -0.43576,-0.378682 -0.67018,-0.547408 -0.50211,-0.34518 -0.95596,-0.752359 -1.44723,-1.11207 -0.72473,-0.54667 -1.41467,-1.136322 -2.09382,-1.738397 -0.83936,-0.696502 -1.68974,-1.379225 -2.52038,-2.086106 -1.07896,-0.868116 -2.15126,-1.752129 -3.30414,-2.521074 -1.34545,-0.871544 -2.67904,-1.761802 -4.04825,-2.596201 -0.65794,-0.392361 -1.32902,-0.767689 -1.97452,-1.180471 -0.45504,-0.290983 -0.8922,-0.603666 -1.33477,-0.913093 -0.25229,-0.176388 -0.50451,-0.352884 -0.75676,-0.529326 -1.59412,-1.143342 -3.2133,-2.250196 -4.83482,-3.354197 -1.22609,-0.844785 -2.44378,-1.709165 -3.72454,-2.469349 -2.04196,-1.166833 -3.69211,1.72093 -1.65015,2.887763 z" />
  <path
     style="fill:#ff4400;fill-opacity:1;fill-rule:nonzero;stroke:none"
     id="path7"
     d="m 205.71113,7.585033 c 1.08382,0.78128 2.14118,1.598158 3.21493,2.393295 1.25544,0.889255 2.4272,1.888292 3.6521,2.817241 0.17761,0.134701 1.55671,1.139677 1.77168,1.29652 1.61632,1.155175 3.23651,2.305253 4.89668,3.396784 0.24649,0.159677 0.49245,0.320189 0.73948,0.479032 0.61559,0.395834 0.6837,0.424832 1.25415,0.821649 0.54152,0.376697 1.06464,0.779539 1.59712,1.168769 0.86064,0.590454 1.63984,1.283805 2.4339,1.957806 0.51002,0.378632 0.95099,0.841002 1.44178,1.241977 0.13177,0.107661 0.71819,0.547542 0.89023,0.677101 0.7319,0.550633 1.47072,1.091002 2.23633,1.59385 0.60453,0.354064 1.1862,0.744854 1.79163,1.09722 0.16226,0.106469 0.32575,0.210155 0.4822,0.32504 1.91135,1.370341 3.8493,-1.332713 1.93796,-2.703054 v 0 c -0.24708,-0.175037 -0.49732,-0.344595 -0.75629,-0.501867 -0.55359,-0.316275 -1.07666,-0.683016 -1.63106,-0.998271 -0.70602,-0.462593 -1.38487,-0.963287 -2.05996,-1.469788 -0.2246,-0.169134 -0.45984,-0.324476 -0.6774,-0.502563 -0.51144,-0.418642 -0.97292,-0.89888 -1.50333,-1.29552 -0.85559,-0.725977 -1.69785,-1.469561 -2.62368,-2.107358 -0.56615,-0.41355 -1.12253,-0.840662 -1.69881,-1.240197 -0.61539,-0.42665 -0.67168,-0.448148 -1.30658,-0.856322 -0.241,-0.154934 -0.48094,-0.311497 -0.72141,-0.467245 -1.61551,-1.060508 -3.18961,-2.181737 -4.76263,-3.303931 -0.0654,-0.04768 -1.61226,-1.17579 -1.67925,-1.226575 -1.24965,-0.947488 -2.44537,-1.966183 -3.72593,-2.87351 -1.04059,-0.770054 -2.06273,-1.564713 -3.11611,-2.31724 -1.83647,-1.469174 -3.9142,1.127983 -2.07773,2.597157 z" />
  <path
     style="fill:#ff4400;fill-opacity:1;fill-rule:nonzero;stroke:none"
     id="path9"
     d="m 209.33386,3.131413 c 0.78914,0.493143 1.51708,1.069239 2.24449,1.647185 1.27929,1.050499 2.56784,2.087657 3.88897,3.085062 0.39384,0.280039 0.7621,0.593009 1.13455,0.900156 1.81463,1.496073 3.93039,-1.070189 2.11577,-2.566262 v 0 c -0.40917,-0.337266 -0.81544,-0.678797 -1.2464,-0.988418 -1.29939,-0.980842 -2.56547,-2.002286 -3.82412,-3.034839 -0.8253,-0.655468 -1.65569,-1.303708 -2.55049,-1.863313 -1.99435,-1.246465 -3.75712,1.573964 -1.76277,2.820429 z" />
  <path
     style="fill:#000000;fill-opacity:1;fill-rule:nonzero;stroke:none"
     id="path15"
     d="m 124.94934,44.34455 c 2.17176,-0.05734 4.27338,0.506499 6.33915,1.10597 2.11311,0.64213 4.20937,1.338685 6.31002,2.020416 2.23697,0.725964 3.26364,-2.437597 1.02666,-3.163562 v 0 c -2.13499,-0.692856 -4.26547,-1.401038 -6.4136,-2.052178 -2.3671,-0.681019 -4.77716,-1.298175 -7.26223,-1.23663 -2.35183,0 -2.35183,3.325984 0,3.325984 z" />
  <path
     style="fill:#000000;fill-opacity:1;fill-rule:nonzero;stroke:none"
     id="path19"
     d="m 147.95295,50.809326 c 1.68601,0.278336 3.28902,0.852463 4.86996,1.482676 1.84787,0.794722 3.64154,1.704094 5.44001,2.60213 0.73923,0.390694 0.37836,0.196964 1.0829,0.580633 2.06569,1.124282 3.65567,-1.797046 1.58998,-2.921327 v 0 c -0.7644,-0.415815 -0.36871,-0.203751 -1.18758,-0.63522 -1.88314,-0.93944 -3.76091,-1.89191 -5.69825,-2.717571 -1.80178,-0.712486 -3.63079,-1.35743 -5.55023,-1.672052 -2.31982,-0.386637 -2.86661,2.894093 -0.54679,3.280731 z" />
  <path
     style="fill:#000000;fill-opacity:1;fill-rule:nonzero;stroke:none"
     id="path21"
     d="m 165.15354,58.516228 c 1.77866,0.770376 3.52758,1.613202 5.27436,2.454105 2.25731,1.114984 4.40423,2.432302 6.593,3.671759 2.04672,1.158463 3.68503,-1.736032 1.63831,-2.894495 v 0 c -2.25334,-1.274772 -4.46264,-2.631639 -6.78874,-3.774121 -1.78303,-0.85821 -3.56887,-1.716599 -5.38381,-2.504373 -2.15464,-0.942656 -3.48776,2.104469 -1.33312,3.047125 z" />
  <path
     style="fill:#000000;fill-opacity:1;fill-rule:nonzero;stroke:none"
     id="path23"
     d="m 183.63738,69.760165 c 2.29794,2.364402 4.47332,4.846178 6.66935,7.305008 1.05646,1.149867 2.0245,2.371955 2.96496,3.616453 1.41978,1.874921 4.07132,-0.132941 2.65154,-2.007863 v 0 c -0.99698,-1.314144 -2.01884,-2.608065 -3.13587,-3.824139 -2.18088,-2.441768 -4.33913,-4.909592 -6.6247,-7.25398 -1.53055,-1.78564 -4.05582,0.378882 -2.52528,2.164521 z" />
  <path
     style="fill:#000000;fill-opacity:1;fill-rule:nonzero;stroke:none"
     id="path24"
     d="m 197.81842,87.011791 c 1.52534,2.257099 2.86279,4.629226 4.15192,7.026447 0.76077,1.499093 0.39236,0.770598 1.10558,2.18531 1.05875,2.100033 4.02865,0.60274 2.9699,-1.497294 v 0 c -0.72947,-1.446891 -0.34758,-0.692282 -1.14631,-2.263505 -1.36811,-2.543135 -2.7889,-5.060563 -4.4203,-7.446549 -1.41109,-1.881461 -4.07188,0.11413 -2.66079,1.995591 z" />
</svg>
