<?xml version="1.0" encoding="UTF-8" standalone="no"?>
<svg
   id="svg8"
   version="1.1"
   viewBox="0 0 86.58844 42.556686"
   height="42.556686mm"
   width="86.58844mm"
   sodipodi:docname="12 soweli li lon supa..svg"
   inkscape:version="1.3 (0e150ed6c4, 2023-07-21)"
   xmlns:inkscape="http://www.inkscape.org/namespaces/inkscape"
   xmlns:sodipodi="http://sodipodi.sourceforge.net/DTD/sodipodi-0.dtd"
   xmlns="http://www.w3.org/2000/svg"
   xmlns:svg="http://www.w3.org/2000/svg"
   xmlns:rdf="http://www.w3.org/1999/02/22-rdf-syntax-ns#"
   xmlns:cc="http://creativecommons.org/ns#"
   xmlns:dc="http://purl.org/dc/elements/1.1/">
  <sodipodi:namedview
     id="namedview1"
     pagecolor="#ffffff"
     bordercolor="#000000"
     borderopacity="0.25"
     inkscape:showpageshadow="2"
     inkscape:pageopacity="0.0"
     inkscape:pagecheckerboard="0"
     inkscape:deskcolor="#d1d1d1"
     inkscape:document-units="mm"
     inkscape:zoom="2.6018972"
     inkscape:cx="193.1283"
     inkscape:cy="62.454426"
     inkscape:window-width="1920"
     inkscape:window-height="1051"
     inkscape:window-x="-9"
     inkscape:window-y="-9"
     inkscape:window-maximized="1"
     inkscape:current-layer="svg8" />
  <defs
     id="defs2" />
  <metadata
     id="metadata5">
    <rdf:RDF>
      <cc:Work
         rdf:about="">
        <dc:format>image/svg+xml</dc:format>
        <dc:type
           rdf:resource="http://purl.org/dc/dcmitype/StillImage" />
        <dc:title />
      </cc:Work>
    </rdf:RDF>
  </metadata>
  <g
     transform="translate(-84.094311,-86.870643)"
     id="layer1">
    <g
       transform="matrix(0.26458333,0,0,0.26458333,84.094311,77.83358)"
       id="g856">
      <ellipse
         style="opacity:0.2"
         cx="80"
         cy="160"
         rx="70"
         ry="35"
         id="ellipse815" />
      <path
         style="fill:#825012"
         d="m 100,80 c -2.8,0 -5,1.1 -5,2.5 l 35,97 c 0,1.4 2.2,2.5 5,2.5 2.8,0 5,-1.1 5,-2.5 l -35,-97 c 0,-1.4 -2.2,-2.5 -5,-2.5 z"
         id="path817" />
      <path
         style="opacity:0.2"
         d="m 100,85 c -2.8,0 -5,-1.1 -5,-2.5 l 35,97 c 0,1.4 2.2,2.5 5,2.5 2.8,0 5,-1.1 5,-2.5 l -35,-97 c 0,1.4 -2.2,2.5 -5,2.5 z"
         id="path819" />
      <path
         style="fill:#825012"
         d="m 100,73 c -2.8,0 -5,1.1 -5,2.5 l 35,63 c 0,1.4 2.2,2.5 5,2.5 2.8,0 5,-1.1 5,-2.5 l -35,-63 c 0,-1.4 -2.2,-2.5 -5,-2.5 z"
         id="path821" />
      <path
         style="opacity:0.2"
         d="m 100,78 c -2.8,0 -5,-1.1 -5,-2.5 l 35,63 c 0,1.4 2.2,2.5 5,2.5 2.8,0 5,-1.1 5,-2.5 l -35,-63 c 0,1.4 -2.2,2.5 -5,2.5 z"
         id="path823" />
      <path
         style="fill:#825012"
         d="m 60,80 c 2.8,0 5,1.1 5,2.5 l -35,97 c 0,1.4 -2.2,2.5 -5,2.5 -2.8,0 -5,-1.1 -5,-2.5 l 35,-97 C 55,81.1 57.2,80 60,80 Z"
         id="path825" />
      <path
         style="opacity:0.2"
         d="m 60,85 c 2.8,0 5,-1.1 5,-2.5 l -35,97 c 0,1.4 -2.2,2.5 -5,2.5 -2.8,0 -5,-1.1 -5,-2.5 l 35,-97 c 0,1.4 2.2,2.5 5,2.5 z"
         id="path827" />
      <path
         style="fill:#825012"
         d="m 60,73 c 2.8,0 5,1.1 5,2.5 l -35,63 c 0,1.4 -2.2,2.5 -5,2.5 -2.8,0 -5,-1.1 -5,-2.5 l 35,-63 C 55,74.1 57.2,73 60,73 Z"
         id="path829" />
      <path
         style="opacity:0.2"
         d="m 60,78 c 2.8,0 5,-1.1 5,-2.5 l -35,63 c 0,1.4 -2.2,2.5 -5,2.5 -2.8,0 -5,-1.1 -5,-2.5 l 35,-63 c 0,1.4 2.2,2.5 5,2.5 z"
         id="path831" />
      <path
         style="fill:#825012"
         d="M 80,40 C 35.8,40 0,57.9 0,80 v 10 c 0,22.1 35.8,40 80,40 44.2,0 80,-17.9 80,-40 V 80 C 160,57.9 124.2,40 80,40 Z"
         id="path833" />
      <path
         style="opacity:0.2"
         d="M 80,120 C 35.8,120 0,102.1 0,80 v 10 c 0,22.1 35.8,40 80,40 44.2,0 80,-17.9 80,-40 V 80 c 0,22.1 -35.8,40 -80,40 z"
         id="path835" />
    </g>
    <g
       transform="matrix(0.26458333,0,0,0.26458333,94.836394,64.101705)"
       id="g882">
      <path
         style="opacity:0.2"
         d="m 54.4,127.4 c 9.1,5.9 23.5,12.9 10.6,19.8 C 51.3,154.5 33.1,145.9 26.3,138 17.2,127.5 6.9,124 2.4,122.8 c -3.7,-1 -3.8,-3.1 4.4,-1.8 1.4,0.2 11.6,1.5 21.6,2.9 10.2,1.4 23.2,1.7 26,3.5 z"
         id="path858" />
      <path
         style="fill:#999999"
         d="m 46.3,127.9 c 0,0 0.8,2.9 2.8,4.1 2,1.2 6.1,3.4 6.5,4.3 0.4,0.9 1.4,3 3.5,2.6 2.1,-0.4 4.8,-2.2 4.1,-3.5 -0.7,-1.3 -1.7,-0.9 -3.8,-1.4 -2.1,-0.5 -5.2,-2.4 -6,-3.7 -0.9,-1.3 -1.7,-4 -1.7,-4 z"
         id="path860" />
      <path
         style="opacity:0.2"
         d="m 46.3,127.9 c 0,0 0.8,2.9 2.8,4.1 2,1.2 6.1,3.4 6.5,4.3 0.4,0.9 1.4,3 3.5,2.6 2.1,-0.4 4.8,-2.2 4.1,-3.5 -0.7,-1.3 -1.7,-0.9 -3.8,-1.4 -2.1,-0.5 -5.2,-2.4 -6,-3.7 -0.9,-1.3 -1.7,-4 -1.7,-4 z"
         id="path862" />
      <path
         style="fill:#999999"
         d="m 19.4,120.4 c 0,0 -8.5,-1.5 -12,-8.3 C 4,105.3 5.4,99.8 4.5,98.2 3.6,96.6 1.4,97 0.9,98.8 c -0.5,1.8 -1.2,13.5 4.9,19.8 6.3,6.3 13.8,7.8 13.8,7.8 0,0 1.8,6.3 5.5,8 3.7,1.7 5.1,0.5 5.1,0.5 0,0 -0.9,2 -0.2,3.1 0.7,1 8.4,3.1 9.5,4 1.1,1 2.1,3.8 4.9,2.8 2.8,-1 3.7,-2.1 3,-3.4 -0.7,-1.3 -2.6,-1.8 -4,-1.9 -1.4,-0.1 -6.5,-2.5 -6.5,-2.5 0,0 2.2,-2.1 2.7,-3.7 0.5,-1.6 0.3,-2.7 0.3,-2.7 l 6.9,-2.6 c 0,0 1.2,5.4 1.5,9.2 0.3,3.8 0.5,5.6 0.9,7.4 0.4,1.9 0.2,4.3 3.3,4 3.1,-0.3 4.3,-1.1 3.9,-2.3 -0.4,-1.2 -2.4,-2.4 -2.8,-4.6 -0.4,-2.1 0.1,-12.9 0.4,-14 0.2,-1.1 2.5,-7.1 2.5,-7.1 l 2.5,-0.5 c 0,0 1.1,7.8 1.5,11.3 0.4,3.5 0.7,9.2 0.7,10.4 0,1.2 0.7,2.6 2.2,2.7 1.5,0.2 4.6,-0.8 4.5,-2.1 -0.1,-1.3 -2.3,-3.1 -2.5,-4.6 -0.2,-1.5 -0.5,-14.8 0.9,-19.4 1.4,-4.6 2.4,-7.1 2.4,-7.1 L 60,91.5 c 0,0 -3.5,0.8 -7.9,0.7 -4.5,-0.1 -17.8,-0.1 -25.4,9.5 -7.8,9.7 -7.3,18.7 -7.3,18.7 z"
         id="path864" />
      <path
         style="fill:#e5e5e5"
         d="m 56.3,120.7 c 0,0 2.5,-2.1 2.7,-4.9 0.2,-2.8 1.8,-5.1 3.2,-6 1.4,-1 6.2,-3.4 6.2,-3.4 0,0 1.3,4.3 -0.5,7.3 -1.8,3 -4.8,5.4 -7.3,6.2 -2.5,0.8 -4.3,0.8 -4.3,0.8 z"
         id="path866" />
      <path
         style="opacity:0.2"
         d="m 46.8,128 c 0,0 -0.7,-3.1 -1,-5.4 -0.2,-2.4 -0.9,-6 -0.9,-6 0,0 -0.9,2.1 -2.8,3 -1.9,0.9 -3.7,1.3 -5.3,0.6 -1.6,-0.7 -5.4,-2.7 -5.4,-2.7 0,0 5.7,3.8 6.8,6.9 1.2,3.1 1.6,6.3 1.6,6.3 z"
         id="path868" />
      <path
         style="fill:#999999"
         d="m 58.2,96 c 0,0 -0.5,2.8 0.7,5.7 1.3,2.9 4,5.2 5.4,6.9 1.3,1.6 2.8,3.2 5.8,2.9 3,-0.4 3.2,-1.9 4.1,-3.1 0.9,-1.2 4.1,-5.7 4.6,-8.7 0.5,-3.1 0.1,-5.3 0.1,-5.3 0,0 2.1,-7.3 0.5,-8.2 -1.6,-0.9 -3.2,2.7 -5.1,2.9 -2,0.2 -2.9,-0.3 -5.1,-0.2 -2.2,0.1 -5.7,1 -5.7,1 0,0 -3.3,-3.4 -5.3,-2.7 -2.4,0.9 0,8.8 0,8.8 z"
         id="path870" />
      <path
         style="fill:#2d3134"
         d="m 69.7,110.5 c -0.6,0 -1.7,-1 -1.6,-1.5 0.1,-0.5 2.9,-0.5 3.1,0.1 0.2,0.5 -0.9,1.4 -1.5,1.4 z"
         id="path872" />
      <path
         style="fill:#2d3134"
         d="m 72,104.4 c 0,0 0.3,-1.8 1.8,-2.4 1.5,-0.6 2.1,-0.3 2.1,-0.3 0,0 -0.3,1.7 -1.5,2.3 -1.1,0.6 -2.4,0.4 -2.4,0.4 z"
         id="path874" />
      <path
         style="fill:#2d3134"
         d="m 67.3,104.4 c 0,0 -0.6,-1.8 -2,-2.3 -1.4,-0.5 -2.4,0 -2.4,0 0,0 0.2,1.5 1.4,2 1.2,0.5 3,0.3 3,0.3 z"
         id="path876" />
      <path
         style="opacity:0.2"
         d="m 72.9,93.3 c 0,0 4.8,-7.5 6.4,-6.9 1.2,0.4 -0.4,8 -0.4,8 0,0 -1.3,-1.2 -3,-1.5 -1.6,-0.3 -3,0.4 -3,0.4 z"
         id="path878" />
      <path
         style="opacity:0.2"
         d="m 65.2,93.2 c 0,0 -5.3,-6.3 -6.9,-5.8 -2.2,0.7 -0.1,8.6 -0.1,8.6 0,0 1.6,-2.1 2.9,-2.6 1.3,-0.5 4.1,-0.2 4.1,-0.2 z"
         id="path880" />
    </g>
  </g>
  <path
     style="fill:#000000;fill-opacity:1;fill-rule:nonzero;stroke:none;stroke-width:0.264583"
     d="m 79.035962,25.305364 c 0.1088,-0.91988 0.116756,-1.846692 0.176813,-2.770519 0.104402,-1.910676 0.183386,-3.822748 0.313905,-5.73195 0.153754,-2.209243 0.312621,-4.421029 0.700849,-6.604612 0.257106,-1.4111821 0.500333,-2.942347 1.394823,-4.1174895 0.127928,-0.1680645 0.281662,-0.3148172 0.422494,-0.4722258 0.149855,-0.1391237 0.290492,-0.2888875 0.449562,-0.4173711 0.457419,-0.3694615 1.003157,-0.6547379 1.607129,-0.5738506 0.116398,0.015589 0.228026,0.05631 0.342038,0.084465 0.38509,0.1865162 0.831977,0.3971284 1.060537,0.7839365 0.120774,0.2043933 0.138628,0.381236 0.188187,0.609825 0.0062,0.1234437 0.0208,0.2467537 0.01852,0.3703311 -0.01236,0.6758467 -0.228817,1.3371029 -0.588912,1.9052459 -0.214003,0.2916637 -0.48324,0.6860222 -0.870879,0.7475807 -0.622252,0 -0.622252,0.8800002 0,0.8800002 h 1.7e-5 c 0.51561,-0.02225 0.953442,-0.3507245 1.285756,-0.7245654 0.10422,-0.1172446 0.19158,-0.2484565 0.287367,-0.3726847 0.458136,-0.7008638 0.737296,-1.5177133 0.763294,-2.3585999 0.005,-0.16093 -0.01058,-0.32184 -0.01588,-0.48276 C 86.434332,5.1240743 86.079639,4.6072801 85.259478,4.1273648 85.122427,4.0471698 84.975819,3.9845608 84.833989,3.9131587 84.039786,3.6325028 83.333531,3.6803985 82.584274,4.0802985 82.057496,4.361454 81.896474,4.557695 81.45137,4.9588037 81.2904,5.1364938 81.115209,5.3022709 80.968455,5.491874 79.955233,6.8009594 79.653129,8.4545999 79.3619,10.039902 c -0.394555,2.215704 -0.55707,4.460031 -0.713095,6.701896 -0.130929,1.913556 -0.210076,3.829996 -0.314719,5.745033 -0.06109,0.904983 -0.06444,1.813568 -0.171979,2.71473"
     id="path8" />
  <path
     style="fill:#ff4400;fill-opacity:1;fill-rule:nonzero;stroke:none;stroke-width:0.264583"
     d="m 78.162107,25.201561 c -0.06857,0.458543 -0.100671,0.921469 -0.157911,1.381222 -0.02823,0.31358 -0.07918,0.623773 -0.127146,0.934697 -0.09483,0.614986 0.774893,0.749093 0.86972,0.134107 v 0 c 0.04928,-0.319757 0.101296,-0.638892 0.130834,-0.961298 0.0562,-0.46117 0.09063,-0.925006 0.158358,-1.384925"
     id="path1" />
  <path
     style="fill:#ff4400;fill-opacity:1;fill-rule:nonzero;stroke:none;stroke-width:0.264583"
     id="path2"
     d="m 78.17413,26.982122 c -0.348187,0.0056 -0.69722,-0.01614 -1.044393,0.01981 -0.102116,0.01057 -0.203395,0.02806 -0.305093,0.0421 -0.274035,0.07259 -0.462638,0.106149 -0.717286,0.241987 -0.56824,0.303121 -0.957217,0.760125 -1.348986,1.254235 -0.367615,0.475097 -0.626488,1.013958 -0.711652,1.612144 -0.05258,0.369306 -0.03126,0.542602 -0.01905,0.909647 0.03092,0.163545 0.05079,0.32957 0.09276,0.490635 0.169905,0.652104 0.505579,1.294891 0.908235,1.833024 0.101214,0.135268 0.217009,0.258982 0.325512,0.388472 0.339873,0.326575 0.340548,0.358881 0.74345,0.616551 0.127278,0.0814 0.254016,0.168034 0.395084,0.222117 0.181229,0.06948 0.372213,0.114464 0.563806,0.14551 0.472611,0.07659 0.641466,0.02574 1.112988,-0.02561 0.698106,-0.148767 1.356601,-0.451496 1.890972,-0.930902 0.310615,-0.27867 0.391628,-0.416584 0.638709,-0.742328 0.287353,-0.466728 0.559229,-0.967658 0.651785,-1.515601 0.0532,-0.314967 0.03441,-0.4693 0.02593,-0.78238 -0.04789,-0.477496 -0.163324,-0.942434 -0.362987,-1.379306 -0.117033,-0.256074 -0.197675,-0.384276 -0.336505,-0.626584 -0.378476,-0.629884 -0.840928,-0.978477 -1.474261,-1.321608 -0.323395,-0.168055 -0.672938,-0.265087 -1.025265,-0.3491 -0.605618,-0.142928 -0.807747,0.713544 -0.202132,0.856471 v 0 c 0.27808,0.0648 0.554758,0.137701 0.810943,0.267849 0.471226,0.250454 0.849487,0.514872 1.127919,0.985186 0.304466,0.526837 0.52197,0.980167 0.582795,1.596918 0.0079,0.183093 0.02461,0.362196 -0.0016,0.545032 -0.06203,0.432132 -0.285093,0.825185 -0.501086,1.195766 -0.182798,0.248356 -0.252733,0.367072 -0.480965,0.580133 -0.40541,0.378465 -0.913961,0.619323 -1.449708,0.746797 -0.400608,0.05483 -0.410583,0.08009 -0.813622,0.0409 -0.11125,-0.01082 -0.225185,-0.01913 -0.330523,-0.0565 -0.113499,-0.04027 -0.214307,-0.110415 -0.317035,-0.173273 -0.317828,-0.194479 -0.301693,-0.206414 -0.577447,-0.465113 -0.08813,-0.102434 -0.182904,-0.199499 -0.26438,-0.307295 -0.416814,-0.551458 -0.729131,-1.187954 -0.854004,-1.86953 -0.0127,-0.283117 -0.03032,-0.420034 0.0024,-0.702465 0.05384,-0.46403 0.256286,-0.875424 0.540636,-1.241573 0.282678,-0.36305 0.590524,-0.75385 0.998,-0.98686 0.171125,-0.09785 0.314135,-0.128058 0.499804,-0.182015 0.411403,-0.05999 0.811482,-0.06095 1.226224,-0.05324 0.622255,0 0.622255,-0.88 0,-0.88 z" />
  <path
     style="fill:#ff4400;fill-opacity:1;fill-rule:nonzero;stroke:none;stroke-width:0.264583"
     d="m 72.443003,34.428852 c 1.22818,0.100671 2.456527,0.211097 3.67143,0.423852 1.062995,0.172421 2.126628,0.351194 3.202459,0.422785 0.671602,0.06084 1.343855,0.139504 2.018757,0.145394 0.622255,0 0.622255,-0.879999 0,-0.879999 -0.6483,-0.0072 -1.294164,-0.08336 -1.939369,-0.141806 -1.055241,-0.06974 -2.098358,-0.245909 -3.140948,-0.415023 -1.237777,-0.216469 -2.489145,-0.329615 -3.74041,-0.43226"
     id="path7" />
  <path
     style="fill:#000000;fill-opacity:1;fill-rule:nonzero;stroke:none;stroke-width:0.264583"
     d="m 72.514922,33.551795 c -1.483918,-0.132421 -2.972307,-0.19925 -4.460075,-0.270478 -1.489636,-0.0683 -2.977865,-0.169828 -4.463767,-0.294968 -1.166612,-0.100939 -2.329633,-0.234239 -3.490619,-0.385578 -0.501346,-0.07271 -1.001038,-0.15612 -1.502082,-0.230798 -0.61546,-0.0917 -0.745143,0.778692 -0.129683,0.870392 v 0 c 0.506355,0.07542 1.011296,0.15999 1.518015,0.233023 1.174263,0.15307 2.350604,0.287777 3.530555,0.389859 1.496478,0.125904 2.995269,0.228332 4.495501,0.297063 1.477815,0.07074 2.956253,0.136954 4.430236,0.268542"
     id="path3" />
  <path
     style="fill:#000000;fill-opacity:1;fill-rule:nonzero;stroke:none;stroke-width:0.264583"
     id="path4"
     d="m 58.784527,32.728417 c 0.05296,-0.319717 0.107987,-0.63908 0.163361,-0.9584 0.14999,-0.722384 0.292008,-1.44638 0.435841,-2.170026 0.124962,-0.622533 0.260305,-1.242938 0.39833,-1.86269 0.06407,-0.280105 0.139446,-0.557657 0.195641,-0.839503 0.03592,-0.19707 0.07543,-0.393591 0.116845,-0.589583 0.03437,-0.185785 0.08163,-0.36869 0.126465,-0.552139 0.05663,-0.240964 0.118002,-0.480725 0.176366,-0.721267 0.04287,-0.201345 0.09356,-0.400905 0.139298,-0.601606 0.0055,-0.02607 0.0109,-0.05214 0.01635,-0.07821 0.126712,-0.609216 -0.734848,-0.788414 -0.861562,-0.179199 v 0 c -0.0043,0.02068 -0.0085,0.04136 -0.01283,0.06205 -0.04474,0.196685 -0.09463,0.392195 -0.136458,0.589533 -0.05821,0.240062 -0.11947,0.479335 -0.176009,0.719802 -0.04707,0.192661 -0.09636,0.384867 -0.132779,0.57991 -0.04181,0.19959 -0.08257,0.399517 -0.119001,0.600155 -0.05371,0.275118 -0.130564,0.545204 -0.191291,0.818792 -0.139441,0.626315 -0.276252,1.253272 -0.402482,1.882402 -0.145232,0.730694 -0.28901,1.461664 -0.439782,2.191218 -0.0598,0.344854 -0.12191,0.689498 -0.173263,1.035681 -0.05168,0.620104 0.825283,0.693185 0.87696,0.07308 z" />
  <path
     style="fill:#000000;fill-opacity:1;fill-rule:nonzero;stroke:none;stroke-width:0.264583"
     id="path5"
     d="m 57.464497,24.020679 c -0.01326,0.03672 -0.02766,0.07304 -0.03978,0.110154 -0.07442,0.227917 -0.130056,0.461327 -0.190387,0.693207 -0.0266,0.102239 -0.118483,0.454248 -0.145399,0.557378 -0.14383,0.535729 -0.257027,1.078801 -0.380193,1.619439 -0.126418,0.513038 -0.245848,1.027588 -0.362373,1.542958 -0.131612,0.607087 -0.274159,1.211724 -0.409647,1.817938 -0.09397,0.397633 -0.170349,0.799249 -0.262278,1.197294 -0.04998,0.194515 -0.09146,0.390918 -0.122042,0.589387 -0.01574,0.09635 -0.02836,0.192818 -0.04727,0.288592 -0.119944,0.610584 0.743553,0.780209 0.863497,0.169624 v 0 c 0.02111,-0.107944 0.03644,-0.21654 0.05365,-0.325138 0.02683,-0.176975 0.06544,-0.351666 0.109739,-0.525077 0.09179,-0.400009 0.169661,-0.803188 0.263522,-1.202774 0.135282,-0.605504 0.277752,-1.209401 0.40916,-1.815777 0.116422,-0.514919 0.23585,-1.02899 0.362069,-1.541601 0.121071,-0.531688 0.232302,-1.06578 0.373647,-1.592653 0.027,-0.103456 0.119073,-0.456188 0.145696,-0.558517 0.05364,-0.206156 0.102248,-0.414359 0.167026,-0.617429 0.0086,-0.02702 0.01894,-0.05345 0.02842,-0.08018 0.231101,-0.577748 -0.585959,-0.904572 -0.817059,-0.326823 z" />
  <path
     style="fill:#000000;fill-opacity:1;fill-rule:nonzero;stroke:none;stroke-width:0.264583"
     id="path6"
     d="m 54.134014,32.078211 c 0.09454,-0.427338 0.15929,-0.860802 0.232389,-1.292204 0.01437,-0.0797 0.02876,-0.159399 0.04313,-0.239098 0.110403,-0.612382 -0.755634,-0.768515 -0.866037,-0.156133 v 0 c -0.01492,0.08274 -0.02982,0.165491 -0.04473,0.248236 -0.07666,0.452579 -0.149622,0.905804 -0.240789,1.355768 -0.059,0.619451 0.817039,0.702882 0.876035,0.08343 z" />
</svg>
