<?xml version="1.0" encoding="UTF-8" standalone="no"?>
<svg
   id="svg8"
   version="1.1"
   viewBox="0 0 90.784355 42.556686"
   height="42.556686mm"
   width="90.784355mm"
   sodipodi:docname="12 soweli li lon supa..svg"
   inkscape:version="1.3 (0e150ed6c4, 2023-07-21)"
   xmlns:inkscape="http://www.inkscape.org/namespaces/inkscape"
   xmlns:sodipodi="http://sodipodi.sourceforge.net/DTD/sodipodi-0.dtd"
   xmlns="http://www.w3.org/2000/svg"
   xmlns:svg="http://www.w3.org/2000/svg"
   xmlns:rdf="http://www.w3.org/1999/02/22-rdf-syntax-ns#"
   xmlns:cc="http://creativecommons.org/ns#"
   xmlns:dc="http://purl.org/dc/elements/1.1/">
  <sodipodi:namedview
     id="namedview1"
     pagecolor="#ffffff"
     bordercolor="#000000"
     borderopacity="0.25"
     inkscape:showpageshadow="2"
     inkscape:pageopacity="0.0"
     inkscape:pagecheckerboard="0"
     inkscape:deskcolor="#d1d1d1"
     inkscape:document-units="mm"
     inkscape:zoom="0.6504743"
     inkscape:cx="221.37692"
     inkscape:cy="60.72492"
     inkscape:window-width="1920"
     inkscape:window-height="1051"
     inkscape:window-x="-9"
     inkscape:window-y="-9"
     inkscape:window-maximized="1"
     inkscape:current-layer="svg8" />
  <defs
     id="defs2" />
  <metadata
     id="metadata5">
    <rdf:RDF>
      <cc:Work
         rdf:about="">
        <dc:format>image/svg+xml</dc:format>
        <dc:type
           rdf:resource="http://purl.org/dc/dcmitype/StillImage" />
        <dc:title />
      </cc:Work>
    </rdf:RDF>
  </metadata>
  <g
     transform="translate(-84.094311,-86.870643)"
     id="layer1">
    <g
       transform="matrix(0.26458333,0,0,0.26458333,84.094311,77.83358)"
       id="g856">
      <ellipse
         style="opacity:0.2"
         cx="80"
         cy="160"
         rx="70"
         ry="35"
         id="ellipse815" />
      <path
         style="fill:#825012"
         d="m 100,80 c -2.8,0 -5,1.1 -5,2.5 l 35,97 c 0,1.4 2.2,2.5 5,2.5 2.8,0 5,-1.1 5,-2.5 l -35,-97 c 0,-1.4 -2.2,-2.5 -5,-2.5 z"
         id="path817" />
      <path
         style="opacity:0.2"
         d="m 100,85 c -2.8,0 -5,-1.1 -5,-2.5 l 35,97 c 0,1.4 2.2,2.5 5,2.5 2.8,0 5,-1.1 5,-2.5 l -35,-97 c 0,1.4 -2.2,2.5 -5,2.5 z"
         id="path819" />
      <path
         style="fill:#825012"
         d="m 100,73 c -2.8,0 -5,1.1 -5,2.5 l 35,63 c 0,1.4 2.2,2.5 5,2.5 2.8,0 5,-1.1 5,-2.5 l -35,-63 c 0,-1.4 -2.2,-2.5 -5,-2.5 z"
         id="path821" />
      <path
         style="opacity:0.2"
         d="m 100,78 c -2.8,0 -5,-1.1 -5,-2.5 l 35,63 c 0,1.4 2.2,2.5 5,2.5 2.8,0 5,-1.1 5,-2.5 l -35,-63 c 0,1.4 -2.2,2.5 -5,2.5 z"
         id="path823" />
      <path
         style="fill:#825012"
         d="m 60,80 c 2.8,0 5,1.1 5,2.5 l -35,97 c 0,1.4 -2.2,2.5 -5,2.5 -2.8,0 -5,-1.1 -5,-2.5 l 35,-97 C 55,81.1 57.2,80 60,80 Z"
         id="path825" />
      <path
         style="opacity:0.2"
         d="m 60,85 c 2.8,0 5,-1.1 5,-2.5 l -35,97 c 0,1.4 -2.2,2.5 -5,2.5 -2.8,0 -5,-1.1 -5,-2.5 l 35,-97 c 0,1.4 2.2,2.5 5,2.5 z"
         id="path827" />
      <path
         style="fill:#825012"
         d="m 60,73 c 2.8,0 5,1.1 5,2.5 l -35,63 c 0,1.4 -2.2,2.5 -5,2.5 -2.8,0 -5,-1.1 -5,-2.5 l 35,-63 C 55,74.1 57.2,73 60,73 Z"
         id="path829" />
      <path
         style="opacity:0.2"
         d="m 60,78 c 2.8,0 5,-1.1 5,-2.5 l -35,63 c 0,1.4 -2.2,2.5 -5,2.5 -2.8,0 -5,-1.1 -5,-2.5 l 35,-63 c 0,1.4 2.2,2.5 5,2.5 z"
         id="path831" />
      <path
         style="fill:#825012"
         d="M 80,40 C 35.8,40 0,57.9 0,80 v 10 c 0,22.1 35.8,40 80,40 44.2,0 80,-17.9 80,-40 V 80 C 160,57.9 124.2,40 80,40 Z"
         id="path833" />
      <path
         style="opacity:0.2"
         d="M 80,120 C 35.8,120 0,102.1 0,80 v 10 c 0,22.1 35.8,40 80,40 44.2,0 80,-17.9 80,-40 V 80 c 0,22.1 -35.8,40 -80,40 z"
         id="path835" />
    </g>
    <g
       transform="matrix(0.26458333,0,0,0.26458333,94.836394,64.101705)"
       id="g882">
      <path
         style="opacity:0.2"
         d="m 54.4,127.4 c 9.1,5.9 23.5,12.9 10.6,19.8 C 51.3,154.5 33.1,145.9 26.3,138 17.2,127.5 6.9,124 2.4,122.8 c -3.7,-1 -3.8,-3.1 4.4,-1.8 1.4,0.2 11.6,1.5 21.6,2.9 10.2,1.4 23.2,1.7 26,3.5 z"
         id="path858" />
      <path
         style="fill:#999999"
         d="m 46.3,127.9 c 0,0 0.8,2.9 2.8,4.1 2,1.2 6.1,3.4 6.5,4.3 0.4,0.9 1.4,3 3.5,2.6 2.1,-0.4 4.8,-2.2 4.1,-3.5 -0.7,-1.3 -1.7,-0.9 -3.8,-1.4 -2.1,-0.5 -5.2,-2.4 -6,-3.7 -0.9,-1.3 -1.7,-4 -1.7,-4 z"
         id="path860" />
      <path
         style="opacity:0.2"
         d="m 46.3,127.9 c 0,0 0.8,2.9 2.8,4.1 2,1.2 6.1,3.4 6.5,4.3 0.4,0.9 1.4,3 3.5,2.6 2.1,-0.4 4.8,-2.2 4.1,-3.5 -0.7,-1.3 -1.7,-0.9 -3.8,-1.4 -2.1,-0.5 -5.2,-2.4 -6,-3.7 -0.9,-1.3 -1.7,-4 -1.7,-4 z"
         id="path862" />
      <path
         style="fill:#999999"
         d="m 19.4,120.4 c 0,0 -8.5,-1.5 -12,-8.3 C 4,105.3 5.4,99.8 4.5,98.2 3.6,96.6 1.4,97 0.9,98.8 c -0.5,1.8 -1.2,13.5 4.9,19.8 6.3,6.3 13.8,7.8 13.8,7.8 0,0 1.8,6.3 5.5,8 3.7,1.7 5.1,0.5 5.1,0.5 0,0 -0.9,2 -0.2,3.1 0.7,1 8.4,3.1 9.5,4 1.1,1 2.1,3.8 4.9,2.8 2.8,-1 3.7,-2.1 3,-3.4 -0.7,-1.3 -2.6,-1.8 -4,-1.9 -1.4,-0.1 -6.5,-2.5 -6.5,-2.5 0,0 2.2,-2.1 2.7,-3.7 0.5,-1.6 0.3,-2.7 0.3,-2.7 l 6.9,-2.6 c 0,0 1.2,5.4 1.5,9.2 0.3,3.8 0.5,5.6 0.9,7.4 0.4,1.9 0.2,4.3 3.3,4 3.1,-0.3 4.3,-1.1 3.9,-2.3 -0.4,-1.2 -2.4,-2.4 -2.8,-4.6 -0.4,-2.1 0.1,-12.9 0.4,-14 0.2,-1.1 2.5,-7.1 2.5,-7.1 l 2.5,-0.5 c 0,0 1.1,7.8 1.5,11.3 0.4,3.5 0.7,9.2 0.7,10.4 0,1.2 0.7,2.6 2.2,2.7 1.5,0.2 4.6,-0.8 4.5,-2.1 -0.1,-1.3 -2.3,-3.1 -2.5,-4.6 -0.2,-1.5 -0.5,-14.8 0.9,-19.4 1.4,-4.6 2.4,-7.1 2.4,-7.1 L 60,91.5 c 0,0 -3.5,0.8 -7.9,0.7 -4.5,-0.1 -17.8,-0.1 -25.4,9.5 -7.8,9.7 -7.3,18.7 -7.3,18.7 z"
         id="path864" />
      <path
         style="fill:#e5e5e5"
         d="m 56.3,120.7 c 0,0 2.5,-2.1 2.7,-4.9 0.2,-2.8 1.8,-5.1 3.2,-6 1.4,-1 6.2,-3.4 6.2,-3.4 0,0 1.3,4.3 -0.5,7.3 -1.8,3 -4.8,5.4 -7.3,6.2 -2.5,0.8 -4.3,0.8 -4.3,0.8 z"
         id="path866" />
      <path
         style="opacity:0.2"
         d="m 46.8,128 c 0,0 -0.7,-3.1 -1,-5.4 -0.2,-2.4 -0.9,-6 -0.9,-6 0,0 -0.9,2.1 -2.8,3 -1.9,0.9 -3.7,1.3 -5.3,0.6 -1.6,-0.7 -5.4,-2.7 -5.4,-2.7 0,0 5.7,3.8 6.8,6.9 1.2,3.1 1.6,6.3 1.6,6.3 z"
         id="path868" />
      <path
         style="fill:#999999"
         d="m 58.2,96 c 0,0 -0.5,2.8 0.7,5.7 1.3,2.9 4,5.2 5.4,6.9 1.3,1.6 2.8,3.2 5.8,2.9 3,-0.4 3.2,-1.9 4.1,-3.1 0.9,-1.2 4.1,-5.7 4.6,-8.7 0.5,-3.1 0.1,-5.3 0.1,-5.3 0,0 2.1,-7.3 0.5,-8.2 -1.6,-0.9 -3.2,2.7 -5.1,2.9 -2,0.2 -2.9,-0.3 -5.1,-0.2 -2.2,0.1 -5.7,1 -5.7,1 0,0 -3.3,-3.4 -5.3,-2.7 -2.4,0.9 0,8.8 0,8.8 z"
         id="path870" />
      <path
         style="fill:#2d3134"
         d="m 69.7,110.5 c -0.6,0 -1.7,-1 -1.6,-1.5 0.1,-0.5 2.9,-0.5 3.1,0.1 0.2,0.5 -0.9,1.4 -1.5,1.4 z"
         id="path872" />
      <path
         style="fill:#2d3134"
         d="m 72,104.4 c 0,0 0.3,-1.8 1.8,-2.4 1.5,-0.6 2.1,-0.3 2.1,-0.3 0,0 -0.3,1.7 -1.5,2.3 -1.1,0.6 -2.4,0.4 -2.4,0.4 z"
         id="path874" />
      <path
         style="fill:#2d3134"
         d="m 67.3,104.4 c 0,0 -0.6,-1.8 -2,-2.3 -1.4,-0.5 -2.4,0 -2.4,0 0,0 0.2,1.5 1.4,2 1.2,0.5 3,0.3 3,0.3 z"
         id="path876" />
      <path
         style="opacity:0.2"
         d="m 72.9,93.3 c 0,0 4.8,-7.5 6.4,-6.9 1.2,0.4 -0.4,8 -0.4,8 0,0 -1.3,-1.2 -3,-1.5 -1.6,-0.3 -3,0.4 -3,0.4 z"
         id="path878" />
      <path
         style="opacity:0.2"
         d="m 65.2,93.2 c 0,0 -5.3,-6.3 -6.9,-5.8 -2.2,0.7 -0.1,8.6 -0.1,8.6 0,0 1.6,-2.1 2.9,-2.6 1.3,-0.5 4.1,-0.2 4.1,-0.2 z"
         id="path880" />
    </g>
  </g>
  <path
     style="fill:#000000;fill-opacity:1;fill-rule:nonzero;stroke:none;stroke-width:0.264583"
     d="m 77.741677,27.750124 c 0.1088,-0.91988 0.116756,-1.846692 0.176813,-2.770519 0.104402,-1.910676 0.183386,-3.822748 0.313905,-5.73195 0.153754,-2.209243 0.312621,-4.421029 0.700849,-6.604612 0.257106,-1.411181 0.500333,-2.9423457 1.394823,-4.1174886 0.127928,-0.1680645 0.281662,-0.3148172 0.422494,-0.4722258 0.149855,-0.1391237 0.290492,-0.2888875 0.449562,-0.4173711 0.457419,-0.3694615 1.003157,-0.6547379 1.607129,-0.5738506 0.116398,0.015589 0.228026,0.05631 0.342038,0.084465 0.38509,0.1865162 0.831977,0.3971284 1.060537,0.7839365 0.120774,0.2043933 0.138628,0.381236 0.188187,0.609825 0.0062,0.1234437 0.0208,0.2467537 0.01852,0.3703311 -0.01236,0.6758468 -0.228817,1.3371025 -0.588912,1.9052455 -0.214003,0.291664 -0.48324,0.686022 -0.870879,0.747581 -0.622252,0 -0.622252,0.88 0,0.88 h 1.7e-5 c 0.51561,-0.02225 0.953442,-0.350725 1.285756,-0.724565 0.10422,-0.117245 0.19158,-0.248457 0.287367,-0.372685 0.458136,-0.700864 0.737296,-1.5177127 0.763294,-2.3585997 0.005,-0.16093 -0.01058,-0.32184 -0.01588,-0.48276 C 85.140047,7.5688352 84.785354,7.052041 83.965193,6.5721257 83.828142,6.4919307 83.681534,6.4293217 83.539704,6.3579196 82.745501,6.0772637 82.039246,6.1251594 81.289989,6.5250594 c -0.526778,0.2811555 -0.6878,0.4773965 -1.132904,0.8785052 -0.16097,0.1776901 -0.336161,0.3434672 -0.482915,0.5330703 -1.013222,1.3090854 -1.315326,2.9627261 -1.606555,4.5480271 -0.394555,2.215704 -0.55707,4.460031 -0.713095,6.701896 -0.130929,1.913556 -0.210076,3.829996 -0.314719,5.745033 -0.06109,0.904983 -0.06444,1.813568 -0.171979,2.71473"
     id="path8" />
  <path
     style="fill:#ff4400;fill-opacity:1;fill-rule:nonzero;stroke:none;stroke-width:0.264583"
     d="m 76.867822,27.646321 c -0.06857,0.458543 -0.100671,0.921469 -0.157911,1.381222 -0.02823,0.31358 -0.07918,0.623773 -0.127146,0.934697 -0.09483,0.614986 0.774893,0.749093 0.86972,0.134107 v 0 c 0.04928,-0.319757 0.101296,-0.638892 0.130834,-0.961298 0.0562,-0.46117 0.09063,-0.925006 0.158358,-1.384925"
     id="path1" />
  <path
     style="fill:#ff4400;fill-opacity:1;fill-rule:nonzero;stroke:none;stroke-width:0.264583"
     id="path2"
     d="m 76.879845,29.426882 c -0.348187,0.0056 -0.69722,-0.01614 -1.044393,0.01981 -0.102116,0.01057 -0.203395,0.02806 -0.305093,0.0421 -0.274035,0.07259 -0.462638,0.106149 -0.717286,0.241987 -0.56824,0.303121 -0.957217,0.760125 -1.348986,1.254235 -0.367615,0.475097 -0.626488,1.013958 -0.711652,1.612144 -0.05258,0.369306 -0.03126,0.542602 -0.01905,0.909647 0.03092,0.163545 0.05079,0.32957 0.09276,0.490635 0.169905,0.652104 0.505579,1.294891 0.908235,1.833024 0.101214,0.135268 0.217009,0.258982 0.325512,0.388472 0.339873,0.326575 0.340548,0.358881 0.74345,0.616551 0.127278,0.0814 0.254016,0.168034 0.395084,0.222117 0.181229,0.06948 0.372213,0.114464 0.563806,0.14551 0.472611,0.07659 0.641466,0.02574 1.112988,-0.02561 0.698106,-0.148767 1.356601,-0.451496 1.890972,-0.930902 0.310615,-0.27867 0.391628,-0.416584 0.638709,-0.742328 0.287353,-0.466728 0.559229,-0.967658 0.651785,-1.515601 0.0532,-0.314967 0.03441,-0.4693 0.02593,-0.78238 -0.04789,-0.477496 -0.163324,-0.942434 -0.362987,-1.379306 -0.117033,-0.256074 -0.197675,-0.384276 -0.336505,-0.626584 -0.378476,-0.629884 -0.840928,-0.978477 -1.474261,-1.321608 -0.323395,-0.168055 -0.672938,-0.265087 -1.025265,-0.3491 -0.605618,-0.142928 -0.807747,0.713544 -0.202132,0.856471 v 0 c 0.27808,0.0648 0.554758,0.137701 0.810943,0.267849 0.471226,0.250454 0.849487,0.514872 1.127919,0.985186 0.304466,0.526837 0.52197,0.980167 0.582795,1.596918 0.0079,0.183093 0.02461,0.362196 -0.0016,0.545032 -0.06203,0.432132 -0.285093,0.825185 -0.501086,1.195766 -0.182798,0.248356 -0.252733,0.367072 -0.480965,0.580133 -0.40541,0.378465 -0.913961,0.619323 -1.449708,0.746797 -0.400608,0.05483 -0.410583,0.08009 -0.813622,0.0409 -0.11125,-0.01082 -0.225185,-0.01913 -0.330523,-0.0565 -0.113499,-0.04027 -0.214307,-0.110415 -0.317035,-0.173273 -0.317828,-0.194479 -0.301693,-0.206414 -0.577447,-0.465113 -0.08813,-0.102434 -0.182904,-0.199499 -0.26438,-0.307295 -0.416814,-0.551458 -0.729131,-1.187954 -0.854004,-1.86953 -0.0127,-0.283117 -0.03032,-0.420034 0.0024,-0.702465 0.05384,-0.46403 0.256286,-0.875424 0.540636,-1.241573 0.282678,-0.36305 0.590524,-0.75385 0.998,-0.98686 0.171125,-0.09785 0.314135,-0.128058 0.499804,-0.182015 0.411403,-0.05999 0.811482,-0.06095 1.226224,-0.05324 0.622255,0 0.622255,-0.88 0,-0.88 z" />
  <path
     style="fill:#ff4400;fill-opacity:1;fill-rule:nonzero;stroke:none;stroke-width:0.264583"
     d="m 71.148718,36.873612 c 1.22818,0.100671 2.456527,0.211097 3.67143,0.423852 1.062995,0.172421 2.126628,0.351194 3.202459,0.422785 0.671602,0.06084 1.343855,0.139504 2.018757,0.145394 0.622255,0 0.622255,-0.879999 0,-0.879999 -0.6483,-0.0072 -1.294164,-0.08336 -1.939369,-0.141806 -1.055241,-0.06974 -2.098358,-0.245909 -3.140948,-0.415023 -1.237777,-0.216469 -2.489145,-0.329615 -3.74041,-0.43226"
     id="path7" />
  <path
     style="fill:#000000;fill-opacity:1;fill-rule:nonzero;stroke:none;stroke-width:0.264583"
     d="m 71.220637,35.996555 c -1.483918,-0.132421 -2.972307,-0.19925 -4.460075,-0.270478 -1.489636,-0.0683 -2.977865,-0.169828 -4.463767,-0.294968 -1.166612,-0.100939 -2.329633,-0.234239 -3.490619,-0.385578 -0.501346,-0.07271 -1.001038,-0.15612 -1.502082,-0.230798 -0.61546,-0.0917 -0.745143,0.778692 -0.129683,0.870392 v 0 c 0.506355,0.07542 1.011296,0.15999 1.518015,0.233023 1.174263,0.15307 2.350604,0.287777 3.530555,0.389859 1.496478,0.125904 2.995269,0.228332 4.495501,0.297063 1.477815,0.07074 2.956253,0.136954 4.430236,0.268542"
     id="path3" />
  <path
     style="fill:#000000;fill-opacity:1;fill-rule:nonzero;stroke:none;stroke-width:0.264583"
     id="path6"
     d="m 52.839729,34.522971 c 0.09454,-0.427338 0.15929,-0.860802 0.232389,-1.292204 0.01437,-0.0797 0.02876,-0.159399 0.04313,-0.239098 0.110403,-0.612382 -0.755634,-0.768515 -0.866037,-0.156133 v 0 c -0.01492,0.08274 -0.02982,0.165491 -0.04473,0.248236 -0.07666,0.452579 -0.149622,0.905804 -0.240789,1.355768 -0.059,0.619451 0.817039,0.702882 0.876035,0.08343 z" />
  <path
     style="fill:#000000;fill-opacity:1;fill-rule:nonzero;stroke:none;stroke-width:0.264583"
     id="path10"
     d="m 87.059333,2.6991224 c -0.03468,-0.013541 -0.06721,-0.035233 -0.104048,-0.04061 -0.01802,-0.00264 0.02957,0.021235 0.04433,0.031893 0.0339,0.024478 0.06733,0.049594 0.10162,0.073506 0.06072,0.042344 0.121782,0.084233 0.183411,0.1252513 0.216785,0.1442831 0.279174,0.1808438 0.507114,0.3232876 0.539907,0.3245641 1.092347,0.627581 1.640203,0.9384032 0.198744,0.1128091 0.394051,0.2313226 0.588182,0.3518249 0.528804,0.327977 0.992632,-0.4198621 0.463831,-0.7478382 v 0 C 90.280001,3.6284278 90.074965,3.5038396 89.866192,3.3854516 89.329108,3.0807474 88.787617,2.7835472 88.257917,2.4660647 88.038651,2.3291995 87.987899,2.2997946 87.780357,2.1620693 87.725447,2.1256285 87.67096,2.0885309 87.616902,2.0508328 87.557032,2.0090818 87.502823,1.9585295 87.438893,1.9233105 87.387913,1.8952266 87.33399,1.8728626 87.28154,1.8476388 86.679451,1.6905158 86.457245,2.5419995 87.059333,2.6991224 Z" />
  <path
     style="fill:#000000;fill-opacity:1;fill-rule:nonzero;stroke:none;stroke-width:0.264583"
     id="path11"
     d="m 90.264891,3.7772525 c -0.237676,0.04292 -0.469889,0.1125611 -0.704333,0.1703013 -0.330047,0.08408 -0.663456,0.1537785 -0.995447,0.2294848 -0.233263,0.052937 -0.466428,0.1063007 -0.699749,0.1589833 -0.167374,0.041063 -0.333472,0.087115 -0.500814,0.1282605 -0.104959,0.021438 -0.208714,0.047916 -0.312999,0.072332 -0.605739,0.1424079 -0.404346,0.9990523 0.201396,0.8566445 v 0 c 0.107317,-0.025314 0.214141,-0.052277 0.322157,-0.074538 0.161743,-0.039933 0.322478,-0.083808 0.48408,-0.1243092 0.233975,-0.052831 0.467786,-0.1063575 0.701706,-0.1594271 0.336924,-0.076939 0.67534,-0.1475672 1.01029,-0.2330077 0.200017,-0.049346 0.398817,-0.1037305 0.599267,-0.1510778 0.617759,-0.074637 0.512207,-0.9482841 -0.105554,-0.8736466 z" />
  <path
     style="fill:#000000;fill-opacity:1;fill-rule:nonzero;stroke:none;stroke-width:0.264583"
     id="path12"
     d="m 86.911448,5.4155623 c 0.08316,0.061527 0.159132,0.1319066 0.235345,0.2017857 0.273613,0.2497582 0.533863,0.513573 0.786454,0.7844199 0.32606,0.3515425 0.630122,0.7222465 0.920337,1.1036562 0.195704,0.2677316 0.390272,0.5403136 0.530816,0.8421436 0.02428,0.052147 0.04476,0.1059797 0.06714,0.1589702 0.139239,0.3586673 0.15316,0.7413111 0.148733,1.1209554 -0.01064,0.305286 -0.04072,0.6097527 -0.102166,0.9091987 -0.03999,0.194968 -0.0648,0.27522 -0.11673,0.468042 -0.09298,0.316159 -0.206707,0.627151 -0.352982,0.922833 -0.09187,0.185709 -0.12992,0.240803 -0.236555,0.418227 -0.291414,0.440239 -0.652733,0.825727 -1.015685,1.206609 -0.237015,0.246367 -0.478248,0.488421 -0.731295,0.718331 -0.460218,0.418806 0.132064,1.069653 0.592281,0.650846 v 0 c 0.268165,-0.244378 0.525004,-0.500387 0.776173,-0.762196 0.407826,-0.42823 0.811643,-0.863805 1.133955,-1.362227 0.129731,-0.218194 0.169198,-0.274583 0.281236,-0.503222 0.166796,-0.340385 0.296986,-0.697887 0.402895,-1.061475 0.05997,-0.224895 0.08705,-0.312463 0.133019,-0.541193 0.06992,-0.347906 0.104655,-0.7015187 0.115805,-1.0559897 5.87e-4,-0.08803 0.0034,-0.176066 0.0017,-0.2640767 -0.0081,-0.4134803 -0.07026,-0.8253188 -0.221789,-1.2118119 -0.03083,-0.070973 -0.0594,-0.1429769 -0.0925,-0.21292 C 90.002948,7.5984673 89.781041,7.2814323 89.553692,6.9722892 89.245383,6.5677059 88.922782,6.1741615 88.576494,5.8012528 88.307734,5.5136292 88.031341,5.2330047 87.740363,4.9676837 87.579052,4.8207195 87.414488,4.6669941 87.207733,4.5869428 86.621812,4.3774289 86.325514,5.2060469 86.911435,5.4155607 Z" />
  <path
     style="fill:#000000;fill-opacity:1;fill-rule:nonzero;stroke:none;stroke-width:0.264583"
     id="path13"
     d="m 57.536476,35.200248 c 0.121415,-0.577905 0.237514,-1.15688 0.349972,-1.73659 0.211186,-1.08173 0.376558,-2.171435 0.541132,-3.260973 0.126616,-0.84205 0.250758,-1.684531 0.406053,-2.521855 0.08864,-0.458187 0.201803,-0.911067 0.316852,-1.363176 0.15344,-0.60304 -0.699387,-0.820037 -0.852826,-0.216998 v 0 c -0.119791,0.470847 -0.237321,0.942562 -0.32929,1.419799 -0.156888,0.846979 -0.283099,1.69903 -0.410919,2.550798 -0.162748,1.077452 -0.326083,2.155102 -0.534901,3.224839 -0.113516,0.585304 -0.231433,1.169705 -0.35306,1.753375 -0.106616,0.613053 0.760371,0.763834 0.866987,0.150781 z" />
  <path
     style="fill:#000000;fill-opacity:1;fill-rule:nonzero;stroke:none;stroke-width:0.264583"
     id="path14"
     d="m 55.188519,34.931317 c 2.79e-4,0.0076 -10e-4,0.03025 8.44e-4,0.02287 0.007,-0.02682 0.003,-0.05538 0.005,-0.08305 0.0036,-0.05041 0.0095,-0.100799 0.01441,-0.151085 0.02273,-0.172256 0.03845,-0.345354 0.05286,-0.518475 0.01471,-0.191556 0.03262,-0.382908 0.05215,-0.574034 0.02448,-0.237983 0.06621,-0.473719 0.106009,-0.709488 0.05071,-0.28047 0.104511,-0.560384 0.158229,-0.840291 0.05272,-0.271453 0.107762,-0.542444 0.161284,-0.81374 0.05465,-0.264123 0.104373,-0.529233 0.157001,-0.793766 0.06,-0.298413 0.121837,-0.596459 0.180764,-0.895086 0.06288,-0.313567 0.123116,-0.627643 0.187181,-0.940973 0.05651,-0.268347 0.112625,-0.536779 0.173237,-0.804238 0.05077,-0.23983 0.105834,-0.478707 0.159482,-0.717901 0.03922,-0.189067 0.08206,-0.377309 0.127146,-0.565055 0.02712,-0.128299 0.06375,-0.254151 0.09675,-0.380979 0.02642,-0.107227 0.04868,-0.215472 0.06984,-0.323849 0.0031,-0.01676 0.0061,-0.03352 0.0091,-0.05028 0.110682,-0.612332 -0.755285,-0.768858 -0.865967,-0.156526 v 0 c -0.0023,0.01296 -0.0047,0.02593 -0.007,0.03889 -0.01752,0.0905 -0.03626,0.180826 -0.05772,0.270471 -0.03429,0.132156 -0.07232,0.263339 -0.100741,0.396964 -0.04603,0.191999 -0.09003,0.384453 -0.1301,0.577788 -0.0535,0.238568 -0.108464,0.476814 -0.159061,0.716023 -0.06196,0.273512 -0.119419,0.548001 -0.177158,0.822432 -0.06446,0.315319 -0.125125,0.631381 -0.18838,0.946942 -0.05879,0.29817 -0.120636,0.595731 -0.180486,0.893689 -0.05271,0.264991 -0.10253,0.530557 -0.157274,0.795136 -0.05382,0.272806 -0.109181,0.545304 -0.162165,0.818272 -0.05491,0.286351 -0.110072,0.572676 -0.161716,0.859636 -0.04299,0.254765 -0.08762,0.50955 -0.113746,0.766737 -0.01998,0.196588 -0.03856,0.393377 -0.05367,0.590396 -0.01398,0.168764 -0.02969,0.337428 -0.05166,0.505363 -0.01073,0.109516 -0.02183,0.219126 -0.02383,0.329233 0.02265,0.621842 0.902063,0.589818 0.879418,-0.03203 z" />
</svg>
