<?xml version="1.0" encoding="UTF-8" standalone="no"?>
<svg
   id="svg8"
   version="1.1"
   viewBox="0 0 115.41563 44.65182"
   height="44.651821mm"
   width="115.41563mm"
   sodipodi:docname="13 soweli li lon supa ala..svg"
   inkscape:version="1.3 (0e150ed6c4, 2023-07-21)"
   xmlns:inkscape="http://www.inkscape.org/namespaces/inkscape"
   xmlns:sodipodi="http://sodipodi.sourceforge.net/DTD/sodipodi-0.dtd"
   xmlns="http://www.w3.org/2000/svg"
   xmlns:svg="http://www.w3.org/2000/svg"
   xmlns:rdf="http://www.w3.org/1999/02/22-rdf-syntax-ns#"
   xmlns:cc="http://creativecommons.org/ns#"
   xmlns:dc="http://purl.org/dc/elements/1.1/">
  <sodipodi:namedview
     id="namedview1"
     pagecolor="#ffffff"
     bordercolor="#000000"
     borderopacity="0.25"
     inkscape:showpageshadow="2"
     inkscape:pageopacity="0.0"
     inkscape:pagecheckerboard="0"
     inkscape:deskcolor="#d1d1d1"
     inkscape:document-units="mm"
     inkscape:zoom="1.239906"
     inkscape:cx="191.95003"
     inkscape:cy="-44.761457"
     inkscape:window-width="1920"
     inkscape:window-height="1051"
     inkscape:window-x="-9"
     inkscape:window-y="-9"
     inkscape:window-maximized="1"
     inkscape:current-layer="svg8" />
  <defs
     id="defs2" />
  <metadata
     id="metadata5">
    <rdf:RDF>
      <cc:Work
         rdf:about="">
        <dc:format>image/svg+xml</dc:format>
        <dc:type
           rdf:resource="http://purl.org/dc/dcmitype/StillImage" />
        <dc:title />
      </cc:Work>
    </rdf:RDF>
  </metadata>
  <g
     transform="translate(-84.094311,-88.416913)"
     id="layer1">
    <g
       transform="matrix(0.26458333,0,0,0.26458333,84.094311,77.83358)"
       id="g856">
      <ellipse
         style="opacity:0.2"
         cx="80"
         cy="160"
         rx="70"
         ry="35"
         id="ellipse815" />
      <path
         style="fill:#825012"
         d="m 100,80 c -2.8,0 -5,1.1 -5,2.5 l 35,97 c 0,1.4 2.2,2.5 5,2.5 2.8,0 5,-1.1 5,-2.5 l -35,-97 c 0,-1.4 -2.2,-2.5 -5,-2.5 z"
         id="path817" />
      <path
         style="opacity:0.2"
         d="m 100,85 c -2.8,0 -5,-1.1 -5,-2.5 l 35,97 c 0,1.4 2.2,2.5 5,2.5 2.8,0 5,-1.1 5,-2.5 l -35,-97 c 0,1.4 -2.2,2.5 -5,2.5 z"
         id="path819" />
      <path
         style="fill:#825012"
         d="m 100,73 c -2.8,0 -5,1.1 -5,2.5 l 35,63 c 0,1.4 2.2,2.5 5,2.5 2.8,0 5,-1.1 5,-2.5 l -35,-63 c 0,-1.4 -2.2,-2.5 -5,-2.5 z"
         id="path821" />
      <path
         style="opacity:0.2"
         d="m 100,78 c -2.8,0 -5,-1.1 -5,-2.5 l 35,63 c 0,1.4 2.2,2.5 5,2.5 2.8,0 5,-1.1 5,-2.5 l -35,-63 c 0,1.4 -2.2,2.5 -5,2.5 z"
         id="path823" />
      <path
         style="fill:#825012"
         d="m 60,80 c 2.8,0 5,1.1 5,2.5 l -35,97 c 0,1.4 -2.2,2.5 -5,2.5 -2.8,0 -5,-1.1 -5,-2.5 l 35,-97 C 55,81.1 57.2,80 60,80 Z"
         id="path825" />
      <path
         style="opacity:0.2"
         d="m 60,85 c 2.8,0 5,-1.1 5,-2.5 l -35,97 c 0,1.4 -2.2,2.5 -5,2.5 -2.8,0 -5,-1.1 -5,-2.5 l 35,-97 c 0,1.4 2.2,2.5 5,2.5 z"
         id="path827" />
      <path
         style="fill:#825012"
         d="m 60,73 c 2.8,0 5,1.1 5,2.5 l -35,63 c 0,1.4 -2.2,2.5 -5,2.5 -2.8,0 -5,-1.1 -5,-2.5 l 35,-63 C 55,74.1 57.2,73 60,73 Z"
         id="path829" />
      <path
         style="opacity:0.2"
         d="m 60,78 c 2.8,0 5,-1.1 5,-2.5 l -35,63 c 0,1.4 -2.2,2.5 -5,2.5 -2.8,0 -5,-1.1 -5,-2.5 l 35,-63 c 0,1.4 2.2,2.5 5,2.5 z"
         id="path831" />
      <path
         style="fill:#825012"
         d="M 80,40 C 35.8,40 0,57.9 0,80 v 10 c 0,22.1 35.8,40 80,40 44.2,0 80,-17.9 80,-40 V 80 C 160,57.9 124.2,40 80,40 Z"
         id="path833" />
      <path
         style="opacity:0.2"
         d="M 80,120 C 35.8,120 0,102.1 0,80 v 10 c 0,22.1 35.8,40 80,40 44.2,0 80,-17.9 80,-40 V 80 c 0,22.1 -35.8,40 -80,40 z"
         id="path835" />
    </g>
    <g
       transform="matrix(-0.26458333,0,0,0.26458333,136.03202,93.39108)"
       id="g882">
      <path
         style="opacity:0.2"
         d="m 54.4,127.4 c 9.1,5.9 23.5,12.9 10.6,19.8 C 51.3,154.5 33.1,145.9 26.3,138 17.2,127.5 6.9,124 2.4,122.8 c -3.7,-1 -3.8,-3.1 4.4,-1.8 1.4,0.2 11.6,1.5 21.6,2.9 10.2,1.4 23.2,1.7 26,3.5 z"
         id="path858" />
      <path
         style="fill:#999999"
         d="m 46.3,127.9 c 0,0 0.8,2.9 2.8,4.1 2,1.2 6.1,3.4 6.5,4.3 0.4,0.9 1.4,3 3.5,2.6 2.1,-0.4 4.8,-2.2 4.1,-3.5 -0.7,-1.3 -1.7,-0.9 -3.8,-1.4 -2.1,-0.5 -5.2,-2.4 -6,-3.7 -0.9,-1.3 -1.7,-4 -1.7,-4 z"
         id="path860" />
      <path
         style="opacity:0.2"
         d="m 46.3,127.9 c 0,0 0.8,2.9 2.8,4.1 2,1.2 6.1,3.4 6.5,4.3 0.4,0.9 1.4,3 3.5,2.6 2.1,-0.4 4.8,-2.2 4.1,-3.5 -0.7,-1.3 -1.7,-0.9 -3.8,-1.4 -2.1,-0.5 -5.2,-2.4 -6,-3.7 -0.9,-1.3 -1.7,-4 -1.7,-4 z"
         id="path862" />
      <path
         style="fill:#999999"
         d="m 19.4,120.4 c 0,0 -8.5,-1.5 -12,-8.3 C 4,105.3 5.4,99.8 4.5,98.2 3.6,96.6 1.4,97 0.9,98.8 c -0.5,1.8 -1.2,13.5 4.9,19.8 6.3,6.3 13.8,7.8 13.8,7.8 0,0 1.8,6.3 5.5,8 3.7,1.7 5.1,0.5 5.1,0.5 0,0 -0.9,2 -0.2,3.1 0.7,1 8.4,3.1 9.5,4 1.1,1 2.1,3.8 4.9,2.8 2.8,-1 3.7,-2.1 3,-3.4 -0.7,-1.3 -2.6,-1.8 -4,-1.9 -1.4,-0.1 -6.5,-2.5 -6.5,-2.5 0,0 2.2,-2.1 2.7,-3.7 0.5,-1.6 0.3,-2.7 0.3,-2.7 l 6.9,-2.6 c 0,0 1.2,5.4 1.5,9.2 0.3,3.8 0.5,5.6 0.9,7.4 0.4,1.9 0.2,4.3 3.3,4 3.1,-0.3 4.3,-1.1 3.9,-2.3 -0.4,-1.2 -2.4,-2.4 -2.8,-4.6 -0.4,-2.1 0.1,-12.9 0.4,-14 0.2,-1.1 2.5,-7.1 2.5,-7.1 l 2.5,-0.5 c 0,0 1.1,7.8 1.5,11.3 0.4,3.5 0.7,9.2 0.7,10.4 0,1.2 0.7,2.6 2.2,2.7 1.5,0.2 4.6,-0.8 4.5,-2.1 -0.1,-1.3 -2.3,-3.1 -2.5,-4.6 -0.2,-1.5 -0.5,-14.8 0.9,-19.4 1.4,-4.6 2.4,-7.1 2.4,-7.1 L 60,91.5 c 0,0 -3.5,0.8 -7.9,0.7 -4.5,-0.1 -17.8,-0.1 -25.4,9.5 -7.8,9.7 -7.3,18.7 -7.3,18.7 z"
         id="path864" />
      <path
         style="fill:#e5e5e5"
         d="m 56.3,120.7 c 0,0 2.5,-2.1 2.7,-4.9 0.2,-2.8 1.8,-5.1 3.2,-6 1.4,-1 6.2,-3.4 6.2,-3.4 0,0 1.3,4.3 -0.5,7.3 -1.8,3 -4.8,5.4 -7.3,6.2 -2.5,0.8 -4.3,0.8 -4.3,0.8 z"
         id="path866" />
      <path
         style="opacity:0.2"
         d="m 46.8,128 c 0,0 -0.7,-3.1 -1,-5.4 -0.2,-2.4 -0.9,-6 -0.9,-6 0,0 -0.9,2.1 -2.8,3 -1.9,0.9 -3.7,1.3 -5.3,0.6 -1.6,-0.7 -5.4,-2.7 -5.4,-2.7 0,0 5.7,3.8 6.8,6.9 1.2,3.1 1.6,6.3 1.6,6.3 z"
         id="path868" />
      <path
         style="fill:#999999"
         d="m 58.2,96 c 0,0 -0.5,2.8 0.7,5.7 1.3,2.9 4,5.2 5.4,6.9 1.3,1.6 2.8,3.2 5.8,2.9 3,-0.4 3.2,-1.9 4.1,-3.1 0.9,-1.2 4.1,-5.7 4.6,-8.7 0.5,-3.1 0.1,-5.3 0.1,-5.3 0,0 2.1,-7.3 0.5,-8.2 -1.6,-0.9 -3.2,2.7 -5.1,2.9 -2,0.2 -2.9,-0.3 -5.1,-0.2 -2.2,0.1 -5.7,1 -5.7,1 0,0 -3.3,-3.4 -5.3,-2.7 -2.4,0.9 0,8.8 0,8.8 z"
         id="path870" />
      <path
         style="fill:#2d3134"
         d="m 69.7,110.5 c -0.6,0 -1.7,-1 -1.6,-1.5 0.1,-0.5 2.9,-0.5 3.1,0.1 0.2,0.5 -0.9,1.4 -1.5,1.4 z"
         id="path872" />
      <path
         style="fill:#2d3134"
         d="m 72,104.4 c 0,0 0.3,-1.8 1.8,-2.4 1.5,-0.6 2.1,-0.3 2.1,-0.3 0,0 -0.3,1.7 -1.5,2.3 -1.1,0.6 -2.4,0.4 -2.4,0.4 z"
         id="path874" />
      <path
         style="fill:#2d3134"
         d="m 67.3,104.4 c 0,0 -0.6,-1.8 -2,-2.3 -1.4,-0.5 -2.4,0 -2.4,0 0,0 0.2,1.5 1.4,2 1.2,0.5 3,0.3 3,0.3 z"
         id="path876" />
      <path
         style="opacity:0.2"
         d="m 72.9,93.3 c 0,0 4.8,-7.5 6.4,-6.9 1.2,0.4 -0.4,8 -0.4,8 0,0 -1.3,-1.2 -3,-1.5 -1.6,-0.3 -3,0.4 -3,0.4 z"
         id="path878" />
      <path
         style="opacity:0.2"
         d="m 65.2,93.2 c 0,0 -5.3,-6.3 -6.9,-5.8 -2.2,0.7 -0.1,8.6 -0.1,8.6 0,0 1.6,-2.1 2.9,-2.6 1.3,-0.5 4.1,-0.2 4.1,-0.2 z"
         id="path880" />
    </g>
  </g>
  <path
     style="fill:#000000;fill-opacity:1;fill-rule:nonzero;stroke:none;stroke-width:0.264583"
     d="m 99.487273,22.982829 c -0.01008,-0.857955 -0.02455,-1.715893 -0.05278,-2.57347 -0.04469,-1.258144 -0.106915,-2.515565 -0.197413,-3.771327 -0.08789,-1.308398 -0.188675,-2.622528 -0.09282,-3.933515 0.04794,-0.460624 0.07597,-0.803464 0.154175,-1.260488 0.142796,-0.834499 0.388996,-1.6517838 0.706525,-2.4356003 0.0931,-0.1963025 0.1785,-0.3964744 0.27937,-0.588908 0.37237,-0.7103356 0.81723,-1.2945493 1.50113,-1.7312123 0.14612,-0.093301 0.30609,-0.162913 0.45913,-0.2443696 0.15576,-0.058656 0.30729,-0.1301244 0.4673,-0.1759681 0.4106,-0.1176442 0.92354,-0.1430158 1.34281,-0.052357 0.28012,0.06057 0.52198,0.1838412 0.78012,0.2996205 0.10058,0.068395 0.20648,0.1295478 0.30173,0.2051855 0.38066,0.3022794 0.73303,0.7537942 0.87556,1.2228171 0.0406,0.1335712 0.0583,0.2730606 0.0874,0.4095907 0.0141,0.1532998 0.0352,0.3061147 0.0422,0.4598995 0.023,0.5053452 -0.007,1.0413315 -0.12506,1.534764 -0.0771,0.321592 -0.21612,0.642806 -0.33716,0.949059 -0.0672,0.135647 -0.12855,0.274323 -0.20152,0.406942 -0.21727,0.394884 -0.5088,0.747533 -0.87215,1.015737 -0.50324,0.365992 0.0144,1.07768 0.51759,0.711687 l -2e-5,4e-6 c 0.45353,-0.334197 0.82207,-0.769673 1.09954,-1.25901 0.0887,-0.156374 0.16224,-0.320839 0.24336,-0.481258 0.14256,-0.354484 0.29666,-0.701909 0.38842,-1.074782 0.14357,-0.583377 0.19064,-1.204088 0.16698,-1.8032835 -0.007,-0.1795097 -0.0304,-0.3580093 -0.0456,-0.5370137 -0.034,-0.1699754 -0.0543,-0.3433056 -0.10209,-0.5099261 -0.18869,-0.6574049 -0.60985,-1.2525071 -1.13492,-1.6865933 -0.12628,-0.1043986 -0.26688,-0.1901543 -0.40032,-0.2852315 -0.35367,-0.1708516 -0.61654,-0.321929 -1.0034,-0.4122504 -0.57562,-0.1343897 -1.20743,-0.1293181 -1.77936,0.020318 -0.20887,0.05465 -0.40741,0.1431062 -0.61111,0.2146593 -0.84073,0.3743825 -1.53338,0.9688217 -2.048724,1.7300717 -0.318985,0.4711582 -0.440532,0.772548 -0.685398,1.2827419 -0.349184,0.8481708 -0.617617,1.7339076 -0.774555,2.6385416 -0.08703,0.501655 -0.114289,0.841098 -0.167209,1.345115 -0.103933,1.360978 -0.0011,2.725493 0.09003,4.083979 0.08986,1.246526 0.151662,2.494698 0.19599,3.743591 0.02795,0.850611 0.04231,1.701581 0.05229,2.552567"
     id="path8" />
  <path
     style="fill:#ff4400;fill-opacity:1;fill-rule:nonzero;stroke:none;stroke-width:0.264583"
     d="m 98.607314,22.993156 c 0.0059,0.540081 0.0082,1.08019 0.0097,1.620298 0.0011,0.438743 0.0013,0.877487 0.0016,1.316231 -0.0016,0.204352 0.0051,0.408727 -0.0058,0.612849 -0.03027,0.621517 0.848686,0.66433 0.878959,0.04281 v 0 c 0.0099,-0.21864 0.0072,-0.437272 0.0069,-0.656121 -2.28e-4,-0.439412 -5.29e-4,-0.878826 -0.0016,-1.318238 -0.0016,-0.542727 -0.0039,-1.085456 -0.0098,-1.628156"
     id="path1" />
  <path
     style="fill:#ff4400;fill-opacity:1;fill-rule:nonzero;stroke:none;stroke-width:0.264583"
     d="m 92.716633,36.83008 c 1.424959,0.134101 2.849234,0.276315 4.28012,0.332303 1.38944,0.0631 2.780088,0.122023 4.164737,0.25817 0.88034,0.09536 1.75783,0.222218 2.64087,0.289129 0.62225,0 0.62225,-0.880002 0,-0.880003 -0.85076,-0.07393 -1.69708,-0.191907 -2.54603,-0.284001 -1.402883,-0.138504 -2.811874,-0.198442 -4.219656,-0.26239 -1.41669,-0.05533 -2.826782,-0.196564 -4.23759,-0.329337"
     id="path7" />
  <path
     style="fill:#000000;fill-opacity:1;fill-rule:nonzero;stroke:none;stroke-width:0.264583"
     d="m 92.799084,35.953951 c -1.481159,-0.15276 -2.969943,-0.197874 -4.456435,-0.267467 -1.551496,-0.07838 -3.104095,-0.127593 -4.65713,-0.16119 -1.318842,-0.02617 -2.637922,-0.03642 -3.956979,-0.04388 -1.002329,-0.005 -2.004671,-0.0069 -3.00701,-0.0082 -0.632955,0.01953 -1.263637,-0.02461 -1.894354,-0.06977 -0.208803,-0.01873 -0.417062,-0.04285 -0.625448,-0.0656 -0.61858,-0.06753 -0.714084,0.807271 -0.0955,0.874803 v 0 c 0.219247,0.02395 0.438356,0.04935 0.65809,0.06855 0.651224,0.04664 1.302541,0.09125 1.956041,0.07201 1.001072,0.0013 2.002147,0.0032 3.003211,0.0082 1.314371,0.0074 2.628768,0.01762 3.942927,0.04368 1.545661,0.03342 3.090886,0.08241 4.635013,0.160436 1.472702,0.06891 2.947702,0.113284 4.415123,0.264557"
     id="path3" />
  <path
     style="fill:#000000;fill-opacity:1;fill-rule:nonzero;stroke:none;stroke-width:0.264583"
     id="path4"
     d="m 74.432926,35.712746 c 0,-0.0663 -5.29e-4,-0.125725 0.0021,-0.192992 0.0058,-0.142068 0.01826,-0.295667 0.02716,-0.435946 0.02064,-0.32485 0.02241,-0.375732 0.04013,-0.710094 0.05081,-0.959102 0.07889,-1.918981 0.1005,-2.879111 0.0113,-0.75506 0.02676,-1.509866 0.05284,-2.264553 0.02011,-0.439489 0.0492,-0.878475 0.09507,-1.31603 0.05911,-0.496064 0.102272,-0.993674 0.136223,-1.492027 0.02257,-0.336161 0.03482,-0.672875 0.04281,-1.00966 0.0047,-0.216286 0.0067,-0.432616 0.0083,-0.648943 0.0024,-0.107689 -0.0021,-0.215583 0.0032,-0.323184 0.02596,-0.621712 -0.85327,-0.658432 -0.879234,-0.03672 v 0 c -0.0044,0.117868 -0.0029,0.23579 -0.0039,0.353729 -0.0016,0.211451 -0.0035,0.422903 -0.008,0.634315 -0.0076,0.323788 -0.01934,0.64751 -0.04102,0.970701 -0.03317,0.487765 -0.07556,0.974773 -0.133487,1.460286 -0.04775,0.45789 -0.0787,0.917223 -0.09931,1.37714 -0.02619,0.758217 -0.04181,1.516557 -0.05314,2.275152 -0.02141,0.951214 -0.04914,1.90218 -0.09949,2.852372 -0.01738,0.328645 -0.0191,0.378199 -0.03937,0.6974 -0.01455,0.22911 -0.03499,0.458337 -0.03139,0.688165 0,0.622255 0.879999,0.622255 0.879999,0 z" />
  <path
     style="fill:#000000;fill-opacity:1;fill-rule:nonzero;stroke:none;stroke-width:0.264583"
     id="path5"
     d="m 71.803071,24.05308 c 7.94e-4,0.01343 0.0028,0.02686 0.0024,0.0403 -0.0016,0.03836 -0.006,0.07655 -0.0083,0.114864 -0.0249,0.408784 -0.05481,0.81702 -0.08447,1.225497 -0.0564,0.815146 -0.07856,1.63201 -0.126629,2.447633 -0.06967,0.898633 -0.183177,1.793232 -0.29263,2.687701 -0.109765,0.82491 -0.227724,1.648555 -0.319558,2.475711 -0.05144,0.469855 -0.08812,0.941081 -0.113943,1.412984 -0.01167,0.219165 -0.01913,0.438504 -0.0231,0.657934 2.54e-4,0.134337 -0.0032,0.268311 -0.01193,0.402328 -0.0011,0.0029 -5.29e-4,0.0073 -0.0034,0.0087 -0.0019,0.0011 -0.0016,-0.0043 -0.0011,-0.0064 0.0052,-0.019 0.0122,-0.03747 0.01828,-0.05621 -0.293304,0.548791 0.482804,0.963586 0.77611,0.414795 v 0 c 0.04813,-0.110064 0.08057,-0.182647 0.08827,-0.303485 0.0096,-0.147817 0.01389,-0.295653 0.01365,-0.443804 0.0038,-0.208714 0.01085,-0.417343 0.02193,-0.625805 0.02484,-0.455528 0.06028,-0.910395 0.109887,-1.363949 0.09137,-0.823888 0.209431,-1.644195 0.31841,-2.465882 0.111684,-0.912789 0.227473,-1.825733 0.297625,-2.742859 0.04773,-0.811627 0.07021,-1.624453 0.125838,-2.435626 0.02442,-0.336465 0.05192,-0.672787 0.07267,-1.009508 0.0074,-0.119613 0.02088,-0.349601 0.019,-0.472109 -5.29e-4,-0.03599 -0.0072,-0.07163 -0.01082,-0.107444 -0.102298,-0.613788 -0.970325,-0.469116 -0.868026,0.144671 z" />
  <path
     style="fill:#000000;fill-opacity:1;fill-rule:nonzero;stroke:none;stroke-width:0.264583"
     id="path6"
     d="m 68.830623,35.775627 c 0.0019,-0.339863 0.03181,-0.678947 0.05459,-1.017873 0.03104,-0.457671 0.04629,-0.916176 0.05963,-1.374638 0.01035,-0.265043 0.0078,-0.530434 0.01767,-0.795456 0.0019,-0.03577 0.0035,-0.07154 0.0052,-0.107315 0.02997,-0.621533 -0.849008,-0.663916 -0.878977,-0.04239 v 0 c -0.0019,0.03935 -0.0038,0.0787 -0.0057,0.118041 -0.0094,0.267076 -0.0081,0.534434 -0.01789,0.801529 -0.01299,0.447315 -0.02776,0.894675 -0.05802,1.34122 -0.0241,0.358569 -0.05532,0.717293 -0.05657,1.076878 0,0.622252 0.880001,0.622252 0.880001,0 z" />
  <path
     style="fill:#ff4400;fill-opacity:1;fill-rule:nonzero;stroke:none;stroke-width:0.264583"
     id="path9"
     d="m 98.880234,26.275187 c -0.204488,-0.0076 -0.410434,-0.02181 -0.614944,-0.0059 -0.06239,0.0049 -0.124352,0.01425 -0.186529,0.02137 -0.269994,0.04736 -0.538194,0.121691 -0.779311,0.25557 -0.165317,0.09179 -0.242258,0.156596 -0.391248,0.267766 -0.257257,0.210371 -0.47067,0.46702 -0.640021,0.752456 -0.110213,0.185759 -0.138425,0.26128 -0.228537,0.458035 -0.131342,0.311971 -0.228962,0.636797 -0.292976,0.969092 -0.01593,0.08261 -0.03225,0.165306 -0.04193,0.248874 -0.01172,0.101202 -0.01479,0.203219 -0.0222,0.304829 0.0047,0.112407 0.0026,0.225302 0.01405,0.337223 0.0398,0.389009 0.153178,0.755068 0.346234,1.096172 0.188462,0.332992 0.284157,0.412933 0.5354,0.701125 0.115141,0.10277 0.224099,0.21291 0.345421,0.308303 0.376958,0.296394 0.807181,0.517258 1.257406,0.678659 0.390605,0.140028 0.514483,0.15308 0.917186,0.240115 0.145868,0.01998 0.290719,0.04982 0.437603,0.05991 0.426018,0.02926 0.898162,-0.01738 1.304872,-0.152411 0.34537,-0.114657 0.41253,-0.178932 0.71654,-0.364749 0.24867,-0.206573 0.33374,-0.252566 0.5291,-0.51245 0.1404,-0.186783 0.26134,-0.41647 0.35013,-0.632182 0.11207,-0.272275 0.13628,-0.403604 0.21058,-0.68733 0.12243,-0.607983 0.159,-1.23251 0.10674,-1.850671 -0.009,-0.106072 -0.0243,-0.211513 -0.0364,-0.31727 -0.017,-0.09631 -0.0292,-0.193564 -0.0509,-0.288932 -0.0586,-0.258351 -0.15116,-0.526072 -0.28099,-0.757965 -0.0995,-0.177749 -0.15364,-0.235262 -0.27554,-0.390768 -0.12986,-0.12686 -0.20666,-0.21496 -0.35845,-0.314021 -0.0761,-0.04965 -0.1561,-0.09349 -0.23799,-0.132824 -0.21833,-0.104856 -0.45401,-0.16853 -0.68617,-0.23348 -0.26976,-0.06969 -0.54569,-0.11266 -0.82321,-0.135677 -0.142384,-0.01181 -0.225604,-0.01318 -0.365931,-0.0181 -0.225083,-0.0088 -0.450392,0.0012 -0.67351,0.03152 -0.02273,0.0038 -0.04547,0.0076 -0.06821,0.01141 -0.613482,0.104132 -0.466217,0.971722 0.147264,0.867591 v 0 c 0.01468,-0.0025 0.02937,-0.0051 0.04406,-0.0077 0.172001,-0.02594 0.346745,-0.02841 0.520319,-0.02338 0.107994,0.0036 0.198484,0.0054 0.306594,0.01405 0.228074,0.01833 0.455084,0.05166 0.677004,0.108102 0.15097,0.04162 0.20599,0.05431 0.35493,0.105451 0.0713,0.02449 0.20318,0.07219 0.27247,0.113675 0.0748,0.04476 0.13761,0.10473 0.20258,0.16171 0.0633,0.07752 0.12342,0.145062 0.1746,0.231732 0.0587,0.09938 0.1081,0.218915 0.14517,0.327263 0.0221,0.06464 0.0431,0.129843 0.0588,0.19634 0.0183,0.07793 0.0287,0.157533 0.0431,0.236299 0.0106,0.08883 0.024,0.177381 0.032,0.266499 0.0468,0.527071 0.0181,1.059855 -0.0804,1.579481 -0.0236,0.0935 -0.0438,0.187928 -0.0709,0.280503 -0.0518,0.177586 -0.10557,0.322 -0.18959,0.486307 -0.0349,0.06836 -0.0721,0.136003 -0.1158,0.199088 -0.11944,0.172191 -0.17188,0.201041 -0.32994,0.34077 -0.18906,0.124095 -0.25048,0.180062 -0.46843,0.257707 -0.28979,0.103232 -0.661524,0.150442 -0.967608,0.132149 -0.124657,-0.0075 -0.247651,-0.03231 -0.371476,-0.04847 -0.129011,-0.02688 -0.259283,-0.04828 -0.387032,-0.08063 -0.49502,-0.125363 -0.980633,-0.327758 -1.38938,-0.638175 -0.09395,-0.07135 -0.178655,-0.154107 -0.267983,-0.231161 -0.182087,-0.201004 -0.263504,-0.270201 -0.401651,-0.500345 -0.08998,-0.149907 -0.169913,-0.337253 -0.214329,-0.507172 -0.051,-0.1951 -0.04776,-0.288612 -0.06018,-0.485668 0.004,-0.07265 0.0043,-0.145604 0.01215,-0.217934 0.0076,-0.0701 0.0213,-0.139439 0.03428,-0.208745 0.05078,-0.27082 0.128651,-0.535631 0.234011,-0.790325 0.02732,-0.06101 0.05278,-0.12289 0.08196,-0.183033 0.126336,-0.260383 0.293235,-0.499961 0.514832,-0.688174 0.07548,-0.05768 0.166436,-0.131009 0.249121,-0.180443 0.15268,-0.09128 0.326432,-0.137437 0.499266,-0.172231 0.03746,-0.0051 0.07471,-0.01216 0.112376,-0.01541 0.172464,-0.01491 0.34638,-9e-4 0.518906,0.0043 0.620673,0.04433 0.683369,-0.83343 0.0627,-0.877764 z" />
  <path
     style="fill:#000000;fill-opacity:1;fill-rule:nonzero;stroke:none;stroke-width:0.264583"
     id="path2"
     d="m 109.63202,2.3650209 c 0.35398,0.036143 0.70492,0.097066 1.05607,0.1535223 0.46558,0.079057 0.92807,0.1751742 1.38681,0.2871078 0.38252,0.097894 0.76097,0.210693 1.13932,0.323383 0.32142,0.092448 0.64276,0.185044 0.96679,0.2680126 0.16576,0.040907 0.33137,0.08239 0.49742,0.1221253 0.60518,0.1447694 0.80991,-0.7110831 0.20473,-0.8558525 v 0 c -0.16158,-0.038641 -0.32271,-0.079064 -0.48403,-0.118811 -0.31298,-0.080011 -0.62325,-0.1697619 -0.93374,-0.2588685 -0.39256,-0.1168943 -0.78523,-0.2338391 -1.18222,-0.3349874 -0.48149,-0.1171089 -0.96672,-0.2184441 -1.4554,-0.3009526 -0.38202,-0.061414 -0.76393,-0.1284286 -1.1495,-0.1634627 -0.62139,-0.032705 -0.66764,0.8460788 -0.0463,0.8787837 z" />
  <path
     style="fill:#000000;fill-opacity:1;fill-rule:nonzero;stroke:none;stroke-width:0.264583"
     id="path10"
     d="m 114.81785,2.9085427 c -0.37264,0.1328155 -0.73637,0.2893747 -1.09988,0.4450373 -0.68238,0.3060809 -1.34293,0.6570872 -2.00265,1.0084774 -0.46884,0.2498201 -0.93879,0.4975666 -1.40761,0.7474214 -0.31941,0.1737776 -0.64058,0.344574 -0.95761,0.5226743 -0.54237,0.3050083 -0.11103,1.0720414 0.43135,0.7670335 v 0 c 0.31108,-0.1751415 0.62673,-0.342246 0.94016,-0.5131208 0.46875,-0.2498418 0.93864,-0.4975137 1.40741,-0.7473148 0.63778,-0.3397123 1.27617,-0.6794016 1.93542,-0.9762482 0.33611,-0.1439915 0.67249,-0.2880823 1.01589,-0.4140176 0.59393,-0.1856028 0.33145,-1.0255454 -0.26248,-0.8399425 z" />
  <path
     style="fill:#000000;fill-opacity:1;fill-rule:nonzero;stroke:none;stroke-width:0.264583"
     id="path11"
     d="m 109.62577,6.50011 c 0.20757,0.084524 0.39304,0.2099683 0.57659,0.3364585 0.4379,0.3354964 0.84117,0.7129785 1.2416,1.0915507 0.27846,0.2689018 0.55313,0.544032 0.79001,0.8511047 0.0567,0.073494 0.11487,0.1463191 0.16375,0.22523 0.049,0.0791 0.086,0.1650027 0.12905,0.2475037 0.19769,0.4070096 0.30593,0.8481174 0.35203,1.2971784 0.0285,0.277446 0.0226,0.496663 0.0242,0.776128 -0.0115,0.546497 -0.0778,1.091332 -0.20832,1.622398 -0.0716,0.291134 -0.13536,0.477533 -0.22521,0.762277 -0.0797,0.211762 -0.17508,0.480252 -0.27464,0.684602 -0.10505,0.215628 -0.24738,0.441642 -0.38702,0.635417 -0.18733,0.259955 -0.32788,0.41385 -0.53714,0.658801 -0.52345,0.582433 -1.10468,1.108373 -1.69039,1.626671 -0.46599,0.41238 0.11721,1.071384 0.5832,0.659005 v 0 c 0.61654,-0.545648 1.2276,-1.100222 1.77697,-1.714887 0.2391,-0.281199 0.38822,-0.444097 0.60209,-0.74527 0.33861,-0.476835 0.58263,-0.986054 0.76635,-1.540189 0.10086,-0.321331 0.16621,-0.51153 0.24624,-0.842008 0.14379,-0.593767 0.21664,-1.202591 0.22785,-1.813154 -0.003,-0.350425 0.004,-0.55191 -0.0341,-0.901632 -0.0596,-0.5495231 -0.20252,-1.0872723 -0.4478,-1.5834902 -0.0643,-0.1161933 -0.12197,-0.2362872 -0.19285,-0.34858 C 113.04993,8.3928508 112.98138,8.30727 112.91431,8.221046 112.65342,7.8856371 112.35403,7.5828406 112.04844,7.2885652 111.61467,6.8787105 111.17763,6.4698843 110.70003,6.1108061 110.4416,5.9343226 110.17668,5.759927 109.87865,5.6572229 109.28264,5.4784194 109.02978,6.3213065 109.62579,6.50011 Z" />
</svg>
