<?xml version="1.0" encoding="UTF-8" standalone="no"?>
<!-- Generator: Adobe Illustrator 18.1.0, SVG Export Plug-In . SVG Version: 6.00 Build 0)  -->

<svg
   version="1.1"
   id="Layer_1"
   x="0px"
   y="0px"
   viewBox="0 0 223.518 205.62317"
   enable-background="new 0 0 80 240"
   xml:space="preserve"
   sodipodi:docname="14 ni li meli..svg"
   width="223.51801"
   height="205.62317"
   inkscape:version="1.3 (0e150ed6c4, 2023-07-21)"
   xmlns:inkscape="http://www.inkscape.org/namespaces/inkscape"
   xmlns:sodipodi="http://sodipodi.sourceforge.net/DTD/sodipodi-0.dtd"
   xmlns="http://www.w3.org/2000/svg"
   xmlns:svg="http://www.w3.org/2000/svg"
   xmlns:rdf="http://www.w3.org/1999/02/22-rdf-syntax-ns#"
   xmlns:cc="http://creativecommons.org/ns#"
   xmlns:dc="http://purl.org/dc/elements/1.1/"><metadata
   id="metadata35"><rdf:RDF><cc:Work
       rdf:about=""><dc:format>image/svg+xml</dc:format><dc:type
         rdf:resource="http://purl.org/dc/dcmitype/StillImage" /><dc:title /></cc:Work></rdf:RDF></metadata><defs
   id="defs33" /><sodipodi:namedview
   pagecolor="#ffffff"
   bordercolor="#666666"
   borderopacity="1"
   objecttolerance="10"
   gridtolerance="10"
   guidetolerance="10"
   inkscape:pageopacity="0"
   inkscape:pageshadow="2"
   inkscape:window-width="1920"
   inkscape:window-height="1051"
   id="namedview31"
   showgrid="false"
   fit-margin-top="0"
   fit-margin-left="0"
   fit-margin-right="0"
   fit-margin-bottom="0"
   inkscape:zoom="1.9666667"
   inkscape:cx="50.084746"
   inkscape:cy="82.118644"
   inkscape:window-x="-9"
   inkscape:window-y="-9"
   inkscape:window-maximized="1"
   inkscape:current-layer="Layer_1"
   inkscape:showpageshadow="2"
   inkscape:pagecheckerboard="0"
   inkscape:deskcolor="#d1d1d1" />&#10;<g
   id="g28"
   transform="translate(-15.723606,-25.470556)">&#10;	<path
   d="m 33.8,34.9 c -0.6,1.9 -0.5,9.7 -1.2,14 -0.8,5.2 -7.1,24 2.1,18.1 9.2,-5.9 7,-33.5 3.1,-33.7 -3.1,-0.3 -3.4,-0.3 -4,1.6 z"
   id="path2"
   inkscape:connector-curvature="0"
   style="fill:#762c07" />&#10;	<path
   d="m 24.8,206.2 c -11.8,7.6 -12.4,14.4 0,21 13.5,7.2 22.4,3.3 32.9,-2.7 10.5,-6 11.8,-13.4 -3.7,-19.5 -12.5,-5 -20.4,-4.5 -29.2,1.2 z"
   id="path4"
   inkscape:connector-curvature="0"
   style="opacity:0.2" />&#10;	<path
   d="m 28.8,82.2 c 0,0 -3.2,10.8 -5.9,19.1 -2.7,8.3 -4.4,13.8 -5.3,15.9 -0.9,2.1 -1.3,5.7 -0.8,7.3 0.5,1.6 2.3,5 3,5.7 1.7,1.6 4.4,1.2 4.8,0.8 0.4,-0.5 0.4,-2.2 -0.3,-2.9 -0.7,-0.7 -2.6,-3 -1.4,-6 1.2,-2.9 1,-4.2 1,-6 0,-1.5 -0.5,-1.7 0.7,-4.1 1.2,-2.5 6.9,-14.5 7.5,-16.2 0.6,-1.7 -3.3,-13.6 -3.3,-13.6 z"
   id="path6"
   inkscape:connector-curvature="0"
   style="fill:#fbd7c7" />&#10;	<path
   d="m 42.8,54.7 c 0,0 -9.1,-4 -12.3,0.3 -3.2,4.3 -1.7,11 -1.7,11 0,0 -5.4,6.1 -5.4,9.4 0,3.3 5.1,6.5 5.1,6.5 0,0 0.6,15.8 -0.3,22.3 -0.9,6.5 -3.8,23.3 -3.1,33.9 0.7,10.6 1.6,25 1.9,29.2 0.3,4.1 2.2,10 3,14.8 0.9,4.8 4.1,13.2 0.9,19.6 -3.2,6.4 -6.1,9.3 -7.4,10.5 -1.3,1.2 0.2,5.2 3,4.5 2.8,-0.7 7.2,-7.1 9.9,-8.1 2.7,-1.1 7.2,-4 6,-7.7 -1.2,-3.6 -1.7,-2.2 -2,-5.3 -0.3,-3.1 2.2,-16.7 1.3,-22.8 -0.9,-6.1 -3.2,-7.8 -3.6,-8.8 -0.4,-1 5.7,-29.5 5.7,-29.5 0,0 1.2,27.3 1.1,30.2 -0.1,2.9 2.1,17.7 2.7,24.6 0.7,7 1,18.8 -2,22.9 -2.9,4.1 -8,10.3 -6,11.7 2,1.4 8.3,2.7 9.8,-0.9 1.5,-3.6 5.3,-11.1 6.7,-13.1 1.4,-2 1.9,-3.1 1,-5 -0.9,-1.9 -1.5,-5 -0.5,-10.3 1,-5.3 4.1,-14.7 3.3,-19.7 -0.8,-5 -3.2,-8.1 -2.9,-11.7 0.3,-3.5 8.1,-24.8 6.6,-39.7 C 62,108.7 54.6,106 53.3,100 52,94 56.3,86.1 58.5,81.8 60.7,77.6 63.8,70.2 61.1,67.6 58.4,64.9 55.2,63.2 54,61.2 52.8,59.2 51.5,53 51.5,53 Z"
   id="path8"
   inkscape:connector-curvature="0"
   style="fill:#fbd7c7" />&#10;	<path
   d="m 25.4,210.3 c 0,0 -4.9,1.7 -5.9,3.9 -0.8,1.8 -0.5,3.9 1.2,5 1.8,1 5.2,1.3 8.2,-0.4 2.9,-1.7 6.8,-8.4 7.5,-8.7 0.7,-0.3 0.2,3.7 0.2,3.7 l 2.1,1.1 2.3,-0.9 c 0,0 -0.2,-4.5 0.7,-6 0.9,-1.5 2.6,-3.9 2,-6.9 -0.6,-3 -2.6,-3.3 -2.6,-3.3 0,0 0,3.5 -4,7.3 -3.8,3.6 -5.9,9.6 -9.2,9.3 -4.5,-0.7 -2.5,-4.1 -2.5,-4.1 z"
   id="path10"
   inkscape:connector-curvature="0"
   style="fill:#cc291f" />&#10;	<path
   d="m 42.2,217.1 c 0,0 -4.6,3.5 -4.9,5.7 -0.3,2.2 -0.2,3.7 2.9,4.7 3.1,1 7.1,-0.2 9,-1.8 1.9,-1.6 4.4,-5.8 4.4,-5.8 l 2,1.1 2.3,-1.1 c 0,0 -0.3,-2.7 0.4,-5.1 0.7,-2.4 1.4,-4.4 1.4,-7.4 0,-3 -2.8,-3.3 -2.8,-3.3 0,0 1.7,1.6 -0.8,5.1 -2.5,3.5 -4.4,11.3 -8.1,11.5 -6.9,0.5 -5.8,-3.6 -5.8,-3.6 z"
   id="path12"
   inkscape:connector-curvature="0"
   style="fill:#cc291f" />&#10;	<path
   d="m 60.8,110.8 c -2.7,-4.3 -5.3,-6.4 -5.4,-6.8 0,0 -6.4,3.9 -16.4,3.1 -10,-0.8 -10.6,-3.1 -10.6,-3.1 -1.4,6.7 -4.5,17.6 -5.5,21.1 -1.9,6.8 -6.1,18 -5.6,19 2.1,4.2 12.6,3.2 17.4,7.6 4.8,4.4 17.8,3.7 24,1.6 6.2,-2.1 9.4,-5.8 9.2,-6.5 -4.8,-18.7 -1.8,-27.6 -7.1,-36 z"
   id="path14"
   inkscape:connector-curvature="0"
   style="fill:#28896d" />&#10;	<path
   d="m 27.7,82.8 c 0.3,0.6 3.1,5.5 3,11.7 0,2.9 -1.7,6.6 -2.7,9.6 7.4,6.7 22,3.9 27.6,0.3 -4.5,-6.7 1.9,-20.2 3,-22.4 2.2,-4.2 5.3,-11.6 2.6,-14.2 -2.7,-2.7 -5.9,-4.4 -7.1,-6.4 -1.2,-2 -2.5,-8.2 -2.5,-8.2 l -8.9,1.6 c 0,0 -3.6,-1.6 -7,-1.7 -2.2,2.1 -4.9,9.8 -7.4,12.7 -2.5,2.8 -5.4,5.4 -5.4,9.6 0,3.2 4.3,6.5 4.8,7.4 z"
   id="path16"
   inkscape:connector-curvature="0"
   style="fill:#e5e5e5" />&#10;	<path
   d="m 37.9,53.9 c 0,0 -8.9,14.8 -2.4,16.5 6.3,1.7 16,-8.7 16,-8.7 L 43.7,53 Z"
   id="path18"
   inkscape:connector-curvature="0"
   style="fill:#fbd7c7" />&#10;	<path
   d="m 40.2,54.9 c 0,0 -4.3,0.7 -4.9,-0.9 -0.7,-1.7 -4.4,-15.5 2.4,-24.1 6.8,-8.6 20.5,-3.1 20.5,6 0,8.1 -3.2,10.5 -4.7,14.5 -0.9,2.5 -1.6,5.8 -0.1,8.4 1.5,2.7 2.7,4 2.7,4 0,0 -7.6,4.6 -13.3,3.2 -5.7,-1.4 -0.2,-4.2 -1,-6.6 -0.7,-2.1 -1.6,-4.5 -1.6,-4.5 z"
   id="path20"
   inkscape:connector-curvature="0"
   style="fill:#fbd7c7" />&#10;	<path
   d="M 23,76.1 C 26.1,82 35.5,86.6 49.6,83.5 48.8,85.8 28.5,91 23,76.1 Z"
   id="path22"
   inkscape:connector-curvature="0"
   style="opacity:0.15" />&#10;	<path
   d="m 51,74.8 c -1.1,-2.9 -0.7,-10.2 5.3,-10.5 6,-0.3 6.7,5.7 7.2,13.6 0.5,7.9 3.5,20.7 3.7,23.3 0.2,2.6 -1.5,9.7 -5.6,16 -4.1,6.3 -6.9,11.4 -7.1,12.3 -0.2,1 -1.4,4.9 -3.1,6.1 -0.7,0.5 -1.5,1.2 -1.9,2.5 -0.4,1.3 0.5,2.4 0.7,2.7 0.3,0.7 -0.2,1.5 -1.4,2.2 -1.3,0.8 -3.2,-0.5 -4.2,-1.3 -0.7,-0.5 -2.5,-2.1 -2,-4.3 0.4,-1.6 1.7,-6.6 3.7,-7.8 2,-1.2 3.9,-2.7 4.6,-4.1 0.7,-1.4 2.2,-11.9 4.8,-17.2 1.4,-2.9 3.1,-4.8 3.1,-5.9 C 58.7,101.5 52.1,77.7 51,74.8 Z"
   id="path24"
   inkscape:connector-curvature="0"
   style="fill:#fbd7c7" />&#10;	<path
   d="m 33.8,34.9 c 0,0 3.5,-11.5 16.4,-9.1 8.1,1.5 10.4,10.5 9.6,16.7 -0.7,6.2 -3.3,9.9 -2.1,12.9 2.3,5.6 1,9.4 -1.6,12.7 C 51.8,73.6 43,76.3 44,65.2 44.7,56.6 38.9,52.8 40.9,43.7 42.1,38 39.8,35.5 37.3,36 36.4,34.1 35.4,33.4 33.8,34.9 Z"
   id="path26"
   inkscape:connector-curvature="0"
   style="fill:#762c07" />&#10;</g>&#10;<path
   style="fill:#000000;fill-opacity:1;fill-rule:nonzero;stroke:none"
   d="m 93.076374,60.490896 c 0.71805,2.020218 1.40928,4.051554 2.04889,6.098244 0.287734,0.902162 0.505376,1.823308 0.717745,2.745214 0.529486,2.291448 3.770082,1.542642 3.240596,-0.748805 v 0 c -0.232603,-1.003827 -0.470916,-2.006809 -0.78407,-2.989461 -0.646962,-2.065904 -1.342549,-4.117522 -2.06786,-6.15696 -0.743713,-2.231138 -3.899021,-1.17937 -3.155301,1.051768 z"
   id="path1" /><path
   style="fill:#000000;fill-opacity:1;fill-rule:nonzero;stroke:none"
   d="m 97.931202,80.068421 c 0.294088,2.504584 0.643285,5.00249 0.891847,7.513787 0.15218,1.62348 0.257169,3.250636 0.351202,4.878317 0.135755,2.347905 3.456189,2.155918 3.320439,-0.191987 v 0 c -0.0968,-1.673062 -0.20498,-3.345581 -0.36187,-5.014293 -0.23828,-2.402158 -0.53748,-4.796165 -0.87564,-7.185824 0,-2.351826 -3.325978,-2.351826 -3.325978,0 z"
   id="path3" /><path
   style="fill:#000000;fill-opacity:1;fill-rule:nonzero;stroke:none"
   d="m 100.80757,105.53386 c -0.0117,2.08772 0.20039,4.17011 0.33502,6.2523 0.18372,2.13373 0.0461,4.27503 -0.12952,6.40368 -0.19277,2.34392 3.12203,2.61652 3.31479,0.27261 v 0 c 0.18778,-2.29078 0.32777,-4.59482 0.13378,-6.89093 -0.13007,-2.01081 -0.33741,-4.02172 -0.32809,-6.03766 0,-2.35182 -3.32598,-2.35182 -3.32598,0 z"
   id="path5" /><path
   style="fill:#000000;fill-opacity:1;fill-rule:nonzero;stroke:none"
   d="m 100.42704,130.97144 c -0.15283,2.57108 -0.576732,5.11063 -1.049393,7.63903 -0.471637,2.21595 -0.959198,4.42834 -1.467017,6.63626 -0.527077,2.292 2.7143,3.0374 3.24138,0.7454 v 0 c 0.51796,-2.2527 1.01603,-4.5098 1.4951,-6.77111 0.48671,-2.60896 0.92538,-5.22968 1.08557,-7.88229 0.25971,-2.33744 -3.04593,-2.70473 -3.30564,-0.36729 z"
   id="path7" /><path
   style="fill:#000000;fill-opacity:1;fill-rule:nonzero;stroke:none"
   d="m 93.953484,158.83891 c -0.36274,2.56105 -0.9167,5.08975 -1.53106,7.60079 -0.7424,2.86655 -1.77065,5.64887 -2.82725,8.41165 -0.1404,0.34678 -0.2808,0.69357 -0.4212,1.04036 -0.88198,2.18018 2.20126,3.42749 3.08324,1.24731 v 0 c 0.14818,-0.36656 0.29636,-0.73311 0.44453,-1.09967 1.10623,-2.89291 2.17853,-5.8077 2.951652,-8.81036 0.617963,-2.53339 1.18855,-5.08402 1.546872,-7.66857 0.510183,-2.29583 -2.736604,-3.01733 -3.246784,-0.72151 z"
   id="path9" /><path
   style="fill:#000000;fill-opacity:1;fill-rule:nonzero;stroke:none"
   d="m 118.53745,96.267747 c -1.35876,0.87407 -2.54706,1.966523 -3.67495,3.114781 -1.0661,1.163502 -2.00486,2.462032 -2.66859,3.899962 -0.50652,1.09736 -0.59143,1.51792 -0.94673,2.67877 -0.57675,2.34895 -1.01009,4.76748 -1.00534,7.19512 0.001,0.53861 0.0415,1.07643 0.0622,1.61464 0.0784,0.58173 0.12112,1.16939 0.23513,1.74521 0.4409,2.22685 1.33357,4.65152 2.57669,6.5592 0.3005,0.46114 0.65902,0.88175 0.98853,1.32263 1.40383,1.73471 3.26801,2.93899 5.19854,4.00205 2.0624,1.1303 3.66089,-1.78637 1.59849,-2.91668 v 0 c -1.52544,-0.8313 -3.02403,-1.75058 -4.15131,-3.10089 -0.24704,-0.31595 -0.51896,-0.61395 -0.74113,-0.94786 -0.80078,-1.20351 -1.35785,-2.54577 -1.77821,-3.92153 -0.14697,-0.48101 -0.29423,-0.96335 -0.3974,-1.45561 -0.0984,-0.46955 -0.13747,-0.9496 -0.20621,-1.4244 -0.0204,-0.45404 -0.0579,-0.90762 -0.0613,-1.36211 -0.0161,-2.14111 0.37305,-4.27477 0.86564,-6.34939 0.2504,-0.84578 0.35254,-1.30129 0.7085,-2.09552 0.5155,-1.15021 1.2572,-2.18914 2.10107,-3.1188 1.05655,-1.08748 2.19617,-2.073683 3.46091,-2.914298 1.78564,-1.530548 -0.37888,-4.055823 -2.16452,-2.525275 z"
   id="path15" /><path
   style="fill:#000000;fill-opacity:1;fill-rule:nonzero;stroke:none"
   d="m 120.26745,103.2183 c -1.03283,0.62369 -1.91863,1.51238 -2.56891,2.52998 -0.17297,0.27067 -0.31609,0.55929 -0.47414,0.83893 -0.69715,1.43827 -1.08747,3.03021 -1.23959,4.61994 -0.0316,0.33039 -0.0387,0.66267 -0.058,0.99401 0.0225,1.71285 0.31941,3.44585 0.95137,5.04467 0.1264,0.31978 0.28272,0.62691 0.42408,0.94036 0.66456,1.30011 1.63264,2.36007 2.70219,3.33237 1.7442,1.57762 3.97528,-0.88905 2.23108,-2.46666 v 0 c -0.74129,-0.66614 -1.43033,-1.37336 -1.91283,-2.25822 -0.0995,-0.20889 -0.21103,-0.41242 -0.29836,-0.62666 -0.48807,-1.19741 -0.72807,-2.50212 -0.77625,-3.78899 0.0662,-1.42941 0.28593,-2.88326 0.8924,-4.19118 0.40459,-0.77716 0.89853,-1.47193 1.61442,-1.9937 2.10354,-1.05177 0.61611,-4.02662 -1.48742,-2.97485 z"
   id="path17" /><path
   style="fill:#000000;fill-opacity:1;fill-rule:nonzero;stroke:none"
   d="m 183.38659,111.95695 c -1.16054,-0.17258 -2.32116,-0.37125 -3.49867,-0.36637 -0.99588,-0.003 -1.99176,-0.008 -2.98761,-0.0166 -1.84207,-0.0167 -3.68405,-0.0418 -5.52591,-0.0746 -2.31815,-0.042 -4.63608,-0.0954 -6.9543,-0.13177 -1.34031,-0.0468 -2.67627,-0.15232 -4.01508,-0.22372 -0.73935,-0.0552 -1.4751,-0.14142 -2.21065,-0.23367 -1.1285,-0.0765 -2.26126,-0.0194 -3.39169,-0.0406 -2.08681,-0.005 -4.17362,-0.0131 -6.26039,-0.0284 -3.09514,-0.0253 -6.19054,-0.0553 -9.2845,-0.14916 -2.68941,-0.0958 -5.37868,-0.22637 -8.05491,-0.52112 -2.38402,-0.22473 -4.77144,-0.42479 -7.16361,-0.53852 -1.38485,-0.0216 -2.76973,-0.0161 -4.15473,-0.0158 -2.35182,0 -2.35182,3.32598 0,3.32598 v -1.8e-4 c 1.36746,2.8e-4 2.73482,-0.007 4.10212,0.0154 2.30535,0.11534 4.60625,0.30762 6.90406,0.52426 2.7406,0.30093 5.49446,0.43526 8.24847,0.53369 3.12443,0.0952 6.25031,0.12562 9.37593,0.15116 2.093,0.0154 4.18604,0.0232 6.27909,0.0285 1.04556,0.0496 2.10278,-0.0666 3.14576,0.0309 0.7363,0.0997 1.47483,0.17798 2.21568,0.23405 1.38257,0.0748 2.76235,0.18119 4.14649,0.23099 2.33745,0.0375 4.67461,0.091 7.012,0.13332 1.85189,0.033 3.70392,0.0582 5.55604,0.075 1.00241,0.009 2.00485,0.0136 3.00729,0.0168 1.01682,-10e-4 2.0178,0.18117 3.01989,0.3302"
   id="path25" /><path
   style="fill:#ff4400;fill-opacity:1;fill-rule:nonzero;stroke:none"
   d="m 182.89736,115.24669 c 1.65218,0.19438 3.31047,0.33914 4.96896,0.46993 2.01488,0.12199 4.02974,0.24046 6.04656,0.32556 1.06344,0.0404 0.54306,0.022 1.56111,0.0556 2.35055,0.0775 2.46016,-3.24668 0.10961,-3.32418 v 0 c -0.99688,-0.0328 -0.48667,-0.0148 -1.53061,-0.0544 -1.97639,-0.0833 -3.95081,-0.19973 -5.92535,-0.31823 -1.58232,-0.12463 -3.16423,-0.26346 -4.74105,-0.44402"
   id="path19" /><path
   style="fill:#ff4400;fill-opacity:1;fill-rule:nonzero;stroke:none"
   d="m 196.31688,101.36871 c 0.0151,0.18096 0.0448,0.3613 0.0452,0.54289 5.4e-4,0.24209 -0.0258,0.48352 -0.0424,0.72505 -0.0776,1.13125 -0.0755,0.99584 -0.20751,2.21296 -0.21349,1.96887 -0.0981,0.87262 -0.30369,2.87709 -0.25809,2.77815 -0.45443,5.56139 -0.70194,8.3405 -0.17737,1.76606 -0.27773,3.53737 -0.32998,5.31107 -0.0262,1.00103 -0.0331,2.00239 -0.0374,3.0037 -0.002,0.72847 -0.003,1.45695 -0.004,2.18542 -0.006,0.4783 0.0118,0.95711 -0.01,1.43505 -0.0929,2.34999 3.23047,2.48139 3.32338,0.1314 v 0 c 0.0187,-0.52142 0.0117,-1.04298 0.0126,-1.5647 3.8e-4,-0.72433 0.001,-1.44866 0.004,-2.17299 0.004,-0.9735 0.0108,-1.94707 0.036,-2.92029 0.0499,-1.70783 0.14685,-3.41325 0.31829,-5.11364 0.24614,-2.76434 0.44218,-5.53272 0.6977,-8.29621 0.22951,-2.23838 0.0633,-0.64557 0.30199,-2.86097 0.12777,-1.18562 0.27302,-2.3803 0.25691,-3.57567 -0.003,-0.2211 -0.0382,-0.44059 -0.0573,-0.66088 -0.283,-2.334744 -3.58482,-1.934524 -3.30182,0.40022 z"
   id="path21" /><path
   style="fill:#ff4400;fill-opacity:1;fill-rule:nonzero;stroke:none"
   d="m 197.01157,116.75494 c 0.86029,1.08849 1.80057,2.12034 2.81941,3.06319 0.31745,0.29377 0.65113,0.5695 0.97669,0.85425 1.32026,1.08641 2.68733,2.12359 4.1779,2.96802 1.01333,0.57407 1.22918,0.63816 2.2893,1.10661 1.4459,0.55844 2.94892,1.03654 4.50706,1.13033 1.02477,0.0617 1.29064,-0.011 2.31043,-0.12197 1.42347,-0.27237 2.82685,-0.73747 4.08309,-1.47197 0.73238,-0.42821 1.01069,-0.6791 1.66521,-1.19043 1.20446,-1.05709 2.2114,-2.31911 2.86753,-3.78867 0.13464,-0.30158 0.23916,-0.61572 0.35875,-0.92358 0.38721,-1.30767 0.57866,-2.69725 0.35739,-4.0559 -0.153,-0.93951 -0.28237,-1.1124 -0.64086,-1.9796 -0.8301,-1.59136 -2.0537,-2.64088 -3.63164,-3.46438 -0.3208,-0.16742 -0.65592,-0.30586 -0.98388,-0.45879 -1.87448,-0.78027 -3.89713,-1.06796 -5.91901,-0.90785 -0.4832,0.0383 -0.96212,0.11879 -1.44318,0.17818 -1.92032,0.31142 -3.77633,0.90193 -5.63791,1.44923 -2.46932,0.72598 -0.0182,-0.008 -2.39698,0.70837 -1.65685,0.47937 -3.22559,1.19416 -4.77665,1.93697 -0.72532,0.36685 -1.44856,0.78489 -1.98906,1.40574 -0.0971,0.11156 -0.18159,0.23354 -0.27238,0.35031 -1.38727,1.89909 1.29845,3.86099 2.68573,1.9619 v 0 c 0.0275,-0.23192 0.85579,-0.62839 1.01232,-0.71823 1.39685,-0.66897 2.80588,-1.32191 4.29898,-1.75194 2.3041,-0.69395 -0.0765,0.019 2.38629,-0.70518 1.69003,-0.4969 3.37342,-1.03762 5.11315,-1.33825 0.37951,-0.0511 0.75717,-0.11853 1.13852,-0.15324 1.5035,-0.13683 3.01153,0.0385 4.41416,0.60742 1.16821,0.52281 2.2895,1.08296 2.95325,2.2302 0.18786,0.38827 0.29167,0.54161 0.37884,0.97167 0.17201,0.84857 0.0541,1.73067 -0.1586,2.55837 -0.0723,0.2003 -0.1331,0.40514 -0.21693,0.60089 -0.44324,1.03498 -1.12746,1.92249 -1.95853,2.67567 -0.39241,0.31409 -0.71131,0.59055 -1.14225,0.85197 -0.89901,0.54534 -1.91303,0.891 -2.93426,1.11795 -0.6766,0.0886 -0.8821,0.14506 -1.56208,0.11863 -1.22151,-0.0475 -2.39686,-0.44894 -3.53157,-0.87015 -0.86806,-0.37653 -1.06581,-0.43636 -1.8985,-0.90352 -1.32921,-0.74571 -2.54295,-1.67067 -3.72006,-2.6336 -0.27548,-0.23837 -0.55865,-0.46813 -0.82644,-0.71512 -0.924,-0.85224 -1.77885,-1.78399 -2.55607,-2.77122 -1.46917,-1.83647 -4.06633,0.24126 -2.59716,2.07772 z"
   id="path23" /></svg>
