<?xml version="1.0" encoding="UTF-8" standalone="no"?>
<!-- Generator: Adobe Illustrator 18.1.0, SVG Export Plug-In . SVG Version: 6.00 Build 0)  -->

<svg
   version="1.1"
   id="Layer_1"
   x="0px"
   y="0px"
   viewBox="0 0 371.74935 239.16356"
   enable-background="new 0 0 80 240"
   xml:space="preserve"
   sodipodi:docname="14 ni li meli..svg"
   width="371.74936"
   height="239.16356"
   inkscape:version="1.3.2 (091e20e, 2023-11-25, custom)"
   xmlns:inkscape="http://www.inkscape.org/namespaces/inkscape"
   xmlns:sodipodi="http://sodipodi.sourceforge.net/DTD/sodipodi-0.dtd"
   xmlns="http://www.w3.org/2000/svg"
   xmlns:svg="http://www.w3.org/2000/svg"
   xmlns:rdf="http://www.w3.org/1999/02/22-rdf-syntax-ns#"
   xmlns:cc="http://creativecommons.org/ns#"
   xmlns:dc="http://purl.org/dc/elements/1.1/"><metadata
   id="metadata35"><rdf:RDF><cc:Work
       rdf:about=""><dc:format>image/svg+xml</dc:format><dc:type
         rdf:resource="http://purl.org/dc/dcmitype/StillImage" /><dc:title /></cc:Work></rdf:RDF></metadata><defs
   id="defs33" /><sodipodi:namedview
   pagecolor="#ffffff"
   bordercolor="#666666"
   borderopacity="1"
   objecttolerance="10"
   gridtolerance="10"
   guidetolerance="10"
   inkscape:pageopacity="0"
   inkscape:pageshadow="2"
   inkscape:window-width="1920"
   inkscape:window-height="1051"
   id="namedview31"
   showgrid="false"
   fit-margin-top="0"
   fit-margin-left="0"
   fit-margin-right="0"
   fit-margin-bottom="0"
   inkscape:zoom="1.9666667"
   inkscape:cx="190.16949"
   inkscape:cy="170.08474"
   inkscape:window-x="-9"
   inkscape:window-y="-9"
   inkscape:window-maximized="1"
   inkscape:current-layer="Layer_1"
   inkscape:showpageshadow="2"
   inkscape:pagecheckerboard="0"
   inkscape:deskcolor="#d1d1d1" />
<g
   transform="translate(-27.042845,-42.712)"
   id="g3628"><path
     style="fill:#fbd7c7"
     d="m 140,131.5 c 0,0 -1.6,3 -2.2,5.1 -0.6,2.1 -1.7,8.6 -1.6,9.7 0.1,1.1 4.1,8.4 5.8,9.2 1.7,0.8 2,-10.2 2,-10.2 l -0.5,-4.8 2.7,-5.6 z"
     id="path3572" /><path
     style="opacity:0.2"
     d="m 143.9,224.7 c -11.8,7.6 -12.4,14.4 0,21 13.5,7.2 22.4,3.3 32.9,-2.7 10.5,-6 11.8,-13.4 -3.6,-19.6 -12.5,-5 -20.4,-4.4 -29.3,1.3 z"
     id="path3574" /><path
     style="fill:#fbd7c7"
     d="m 141.5,142.8 c -0.4,3.3 -1.6,26.2 0,32.2 1.6,6 2.2,8.8 2.6,11 0.4,2.2 1.8,4.1 2.5,7.6 0.7,3.5 3.7,15.1 2.7,19.6 -0.9,4.6 -1.4,11.7 -4.5,15.6 -3,3.9 -8,6.8 -4.8,8 3.1,1.2 6.7,0.4 8.1,-0.5 1.4,-0.9 5.2,-6.5 8.4,-7.7 3.1,-1.2 6.3,-2.9 6,-6 -0.3,-3.1 -3.1,-3.8 -3.3,-7.6 -0.1,-3.8 4.5,-14.3 3.1,-21.3 -1.4,-7 -3.4,-10.5 -3.4,-10.5 l 2.4,-16.2 c 0,0 1.7,18.9 1.8,20.5 0.1,1.6 1,4.7 1,4.7 0,0 -0.3,8.1 0.3,12.7 0.6,4.6 3.8,13.2 2,20 -1.8,6.8 -1.4,8 -3.9,11.1 -2.5,3.1 -7.2,5.6 -3.8,7.3 3.4,1.7 7.3,2.5 9.9,-1.8 2.6,-4.3 5.5,-5.9 6.9,-7.2 1.4,-1.3 1.8,-2.2 0.8,-6.3 -1,-4.1 -1,-9.4 0.4,-13.6 1.4,-4.2 4.7,-15.4 4.8,-20.2 0.1,-4.7 -2.2,-9.4 -2.2,-9.4 0,0 4.3,-15.1 5.5,-26.8 1.2,-11.8 1,-20.4 -1,-25.5 -2,-5.2 -42.3,10.3 -42.3,10.3 z"
     id="path3578" /><path
     style="fill:#e5e5e5"
     d="m 164.8,230.2 c 0,0 1.6,1.7 4.2,1.8 3,0.1 6.1,-1.6 6.6,-2.9 0.7,-1.7 0.3,-4.3 0.3,-4.3 0,0 2.8,2.3 2.8,5.1 0,2.5 -1.8,5.5 -1.9,6.5 -0.1,1 0.1,3.5 0.1,3.5 l -1.8,1 -3,-1.4 c 0,0 -0.9,2.9 -2.9,4.4 -2,1.4 -6.8,4.2 -11.3,2.5 -4.5,-1.7 -2,-5.6 -0.9,-6.9 1.1,-1.3 5,-4 6,-5.9 1.2,-2.3 1.8,-3.4 1.8,-3.4 z"
     id="path3580" /><path
     style="fill:#e5e5e5"
     d="m 147,223 c 0,0 2.4,2.4 5.2,2.3 2.1,-0.1 5.3,-1.5 6.4,-3.4 0.9,-1.6 1.4,-4.6 1.4,-4.6 0,0 2.7,1.6 2.7,5.2 0,3.2 -2.3,6.3 -2.4,8.5 -0.1,2.2 0,1.3 0,1.3 l -2.4,1.2 -2.4,-1.2 c 0,0 0.8,-2.5 0,-2 -0.8,0.5 -3.3,4.2 -5.1,5.9 -1.8,1.7 -5.8,4 -9.4,2.9 -3.6,-1.1 -3.4,-4.8 -1.3,-6.6 1.8,-1.6 4.1,-2.8 5.4,-5.2 1.2,-2.3 1.9,-4.3 1.9,-4.3 z"
     id="path3582" /><g
     style="opacity:0.4"
     id="g3588"><path
       d="m 160.1,232.3 v 0 c 0,0.4 0,0 0,0 z"
       id="path3584" /><path
       d="m 162.6,222.5 c 0,0 0,-0.1 0,-0.1 -0.4,1.5 -1.2,2.5 -3.1,4 -2.2,1.8 -4,3.3 -6.1,5.8 -2.1,2.6 -6,6 -10.7,6 -2.7,0 -4.7,-1.9 -4.4,-3.8 -0.6,1.8 0.1,3.8 2.6,4.6 3.6,1.1 7.7,-1.2 9.4,-2.9 1.8,-1.7 4.3,-5.4 5.1,-5.9 0.8,-0.5 0,2 0,2 l 2.4,1.2 2.3,-1.2 c 0,-0.2 0,-0.6 0.1,-1.3 0.1,-2.1 2.4,-5.2 2.4,-8.4 z"
       id="path3586" /></g><path
     style="opacity:0.4"
     d="m 169.3,243.9 c 2,-1.4 2.9,-4.4 2.9,-4.4 l 3,1.4 1.8,-1 c 0,0 -0.2,-2.5 -0.1,-3.5 0,-0.9 1.5,-3.3 1.8,-5.7 -0.2,0.4 -0.4,0.8 -0.7,1.2 -1.4,2.3 -3.7,3.4 -6.5,8.1 -2.6,4.5 -9.3,5.9 -12,5.4 -2.2,-0.4 -3.7,-1.3 -4,-2.7 -0.2,1.3 0.4,2.7 2.6,3.5 4.4,1.9 9.2,-0.9 11.2,-2.3 z"
     id="path3590" /><path
     style="fill:#06547a"
     d="m 140.6,142.1 c -0.3,2.1 -1.3,27.5 -0.3,33.8 2,12.5 5,17.6 6.7,29.8 0.3,2.5 0.6,7.7 0.6,7.7 0,0 5.5,0.6 8.1,0.4 4.2,-0.4 5.5,-0.8 5.5,-0.8 0,0 1.7,-6.7 1.8,-16.8 0,-3.7 -3.3,-13.2 -3.3,-13.2 l 1.6,-8.4 -3,-32.8 c -9.5,-0.2 -17.7,0.3 -17.7,0.3 z"
     id="path3592" /><path
     style="opacity:0.15"
     d="m 140.6,142.1 c -0.3,2.1 -1.3,27.5 -0.3,33.8 2,12.5 5,17.6 6.7,29.8 0.3,2.5 0.6,7.7 0.6,7.7 0,0 5.5,0.6 8.1,0.4 4.2,-0.4 5.5,-0.8 5.5,-0.8 0,0 1.7,-6.7 1.8,-16.8 0,-3.7 -3.3,-13.2 -3.3,-13.2 l 1.6,-8.4 -3,-32.8 c -9.5,-0.2 -17.7,0.3 -17.7,0.3 z"
     id="path3594" /><path
     style="fill:#06547a"
     d="m 165.1,220 c 0,0 3.5,1.1 6.8,0.9 4.7,-0.3 7.7,-1.9 7.7,-1.9 0.1,0.7 1.9,-14.1 2.6,-21.6 0.5,-5 -1.2,-9.8 -0.9,-12.4 0.3,-2.6 7.3,-29.1 6.3,-37.3 -0.6,-4.8 -43.1,-31.6 -40.5,-5.5 1.1,11.1 7.4,12 9.8,16.4 3.6,6.6 3.9,12.4 4.2,16 0.6,6.3 2.5,22.7 2.9,27 0.4,4.3 1.1,18.4 1.1,18.4 z"
     id="path3596" /><path
     style="fill:#993399"
     d="m 143,109.3 c 0,0 -1.9,8.4 -2.9,23.8 -0.1,2.3 0,5.7 -0.1,9.7 -0.1,6.6 11.1,10.9 22.5,11.6 12.5,0.8 25.4,-0.6 25.8,-6.8 1.1,-14.8 -9.3,-28.5 -10.6,-34.3 -1.3,-5.8 6.7,-8.6 6.7,-8.6 0,0 -2,-4.7 -1.5,-11.6 0.5,-6.9 -5.4,-9.9 -7.5,-11.3 -1.7,-1.2 -17.3,-8.4 -19.8,-9.1 -2.5,-0.7 -7.1,-0.9 -8.2,3.5 -1.2,4.5 0,9.2 -1.4,10.9 -1.4,1.7 -6.5,8.1 -6.3,12.4 0.1,4.4 3.3,9.8 3.3,9.8 z"
     id="path3598" /><path
     style="fill:#fbd7c7"
     d="m 158,47.1 c -5.3,3.5 -5.8,10.8 -5.6,15.8 0.2,5 0.3,9.1 2.2,10.8 1.9,1.7 2.1,2.4 2.3,3.6 0.2,1.2 -5.7,5.7 -0.6,8 5.1,2.2 6.9,-0.3 10.9,-2.1 4.3,-1.9 7.6,-1.6 7.6,-1.6 0,0 -2.6,-4.7 -2.4,-8.1 0.2,-3.3 1,-5.8 2.6,-9.3 1.6,-3.5 4.2,-12.7 -1.1,-16.4 -5.2,-3.5 -12.3,-3 -15.9,-0.7 z"
     id="path3600" /><path
     style="fill:#656565"
     d="m 171.4,45.4 c 0,0 -3.4,-4.2 -10.2,-2.1 -6.8,2.1 -8.2,7.9 -8.2,7.9 l 2.7,-1.8 -1.6,3.5 2.5,-2.1 c 0,0 -1.1,2.6 -1.1,2.5 0,-0.2 2.6,-2.1 2.6,-2.1 0,0 -1.8,4.6 -1.8,4.4 0.1,-0.2 6.5,-6.2 6.5,-6.2 l -3.4,7.2 1.6,-0.5 -1.5,7.3 1.5,-2.5 0.3,5.7 1.8,-6.2 1,4.3 1.1,-4.1 1.4,6.8 1.3,-3.5 0.9,3 1.8,-4.5 0.4,1.8 1.5,-2.7 0.2,1.6 1,-0.2 -2,7.5 1.9,-3.7 -0.6,6.3 3.1,-7.2 0.3,1.6 1.6,-6.7 0.3,3.2 0.6,-4.9 0.9,0.9 -0.7,-4.3 1,0.6 -1.9,-3.6 1.3,0.5 c 0,-0.2 -1.9,-8 -8.1,-7.7 z"
     id="path3602" /><path
     style="opacity:0.15"
     d="m 170.9,102.4 c 0,0 -6.7,8.3 -15.4,7.1 -9.2,-1.3 -2.7,-14.5 -2.7,-14.5 0,0 -8,14.1 -12.9,6.3 0.9,4 3.2,8 3.2,8 0,0 0,0 0,0 1.8,1.2 3.2,0.9 5.6,-2 1.8,12.4 21.9,6.1 24.9,3.3 -0.8,-2.7 -2.7,-8.2 -2.7,-8.2 z"
     id="path3604" /><path
     style="fill:#fbd7c7"
     d="m 186.2,120.6 c -0.7,-3.5 -2.2,-13.2 -2.9,-15.5 l -10.7,2.5 c 0.1,0.3 0.1,0.3 0.2,0.6 1,2.6 3.3,14.4 3.5,15.3 0.2,0.9 -2,3.3 -3,5.6 -2.7,6.1 -3.3,13.9 -3.7,15.5 -0.5,1.6 -1.6,2.9 -2.9,3.8 -1.3,0.9 -5.3,4.7 -5.7,5.8 -0.3,0.7 -1.3,4.8 -0.7,6.3 0.6,1.5 4.8,3 5.8,3 1,0 1,-1.4 1,-1.4 0,0 -1.1,-1.8 -1.2,-3.4 -0.1,-1.6 1.2,-2.7 4.3,-5 3.1,-2.3 3.4,-5.4 7,-11.1 3.6,-5.7 6.6,-9.9 7.8,-12.6 1.2,-2.9 1.5,-7.8 1.2,-9.4 z"
     id="path3606" /></g><g
   id="g28"
   transform="translate(106.40374,8.069836)">
	<path
   d="m 33.8,34.9 c -0.6,1.9 -0.5,9.7 -1.2,14 -0.8,5.2 -7.1,24 2.1,18.1 9.2,-5.9 7,-33.5 3.1,-33.7 -3.1,-0.3 -3.4,-0.3 -4,1.6 z"
   id="path2"
   inkscape:connector-curvature="0"
   style="fill:#762c07" />
	<path
   d="m 24.8,206.2 c -11.8,7.6 -12.4,14.4 0,21 13.5,7.2 22.4,3.3 32.9,-2.7 10.5,-6 11.8,-13.4 -3.7,-19.5 -12.5,-5 -20.4,-4.5 -29.2,1.2 z"
   id="path4"
   inkscape:connector-curvature="0"
   style="opacity:0.2" />
	<path
   d="m 28.8,82.2 c 0,0 -3.2,10.8 -5.9,19.1 -2.7,8.3 -4.4,13.8 -5.3,15.9 -0.9,2.1 -1.3,5.7 -0.8,7.3 0.5,1.6 2.3,5 3,5.7 1.7,1.6 4.4,1.2 4.8,0.8 0.4,-0.5 0.4,-2.2 -0.3,-2.9 -0.7,-0.7 -2.6,-3 -1.4,-6 1.2,-2.9 1,-4.2 1,-6 0,-1.5 -0.5,-1.7 0.7,-4.1 1.2,-2.5 6.9,-14.5 7.5,-16.2 0.6,-1.7 -3.3,-13.6 -3.3,-13.6 z"
   id="path6"
   inkscape:connector-curvature="0"
   style="fill:#fbd7c7" />
	<path
   d="m 42.8,54.7 c 0,0 -9.1,-4 -12.3,0.3 -3.2,4.3 -1.7,11 -1.7,11 0,0 -5.4,6.1 -5.4,9.4 0,3.3 5.1,6.5 5.1,6.5 0,0 0.6,15.8 -0.3,22.3 -0.9,6.5 -3.8,23.3 -3.1,33.9 0.7,10.6 1.6,25 1.9,29.2 0.3,4.1 2.2,10 3,14.8 0.9,4.8 4.1,13.2 0.9,19.6 -3.2,6.4 -6.1,9.3 -7.4,10.5 -1.3,1.2 0.2,5.2 3,4.5 2.8,-0.7 7.2,-7.1 9.9,-8.1 2.7,-1.1 7.2,-4 6,-7.7 -1.2,-3.6 -1.7,-2.2 -2,-5.3 -0.3,-3.1 2.2,-16.7 1.3,-22.8 -0.9,-6.1 -3.2,-7.8 -3.6,-8.8 -0.4,-1 5.7,-29.5 5.7,-29.5 0,0 1.2,27.3 1.1,30.2 -0.1,2.9 2.1,17.7 2.7,24.6 0.7,7 1,18.8 -2,22.9 -2.9,4.1 -8,10.3 -6,11.7 2,1.4 8.3,2.7 9.8,-0.9 1.5,-3.6 5.3,-11.1 6.7,-13.1 1.4,-2 1.9,-3.1 1,-5 -0.9,-1.9 -1.5,-5 -0.5,-10.3 1,-5.3 4.1,-14.7 3.3,-19.7 -0.8,-5 -3.2,-8.1 -2.9,-11.7 0.3,-3.5 8.1,-24.8 6.6,-39.7 C 62,108.7 54.6,106 53.3,100 52,94 56.3,86.1 58.5,81.8 60.7,77.6 63.8,70.2 61.1,67.6 58.4,64.9 55.2,63.2 54,61.2 52.8,59.2 51.5,53 51.5,53 Z"
   id="path8"
   inkscape:connector-curvature="0"
   style="fill:#fbd7c7" />
	<path
   d="m 25.4,210.3 c 0,0 -4.9,1.7 -5.9,3.9 -0.8,1.8 -0.5,3.9 1.2,5 1.8,1 5.2,1.3 8.2,-0.4 2.9,-1.7 6.8,-8.4 7.5,-8.7 0.7,-0.3 0.2,3.7 0.2,3.7 l 2.1,1.1 2.3,-0.9 c 0,0 -0.2,-4.5 0.7,-6 0.9,-1.5 2.6,-3.9 2,-6.9 -0.6,-3 -2.6,-3.3 -2.6,-3.3 0,0 0,3.5 -4,7.3 -3.8,3.6 -5.9,9.6 -9.2,9.3 -4.5,-0.7 -2.5,-4.1 -2.5,-4.1 z"
   id="path10"
   inkscape:connector-curvature="0"
   style="fill:#cc291f" />
	<path
   d="m 42.2,217.1 c 0,0 -4.6,3.5 -4.9,5.7 -0.3,2.2 -0.2,3.7 2.9,4.7 3.1,1 7.1,-0.2 9,-1.8 1.9,-1.6 4.4,-5.8 4.4,-5.8 l 2,1.1 2.3,-1.1 c 0,0 -0.3,-2.7 0.4,-5.1 0.7,-2.4 1.4,-4.4 1.4,-7.4 0,-3 -2.8,-3.3 -2.8,-3.3 0,0 1.7,1.6 -0.8,5.1 -2.5,3.5 -4.4,11.3 -8.1,11.5 -6.9,0.5 -5.8,-3.6 -5.8,-3.6 z"
   id="path12"
   inkscape:connector-curvature="0"
   style="fill:#cc291f" />
	<path
   d="m 60.8,110.8 c -2.7,-4.3 -5.3,-6.4 -5.4,-6.8 0,0 -6.4,3.9 -16.4,3.1 -10,-0.8 -10.6,-3.1 -10.6,-3.1 -1.4,6.7 -4.5,17.6 -5.5,21.1 -1.9,6.8 -6.1,18 -5.6,19 2.1,4.2 12.6,3.2 17.4,7.6 4.8,4.4 17.8,3.7 24,1.6 6.2,-2.1 9.4,-5.8 9.2,-6.5 -4.8,-18.7 -1.8,-27.6 -7.1,-36 z"
   id="path14"
   inkscape:connector-curvature="0"
   style="fill:#28896d" />
	<path
   d="m 27.7,82.8 c 0.3,0.6 3.1,5.5 3,11.7 0,2.9 -1.7,6.6 -2.7,9.6 7.4,6.7 22,3.9 27.6,0.3 -4.5,-6.7 1.9,-20.2 3,-22.4 2.2,-4.2 5.3,-11.6 2.6,-14.2 -2.7,-2.7 -5.9,-4.4 -7.1,-6.4 -1.2,-2 -2.5,-8.2 -2.5,-8.2 l -8.9,1.6 c 0,0 -3.6,-1.6 -7,-1.7 -2.2,2.1 -4.9,9.8 -7.4,12.7 -2.5,2.8 -5.4,5.4 -5.4,9.6 0,3.2 4.3,6.5 4.8,7.4 z"
   id="path16"
   inkscape:connector-curvature="0"
   style="fill:#e5e5e5" />
	<path
   d="m 37.9,53.9 c 0,0 -8.9,14.8 -2.4,16.5 6.3,1.7 16,-8.7 16,-8.7 L 43.7,53 Z"
   id="path18"
   inkscape:connector-curvature="0"
   style="fill:#fbd7c7" />
	<path
   d="m 40.2,54.9 c 0,0 -4.3,0.7 -4.9,-0.9 -0.7,-1.7 -4.4,-15.5 2.4,-24.1 6.8,-8.6 20.5,-3.1 20.5,6 0,8.1 -3.2,10.5 -4.7,14.5 -0.9,2.5 -1.6,5.8 -0.1,8.4 1.5,2.7 2.7,4 2.7,4 0,0 -7.6,4.6 -13.3,3.2 -5.7,-1.4 -0.2,-4.2 -1,-6.6 -0.7,-2.1 -1.6,-4.5 -1.6,-4.5 z"
   id="path20"
   inkscape:connector-curvature="0"
   style="fill:#fbd7c7" />
	<path
   d="M 23,76.1 C 26.1,82 35.5,86.6 49.6,83.5 48.8,85.8 28.5,91 23,76.1 Z"
   id="path22"
   inkscape:connector-curvature="0"
   style="opacity:0.15" />
	<path
   d="m 51,74.8 c -1.1,-2.9 -0.7,-10.2 5.3,-10.5 6,-0.3 6.7,5.7 7.2,13.6 0.5,7.9 3.5,20.7 3.7,23.3 0.2,2.6 -1.5,9.7 -5.6,16 -4.1,6.3 -6.9,11.4 -7.1,12.3 -0.2,1 -1.4,4.9 -3.1,6.1 -0.7,0.5 -1.5,1.2 -1.9,2.5 -0.4,1.3 0.5,2.4 0.7,2.7 0.3,0.7 -0.2,1.5 -1.4,2.2 -1.3,0.8 -3.2,-0.5 -4.2,-1.3 -0.7,-0.5 -2.5,-2.1 -2,-4.3 0.4,-1.6 1.7,-6.6 3.7,-7.8 2,-1.2 3.9,-2.7 4.6,-4.1 0.7,-1.4 2.2,-11.9 4.8,-17.2 1.4,-2.9 3.1,-4.8 3.1,-5.9 C 58.7,101.5 52.1,77.7 51,74.8 Z"
   id="path24"
   inkscape:connector-curvature="0"
   style="fill:#fbd7c7" />
	<path
   d="m 33.8,34.9 c 0,0 3.5,-11.5 16.4,-9.1 8.1,1.5 10.4,10.5 9.6,16.7 -0.7,6.2 -3.3,9.9 -2.1,12.9 2.3,5.6 1,9.4 -1.6,12.7 C 51.8,73.6 43,76.3 44,65.2 44.7,56.6 38.9,52.8 40.9,43.7 42.1,38 39.8,35.5 37.3,36 36.4,34.1 35.4,33.4 33.8,34.9 Z"
   id="path26"
   inkscape:connector-curvature="0"
   style="fill:#762c07" />
</g>
<path
   style="fill:#000000;fill-opacity:1;fill-rule:nonzero;stroke:none"
   d="m 215.20372,94.031287 c 0.71805,2.02022 1.40928,4.05155 2.04889,6.098243 0.28773,0.90217 0.50538,1.82331 0.71775,2.74522 0.52948,2.29145 3.77008,1.54264 3.24059,-0.74881 v 0 c -0.2326,-1.00382 -0.47091,-2.00681 -0.78407,-2.989463 -0.64696,-2.0659 -1.34255,-4.11752 -2.06786,-6.15696 -0.74371,-2.23114 -3.89902,-1.17937 -3.1553,1.05177 z"
   id="path1" /><path
   style="fill:#000000;fill-opacity:1;fill-rule:nonzero;stroke:none"
   d="m 220.05855,113.60882 c 0.29409,2.50458 0.64328,5.00249 0.89185,7.51378 0.15218,1.62348 0.25716,3.25063 0.3512,4.87831 0.13575,2.34791 3.45619,2.15592 3.32044,-0.19198 v 0 c -0.0968,-1.67306 -0.20498,-3.34558 -0.36187,-5.01429 -0.23828,-2.40216 -0.53748,-4.79617 -0.87564,-7.18582 0,-2.35183 -3.32598,-2.35183 -3.32598,0 z"
   id="path3" /><path
   style="fill:#000000;fill-opacity:1;fill-rule:nonzero;stroke:none"
   d="m 222.93492,139.07425 c -0.0117,2.08772 0.20039,4.17011 0.33502,6.2523 0.18372,2.13373 0.0461,4.27503 -0.12952,6.40368 -0.19277,2.34392 3.12203,2.61652 3.31479,0.27261 v 0 c 0.18778,-2.29078 0.32777,-4.59482 0.13378,-6.89093 -0.13007,-2.01081 -0.33741,-4.02172 -0.32809,-6.03766 0,-2.35182 -3.32598,-2.35182 -3.32598,0 z"
   id="path5" /><path
   style="fill:#000000;fill-opacity:1;fill-rule:nonzero;stroke:none"
   d="m 222.55439,164.51183 c -0.15283,2.57108 -0.57674,5.11063 -1.0494,7.63903 -0.47163,2.21595 -0.95919,4.42834 -1.46701,6.63626 -0.52708,2.292 2.7143,3.0374 3.24138,0.7454 v 0 c 0.51796,-2.2527 1.01603,-4.5098 1.4951,-6.77111 0.48671,-2.60896 0.92538,-5.22968 1.08557,-7.88229 0.25971,-2.33744 -3.04593,-2.70473 -3.30564,-0.36729 z"
   id="path7" /><path
   style="fill:#000000;fill-opacity:1;fill-rule:nonzero;stroke:none"
   d="m 216.08083,192.3793 c -0.36274,2.56105 -0.9167,5.08975 -1.53106,7.60079 -0.7424,2.86655 -1.77065,5.64887 -2.82725,8.41165 -0.1404,0.34678 -0.2808,0.69357 -0.4212,1.04036 -0.88198,2.18018 2.20126,3.42749 3.08324,1.24731 v 0 c 0.14818,-0.36656 0.29636,-0.73311 0.44453,-1.09967 1.10623,-2.89291 2.17853,-5.8077 2.95165,-8.81036 0.61797,-2.53339 1.18855,-5.08402 1.54687,-7.66857 0.51019,-2.29583 -2.7366,-3.01733 -3.24678,-0.72151 z"
   id="path9" /><path
   style="fill:#000000;fill-opacity:1;fill-rule:nonzero;stroke:none"
   d="m 240.6648,129.80814 c -1.35876,0.87407 -2.54706,1.96652 -3.67495,3.11478 -1.0661,1.1635 -2.00486,2.46203 -2.66859,3.89996 -0.50652,1.09736 -0.59143,1.51792 -0.94673,2.67877 -0.57675,2.34895 -1.01009,4.76748 -1.00534,7.19512 0.001,0.53861 0.0415,1.07643 0.0622,1.61464 0.0784,0.58173 0.12112,1.16939 0.23513,1.74521 0.4409,2.22685 1.33357,4.65152 2.57669,6.5592 0.3005,0.46114 0.65902,0.88175 0.98853,1.32263 1.40383,1.73471 3.26801,2.93899 5.19854,4.00205 2.0624,1.1303 3.66089,-1.78637 1.59849,-2.91668 v 0 c -1.52544,-0.8313 -3.02403,-1.75058 -4.15131,-3.10089 -0.24704,-0.31595 -0.51896,-0.61395 -0.74113,-0.94786 -0.80078,-1.20351 -1.35785,-2.54577 -1.77821,-3.92153 -0.14697,-0.48101 -0.29423,-0.96335 -0.3974,-1.45561 -0.0984,-0.46955 -0.13747,-0.9496 -0.20621,-1.4244 -0.0204,-0.45404 -0.0579,-0.90762 -0.0613,-1.36211 -0.0161,-2.14111 0.37305,-4.27477 0.86564,-6.34939 0.2504,-0.84578 0.35254,-1.30129 0.7085,-2.09552 0.5155,-1.15021 1.2572,-2.18914 2.10107,-3.1188 1.05655,-1.08748 2.19617,-2.07368 3.46091,-2.9143 1.78564,-1.53055 -0.37888,-4.05582 -2.16452,-2.52527 z"
   id="path15" /><path
   style="fill:#000000;fill-opacity:1;fill-rule:nonzero;stroke:none"
   d="m 242.3948,136.75869 c -1.03283,0.62369 -1.91863,1.51238 -2.56891,2.52998 -0.17297,0.27067 -0.31609,0.55929 -0.47414,0.83893 -0.69715,1.43827 -1.08747,3.03021 -1.23959,4.61994 -0.0316,0.33039 -0.0387,0.66267 -0.058,0.99401 0.0225,1.71285 0.31941,3.44585 0.95137,5.04467 0.1264,0.31978 0.28272,0.62691 0.42408,0.94036 0.66456,1.30011 1.63264,2.36007 2.70219,3.33237 1.7442,1.57762 3.97528,-0.88905 2.23108,-2.46666 v 0 c -0.74129,-0.66614 -1.43033,-1.37336 -1.91283,-2.25822 -0.0995,-0.20889 -0.21103,-0.41242 -0.29836,-0.62666 -0.48807,-1.19741 -0.72807,-2.50212 -0.77625,-3.78899 0.0662,-1.42941 0.28593,-2.88326 0.8924,-4.19118 0.40459,-0.77716 0.89853,-1.47193 1.61442,-1.9937 2.10354,-1.05177 0.61611,-4.02662 -1.48742,-2.97485 z"
   id="path17" /><path
   style="fill:#000000;fill-opacity:1;fill-rule:nonzero;stroke:none"
   d="m 293.50175,145.03977 c -2.31815,-0.042 -4.63608,-0.0954 -6.9543,-0.13177 -1.34031,-0.0468 -2.67627,-0.15232 -4.01508,-0.22372 -0.73935,-0.0552 -1.4751,-0.14142 -2.21065,-0.23367 -1.1285,-0.0765 -2.26126,-0.0194 -3.39169,-0.0406 -2.08681,-0.005 -4.17362,-0.0131 -6.26039,-0.0284 -3.09514,-0.0253 -6.19054,-0.0553 -9.2845,-0.14916 -2.68941,-0.0958 -5.37868,-0.22637 -8.05491,-0.52112 -2.38402,-0.22473 -4.77144,-0.42479 -7.16361,-0.53852 -1.38485,-0.0216 -2.76973,-0.0161 -4.15473,-0.0158 -2.35182,0 -2.35182,3.32598 0,3.32598 v -1.8e-4 c 1.36746,2.8e-4 2.73482,-0.007 4.10212,0.0154 2.30535,0.11534 4.60625,0.30762 6.90406,0.52426 2.7406,0.30093 5.49446,0.43526 8.24847,0.53369 3.12443,0.0952 6.25031,0.12562 9.37593,0.15116 2.093,0.0154 4.18604,0.0232 6.27909,0.0285 1.04556,0.0496 2.10278,-0.0666 3.14576,0.0309 0.7363,0.0997 1.47483,0.17798 2.21568,0.23405 1.38257,0.0748 2.76235,0.18119 4.14649,0.23099 2.33745,0.0375 4.67461,0.091 7.012,0.13332"
   id="path25"
   sodipodi:nodetypes="ccccccccccccccccccccc" /><path
   style="fill:#ff4400;fill-opacity:1;fill-rule:nonzero;stroke:none"
   d="m 331.14745,159.22736 c 1.65902,0.12296 3.32201,0.19609 4.9846,0.25526 2.01826,0.035 4.03636,0.0665 6.05497,0.0646 1.06419,-0.005 0.5435,-0.001 1.56206,-0.0118 2.3517,-0.0239 2.31789,-3.34973 -0.0338,-3.32582 v 0 c -0.99736,0.0102 -0.48685,0.006 -1.53153,0.0116 -1.97814,0.002 -3.95575,-0.0292 -5.93356,-0.0625 -1.58622,-0.0563 -3.17265,-0.12679 -4.75579,-0.2392"
   id="path19" /><path
   style="fill:#ff4400;fill-opacity:1;fill-rule:nonzero;stroke:none"
   d="m 343.95614,144.7837 c 0.0229,0.18015 0.0603,0.35904 0.0686,0.54044 0.011,0.24184 -0.005,0.48418 -0.0111,0.7262 -0.0288,1.13355 -0.0325,0.99817 -0.11191,2.21985 -0.1284,1.97625 -0.0604,0.87604 -0.17936,2.88751 -0.13807,2.7867 -0.21423,5.57581 -0.34169,8.36301 -0.10106,1.77207 -0.12496,3.54605 -0.10069,5.32036 0.017,1.00123 0.0533,2.00195 0.0921,3.00252 0.0294,0.72788 0.0598,1.45572 0.0902,2.18356 0.0146,0.47811 0.0531,0.95571 0.0519,1.43414 0.008,2.35182 3.33445,2.33981 3.32595,-0.012 v 0 c -0.004,-0.52174 -0.0333,-1.04252 -0.0549,-1.56379 -0.0308,-0.72367 -0.0615,-1.44736 -0.0897,-2.17114 -0.038,-0.97277 -0.0732,-1.94573 -0.0899,-2.91913 -0.0238,-1.70839 -4.5e-4,-3.41641 0.0975,-5.12261 0.12673,-2.77238 0.20323,-5.54664 0.33936,-8.31857 0.13279,-2.2462 0.0354,-0.6477 0.17836,-2.87133 0.0765,-1.19003 0.17014,-2.38986 0.10251,-3.58343 -0.0125,-0.22076 -0.0572,-0.43853 -0.0857,-0.65779 -0.3834,-2.32037 -3.66489,-1.77816 -3.2815,0.5422 z"
   id="path21" /><path
   style="fill:#ff4400;fill-opacity:1;fill-rule:nonzero;stroke:none"
   d="m 345.31356,160.12568 c 0.90642,1.05038 1.89031,2.04073 2.94886,2.93878 0.32982,0.27981 0.67507,0.5409 1.01261,0.81135 1.36587,1.02847 2.77639,2.00575 4.30198,2.78513 1.03714,0.52984 1.25555,0.58457 2.33488,1.00688 1.46863,0.49558 2.99087,0.90843 4.5516,0.93496 1.02648,0.0175 1.28897,-0.0666 2.30303,-0.22147 1.4104,-0.33349 2.79242,-0.85867 4.01583,-1.64665 0.71323,-0.45938 0.98047,-0.72204 1.61233,-1.26111 1.15777,-1.10804 2.10936,-2.4123 2.70152,-3.90878 0.12151,-0.30711 0.21239,-0.62546 0.3186,-0.93819 0.33047,-1.32315 0.46183,-2.71969 0.18218,-4.06754 -0.19336,-0.93204 -0.33006,-1.09919 -0.72561,-1.95013 -0.89794,-1.55409 -2.16565,-2.54988 -3.77763,-3.30458 -0.32772,-0.15343 -0.66849,-0.2773 -1.00274,-0.41594 -1.90638,-0.69873 -3.93955,-0.89895 -5.95265,-0.65181 -0.4811,0.0591 -0.9561,0.16016 -1.43416,0.24023 -1.9051,0.39393 -3.73393,1.06391 -5.57018,1.69096 -2.43572,0.83177 -0.0185,-0.007 -2.36421,0.81106 -1.63464,0.55036 -3.17111,1.33212 -4.6887,2.14111 -0.70883,0.39778 -1.41337,0.84661 -1.9266,1.49019 -0.0922,0.11564 -0.17135,0.24115 -0.25702,0.36173 -1.30411,1.95713 1.4637,3.80141 2.76782,1.84428 v 0 c 0.0175,-0.23289 0.8279,-0.6647 0.98041,-0.76121 1.36671,-0.72857 2.74628,-1.44165 4.21945,-1.93566 2.27203,-0.79264 -0.0756,0.0223 2.35366,-0.80741 1.66704,-0.5693 3.32555,-1.1821 5.0507,-1.55745 0.37696,-0.0674 0.75136,-0.15107 1.13086,-0.20219 1.4962,-0.20152 3.01039,-0.0914 4.43624,0.41654 1.18966,0.47196 2.33406,0.98324 3.04666,2.1008 0.20442,0.37981 0.31475,0.52853 0.42038,0.95443 0.20843,0.84037 0.12867,1.72673 -0.0481,2.56283 -0.0636,0.20323 -0.11551,0.4105 -0.19082,0.60969 -0.39821,1.05312 -1.04353,1.96931 -1.84135,2.75762 -0.3785,0.33072 -0.68519,0.62067 -1.10446,0.90042 -0.87466,0.5836 -1.87283,0.97266 -2.88333,1.24342 -0.67215,0.11769 -0.87502,0.18296 -1.55551,0.18587 -1.22242,0.005 -2.41399,-0.34518 -3.5658,-0.71708 -0.88349,-0.33875 -1.08364,-0.39 -1.93569,-0.82082 -1.36013,-0.68771 -2.61262,-1.55948 -3.83015,-2.47076 -0.2855,-0.22628 -0.57831,-0.44361 -0.8565,-0.67883 -0.95989,-0.81161 -1.85412,-1.70564 -2.67318,-2.65844 -1.54698,-1.77142 -4.05214,0.41636 -2.50516,2.18777 z"
   id="path23" /><g
   transform="translate(32.236236,-28.902347)"
   id="g2323"><path
     style="opacity:0.2"
     d="m 42.8,237.8 c 5.5,-0.2 6.9,-2.6 8.2,-7.3 1.4,-4.7 -0.4,-5.7 2.9,-8.1 3.3,-2.4 5.9,-4.8 5,-8.4 -1.7,-6.9 -9,-15.1 -15.9,-15.1 -6.9,0 -19.8,10.2 -20.2,11.2 -0.4,1 -3.4,2.3 -0.4,6.4 4.8,6.5 8.4,21.6 20.4,21.3 z"
     id="path2265" /><path
     style="fill:#ffffff"
     d="m 27.8,204.8 c 0,0 -2.4,2.3 -4.3,3.7 -1.9,1.4 -2,4.1 -1.9,5 0.1,0.9 2.1,3.3 5.5,2.7 3.4,-0.6 6,-4.3 8.3,-6.4 2.3,-2.2 2.3,-2 4,-2.3 1.7,-0.3 0,-4.2 -2.3,-4.3 -2.3,-0.1 -6.8,-2.3 -6.8,-2.3 0,0 -1.5,2.8 -2.5,3.9 z"
     id="path2267" /><path
     style="fill:#ffffff"
     d="m 27.8,204.8 c 0,0 -2.4,2.3 -4.3,3.7 -1.9,1.4 -2,4.1 -1.9,5 0.1,0.9 2.1,3.3 5.5,2.7 3.4,-0.6 6,-4.3 8.3,-6.4 2.3,-2.2 2.3,-2 4,-2.3 1.7,-0.3 0,-4.2 -2.3,-4.3 -2.3,-0.1 -6.8,-2.3 -6.8,-2.3 0,0 -1.5,2.8 -2.5,3.9 z"
     id="path2269" /><path
     style="fill:#262626"
     d="m 35.4,209.9 c 2.3,-2.2 2.3,-2 4,-2.3 0.2,0 0.4,-0.1 0.5,-0.3 L 33.3,206 c 0,0 0.3,2.6 -1.8,4.9 -2,2.3 -3.2,3.6 -5.7,3.6 -1.8,0 -3.1,-0.4 -4.1,-1.6 0,0.3 0,0.5 0,0.7 0.1,1 2.1,3.3 5.5,2.7 3.4,-0.6 5.9,-4.2 8.2,-6.4 z"
     id="path2271" /><path
     style="fill:#cc291f"
     d="m 25.4,119.9 c 0,0 -3.4,9.4 -3.1,20.4 0.3,11.5 1.6,18.7 2.4,21.7 1.1,4.5 3.4,5.9 3.9,15.7 0.5,9.8 0.6,19.8 -0.2,22.7 -0.8,2.9 -2.7,4 -2.4,4.7 0.3,0.7 3.8,-0.4 5.5,1.2 1.7,1.6 4.5,2.7 5.9,2.7 1.4,0.1 2,0 2,0 l -3.7,-78.2 z"
     id="path2273" /><path
     style="opacity:0.2"
     d="m 25.4,119.9 c 0,0 -3.4,9.4 -3.1,20.4 0.3,11.5 1.6,18.7 2.4,21.7 1.1,4.5 3.4,5.9 3.9,15.7 0.5,9.8 0.6,19.8 -0.2,22.7 -0.8,2.9 -2.7,4 -2.4,4.7 0.3,0.7 3.8,-0.4 5.5,1.2 1.7,1.6 4.5,2.7 5.9,2.7 1.4,0.1 2,0 2,0 l -3.7,-78.2 z"
     id="path2275" /><path
     style="fill:#ffffff"
     d="m 41.7,225.9 c 0,0 -1.7,4.5 -1.7,5.4 0,0.9 -0.2,3.9 0.4,4.6 0.5,0.6 3.2,1.5 5.3,1.2 2.2,-0.3 4.3,-2.4 4.5,-3.2 0.2,-0.9 -0.1,-6.3 -0.2,-7.1 -0.1,-0.8 -0.5,-2.6 -0.5,-2.6 z"
     id="path2277" /><path
     style="fill:#262626"
     d="m 49.6,224.1 -1.4,0.3 c 0.4,1.9 0.9,6.3 0.3,8.1 -0.8,2.1 -3,2.7 -4.9,2.7 -1.1,0 -3,-0.6 -3.5,-2 0,1.1 0.1,2.3 0.4,2.7 0.5,0.6 3.2,1.5 5.3,1.2 2.2,-0.3 4.3,-2.4 4.5,-3.2 0.2,-0.9 -0.1,-6.3 -0.2,-7.1 -0.1,-0.8 -0.5,-2.7 -0.5,-2.7 z"
     id="path2279" /><path
     style="fill:#cc291f"
     d="m 33.8,131.7 c 0,0 -3,7.1 -3.5,17.3 -0.5,10.2 0.7,17 0.9,19.3 0.1,2.3 0.5,9.4 1.8,12.1 1.3,2.7 3.7,7.9 4.6,14.4 0.9,6.5 1.3,18.4 1.4,21.4 0.1,4 -0.5,7.3 0.2,9.2 0.7,1.9 3,-0.4 5.5,0.3 2.5,0.6 6.4,1.4 7.1,1 0.7,-0.4 -0.5,-7.5 -0.4,-11.6 0.1,-4.1 -0.2,-19.8 -1.1,-26.4 -0.8,-6.6 -5.6,-12.8 -4.8,-19.5 0.8,-6.7 5.4,-20.8 6.5,-25 1.1,-4.1 1.4,-10.2 0.8,-15.7 -0.5,-5.6 -19,3.2 -19,3.2 z"
     id="path2281" /><path
     style="fill:#fbd7c7"
     d="m 25.4,114.8 c 0,0 -4.3,3.1 -5.9,5.1 -1.6,2 -2.4,2.9 -2.4,4.7 0,1.8 0.8,2.9 1.6,2.7 0.8,-0.2 0,-2.7 0,-2.7 l 0.8,-1.6 c 0,0 -0.8,1.4 -0.4,2 0.4,0.5 2.2,2.4 2.7,2 0.6,-0.4 0.4,-1.2 0.4,-1.2 0,0 -1.5,-1 -1.2,-1.6 0.3,-0.6 0.8,-0.8 0.8,-0.8 0,0 -0.3,1.8 0,2.4 0.3,0.5 1.6,0.4 1.6,0.4 l 2.4,-5.5 z"
     id="path2283" /><path
     style="fill:#ffcc00"
     d="m 44.8,71.7 c -4.6,-0.9 -13.3,-1.6 -16.5,2.4 -3.2,4 -2.4,5.1 -2.4,7.1 0,2 -1.5,5.3 -2.4,7.5 -0.9,2.2 -2.3,5.9 -0.8,8.2 1.5,2.4 4.3,3.5 4.3,3.5 0,0 -0.8,9.3 -1.7,12.9 -0.9,3.5 -2,9.8 -2.4,11.8 -0.4,2 1.6,7.9 5.5,9.4 3.9,1.6 12.8,2.3 18.1,-1.6 5.3,-3.9 6.3,-6.3 6.3,-6.3 0,0 -1.9,-7.7 -1.6,-10.6 0.3,-2.9 5.2,-17.6 5.2,-17.6 L 60,86.6 61.2,85.8 c 0,0 0.3,-2.6 -1.2,-5.1 -1.5,-2.6 -4,-5.2 -7.5,-6.3 -3.5,-1.1 -3.7,-1.9 -7.7,-2.7 z"
     id="path2285" /><path
     style="fill:#fbd7c7"
     d="m 34.2,73.6 c 0,0 -6.9,5.5 -2.4,10.2 4.5,4.7 13.3,-4.2 14.9,-7.9 1.7,-3.5 -7.1,-7.6 -12.5,-2.3 z"
     id="path2287" /><path
     style="opacity:0.2;fill:#262626"
     d="m 22.3,93.3 c 0,0 -0.1,4.3 11,6.5 16.5,3.3 19.8,-2.9 19.8,-2.9 0,0 -3.1,8.6 -19.2,5.5 -14,-2.7 -11.6,-9.1 -11.6,-9.1 z"
     id="path2289" /><path
     style="fill:#825012"
     d="m 42.9,45.5 c -8.1,-0.5 -12,3 -13.5,8.6 -1.5,5.4 4,15.3 -1.8,17.9 0.1,2.2 5.1,4.5 7.3,2.1 2.2,-2.3 2.9,-2.4 2.9,-2.4 z"
     id="path2291" /><path
     style="fill:#fbd7c7"
     d="m 32.3,55.6 c -1.5,3.1 -1.9,15.6 0.6,17.6 2.5,2 7.6,-1.3 12.5,-3.5 4.9,-2.2 5.5,-19 -1.9,-19.2 -7.4,-0.2 -9.6,1.8 -11.2,5.1 z"
     id="path2293" /><path
     style="fill:#825012"
     d="m 41.4,45.7 c -3.3,0.8 -7.1,5.2 -6.4,10 1,6.2 13.2,18.3 4.6,22.2 1.4,4.6 9.5,4.3 14,2 4.3,-2.3 4.7,-4.5 4.6,-5.3 -0.1,-0.8 -3.8,-4.9 -3.8,-10.9 -0.1,-6.1 -0.4,-21.1 -13,-18 z"
     id="path2295" /><path
     style="fill:#fbd7c7"
     d="m 50.6,88.9 c 0,0 2.8,0 4.8,-0.3 2,-0.3 4.7,-2 4.7,-2 0,0 0.2,4.6 0.8,7.3 0.6,2.7 1.6,10.4 2,11.5 0.4,1.1 1.9,2 0,5.9 -1.9,3.9 -9.7,15.9 -11.1,19.1 -1.4,3.2 -1.3,6.2 -2,7.1 -0.7,0.9 -2.5,1.7 -2.7,1.6 -0.3,-0.1 -0.7,-0.1 -0.7,-0.1 0,0 -0.4,0.4 -1.1,0.4 -0.7,0 -0.9,-0.4 -0.9,-0.4 0,0 -0.5,0.8 -1.6,0.7 -1.1,-0.1 -1,-0.8 -1,-0.8 0,0 -1.6,0.8 -2.4,0.6 -0.8,-0.2 -1.2,-1 -0.7,-1.3 0.5,-0.3 1.6,-0.2 2.4,-0.9 0.8,-0.7 2.1,-2.8 2.1,-2.8 0,0 -0.3,-0.2 -0.2,-1.4 0,-1.2 -0.1,-3.1 1,-3.7 1.2,-0.6 2.6,-0.6 3.4,-1.6 2.5,-3 3.2,-8.2 5.4,-12.7 2.1,-4.5 3.6,-6.2 3.6,-6.6 0,-0.4 -2.8,-6.7 -3.8,-10.2 -1.1,-3.8 -2,-9.4 -2,-9.4 z"
     id="path2297" /></g><path
   style="fill:none;stroke:#000000;stroke-width:3.32598;stroke-linecap:round;stroke-linejoin:round"
   d="m 293.83383,134.2531 c 0.41127,7.75118 -0.39281,15.46558 -1.25841,23.04754 9.05003,0.0641 28.11337,0.13012 38.66086,0.27028"
   id="path11"
   sodipodi:nodetypes="ccc" /><g
   id="g874"
   transform="translate(-15.223606,-17.956118)"><path
     id="path815"
     d="m 28.6,81.8 c 0,0 -3.2,10.8 -5.9,19.1 -2.7,8.3 -4.4,13.8 -5.3,15.9 -0.9,2.1 -1.3,5.7 -0.8,7.3 0.5,1.6 2.3,5 3,5.7 1.7,1.6 4.4,1.2 4.8,0.8 0.4,-0.5 0.4,-2.2 -0.3,-2.9 -0.7,-0.7 -2.6,-3 -1.4,-6 1.2,-2.9 1,-4.2 1,-6 0,-1.5 -0.5,-1.7 0.7,-4.1 1.2,-2.5 6.9,-14.5 7.5,-16.2 0.6,-1.7 -3.3,-13.6 -3.3,-13.6 z"
     inkscape:connector-curvature="0"
     style="fill:#fbd7c7" /><path
     id="path817"
     d="m 24.3,206.2 c -11.8,7.6 -12.4,14.4 0,21 13.5,7.2 22.4,3.3 32.9,-2.7 10.5,-6 11.8,-13.4 -3.6,-19.5 -12.5,-5 -20.4,-4.5 -29.3,1.2 z"
     inkscape:connector-curvature="0"
     style="opacity:0.2" /><path
     id="path819"
     d="m 42.3,54.7 c 0,0 -9.1,-4 -12.3,0.3 -3.2,4.3 -1.7,11 -1.7,11 0,0 -5.3,6 -5.3,9.4 0,3.3 5.1,6.5 5.1,6.5 0,0 0.6,15.8 -0.3,22.3 -0.9,6.5 -3.8,23.3 -3.1,33.9 0.7,10.6 1.6,25 1.9,29.2 0.3,4.1 2.2,10 3,14.8 0.9,4.8 4.1,13.2 0.9,19.6 -3.2,6.4 -6.1,9.3 -7.4,10.5 -1.3,1.2 0.2,5.2 3,4.5 2.8,-0.7 7.2,-7.1 9.9,-8.1 2.7,-1.1 7.2,-4 6,-7.7 -1.2,-3.6 -1.7,-2.2 -2,-5.3 -0.3,-3.1 2.2,-16.7 1.3,-22.8 -0.9,-6.1 -3.2,-7.8 -3.6,-8.8 -0.4,-1 5.7,-29.5 5.7,-29.5 0,0 1.2,27.3 1.1,30.2 -0.1,2.9 2.1,17.7 2.7,24.6 0.7,7 1,18.8 -2,22.9 -2.9,4.1 -8,10.3 -6,11.7 2,1.4 8.3,2.7 9.8,-0.9 1.5,-3.6 5.3,-11.1 6.7,-13.1 1.4,-2 1.9,-3.1 1,-5 -0.9,-1.9 -1.5,-5 -0.5,-10.3 1,-5.3 4.1,-14.7 3.3,-19.7 -0.8,-5 -3.2,-8.1 -2.9,-11.7 0.3,-3.5 8.1,-24.8 6.6,-39.7 C 61.6,108.7 54.2,106 52.9,100 51.6,94 55.9,86.1 58.1,81.8 60.3,77.6 63.4,70.2 60.7,67.6 58,64.9 54.8,63.2 53.6,61.2 52.4,59.2 51.1,53 51.1,53 Z"
     inkscape:connector-curvature="0"
     style="fill:#fbd7c7" /><path
     id="path821"
     d="m 24.9,210.3 c 0,0 -4.9,1.7 -5.9,3.9 -0.8,1.8 -0.5,3.9 1.2,5 1.8,1 5.2,1.3 8.2,-0.4 2.9,-1.7 6.8,-8.4 7.5,-8.7 0.7,-0.3 0.2,3.7 0.2,3.7 l 2.1,1.1 2.3,-0.9 c 0,0 -0.2,-4.5 0.7,-6 0.9,-1.5 2.6,-3.9 2,-6.9 -0.6,-3 -2.6,-3.3 -2.6,-3.3 0,0 0,3.5 -4,7.3 -3.8,3.6 -5.9,9.6 -9.2,9.3 -4.5,-0.7 -2.5,-4.1 -2.5,-4.1 z"
     inkscape:connector-curvature="0"
     style="fill:#2d3134" /><path
     id="path823"
     d="m 41.8,217.1 c 0,0 -4.6,3.5 -4.9,5.7 -0.3,2.2 -0.2,3.7 2.9,4.7 3.1,1 7.1,-0.2 9,-1.8 1.9,-1.6 4.4,-5.8 4.4,-5.8 l 2,1.1 2.3,-1.1 c 0,0 -0.3,-2.7 0.4,-5.1 0.7,-2.4 1.4,-4.4 1.4,-7.4 0,-3 -2.8,-3.3 -2.8,-3.3 0,0 1.7,1.6 -0.8,5.1 -2.5,3.5 -4.4,11.3 -8.1,11.5 -7,0.5 -5.8,-3.6 -5.8,-3.6 z"
     inkscape:connector-curvature="0"
     style="fill:#2d3134" /><path
     id="path825"
     d="M 60.3,110.8 C 58.1,107.3 48.7,100.2 58.2,82 60.4,77.8 63.8,69.9 61.1,67.3 58.4,64.6 55.2,62.9 54,60.9 c -1.2,-2 -2.8,-7.8 -2.8,-7.8 l -8.9,1.6 -5.5,-2 c 0,0 -2.5,-0.4 -7.3,1 -4.8,1.4 -4.8,8.9 -4.9,13.6 0,0.8 -2,5 -2,8.1 0,4.2 5.3,7.1 5.4,12.1 0.2,2.1 0.1,4.8 0,7.6 0,2.9 -4.7,26.5 -5.7,30 -1.9,6.8 -4.2,32.1 -3.7,33.1 2.1,4.2 12.6,3.2 17.4,7.6 4.8,4.4 17.8,3.7 24,1.6 6.2,-2.1 9.4,-5.8 9.2,-6.5 -4.6,-18.8 -3.5,-41.7 -8.9,-50.1 z"
     inkscape:connector-curvature="0"
     style="fill:#3399cc" /><path
     id="path827"
     d="m 47.9,109.2 c 4.6,-1.1 8.5,-3.7 9.3,-4.1 -0.8,-0.9 -1.4,-1.5 -1.4,-1.6 0,0 -7.3,4.4 -17.3,3.6 -10,-0.8 -12.1,-3.6 -12.1,-3.6 -1.4,6.7 -4.3,18.2 -5.3,21.8 -1.9,6.8 -5.2,17.9 -4.7,18.8 2.1,4.2 13,3.2 17.8,7.6 4.8,4.4 18.9,1.3 18.9,1.3 0,0 1.1,-17.1 -2.6,-33.4 -0.7,-3.3 -1.9,-7.7 -2.6,-10.4 z"
     inkscape:connector-curvature="0"
     style="fill:#ffffff" /><path
     id="path829"
     d="M 37.2,54.2 33,74.3 51.2,62.4 51.1,57.1 Z"
     inkscape:connector-curvature="0"
     style="fill:#fbd7c7" /><path
     id="path831"
     d="M 54.3,66.6 33,74.3 51.2,62.4 Z"
     inkscape:connector-curvature="0"
     style="fill:#ffffff" /><path
     id="path833"
     d="M 37.2,54.2 33,74.3 31.3,55.6 Z"
     inkscape:connector-curvature="0"
     style="fill:#ffffff" /><path
     id="path835"
     d="M 22.6,76.1 C 25.7,82 35.1,86.6 49.2,83.5 48.3,85.8 28,91 22.6,76.1 Z"
     inkscape:connector-curvature="0"
     style="opacity:0.15" /><path
     id="path837"
     d="M 33.7,33.8 C 32,37 30.9,44.3 31.8,48.6 c 0.9,4.3 2.5,6.8 3.7,7.1 1.2,0.3 2.5,-0.2 2.5,-0.2 0,0 0.4,1.2 0.1,2.7 -0.6,3 -2.2,7.5 -1.8,8 0.5,0.7 8.8,-3 11.5,-5.2 2.2,-1.7 4,-4.8 3.9,-5.3 -0.1,-0.5 -1.7,-3.8 -1.5,-5 0.2,-1.2 3,-3.7 3.2,-4.9 C 53.6,44.6 56.2,34 48.3,31.2 40.4,28.4 35.8,29.8 33.7,33.8 Z"
     inkscape:connector-curvature="0"
     style="fill:#fbd7c7" /><path
     id="path839"
     d="m 32.2,35.9 c 0,1.4 1.4,1.6 3.9,2.9 2.5,1.3 4.8,5.8 6.9,6.4 2.1,0.6 4.9,0 6.8,-0.4 2,-0.4 2.9,0.6 3.1,1.4 0.2,0.8 4.6,-6.3 2.6,-11.9 -2.1,-6 -9.3,-9.8 -16.2,-6.9 -6.3,2.8 -7.1,7.3 -7.1,8.5 z"
     inkscape:connector-curvature="0"
     style="fill:#825012" /><path
     id="path841"
     d="M 51,75.2 C 49.9,72.3 50.3,65 56.3,64.7 c 6,-0.3 6.7,5.7 7.2,13.6 0.5,7.9 3.5,20.7 3.7,23.3 0.2,2.6 -1.5,9.7 -5.6,16 -4.1,6.3 -6.9,11.4 -7.1,12.3 -0.2,1 -1.4,4.9 -3.1,6.1 -0.7,0.5 -1.5,1.2 -1.9,2.5 -0.4,1.3 0.5,2.4 0.7,2.7 0.3,0.7 -0.2,1.5 -1.4,2.2 -1.3,0.8 -3.2,-0.5 -4.2,-1.3 -0.7,-0.5 -2.5,-2.1 -2,-4.3 0.4,-1.6 1.7,-6.6 3.7,-7.8 2,-1.2 3.9,-2.7 4.6,-4.1 0.7,-1.4 2.2,-11.9 4.8,-17.2 1.4,-2.9 3.1,-4.8 3.1,-5.9 C 58.7,101.9 52.1,78.1 51,75.2 Z"
     inkscape:connector-curvature="0"
     style="fill:#fbd7c7" /><path
     id="path843"
     d="m 56.1,94.5 9.6,-2.2 C 64.8,87.2 64,78.7 63.5,72.8 62.9,65.3 57.6,63.4 54.4,65 c -8.2,4.3 -2.6,14.4 -0.9,20.3 0.8,2.6 1.8,6.6 2.6,9.2 z"
     inkscape:connector-curvature="0"
     style="fill:#3399cc" /><path
     id="path845"
     d="m 55.5,43.8 c 0,0 4.9,4.5 3.8,9.7 -2.9,15 -4.8,7.8 -6.8,25.2 -3.3,-7.4 -5.5,-20.4 -2.6,-27.4 1.3,-3.2 5.6,-7.5 5.6,-7.5 z"
     inkscape:connector-curvature="0"
     style="fill:#825012" /><path
     id="path847"
     d="m 55.6,42.2 c 1.3,0.7 0.9,2.4 -0.4,3.7 -1.3,1.3 -1.9,2.1 -2.8,1.4 -0.8,-0.7 0.3,-1.4 1.3,-2.9 0.9,-1.4 1.2,-2.6 1.9,-2.2 z"
     inkscape:connector-curvature="0"
     style="fill:#3399cc" /></g><path
   style="fill:none;stroke:#000000;stroke-width:3.38;stroke-linecap:round;stroke-linejoin:round;stroke-dasharray:none"
   d="m 293.83881,134.20048 c -0.37681,-5.14299 8.99245,-5.88381 11.32569,-0.71909 1.01294,2.24217 2.40251,12.49848 -11.59535,13.39308"
   id="path13"
   sodipodi:nodetypes="csc" /></svg>
