<?xml version="1.0" encoding="UTF-8" standalone="no"?>
<!-- Generator: Adobe Illustrator 18.1.0, SVG Export Plug-In . SVG Version: 6.00 Build 0)  -->

<svg
   version="1.1"
   id="Layer_1"
   x="0px"
   y="0px"
   viewBox="0 0 406.18886 251.2482"
   enable-background="new 0 0 80 240"
   xml:space="preserve"
   sodipodi:docname="15 ni li mije..svg"
   width="406.18884"
   height="251.2482"
   inkscape:version="1.3.2 (091e20e, 2023-11-25, custom)"
   xmlns:inkscape="http://www.inkscape.org/namespaces/inkscape"
   xmlns:sodipodi="http://sodipodi.sourceforge.net/DTD/sodipodi-0.dtd"
   xmlns="http://www.w3.org/2000/svg"
   xmlns:svg="http://www.w3.org/2000/svg"
   xmlns:rdf="http://www.w3.org/1999/02/22-rdf-syntax-ns#"
   xmlns:cc="http://creativecommons.org/ns#"
   xmlns:dc="http://purl.org/dc/elements/1.1/"><metadata
   id="metadata47"><rdf:RDF><cc:Work
       rdf:about=""><dc:format>image/svg+xml</dc:format><dc:type
         rdf:resource="http://purl.org/dc/dcmitype/StillImage" /><dc:title /></cc:Work></rdf:RDF></metadata><defs
   id="defs45" /><sodipodi:namedview
   pagecolor="#ffffff"
   bordercolor="#666666"
   borderopacity="1"
   objecttolerance="10"
   gridtolerance="10"
   guidetolerance="10"
   inkscape:pageopacity="0"
   inkscape:pageshadow="2"
   inkscape:window-width="1920"
   inkscape:window-height="1051"
   id="namedview43"
   showgrid="false"
   fit-margin-top="0"
   fit-margin-left="0"
   fit-margin-right="0"
   fit-margin-bottom="0"
   inkscape:zoom="0.98333335"
   inkscape:cx="94.57627"
   inkscape:cy="184.57627"
   inkscape:window-x="-9"
   inkscape:window-y="-9"
   inkscape:window-maximized="1"
   inkscape:current-layer="Layer_1"
   inkscape:showpageshadow="2"
   inkscape:pagecheckerboard="0"
   inkscape:deskcolor="#d1d1d1" />
<g
   id="g40"
   transform="translate(135.42131,-16.75391)">
	<path
   d="m 13.4,105 c 0,0 1,9.1 1.3,12.3 0.3,3.2 1.3,5.5 2.1,7.3 0.8,1.8 4.5,6.2 5,5.9 0.5,-0.3 -0.3,-2.1 -0.3,-2.5 0,-0.4 0.4,-1.7 -0.2,-2.5 -0.6,-0.7 -1.7,-4 -1.6,-4.7 0.1,-0.7 1.4,-0.9 1.5,-1.4 0.1,-0.5 0.1,-0.5 0.1,-0.5 0,0 -3.6,-6 -3.6,-8.6 0,-2.7 -0.1,-6.1 -0.1,-6.1 0,0 -0.6,-0.3 -2,0 -1.4,0.2 -2.2,0.8 -2.2,0.8 z"
   id="path2"
   inkscape:connector-curvature="0"
   style="fill:#fbd7c7" />
	<path
   d="m 28.1,216.9 c 0.6,1.8 -6.7,11.8 7.1,13.5 20.6,2.7 21.6,-13.7 29.3,-18.2 13.9,-8.1 -3.1,-14.1 -22.5,-14.1 -16.3,0.1 -30.5,1.9 -29.4,10.1 0.7,6.1 14.6,5.6 15.5,8.7 z"
   id="path4"
   inkscape:connector-curvature="0"
   style="opacity:0.3;fill:#262626" />
	<path
   d="m 34,200.2 c 0,0 -1.6,1.2 -5.5,1.1 -3.9,-0.1 -7.3,-0.8 -11.4,1.5 -4.8,2.7 -1.2,7 0.1,7.4 1.3,0.4 18.1,0.9 21.2,0.7 3.1,-0.2 2.1,-8.2 2.1,-8.2 z"
   id="path6"
   inkscape:connector-curvature="0"
   style="fill:#762c07" />
	<path
   d="m 39.4,209.1 c -1.5,0.1 -9,0.6 -13.5,0.5 -5,-0.1 -6.4,-0.5 -7.8,-1 -1.7,-0.6 -3.2,-1.4 -3.3,-3.1 -0.5,2.2 0.9,4.1 2.5,4.6 1.5,0.5 3.3,0.9 8.6,1.1 4.2,0.1 11.3,-0.3 12.6,-0.4 0.8,-0.1 1.4,-0.7 1.7,-1.6 -0.4,0.3 -0.5,-0.1 -0.8,-0.1 z"
   id="path8"
   inkscape:connector-curvature="0"
   style="fill:#262626" />
	<path
   d="m 39.7,211 c 0,0 -3.9,4.4 -6.6,7.6 -2.7,3.2 -3.8,5.6 -3.6,7.9 0.2,2.3 3.5,3.4 8,3.4 4.5,0 9.3,-2.8 11.5,-5.9 2.3,-3.1 5.6,-5.9 5.6,-7.4 0,-1.5 -0.1,-6.2 -0.1,-6.2 z"
   id="path10"
   inkscape:connector-curvature="0"
   style="fill:#762c07" />
	<path
   d="m 54.6,210.4 h -0.5 c 0,1.5 0.1,3.3 0.1,4.1 0,1.5 -3.4,4.3 -5.6,7.4 -2.3,3.1 -7,5.9 -11.5,5.9 -3.5,0 -6.3,-0.6 -7.4,-2 0,0.2 0,0.4 0,0.6 0.1,2.3 3.5,3.4 8,3.4 4.6,0 9.3,-2.8 11.5,-5.9 2.3,-3.1 5.6,-5.9 5.6,-7.4 -0.1,-1.4 -0.2,-6.1 -0.2,-6.1 z"
   id="path12"
   inkscape:connector-curvature="0"
   style="fill:#262626" />
	<path
   d="m 19.7,114.3 c 0,0 -0.5,13 1.6,23.9 2.1,10.9 9.5,26.4 9.5,31.1 0,4.7 2.3,19 2.1,22.8 -0.1,3.8 -0.9,8.6 -0.9,8.6 0,0 2.7,5 6.2,6.7 3.5,1.7 7.2,-0.4 7.2,-0.4 L 39,116.5 Z"
   id="path14"
   inkscape:connector-curvature="0"
   style="fill:#3399cc" />
	<path
   d="m 19.7,114.3 c 0,0 -0.5,13 1.6,23.9 2.1,10.9 9.5,26.4 9.5,31.1 0,4.7 2.3,19 2.1,22.8 -0.1,3.8 -0.9,8.6 -0.9,8.6 0,0 2.7,5 6.2,6.7 3.5,1.7 7.2,-0.4 7.2,-0.4 L 39,116.5 Z"
   id="path16"
   inkscape:connector-curvature="0"
   style="opacity:0.2" />
	<path
   d="m 31.1,119.4 c 0,0 0.3,14.3 -0.3,25.6 -0.5,11.3 2.3,21.7 3.4,25.3 1.1,3.6 1.5,9.7 1.5,15.2 0,5.5 0.2,26.2 1,27 0.8,0.8 5.2,3.6 10.9,4 4.3,0.3 9,-2.4 9,-3.1 0,-0.7 1.5,-16.4 0.3,-29.1 -1.2,-12.7 -3.8,-19.3 -3.6,-21.3 0.1,-2 3.1,-29.1 2.8,-34.7 -0.3,-5.6 -2,-18.4 -2,-18.4 z"
   id="path18"
   inkscape:connector-curvature="0"
   style="fill:#3399cc" />
	<path
   d="m 17.9,69.4 c 0,0 -2.2,7.4 -3.6,17.6 -1.5,10.7 -0.7,25.3 -0.7,25.3 0,0 2.1,-1.6 6.2,-1.6 4.1,0 -1.9,-41.3 -1.9,-41.3 z"
   id="path20"
   inkscape:connector-curvature="0"
   style="fill:#ffcc00" />
	<path
   d="m 17.9,69.4 c 0,0 -2.2,7.4 -3.6,17.6 -1.5,10.7 -0.7,25.3 -0.7,25.3 0,0 2.1,-1.6 6.2,-1.6 4.1,0 -1.9,-41.3 -1.9,-41.3 z"
   id="path22"
   inkscape:connector-curvature="0"
   style="opacity:0.2" />
	<path
   d="m 51.5,127 c 0,0 -0.4,2.9 -2.3,5.1 -1.9,2.1 -3.5,5.8 -3.5,7.3 0,2.1 0,3.9 0.9,4 1.8,0.2 1.1,-1.3 1.7,-1.3 0.6,0 0.3,2.6 3,2.7 3.5,0.1 8.5,-2.3 8.5,-4.6 0,-1.2 -0.5,-4.4 -0.9,-6.2 -0.5,-1.9 -0.5,-4.5 -0.5,-4.5 z"
   id="path24"
   inkscape:connector-curvature="0"
   style="fill:#fbd7c7" />
	<path
   d="m 38.8,44 c 9.5,2.5 20.1,4.6 23.7,12.3 3.1,6.6 2.9,8.7 2.7,14.9 -0.3,6.2 -0.8,18.5 -0.5,22.5 0.3,4 -1.1,20.8 -2.3,26.4 -1.2,5.6 -1.6,10.3 -2.5,10.6 -0.9,0.3 -10.2,-0.9 -9.5,-2.3 0.9,-2 1.2,-7.6 1.2,-7.6 0,0 -4.4,5.4 -14.2,4 -9.8,-1.3 -18.2,-6.1 -19.1,-8.6 -0.4,-1.2 -0.6,-19.8 0.3,-24.8 0.9,-5 -2,-15.7 -2.1,-20.4 -0.1,-4.7 2.9,-17.4 3.1,-19.7 0.1,-3.4 4.2,-11.2 19.2,-7.3 z"
   id="path26"
   inkscape:connector-curvature="0"
   style="fill:#ffcc00" />
	<path
   d="m 51.5,120.9 c 0,0 0.7,-5.2 0.7,-9.8 0,-4.6 0.1,-11.3 -0.4,-13.9 C 51.3,94.5 49.6,85 49.3,82.5 48.6,76.4 49,72.7 49.5,71.4 c -2.4,4.1 -1,19 -0.3,25.2 0.9,8.7 -0.3,25.8 -0.6,26.6 -0.3,0.7 2.9,-2.3 2.9,-2.3 z"
   id="path28"
   inkscape:connector-curvature="0"
   style="opacity:0.2" />
	<path
   d="m 42.5,38.2 c 0,0 0,5.2 0.9,6.1 0.9,0.9 3,1.3 2.3,2.6 -0.7,1.3 -8.1,9.7 -13.5,9.2 -5.3,-0.5 -4,-9.4 -4,-9.4 z"
   id="path30"
   inkscape:connector-curvature="0"
   style="fill:#fbd7c7" />
	<path
   d="m 22.8,26.5 c -2.2,2.8 -1.3,11 -0.3,14.7 1,3.7 2.2,5.9 2.7,7.3 0.4,1.4 1.9,3.6 3.9,3.5 2,-0.1 8.2,-4.1 10.1,-7.1 C 41,41.9 43.6,39 44,37 44.4,35 44.6,34.1 42.9,33.7 41.2,33.3 37.6,25.9 33,25.6 28.4,25.3 24.1,24.8 22.8,26.5 Z"
   id="path32"
   inkscape:connector-curvature="0"
   style="fill:#fbd7c7" />
	<path
   d="m 21.5,28.4 c -0.4,1.6 0.8,3.3 5.5,3.3 4.7,0 7.6,-2.3 8.1,-0.8 0.5,1.5 1.8,5.7 2.2,6.6 0.4,0.9 1,2 1.3,1.6 0.3,-0.4 1.8,-3.9 2.9,-4.7 1.1,-0.8 1.7,-0.8 1.7,-0.8 0,0 1.6,-8.3 -2,-12.6 C 37.6,16.7 25,15.6 21.5,28.4 Z"
   id="path34"
   inkscape:connector-curvature="0"
   style="fill:#825012" />
	<path
   d="m 25,46.6 c 0,0 0.7,-0.7 1.6,-0.8 0.4,0 1.3,0.1 1.9,0.2 0.8,0.2 2.7,1.1 2.7,1.1 0,0 -2.8,0 -3.7,-0.1 C 26.4,46.9 25,46.6 25,46.6 Z"
   id="path36"
   inkscape:connector-curvature="0"
   style="fill:#825012" />
	<path
   d="m 26.8,49 1.2,0.1 c 0,0 -0.2,0.6 0.6,1.3 0.8,0.7 2.9,0.8 2.9,0.8 0,0 -1.7,1.3 -3.2,0.9 -1.5,-0.4 -2.3,-1.8 -2.3,-1.8 0,0 0.5,-0.1 0.6,-0.5 0.2,-0.4 0.2,-0.8 0.2,-0.8 z"
   id="path38"
   inkscape:connector-curvature="0"
   style="fill:#825012" />
</g>
<path
   style="fill:#000000;fill-opacity:1;fill-rule:nonzero;stroke:none"
   id="path1"
   d="m 245.68237,50.231342 c 0.97175,2.685944 1.61125,5.477371 2.26884,8.252571 0.55407,2.534977 1.10179,5.072027 1.62216,7.614163 0.20335,1.082953 0.11001,0.554605 0.28176,1.584737 0.38782,2.31963 3.66827,1.771172 3.28046,-0.548458 v 0 c -0.18675,-1.114186 -0.0859,-0.54599 -0.30402,-1.70433 -0.52877,-2.57498 -1.08061,-5.145663 -1.64406,-7.713262 -0.70528,-2.974188 -1.38871,-5.969671 -2.46582,-8.836231 -0.95517,-2.149126 -3.99449,-0.798316 -3.03932,1.35081 z" /><path
   style="fill:#000000;fill-opacity:1;fill-rule:nonzero;stroke:none"
   id="path3"
   d="m 250.07808,78.721713 c 0.263,3.922305 0.69374,7.830577 1.08188,11.741811 0.17847,1.758596 0.32368,3.5202 0.46545,5.282033 0.18868,2.344248 3.50395,2.077398 3.31526,-0.266843 v 0 c -0.14351,-1.782384 -0.29047,-3.56454 -0.47098,-5.343661 -0.38728,-3.902121 -0.81701,-7.801273 -1.07929,-11.71446 -0.21292,-2.342168 -3.52525,-2.041047 -3.31232,0.30112 z" /><path
   style="fill:#000000;fill-opacity:1;fill-rule:nonzero;stroke:none"
   id="path5"
   d="m 251.55261,108.70333 c 0,3.415 0,6.83 0,10.245 -0.0681,3.11404 -0.21978,6.22546 -0.33452,9.338 -0.003,1.05316 -0.10408,2.10166 -0.19464,3.14967 -0.20197,2.34314 3.11173,2.62877 3.3137,0.28564 v 0 c 0.0948,-1.10231 0.19815,-2.20529 0.20466,-3.31279 0.11623,-3.15335 0.27087,-6.30557 0.33678,-9.46052 0,-3.415 0,-6.83 0,-10.245 0,-2.35182 -3.32598,-2.35182 -3.32598,0 z" /><path
   style="fill:#000000;fill-opacity:1;fill-rule:nonzero;stroke:none"
   id="path7"
   d="m 250.0244,142.9097 c -0.34854,1.55593 -0.85378,3.06546 -1.26749,4.60507 -0.51829,2.05867 -0.79453,4.16366 -1.20725,6.2429 -0.4556,2.30728 2.80738,2.95159 3.26298,0.64432 v 0 c 0.39464,-2.00808 0.66893,-4.03809 1.15733,-6.02792 0.39241,-1.47527 0.88931,-2.91951 1.20974,-4.4126 0.74371,-2.23114 -2.4116,-3.28291 -3.15531,-1.05177 z" /><path
   style="fill:#000000;fill-opacity:1;fill-rule:nonzero;stroke:none"
   id="path9"
   d="m 245.96166,163.16355 c -0.58855,1.64293 -0.95314,3.35649 -1.56949,4.98887 -0.75783,1.93085 -1.32375,3.9231 -1.94584,5.89939 -0.39403,1.42302 -0.19626,0.74102 -0.58967,2.04704 -0.67734,2.25217 2.50771,3.21008 3.18505,0.9579 v 0 c 0.40284,-1.34147 0.21067,-0.67265 0.57714,-2.0063 0.60532,-1.92303 1.15247,-3.86217 1.89139,-5.74052 0.58157,-1.58739 0.994,-3.22632 1.50849,-4.83622 0.92643,-2.16166 -2.13064,-3.47183 -3.05707,-1.31016 z" /><path
   style="fill:#000000;fill-opacity:1;fill-rule:nonzero;stroke:none"
   id="path11"
   d="m 269.90545,99.957625 c -1.72894,1.441625 -3.15415,3.186105 -4.47946,4.993195 -1.5741,2.3696 -2.91835,4.91196 -3.84953,7.6061 -0.19074,0.55186 -0.34107,1.11687 -0.51161,1.67531 -0.67424,2.32385 -0.72847,4.75804 -0.16424,7.11393 0.37361,1.55993 0.69815,2.1654 1.31477,3.62993 0.98887,2.06849 2.17373,4.04403 3.60876,5.83495 0.33048,0.41244 0.68648,0.80376 1.02972,1.20563 1.53079,1.78543 4.05577,-0.37943 2.52498,-2.16486 v 0 c -1.64554,-1.91086 -3.04152,-3.87635 -4.10347,-6.17906 -0.20971,-0.48562 -0.44174,-0.96219 -0.62913,-1.45684 -0.87435,-2.30809 -1.0839,-4.63463 -0.39783,-7.02083 0.14337,-0.47946 0.26794,-0.96495 0.4301,-1.43839 0.82967,-2.42227 2.03004,-4.70904 3.43346,-6.84432 1.18589,-1.6318 2.47199,-3.19941 4.03078,-4.49372 1.74021,-1.58201 -0.49709,-4.043035 -2.2373,-2.461025 z" /><path
   style="fill:#000000;fill-opacity:1;fill-rule:nonzero;stroke:none"
   id="path13"
   d="m 271.89709,107.38449 c -0.89392,0.7312 -1.57211,1.68258 -2.26615,2.5958 -0.95918,1.3546 -1.50527,2.91732 -1.91739,4.50916 -0.29583,1.36342 -0.48266,2.78149 -0.2164,4.16767 0.0579,0.30136 0.15119,0.59483 0.22679,0.89224 0.52295,1.60615 1.50146,2.98061 2.51968,4.30492 0.62136,0.69362 0.30368,0.36781 0.94948,0.98086 1.71939,1.60462 3.98866,-0.82696 2.26927,-2.43158 v 0 c -0.39193,-0.35524 -0.19572,-0.16304 -0.58493,-0.58032 -0.75461,-0.97513 -1.50222,-1.9753 -1.94199,-3.13898 -0.33911,-1.14016 -0.27418,-2.21308 -2.9e-4,-3.36815 0.29539,-1.16407 0.66827,-2.31796 1.34438,-3.32409 0.52811,-0.69575 1.03431,-1.43314 1.69527,-2.01038 1.83647,-1.46917 -0.24125,-4.06633 -2.07772,-2.59715 z" /><path
   style="fill:#000000;fill-opacity:1;fill-rule:nonzero;stroke:none"
   d="m 320.80183,114.10256 c -4.28148,-0.004 -8.56296,-0.008 -12.8444,-0.0268 -4.70031,-0.0223 -9.40057,-0.0559 -14.10049,-0.12258 -5.3814,-0.0762 -10.7627,-0.19816 -16.1447,-0.2047 h -7.91916 c -2.35183,0 -2.35183,3.32598 0,3.32598 l 1.2e-4,3e-5 h 7.91916 c 5.3663,0.007 10.7319,0.12837 16.09761,0.20437 4.71035,0.0669 9.42104,0.10051 14.13178,0.12288 4.28566,0.0185 8.57136,0.0228 12.85706,0.0268"
   id="path27" /><path
   style="fill:#ff4400;fill-opacity:1;fill-rule:nonzero;stroke:none"
   d="m 360.51256,129.80248 c 3.24703,0.001 6.49386,-0.009 9.74056,0.042 1.83127,0.0329 3.66239,0.0733 5.49365,0.10611 1.40091,0.0245 2.80208,0.0265 4.20316,0.0303 2.35181,0.006 2.36094,-3.31952 0.009,-3.32597 v 0 c -1.38427,-0.004 -2.76863,-0.006 -4.15273,-0.0298 -1.83365,-0.0328 -3.66714,-0.0733 -5.50078,-0.10622 -3.26312,-0.0514 -6.52638,-0.0412 -9.78984,-0.0424"
   id="path15" /><path
   style="fill:#ff4400;fill-opacity:1;fill-rule:nonzero;stroke:none"
   id="path21"
   d="m 370.17508,118.08273 c 0.40434,0.4981 0.74668,1.04172 1.12534,1.55856 0.42749,0.58349 0.54872,0.71529 1.02968,1.30579 1.24651,1.51974 2.60458,2.94152 3.93528,4.38659 0.84533,0.94824 1.76218,1.83078 2.58385,2.80003 0.22153,0.25423 0.39745,0.53915 0.5468,0.83986 1.08248,2.0879 4.03521,0.55703 2.95273,-1.53087 v 0 c -0.27472,-0.51952 -0.58046,-1.02104 -0.968,-1.4662 -0.85389,-0.99802 -1.78841,-1.92147 -2.66872,-2.89582 -1.28595,-1.39648 -2.59945,-2.76941 -3.80542,-4.23685 -0.37785,-0.4617 -0.54837,-0.65563 -0.88515,-1.11514 -0.41366,-0.5644 -0.78889,-1.15726 -1.23111,-1.70081 -1.45301,-1.84928 -4.06829,0.20558 -2.61528,2.05486 z" /><path
   style="fill:#ff4400;fill-opacity:1;fill-rule:nonzero;stroke:none"
   id="path23"
   d="m 371.10236,139.57023 c -3.5e-4,0.006 -0.005,0.0208 -10e-4,0.0169 0.19151,-0.18078 0.35639,-0.4063 0.54002,-0.59425 0.36116,-0.36965 0.54968,-0.53429 0.94342,-0.89945 1.28362,-1.12925 2.58072,-2.24277 3.86999,-3.3655 0.9427,-0.82041 1.88032,-1.64533 2.78227,-2.51061 0.64554,-0.55489 1.20503,-1.20632 1.85713,-1.75247 0.27699,-0.23298 0.55304,-0.46705 0.82793,-0.70251 1.78593,-1.53021 -0.37811,-4.0559 -2.16404,-2.52569 v 0 c -0.27541,0.23604 -0.55228,0.47033 -0.82969,0.70402 -0.68908,0.59946 -1.31353,1.26805 -1.99446,1.87712 -0.86279,0.82858 -1.76165,1.61631 -2.66344,2.40196 -1.31637,1.14643 -2.64174,2.28234 -3.9503,3.43775 -0.79437,0.74006 -1.63291,1.48291 -2.19263,2.42528 -1.05177,2.10353 1.92308,3.59096 2.97485,1.48742 z" /><path
   style="fill:#ff4400;fill-opacity:1;fill-rule:nonzero;stroke:none"
   id="path25"
   d="m 379.87336,129.92237 c 0.30738,0.31476 0.60495,0.62737 0.90214,0.95436 1.14226,1.22646 2.53979,2.16833 3.93697,3.07627 1.09838,0.65113 2.18605,1.34147 3.35923,1.85451 0.77596,0.33934 0.97994,0.37972 1.78514,0.63287 1.63258,0.42405 3.33617,0.65578 5.02389,0.48915 0.38103,-0.0376 0.75739,-0.1129 1.13609,-0.16935 1.81183,-0.36342 3.57515,-1.02853 5.14,-2.02084 0.31602,-0.2004 0.6127,-0.42978 0.91905,-0.64467 1.24287,-0.99724 2.25695,-2.25482 2.98383,-3.67303 0.41065,-0.80122 0.53836,-1.22914 0.8411,-2.06114 0.0797,-0.41027 0.19432,-0.81528 0.23907,-1.23082 0.17187,-1.59603 -0.11568,-3.37938 -0.75395,-4.84967 -0.16585,-0.38203 -0.38454,-0.73889 -0.5768,-1.10833 -0.8406,-1.36241 -1.99342,-2.46633 -3.40482,-3.22507 -0.90132,-0.48454 -1.17123,-0.51806 -2.14774,-0.8249 -1.49952,-0.3747 -3.02432,-0.37834 -4.52454,-0.008 -0.99985,0.24659 -1.41232,0.46125 -2.38998,0.86158 -2.50754,1.19179 -4.85693,2.68161 -7.15537,4.23085 -1.7302,1.14378 -3.3928,2.37814 -4.97355,3.72022 -0.63099,0.58439 -1.3218,1.10687 -1.90753,1.73961 -0.16555,0.17883 -0.4708,0.55361 -0.64219,0.76167 -1.49497,1.81553 1.07258,3.92973 2.56755,2.1142 v 0 c 0.14549,-0.17676 0.28068,-0.36231 0.43438,-0.53198 0.51623,-0.5699 1.14668,-1.02199 1.70258,-1.54991 1.48446,-1.26499 3.05248,-2.41967 4.67879,-3.49656 2.11388,-1.42727 4.27427,-2.7986 6.57085,-3.91642 0.3294,-0.13923 0.65377,-0.29097 0.98818,-0.41767 1.24138,-0.47036 2.38631,-0.61311 3.69054,-0.32291 0.23884,0.0673 0.48256,0.11927 0.71651,0.20199 1.18546,0.41911 2.17659,1.19108 2.86781,2.24031 0.12645,0.22256 0.27078,0.43588 0.37937,0.66768 0.44125,0.94193 0.65797,2.1053 0.60302,3.1443 -0.012,0.22679 -0.0614,0.45005 -0.0921,0.67507 -0.21371,0.60397 -0.32422,0.9712 -0.60587,1.54824 -0.48523,0.99412 -1.17436,1.88789 -2.0184,2.60175 -0.215,0.15636 -0.42179,0.32467 -0.64499,0.46907 -1.21588,0.7866 -2.58971,1.32321 -4.00311,1.62036 -0.25925,0.0442 -0.51634,0.10375 -0.77774,0.13257 -1.30217,0.14357 -2.61701,-0.0293 -3.88076,-0.34436 -0.5743,-0.17392 -0.7808,-0.21897 -1.33275,-0.45573 -1.04562,-0.44853 -2.00691,-1.07362 -2.98618,-1.64554 -1.16333,-0.75131 -2.33553,-1.5234 -3.29456,-2.53327 -0.15261,-0.16535 -0.31481,-0.32377 -0.46609,-0.49024 -0.004,-0.005 -0.28886,-0.33771 -0.35923,-0.38231 -0.0317,-0.0201 0.0462,0.0591 0.0693,0.0887 -1.46917,-1.83647 -4.06633,0.24125 -2.59716,2.07772 z" /><g
   transform="translate(38.975103,-23.553494)"
   id="g2242"><path
     style="opacity:0.2"
     d="m 5.5,231.2 c 16,10.8 26.2,-7.9 40.9,-11.6 17.3,-4.4 37.7,-9.6 29.3,-19.3 -8.4,-9.7 -25.5,-12.8 -36.1,0 -8.2,9.9 -51.6,19 -34.1,30.9 z"
     id="path2216" /><path
     style="fill:#262626"
     d="m 26.3,214.2 c -0.1,2.9 -1.7,4.1 -2.8,6.4 -1.1,2 -1.9,7.5 -6.2,9.2 -3.9,1.5 -8.2,0.9 -9.5,0 -1.3,-0.9 -1.6,-3.3 -0.6,-5.2 1,-1.9 3.3,-4 4.4,-8.1 1.1,-4.1 2.6,-6.1 2.6,-6.1 z"
     id="path2218" /><path
     style="fill:#ffffff"
     d="m 25,213.7 c 0,0 -1,0.8 -2.4,3.9 -1.5,3.1 -2.3,7.6 -5.4,8.9 -3.8,1.6 -8.2,1.2 -9.4,0.3 -1.2,-0.9 0.3,-3.1 2.4,-5.5 2.1,-2.4 1.9,-9.2 1.9,-9.2 z"
     id="path2220" /><path
     style="fill:#262626"
     d="m 50.2,196.5 c 0,1.4 0.6,2.2 2.7,3.8 2.1,1.6 3.1,4.3 5.7,6.4 3.8,3 7.8,3.3 11.5,2.1 1.9,-0.6 2.1,-1.3 2.4,-2 0.3,-0.7 0.4,-3.1 -0.1,-3.7 -1.4,-1.5 -5.7,-3.3 -6.4,-4.7 -0.7,-1.4 -2,-5.1 -2,-5.1 l -13.8,-0.6 z"
     id="path2222" /><path
     style="fill:#ffffff"
     d="m 50.4,194.6 c 0.7,0.6 3.4,2.5 4.7,4 1.2,1.4 5.7,6.7 9.1,7.3 3.5,0.5 6.8,-0.3 7.6,-1.3 0.8,-1 0,-1.6 -1,-2.3 -1,-0.7 -4.3,-2.5 -5,-3.6 -0.7,-1.2 -1.5,-5 -1.5,-5 z"
     id="path2224" /><path
     style="fill:#06547a"
     d="m 64.4,110.5 c 2.8,3.7 4.3,7.4 4.5,15.7 0.2,8.3 0.3,26 -0.6,29.4 -1,4.1 -3.9,19.4 -3.7,23.6 0.2,4.2 0.5,6.7 -0.2,8 -0.7,1.3 -0.8,1.6 0.3,2.8 1.1,1.3 1.3,3.3 1.1,4.7 -0.2,1.4 1,1.5 -1,1.4 -2,-0.1 -3.6,0.4 -6.5,1.2 -2.9,0.8 -7.9,-0.2 -8.2,-0.2 -0.3,0 0.1,-1.7 -0.4,-2.7 -0.5,-1.1 -0.9,-2.3 -0.9,-4.9 0,-2.6 -1.1,-17.3 -1.1,-23 0,-5.7 1.4,-11.8 1.7,-15.3 0.3,-4.3 -0.7,-12 -1.1,-13.6 -0.4,-1.6 -4,-22.4 -4,-22.4 z"
     id="path2226" /><path
     style="opacity:0.2"
     d="m 64.4,110.5 c 2.8,3.7 4.3,7.4 4.5,15.7 0.2,8.3 0.3,26 -0.6,29.4 -1,4.1 -3.9,19.4 -3.7,23.6 0.2,4.2 0.5,6.7 -0.2,8 -0.7,1.3 -0.8,1.6 0.3,2.8 1.1,1.3 1.3,3.3 1.1,4.7 -0.2,1.4 1,1.5 -1,1.4 -2,-0.1 -3.6,0.4 -6.5,1.2 -2.9,0.8 -7.9,-0.2 -8.2,-0.2 -0.3,0 0.1,-1.7 -0.4,-2.7 -0.5,-1.1 -0.9,-2.3 -0.9,-4.9 0,-2.6 -1.1,-17.3 -1.1,-23 0,-5.7 1.4,-11.8 1.7,-15.3 0.3,-4.3 -0.7,-12 -1.1,-13.6 -0.4,-1.6 -4,-22.4 -4,-22.4 z"
     id="path2228" /><path
     style="fill:#06547a"
     d="m 53.8,121.7 c 0,0 1.7,10.5 1,12.6 -0.7,2.2 -4.7,6.6 -6,10 -1.3,3.4 -2,9.6 -4.3,14.7 -2.3,5.1 -8.2,17.4 -9.2,21.7 -1,4.3 -1.8,9.4 -3.4,11 -1.7,1.7 -1.5,3.4 -2.2,6.9 -0.7,3.5 -2.5,7.5 -2.4,10.7 0.1,3.1 -0.8,3.3 -0.7,4.3 0.1,1 1.3,2.2 -0.4,2.7 -1.7,0.5 -6.1,0 -9.5,-0.6 -3.4,-0.6 -5.4,-0.1 -5.4,-0.1 0,0 -0.9,-4 -0.2,-5.7 1,-2.4 3.2,-3.6 3,-5.1 -0.2,-1.5 -1.8,-5.1 -0.3,-7.7 1.5,-2.6 2.2,-5.2 2.2,-9.7 0.1,-4.5 2.6,-10.7 3.8,-14.6 1.2,-3.9 5.2,-21.1 5.2,-26.2 0,-5.1 0.5,-13.8 1.5,-17.6 1.2,-4.7 0.5,-12.2 1.3,-14.3 0.9,-2.1 26,7 26,7 z"
     id="path2230" /><path
     style="fill:#fbd7c7"
     d="m 35.8,42.2 c 0.3,2.8 0.5,5.2 -0.5,7.1 -1.7,3.2 -4.3,5 -5.4,5.5 -1.1,0.5 3.2,10.6 10,11.6 6.8,1 23.7,4 24.8,4.7 1,0.7 5.2,5.1 5.2,5.1 0,0 -4.9,6.9 -6.3,9.3 -2.3,4 -6.3,11.5 -6.3,11.5 0,0 1.9,4.4 3.9,3.8 2,-0.6 2,-5.1 2.5,-6.1 0.5,-1 14.5,-15.9 15.4,-17.5 0.9,-1.6 1.5,-3.8 -0.7,-6 -2.2,-2.2 -7.5,-9 -9,-10.6 -1,-1 -3.3,-3.5 -5.9,-5.4 -2.6,-1.9 -12.3,-5 -12.3,-5 l -1.6,-7.1 z"
     id="path2232" /><path
     style="fill:#e5e5e5"
     d="m 30.8,54.3 c 0,0 7.7,9.3 16.1,7 C 55.3,59 52,50.9 52,50.9 c 0,0 6,-1 10.7,2.5 4.5,3.4 5.3,4.6 5.7,5.8 -0.3,0.8 -3.2,4.8 -3.2,4.8 0,0 0.7,4.4 0.1,8.3 -0.6,3.9 -3.6,13.4 -3.2,19 0.4,5.6 1.6,12.5 2.5,15.2 0.9,2.6 1.9,6.8 1.9,6.8 0,0 -3,6.7 -12.5,8.4 -9.5,1.7 -18.8,1.9 -22.8,-1 -4.5,-3.3 -4.2,-4.8 -3.4,-6.3 0.8,-1.5 3.8,-7.2 3.5,-11 -0.3,-3.8 -8,-26.8 -8,-26.8 l -8.5,-8.8 c 0,0 1.5,-6.4 5.7,-8.5 4.2,-2.1 10.3,-5 10.3,-5 z"
     id="path2234" /><path
     style="fill:#fbd7c7"
     d="m 15,67.7 c 0,0 1.4,0.3 3.3,1.2 1.9,0.9 6.9,4.2 7.8,5 1,0.8 0.5,1.2 -0.8,2.3 -1.2,1.1 -13.6,15 -13.6,15 0,0 5.3,3.9 7,5.7 1.7,1.8 6,4.3 7.4,4.1 1.4,-0.2 5.1,-2.8 7.3,-1.2 2.2,1.6 4.9,5.8 2,7.2 -2.9,1.4 -8.3,2.6 -10.6,1.8 C 22.5,108 5.3,99.3 3,97.4 0.3,95.3 -1.1,91.5 1.2,88.2 3.5,84.9 15,67.7 15,67.7 Z"
     id="path2236" /><path
     style="fill:#fbd7c7"
     d="m 33,39 c 0,0 -1.6,0.7 0.2,3.6 1.8,2.8 2.9,3.4 3.7,3.3 0.8,-0.1 1,-0.4 1,-0.4 0,0 0.9,3.5 3.8,5.2 2.8,1.7 8.7,3.8 11.4,2.8 2.7,-1 2.7,-14.2 2,-16.9 C 54.4,33.9 52.3,24.6 43.3,23.9 34.3,23.2 28.6,30.2 33,39 Z"
     id="path2238" /><path
     style="fill:#825012"
     d="m 42.9,23.6 c -9,-0.7 -14.3,6.6 -9.9,15.3 0,0 1.3,-0.6 3,0.6 1.6,1.2 2.2,2.6 2.2,2.6 l 1.1,-0.8 c 0,0 -0.2,-6.7 3.6,-8.6 2.4,-1.2 5.5,0.6 7.6,-0.4 1.1,-0.5 2,-1.7 2.3,-2.7 -2.2,-3.7 -6,-5.6 -9.9,-6 z"
     id="path2240" /></g><path
   style="fill:none;stroke:#000000;stroke-width:3.32598;stroke-linecap:round;stroke-linejoin:round"
   d="m 320.04456,103.90603 c -0.28328,8.27946 0.35954,16.23959 0.35954,24.44912 13.0881,-0.15412 26.98356,-0.18111 40.08936,-0.17977"
   id="path17"
   sodipodi:nodetypes="ccc" /><g
   transform="matrix(-1,0,0,1,77.06833,15.421158)"
   id="g3721"><path
     style="opacity:0.2"
     d="m 64.8,232 c 19.4,-9.4 1.8,-21.9 -17.4,-25.3 -8.4,-1.5 -13.5,-14.9 -34.6,-1.6 -16.9,10.8 0,17.9 8.6,22 12,5.5 25.3,13.6 43.4,4.9 z"
     id="path3666" /><path
     style="fill:#fbd7c7"
     d="m 23.3,93.5 c 0,0 -2,9.7 -3.1,12.8 -1.2,3 -2,7.7 -1.5,11.1 0.5,3.4 2.1,10.4 2.7,11.5 0.7,1.1 3.2,3.6 4,4 0.8,0.4 2.4,-14.9 2.4,-14.9 z"
     id="path3668" /><path
     style="fill:#e5e5e5"
     d="m 19,108.7 4.1,2.2 1.6,-12 L 23.8,84 c 0,0 -2.3,5.6 -3.2,11.5 -0.9,5.8 -0.7,9.1 -0.7,9.1 z"
     id="path3670" /><path
     style="fill:#825012"
     d="m 27.2,201.6 c 0,0 2.2,2.9 6.2,2.3 4,-0.5 7.9,-2.1 7.9,-2.1 0,0 1.1,6.3 -0.7,7.9 -1.8,1.6 -8.5,1.9 -11.4,3.3 -2.9,1.4 -6.9,4.2 -11.2,4.5 -9.2,0.7 -7.8,-6.8 -3.6,-8.7 3.3,-1.4 6.7,-3 8.8,-4.2 2.1,-1.1 4,-3 4,-3 z"
     id="path3672" /><path
     style="opacity:0.4"
     d="m 41.6,207.4 c -2.7,1.3 -8.3,2.4 -11.1,3 -3.4,0.6 -9.7,5.7 -14.1,5.8 -3.1,0.1 -4.9,-1.3 -4.9,-4 -1,2.7 0.4,5.9 6.6,5.5 4.3,-0.3 8.3,-3.1 11.2,-4.5 2.9,-1.4 9.6,-1.6 11.4,-3.3 0.5,-0.6 0.7,-1.5 0.9,-2.5 z"
     id="path3674" /><path
     style="fill:#825012"
     d="m 53.9,214.6 c 0,0 2.4,2.1 5.7,1.7 3.3,-0.4 7.9,-3.8 8.2,-2.1 0.3,1.7 2,5.2 0.6,6.3 -1.4,1.1 -9.1,5.7 -10.4,7.1 -1.4,1.4 -5.6,4.8 -9.9,5.3 -4.8,0.5 -9.2,-1.3 -9.2,-4.8 0,-4.1 6.6,-6.9 9.4,-8.8 2.7,-2.1 5.6,-4.7 5.6,-4.7 z"
     id="path3676" /><path
     style="opacity:0.4"
     d="m 57.9,227.5 c 1.4,-1.4 9.1,-6 10.4,-7.1 0.7,-0.5 0.6,-1.6 0.4,-2.7 -2,1.7 -5.9,3.7 -9.5,5.9 -5.2,3.3 -6.2,7.4 -13.4,7.7 -5,0.2 -6.9,-2.2 -6.9,-4.6 -0.1,0.4 -0.2,0.8 -0.2,1.2 0,3.5 4.4,5.4 9.2,4.8 4.4,-0.4 8.6,-3.8 10,-5.2 z"
     id="path3678" /><path
     style="fill:#baa794"
     d="m 22.9,109.3 c -1,3.9 -0.6,15.3 0.2,21.4 0.8,6 1.7,19.1 3.2,31.7 1,8.5 -0.7,31.9 -1.9,37.4 -0.7,3.7 -3.4,6.2 1,7.7 4.8,1.7 10,2 15.1,0.5 2.2,-0.6 1.7,-2.8 1.8,-6.3 0.1,-4.7 1.5,-15.8 1.9,-19.9 0.4,-4.1 0.7,-9.4 0.9,-14 0.3,-4.6 1.7,-20.7 2.2,-24.4 0.5,-3.7 0.5,-32.6 0.5,-32.6 z"
     id="path3680" /><path
     style="opacity:0.2"
     d="m 22.9,109.3 c -1,3.9 -0.6,15.3 0.2,21.4 0.8,6 1.7,19.1 3.2,31.7 1,8.5 -0.7,31.9 -1.9,37.4 -0.7,3.7 -3.4,6.2 1,7.7 4.8,1.7 10,2 15.1,0.5 2.2,-0.6 1.7,-2.8 1.8,-6.3 0.1,-4.7 1.5,-15.8 1.9,-19.9 0.4,-4.1 0.7,-9.4 0.9,-14 0.3,-4.6 1.7,-20.7 2.2,-24.4 0.5,-3.7 0.5,-32.6 0.5,-32.6 z"
     id="path3682" /><path
     style="fill:#baa794"
     d="m 30.4,109.5 c 0,0 -1.5,8.2 2.2,12.8 3.7,4.6 8.6,6.7 8.5,9.9 -0.1,3.3 2.9,21.3 5,27.4 2.1,6.1 2.6,14.4 3.3,20.2 0.7,5.8 1.5,21.9 1.2,26.2 -0.3,5.6 -1.8,10.8 -2.2,12.8 -0.3,1.4 5,3.5 8.2,3.7 5.4,0.3 8.3,-1.5 10.4,-3 1.9,-1.3 1.8,-1.5 1.7,-4.6 -0.1,-3.1 -0.7,-31.8 -1.2,-39 -0.5,-7.2 2.4,-38.8 2.2,-45.2 -0.5,-11.6 -4.1,-22.1 -4.1,-22.1 z"
     id="path3684" /><path
     style="fill:#e5e5e5"
     d="m 49.1,46.1 c -8.4,-0.5 -15.3,-2.4 -18.2,2.4 -2.9,4.8 -2.7,7.9 -4.1,10.2 -1.4,2.3 -4.3,8.8 -4.2,13.4 0.1,4.6 1.4,7.3 0.8,9.9 -0.7,2.6 -1.5,11.7 -1.6,15.2 -0.2,6.8 -0.6,13.1 0.5,14.8 1.7,2.6 16.6,4.1 27.2,2.8 12,-1.4 19.9,-5.1 19.9,-6.2 0,-1.1 -4.7,-13.4 -5.5,-15 C 57.3,79.8 74,75.2 73.9,74.5 73.8,72.5 74.6,65.9 74.1,63 73.6,60.1 70,55.4 67.4,53 64.8,50.5 60.6,46.5 57.7,45.7 55,44.9 49.1,46.1 49.1,46.1 Z"
     id="path3686" /><path
     style="fill:#fbd7c7"
     d="m 58.1,78.2 c 0,0 5.2,0.4 9.1,-0.8 3.9,-1.2 6,-2.4 6,-2.4 0,0 1.3,12.9 2.3,15.6 1,2.7 0.9,7.3 -0.5,12.6 -1.4,5.3 -4.1,23.6 -4,26.4 0.1,2.8 -0.2,6.3 -0.7,8.3 -0.5,2 -1.9,5.8 -4.5,7.3 -3,1.7 -6.4,1.4 -7.6,0.4 -1.9,-1.5 1.9,-7.3 1.1,-8.1 -0.8,-0.8 -2.4,-0.6 -2.9,0.7 -0.5,1.3 -2.4,2.7 -3.4,2 -1,-0.7 0.2,-1.8 0.8,-2.9 0.6,-1.2 2,-3.9 3.4,-4.8 1.4,-0.9 4,-1.4 4.6,-3.8 0.6,-2.5 0,-13 0.6,-18.5 C 63,104.7 65.3,99.7 65.2,98.6 65.1,97.5 61.6,89.4 60,84.5 58.5,80.1 58.1,78.2 58.1,78.2 Z"
     id="path3688" /><path
     style="fill:#fbd7c7"
     d="m 35.5,24.5 c -2.8,4.3 -1.3,14.8 -0.9,17.5 0.4,2.6 1.1,5.4 3,6.2 1.9,0.7 3.6,1.5 3.6,2.7 0,1.2 -3,3.9 -1.7,4.7 1.3,0.8 8.5,0.9 14.5,-1.5 5.6,-2.3 7.2,-5 6.4,-6 -0.7,-0.9 -4.2,-2.9 -4.2,-5.9 0.1,-3.1 3.1,-7.8 3.2,-12.4 0.1,-9.1 -13.3,-14.6 -21.1,-8.3 -1,0.7 -2,1.7 -2.8,3 z"
     id="path3690" /><path
     style="fill:#999999"
     d="m 49.1,20.1 c 5.6,3.1 -3.8,6.8 -1.6,9 1.9,1.8 1.9,7.3 2.9,9 1.2,2.1 2.4,-2.3 3.5,-3.4 1,-1 2.8,-1.2 3.3,0.3 0.5,1.5 -0.4,3.7 -0.5,4.3 C 58.3,39 60.4,33.6 60,27.9 59.6,21.1 49.9,14.7 39.4,20.6 c -2.1,1.2 -2.8,2.5 -1.7,1.6 2,-1.6 7.9,-4.1 11.4,-2.1 z"
     id="path3692" /><path
     style="opacity:0.2"
     d="m 57.6,78.2 c 0,0 2.8,13.9 2.7,17.9 -0.1,4 -4.3,17.7 -4.3,17.7 l 9.9,-2.4 2.9,-15.8 z"
     id="path3694" /><path
     style="fill:#e5e5e5"
     d="m 61.2,120.9 c 0.2,1.6 0.6,5.3 0.6,5.3 l -0.8,3.3 c 0,0 5.2,-0.1 6.9,0.8 1.6,0.9 3.4,2.1 3.4,2.1 V 127 c 0,0 4.1,-14 5.2,-18.9 1.1,-4.8 0.3,-13.7 0.1,-15.3 C 76.3,91.2 74.4,73.2 74.4,70 74.4,66.8 74,63.5 74,63.5 L 54.5,70 c 0,0 7.2,18.5 7.9,23 0.7,4.6 -2.1,19.2 -1.2,27.9 z"
     id="path3696" /></g><path
   style="fill:none;stroke:#000000;stroke-width:3.38;stroke-linecap:round;stroke-linejoin:round;stroke-dasharray:none"
   d="m 320.08566,103.63908 c 0.39346,-5.416885 9.46233,-5.326157 10.53611,0.26811 1.58082,8.23597 -1.74007,11.9298 -10.17656,11.86656"
   id="path19"
   sodipodi:nodetypes="csc" /></svg>
