<?xml version="1.0" encoding="UTF-8" standalone="no"?>
<!-- Generator: Adobe Illustrator 18.1.0, SVG Export Plug-In . SVG Version: 6.00 Build 0)  -->

<svg
   version="1.1"
   id="Layer_1"
   x="0px"
   y="0px"
   viewBox="0 0 207.32729 212.63754"
   enable-background="new 0 0 80 240"
   xml:space="preserve"
   sodipodi:docname="15 ni li mije..svg"
   width="207.32729"
   height="212.63754"
   inkscape:version="1.3 (0e150ed6c4, 2023-07-21)"
   xmlns:inkscape="http://www.inkscape.org/namespaces/inkscape"
   xmlns:sodipodi="http://sodipodi.sourceforge.net/DTD/sodipodi-0.dtd"
   xmlns="http://www.w3.org/2000/svg"
   xmlns:svg="http://www.w3.org/2000/svg"
   xmlns:rdf="http://www.w3.org/1999/02/22-rdf-syntax-ns#"
   xmlns:cc="http://creativecommons.org/ns#"
   xmlns:dc="http://purl.org/dc/elements/1.1/"><metadata
   id="metadata47"><rdf:RDF><cc:Work
       rdf:about=""><dc:format>image/svg+xml</dc:format><dc:type
         rdf:resource="http://purl.org/dc/dcmitype/StillImage" /><dc:title /></cc:Work></rdf:RDF></metadata><defs
   id="defs45" /><sodipodi:namedview
   pagecolor="#ffffff"
   bordercolor="#666666"
   borderopacity="1"
   objecttolerance="10"
   gridtolerance="10"
   guidetolerance="10"
   inkscape:pageopacity="0"
   inkscape:pageshadow="2"
   inkscape:window-width="1920"
   inkscape:window-height="1051"
   id="namedview43"
   showgrid="false"
   fit-margin-top="0"
   fit-margin-left="0"
   fit-margin-right="0"
   fit-margin-bottom="0"
   inkscape:zoom="1.9666667"
   inkscape:cx="58.220339"
   inkscape:cy="126.86441"
   inkscape:window-x="-9"
   inkscape:window-y="-9"
   inkscape:window-maximized="1"
   inkscape:current-layer="Layer_1"
   inkscape:showpageshadow="2"
   inkscape:pagecheckerboard="0"
   inkscape:deskcolor="#d1d1d1" />&#10;<g
   id="g40"
   transform="translate(-12.540058,-18.060721)">&#10;	<path
   d="m 13.4,105 c 0,0 1,9.1 1.3,12.3 0.3,3.2 1.3,5.5 2.1,7.3 0.8,1.8 4.5,6.2 5,5.9 0.5,-0.3 -0.3,-2.1 -0.3,-2.5 0,-0.4 0.4,-1.7 -0.2,-2.5 -0.6,-0.7 -1.7,-4 -1.6,-4.7 0.1,-0.7 1.4,-0.9 1.5,-1.4 0.1,-0.5 0.1,-0.5 0.1,-0.5 0,0 -3.6,-6 -3.6,-8.6 0,-2.7 -0.1,-6.1 -0.1,-6.1 0,0 -0.6,-0.3 -2,0 -1.4,0.2 -2.2,0.8 -2.2,0.8 z"
   id="path2"
   inkscape:connector-curvature="0"
   style="fill:#fbd7c7" />&#10;	<path
   d="m 28.1,216.9 c 0.6,1.8 -6.7,11.8 7.1,13.5 20.6,2.7 21.6,-13.7 29.3,-18.2 13.9,-8.1 -3.1,-14.1 -22.5,-14.1 -16.3,0.1 -30.5,1.9 -29.4,10.1 0.7,6.1 14.6,5.6 15.5,8.7 z"
   id="path4"
   inkscape:connector-curvature="0"
   style="opacity:0.3;fill:#262626" />&#10;	<path
   d="m 34,200.2 c 0,0 -1.6,1.2 -5.5,1.1 -3.9,-0.1 -7.3,-0.8 -11.4,1.5 -4.8,2.7 -1.2,7 0.1,7.4 1.3,0.4 18.1,0.9 21.2,0.7 3.1,-0.2 2.1,-8.2 2.1,-8.2 z"
   id="path6"
   inkscape:connector-curvature="0"
   style="fill:#762c07" />&#10;	<path
   d="m 39.4,209.1 c -1.5,0.1 -9,0.6 -13.5,0.5 -5,-0.1 -6.4,-0.5 -7.8,-1 -1.7,-0.6 -3.2,-1.4 -3.3,-3.1 -0.5,2.2 0.9,4.1 2.5,4.6 1.5,0.5 3.3,0.9 8.6,1.1 4.2,0.1 11.3,-0.3 12.6,-0.4 0.8,-0.1 1.4,-0.7 1.7,-1.6 -0.4,0.3 -0.5,-0.1 -0.8,-0.1 z"
   id="path8"
   inkscape:connector-curvature="0"
   style="fill:#262626" />&#10;	<path
   d="m 39.7,211 c 0,0 -3.9,4.4 -6.6,7.6 -2.7,3.2 -3.8,5.6 -3.6,7.9 0.2,2.3 3.5,3.4 8,3.4 4.5,0 9.3,-2.8 11.5,-5.9 2.3,-3.1 5.6,-5.9 5.6,-7.4 0,-1.5 -0.1,-6.2 -0.1,-6.2 z"
   id="path10"
   inkscape:connector-curvature="0"
   style="fill:#762c07" />&#10;	<path
   d="m 54.6,210.4 h -0.5 c 0,1.5 0.1,3.3 0.1,4.1 0,1.5 -3.4,4.3 -5.6,7.4 -2.3,3.1 -7,5.9 -11.5,5.9 -3.5,0 -6.3,-0.6 -7.4,-2 0,0.2 0,0.4 0,0.6 0.1,2.3 3.5,3.4 8,3.4 4.6,0 9.3,-2.8 11.5,-5.9 2.3,-3.1 5.6,-5.9 5.6,-7.4 -0.1,-1.4 -0.2,-6.1 -0.2,-6.1 z"
   id="path12"
   inkscape:connector-curvature="0"
   style="fill:#262626" />&#10;	<path
   d="m 19.7,114.3 c 0,0 -0.5,13 1.6,23.9 2.1,10.9 9.5,26.4 9.5,31.1 0,4.7 2.3,19 2.1,22.8 -0.1,3.8 -0.9,8.6 -0.9,8.6 0,0 2.7,5 6.2,6.7 3.5,1.7 7.2,-0.4 7.2,-0.4 L 39,116.5 Z"
   id="path14"
   inkscape:connector-curvature="0"
   style="fill:#3399cc" />&#10;	<path
   d="m 19.7,114.3 c 0,0 -0.5,13 1.6,23.9 2.1,10.9 9.5,26.4 9.5,31.1 0,4.7 2.3,19 2.1,22.8 -0.1,3.8 -0.9,8.6 -0.9,8.6 0,0 2.7,5 6.2,6.7 3.5,1.7 7.2,-0.4 7.2,-0.4 L 39,116.5 Z"
   id="path16"
   inkscape:connector-curvature="0"
   style="opacity:0.2" />&#10;	<path
   d="m 31.1,119.4 c 0,0 0.3,14.3 -0.3,25.6 -0.5,11.3 2.3,21.7 3.4,25.3 1.1,3.6 1.5,9.7 1.5,15.2 0,5.5 0.2,26.2 1,27 0.8,0.8 5.2,3.6 10.9,4 4.3,0.3 9,-2.4 9,-3.1 0,-0.7 1.5,-16.4 0.3,-29.1 -1.2,-12.7 -3.8,-19.3 -3.6,-21.3 0.1,-2 3.1,-29.1 2.8,-34.7 -0.3,-5.6 -2,-18.4 -2,-18.4 z"
   id="path18"
   inkscape:connector-curvature="0"
   style="fill:#3399cc" />&#10;	<path
   d="m 17.9,69.4 c 0,0 -2.2,7.4 -3.6,17.6 -1.5,10.7 -0.7,25.3 -0.7,25.3 0,0 2.1,-1.6 6.2,-1.6 4.1,0 -1.9,-41.3 -1.9,-41.3 z"
   id="path20"
   inkscape:connector-curvature="0"
   style="fill:#ffcc00" />&#10;	<path
   d="m 17.9,69.4 c 0,0 -2.2,7.4 -3.6,17.6 -1.5,10.7 -0.7,25.3 -0.7,25.3 0,0 2.1,-1.6 6.2,-1.6 4.1,0 -1.9,-41.3 -1.9,-41.3 z"
   id="path22"
   inkscape:connector-curvature="0"
   style="opacity:0.2" />&#10;	<path
   d="m 51.5,127 c 0,0 -0.4,2.9 -2.3,5.1 -1.9,2.1 -3.5,5.8 -3.5,7.3 0,2.1 0,3.9 0.9,4 1.8,0.2 1.1,-1.3 1.7,-1.3 0.6,0 0.3,2.6 3,2.7 3.5,0.1 8.5,-2.3 8.5,-4.6 0,-1.2 -0.5,-4.4 -0.9,-6.2 -0.5,-1.9 -0.5,-4.5 -0.5,-4.5 z"
   id="path24"
   inkscape:connector-curvature="0"
   style="fill:#fbd7c7" />&#10;	<path
   d="m 38.8,44 c 9.5,2.5 20.1,4.6 23.7,12.3 3.1,6.6 2.9,8.7 2.7,14.9 -0.3,6.2 -0.8,18.5 -0.5,22.5 0.3,4 -1.1,20.8 -2.3,26.4 -1.2,5.6 -1.6,10.3 -2.5,10.6 -0.9,0.3 -10.2,-0.9 -9.5,-2.3 0.9,-2 1.2,-7.6 1.2,-7.6 0,0 -4.4,5.4 -14.2,4 -9.8,-1.3 -18.2,-6.1 -19.1,-8.6 -0.4,-1.2 -0.6,-19.8 0.3,-24.8 0.9,-5 -2,-15.7 -2.1,-20.4 -0.1,-4.7 2.9,-17.4 3.1,-19.7 0.1,-3.4 4.2,-11.2 19.2,-7.3 z"
   id="path26"
   inkscape:connector-curvature="0"
   style="fill:#ffcc00" />&#10;	<path
   d="m 51.5,120.9 c 0,0 0.7,-5.2 0.7,-9.8 0,-4.6 0.1,-11.3 -0.4,-13.9 C 51.3,94.5 49.6,85 49.3,82.5 48.6,76.4 49,72.7 49.5,71.4 c -2.4,4.1 -1,19 -0.3,25.2 0.9,8.7 -0.3,25.8 -0.6,26.6 -0.3,0.7 2.9,-2.3 2.9,-2.3 z"
   id="path28"
   inkscape:connector-curvature="0"
   style="opacity:0.2" />&#10;	<path
   d="m 42.5,38.2 c 0,0 0,5.2 0.9,6.1 0.9,0.9 3,1.3 2.3,2.6 -0.7,1.3 -8.1,9.7 -13.5,9.2 -5.3,-0.5 -4,-9.4 -4,-9.4 z"
   id="path30"
   inkscape:connector-curvature="0"
   style="fill:#fbd7c7" />&#10;	<path
   d="m 22.8,26.5 c -2.2,2.8 -1.3,11 -0.3,14.7 1,3.7 2.2,5.9 2.7,7.3 0.4,1.4 1.9,3.6 3.9,3.5 2,-0.1 8.2,-4.1 10.1,-7.1 C 41,41.9 43.6,39 44,37 44.4,35 44.6,34.1 42.9,33.7 41.2,33.3 37.6,25.9 33,25.6 28.4,25.3 24.1,24.8 22.8,26.5 Z"
   id="path32"
   inkscape:connector-curvature="0"
   style="fill:#fbd7c7" />&#10;	<path
   d="m 21.5,28.4 c -0.4,1.6 0.8,3.3 5.5,3.3 4.7,0 7.6,-2.3 8.1,-0.8 0.5,1.5 1.8,5.7 2.2,6.6 0.4,0.9 1,2 1.3,1.6 0.3,-0.4 1.8,-3.9 2.9,-4.7 1.1,-0.8 1.7,-0.8 1.7,-0.8 0,0 1.6,-8.3 -2,-12.6 C 37.6,16.7 25,15.6 21.5,28.4 Z"
   id="path34"
   inkscape:connector-curvature="0"
   style="fill:#825012" />&#10;	<path
   d="m 25,46.6 c 0,0 0.7,-0.7 1.6,-0.8 0.4,0 1.3,0.1 1.9,0.2 0.8,0.2 2.7,1.1 2.7,1.1 0,0 -2.8,0 -3.7,-0.1 C 26.4,46.9 25,46.6 25,46.6 Z"
   id="path36"
   inkscape:connector-curvature="0"
   style="fill:#825012" />&#10;	<path
   d="m 26.8,49 1.2,0.1 c 0,0 -0.2,0.6 0.6,1.3 0.8,0.7 2.9,0.8 2.9,0.8 0,0 -1.7,1.3 -3.2,0.9 -1.5,-0.4 -2.3,-1.8 -2.3,-1.8 0,0 0.5,-0.1 0.6,-0.5 0.2,-0.4 0.2,-0.8 0.2,-0.8 z"
   id="path38"
   inkscape:connector-curvature="0"
   style="fill:#825012" />&#10;</g>&#10;<path
   style="fill:#000000;fill-opacity:1;fill-rule:nonzero;stroke:none"
   id="path1"
   d="m 86.534565,54.009277 c 0.971754,2.685944 1.61125,5.477371 2.268842,8.252571 0.554069,2.534977 1.101784,5.072027 1.622159,7.614163 0.203352,1.082953 0.110008,0.554605 0.281763,1.584737 0.387819,2.31963 3.668271,1.771172 3.280452,-0.548458 v 0 c -0.18675,-1.114186 -0.08589,-0.54599 -0.304013,-1.70433 -0.528777,-2.57498 -1.080611,-5.145663 -1.644058,-7.713262 -0.705284,-2.974188 -1.388716,-5.969671 -2.465823,-8.836231 -0.955167,-2.149126 -3.994489,-0.798316 -3.039322,1.35081 z" /><path
   style="fill:#000000;fill-opacity:1;fill-rule:nonzero;stroke:none"
   id="path3"
   d="m 90.930273,82.499648 c 0.263006,3.922305 0.69374,7.830577 1.081886,11.741811 0.178466,1.758596 0.323681,3.5202 0.465444,5.282033 0.188686,2.344248 3.503949,2.077398 3.315262,-0.266843 v 0 c -0.143508,-1.782384 -0.29047,-3.56454 -0.470981,-5.343661 -0.387283,-3.902121 -0.817009,-7.801273 -1.079286,-11.71446 -0.212925,-2.342168 -3.52525,-2.041047 -3.312325,0.30112 z" /><path
   style="fill:#000000;fill-opacity:1;fill-rule:nonzero;stroke:none"
   id="path5"
   d="m 92.404805,112.48127 c 0,3.415 0,6.83 0,10.245 -0.06806,3.11404 -0.219778,6.22546 -0.334522,9.338 -0.0032,1.05316 -0.104081,2.10166 -0.194635,3.14967 -0.201973,2.34314 3.111724,2.62877 3.313697,0.28564 v 0 c 0.0948,-1.10231 0.19815,-2.20529 0.204665,-3.31279 0.116229,-3.15335 0.270866,-6.30557 0.336779,-9.46052 0,-3.415 0,-6.83 0,-10.245 0,-2.35182 -3.325984,-2.35182 -3.325984,0 z" /><path
   style="fill:#000000;fill-opacity:1;fill-rule:nonzero;stroke:none"
   id="path7"
   d="m 90.876597,146.68764 c -0.348541,1.55593 -0.853782,3.06546 -1.267495,4.60507 -0.518283,2.05867 -0.794524,4.16366 -1.207245,6.2429 -0.455602,2.30728 2.807376,2.95159 3.262978,0.64432 v 0 c 0.394639,-2.00808 0.668928,-4.03809 1.157331,-6.02792 0.39241,-1.47527 0.889312,-2.91951 1.209736,-4.4126 0.743713,-2.23114 -2.411593,-3.28291 -3.155305,-1.05177 z" /><path
   style="fill:#000000;fill-opacity:1;fill-rule:nonzero;stroke:none"
   id="path9"
   d="m 86.81386,166.94149 c -0.588553,1.64293 -0.95314,3.35649 -1.569493,4.98887 -0.757835,1.93085 -1.323753,3.9231 -1.945846,5.89939 -0.394023,1.42302 -0.196251,0.74102 -0.589669,2.04704 -0.67734,2.25217 2.507717,3.21008 3.185058,0.9579 v 0 c 0.40284,-1.34147 0.210661,-0.67265 0.577133,-2.0063 0.605323,-1.92303 1.152474,-3.86217 1.891391,-5.74052 0.581569,-1.58739 0.994004,-3.22632 1.508488,-4.83622 0.926429,-2.16166 -2.130632,-3.47183 -3.057062,-1.31016 z" /><path
   style="fill:#000000;fill-opacity:1;fill-rule:nonzero;stroke:none"
   id="path11"
   d="m 110.75765,103.73556 c -1.72894,1.44163 -3.15415,3.18611 -4.47946,4.9932 -1.5741,2.3696 -2.91835,4.91196 -3.84953,7.6061 -0.19074,0.55186 -0.34107,1.11687 -0.51161,1.67531 -0.67424,2.32385 -0.72847,4.75804 -0.16424,7.11393 0.37361,1.55993 0.69815,2.1654 1.31477,3.62993 0.98887,2.06849 2.17373,4.04403 3.60876,5.83495 0.33048,0.41244 0.68648,0.80376 1.02972,1.20563 1.53079,1.78543 4.05577,-0.37943 2.52498,-2.16486 v 0 c -1.64554,-1.91086 -3.04152,-3.87635 -4.10347,-6.17906 -0.20971,-0.48562 -0.44174,-0.96219 -0.62913,-1.45684 -0.87435,-2.30809 -1.0839,-4.63463 -0.39783,-7.02083 0.14337,-0.47946 0.26794,-0.96495 0.4301,-1.43839 0.82967,-2.42227 2.03004,-4.70904 3.43346,-6.84432 1.18589,-1.6318 2.47199,-3.19941 4.03078,-4.49372 1.74021,-1.58201 -0.49709,-4.04304 -2.2373,-2.46103 z" /><path
   style="fill:#000000;fill-opacity:1;fill-rule:nonzero;stroke:none"
   id="path13"
   d="m 112.74929,111.16243 c -0.89392,0.7312 -1.57211,1.68258 -2.26615,2.5958 -0.95918,1.3546 -1.50527,2.91732 -1.91739,4.50916 -0.29583,1.36342 -0.48266,2.78149 -0.2164,4.16767 0.0579,0.30136 0.15119,0.59483 0.22679,0.89224 0.52295,1.60615 1.50146,2.98061 2.51968,4.30492 0.62136,0.69362 0.30368,0.36781 0.94948,0.98086 1.71939,1.60462 3.98866,-0.82696 2.26927,-2.43158 v 0 c -0.39193,-0.35524 -0.19572,-0.16304 -0.58493,-0.58032 -0.75461,-0.97513 -1.50222,-1.9753 -1.94199,-3.13898 -0.33911,-1.14016 -0.27418,-2.21308 -2.9e-4,-3.36815 0.29539,-1.16407 0.66827,-2.31796 1.34438,-3.32409 0.52811,-0.69575 1.03431,-1.43314 1.69527,-2.01038 1.83647,-1.46917 -0.24125,-4.06633 -2.07772,-2.59715 z" /><path
   style="fill:#000000;fill-opacity:1;fill-rule:nonzero;stroke:none"
   d="m 161.65403,117.8805 c -4.28148,-0.004 -8.56296,-0.008 -12.8444,-0.0268 -4.70031,-0.0223 -9.40057,-0.0559 -14.10049,-0.12258 -5.3814,-0.0762 -10.7627,-0.19816 -16.1447,-0.2047 h -7.91916 c -2.35183,0 -2.35183,3.32598 0,3.32598 l 1.2e-4,3e-5 h 7.91916 c 5.3663,0.007 10.7319,0.12837 16.09761,0.20437 4.71035,0.0669 9.42104,0.10051 14.13178,0.12288 4.28566,0.0185 8.57136,0.0228 12.85706,0.0268"
   id="path27" /><path
   style="fill:#ff4400;fill-opacity:1;fill-rule:nonzero;stroke:none"
   d="m 161.65101,121.20648 c 3.24703,0.001 6.49386,-0.009 9.74056,0.042 1.83127,0.0329 3.66239,0.0733 5.49365,0.10611 1.40091,0.0245 2.80208,0.0265 4.20316,0.0303 2.35181,0.006 2.36094,-3.31952 0.009,-3.32597 v 0 c -1.38427,-0.004 -2.76863,-0.006 -4.15273,-0.0298 -1.83365,-0.0328 -3.66714,-0.0733 -5.50078,-0.10622 -3.26312,-0.0514 -6.52638,-0.0412 -9.78984,-0.0424"
   id="path15" /><path
   style="fill:#ff4400;fill-opacity:1;fill-rule:nonzero;stroke:none"
   id="path21"
   d="m 171.31353,109.48673 c 0.40434,0.4981 0.74668,1.04172 1.12534,1.55856 0.42749,0.58349 0.54872,0.71529 1.02968,1.30579 1.24651,1.51974 2.60458,2.94152 3.93528,4.38659 0.84533,0.94824 1.76218,1.83078 2.58385,2.80003 0.22153,0.25423 0.39745,0.53915 0.5468,0.83986 1.08248,2.0879 4.03521,0.55703 2.95273,-1.53087 v 0 c -0.27472,-0.51952 -0.58046,-1.02104 -0.968,-1.4662 -0.85389,-0.99802 -1.78841,-1.92147 -2.66872,-2.89582 -1.28595,-1.39648 -2.59945,-2.76941 -3.80542,-4.23685 -0.37785,-0.4617 -0.54837,-0.65563 -0.88515,-1.11514 -0.41366,-0.5644 -0.78889,-1.15726 -1.23111,-1.70081 -1.45301,-1.84928 -4.06829,0.20558 -2.61528,2.05486 z" /><path
   style="fill:#ff4400;fill-opacity:1;fill-rule:nonzero;stroke:none"
   id="path23"
   d="m 172.24081,130.97423 c -3.5e-4,0.006 -0.005,0.0208 -0.001,0.0169 0.19151,-0.18078 0.35639,-0.4063 0.54002,-0.59425 0.36116,-0.36965 0.54968,-0.53429 0.94342,-0.89945 1.28362,-1.12925 2.58072,-2.24277 3.86999,-3.3655 0.9427,-0.82041 1.88032,-1.64533 2.78227,-2.51061 0.64554,-0.55489 1.20503,-1.20632 1.85713,-1.75247 0.27699,-0.23298 0.55304,-0.46705 0.82793,-0.70251 1.78593,-1.53021 -0.37811,-4.0559 -2.16404,-2.52569 v 0 c -0.27541,0.23604 -0.55228,0.47033 -0.82969,0.70402 -0.68908,0.59946 -1.31353,1.26805 -1.99446,1.87712 -0.86279,0.82858 -1.76165,1.61631 -2.66344,2.40196 -1.31637,1.14643 -2.64174,2.28234 -3.9503,3.43775 -0.79437,0.74006 -1.63291,1.48291 -2.19263,2.42528 -1.05177,2.10353 1.92308,3.59096 2.97485,1.48742 z" /><path
   style="fill:#ff4400;fill-opacity:1;fill-rule:nonzero;stroke:none"
   id="path25"
   d="m 181.01181,121.32637 c 0.30738,0.31476 0.60495,0.62737 0.90214,0.95436 1.14226,1.22646 2.53979,2.16833 3.93697,3.07627 1.09838,0.65113 2.18605,1.34147 3.35923,1.85451 0.77596,0.33934 0.97994,0.37972 1.78514,0.63287 1.63258,0.42405 3.33617,0.65578 5.02389,0.48915 0.38103,-0.0376 0.75739,-0.1129 1.13609,-0.16935 1.81183,-0.36342 3.57515,-1.02853 5.14,-2.02084 0.31602,-0.2004 0.6127,-0.42978 0.91905,-0.64467 1.24287,-0.99724 2.25695,-2.25482 2.98383,-3.67303 0.41065,-0.80122 0.53836,-1.22914 0.8411,-2.06114 0.0797,-0.41027 0.19432,-0.81528 0.23907,-1.23082 0.17187,-1.59603 -0.11568,-3.37938 -0.75395,-4.84967 -0.16585,-0.38203 -0.38454,-0.73889 -0.5768,-1.10833 -0.8406,-1.36241 -1.99342,-2.46633 -3.40482,-3.22507 -0.90132,-0.48454 -1.17123,-0.51806 -2.14774,-0.8249 -1.49952,-0.3747 -3.02432,-0.37834 -4.52454,-0.008 -0.99985,0.24659 -1.41232,0.46125 -2.38998,0.86158 -2.50754,1.19179 -4.85693,2.68161 -7.15537,4.23085 -1.7302,1.14378 -3.3928,2.37814 -4.97355,3.72022 -0.63099,0.58439 -1.3218,1.10687 -1.90753,1.73961 -0.16555,0.17883 -0.4708,0.55361 -0.64219,0.76167 -1.49497,1.81553 1.07258,3.92973 2.56755,2.1142 v 0 c 0.14549,-0.17676 0.28068,-0.36231 0.43438,-0.53198 0.51623,-0.5699 1.14668,-1.02199 1.70258,-1.54991 1.48446,-1.26499 3.05248,-2.41967 4.67879,-3.49656 2.11388,-1.42727 4.27427,-2.7986 6.57085,-3.91642 0.3294,-0.13923 0.65377,-0.29097 0.98818,-0.41767 1.24138,-0.47036 2.38631,-0.61311 3.69054,-0.32291 0.23884,0.0673 0.48256,0.11927 0.71651,0.20199 1.18546,0.41911 2.17659,1.19108 2.86781,2.24031 0.12645,0.22256 0.27078,0.43588 0.37937,0.66768 0.44125,0.94193 0.65797,2.1053 0.60302,3.1443 -0.012,0.22679 -0.0614,0.45005 -0.0921,0.67507 -0.21371,0.60397 -0.32422,0.9712 -0.60587,1.54824 -0.48523,0.99412 -1.17436,1.88789 -2.0184,2.60175 -0.215,0.15636 -0.42179,0.32467 -0.64499,0.46907 -1.21588,0.7866 -2.58971,1.32321 -4.00311,1.62036 -0.25925,0.0442 -0.51634,0.10375 -0.77774,0.13257 -1.30217,0.14357 -2.61701,-0.0293 -3.88076,-0.34436 -0.5743,-0.17392 -0.7808,-0.21897 -1.33275,-0.45573 -1.04562,-0.44853 -2.00691,-1.07362 -2.98618,-1.64554 -1.16333,-0.75131 -2.33553,-1.5234 -3.29456,-2.53327 -0.15261,-0.16535 -0.31481,-0.32377 -0.46609,-0.49024 -0.004,-0.005 -0.28886,-0.33771 -0.35923,-0.38231 -0.0317,-0.0201 0.0462,0.0591 0.0693,0.0887 -1.46917,-1.83647 -4.06633,0.24125 -2.59716,2.07772 z" /></svg>
