<?xml version="1.0" encoding="UTF-8" standalone="no"?>
<svg
   id="svg8"
   version="1.1"
   viewBox="0 0 129.62121 73.169365"
   height="73.169365mm"
   width="129.62122mm"
   sodipodi:docname="16 mije li lukin e soweli. meli li lukin e soweli sama..svg"
   inkscape:version="1.3 (0e150ed6c4, 2023-07-21)"
   xmlns:inkscape="http://www.inkscape.org/namespaces/inkscape"
   xmlns:sodipodi="http://sodipodi.sourceforge.net/DTD/sodipodi-0.dtd"
   xmlns="http://www.w3.org/2000/svg"
   xmlns:svg="http://www.w3.org/2000/svg"
   xmlns:rdf="http://www.w3.org/1999/02/22-rdf-syntax-ns#"
   xmlns:cc="http://creativecommons.org/ns#"
   xmlns:dc="http://purl.org/dc/elements/1.1/">
  <sodipodi:namedview
     id="namedview1"
     pagecolor="#ffffff"
     bordercolor="#000000"
     borderopacity="0.25"
     inkscape:showpageshadow="2"
     inkscape:pageopacity="0.0"
     inkscape:pagecheckerboard="0"
     inkscape:deskcolor="#d1d1d1"
     inkscape:document-units="mm"
     inkscape:zoom="1"
     inkscape:cx="216.5"
     inkscape:cy="106.5"
     inkscape:window-width="1920"
     inkscape:window-height="1051"
     inkscape:window-x="-9"
     inkscape:window-y="-9"
     inkscape:window-maximized="1"
     inkscape:current-layer="svg8" />
  <defs
     id="defs2" />
  <metadata
     id="metadata5">
    <rdf:RDF>
      <cc:Work
         rdf:about="">
        <dc:format>image/svg+xml</dc:format>
        <dc:type
           rdf:resource="http://purl.org/dc/dcmitype/StillImage" />
        <dc:title />
      </cc:Work>
    </rdf:RDF>
  </metadata>
  <g
     transform="translate(-102.67978,-89.839171)"
     id="layer1">
    <g
       transform="matrix(0.26458333,0,0,0.26458333,130.58631,85.060605)"
       id="g853">
      <path
         style="fill:#fbd7c7"
         d="m 13.4,105 c 0,0 1,9.1 1.3,12.3 0.3,3.2 1.3,5.5 2.1,7.3 0.8,1.8 4.5,6.2 5,5.9 0.5,-0.3 -0.3,-2.1 -0.3,-2.5 0,-0.4 0.4,-1.7 -0.2,-2.5 -0.6,-0.7 -1.7,-4 -1.6,-4.7 0.1,-0.7 1.4,-0.9 1.5,-1.4 0.1,-0.5 0.1,-0.5 0.1,-0.5 0,0 -3.6,-6 -3.6,-8.6 0,-2.7 -0.1,-6.1 -0.1,-6.1 0,0 -0.6,-0.3 -2,0 -1.4,0.2 -2.2,0.8 -2.2,0.8 z"
         id="path815" />
      <path
         style="opacity:0.3;fill:#262626"
         d="m 28.1,216.9 c 0.6,1.8 -6.7,11.8 7.1,13.5 20.6,2.7 21.6,-13.7 29.3,-18.2 13.9,-8.1 -3.1,-14.1 -22.5,-14.1 -16.3,0.1 -30.5,1.9 -29.4,10.1 0.7,6.1 14.6,5.6 15.5,8.7 z"
         id="path817" />
      <path
         style="fill:#762c07"
         d="m 34,200.2 c 0,0 -1.6,1.2 -5.5,1.1 -3.9,-0.1 -7.3,-0.8 -11.4,1.5 -4.8,2.7 -1.2,7 0.1,7.4 1.3,0.4 18.1,0.9 21.2,0.7 3.1,-0.2 2.1,-8.2 2.1,-8.2 z"
         id="path819" />
      <path
         style="fill:#262626"
         d="m 39.4,209.1 c -1.5,0.1 -9,0.6 -13.5,0.5 -5,-0.1 -6.4,-0.5 -7.8,-1 -1.7,-0.6 -3.2,-1.4 -3.3,-3.1 -0.5,2.2 0.9,4.1 2.5,4.6 1.5,0.5 3.3,0.9 8.6,1.1 4.2,0.1 11.3,-0.3 12.6,-0.4 0.8,-0.1 1.4,-0.7 1.7,-1.6 -0.4,0.3 -0.5,-0.1 -0.8,-0.1 z"
         id="path821" />
      <path
         style="fill:#762c07"
         d="m 39.7,211 c 0,0 -3.9,4.4 -6.6,7.6 -2.7,3.2 -3.8,5.6 -3.6,7.9 0.2,2.3 3.5,3.4 8,3.4 4.5,0 9.3,-2.8 11.5,-5.9 2.3,-3.1 5.6,-5.9 5.6,-7.4 0,-1.5 -0.1,-6.2 -0.1,-6.2 z"
         id="path823" />
      <path
         style="fill:#262626"
         d="m 54.6,210.4 h -0.5 c 0,1.5 0.1,3.3 0.1,4.1 0,1.5 -3.4,4.3 -5.6,7.4 -2.3,3.1 -7,5.9 -11.5,5.9 -3.5,0 -6.3,-0.6 -7.4,-2 0,0.2 0,0.4 0,0.6 0.1,2.3 3.5,3.4 8,3.4 4.6,0 9.3,-2.8 11.5,-5.9 2.3,-3.1 5.6,-5.9 5.6,-7.4 -0.1,-1.4 -0.2,-6.1 -0.2,-6.1 z"
         id="path825" />
      <path
         style="fill:#3399cc"
         d="m 19.7,114.3 c 0,0 -0.5,13 1.6,23.9 2.1,10.9 9.5,26.4 9.5,31.1 0,4.7 2.3,19 2.1,22.8 -0.1,3.8 -0.9,8.6 -0.9,8.6 0,0 2.7,5 6.2,6.7 3.5,1.7 7.2,-0.4 7.2,-0.4 L 39,116.5 Z"
         id="path827" />
      <path
         style="opacity:0.2"
         d="m 19.7,114.3 c 0,0 -0.5,13 1.6,23.9 2.1,10.9 9.5,26.4 9.5,31.1 0,4.7 2.3,19 2.1,22.8 -0.1,3.8 -0.9,8.6 -0.9,8.6 0,0 2.7,5 6.2,6.7 3.5,1.7 7.2,-0.4 7.2,-0.4 L 39,116.5 Z"
         id="path829" />
      <path
         style="fill:#3399cc"
         d="m 31.1,119.4 c 0,0 0.3,14.3 -0.3,25.6 -0.5,11.3 2.3,21.7 3.4,25.3 1.1,3.6 1.5,9.7 1.5,15.2 0,5.5 0.2,26.2 1,27 0.8,0.8 5.2,3.6 10.9,4 4.3,0.3 9,-2.4 9,-3.1 0,-0.7 1.5,-16.4 0.3,-29.1 -1.2,-12.7 -3.8,-19.3 -3.6,-21.3 0.1,-2 3.1,-29.1 2.8,-34.7 -0.3,-5.6 -2,-18.4 -2,-18.4 z"
         id="path831" />
      <path
         style="fill:#ffcc00"
         d="m 17.9,69.4 c 0,0 -2.2,7.4 -3.6,17.6 -1.5,10.7 -0.7,25.3 -0.7,25.3 0,0 2.1,-1.6 6.2,-1.6 4.1,0 -1.9,-41.3 -1.9,-41.3 z"
         id="path833" />
      <path
         style="opacity:0.2"
         d="m 17.9,69.4 c 0,0 -2.2,7.4 -3.6,17.6 -1.5,10.7 -0.7,25.3 -0.7,25.3 0,0 2.1,-1.6 6.2,-1.6 4.1,0 -1.9,-41.3 -1.9,-41.3 z"
         id="path835" />
      <path
         style="fill:#fbd7c7"
         d="m 51.5,127 c 0,0 -0.4,2.9 -2.3,5.1 -1.9,2.1 -3.5,5.8 -3.5,7.3 0,2.1 0,3.9 0.9,4 1.8,0.2 1.1,-1.3 1.7,-1.3 0.6,0 0.3,2.6 3,2.7 3.5,0.1 8.5,-2.3 8.5,-4.6 0,-1.2 -0.5,-4.4 -0.9,-6.2 -0.5,-1.9 -0.5,-4.5 -0.5,-4.5 z"
         id="path837" />
      <path
         style="fill:#ffcc00"
         d="m 38.8,44 c 9.5,2.5 20.1,4.6 23.7,12.3 3.1,6.6 2.9,8.7 2.7,14.9 -0.3,6.2 -0.8,18.5 -0.5,22.5 0.3,4 -1.1,20.8 -2.3,26.4 -1.2,5.6 -1.6,10.3 -2.5,10.6 -0.9,0.3 -10.2,-0.9 -9.5,-2.3 0.9,-2 1.2,-7.6 1.2,-7.6 0,0 -4.4,5.4 -14.2,4 -9.8,-1.3 -18.2,-6.1 -19.1,-8.6 -0.4,-1.2 -0.6,-19.8 0.3,-24.8 0.9,-5 -2,-15.7 -2.1,-20.4 -0.1,-4.7 2.9,-17.4 3.1,-19.7 0.1,-3.4 4.2,-11.2 19.2,-7.3 z"
         id="path839" />
      <path
         style="opacity:0.2"
         d="m 51.5,120.9 c 0,0 0.7,-5.2 0.7,-9.8 0,-4.6 0.1,-11.3 -0.4,-13.9 C 51.3,94.5 49.6,85 49.3,82.5 48.6,76.4 49,72.7 49.5,71.4 c -2.4,4.1 -1,19 -0.3,25.2 0.9,8.7 -0.3,25.8 -0.6,26.6 -0.3,0.7 2.9,-2.3 2.9,-2.3 z"
         id="path841" />
      <path
         style="fill:#fbd7c7"
         d="m 42.5,38.2 c 0,0 0,5.2 0.9,6.1 0.9,0.9 3,1.3 2.3,2.6 -0.7,1.3 -8.1,9.7 -13.5,9.2 -5.3,-0.5 -4,-9.4 -4,-9.4 z"
         id="path843" />
      <path
         style="fill:#fbd7c7"
         d="m 22.8,26.5 c -2.2,2.8 -1.3,11 -0.3,14.7 1,3.7 2.2,5.9 2.7,7.3 0.4,1.4 1.9,3.6 3.9,3.5 2,-0.1 8.2,-4.1 10.1,-7.1 C 41,41.9 43.6,39 44,37 44.4,35 44.6,34.1 42.9,33.7 41.2,33.3 37.6,25.9 33,25.6 28.4,25.3 24.1,24.8 22.8,26.5 Z"
         id="path845" />
      <path
         style="fill:#825012"
         d="m 21.5,28.4 c -0.4,1.6 0.8,3.3 5.5,3.3 4.7,0 7.6,-2.3 8.1,-0.8 0.5,1.5 1.8,5.7 2.2,6.6 0.4,0.9 1,2 1.3,1.6 0.3,-0.4 1.8,-3.9 2.9,-4.7 1.1,-0.8 1.7,-0.8 1.7,-0.8 0,0 1.6,-8.3 -2,-12.6 C 37.6,16.7 25,15.6 21.5,28.4 Z"
         id="path847" />
      <path
         style="fill:#825012"
         d="m 25,46.6 c 0,0 0.7,-0.7 1.6,-0.8 0.4,0 1.3,0.1 1.9,0.2 0.8,0.2 2.7,1.1 2.7,1.1 0,0 -2.8,0 -3.7,-0.1 C 26.4,46.9 25,46.6 25,46.6 Z"
         id="path849" />
      <path
         style="fill:#825012"
         d="m 26.8,49 1.2,0.1 c 0,0 -0.2,0.6 0.6,1.3 0.8,0.7 2.9,0.8 2.9,0.8 0,0 -1.7,1.3 -3.2,0.9 -1.5,-0.4 -2.3,-1.8 -2.3,-1.8 0,0 0.5,-0.1 0.6,-0.5 0.2,-0.4 0.2,-0.8 0.2,-0.8 z"
         id="path851" />
    </g>
    <g
       transform="matrix(0.26458333,0,0,0.26458333,95.060583,123.56398)"
       id="g910">
      <path
         style="opacity:0.2"
         d="m 103.2,117 c 12.7,8.2 34.5,15.5 14.8,27.5 -18.4,11.2 -39.2,-0.4 -49.5,-10.6 -20.7,-20.6 -56.1,-20.3 -31.1,-23.8 1.9,-0.3 15.8,0 29.6,2 14.3,2 32.4,2.4 36.2,4.9 z"
         id="path882" />
      <path
         style="fill:#825012"
         d="m 96.1,110.4 c 0,0 2,4.7 1.9,6.2 -0.1,1.5 -0.8,3.5 0.1,4.3 0.9,0.7 7.8,5.2 9.1,7.1 1.3,1.9 2,5.2 6.6,3 4.6,-2.2 3.1,-5.5 0.9,-6.4 -2.1,-0.9 -6.5,-1.7 -8.8,-3.9 -2.3,-2.2 -3.2,-2.9 -1.2,-6.3 2,-3.4 2.9,-6.1 2.9,-6.1 z"
         id="path884" />
      <path
         style="opacity:0.2"
         d="m 96.1,110.4 c 0,0 2,4.7 1.9,6.2 -0.1,1.5 -0.8,3.5 0.1,4.3 0.9,0.7 7.8,5.2 9.1,7.1 1.3,1.9 2,5.2 6.6,3 4.6,-2.2 3.1,-5.5 0.9,-6.4 -2.1,-0.9 -6.5,-1.7 -8.8,-3.9 -2.3,-2.2 -3.2,-2.9 -1.2,-6.3 2,-3.4 2.9,-6.1 2.9,-6.1 z"
         id="path886" />
      <path
         style="fill:#825012"
         d="m 86.8,47.8 c 0.8,-1.5 2.6,-3.6 5.5,-5 2.9,-1.4 5,-1.9 5,-1.9 0,0 1.7,-3.1 5.5,-1.8 3.8,1.3 7.5,8.5 8.4,11.6 0.9,3.1 2.2,8.7 1,9.4 -1.2,0.7 -3,-2.1 -3,-2.1 0,0 1,4.5 1.8,7.3 0.7,2.8 -0.1,7.7 0.7,9.3 0.7,1.6 4.2,7.5 3.8,13.7 -0.4,6.2 -2.8,12.2 -2.9,14.8 -0.1,2.6 3.4,16.8 4,17.9 0.6,1.1 0.2,4.4 1.2,6.4 1,2 8.7,3.9 6.2,7.8 -2.4,3.9 -9.3,2 -10.3,-0.2 -1,-2.2 0.1,-4.6 -1.1,-8.8 -1.2,-4.2 -6.7,-15.8 -6.7,-15.8 0,0 -2,0.6 -4.8,0.9 -2.9,0.4 -5.9,3.9 -4.9,9.7 1,5.8 2,8 2.6,9.4 0.6,1.4 0.2,4.6 1.1,6.4 0.9,1.9 7.2,4.2 4.8,7.3 -2.4,3.1 -7.5,3.2 -10.2,0.6 -2.7,-2.6 -0.4,-3.8 -2.2,-10.2 -1.9,-6.4 -4,-13.8 -4,-13.8 l -6.3,1.5 -4.4,9.3 c 0,0 3.8,2.8 5.7,3.9 1.9,1.1 5.7,0.2 7,1.9 1.3,1.7 1.8,5.5 -2.2,7 -4,1.5 -6.3,-3.4 -7.7,-4.5 -1.4,-1 -7,-3.3 -8.5,-5 -1.5,-1.7 -0.2,-5.8 -0.2,-5.8 0,0 -5.9,-0.6 -8.8,-4.4 -2.9,-3.8 -2.5,-4.6 -3.7,-5.5 -1.2,-0.9 -3.1,-1.7 -8.8,-1.1 -5.7,0.6 -12.7,-1.8 -15.7,-5.2 -3.1,-3.4 -3.7,-11.3 -2.9,-12 0.8,-0.7 2.2,4.5 3.8,5.7 1.6,1.2 5.3,4.2 9.7,3.8 4.4,-0.4 12.5,-3.6 12.5,-3.6 0,0 4.6,-12.8 10.8,-19.7 6.2,-7 14.6,-11.7 15.9,-16.8 1.1,-5.1 1,-19.9 2.3,-22.4 z"
         id="path888" />
      <g
         id="g892">
        <path
           style="opacity:0.2"
           d="m 84.6,108.1 c 0,0 -1.2,1.6 -4,1.6 -1.5,0 -3.7,-0.2 -5.3,-0.4 0.6,0.1 1.4,0.3 2.2,0.6 2.8,0.9 3.9,2.1 5.1,4.6 1.1,2.5 -0.8,7.7 -0.8,7.7 l 6.3,-1.5 c 0,0 -0.7,-2.1 -1,-3.2 -0.3,-1 -2.6,-6.6 -2.5,-9.4 z"
           id="path890" />
      </g>
      <path
         style="opacity:0.2"
         d="m 94.9,65.4 c -0.4,-1.5 -1.8,-5.1 -4,-7.5 -1.6,-1.8 -3,-5.8 -3.6,-8.3 l -1.1,0.3 c -0.6,3.7 -0.8,10.7 -1.3,15.8 0.9,0.7 4.2,1.9 5.3,2.5 4.7,2.6 5.5,0.5 4.7,-2.8 z"
         id="path894" />
      <path
         style="fill:#262626"
         d="m 93.7,52.8 c 0,0 -0.1,-2.2 0.8,-3.1 0.8,-0.9 2.5,-0.6 1.7,1.3 -0.8,2 -2.5,1.8 -2.5,1.8 z"
         id="path896" />
      <path
         style="fill:#262626"
         d="m 102.9,45.7 c 0,0 -0.2,-1.1 0.7,-1.5 0.9,-0.3 1.8,1.5 1.8,1.5 z"
         id="path898" />
      <path
         style="fill:#262626"
         d="m 111.1,53.4 c 0,0 -0.3,-0.6 -1,-0.8 -0.6,-0.2 -1.3,-0.1 -2.1,0.2 l -0.9,-1.8 -0.3,0.2 0.9,1.8 c -1.3,0.7 -1.9,1.5 -2.6,2.5 -0.4,0.6 -0.9,1.3 -1.6,1.9 -1.8,1.8 -2.8,2.1 -2.8,2.1 -0.1,0 -0.1,0.1 -0.1,0.2 0,0.1 0.1,0.1 0.2,0.1 0,0 0,0 0.1,0 0,0 1.1,-0.4 3,-2.2 0.7,-0.7 1.2,-1.4 1.6,-2 0.7,-1 1.3,-1.8 2.6,-2.5 0.8,-0.4 1.4,-0.5 1.9,-0.3 0.6,0.2 0.8,0.6 0.8,0.6 0,0.1 0.2,0.1 0.2,0.1 0.1,0.1 0.1,0 0.1,-0.1 z"
         id="path900" />
      <path
         style="fill:#825012"
         d="m 87.4,47.1 c -0.8,-0.5 -2.7,0.7 -4.1,3.4 -1.4,2.7 -3.4,7.5 -1.8,9.9 1.6,2.4 4.3,4.5 6.7,5.4 2.3,0.9 5,2.6 5.7,2.1 0.7,-0.5 -1.1,-5.7 -3,-8.4 -1.9,-2.7 -4,-5.8 -4,-5.8 0,0 2.5,-5.3 0.5,-6.6 z"
         id="path902" />
      <path
         style="opacity:0.2"
         d="m 111.1,50.6 c 0.7,1.7 0.5,3.5 -0.1,5.2 -0.6,1.6 -1.7,2.3 -1.7,2.3 v 0.1 c 0.3,0.5 1.8,2.7 2.9,2 1.2,-0.7 -0.1,-6.3 -1,-9.4 -0.9,-3.1 -4.6,-10.2 -8.4,-11.6 -3.5,-1.2 -5.2,1.3 -5.5,1.7 1.6,0 4.4,0.4 5.9,1.9 1.6,1.5 2.6,2.4 3.6,3.8 1,1.4 3.5,2.2 4.3,4 z"
         id="path904" />
      <path
         style="fill:#262626"
         d="m 102.6,48.5 c -0.7,1.6 1.8,4 4.3,2.9 2.5,-1.2 1.5,-4 0.7,-4.6 -0.8,-0.7 -4.2,-0.2 -5,1.7 z"
         id="path906" />
      <path
         style="fill:#262626"
         d="M 112.2,69.8 C 108,70.5 102.9,70.9 97.7,70.6 90,70.3 85.7,69 84,68 c -0.1,0.7 -0.2,1.4 -0.4,2 -0.2,0.6 -0.4,1.3 -0.8,1.9 4,2 10.5,2.6 14.7,2.7 1.1,0 2.2,0.1 3.3,0.1 3.7,0 7.7,-0.2 11.5,-0.9 -0.2,-1 -0.1,-2.5 -0.1,-4 z"
         id="path908" />
    </g>
    <g
       transform="matrix(0.26458333,0,0,0.26458333,143.26089,92.205329)"
       id="g1020">
      <path
         style="fill:#762c07"
         d="m 33.8,34.9 c -0.6,1.9 -0.5,9.7 -1.2,14 -0.8,5.2 -7.1,24 2.1,18.1 9.2,-5.9 7,-33.5 3.1,-33.7 -3.1,-0.3 -3.4,-0.3 -4,1.6 z"
         id="path994" />
      <path
         style="opacity:0.2"
         d="m 24.8,206.2 c -11.8,7.6 -12.4,14.4 0,21 13.5,7.2 22.4,3.3 32.9,-2.7 10.5,-6 11.8,-13.4 -3.7,-19.5 -12.5,-5 -20.4,-4.5 -29.2,1.2 z"
         id="path996" />
      <path
         style="fill:#fbd7c7"
         d="m 28.8,82.2 c 0,0 -3.2,10.8 -5.9,19.1 -2.7,8.3 -4.4,13.8 -5.3,15.9 -0.9,2.1 -1.3,5.7 -0.8,7.3 0.5,1.6 2.3,5 3,5.7 1.7,1.6 4.4,1.2 4.8,0.8 0.4,-0.5 0.4,-2.2 -0.3,-2.9 -0.7,-0.7 -2.6,-3 -1.4,-6 1.2,-2.9 1,-4.2 1,-6 0,-1.5 -0.5,-1.7 0.7,-4.1 1.2,-2.5 6.9,-14.5 7.5,-16.2 0.6,-1.7 -3.3,-13.6 -3.3,-13.6 z"
         id="path998" />
      <path
         style="fill:#fbd7c7"
         d="m 42.8,54.7 c 0,0 -9.1,-4 -12.3,0.3 -3.2,4.3 -1.7,11 -1.7,11 0,0 -5.4,6.1 -5.4,9.4 0,3.3 5.1,6.5 5.1,6.5 0,0 0.6,15.8 -0.3,22.3 -0.9,6.5 -3.8,23.3 -3.1,33.9 0.7,10.6 1.6,25 1.9,29.2 0.3,4.1 2.2,10 3,14.8 0.9,4.8 4.1,13.2 0.9,19.6 -3.2,6.4 -6.1,9.3 -7.4,10.5 -1.3,1.2 0.2,5.2 3,4.5 2.8,-0.7 7.2,-7.1 9.9,-8.1 2.7,-1.1 7.2,-4 6,-7.7 -1.2,-3.6 -1.7,-2.2 -2,-5.3 -0.3,-3.1 2.2,-16.7 1.3,-22.8 -0.9,-6.1 -3.2,-7.8 -3.6,-8.8 -0.4,-1 5.7,-29.5 5.7,-29.5 0,0 1.2,27.3 1.1,30.2 -0.1,2.9 2.1,17.7 2.7,24.6 0.7,7 1,18.8 -2,22.9 -2.9,4.1 -8,10.3 -6,11.7 2,1.4 8.3,2.7 9.8,-0.9 1.5,-3.6 5.3,-11.1 6.7,-13.1 1.4,-2 1.9,-3.1 1,-5 -0.9,-1.9 -1.5,-5 -0.5,-10.3 1,-5.3 4.1,-14.7 3.3,-19.7 -0.8,-5 -3.2,-8.1 -2.9,-11.7 0.3,-3.5 8.1,-24.8 6.6,-39.7 C 62,108.7 54.6,106 53.3,100 52,94 56.3,86.1 58.5,81.8 60.7,77.6 63.8,70.2 61.1,67.6 58.4,64.9 55.2,63.2 54,61.2 52.8,59.2 51.5,53 51.5,53 Z"
         id="path1000" />
      <path
         style="fill:#cc291f"
         d="m 25.4,210.3 c 0,0 -4.9,1.7 -5.9,3.9 -0.8,1.8 -0.5,3.9 1.2,5 1.8,1 5.2,1.3 8.2,-0.4 2.9,-1.7 6.8,-8.4 7.5,-8.7 0.7,-0.3 0.2,3.7 0.2,3.7 l 2.1,1.1 2.3,-0.9 c 0,0 -0.2,-4.5 0.7,-6 0.9,-1.5 2.6,-3.9 2,-6.9 -0.6,-3 -2.6,-3.3 -2.6,-3.3 0,0 0,3.5 -4,7.3 -3.8,3.6 -5.9,9.6 -9.2,9.3 -4.5,-0.7 -2.5,-4.1 -2.5,-4.1 z"
         id="path1002" />
      <path
         style="fill:#cc291f"
         d="m 42.2,217.1 c 0,0 -4.6,3.5 -4.9,5.7 -0.3,2.2 -0.2,3.7 2.9,4.7 3.1,1 7.1,-0.2 9,-1.8 1.9,-1.6 4.4,-5.8 4.4,-5.8 l 2,1.1 2.3,-1.1 c 0,0 -0.3,-2.7 0.4,-5.1 0.7,-2.4 1.4,-4.4 1.4,-7.4 0,-3 -2.8,-3.3 -2.8,-3.3 0,0 1.7,1.6 -0.8,5.1 -2.5,3.5 -4.4,11.3 -8.1,11.5 -6.9,0.5 -5.8,-3.6 -5.8,-3.6 z"
         id="path1004" />
      <path
         style="fill:#28896d"
         d="m 60.8,110.8 c -2.7,-4.3 -5.3,-6.4 -5.4,-6.8 0,0 -6.4,3.9 -16.4,3.1 -10,-0.8 -10.6,-3.1 -10.6,-3.1 -1.4,6.7 -4.5,17.6 -5.5,21.1 -1.9,6.8 -6.1,18 -5.6,19 2.1,4.2 12.6,3.2 17.4,7.6 4.8,4.4 17.8,3.7 24,1.6 6.2,-2.1 9.4,-5.8 9.2,-6.5 -4.8,-18.7 -1.8,-27.6 -7.1,-36 z"
         id="path1006" />
      <path
         style="fill:#e5e5e5"
         d="m 27.7,82.8 c 0.3,0.6 3.1,5.5 3,11.7 0,2.9 -1.7,6.6 -2.7,9.6 7.4,6.7 22,3.9 27.6,0.3 -4.5,-6.7 1.9,-20.2 3,-22.4 2.2,-4.2 5.3,-11.6 2.6,-14.2 -2.7,-2.7 -5.9,-4.4 -7.1,-6.4 -1.2,-2 -2.5,-8.2 -2.5,-8.2 l -8.9,1.6 c 0,0 -3.6,-1.6 -7,-1.7 -2.2,2.1 -4.9,9.8 -7.4,12.7 -2.5,2.8 -5.4,5.4 -5.4,9.6 0,3.2 4.3,6.5 4.8,7.4 z"
         id="path1008" />
      <path
         style="fill:#fbd7c7"
         d="m 37.9,53.9 c 0,0 -8.9,14.8 -2.4,16.5 6.3,1.7 16,-8.7 16,-8.7 L 43.7,53 Z"
         id="path1010" />
      <path
         style="fill:#fbd7c7"
         d="m 40.2,54.9 c 0,0 -4.3,0.7 -4.9,-0.9 -0.7,-1.7 -4.4,-15.5 2.4,-24.1 6.8,-8.6 20.5,-3.1 20.5,6 0,8.1 -3.2,10.5 -4.7,14.5 -0.9,2.5 -1.6,5.8 -0.1,8.4 1.5,2.7 2.7,4 2.7,4 0,0 -7.6,4.6 -13.3,3.2 -5.7,-1.4 -0.2,-4.2 -1,-6.6 -0.7,-2.1 -1.6,-4.5 -1.6,-4.5 z"
         id="path1012" />
      <path
         style="opacity:0.15"
         d="M 23,76.1 C 26.1,82 35.5,86.6 49.6,83.5 48.8,85.8 28.5,91 23,76.1 Z"
         id="path1014" />
      <path
         style="fill:#fbd7c7"
         d="m 51,74.8 c -1.1,-2.9 -0.7,-10.2 5.3,-10.5 6,-0.3 6.7,5.7 7.2,13.6 0.5,7.9 3.5,20.7 3.7,23.3 0.2,2.6 -1.5,9.7 -5.6,16 -4.1,6.3 -6.9,11.4 -7.1,12.3 -0.2,1 -1.4,4.9 -3.1,6.1 -0.7,0.5 -1.5,1.2 -1.9,2.5 -0.4,1.3 0.5,2.4 0.7,2.7 0.3,0.7 -0.2,1.5 -1.4,2.2 -1.3,0.8 -3.2,-0.5 -4.2,-1.3 -0.7,-0.5 -2.5,-2.1 -2,-4.3 0.4,-1.6 1.7,-6.6 3.7,-7.8 2,-1.2 3.9,-2.7 4.6,-4.1 0.7,-1.4 2.2,-11.9 4.8,-17.2 1.4,-2.9 3.1,-4.8 3.1,-5.9 C 58.7,101.5 52.1,77.7 51,74.8 Z"
         id="path1016" />
      <path
         style="fill:#762c07"
         d="m 33.8,34.9 c 0,0 3.5,-11.5 16.4,-9.1 8.1,1.5 10.4,10.5 9.6,16.7 -0.7,6.2 -3.3,9.9 -2.1,12.9 2.3,5.6 1,9.4 -1.6,12.7 C 51.8,73.6 43,76.3 44,65.2 44.7,56.6 38.9,52.8 40.9,43.7 42.1,38 39.8,35.5 37.3,36 36.4,34.1 35.4,33.4 33.8,34.9 Z"
         id="path1018" />
    </g>
  </g>
  <path
     style="fill:#000000;fill-opacity:1;fill-rule:nonzero;stroke:none;stroke-width:0.264583"
     id="path1"
     d="m 92.669556,18.360197 c 1.397611,0 2.795225,0 4.192839,0 1.150988,0.0058 2.301833,-0.01875 3.452545,-0.04038 0.62215,-0.01169 0.60561,-0.891539 -0.0165,-0.879844 v 0 c -1.145198,0.02153 -2.290532,0.04604 -3.436005,0.04023 -1.397614,0 -2.795228,0 -4.192839,0 -0.622255,0 -0.622255,0.88 0,0.88 z" />
  <path
     style="fill:#000000;fill-opacity:1;fill-rule:nonzero;stroke:none;stroke-width:0.264583"
     id="path2"
     d="m 97.129452,17.883804 c 0.39034,-0.368296 0.747771,-0.770445 1.092571,-1.181077 0.650507,-0.831295 1.088136,-1.797757 1.444651,-2.78432 0.208706,-0.654803 0.397836,-1.38112 0.160025,-2.058269 -0.0452,-0.128689 -0.118631,-0.245646 -0.177945,-0.368468 -0.482828,-0.672943 -0.993452,-0.942185 -1.761361,-1.192497 -0.121475,-0.02435 -0.241032,-0.06198 -0.364429,-0.07306 -0.647673,-0.05816 -1.29627,0.19367 -1.823855,0.554578 -0.133458,0.09129 -0.253182,0.2012 -0.379775,0.3018 -0.666967,0.602394 -0.967853,1.316923 -1.190532,2.16503 -0.162573,0.855259 0.07009,1.602134 0.409885,2.376776 0.269242,0.563223 0.619664,1.080433 0.974312,1.591963 0.196472,0.295918 0.428305,0.562517 0.668501,0.822845 0.08535,0.09902 0.173773,0.193223 0.250648,0.29903 0.374269,0.497113 1.077293,-0.03219 0.703024,-0.529298 v 0 c -0.09756,-0.126988 -0.199053,-0.248175 -0.30698,-0.366548 -0.212627,-0.23035 -0.419367,-0.464423 -0.592013,-0.727437 -0.322874,-0.465661 -0.643781,-0.9351 -0.892487,-1.446037 -0.252513,-0.56737 -0.470686,-1.170421 -0.362992,-1.800674 0.162099,-0.636579 0.394366,-1.247375 0.892135,-1.701518 0.09322,-0.07724 0.181329,-0.161093 0.279654,-0.231714 0.309218,-0.222088 0.811879,-0.46769 1.205082,-0.444478 0.08809,0.0052 0.173741,0.03103 0.260609,0.04655 0.495848,0.156441 0.918189,0.343704 1.250783,0.762521 0.03414,0.05586 0.07753,0.107033 0.102415,0.167588 0.206645,0.502868 0.01249,1.065136 -0.13263,1.553095 -0.319469,0.890087 -0.710319,1.7641 -1.291302,2.517434 -0.306819,0.3672 -0.628057,0.721738 -0.967724,1.059019 -0.485899,0.388719 0.06383,1.075884 0.54973,0.687163 z" />
  <path
     style="fill:#000000;fill-opacity:1;fill-rule:nonzero;stroke:none;stroke-width:0.264583"
     id="path4"
     d="m 124.51381,20.163749 c 0.26598,-0.464236 0.59929,-0.88199 0.92454,-1.304916 0.37559,-0.466009 0.76238,-0.922837 1.21244,-1.318746 0.16135,-0.140113 0.31042,-0.291409 0.45466,-0.448672 0.41822,-0.460751 -0.23338,-1.052204 -0.6516,-0.591452 v 0 c -0.12079,0.135053 -0.24997,0.260694 -0.38586,0.380771 -0.49033,0.435135 -0.91884,0.929531 -1.32722,1.441637 -0.35179,0.457444 -0.70992,0.911117 -0.99622,1.414012 -0.30219,0.543948 0.46707,0.971314 0.76926,0.427366 z" />
  <path
     style="fill:#000000;fill-opacity:1;fill-rule:nonzero;stroke:none;stroke-width:0.264583"
     id="path5"
     d="m 126.4831,17.103309 c 0.33066,0.510661 0.73453,0.968868 1.11687,1.440745 0.37231,0.458507 0.74055,0.919465 1.09353,1.393037 0.37191,0.498883 1.07743,-0.02708 0.70553,-0.525958 v 0 c -0.36014,-0.483011 -0.73549,-0.953454 -1.11535,-1.421095 -0.36128,-0.445838 -0.74364,-0.878208 -1.05816,-1.35918 -0.33407,-0.524972 -1.07649,-0.05252 -0.74242,0.472451 z" />
  <path
     style="fill:#000000;fill-opacity:1;fill-rule:nonzero;stroke:none;stroke-width:0.264583"
     id="path6"
     d="m 126.84504,16.30111 c -0.37439,-0.356366 -0.60109,-0.830377 -0.84269,-1.279399 -0.30197,-0.678691 -0.52507,-1.396032 -0.62885,-2.132033 -0.0381,-0.408056 -0.0333,-0.862154 0.24405,-1.194514 0.047,-0.0563 0.10489,-0.102495 0.15734,-0.153742 0.37239,-0.299492 0.81813,-0.460418 1.29906,-0.432511 0.0965,0.0056 0.19137,0.02792 0.28706,0.04188 0.56528,0.116919 0.87157,0.254874 1.19244,0.735211 0.28908,0.481655 0.21378,0.708954 0.0625,1.222386 -0.22482,0.624943 -0.51532,1.220852 -0.84432,1.796713 -0.28409,0.494164 -0.61291,0.959551 -0.91899,1.439587 -0.11435,0.17807 -0.2038,0.368722 -0.28942,0.561545 -0.24993,0.569855 0.55597,0.923309 0.8059,0.353454 v 0 c 0.0657,-0.152363 0.13652,-0.301906 0.2258,-0.44233 0.31316,-0.492518 0.65123,-0.969128 0.94124,-1.476489 0.36252,-0.637377 0.68453,-1.296727 0.92586,-1.990467 0.22116,-0.791009 0.25744,-1.252522 -0.18888,-1.97078 -0.0643,-0.0886 -0.122,-0.182401 -0.1929,-0.265815 -0.41225,-0.484966 -0.99527,-0.728321 -1.61035,-0.836251 -0.14423,-0.01596 -0.28764,-0.04378 -0.43269,-0.04788 -0.71295,-0.02017 -1.37041,0.244791 -1.90324,0.708732 -0.23647,0.263291 -0.30922,0.303923 -0.45818,0.625338 -0.21073,0.454669 -0.22461,0.964346 -0.17302,1.453375 0.12601,0.836221 0.36803,1.653737 0.72468,2.421653 0.28986,0.538375 0.57258,1.096414 1.02889,1.516433 0.46252,0.416266 1.05121,-0.237833 0.58869,-0.654099 z" />
  <path
     style="fill:#000000;fill-opacity:1;fill-rule:nonzero;stroke:none;stroke-width:0.264583"
     id="path3"
     d="m 126.37743,17.304649 c 0,0.214282 0,0.428563 0,0.642845 0,0.242074 0,0.484148 0,0.726222 0,0.253677 0,0.507355 0,0.761032 0.0107,0.264962 -0.0189,0.528261 -0.0415,0.791758 -0.0217,0.236316 -0.0561,0.470461 -0.1,0.703583 -0.054,0.264359 -0.11328,0.527871 -0.18378,0.788343 -0.0755,0.328804 -0.18593,0.647614 -0.29103,0.967694 -0.10111,0.255305 -0.18596,0.519621 -0.31113,0.76453 -0.13356,0.255654 -0.28024,0.503969 -0.44392,0.741443 -0.21683,0.291758 -0.45668,0.565717 -0.68944,0.844799 -0.19414,0.23905 -0.41483,0.455495 -0.65597,0.646651 -0.33052,0.265703 -0.66477,0.525718 -1.01355,0.767085 -0.29652,0.199017 -0.58103,0.417484 -0.88855,0.59963 -0.17321,0.09291 -0.35275,0.172789 -0.53462,0.247171 -0.24425,0.105846 -0.48789,0.213141 -0.73455,0.313259 -0.47876,0.175471 -0.95073,0.368278 -1.42031,0.566806 -0.70091,0.295605 -1.398,0.600109 -2.09722,0.89962 -0.44314,0.201671 -0.90065,0.3723 -1.33881,0.584705 -0.26635,0.126648 -0.51945,0.277543 -0.75529,0.454205 -0.24494,0.196215 -0.47054,0.414891 -0.70216,0.626327 -0.24378,0.210365 -0.43483,0.465683 -0.60718,0.735283 -0.18023,0.285017 -0.31209,0.593579 -0.4179,0.912614 -0.0854,0.224763 -0.16057,0.452461 -0.21276,0.687242 -0.0426,0.211388 -0.0546,0.427204 -0.0647,0.642117 -0.007,0.09255 -0.002,0.185221 0.003,0.277693 0.0341,0.621319 0.91279,0.573075 0.87868,-0.04824 v 0 c -0.004,-0.06282 -0.009,-0.125574 -0.002,-0.188503 0.008,-0.165571 0.0153,-0.331991 0.0454,-0.4953 0.0438,-0.205806 0.11699,-0.402648 0.18895,-0.600006 0.0814,-0.250124 0.1839,-0.491447 0.32427,-0.714967 0.12989,-0.204997 0.27142,-0.39986 0.45819,-0.558015 0.21214,-0.193667 0.41899,-0.393641 0.64138,-0.575659 0.18721,-0.145661 0.39641,-0.259752 0.60901,-0.364082 0.42349,-0.208947 0.87088,-0.367549 1.29909,-0.566513 0.69793,-0.299022 1.39378,-0.602903 2.09341,-0.897998 0.4658,-0.196985 0.93413,-0.387745 1.40894,-0.562095 0.24722,-0.100602 0.49185,-0.20733 0.73648,-0.314044 0.2227,-0.09118 0.44243,-0.190143 0.65323,-0.306501 0.32292,-0.194702 0.62687,-0.418662 0.93791,-0.631458 0.36518,-0.2534 0.71632,-0.524784 1.06245,-0.803538 0.2852,-0.230198 0.55091,-0.484276 0.78165,-0.769869 0.2503,-0.300145 0.50865,-0.594533 0.73913,-0.910401 0.18599,-0.27188 0.35499,-0.554659 0.50625,-0.847407 0.13958,-0.285266 0.24852,-0.584657 0.35936,-0.882034 0.11008,-0.335221 0.22503,-0.669357 0.30471,-1.013534 0.0757,-0.282655 0.14129,-0.568068 0.19896,-0.854945 0.0489,-0.26192 0.0877,-0.525103 0.11185,-0.790546 0.0247,-0.288445 0.0552,-0.576899 0.0447,-0.866902 0,-0.253677 0,-0.507355 0,-0.761032 0,-0.242074 0,-0.484148 0,-0.726222 0,-0.214282 0,-0.428563 0,-0.642845 0,-0.622254 -0.88,-0.622254 -0.88,0 z" />
  <path
     style="fill:#000000;fill-opacity:1;fill-rule:nonzero;stroke:none;stroke-width:0.264583"
     id="path7"
     d="m 96.069074,18.185214 v 0.650096 c -0.0029,0.417735 -0.0037,0.834831 0.02029,1.251949 0.01259,0.418462 0.08187,0.830206 0.174331,1.237461 0.09685,0.415632 0.270595,0.806862 0.457637,1.188554 0.132437,0.235001 0.261027,0.474789 0.416705,0.695737 0.0737,0.104592 0.209352,0.275984 0.288346,0.377239 0.344207,0.416869 0.73175,0.795243 1.12949,1.160377 0.391528,0.362211 0.80698,0.697947 1.242261,1.005953 0.327396,0.229618 0.666426,0.443091 1.016046,0.63717 0.35256,0.19475 0.72492,0.348059 1.09254,0.511065 0.45939,0.198299 0.91278,0.409476 1.3624,0.628898 0.53586,0.256936 1.07012,0.517196 1.60647,0.773104 0.48237,0.222832 0.95385,0.466889 1.41705,0.726988 0.32981,0.177609 0.63112,0.400608 0.92173,0.635425 0.19939,0.15606 0.36728,0.340977 0.51836,0.542761 0.13986,0.192845 0.2191,0.417952 0.29385,0.641824 0.0899,0.233714 0.14696,0.476303 0.18727,0.722765 0.0284,0.211759 0.0416,0.425162 0.0506,0.638506 0.007,0.198054 0.009,0.39624 0.0101,0.594397 10e-4,0.199937 0.002,0.39988 0.002,0.599823 -0.005,0.231463 -0.0137,0.251961 -9e-4,0.482914 0.002,0.104693 -1e-4,0.121477 0.013,0.225247 0.0879,0.616021 0.60355,0.349358 0.76595,0.266006 0.13596,-0.06978 0.12464,-0.369017 0.11314,-0.535821 -0.008,-0.215247 -0.0166,-0.223755 -0.0112,-0.439311 -2.2e-4,-0.201742 -5.3e-4,-0.403484 -0.002,-0.605221 -0.002,-0.208626 -0.003,-0.417285 -0.0109,-0.625798 -0.0108,-0.248716 -0.0265,-0.497525 -0.0616,-0.744164 -0.0488,-0.293005 -0.11621,-0.582068 -0.22163,-0.86051 -0.10619,-0.312608 -0.22535,-0.623276 -0.42482,-0.890119 -0.19561,-0.258477 -0.41289,-0.496689 -0.66845,-0.697992 -0.32911,-0.265538 -0.67117,-0.516361 -1.04391,-0.718164 -0.48026,-0.269335 -0.96879,-0.522741 -1.46875,-0.753792 -0.53403,-0.254775 -1.06595,-0.513945 -1.59949,-0.76974 -0.45932,-0.224097 -0.92244,-0.439901 -1.39169,-0.642528 -0.34397,-0.152436 -0.6927,-0.295058 -1.02297,-0.476472 -0.32217,-0.177756 -0.63334,-0.375671 -0.93496,-0.586335 -0.405524,-0.285081 -0.790194,-0.599401 -1.154681,-0.935374 -0.362225,-0.331984 -0.715293,-0.675799 -1.030639,-1.053335 -0.02927,-0.03748 -0.209971,-0.267571 -0.246542,-0.318924 -0.135718,-0.190585 -0.245964,-0.398849 -0.362622,-0.601108 -0.158038,-0.319646 -0.305922,-0.64738 -0.38921,-0.995484 -0.08221,-0.359589 -0.14397,-0.722933 -0.153815,-1.092704 -0.0232,-0.400219 -0.02111,-0.800439 -0.01884,-1.201269 v -0.650096 c 0,-0.622254 -0.880001,-0.622254 -0.88,0 z"
     sodipodi:nodetypes="cccccscccccccccccccccccsccccccccccccccccsccccscc" />
  <path
     style="fill:#000000;fill-opacity:1;fill-rule:nonzero;stroke:none;stroke-width:0.264583"
     id="path8"
     d="m 110.69342,34.496009 c 0.0281,0.395806 0.0331,0.793049 0.0403,1.189696 0.009,0.573188 0.0116,1.14644 0.0141,1.719681 0.002,0.457163 0.002,0.914331 0.003,1.371499 2.7e-4,0.662898 5.3e-4,1.325793 5.3e-4,1.98869 5e-5,0.611037 6e-5,1.222074 7e-5,1.833108 1e-5,0.443531 1e-5,0.88706 1e-5,1.330589 0,0.369457 1e-5,0.738913 1e-5,1.108369 0,0.347636 0,0.695272 0,1.042911 0,0.253746 0,0.507492 0,0.76124 0,0.202063 0,0.404125 0,0.606187 0,0.191836 0,0.383675 0,0.575511 0,0.207894 0,0.41579 0,0.623684 0.0164,0.216781 0.0636,0.429273 0.0909,0.644737 0.0201,0.176493 0.0272,0.354068 0.0327,0.5315 0.005,0.185568 0.006,0.37121 0.007,0.556834 10e-4,0.218848 10e-4,0.437698 10e-4,0.656548 0.005,0.249531 -0.0118,0.498795 -0.0343,0.747162 -0.0627,0.373959 -0.13269,0.746252 -0.18591,1.121775 -0.0353,0.322067 -0.10732,0.638419 -0.15856,0.958136 -0.0256,0.165891 -0.0418,0.33293 -0.0553,0.500163 -0.0496,0.62027 0.82755,0.690472 0.87719,0.0702 v 0 c 0.0114,-0.144241 0.0254,-0.288298 0.0471,-0.431409 0.0518,-0.324956 0.12558,-0.646409 0.16094,-0.973825 0.0551,-0.390406 0.13185,-0.776748 0.19106,-1.166474 0.0244,-0.27473 0.0432,-0.550384 0.0378,-0.826368 -1.6e-4,-0.220329 -2.6e-4,-0.440658 -10e-4,-0.660985 -0.001,-0.193082 -0.002,-0.386185 -0.008,-0.579209 -0.007,-0.205489 -0.0153,-0.411121 -0.0394,-0.615435 -0.0229,-0.178593 -0.0532,-0.355936 -0.0838,-0.533352 0,-0.207894 0,-0.41579 0,-0.623684 0,-0.191836 0,-0.383675 0,-0.575511 0,-0.202062 0,-0.404124 0,-0.606187 0,-0.253748 0,-0.507494 0,-0.76124 0,-0.347639 0,-0.695275 0,-1.042911 0,-0.369459 0,-0.738915 0,-1.108371 0,-0.443535 -1e-5,-0.887066 -1e-5,-1.3306 -10e-6,-0.611058 -2e-5,-1.222114 -7e-5,-1.833171 -6e-5,-0.663086 -8e-5,-1.326171 -5.3e-4,-1.98926 -2.6e-4,-0.458216 -7.9e-4,-0.916434 -0.003,-1.374648 -0.002,-0.577291 -0.006,-1.154591 -0.0142,-1.73183 -0.008,-0.423746 -0.0127,-0.848257 -0.0455,-1.270931 -0.0687,-0.618448 -0.94333,-0.521269 -0.87462,0.09718 z" />
  <path
     style="fill:#000000;fill-opacity:1;fill-rule:nonzero;stroke:none;stroke-width:0.264583"
     d="m 94.303205,55.076384 c 0.246356,0 2.377871,2e-6 2.624227,5e-6 0.351364,5e-6 0.702726,1.3e-5 1.054087,3.7e-5 0.40015,3.4e-5 0.800298,7.9e-5 1.200446,2.49e-4 0.370105,1.93e-4 0.740209,2.64e-4 1.110305,0.0016 0.29998,0.0013 0.59995,0.003 0.89988,0.0085 0.34423,0.0067 0.68839,0.01699 1.0323,0.03363 0.38139,0.01752 0.76266,0.03091 1.14456,0.02653 0.41005,0.0031 0.82008,0.0084 1.23004,0.01749 0.50937,0.0123 1.01852,0.03248 1.52797,0.04114 0.40547,-0.0019 0.81098,-0.0042 1.21633,-0.01529 0.40105,-0.01265 0.80199,-0.03179 1.20166,-0.0684 0.41324,-0.03974 0.82511,-0.09681 1.24108,-0.09811 0.33514,-0.01297 0.67016,-0.01675 1.00554,-0.01352 0.62226,0 0.62226,-0.879999 0,-0.879999 v 6.6e-5 c -0.34667,-0.0034 -0.693,7.93e-4 -1.03942,0.01416 -0.43274,0.0019 -0.8614,0.06024 -1.29133,0.101484 -0.38089,0.0347 -0.76297,0.05284 -1.14516,0.0648 -0.39752,0.01077 -0.79519,0.01302 -1.19283,0.01487 -0.50098,-0.0093 -1.00168,-0.02878 -1.50259,-0.04089 -0.4148,-0.0092 -0.82966,-0.01455 -1.24455,-0.01773 -0.3707,0.0046 -0.74072,-0.0086 -1.11091,-0.02564 -0.35163,-0.01701 -0.70352,-0.02749 -1.05548,-0.03439 -0.30446,-0.0056 -0.60897,-0.0074 -0.91348,-0.0087 -0.371147,-0.0013 -0.742302,-0.0013 -1.113457,-0.0016 -0.400275,-1.72e-4 -0.800552,-2.14e-4 -1.200827,-2.49e-4 -0.351383,-2.6e-5 -0.702765,-3.2e-5 -1.054151,-3.7e-5 -0.246361,-2e-6 -2.377876,-5e-6 -2.624237,-5e-6"
     id="path12"
     sodipodi:nodetypes="csscccccccccccccccccccccccssc" />
  <path
     style="fill:#ff4400;fill-opacity:1;fill-rule:nonzero;stroke:none;stroke-width:0.264583"
     d="m 94.303208,54.196385 h -0.603605 -1.776081 -0.09502 c -0.622253,0 -0.519182,0.385453 -0.450618,0.636086 0.05257,0.192164 0.523318,0.243913 0.545638,0.243913 h 1.776081 0.603602"
     id="path9"
     sodipodi:nodetypes="cccsaccc" />
  <path
     style="fill:#000000;fill-opacity:1;fill-rule:nonzero;stroke:none;stroke-width:0.264583"
     id="path10"
     d="m 101.0114,54.765529 c 0.31949,-0.489826 0.68377,-0.945423 1.06987,-1.383798 0.57274,-0.655074 1.17654,-1.281898 1.77515,-1.913149 0.53172,-0.576741 1.0794,-1.137602 1.65063,-1.675196 0.64279,-0.604631 1.27116,-1.224822 1.88914,-1.854769 0.3494,-0.34509 0.68848,-0.7001 1.02544,-1.057259 0.27879,-0.298995 0.54772,-0.606864 0.81943,-0.912283 0.2448,-0.253841 0.49874,-0.498539 0.75563,-0.740061 0.27895,-0.246689 0.55056,-0.501475 0.82377,-0.754502 0.21582,-0.199088 0.42562,-0.404614 0.63077,-0.614645 0.43447,-0.445466 -0.19552,-1.059895 -0.62998,-0.614429 v 0 c -0.19442,0.199684 -0.39409,0.394261 -0.59876,0.583443 -0.27482,0.254535 -0.54814,0.510712 -0.82861,0.759024 -0.2759,0.259434 -0.54878,0.522232 -0.8103,0.796263 -0.266,0.299014 -0.52909,0.600605 -0.80205,0.893305 -0.33304,0.353015 -0.66817,0.703919 -1.01359,1.044938 -0.60971,0.621728 -1.22991,1.233601 -1.86416,1.8303 -0.58303,0.549275 -1.14308,1.121256 -1.68592,1.710359 -0.60621,0.639302 -1.21759,1.274199 -1.79755,1.937679 -0.40015,0.456054 -0.78187,0.927333 -1.11291,1.43678 -0.373354,0.497803 0.33065,1.025803 0.704,0.528 z" />
  <path
     style="fill:#000000;fill-opacity:1;fill-rule:nonzero;stroke:none;stroke-width:0.264583"
     id="path11"
     d="m 104.88279,52.986984 c 0.23826,-0.265661 0.47963,-0.528413 0.72359,-0.78885 0.40161,-0.41298 0.86038,-0.763347 1.29491,-1.139733 0.11125,-0.09636 0.2204,-0.195106 0.3306,-0.292658 0.5266,-0.477303 1.03939,-0.969486 1.55206,-1.461627 0.25757,-0.248579 0.5163,-0.496398 0.76347,-0.755412 0.0822,-0.08243 0.0414,-0.04107 0.12256,-0.124087 0.43494,-0.445005 -0.19439,-1.060101 -0.62933,-0.615095 v 0 c -0.0802,0.08209 -0.0367,0.03784 -0.13079,0.132614 -0.23712,0.250193 -0.48816,0.487011 -0.73533,0.727147 -0.50418,0.483997 -1.00844,0.96806 -1.52611,1.437701 -0.10514,0.09317 -0.20924,0.187526 -0.31541,0.279513 -0.4602,0.398698 -0.94593,0.77012 -1.36891,1.210067 -0.27033,0.288652 -0.54156,0.577366 -0.79739,0.87893 -0.36168,0.506349 0.3544,1.017839 0.71608,0.51149 z" />
  <path
     style="fill:#ff4400;fill-opacity:1;fill-rule:nonzero;stroke:none;stroke-width:0.264583"
     id="path13"
     d="m 91.152732,51.817806 c -0.309269,0.0021 -0.61376,0.0795 -0.914377,0.145444 -0.477316,0.09876 -0.938884,0.249875 -1.39605,0.416158 -0.340307,0.131783 -0.669104,0.292449 -0.992042,0.461949 -0.249306,0.136641 -0.496747,0.276315 -0.743402,0.417642 -0.218797,0.139981 -0.429824,0.290894 -0.646774,0.433758 -0.15009,0.109516 -0.315151,0.195387 -0.473493,0.291854 -0.12972,0.06709 -0.241737,0.161377 -0.350433,0.25758 -0.464706,0.413824 0.120531,1.071015 0.585235,0.65719 v 0 c 0.06955,-0.06253 0.139245,-0.124251 0.224909,-0.164393 0.166023,-0.102526 0.340696,-0.191495 0.498189,-0.307554 0.201536,-0.133073 0.39918,-0.271124 0.600064,-0.405009 0.237488,-0.136236 0.475875,-0.270605 0.715839,-0.402487 0.287115,-0.151907 0.580585,-0.294055 0.882737,-0.413546 0.420693,-0.153051 0.84478,-0.293664 1.284343,-0.383704 0.238429,-0.05265 0.480417,-0.117454 0.725255,-0.124883 0.622252,0 0.622252,-0.879999 0,-0.879999 z" />
  <path
     style="fill:#ff4400;fill-opacity:1;fill-rule:nonzero;stroke:none;stroke-width:0.264583"
     id="path14"
     d="m 91.191398,56.682109 c -0.292571,-0.03581 -0.586166,-0.06232 -0.87793,-0.106169 -0.421248,-0.08667 -0.847915,-0.14374 -1.270286,-0.223536 -0.284752,-0.05414 -0.563091,-0.139358 -0.840338,-0.223295 -0.167729,-0.05266 -0.317785,-0.139157 -0.46854,-0.226454 -0.160276,-0.09342 -0.310287,-0.202618 -0.458874,-0.313275 -0.163008,-0.123298 -0.303872,-0.271303 -0.459931,-0.402611 -0.113096,-0.101814 -0.221152,-0.209034 -0.327985,-0.31737 -0.08958,-0.0813 -0.180221,-0.161383 -0.270912,-0.241451 -0.466694,-0.411581 -1.048756,0.24842 -0.582065,0.66 v 0 c 0.07582,0.06679 0.150542,0.134774 0.227409,0.200375 0.126881,0.127915 0.254426,0.255352 0.389914,0.374248 0.169825,0.139676 0.318392,0.304159 0.498012,0.432636 0.176099,0.131103 0.354653,0.259429 0.544777,0.369747 0.209489,0.120184 0.420928,0.235146 0.653452,0.306475 0.307724,0.09297 0.616781,0.186404 0.932947,0.245911 0.433353,0.08069 0.870344,0.14173 1.302615,0.228973 0.33463,0.04957 0.67092,0.08472 1.007735,0.115798 0.622252,0 0.622252,-0.880002 0,-0.880002 z" />
  <path
     style="fill:#ff4400;fill-opacity:1;fill-rule:nonzero;stroke:none;stroke-width:0.264583"
     id="path15"
     d="m 85.761915,54.299875 c -0.219895,0.0136 -0.440502,0.0076 -0.660662,0.0061 -0.311121,-0.0021 -0.622414,-0.0051 -0.932741,-0.02864 -0.143343,-0.01595 -0.28812,-0.02008 -0.431244,-0.03782 -0.05442,-0.0075 -0.108934,-0.01408 -0.163555,-0.0199 -0.618818,-0.06529 -0.711158,0.80985 -0.09234,0.875144 v 0 c 0.05191,0.0054 0.103635,0.01214 0.155372,0.019 0.154866,0.01709 0.310586,0.02601 0.465664,0.0411 0.330358,0.02468 0.661638,0.02936 0.992841,0.03111 0.243075,0.0016 0.486624,0.0077 0.729363,-0.0084 0.620673,-0.04433 0.557975,-0.922096 -0.0627,-0.877763 z" />
  <path
     style="fill:#000000;fill-opacity:1;fill-rule:nonzero;stroke:none;stroke-width:0.264583"
     id="path16"
     d="m 83.375506,54.196458 c -0.426249,-0.02191 -0.85125,-0.0703 -1.27779,-0.09772 -0.731707,-0.04479 -1.464529,-0.0647 -2.197359,-0.07897 -0.648711,-0.0092 -1.297382,-0.0091 -1.944648,-0.05648 -0.789498,-0.05599 -1.572392,-0.174892 -2.354119,-0.294719 -0.632304,-0.101301 -1.26677,-0.201655 -1.880241,-0.388438 -0.325543,-0.13362 -0.641561,-0.301273 -0.927391,-0.507754 -0.09692,-0.07001 -0.247189,-0.202141 -0.337756,-0.279802 -0.323665,-0.309308 -0.562263,-0.689671 -0.77578,-1.07959 -0.208126,-0.38663 -0.304344,-0.812728 -0.339865,-1.246886 -0.0075,-0.499835 0.187979,-0.94475 0.452046,-1.357146 0.176287,-0.246345 0.409136,-0.455189 0.686406,-0.582845 0.161682,-0.07444 0.369581,-0.128627 0.537655,-0.178382 0.409739,-0.09494 0.831365,-0.142269 1.25137,-0.09826 0.275315,0.02884 0.379524,0.06409 0.652844,0.130088 0.564377,0.151362 1.108093,0.3753 1.596244,0.697238 0.357553,0.250645 0.63449,0.585041 0.886762,0.936699 0.229775,0.303508 0.4059,0.640527 0.575667,0.979672 0.02096,0.04607 0.04192,0.09214 0.06288,0.138211 0.258704,0.565925 1.059045,0.200059 0.800338,-0.365866 v 0 c -0.02545,-0.05544 -0.05089,-0.110882 -0.07634,-0.166325 -0.190912,-0.381222 -0.391551,-0.758611 -0.648761,-1.100384 -0.317486,-0.438427 -0.669726,-0.85141 -1.120531,-1.15956 -0.08357,-0.05384 -0.165108,-0.11099 -0.250725,-0.161523 -0.503846,-0.297381 -1.061942,-0.497485 -1.623001,-0.654537 -0.349989,-0.08135 -0.458423,-0.119276 -0.813221,-0.152704 -0.520044,-0.049 -1.041956,0.01177 -1.547662,0.134744 -0.282027,0.08634 -0.460666,0.128842 -0.728247,0.261536 -0.400129,0.198424 -0.732763,0.509995 -0.986607,0.873707 -0.0549,0.08847 -0.113917,0.174516 -0.164701,0.265409 -0.280908,0.502777 -0.434364,1.061815 -0.418872,1.63916 0.01011,0.105134 0.01579,0.210788 0.03033,0.315401 0.06192,0.445458 0.208923,0.878123 0.414909,1.276626 0.266094,0.482044 0.56711,0.948586 0.975095,1.324464 0.146878,0.125193 0.267753,0.233124 0.426389,0.346374 0.355793,0.254003 0.748927,0.458613 1.156454,0.614762 0.654021,0.195614 1.326984,0.311187 2.000973,0.41575 0.804957,0.123391 1.611209,0.2451 2.424173,0.302602 0.662736,0.04713 1.326613,0.05074 1.990807,0.05859 0.719757,0.014 1.439508,0.03343 2.158169,0.07733 0.445291,0.02847 0.888736,0.08128 1.334101,0.09952 0.622252,0 0.622252,-0.879998 0,-0.879998 z" />
</svg>
