<?xml version="1.0" encoding="UTF-8" standalone="no"?>
<svg
   id="svg8"
   version="1.1"
   viewBox="0 0 117.58267 73.169365"
   height="73.169365mm"
   width="117.58267mm"
   sodipodi:docname="16 mije li lukin e soweli. meli li lukin e soweli sama..svg"
   inkscape:version="1.3 (0e150ed6c4, 2023-07-21)"
   xmlns:inkscape="http://www.inkscape.org/namespaces/inkscape"
   xmlns:sodipodi="http://sodipodi.sourceforge.net/DTD/sodipodi-0.dtd"
   xmlns="http://www.w3.org/2000/svg"
   xmlns:svg="http://www.w3.org/2000/svg"
   xmlns:rdf="http://www.w3.org/1999/02/22-rdf-syntax-ns#"
   xmlns:cc="http://creativecommons.org/ns#"
   xmlns:dc="http://purl.org/dc/elements/1.1/">
  <sodipodi:namedview
     id="namedview1"
     pagecolor="#ffffff"
     bordercolor="#000000"
     borderopacity="0.25"
     inkscape:showpageshadow="2"
     inkscape:pageopacity="0.0"
     inkscape:pagecheckerboard="0"
     inkscape:deskcolor="#d1d1d1"
     inkscape:document-units="mm"
     inkscape:zoom="1.4142136"
     inkscape:cx="293.80287"
     inkscape:cy="51.265241"
     inkscape:window-width="1920"
     inkscape:window-height="1051"
     inkscape:window-x="-9"
     inkscape:window-y="-9"
     inkscape:window-maximized="1"
     inkscape:current-layer="svg8" />
  <defs
     id="defs2" />
  <metadata
     id="metadata5">
    <rdf:RDF>
      <cc:Work
         rdf:about="">
        <dc:format>image/svg+xml</dc:format>
        <dc:type
           rdf:resource="http://purl.org/dc/dcmitype/StillImage" />
        <dc:title />
      </cc:Work>
    </rdf:RDF>
  </metadata>
  <g
     transform="translate(-102.67978,-89.839171)"
     id="layer1">
    <g
       transform="matrix(0.26458333,0,0,0.26458333,130.58631,85.060605)"
       id="g853">
      <path
         style="fill:#fbd7c7"
         d="m 13.4,105 c 0,0 1,9.1 1.3,12.3 0.3,3.2 1.3,5.5 2.1,7.3 0.8,1.8 4.5,6.2 5,5.9 0.5,-0.3 -0.3,-2.1 -0.3,-2.5 0,-0.4 0.4,-1.7 -0.2,-2.5 -0.6,-0.7 -1.7,-4 -1.6,-4.7 0.1,-0.7 1.4,-0.9 1.5,-1.4 0.1,-0.5 0.1,-0.5 0.1,-0.5 0,0 -3.6,-6 -3.6,-8.6 0,-2.7 -0.1,-6.1 -0.1,-6.1 0,0 -0.6,-0.3 -2,0 -1.4,0.2 -2.2,0.8 -2.2,0.8 z"
         id="path815" />
      <path
         style="opacity:0.3;fill:#262626"
         d="m 28.1,216.9 c 0.6,1.8 -6.7,11.8 7.1,13.5 20.6,2.7 21.6,-13.7 29.3,-18.2 13.9,-8.1 -3.1,-14.1 -22.5,-14.1 -16.3,0.1 -30.5,1.9 -29.4,10.1 0.7,6.1 14.6,5.6 15.5,8.7 z"
         id="path817" />
      <path
         style="fill:#762c07"
         d="m 34,200.2 c 0,0 -1.6,1.2 -5.5,1.1 -3.9,-0.1 -7.3,-0.8 -11.4,1.5 -4.8,2.7 -1.2,7 0.1,7.4 1.3,0.4 18.1,0.9 21.2,0.7 3.1,-0.2 2.1,-8.2 2.1,-8.2 z"
         id="path819" />
      <path
         style="fill:#262626"
         d="m 39.4,209.1 c -1.5,0.1 -9,0.6 -13.5,0.5 -5,-0.1 -6.4,-0.5 -7.8,-1 -1.7,-0.6 -3.2,-1.4 -3.3,-3.1 -0.5,2.2 0.9,4.1 2.5,4.6 1.5,0.5 3.3,0.9 8.6,1.1 4.2,0.1 11.3,-0.3 12.6,-0.4 0.8,-0.1 1.4,-0.7 1.7,-1.6 -0.4,0.3 -0.5,-0.1 -0.8,-0.1 z"
         id="path821" />
      <path
         style="fill:#762c07"
         d="m 39.7,211 c 0,0 -3.9,4.4 -6.6,7.6 -2.7,3.2 -3.8,5.6 -3.6,7.9 0.2,2.3 3.5,3.4 8,3.4 4.5,0 9.3,-2.8 11.5,-5.9 2.3,-3.1 5.6,-5.9 5.6,-7.4 0,-1.5 -0.1,-6.2 -0.1,-6.2 z"
         id="path823" />
      <path
         style="fill:#262626"
         d="m 54.6,210.4 h -0.5 c 0,1.5 0.1,3.3 0.1,4.1 0,1.5 -3.4,4.3 -5.6,7.4 -2.3,3.1 -7,5.9 -11.5,5.9 -3.5,0 -6.3,-0.6 -7.4,-2 0,0.2 0,0.4 0,0.6 0.1,2.3 3.5,3.4 8,3.4 4.6,0 9.3,-2.8 11.5,-5.9 2.3,-3.1 5.6,-5.9 5.6,-7.4 -0.1,-1.4 -0.2,-6.1 -0.2,-6.1 z"
         id="path825" />
      <path
         style="fill:#3399cc"
         d="m 19.7,114.3 c 0,0 -0.5,13 1.6,23.9 2.1,10.9 9.5,26.4 9.5,31.1 0,4.7 2.3,19 2.1,22.8 -0.1,3.8 -0.9,8.6 -0.9,8.6 0,0 2.7,5 6.2,6.7 3.5,1.7 7.2,-0.4 7.2,-0.4 L 39,116.5 Z"
         id="path827" />
      <path
         style="opacity:0.2"
         d="m 19.7,114.3 c 0,0 -0.5,13 1.6,23.9 2.1,10.9 9.5,26.4 9.5,31.1 0,4.7 2.3,19 2.1,22.8 -0.1,3.8 -0.9,8.6 -0.9,8.6 0,0 2.7,5 6.2,6.7 3.5,1.7 7.2,-0.4 7.2,-0.4 L 39,116.5 Z"
         id="path829" />
      <path
         style="fill:#3399cc"
         d="m 31.1,119.4 c 0,0 0.3,14.3 -0.3,25.6 -0.5,11.3 2.3,21.7 3.4,25.3 1.1,3.6 1.5,9.7 1.5,15.2 0,5.5 0.2,26.2 1,27 0.8,0.8 5.2,3.6 10.9,4 4.3,0.3 9,-2.4 9,-3.1 0,-0.7 1.5,-16.4 0.3,-29.1 -1.2,-12.7 -3.8,-19.3 -3.6,-21.3 0.1,-2 3.1,-29.1 2.8,-34.7 -0.3,-5.6 -2,-18.4 -2,-18.4 z"
         id="path831" />
      <path
         style="fill:#ffcc00"
         d="m 17.9,69.4 c 0,0 -2.2,7.4 -3.6,17.6 -1.5,10.7 -0.7,25.3 -0.7,25.3 0,0 2.1,-1.6 6.2,-1.6 4.1,0 -1.9,-41.3 -1.9,-41.3 z"
         id="path833" />
      <path
         style="opacity:0.2"
         d="m 17.9,69.4 c 0,0 -2.2,7.4 -3.6,17.6 -1.5,10.7 -0.7,25.3 -0.7,25.3 0,0 2.1,-1.6 6.2,-1.6 4.1,0 -1.9,-41.3 -1.9,-41.3 z"
         id="path835" />
      <path
         style="fill:#fbd7c7"
         d="m 51.5,127 c 0,0 -0.4,2.9 -2.3,5.1 -1.9,2.1 -3.5,5.8 -3.5,7.3 0,2.1 0,3.9 0.9,4 1.8,0.2 1.1,-1.3 1.7,-1.3 0.6,0 0.3,2.6 3,2.7 3.5,0.1 8.5,-2.3 8.5,-4.6 0,-1.2 -0.5,-4.4 -0.9,-6.2 -0.5,-1.9 -0.5,-4.5 -0.5,-4.5 z"
         id="path837" />
      <path
         style="fill:#ffcc00"
         d="m 38.8,44 c 9.5,2.5 20.1,4.6 23.7,12.3 3.1,6.6 2.9,8.7 2.7,14.9 -0.3,6.2 -0.8,18.5 -0.5,22.5 0.3,4 -1.1,20.8 -2.3,26.4 -1.2,5.6 -1.6,10.3 -2.5,10.6 -0.9,0.3 -10.2,-0.9 -9.5,-2.3 0.9,-2 1.2,-7.6 1.2,-7.6 0,0 -4.4,5.4 -14.2,4 -9.8,-1.3 -18.2,-6.1 -19.1,-8.6 -0.4,-1.2 -0.6,-19.8 0.3,-24.8 0.9,-5 -2,-15.7 -2.1,-20.4 -0.1,-4.7 2.9,-17.4 3.1,-19.7 0.1,-3.4 4.2,-11.2 19.2,-7.3 z"
         id="path839" />
      <path
         style="opacity:0.2"
         d="m 51.5,120.9 c 0,0 0.7,-5.2 0.7,-9.8 0,-4.6 0.1,-11.3 -0.4,-13.9 C 51.3,94.5 49.6,85 49.3,82.5 48.6,76.4 49,72.7 49.5,71.4 c -2.4,4.1 -1,19 -0.3,25.2 0.9,8.7 -0.3,25.8 -0.6,26.6 -0.3,0.7 2.9,-2.3 2.9,-2.3 z"
         id="path841" />
      <path
         style="fill:#fbd7c7"
         d="m 42.5,38.2 c 0,0 0,5.2 0.9,6.1 0.9,0.9 3,1.3 2.3,2.6 -0.7,1.3 -8.1,9.7 -13.5,9.2 -5.3,-0.5 -4,-9.4 -4,-9.4 z"
         id="path843" />
      <path
         style="fill:#fbd7c7"
         d="m 22.8,26.5 c -2.2,2.8 -1.3,11 -0.3,14.7 1,3.7 2.2,5.9 2.7,7.3 0.4,1.4 1.9,3.6 3.9,3.5 2,-0.1 8.2,-4.1 10.1,-7.1 C 41,41.9 43.6,39 44,37 44.4,35 44.6,34.1 42.9,33.7 41.2,33.3 37.6,25.9 33,25.6 28.4,25.3 24.1,24.8 22.8,26.5 Z"
         id="path845" />
      <path
         style="fill:#825012"
         d="m 21.5,28.4 c -0.4,1.6 0.8,3.3 5.5,3.3 4.7,0 7.6,-2.3 8.1,-0.8 0.5,1.5 1.8,5.7 2.2,6.6 0.4,0.9 1,2 1.3,1.6 0.3,-0.4 1.8,-3.9 2.9,-4.7 1.1,-0.8 1.7,-0.8 1.7,-0.8 0,0 1.6,-8.3 -2,-12.6 C 37.6,16.7 25,15.6 21.5,28.4 Z"
         id="path847" />
      <path
         style="fill:#825012"
         d="m 25,46.6 c 0,0 0.7,-0.7 1.6,-0.8 0.4,0 1.3,0.1 1.9,0.2 0.8,0.2 2.7,1.1 2.7,1.1 0,0 -2.8,0 -3.7,-0.1 C 26.4,46.9 25,46.6 25,46.6 Z"
         id="path849" />
      <path
         style="fill:#825012"
         d="m 26.8,49 1.2,0.1 c 0,0 -0.2,0.6 0.6,1.3 0.8,0.7 2.9,0.8 2.9,0.8 0,0 -1.7,1.3 -3.2,0.9 -1.5,-0.4 -2.3,-1.8 -2.3,-1.8 0,0 0.5,-0.1 0.6,-0.5 0.2,-0.4 0.2,-0.8 0.2,-0.8 z"
         id="path851" />
    </g>
    <g
       transform="matrix(0.26458333,0,0,0.26458333,95.060583,123.56398)"
       id="g910">
      <path
         style="opacity:0.2"
         d="m 103.2,117 c 12.7,8.2 34.5,15.5 14.8,27.5 -18.4,11.2 -39.2,-0.4 -49.5,-10.6 -20.7,-20.6 -56.1,-20.3 -31.1,-23.8 1.9,-0.3 15.8,0 29.6,2 14.3,2 32.4,2.4 36.2,4.9 z"
         id="path882" />
      <path
         style="fill:#825012"
         d="m 96.1,110.4 c 0,0 2,4.7 1.9,6.2 -0.1,1.5 -0.8,3.5 0.1,4.3 0.9,0.7 7.8,5.2 9.1,7.1 1.3,1.9 2,5.2 6.6,3 4.6,-2.2 3.1,-5.5 0.9,-6.4 -2.1,-0.9 -6.5,-1.7 -8.8,-3.9 -2.3,-2.2 -3.2,-2.9 -1.2,-6.3 2,-3.4 2.9,-6.1 2.9,-6.1 z"
         id="path884" />
      <path
         style="opacity:0.2"
         d="m 96.1,110.4 c 0,0 2,4.7 1.9,6.2 -0.1,1.5 -0.8,3.5 0.1,4.3 0.9,0.7 7.8,5.2 9.1,7.1 1.3,1.9 2,5.2 6.6,3 4.6,-2.2 3.1,-5.5 0.9,-6.4 -2.1,-0.9 -6.5,-1.7 -8.8,-3.9 -2.3,-2.2 -3.2,-2.9 -1.2,-6.3 2,-3.4 2.9,-6.1 2.9,-6.1 z"
         id="path886" />
      <path
         style="fill:#825012"
         d="m 86.8,47.8 c 0.8,-1.5 2.6,-3.6 5.5,-5 2.9,-1.4 5,-1.9 5,-1.9 0,0 1.7,-3.1 5.5,-1.8 3.8,1.3 7.5,8.5 8.4,11.6 0.9,3.1 2.2,8.7 1,9.4 -1.2,0.7 -3,-2.1 -3,-2.1 0,0 1,4.5 1.8,7.3 0.7,2.8 -0.1,7.7 0.7,9.3 0.7,1.6 4.2,7.5 3.8,13.7 -0.4,6.2 -2.8,12.2 -2.9,14.8 -0.1,2.6 3.4,16.8 4,17.9 0.6,1.1 0.2,4.4 1.2,6.4 1,2 8.7,3.9 6.2,7.8 -2.4,3.9 -9.3,2 -10.3,-0.2 -1,-2.2 0.1,-4.6 -1.1,-8.8 -1.2,-4.2 -6.7,-15.8 -6.7,-15.8 0,0 -2,0.6 -4.8,0.9 -2.9,0.4 -5.9,3.9 -4.9,9.7 1,5.8 2,8 2.6,9.4 0.6,1.4 0.2,4.6 1.1,6.4 0.9,1.9 7.2,4.2 4.8,7.3 -2.4,3.1 -7.5,3.2 -10.2,0.6 -2.7,-2.6 -0.4,-3.8 -2.2,-10.2 -1.9,-6.4 -4,-13.8 -4,-13.8 l -6.3,1.5 -4.4,9.3 c 0,0 3.8,2.8 5.7,3.9 1.9,1.1 5.7,0.2 7,1.9 1.3,1.7 1.8,5.5 -2.2,7 -4,1.5 -6.3,-3.4 -7.7,-4.5 -1.4,-1 -7,-3.3 -8.5,-5 -1.5,-1.7 -0.2,-5.8 -0.2,-5.8 0,0 -5.9,-0.6 -8.8,-4.4 -2.9,-3.8 -2.5,-4.6 -3.7,-5.5 -1.2,-0.9 -3.1,-1.7 -8.8,-1.1 -5.7,0.6 -12.7,-1.8 -15.7,-5.2 -3.1,-3.4 -3.7,-11.3 -2.9,-12 0.8,-0.7 2.2,4.5 3.8,5.7 1.6,1.2 5.3,4.2 9.7,3.8 4.4,-0.4 12.5,-3.6 12.5,-3.6 0,0 4.6,-12.8 10.8,-19.7 6.2,-7 14.6,-11.7 15.9,-16.8 1.1,-5.1 1,-19.9 2.3,-22.4 z"
         id="path888" />
      <g
         id="g892">
        <path
           style="opacity:0.2"
           d="m 84.6,108.1 c 0,0 -1.2,1.6 -4,1.6 -1.5,0 -3.7,-0.2 -5.3,-0.4 0.6,0.1 1.4,0.3 2.2,0.6 2.8,0.9 3.9,2.1 5.1,4.6 1.1,2.5 -0.8,7.7 -0.8,7.7 l 6.3,-1.5 c 0,0 -0.7,-2.1 -1,-3.2 -0.3,-1 -2.6,-6.6 -2.5,-9.4 z"
           id="path890" />
      </g>
      <path
         style="opacity:0.2"
         d="m 94.9,65.4 c -0.4,-1.5 -1.8,-5.1 -4,-7.5 -1.6,-1.8 -3,-5.8 -3.6,-8.3 l -1.1,0.3 c -0.6,3.7 -0.8,10.7 -1.3,15.8 0.9,0.7 4.2,1.9 5.3,2.5 4.7,2.6 5.5,0.5 4.7,-2.8 z"
         id="path894" />
      <path
         style="fill:#262626"
         d="m 93.7,52.8 c 0,0 -0.1,-2.2 0.8,-3.1 0.8,-0.9 2.5,-0.6 1.7,1.3 -0.8,2 -2.5,1.8 -2.5,1.8 z"
         id="path896" />
      <path
         style="fill:#262626"
         d="m 102.9,45.7 c 0,0 -0.2,-1.1 0.7,-1.5 0.9,-0.3 1.8,1.5 1.8,1.5 z"
         id="path898" />
      <path
         style="fill:#262626"
         d="m 111.1,53.4 c 0,0 -0.3,-0.6 -1,-0.8 -0.6,-0.2 -1.3,-0.1 -2.1,0.2 l -0.9,-1.8 -0.3,0.2 0.9,1.8 c -1.3,0.7 -1.9,1.5 -2.6,2.5 -0.4,0.6 -0.9,1.3 -1.6,1.9 -1.8,1.8 -2.8,2.1 -2.8,2.1 -0.1,0 -0.1,0.1 -0.1,0.2 0,0.1 0.1,0.1 0.2,0.1 0,0 0,0 0.1,0 0,0 1.1,-0.4 3,-2.2 0.7,-0.7 1.2,-1.4 1.6,-2 0.7,-1 1.3,-1.8 2.6,-2.5 0.8,-0.4 1.4,-0.5 1.9,-0.3 0.6,0.2 0.8,0.6 0.8,0.6 0,0.1 0.2,0.1 0.2,0.1 0.1,0.1 0.1,0 0.1,-0.1 z"
         id="path900" />
      <path
         style="fill:#825012"
         d="m 87.4,47.1 c -0.8,-0.5 -2.7,0.7 -4.1,3.4 -1.4,2.7 -3.4,7.5 -1.8,9.9 1.6,2.4 4.3,4.5 6.7,5.4 2.3,0.9 5,2.6 5.7,2.1 0.7,-0.5 -1.1,-5.7 -3,-8.4 -1.9,-2.7 -4,-5.8 -4,-5.8 0,0 2.5,-5.3 0.5,-6.6 z"
         id="path902" />
      <path
         style="opacity:0.2"
         d="m 111.1,50.6 c 0.7,1.7 0.5,3.5 -0.1,5.2 -0.6,1.6 -1.7,2.3 -1.7,2.3 v 0.1 c 0.3,0.5 1.8,2.7 2.9,2 1.2,-0.7 -0.1,-6.3 -1,-9.4 -0.9,-3.1 -4.6,-10.2 -8.4,-11.6 -3.5,-1.2 -5.2,1.3 -5.5,1.7 1.6,0 4.4,0.4 5.9,1.9 1.6,1.5 2.6,2.4 3.6,3.8 1,1.4 3.5,2.2 4.3,4 z"
         id="path904" />
      <path
         style="fill:#262626"
         d="m 102.6,48.5 c -0.7,1.6 1.8,4 4.3,2.9 2.5,-1.2 1.5,-4 0.7,-4.6 -0.8,-0.7 -4.2,-0.2 -5,1.7 z"
         id="path906" />
      <path
         style="fill:#262626"
         d="M 112.2,69.8 C 108,70.5 102.9,70.9 97.7,70.6 90,70.3 85.7,69 84,68 c -0.1,0.7 -0.2,1.4 -0.4,2 -0.2,0.6 -0.4,1.3 -0.8,1.9 4,2 10.5,2.6 14.7,2.7 1.1,0 2.2,0.1 3.3,0.1 3.7,0 7.7,-0.2 11.5,-0.9 -0.2,-1 -0.1,-2.5 -0.1,-4 z"
         id="path908" />
    </g>
    <g
       transform="matrix(0.26458333,0,0,0.26458333,143.26089,92.205329)"
       id="g1020">
      <path
         style="fill:#762c07"
         d="m 33.8,34.9 c -0.6,1.9 -0.5,9.7 -1.2,14 -0.8,5.2 -7.1,24 2.1,18.1 9.2,-5.9 7,-33.5 3.1,-33.7 -3.1,-0.3 -3.4,-0.3 -4,1.6 z"
         id="path994" />
      <path
         style="opacity:0.2"
         d="m 24.8,206.2 c -11.8,7.6 -12.4,14.4 0,21 13.5,7.2 22.4,3.3 32.9,-2.7 10.5,-6 11.8,-13.4 -3.7,-19.5 -12.5,-5 -20.4,-4.5 -29.2,1.2 z"
         id="path996" />
      <path
         style="fill:#fbd7c7"
         d="m 28.8,82.2 c 0,0 -3.2,10.8 -5.9,19.1 -2.7,8.3 -4.4,13.8 -5.3,15.9 -0.9,2.1 -1.3,5.7 -0.8,7.3 0.5,1.6 2.3,5 3,5.7 1.7,1.6 4.4,1.2 4.8,0.8 0.4,-0.5 0.4,-2.2 -0.3,-2.9 -0.7,-0.7 -2.6,-3 -1.4,-6 1.2,-2.9 1,-4.2 1,-6 0,-1.5 -0.5,-1.7 0.7,-4.1 1.2,-2.5 6.9,-14.5 7.5,-16.2 0.6,-1.7 -3.3,-13.6 -3.3,-13.6 z"
         id="path998" />
      <path
         style="fill:#fbd7c7"
         d="m 42.8,54.7 c 0,0 -9.1,-4 -12.3,0.3 -3.2,4.3 -1.7,11 -1.7,11 0,0 -5.4,6.1 -5.4,9.4 0,3.3 5.1,6.5 5.1,6.5 0,0 0.6,15.8 -0.3,22.3 -0.9,6.5 -3.8,23.3 -3.1,33.9 0.7,10.6 1.6,25 1.9,29.2 0.3,4.1 2.2,10 3,14.8 0.9,4.8 4.1,13.2 0.9,19.6 -3.2,6.4 -6.1,9.3 -7.4,10.5 -1.3,1.2 0.2,5.2 3,4.5 2.8,-0.7 7.2,-7.1 9.9,-8.1 2.7,-1.1 7.2,-4 6,-7.7 -1.2,-3.6 -1.7,-2.2 -2,-5.3 -0.3,-3.1 2.2,-16.7 1.3,-22.8 -0.9,-6.1 -3.2,-7.8 -3.6,-8.8 -0.4,-1 5.7,-29.5 5.7,-29.5 0,0 1.2,27.3 1.1,30.2 -0.1,2.9 2.1,17.7 2.7,24.6 0.7,7 1,18.8 -2,22.9 -2.9,4.1 -8,10.3 -6,11.7 2,1.4 8.3,2.7 9.8,-0.9 1.5,-3.6 5.3,-11.1 6.7,-13.1 1.4,-2 1.9,-3.1 1,-5 -0.9,-1.9 -1.5,-5 -0.5,-10.3 1,-5.3 4.1,-14.7 3.3,-19.7 -0.8,-5 -3.2,-8.1 -2.9,-11.7 0.3,-3.5 8.1,-24.8 6.6,-39.7 C 62,108.7 54.6,106 53.3,100 52,94 56.3,86.1 58.5,81.8 60.7,77.6 63.8,70.2 61.1,67.6 58.4,64.9 55.2,63.2 54,61.2 52.8,59.2 51.5,53 51.5,53 Z"
         id="path1000" />
      <path
         style="fill:#cc291f"
         d="m 25.4,210.3 c 0,0 -4.9,1.7 -5.9,3.9 -0.8,1.8 -0.5,3.9 1.2,5 1.8,1 5.2,1.3 8.2,-0.4 2.9,-1.7 6.8,-8.4 7.5,-8.7 0.7,-0.3 0.2,3.7 0.2,3.7 l 2.1,1.1 2.3,-0.9 c 0,0 -0.2,-4.5 0.7,-6 0.9,-1.5 2.6,-3.9 2,-6.9 -0.6,-3 -2.6,-3.3 -2.6,-3.3 0,0 0,3.5 -4,7.3 -3.8,3.6 -5.9,9.6 -9.2,9.3 -4.5,-0.7 -2.5,-4.1 -2.5,-4.1 z"
         id="path1002" />
      <path
         style="fill:#cc291f"
         d="m 42.2,217.1 c 0,0 -4.6,3.5 -4.9,5.7 -0.3,2.2 -0.2,3.7 2.9,4.7 3.1,1 7.1,-0.2 9,-1.8 1.9,-1.6 4.4,-5.8 4.4,-5.8 l 2,1.1 2.3,-1.1 c 0,0 -0.3,-2.7 0.4,-5.1 0.7,-2.4 1.4,-4.4 1.4,-7.4 0,-3 -2.8,-3.3 -2.8,-3.3 0,0 1.7,1.6 -0.8,5.1 -2.5,3.5 -4.4,11.3 -8.1,11.5 -6.9,0.5 -5.8,-3.6 -5.8,-3.6 z"
         id="path1004" />
      <path
         style="fill:#28896d"
         d="m 60.8,110.8 c -2.7,-4.3 -5.3,-6.4 -5.4,-6.8 0,0 -6.4,3.9 -16.4,3.1 -10,-0.8 -10.6,-3.1 -10.6,-3.1 -1.4,6.7 -4.5,17.6 -5.5,21.1 -1.9,6.8 -6.1,18 -5.6,19 2.1,4.2 12.6,3.2 17.4,7.6 4.8,4.4 17.8,3.7 24,1.6 6.2,-2.1 9.4,-5.8 9.2,-6.5 -4.8,-18.7 -1.8,-27.6 -7.1,-36 z"
         id="path1006" />
      <path
         style="fill:#e5e5e5"
         d="m 27.7,82.8 c 0.3,0.6 3.1,5.5 3,11.7 0,2.9 -1.7,6.6 -2.7,9.6 7.4,6.7 22,3.9 27.6,0.3 -4.5,-6.7 1.9,-20.2 3,-22.4 2.2,-4.2 5.3,-11.6 2.6,-14.2 -2.7,-2.7 -5.9,-4.4 -7.1,-6.4 -1.2,-2 -2.5,-8.2 -2.5,-8.2 l -8.9,1.6 c 0,0 -3.6,-1.6 -7,-1.7 -2.2,2.1 -4.9,9.8 -7.4,12.7 -2.5,2.8 -5.4,5.4 -5.4,9.6 0,3.2 4.3,6.5 4.8,7.4 z"
         id="path1008" />
      <path
         style="fill:#fbd7c7"
         d="m 37.9,53.9 c 0,0 -8.9,14.8 -2.4,16.5 6.3,1.7 16,-8.7 16,-8.7 L 43.7,53 Z"
         id="path1010" />
      <path
         style="fill:#fbd7c7"
         d="m 40.2,54.9 c 0,0 -4.3,0.7 -4.9,-0.9 -0.7,-1.7 -4.4,-15.5 2.4,-24.1 6.8,-8.6 20.5,-3.1 20.5,6 0,8.1 -3.2,10.5 -4.7,14.5 -0.9,2.5 -1.6,5.8 -0.1,8.4 1.5,2.7 2.7,4 2.7,4 0,0 -7.6,4.6 -13.3,3.2 -5.7,-1.4 -0.2,-4.2 -1,-6.6 -0.7,-2.1 -1.6,-4.5 -1.6,-4.5 z"
         id="path1012" />
      <path
         style="opacity:0.15"
         d="M 23,76.1 C 26.1,82 35.5,86.6 49.6,83.5 48.8,85.8 28.5,91 23,76.1 Z"
         id="path1014" />
      <path
         style="fill:#fbd7c7"
         d="m 51,74.8 c -1.1,-2.9 -0.7,-10.2 5.3,-10.5 6,-0.3 6.7,5.7 7.2,13.6 0.5,7.9 3.5,20.7 3.7,23.3 0.2,2.6 -1.5,9.7 -5.6,16 -4.1,6.3 -6.9,11.4 -7.1,12.3 -0.2,1 -1.4,4.9 -3.1,6.1 -0.7,0.5 -1.5,1.2 -1.9,2.5 -0.4,1.3 0.5,2.4 0.7,2.7 0.3,0.7 -0.2,1.5 -1.4,2.2 -1.3,0.8 -3.2,-0.5 -4.2,-1.3 -0.7,-0.5 -2.5,-2.1 -2,-4.3 0.4,-1.6 1.7,-6.6 3.7,-7.8 2,-1.2 3.9,-2.7 4.6,-4.1 0.7,-1.4 2.2,-11.9 4.8,-17.2 1.4,-2.9 3.1,-4.8 3.1,-5.9 C 58.7,101.5 52.1,77.7 51,74.8 Z"
         id="path1016" />
      <path
         style="fill:#762c07"
         d="m 33.8,34.9 c 0,0 3.5,-11.5 16.4,-9.1 8.1,1.5 10.4,10.5 9.6,16.7 -0.7,6.2 -3.3,9.9 -2.1,12.9 2.3,5.6 1,9.4 -1.6,12.7 C 51.8,73.6 43,76.3 44,65.2 44.7,56.6 38.9,52.8 40.9,43.7 42.1,38 39.8,35.5 37.3,36 36.4,34.1 35.4,33.4 33.8,34.9 Z"
         id="path1018" />
    </g>
  </g>
  <path
     style="fill:#000000;fill-opacity:1;fill-rule:nonzero;stroke:none;stroke-width:0.264583"
     id="path1"
     d="m 80.631013,17.037281 c 1.397611,0 2.795225,0 4.192839,0 1.150988,0.0058 2.301833,-0.01875 3.452548,-0.04038 0.622144,-0.01169 0.605605,-0.891539 -0.01654,-0.879844 v 0 c -1.145201,0.02153 -2.290535,0.04604 -3.436008,0.04023 -1.397614,0 -2.795228,0 -4.192839,0 -0.622255,0 -0.622255,0.88 0,0.88 z" />
  <path
     style="fill:#000000;fill-opacity:1;fill-rule:nonzero;stroke:none;stroke-width:0.264583"
     id="path2"
     d="m 85.090909,16.560888 c 0.39034,-0.368296 0.747771,-0.770445 1.092571,-1.181077 0.650507,-0.831295 1.088136,-1.797757 1.444651,-2.78432 0.208706,-0.654803 0.397838,-1.38112 0.160025,-2.058269 -0.0452,-0.128689 -0.118631,-0.245646 -0.177945,-0.368468 -0.482828,-0.6729435 -0.993452,-0.9421851 -1.761361,-1.1924971 -0.121475,-0.024352 -0.241032,-0.061975 -0.364429,-0.073057 -0.647673,-0.058165 -1.29627,0.1936702 -1.823855,0.5545775 -0.133458,0.091295 -0.253182,0.2012003 -0.379775,0.3018001 -0.666967,0.6023942 -0.967853,1.3169232 -1.190532,2.1650302 -0.162573,0.855259 0.07009,1.602134 0.409885,2.376776 0.269242,0.563223 0.619664,1.080433 0.974312,1.591963 0.196472,0.295918 0.428305,0.562517 0.668501,0.822845 0.08535,0.09902 0.173773,0.193223 0.250648,0.29903 0.374269,0.497113 1.077293,-0.03219 0.703024,-0.529298 v 0 c -0.09756,-0.126988 -0.199053,-0.248175 -0.30698,-0.366548 -0.212627,-0.23035 -0.419367,-0.464423 -0.592013,-0.727437 -0.322874,-0.465661 -0.643781,-0.9351 -0.892487,-1.446037 -0.252513,-0.56737 -0.470686,-1.170421 -0.362992,-1.800674 0.162099,-0.636579 0.394366,-1.247375 0.892135,-1.701518 0.09322,-0.07724 0.181329,-0.161093 0.279654,-0.231714 0.309218,-0.2220885 0.811879,-0.4676904 1.205082,-0.4444783 0.08809,0.0052 0.173741,0.031033 0.260609,0.046549 0.495848,0.156441 0.918189,0.3437043 1.250783,0.7625213 0.03414,0.05586 0.07753,0.107033 0.102415,0.167588 0.206645,0.502868 0.01249,1.065136 -0.13263,1.553095 -0.319469,0.890087 -0.710319,1.7641 -1.291302,2.517434 -0.306819,0.3672 -0.628057,0.721738 -0.967724,1.059019 -0.485899,0.388719 0.06383,1.075884 0.54973,0.687164 z" />
  <path
     style="fill:#000000;fill-opacity:1;fill-rule:nonzero;stroke:none;stroke-width:0.264583"
     id="path3"
     d="m 84.381635,16.583115 c 0.0011,0.476819 -0.0039,0.95365 0.0055,1.430395 0.02535,0.765714 0.208822,1.510636 0.420581,2.242835 0.24605,0.782299 0.581105,1.536747 0.973294,2.256674 0.101034,0.18546 0.210741,0.366061 0.316111,0.549091 0.785445,1.321075 1.721527,2.542239 2.681893,3.738925 0.833776,0.978003 1.699303,1.933519 2.614576,2.836542 0.18629,0.183796 0.377759,0.362265 0.566637,0.543396 1.106998,1.018657 2.239907,2.008778 3.361414,3.011435 0.45563,0.42005 0.91103,0.842962 1.32498,1.304996 0.0916,0.102227 0.33629,0.393999 0.429,0.503979 0.2263,0.284503 0.11579,0.144073 0.33168,0.421171 0.38249,0.490821 1.07661,-0.0501 0.69413,-0.540916 v 0 c -0.22671,-0.290862 -0.10913,-0.141619 -0.35303,-0.447501 -0.11568,-0.137181 -0.34384,-0.409601 -0.45775,-0.536419 -0.43246,-0.481496 -0.90675,-0.923475 -1.38249,-1.361352 -1.11392,-0.995871 -2.238999,-1.979462 -3.338996,-2.990684 -1.089972,-1.044244 -2.131515,-2.140426 -3.10388,-3.295492 -0.932463,-1.161508 -1.842238,-2.346152 -2.605921,-3.627834 -0.09817,-0.169778 -0.200564,-0.337183 -0.294515,-0.509334 -0.366083,-0.670798 -0.681189,-1.37303 -0.911977,-2.101858 -0.191481,-0.657845 -0.359965,-1.326891 -0.38591,-2.015077 -0.0095,-0.470929 -0.0039,-0.941966 -0.0053,-1.412972 0,-0.622254 -0.879998,-0.622254 -0.879998,0 z" />
  <path
     style="fill:#000000;fill-opacity:1;fill-rule:nonzero;stroke:none;stroke-width:0.264583"
     id="path4"
     d="m 112.47527,18.840833 c 0.26598,-0.464236 0.59929,-0.88199 0.92454,-1.304916 0.37559,-0.466009 0.76238,-0.922837 1.21244,-1.318746 0.16135,-0.140113 0.31042,-0.291409 0.45466,-0.448672 0.41822,-0.460751 -0.23338,-1.052204 -0.6516,-0.591452 v 0 c -0.12079,0.135053 -0.24997,0.260694 -0.38586,0.380771 -0.49033,0.435135 -0.91884,0.929531 -1.32722,1.441637 -0.35179,0.457444 -0.70992,0.911117 -0.99622,1.414012 -0.30219,0.543948 0.46707,0.971314 0.76926,0.427366 z" />
  <path
     style="fill:#000000;fill-opacity:1;fill-rule:nonzero;stroke:none;stroke-width:0.264583"
     id="path5"
     d="m 114.44456,15.780393 c 0.33066,0.510661 0.73453,0.968868 1.11687,1.440745 0.37231,0.458507 0.74055,0.919465 1.09353,1.393037 0.37191,0.498883 1.07743,-0.02708 0.70553,-0.525958 v 0 c -0.36014,-0.483011 -0.73549,-0.953454 -1.11535,-1.421095 -0.36128,-0.445838 -0.74364,-0.878208 -1.05816,-1.35918 -0.33407,-0.524972 -1.07649,-0.05252 -0.74242,0.472451 z" />
  <path
     style="fill:#000000;fill-opacity:1;fill-rule:nonzero;stroke:none;stroke-width:0.264583"
     id="path6"
     d="m 114.8065,14.978194 c -0.37439,-0.356366 -0.60109,-0.830377 -0.84269,-1.279399 -0.30197,-0.678691 -0.52507,-1.396032 -0.62885,-2.132033 -0.0381,-0.408056 -0.0333,-0.862154 0.24405,-1.194514 0.047,-0.0563 0.10489,-0.102495 0.15734,-0.153742 0.37239,-0.2994925 0.81813,-0.4604186 1.29906,-0.4325114 0.0965,0.0056 0.19137,0.027921 0.28706,0.041882 0.56528,0.116919 0.87157,0.2548744 1.19244,0.7352114 0.28908,0.481655 0.21378,0.708954 0.0625,1.222386 -0.22482,0.624943 -0.51532,1.220852 -0.84432,1.796713 -0.28409,0.494164 -0.61291,0.959551 -0.91899,1.439587 -0.11435,0.17807 -0.2038,0.368722 -0.28942,0.561545 -0.24993,0.569855 0.55597,0.923309 0.8059,0.353454 v 0 c 0.0657,-0.152363 0.13652,-0.301906 0.2258,-0.44233 0.31316,-0.492518 0.65123,-0.969128 0.94124,-1.476489 0.36252,-0.637377 0.68453,-1.296727 0.92586,-1.990467 0.22116,-0.791009 0.25744,-1.252522 -0.18888,-1.97078 -0.0643,-0.0886 -0.122,-0.1824014 -0.1929,-0.265815 -0.41225,-0.4849662 -0.99527,-0.7283212 -1.61035,-0.8362513 -0.14423,-0.01596 -0.28764,-0.043776 -0.43269,-0.047879 -0.71295,-0.020167 -1.37041,0.2447909 -1.90324,0.708732 -0.23647,0.2632909 -0.30922,0.3039229 -0.45818,0.6253383 -0.21073,0.454669 -0.22461,0.964346 -0.17302,1.453375 0.12601,0.836221 0.36803,1.653737 0.72468,2.421653 0.28986,0.538375 0.57258,1.096414 1.02889,1.516433 0.46252,0.416266 1.05121,-0.237833 0.58869,-0.654099 z" />
  <path
     style="fill:#000000;fill-opacity:1;fill-rule:nonzero;stroke:none;stroke-width:0.264583"
     id="path7"
     d="m 114.32275,16.20564 c 0,0.361558 0,0.723117 0,1.084676 0.0161,0.541424 -0.0168,1.079974 -0.0744,1.617848 -0.0966,0.639005 -0.28084,1.256875 -0.50751,1.860475 -0.3161,0.767146 -0.73947,1.482578 -1.16378,2.193314 -0.47661,0.766178 -0.98122,1.512701 -1.51489,2.240008 -0.38593,0.547055 -0.80839,1.066222 -1.23448,1.582016 -0.42148,0.505421 -0.85515,0.998186 -1.31258,1.471272 -0.42329,0.434363 -0.88552,0.828569 -1.33292,1.237609 -0.45963,0.415745 -0.91596,0.835208 -1.36927,1.257853 -0.45056,0.412369 -0.92011,0.803355 -1.38255,1.202225 -0.41607,0.377018 -0.85869,0.723074 -1.2817,1.09176 -0.31979,0.303472 -0.64207,0.604899 -0.95093,0.919536 -0.20714,0.197345 -0.37913,0.426693 -0.55758,0.649414 -0.38908,0.485609 0.29768,1.035852 0.68676,0.550244 v 0 c 0.1605,-0.200322 0.31321,-0.407787 0.50021,-0.584621 0.29111,-0.299585 0.59949,-0.582311 0.90049,-0.871847 0.42069,-0.368483 0.86366,-0.711412 1.27751,-1.088123 0.47103,-0.406289 0.94933,-0.804516 1.4079,-1.224954 0.45121,-0.420704 0.90544,-0.83823 1.36297,-1.25203 0.46072,-0.421275 0.93664,-0.827341 1.37183,-1.275456 0.47318,-0.489648 0.92224,-0.999429 1.35831,-1.522431 0.43682,-0.528788 0.8696,-1.061294 1.26554,-1.621899 0.55007,-0.749772 1.07018,-1.519458 1.561,-2.309545 0.45126,-0.756118 0.89988,-1.518215 1.23234,-2.335927 0.25112,-0.673183 0.45579,-1.362426 0.55836,-2.07543 0.0607,-0.568909 0.0955,-1.138724 0.0794,-1.711311 0,-0.361559 0,-0.723118 0,-1.084676 0,-0.622254 -0.88,-0.622254 -0.88,0 z" />
  <path
     style="fill:#ff4400;fill-opacity:1;fill-rule:nonzero;stroke:none;stroke-width:0.264583"
     id="path9"
     d="m 101.58859,34.680742 c -0.11012,0.167241 -0.21398,0.338884 -0.31716,0.510577 -0.12686,0.222388 -0.26096,0.44056 -0.384,0.665102 -0.13046,0.239244 -0.24287,0.487534 -0.34978,0.737986 -0.0999,0.254228 -0.20992,0.504259 -0.31089,0.758084 -0.0233,0.0612 -0.0461,0.122637 -0.07,0.183611 -0.0593,0.15127 -0.0764,0.181985 -0.13353,0.33569 -0.0595,0.160102 -0.110629,0.323223 -0.164009,0.485412 -0.0946,0.270603 -0.17695,0.544394 -0.24224,0.823518 -0.0598,0.243409 -0.0939,0.491607 -0.11777,0.740762 -0.0343,0.256281 -0.0543,0.513983 -0.0692,0.772012 -0.008,0.18991 -0.0136,0.379487 -0.0317,0.568743 -0.0589,0.619464 0.817199,0.702707 0.876059,0.08324 v 0 c 0.0189,-0.200207 0.0264,-0.400653 0.0342,-0.601554 0.0141,-0.247105 0.0339,-0.493768 0.0667,-0.739195 0.0197,-0.210058 0.048,-0.419309 0.0988,-0.624425 0.0588,-0.253812 0.13522,-0.50202 0.22107,-0.747987 0.0484,-0.146926 0.094,-0.295178 0.14776,-0.440241 0.0476,-0.128444 0.0856,-0.213682 0.13628,-0.342834 0.0224,-0.05704 0.0436,-0.114546 0.0654,-0.171817 0.0981,-0.247116 0.20564,-0.490249 0.30254,-0.737807 0.0957,-0.224605 0.19608,-0.447371 0.31293,-0.661921 0.11615,-0.214389 0.24611,-0.420944 0.36582,-0.633352 0.10037,-0.167283 0.20111,-0.334724 0.30897,-0.497207 0.32979,-0.527672 -0.41645,-0.994069 -0.74624,-0.4664 z" />
  <path
     style="fill:#ff4400;fill-opacity:1;fill-rule:nonzero;stroke:none;stroke-width:0.264583"
     id="path10"
     d="m 97.512851,35.602061 c 0.0805,0.204287 0.18497,0.398349 0.27883,0.596768 0.0955,0.207007 0.19245,0.413535 0.2933,0.617987 0.0831,0.15413 0.15533,0.312933 0.21896,0.475938 0.0734,0.196223 0.1297,0.397909 0.18893,0.598654 0.0686,0.222895 0.1314,0.447461 0.19571,0.671602 0.0625,0.217258 0.12107,0.435658 0.17812,0.6544 0.0468,0.182157 0.0876,0.365249 0.12355,0.54979 0.0268,0.162817 0.0614,0.324141 0.094,0.485871 0.0275,0.135189 0.0521,0.270875 0.0705,0.407606 0.025,0.142328 0.0565,0.283366 0.0835,0.425294 0.0195,0.120735 0.0536,0.237834 0.0699,0.359145 0.014,0.11566 0.0415,0.232011 0.0464,0.348359 0.008,0.105873 0.0204,0.211333 0.0269,0.317352 0.0129,0.111006 0.0178,0.219773 0.0328,0.330454 0.009,0.08359 0.0122,0.167661 0.0148,0.251648 -0.004,0.10238 -0.0188,0.20385 -0.0289,0.305715 -0.0127,0.129786 -0.0183,0.260101 -0.0227,0.390385 -0.002,0.07012 -0.003,0.140277 -0.004,0.210426 -0.008,0.622204 0.872049,0.633349 0.879929,0.01114 v 0 c 8e-4,-0.06407 0.002,-0.128145 0.004,-0.192196 0.004,-0.111082 0.008,-0.22221 0.0189,-0.332882 0.0138,-0.139933 0.0352,-0.279493 0.0328,-0.420519 -0.004,-0.114956 5.7e-4,-0.220466 7.9e-4,-0.335508 -0.002,-0.116381 -0.002,-0.166806 -0.0125,-0.27334 -0.005,-0.138112 -0.0197,-0.212604 -0.0301,-0.312498 -0.006,-0.14465 -0.0192,-0.227287 -0.0417,-0.424725 -0.0177,-0.135925 -0.0856,-0.255362 -0.12248,-0.398184 -0.0333,-0.124103 -0.0508,-0.251933 -0.0758,-0.377989 -0.0212,-0.155564 -0.0485,-0.31011 -0.08,-0.463928 -0.0323,-0.159726 -0.0666,-0.318963 -0.0928,-0.479806 -0.0395,-0.202753 -0.0847,-0.403878 -0.1359,-0.604038 -0.059,-0.225499 -0.11917,-0.450755 -0.1837,-0.674741 -0.065,-0.226309 -0.12839,-0.453062 -0.19761,-0.678127 -0.0665,-0.22493 -0.13015,-0.450823 -0.21351,-0.670359 -0.0733,-0.186454 -0.15507,-0.368945 -0.24979,-0.545589 -0.0994,-0.199456 -0.17627,-0.443394 -0.27007,-0.645512 -0.0748,-0.15758 -0.29655,-0.657318 -0.41191,-0.768134 -0.41446,-0.620816 -0.96911,-0.0189 -0.67869,0.589538 z"
     sodipodi:nodetypes="cccccccccccccccccccsscscccccccccccccccccc" />
  <path
     style="fill:#000000;fill-opacity:1;fill-rule:nonzero;stroke:none;stroke-width:0.264583"
     id="path11"
     d="m 99.383801,43.94055 c 0,0.422018 0,0.844039 0,1.266058 0,0.540795 0,1.081593 0,1.622388 0,0.643355 0,1.286711 0,1.930066 0,0.598014 0,1.196025 0,1.794039 -0.0145,0.593024 0.0124,1.184418 0.0455,1.776238 0.0324,0.570691 0.0521,1.141974 0.0662,1.713376 0.0237,0.421597 0.007,0.840766 -0.0266,1.260964 -0.0199,0.331097 -0.0616,0.66012 -0.0935,0.990124 -0.0275,0.30508 -0.0383,0.611235 -0.0462,0.917329 -0.028,0.25396 -0.0662,0.506608 -0.10558,0.759002 -0.0318,0.240004 -0.0764,0.477904 -0.1084,0.71787 -0.022,0.274198 -0.0902,0.541703 -0.14058,0.811501 -0.0665,0.270256 -0.13654,0.539684 -0.22515,0.803614 -0.0832,0.248756 -0.1897,0.487749 -0.30171,0.724529 -0.0871,0.170876 -0.21422,0.314024 -0.3548,0.44268 -0.15805,0.144018 -0.32732,0.275352 -0.50261,0.397597 -0.15552,0.100322 -0.3155,0.193477 -0.48346,0.271627 -0.1474,0.06412 -0.3052,0.08548 -0.46336,0.103132 -0.18275,0.01958 -0.36538,0.02574 -0.54867,0.01532 -0.0846,-0.0154 -0.17177,-0.01995 -0.25594,-0.038 -0.0435,-0.0093 -0.10559,-0.04701 -0.14269,-0.0629 -0.19857,-0.06819 -0.34277,-0.219713 -0.49538,-0.357082 -0.2471,-0.24275 -0.40713,-0.545306 -0.54946,-0.856559 -0.182,-0.37723 -0.290983,-0.774695 -0.35407,-1.186794 -0.03954,-0.386969 0.03305,-0.775425 0.1733,-1.135687 0.17967,-0.370173 0.41026,-0.713465 0.68192,-1.021861 0.18259,-0.214275 0.39265,-0.400883 0.62427,-0.560083 0.0877,-0.05245 0.17391,-0.10705 0.26197,-0.158835 0.5359,-0.31624 0.0887,-1.074123 -0.44723,-0.757883 v 0 c -0.10708,0.06336 -0.21274,0.128882 -0.31818,0.194951 -0.28814,0.202993 -0.55508,0.4333 -0.78361,0.702955 -0.338239,0.389824 -0.630315,0.819941 -0.843072,1.291667 -0.02966,0.08109 -0.06318,0.160864 -0.08898,0.243261 -0.134583,0.429794 -0.177824,0.890807 -0.129815,1.337529 0.07828,0.491805 0.207518,0.968375 0.424304,1.419148 0.19439,0.419018 0.420976,0.821577 0.760333,1.142622 0.22392,0.201067 0.44914,0.408019 0.73759,0.511731 0.22679,0.09695 0.4493,0.155495 0.69645,0.170489 0.2327,0.01246 0.46488,0.0057 0.69671,-0.01969 0.25363,-0.02942 0.50505,-0.07432 0.73909,-0.181586 0.21297,-0.101417 0.41834,-0.217855 0.61498,-0.348229 0.20713,-0.147095 0.40978,-0.301088 0.59642,-0.473887 0.21895,-0.207193 0.41662,-0.436121 0.54948,-0.709366 0.1272,-0.268915 0.24672,-0.541155 0.34139,-0.823524 0.0996,-0.302445 0.18308,-0.6097 0.25512,-0.919879 0.0529,-0.284832 0.12434,-0.567233 0.14778,-0.856676 0.0308,-0.233405 0.075,-0.464672 0.105549,-0.698148 0.0452,-0.289687 0.0906,-0.579771 0.1158,-0.872004 0.007,-0.285477 0.0171,-0.571018 0.0424,-0.855575 0.0322,-0.335073 0.0746,-0.669144 0.0948,-1.005316 0.0355,-0.450382 0.0532,-0.900094 0.0291,-1.351886 -0.0144,-0.580514 -0.0344,-1.160909 -0.0673,-1.740701 -0.0322,-0.57549 -0.0588,-1.150448 -0.0441,-1.727134 0,-0.598014 0,-1.196025 0,-1.794039 0,-0.643356 0,-1.286711 0,-1.930067 0,-0.540795 0,-1.081593 0,-1.622388 0,-0.422018 0,-0.844039 0,-1.266057 0,-0.622255 -0.879999,-0.622255 -0.879999,0 z" />
</svg>
