<?xml version="1.0" encoding="UTF-8" standalone="no"?>
<svg
   id="svg8"
   version="1.1"
   viewBox="0 0 147.31245 73.169365"
   height="73.169365mm"
   width="147.31245mm"
   sodipodi:docname="17 mije li lukin e soweli. meli li lukin e soweli ante..svg"
   inkscape:version="1.3 (0e150ed6c4, 2023-07-21)"
   xmlns:inkscape="http://www.inkscape.org/namespaces/inkscape"
   xmlns:sodipodi="http://sodipodi.sourceforge.net/DTD/sodipodi-0.dtd"
   xmlns="http://www.w3.org/2000/svg"
   xmlns:svg="http://www.w3.org/2000/svg"
   xmlns:rdf="http://www.w3.org/1999/02/22-rdf-syntax-ns#"
   xmlns:cc="http://creativecommons.org/ns#"
   xmlns:dc="http://purl.org/dc/elements/1.1/">
  <sodipodi:namedview
     id="namedview1"
     pagecolor="#ffffff"
     bordercolor="#000000"
     borderopacity="0.25"
     inkscape:showpageshadow="2"
     inkscape:pageopacity="0.0"
     inkscape:pagecheckerboard="0"
     inkscape:deskcolor="#d1d1d1"
     inkscape:document-units="mm"
     inkscape:zoom="1.5133126"
     inkscape:cx="360.46748"
     inkscape:cy="175.44293"
     inkscape:window-width="1920"
     inkscape:window-height="1051"
     inkscape:window-x="-9"
     inkscape:window-y="-9"
     inkscape:window-maximized="1"
     inkscape:current-layer="svg8" />
  <defs
     id="defs2" />
  <metadata
     id="metadata5">
    <rdf:RDF>
      <cc:Work
         rdf:about="">
        <dc:format>image/svg+xml</dc:format>
        <dc:type
           rdf:resource="http://purl.org/dc/dcmitype/StillImage" />
        <dc:title />
      </cc:Work>
    </rdf:RDF>
  </metadata>
  <g
     transform="translate(-47.526506,-92.622932)"
     id="layer1">
    <g
       transform="matrix(0.26458333,0,0,0.26458333,75.433037,87.844366)"
       id="g853">
      <path
         style="fill:#fbd7c7"
         d="m 13.4,105 c 0,0 1,9.1 1.3,12.3 0.3,3.2 1.3,5.5 2.1,7.3 0.8,1.8 4.5,6.2 5,5.9 0.5,-0.3 -0.3,-2.1 -0.3,-2.5 0,-0.4 0.4,-1.7 -0.2,-2.5 -0.6,-0.7 -1.7,-4 -1.6,-4.7 0.1,-0.7 1.4,-0.9 1.5,-1.4 0.1,-0.5 0.1,-0.5 0.1,-0.5 0,0 -3.6,-6 -3.6,-8.6 0,-2.7 -0.1,-6.1 -0.1,-6.1 0,0 -0.6,-0.3 -2,0 -1.4,0.2 -2.2,0.8 -2.2,0.8 z"
         id="path815" />
      <path
         style="opacity:0.3;fill:#262626"
         d="m 28.1,216.9 c 0.6,1.8 -6.7,11.8 7.1,13.5 20.6,2.7 21.6,-13.7 29.3,-18.2 13.9,-8.1 -3.1,-14.1 -22.5,-14.1 -16.3,0.1 -30.5,1.9 -29.4,10.1 0.7,6.1 14.6,5.6 15.5,8.7 z"
         id="path817" />
      <path
         style="fill:#762c07"
         d="m 34,200.2 c 0,0 -1.6,1.2 -5.5,1.1 -3.9,-0.1 -7.3,-0.8 -11.4,1.5 -4.8,2.7 -1.2,7 0.1,7.4 1.3,0.4 18.1,0.9 21.2,0.7 3.1,-0.2 2.1,-8.2 2.1,-8.2 z"
         id="path819" />
      <path
         style="fill:#262626"
         d="m 39.4,209.1 c -1.5,0.1 -9,0.6 -13.5,0.5 -5,-0.1 -6.4,-0.5 -7.8,-1 -1.7,-0.6 -3.2,-1.4 -3.3,-3.1 -0.5,2.2 0.9,4.1 2.5,4.6 1.5,0.5 3.3,0.9 8.6,1.1 4.2,0.1 11.3,-0.3 12.6,-0.4 0.8,-0.1 1.4,-0.7 1.7,-1.6 -0.4,0.3 -0.5,-0.1 -0.8,-0.1 z"
         id="path821" />
      <path
         style="fill:#762c07"
         d="m 39.7,211 c 0,0 -3.9,4.4 -6.6,7.6 -2.7,3.2 -3.8,5.6 -3.6,7.9 0.2,2.3 3.5,3.4 8,3.4 4.5,0 9.3,-2.8 11.5,-5.9 2.3,-3.1 5.6,-5.9 5.6,-7.4 0,-1.5 -0.1,-6.2 -0.1,-6.2 z"
         id="path823" />
      <path
         style="fill:#262626"
         d="m 54.6,210.4 h -0.5 c 0,1.5 0.1,3.3 0.1,4.1 0,1.5 -3.4,4.3 -5.6,7.4 -2.3,3.1 -7,5.9 -11.5,5.9 -3.5,0 -6.3,-0.6 -7.4,-2 0,0.2 0,0.4 0,0.6 0.1,2.3 3.5,3.4 8,3.4 4.6,0 9.3,-2.8 11.5,-5.9 2.3,-3.1 5.6,-5.9 5.6,-7.4 -0.1,-1.4 -0.2,-6.1 -0.2,-6.1 z"
         id="path825" />
      <path
         style="fill:#3399cc"
         d="m 19.7,114.3 c 0,0 -0.5,13 1.6,23.9 2.1,10.9 9.5,26.4 9.5,31.1 0,4.7 2.3,19 2.1,22.8 -0.1,3.8 -0.9,8.6 -0.9,8.6 0,0 2.7,5 6.2,6.7 3.5,1.7 7.2,-0.4 7.2,-0.4 L 39,116.5 Z"
         id="path827" />
      <path
         style="opacity:0.2"
         d="m 19.7,114.3 c 0,0 -0.5,13 1.6,23.9 2.1,10.9 9.5,26.4 9.5,31.1 0,4.7 2.3,19 2.1,22.8 -0.1,3.8 -0.9,8.6 -0.9,8.6 0,0 2.7,5 6.2,6.7 3.5,1.7 7.2,-0.4 7.2,-0.4 L 39,116.5 Z"
         id="path829" />
      <path
         style="fill:#3399cc"
         d="m 31.1,119.4 c 0,0 0.3,14.3 -0.3,25.6 -0.5,11.3 2.3,21.7 3.4,25.3 1.1,3.6 1.5,9.7 1.5,15.2 0,5.5 0.2,26.2 1,27 0.8,0.8 5.2,3.6 10.9,4 4.3,0.3 9,-2.4 9,-3.1 0,-0.7 1.5,-16.4 0.3,-29.1 -1.2,-12.7 -3.8,-19.3 -3.6,-21.3 0.1,-2 3.1,-29.1 2.8,-34.7 -0.3,-5.6 -2,-18.4 -2,-18.4 z"
         id="path831" />
      <path
         style="fill:#ffcc00"
         d="m 17.9,69.4 c 0,0 -2.2,7.4 -3.6,17.6 -1.5,10.7 -0.7,25.3 -0.7,25.3 0,0 2.1,-1.6 6.2,-1.6 4.1,0 -1.9,-41.3 -1.9,-41.3 z"
         id="path833" />
      <path
         style="opacity:0.2"
         d="m 17.9,69.4 c 0,0 -2.2,7.4 -3.6,17.6 -1.5,10.7 -0.7,25.3 -0.7,25.3 0,0 2.1,-1.6 6.2,-1.6 4.1,0 -1.9,-41.3 -1.9,-41.3 z"
         id="path835" />
      <path
         style="fill:#fbd7c7"
         d="m 51.5,127 c 0,0 -0.4,2.9 -2.3,5.1 -1.9,2.1 -3.5,5.8 -3.5,7.3 0,2.1 0,3.9 0.9,4 1.8,0.2 1.1,-1.3 1.7,-1.3 0.6,0 0.3,2.6 3,2.7 3.5,0.1 8.5,-2.3 8.5,-4.6 0,-1.2 -0.5,-4.4 -0.9,-6.2 -0.5,-1.9 -0.5,-4.5 -0.5,-4.5 z"
         id="path837" />
      <path
         style="fill:#ffcc00"
         d="m 38.8,44 c 9.5,2.5 20.1,4.6 23.7,12.3 3.1,6.6 2.9,8.7 2.7,14.9 -0.3,6.2 -0.8,18.5 -0.5,22.5 0.3,4 -1.1,20.8 -2.3,26.4 -1.2,5.6 -1.6,10.3 -2.5,10.6 -0.9,0.3 -10.2,-0.9 -9.5,-2.3 0.9,-2 1.2,-7.6 1.2,-7.6 0,0 -4.4,5.4 -14.2,4 -9.8,-1.3 -18.2,-6.1 -19.1,-8.6 -0.4,-1.2 -0.6,-19.8 0.3,-24.8 0.9,-5 -2,-15.7 -2.1,-20.4 -0.1,-4.7 2.9,-17.4 3.1,-19.7 0.1,-3.4 4.2,-11.2 19.2,-7.3 z"
         id="path839" />
      <path
         style="opacity:0.2"
         d="m 51.5,120.9 c 0,0 0.7,-5.2 0.7,-9.8 0,-4.6 0.1,-11.3 -0.4,-13.9 C 51.3,94.5 49.6,85 49.3,82.5 48.6,76.4 49,72.7 49.5,71.4 c -2.4,4.1 -1,19 -0.3,25.2 0.9,8.7 -0.3,25.8 -0.6,26.6 -0.3,0.7 2.9,-2.3 2.9,-2.3 z"
         id="path841" />
      <path
         style="fill:#fbd7c7"
         d="m 42.5,38.2 c 0,0 0,5.2 0.9,6.1 0.9,0.9 3,1.3 2.3,2.6 -0.7,1.3 -8.1,9.7 -13.5,9.2 -5.3,-0.5 -4,-9.4 -4,-9.4 z"
         id="path843" />
      <path
         style="fill:#fbd7c7"
         d="m 22.8,26.5 c -2.2,2.8 -1.3,11 -0.3,14.7 1,3.7 2.2,5.9 2.7,7.3 0.4,1.4 1.9,3.6 3.9,3.5 2,-0.1 8.2,-4.1 10.1,-7.1 C 41,41.9 43.6,39 44,37 44.4,35 44.6,34.1 42.9,33.7 41.2,33.3 37.6,25.9 33,25.6 28.4,25.3 24.1,24.8 22.8,26.5 Z"
         id="path845" />
      <path
         style="fill:#825012"
         d="m 21.5,28.4 c -0.4,1.6 0.8,3.3 5.5,3.3 4.7,0 7.6,-2.3 8.1,-0.8 0.5,1.5 1.8,5.7 2.2,6.6 0.4,0.9 1,2 1.3,1.6 0.3,-0.4 1.8,-3.9 2.9,-4.7 1.1,-0.8 1.7,-0.8 1.7,-0.8 0,0 1.6,-8.3 -2,-12.6 C 37.6,16.7 25,15.6 21.5,28.4 Z"
         id="path847" />
      <path
         style="fill:#825012"
         d="m 25,46.6 c 0,0 0.7,-0.7 1.6,-0.8 0.4,0 1.3,0.1 1.9,0.2 0.8,0.2 2.7,1.1 2.7,1.1 0,0 -2.8,0 -3.7,-0.1 C 26.4,46.9 25,46.6 25,46.6 Z"
         id="path849" />
      <path
         style="fill:#825012"
         d="m 26.8,49 1.2,0.1 c 0,0 -0.2,0.6 0.6,1.3 0.8,0.7 2.9,0.8 2.9,0.8 0,0 -1.7,1.3 -3.2,0.9 -1.5,-0.4 -2.3,-1.8 -2.3,-1.8 0,0 0.5,-0.1 0.6,-0.5 0.2,-0.4 0.2,-0.8 0.2,-0.8 z"
         id="path851" />
    </g>
    <g
       transform="matrix(0.26458333,0,0,0.26458333,39.90731,126.34774)"
       id="g910">
      <path
         style="opacity:0.2"
         d="m 103.2,117 c 12.7,8.2 34.5,15.5 14.8,27.5 -18.4,11.2 -39.2,-0.4 -49.5,-10.6 -20.7,-20.6 -56.1,-20.3 -31.1,-23.8 1.9,-0.3 15.8,0 29.6,2 14.3,2 32.4,2.4 36.2,4.9 z"
         id="path882" />
      <path
         style="fill:#825012"
         d="m 96.1,110.4 c 0,0 2,4.7 1.9,6.2 -0.1,1.5 -0.8,3.5 0.1,4.3 0.9,0.7 7.8,5.2 9.1,7.1 1.3,1.9 2,5.2 6.6,3 4.6,-2.2 3.1,-5.5 0.9,-6.4 -2.1,-0.9 -6.5,-1.7 -8.8,-3.9 -2.3,-2.2 -3.2,-2.9 -1.2,-6.3 2,-3.4 2.9,-6.1 2.9,-6.1 z"
         id="path884" />
      <path
         style="opacity:0.2"
         d="m 96.1,110.4 c 0,0 2,4.7 1.9,6.2 -0.1,1.5 -0.8,3.5 0.1,4.3 0.9,0.7 7.8,5.2 9.1,7.1 1.3,1.9 2,5.2 6.6,3 4.6,-2.2 3.1,-5.5 0.9,-6.4 -2.1,-0.9 -6.5,-1.7 -8.8,-3.9 -2.3,-2.2 -3.2,-2.9 -1.2,-6.3 2,-3.4 2.9,-6.1 2.9,-6.1 z"
         id="path886" />
      <path
         style="fill:#825012"
         d="m 86.8,47.8 c 0.8,-1.5 2.6,-3.6 5.5,-5 2.9,-1.4 5,-1.9 5,-1.9 0,0 1.7,-3.1 5.5,-1.8 3.8,1.3 7.5,8.5 8.4,11.6 0.9,3.1 2.2,8.7 1,9.4 -1.2,0.7 -3,-2.1 -3,-2.1 0,0 1,4.5 1.8,7.3 0.7,2.8 -0.1,7.7 0.7,9.3 0.7,1.6 4.2,7.5 3.8,13.7 -0.4,6.2 -2.8,12.2 -2.9,14.8 -0.1,2.6 3.4,16.8 4,17.9 0.6,1.1 0.2,4.4 1.2,6.4 1,2 8.7,3.9 6.2,7.8 -2.4,3.9 -9.3,2 -10.3,-0.2 -1,-2.2 0.1,-4.6 -1.1,-8.8 -1.2,-4.2 -6.7,-15.8 -6.7,-15.8 0,0 -2,0.6 -4.8,0.9 -2.9,0.4 -5.9,3.9 -4.9,9.7 1,5.8 2,8 2.6,9.4 0.6,1.4 0.2,4.6 1.1,6.4 0.9,1.9 7.2,4.2 4.8,7.3 -2.4,3.1 -7.5,3.2 -10.2,0.6 -2.7,-2.6 -0.4,-3.8 -2.2,-10.2 -1.9,-6.4 -4,-13.8 -4,-13.8 l -6.3,1.5 -4.4,9.3 c 0,0 3.8,2.8 5.7,3.9 1.9,1.1 5.7,0.2 7,1.9 1.3,1.7 1.8,5.5 -2.2,7 -4,1.5 -6.3,-3.4 -7.7,-4.5 -1.4,-1 -7,-3.3 -8.5,-5 -1.5,-1.7 -0.2,-5.8 -0.2,-5.8 0,0 -5.9,-0.6 -8.8,-4.4 -2.9,-3.8 -2.5,-4.6 -3.7,-5.5 -1.2,-0.9 -3.1,-1.7 -8.8,-1.1 -5.7,0.6 -12.7,-1.8 -15.7,-5.2 -3.1,-3.4 -3.7,-11.3 -2.9,-12 0.8,-0.7 2.2,4.5 3.8,5.7 1.6,1.2 5.3,4.2 9.7,3.8 4.4,-0.4 12.5,-3.6 12.5,-3.6 0,0 4.6,-12.8 10.8,-19.7 6.2,-7 14.6,-11.7 15.9,-16.8 1.1,-5.1 1,-19.9 2.3,-22.4 z"
         id="path888" />
      <g
         id="g892">
        <path
           style="opacity:0.2"
           d="m 84.6,108.1 c 0,0 -1.2,1.6 -4,1.6 -1.5,0 -3.7,-0.2 -5.3,-0.4 0.6,0.1 1.4,0.3 2.2,0.6 2.8,0.9 3.9,2.1 5.1,4.6 1.1,2.5 -0.8,7.7 -0.8,7.7 l 6.3,-1.5 c 0,0 -0.7,-2.1 -1,-3.2 -0.3,-1 -2.6,-6.6 -2.5,-9.4 z"
           id="path890" />
      </g>
      <path
         style="opacity:0.2"
         d="m 94.9,65.4 c -0.4,-1.5 -1.8,-5.1 -4,-7.5 -1.6,-1.8 -3,-5.8 -3.6,-8.3 l -1.1,0.3 c -0.6,3.7 -0.8,10.7 -1.3,15.8 0.9,0.7 4.2,1.9 5.3,2.5 4.7,2.6 5.5,0.5 4.7,-2.8 z"
         id="path894" />
      <path
         style="fill:#262626"
         d="m 93.7,52.8 c 0,0 -0.1,-2.2 0.8,-3.1 0.8,-0.9 2.5,-0.6 1.7,1.3 -0.8,2 -2.5,1.8 -2.5,1.8 z"
         id="path896" />
      <path
         style="fill:#262626"
         d="m 102.9,45.7 c 0,0 -0.2,-1.1 0.7,-1.5 0.9,-0.3 1.8,1.5 1.8,1.5 z"
         id="path898" />
      <path
         style="fill:#262626"
         d="m 111.1,53.4 c 0,0 -0.3,-0.6 -1,-0.8 -0.6,-0.2 -1.3,-0.1 -2.1,0.2 l -0.9,-1.8 -0.3,0.2 0.9,1.8 c -1.3,0.7 -1.9,1.5 -2.6,2.5 -0.4,0.6 -0.9,1.3 -1.6,1.9 -1.8,1.8 -2.8,2.1 -2.8,2.1 -0.1,0 -0.1,0.1 -0.1,0.2 0,0.1 0.1,0.1 0.2,0.1 0,0 0,0 0.1,0 0,0 1.1,-0.4 3,-2.2 0.7,-0.7 1.2,-1.4 1.6,-2 0.7,-1 1.3,-1.8 2.6,-2.5 0.8,-0.4 1.4,-0.5 1.9,-0.3 0.6,0.2 0.8,0.6 0.8,0.6 0,0.1 0.2,0.1 0.2,0.1 0.1,0.1 0.1,0 0.1,-0.1 z"
         id="path900" />
      <path
         style="fill:#825012"
         d="m 87.4,47.1 c -0.8,-0.5 -2.7,0.7 -4.1,3.4 -1.4,2.7 -3.4,7.5 -1.8,9.9 1.6,2.4 4.3,4.5 6.7,5.4 2.3,0.9 5,2.6 5.7,2.1 0.7,-0.5 -1.1,-5.7 -3,-8.4 -1.9,-2.7 -4,-5.8 -4,-5.8 0,0 2.5,-5.3 0.5,-6.6 z"
         id="path902" />
      <path
         style="opacity:0.2"
         d="m 111.1,50.6 c 0.7,1.7 0.5,3.5 -0.1,5.2 -0.6,1.6 -1.7,2.3 -1.7,2.3 v 0.1 c 0.3,0.5 1.8,2.7 2.9,2 1.2,-0.7 -0.1,-6.3 -1,-9.4 -0.9,-3.1 -4.6,-10.2 -8.4,-11.6 -3.5,-1.2 -5.2,1.3 -5.5,1.7 1.6,0 4.4,0.4 5.9,1.9 1.6,1.5 2.6,2.4 3.6,3.8 1,1.4 3.5,2.2 4.3,4 z"
         id="path904" />
      <path
         style="fill:#262626"
         d="m 102.6,48.5 c -0.7,1.6 1.8,4 4.3,2.9 2.5,-1.2 1.5,-4 0.7,-4.6 -0.8,-0.7 -4.2,-0.2 -5,1.7 z"
         id="path906" />
      <path
         style="fill:#262626"
         d="M 112.2,69.8 C 108,70.5 102.9,70.9 97.7,70.6 90,70.3 85.7,69 84,68 c -0.1,0.7 -0.2,1.4 -0.4,2 -0.2,0.6 -0.4,1.3 -0.8,1.9 4,2 10.5,2.6 14.7,2.7 1.1,0 2.2,0.1 3.3,0.1 3.7,0 7.7,-0.2 11.5,-0.9 -0.2,-1 -0.1,-2.5 -0.1,-4 z"
         id="path908" />
    </g>
    <g
       transform="matrix(-0.26458333,0,0,0.26458333,113.71507,86.463821)"
       id="g1020">
      <path
         style="fill:#762c07"
         d="m 33.8,34.9 c -0.6,1.9 -0.5,9.7 -1.2,14 -0.8,5.2 -7.1,24 2.1,18.1 9.2,-5.9 7,-33.5 3.1,-33.7 -3.1,-0.3 -3.4,-0.3 -4,1.6 z"
         id="path994" />
      <path
         style="opacity:0.2"
         d="m 24.8,206.2 c -11.8,7.6 -12.4,14.4 0,21 13.5,7.2 22.4,3.3 32.9,-2.7 10.5,-6 11.8,-13.4 -3.7,-19.5 -12.5,-5 -20.4,-4.5 -29.2,1.2 z"
         id="path996" />
      <path
         style="fill:#fbd7c7"
         d="m 28.8,82.2 c 0,0 -3.2,10.8 -5.9,19.1 -2.7,8.3 -4.4,13.8 -5.3,15.9 -0.9,2.1 -1.3,5.7 -0.8,7.3 0.5,1.6 2.3,5 3,5.7 1.7,1.6 4.4,1.2 4.8,0.8 0.4,-0.5 0.4,-2.2 -0.3,-2.9 -0.7,-0.7 -2.6,-3 -1.4,-6 1.2,-2.9 1,-4.2 1,-6 0,-1.5 -0.5,-1.7 0.7,-4.1 1.2,-2.5 6.9,-14.5 7.5,-16.2 0.6,-1.7 -3.3,-13.6 -3.3,-13.6 z"
         id="path998" />
      <path
         style="fill:#fbd7c7"
         d="m 42.8,54.7 c 0,0 -9.1,-4 -12.3,0.3 -3.2,4.3 -1.7,11 -1.7,11 0,0 -5.4,6.1 -5.4,9.4 0,3.3 5.1,6.5 5.1,6.5 0,0 0.6,15.8 -0.3,22.3 -0.9,6.5 -3.8,23.3 -3.1,33.9 0.7,10.6 1.6,25 1.9,29.2 0.3,4.1 2.2,10 3,14.8 0.9,4.8 4.1,13.2 0.9,19.6 -3.2,6.4 -6.1,9.3 -7.4,10.5 -1.3,1.2 0.2,5.2 3,4.5 2.8,-0.7 7.2,-7.1 9.9,-8.1 2.7,-1.1 7.2,-4 6,-7.7 -1.2,-3.6 -1.7,-2.2 -2,-5.3 -0.3,-3.1 2.2,-16.7 1.3,-22.8 -0.9,-6.1 -3.2,-7.8 -3.6,-8.8 -0.4,-1 5.7,-29.5 5.7,-29.5 0,0 1.2,27.3 1.1,30.2 -0.1,2.9 2.1,17.7 2.7,24.6 0.7,7 1,18.8 -2,22.9 -2.9,4.1 -8,10.3 -6,11.7 2,1.4 8.3,2.7 9.8,-0.9 1.5,-3.6 5.3,-11.1 6.7,-13.1 1.4,-2 1.9,-3.1 1,-5 -0.9,-1.9 -1.5,-5 -0.5,-10.3 1,-5.3 4.1,-14.7 3.3,-19.7 -0.8,-5 -3.2,-8.1 -2.9,-11.7 0.3,-3.5 8.1,-24.8 6.6,-39.7 C 62,108.7 54.6,106 53.3,100 52,94 56.3,86.1 58.5,81.8 60.7,77.6 63.8,70.2 61.1,67.6 58.4,64.9 55.2,63.2 54,61.2 52.8,59.2 51.5,53 51.5,53 Z"
         id="path1000" />
      <path
         style="fill:#cc291f"
         d="m 25.4,210.3 c 0,0 -4.9,1.7 -5.9,3.9 -0.8,1.8 -0.5,3.9 1.2,5 1.8,1 5.2,1.3 8.2,-0.4 2.9,-1.7 6.8,-8.4 7.5,-8.7 0.7,-0.3 0.2,3.7 0.2,3.7 l 2.1,1.1 2.3,-0.9 c 0,0 -0.2,-4.5 0.7,-6 0.9,-1.5 2.6,-3.9 2,-6.9 -0.6,-3 -2.6,-3.3 -2.6,-3.3 0,0 0,3.5 -4,7.3 -3.8,3.6 -5.9,9.6 -9.2,9.3 -4.5,-0.7 -2.5,-4.1 -2.5,-4.1 z"
         id="path1002" />
      <path
         style="fill:#cc291f"
         d="m 42.2,217.1 c 0,0 -4.6,3.5 -4.9,5.7 -0.3,2.2 -0.2,3.7 2.9,4.7 3.1,1 7.1,-0.2 9,-1.8 1.9,-1.6 4.4,-5.8 4.4,-5.8 l 2,1.1 2.3,-1.1 c 0,0 -0.3,-2.7 0.4,-5.1 0.7,-2.4 1.4,-4.4 1.4,-7.4 0,-3 -2.8,-3.3 -2.8,-3.3 0,0 1.7,1.6 -0.8,5.1 -2.5,3.5 -4.4,11.3 -8.1,11.5 -6.9,0.5 -5.8,-3.6 -5.8,-3.6 z"
         id="path1004" />
      <path
         style="fill:#28896d"
         d="m 60.8,110.8 c -2.7,-4.3 -5.3,-6.4 -5.4,-6.8 0,0 -6.4,3.9 -16.4,3.1 -10,-0.8 -10.6,-3.1 -10.6,-3.1 -1.4,6.7 -4.5,17.6 -5.5,21.1 -1.9,6.8 -6.1,18 -5.6,19 2.1,4.2 12.6,3.2 17.4,7.6 4.8,4.4 17.8,3.7 24,1.6 6.2,-2.1 9.4,-5.8 9.2,-6.5 -4.8,-18.7 -1.8,-27.6 -7.1,-36 z"
         id="path1006" />
      <path
         style="fill:#e5e5e5"
         d="m 27.7,82.8 c 0.3,0.6 3.1,5.5 3,11.7 0,2.9 -1.7,6.6 -2.7,9.6 7.4,6.7 22,3.9 27.6,0.3 -4.5,-6.7 1.9,-20.2 3,-22.4 2.2,-4.2 5.3,-11.6 2.6,-14.2 -2.7,-2.7 -5.9,-4.4 -7.1,-6.4 -1.2,-2 -2.5,-8.2 -2.5,-8.2 l -8.9,1.6 c 0,0 -3.6,-1.6 -7,-1.7 -2.2,2.1 -4.9,9.8 -7.4,12.7 -2.5,2.8 -5.4,5.4 -5.4,9.6 0,3.2 4.3,6.5 4.8,7.4 z"
         id="path1008" />
      <path
         style="fill:#fbd7c7"
         d="m 37.9,53.9 c 0,0 -8.9,14.8 -2.4,16.5 6.3,1.7 16,-8.7 16,-8.7 L 43.7,53 Z"
         id="path1010" />
      <path
         style="fill:#fbd7c7"
         d="m 40.2,54.9 c 0,0 -4.3,0.7 -4.9,-0.9 -0.7,-1.7 -4.4,-15.5 2.4,-24.1 6.8,-8.6 20.5,-3.1 20.5,6 0,8.1 -3.2,10.5 -4.7,14.5 -0.9,2.5 -1.6,5.8 -0.1,8.4 1.5,2.7 2.7,4 2.7,4 0,0 -7.6,4.6 -13.3,3.2 -5.7,-1.4 -0.2,-4.2 -1,-6.6 -0.7,-2.1 -1.6,-4.5 -1.6,-4.5 z"
         id="path1012" />
      <path
         style="opacity:0.15"
         d="M 23,76.1 C 26.1,82 35.5,86.6 49.6,83.5 48.8,85.8 28.5,91 23,76.1 Z"
         id="path1014" />
      <path
         style="fill:#fbd7c7"
         d="m 51,74.8 c -1.1,-2.9 -0.7,-10.2 5.3,-10.5 6,-0.3 6.7,5.7 7.2,13.6 0.5,7.9 3.5,20.7 3.7,23.3 0.2,2.6 -1.5,9.7 -5.6,16 -4.1,6.3 -6.9,11.4 -7.1,12.3 -0.2,1 -1.4,4.9 -3.1,6.1 -0.7,0.5 -1.5,1.2 -1.9,2.5 -0.4,1.3 0.5,2.4 0.7,2.7 0.3,0.7 -0.2,1.5 -1.4,2.2 -1.3,0.8 -3.2,-0.5 -4.2,-1.3 -0.7,-0.5 -2.5,-2.1 -2,-4.3 0.4,-1.6 1.7,-6.6 3.7,-7.8 2,-1.2 3.9,-2.7 4.6,-4.1 0.7,-1.4 2.2,-11.9 4.8,-17.2 1.4,-2.9 3.1,-4.8 3.1,-5.9 C 58.7,101.5 52.1,77.7 51,74.8 Z"
         id="path1016" />
      <path
         style="fill:#762c07"
         d="m 33.8,34.9 c 0,0 3.5,-11.5 16.4,-9.1 8.1,1.5 10.4,10.5 9.6,16.7 -0.7,6.2 -3.3,9.9 -2.1,12.9 2.3,5.6 1,9.4 -1.6,12.7 C 51.8,73.6 43,76.3 44,65.2 44.7,56.6 38.9,52.8 40.9,43.7 42.1,38 39.8,35.5 37.3,36 36.4,34.1 35.4,33.4 33.8,34.9 Z"
         id="path1018" />
    </g>
    <g
       transform="matrix(0.26458333,0,0,0.26458333,108.50088,119.61909)"
       id="g1080">
      <path
         style="opacity:0.2"
         d="m 63.6,114.3 c -14.1,9.1 -38.5,17.2 -16.5,30.7 20.5,12.5 40.7,-4.1 55.2,-11.8 21.3,-11.3 32.2,-21.2 19.2,-29.4 -13.4,-8.4 -49.5,5.1 -57.9,10.5 z"
         id="path1062" />
      <path
         style="fill:#825012"
         d="m 88.4,90.5 c 0,0 8.9,2.3 8.9,4.9 0,1.4 0,5.8 0,7 0,2.2 -4.6,3.8 -4.6,6 0,2.9 5.7,4.7 7.3,4.3 1.6,-0.4 2.5,-1.2 2.5,-4 0,-2.8 1,-14.5 1.4,-18.1 0.4,-3.6 -1.1,-14.8 -1.1,-14.8 z"
         id="path1064" />
      <path
         style="opacity:0.2"
         d="m 88.4,90.5 c 0,0 8.9,2.3 8.9,4.9 0,1.4 0,5.8 0,7 0,2.2 -4.6,3.8 -4.6,6 0,2.9 5.7,4.7 7.3,4.3 1.6,-0.4 2.5,-1.2 2.5,-4 0,-2.8 1,-14.5 1.4,-18.1 0.4,-3.6 -1.1,-14.8 -1.1,-14.8 z"
         id="path1066" />
      <path
         style="fill:#825012"
         d="m 21.6,54.3 c 1.6,-0.6 7.9,-2.8 8,-4 0.1,-1.2 0,-3.1 1.5,-3.8 1.5,-0.7 2.8,-4.2 4.6,-4.5 1.8,-0.4 2.8,0.1 6.3,1.2 3.5,1.1 7.7,3.4 10.4,5.3 2.8,2 4.1,4 5.9,6.7 1.8,2.7 2.4,3.5 2.1,4.2 -0.3,0.7 -0.8,0.3 -0.4,1.5 0.6,1.6 0.9,3.7 3,4.3 7.1,1.9 23.5,-9.6 27.8,-10.9 10.1,-3.3 19.9,1.8 25,6 3.3,2.7 6.5,10.1 8.9,14.9 2.4,4.8 6.7,5.4 6.3,7.5 -0.2,0.9 -1.5,1.5 -4.1,0.5 -3.3,-1.3 -10.5,-9.4 -10.5,-9.4 0,0 1,3 -0.5,7 -1.5,4 -3.8,10.5 -1.7,12.7 2,2.1 4.6,4.5 4.9,6.7 0.3,2.2 1.2,18.2 1.2,19 0,0.8 -0.5,2.3 -2,2.8 -4.5,1.5 -10.1,-1.7 -9.3,-4.5 0.8,-2.8 4,-2.1 4,-6.3 0,-1.5 -0.4,-6 -0.7,-6.9 -0.4,-1.2 -1.7,-2.4 -3.3,-3 -1.4,-0.5 -7.3,-3.8 -8.5,-7.5 -1.2,-3.7 -1.7,-7.9 -3.7,-8.2 -2,-0.6 -8.8,10.6 -14.5,14.4 -5.7,3.8 -9.5,4.1 -9.5,4.1 0,0 -1.1,18.6 -1.1,22.2 0,3.6 2.6,7.4 3,9.8 0.4,2.5 1,6.8 -2.1,8.8 -3.7,2.4 -8.4,0.2 -9.5,-1.1 -1,-1.3 -1.2,-3.7 0.4,-5.2 1.5,-1.5 3.3,-2.7 2.8,-3.4 -0.5,-0.7 -2.5,-4.1 -2.9,-6.2 -0.5,-3.3 -1,-17.2 -4.9,-19.6 -1.2,-0.7 -4.1,-1.1 -4.9,0.1 -0.8,1.3 -0.7,8.7 -0.7,9.9 0,1.9 2.8,6 2.8,9.3 0,3.3 -1.2,5.1 -4.1,6.1 -2.3,0.8 -5.4,0.2 -7.7,-2.7 -1.5,-1.9 -0.3,-4 1.2,-4.9 1,-0.6 2.3,-0.8 2.4,-2.1 0.1,-1.3 -1.8,-3.2 -1.8,-5.6 0,-2.4 -1,-12 -1,-13.2 0,-3.9 -6.4,-7.6 -8.8,-15.6 C 34.7,86.8 35.6,82.3 35.3,79 35.3,76.8 34.8,67.8 31,67 29.6,66.7 23.4,66.8 21.7,64.9 20.4,63.5 19.6,61.6 20,59.4 c 0.4,-2.3 1.6,-5.1 1.6,-5.1 z"
         id="path1068" />
      <path
         style="fill:#262626"
         d="m 41.3,56.5 c 0,0 -0.7,-1.9 -2.4,-2.9 -1.6,-0.9 -3.2,0.9 -1.2,2.4 1.8,1.4 3.6,0.5 3.6,0.5 z"
         id="path1070" />
      <path
         style="fill:#262626"
         d="m 25.7,57.1 c 0.2,-1.8 -1,-2.7 -3.3,-3.2 -1.4,-0.3 -3,0.5 -3,2.3 0,2.5 2.1,4.4 2.1,4.4 0,0 3.8,0 4.2,-3.5 z"
         id="path1072" />
      <path
         style="fill:#262626"
         d="m 29.8,48.5 c 0,0 1.2,0.6 0.3,1.5 -0.8,1.1 -0.3,-1.5 -0.3,-1.5 z"
         id="path1074" />
      <path
         style="fill:#262626"
         d="m 34.6,73.3 c 0,0 2.8,1.6 7.3,1.6 4.5,0 8.4,-1.8 10.6,-3.9 2.2,-2.1 8.1,-8.5 8.1,-8.5 l 2,2.1 c 0,0 -7,8.9 -10,10.7 -3.1,1.8 -6.3,3.4 -10.8,3.3 -4.5,-0.1 -6.6,-1.5 -6.6,-1.5 z"
         id="path1076" />
      <path
         style="opacity:0.2"
         d="m 46.7,54.8 c 0,0 -4.9,18.4 0.8,18.2 2.9,-0.1 12.3,-13.1 12.3,-13.1 0,0 -5.6,16.4 -13.4,16.5 -7.7,0.1 0.3,-21.6 0.3,-21.6 z"
         id="path1078" />
    </g>
  </g>
  <path
     style="fill:#000000;fill-opacity:1;fill-rule:nonzero;stroke:none;stroke-width:0.264583"
     id="path1"
     d="m 108.96209,17.611535 c 1.39761,0 2.79523,0 4.19284,0 1.15099,0.0058 2.30183,-0.01875 3.45255,-0.04038 0.62214,-0.01169 0.6056,-0.891539 -0.0165,-0.879844 v 0 c -1.1452,0.02153 -2.29054,0.04604 -3.43601,0.04023 -1.39761,0 -2.79523,0 -4.19284,0 -0.62225,0 -0.62225,0.88 0,0.88 z" />
  <path
     style="fill:#000000;fill-opacity:1;fill-rule:nonzero;stroke:none;stroke-width:0.264583"
     id="path2"
     d="m 113.42199,17.135142 c 0.39034,-0.368296 0.74777,-0.770445 1.09257,-1.181077 0.65051,-0.831295 1.08814,-1.797757 1.44465,-2.78432 0.20871,-0.654803 0.39784,-1.38112 0.16003,-2.058269 -0.0452,-0.128689 -0.11863,-0.245646 -0.17795,-0.368468 -0.48283,-0.672943 -0.99345,-0.9421846 -1.76136,-1.1924964 -0.12148,-0.02435 -0.24103,-0.06197 -0.36443,-0.07306 -0.64767,-0.05816 -1.29627,0.19367 -1.82385,0.5545764 -0.13346,0.0913 -0.25319,0.201201 -0.37978,0.3018 -0.66697,0.602395 -0.96785,1.316924 -1.19053,2.165031 -0.16257,0.855259 0.0701,1.602134 0.40988,2.376776 0.26925,0.563223 0.61967,1.080433 0.97432,1.591963 0.19647,0.295918 0.4283,0.562517 0.6685,0.822845 0.0854,0.09902 0.17377,0.193223 0.25065,0.29903 0.37426,0.497113 1.07729,-0.03219 0.70302,-0.529298 v 0 c -0.0976,-0.126988 -0.19905,-0.248175 -0.30698,-0.366548 -0.21263,-0.23035 -0.41937,-0.464423 -0.59201,-0.727437 -0.32288,-0.465661 -0.64378,-0.9351 -0.89249,-1.446037 -0.25251,-0.56737 -0.47069,-1.170421 -0.36299,-1.800674 0.1621,-0.636579 0.39436,-1.247375 0.89213,-1.701518 0.0932,-0.07724 0.18133,-0.161093 0.27966,-0.231714 0.30921,-0.222089 0.81188,-0.467691 1.20508,-0.444479 0.0881,0.0052 0.17374,0.03103 0.26061,0.04655 0.49585,0.156441 0.91819,0.343705 1.25078,0.762522 0.0341,0.05586 0.0775,0.107033 0.10242,0.167588 0.20664,0.502868 0.0125,1.065136 -0.13264,1.553095 -0.31946,0.890087 -0.71031,1.7641 -1.2913,2.517434 -0.30682,0.3672 -0.62805,0.721738 -0.96772,1.059019 -0.4859,0.388719 0.0638,1.075884 0.54973,0.687164 z" />
  <path
     style="fill:#000000;fill-opacity:1;fill-rule:nonzero;stroke:none;stroke-width:0.264583"
     id="path4"
     d="m 142.20505,19.415087 c 0.26598,-0.464236 0.59929,-0.88199 0.92454,-1.304916 0.37559,-0.466009 0.76238,-0.922837 1.21244,-1.318746 0.16135,-0.140113 0.31042,-0.291409 0.45466,-0.448672 0.41822,-0.460751 -0.23338,-1.052204 -0.6516,-0.591452 v 0 c -0.12079,0.135053 -0.24997,0.260694 -0.38586,0.380771 -0.49033,0.435135 -0.91884,0.929531 -1.32722,1.441637 -0.35179,0.457444 -0.70992,0.911117 -0.99622,1.414012 -0.30219,0.543948 0.46707,0.971314 0.76926,0.427366 z" />
  <path
     style="fill:#000000;fill-opacity:1;fill-rule:nonzero;stroke:none;stroke-width:0.264583"
     id="path5"
     d="m 144.17434,16.354647 c 0.33066,0.510661 0.73453,0.968868 1.11687,1.440745 0.37231,0.458507 0.74055,0.919465 1.09353,1.393037 0.37191,0.498883 1.07743,-0.02708 0.70553,-0.525958 v 0 c -0.36014,-0.483011 -0.73549,-0.953454 -1.11535,-1.421095 -0.36128,-0.445838 -0.74364,-0.878208 -1.05816,-1.35918 -0.33407,-0.524972 -1.07649,-0.05252 -0.74242,0.472451 z" />
  <path
     style="fill:#000000;fill-opacity:1;fill-rule:nonzero;stroke:none;stroke-width:0.264583"
     id="path6"
     d="m 144.53628,15.552448 c -0.37439,-0.356366 -0.60109,-0.830377 -0.84269,-1.279399 -0.30197,-0.678691 -0.52507,-1.396032 -0.62885,-2.132033 -0.0381,-0.408056 -0.0333,-0.862154 0.24405,-1.194514 0.047,-0.0563 0.10489,-0.102495 0.15734,-0.153742 0.37239,-0.299492 0.81813,-0.460419 1.29906,-0.432511 0.0965,0.0056 0.19137,0.02792 0.28706,0.04188 0.56528,0.116919 0.87157,0.254874 1.19244,0.735211 0.28908,0.481655 0.21378,0.708954 0.0625,1.222386 -0.22482,0.624943 -0.51532,1.220852 -0.84432,1.796713 -0.28409,0.494164 -0.61291,0.959551 -0.91899,1.439587 -0.11435,0.17807 -0.2038,0.368722 -0.28942,0.561545 -0.24993,0.569855 0.55597,0.923309 0.8059,0.353454 v 0 c 0.0657,-0.152363 0.13652,-0.301906 0.2258,-0.44233 0.31316,-0.492518 0.65123,-0.969128 0.94124,-1.476489 0.36252,-0.637377 0.68453,-1.296727 0.92586,-1.990467 0.22116,-0.791009 0.25744,-1.252522 -0.18888,-1.97078 -0.0643,-0.0886 -0.122,-0.182401 -0.1929,-0.265815 -0.41225,-0.4849656 -0.99527,-0.7283204 -1.61035,-0.8362504 -0.14423,-0.01596 -0.28764,-0.04378 -0.43269,-0.04788 -0.71295,-0.02017 -1.37041,0.244791 -1.90324,0.7087314 -0.23647,0.263291 -0.30922,0.303923 -0.45818,0.625338 -0.21073,0.454669 -0.22461,0.964346 -0.17302,1.453375 0.12601,0.836221 0.36803,1.653737 0.72468,2.421653 0.28986,0.538375 0.57258,1.096414 1.02889,1.516433 0.46252,0.416266 1.05121,-0.237833 0.58869,-0.654099 z" />
  <path
     style="fill:#000000;fill-opacity:1;fill-rule:nonzero;stroke:none;stroke-width:0.264583"
     id="path3"
     d="m 143.87778,16.638982 c 0.047,0.319244 0.0551,0.642841 0.0674,0.964833 0.0164,0.551871 0.0269,1.104074 0.0208,1.656179 -0.001,0.634745 -0.0476,1.267456 -0.11982,1.897683 -0.0926,0.768969 -0.26457,1.525582 -0.46524,2.272722 -0.18203,0.714304 -0.4255,1.408836 -0.73018,2.07947 -0.31088,0.62083 -0.68178,1.210054 -1.05894,1.792352 -0.40924,0.602435 -0.89301,1.145968 -1.39964,1.666877 -0.5042,0.522457 -1.08415,0.955781 -1.67446,1.374048 -0.49074,0.329633 -0.97215,0.672806 -1.45837,1.008959 -0.45877,0.333602 -0.89354,0.69904 -1.32033,1.072272 -0.39197,0.333422 -0.75133,0.702757 -1.11249,1.068694 -0.272,0.295214 -0.5548,0.5798 -0.81868,0.882475 -0.29057,0.333886 -0.56486,0.681382 -0.82408,1.04004 -0.27566,0.376087 -0.48692,0.791001 -0.68907,1.209472 -0.19557,0.399134 -0.31358,0.82618 -0.38891,1.262324 -0.058,0.317299 -0.14401,0.640009 -0.213,0.955254 -0.059,0.264076 -0.0554,0.528172 -0.13319,0.787395 l -0.0351,0.12409 c -0.1693,0.598781 0.67751,0.8382 0.8468,0.239418 v 0 c 0.0105,-0.03706 0.0209,-0.07413 0.0314,-0.111193 0.0843,-0.282097 0.095,-0.58452 0.15857,-0.871916 0.0684,-0.327877 0.15677,-0.645417 0.21212,-0.975585 0.0591,-0.355132 0.15516,-0.702506 0.31388,-1.027293 0.17949,-0.372289 0.36497,-0.742521 0.61019,-1.077063 0.24306,-0.337507 0.50177,-0.663429 0.77451,-0.977516 0.25091,-0.289441 0.52256,-0.559163 0.78094,-0.841759 0.34605,-0.350644 0.68986,-0.705154 1.06556,-1.024501 0.40159,-0.351425 0.81063,-0.695531 1.24145,-1.010817 0.48894,-0.338201 0.97331,-0.683048 1.46673,-1.014804 0.63397,-0.449495 1.25512,-0.917527 1.79661,-1.478642 0.54651,-0.562605 1.06743,-1.150604 1.50737,-1.802064 0.40052,-0.619215 0.79473,-1.245621 1.12175,-1.907371 0.32306,-0.714909 0.58504,-1.453708 0.77858,-2.214688 0.21136,-0.78934 0.39259,-1.58854 0.4896,-2.400897 0.075,-0.660284 0.12417,-1.323096 0.12545,-1.988061 0.006,-0.566395 -0.004,-1.132882 -0.0214,-1.699032 -0.0146,-0.382229 -0.0226,-0.767832 -0.093,-1.144786 -0.15092,-0.603675 -1.00465,-0.390244 -0.85373,0.213431 z"
     sodipodi:nodetypes="ccccccccccccccccccssscccccccccccccccccccc" />
  <path
     style="fill:#000000;fill-opacity:1;fill-rule:nonzero;stroke:none;stroke-width:0.264583"
     id="path7"
     d="m 112.41348,17.367991 c 0.0139,0.465674 0.0468,0.931662 0.0823,1.396342 0.0523,0.8344 0.16609,1.662064 0.29134,2.488039 0.13318,0.906105 0.34582,1.797331 0.59898,2.676661 0.13316,0.439567 0.28004,0.876269 0.47757,1.291644 0.12031,0.252997 0.19196,0.373417 0.32793,0.619091 0.24325,0.429702 0.50254,0.854586 0.81902,1.235242 0.14604,0.175649 0.44025,0.486822 0.59528,0.65329 0.72258,0.764112 1.54131,1.426716 2.36733,2.074175 0.63899,0.486621 1.26344,0.991322 1.88263,1.502709 0.63475,0.507926 1.23403,1.058928 1.83474,1.606277 0.5296,0.488791 1.06586,0.971936 1.53423,1.520971 0.36718,0.437205 0.65347,0.927798 0.92263,1.428731 0.27934,0.54242 0.55747,1.085406 0.78523,1.651839 0.13946,0.38005 0.23329,0.775523 0.30022,1.1743 0.05,0.325607 0.0683,0.654513 0.0807,0.983292 -0.007,0.158644 4e-5,0.08402 -0.0195,0.224108 -0.0759,0.617609 0.79754,0.724934 0.87343,0.107325 v 0 c 0.0269,-0.237376 0.018,-0.115755 0.0254,-0.364958 -0.014,-0.366834 -0.0356,-0.733772 -0.0925,-1.096894 -0.0788,-0.460872 -0.18714,-0.918019 -0.35175,-1.356429 -0.24112,-0.595836 -0.53064,-1.16905 -0.82632,-1.739444 -0.29942,-0.556118 -0.62071,-1.099622 -1.0293,-1.584368 -0.49411,-0.574767 -1.05126,-1.087797 -1.6099,-1.598983 -0.6113,-0.556876 -1.22126,-1.117295 -1.86701,-1.634275 -0.625,-0.516187 -1.25533,-1.025621 -1.90025,-1.516886 -0.79018,-0.618932 -1.57424,-1.251471 -2.26622,-1.981345 -0.10359,-0.111146 -0.43611,-0.464484 -0.54291,-0.59163 -0.28977,-0.344963 -0.52397,-0.733143 -0.74567,-1.123814 -0.12274,-0.220848 -0.18608,-0.326949 -0.29473,-0.552768 -0.18144,-0.377123 -0.31272,-0.775494 -0.43481,-1.175023 -0.24333,-0.842421 -0.44664,-1.696593 -0.57448,-2.564814 -0.12208,-0.804527 -0.23339,-1.61063 -0.28397,-2.423418 -0.0341,-0.442254 -0.0651,-0.885866 -0.0798,-1.328987 0,-0.622254 -0.88,-0.622254 -0.88,0 z" />
  <path
     style="fill:#ff4400;fill-opacity:1;fill-rule:nonzero;stroke:none;stroke-width:0.264583"
     id="path8"
     d="m 125.27991,40.148028 c -0.002,0.271571 0.001,0.543052 0.007,0.814567 0.01,0.540227 0.0375,0.708998 0.0386,1.249309 -10e-4,0.39578 0.001,0.791588 -0.0111,1.187214 -0.009,0.171773 -0.008,0.344464 -0.0263,0.515618 l -0.006,0.04985 c -0.0762,0.617574 0.79721,0.725294 0.87338,0.107719 v 0 c 0.003,-0.02286 0.006,-0.04573 0.008,-0.0686 0.0187,-0.191974 0.0231,-0.384871 0.0304,-0.577535 0.0124,-0.405218 0.0106,-0.810609 0.0115,-1.215983 -10e-4,-0.545348 -0.0289,-0.719157 -0.0388,-1.264424 -0.005,-0.265904 -0.008,-0.53177 -0.006,-0.797732 0,-0.622255 -0.88,-0.622255 -0.88,0 z"
     sodipodi:nodetypes="ccccccssccccccc" />
  <path
     style="fill:#ff4400;fill-opacity:1;fill-rule:nonzero;stroke:none;stroke-width:0.264583"
     id="path9"
     d="m 131.45965,40.000586 c -0.0387,0.157128 -0.0461,0.319376 -0.0717,0.478546 -0.0337,0.198144 -0.0518,0.398439 -0.0697,0.598491 -0.012,0.231507 0.0236,0.220929 0.002,0.451598 -0.0223,0.235286 -0.0304,0.471482 -0.0361,0.707641 -0.005,0.231936 -0.006,0.463928 -0.008,0.69591 -8e-4,0.159798 -0.001,0.319595 -0.001,0.479396 0.003,0.108638 -0.006,0.216876 -0.0135,0.325165 -7e-5,0.04298 -0.007,0.08531 -0.0122,0.127762 -0.0801,0.617079 0.7926,0.730326 0.87268,0.113247 v 0 c 0.008,-0.06098 0.0157,-0.122047 0.0177,-0.183571 0.008,-0.126979 0.0185,-0.253987 0.0154,-0.38136 2.2e-4,-0.158673 5.3e-4,-0.317346 0.001,-0.476017 0.001,-0.226412 0.003,-0.452834 0.007,-0.679204 0.005,-0.215958 0.0122,-0.431964 0.0326,-0.647131 0.0215,-0.231839 -0.0137,-0.222427 -0.002,-0.455093 0.0162,-0.181764 0.0322,-0.363797 0.0631,-0.543788 0.0204,-0.137819 0.0303,-0.277249 0.0593,-0.413716 0.13992,-0.606319 -0.71755,-0.804195 -0.85747,-0.197876 z"
     sodipodi:nodetypes="cccccccccsscccccccccc" />
  <path
     style="fill:#ff4400;fill-opacity:1;fill-rule:nonzero;stroke:none;stroke-width:0.264583"
     id="path10"
     d="m 128.28824,44.453414 v 0.392727 0.987444 c 0.001,0.174638 0.0397,0.824608 0.0507,0.998965 0.0153,0.134107 0.0357,0.542901 0.0533,0.67673 0.0139,0.08675 0.0241,0.173956 0.0306,0.261554 0.003,0.05467 0.002,0.02646 0.004,0.08467 0.0252,0.621745 0.87928,-0.03564 0.87928,-0.03564 v 0 c 0,0 -0.001,-0.03848 -0.006,-0.114877 -0.008,-0.105003 -0.0194,-0.209682 -0.036,-0.313701 -0.0164,-0.115654 -0.0324,-0.50675 -0.0477,-0.622585 -0.0153,-0.152297 -0.0407,-0.782343 -0.0477,-0.935108 v -0.987444 -0.392727 c 0,-0.622255 -0.88,-0.622255 -0.88,0 z"
     sodipodi:nodetypes="cccccccsscccccscc" />
  <path
     style="fill:#000000;fill-opacity:1;fill-rule:nonzero;stroke:none;stroke-width:0.264583"
     id="path11"
     d="m 128.43608,47.787966 v 1.266058 l -0.0219,1.163445 v 1.126474 1.79404 c -0.0145,0.59302 0.0124,1.18442 0.0455,1.77624 0.0324,0.57069 0.0521,1.14197 0.0662,1.71337 0.0237,0.4216 0.007,0.84077 -0.0266,1.26097 -0.0199,0.3311 -0.0616,0.66012 -0.0935,0.99012 -0.0275,0.30508 -0.0383,0.61124 -0.0462,0.91733 -0.028,0.25396 -0.0662,0.50661 -0.10558,0.759 -0.0318,0.24001 -0.0764,0.47791 -0.1084,0.71787 -0.022,0.2742 -0.0902,0.54171 -0.14058,0.8115 -0.0665,0.27026 -0.13654,0.53969 -0.22515,0.80362 -0.0832,0.24875 -0.1897,0.48775 -0.30171,0.72453 -0.0871,0.17087 -0.21422,0.31402 -0.3548,0.44268 -0.15805,0.14401 -0.32732,0.27535 -0.50261,0.39759 -0.15552,0.10033 -0.3155,0.19348 -0.48346,0.27163 -0.1474,0.0641 -0.3052,0.0855 -0.46336,0.10313 -0.18275,0.0196 -0.36538,0.0257 -0.54867,0.0153 -0.0846,-0.0154 -0.17177,-0.0199 -0.25594,-0.038 -0.0435,-0.009 -0.10559,-0.047 -0.14269,-0.0629 -0.19857,-0.0682 -0.34277,-0.21971 -0.49538,-0.35708 -0.2471,-0.24275 -0.40713,-0.5453 -0.54946,-0.85656 -0.182,-0.37723 -0.29098,-0.77469 -0.35407,-1.18679 -0.0395,-0.38697 0.0331,-0.77543 0.1733,-1.13569 0.17967,-0.37017 0.41026,-0.71346 0.68192,-1.02186 0.18259,-0.21427 0.39265,-0.40088 0.62427,-0.56008 0.0877,-0.0524 0.17391,-0.10705 0.26197,-0.15884 0.5359,-0.31624 0.0887,-1.07412 -0.44723,-0.75788 v 0 c -0.10708,0.0634 -0.21274,0.12888 -0.31818,0.19495 -0.28814,0.20299 -0.55508,0.4333 -0.78361,0.70296 -0.33824,0.38982 -0.63031,0.81994 -0.84307,1.29166 -0.0297,0.0811 -0.0632,0.16087 -0.089,0.24326 -0.13458,0.4298 -0.17783,0.89081 -0.12982,1.33753 0.0783,0.49181 0.20752,0.96838 0.42431,1.41915 0.19439,0.41902 0.42097,0.82158 0.76033,1.14262 0.22392,0.20107 0.44914,0.40802 0.73759,0.51173 0.22679,0.0969 0.4493,0.1555 0.69645,0.17049 0.2327,0.0125 0.46488,0.006 0.69671,-0.0197 0.25363,-0.0294 0.50505,-0.0743 0.73909,-0.18158 0.21297,-0.10142 0.41834,-0.21786 0.61498,-0.34823 0.20713,-0.1471 0.40978,-0.30109 0.59642,-0.47389 0.21895,-0.20719 0.41662,-0.43612 0.54948,-0.70937 0.1272,-0.26891 0.24672,-0.54115 0.34139,-0.82352 0.0996,-0.30244 0.18308,-0.6097 0.25512,-0.91988 0.0529,-0.28483 0.12434,-0.56723 0.14778,-0.85667 0.0308,-0.23341 0.075,-0.46468 0.10555,-0.69815 0.0452,-0.28969 0.0906,-0.57977 0.1158,-0.87201 0.007,-0.28547 0.0171,-0.57101 0.0424,-0.85557 0.0322,-0.33507 0.0746,-0.66915 0.0948,-1.00532 0.0355,-0.45038 0.0532,-0.90009 0.0291,-1.35188 -0.0144,-0.58052 -0.0344,-1.16091 -0.0673,-1.7407 -0.0322,-0.57549 -0.0588,-1.15045 -0.0441,-1.72714 v -1.79404 -1.126474 l 0.0219,-1.163445 v -1.266057 c 0,-0.622255 -0.98398,-0.613506 -0.88,0 z"
     sodipodi:nodetypes="cccccccccccccccccccccccccccccsscccscccccccccccccccccccccccssc" />
</svg>
