<?xml version="1.0" encoding="UTF-8" standalone="no"?>
<svg
   id="svg8"
   version="1.1"
   viewBox="0 0 152.01854 73.169365"
   height="73.169365mm"
   width="152.01854mm"
   sodipodi:docname="17 mije li lukin e soweli. meli li lukin e soweli ante..svg"
   inkscape:version="1.3 (0e150ed6c4, 2023-07-21)"
   xmlns:inkscape="http://www.inkscape.org/namespaces/inkscape"
   xmlns:sodipodi="http://sodipodi.sourceforge.net/DTD/sodipodi-0.dtd"
   xmlns="http://www.w3.org/2000/svg"
   xmlns:svg="http://www.w3.org/2000/svg"
   xmlns:rdf="http://www.w3.org/1999/02/22-rdf-syntax-ns#"
   xmlns:cc="http://creativecommons.org/ns#"
   xmlns:dc="http://purl.org/dc/elements/1.1/">
  <sodipodi:namedview
     id="namedview1"
     pagecolor="#ffffff"
     bordercolor="#000000"
     borderopacity="0.25"
     inkscape:showpageshadow="2"
     inkscape:pageopacity="0.0"
     inkscape:pagecheckerboard="0"
     inkscape:deskcolor="#d1d1d1"
     inkscape:document-units="mm"
     inkscape:zoom="0.7071068"
     inkscape:cx="239.00209"
     inkscape:cy="130.81475"
     inkscape:window-width="1920"
     inkscape:window-height="1051"
     inkscape:window-x="-9"
     inkscape:window-y="-9"
     inkscape:window-maximized="1"
     inkscape:current-layer="svg8" />
  <defs
     id="defs2" />
  <metadata
     id="metadata5">
    <rdf:RDF>
      <cc:Work
         rdf:about="">
        <dc:format>image/svg+xml</dc:format>
        <dc:type
           rdf:resource="http://purl.org/dc/dcmitype/StillImage" />
        <dc:title />
      </cc:Work>
    </rdf:RDF>
  </metadata>
  <g
     transform="translate(-47.526506,-92.622932)"
     id="layer1">
    <g
       transform="matrix(0.26458333,0,0,0.26458333,75.433037,87.844366)"
       id="g853">
      <path
         style="fill:#fbd7c7"
         d="m 13.4,105 c 0,0 1,9.1 1.3,12.3 0.3,3.2 1.3,5.5 2.1,7.3 0.8,1.8 4.5,6.2 5,5.9 0.5,-0.3 -0.3,-2.1 -0.3,-2.5 0,-0.4 0.4,-1.7 -0.2,-2.5 -0.6,-0.7 -1.7,-4 -1.6,-4.7 0.1,-0.7 1.4,-0.9 1.5,-1.4 0.1,-0.5 0.1,-0.5 0.1,-0.5 0,0 -3.6,-6 -3.6,-8.6 0,-2.7 -0.1,-6.1 -0.1,-6.1 0,0 -0.6,-0.3 -2,0 -1.4,0.2 -2.2,0.8 -2.2,0.8 z"
         id="path815" />
      <path
         style="opacity:0.3;fill:#262626"
         d="m 28.1,216.9 c 0.6,1.8 -6.7,11.8 7.1,13.5 20.6,2.7 21.6,-13.7 29.3,-18.2 13.9,-8.1 -3.1,-14.1 -22.5,-14.1 -16.3,0.1 -30.5,1.9 -29.4,10.1 0.7,6.1 14.6,5.6 15.5,8.7 z"
         id="path817" />
      <path
         style="fill:#762c07"
         d="m 34,200.2 c 0,0 -1.6,1.2 -5.5,1.1 -3.9,-0.1 -7.3,-0.8 -11.4,1.5 -4.8,2.7 -1.2,7 0.1,7.4 1.3,0.4 18.1,0.9 21.2,0.7 3.1,-0.2 2.1,-8.2 2.1,-8.2 z"
         id="path819" />
      <path
         style="fill:#262626"
         d="m 39.4,209.1 c -1.5,0.1 -9,0.6 -13.5,0.5 -5,-0.1 -6.4,-0.5 -7.8,-1 -1.7,-0.6 -3.2,-1.4 -3.3,-3.1 -0.5,2.2 0.9,4.1 2.5,4.6 1.5,0.5 3.3,0.9 8.6,1.1 4.2,0.1 11.3,-0.3 12.6,-0.4 0.8,-0.1 1.4,-0.7 1.7,-1.6 -0.4,0.3 -0.5,-0.1 -0.8,-0.1 z"
         id="path821" />
      <path
         style="fill:#762c07"
         d="m 39.7,211 c 0,0 -3.9,4.4 -6.6,7.6 -2.7,3.2 -3.8,5.6 -3.6,7.9 0.2,2.3 3.5,3.4 8,3.4 4.5,0 9.3,-2.8 11.5,-5.9 2.3,-3.1 5.6,-5.9 5.6,-7.4 0,-1.5 -0.1,-6.2 -0.1,-6.2 z"
         id="path823" />
      <path
         style="fill:#262626"
         d="m 54.6,210.4 h -0.5 c 0,1.5 0.1,3.3 0.1,4.1 0,1.5 -3.4,4.3 -5.6,7.4 -2.3,3.1 -7,5.9 -11.5,5.9 -3.5,0 -6.3,-0.6 -7.4,-2 0,0.2 0,0.4 0,0.6 0.1,2.3 3.5,3.4 8,3.4 4.6,0 9.3,-2.8 11.5,-5.9 2.3,-3.1 5.6,-5.9 5.6,-7.4 -0.1,-1.4 -0.2,-6.1 -0.2,-6.1 z"
         id="path825" />
      <path
         style="fill:#3399cc"
         d="m 19.7,114.3 c 0,0 -0.5,13 1.6,23.9 2.1,10.9 9.5,26.4 9.5,31.1 0,4.7 2.3,19 2.1,22.8 -0.1,3.8 -0.9,8.6 -0.9,8.6 0,0 2.7,5 6.2,6.7 3.5,1.7 7.2,-0.4 7.2,-0.4 L 39,116.5 Z"
         id="path827" />
      <path
         style="opacity:0.2"
         d="m 19.7,114.3 c 0,0 -0.5,13 1.6,23.9 2.1,10.9 9.5,26.4 9.5,31.1 0,4.7 2.3,19 2.1,22.8 -0.1,3.8 -0.9,8.6 -0.9,8.6 0,0 2.7,5 6.2,6.7 3.5,1.7 7.2,-0.4 7.2,-0.4 L 39,116.5 Z"
         id="path829" />
      <path
         style="fill:#3399cc"
         d="m 31.1,119.4 c 0,0 0.3,14.3 -0.3,25.6 -0.5,11.3 2.3,21.7 3.4,25.3 1.1,3.6 1.5,9.7 1.5,15.2 0,5.5 0.2,26.2 1,27 0.8,0.8 5.2,3.6 10.9,4 4.3,0.3 9,-2.4 9,-3.1 0,-0.7 1.5,-16.4 0.3,-29.1 -1.2,-12.7 -3.8,-19.3 -3.6,-21.3 0.1,-2 3.1,-29.1 2.8,-34.7 -0.3,-5.6 -2,-18.4 -2,-18.4 z"
         id="path831" />
      <path
         style="fill:#ffcc00"
         d="m 17.9,69.4 c 0,0 -2.2,7.4 -3.6,17.6 -1.5,10.7 -0.7,25.3 -0.7,25.3 0,0 2.1,-1.6 6.2,-1.6 4.1,0 -1.9,-41.3 -1.9,-41.3 z"
         id="path833" />
      <path
         style="opacity:0.2"
         d="m 17.9,69.4 c 0,0 -2.2,7.4 -3.6,17.6 -1.5,10.7 -0.7,25.3 -0.7,25.3 0,0 2.1,-1.6 6.2,-1.6 4.1,0 -1.9,-41.3 -1.9,-41.3 z"
         id="path835" />
      <path
         style="fill:#fbd7c7"
         d="m 51.5,127 c 0,0 -0.4,2.9 -2.3,5.1 -1.9,2.1 -3.5,5.8 -3.5,7.3 0,2.1 0,3.9 0.9,4 1.8,0.2 1.1,-1.3 1.7,-1.3 0.6,0 0.3,2.6 3,2.7 3.5,0.1 8.5,-2.3 8.5,-4.6 0,-1.2 -0.5,-4.4 -0.9,-6.2 -0.5,-1.9 -0.5,-4.5 -0.5,-4.5 z"
         id="path837" />
      <path
         style="fill:#ffcc00"
         d="m 38.8,44 c 9.5,2.5 20.1,4.6 23.7,12.3 3.1,6.6 2.9,8.7 2.7,14.9 -0.3,6.2 -0.8,18.5 -0.5,22.5 0.3,4 -1.1,20.8 -2.3,26.4 -1.2,5.6 -1.6,10.3 -2.5,10.6 -0.9,0.3 -10.2,-0.9 -9.5,-2.3 0.9,-2 1.2,-7.6 1.2,-7.6 0,0 -4.4,5.4 -14.2,4 -9.8,-1.3 -18.2,-6.1 -19.1,-8.6 -0.4,-1.2 -0.6,-19.8 0.3,-24.8 0.9,-5 -2,-15.7 -2.1,-20.4 -0.1,-4.7 2.9,-17.4 3.1,-19.7 0.1,-3.4 4.2,-11.2 19.2,-7.3 z"
         id="path839" />
      <path
         style="opacity:0.2"
         d="m 51.5,120.9 c 0,0 0.7,-5.2 0.7,-9.8 0,-4.6 0.1,-11.3 -0.4,-13.9 C 51.3,94.5 49.6,85 49.3,82.5 48.6,76.4 49,72.7 49.5,71.4 c -2.4,4.1 -1,19 -0.3,25.2 0.9,8.7 -0.3,25.8 -0.6,26.6 -0.3,0.7 2.9,-2.3 2.9,-2.3 z"
         id="path841" />
      <path
         style="fill:#fbd7c7"
         d="m 42.5,38.2 c 0,0 0,5.2 0.9,6.1 0.9,0.9 3,1.3 2.3,2.6 -0.7,1.3 -8.1,9.7 -13.5,9.2 -5.3,-0.5 -4,-9.4 -4,-9.4 z"
         id="path843" />
      <path
         style="fill:#fbd7c7"
         d="m 22.8,26.5 c -2.2,2.8 -1.3,11 -0.3,14.7 1,3.7 2.2,5.9 2.7,7.3 0.4,1.4 1.9,3.6 3.9,3.5 2,-0.1 8.2,-4.1 10.1,-7.1 C 41,41.9 43.6,39 44,37 44.4,35 44.6,34.1 42.9,33.7 41.2,33.3 37.6,25.9 33,25.6 28.4,25.3 24.1,24.8 22.8,26.5 Z"
         id="path845" />
      <path
         style="fill:#825012"
         d="m 21.5,28.4 c -0.4,1.6 0.8,3.3 5.5,3.3 4.7,0 7.6,-2.3 8.1,-0.8 0.5,1.5 1.8,5.7 2.2,6.6 0.4,0.9 1,2 1.3,1.6 0.3,-0.4 1.8,-3.9 2.9,-4.7 1.1,-0.8 1.7,-0.8 1.7,-0.8 0,0 1.6,-8.3 -2,-12.6 C 37.6,16.7 25,15.6 21.5,28.4 Z"
         id="path847" />
      <path
         style="fill:#825012"
         d="m 25,46.6 c 0,0 0.7,-0.7 1.6,-0.8 0.4,0 1.3,0.1 1.9,0.2 0.8,0.2 2.7,1.1 2.7,1.1 0,0 -2.8,0 -3.7,-0.1 C 26.4,46.9 25,46.6 25,46.6 Z"
         id="path849" />
      <path
         style="fill:#825012"
         d="m 26.8,49 1.2,0.1 c 0,0 -0.2,0.6 0.6,1.3 0.8,0.7 2.9,0.8 2.9,0.8 0,0 -1.7,1.3 -3.2,0.9 -1.5,-0.4 -2.3,-1.8 -2.3,-1.8 0,0 0.5,-0.1 0.6,-0.5 0.2,-0.4 0.2,-0.8 0.2,-0.8 z"
         id="path851" />
    </g>
    <g
       transform="matrix(0.26458333,0,0,0.26458333,39.90731,126.34774)"
       id="g910">
      <path
         style="opacity:0.2"
         d="m 103.2,117 c 12.7,8.2 34.5,15.5 14.8,27.5 -18.4,11.2 -39.2,-0.4 -49.5,-10.6 -20.7,-20.6 -56.1,-20.3 -31.1,-23.8 1.9,-0.3 15.8,0 29.6,2 14.3,2 32.4,2.4 36.2,4.9 z"
         id="path882" />
      <path
         style="fill:#825012"
         d="m 96.1,110.4 c 0,0 2,4.7 1.9,6.2 -0.1,1.5 -0.8,3.5 0.1,4.3 0.9,0.7 7.8,5.2 9.1,7.1 1.3,1.9 2,5.2 6.6,3 4.6,-2.2 3.1,-5.5 0.9,-6.4 -2.1,-0.9 -6.5,-1.7 -8.8,-3.9 -2.3,-2.2 -3.2,-2.9 -1.2,-6.3 2,-3.4 2.9,-6.1 2.9,-6.1 z"
         id="path884" />
      <path
         style="opacity:0.2"
         d="m 96.1,110.4 c 0,0 2,4.7 1.9,6.2 -0.1,1.5 -0.8,3.5 0.1,4.3 0.9,0.7 7.8,5.2 9.1,7.1 1.3,1.9 2,5.2 6.6,3 4.6,-2.2 3.1,-5.5 0.9,-6.4 -2.1,-0.9 -6.5,-1.7 -8.8,-3.9 -2.3,-2.2 -3.2,-2.9 -1.2,-6.3 2,-3.4 2.9,-6.1 2.9,-6.1 z"
         id="path886" />
      <path
         style="fill:#825012"
         d="m 86.8,47.8 c 0.8,-1.5 2.6,-3.6 5.5,-5 2.9,-1.4 5,-1.9 5,-1.9 0,0 1.7,-3.1 5.5,-1.8 3.8,1.3 7.5,8.5 8.4,11.6 0.9,3.1 2.2,8.7 1,9.4 -1.2,0.7 -3,-2.1 -3,-2.1 0,0 1,4.5 1.8,7.3 0.7,2.8 -0.1,7.7 0.7,9.3 0.7,1.6 4.2,7.5 3.8,13.7 -0.4,6.2 -2.8,12.2 -2.9,14.8 -0.1,2.6 3.4,16.8 4,17.9 0.6,1.1 0.2,4.4 1.2,6.4 1,2 8.7,3.9 6.2,7.8 -2.4,3.9 -9.3,2 -10.3,-0.2 -1,-2.2 0.1,-4.6 -1.1,-8.8 -1.2,-4.2 -6.7,-15.8 -6.7,-15.8 0,0 -2,0.6 -4.8,0.9 -2.9,0.4 -5.9,3.9 -4.9,9.7 1,5.8 2,8 2.6,9.4 0.6,1.4 0.2,4.6 1.1,6.4 0.9,1.9 7.2,4.2 4.8,7.3 -2.4,3.1 -7.5,3.2 -10.2,0.6 -2.7,-2.6 -0.4,-3.8 -2.2,-10.2 -1.9,-6.4 -4,-13.8 -4,-13.8 l -6.3,1.5 -4.4,9.3 c 0,0 3.8,2.8 5.7,3.9 1.9,1.1 5.7,0.2 7,1.9 1.3,1.7 1.8,5.5 -2.2,7 -4,1.5 -6.3,-3.4 -7.7,-4.5 -1.4,-1 -7,-3.3 -8.5,-5 -1.5,-1.7 -0.2,-5.8 -0.2,-5.8 0,0 -5.9,-0.6 -8.8,-4.4 -2.9,-3.8 -2.5,-4.6 -3.7,-5.5 -1.2,-0.9 -3.1,-1.7 -8.8,-1.1 -5.7,0.6 -12.7,-1.8 -15.7,-5.2 -3.1,-3.4 -3.7,-11.3 -2.9,-12 0.8,-0.7 2.2,4.5 3.8,5.7 1.6,1.2 5.3,4.2 9.7,3.8 4.4,-0.4 12.5,-3.6 12.5,-3.6 0,0 4.6,-12.8 10.8,-19.7 6.2,-7 14.6,-11.7 15.9,-16.8 1.1,-5.1 1,-19.9 2.3,-22.4 z"
         id="path888" />
      <g
         id="g892">
        <path
           style="opacity:0.2"
           d="m 84.6,108.1 c 0,0 -1.2,1.6 -4,1.6 -1.5,0 -3.7,-0.2 -5.3,-0.4 0.6,0.1 1.4,0.3 2.2,0.6 2.8,0.9 3.9,2.1 5.1,4.6 1.1,2.5 -0.8,7.7 -0.8,7.7 l 6.3,-1.5 c 0,0 -0.7,-2.1 -1,-3.2 -0.3,-1 -2.6,-6.6 -2.5,-9.4 z"
           id="path890" />
      </g>
      <path
         style="opacity:0.2"
         d="m 94.9,65.4 c -0.4,-1.5 -1.8,-5.1 -4,-7.5 -1.6,-1.8 -3,-5.8 -3.6,-8.3 l -1.1,0.3 c -0.6,3.7 -0.8,10.7 -1.3,15.8 0.9,0.7 4.2,1.9 5.3,2.5 4.7,2.6 5.5,0.5 4.7,-2.8 z"
         id="path894" />
      <path
         style="fill:#262626"
         d="m 93.7,52.8 c 0,0 -0.1,-2.2 0.8,-3.1 0.8,-0.9 2.5,-0.6 1.7,1.3 -0.8,2 -2.5,1.8 -2.5,1.8 z"
         id="path896" />
      <path
         style="fill:#262626"
         d="m 102.9,45.7 c 0,0 -0.2,-1.1 0.7,-1.5 0.9,-0.3 1.8,1.5 1.8,1.5 z"
         id="path898" />
      <path
         style="fill:#262626"
         d="m 111.1,53.4 c 0,0 -0.3,-0.6 -1,-0.8 -0.6,-0.2 -1.3,-0.1 -2.1,0.2 l -0.9,-1.8 -0.3,0.2 0.9,1.8 c -1.3,0.7 -1.9,1.5 -2.6,2.5 -0.4,0.6 -0.9,1.3 -1.6,1.9 -1.8,1.8 -2.8,2.1 -2.8,2.1 -0.1,0 -0.1,0.1 -0.1,0.2 0,0.1 0.1,0.1 0.2,0.1 0,0 0,0 0.1,0 0,0 1.1,-0.4 3,-2.2 0.7,-0.7 1.2,-1.4 1.6,-2 0.7,-1 1.3,-1.8 2.6,-2.5 0.8,-0.4 1.4,-0.5 1.9,-0.3 0.6,0.2 0.8,0.6 0.8,0.6 0,0.1 0.2,0.1 0.2,0.1 0.1,0.1 0.1,0 0.1,-0.1 z"
         id="path900" />
      <path
         style="fill:#825012"
         d="m 87.4,47.1 c -0.8,-0.5 -2.7,0.7 -4.1,3.4 -1.4,2.7 -3.4,7.5 -1.8,9.9 1.6,2.4 4.3,4.5 6.7,5.4 2.3,0.9 5,2.6 5.7,2.1 0.7,-0.5 -1.1,-5.7 -3,-8.4 -1.9,-2.7 -4,-5.8 -4,-5.8 0,0 2.5,-5.3 0.5,-6.6 z"
         id="path902" />
      <path
         style="opacity:0.2"
         d="m 111.1,50.6 c 0.7,1.7 0.5,3.5 -0.1,5.2 -0.6,1.6 -1.7,2.3 -1.7,2.3 v 0.1 c 0.3,0.5 1.8,2.7 2.9,2 1.2,-0.7 -0.1,-6.3 -1,-9.4 -0.9,-3.1 -4.6,-10.2 -8.4,-11.6 -3.5,-1.2 -5.2,1.3 -5.5,1.7 1.6,0 4.4,0.4 5.9,1.9 1.6,1.5 2.6,2.4 3.6,3.8 1,1.4 3.5,2.2 4.3,4 z"
         id="path904" />
      <path
         style="fill:#262626"
         d="m 102.6,48.5 c -0.7,1.6 1.8,4 4.3,2.9 2.5,-1.2 1.5,-4 0.7,-4.6 -0.8,-0.7 -4.2,-0.2 -5,1.7 z"
         id="path906" />
      <path
         style="fill:#262626"
         d="M 112.2,69.8 C 108,70.5 102.9,70.9 97.7,70.6 90,70.3 85.7,69 84,68 c -0.1,0.7 -0.2,1.4 -0.4,2 -0.2,0.6 -0.4,1.3 -0.8,1.9 4,2 10.5,2.6 14.7,2.7 1.1,0 2.2,0.1 3.3,0.1 3.7,0 7.7,-0.2 11.5,-0.9 -0.2,-1 -0.1,-2.5 -0.1,-4 z"
         id="path908" />
    </g>
    <g
       transform="matrix(-0.26458333,0,0,0.26458333,113.71507,86.463821)"
       id="g1020">
      <path
         style="fill:#762c07"
         d="m 33.8,34.9 c -0.6,1.9 -0.5,9.7 -1.2,14 -0.8,5.2 -7.1,24 2.1,18.1 9.2,-5.9 7,-33.5 3.1,-33.7 -3.1,-0.3 -3.4,-0.3 -4,1.6 z"
         id="path994" />
      <path
         style="opacity:0.2"
         d="m 24.8,206.2 c -11.8,7.6 -12.4,14.4 0,21 13.5,7.2 22.4,3.3 32.9,-2.7 10.5,-6 11.8,-13.4 -3.7,-19.5 -12.5,-5 -20.4,-4.5 -29.2,1.2 z"
         id="path996" />
      <path
         style="fill:#fbd7c7"
         d="m 28.8,82.2 c 0,0 -3.2,10.8 -5.9,19.1 -2.7,8.3 -4.4,13.8 -5.3,15.9 -0.9,2.1 -1.3,5.7 -0.8,7.3 0.5,1.6 2.3,5 3,5.7 1.7,1.6 4.4,1.2 4.8,0.8 0.4,-0.5 0.4,-2.2 -0.3,-2.9 -0.7,-0.7 -2.6,-3 -1.4,-6 1.2,-2.9 1,-4.2 1,-6 0,-1.5 -0.5,-1.7 0.7,-4.1 1.2,-2.5 6.9,-14.5 7.5,-16.2 0.6,-1.7 -3.3,-13.6 -3.3,-13.6 z"
         id="path998" />
      <path
         style="fill:#fbd7c7"
         d="m 42.8,54.7 c 0,0 -9.1,-4 -12.3,0.3 -3.2,4.3 -1.7,11 -1.7,11 0,0 -5.4,6.1 -5.4,9.4 0,3.3 5.1,6.5 5.1,6.5 0,0 0.6,15.8 -0.3,22.3 -0.9,6.5 -3.8,23.3 -3.1,33.9 0.7,10.6 1.6,25 1.9,29.2 0.3,4.1 2.2,10 3,14.8 0.9,4.8 4.1,13.2 0.9,19.6 -3.2,6.4 -6.1,9.3 -7.4,10.5 -1.3,1.2 0.2,5.2 3,4.5 2.8,-0.7 7.2,-7.1 9.9,-8.1 2.7,-1.1 7.2,-4 6,-7.7 -1.2,-3.6 -1.7,-2.2 -2,-5.3 -0.3,-3.1 2.2,-16.7 1.3,-22.8 -0.9,-6.1 -3.2,-7.8 -3.6,-8.8 -0.4,-1 5.7,-29.5 5.7,-29.5 0,0 1.2,27.3 1.1,30.2 -0.1,2.9 2.1,17.7 2.7,24.6 0.7,7 1,18.8 -2,22.9 -2.9,4.1 -8,10.3 -6,11.7 2,1.4 8.3,2.7 9.8,-0.9 1.5,-3.6 5.3,-11.1 6.7,-13.1 1.4,-2 1.9,-3.1 1,-5 -0.9,-1.9 -1.5,-5 -0.5,-10.3 1,-5.3 4.1,-14.7 3.3,-19.7 -0.8,-5 -3.2,-8.1 -2.9,-11.7 0.3,-3.5 8.1,-24.8 6.6,-39.7 C 62,108.7 54.6,106 53.3,100 52,94 56.3,86.1 58.5,81.8 60.7,77.6 63.8,70.2 61.1,67.6 58.4,64.9 55.2,63.2 54,61.2 52.8,59.2 51.5,53 51.5,53 Z"
         id="path1000" />
      <path
         style="fill:#cc291f"
         d="m 25.4,210.3 c 0,0 -4.9,1.7 -5.9,3.9 -0.8,1.8 -0.5,3.9 1.2,5 1.8,1 5.2,1.3 8.2,-0.4 2.9,-1.7 6.8,-8.4 7.5,-8.7 0.7,-0.3 0.2,3.7 0.2,3.7 l 2.1,1.1 2.3,-0.9 c 0,0 -0.2,-4.5 0.7,-6 0.9,-1.5 2.6,-3.9 2,-6.9 -0.6,-3 -2.6,-3.3 -2.6,-3.3 0,0 0,3.5 -4,7.3 -3.8,3.6 -5.9,9.6 -9.2,9.3 -4.5,-0.7 -2.5,-4.1 -2.5,-4.1 z"
         id="path1002" />
      <path
         style="fill:#cc291f"
         d="m 42.2,217.1 c 0,0 -4.6,3.5 -4.9,5.7 -0.3,2.2 -0.2,3.7 2.9,4.7 3.1,1 7.1,-0.2 9,-1.8 1.9,-1.6 4.4,-5.8 4.4,-5.8 l 2,1.1 2.3,-1.1 c 0,0 -0.3,-2.7 0.4,-5.1 0.7,-2.4 1.4,-4.4 1.4,-7.4 0,-3 -2.8,-3.3 -2.8,-3.3 0,0 1.7,1.6 -0.8,5.1 -2.5,3.5 -4.4,11.3 -8.1,11.5 -6.9,0.5 -5.8,-3.6 -5.8,-3.6 z"
         id="path1004" />
      <path
         style="fill:#28896d"
         d="m 60.8,110.8 c -2.7,-4.3 -5.3,-6.4 -5.4,-6.8 0,0 -6.4,3.9 -16.4,3.1 -10,-0.8 -10.6,-3.1 -10.6,-3.1 -1.4,6.7 -4.5,17.6 -5.5,21.1 -1.9,6.8 -6.1,18 -5.6,19 2.1,4.2 12.6,3.2 17.4,7.6 4.8,4.4 17.8,3.7 24,1.6 6.2,-2.1 9.4,-5.8 9.2,-6.5 -4.8,-18.7 -1.8,-27.6 -7.1,-36 z"
         id="path1006" />
      <path
         style="fill:#e5e5e5"
         d="m 27.7,82.8 c 0.3,0.6 3.1,5.5 3,11.7 0,2.9 -1.7,6.6 -2.7,9.6 7.4,6.7 22,3.9 27.6,0.3 -4.5,-6.7 1.9,-20.2 3,-22.4 2.2,-4.2 5.3,-11.6 2.6,-14.2 -2.7,-2.7 -5.9,-4.4 -7.1,-6.4 -1.2,-2 -2.5,-8.2 -2.5,-8.2 l -8.9,1.6 c 0,0 -3.6,-1.6 -7,-1.7 -2.2,2.1 -4.9,9.8 -7.4,12.7 -2.5,2.8 -5.4,5.4 -5.4,9.6 0,3.2 4.3,6.5 4.8,7.4 z"
         id="path1008" />
      <path
         style="fill:#fbd7c7"
         d="m 37.9,53.9 c 0,0 -8.9,14.8 -2.4,16.5 6.3,1.7 16,-8.7 16,-8.7 L 43.7,53 Z"
         id="path1010" />
      <path
         style="fill:#fbd7c7"
         d="m 40.2,54.9 c 0,0 -4.3,0.7 -4.9,-0.9 -0.7,-1.7 -4.4,-15.5 2.4,-24.1 6.8,-8.6 20.5,-3.1 20.5,6 0,8.1 -3.2,10.5 -4.7,14.5 -0.9,2.5 -1.6,5.8 -0.1,8.4 1.5,2.7 2.7,4 2.7,4 0,0 -7.6,4.6 -13.3,3.2 -5.7,-1.4 -0.2,-4.2 -1,-6.6 -0.7,-2.1 -1.6,-4.5 -1.6,-4.5 z"
         id="path1012" />
      <path
         style="opacity:0.15"
         d="M 23,76.1 C 26.1,82 35.5,86.6 49.6,83.5 48.8,85.8 28.5,91 23,76.1 Z"
         id="path1014" />
      <path
         style="fill:#fbd7c7"
         d="m 51,74.8 c -1.1,-2.9 -0.7,-10.2 5.3,-10.5 6,-0.3 6.7,5.7 7.2,13.6 0.5,7.9 3.5,20.7 3.7,23.3 0.2,2.6 -1.5,9.7 -5.6,16 -4.1,6.3 -6.9,11.4 -7.1,12.3 -0.2,1 -1.4,4.9 -3.1,6.1 -0.7,0.5 -1.5,1.2 -1.9,2.5 -0.4,1.3 0.5,2.4 0.7,2.7 0.3,0.7 -0.2,1.5 -1.4,2.2 -1.3,0.8 -3.2,-0.5 -4.2,-1.3 -0.7,-0.5 -2.5,-2.1 -2,-4.3 0.4,-1.6 1.7,-6.6 3.7,-7.8 2,-1.2 3.9,-2.7 4.6,-4.1 0.7,-1.4 2.2,-11.9 4.8,-17.2 1.4,-2.9 3.1,-4.8 3.1,-5.9 C 58.7,101.5 52.1,77.7 51,74.8 Z"
         id="path1016" />
      <path
         style="fill:#762c07"
         d="m 33.8,34.9 c 0,0 3.5,-11.5 16.4,-9.1 8.1,1.5 10.4,10.5 9.6,16.7 -0.7,6.2 -3.3,9.9 -2.1,12.9 2.3,5.6 1,9.4 -1.6,12.7 C 51.8,73.6 43,76.3 44,65.2 44.7,56.6 38.9,52.8 40.9,43.7 42.1,38 39.8,35.5 37.3,36 36.4,34.1 35.4,33.4 33.8,34.9 Z"
         id="path1018" />
    </g>
    <g
       transform="matrix(0.26458333,0,0,0.26458333,108.50088,119.61909)"
       id="g1080">
      <path
         style="opacity:0.2"
         d="m 63.6,114.3 c -14.1,9.1 -38.5,17.2 -16.5,30.7 20.5,12.5 40.7,-4.1 55.2,-11.8 21.3,-11.3 32.2,-21.2 19.2,-29.4 -13.4,-8.4 -49.5,5.1 -57.9,10.5 z"
         id="path1062" />
      <path
         style="fill:#825012"
         d="m 88.4,90.5 c 0,0 8.9,2.3 8.9,4.9 0,1.4 0,5.8 0,7 0,2.2 -4.6,3.8 -4.6,6 0,2.9 5.7,4.7 7.3,4.3 1.6,-0.4 2.5,-1.2 2.5,-4 0,-2.8 1,-14.5 1.4,-18.1 0.4,-3.6 -1.1,-14.8 -1.1,-14.8 z"
         id="path1064" />
      <path
         style="opacity:0.2"
         d="m 88.4,90.5 c 0,0 8.9,2.3 8.9,4.9 0,1.4 0,5.8 0,7 0,2.2 -4.6,3.8 -4.6,6 0,2.9 5.7,4.7 7.3,4.3 1.6,-0.4 2.5,-1.2 2.5,-4 0,-2.8 1,-14.5 1.4,-18.1 0.4,-3.6 -1.1,-14.8 -1.1,-14.8 z"
         id="path1066" />
      <path
         style="fill:#825012"
         d="m 21.6,54.3 c 1.6,-0.6 7.9,-2.8 8,-4 0.1,-1.2 0,-3.1 1.5,-3.8 1.5,-0.7 2.8,-4.2 4.6,-4.5 1.8,-0.4 2.8,0.1 6.3,1.2 3.5,1.1 7.7,3.4 10.4,5.3 2.8,2 4.1,4 5.9,6.7 1.8,2.7 2.4,3.5 2.1,4.2 -0.3,0.7 -0.8,0.3 -0.4,1.5 0.6,1.6 0.9,3.7 3,4.3 7.1,1.9 23.5,-9.6 27.8,-10.9 10.1,-3.3 19.9,1.8 25,6 3.3,2.7 6.5,10.1 8.9,14.9 2.4,4.8 6.7,5.4 6.3,7.5 -0.2,0.9 -1.5,1.5 -4.1,0.5 -3.3,-1.3 -10.5,-9.4 -10.5,-9.4 0,0 1,3 -0.5,7 -1.5,4 -3.8,10.5 -1.7,12.7 2,2.1 4.6,4.5 4.9,6.7 0.3,2.2 1.2,18.2 1.2,19 0,0.8 -0.5,2.3 -2,2.8 -4.5,1.5 -10.1,-1.7 -9.3,-4.5 0.8,-2.8 4,-2.1 4,-6.3 0,-1.5 -0.4,-6 -0.7,-6.9 -0.4,-1.2 -1.7,-2.4 -3.3,-3 -1.4,-0.5 -7.3,-3.8 -8.5,-7.5 -1.2,-3.7 -1.7,-7.9 -3.7,-8.2 -2,-0.6 -8.8,10.6 -14.5,14.4 -5.7,3.8 -9.5,4.1 -9.5,4.1 0,0 -1.1,18.6 -1.1,22.2 0,3.6 2.6,7.4 3,9.8 0.4,2.5 1,6.8 -2.1,8.8 -3.7,2.4 -8.4,0.2 -9.5,-1.1 -1,-1.3 -1.2,-3.7 0.4,-5.2 1.5,-1.5 3.3,-2.7 2.8,-3.4 -0.5,-0.7 -2.5,-4.1 -2.9,-6.2 -0.5,-3.3 -1,-17.2 -4.9,-19.6 -1.2,-0.7 -4.1,-1.1 -4.9,0.1 -0.8,1.3 -0.7,8.7 -0.7,9.9 0,1.9 2.8,6 2.8,9.3 0,3.3 -1.2,5.1 -4.1,6.1 -2.3,0.8 -5.4,0.2 -7.7,-2.7 -1.5,-1.9 -0.3,-4 1.2,-4.9 1,-0.6 2.3,-0.8 2.4,-2.1 0.1,-1.3 -1.8,-3.2 -1.8,-5.6 0,-2.4 -1,-12 -1,-13.2 0,-3.9 -6.4,-7.6 -8.8,-15.6 C 34.7,86.8 35.6,82.3 35.3,79 35.3,76.8 34.8,67.8 31,67 29.6,66.7 23.4,66.8 21.7,64.9 20.4,63.5 19.6,61.6 20,59.4 c 0.4,-2.3 1.6,-5.1 1.6,-5.1 z"
         id="path1068" />
      <path
         style="fill:#262626"
         d="m 41.3,56.5 c 0,0 -0.7,-1.9 -2.4,-2.9 -1.6,-0.9 -3.2,0.9 -1.2,2.4 1.8,1.4 3.6,0.5 3.6,0.5 z"
         id="path1070" />
      <path
         style="fill:#262626"
         d="m 25.7,57.1 c 0.2,-1.8 -1,-2.7 -3.3,-3.2 -1.4,-0.3 -3,0.5 -3,2.3 0,2.5 2.1,4.4 2.1,4.4 0,0 3.8,0 4.2,-3.5 z"
         id="path1072" />
      <path
         style="fill:#262626"
         d="m 29.8,48.5 c 0,0 1.2,0.6 0.3,1.5 -0.8,1.1 -0.3,-1.5 -0.3,-1.5 z"
         id="path1074" />
      <path
         style="fill:#262626"
         d="m 34.6,73.3 c 0,0 2.8,1.6 7.3,1.6 4.5,0 8.4,-1.8 10.6,-3.9 2.2,-2.1 8.1,-8.5 8.1,-8.5 l 2,2.1 c 0,0 -7,8.9 -10,10.7 -3.1,1.8 -6.3,3.4 -10.8,3.3 -4.5,-0.1 -6.6,-1.5 -6.6,-1.5 z"
         id="path1076" />
      <path
         style="opacity:0.2"
         d="m 46.7,54.8 c 0,0 -4.9,18.4 0.8,18.2 2.9,-0.1 12.3,-13.1 12.3,-13.1 0,0 -5.6,16.4 -13.4,16.5 -7.7,0.1 0.3,-21.6 0.3,-21.6 z"
         id="path1078" />
    </g>
  </g>
  <path
     style="fill:#000000;fill-opacity:1;fill-rule:nonzero;stroke:none;stroke-width:0.264583"
     id="path1"
     d="m 112.98494,14.286399 c 1.52282,-0.0096 3.04477,-0.08727 4.56371,-0.193434 1.11408,-0.101489 2.23063,-0.153325 3.34884,-0.171416 0.51737,-0.0052 0.2653,-0.0032 0.75623,-0.0062 0.62224,-0.0038 0.61686,-0.883787 -0.005,-0.879984 v 0 c -0.49624,0.003 -0.2412,10e-4 -0.76512,0.0063 -1.13392,0.01844 -2.26621,0.07073 -3.39596,0.173444 -1.4985,0.104836 -2.99999,0.181668 -4.50232,0.191291 -0.62226,0 -0.62226,0.88 0,0.88 z" />
  <path
     style="fill:#000000;fill-opacity:1;fill-rule:nonzero;stroke:none;stroke-width:0.264583"
     id="path2"
     d="m 117.68972,13.909809 c 0.40936,-0.470259 0.7545,-0.992018 1.10425,-1.506875 0.50507,-0.761327 0.96561,-1.561137 1.28094,-2.4215412 0.0537,-0.1465715 0.0978,-0.2965008 0.14669,-0.4447513 0.16948,-0.5508152 0.22685,-1.1264151 0.0882,-1.6910561 -0.0825,-0.3357853 -0.14481,-0.4243226 -0.29331,-0.7321949 -0.27819,-0.500493 -0.63258,-0.9660472 -1.05962,-1.3508036 -0.0732,-0.065988 -0.15164,-0.1259686 -0.22746,-0.1889531 -0.37234,-0.2658605 -0.80867,-0.4955525 -1.27649,-0.5142504 -0.10785,-0.00431 -0.2156,0.010837 -0.3234,0.016258 -0.11027,0.026577 -0.2234,0.043192 -0.33079,0.079729 -0.48543,0.1651513 -0.90546,0.5063204 -1.24475,0.8834034 -0.0871,0.09678 -0.16496,0.2015213 -0.24743,0.3022817 -0.36257,0.5139497 -0.64953,1.0981586 -0.74048,1.7252854 -0.0202,0.1393957 -0.0227,0.2807904 -0.0341,0.4211854 -0.0153,0.5435425 0.0416,1.0860241 0.1876,1.6103297 0.0601,0.215936 0.18457,0.568661 0.25848,0.78388 0.2128,0.611283 0.50286,1.190205 0.83903,1.741961 0.18961,0.291787 0.38364,0.581013 0.60219,0.852067 0.0644,0.09629 0.14494,0.178843 0.22591,0.260881 0.44234,0.437653 1.06127,-0.187903 0.61894,-0.625556 v 0 c -0.061,-0.05712 -0.115,-0.119277 -0.16126,-0.189503 -0.19561,-0.239514 -0.36426,-0.499063 -0.5348,-0.756624 -0.30422,-0.496553 -0.56512,-1.018695 -0.75779,-1.56924 -0.0581,-0.168962 -0.18578,-0.532818 -0.23587,-0.7068309 -0.12523,-0.4350282 -0.17333,-0.8860329 -0.16471,-1.3380698 0.006,-0.1027126 0.006,-0.2060263 0.0185,-0.308138 0.0606,-0.4876837 0.28749,-0.9418505 0.56083,-1.3442447 0.32363,-0.403499 0.69082,-0.8071248 1.20883,-0.9424883 0.0486,-0.0068 0.0967,-0.019518 0.14575,-0.020423 0.30135,-0.00556 0.58691,0.1589264 0.82785,0.3209328 0.42673,0.3465612 0.79038,0.7649738 1.0563,1.2472414 0.0417,0.081302 0.0888,0.1600388 0.12513,0.2439057 0.21224,0.4906909 0.18949,1.011383 0.0325,1.5149893 -0.11918,0.3663389 -0.13665,0.448428 -0.29394,0.8105025 -0.27975,0.643981 -0.6362,1.252288 -1.02544,1.835439 -0.33114,0.487727 -0.65685,0.983056 -1.04441,1.428576 -0.40495,0.472451 0.26319,1.045147 0.66815,0.572697 z"
     sodipodi:nodetypes="ccscccccscsscsccccccsscccsccccsccccscccc" />
  <path
     style="fill:#000000;fill-opacity:1;fill-rule:nonzero;stroke:none;stroke-width:0.264583"
     id="path3"
     d="m 144.35231,16.846523 c 0.32902,-0.427161 0.75593,-0.776192 1.16174,-1.12553 0.29266,-0.251934 1.29828,-1.096075 1.5788,-1.331979 1.0105,-0.858298 0.51704,-0.442656 1.47985,-1.247565 0.4774,-0.399114 -0.087,-1.074255 -0.56443,-0.675142 v 0 c -0.96696,0.808425 -0.47287,0.392214 -1.4818,1.2492 -0.2737,0.230173 -1.31109,1.100963 -1.59402,1.345075 -0.44444,0.383474 -0.90676,0.768287 -1.2673,1.236209 -0.38872,0.485899 0.29844,1.035631 0.68716,0.549732 z" />
  <path
     style="fill:#000000;fill-opacity:1;fill-rule:nonzero;stroke:none;stroke-width:0.264583"
     id="path4"
     d="m 147.95928,13.113067 c 0.2926,0.551523 0.71437,1.017785 1.11812,1.488663 0.44711,0.509617 0.89543,1.017988 1.32657,1.541248 0.19933,0.237017 0.37498,0.492111 0.55631,0.742701 0.0861,0.112841 0.16928,0.227667 0.25876,0.337887 0.39443,0.481274 1.07506,-0.07653 0.68063,-0.557808 v 0 c -0.0796,-0.09565 -0.14966,-0.198545 -0.22668,-0.296268 -0.1923,-0.265239 -0.37851,-0.535302 -0.58989,-0.786136 -0.43485,-0.52767 -0.88658,-1.040709 -1.3377,-1.554488 -0.35703,-0.41625 -0.73358,-0.825721 -0.99902,-1.309347 -0.27828,-0.556561 -1.06538,-0.163013 -0.7871,0.393548 z" />
  <path
     style="fill:#000000;fill-opacity:1;fill-rule:nonzero;stroke:none;stroke-width:0.264583"
     id="path5"
     d="m 148.48328,12.294444 c -0.20788,-0.150323 -0.39579,-0.327885 -0.57665,-0.509201 -0.39191,-0.411213 -0.74497,-0.856361 -1.07363,-1.319039 -0.28618,-0.4219 -0.52354,-0.8740738 -0.73675,-1.3363649 -0.12725,-0.3000944 -0.23427,-0.6175288 -0.21778,-0.9486636 0.003,-0.062515 0.0186,-0.1238057 0.0278,-0.1857086 0.0742,-0.4131305 0.25811,-0.7056329 0.5984,-0.9542995 0.0722,-0.052729 0.15111,-0.095467 0.22667,-0.1432007 0.47519,-0.2530964 1.01239,-0.3126567 1.54208,-0.2457113 0.1149,0.014523 0.22809,0.040346 0.34213,0.060519 0.38197,0.098735 0.77305,0.2058069 1.12067,0.3988612 0.14506,0.080563 0.19104,0.1297387 0.31585,0.2353678 0.0336,0.045512 0.0718,0.087906 0.1007,0.1365369 0.21118,0.3557818 0.1819,0.7800761 0.15155,1.1747817 -0.0833,0.7110661 -0.40645,1.358299 -0.72692,1.988322 -0.15014,0.274218 -0.30904,0.545104 -0.4979,0.794885 -0.14245,0.188391 -0.30586,0.358495 -0.4676,0.529975 -0.16174,0.168301 -0.33335,0.326625 -0.51229,0.476334 -0.47625,0.400482 0.0901,1.074002 0.56637,0.67352 v 0 c 0.20426,-0.172469 0.40183,-0.352771 0.58643,-0.546413 0.11838,-0.12579 0.24162,-0.253549 0.35299,-0.385559 0.29604,-0.350883 0.54112,-0.739804 0.75672,-1.144472 0.37271,-0.735857 0.73589,-1.4932547 0.82004,-2.3250308 0.0198,-0.304663 0.0422,-0.4556107 0.0111,-0.7616137 -0.0373,-0.3668379 -0.14685,-0.7279685 -0.35981,-1.032492 -0.0656,-0.093741 -0.14942,-0.1732452 -0.22413,-0.259868 -0.21473,-0.1718601 -0.2514,-0.2166593 -0.49607,-0.3494209 -0.42018,-0.2279875 -0.88889,-0.3583585 -1.35001,-0.4712353 -0.36809,-0.060708 -0.49786,-0.097183 -0.87421,-0.098101 -0.57581,-0.0014 -1.13786,0.1299062 -1.6399,0.4147026 -0.27868,0.1870822 -0.38383,0.2350786 -0.61611,0.4811501 -0.32991,0.3495128 -0.52723,0.7774594 -0.60076,1.2500912 -0.0109,0.1103683 -0.0297,0.2202397 -0.0327,0.3311046 -0.0121,0.443593 0.12571,0.8722841 0.29785,1.2746836 0.23661,0.5114626 0.50009,1.0115896 0.8186,1.4774926 0.35815,0.502601 0.74194,0.986915 1.16982,1.432539 0.22261,0.220343 0.45188,0.437997 0.70935,0.617732 0.51775,0.345165 1.00589,-0.38704 0.48814,-0.732204 z" />
  <path
     style="fill:#000000;fill-opacity:1;fill-rule:nonzero;stroke:none;stroke-width:0.264583"
     d="m 130.19937,34.003419 c -0.0486,-0.410257 -0.0627,-0.820279 -0.14087,-1.224364 -0.11558,-0.561052 -0.25014,-1.120569 -0.48562,-1.645462 -0.30679,-0.715881 -0.66376,-1.410817 -1.08534,-2.066431 -0.43451,-0.679537 -0.88942,-1.348896 -1.44301,-1.938816 -0.23873,-0.253503 -0.29417,-0.318984 -0.54969,-0.562766 -0.42692,-0.407324 -0.88554,-0.779703 -1.34214,-1.152776 -0.66257,-0.520294 -1.33973,-1.021785 -1.993,-1.553821 -0.60937,-0.485831 -1.22628,-0.962793 -1.81391,-1.475189 -0.52482,-0.467871 -1.03725,-0.950936 -1.46834,-1.509252 -0.4615,-0.620586 -0.86946,-1.276715 -1.21485,-1.96943 -0.31601,-0.641371 -0.59314,-1.301423 -0.72449,-2.00843 -0.1277,-0.648385 -0.23504,-1.301485 -0.23978,-1.964352 v -0.919083 c 0,-0.622254 -0.88,-0.622254 -0.88,0 l -5.1e-4,2e-6 v 0.919083 c 0.004,0.7199 0.11816,1.429705 0.2563,2.134045 0.12789,0.640476 0.34004,1.258934 0.61411,1.851108 0.0586,0.126536 0.12268,0.250425 0.18403,0.375638 0.31864,0.619739 0.66444,1.226079 1.06785,1.795028 0.0746,0.10515 0.15342,0.207181 0.23013,0.310771 0.46597,0.6072 1.02004,1.133589 1.58927,1.641587 0.59938,0.523613 1.22906,1.010569 1.85108,1.506541 0.65486,0.533514 1.33386,1.036177 1.99809,1.557848 0.43811,0.358756 0.87924,0.715655 1.2888,1.107339 0.23468,0.224433 0.2866,0.28584 0.50547,0.518956 0.51545,0.550611 0.93796,1.175861 1.34249,1.809724 0.39469,0.615256 0.73141,1.266391 1.01773,1.938485 0.21209,0.470665 0.32956,0.973558 0.43286,1.476912 0.0694,0.36389 0.0756,0.753689 0.138,1.104359"
     id="path14"
     sodipodi:nodetypes="cccccscccccccscccccccccccsccccc" />
  <path
     style="fill:#ff4400;fill-opacity:1;fill-rule:nonzero;stroke:none;stroke-width:0.264583"
     d="m 129.2807,33.64935 c 0.0352,0.341765 0.10693,1.093098 0.12953,1.435929 0.0157,0.249632 0.0235,0.49965 0.0291,0.749683 -1.9e-4,0.122431 -0.018,0.245923 -0.002,0.36815 0.006,0.04669 0.0179,0.09248 0.0268,0.138726 0.14589,0.604909 0.841,0.415758 0.85547,-0.206327 l 0.001,-0.04444 c 0.002,-0.09316 0.003,-0.0031 9.7e-4,-0.05498 -0.003,-0.09674 6.6e-4,-0.123937 -0.002,-0.220716 -0.006,-0.262885 -0.0142,-0.525751 -0.0308,-0.78821 -0.0226,-0.341839 -0.0931,-1.092323 -0.12933,-1.433006"
     id="path7"
     sodipodi:nodetypes="cccccsscccc" />
  <path
     style="fill:#000000;fill-opacity:1;fill-rule:nonzero;stroke:none;stroke-width:0.264583"
     d="m 134.83555,33.928685 c 0.0317,-0.113855 0.0715,-0.263673 0.11028,-0.377401 0.083,-0.243602 0.20339,-0.473776 0.33072,-0.696579 0.38081,-0.601756 0.70773,-0.867197 1.15329,-1.422997 0.33639,-0.416049 0.67317,-0.832694 1.0326,-1.229217 0.36866,-0.370803 0.77337,-0.701228 1.18779,-1.019643 0.6793,-0.531141 1.35097,-1.072222 2.01178,-1.626225 1.12269,-0.954844 2.24315,-1.917664 3.27449,-2.971985 0.6407,-0.694381 1.28322,-1.393355 1.81791,-2.17485 0.42055,-0.635449 0.80034,-1.298731 1.12974,-1.986164 0.26438,-0.586643 0.48018,-1.191598 0.66232,-1.808848 0.17831,-0.623814 0.34674,-1.251713 0.4801,-1.886753 0.0871,-0.469503 0.18415,-0.936853 0.27564,-1.405488 0.0798,-0.413116 0.16665,-0.824849 0.23438,-1.240245 0.0487,-0.284423 0.0894,-0.570624 0.0776,-0.860118 0,-0.622254 -0.88,-0.622254 -0.88,0 l 3e-5,3e-6 c 0.0114,0.2392 -0.0234,0.475023 -0.0647,0.709804 -0.0668,0.409788 -0.15243,0.815966 -0.2313,1.223483 -0.092,0.470831 -0.18944,0.940413 -0.2769,1.412133 -0.12907,0.607344 -0.28997,1.208269 -0.4609,1.80512 -0.17124,0.575741 -0.37007,1.141393 -0.61817,1.688455 -0.31112,0.643545 -0.66524,1.267056 -1.06113,1.862109 -0.51015,0.74137 -1.12214,1.404714 -1.73129,2.064519 -1.00838,1.027189 -2.10211,1.966628 -3.19792,2.898464 -0.65172,0.546002 -1.31375,1.079765 -1.98364,1.603277 -0.44399,0.339588 -0.8738,0.69618 -1.26902,1.091634 -0.38254,0.416703 -0.73808,0.857546 -1.09368,1.297194 -0.46714,0.58193 -0.81301,0.875415 -1.21243,1.50544 -0.15888,0.272172 -0.3046,0.555075 -0.40923,0.85307 -0.0545,0.15508 -0.0914,0.296519 -0.13581,0.454676"
     id="path15"
     sodipodi:nodetypes="ccccccccccccccccccccccccccccccc" />
  <path
     style="fill:#ff4400;fill-opacity:1;fill-rule:nonzero;stroke:none;stroke-width:0.264583"
     d="m 133.9881,33.691553 c -0.0957,0.352385 -0.25252,1.028267 -0.34703,1.380867 -0.0662,0.229256 -0.11015,0.462743 -0.13557,0.699733 -0.0105,0.105667 -0.016,0.211704 -0.0216,0.317709 -0.0326,0.6214 0.84623,0.667454 0.87879,0.04605 v 0 c 0.005,-0.09072 0.009,-0.181475 0.018,-0.271925 0.0195,-0.191304 0.0569,-0.379018 0.11043,-0.563914 0.0935,-0.349491 0.25074,-1.021878 0.34443,-1.371388"
     id="path8"
     sodipodi:nodetypes="ccccssccc" />
  <path
     style="fill:#ff4400;fill-opacity:1;fill-rule:nonzero;stroke:none;stroke-width:0.264583"
     id="path9"
     d="m 131.55105,36.74655 c -2e-5,0.31147 -0.002,0.622911 0.004,0.934336 0.0106,0.451332 -0.002,0.620107 0.0346,1.069851 0.018,0.229137 0.0406,0.457859 0.0551,0.687265 0.007,0.118899 0.0117,0.237922 0.0151,0.356971 0.0183,0.621985 0.87962,-0.02588 0.87962,-0.02588 v 0 c 0,0 -0.009,-0.25803 -0.0165,-0.38689 -0.015,-0.234759 -0.0376,-0.468868 -0.0563,-0.703339 -0.0353,-0.431329 -0.0214,-0.581649 -0.0318,-1.014497 -0.006,-0.305914 -0.004,-0.611852 -0.004,-0.917813 0,-0.622255 -0.88,-0.622255 -0.88,0 z"
     sodipodi:nodetypes="cccccsscccscc" />
  <path
     style="fill:#000000;fill-opacity:1;fill-rule:nonzero;stroke:none;stroke-width:0.264583"
     id="path10"
     d="m 131.66015,39.776302 c -0.0169,0.259945 -0.0506,0.518657 -0.0849,0.776806 -0.062,0.41243 -0.0623,1.200674 -0.0871,1.616567 -0.0301,0.568849 -0.0416,1.138483 -0.0512,1.70798 -0.009,0.611188 -0.0107,1.222444 -0.0126,1.833679 -0.005,0.542375 0.005,1.084898 -0.008,1.627167 -0.0148,0.356896 -0.0164,0.714356 -0.0376,1.070991 -0.0117,0.196371 -0.0276,0.392467 -0.041,0.588721 -0.0419,0.605711 -0.0793,1.211665 -0.10584,1.818251 -0.0224,0.42666 -0.0198,0.854192 -0.0393,1.280891 -0.0163,0.294809 -0.0348,0.589491 -0.0494,0.884393 -0.006,0.127558 -0.003,0.06523 -0.008,0.186971 -0.0246,0.621768 0.85474,0.656524 0.87932,0.03475 v 0 c 0.005,-0.115456 0.002,-0.05606 0.008,-0.178173 0.0147,-0.296299 0.0334,-0.59237 0.0496,-0.888584 0.0188,-0.427051 0.0178,-0.8548 0.0394,-1.281809 0.0262,-0.599334 0.0632,-1.198036 0.10461,-1.796505 0.0139,-0.202488 0.0302,-0.40482 0.0421,-0.607435 0.0214,-0.363805 0.0234,-0.728417 0.0383,-1.092486 0.0122,-0.548034 0.004,-1.096283 0.008,-1.64442 0.002,-0.607224 0.004,-1.214469 0.0125,-1.821643 0.009,-0.557003 0.0205,-1.114139 0.0497,-1.670513 0.0235,-0.394671 0.0217,-1.161745 0.081,-1.553096 0.036,-0.272341 0.0714,-0.545235 0.0895,-0.819428 0.0517,-0.620106 -0.82528,-0.693184 -0.87696,-0.07308 z"
     sodipodi:nodetypes="ccccccscccccssccccccccccccc" />
  <path
     style="fill:#000000;fill-opacity:1;fill-rule:nonzero;stroke:none;stroke-width:0.264583"
     id="path11"
     d="m 131.49496,52.833497 c -0.17228,-5.29e-4 -0.34455,0.0024 -0.51674,-0.0038 -0.30961,-0.01863 -0.61736,-0.05959 -0.92679,-0.0826 -0.5644,-0.03759 -1.12942,-0.01423 -1.69341,0.01579 -0.41493,0.02135 -0.82886,0.05762 -1.24368,0.08091 -0.36748,0.0195 -0.73546,0.025 -1.10337,0.02927 -0.47423,0.0044 -0.94849,0.0053 -1.42274,0.006 -0.51731,-0.0087 -1.03359,0.0057 -1.55005,0.03334 -0.46967,0.03608 -0.93987,0.06258 -1.41066,0.07785 -0.57762,0.01561 -1.15547,0.02045 -1.73327,0.02455 -0.52353,0.0035 -1.04707,0.0042 -1.5706,0.0048 -0.53541,5.29e-4 -1.07083,7.94e-4 -1.60624,7.94e-4 -0.44196,8.2e-5 -0.88391,1.03e-4 -1.32587,1.19e-4 -0.40013,1e-5 -0.80027,1.3e-5 -1.2004,1.6e-5 -0.35531,2e-6 -0.71061,2e-6 -1.06591,2e-6 -0.40487,-0.0016 -0.80979,0.0039 -1.2146,-0.004 -0.45842,-0.01442 -0.91694,-0.02384 -1.37554,-0.03037 -0.42967,-0.006 -0.85938,-0.0084 -1.28909,-0.01005 -0.35518,0.01011 -0.70807,-0.02429 -1.06096,-0.05827 -0.30617,-0.03746 -0.614,-0.06341 -0.9183,-0.114498 -0.3409,-0.05915 -0.6851,-0.107561 -1.0218,-0.188045 -0.21116,-0.05742 -0.42136,-0.12474 -0.61381,-0.230494 -0.12158,-0.06945 -0.21269,-0.173176 -0.29946,-0.280633 -0.11406,-0.138311 -0.23253,-0.273183 -0.33354,-0.42149 -0.10602,-0.133217 -0.18259,-0.284943 -0.25046,-0.440184 -0.0653,-0.151093 -0.0923,-0.314566 -0.10315,-0.477814 -0.0167,-0.16511 0.004,-0.324937 0.0439,-0.484801 0.049,-0.174694 0.12197,-0.293304 0.23775,-0.430731 0.15132,-0.164804 0.37096,-0.234762 0.58214,-0.286819 0.34663,-0.07399 0.70062,-0.100804 1.05372,-0.121301 0.32887,-0.01341 0.65812,-0.02664 0.98732,-0.02156 0.27254,-0.0123 0.49763,0.06646 0.74785,0.16015 0.28458,0.124542 0.55761,0.273529 0.83033,0.421754 0.21224,0.128421 0.43796,0.236447 0.63788,0.384148 0.16517,0.137348 0.32856,0.27658 0.48956,0.418801 0.0745,0.0671 0.13823,0.145127 0.2001,0.223713 0.38786,0.486585 1.076,-0.06193 0.68814,-0.548515 v 0 c -0.0948,-0.11797 -0.19233,-0.23477 -0.30612,-0.335158 -0.18304,-0.161243 -0.36783,-0.320384 -0.55794,-0.473311 -0.23311,-0.164949 -0.48384,-0.300977 -0.7314,-0.442862 -0.30902,-0.16795 -0.61867,-0.336719 -0.94324,-0.473168 -0.34651,-0.128619 -0.66813,-0.225695 -1.04277,-0.215463 -0.35046,-0.0046 -0.70094,0.0076 -1.05105,0.02297 -0.41097,0.02416 -0.82297,0.05728 -1.22543,0.148542 -0.0745,0.02024 -0.14999,0.03684 -0.22336,0.06071 -0.31155,0.10137 -0.60261,0.275066 -0.81892,0.522703 -0.18685,0.23482 -0.3385,0.487775 -0.41076,0.782148 -0.0576,0.249274 -0.0897,0.501467 -0.0649,0.757674 0.0228,0.262668 0.068,0.524079 0.17663,0.766461 0.0917,0.203245 0.19154,0.404243 0.32937,0.580903 0.1162,0.167584 0.24624,0.324242 0.37761,0.480118 0.16262,0.196747 0.34164,0.378301 0.5688,0.500907 0.26175,0.135633 0.53803,0.238302 0.82441,0.309374 0.3565,0.08233 0.7187,0.139237 1.07945,0.199544 0.32413,0.05269 0.65108,0.08423 0.97718,0.122179 0.37973,0.03655 0.75967,0.07209 1.14179,0.06231 0.42669,0.0016 0.85339,0.004 1.28005,0.01 0.45717,0.0065 0.91426,0.01598 1.37126,0.0303 0.41042,0.0077 0.82093,0.0029 1.23141,0.0041 0.3553,0 0.7106,0 1.0659,-3e-6 0.40014,0 0.80029,-3e-6 1.20043,-1.6e-5 0.44201,-1.6e-5 0.88403,-3.4e-5 1.32604,-1.19e-4 0.53568,-1.19e-4 1.07135,-2.65e-4 1.60703,-7.94e-4 0.52529,-5.29e-4 1.05058,-0.0013 1.57586,-0.0048 0.58526,-0.0042 1.17058,-0.0091 1.75566,-0.025 0.47692,-0.01561 0.95329,-0.04183 1.42907,-0.07864 0.50128,-0.02685 1.00231,-0.04084 1.50443,-0.03209 0.47718,-7.94e-4 0.95437,-0.0016 1.43153,-0.0061 0.38099,-0.0044 0.76205,-0.01029 1.14259,-0.0306 0.41394,-0.02334 0.82701,-0.05914 1.24105,-0.08076 0.52686,-0.02809 1.05461,-0.05132 1.58192,-0.01693 0.32126,0.02344 0.64059,0.0682 0.96229,0.08449 0.18194,0.0057 0.36389,0.0045 0.54592,0.0043 0.62225,0 0.62225,-0.880001 0,-0.880001 z" />
  <path
     style="fill:#000000;fill-opacity:1;fill-rule:nonzero;stroke:none;stroke-width:0.264583"
     id="path12"
     d="m 123.3584,53.501374 c 0.29249,-0.300956 0.59051,-0.595548 0.89832,-0.880859 0.42336,-0.40591 0.87581,-0.778743 1.3222,-1.158451 0.32586,-0.297254 0.67188,-0.570447 1.01064,-0.852475 0.47983,-0.384894 0.9247,-0.810212 1.37289,-1.230794 0.33038,-0.305342 0.65223,-0.619892 0.98257,-0.925253 0.21536,-0.196763 0.43697,-0.386572 0.65992,-0.574651 0.22574,-0.196313 0.45859,-0.384141 0.68566,-0.57889 0.21245,-0.190682 0.42492,-0.381807 0.64645,-0.561956 0.18226,-0.147487 0.36351,-0.295519 0.53155,-0.459216 0.13701,-0.138737 0.28156,-0.269846 0.41764,-0.409427 0.43103,-0.448789 -0.20365,-1.058363 -0.63468,-0.609574 v 0 c -0.12731,0.136472 -0.27182,0.256799 -0.40054,0.392102 -0.14611,0.146616 -0.31123,0.271481 -0.46987,0.403937 -0.22696,0.185277 -0.44607,0.380071 -0.66359,0.576283 -0.22512,0.193249 -0.45629,0.37927 -0.68005,0.57412 -0.23319,0.19672 -0.46488,0.395361 -0.69004,0.601265 -0.33171,0.30702 -0.65538,0.622708 -0.98723,0.929593 -0.43548,0.408736 -0.86745,0.82242 -1.33385,1.196268 -0.34102,0.284139 -0.68957,0.559155 -1.01774,0.858452 -0.45582,0.387966 -0.91782,0.768926 -1.35031,1.183428 -0.31576,0.292973 -0.62208,0.594908 -0.92219,0.903846 -0.44,0.439999 0.18225,1.062254 0.62225,0.622252 z" />
  <path
     style="fill:#000000;fill-opacity:1;fill-rule:nonzero;stroke:none;stroke-width:0.264583"
     id="path13"
     d="m 127.30833,51.933937 c 0.46315,-0.404497 0.89766,-0.840023 1.33913,-1.267647 0.36346,-0.349764 0.73139,-0.694725 1.11834,-1.018456 0.2193,-0.177538 0.43919,-0.354414 0.65636,-0.534567 0.0553,-0.04194 0.10777,-0.08736 0.161,-0.131852 0.47742,-0.399079 -0.087,-1.074261 -0.56438,-0.675182 v 0 c -0.0524,0.04384 -0.10402,0.08877 -0.15866,0.129905 -0.21807,0.181123 -0.43931,0.358407 -0.65938,0.537078 -0.40283,0.337761 -0.7872,0.69611 -1.16554,1.060989 -0.2739,0.265311 -0.54481,0.533898 -0.82181,0.795983 -0.30464,0.288232 -0.14485,0.132654 -0.41668,0.381598 -0.048,0.04395 -0.095,0.08897 -0.14247,0.133461 -0.41627,0.462519 0.23783,1.051208 0.65409,0.58869 z" />
  <path
     style="fill:#000000;fill-opacity:1;fill-rule:nonzero;stroke:none;stroke-width:0.264583"
     id="path6"
     d="m 108.86599,53.727672 c -0.008,0.221187 -0.0107,0.442558 -0.0135,0.663869 -0.005,0.418031 -0.007,0.836083 -0.01,1.254133 -0.006,0.469247 -0.002,0.938419 0.0261,1.406909 0.027,0.372853 0.0593,0.74904 0.15035,1.11284 0.0189,0.07563 0.0429,0.149884 0.0644,0.224824 0.096,0.299133 0.23446,0.581494 0.42224,0.8338 0.11504,0.154578 0.17621,0.212831 0.30647,0.352968 0.21249,0.211621 0.44596,0.403013 0.70055,0.562075 0.14959,0.09346 0.22581,0.129331 0.38048,0.209735 0.32428,0.165571 0.66386,0.296881 1.01507,0.391737 0.22562,0.05298 0.45812,0.08775 0.69059,0.0764 0.14472,-0.0071 0.20863,-0.02186 0.34791,-0.04542 0.39248,-0.08032 0.70244,-0.289674 1.00917,-0.535533 0.23338,-0.202565 0.43869,-0.435644 0.6113,-0.691978 0.10382,-0.154162 0.17112,-0.277571 0.26314,-0.437689 0.2361,-0.424858 0.40627,-0.880621 0.54814,-1.344158 0.13948,-0.478964 0.21477,-0.972701 0.27944,-1.466302 0.0542,-0.469688 0.098,-0.940485 0.14735,-1.410713 0.0343,-0.319879 0.0645,-0.640366 0.0741,-0.962028 0.003,-0.117409 -2.6e-4,-0.234807 -0.004,-0.352145 -0.0197,-0.621942 -0.89928,-0.594042 -0.87955,0.0279 v 0 c 0.003,0.09981 0.007,0.199673 0.004,0.299553 -0.008,0.299263 -0.0388,0.597287 -0.0696,0.894901 -0.0485,0.462822 -0.0918,0.926187 -0.14473,1.388528 -0.058,0.44541 -0.12444,0.891196 -0.24865,1.323813 -0.1215,0.40082 -0.26763,0.795031 -0.46982,1.163027 -0.0686,0.120107 -0.13805,0.246202 -0.21436,0.361878 -0.12694,0.192447 -0.27801,0.368004 -0.45018,0.521338 -0.18101,0.148439 -0.37575,0.296701 -0.60718,0.352761 -0.0523,0.0096 -0.14509,0.0283 -0.20024,0.03228 -0.15511,0.01117 -0.31067,-0.01291 -0.46141,-0.04709 -0.29023,-0.07465 -0.56816,-0.189108 -0.83613,-0.322738 -0.11197,-0.05752 -0.18986,-0.09481 -0.29704,-0.160584 -0.19821,-0.121642 -0.37989,-0.268989 -0.54608,-0.431276 -0.11397,-0.120311 -0.22855,-0.240811 -0.31816,-0.381278 -0.0893,-0.139904 -0.15376,-0.294132 -0.20793,-0.450352 -0.0162,-0.0543 -0.0347,-0.107998 -0.0488,-0.162899 -0.0822,-0.320254 -0.10784,-0.652579 -0.13234,-0.981041 -0.0274,-0.449299 -0.0299,-0.89934 -0.0245,-1.349372 0.002,-0.415883 0.005,-0.831765 0.01,-1.24763 0.003,-0.225044 0.006,-0.450101 0.0136,-0.675042 0,-0.622252 -0.88,-0.622252 -0.88,0 z" />
  <path
     style="fill:#000000;fill-opacity:1;fill-rule:nonzero;stroke:none;stroke-width:0.264583"
     id="path16"
     d="m 111.7764,53.727672 c 0.003,0.178821 0.0163,0.357309 0.0245,0.535948 0.0179,0.412557 0.0272,0.825421 0.0357,1.238255 0.008,0.409649 0.0142,0.819346 0.0193,1.229048 0.004,0.33428 0.007,0.668565 0.01,1.002858 -0.002,0.29183 0.0106,0.58334 0.0231,0.874816 0.01,0.227483 0.0185,0.455017 0.0257,0.682601 0.006,0.182393 0.01,0.364821 0.0135,0.547259 10e-4,0.07345 0.003,0.146907 0.004,0.220363 0.0112,0.622152 0.8911,0.606256 0.87985,-0.0159 v 0 c -0.001,-0.07402 -0.003,-0.148037 -0.004,-0.222057 -0.004,-0.185835 -0.008,-0.371657 -0.0137,-0.557445 -0.007,-0.230881 -0.0161,-0.461709 -0.0261,-0.692486 -0.012,-0.281218 -0.0247,-0.562454 -0.0224,-0.844018 -0.003,-0.335611 -0.006,-0.671217 -0.01,-1.006814 -0.005,-0.412192 -0.0109,-0.824376 -0.0194,-1.236517 -0.009,-0.420354 -0.0182,-0.840737 -0.0365,-1.260806 -0.008,-0.165034 -0.0196,-0.329969 -0.0236,-0.495107 0,-0.622252 -0.88,-0.622252 -0.88,0 z" />
</svg>
