<?xml version="1.0" encoding="UTF-8" standalone="no"?>
<svg
   id="svg8"
   version="1.1"
   viewBox="0 0 158.75093 107.86843"
   height="107.86843mm"
   width="158.75093mm"
   sodipodi:docname="17.1 man and woman see cat and dog respectively.svg"
   inkscape:version="1.3.2 (091e20e, 2023-11-25, custom)"
   xml:space="preserve"
   xmlns:inkscape="http://www.inkscape.org/namespaces/inkscape"
   xmlns:sodipodi="http://sodipodi.sourceforge.net/DTD/sodipodi-0.dtd"
   xmlns="http://www.w3.org/2000/svg"
   xmlns:svg="http://www.w3.org/2000/svg"
   xmlns:rdf="http://www.w3.org/1999/02/22-rdf-syntax-ns#"
   xmlns:cc="http://creativecommons.org/ns#"
   xmlns:dc="http://purl.org/dc/elements/1.1/"><sodipodi:namedview
     id="namedview1"
     pagecolor="#ffffff"
     bordercolor="#000000"
     borderopacity="0.25"
     inkscape:showpageshadow="2"
     inkscape:pageopacity="0.0"
     inkscape:pagecheckerboard="0"
     inkscape:deskcolor="#d1d1d1"
     inkscape:document-units="mm"
     inkscape:zoom="1"
     inkscape:cx="264.99999"
     inkscape:cy="231.49999"
     inkscape:window-width="1920"
     inkscape:window-height="1051"
     inkscape:window-x="-9"
     inkscape:window-y="-9"
     inkscape:window-maximized="1"
     inkscape:current-layer="svg8" /><defs
     id="defs2" /><metadata
     id="metadata5"><rdf:RDF><cc:Work
         rdf:about=""><dc:format>image/svg+xml</dc:format><dc:type
           rdf:resource="http://purl.org/dc/dcmitype/StillImage" /><dc:title /></cc:Work></rdf:RDF></metadata><g
     transform="translate(-57.663674,-81.334284)"
     id="layer1"><g
       transform="matrix(0.26458333,0,0,0.26458333,75.433037,87.844366)"
       id="g853"><path
         style="fill:#fbd7c7"
         d="m 13.4,105 c 0,0 1,9.1 1.3,12.3 0.3,3.2 1.3,5.5 2.1,7.3 0.8,1.8 4.5,6.2 5,5.9 0.5,-0.3 -0.3,-2.1 -0.3,-2.5 0,-0.4 0.4,-1.7 -0.2,-2.5 -0.6,-0.7 -1.7,-4 -1.6,-4.7 0.1,-0.7 1.4,-0.9 1.5,-1.4 0.1,-0.5 0.1,-0.5 0.1,-0.5 0,0 -3.6,-6 -3.6,-8.6 0,-2.7 -0.1,-6.1 -0.1,-6.1 0,0 -0.6,-0.3 -2,0 -1.4,0.2 -2.2,0.8 -2.2,0.8 z"
         id="path815" /><path
         style="opacity:0.3;fill:#262626"
         d="m 28.1,216.9 c 0.6,1.8 -6.7,11.8 7.1,13.5 20.6,2.7 21.6,-13.7 29.3,-18.2 13.9,-8.1 -3.1,-14.1 -22.5,-14.1 -16.3,0.1 -30.5,1.9 -29.4,10.1 0.7,6.1 14.6,5.6 15.5,8.7 z"
         id="path817" /><path
         style="fill:#762c07"
         d="m 34,200.2 c 0,0 -1.6,1.2 -5.5,1.1 -3.9,-0.1 -7.3,-0.8 -11.4,1.5 -4.8,2.7 -1.2,7 0.1,7.4 1.3,0.4 18.1,0.9 21.2,0.7 3.1,-0.2 2.1,-8.2 2.1,-8.2 z"
         id="path819" /><path
         style="fill:#262626"
         d="m 39.4,209.1 c -1.5,0.1 -9,0.6 -13.5,0.5 -5,-0.1 -6.4,-0.5 -7.8,-1 -1.7,-0.6 -3.2,-1.4 -3.3,-3.1 -0.5,2.2 0.9,4.1 2.5,4.6 1.5,0.5 3.3,0.9 8.6,1.1 4.2,0.1 11.3,-0.3 12.6,-0.4 0.8,-0.1 1.4,-0.7 1.7,-1.6 -0.4,0.3 -0.5,-0.1 -0.8,-0.1 z"
         id="path821" /><path
         style="fill:#762c07"
         d="m 39.7,211 c 0,0 -3.9,4.4 -6.6,7.6 -2.7,3.2 -3.8,5.6 -3.6,7.9 0.2,2.3 3.5,3.4 8,3.4 4.5,0 9.3,-2.8 11.5,-5.9 2.3,-3.1 5.6,-5.9 5.6,-7.4 0,-1.5 -0.1,-6.2 -0.1,-6.2 z"
         id="path823" /><path
         style="fill:#262626"
         d="m 54.6,210.4 h -0.5 c 0,1.5 0.1,3.3 0.1,4.1 0,1.5 -3.4,4.3 -5.6,7.4 -2.3,3.1 -7,5.9 -11.5,5.9 -3.5,0 -6.3,-0.6 -7.4,-2 0,0.2 0,0.4 0,0.6 0.1,2.3 3.5,3.4 8,3.4 4.6,0 9.3,-2.8 11.5,-5.9 2.3,-3.1 5.6,-5.9 5.6,-7.4 -0.1,-1.4 -0.2,-6.1 -0.2,-6.1 z"
         id="path825" /><path
         style="fill:#3399cc"
         d="m 19.7,114.3 c 0,0 -0.5,13 1.6,23.9 2.1,10.9 9.5,26.4 9.5,31.1 0,4.7 2.3,19 2.1,22.8 -0.1,3.8 -0.9,8.6 -0.9,8.6 0,0 2.7,5 6.2,6.7 3.5,1.7 7.2,-0.4 7.2,-0.4 L 39,116.5 Z"
         id="path827" /><path
         style="opacity:0.2"
         d="m 19.7,114.3 c 0,0 -0.5,13 1.6,23.9 2.1,10.9 9.5,26.4 9.5,31.1 0,4.7 2.3,19 2.1,22.8 -0.1,3.8 -0.9,8.6 -0.9,8.6 0,0 2.7,5 6.2,6.7 3.5,1.7 7.2,-0.4 7.2,-0.4 L 39,116.5 Z"
         id="path829" /><path
         style="fill:#3399cc"
         d="m 31.1,119.4 c 0,0 0.3,14.3 -0.3,25.6 -0.5,11.3 2.3,21.7 3.4,25.3 1.1,3.6 1.5,9.7 1.5,15.2 0,5.5 0.2,26.2 1,27 0.8,0.8 5.2,3.6 10.9,4 4.3,0.3 9,-2.4 9,-3.1 0,-0.7 1.5,-16.4 0.3,-29.1 -1.2,-12.7 -3.8,-19.3 -3.6,-21.3 0.1,-2 3.1,-29.1 2.8,-34.7 -0.3,-5.6 -2,-18.4 -2,-18.4 z"
         id="path831" /><path
         style="fill:#ffcc00"
         d="m 17.9,69.4 c 0,0 -2.2,7.4 -3.6,17.6 -1.5,10.7 -0.7,25.3 -0.7,25.3 0,0 2.1,-1.6 6.2,-1.6 4.1,0 -1.9,-41.3 -1.9,-41.3 z"
         id="path833" /><path
         style="opacity:0.2"
         d="m 17.9,69.4 c 0,0 -2.2,7.4 -3.6,17.6 -1.5,10.7 -0.7,25.3 -0.7,25.3 0,0 2.1,-1.6 6.2,-1.6 4.1,0 -1.9,-41.3 -1.9,-41.3 z"
         id="path835" /><path
         style="fill:#fbd7c7"
         d="m 51.5,127 c 0,0 -0.4,2.9 -2.3,5.1 -1.9,2.1 -3.5,5.8 -3.5,7.3 0,2.1 0,3.9 0.9,4 1.8,0.2 1.1,-1.3 1.7,-1.3 0.6,0 0.3,2.6 3,2.7 3.5,0.1 8.5,-2.3 8.5,-4.6 0,-1.2 -0.5,-4.4 -0.9,-6.2 -0.5,-1.9 -0.5,-4.5 -0.5,-4.5 z"
         id="path837" /><path
         style="fill:#ffcc00"
         d="m 38.8,44 c 9.5,2.5 20.1,4.6 23.7,12.3 3.1,6.6 2.9,8.7 2.7,14.9 -0.3,6.2 -0.8,18.5 -0.5,22.5 0.3,4 -1.1,20.8 -2.3,26.4 -1.2,5.6 -1.6,10.3 -2.5,10.6 -0.9,0.3 -10.2,-0.9 -9.5,-2.3 0.9,-2 1.2,-7.6 1.2,-7.6 0,0 -4.4,5.4 -14.2,4 -9.8,-1.3 -18.2,-6.1 -19.1,-8.6 -0.4,-1.2 -0.6,-19.8 0.3,-24.8 0.9,-5 -2,-15.7 -2.1,-20.4 -0.1,-4.7 2.9,-17.4 3.1,-19.7 0.1,-3.4 4.2,-11.2 19.2,-7.3 z"
         id="path839" /><path
         style="opacity:0.2"
         d="m 51.5,120.9 c 0,0 0.7,-5.2 0.7,-9.8 0,-4.6 0.1,-11.3 -0.4,-13.9 C 51.3,94.5 49.6,85 49.3,82.5 48.6,76.4 49,72.7 49.5,71.4 c -2.4,4.1 -1,19 -0.3,25.2 0.9,8.7 -0.3,25.8 -0.6,26.6 -0.3,0.7 2.9,-2.3 2.9,-2.3 z"
         id="path841" /><path
         style="fill:#fbd7c7"
         d="m 42.5,38.2 c 0,0 0,5.2 0.9,6.1 0.9,0.9 3,1.3 2.3,2.6 -0.7,1.3 -8.1,9.7 -13.5,9.2 -5.3,-0.5 -4,-9.4 -4,-9.4 z"
         id="path843" /><path
         style="fill:#fbd7c7"
         d="m 22.8,26.5 c -2.2,2.8 -1.3,11 -0.3,14.7 1,3.7 2.2,5.9 2.7,7.3 0.4,1.4 1.9,3.6 3.9,3.5 2,-0.1 8.2,-4.1 10.1,-7.1 C 41,41.9 43.6,39 44,37 44.4,35 44.6,34.1 42.9,33.7 41.2,33.3 37.6,25.9 33,25.6 28.4,25.3 24.1,24.8 22.8,26.5 Z"
         id="path845" /><path
         style="fill:#825012"
         d="m 21.5,28.4 c -0.4,1.6 0.8,3.3 5.5,3.3 4.7,0 7.6,-2.3 8.1,-0.8 0.5,1.5 1.8,5.7 2.2,6.6 0.4,0.9 1,2 1.3,1.6 0.3,-0.4 1.8,-3.9 2.9,-4.7 1.1,-0.8 1.7,-0.8 1.7,-0.8 0,0 1.6,-8.3 -2,-12.6 C 37.6,16.7 25,15.6 21.5,28.4 Z"
         id="path847" /><path
         style="fill:#825012"
         d="m 25,46.6 c 0,0 0.7,-0.7 1.6,-0.8 0.4,0 1.3,0.1 1.9,0.2 0.8,0.2 2.7,1.1 2.7,1.1 0,0 -2.8,0 -3.7,-0.1 C 26.4,46.9 25,46.6 25,46.6 Z"
         id="path849" /><path
         style="fill:#825012"
         d="m 26.8,49 1.2,0.1 c 0,0 -0.2,0.6 0.6,1.3 0.8,0.7 2.9,0.8 2.9,0.8 0,0 -1.7,1.3 -3.2,0.9 -1.5,-0.4 -2.3,-1.8 -2.3,-1.8 0,0 0.5,-0.1 0.6,-0.5 0.2,-0.4 0.2,-0.8 0.2,-0.8 z"
         id="path851" /></g><g
       transform="matrix(-0.26458333,0,0,0.26458333,113.71507,86.463821)"
       id="g1020"><path
         style="fill:#762c07"
         d="m 33.8,34.9 c -0.6,1.9 -0.5,9.7 -1.2,14 -0.8,5.2 -7.1,24 2.1,18.1 9.2,-5.9 7,-33.5 3.1,-33.7 -3.1,-0.3 -3.4,-0.3 -4,1.6 z"
         id="path994" /><path
         style="opacity:0.2"
         d="m 24.8,206.2 c -11.8,7.6 -12.4,14.4 0,21 13.5,7.2 22.4,3.3 32.9,-2.7 10.5,-6 11.8,-13.4 -3.7,-19.5 -12.5,-5 -20.4,-4.5 -29.2,1.2 z"
         id="path996" /><path
         style="fill:#fbd7c7"
         d="m 28.8,82.2 c 0,0 -3.2,10.8 -5.9,19.1 -2.7,8.3 -4.4,13.8 -5.3,15.9 -0.9,2.1 -1.3,5.7 -0.8,7.3 0.5,1.6 2.3,5 3,5.7 1.7,1.6 4.4,1.2 4.8,0.8 0.4,-0.5 0.4,-2.2 -0.3,-2.9 -0.7,-0.7 -2.6,-3 -1.4,-6 1.2,-2.9 1,-4.2 1,-6 0,-1.5 -0.5,-1.7 0.7,-4.1 1.2,-2.5 6.9,-14.5 7.5,-16.2 0.6,-1.7 -3.3,-13.6 -3.3,-13.6 z"
         id="path998" /><path
         style="fill:#fbd7c7"
         d="m 42.8,54.7 c 0,0 -9.1,-4 -12.3,0.3 -3.2,4.3 -1.7,11 -1.7,11 0,0 -5.4,6.1 -5.4,9.4 0,3.3 5.1,6.5 5.1,6.5 0,0 0.6,15.8 -0.3,22.3 -0.9,6.5 -3.8,23.3 -3.1,33.9 0.7,10.6 1.6,25 1.9,29.2 0.3,4.1 2.2,10 3,14.8 0.9,4.8 4.1,13.2 0.9,19.6 -3.2,6.4 -6.1,9.3 -7.4,10.5 -1.3,1.2 0.2,5.2 3,4.5 2.8,-0.7 7.2,-7.1 9.9,-8.1 2.7,-1.1 7.2,-4 6,-7.7 -1.2,-3.6 -1.7,-2.2 -2,-5.3 -0.3,-3.1 2.2,-16.7 1.3,-22.8 -0.9,-6.1 -3.2,-7.8 -3.6,-8.8 -0.4,-1 5.7,-29.5 5.7,-29.5 0,0 1.2,27.3 1.1,30.2 -0.1,2.9 2.1,17.7 2.7,24.6 0.7,7 1,18.8 -2,22.9 -2.9,4.1 -8,10.3 -6,11.7 2,1.4 8.3,2.7 9.8,-0.9 1.5,-3.6 5.3,-11.1 6.7,-13.1 1.4,-2 1.9,-3.1 1,-5 -0.9,-1.9 -1.5,-5 -0.5,-10.3 1,-5.3 4.1,-14.7 3.3,-19.7 -0.8,-5 -3.2,-8.1 -2.9,-11.7 0.3,-3.5 8.1,-24.8 6.6,-39.7 C 62,108.7 54.6,106 53.3,100 52,94 56.3,86.1 58.5,81.8 60.7,77.6 63.8,70.2 61.1,67.6 58.4,64.9 55.2,63.2 54,61.2 52.8,59.2 51.5,53 51.5,53 Z"
         id="path1000" /><path
         style="fill:#cc291f"
         d="m 25.4,210.3 c 0,0 -4.9,1.7 -5.9,3.9 -0.8,1.8 -0.5,3.9 1.2,5 1.8,1 5.2,1.3 8.2,-0.4 2.9,-1.7 6.8,-8.4 7.5,-8.7 0.7,-0.3 0.2,3.7 0.2,3.7 l 2.1,1.1 2.3,-0.9 c 0,0 -0.2,-4.5 0.7,-6 0.9,-1.5 2.6,-3.9 2,-6.9 -0.6,-3 -2.6,-3.3 -2.6,-3.3 0,0 0,3.5 -4,7.3 -3.8,3.6 -5.9,9.6 -9.2,9.3 -4.5,-0.7 -2.5,-4.1 -2.5,-4.1 z"
         id="path1002" /><path
         style="fill:#cc291f"
         d="m 42.2,217.1 c 0,0 -4.6,3.5 -4.9,5.7 -0.3,2.2 -0.2,3.7 2.9,4.7 3.1,1 7.1,-0.2 9,-1.8 1.9,-1.6 4.4,-5.8 4.4,-5.8 l 2,1.1 2.3,-1.1 c 0,0 -0.3,-2.7 0.4,-5.1 0.7,-2.4 1.4,-4.4 1.4,-7.4 0,-3 -2.8,-3.3 -2.8,-3.3 0,0 1.7,1.6 -0.8,5.1 -2.5,3.5 -4.4,11.3 -8.1,11.5 -6.9,0.5 -5.8,-3.6 -5.8,-3.6 z"
         id="path1004" /><path
         style="fill:#28896d"
         d="m 60.8,110.8 c -2.7,-4.3 -5.3,-6.4 -5.4,-6.8 0,0 -6.4,3.9 -16.4,3.1 -10,-0.8 -10.6,-3.1 -10.6,-3.1 -1.4,6.7 -4.5,17.6 -5.5,21.1 -1.9,6.8 -6.1,18 -5.6,19 2.1,4.2 12.6,3.2 17.4,7.6 4.8,4.4 17.8,3.7 24,1.6 6.2,-2.1 9.4,-5.8 9.2,-6.5 -4.8,-18.7 -1.8,-27.6 -7.1,-36 z"
         id="path1006" /><path
         style="fill:#e5e5e5"
         d="m 27.7,82.8 c 0.3,0.6 3.1,5.5 3,11.7 0,2.9 -1.7,6.6 -2.7,9.6 7.4,6.7 22,3.9 27.6,0.3 -4.5,-6.7 1.9,-20.2 3,-22.4 2.2,-4.2 5.3,-11.6 2.6,-14.2 -2.7,-2.7 -5.9,-4.4 -7.1,-6.4 -1.2,-2 -2.5,-8.2 -2.5,-8.2 l -8.9,1.6 c 0,0 -3.6,-1.6 -7,-1.7 -2.2,2.1 -4.9,9.8 -7.4,12.7 -2.5,2.8 -5.4,5.4 -5.4,9.6 0,3.2 4.3,6.5 4.8,7.4 z"
         id="path1008" /><path
         style="fill:#fbd7c7"
         d="m 37.9,53.9 c 0,0 -8.9,14.8 -2.4,16.5 6.3,1.7 16,-8.7 16,-8.7 L 43.7,53 Z"
         id="path1010" /><path
         style="fill:#fbd7c7"
         d="m 40.2,54.9 c 0,0 -4.3,0.7 -4.9,-0.9 -0.7,-1.7 -4.4,-15.5 2.4,-24.1 6.8,-8.6 20.5,-3.1 20.5,6 0,8.1 -3.2,10.5 -4.7,14.5 -0.9,2.5 -1.6,5.8 -0.1,8.4 1.5,2.7 2.7,4 2.7,4 0,0 -7.6,4.6 -13.3,3.2 -5.7,-1.4 -0.2,-4.2 -1,-6.6 -0.7,-2.1 -1.6,-4.5 -1.6,-4.5 z"
         id="path1012" /><path
         style="opacity:0.15"
         d="M 23,76.1 C 26.1,82 35.5,86.6 49.6,83.5 48.8,85.8 28.5,91 23,76.1 Z"
         id="path1014" /><path
         style="fill:#fbd7c7"
         d="m 51,74.8 c -1.1,-2.9 -0.7,-10.2 5.3,-10.5 6,-0.3 6.7,5.7 7.2,13.6 0.5,7.9 3.5,20.7 3.7,23.3 0.2,2.6 -1.5,9.7 -5.6,16 -4.1,6.3 -6.9,11.4 -7.1,12.3 -0.2,1 -1.4,4.9 -3.1,6.1 -0.7,0.5 -1.5,1.2 -1.9,2.5 -0.4,1.3 0.5,2.4 0.7,2.7 0.3,0.7 -0.2,1.5 -1.4,2.2 -1.3,0.8 -3.2,-0.5 -4.2,-1.3 -0.7,-0.5 -2.5,-2.1 -2,-4.3 0.4,-1.6 1.7,-6.6 3.7,-7.8 2,-1.2 3.9,-2.7 4.6,-4.1 0.7,-1.4 2.2,-11.9 4.8,-17.2 1.4,-2.9 3.1,-4.8 3.1,-5.9 C 58.7,101.5 52.1,77.7 51,74.8 Z"
         id="path1016" /><path
         style="fill:#762c07"
         d="m 33.8,34.9 c 0,0 3.5,-11.5 16.4,-9.1 8.1,1.5 10.4,10.5 9.6,16.7 -0.7,6.2 -3.3,9.9 -2.1,12.9 2.3,5.6 1,9.4 -1.6,12.7 C 51.8,73.6 43,76.3 44,65.2 44.7,56.6 38.9,52.8 40.9,43.7 42.1,38 39.8,35.5 37.3,36 36.4,34.1 35.4,33.4 33.8,34.9 Z"
         id="path1018" /></g><g
       transform="matrix(0.26458333,0,0,0.26458333,108.50088,119.61909)"
       id="g1080"><path
         style="opacity:0.2"
         d="m 63.6,114.3 c -14.1,9.1 -38.5,17.2 -16.5,30.7 20.5,12.5 40.7,-4.1 55.2,-11.8 21.3,-11.3 32.2,-21.2 19.2,-29.4 -13.4,-8.4 -49.5,5.1 -57.9,10.5 z"
         id="path1062" /><path
         style="fill:#825012"
         d="m 88.4,90.5 c 0,0 8.9,2.3 8.9,4.9 0,1.4 0,5.8 0,7 0,2.2 -4.6,3.8 -4.6,6 0,2.9 5.7,4.7 7.3,4.3 1.6,-0.4 2.5,-1.2 2.5,-4 0,-2.8 1,-14.5 1.4,-18.1 0.4,-3.6 -1.1,-14.8 -1.1,-14.8 z"
         id="path1064" /><path
         style="opacity:0.2"
         d="m 88.4,90.5 c 0,0 8.9,2.3 8.9,4.9 0,1.4 0,5.8 0,7 0,2.2 -4.6,3.8 -4.6,6 0,2.9 5.7,4.7 7.3,4.3 1.6,-0.4 2.5,-1.2 2.5,-4 0,-2.8 1,-14.5 1.4,-18.1 0.4,-3.6 -1.1,-14.8 -1.1,-14.8 z"
         id="path1066" /><path
         style="fill:#825012"
         d="m 21.6,54.3 c 1.6,-0.6 7.9,-2.8 8,-4 0.1,-1.2 0,-3.1 1.5,-3.8 1.5,-0.7 2.8,-4.2 4.6,-4.5 1.8,-0.4 2.8,0.1 6.3,1.2 3.5,1.1 7.7,3.4 10.4,5.3 2.8,2 4.1,4 5.9,6.7 1.8,2.7 2.4,3.5 2.1,4.2 -0.3,0.7 -0.8,0.3 -0.4,1.5 0.6,1.6 0.9,3.7 3,4.3 7.1,1.9 23.5,-9.6 27.8,-10.9 10.1,-3.3 19.9,1.8 25,6 3.3,2.7 6.5,10.1 8.9,14.9 2.4,4.8 6.7,5.4 6.3,7.5 -0.2,0.9 -1.5,1.5 -4.1,0.5 -3.3,-1.3 -10.5,-9.4 -10.5,-9.4 0,0 1,3 -0.5,7 -1.5,4 -3.8,10.5 -1.7,12.7 2,2.1 4.6,4.5 4.9,6.7 0.3,2.2 1.2,18.2 1.2,19 0,0.8 -0.5,2.3 -2,2.8 -4.5,1.5 -10.1,-1.7 -9.3,-4.5 0.8,-2.8 4,-2.1 4,-6.3 0,-1.5 -0.4,-6 -0.7,-6.9 -0.4,-1.2 -1.7,-2.4 -3.3,-3 -1.4,-0.5 -7.3,-3.8 -8.5,-7.5 -1.2,-3.7 -1.7,-7.9 -3.7,-8.2 -2,-0.6 -8.8,10.6 -14.5,14.4 -5.7,3.8 -9.5,4.1 -9.5,4.1 0,0 -1.1,18.6 -1.1,22.2 0,3.6 2.6,7.4 3,9.8 0.4,2.5 1,6.8 -2.1,8.8 -3.7,2.4 -8.4,0.2 -9.5,-1.1 -1,-1.3 -1.2,-3.7 0.4,-5.2 1.5,-1.5 3.3,-2.7 2.8,-3.4 -0.5,-0.7 -2.5,-4.1 -2.9,-6.2 -0.5,-3.3 -1,-17.2 -4.9,-19.6 -1.2,-0.7 -4.1,-1.1 -4.9,0.1 -0.8,1.3 -0.7,8.7 -0.7,9.9 0,1.9 2.8,6 2.8,9.3 0,3.3 -1.2,5.1 -4.1,6.1 -2.3,0.8 -5.4,0.2 -7.7,-2.7 -1.5,-1.9 -0.3,-4 1.2,-4.9 1,-0.6 2.3,-0.8 2.4,-2.1 0.1,-1.3 -1.8,-3.2 -1.8,-5.6 0,-2.4 -1,-12 -1,-13.2 0,-3.9 -6.4,-7.6 -8.8,-15.6 C 34.7,86.8 35.6,82.3 35.3,79 35.3,76.8 34.8,67.8 31,67 29.6,66.7 23.4,66.8 21.7,64.9 20.4,63.5 19.6,61.6 20,59.4 c 0.4,-2.3 1.6,-5.1 1.6,-5.1 z"
         id="path1068" /><path
         style="fill:#262626"
         d="m 41.3,56.5 c 0,0 -0.7,-1.9 -2.4,-2.9 -1.6,-0.9 -3.2,0.9 -1.2,2.4 1.8,1.4 3.6,0.5 3.6,0.5 z"
         id="path1070" /><path
         style="fill:#262626"
         d="m 25.7,57.1 c 0.2,-1.8 -1,-2.7 -3.3,-3.2 -1.4,-0.3 -3,0.5 -3,2.3 0,2.5 2.1,4.4 2.1,4.4 0,0 3.8,0 4.2,-3.5 z"
         id="path1072" /><path
         style="fill:#262626"
         d="m 29.8,48.5 c 0,0 1.2,0.6 0.3,1.5 -0.8,1.1 -0.3,-1.5 -0.3,-1.5 z"
         id="path1074" /><path
         style="fill:#262626"
         d="m 34.6,73.3 c 0,0 2.8,1.6 7.3,1.6 4.5,0 8.4,-1.8 10.6,-3.9 2.2,-2.1 8.1,-8.5 8.1,-8.5 l 2,2.1 c 0,0 -7,8.9 -10,10.7 -3.1,1.8 -6.3,3.4 -10.8,3.3 -4.5,-0.1 -6.6,-1.5 -6.6,-1.5 z"
         id="path1076" /><path
         style="opacity:0.2"
         d="m 46.7,54.8 c 0,0 -4.9,18.4 0.8,18.2 2.9,-0.1 12.3,-13.1 12.3,-13.1 0,0 -5.6,16.4 -13.4,16.5 -7.7,0.1 0.3,-21.6 0.3,-21.6 z"
         id="path1078" /></g><g
       transform="matrix(0.26458333,0,0,0.26458333,53.430341,138.32029)"
       id="g1735"><path
         style="opacity:0.2"
         d="m 24.5,61.8 c -6.5,4 -6.9,8.7 1.4,13.2 9.2,4.9 14.6,3.9 21.7,-0.3 6.2,-3.6 4.8,-8.5 -5.7,-12.8 C 33.5,58.6 29.1,59 24.5,61.8 Z"
         id="path1715" /><path
         style="fill:#baa794"
         d="m 39.7,61.7 c -0.1,1.1 -1.5,7.6 -2.3,8.7 -0.8,1.1 -5.8,4.2 -5.8,4.2 l 5.2,-1.7 1.2,3.1 0.7,-3.4 4.1,-1.8 -3.4,-0.3 c 0,0 1.5,-4.9 1.9,-6.2 0.4,-1.3 0.6,-2.5 0.6,-2.5 z"
         id="path1717" /><path
         style="fill:#baa794"
         d="m 32.6,58.1 c 0,0 -1.7,7.3 -2.1,8.1 -0.4,0.9 -6.1,3.6 -6.1,3.6 l 5,-1.4 0.7,3 1.3,-3 4.1,-1.3 -3,-0.6 c 0,0 1.4,-5.4 1.8,-6.8 0.4,-1.4 0.2,-1.9 0.2,-1.9 z"
         id="path1719" /><path
         style="fill:#825012"
         d="m 25.5,25.8 c 3.9,-2.7 11.7,-4.7 16.2,-4.3 4.5,0.4 12.4,2.8 13.5,4.6 1.1,1.9 7.9,16.1 0.4,25.6 -4.5,5.7 -9.1,5.7 -9.1,5.7 0,0 -1.3,4.9 -5.3,4.9 -3.6,0 -5.8,-3.6 -5.8,-3.6 0,0 -1.5,0.3 -3.3,-0.1 -1.9,-0.4 -3.3,-2.5 -3.3,-2.5 0,0 -8.9,-0.6 -10.8,-10.4 -2.1,-11 2.9,-16.7 7.5,-19.9 z"
         id="path1721" /><path
         style="fill:#762c07"
         d="M 41.4,22.3 C 41,21.6 43.4,16.5 45.2,11.2 47,5.6 47.4,1.6 49,1.4 c 1.6,-0.2 1.9,1.5 1.9,1.5 0,0 0.5,-2.2 2.1,-1.9 1.6,0.3 1.3,2.5 1.3,2.5 0,0 0.6,-1.1 1.9,-0.3 1.3,0.7 0.5,3.2 0.5,3.2 0,0 0.9,-1.1 2,-0.4 1.6,0.9 1.7,8.8 1.2,13.7 -0.7,7.2 -2.2,12.3 -2.2,12.3 0,0 -3.7,-6.2 -7.8,-7 -4.1,-0.8 -7.6,-0.9 -8.5,-2.7 z"
         id="path1723" /><path
         style="fill:#762c07"
         d="m 20.2,16.9 c 0.6,-1 2.7,-3.4 5.3,-2.3 2.6,1.1 4.6,4.2 6.4,7.7 1.8,3.5 2.1,5.4 4,6.9 1.1,0.9 5.2,2.6 5.2,2.6 l -6.4,0.6 0.2,4.1 -5,-2.1 -1.5,5.2 -3.5,-4.4 -4.1,4.2 -0.1,-4.4 -3.5,1.6 c 0,0 1.2,-1.8 1.9,-3.3 3.5,-7.7 -0.8,-13.5 1.1,-16.4 z"
         id="path1725" /><path
         style="fill:#baa794"
         d="m 17.8,18.3 c -1.3,0.6 -1.8,4.9 -1.8,4.9 0,0 2,-1.4 3.4,-1.8 1.5,-0.4 -0.5,-3.6 -1.6,-3.1 z"
         id="path1727" /><path
         style="fill:#cc291f"
         d="m 19.6,18 c 1.1,0 0.9,-1.3 2.7,-2.8 1.5,-1.3 2.6,-1.8 2.6,-2.6 0,-1.4 -2.5,-2 -2.7,-0.7 -0.1,0.7 -1.1,-0.5 -2,0.3 -0.8,0.6 -0.3,1.5 -0.5,1.8 -0.1,0.3 -1.4,0.2 -1.9,1 -0.4,0.8 -0.1,3 1.8,3 z"
         id="path1729" /><path
         style="fill:#cc291f"
         d="m 19.9,20.5 c -1.3,0.4 -2.2,2.7 -0.5,3.7 1.9,1.2 3,-2.8 3,-2.8 0,0 3.4,-2.1 3,-3.2 C 25,17.1 20.5,18 20.5,18 c 0,0 -1.8,-0.4 -2.7,0.3 -0.9,0.7 -0.9,1.1 -0.9,1.1 0,0 1.2,-0.3 2.2,0.2 1,0.5 0.8,0.9 0.8,0.9 z"
         id="path1731" /><path
         style="fill:#2d3134"
         d="m 23.3,18.2 c 0.6,-0.2 1.1,0.9 0.3,1.1 -0.7,0.3 -1.1,-0.8 -0.3,-1.1 z"
         id="path1733" /></g><path
       style="fill:none;fill-opacity:1;stroke:#000000;stroke-width:0.899999;stroke-linecap:round;stroke-linejoin:round;stroke-dasharray:none"
       d="m 199.44985,99.466098 c 0.84876,-5.46336 6.25398,-10.91199 10.98064,-13.55359"
       id="path23" /><path
       style="fill:none;fill-opacity:1;stroke:#000000;stroke-width:0.899999;stroke-linecap:round;stroke-linejoin:round;stroke-dasharray:none"
       d="m 206.82036,84.964418 c 2.37643,0.35462 5.03625,1.77562 7.53398,0.73319 4.0802,-1.70287 -0.56472,-6.36195 -3.2303,-1.15527 -0.60472,1.18121 -0.82036,3.2154 -1.10046,4.4215"
       id="path24"
       sodipodi:nodetypes="cssc" /><path
       style="fill:none;fill-opacity:1;stroke:#000000;stroke-width:0.899999;stroke-linecap:round;stroke-linejoin:round;stroke-dasharray:none"
       d="m 193.86006,99.379038 c -0.34788,-4.06423 -5.03401,-9.84314 -7.83304,-12.70063"
       id="path25"
       sodipodi:nodetypes="cc" /><path
       style="fill:none;fill-opacity:1;stroke:#000000;stroke-width:0.899999;stroke-linecap:round;stroke-linejoin:round;stroke-dasharray:none"
       d="m 183.15581,88.596418 c 1.43859,-1.77098 3.78225,-3.02435 5.02576,-4.48112"
       id="path26"
       sodipodi:nodetypes="cc" /><path
       style="fill:none;fill-opacity:1;stroke:#000000;stroke-width:0.899999;stroke-linecap:round;stroke-linejoin:round;stroke-dasharray:none"
       d="m 185.4825,86.527098 c 0.19469,-1.16078 0.3405,-1.8583 -0.006,-3.36045 -0.43405,-1.88009 -4.80127,-1.93551 -4.43318,0.41127 0.31042,1.97909 3.63846,1.94787 4.43946,2.94918 z"
       id="path27"
       sodipodi:nodetypes="ccscc" /><path
       style="fill:none;fill-opacity:1;stroke:#000000;stroke-width:0.899999;stroke-linecap:round;stroke-linejoin:round;stroke-dasharray:none"
       d="m 198.14023,154.28308 c 0.84876,-5.46336 6.25398,-10.91199 10.98064,-13.55359"
       id="path28" /><path
       style="fill:none;fill-opacity:1;stroke:#000000;stroke-width:0.899999;stroke-linecap:round;stroke-linejoin:round;stroke-dasharray:none"
       d="m 205.51074,139.7814 c 2.37643,0.35462 5.03625,1.77562 7.53398,0.73319 4.0802,-1.70287 -0.56472,-6.36195 -3.2303,-1.15527 -0.60472,1.18121 -0.82036,3.2154 -1.10046,4.4215"
       id="path29"
       sodipodi:nodetypes="cssc" /><path
       style="fill:none;fill-opacity:1;stroke:#000000;stroke-width:0.899999;stroke-linecap:round;stroke-linejoin:round;stroke-dasharray:none"
       d="m 192.55044,154.19602 c -0.34788,-4.06423 -5.03401,-9.84314 -7.83304,-12.70063"
       id="path30"
       sodipodi:nodetypes="cc" /><path
       style="fill:none;fill-opacity:1;stroke:#000000;stroke-width:0.899999;stroke-linecap:round;stroke-linejoin:round;stroke-dasharray:none"
       d="m 181.84619,143.4134 c 1.43859,-1.77098 3.78225,-3.02435 5.02576,-4.48112"
       id="path31"
       sodipodi:nodetypes="cc" /><path
       style="fill:none;fill-opacity:1;stroke:#000000;stroke-width:0.899999;stroke-linecap:round;stroke-linejoin:round;stroke-dasharray:none"
       d="m 184.17288,141.34408 c 0.19469,-1.16078 0.3405,-1.8583 -0.006,-3.36045 -0.43405,-1.88009 -4.80127,-1.93551 -4.43318,0.41127 0.31042,1.97909 3.63846,1.94787 4.43946,2.94918 z"
       id="path32"
       sodipodi:nodetypes="ccscc" /></g><path
     style="fill:#000000;fill-opacity:1;fill-rule:nonzero;stroke:none;stroke-width:0.264583"
     id="path9"
     d="m 138.59665,18.365736 c -0.003,0.311447 -0.008,0.622856 -0.005,0.934328 0.006,0.451416 -0.008,0.620064 0.0244,1.070134 0.0158,0.229299 0.0362,0.458217 0.0486,0.687757 0.006,0.118961 0.009,0.238016 0.0117,0.357093 0.0124,0.62213 0.87982,-0.01753 0.87982,-0.01753 v 0 c 0,0 -0.007,-0.258095 -0.0128,-0.387025 -0.0128,-0.234895 -0.0331,-0.469207 -0.0496,-0.703841 -0.0312,-0.43165 -0.0159,-0.581827 -0.0222,-1.014753 -0.003,-0.305959 0.002,-0.611862 0.005,-0.917807 0.006,-0.622237 -0.87404,-0.630602 -0.87996,-0.0084 z"
     sodipodi:nodetypes="cccccsscccscc" /><path
     style="fill:#000000;fill-opacity:1;fill-rule:nonzero;stroke:none;stroke-width:0.264583"
     id="path10"
     d="m 138.67691,21.39638 c -0.0194,0.259778 -0.0555,0.518158 -0.0923,0.775971 -0.0659,0.411814 -0.0737,1.200027 -0.10248,1.615659 -0.0355,0.568541 -0.0524,1.138033 -0.0674,1.70742 -0.0148,0.611069 -0.0223,1.222281 -0.0301,1.833475 -0.0102,0.5423 -0.005,1.084894 -0.0235,1.62702 -0.0182,0.356732 -0.0232,0.714166 -0.0478,1.070582 -0.0136,0.196247 -0.0313,0.39218 -0.0466,0.588298 -0.0477,0.605287 -0.0908,1.210859 -0.12314,1.817166 -0.0265,0.426428 -0.0279,0.853965 -0.0515,1.280454 -0.0191,0.294643 -0.0404,0.58914 -0.0578,0.883883 -0.007,0.127494 -0.004,0.0652 -0.01,0.186887 -0.0306,0.621503 0.84846,0.664631 0.87895,0.0431 v 0 c 0.006,-0.115402 0.003,-0.05604 0.01,-0.178082 0.0175,-0.296149 0.039,-0.592026 0.0581,-0.888077 0.0229,-0.426851 0.0259,-0.854595 0.0516,-1.281377 0.0319,-0.599048 0.0746,-1.197375 0.1217,-1.79542 0.0158,-0.202348 0.0341,-0.404518 0.0479,-0.607008 0.0249,-0.363584 0.0303,-0.728165 0.0487,-1.092075 0.0174,-0.547897 0.0144,-1.096191 0.0236,-1.64427 0.008,-0.607177 0.0156,-1.214373 0.0298,-1.821443 0.0143,-0.556886 0.0311,-1.11389 0.0656,-1.669965 0.0273,-0.394426 0.0328,-1.161484 0.0958,-1.552248 0.0386,-0.271984 0.0766,-0.544536 0.0973,-0.818537 0.0576,-0.619588 -0.81864,-0.70101 -0.87622,-0.08141 z"
     sodipodi:nodetypes="ccccccscccccssccccccccccccc" /><path
     style="fill:#000000;fill-opacity:1;fill-rule:nonzero;stroke:none;stroke-width:0.264583"
     d="m 125.20764,35.392107 c 0.52527,0.0044 1.05054,0.0087 1.57583,0.01022 0.58527,0.0014 1.17061,0.002 1.75582,-0.0083 0.47705,-0.01107 0.95364,-0.03278 1.42975,-0.06503 0.50151,-0.02207 1.00266,-0.03134 1.50467,-0.01776 0.47716,0.0037 0.95434,0.0075 1.43152,0.0075 0.38101,-7.39e-4 0.76212,-0.0031 1.14283,-0.01975 0.41415,-0.01945 0.82754,-0.05125 1.24176,-0.06895 0.52711,-0.02311 1.05505,-0.04127 1.58202,-0.0019 0.32102,0.02645 0.63991,0.07434 0.96144,0.09361 0.18188,0.0074 0.36385,0.0076 0.54585,0.0095 0.62222,0.006 0.6306,-0.874034 0.008,-0.879963 l -4e-5,4.8e-5 c -0.17228,-0.0019 -0.34456,-9.01e-4 -0.51668,-0.0088 -0.30944,-0.02112 -0.61676,-0.06547 -0.92596,-0.09139 -0.56402,-0.04294 -1.12924,-0.02498 -1.69349,-3.67e-4 -0.41511,0.0174 -0.82937,0.04976 -1.24439,0.06907 -0.36765,0.01596 -0.73566,0.018 -1.1036,0.01873 -0.47425,-1.1e-4 -0.94849,-0.0037 -1.42273,-0.0075 -0.5172,-0.01358 -1.0336,-0.0041 -1.5503,0.01858 -0.46999,0.03162 -0.94042,0.0536 -1.41133,0.06443 -0.57774,0.01008 -1.15561,0.0095 -1.73343,0.008 -0.52354,-0.0015 -1.04706,-0.0057 -1.57057,-0.01018"
     id="path17" /><path
     style="fill:#000000;fill-opacity:1;fill-rule:nonzero;stroke:none;stroke-width:0.264583"
     d="m 111.29989,39.930852 c -0.46168,0.271124 -0.92352,0.542031 -1.38548,0.812692 -0.38127,0.223499 -0.76258,0.446936 -1.1439,0.670383 -0.34523,0.202289 -0.69047,0.404567 -1.0357,0.606856 -0.30656,0.179618 -0.61312,0.359235 -0.91968,0.538853 -0.35013,0.203297 -0.69672,0.412742 -1.04998,0.61057 -0.40282,0.219303 -0.8032,0.442971 -1.20218,0.669176 -0.37376,0.212039 -0.74573,0.427203 -1.11732,0.643015 -0.30133,0.188275 -0.6232,0.336993 -0.94486,0.486071 -0.28309,0.122458 -0.56181,0.255686 -0.8502,0.365439 -0.32403,0.121301 -0.64548,0.253541 -0.97668,0.354314 -0.21121,0.05723 -0.4266,0.105381 -0.64612,0.111424 -0.14001,0.0016 -0.27105,-0.04189 -0.400241,-0.09073 -0.168332,-0.06163 -0.338731,-0.118148 -0.500857,-0.195045 -0.158824,-0.0613 -0.301593,-0.153542 -0.43863,-0.25318 -0.13272,-0.09735 -0.238662,-0.224748 -0.330548,-0.360116 -0.09783,-0.134017 -0.16082,-0.282381 -0.207197,-0.440479 -0.04603,-0.175499 -0.043,-0.314726 -0.01262,-0.491836 0.04729,-0.218692 0.201392,-0.390088 0.357283,-0.541762 0.261666,-0.239075 0.553543,-0.441155 0.847833,-0.637349 0.276975,-0.177824 0.554371,-0.355689 0.840967,-0.517728 0.22893,-0.148392 0.46296,-0.194226 0.72621,-0.239878 0.3085,-0.03648 0.6194,-0.04592 0.92963,-0.0559 0.24804,0.0033 0.4974,-0.01735 0.74456,0.009 0.21194,0.03499 0.42331,0.07256 0.63412,0.113812 0.0982,0.0202 0.19263,0.05534 0.28574,0.09192 0.58062,0.22375 0.89707,-0.597394 0.31644,-0.821144 v 0 c -0.14144,-0.0539 -0.28463,-0.105379 -0.43355,-0.134425 -0.23945,-0.04656 -0.47934,-0.09043 -0.72069,-0.12627 -0.28451,-0.02449 -0.56961,-0.01507 -0.85493,-0.01237 -0.35153,0.01129 -0.70402,0.02224 -1.05304,0.06858 -0.36399,0.06418 -0.69056,0.143032 -1.008619,0.341255 -0.304711,0.173195 -0.600942,0.360912 -0.895245,0.551159 -0.342372,0.228607 -0.681101,0.465458 -0.98222,0.74766 -0.05403,0.0551 -0.110779,0.107614 -0.162021,0.165299 -0.217571,0.244961 -0.380884,0.541968 -0.442332,0.864983 -0.04253,0.297061 -0.04553,0.59198 0.041,0.882495 0.07628,0.2442 0.17612,0.478012 0.327042,0.686535 0.15246,0.215101 0.323608,0.4178 0.539871,0.572015 0.181859,0.129 0.369618,0.251954 0.57785,0.334698 0.184972,0.08582 0.376369,0.155281 0.56852,0.223358 0.239769,0.08752 0.48601,0.153685 0.743984,0.144631 0.29441,-0.0153 0.58468,-0.06643 0.8677,-0.149838 0.34922,-0.10919 0.69049,-0.243189 1.03224,-0.373532 0.3063,-0.118396 0.60434,-0.256469 0.90488,-0.388581 0.34612,-0.160425 0.69189,-0.321837 1.01664,-0.523449 0.36896,-0.21433 0.73833,-0.427971 1.1095,-0.638487 0.39773,-0.225501 0.7969,-0.448393 1.19844,-0.667074 0.35801,-0.200835 0.70977,-0.412506 1.06454,-0.618975 0.30657,-0.179617 0.61312,-0.359235 0.91968,-0.538853 0.34524,-0.202289 0.6905,-0.404577 1.03573,-0.606876 0.38136,-0.223464 0.76273,-0.446929 1.14405,-0.670456 0.46213,-0.270913 0.92423,-0.541838 1.38615,-0.813092"
     id="path11"
     sodipodi:nodetypes="ccssccccccccccccccccccccccssccccccccccccccccccccccsssc" /><path
     style="fill:#000000;fill-opacity:1;fill-rule:nonzero;stroke:none;stroke-width:0.264583"
     id="path12"
     d="m 130.24492,35.041826 c 0.29534,-0.298162 0.59615,-0.589899 0.90666,-0.872273 0.4272,-0.401861 0.88318,-0.770366 1.33317,-1.145812 0.32867,-0.294139 0.67727,-0.564025 1.0187,-0.842816 0.48347,-0.380315 0.93237,-0.801378 1.38454,-1.217676 0.33327,-0.302178 0.6581,-0.61365 0.99133,-0.91586 0.21723,-0.194704 0.44063,-0.382389 0.66536,-0.568342 0.2276,-0.194161 0.46223,-0.379762 0.69114,-0.572342 0.21426,-0.188653 0.42854,-0.377745 0.65177,-0.555778 0.18366,-0.145743 0.36631,-0.292042 0.5359,-0.454133 0.13832,-0.137429 0.28411,-0.267151 0.42151,-0.405434 0.43529,-0.444667 -0.19356,-1.060251 -0.62885,-0.615584 v 0 c -0.1286,0.135251 -0.27425,0.254198 -0.40425,0.388273 -0.1475,0.14521 -0.3138,0.2685 -0.47369,0.39944 -0.22871,0.183109 -0.44967,0.375811 -0.66905,0.569946 -0.22695,0.191098 -0.45987,0.374905 -0.68548,0.567625 -0.23505,0.194491 -0.46862,0.390912 -0.69573,0.594665 -0.33462,0.303848 -0.66128,0.616448 -0.99603,0.92016 -0.43935,0.404571 -0.87524,0.814124 -1.34518,1.183514 -0.34371,0.28088 -0.69486,0.552572 -1.02586,0.848727 -0.45949,0.383611 -0.9251,0.760156 -1.36151,1.170526 -0.31854,0.289957 -0.62772,0.588959 -0.93075,0.895028 -0.44417,0.435794 0.17213,1.063939 0.6163,0.628146 z" /><path
     style="fill:#000000;fill-opacity:1;fill-rule:nonzero;stroke:none;stroke-width:0.264583"
     id="path13"
     d="m 134.20959,33.512053 c 0.46698,-0.400076 0.90561,-0.831447 1.35113,-1.254846 0.36677,-0.346287 0.73797,-0.687738 1.12798,-1.007769 0.22098,-0.175443 0.44254,-0.350218 0.66142,-0.52829 0.0557,-0.0414 0.1086,-0.08634 0.16225,-0.130322 0.48119,-0.394513 -0.0768,-1.075035 -0.55793,-0.68052 v 0 c -0.0528,0.04334 -0.10486,0.08781 -0.15989,0.128388 -0.21979,0.179041 -0.4427,0.354215 -0.66446,0.530784 -0.40603,0.333905 -0.79379,0.688585 -1.17559,1.049843 -0.27641,0.262697 -0.54986,0.528693 -0.82935,0.788128 -0.30736,0.28532 -0.1461,0.131269 -0.42029,0.377621 -0.0484,0.04344 -0.0958,0.08802 -0.14373,0.132097 -0.42065,0.458529 0.22781,1.053425 0.64846,0.594886 z" /><path
     style="fill:#000000;fill-opacity:1;fill-rule:nonzero;stroke:none;stroke-width:0.264583"
     id="path6"
     d="m 103.49772,45.322943 c 0.10489,0.194892 0.21449,0.387256 0.32395,0.579624 0.20702,0.3632 0.41663,0.724907 0.62538,1.087125 0.23205,0.407897 0.47268,0.810681 0.73376,1.200692 0.21179,0.308051 0.42983,0.616306 0.69231,0.884165 0.0546,0.05564 0.11278,0.107631 0.16922,0.161418 0.23405,0.209563 0.49626,0.383191 0.78582,0.505953 0.1774,0.07526 0.25963,0.09453 0.44287,0.149616 0.29031,0.07521 0.58851,0.122243 0.88858,0.130825 0.17631,0.005 0.2602,-0.0025 0.4343,-0.01142 0.36349,-0.02106 0.72287,-0.07945 1.07385,-0.17517 0.22146,-0.06838 0.43963,-0.15588 0.63447,-0.283194 0.12128,-0.07926 0.16896,-0.12433 0.27722,-0.215071 0.29803,-0.267708 0.45963,-0.605035 0.59998,-0.972231 0.099,-0.292753 0.15827,-0.597648 0.17763,-0.906077 0.0118,-0.185486 0.007,-0.325997 0.006,-0.510666 -0.0111,-0.485929 -0.0944,-0.965214 -0.20658,-1.436856 -0.1218,-0.483762 -0.30643,-0.947827 -0.50016,-1.406401 -0.19068,-0.432648 -0.39089,-0.860996 -0.58603,-1.291665 -0.13212,-0.293335 -0.26808,-0.585113 -0.42241,-0.867499 -0.0568,-0.102816 -0.11893,-0.202469 -0.18147,-0.301813 -0.33141,-0.526658 -1.07621,-0.0581 -0.74478,0.46871 v 0 c 0.053,0.0846 0.10696,0.168749 0.15489,0.256434 0.14439,0.262252 0.26847,0.534959 0.39235,0.807317 0.19213,0.423845 0.38901,0.845524 0.57707,1.271196 0.17512,0.413619 0.34317,0.831841 0.4547,1.267896 0.0978,0.407249 0.17097,0.821253 0.18262,1.24097 0.002,0.138311 0.005,0.282216 -0.002,0.420606 -0.0122,0.230213 -0.0538,0.458056 -0.12487,0.677394 -0.0811,0.219573 -0.1742,0.445945 -0.34554,0.611309 -0.0402,0.0347 -0.11088,0.09776 -0.15645,0.129086 -0.12818,0.08805 -0.27458,0.14591 -0.42192,0.192624 -0.28815,0.08236 -0.5858,0.124066 -0.88456,0.144233 -0.12569,0.0069 -0.21176,0.01417 -0.33747,0.01164 -0.23253,-0.0046 -0.46376,-0.04007 -0.6892,-0.096 -0.15914,-0.0462 -0.31892,-0.09223 -0.46725,-0.168126 -0.14778,-0.07561 -0.28135,-0.176043 -0.40707,-0.283453 -0.0414,-0.03863 -0.0846,-0.07563 -0.12446,-0.115882 -0.23283,-0.234763 -0.42295,-0.50853 -0.61013,-0.779541 -0.25078,-0.373806 -0.48045,-0.760843 -0.7033,-1.151863 -0.2085,-0.359835 -0.41617,-0.720182 -0.62208,-1.08152 -0.11119,-0.19568 -0.22237,-0.391379 -0.32953,-0.589308 -0.31456,-0.536881 -1.07384,-0.09203 -0.75927,0.444875 z"
     sodipodi:nodetypes="ccccscscscccccsccccccsscccccccccccccccccccccc" /><path
     style="fill:#000000;fill-opacity:1;fill-rule:nonzero;stroke:none;stroke-width:0.264583"
     id="path16"
     d="m 106.00883,43.851638 c 0.093,0.152764 0.1947,0.300043 0.29209,0.450027 0.224,0.346907 0.44073,0.698428 0.65678,1.050328 0.21399,0.349404 0.42646,0.699759 0.63797,1.050682 0.17245,0.286395 0.34402,0.573301 0.51561,0.860218 0.1458,0.252796 0.30403,0.497951 0.46218,0.743112 0.12362,0.191222 0.24598,0.383236 0.36725,0.575963 0.0973,0.154335 0.19305,0.309718 0.28831,0.46535 0.038,0.0629 0.0769,0.125235 0.11481,0.188117 0.32419,0.531134 1.07534,0.07257 0.75111,-0.458511 v 0 c -0.0383,-0.06331 -0.0774,-0.126208 -0.11575,-0.189571 -0.0974,-0.158313 -0.1948,-0.316625 -0.29363,-0.474042 -0.12276,-0.195667 -0.2473,-0.390224 -0.3726,-0.584285 -0.15253,-0.236566 -0.30565,-0.472799 -0.44601,-0.716898 -0.17224,-0.288058 -0.34449,-0.576106 -0.5176,-0.863632 -0.2127,-0.353119 -0.42615,-0.705772 -0.64184,-1.057065 -0.22027,-0.358139 -0.44073,-0.716197 -0.66887,-1.069389 -0.0903,-0.138348 -0.18372,-0.274787 -0.27066,-0.415244 -0.31458,-0.536882 -1.07383,-0.09203 -0.75927,0.444864 z"
     sodipodi:nodetypes="cccccccccsscccccccccc" /><path
     style="fill:none;fill-opacity:1;stroke:#000000;stroke-width:0.9;stroke-linecap:round;stroke-linejoin:round;stroke-dasharray:none"
     d="m 120.46058,34.899128 c 1.61083,0.01802 3.22089,0.03355 4.91803,0.04971"
     id="path19" /><path
     style="fill:none;fill-opacity:1;stroke:#000000;stroke-width:0.9;stroke-linecap:round;stroke-linejoin:round;stroke-dasharray:none"
     d="m 111.38837,40.39964 c 1.40213,-0.811332 5.07966,-2.765319 8.20188,-3.111089"
     id="path18"
     sodipodi:nodetypes="cc" /><path
     style="fill:none;fill-opacity:1;stroke:#000000;stroke-width:0.899999;stroke-linecap:round;stroke-linejoin:round;stroke-dasharray:none"
     d="m 119.75565,32.503148 c -5.29769,0.600335 -19.16559,-6.139591 -18.40982,-11.75126 0.44368,-3.294385 4.66953,-0.685137 5.33805,2.101419"
     id="path20" /><path
     style="fill:none;fill-opacity:1;stroke:#000000;stroke-width:0.899999;stroke-linecap:round;stroke-linejoin:round;stroke-dasharray:none"
     d="m 106.04044,27.907567 c -0.55801,0.711302 -1.11602,1.422604 -1.67403,2.133906 -0.0556,0.05462 -0.11129,0.109193 -0.16693,0.163784"
     id="path21" /><path
     style="fill:none;fill-opacity:1;stroke:#000000;stroke-width:0.899999;stroke-linecap:round;stroke-linejoin:round;stroke-dasharray:none"
     d="m 98.223921,25.584121 c 1.16436,1.122592 1.70149,1.102046 2.869339,0.854163 -0.12919,1.059994 -0.15252,1.914859 0.57012,2.651382"
     id="path22" /><path
     style="fill:#000000;fill-opacity:1;fill-rule:nonzero;stroke:none;stroke-width:0.264583"
     id="path33"
     d="m 137.28703,73.182714 c -0.003,0.311447 -0.008,0.622856 -0.005,0.934328 0.006,0.451416 -0.008,0.620064 0.0244,1.070134 0.0158,0.229299 0.0362,0.458217 0.0486,0.687757 0.006,0.118961 0.009,0.238017 0.0117,0.357094 0.0124,0.62213 0.87982,-0.01753 0.87982,-0.01753 v 0 c 0,0 -0.007,-0.258096 -0.0128,-0.387026 -0.0128,-0.234895 -0.0331,-0.469207 -0.0496,-0.703841 -0.0312,-0.43165 -0.0159,-0.581827 -0.0222,-1.014753 -0.003,-0.305959 0.002,-0.611862 0.005,-0.917807 0.006,-0.622237 -0.87404,-0.630602 -0.87996,-0.0084 z"
     sodipodi:nodetypes="cccccsscccscc" /><path
     style="fill:#000000;fill-opacity:1;fill-rule:nonzero;stroke:none;stroke-width:0.264583"
     id="path34"
     d="m 137.36729,76.213359 c -0.0194,0.259778 -0.0555,0.518158 -0.0923,0.775971 -0.0659,0.411814 -0.0737,1.200027 -0.10248,1.615659 -0.0355,0.568541 -0.0524,1.138033 -0.0674,1.70742 -0.0148,0.611069 -0.0223,1.222281 -0.0301,1.833475 -0.0102,0.5423 -0.005,1.084894 -0.0235,1.62702 -0.0182,0.356732 -0.0232,0.714166 -0.0478,1.070582 -0.0136,0.196247 -0.0313,0.39218 -0.0466,0.588298 -0.0477,0.605287 -0.0908,1.210859 -0.12314,1.817166 -0.0265,0.426428 -0.0279,0.853965 -0.0515,1.280454 -0.0191,0.294643 -0.0404,0.58914 -0.0578,0.883883 -0.007,0.127494 -0.004,0.0652 -0.01,0.186887 -0.0306,0.621503 0.84846,0.664631 0.87895,0.0431 v 0 c 0.006,-0.115402 0.003,-0.05604 0.01,-0.178082 0.0175,-0.296149 0.039,-0.592026 0.0581,-0.888077 0.0229,-0.426851 0.0259,-0.854595 0.0516,-1.281377 0.0319,-0.599048 0.0746,-1.197375 0.1217,-1.79542 0.0158,-0.202348 0.0341,-0.404518 0.0479,-0.607008 0.0249,-0.363584 0.0303,-0.728165 0.0487,-1.092075 0.0174,-0.547897 0.0144,-1.096191 0.0236,-1.64427 0.008,-0.607177 0.0156,-1.214373 0.0298,-1.821443 0.0143,-0.556886 0.0311,-1.11389 0.0656,-1.669965 0.0273,-0.394426 0.0328,-1.161484 0.0958,-1.552248 0.0386,-0.271984 0.0766,-0.544536 0.0973,-0.818537 0.0576,-0.619589 -0.81864,-0.701011 -0.87622,-0.08141 z"
     sodipodi:nodetypes="ccccccscccccssccccccccccccc" /><path
     style="fill:#000000;fill-opacity:1;fill-rule:nonzero;stroke:none;stroke-width:0.264583"
     d="m 123.89802,90.209086 c 0.52527,0.0044 1.05054,0.0087 1.57583,0.01022 0.58527,0.0014 1.17061,0.002 1.75582,-0.0083 0.47705,-0.01107 0.95364,-0.03278 1.42975,-0.06503 0.50151,-0.02207 1.00266,-0.03134 1.50467,-0.01776 0.47716,0.0037 0.95434,0.0075 1.43152,0.0075 0.38101,-7.39e-4 0.76212,-0.0031 1.14283,-0.01975 0.41415,-0.01945 0.82754,-0.05125 1.24176,-0.06895 0.52711,-0.02311 1.05505,-0.04127 1.58202,-0.0019 0.32102,0.02645 0.63991,0.07434 0.96144,0.09361 0.18188,0.0074 0.36385,0.0076 0.54585,0.0095 0.62222,0.006 0.6306,-0.874034 0.008,-0.879963 l -4e-5,4.8e-5 c -0.17228,-0.0019 -0.34456,-9.01e-4 -0.51668,-0.0088 -0.30944,-0.02112 -0.61676,-0.06547 -0.92596,-0.09139 -0.56402,-0.04294 -1.12924,-0.02498 -1.69349,-3.67e-4 -0.41511,0.0174 -0.82937,0.04976 -1.24439,0.06907 -0.36765,0.01596 -0.73566,0.018 -1.1036,0.01873 -0.47425,-1.1e-4 -0.94849,-0.0037 -1.42273,-0.0075 -0.5172,-0.01358 -1.0336,-0.0041 -1.5503,0.01858 -0.46999,0.03162 -0.94042,0.0536 -1.41133,0.06443 -0.57774,0.01008 -1.15561,0.0095 -1.73343,0.008 -0.52354,-0.0015 -1.04706,-0.0057 -1.57057,-0.01018"
     id="path35" /><path
     style="fill:#000000;fill-opacity:1;fill-rule:nonzero;stroke:none;stroke-width:0.264583"
     d="m 111.06664,84.106784 c -0.30334,-0.441183 -0.60648,-0.882541 -0.90937,-1.324036 -0.25011,-0.364371 -0.50015,-0.728787 -0.75021,-1.093212 -0.22638,-0.329935 -0.45274,-0.659881 -0.67912,-0.989816 -0.20101,-0.292979 -0.40202,-0.585958 -0.60303,-0.878937 -0.22774,-0.33475 -0.46135,-0.665532 -0.68385,-1.003794 -0.24746,-0.386166 -0.49909,-0.769587 -0.75316,-1.15143 -0.23814,-0.357698 -0.47926,-0.713387 -0.72101,-1.068651 -0.20927,-0.287145 -0.38055,-0.597597 -0.55217,-0.907815 -0.14233,-0.273642 -0.29508,-0.542158 -0.42511,-0.821993 -0.14409,-0.31456 -0.2989,-0.625769 -0.42302,-0.948945 -0.0721,-0.206594 -0.13552,-0.418004 -0.15719,-0.636535 -0.0116,-0.13954 0.0225,-0.273347 0.062,-0.40569 0.0495,-0.172296 0.0937,-0.34629 0.15885,-0.513484 0.0498,-0.162789 0.13165,-0.311769 0.22127,-0.455559 0.0876,-0.139321 0.20717,-0.254073 0.33564,-0.355373 0.12671,-0.107133 0.2702,-0.180537 0.42459,-0.238063 0.17178,-0.05842 0.31087,-0.06532 0.48969,-0.04764 0.22151,0.03158 0.40345,0.173078 0.56585,0.317763 0.25711,0.243962 0.47948,0.520694 0.69615,0.800253 0.19711,0.263597 0.3943,0.527611 0.57635,0.801929 0.16433,0.217772 0.22673,0.447941 0.29103,0.707267 0.0584,0.305116 0.0899,0.614554 0.12201,0.923283 0.0144,0.247645 0.0527,0.494899 0.0441,0.743308 -0.0198,0.213895 -0.0422,0.427405 -0.0683,0.640619 -0.0131,0.09939 -0.0415,0.196085 -0.0713,0.291565 -0.1818,0.59509 0.65981,0.852212 0.84161,0.257112 v 0 c 0.0437,-0.144922 0.0848,-0.291417 0.10318,-0.442028 0.0294,-0.24216 0.056,-0.484566 0.0746,-0.727857 0.004,-0.285532 -0.0256,-0.569235 -0.0486,-0.853637 -0.0363,-0.349832 -0.0724,-0.700646 -0.14345,-1.045476 -0.09,-0.35849 -0.19189,-0.67861 -0.41228,-0.981733 -0.19447,-0.291592 -0.40282,-0.573691 -0.61356,-0.853687 -0.25243,-0.325208 -0.51282,-0.646195 -0.81576,-0.926436 -0.0588,-0.04997 -0.11524,-0.102827 -0.17643,-0.149828 -0.25984,-0.199559 -0.56773,-0.341289 -0.89431,-0.379559 -0.29933,-0.02125 -0.59372,-0.0032 -0.87732,0.103792 -0.23815,0.09349 -0.46425,0.20974 -0.66149,0.37514 -0.20368,0.167402 -0.39367,0.352562 -0.53208,0.579266 -0.11571,0.19059 -0.22497,0.386635 -0.29266,0.600234 -0.0724,0.190618 -0.12806,0.386479 -0.18227,0.582993 -0.0702,0.245397 -0.11866,0.495728 -0.0912,0.7524 0.0362,0.292571 0.10793,0.578459 0.2113,0.854815 0.1338,0.34055 0.29178,0.671403 0.44615,1.002994 0.13992,0.297083 0.29889,0.584525 0.45208,0.874885 0.18469,0.333806 0.37033,0.667193 0.59458,0.976748 0.24008,0.352746 0.4795,0.70595 0.71593,1.061173 0.25328,0.380647 0.50405,0.762916 0.75079,1.14785 0.22584,0.342786 0.46205,0.678565 0.69328,1.017718 0.20101,0.292989 0.40201,0.585958 0.60302,0.878937 0.22638,0.329945 0.45277,0.659909 0.67915,0.989844 0.25008,0.364463 0.50016,0.728937 0.75029,1.093357 0.30316,0.441646 0.60633,0.883262 0.90982,1.324675"
     id="path36"
     sodipodi:nodetypes="ccssccccccccccccccccccccccssccccccccccccccccccccccsssc" /><path
     style="fill:#000000;fill-opacity:1;fill-rule:nonzero;stroke:none;stroke-width:0.264583"
     id="path37"
     d="m 128.9353,89.858805 c 0.29534,-0.298162 0.59615,-0.589899 0.90666,-0.872273 0.4272,-0.401861 0.88318,-0.770366 1.33317,-1.145812 0.32867,-0.294139 0.67727,-0.564025 1.0187,-0.842816 0.48347,-0.380315 0.93237,-0.801378 1.38454,-1.217676 0.33327,-0.302178 0.6581,-0.61365 0.99133,-0.91586 0.21723,-0.194704 0.44063,-0.382389 0.66536,-0.568342 0.2276,-0.194161 0.46223,-0.379762 0.69114,-0.572342 0.21426,-0.188653 0.42854,-0.377745 0.65177,-0.555778 0.18366,-0.145743 0.36631,-0.292042 0.5359,-0.454133 0.13832,-0.137429 0.28411,-0.267151 0.42151,-0.405434 0.43529,-0.444667 -0.19356,-1.060251 -0.62885,-0.615584 v 0 c -0.1286,0.135251 -0.27425,0.254198 -0.40425,0.388273 -0.1475,0.14521 -0.3138,0.2685 -0.47369,0.39944 -0.22871,0.183109 -0.44967,0.375811 -0.66905,0.569946 -0.22695,0.191098 -0.45987,0.374905 -0.68548,0.567625 -0.23505,0.194491 -0.46862,0.390912 -0.69573,0.594665 -0.33462,0.303848 -0.66128,0.616448 -0.99603,0.92016 -0.43935,0.404571 -0.87524,0.814124 -1.34518,1.183514 -0.34371,0.28088 -0.69486,0.552572 -1.02586,0.848727 -0.45949,0.383611 -0.9251,0.760156 -1.36151,1.170526 -0.31854,0.289957 -0.62772,0.588959 -0.93075,0.895028 -0.44417,0.435794 0.17213,1.063939 0.6163,0.628146 z" /><path
     style="fill:#000000;fill-opacity:1;fill-rule:nonzero;stroke:none;stroke-width:0.264583"
     id="path38"
     d="m 132.89997,88.329032 c 0.46698,-0.400076 0.90561,-0.831447 1.35113,-1.254846 0.36677,-0.346287 0.73797,-0.687738 1.12798,-1.007769 0.22098,-0.175443 0.44254,-0.350218 0.66142,-0.52829 0.0557,-0.0414 0.1086,-0.08634 0.16225,-0.130322 0.48119,-0.394513 -0.0768,-1.075035 -0.55793,-0.68052 v 0 c -0.0528,0.04334 -0.10486,0.08781 -0.15989,0.128388 -0.21979,0.179041 -0.4427,0.354215 -0.66446,0.530784 -0.40603,0.333905 -0.79379,0.688585 -1.17559,1.049843 -0.27641,0.262697 -0.54986,0.528693 -0.82935,0.788128 -0.30736,0.28532 -0.1461,0.131269 -0.42029,0.377621 -0.0484,0.04344 -0.0958,0.08802 -0.14373,0.132097 -0.42065,0.458529 0.22781,1.053425 0.64846,0.594886 z" /><path
     style="fill:#000000;fill-opacity:1;fill-rule:nonzero;stroke:none;stroke-width:0.264583"
     id="path39"
     d="m 105.13219,76.708752 c -0.18692,0.118513 -0.37098,0.241544 -0.55506,0.364436 -0.34752,0.232379 -0.69337,0.467235 -1.03979,0.70127 -0.39032,0.260531 -0.77493,0.529255 -1.14534,0.817468 -0.29218,0.233206 -0.58411,0.472661 -0.83258,0.753564 -0.0516,0.05843 -0.0993,0.120164 -0.14895,0.180294 -0.19235,0.248391 -0.34684,0.522309 -0.44866,0.819882 -0.0624,0.182312 -0.0758,0.265706 -0.11767,0.452407 -0.0543,0.294932 -0.08,0.595725 -0.0672,0.895644 0.008,0.176218 0.021,0.25936 0.0423,0.432382 0.0469,0.361064 0.13077,0.715369 0.25126,1.058634 0.084,0.216024 0.18682,0.427403 0.32769,0.612673 0.0877,0.115323 0.13606,0.15967 0.23428,0.261187 0.28827,0.278193 0.63626,0.41534 1.01252,0.529163 0.29907,0.07788 0.60741,0.115273 0.91644,0.112602 0.18585,-0.0015 0.32566,-0.01625 0.50979,-0.03041 0.48391,-0.0457 0.95604,-0.162951 1.41848,-0.30846 0.47386,-0.155968 0.92358,-0.373203 1.36718,-0.599123 0.41796,-0.22103 0.83095,-0.45126 1.24662,-0.676598 0.28317,-0.15269 0.56451,-0.309099 0.83518,-0.483163 0.0985,-0.06398 0.19348,-0.133057 0.28812,-0.202518 0.50169,-0.368103 -0.0187,-1.077615 -0.5206,-0.709481 v 0 c -0.0806,0.05889 -0.1607,0.118715 -0.24475,0.172772 -0.25129,0.162714 -0.51446,0.305914 -0.7773,0.44889 -0.40907,0.221849 -0.81565,0.448282 -1.22683,0.666202 -0.40009,0.204153 -0.80527,0.401583 -1.23227,0.543907 -0.39924,0.126576 -0.80698,0.229066 -1.2248,0.2706 -0.13782,0.01185 -0.28114,0.0251 -0.41968,0.02798 -0.2305,0.0042 -0.46072,-0.02102 -0.68457,-0.07627 -0.22479,-0.06525 -0.45723,-0.141974 -0.63438,-0.301093 -0.0375,-0.03763 -0.10541,-0.103631 -0.13991,-0.146852 -0.097,-0.121579 -0.16511,-0.263483 -0.2222,-0.407119 -0.10269,-0.281547 -0.1655,-0.575468 -0.20691,-0.872031 -0.0158,-0.124879 -0.0292,-0.210212 -0.0357,-0.335782 -0.012,-0.232267 0.007,-0.465437 0.0466,-0.69429 0.0347,-0.162028 0.0693,-0.324682 0.13439,-0.478044 0.0649,-0.152793 0.15555,-0.293181 0.25372,-0.426236 0.0356,-0.04405 0.0694,-0.08978 0.10672,-0.132403 0.21757,-0.248969 0.47709,-0.458118 0.73407,-0.664137 0.35499,-0.276783 0.72467,-0.533454 1.09881,-0.783605 0.34406,-0.233616 0.68869,-0.46644 1.03444,-0.697579 0.18725,-0.124853 0.37453,-0.249698 0.56432,-0.370692 0.5131,-0.352024 0.0153,-1.077668 -0.49786,-0.725633 z"
     sodipodi:nodetypes="ccccscscscccccsccccccsscccccccccccccccccccccc" /><path
     style="fill:#000000;fill-opacity:1;fill-rule:nonzero;stroke:none;stroke-width:0.264583"
     id="path40"
     d="m 106.77873,79.108615 c -0.14575,0.103652 -0.28541,0.21559 -0.42807,0.323421 -0.33006,0.248155 -0.66524,0.489387 -1.00085,0.729968 -0.33326,0.238348 -0.66758,0.475247 -1.00254,0.71123 -0.27338,0.192423 -0.54733,0.384005 -0.82128,0.575607 -0.24177,0.163446 -0.47502,0.338746 -0.70829,0.513967 -0.18192,0.136934 -0.36473,0.272668 -0.54832,0.407365 -0.14701,0.108052 -0.29517,0.214633 -0.44362,0.320743 -0.06,0.04239 -0.11944,0.08563 -0.17946,0.127925 -0.50667,0.36122 0.004,1.077777 0.51088,0.716521 v 0 c 0.0604,-0.04271 0.12037,-0.0862 0.18084,-0.128966 0.15097,-0.108435 0.30194,-0.216871 0.45191,-0.326669 0.18642,-0.136393 0.37161,-0.274482 0.55624,-0.413294 0.2251,-0.169003 0.44982,-0.33857 0.68329,-0.49597 0.27505,-0.192332 0.55009,-0.384673 0.82455,-0.577835 0.33706,-0.237326 0.6736,-0.475367 1.00863,-0.715546 0.34153,-0.245234 0.68297,-0.490653 1.019,-0.743385 0.13156,-0.09993 0.261,-0.202837 0.3949,-0.299566 0.5131,-0.352044 0.0153,-1.077658 -0.49785,-0.725634 z"
     sodipodi:nodetypes="cccccccccsscccccccccc" /><path
     style="fill:none;fill-opacity:1;stroke:#000000;stroke-width:0.9;stroke-linecap:round;stroke-linejoin:round;stroke-dasharray:none"
     d="m 119.15096,89.716107 c 1.61083,0.01802 3.22089,0.03355 4.91803,0.04971"
     id="path41" /><path
     style="fill:none;fill-opacity:1;stroke:#000000;stroke-width:0.9;stroke-linecap:round;stroke-linejoin:round;stroke-dasharray:none"
     d="m 110.60535,84.22845 c 0.9092,1.34074 4.38991,2.950181 7.46985,2.484106"
     id="path42"
     sodipodi:nodetypes="cc" /><path
     style="fill:none;fill-opacity:1;stroke:#000000;stroke-width:0.899999;stroke-linecap:round;stroke-linejoin:round;stroke-dasharray:none"
     d="m 118.11916,92.557984 c -7.35673,0.02553 -11.7946,12.524216 -17.37508,11.564856 -3.276064,-0.5632 -0.51485,-4.691356 2.29417,-5.258089"
     id="path43"
     sodipodi:nodetypes="csc" /><path
     style="fill:none;fill-opacity:1;stroke:#000000;stroke-width:0.899999;stroke-linecap:round;stroke-linejoin:round;stroke-dasharray:none"
     d="m 108.06577,99.691583 c 0.69054,0.583507 1.38108,1.167017 2.07161,1.750527 0.0526,0.0576 0.10508,0.11519 0.15761,0.17278"
     id="path44" /><path
     style="fill:none;fill-opacity:1;stroke:#000000;stroke-width:0.899999;stroke-linecap:round;stroke-linejoin:round;stroke-dasharray:none"
     d="m 105.45959,107.41843 c 1.16419,-1.12276 1.16319,-1.66028 0.95795,-2.83637 1.05459,0.16765 1.90804,0.22206 2.67036,-0.47332"
     id="path45" /><path
     style="fill:none;fill-opacity:1;stroke:#ff4400;stroke-width:0.899999;stroke-linecap:round;stroke-linejoin:round;stroke-dasharray:none;stroke-opacity:1"
     d="m 116.895,95.205792 c 0.52202,3.069039 1.82719,5.952388 2.57247,8.933488 0.25697,-3.02984 0.75591,-6.094056 1.12253,-9.027034"
     id="path46" /><path
     style="fill:none;fill-opacity:1;stroke:#ff4400;stroke-width:0.899999;stroke-linecap:round;stroke-linejoin:round;stroke-dasharray:none;stroke-opacity:1"
     d="m 143.59419,71.719476 c 2.87046,0.306057 6.09594,1.442241 8.94042,1.74214 -2.6775,0.505772 -6.07234,1.382131 -9.00952,1.589805"
     id="path47"
     sodipodi:nodetypes="ccc" /></svg>
