<?xml version="1.0" encoding="UTF-8" standalone="no"?>
<svg
   id="svg8"
   version="1.1"
   viewBox="0 0 161.93089 35.056053"
   height="35.056053mm"
   width="161.93089mm"
   sodipodi:docname="18 soweli tu li sama. soweli wan li ante..svg"
   inkscape:version="1.3 (0e150ed6c4, 2023-07-21)"
   xmlns:inkscape="http://www.inkscape.org/namespaces/inkscape"
   xmlns:sodipodi="http://sodipodi.sourceforge.net/DTD/sodipodi-0.dtd"
   xmlns="http://www.w3.org/2000/svg"
   xmlns:svg="http://www.w3.org/2000/svg"
   xmlns:rdf="http://www.w3.org/1999/02/22-rdf-syntax-ns#"
   xmlns:cc="http://creativecommons.org/ns#"
   xmlns:dc="http://purl.org/dc/elements/1.1/">
  <sodipodi:namedview
     id="namedview1"
     pagecolor="#ffffff"
     bordercolor="#000000"
     borderopacity="0.25"
     inkscape:showpageshadow="2"
     inkscape:pageopacity="0.0"
     inkscape:pagecheckerboard="0"
     inkscape:deskcolor="#d1d1d1"
     inkscape:document-units="mm"
     showgrid="false"
     inkscape:zoom="5.6568542"
     inkscape:cx="311.12698"
     inkscape:cy="40.747028"
     inkscape:window-width="1920"
     inkscape:window-height="1051"
     inkscape:window-x="-9"
     inkscape:window-y="-9"
     inkscape:window-maximized="1"
     inkscape:current-layer="svg8" />
  <defs
     id="defs2" />
  <metadata
     id="metadata5">
    <rdf:RDF>
      <cc:Work
         rdf:about="">
        <dc:format>image/svg+xml</dc:format>
        <dc:type
           rdf:resource="http://purl.org/dc/dcmitype/StillImage" />
        <dc:title />
      </cc:Work>
    </rdf:RDF>
  </metadata>
  <g
     transform="translate(-100.15371,-71.366469)"
     id="layer1">
    <g
       transform="matrix(0.26458333,0,0,0.26458333,92.534519,62.408372)"
       id="g989">
      <path
         style="opacity:0.2"
         d="m 103.2,117 c 12.7,8.2 34.5,15.5 14.8,27.5 -18.4,11.2 -39.2,-0.4 -49.5,-10.6 -20.7,-20.6 -56.1,-20.3 -31.1,-23.8 1.9,-0.3 15.8,0 29.6,2 14.3,2 32.4,2.4 36.2,4.9 z"
         id="path961" />
      <path
         style="opacity:1;fill:#f8ebcb"
         d="m 96.1,110.4 c 0,0 2,4.7 1.9,6.2 -0.1,1.5 -0.8,3.5 0.1,4.3 0.9,0.7 7.8,5.2 9.1,7.1 1.3,1.9 2,5.2 6.6,3 4.6,-2.2 3.1,-5.5 0.9,-6.4 -2.1,-0.9 -6.5,-1.7 -8.8,-3.9 -2.3,-2.2 -3.2,-2.9 -1.2,-6.3 2,-3.4 2.9,-6.1 2.9,-6.1 z"
         id="path963" />
      <path
         style="opacity:0.2"
         d="m 96.1,110.4 c 0,0 2,4.7 1.9,6.2 -0.1,1.5 -0.8,3.5 0.1,4.3 0.9,0.7 7.8,5.2 9.1,7.1 1.3,1.9 2,5.2 6.6,3 4.6,-2.2 3.1,-5.5 0.9,-6.4 -2.1,-0.9 -6.5,-1.7 -8.8,-3.9 -2.3,-2.2 -3.2,-2.9 -1.2,-6.3 2,-3.4 2.9,-6.1 2.9,-6.1 z"
         id="path965" />
      <path
         style="opacity:1;fill:#f8ebcb"
         d="m 86.8,47.8 c 0.8,-1.5 2.6,-3.6 5.5,-5 2.9,-1.4 5,-1.9 5,-1.9 0,0 1.7,-3.1 5.5,-1.8 3.8,1.3 7.5,8.5 8.4,11.6 0.9,3.1 2.2,8.7 1,9.4 -1.2,0.7 -3,-2.1 -3,-2.1 0,0 1,4.5 1.8,7.3 0.7,2.8 -0.1,7.7 0.7,9.3 0.7,1.6 4.2,7.5 3.8,13.7 -0.4,6.2 -2.8,12.2 -2.9,14.8 -0.1,2.6 3.4,16.8 4,17.9 0.6,1.1 0.2,4.4 1.2,6.4 1,2 8.7,3.9 6.2,7.8 -2.4,3.9 -9.3,2 -10.3,-0.2 -1,-2.2 0.1,-4.6 -1.1,-8.8 -1.2,-4.2 -6.7,-15.8 -6.7,-15.8 0,0 -2,0.6 -4.8,0.9 -2.9,0.4 -5.9,3.9 -4.9,9.7 1,5.8 2,8 2.6,9.4 0.6,1.4 0.2,4.6 1.1,6.4 0.9,1.9 7.2,4.2 4.8,7.3 -2.4,3.1 -7.5,3.2 -10.2,0.6 -2.7,-2.6 -0.4,-3.8 -2.2,-10.2 -1.9,-6.4 -4,-13.8 -4,-13.8 l -6.3,1.5 -4.4,9.3 c 0,0 3.8,2.8 5.7,3.9 1.9,1.1 5.7,0.2 7,1.9 1.3,1.7 1.8,5.5 -2.2,7 -4,1.5 -6.3,-3.4 -7.7,-4.5 -1.4,-1 -7,-3.3 -8.5,-5 -1.5,-1.7 -0.2,-5.8 -0.2,-5.8 0,0 -5.9,-0.6 -8.8,-4.4 -2.9,-3.8 -2.5,-4.6 -3.7,-5.5 -1.2,-0.9 -3.1,-1.7 -8.8,-1.1 -5.7,0.6 -12.7,-1.8 -15.7,-5.2 -3.1,-3.4 -3.7,-11.3 -2.9,-12 0.8,-0.7 2.2,4.5 3.8,5.7 1.6,1.2 5.3,4.2 9.7,3.8 4.4,-0.4 12.5,-3.6 12.5,-3.6 0,0 4.6,-12.8 10.8,-19.7 6.2,-7 14.6,-11.7 15.9,-16.8 1.1,-5.1 1,-19.9 2.3,-22.4 z"
         id="path967" />
      <g
         id="g971">
        <path
           style="opacity:0.2"
           d="m 84.6,108.1 c 0,0 -1.2,1.6 -4,1.6 -1.5,0 -3.7,-0.2 -5.3,-0.4 0.6,0.1 1.4,0.3 2.2,0.6 2.8,0.9 3.9,2.1 5.1,4.6 1.1,2.5 -0.8,7.7 -0.8,7.7 l 6.3,-1.5 c 0,0 -0.7,-2.1 -1,-3.2 -0.3,-1 -2.6,-6.6 -2.5,-9.4 z"
           id="path969" />
      </g>
      <path
         style="opacity:0.2"
         d="m 94.9,65.4 c -0.4,-1.5 -1.8,-5.1 -4,-7.5 -1.6,-1.8 -3,-5.8 -3.6,-8.3 l -1.1,0.3 c -0.6,3.7 -0.8,10.7 -1.3,15.8 0.9,0.7 4.2,1.9 5.3,2.5 4.7,2.6 5.5,0.5 4.7,-2.8 z"
         id="path973" />
      <path
         style="opacity:1;fill:#262626"
         d="m 93.7,52.8 c 0,0 -0.1,-2.2 0.8,-3.1 0.8,-0.9 2.5,-0.6 1.7,1.3 -0.8,2 -2.5,1.8 -2.5,1.8 z"
         id="path975" />
      <path
         style="opacity:1;fill:#262626"
         d="m 102.9,45.7 c 0,0 -0.2,-1.1 0.7,-1.5 0.9,-0.3 1.8,1.5 1.8,1.5 z"
         id="path977" />
      <path
         style="opacity:1;fill:#262626"
         d="m 111.1,53.4 c 0,0 -0.3,-0.6 -1,-0.8 -0.6,-0.2 -1.3,-0.1 -2.1,0.2 l -0.9,-1.8 -0.3,0.2 0.9,1.8 c -1.3,0.7 -1.9,1.5 -2.6,2.5 -0.4,0.6 -0.9,1.3 -1.6,1.9 -1.8,1.8 -2.8,2.1 -2.8,2.1 -0.1,0 -0.1,0.1 -0.1,0.2 0,0.1 0.1,0.1 0.2,0.1 0,0 0,0 0.1,0 0,0 1.1,-0.4 3,-2.2 0.7,-0.7 1.2,-1.4 1.6,-2 0.7,-1 1.3,-1.8 2.6,-2.5 0.8,-0.4 1.4,-0.5 1.9,-0.3 0.6,0.2 0.8,0.6 0.8,0.6 0,0.1 0.2,0.1 0.2,0.1 0.1,0.1 0.1,0 0.1,-0.1 z"
         id="path979" />
      <path
         style="opacity:1;fill:#f8ebcb"
         d="m 87.4,47.1 c -0.8,-0.5 -2.7,0.7 -4.1,3.4 -1.4,2.7 -3.4,7.5 -1.8,9.9 1.6,2.4 4.3,4.5 6.7,5.4 2.3,0.9 5,2.6 5.7,2.1 0.7,-0.5 -1.1,-5.7 -3,-8.4 -1.9,-2.7 -4,-5.8 -4,-5.8 0,0 2.5,-5.3 0.5,-6.6 z"
         id="path981" />
      <path
         style="opacity:0.2"
         d="m 111.1,50.6 c 0.7,1.7 0.5,3.5 -0.1,5.2 -0.6,1.6 -1.7,2.3 -1.7,2.3 v 0.1 c 0.3,0.5 1.8,2.7 2.9,2 1.2,-0.7 -0.1,-6.3 -1,-9.4 -0.9,-3.1 -4.6,-10.2 -8.4,-11.6 -3.5,-1.2 -5.2,1.3 -5.5,1.7 1.6,0 4.4,0.4 5.9,1.9 1.6,1.5 2.6,2.4 3.6,3.8 1,1.4 3.5,2.2 4.3,4 z"
         id="path983" />
      <path
         style="opacity:1;fill:#262626"
         d="m 102.6,48.5 c -0.7,1.6 1.8,4 4.3,2.9 2.5,-1.2 1.5,-4 0.7,-4.6 -0.8,-0.7 -4.2,-0.2 -5,1.7 z"
         id="path985" />
      <path
         style="opacity:1;fill:#262626"
         d="M 112.2,69.8 C 108,70.5 102.9,70.9 97.7,70.6 90,70.3 85.7,69 84,68 c -0.1,0.7 -0.2,1.4 -0.4,2 -0.2,0.6 -0.4,1.3 -0.8,1.9 4,2 10.5,2.6 14.7,2.7 1.1,0 2.2,0.1 3.3,0.1 3.7,0 7.7,-0.2 11.5,-0.9 -0.2,-1 -0.1,-2.5 -0.1,-4 z"
         id="path987" />
    </g>
    <g
       id="g1375"
       transform="matrix(0.26458333,0,0,0.26458333,119.9839,60.29017)">
      <path
         id="path1357"
         d="m 63.6,114.3 c -14.1,9.1 -38.5,17.2 -16.5,30.7 20.5,12.5 40.7,-4.1 55.2,-11.8 21.3,-11.3 32.2,-21.2 19.2,-29.4 -13.4,-8.4 -49.5,5.1 -57.9,10.5 z"
         style="opacity:0.2" />
      <path
         id="path1359"
         d="m 88.4,90.5 c 0,0 8.9,2.3 8.9,4.9 0,1.4 0,5.8 0,7 0,2.2 -4.6,3.8 -4.6,6 0,2.9 5.7,4.7 7.3,4.3 1.6,-0.4 2.5,-1.2 2.5,-4 0,-2.8 1,-14.5 1.4,-18.1 0.4,-3.6 -1.1,-14.8 -1.1,-14.8 z"
         style="opacity:1;fill:#f8ebcb" />
      <path
         id="path1361"
         d="m 88.4,90.5 c 0,0 8.9,2.3 8.9,4.9 0,1.4 0,5.8 0,7 0,2.2 -4.6,3.8 -4.6,6 0,2.9 5.7,4.7 7.3,4.3 1.6,-0.4 2.5,-1.2 2.5,-4 0,-2.8 1,-14.5 1.4,-18.1 0.4,-3.6 -1.1,-14.8 -1.1,-14.8 z"
         style="opacity:0.2" />
      <path
         id="path1363"
         d="m 21.6,54.3 c 1.6,-0.6 7.9,-2.8 8,-4 0.1,-1.2 0,-3.1 1.5,-3.8 1.5,-0.7 2.8,-4.2 4.6,-4.5 1.8,-0.4 2.8,0.1 6.3,1.2 3.5,1.1 7.7,3.4 10.4,5.3 2.8,2 4.1,4 5.9,6.7 1.8,2.7 2.4,3.5 2.1,4.2 -0.3,0.7 -0.8,0.3 -0.4,1.5 0.6,1.6 0.9,3.7 3,4.3 7.1,1.9 23.5,-9.6 27.8,-10.9 10.1,-3.3 19.9,1.8 25,6 3.3,2.7 6.5,10.1 8.9,14.9 2.4,4.8 6.7,5.4 6.3,7.5 -0.2,0.9 -1.5,1.5 -4.1,0.5 -3.3,-1.3 -10.5,-9.4 -10.5,-9.4 0,0 1,3 -0.5,7 -1.5,4 -3.8,10.5 -1.7,12.7 2,2.1 4.6,4.5 4.9,6.7 0.3,2.2 1.2,18.2 1.2,19 0,0.8 -0.5,2.3 -2,2.8 -4.5,1.5 -10.1,-1.7 -9.3,-4.5 0.8,-2.8 4,-2.1 4,-6.3 0,-1.5 -0.4,-6 -0.7,-6.9 -0.4,-1.2 -1.7,-2.4 -3.3,-3 -1.4,-0.5 -7.3,-3.8 -8.5,-7.5 -1.2,-3.7 -1.7,-7.9 -3.7,-8.2 -2,-0.6 -8.8,10.6 -14.5,14.4 -5.7,3.8 -9.5,4.1 -9.5,4.1 0,0 -1.1,18.6 -1.1,22.2 0,3.6 2.6,7.4 3,9.8 0.4,2.5 1,6.8 -2.1,8.8 -3.7,2.4 -8.4,0.2 -9.5,-1.1 -1,-1.3 -1.2,-3.7 0.4,-5.2 1.5,-1.5 3.3,-2.7 2.8,-3.4 -0.5,-0.7 -2.5,-4.1 -2.9,-6.2 -0.5,-3.3 -1,-17.2 -4.9,-19.6 -1.2,-0.7 -4.1,-1.1 -4.9,0.1 -0.8,1.3 -0.7,8.7 -0.7,9.9 0,1.9 2.8,6 2.8,9.3 0,3.3 -1.2,5.1 -4.1,6.1 -2.3,0.8 -5.4,0.2 -7.7,-2.7 -1.5,-1.9 -0.3,-4 1.2,-4.9 1,-0.6 2.3,-0.8 2.4,-2.1 0.1,-1.3 -1.8,-3.2 -1.8,-5.6 0,-2.4 -1,-12 -1,-13.2 0,-3.9 -6.4,-7.6 -8.8,-15.6 C 34.7,86.8 35.6,82.3 35.3,79 35.3,76.8 34.8,67.8 31,67 29.6,66.7 23.4,66.8 21.7,64.9 20.4,63.5 19.6,61.6 20,59.4 c 0.4,-2.3 1.6,-5.1 1.6,-5.1 z"
         style="opacity:1;fill:#f8ebcb" />
      <path
         id="path1365"
         d="m 41.3,56.5 c 0,0 -0.7,-1.9 -2.4,-2.9 -1.6,-0.9 -3.2,0.9 -1.2,2.4 1.8,1.4 3.6,0.5 3.6,0.5 z"
         style="opacity:1;fill:#262626" />
      <path
         id="path1367"
         d="m 25.7,57.1 c 0.2,-1.8 -1,-2.7 -3.3,-3.2 -1.4,-0.3 -3,0.5 -3,2.3 0,2.5 2.1,4.4 2.1,4.4 0,0 3.8,0 4.2,-3.5 z"
         style="opacity:1;fill:#262626" />
      <path
         id="path1369"
         d="m 29.8,48.5 c 0,0 1.2,0.6 0.3,1.5 -0.8,1.1 -0.3,-1.5 -0.3,-1.5 z"
         style="opacity:1;fill:#262626" />
      <path
         id="path1371"
         d="m 34.6,73.3 c 0,0 2.8,1.6 7.3,1.6 4.5,0 8.4,-1.8 10.6,-3.9 2.2,-2.1 8.1,-8.5 8.1,-8.5 l 2,2.1 c 0,0 -7,8.9 -10,10.7 -3.1,1.8 -6.3,3.4 -10.8,3.3 -4.5,-0.1 -6.6,-1.5 -6.6,-1.5 z"
         style="opacity:1;fill:#262626" />
      <path
         id="path1373"
         d="m 46.7,54.8 c 0,0 -4.9,18.4 0.8,18.2 2.9,-0.1 12.3,-13.1 12.3,-13.1 0,0 -5.6,16.4 -13.4,16.5 -7.7,0.1 0.3,-21.6 0.3,-21.6 z"
         style="opacity:0.2" />
    </g>
    <g
       transform="matrix(0.26458333,0,0,0.26458333,116.20505,65.971454)"
       id="g1031">
      <ellipse
         style="opacity:0.2"
         transform="matrix(0.9564,-0.2919,0.2919,0.9564,-38.1725,17.888)"
         cx="40.900002"
         cy="136.89999"
         rx="26.799999"
         ry="14.6"
         id="ellipse1013" />
      <path
         style="fill:#825012"
         d="m 41.1,114.4 c 0,0 -12.3,0.8 -17.3,2.2 -5,1.4 -3.7,8.6 0.8,11.3 4.5,2.7 7.4,3.8 7.4,3.8 0,0 -7.3,0.1 -9.2,1 -1.9,0.9 -6,2.7 -5.6,5.4 0.4,2.7 3.8,4.1 6.3,3.1 2.4,-1 6.2,-4.2 8.3,-4.7 2.1,-0.5 8.3,0 8.8,-0.5 0.5,-0.5 0.9,-1.3 0.9,-1.3 l 3.5,0.9 12.7,-12.9 z"
         id="path1015" />
      <path
         style="opacity:0.2"
         d="m 41.1,114.4 c 0,0 -12.3,0.8 -17.3,2.2 -5,1.4 -3.7,8.6 0.8,11.3 4.5,2.7 7.4,3.8 7.4,3.8 0,0 -7.3,0.1 -9.2,1 -1.9,0.9 -6,2.7 -5.6,5.4 0.4,2.7 3.8,4.1 6.3,3.1 2.4,-1 6.2,-4.2 8.3,-4.7 2.1,-0.5 8.3,0 8.8,-0.5 0.5,-0.5 0.9,-1.3 0.9,-1.3 l 3.5,0.9 12.7,-12.9 z"
         id="path1017" />
      <path
         style="fill:#825012"
         d="m 63.7,127.2 c -0.2,-2.9 -4.9,-6.2 -10.4,-4.4 -5.5,1.8 -10.4,7.2 -10,10.4 0.4,3.2 4.1,6.8 4.1,6.8 0,0 -4.3,-0.1 -5.9,1.3 -1.7,1.4 -1.4,2.4 -2.7,4.2 -1.3,1.8 -3.1,4.2 -0.3,5.2 2.8,1 5,0.9 6.4,-0.6 1.4,-1.5 1.8,-4.9 1.8,-4.9 0,0 5.1,-1.2 6.4,-1.9 2.6,-1.4 1.4,-4.6 1.4,-4.6 0,0 4.3,-1 6.6,-4.2 2.3,-3.2 2.9,-3.4 2.6,-7.3 z"
         id="path1019" />
      <path
         style="fill:#2d3134"
         d="m 14.5,64.7 c 2.5,-2.4 7.6,-5.6 8.1,-6.7 0.5,-1.2 -0.7,-5.2 0.4,-5.9 1.1,-0.7 3.5,-1.4 3.5,-1.4 0,0 0,-2.1 0.8,-4.8 0.8,-2.7 1,-5.3 1,-5.3 0,0 2.3,2.6 2.8,4.1 0.5,1.5 2.2,3.5 2.2,3.5 0,0 2.3,-0.7 4.5,0.4 1.9,0.9 2.5,1.8 2.5,1.8 L 41.2,46 c 0,0 2.5,2.6 3.1,6.1 0.5,3 0.4,3.8 0.4,3.8 0,0 2.2,4.6 2.4,9.5 0.2,4.9 2.3,9.8 5.6,14.3 3.3,4.5 9,11 10.1,17.3 1.1,6.3 4.2,17.6 3.9,22.7 -0.3,5.4 -0.8,13.8 -5.7,17.2 -3.3,2.3 -6.4,1.8 -6.4,1.8 0,0 -4.9,-4.2 -5,-5.1 -0.1,-0.9 7,-6.8 8.8,-8.3 1.8,-1.4 0.5,-2.6 0.5,-2.6 0,0 -4.3,-1.1 -6.2,-1.5 -4.6,-1.2 -9,-4 -9,-4 0,0 -1.5,5.3 -1.3,8.7 0.3,3.4 0.4,6.9 -1.1,9.1 -1.5,2.2 -3.4,6.4 -3.5,8.7 -0.1,2.3 -0.6,5.3 -2.9,6.4 -2.3,1.2 -6.6,-0.2 -6.6,-1.5 0,-1.3 1.5,-3.2 3,-4.8 1.5,-1.6 5.3,-10.1 5.7,-12.6 0.4,-2.5 0.5,-18.2 0.5,-18.2 l -5.6,-2 c 0,0 0.1,8.7 0.2,11.4 0.1,2.8 -0.2,6.3 -1.5,10.2 -1.3,3.9 -2.6,9.3 -3.1,10.7 -0.5,1.3 -2,3.2 -3.9,3.5 -3.2,0.4 -6.2,-1.5 -5.3,-3.3 0.9,-1.7 3.7,-3.8 5,-6 1.4,-2.4 3.2,-6.2 3.4,-10.3 0.3,-8 -1.9,-19.9 -2.3,-22.1 -0.4,-2.2 -3,-4.7 -2,-11 1,-6.3 5.1,-10.9 5.2,-13.1 0.1,-2.2 1.3,-8.3 -0.4,-9 -1.7,-0.7 -6.3,2 -10.5,-1.3 -4.2,-3.2 -2.2,-6 -2.2,-6 z"
         id="path1021" />
      <path
         style="fill:#825012"
         d="m 39.9,65.8 c -0.4,-1 -7.1,-1 -12.8,-2.1 C 23.6,63 19.3,62.9 16.6,63 c -0.8,0.6 -1.5,1.2 -2.1,1.8 0,0 -2,2.8 2.1,6.1 4.1,3.3 8.8,0.5 10.5,1.3 0.5,0.2 0.8,1 0.9,2 0.6,1.2 1.6,2.5 2.6,2.2 1.8,-0.6 9.7,-9.6 9.3,-10.6 z"
         id="path1023" />
      <path
         d="m 28.5,59.5 c -0.1,-0.7 3.8,-0.7 3.9,-0.1 0.1,0.6 -3.7,1.4 -3.9,0.1 z"
         id="path1025" />
      <path
         style="fill:#825012"
         d="m 39.7,59.9 c -1.4,-0.7 -1.2,-3.9 0,-6.3 1.2,-2.3 2.1,-5.3 2.1,-5.3 0,0 2.4,4.7 2,7.4 -0.4,2.6 -1.8,5.3 -4.1,4.2 z"
         id="path1027" />
      <path
         style="fill:#262626"
         d="m 15.8,66.9 c -0.7,-0.6 -1.9,-2.2 -1.3,-3.7 0.6,-1.4 4,-2.9 5.6,-1.6 1.6,1.3 0.2,4.1 -0.5,4.9 -0.8,0.9 -2.7,1.3 -3.8,0.4 z"
         id="path1029" />
    </g>
  </g>
  <path
     style="fill:#000000;fill-opacity:1;fill-rule:nonzero;stroke:none;stroke-width:0.264583"
     id="path1"
     d="m 69.486166,10.093202 c 0.746998,-0.0076 1.495054,0.0058 2.238499,0.08744 0.280834,0.03084 0.559774,0.077 0.83966,0.115505 1.258054,0.221992 2.484657,0.608521 3.616108,1.206595 0.788006,0.416533 1.197756,0.709716 1.943989,1.198002 1.149279,0.823812 2.18594,1.792298 3.099377,2.870364 0.255813,0.301919 0.815864,1.018064 1.06381,1.33266 0.715309,0.943731 1.494303,1.844481 2.44384,2.560754 0.159748,0.120504 0.328941,0.227945 0.493414,0.341917 0.95776,0.560937 2.012711,0.910945 3.079099,1.197315 0.319627,0.0936 0.648303,0.135938 0.978175,0.170096 0.618757,0.06587 0.525597,0.940928 -0.09316,0.875055 v 0 c -0.375311,-0.04087 -0.749623,-0.08971 -1.113602,-0.195358 -1.163958,-0.313585 -2.314263,-0.70065 -3.353332,-1.324908 -0.182626,-0.127688 -0.370292,-0.248453 -0.547878,-0.383063 -0.998572,-0.756917 -1.823421,-1.703067 -2.577721,-2.697115 -0.52391,-0.664846 -1.036646,-1.343348 -1.618234,-1.960009 -0.712214,-0.755162 -1.495806,-1.442283 -2.336028,-2.051608 -0.708665,-0.464857 -1.096518,-0.742701 -1.841375,-1.140198 -1.049145,-0.559881 -2.188954,-0.919465 -3.35719,-1.128818 -0.262705,-0.03664 -0.524481,-0.08071 -0.788117,-0.109908 -0.720497,-0.07981 -1.445363,-0.09234 -2.169334,-0.08472 -0.622255,0 -0.622255,-0.88 0,-0.88 z" />
  <path
     style="fill:#000000;fill-opacity:1;fill-rule:nonzero;stroke:none;stroke-width:0.264583"
     id="path2"
     d="m 80.683044,15.961902 c 0.03544,-0.08498 0.06364,-0.173358 0.106307,-0.25495 0.119816,-0.229117 0.371837,-0.607081 0.513164,-0.808593 0.324856,-0.463195 0.679453,-0.898375 1.044149,-1.330223 0.753311,-0.833611 1.557256,-1.629881 2.452968,-2.311488 0.169617,-0.129071 0.346567,-0.248206 0.519851,-0.372309 0.602954,-0.409562 1.242798,-0.766377 1.926034,-1.023343 0.364662,-0.137149 0.483465,-0.161706 0.853125,-0.264605 0.371872,-0.09487 0.751227,-0.152252 1.130179,-0.209268 0.61537,-0.0923 0.745902,0.777964 0.130532,0.870265 v 0 c -0.343921,0.05141 -0.688285,0.102699 -1.02611,0.187156 -0.32966,0.09053 -0.43035,0.11068 -0.755891,0.23149 -0.620056,0.230104 -1.199298,0.554581 -1.746292,0.924327 -0.159869,0.113926 -0.32321,0.223137 -0.47961,0.341779 -0.852091,0.646369 -1.61566,1.403406 -2.332786,2.194165 -0.542277,0.640581 -1.077638,1.300359 -1.481895,2.039028 -0.150918,0.603675 -1.004644,0.390244 -0.853725,-0.213431 z" />
  <path
     style="fill:#000000;fill-opacity:1;fill-rule:nonzero;stroke:none;stroke-width:0.264583"
     id="path3"
     d="m 93.588728,18.703592 c -0.03064,0.01079 -0.06281,0.01795 -0.09191,0.03238 -0.0476,0.02361 -0.095,0.04888 -0.137157,0.08122 -0.125233,0.09605 -0.224671,0.230808 -0.298204,0.369105 -0.02429,0.04569 -0.04333,0.09399 -0.06499,0.140989 -0.01566,0.04593 -0.03552,0.09065 -0.047,0.137803 -0.01423,0.05845 -0.02604,0.117957 -0.02993,0.177997 -0.0122,0.188631 0.03468,0.377742 0.143105,0.533903 0.0375,0.05401 0.0876,0.0981 0.131395,0.147144 0.04853,0.03545 0.09399,0.07556 0.145595,0.106364 0.216435,0.129167 0.491403,0.170367 0.729028,0.07213 0.0666,-0.02753 0.125246,-0.07132 0.187867,-0.106977 0.04298,-0.03992 0.0906,-0.07536 0.128926,-0.119756 0.125479,-0.145354 0.189124,-0.305069 0.211696,-0.494285 0.01453,-0.121752 0.0021,-0.178282 -0.01032,-0.297859 -0.02965,-0.111411 -0.04165,-0.189183 -0.10097,-0.289059 -0.08065,-0.135799 -0.194818,-0.254343 -0.335354,-0.32863 -0.04521,-0.0239 -0.09428,-0.03966 -0.141422,-0.05949 -0.04845,-0.0096 -0.09615,-0.02429 -0.145333,-0.02866 -0.147069,-0.01307 -0.297559,0.02134 -0.422175,0.101321 -0.107064,0.06872 -0.119134,0.09676 -0.197773,0.190402 -0.05933,0.110297 -0.09748,0.156362 -0.107956,0.289922 -0.01058,0.13507 0.01402,0.24096 0.07853,0.35854 0.06161,0.112276 0.111403,0.14027 0.205296,0.219843 0.09225,0.05177 0.132569,0.08377 0.240075,0.104372 0.149727,0.02869 0.297513,0.0064 0.428873,-0.07258 0.0403,-0.02423 0.07305,-0.05922 0.109583,-0.08883 0.03659,-0.0598 0.08324,-0.114498 0.109773,-0.179386 0.02035,-0.04975 0.02964,-0.104983 0.02848,-0.158723 -0.0036,-0.16752 -0.06258,-0.294335 -0.206102,-0.398214 -0.06303,-0.04562 -0.14722,-0.0504 -0.220827,-0.0756 -0.620098,-0.05175 -0.69329,0.825196 -0.07319,0.876951 v 0 c -0.0671,-0.02466 -0.14441,-0.03067 -0.201284,-0.07397 -0.128495,-0.09782 -0.178914,-0.208573 -0.178057,-0.359803 2.3e-4,-0.04098 0.0096,-0.08286 0.02713,-0.119925 0.02328,-0.04937 0.06202,-0.08984 0.09302,-0.134767 0.02299,-0.01613 0.04391,-0.03572 0.06897,-0.04838 0.0853,-0.04307 0.18769,-0.04882 0.271529,7.41e-4 0.0088,0.0052 0.01582,0.01294 0.02371,0.01941 0.009,0.01075 0.01931,0.02052 0.02699,0.03225 0.05827,0.0891 0.05956,0.198547 0.01146,0.292533 -0.0075,0.01457 -0.01937,0.0264 -0.02903,0.03959 -0.0092,0.008 -0.01759,0.01695 -0.02761,0.02387 -0.05092,0.03515 -0.114959,0.04926 -0.175583,0.03272 -0.01053,-0.0029 -0.01992,-0.0089 -0.02989,-0.01328 -0.0074,-0.0059 -0.01606,-0.01058 -0.02233,-0.01771 -0.003,-0.0035 0.0074,-0.0084 0.0074,-0.0089 -0.0027,-0.0353 -0.01974,-0.03941 0.01148,-0.01264 0.0026,0.0098 0.0056,0.01944 0.0076,0.02932 0.0019,0.0092 7.94e-4,0.01929 0.0045,0.02798 0.0021,0.0053 0.02907,0.0041 0.03058,0.0051 0.0028,0.0018 0.0011,0.0067 0.0019,0.01 0.01281,-0.0015 0.02553,-0.0051 0.03842,-0.0044 0.0063,2.91e-4 0.01172,0.0046 0.01744,0.0071 0.0076,0.0034 0.06038,0.02377 0.0122,0.02489 -0.0051,1.2e-4 -0.01027,-4.23e-4 -0.0154,-6.35e-4 1.8e-4,0.0089 0.0011,0.03416 -7.94e-4,0.04157 -0.003,0.01088 -0.02685,0.0208 -0.02384,-0.0021 0.0024,-0.0189 0.01035,-0.03671 0.0155,-0.05507 0.01691,-0.04422 0.02048,-0.05904 0.04382,-0.09944 0.0078,-0.01355 0.02098,-0.02429 0.02593,-0.03914 0.0013,-0.004 -0.0084,-0.0021 -0.01251,-0.0012 -0.01249,0.0027 -0.02432,0.0078 -0.03648,0.01177 -0.0069,0.0013 -0.01378,0.0026 -0.02069,0.004 0.603676,-0.150919 0.390245,-1.004644 -0.213431,-0.853726 z" />
  <path
     style="fill:#000000;fill-opacity:1;fill-rule:nonzero;stroke:none;stroke-width:0.264583"
     id="path4"
     d="m 96.775322,9.9932777 c -0.176498,0.00988 -0.317045,0.0651 -0.450382,0.1877163 -0.03333,0.03066 -0.05956,0.06825 -0.08933,0.102372 -0.02365,0.03696 -0.0497,0.07248 -0.07092,0.110881 -0.104698,0.189449 -0.168018,0.422039 -0.102682,0.636694 0.02649,0.08702 0.08107,0.162871 0.121602,0.244307 0.04815,0.05289 0.09234,0.109672 0.144455,0.158661 0.139671,0.131302 0.318027,0.228356 0.505341,0.270275 0.163478,0.03658 0.208896,0.02277 0.369636,0.01241 0.114221,-0.0298 0.233042,-0.04832 0.330242,-0.123598 0.152506,-0.118111 0.222949,-0.211713 0.279358,-0.391443 0.04794,-0.152753 0.0293,-0.222503 0.01913,-0.376873 -0.03738,-0.178017 -0.104301,-0.315637 -0.231105,-0.447102 -0.08976,-0.09306 -0.193813,-0.152045 -0.306636,-0.2107 -0.159145,-0.07668 -0.332465,-0.103536 -0.504981,-0.05438 -0.113729,0.0324 -0.147371,0.06704 -0.239231,0.132076 -0.02572,0.02549 -0.05332,0.04919 -0.07713,0.07646 -0.09,0.103083 -0.155139,0.23812 -0.176435,0.373814 -0.0064,0.041 -0.007,0.0827 -0.01056,0.124052 0.0056,0.04689 0.0062,0.09463 0.01672,0.140668 0.03652,0.160178 0.162541,0.360556 0.316576,0.431545 0.06973,0.03214 0.148204,0.04018 0.222306,0.06027 0.07386,-0.01441 0.152474,-0.01343 0.221575,-0.04323 0.115372,-0.04975 0.209196,-0.148603 0.260538,-0.261524 0.02228,-0.04901 0.02938,-0.10358 0.04407,-0.15537 0.0923,-0.615371 -0.77797,-0.745897 -0.870267,-0.130526 v 0 c 0.01199,-0.03378 0.01908,-0.06972 0.03597,-0.101334 0.01601,-0.02994 0.0357,-0.05914 0.06155,-0.08113 0.125595,-0.106813 0.140084,-0.08438 0.301691,-0.105162 0.05459,0.01886 0.112668,0.02967 0.163762,0.05659 0.08721,0.04596 0.109415,0.123233 0.105193,0.212357 -0.0028,0.01171 -0.0047,0.02365 -0.0082,0.03514 -0.0011,0.0033 -0.0036,0.0059 -0.0054,0.0089 -7.94e-4,-1.14e-4 -0.0021,-10e-4 -0.0027,-3.44e-4 -0.01534,0.01589 -0.02646,0.03486 -0.04763,0.04452 -0.06179,0.0316 -0.130614,0.05068 -0.199337,0.02746 -0.01008,-0.0034 -0.02347,-0.0046 -0.02875,-0.01386 -0.0047,-0.0081 0.0176,0.0065 0.02638,0.0097 0.01773,0.0078 0.04498,0.02369 0.04932,0.0154 0.0057,-0.01085 -0.0061,-0.02865 0.0095,-0.03552 0.02698,-0.02657 0.124357,-0.131579 0.152311,-0.101176 0.0021,0.0022 0.03207,0.04118 0.03203,0.04428 -0.0062,0.0033 0.0125,-0.08796 -0.03107,-0.09153 -0.05939,0.0068 -0.138496,0.03687 -0.18833,0.01381 7.94e-4,0.04821 0.0063,0.06155 -0.01257,0.105993 -0.0016,0.0036 -0.01021,0.0099 -0.0099,0.0061 0.0019,-0.02667 0.0199,-0.05099 0.02191,-0.07788 -0.03035,0.0062 0.01569,-0.0041 -0.05697,0.0273 -0.03554,0.01535 -0.05223,0.01145 -0.09056,0.01298 0.622252,0 0.622252,-0.8800001 0,-0.8800001 z"
     sodipodi:nodetypes="cscsscsscsscscscscccscsscsssccscccccsccsccccccccsccc" />
  <path
     style="fill:#000000;fill-opacity:1;fill-rule:nonzero;stroke:none;stroke-width:0.264583"
     id="path5"
     d="m 99.781912,18.526673 c -0.152458,0.105544 -0.27191,0.25102 -0.365104,0.410267 -0.02172,0.03712 -0.04048,0.0759 -0.06072,0.113857 -0.01826,0.04655 -0.04094,0.0916 -0.0548,0.139654 -0.04988,0.173013 -0.05688,0.359532 0.0053,0.531087 0.06041,0.166545 0.09972,0.18879 0.211513,0.317999 0.05971,0.0399 0.115036,0.08729 0.179115,0.119705 0.211924,0.107197 0.483724,0.114461 0.703944,0.02904 0.0573,-0.02224 0.10979,-0.05541 0.16468,-0.08311 0.0503,-0.04286 0.10456,-0.0814 0.15078,-0.128584 0.14638,-0.149412 0.23076,-0.351481 0.29044,-0.547978 0.0352,-0.148027 0.0374,-0.300477 -0.007,-0.446973 -0.01,-0.03197 -0.0186,-0.06488 -0.0356,-0.09366 -0.033,-0.05609 -0.0754,-0.106079 -0.1131,-0.159119 -0.0377,-0.02953 -0.0721,-0.06372 -0.11304,-0.08859 -0.13887,-0.08444 -0.31606,-0.115937 -0.47581,-0.08455 -0.0442,0.0087 -0.0872,0.02258 -0.13079,0.03387 -0.208521,0.07751 -0.358373,0.236052 -0.43673,0.442854 -0.01413,0.03728 -0.02389,0.07606 -0.03585,0.114086 -0.01506,0.09434 -0.02827,0.139801 -0.01934,0.236628 0.0043,0.04653 0.01648,0.092 0.02474,0.137999 0.150141,0.60387 1.00414,0.391542 0.85401,-0.212327 v 0 c 2.6e-4,0.02451 0.005,0.04649 -0.01,0.06679 -0.024,0.03083 0.0166,-0.02006 -0.0132,0.0017 -0.0211,0.01544 -0.0674,0.05842 -0.0912,0.04892 -0.0121,10e-4 -0.0242,0.003 -0.0364,0.0031 -0.003,3.6e-5 0.0122,-0.0017 0.009,-0.0028 -0.0115,-0.0041 -0.0243,-0.0035 -0.0361,-0.0068 -0.0515,-0.01461 -0.0949,-0.04582 -0.12927,-0.0864 -0.017,-0.02987 -0.0779,-0.100148 -0.0574,-0.151636 10e-4,-0.0025 0.009,0.0046 0.006,0.0048 -0.0115,0.05163 -0.034,0.09586 -0.0549,0.143863 -0.002,0.0054 -0.009,0.01341 -0.005,0.01703 0.006,0.0047 0.015,-0.0021 0.0225,-0.0032 0.005,0.0015 0.0123,-1.94e-4 0.014,0.0044 0.002,0.0041 -0.007,0.006 -0.009,0.0099 -0.002,0.0029 5.3e-4,0.007 -10e-4,0.0098 -0.002,0.0035 -0.009,0.0032 -0.0102,0.0072 -0.005,0.0174 0.0406,0.03384 0.0272,0.04666 0.003,0.01605 0.008,0.03939 0.007,0.05479 -0.002,0.02963 -0.05,0.0261 -0.0147,-0.0209 0.0344,-0.0707 0.0721,-0.14545 0.1328,-0.197117 0.51774,-0.345164 0.0296,-1.077369 -0.488144,-0.732204 z" />
  <path
     style="fill:#000000;fill-opacity:1;fill-rule:nonzero;stroke:none;stroke-width:0.264583"
     id="path6"
     d="m 153.32321,18.861611 c 0.072,0.480441 0.32926,0.82415 0.72476,1.101728 0.11149,0.07825 0.23469,0.138319 0.35204,0.207479 0.64856,0.311949 1.35208,0.53227 2.07699,0.545469 0.18092,0.0033 0.36165,-0.01334 0.54247,-0.02001 0.19868,-0.03 0.39942,-0.04852 0.59602,-0.08999 0.81643,-0.172206 1.64021,-0.490873 2.35567,-0.920952 0.16672,-0.100221 0.32271,-0.217306 0.48407,-0.325958 0.53105,-0.451924 1.02174,-0.989119 1.2861,-1.645546 0.13578,-0.337159 0.1367,-0.470651 0.18957,-0.818107 -0.0106,-0.145989 -0.007,-0.293738 -0.0318,-0.437969 -0.0894,-0.51667 -0.39153,-0.992927 -0.76506,-1.352153 -0.0902,-0.08673 -0.19169,-0.160868 -0.28753,-0.241302 -0.6955,-0.470258 -1.53243,-0.62931 -2.34717,-0.759528 -1.14601,-0.141867 -2.30145,-0.173541 -3.45134,-0.27132 -1.02783,-0.08167 -2.05013,-0.213882 -3.07759,-0.299309 -1.05458,-0.07648 -2.11202,-0.05288 -3.16806,-0.03482 -0.95876,0.01819 -1.91765,0.02805 -2.87655,0.03496 -1.00223,0.0065 -2.00449,0.0079 -3.00675,0.0093 -0.9859,-0.01871 -1.97012,0.04337 -2.95446,0.08817 -0.83983,0.03811 -1.68019,0.06262 -2.52071,0.07824 -0.64731,0.0065 -1.29372,0.04541 -1.94042,0.07168 -0.33247,0.01285 -0.6651,0.02096 -0.99774,0.02809 -0.62211,0.01335 -0.60323,0.893151 0.0189,0.879797 v 0 c 0.33826,-0.0073 0.6765,-0.01552 1.01459,-0.02861 0.64024,-0.02602 1.2802,-0.0646 1.92104,-0.07111 0.84841,-0.01578 1.69666,-0.04051 2.54437,-0.07899 0.97143,-0.04421 1.94272,-0.106 2.9157,-0.08726 1.00395,-0.0014 2.00791,-0.0028 3.01185,-0.0093 0.9618,-0.0069 1.92358,-0.01684 2.88525,-0.03507 1.02673,-0.01756 2.05481,-0.04139 3.08018,0.03193 1.02696,0.08518 2.04869,0.218056 3.07605,0.29918 1.12897,0.09551 2.26305,0.12892 3.38857,0.263717 0.66012,0.102599 1.34562,0.222439 1.92619,0.570653 0.40802,0.323546 0.71585,0.692089 0.7711,1.228358 -0.0274,0.220442 -0.0301,0.342842 -0.10951,0.555861 -0.19312,0.518321 -0.58625,0.939073 -0.98922,1.302529 -0.13545,0.09295 -0.26605,0.193405 -0.40636,0.278849 -0.77659,0.47292 -1.67491,0.777499 -2.57177,0.90678 -0.33166,0.01592 -0.50874,0.0403 -0.83332,-0.0016 -0.45455,-0.05873 -0.89507,-0.218499 -1.30967,-0.406901 -0.31432,-0.175797 -0.59953,-0.300784 -0.64842,-0.691568 -0.1023,-0.613788 -0.97032,-0.469117 -0.86803,0.144671 z" />
  <path
     style="fill:#ff4400;fill-opacity:1;fill-rule:nonzero;stroke:none;stroke-width:0.264583"
     id="path7"
     d="m 134.3048,13.800682 c -0.26507,-0.0039 -0.5298,0.01217 -0.79456,0.02269 -0.50039,0.01771 -1.00067,0.03787 -1.50119,0.05185 -0.41211,0.01108 -0.82434,0.01608 -1.23658,0.01957 -0.28387,0.0023 -0.56776,0.0033 -0.85164,0.004 -0.25461,4.77e-4 -0.50922,5.83e-4 -0.76383,6.62e-4 -0.18838,6.4e-5 -0.37677,8.6e-5 -0.56515,1.01e-4 -0.62225,5e-5 -0.62218,0.88005 7e-5,0.88 v 0 c 0.18847,-1.5e-5 0.37694,-3.7e-5 0.56541,-1.01e-4 0.25518,-9.7e-5 0.51036,-1.84e-4 0.76554,-6.62e-4 0.28568,-6.61e-4 0.57136,-0.0017 0.85704,-0.004 0.41795,-0.0035 0.8359,-0.0086 1.25372,-0.01988 0.50399,-0.01409 1.00773,-0.03435 1.51159,-0.05221 0.25311,-0.01007 0.50617,-0.02586 0.75958,-0.02199 0.62225,0 0.62225,-0.88 0,-0.88 z" />
  <path
     style="fill:#000000;fill-opacity:1;fill-rule:nonzero;stroke:none;stroke-width:0.264583"
     id="path8"
     d="m 128.51601,13.866611 h -1.08635 c -0.51936,-0.01278 -0.50846,0.01744 -1.02254,0.09054 -0.46565,0.08085 -0.93071,0.164916 -1.39624,0.24678 -0.54631,0.0861 -1.08149,0.227433 -1.61396,0.37439 -0.55638,0.178898 -1.09771,0.40578 -1.63401,0.637764 -0.605,0.260391 -1.18212,0.57977 -1.76893,0.877825 -0.65182,0.322417 -1.2995,0.653631 -1.95961,0.958855 -0.73016,0.335673 -1.4709,0.646398 -2.22282,0.929718 -0.88737,0.343313 -1.78244,0.665651 -2.68911,0.954156 -1.03362,0.335844 -1.52399,0.375215 -2.57946,0.631838 -0.90253,0.211729 -1.81065,0.39178 -2.72891,0.518741 -0.73156,0.104102 -1.46704,0.136983 -2.20478,0.116856 -0.58027,-0.01337 -0.91607,-0.04657 -1.48961,-0.129619 -0.408,-0.06697 -0.80778,-0.169255 -1.20011,-0.298462 -0.58016,-0.193348 -0.95744,0.584357 -0.42787,0.784998 0.0768,0.02912 0.0337,0.01124 0.15334,0.05109 0.44091,0.14439 0.89016,0.259446 1.34866,0.333314 0.60756,0.08779 0.97748,0.124766 1.59216,0.138372 0.7859,0.02046 1.56969,-0.01385 2.34896,-0.124868 0.9475,-0.131487 1.88483,-0.316351 2.81607,-0.535332 1.07534,-0.261478 1.58543,-0.30637 2.63855,-0.648406 0.92114,-0.293496 1.8309,-0.620184 2.73248,-0.969223 0.77188,-0.291015 1.53245,-0.609817 2.282,-0.954528 0.66969,-0.310108 1.32735,-0.645335 1.98859,-0.972915 0.57073,-0.289934 1.13194,-0.600785 1.71999,-0.854827 0.4988,-0.216104 1.00242,-0.426894 1.51867,-0.597093 0.50546,-0.139675 1.0134,-0.274618 1.53213,-0.35594 0.45671,-0.08032 0.91301,-0.162533 1.36972,-0.242534 0.47208,-0.06959 0.4196,-0.09224 0.89664,-0.08148 h 1.08635 c 0.62225,0 0.62225,-0.88 0,-0.88 z"
     sodipodi:nodetypes="cccccccccccccccsccccccccccccccssc" />
  <path
     style="fill:#ff4400;fill-opacity:1;fill-rule:nonzero;stroke:none;stroke-width:0.264583"
     id="path9"
     d="m 131.51821,16.427187 c -0.48693,0 -0.97385,0 -1.46078,0 -0.40702,0 -0.81405,0 -1.22108,0 -0.0508,0 -0.1016,0 -0.15241,0 -0.62225,0 -0.62225,0.88 0,0.88 v 0 c 0.0508,0 0.10161,0 0.15241,0 0.40703,0 0.81406,0 1.22108,0 0.48693,0 0.97385,0 1.46078,0 0.62225,0 0.62225,-0.88 0,-0.88 z" />
  <path
     style="fill:#ff4400;fill-opacity:1;fill-rule:nonzero;stroke:none;stroke-width:0.264583"
     id="path10"
     d="m 131.46352,11.386405 c -0.27212,0.0055 -0.54378,-0.009 -0.81548,-0.02192 -0.31732,-0.0157 -0.63486,-0.02613 -0.95246,-0.03375 -0.24843,-0.0052 -0.49692,-0.0072 -0.74539,-0.0086 -0.11797,0.0025 -0.2355,0.01304 -0.353,0.02283 -0.6201,0.05181 -0.54682,0.928756 0.0733,0.876944 v 0 c 0.0915,-0.0077 0.18289,-0.01589 0.27461,-0.01979 0.24315,0.0014 0.48631,0.0033 0.72942,0.0084 0.31071,0.0074 0.62136,0.01765 0.9318,0.03302 0.28559,0.01356 0.5712,0.02827 0.85723,0.02291 0.62226,0 0.62226,-0.88 0,-0.88 z" />
  <path
     style="fill:#000000;fill-opacity:1;fill-rule:nonzero;stroke:none;stroke-width:0.264583"
     id="path11"
     d="m 128.45882,11.351774 c -0.27658,0.0056 -0.55232,-0.0053 -0.82831,-0.02275 -0.53661,-0.03712 -1.05893,-0.174848 -1.57243,-0.327786 -0.47925,-0.147787 -0.92804,-0.372563 -1.3717,-0.60272 -0.51517,-0.264819 -1.02037,-0.5479617 -1.52131,-0.8385877 -0.70709,-0.3973952 -1.41207,-0.7983784 -2.10361,-1.2223287 -0.79989,-0.4961779 -1.58948,-1.0085295 -2.37915,-1.5207326 -0.61689,-0.3835369 -1.24503,-0.7536842 -1.905,-1.0590573 -0.12771,-0.05909 -0.25756,-0.1134387 -0.38634,-0.1701583 -0.56965,-0.2261213 -1.15746,-0.4088341 -1.75605,-0.541134 -0.34419,-0.07607 -0.61066,-0.1175882 -0.95844,-0.1773743 -1.03439,-0.1662028 -2.08078,-0.2281901 -3.12618,-0.273086 -1.02298,-0.038751 -2.04676,-0.058211 -3.07031,-0.036514 -0.79985,0.00748 -1.59063,0.1148775 -2.37259,0.2753277 -0.53125,0.1176489 -1.05839,0.25296 -1.58284,0.3976974 -0.43693,0.1348705 -0.86793,0.2895687 -1.29218,0.4600519 -0.36684,0.1552956 -0.71752,0.3451244 -1.0632,0.5422561 -0.33587,0.1856298 -0.4495,0.2674009 -0.76423,0.485729 -0.30131,0.2220992 -0.31002,0.2410905 -0.608153,0.467447 -0.224644,0.1764274 -0.445055,0.3569701 -0.650896,0.5551416 -0.175556,0.1574494 -0.339465,0.3287824 -0.494178,0.5067081 -0.111109,0.111796 -0.211807,0.2350518 -0.329028,0.3405883 -0.238377,0.2226693 -0.236072,0.5766549 -0.03732,0.7095436 0.180387,0.120609 0.543723,0.036422 0.638023,-0.066462 0.178102,-0.1943153 0.33708,-0.3473206 0.395401,-0.4097311 0.134644,-0.1592181 0.283893,-0.3073969 0.438177,-0.4474118 0.180837,-0.175007 0.376154,-0.3324677 0.573384,-0.4885809 0.28665,-0.2196951 0.28668,-0.2284174 0.57625,-0.4442378 0.29359,-0.2037551 0.38552,-0.2717284 0.69909,-0.4446325 0.31075,-0.1778929 0.62627,-0.3487851 0.9556,-0.4901425 0.39296,-0.1588728 0.79304,-0.3008762 1.19738,-0.4279826 0.5057,-0.1395796 1.01394,-0.270166 1.5261,-0.3840443 0.72964,-0.1506365 1.4675,-0.2508877 2.21406,-0.2574668 1.00469,-0.021757 2.00964,-0.00169 3.01378,0.035909 1.00815,0.04312 2.01732,0.1019347 3.01501,0.2612136 0.31665,0.054245 0.58624,0.096524 0.89932,0.1651262 0.54855,0.1201984 1.08723,0.2867988 1.6099,0.4916636 0.11885,0.052133 0.2387,0.1020413 0.35655,0.1563997 0.62733,0.2893557 1.22367,0.6417389 1.81003,1.0055076 0.79598,0.5162929 1.59191,1.0326804 2.39822,1.5327596 0.69772,0.4274082 1.40839,0.8326485 2.12183,1.2331902 0.51293,0.297557 1.03028,0.587385 1.55774,0.858591 0.49319,0.255723 0.99337,0.502447 1.52648,0.665163 0.57739,0.170822 1.16457,0.32266 1.76778,0.362436 0.2943,0.01828 0.58843,0.0302 0.88334,0.02448 0.62226,0 0.62226,-0.88 0,-0.88 z"
     sodipodi:nodetypes="sccccccscsccccccccccccsscccccccccccscscccccccss" />
  <path
     style="fill:#000000;fill-opacity:1;fill-rule:nonzero;stroke:none;stroke-width:0.264583"
     id="path12"
     d="m 94.857209,21.924683 c -0.172828,-0.345656 0.492892,0.524815 0.76821,0.755525 0.311766,0.256934 0.605067,0.50985 0.925205,0.756035 0.295614,0.231712 0.603215,0.473565 0.898597,0.705452 0.366834,0.283205 0.508399,0.36531 0.915753,0.597946 0.466182,0.240693 0.953597,0.45773 1.436784,0.660169 0.481342,0.183268 0.963552,0.363259 1.455512,0.516051 0.58297,0.187945 1.17739,0.334909 1.77478,0.468366 0.61129,0.136242 1.23418,0.203223 1.85794,0.24681 0.59057,0.03758 1.1823,0.04868 1.77385,0.05701 0.69243,0.01968 1.38467,-0.01013 2.07367,-0.07845 0.71619,-0.05707 1.4206,-0.195384 2.12438,-0.333341 0.67832,-0.120523 1.34392,-0.298782 2.00647,-0.485252 0.66559,-0.176454 1.31513,-0.401959 1.95528,-0.654323 0.5494,-0.215587 1.08788,-0.453528 1.61796,-0.712603 0.42657,-0.236135 0.84694,-0.483994 1.25698,-0.747828 0.37844,-0.240156 0.74635,-0.495703 1.11157,-0.755389 0.34399,-0.22136 0.65974,-0.481469 0.97901,-0.736112 0.27427,-0.208364 0.51378,-0.455713 0.76382,-0.691155 0.28255,-0.230926 0.57975,-0.476444 0.87099,-0.696437 l -0.52218,-0.693883 c -0.31667,0.23927 -0.64972,0.49338 -0.95252,0.750062 -0.23211,0.219129 -0.45411,0.449586 -0.70885,0.643454 -0.30661,0.244572 -0.60941,0.494889 -0.94023,0.706896 -0.35422,0.25188 -0.71085,0.50001 -1.07806,0.732704 -0.38091,0.245519 -0.77207,0.474856 -1.16698,0.697081 -0.5093,0.248969 -1.02654,0.477684 -1.55454,0.684643 -0.6123,0.241891 -1.23379,0.457258 -1.87067,0.625806 -0.63973,0.180083 -1.28225,0.35286 -1.93733,0.468772 -0.67675,0.132659 -1.35388,0.267011 -2.04268,0.321274 -0.65569,0.06621 -1.31471,0.09259 -1.97371,0.07417 -0.57531,-0.0081 -1.1508,-0.01867 -1.72516,-0.05497 -0.57982,-0.04013 -1.15892,-0.10144 -1.7272,-0.227773 -0.57434,-0.128225 -1.14588,-0.269128 -1.70625,-0.450133 -0.46548,-0.143704 -0.92082,-0.31562 -1.37655,-0.487401 C 99.710318,24.408397 99.27344,24.21771 98.855483,24.009032 98.483369,23.798941 98.369652,23.737188 98.026708,23.477694 97.702003,23.231521 97.390798,22.987066 97.08122,22.74451 96.770321,22.50543 96.492485,22.253311 96.189169,22.004504 95.98152,21.843549 95.755637,21.624458 95.587506,21.5054 c -0.161098,-0.114077 -0.430744,-0.267419 -0.694065,-0.01891 -0.143641,0.13556 0.02245,0.555554 -0.03623,0.438197 z"
     sodipodi:nodetypes="sccccccccccccccccccccccccccccccccccccccssss" />
  <path
     style="fill:#000000;fill-opacity:1;fill-rule:nonzero;stroke:none;stroke-width:0.264583"
     id="path13"
     d="m 121.20462,20.961931 c 0.10702,-0.07673 0.2082,-0.161093 0.31261,-0.241222 0.1785,-0.120862 0.35784,-0.240498 0.53589,-0.362062 0.2394,-0.16279 0.47746,-0.327499 0.71247,-0.496567 0.30403,-0.2291 0.60341,-0.464307 0.9056,-0.695833 0.0596,-0.04508 0.11859,-0.09095 0.17876,-0.135253 0.18164,-0.133722 0.36964,-0.256069 0.5646,-0.369505 0.16955,-0.09866 0.23213,-0.129254 0.40522,-0.220335 0.34966,-0.180067 0.71259,-0.332254 1.08152,-0.467793 0.27459,-0.09814 0.55054,-0.192922 0.82815,-0.282205 0.16466,-0.05138 0.3308,-0.09872 0.49914,-0.136509 0.11259,-0.0234 0.22531,-0.04542 0.33943,-0.05978 0.10031,-0.0097 0.20067,-0.01887 0.30063,-0.03179 0.11386,-0.01321 0.22725,-0.02773 0.34002,-0.04841 0.0887,-0.01656 0.17646,-0.03742 0.26482,-0.05548 0.0615,-0.0094 0.12306,-0.01641 0.18424,-0.02788 0.0382,-0.0074 0.0206,-0.0042 0.0528,-0.0098 0.61274,-0.108403 0.45943,-0.974946 -0.1533,-0.866543 v 0 c -0.0456,0.0081 -0.0242,0.0041 -0.0642,0.01191 -0.0652,0.01281 -0.13226,0.01576 -0.19741,0.0305 -0.0821,0.01706 -0.16378,0.03592 -0.24612,0.05182 -0.0985,0.01819 -0.19767,0.02959 -0.2971,0.0416 -0.0984,0.01386 -0.19766,0.01957 -0.29627,0.03122 -0.14176,0.01842 -0.28214,0.04451 -0.42193,0.07438 -0.19361,0.04416 -0.38513,0.09734 -0.57448,0.157132 -0.28903,0.0932 -0.57652,0.191522 -0.86237,0.29401 -0.4052,0.149425 -0.804,0.316623 -1.1879,0.515156 -0.19214,0.101443 -0.26144,0.135414 -0.45009,0.245695 -0.2868,0.167665 -0.56242,0.35351 -0.82332,0.559318 -0.2952,0.226182 -0.58787,0.455675 -0.88441,0.680093 -0.22909,0.164904 -0.46131,0.325338 -0.6947,0.484107 -0.19192,0.131055 -0.38613,0.258762 -0.57672,0.391699 -0.0883,0.06819 -0.17516,0.138473 -0.26368,0.206123 -0.51774,0.345164 -0.0296,1.077368 0.48814,0.732204 z" />
  <path
     style="fill:#000000;fill-opacity:1;fill-rule:nonzero;stroke:none;stroke-width:0.264583"
     id="path14"
     d="m 152.11239,13.80722 c 0.007,-0.226334 0.0308,-0.45172 0.0529,-0.676952 0.04,-0.390662 0.0646,-0.783311 0.13013,-1.170963 0.0145,-0.08595 0.0328,-0.171218 0.0492,-0.256827 0.12104,-0.554147 0.28432,-1.097648 0.46669,-1.63434 0.12943,-0.355834 0.27697,-0.7077656 0.48233,-1.0273542 0.036,-0.055968 0.0756,-0.1094618 0.11346,-0.164193 0.15329,-0.2015347 0.31849,-0.4026598 0.52754,-0.5497624 0.0968,-0.068126 0.23345,-0.1337267 0.33657,-0.1870469 0.2802,-0.128846 0.56882,-0.2674977 0.88058,-0.2961256 0.0448,-0.00412 0.09,-0.00188 0.13502,-0.00282 0.10817,0.013661 0.2223,0.023979 0.31223,0.092749 0.0255,0.019458 0.0461,0.044541 0.0687,0.067257 0.13058,0.1313291 0.0855,0.084003 0.20951,0.2344108 0.25778,0.3507716 0.41604,0.7579164 0.57715,1.1586559 0.19411,0.5103625 0.33831,1.0374814 0.46789,1.5672884 0.12059,0.499677 0.20322,1.006785 0.27024,1.516024 0.0524,0.409819 0.0814,0.821688 0.10095,1.23418 0.007,0.216076 0.004,0.10929 0.009,0.320354 0.0142,0.622092 0.89395,0.602036 0.87977,-0.02005 v 0 c -0.005,-0.223696 -0.002,-0.109712 -0.01,-0.341948 -0.0207,-0.437013 -0.0519,-0.873371 -0.10751,-1.307532 -0.0714,-0.540932 -0.15963,-1.079575 -0.28794,-1.610312 -0.13979,-0.570288 -0.29583,-1.1375539 -0.50623,-1.6864471 -0.19624,-0.4874633 -0.39603,-0.9791385 -0.72118,-1.3979215 -0.17608,-0.2052717 -0.34461,-0.3992779 -0.58516,-0.5345157 -0.22064,-0.1240478 -0.4685,-0.1603584 -0.71688,-0.1713103 -0.0802,0.00465 -0.16084,0.00471 -0.24066,0.013959 -0.40397,0.046789 -0.78182,0.2116344 -1.145,0.3851034 -0.20158,0.1071994 -0.3019,0.1515361 -0.48855,0.288313 -0.27219,0.1994644 -0.49207,0.4621014 -0.69246,0.7305207 -0.0479,0.070577 -0.0981,0.1396875 -0.14381,0.2117325 -0.23628,0.3725045 -0.40978,0.7801682 -0.55906,1.1939738 -0.19512,0.5755302 -0.37005,1.1583402 -0.49791,1.7528982 -0.0185,0.0982 -0.039,0.196047 -0.0556,0.294604 -0.0672,0.401231 -0.0943,0.807373 -0.13508,1.211714 -0.0248,0.253705 -0.0515,0.507648 -0.057,0.762691 0,0.622254 0.88,0.622254 0.88,0 z" />
  <path
     style="fill:#000000;fill-opacity:1;fill-rule:nonzero;stroke:none;stroke-width:0.264583"
     id="path15"
     d="m 154.61025,7.5107757 c -0.0167,0.1664086 -0.0203,0.3341097 -0.0261,0.5012129 -0.006,0.4073956 -0.0272,0.8142155 -0.0543,1.2206949 -0.0349,0.4441891 -0.0706,0.8883055 -0.10171,1.3327795 -0.0247,0.344085 -0.044,0.688497 -0.0593,1.033113 -0.0135,0.316618 -0.0221,0.633414 -0.0301,0.950208 -0.006,0.249352 -0.0109,0.498735 -0.0151,0.748126 -0.003,0.166074 -0.005,0.332159 -0.007,0.498245 -0.007,0.622215 0.87299,0.63206 0.87995,0.0098 v 0 c 0.002,-0.164429 0.004,-0.328856 0.007,-0.493273 0.004,-0.246908 0.009,-0.493808 0.0149,-0.740676 0.008,-0.311192 0.0163,-0.622385 0.0295,-0.933404 0.015,-0.337135 0.034,-0.674066 0.0581,-1.010681 0.0312,-0.445482 0.0671,-0.8905947 0.10191,-1.335802 0.0276,-0.4156556 0.0493,-0.8316547 0.0558,-1.2482417 0.004,-0.099938 0.005,-0.1363596 0.009,-0.2324004 0.002,-0.053114 0.009,-0.1088258 0.008,-0.1622574 -5e-5,-0.00246 -10e-4,0.00479 -0.002,0.00718 0.1023,-0.6137876 -0.76573,-0.7584586 -0.86803,-0.144671 z" />
</svg>
