<?xml version="1.0" encoding="UTF-8" standalone="no"?>
<svg
   width="112.41717mm"
   height="47.095074mm"
   viewBox="0 0 112.41717 47.095074"
   version="1.1"
   id="svg8"
   sodipodi:docname="19 soweli ni li sama soweli ante tu..svg"
   inkscape:version="1.3 (0e150ed6c4, 2023-07-21)"
   xmlns:inkscape="http://www.inkscape.org/namespaces/inkscape"
   xmlns:sodipodi="http://sodipodi.sourceforge.net/DTD/sodipodi-0.dtd"
   xmlns="http://www.w3.org/2000/svg"
   xmlns:svg="http://www.w3.org/2000/svg"
   xmlns:rdf="http://www.w3.org/1999/02/22-rdf-syntax-ns#"
   xmlns:cc="http://creativecommons.org/ns#"
   xmlns:dc="http://purl.org/dc/elements/1.1/">
  <sodipodi:namedview
     pagecolor="#ffffff"
     bordercolor="#666666"
     borderopacity="1"
     objecttolerance="10"
     gridtolerance="10"
     guidetolerance="10"
     inkscape:pageopacity="0"
     inkscape:pageshadow="2"
     inkscape:window-width="1920"
     inkscape:window-height="1051"
     id="namedview52"
     showgrid="false"
     inkscape:zoom="1.8939584"
     inkscape:cx="220.96579"
     inkscape:cy="140.1826"
     inkscape:window-x="-9"
     inkscape:window-y="-9"
     inkscape:window-maximized="1"
     inkscape:current-layer="svg8"
     inkscape:showpageshadow="2"
     inkscape:pagecheckerboard="0"
     inkscape:deskcolor="#d1d1d1"
     inkscape:document-units="mm" />
  <defs
     id="defs2" />
  <metadata
     id="metadata5">
    <rdf:RDF>
      <cc:Work
         rdf:about="">
        <dc:format>image/svg+xml</dc:format>
        <dc:type
           rdf:resource="http://purl.org/dc/dcmitype/StillImage" />
        <dc:title />
      </cc:Work>
    </rdf:RDF>
  </metadata>
  <g
     id="g1583"
     transform="matrix(0.26458333,0,0,0.26458333,24.848533,-5.4026431)">
    <path
       inkscape:connector-curvature="0"
       id="path1569"
       d="m 62.1,135.1 c -14.4,-6 -36.2,-15.3 -15.8,-27.7 19,-11.6 37.8,3.8 51.2,10.9 7.8,4.2 9.6,15.7 16.9,21.5 11.1,8.9 22.6,14.6 19.8,15.5 -5.8,1.9 -10.9,-6.7 -28.3,-11.1 -16.4,-4.1 -26.5,-1.8 -43.8,-9.1 z"
       style="opacity:0.2" />
    <path
       inkscape:connector-curvature="0"
       id="path1571"
       d="m 61,25.1 c 0,-1.2 -0.7,-3 -3.4,-2.9 C 55,22.4 55,26.5 55,26.5 Z"
       style="fill:#262626" />
    <path
       inkscape:connector-curvature="0"
       id="path1573"
       d="m 65.7,30.6 c -1.2,-0.5 -3,-5.7 -5.1,-6.2 -2.1,-0.4 -6.2,0.8 -7.5,4 -1.3,3.2 2,9.5 1.6,15.4 -0.4,5.9 -1.5,8.5 -2.2,13.6 -0.7,5.1 -1,8.7 -1,8.7 0,0 -5,4.7 -4,13.5 1,8.7 4.8,12.4 2.8,20.1 -2.1,7.7 -4.5,11.3 -4.5,12 0,0.7 0.3,2 -1.1,2.1 -1.3,0.1 -4.5,-0.3 -5.3,2.7 -0.8,2.9 3.1,5.8 6.2,5.4 3,-0.4 7.8,-12.4 9.7,-15.6 1.9,-3.2 3.2,-9.4 4.7,-8.9 1.5,0.4 4.4,9.2 4.4,9.2 0,0 -2.5,-1 -5.4,1.2 -2.9,2.1 -3,8.1 -2.7,10.6 0.4,2.5 1.1,5.4 1.1,5.4 0,0 -1.8,-0.5 -3.2,-1.9 -1.4,-1.3 -4.2,-2 -5.8,0.1 -1.6,2.1 -1.5,4.5 2.4,5.9 3.9,1.4 9.3,4.5 11.5,3.8 2.2,-0.6 1.8,-9.1 1.8,-9.1 0,0 3.7,10.1 10.7,11.5 5.7,1.2 11.9,0.4 11.9,0.4 0,0 7.4,0.6 11.1,2 3.7,1.4 6.9,6 14.7,8.9 4.6,1.7 11.2,6.1 15.2,7.7 4,1.6 7.7,1.8 8.4,1 1.5,-1.7 -4.6,-3 -8.8,-6 -5.4,-3.8 -10,-8.6 -13.5,-12.8 -4.6,-5.4 -11.2,-10.8 -11.2,-10.8 0,0 2.8,-3.7 -0.2,-11.7 -2.9,-7.9 -7.2,-16.4 -9.2,-22.3 -2,-5.9 -9,-15 -10.1,-18.1 C 82,69.3 78.5,65 77.2,60.9 75.9,56.8 76,49.6 76,49.6 c 0,0 2,2.1 3.6,0.8 1.6,-1.3 1.2,-5.4 0,-8.7 -1.2,-3.2 -1.2,-4.4 -2.6,-4.9 -1.3,-0.5 -1.8,-0.2 -2.9,-1.2 -1.2,-1 -4.4,-5.3 -5.7,-5.4 -1.4,-0.1 -2.7,0.4 -2.7,0.4 z"
       style="fill:#825012" />
    <path
       inkscape:connector-curvature="0"
       id="path1575"
       d="m 54.5,39.8 c 0.2,1.3 0.3,2.7 0.2,4 -0.3,5.4 -1.3,8.1 -2.1,12.5 2.6,-0.1 6.6,-1.2 10,-2.9 4.9,-2.5 4.5,-10.8 4.5,-10.8 l -5,-6.1 c -1.7,0.2 -4.7,1.3 -7.6,3.3 z"
       style="opacity:0.2" />
    <path
       inkscape:connector-curvature="0"
       id="path1577"
       d="m 62.3,36.1 c -2.7,0.2 -7.2,5.3 -8.3,6.9 -1.1,1.6 -5.3,8 -2.5,10.7 2.8,2.7 10,-1.2 12.6,-2 2.6,-0.8 7,-4.1 6.9,-6.3 -0.2,-2.3 -3.1,-9.8 -8.7,-9.3 z"
       style="fill:#825012" />
    <path
       inkscape:connector-curvature="0"
       id="path1579"
       d="m 60.2,32.3 c -0.7,0.2 -2.1,1.2 -2.3,1.5 -0.4,0.6 -0.1,1.5 -0.1,1.5 0,0 -1,-1.2 -0.2,-1.9 0.8,-0.7 2.6,-1.1 2.6,-1.1 z"
       style="opacity:0.2" />
    <path
       inkscape:connector-curvature="0"
       id="path1581"
       d="m 76.9,56.3 c -4.6,2.1 -12,3.7 -19.7,4.2 -2.2,0.1 -4.2,0.2 -5.9,0.1 -0.2,1.7 -0.4,3.1 -0.5,4.1 0.6,0 1.2,0 1.8,0 1.7,0 3.4,-0.1 4.8,-0.2 6.2,-0.4 14.3,-1.7 20.1,-4.1 -0.3,-1.1 -0.5,-2.6 -0.6,-4.1 z"
       style="fill:#262626" />
  </g>
  <g
     id="g989"
     transform="matrix(0.26458333,0,0,0.26458333,6.0631165,-1.2751382)">
    <path
       inkscape:connector-curvature="0"
       id="path961"
       d="m 103.2,117 c 12.7,8.2 34.5,15.5 14.8,27.5 -18.4,11.2 -39.2,-0.4 -49.5,-10.6 -20.7,-20.6 -56.1,-20.3 -31.1,-23.8 1.9,-0.3 15.8,0 29.6,2 14.3,2 32.4,2.4 36.2,4.9 z"
       style="opacity:0.2" />
    <path
       inkscape:connector-curvature="0"
       id="path963"
       d="m 96.1,110.4 c 0,0 2,4.7 1.9,6.2 -0.1,1.5 -0.8,3.5 0.1,4.3 0.9,0.7 7.8,5.2 9.1,7.1 1.3,1.9 2,5.2 6.6,3 4.6,-2.2 3.1,-5.5 0.9,-6.4 -2.1,-0.9 -6.5,-1.7 -8.8,-3.9 -2.3,-2.2 -3.2,-2.9 -1.2,-6.3 2,-3.4 2.9,-6.1 2.9,-6.1 z"
       style="opacity:1;fill:#f8ebcb" />
    <path
       inkscape:connector-curvature="0"
       id="path965"
       d="m 96.1,110.4 c 0,0 2,4.7 1.9,6.2 -0.1,1.5 -0.8,3.5 0.1,4.3 0.9,0.7 7.8,5.2 9.1,7.1 1.3,1.9 2,5.2 6.6,3 4.6,-2.2 3.1,-5.5 0.9,-6.4 -2.1,-0.9 -6.5,-1.7 -8.8,-3.9 -2.3,-2.2 -3.2,-2.9 -1.2,-6.3 2,-3.4 2.9,-6.1 2.9,-6.1 z"
       style="opacity:0.2" />
    <path
       inkscape:connector-curvature="0"
       id="path967"
       d="m 86.8,47.8 c 0.8,-1.5 2.6,-3.6 5.5,-5 2.9,-1.4 5,-1.9 5,-1.9 0,0 1.7,-3.1 5.5,-1.8 3.8,1.3 7.5,8.5 8.4,11.6 0.9,3.1 2.2,8.7 1,9.4 -1.2,0.7 -3,-2.1 -3,-2.1 0,0 1,4.5 1.8,7.3 0.7,2.8 -0.1,7.7 0.7,9.3 0.7,1.6 4.2,7.5 3.8,13.7 -0.4,6.2 -2.8,12.2 -2.9,14.8 -0.1,2.6 3.4,16.8 4,17.9 0.6,1.1 0.2,4.4 1.2,6.4 1,2 8.7,3.9 6.2,7.8 -2.4,3.9 -9.3,2 -10.3,-0.2 -1,-2.2 0.1,-4.6 -1.1,-8.8 -1.2,-4.2 -6.7,-15.8 -6.7,-15.8 0,0 -2,0.6 -4.8,0.9 -2.9,0.4 -5.9,3.9 -4.9,9.7 1,5.8 2,8 2.6,9.4 0.6,1.4 0.2,4.6 1.1,6.4 0.9,1.9 7.2,4.2 4.8,7.3 -2.4,3.1 -7.5,3.2 -10.2,0.6 -2.7,-2.6 -0.4,-3.8 -2.2,-10.2 -1.9,-6.4 -4,-13.8 -4,-13.8 l -6.3,1.5 -4.4,9.3 c 0,0 3.8,2.8 5.7,3.9 1.9,1.1 5.7,0.2 7,1.9 1.3,1.7 1.8,5.5 -2.2,7 -4,1.5 -6.3,-3.4 -7.7,-4.5 -1.4,-1 -7,-3.3 -8.5,-5 -1.5,-1.7 -0.2,-5.8 -0.2,-5.8 0,0 -5.9,-0.6 -8.8,-4.4 -2.9,-3.8 -2.5,-4.6 -3.7,-5.5 -1.2,-0.9 -3.1,-1.7 -8.8,-1.1 -5.7,0.6 -12.7,-1.8 -15.7,-5.2 -3.1,-3.4 -3.7,-11.3 -2.9,-12 0.8,-0.7 2.2,4.5 3.8,5.7 1.6,1.2 5.3,4.2 9.7,3.8 4.4,-0.4 12.5,-3.6 12.5,-3.6 0,0 4.6,-12.8 10.8,-19.7 6.2,-7 14.6,-11.7 15.9,-16.8 1.1,-5.1 1,-19.9 2.3,-22.4 z"
       style="opacity:1;fill:#f8ebcb" />
    <g
       id="g971">
      <path
         inkscape:connector-curvature="0"
         id="path969"
         d="m 84.6,108.1 c 0,0 -1.2,1.6 -4,1.6 -1.5,0 -3.7,-0.2 -5.3,-0.4 0.6,0.1 1.4,0.3 2.2,0.6 2.8,0.9 3.9,2.1 5.1,4.6 1.1,2.5 -0.8,7.7 -0.8,7.7 l 6.3,-1.5 c 0,0 -0.7,-2.1 -1,-3.2 -0.3,-1 -2.6,-6.6 -2.5,-9.4 z"
         style="opacity:0.2" />
    </g>
    <path
       inkscape:connector-curvature="0"
       id="path973"
       d="m 94.9,65.4 c -0.4,-1.5 -1.8,-5.1 -4,-7.5 -1.6,-1.8 -3,-5.8 -3.6,-8.3 l -1.1,0.3 c -0.6,3.7 -0.8,10.7 -1.3,15.8 0.9,0.7 4.2,1.9 5.3,2.5 4.7,2.6 5.5,0.5 4.7,-2.8 z"
       style="opacity:0.2" />
    <path
       inkscape:connector-curvature="0"
       id="path975"
       d="m 93.7,52.8 c 0,0 -0.1,-2.2 0.8,-3.1 0.8,-0.9 2.5,-0.6 1.7,1.3 -0.8,2 -2.5,1.8 -2.5,1.8 z"
       style="opacity:1;fill:#262626" />
    <path
       inkscape:connector-curvature="0"
       id="path977"
       d="m 102.9,45.7 c 0,0 -0.2,-1.1 0.7,-1.5 0.9,-0.3 1.8,1.5 1.8,1.5 z"
       style="opacity:1;fill:#262626" />
    <path
       inkscape:connector-curvature="0"
       id="path979"
       d="m 111.1,53.4 c 0,0 -0.3,-0.6 -1,-0.8 -0.6,-0.2 -1.3,-0.1 -2.1,0.2 l -0.9,-1.8 -0.3,0.2 0.9,1.8 c -1.3,0.7 -1.9,1.5 -2.6,2.5 -0.4,0.6 -0.9,1.3 -1.6,1.9 -1.8,1.8 -2.8,2.1 -2.8,2.1 -0.1,0 -0.1,0.1 -0.1,0.2 0,0.1 0.1,0.1 0.2,0.1 0,0 0,0 0.1,0 0,0 1.1,-0.4 3,-2.2 0.7,-0.7 1.2,-1.4 1.6,-2 0.7,-1 1.3,-1.8 2.6,-2.5 0.8,-0.4 1.4,-0.5 1.9,-0.3 0.6,0.2 0.8,0.6 0.8,0.6 0,0.1 0.2,0.1 0.2,0.1 0.1,0.1 0.1,0 0.1,-0.1 z"
       style="opacity:1;fill:#262626" />
    <path
       inkscape:connector-curvature="0"
       id="path981"
       d="m 87.4,47.1 c -0.8,-0.5 -2.7,0.7 -4.1,3.4 -1.4,2.7 -3.4,7.5 -1.8,9.9 1.6,2.4 4.3,4.5 6.7,5.4 2.3,0.9 5,2.6 5.7,2.1 0.7,-0.5 -1.1,-5.7 -3,-8.4 -1.9,-2.7 -4,-5.8 -4,-5.8 0,0 2.5,-5.3 0.5,-6.6 z"
       style="opacity:1;fill:#f8ebcb" />
    <path
       inkscape:connector-curvature="0"
       id="path983"
       d="m 111.1,50.6 c 0.7,1.7 0.5,3.5 -0.1,5.2 -0.6,1.6 -1.7,2.3 -1.7,2.3 v 0.1 c 0.3,0.5 1.8,2.7 2.9,2 1.2,-0.7 -0.1,-6.3 -1,-9.4 -0.9,-3.1 -4.6,-10.2 -8.4,-11.6 -3.5,-1.2 -5.2,1.3 -5.5,1.7 1.6,0 4.4,0.4 5.9,1.9 1.6,1.5 2.6,2.4 3.6,3.8 1,1.4 3.5,2.2 4.3,4 z"
       style="opacity:0.2" />
    <path
       inkscape:connector-curvature="0"
       id="path985"
       d="m 102.6,48.5 c -0.7,1.6 1.8,4 4.3,2.9 2.5,-1.2 1.5,-4 0.7,-4.6 -0.8,-0.7 -4.2,-0.2 -5,1.7 z"
       style="opacity:1;fill:#262626" />
    <path
       inkscape:connector-curvature="0"
       id="path987"
       d="M 112.2,69.8 C 108,70.5 102.9,70.9 97.7,70.6 90,70.3 85.7,69 84,68 c -0.1,0.7 -0.2,1.4 -0.4,2 -0.2,0.6 -0.4,1.3 -0.8,1.9 4,2 10.5,2.6 14.7,2.7 1.1,0 2.2,0.1 3.3,0.1 3.7,0 7.7,-0.2 11.5,-0.9 -0.2,-1 -0.1,-2.5 -0.1,-4 z"
       style="opacity:1;fill:#262626" />
  </g>
  <g
     transform="matrix(0.26458333,0,0,0.26458333,22.176241,7.535482)"
     id="g1375">
    <path
       inkscape:connector-curvature="0"
       style="opacity:0.2"
       d="m 63.6,114.3 c -14.1,9.1 -38.5,17.2 -16.5,30.7 20.5,12.5 40.7,-4.1 55.2,-11.8 21.3,-11.3 32.2,-21.2 19.2,-29.4 -13.4,-8.4 -49.5,5.1 -57.9,10.5 z"
       id="path1357" />
    <path
       inkscape:connector-curvature="0"
       style="opacity:1;fill:#baa794"
       d="m 88.4,90.5 c 0,0 8.9,2.3 8.9,4.9 0,1.4 0,5.8 0,7 0,2.2 -4.6,3.8 -4.6,6 0,2.9 5.7,4.7 7.3,4.3 1.6,-0.4 2.5,-1.2 2.5,-4 0,-2.8 1,-14.5 1.4,-18.1 0.4,-3.6 -1.1,-14.8 -1.1,-14.8 z"
       id="path1359" />
    <path
       inkscape:connector-curvature="0"
       style="opacity:0.2"
       d="m 88.4,90.5 c 0,0 8.9,2.3 8.9,4.9 0,1.4 0,5.8 0,7 0,2.2 -4.6,3.8 -4.6,6 0,2.9 5.7,4.7 7.3,4.3 1.6,-0.4 2.5,-1.2 2.5,-4 0,-2.8 1,-14.5 1.4,-18.1 0.4,-3.6 -1.1,-14.8 -1.1,-14.8 z"
       id="path1361" />
    <path
       inkscape:connector-curvature="0"
       style="opacity:1;fill:#baa794"
       d="m 21.6,54.3 c 1.6,-0.6 7.9,-2.8 8,-4 0.1,-1.2 0,-3.1 1.5,-3.8 1.5,-0.7 2.8,-4.2 4.6,-4.5 1.8,-0.4 2.8,0.1 6.3,1.2 3.5,1.1 7.7,3.4 10.4,5.3 2.8,2 4.1,4 5.9,6.7 1.8,2.7 2.4,3.5 2.1,4.2 -0.3,0.7 -0.8,0.3 -0.4,1.5 0.6,1.6 0.9,3.7 3,4.3 7.1,1.9 23.5,-9.6 27.8,-10.9 10.1,-3.3 19.9,1.8 25,6 3.3,2.7 6.5,10.1 8.9,14.9 2.4,4.8 6.7,5.4 6.3,7.5 -0.2,0.9 -1.5,1.5 -4.1,0.5 -3.3,-1.3 -10.5,-9.4 -10.5,-9.4 0,0 1,3 -0.5,7 -1.5,4 -3.8,10.5 -1.7,12.7 2,2.1 4.6,4.5 4.9,6.7 0.3,2.2 1.2,18.2 1.2,19 0,0.8 -0.5,2.3 -2,2.8 -4.5,1.5 -10.1,-1.7 -9.3,-4.5 0.8,-2.8 4,-2.1 4,-6.3 0,-1.5 -0.4,-6 -0.7,-6.9 -0.4,-1.2 -1.7,-2.4 -3.3,-3 -1.4,-0.5 -7.3,-3.8 -8.5,-7.5 -1.2,-3.7 -1.7,-7.9 -3.7,-8.2 -2,-0.6 -8.8,10.6 -14.5,14.4 -5.7,3.8 -9.5,4.1 -9.5,4.1 0,0 -1.1,18.6 -1.1,22.2 0,3.6 2.6,7.4 3,9.8 0.4,2.5 1,6.8 -2.1,8.8 -3.7,2.4 -8.4,0.2 -9.5,-1.1 -1,-1.3 -1.2,-3.7 0.4,-5.2 1.5,-1.5 3.3,-2.7 2.8,-3.4 -0.5,-0.7 -2.5,-4.1 -2.9,-6.2 -0.5,-3.3 -1,-17.2 -4.9,-19.6 -1.2,-0.7 -4.1,-1.1 -4.9,0.1 -0.8,1.3 -0.7,8.7 -0.7,9.9 0,1.9 2.8,6 2.8,9.3 0,3.3 -1.2,5.1 -4.1,6.1 -2.3,0.8 -5.4,0.2 -7.7,-2.7 -1.5,-1.9 -0.3,-4 1.2,-4.9 1,-0.6 2.3,-0.8 2.4,-2.1 0.1,-1.3 -1.8,-3.2 -1.8,-5.6 0,-2.4 -1,-12 -1,-13.2 0,-3.9 -6.4,-7.6 -8.8,-15.6 C 34.7,86.8 35.6,82.3 35.3,79 35.3,76.8 34.8,67.8 31,67 29.6,66.7 23.4,66.8 21.7,64.9 20.4,63.5 19.6,61.6 20,59.4 c 0.4,-2.3 1.6,-5.1 1.6,-5.1 z"
       id="path1363" />
    <path
       inkscape:connector-curvature="0"
       style="opacity:1;fill:#262626"
       d="m 41.3,56.5 c 0,0 -0.7,-1.9 -2.4,-2.9 -1.6,-0.9 -3.2,0.9 -1.2,2.4 1.8,1.4 3.6,0.5 3.6,0.5 z"
       id="path1365" />
    <path
       inkscape:connector-curvature="0"
       style="opacity:1;fill:#262626"
       d="m 25.7,57.1 c 0.2,-1.8 -1,-2.7 -3.3,-3.2 -1.4,-0.3 -3,0.5 -3,2.3 0,2.5 2.1,4.4 2.1,4.4 0,0 3.8,0 4.2,-3.5 z"
       id="path1367" />
    <path
       inkscape:connector-curvature="0"
       style="opacity:1;fill:#262626"
       d="m 29.8,48.5 c 0,0 1.2,0.6 0.3,1.5 -0.8,1.1 -0.3,-1.5 -0.3,-1.5 z"
       id="path1369" />
    <path
       inkscape:connector-curvature="0"
       style="opacity:1;fill:#262626"
       d="m 34.6,73.3 c 0,0 2.8,1.6 7.3,1.6 4.5,0 8.4,-1.8 10.6,-3.9 2.2,-2.1 8.1,-8.5 8.1,-8.5 l 2,2.1 c 0,0 -7,8.9 -10,10.7 -3.1,1.8 -6.3,3.4 -10.8,3.3 -4.5,-0.1 -6.6,-1.5 -6.6,-1.5 z"
       id="path1371" />
    <path
       inkscape:connector-curvature="0"
       style="opacity:0.2"
       d="m 46.7,54.8 c 0,0 -4.9,18.4 0.8,18.2 2.9,-0.1 12.3,-13.1 12.3,-13.1 0,0 -5.6,16.4 -13.4,16.5 -7.7,0.1 0.3,-21.6 0.3,-21.6 z"
       id="path1373" />
  </g>
  <g
     id="g1624"
     transform="matrix(0.26458333,0,0,0.26458333,0.00313048,7.371652)">
    <path
       inkscape:connector-curvature="0"
       id="path1600"
       d="m 54.4,127.4 c 9.1,5.9 23.5,12.9 10.6,19.8 C 51.3,154.5 33.1,145.9 26.3,138 17.2,127.5 6.9,124 2.4,122.8 c -3.7,-1 -3.8,-3.1 4.4,-1.8 1.4,0.2 11.6,1.5 21.6,2.9 10.2,1.4 23.2,1.7 26,3.5 z"
       style="opacity:0.2" />
    <path
       inkscape:connector-curvature="0"
       id="path1602"
       d="m 46.3,127.9 c 0,0 0.8,2.9 2.8,4.1 2,1.2 6.1,3.4 6.5,4.3 0.4,0.9 1.4,3 3.5,2.6 2.1,-0.4 4.8,-2.2 4.1,-3.5 -0.7,-1.3 -1.7,-0.9 -3.8,-1.4 -2.1,-0.5 -5.2,-2.4 -6,-3.7 -0.9,-1.3 -1.7,-4 -1.7,-4 z"
       style="fill:#999999" />
    <path
       inkscape:connector-curvature="0"
       id="path1604"
       d="m 46.3,127.9 c 0,0 0.8,2.9 2.8,4.1 2,1.2 6.1,3.4 6.5,4.3 0.4,0.9 1.4,3 3.5,2.6 2.1,-0.4 4.8,-2.2 4.1,-3.5 -0.7,-1.3 -1.7,-0.9 -3.8,-1.4 -2.1,-0.5 -5.2,-2.4 -6,-3.7 -0.9,-1.3 -1.7,-4 -1.7,-4 z"
       style="opacity:0.2" />
    <path
       inkscape:connector-curvature="0"
       id="path1606"
       d="m 19.4,120.4 c 0,0 -8.5,-1.5 -12,-8.3 C 4,105.3 5.4,99.8 4.5,98.2 3.6,96.6 1.4,97 0.9,98.8 c -0.5,1.8 -1.2,13.5 4.9,19.8 6.3,6.3 13.8,7.8 13.8,7.8 0,0 1.8,6.3 5.5,8 3.7,1.7 5.1,0.5 5.1,0.5 0,0 -0.9,2 -0.2,3.1 0.7,1 8.4,3.1 9.5,4 1.1,1 2.1,3.8 4.9,2.8 2.8,-1 3.7,-2.1 3,-3.4 -0.7,-1.3 -2.6,-1.8 -4,-1.9 -1.4,-0.1 -6.5,-2.5 -6.5,-2.5 0,0 2.2,-2.1 2.7,-3.7 0.5,-1.6 0.3,-2.7 0.3,-2.7 l 6.9,-2.6 c 0,0 1.2,5.4 1.5,9.2 0.3,3.8 0.5,5.6 0.9,7.4 0.4,1.9 0.2,4.3 3.3,4 3.1,-0.3 4.3,-1.1 3.9,-2.3 -0.4,-1.2 -2.4,-2.4 -2.8,-4.6 -0.4,-2.1 0.1,-12.9 0.4,-14 0.2,-1.1 2.5,-7.1 2.5,-7.1 l 2.5,-0.5 c 0,0 1.1,7.8 1.5,11.3 0.4,3.5 0.7,9.2 0.7,10.4 0,1.2 0.7,2.6 2.2,2.7 1.5,0.2 4.6,-0.8 4.5,-2.1 -0.1,-1.3 -2.3,-3.1 -2.5,-4.6 -0.2,-1.5 -0.5,-14.8 0.9,-19.4 1.4,-4.6 2.4,-7.1 2.4,-7.1 L 60,91.5 c 0,0 -3.5,0.8 -7.9,0.7 -4.5,-0.1 -17.8,-0.1 -25.4,9.5 -7.8,9.7 -7.3,18.7 -7.3,18.7 z"
       style="fill:#999999" />
    <path
       inkscape:connector-curvature="0"
       id="path1608"
       d="m 56.3,120.7 c 0,0 2.5,-2.1 2.7,-4.9 0.2,-2.8 1.8,-5.1 3.2,-6 1.4,-1 6.2,-3.4 6.2,-3.4 0,0 1.3,4.3 -0.5,7.3 -1.8,3 -4.8,5.4 -7.3,6.2 -2.5,0.8 -4.3,0.8 -4.3,0.8 z"
       style="fill:#e5e5e5" />
    <path
       inkscape:connector-curvature="0"
       id="path1610"
       d="m 46.8,128 c 0,0 -0.7,-3.1 -1,-5.4 -0.2,-2.4 -0.9,-6 -0.9,-6 0,0 -0.9,2.1 -2.8,3 -1.9,0.9 -3.7,1.3 -5.3,0.6 -1.6,-0.7 -5.4,-2.7 -5.4,-2.7 0,0 5.7,3.8 6.8,6.9 1.2,3.1 1.6,6.3 1.6,6.3 z"
       style="opacity:0.2" />
    <path
       inkscape:connector-curvature="0"
       id="path1612"
       d="m 58.2,96 c 0,0 -0.5,2.8 0.7,5.7 1.3,2.9 4,5.2 5.4,6.9 1.3,1.6 2.8,3.2 5.8,2.9 3,-0.4 3.2,-1.9 4.1,-3.1 0.9,-1.2 4.1,-5.7 4.6,-8.7 0.5,-3.1 0.1,-5.3 0.1,-5.3 0,0 2.1,-7.3 0.5,-8.2 -1.6,-0.9 -3.2,2.7 -5.1,2.9 -2,0.2 -2.9,-0.3 -5.1,-0.2 -2.2,0.1 -5.7,1 -5.7,1 0,0 -3.3,-3.4 -5.3,-2.7 -2.4,0.9 0,8.8 0,8.8 z"
       style="fill:#999999" />
    <path
       inkscape:connector-curvature="0"
       id="path1614"
       d="m 69.7,110.5 c -0.6,0 -1.7,-1 -1.6,-1.5 0.1,-0.5 2.9,-0.5 3.1,0.1 0.2,0.5 -0.9,1.4 -1.5,1.4 z"
       style="fill:#2d3134" />
    <path
       inkscape:connector-curvature="0"
       id="path1616"
       d="m 72,104.4 c 0,0 0.3,-1.8 1.8,-2.4 1.5,-0.6 2.1,-0.3 2.1,-0.3 0,0 -0.3,1.7 -1.5,2.3 -1.1,0.6 -2.4,0.4 -2.4,0.4 z"
       style="fill:#2d3134" />
    <path
       inkscape:connector-curvature="0"
       id="path1618"
       d="m 67.3,104.4 c 0,0 -0.6,-1.8 -2,-2.3 -1.4,-0.5 -2.4,0 -2.4,0 0,0 0.2,1.5 1.4,2 1.2,0.5 3,0.3 3,0.3 z"
       style="fill:#2d3134" />
    <path
       inkscape:connector-curvature="0"
       id="path1620"
       d="m 72.9,93.3 c 0,0 4.8,-7.5 6.4,-6.9 1.2,0.4 -0.4,8 -0.4,8 0,0 -1.3,-1.2 -3,-1.5 -1.6,-0.3 -3,0.4 -3,0.4 z"
       style="opacity:0.2" />
    <path
       inkscape:connector-curvature="0"
       id="path1622"
       d="m 65.2,93.2 c 0,0 -5.3,-6.3 -6.9,-5.8 -2.2,0.7 -0.1,8.6 -0.1,8.6 0,0 1.6,-2.1 2.9,-2.6 1.3,-0.5 4.1,-0.2 4.1,-0.2 z"
       style="opacity:0.2" />
  </g>
  <path
     style="fill:#000000;fill-opacity:1;fill-rule:nonzero;stroke:none;stroke-width:0.264583"
     id="path1"
     d="m 35.592832,19.377797 c 0.210431,0.121552 0.413723,0.254493 0.616955,0.387536 0.177588,0.112577 0.352319,0.229461 0.527521,0.345679 0.518549,0.343962 1.004983,-0.389374 0.486437,-0.733335 v 0 c -0.176687,-0.117195 -0.352896,-0.23506 -0.531969,-0.348609 -0.222919,-0.145932 -0.44614,-0.29152 -0.677553,-0.423819 -0.546275,-0.297968 -0.967666,0.474581 -0.421391,0.772548 z" />
  <path
     style="fill:#000000;fill-opacity:1;fill-rule:nonzero;stroke:none;stroke-width:0.264583"
     id="path2"
     d="m 38.332626,21.874048 c 0.137727,0.0957 0.261525,0.209089 0.385197,0.321954 0.147923,0.147647 0.295598,0.295491 0.452122,0.434035 0.467405,0.410771 1.048322,-0.25024 0.580917,-0.66101 v 0 c -0.153628,-0.133639 -0.293664,-0.281865 -0.440068,-0.423245 -0.156552,-0.142672 -0.314944,-0.284061 -0.490032,-0.403939 -0.517745,-0.345164 -1.005883,0.38704 -0.488136,0.732205 z" />
  <path
     style="fill:#000000;fill-opacity:1;fill-rule:nonzero;stroke:none;stroke-width:0.264583"
     id="path3"
     d="m 41.513677,23.401527 c 0.247177,0.01089 0.488736,-0.0374 0.727692,-0.09441 0.391263,-0.113764 0.76001,-0.290974 1.125921,-0.467641 0.560279,-0.270714 0.177432,-1.06307 -0.382847,-0.792356 v 0 c -0.309758,0.149788 -0.621329,0.300659 -0.950023,0.404676 -0.171114,0.04217 -0.343202,0.08019 -0.520743,0.06974 -0.622252,0 -0.622252,0.88 0,0.88 z" />
  <path
     style="fill:#000000;fill-opacity:1;fill-rule:nonzero;stroke:none;stroke-width:0.264583"
     id="path4"
     d="m 45.269454,21.598901 c -0.006,0.0038 -0.02519,0.01203 -0.0181,0.01136 0.05373,-0.0051 0.103632,-0.03025 0.155218,-0.04615 0.142065,-0.04376 0.282419,-0.08945 0.422548,-0.139229 0.211547,-0.07773 0.106891,-0.03983 0.313933,-0.113764 0.585989,-0.209328 0.289954,-1.03804 -0.296034,-0.828712 v 0 c -0.212016,0.07576 -0.107432,0.03784 -0.31378,0.113709 -0.217281,0.07804 -0.439746,0.139251 -0.657342,0.21569 -0.556559,0.27828 -0.163012,1.065376 0.393549,0.787096 z" />
  <path
     style="fill:#000000;fill-opacity:1;fill-rule:nonzero;stroke:none;stroke-width:0.264583"
     id="path5"
     d="m 48.358911,21.166349 c 0.138642,-0.0062 0.27545,0.02161 0.41112,0.04705 0.146251,0.02902 0.293167,0.05424 0.440357,0.07792 0.614378,0.09869 0.753951,-0.770169 0.139573,-0.868861 v 0 c -0.140383,-0.02251 -0.280461,-0.0467 -0.419928,-0.0744 -0.188436,-0.03447 -0.378754,-0.06836 -0.571122,-0.06171 -0.622255,0 -0.622255,0.88 0,0.88 z" />
  <path
     style="fill:#000000;fill-opacity:1;fill-rule:nonzero;stroke:none;stroke-width:0.264583"
     id="path6"
     d="m 52.000533,21.758481 c 0.08985,0.05 0.215231,0.109744 0.3175,0.167989 0.191249,0.112614 0.390395,0.210999 0.587579,0.312643 0.553114,0.285072 0.956265,-0.497148 0.403153,-0.78222 v 0 c -0.187751,-0.09675 -0.377494,-0.190188 -0.559511,-0.297526 -0.117192,-0.06531 -0.238239,-0.123224 -0.355172,-0.187982 -0.556561,-0.27828 -0.950108,0.508816 -0.393549,0.787096 z" />
  <path
     style="fill:#000000;fill-opacity:1;fill-rule:nonzero;stroke:none;stroke-width:0.264583"
     id="path7"
     d="m 54.281207,23.679342 c 0.05647,0.137115 0.139528,0.260622 0.215186,0.387516 0.06551,0.119771 0.131529,0.239084 0.193804,0.360619 0.283948,0.553691 1.066985,0.152126 0.783035,-0.401565 v 0 c -0.07104,-0.138421 -0.146275,-0.274357 -0.221478,-0.410526 -0.03243,-0.05416 -0.06796,-0.10707 -0.09927,-0.161861 -0.0011,-0.0021 -0.04416,-0.08397 -0.04482,-0.07944 -0.0013,0.0093 0.0056,0.01798 0.0084,0.02697 -0.196774,-0.590322 -1.031616,-0.312042 -0.834843,0.27828 z" />
  <path
     style="fill:#000000;fill-opacity:1;fill-rule:nonzero;stroke:none;stroke-width:0.264583"
     id="path8"
     d="m 55.84508,26.600797 c 0.07366,0.121048 0.145311,0.243272 0.216622,0.365725 0.115734,0.195532 0.229817,0.391967 0.348223,0.585901 0.324544,0.530919 1.075373,0.07195 0.75083,-0.458972 v 0 c -0.115372,-0.188472 -0.225894,-0.379747 -0.338617,-0.569803 -0.06377,-0.109482 -0.124613,-0.222422 -0.19427,-0.328364 -0.0024,-0.0035 0.0029,0.008 0.0043,0.01197 -0.278281,-0.556561 -1.065377,-0.163013 -0.787096,0.393548 z" />
  <path
     style="fill:#000000;fill-opacity:1;fill-rule:nonzero;stroke:none;stroke-width:0.264583"
     id="path9"
     d="m 57.703822,29.546683 c 0.01797,0.07188 0.0254,0.144862 0.02931,0.218596 0.0024,0.07712 0.0028,0.04091 2.19e-4,0.108628 -0.01389,0.622098 0.865878,0.641757 0.87978,0.01966 v 0 c 0.0019,-0.124881 0.0026,-0.06486 -0.0016,-0.180073 -0.0094,-0.150439 -0.02817,-0.30058 -0.07295,-0.44509 -0.196773,-0.590322 -1.031615,-0.312041 -0.834842,0.278281 z" />
  <path
     style="fill:#000000;fill-opacity:1;fill-rule:nonzero;stroke:none;stroke-width:0.264583"
     id="path10"
     d="m 57.010059,30.879109 c -0.101532,0.05262 -0.216774,0.06915 -0.328137,0.08906 -0.221623,0.0366 -0.446013,0.04954 -0.668594,0.07813 -0.171069,0.02561 -0.08512,0.01135 -0.257815,0.04287 -0.611947,0.112795 -0.452435,0.978215 0.159512,0.865423 v 0 c 0.138623,-0.02588 0.06762,-0.01384 0.213058,-0.0358 0.236678,-0.03213 0.476237,-0.04191 0.711626,-0.08488 0.175895,-0.0325 0.355254,-0.0662 0.516996,-0.145949 0.571942,-0.245118 0.225293,-1.053968 -0.346646,-0.80885 z" />
  <path
     style="fill:#000000;fill-opacity:1;fill-rule:nonzero;stroke:none;stroke-width:0.264583"
     id="path11"
     d="m 54.14151,32.899449 c 0.02162,0.08187 0.02995,0.166984 0.03967,0.250936 0.01804,0.164176 0.02609,0.329242 0.03391,0.494157 0.0087,0.190923 0.01368,0.381987 0.01818,0.573048 0.01463,0.62208 0.894398,0.601371 0.879755,-0.02072 v 0 c -0.0047,-0.198091 -0.0098,-0.396187 -0.01892,-0.594135 -0.0088,-0.185209 -0.0182,-0.370557 -0.03891,-0.554895 -0.01701,-0.143584 -0.03422,-0.288536 -0.07883,-0.426678 -0.196776,-0.590322 -1.031616,-0.312041 -0.834843,0.278278 z" />
  <path
     style="fill:#000000;fill-opacity:1;fill-rule:nonzero;stroke:none;stroke-width:0.264583"
     id="path12"
     d="m 56.263721,18.558456 c -0.157471,0.147495 -0.267115,0.335836 -0.37243,0.521794 -0.131438,0.260638 -0.262334,0.529852 -0.322011,0.817896 -0.01542,0.07396 -0.02294,0.149351 -0.03437,0.224038 -0.04577,0.463585 0.03928,0.922387 0.154674,1.369305 0.08204,0.288181 0.183473,0.572121 0.323425,0.837771 0.09414,0.178693 0.14483,0.247953 0.254523,0.416116 0.183076,0.261812 0.3874,0.509565 0.621585,0.727505 0.149319,0.13896 0.217228,0.18728 0.375927,0.312279 0.343279,0.263171 0.741935,0.437529 1.157426,0.551165 0.07759,0.02122 0.156389,0.0378 0.234583,0.0567 0.32015,0.06728 0.64454,0.11028 0.970315,0.13761 0.620149,0.05115 0.69248,-0.825877 0.07233,-0.877022 v 0 c -0.281512,-0.02274 -0.561615,-0.06066 -0.838569,-0.116594 -0.374552,-0.08772 -0.744953,-0.20487 -1.053143,-0.444377 -0.121739,-0.0949 -0.187128,-0.141937 -0.300824,-0.246172 -0.190103,-0.174285 -0.355038,-0.373786 -0.503901,-0.583878 -0.07449,-0.112653 -0.133846,-0.1965 -0.197365,-0.315051 -0.114987,-0.214602 -0.19768,-0.444458 -0.264752,-0.677931 -0.0881,-0.334321 -0.158554,-0.677803 -0.134714,-1.025581 0.0047,-0.04096 0.0068,-0.0823 0.01412,-0.122871 0.03915,-0.215757 0.143954,-0.415186 0.238282,-0.610461 0.05734,-0.103727 0.115433,-0.210279 0.194695,-0.299135 0.4618,-0.417062 -0.128014,-1.070147 -0.589815,-0.653086 z" />
  <path
     style="fill:#000000;fill-opacity:1;fill-rule:nonzero;stroke:none;stroke-width:0.264583"
     id="path13"
     d="m 57.299267,19.940286 c -0.0847,0.146029 -0.111617,0.311584 -0.126305,0.477197 -0.01451,0.253368 0.05327,0.497356 0.131873,0.735241 0.09719,0.285796 0.259701,0.536762 0.451031,0.767392 0.208608,0.228422 0.461896,0.40617 0.725336,0.564935 0.209717,0.117634 0.426345,0.227277 0.657953,0.295266 0.0489,0.01431 0.09876,0.02515 0.148139,0.03773 0.212624,0.04687 0.42954,0.04875 0.645696,0.03702 0.621206,-0.03611 0.570141,-0.914626 -0.05107,-0.878516 v 0 c -0.128501,0.0082 -0.257574,0.0102 -0.384871,-0.01314 -0.200182,-0.04587 -0.386297,-0.130704 -0.563811,-0.233376 -0.180974,-0.107384 -0.355819,-0.226652 -0.50442,-0.37695 -0.123308,-0.142532 -0.225636,-0.300262 -0.289237,-0.478904 -0.04305,-0.127255 -0.08844,-0.257782 -0.08889,-0.393639 3.77e-4,-0.02551 -6.67e-4,-0.05435 0.0056,-0.07938 0.0056,-0.02183 0.01361,-0.03358 -0.0013,-0.0101 0.318726,-0.534428 -0.437067,-0.985177 -0.755794,-0.450749 z" />
  <path
     style="fill:#000000;fill-opacity:1;fill-rule:nonzero;stroke:none;stroke-width:0.264583"
     id="path14"
     d="m 58.642678,21.928391 c 0.322053,-0.201647 0.662759,-0.392973 0.992875,-0.587619 0.700545,-0.421567 1.425059,-0.799595 2.167135,-1.142023 0.897399,-0.37427 1.831293,-0.649633 2.763924,-0.920047 0.597378,-0.173053 1.204254,-0.324391 1.8202,-0.415621 0.473086,-0.07007 0.621076,-0.07137 1.107767,-0.106891 1.413337,-0.07205 2.829159,-0.0012 4.239544,0.09406 1.697584,0.129046 3.383377,0.372009 5.0659,0.625913 1.754519,0.280682 3.503548,0.595605 5.246872,0.938808 1.586185,0.310674 3.161352,0.673243 4.736778,1.033576 1.217249,0.274068 2.430801,0.563981 3.644313,0.85402 0.578,0.138371 1.156202,0.275895 1.734456,0.413196 0.605422,0.143744 0.808707,-0.712456 0.203287,-0.856198 v 0 c -0.577831,-0.137188 -1.155604,-0.274618 -1.733177,-0.412885 -1.216293,-0.2907 -2.43263,-0.581246 -3.652663,-0.855965 -1.58415,-0.362339 -3.168063,-0.726807 -4.763046,-1.039135 -1.756178,-0.345622 -3.518053,-0.663009 -5.285526,-0.945526 -1.706428,-0.257455 -3.416222,-0.503426 -5.13796,-0.633766 -1.451692,-0.0978 -2.909004,-0.169944 -4.363646,-0.09366 -0.533203,0.03986 -0.677333,0.04034 -1.196514,0.118007 -0.646798,0.09677 -1.284157,0.255358 -1.911688,0.436933 -0.974952,0.28278 -1.951102,0.571543 -2.887848,0.966338 -0.76845,0.355311 -1.519433,0.746059 -2.245095,1.182881 -0.381533,0.224992 -0.77653,0.432879 -1.135708,0.692562 -0.4618,0.417062 0.128015,1.070147 0.589815,0.653086 z" />
  <path
     style="fill:#000000;fill-opacity:1;fill-rule:nonzero;stroke:none;stroke-width:0.264583"
     id="path15"
     d="m 93.163031,20.893071 c 0.192771,0.06862 0.38769,0.129833 0.584279,0.186772 0.529871,0.14416 1.064833,0.268521 1.598023,0.399588 0.701975,0.170951 1.396976,0.369549 2.09109,0.569697 0.711076,0.208156 1.424338,0.408601 2.135472,0.616543 0.638185,0.187227 1.279265,0.364339 1.921135,0.538469 0.44997,0.125122 0.89907,0.253319 1.34914,0.378134 0.32185,0.08973 0.64485,0.175258 0.9684,0.258623 0.27761,0.07105 0.55592,0.139258 0.83446,0.206491 0.24739,0.05951 0.49513,0.117556 0.74306,0.174816 0.27103,0.06234 0.54232,0.123509 0.81366,0.184483 0.26813,0.06017 0.53636,0.119949 0.80463,0.179532 0.25688,0.05705 0.5138,0.113873 0.77074,0.170663 0.23292,0.05144 0.46586,0.102795 0.69882,0.154103 0.23446,0.05164 0.46893,0.103197 0.70341,0.154733 0.27759,0.06654 0.54666,0.161428 0.81447,0.259029 0.27641,0.09334 0.53488,0.225168 0.78492,0.373764 0.21344,0.129067 0.40629,0.287516 0.54572,0.495462 0.11531,0.179581 0.19238,0.379906 0.21363,0.592372 0.0139,0.176875 -0.0487,0.335782 -0.13599,0.485373 -0.15691,0.225307 -0.35394,0.415115 -0.57822,0.571892 -0.2888,0.2047 -0.62198,0.306134 -0.96209,0.386186 -0.23688,0.0478 -0.47698,0.08954 -0.71939,0.09108 -0.13082,8.3e-4 -0.19977,-0.0078 -0.33024,-0.01862 -0.29856,-0.02701 -0.59398,-0.0857 -0.87902,-0.178287 -0.22402,-0.08252 -0.41557,-0.225866 -0.60034,-0.373324 -0.15638,-0.121063 -0.28165,-0.272852 -0.39454,-0.433774 -0.0742,-0.106832 -0.0399,-0.05501 -0.10328,-0.154991 -0.33494,-0.524425 -1.07658,-0.05075 -0.74164,0.47367 v 0 c 0.0839,0.130582 0.0415,0.06729 0.12686,0.190049 0.16231,0.227513 0.34308,0.441462 0.56494,0.613858 0.26917,0.213369 0.5531,0.411151 0.88131,0.523127 0.35027,0.109716 0.71031,0.186684 1.07671,0.216959 0.18236,0.01377 0.2557,0.02341 0.44056,0.02035 0.2973,-0.0049 0.59195,-0.05345 0.88231,-0.114138 0.45094,-0.108768 0.89028,-0.254565 1.27167,-0.527747 0.0611,-0.04473 0.12408,-0.08698 0.18326,-0.134199 0.25551,-0.203835 0.4724,-0.454567 0.65155,-0.726828 0.0294,-0.0549 0.0618,-0.10836 0.0883,-0.164747 0.12597,-0.267971 0.17517,-0.564503 0.14997,-0.858863 -0.009,-0.05942 -0.014,-0.119314 -0.0256,-0.178236 -0.0567,-0.290641 -0.18395,-0.564296 -0.34388,-0.81157 -0.0399,-0.05435 -0.077,-0.110808 -0.11959,-0.163037 -0.19188,-0.235398 -0.43912,-0.419211 -0.69469,-0.579288 -0.29722,-0.175408 -0.60449,-0.331597 -0.932,-0.443355 -0.30446,-0.110905 -0.6109,-0.21738 -0.92678,-0.291671 -0.23435,-0.05151 -0.46871,-0.103042 -0.70305,-0.154652 -0.23278,-0.05127 -0.46556,-0.102593 -0.69831,-0.153992 -0.25659,-0.05668 -0.51315,-0.113415 -0.76966,-0.170425 -0.26758,-0.05945 -0.53514,-0.118964 -0.80256,-0.179078 -0.26967,-0.06061 -0.5393,-0.121311 -0.80866,-0.183283 -0.24508,-0.05654 -0.48997,-0.113967 -0.73452,-0.1728 -0.27417,-0.0662 -0.54814,-0.133262 -0.82138,-0.203233 -0.31835,-0.08202 -0.63614,-0.166168 -0.95281,-0.254453 -0.45165,-0.125255 -0.90233,-0.253952 -1.3539,-0.379447 -0.63634,-0.17262 -1.27189,-0.34818 -1.904569,-0.533799 -0.712199,-0.208249 -1.426524,-0.409019 -2.138669,-0.617471 -0.705314,-0.203308 -1.411521,-0.405041 -2.124814,-0.578699 -0.521648,-0.128207 -1.044978,-0.250016 -1.563552,-0.390366 -0.180031,-0.05201 -0.358787,-0.107294 -0.535033,-0.170938 -0.586555,-0.207727 -0.880328,0.621789 -0.29377,0.829517 z" />
  <path
     style="fill:#000000;fill-opacity:1;fill-rule:nonzero;stroke:none;stroke-width:0.264583"
     id="path17"
     d="m 86.312318,0.32350582 c 0.06775,0.2330952 0.115502,0.4717054 0.162231,0.70972948 0.06187,0.3709062 0.102223,0.7517054 0.0701,1.1281161 -0.02309,0.2712392 -0.06603,0.4503935 -0.11853,0.7157755 -0.134607,0.585901 -0.328379,1.1583628 -0.59552,1.6975336 -0.05185,0.1046595 -0.109381,0.2064035 -0.164062,0.3096075 -0.260231,0.456678 -0.563692,0.891258 -0.915799,1.282287 -0.06608,0.07338 -0.135983,0.143236 -0.203975,0.214852 -0.353166,0.357483 -0.737409,0.681987 -1.105673,1.023511 -0.269642,0.247976 -0.510607,0.525216 -0.709763,0.833012 -0.04217,0.06519 -0.08059,0.132739 -0.120886,0.199111 -0.231517,0.406914 -0.379819,0.851532 -0.506381,1.300044 -0.09323,0.351127 -0.16075,0.708303 -0.205219,1.068701 -0.07685,0.617487 -0.950121,0.508793 -0.873261,-0.108697 v 0 c 0.05074,-0.404585 0.125885,-0.805794 0.231776,-1.199805 0.149257,-0.52529 0.326966,-1.04471 0.602276,-1.519259 0.04945,-0.08042 0.09669,-0.162248 0.14835,-0.24127 0.235446,-0.360149 0.518926,-0.685481 0.834795,-0.977141 0.355105,-0.329169 0.724944,-0.642596 1.067092,-0.985467 0.05739,-0.0599 0.116496,-0.11822 0.172211,-0.179686 0.310283,-0.342387 0.577651,-0.723586 0.807659,-1.1236931 0.04754,-0.088818 0.09758,-0.1763202 0.142581,-0.2664438 0.237739,-0.4761245 0.410081,-0.9818993 0.530865,-1.4996677 0.0333,-0.1648201 0.08564,-0.3986601 0.10185,-0.5694964 0.02953,-0.3110218 -0.0038,-0.6264364 -0.05415,-0.9331337 -0.03861,-0.1986064 -0.08019,-0.39663488 -0.130819,-0.59258258 -0.202154,-0.588502 0.630066,-0.8744254 0.832252,-0.2859331 z" />
  <path
     style="fill:#000000;fill-opacity:1;fill-rule:nonzero;stroke:none;stroke-width:0.264583"
     id="path18"
     d="m 84.02591,5.926234 c 0.280961,-0.05132 0.564751,0.01056 0.835851,0.08227 0.41691,0.114651 0.793648,0.324443 1.155077,0.556196 0.362444,0.233819 0.69985,0.501904 1.018262,0.792149 0.239302,0.226084 0.466562,0.47008 0.641459,0.750535 0.03738,0.05993 0.07018,0.122627 0.105265,0.183939 0.185296,0.344609 0.278579,0.722508 0.353239,1.103329 0.03775,0.202239 0.0571,0.407081 0.07646,0.611675 0.05844,0.619504 -0.817678,0.702144 -0.876113,0.08264 v 0 C 87.31886,9.913232 87.3031,9.737196 87.27138,9.563369 87.21533,9.274907 87.151715,8.986875 87.015332,8.723635 86.953612,8.61186 86.941162,8.581546 86.866671,8.477609 86.743184,8.30532 86.594732,8.151675 86.441263,8.006264 86.160175,7.748268 85.86052,7.512001 85.54005,7.304345 85.255626,7.119798 84.95986,6.950399 84.631144,6.85775 84.495018,6.81932 84.347447,6.7781 84.206407,6.78752 83.597384,6.915151 83.416887,6.053862 84.025962,5.92622 Z" />
  <path
     style="fill:#000000;fill-opacity:1;fill-rule:nonzero;stroke:none;stroke-width:0.264583"
     id="path20"
     d="m 85.579233,12.579051 c -0.06466,-0.140472 -0.182443,-0.249569 -0.328844,-0.301634 -0.03328,-0.01181 -0.06825,-0.01825 -0.10237,-0.02738 -0.06554,0.0016 -0.132405,-0.0082 -0.196647,0.0048 -0.15759,0.0321 -0.249577,0.121771 -0.340188,0.254542 -0.05239,0.07676 -0.07122,0.203498 -0.07495,0.293986 -0.0015,0.03781 0.0043,0.07556 0.0066,0.11333 0.009,0.04703 0.02564,0.155515 0.05154,0.198207 0.09996,0.164898 0.181429,0.283059 0.394348,0.307306 0.227926,0.02595 0.277962,-0.04442 0.430634,-0.155146 0.03202,-0.04329 0.06875,-0.08347 0.09605,-0.129885 0.06283,-0.106802 0.08915,-0.243287 0.07981,-0.366062 -0.0089,-0.117959 -0.02466,-0.135668 -0.06621,-0.243709 -0.08223,-0.123841 -0.117255,-0.207838 -0.29546,-0.25728 -0.208489,-0.05785 -0.393564,0.0105 -0.522693,0.181771 -0.112495,0.149206 -0.08257,0.244539 -0.06894,0.398741 0.01597,0.04256 0.02791,0.08686 0.04791,0.12769 0.09095,0.185757 0.287255,0.315008 0.497158,0.310528 0.0663,-0.0014 0.12943,-0.02888 0.194149,-0.04332 0.06027,-0.04494 0.136664,-0.07395 0.18083,-0.134791 0.138899,-0.19134 0.148604,-0.379269 0.05504,-0.582215 -0.04068,-0.08824 -0.0711,-0.114204 -0.132992,-0.18741 -0.03087,-0.02531 -0.05818,-0.05578 -0.09263,-0.07595 -0.13082,-0.0766 -0.246073,-0.111759 -0.404801,-0.07265 -0.0774,0.01907 -0.14798,0.06391 -0.210665,0.113142 -0.110713,0.08696 -0.123408,0.178225 -0.167421,0.301908 -0.0027,0.04742 -0.01223,0.09492 -0.0083,0.14224 0.01649,0.195417 0.132703,0.391083 0.315002,0.475667 0.057,0.02643 0.120767,0.03479 0.181167,0.05211 0.05967,-0.0044 0.121068,0.0016 0.179039,-0.01329 0.215906,-0.05532 0.345732,-0.214857 0.38249,-0.4318 0.02227,-0.131351 -0.0185,-0.197752 -0.06141,-0.313675 -0.021,-0.03169 -0.0367,-0.06761 -0.06301,-0.09503 -0.141282,-0.147274 -0.284538,-0.218161 -0.49343,-0.184998 -0.139706,0.02218 -0.178636,0.06919 -0.282504,0.147261 -0.03322,0.04464 -0.07427,0.0844 -0.09967,0.133909 -0.0883,0.172158 -0.07609,0.325744 -0.003,0.498106 0.03327,0.07851 0.07415,0.116511 0.12923,0.18332 0.03764,0.02871 0.0727,0.06118 0.11293,0.0861 0.170968,0.105916 0.403981,0.105489 0.569968,-0.01524 0.06174,-0.0449 0.09727,-0.117693 0.145893,-0.176539 0.01253,-0.0949 0.03973,-0.189007 0.03743,-0.284694 -0.0012,-0.04997 -0.02829,-0.09611 -0.04773,-0.142137 -0.02469,-0.05844 -0.08191,-0.134458 -0.129583,-0.177758 -0.02764,-0.02511 -0.05768,-0.0474 -0.08653,-0.0711 -0.05016,-0.02251 -0.09638,-0.05779 -0.150489,-0.06752 -0.159959,-0.02875 -0.336368,-0.01122 -0.454016,0.121625 -0.06888,0.07777 -0.106516,0.180606 -0.137097,0.279892 -0.02607,0.08475 0.01397,0.192336 0.03605,0.272393 0.06558,0.154196 0.179228,0.292745 0.345419,0.344863 0.05293,0.01663 0.108591,0.03028 0.164029,0.02811 0.06977,-0.0027 0.136749,-0.02825 0.205123,-0.04237 0.04224,-0.02595 0.08804,-0.04686 0.126729,-0.07786 0.109534,-0.08775 0.177237,-0.217401 0.197359,-0.355015 0.01552,-0.106167 -8.68e-4,-0.141473 -0.02144,-0.245955 -0.01617,-0.03679 -0.02838,-0.07561 -0.04853,-0.110396 -0.121437,-0.209849 -0.320444,-0.299822 -0.570535,-0.257592 -0.07376,0.01245 -0.131534,0.07127 -0.197302,0.106914 -0.04312,0.06202 -0.09679,0.117916 -0.129368,0.186075 -0.06341,0.132665 -0.0401,0.33385 0.02899,0.461059 0.01978,0.03643 0.0459,0.06903 0.06886,0.103555 0.03922,0.03424 0.07277,0.07635 0.11765,0.102713 0.160095,0.09406 0.337658,0.109712 0.512804,-0.0034 0.184827,-0.119396 0.206232,-0.278837 0.195567,-0.461387 -0.0019,-0.03336 -0.01636,-0.0648 -0.02454,-0.0972 -0.03735,-0.0898 -0.01587,-0.04561 -0.06483,-0.132344 -0.329426,-0.52789 -1.075972,-0.06204 -0.746537,0.465899 v 0 c -0.01869,-0.03813 -0.01076,-0.01901 -0.02412,-0.05728 -0.0038,-0.01935 -0.01171,-0.03832 -0.01161,-0.05806 9.57e-4,-0.161503 0.02153,-0.292872 0.19301,-0.395203 0.160834,-0.09596 0.315111,-0.08462 0.45495,0.0045 0.03244,0.02065 0.05543,0.05331 0.08316,0.07996 0.02979,0.05122 0.04044,0.05931 0.05318,0.111438 0.01643,0.06719 0.0086,0.156861 -0.02522,0.216594 -0.02975,0.05256 -0.07417,0.09531 -0.111257,0.142961 -0.05434,0.0259 -0.103161,0.07131 -0.16302,0.0777 -0.175828,0.01881 -0.335352,-0.02004 -0.413574,-0.177703 -0.0098,-0.01984 -0.01504,-0.04165 -0.02255,-0.06248 -0.0074,-0.05818 -0.01564,-0.0805 -0.003,-0.137733 0.0177,-0.0799 0.0625,-0.154854 0.130857,-0.201673 0.02541,-0.01742 0.05457,-0.02859 0.08185,-0.04288 0.05201,-0.0074 0.103501,-0.02317 0.156039,-0.02235 0.12583,0.002 0.250232,0.09006 0.289771,0.208384 0.0036,0.01934 0.01012,0.03832 0.01093,0.05798 0.0054,0.130555 -0.02673,0.218615 -0.134346,0.328338 -0.105433,0.107506 -0.253589,0.113718 -0.388112,0.08494 -0.04136,-0.0089 -0.07557,-0.03804 -0.113356,-0.05706 -0.0161,-0.01483 -0.03253,-0.02932 -0.0483,-0.04451 -0.0096,-0.0093 -0.02468,-0.0415 -0.02776,-0.05101 -0.05179,-0.160049 -0.02482,-0.108771 0.01699,-0.343027 0.04405,-0.04961 0.07711,-0.111763 0.132122,-0.148839 0.113046,-0.07618 0.285288,-0.102082 0.40121,-0.01703 0.02184,0.01602 0.0405,0.036 0.06075,0.05401 0.01054,0.0156 0.02205,0.0306 0.03161,0.04681 0.0034,0.0059 0.0054,0.01237 0.0072,0.01887 0.0063,0.02407 0.01567,0.04787 0.01697,0.07273 0.0045,0.08678 -0.0052,0.148068 -0.05096,0.222902 -0.01805,0.02951 -0.04544,0.05216 -0.06816,0.07824 -0.06802,0.04351 -0.09416,0.06984 -0.184303,0.07733 -0.151509,0.01261 -0.292241,-0.05706 -0.360954,-0.194727 -0.02179,-0.07535 -0.04443,-0.121323 -0.02379,-0.204709 0.03869,-0.156247 0.135457,-0.273773 0.29827,-0.304321 0.04001,-0.0075 0.08142,-4.4e-4 0.122116,-6.52e-4 0.04096,0.01493 0.08459,0.02399 0.122931,0.04474 0.09871,0.05352 0.149388,0.159424 0.149754,0.268147 1.08e-4,0.02517 -0.0071,0.04985 -0.01078,0.07477 -0.0333,0.07428 -0.04765,0.134308 -0.121257,0.182418 -0.0514,0.0336 -0.107165,0.06567 -0.167631,0.07636 -0.127475,0.02255 -0.200928,-0.005 -0.298027,-0.06826 -0.01435,-0.0094 -0.02436,-0.0241 -0.03654,-0.03614 -0.0068,-0.01029 -0.01443,-0.02007 -0.02028,-0.03095 -0.0108,-0.02009 -0.02269,-0.06006 -0.02387,-0.07978 -0.0078,-0.129779 0.0091,-0.196811 0.107613,-0.314988 0.03575,-0.04291 0.09398,-0.06042 0.140947,-0.09063 0.04675,-0.0071 0.09299,-0.02365 0.140225,-0.02141 0.04825,0.0024 0.09651,0.01524 0.140719,0.03477 0.06315,0.02779 0.125786,0.08377 0.150667,0.150424 0.0087,0.0234 0.01392,0.04799 0.02086,0.072 0.0026,0.11677 0.01793,0.187417 -0.07648,0.298899 -0.0554,0.06543 -0.128971,0.122253 -0.211058,0.146956 -0.201339,0.06058 -0.305429,-0.01676 -0.442593,-0.140611 -0.01942,-0.01754 -0.02599,-0.04544 -0.03898,-0.06816 -0.005,-0.01781 -0.01188,-0.03519 -0.01502,-0.05343 -0.0153,-0.08917 0.03222,-0.160381 0.09401,-0.219603 0.03158,-0.01869 0.05904,-0.04755 0.09472,-0.05614 0.166038,-0.03995 0.278198,-0.04177 0.412707,0.07703 0.04234,0.03739 0.111023,0.110361 0.0988,0.178038 -0.0039,0.01985 -0.0088,0.04555 -0.01571,0.06228 -0.04866,0.116579 -0.157382,0.211556 -0.28543,0.227804 -0.04672,0.0059 -0.09409,-0.0038 -0.141118,-0.0059 -0.01573,-0.0054 -0.03191,-0.0098 -0.04719,-0.0164 -0.0758,-0.03309 -0.128952,-0.102788 -0.16108,-0.176756 0.240999,0.573692 1.05232,0.23286 0.81132,-0.340821 z" />
  <path
     style="fill:#000000;fill-opacity:1;fill-rule:nonzero;stroke:none;stroke-width:0.264583"
     id="path21"
     d="m 85.31861,15.208848 c -0.008,-0.04009 -0.01282,-0.08093 -0.0239,-0.120272 -0.03128,-0.111106 -0.118696,-0.225338 -0.209986,-0.293269 -0.03119,-0.02321 -0.06571,-0.04157 -0.09855,-0.06235 -0.05078,-0.01688 -0.09932,-0.04347 -0.152343,-0.05066 -0.215135,-0.02919 -0.39303,0.04373 -0.528501,0.213119 -0.08172,0.102166 -0.08711,0.169832 -0.117143,0.28787 -0.0021,0.04368 -0.0074,0.08731 -0.0064,0.131021 0.0032,0.142298 0.06361,0.339868 0.172763,0.436087 0.05787,0.05101 0.130562,0.08221 0.195848,0.123323 0.121242,-0.0096 0.248703,0.01063 0.363724,-0.0289 0.07497,-0.02576 0.128456,-0.09574 0.178301,-0.157384 0.08528,-0.10547 0.110695,-0.275049 0.09851,-0.406472 -0.0033,-0.03653 -0.01257,-0.07229 -0.01884,-0.10845 -0.024,-0.0732 -0.04119,-0.14396 -0.09006,-0.20699 -0.03983,-0.05136 -0.0822,-0.103166 -0.135822,-0.139882 -0.128488,-0.08798 -0.282558,-0.118742 -0.435245,-0.07195 -0.07922,0.02427 -0.141412,0.08636 -0.212118,0.129541 -0.03625,0.05644 -0.08152,0.108028 -0.10877,0.169326 -0.07553,0.169839 -0.03415,0.399983 0.07957,0.543376 0.03112,0.03925 0.07083,0.07085 0.106244,0.106282 0.04134,0.02365 0.07948,0.05413 0.124046,0.07096 0.201234,0.07598 0.406554,0.03731 0.560708,-0.117606 0.120368,-0.120937 0.112641,-0.19303 0.145462,-0.348623 -0.0076,-0.05824 -0.0095,-0.117555 -0.02297,-0.174733 -0.03503,-0.148648 -0.169206,-0.310768 -0.303754,-0.378311 -0.0534,-0.02681 -0.114687,-0.03366 -0.172033,-0.05049 -0.101619,0.02383 -0.214107,0.01996 -0.304869,0.07151 -0.166129,0.09437 -0.218158,0.265693 -0.223113,0.439659 -0.0016,0.05606 0.01679,0.111416 0.03428,0.164695 0.02838,0.08648 0.06799,0.131213 0.1189,0.201263 0.06058,0.06974 0.129045,0.135163 0.210602,0.18022 0.03354,0.01852 0.06736,0.03803 0.10422,0.04855 0.05646,0.01607 0.11487,0.03452 0.173441,0.03059 0.08038,-0.0054 0.156406,-0.03873 0.23461,-0.05809 0.06493,-0.06471 0.150166,-0.114053 0.194759,-0.194139 0.09409,-0.168966 0.06506,-0.353292 -0.01438,-0.513918 -0.028,-0.05661 -0.05023,-0.08459 -0.08561,-0.135124 -0.03608,-0.03542 -0.06588,-0.07864 -0.108224,-0.106245 -0.149541,-0.09749 -0.287178,-0.132225 -0.468857,-0.0681 -0.08061,0.02846 -0.14816,0.08958 -0.206615,0.151968 -0.08346,0.08908 -0.08999,0.178353 -0.112842,0.286562 6.64e-4,0.04368 -0.0026,0.08759 0.0019,0.13104 0.01421,0.136615 0.09056,0.301849 0.197683,0.3901 0.04478,0.03688 0.09758,0.06277 0.146363,0.09414 0.0633,0.01338 0.125217,0.04263 0.189878,0.04034 0.264032,-0.0094 0.422032,-0.152829 0.483873,-0.402707 0.02545,-0.102917 -7.67e-4,-0.172305 -0.02262,-0.268961 -0.01209,-0.02804 -0.02025,-0.05815 -0.0363,-0.08414 -0.06562,-0.106315 -0.155551,-0.217554 -0.290481,-0.242781 -0.105316,-0.01963 -0.217214,-0.0073 -0.320749,0.02019 -0.10685,0.0284 -0.166951,0.12341 -0.229031,0.20174 -0.04834,0.07262 -0.06835,0.146054 -0.08993,0.229084 -0.122478,0.610082 0.740306,0.783294 0.862786,0.17321 v 0 c -0.01072,0.03254 -0.01777,0.05577 -0.03864,0.08282 -0.04621,0.05118 -0.09097,0.110597 -0.166192,0.125233 -0.09374,0.01823 -0.193223,0.02667 -0.286422,0.0058 -0.116888,-0.0261 -0.20635,-0.135742 -0.242886,-0.242146 -0.0099,-0.06139 -0.02331,-0.107198 -0.0027,-0.171431 0.06492,-0.201987 0.194527,-0.306568 0.412704,-0.305333 0.04909,2.37e-4 0.09476,0.02571 0.14216,0.03846 0.03275,0.02407 0.06814,0.04489 0.09827,0.07218 0.06405,0.05807 0.07301,0.142504 0.06348,0.222482 -0.01915,0.0644 -0.02854,0.11698 -0.085,0.168209 -0.05123,0.04651 -0.107571,0.09406 -0.174111,0.113057 -0.154181,0.04402 -0.253737,0.014 -0.371761,-0.07098 -0.02356,-0.01696 -0.03808,-0.04388 -0.05711,-0.06581 0.0121,0.0095 -8.58e-4,-0.02082 -0.0013,-0.02268 -0.0039,-0.029 -0.01416,-0.05851 -0.0091,-0.08733 0.04162,-0.236395 0.05103,-0.191503 0.229365,-0.350012 0.182136,-0.03453 0.158654,-0.05759 0.308453,-0.0076 0.02115,0.0071 0.04939,0.02434 0.05702,0.04627 0.02209,0.04824 0.0429,0.105896 0.03578,0.159847 -0.01818,0.137481 -0.06257,0.265097 -0.201803,0.332973 -0.08075,0.03935 -0.176823,0.03173 -0.265236,0.04758 -0.04149,-0.01473 -0.08628,-0.02231 -0.124471,-0.0442 -0.06414,-0.03685 -0.126355,-0.09637 -0.135159,-0.174045 -0.004,-0.03503 -0.0031,-0.07045 -0.0047,-0.105675 0.02976,-0.100637 0.02932,-0.149473 0.11563,-0.223632 0.119021,-0.102203 0.269591,-0.123216 0.411605,-0.06028 0.02618,0.01168 0.04763,0.03184 0.07146,0.04777 0.04617,0.0535 0.06592,0.06481 0.08849,0.128234 0.02797,0.07859 0.02553,0.178384 -0.01502,0.252687 -0.02305,0.04224 -0.05738,0.07727 -0.08608,0.115895 -0.05729,0.03008 -0.108918,0.07529 -0.171883,0.09022 -0.06181,0.01467 -0.128602,0.0098 -0.190554,-0.0043 -0.106566,-0.02422 -0.221236,-0.12184 -0.238086,-0.233652 -8.67e-4,-0.03944 0.0029,-0.07783 0.02033,-0.11459 0.03693,-0.07788 0.105723,-0.173964 0.194424,-0.196351 0.103753,-0.02618 0.21394,-0.0053 0.320911,-0.008 0.0507,0.03584 0.10711,0.06473 0.152081,0.107535 0.02517,0.02396 0.03808,0.05823 0.05433,0.08893 0.01603,0.03029 0.0048,0.06722 -0.0014,0.09776 -0.0059,0.01414 -0.0098,0.02927 -0.01761,0.04245 -0.08426,0.141452 -0.223465,0.194649 -0.383734,0.160829 -0.03029,-0.0064 -0.05693,-0.02438 -0.0854,-0.03659 -0.01337,-0.0102 -0.02748,-0.0196 -0.04014,-0.03074 -0.06243,-0.05482 -0.0774,-0.138213 -0.08705,-0.215909 0.03633,0.621192 0.914822,0.569822 0.878498,-0.05137 z" />
  <path
     style="fill:#000000;fill-opacity:1;fill-rule:nonzero;stroke:none;stroke-width:0.264583"
     id="path22"
     d="m 92.968406,17.998428 c -0.131555,-0.02869 -0.263087,-0.0574 -0.394183,-0.08814 -0.293001,-0.06494 -0.580703,-0.149212 -0.867109,-0.238187 -0.330373,-0.102686 -0.65948,-0.208812 -0.984979,-0.326062 -0.267915,-0.09522 -0.525298,-0.21471 -0.777792,-0.344669 -0.22823,-0.118727 -0.445732,-0.255932 -0.660759,-0.396732 -0.182542,-0.121642 -0.363013,-0.246415 -0.540186,-0.375748 -0.162422,-0.119613 -0.327982,-0.234467 -0.498338,-0.342447 -0.184668,-0.116641 -0.377561,-0.218927 -0.574769,-0.312459 -0.18641,-0.08768 -0.37924,-0.160505 -0.573326,-0.229111 -0.09226,-0.03205 -0.185406,-0.06147 -0.278517,-0.09094 -0.593267,-0.18771 -0.858725,0.6513 -0.265457,0.839007 v 0 c 0.08396,0.02651 0.167931,0.05301 0.251149,0.08179 0.165824,0.05839 0.330665,0.120227 0.490002,0.194822 0.16485,0.07764 0.325747,0.163242 0.480077,0.260346 0.154237,0.09759 0.303758,0.201904 0.450773,0.310098 0.189267,0.137819 0.381618,0.271374 0.576634,0.400938 0.240782,0.157559 0.484764,0.310437 0.740402,0.443083 0.286351,0.147032 0.578469,0.281909 0.882051,0.390006 0.337799,0.121516 0.679163,0.232051 1.022006,0.33847 0.306346,0.09513 0.614212,0.184843 0.927505,0.254614 0.135113,0.03159 0.270604,0.06143 0.406199,0.09088 0.607791,0.13337 0.796406,-0.726179 0.188615,-0.85955 z" />
  <path
     style="fill:#000000;fill-opacity:1;fill-rule:nonzero;stroke:none;stroke-width:0.264583"
     id="path23"
     d="m 72.641496,18.861526 c 0.198734,0.0043 0.396556,-0.02705 0.592749,-0.0552 0.355567,-0.04984 0.703651,-0.13557 1.047887,-0.235893 0.357873,-0.104074 0.701229,-0.249424 1.035584,-0.412684 0.297203,-0.143653 0.573914,-0.324159 0.847172,-0.508184 0.258566,-0.177393 0.501357,-0.376189 0.739628,-0.579619 0.213528,-0.184162 0.416977,-0.379326 0.61799,-0.576908 0.17064,-0.172293 0.334286,-0.351389 0.494154,-0.533679 0.1613,-0.182735 0.318134,-0.369609 0.484037,-0.548212 0.155425,-0.171147 0.319638,-0.333774 0.483902,-0.496317 0.157117,-0.156008 0.321825,-0.303937 0.492926,-0.444385 0.15981,-0.137085 0.33875,-0.248148 0.518647,-0.356341 0.164781,-0.101963 0.33685,-0.191258 0.51243,-0.272967 0.171013,-0.07883 0.347634,-0.145623 0.526333,-0.204828 0.184374,-0.06235 0.372601,-0.111875 0.561437,-0.158531 0.165887,-0.04668 0.335662,-0.07636 0.504506,-0.109733 0.144562,-0.03161 0.29211,-0.04474 0.439138,-0.05878 0.145746,-0.0087 0.29024,-0.02902 0.435118,-0.04614 0.07429,-0.0071 0.03731,-0.0039 0.110949,-0.0095 0.620393,-0.04809 0.552375,-0.925462 -0.06802,-0.877366 v 0 c -0.09676,0.0076 -0.04792,0.0033 -0.146531,0.013 -0.138253,0.01643 -0.276078,0.03601 -0.415201,0.04401 -0.17631,0.01684 -0.352974,0.03416 -0.526386,0.07156 -0.182354,0.03619 -0.365654,0.06861 -0.544919,0.118728 -0.211384,0.05236 -0.422015,0.108191 -0.62844,0.177956 -0.210628,0.07058 -0.419125,0.148873 -0.620706,0.242479 -0.20306,0.09529 -0.402654,0.198093 -0.593544,0.31619 -0.216657,0.130517 -0.430884,0.266256 -0.623895,0.430707 -0.191577,0.157903 -0.376751,0.323311 -0.552822,0.498451 -0.173321,0.171515 -0.346389,0.343322 -0.510496,0.523804 -0.170928,0.184934 -0.334009,0.37697 -0.500198,0.566143 -0.145442,0.165984 -0.294333,0.32904 -0.449305,0.486196 -0.186382,0.18321 -0.374761,0.364446 -0.572638,0.535348 -0.212765,0.18181 -0.429199,0.359945 -0.659798,0.518943 -0.239719,0.161576 -0.481677,0.321454 -0.742447,0.447649 -0.288949,0.14193 -0.585943,0.267987 -0.895466,0.358368 -0.304334,0.08923 -0.612008,0.165472 -0.926534,0.209555 -0.103739,0.01501 -0.207394,0.02984 -0.311736,0.04007 -0.02093,0.0021 -0.04193,0.0036 -0.0629,0.0053 -0.01143,8.7e-4 -0.0342,-0.0089 -0.03432,0.0025 -6.3e-5,0.01148 0.02285,0.0021 0.03427,0.0032 -0.618804,-0.06543 -0.711344,0.809685 -0.09254,0.875121 z" />
  <path
     style="fill:#000000;fill-opacity:1;fill-rule:nonzero;stroke:none;stroke-width:0.264583"
     id="path24"
     d="m 88.814033,17.242356 c 0.12709,0.06144 0.266376,0.09494 0.406841,0.106812 0.05068,0.0043 0.101613,0.004 0.152421,0.006 0.345885,-0.0052 0.684069,-0.09553 0.993507,-0.249201 0.08568,-0.04255 0.167438,-0.0926 0.251158,-0.138896 0.583129,-0.373127 1.0815,-0.857577 1.571197,-1.34243 0.527538,-0.545926 1.006427,-1.135876 1.476449,-1.731207 0.502262,-0.633796 0.978978,-1.28703 1.441083,-1.950493 0.402548,-0.582647 0.77551,-1.184746 1.147048,-1.787383 0.18959,-0.310868 0.09722,-0.158637 0.277187,-0.45664 0.321655,-0.532619 -0.431652,-0.987513 -0.753307,-0.454844 v 0 c -0.177228,0.293498 -0.08627,0.143574 -0.272965,0.449717 -0.362938,0.588711 -0.727048,1.177037 -1.120126,1.746328 -0.451909,0.649131 -0.918365,1.288076 -1.409651,1.908121 -0.447769,0.567353 -0.903609,1.129842 -1.404998,1.65124 -0.433619,0.429693 -0.872972,0.860395 -1.382869,1.200386 -0.05937,0.03408 -0.117404,0.07062 -0.178127,0.102226 -0.189728,0.09877 -0.397169,0.163622 -0.611442,0.173456 -0.05196,-7.8e-5 -0.103283,0.0016 -0.15426,-0.01 -0.0092,-0.0021 -0.01815,-0.0053 -0.02727,-0.0078 -0.002,-5.74e-4 -0.0084,-0.0028 -0.0065,-0.0016 0.007,0.0045 0.01477,0.0077 0.02215,0.01162 -0.547769,-0.295212 -0.965263,0.479448 -0.417494,0.774661 z" />
  <path
     style="fill:#000000;fill-opacity:1;fill-rule:nonzero;stroke:none;stroke-width:0.264583"
     id="path25"
     d="m 95.950575,9.730407 c 0.162808,0.122213 0.334969,0.231491 0.504839,0.343518 0.378156,0.257473 0.750997,0.522688 1.125706,0.785155 0.488525,0.342352 0.974338,0.688538 1.46421,1.028966 0.386139,0.268082 0.774795,0.532493 1.15587,0.80778 0.23479,0.16954 0.46995,0.338525 0.70357,0.509652 0.10845,0.0813 0.21874,0.160031 0.33029,0.237 0.51236,0.353115 1.01174,-0.371467 0.49938,-0.724582 v 0 c -0.1047,-0.07205 -0.20794,-0.146158 -0.30968,-0.222355 -0.23522,-0.172281 -0.47195,-0.342452 -0.70835,-0.513125 -0.38546,-0.278301 -0.778278,-0.546056 -1.168908,-0.81702 C 99.058519,10.825611 98.573636,10.480004 98.085987,10.138309 97.704549,9.871128 97.32507,9.601056 96.939889,9.339294 96.79363,9.242844 96.64607,9.148089 96.503677,9.045953 96.019696,8.65485 95.466593,9.339303 95.950575,9.730407 Z" />
  <path
     style="fill:#000000;fill-opacity:1;fill-rule:nonzero;stroke:none;stroke-width:0.264583"
     id="path26"
     d="m 95.157009,11.651521 c 0.149234,0.0907 0.281084,0.20659 0.414025,0.318959 0.288263,0.241116 0.552502,0.507941 0.804917,0.785786 0.248513,0.2734 0.470762,0.567947 0.673309,0.87649 0.156723,0.241208 0.290521,0.496021 0.415236,0.754907 0.06216,0.134851 0.03264,0.06872 0.08881,0.1983 0.248092,0.570657 1.055125,0.219798 0.80703,-0.350857 v 0 c -0.06631,-0.152152 -0.03192,-0.0755 -0.103299,-0.229906 -0.141937,-0.293677 -0.294273,-0.582645 -0.472633,-0.856142 -0.09232,-0.140026 -0.126403,-0.195186 -0.225992,-0.331983 -0.165241,-0.226976 -0.345964,-0.442469 -0.531504,-0.652971 -0.278764,-0.306079 -0.570369,-0.600224 -0.888292,-0.86612 -0.169722,-0.143056 -0.339507,-0.288335 -0.530858,-0.402257 -0.534429,-0.318728 -0.985175,0.437067 -0.450749,0.755794 z" />
  <path
     style="fill:#000000;fill-opacity:1;fill-rule:nonzero;stroke:none;stroke-width:0.264583"
     id="path27"
     d="m 99.300634,11.286224 c 0.106192,-0.189535 0.222003,-0.374201 0.337193,-0.55855 0.206039,-0.313674 0.399993,-0.634733 0.594563,-0.955532 0.0992,-0.169945 0.20208,-0.337236 0.30911,-0.502342 0.33838,-0.522208 -0.40014,-1.000744 -0.738515,-0.478535 v 0 c -0.111716,0.172483 -0.219407,0.347129 -0.323053,0.52459 -0.192489,0.317498 -0.384515,0.635149 -0.588428,0.945552 -0.142483,0.228108 -0.290586,0.455202 -0.407716,0.69746 -0.231477,0.577597 0.585369,0.904954 0.816846,0.327357 z" />
  <path
     style="fill:#000000;fill-opacity:1;fill-rule:nonzero;stroke:none;stroke-width:0.264583"
     id="path28"
     d="m 54.426625,36.384188 c -0.0019,0.148725 0.0024,0.297305 0.01077,0.445773 0.01392,0.233865 0.03461,0.467204 0.05802,0.700281 0.02627,0.217522 0.06254,0.433731 0.108611,0.647901 0.006,0.02784 0.01204,0.05567 0.01807,0.0835 0.131623,0.608174 0.991712,0.422031 0.860087,-0.186142 v 0 c -0.006,-0.02764 -0.01196,-0.05529 -0.01794,-0.08293 -0.03937,-0.181928 -0.06993,-0.365628 -0.09323,-0.550323 -0.0222,-0.220721 -0.04189,-0.441677 -0.05508,-0.663144 -0.0079,-0.131508 -0.01072,-0.26317 -0.0093,-0.39492 0,-0.622252 -0.880001,-0.622252 -0.880001,0 z" />
</svg>
