<?xml version="1.0" encoding="UTF-8" standalone="no"?>
<!-- Created with Inkscape (http://www.inkscape.org/) -->

<svg
   width="108.07253mm"
   height="73.169365mm"
   viewBox="0 0 108.07253 73.169365"
   version="1.1"
   id="svg8"
   inkscape:version="1.3 (0e150ed6c4, 2023-07-21)"
   sodipodi:docname="2 jan li lukin e soweli..svg"
   xmlns:inkscape="http://www.inkscape.org/namespaces/inkscape"
   xmlns:sodipodi="http://sodipodi.sourceforge.net/DTD/sodipodi-0.dtd"
   xmlns="http://www.w3.org/2000/svg"
   xmlns:svg="http://www.w3.org/2000/svg"
   xmlns:rdf="http://www.w3.org/1999/02/22-rdf-syntax-ns#"
   xmlns:cc="http://creativecommons.org/ns#"
   xmlns:dc="http://purl.org/dc/elements/1.1/">
  <defs
     id="defs2" />
  <sodipodi:namedview
     id="base"
     pagecolor="#ffffff"
     bordercolor="#666666"
     borderopacity="1.0"
     inkscape:pageopacity="0.0"
     inkscape:pageshadow="2"
     inkscape:zoom="1.4134057"
     inkscape:cx="163.08127"
     inkscape:cy="175.46271"
     inkscape:document-units="mm"
     inkscape:current-layer="layer1"
     showgrid="false"
     fit-margin-top="0"
     fit-margin-left="0"
     fit-margin-right="0"
     fit-margin-bottom="0"
     inkscape:window-width="1920"
     inkscape:window-height="1051"
     inkscape:window-x="-9"
     inkscape:window-y="-9"
     inkscape:window-maximized="1"
     inkscape:showpageshadow="2"
     inkscape:pagecheckerboard="0"
     inkscape:deskcolor="#d1d1d1" />
  <metadata
     id="metadata5">
    <rdf:RDF>
      <cc:Work
         rdf:about="">
        <dc:format>image/svg+xml</dc:format>
        <dc:type
           rdf:resource="http://purl.org/dc/dcmitype/StillImage" />
        <dc:title />
      </cc:Work>
    </rdf:RDF>
  </metadata>
  <g
     inkscape:label="Layer 1"
     inkscape:groupmode="layer"
     id="layer1"
     transform="translate(-102.67978,-89.839171)">
    <g
       id="g853"
       transform="matrix(0.26458333,0,0,0.26458333,130.58631,85.060605)">
      <path
         id="path815"
         d="m 13.4,105 c 0,0 1,9.1 1.3,12.3 0.3,3.2 1.3,5.5 2.1,7.3 0.8,1.8 4.5,6.2 5,5.9 0.5,-0.3 -0.3,-2.1 -0.3,-2.5 0,-0.4 0.4,-1.7 -0.2,-2.5 -0.6,-0.7 -1.7,-4 -1.6,-4.7 0.1,-0.7 1.4,-0.9 1.5,-1.4 0.1,-0.5 0.1,-0.5 0.1,-0.5 0,0 -3.6,-6 -3.6,-8.6 0,-2.7 -0.1,-6.1 -0.1,-6.1 0,0 -0.6,-0.3 -2,0 -1.4,0.2 -2.2,0.8 -2.2,0.8 z"
         inkscape:connector-curvature="0"
         style="fill:#fbd7c7" />
      <path
         id="path817"
         d="m 28.1,216.9 c 0.6,1.8 -6.7,11.8 7.1,13.5 20.6,2.7 21.6,-13.7 29.3,-18.2 13.9,-8.1 -3.1,-14.1 -22.5,-14.1 -16.3,0.1 -30.5,1.9 -29.4,10.1 0.7,6.1 14.6,5.6 15.5,8.7 z"
         inkscape:connector-curvature="0"
         style="opacity:0.3;fill:#262626" />
      <path
         id="path819"
         d="m 34,200.2 c 0,0 -1.6,1.2 -5.5,1.1 -3.9,-0.1 -7.3,-0.8 -11.4,1.5 -4.8,2.7 -1.2,7 0.1,7.4 1.3,0.4 18.1,0.9 21.2,0.7 3.1,-0.2 2.1,-8.2 2.1,-8.2 z"
         inkscape:connector-curvature="0"
         style="fill:#762c07" />
      <path
         id="path821"
         d="m 39.4,209.1 c -1.5,0.1 -9,0.6 -13.5,0.5 -5,-0.1 -6.4,-0.5 -7.8,-1 -1.7,-0.6 -3.2,-1.4 -3.3,-3.1 -0.5,2.2 0.9,4.1 2.5,4.6 1.5,0.5 3.3,0.9 8.6,1.1 4.2,0.1 11.3,-0.3 12.6,-0.4 0.8,-0.1 1.4,-0.7 1.7,-1.6 -0.4,0.3 -0.5,-0.1 -0.8,-0.1 z"
         inkscape:connector-curvature="0"
         style="fill:#262626" />
      <path
         id="path823"
         d="m 39.7,211 c 0,0 -3.9,4.4 -6.6,7.6 -2.7,3.2 -3.8,5.6 -3.6,7.9 0.2,2.3 3.5,3.4 8,3.4 4.5,0 9.3,-2.8 11.5,-5.9 2.3,-3.1 5.6,-5.9 5.6,-7.4 0,-1.5 -0.1,-6.2 -0.1,-6.2 z"
         inkscape:connector-curvature="0"
         style="fill:#762c07" />
      <path
         id="path825"
         d="m 54.6,210.4 h -0.5 c 0,1.5 0.1,3.3 0.1,4.1 0,1.5 -3.4,4.3 -5.6,7.4 -2.3,3.1 -7,5.9 -11.5,5.9 -3.5,0 -6.3,-0.6 -7.4,-2 0,0.2 0,0.4 0,0.6 0.1,2.3 3.5,3.4 8,3.4 4.6,0 9.3,-2.8 11.5,-5.9 2.3,-3.1 5.6,-5.9 5.6,-7.4 -0.1,-1.4 -0.2,-6.1 -0.2,-6.1 z"
         inkscape:connector-curvature="0"
         style="fill:#262626" />
      <path
         id="path827"
         d="m 19.7,114.3 c 0,0 -0.5,13 1.6,23.9 2.1,10.9 9.5,26.4 9.5,31.1 0,4.7 2.3,19 2.1,22.8 -0.1,3.8 -0.9,8.6 -0.9,8.6 0,0 2.7,5 6.2,6.7 3.5,1.7 7.2,-0.4 7.2,-0.4 L 39,116.5 Z"
         inkscape:connector-curvature="0"
         style="fill:#3399cc" />
      <path
         id="path829"
         d="m 19.7,114.3 c 0,0 -0.5,13 1.6,23.9 2.1,10.9 9.5,26.4 9.5,31.1 0,4.7 2.3,19 2.1,22.8 -0.1,3.8 -0.9,8.6 -0.9,8.6 0,0 2.7,5 6.2,6.7 3.5,1.7 7.2,-0.4 7.2,-0.4 L 39,116.5 Z"
         inkscape:connector-curvature="0"
         style="opacity:0.2" />
      <path
         id="path831"
         d="m 31.1,119.4 c 0,0 0.3,14.3 -0.3,25.6 -0.5,11.3 2.3,21.7 3.4,25.3 1.1,3.6 1.5,9.7 1.5,15.2 0,5.5 0.2,26.2 1,27 0.8,0.8 5.2,3.6 10.9,4 4.3,0.3 9,-2.4 9,-3.1 0,-0.7 1.5,-16.4 0.3,-29.1 -1.2,-12.7 -3.8,-19.3 -3.6,-21.3 0.1,-2 3.1,-29.1 2.8,-34.7 -0.3,-5.6 -2,-18.4 -2,-18.4 z"
         inkscape:connector-curvature="0"
         style="fill:#3399cc" />
      <path
         id="path833"
         d="m 17.9,69.4 c 0,0 -2.2,7.4 -3.6,17.6 -1.5,10.7 -0.7,25.3 -0.7,25.3 0,0 2.1,-1.6 6.2,-1.6 4.1,0 -1.9,-41.3 -1.9,-41.3 z"
         inkscape:connector-curvature="0"
         style="fill:#ffcc00" />
      <path
         id="path835"
         d="m 17.9,69.4 c 0,0 -2.2,7.4 -3.6,17.6 -1.5,10.7 -0.7,25.3 -0.7,25.3 0,0 2.1,-1.6 6.2,-1.6 4.1,0 -1.9,-41.3 -1.9,-41.3 z"
         inkscape:connector-curvature="0"
         style="opacity:0.2" />
      <path
         id="path837"
         d="m 51.5,127 c 0,0 -0.4,2.9 -2.3,5.1 -1.9,2.1 -3.5,5.8 -3.5,7.3 0,2.1 0,3.9 0.9,4 1.8,0.2 1.1,-1.3 1.7,-1.3 0.6,0 0.3,2.6 3,2.7 3.5,0.1 8.5,-2.3 8.5,-4.6 0,-1.2 -0.5,-4.4 -0.9,-6.2 -0.5,-1.9 -0.5,-4.5 -0.5,-4.5 z"
         inkscape:connector-curvature="0"
         style="fill:#fbd7c7" />
      <path
         id="path839"
         d="m 38.8,44 c 9.5,2.5 20.1,4.6 23.7,12.3 3.1,6.6 2.9,8.7 2.7,14.9 -0.3,6.2 -0.8,18.5 -0.5,22.5 0.3,4 -1.1,20.8 -2.3,26.4 -1.2,5.6 -1.6,10.3 -2.5,10.6 -0.9,0.3 -10.2,-0.9 -9.5,-2.3 0.9,-2 1.2,-7.6 1.2,-7.6 0,0 -4.4,5.4 -14.2,4 -9.8,-1.3 -18.2,-6.1 -19.1,-8.6 -0.4,-1.2 -0.6,-19.8 0.3,-24.8 0.9,-5 -2,-15.7 -2.1,-20.4 -0.1,-4.7 2.9,-17.4 3.1,-19.7 0.1,-3.4 4.2,-11.2 19.2,-7.3 z"
         inkscape:connector-curvature="0"
         style="fill:#ffcc00" />
      <path
         id="path841"
         d="m 51.5,120.9 c 0,0 0.7,-5.2 0.7,-9.8 0,-4.6 0.1,-11.3 -0.4,-13.9 C 51.3,94.5 49.6,85 49.3,82.5 48.6,76.4 49,72.7 49.5,71.4 c -2.4,4.1 -1,19 -0.3,25.2 0.9,8.7 -0.3,25.8 -0.6,26.6 -0.3,0.7 2.9,-2.3 2.9,-2.3 z"
         inkscape:connector-curvature="0"
         style="opacity:0.2" />
      <path
         id="path843"
         d="m 42.5,38.2 c 0,0 0,5.2 0.9,6.1 0.9,0.9 3,1.3 2.3,2.6 -0.7,1.3 -8.1,9.7 -13.5,9.2 -5.3,-0.5 -4,-9.4 -4,-9.4 z"
         inkscape:connector-curvature="0"
         style="fill:#fbd7c7" />
      <path
         id="path845"
         d="m 22.8,26.5 c -2.2,2.8 -1.3,11 -0.3,14.7 1,3.7 2.2,5.9 2.7,7.3 0.4,1.4 1.9,3.6 3.9,3.5 2,-0.1 8.2,-4.1 10.1,-7.1 C 41,41.9 43.6,39 44,37 44.4,35 44.6,34.1 42.9,33.7 41.2,33.3 37.6,25.9 33,25.6 28.4,25.3 24.1,24.8 22.8,26.5 Z"
         inkscape:connector-curvature="0"
         style="fill:#fbd7c7" />
      <path
         id="path847"
         d="m 21.5,28.4 c -0.4,1.6 0.8,3.3 5.5,3.3 4.7,0 7.6,-2.3 8.1,-0.8 0.5,1.5 1.8,5.7 2.2,6.6 0.4,0.9 1,2 1.3,1.6 0.3,-0.4 1.8,-3.9 2.9,-4.7 1.1,-0.8 1.7,-0.8 1.7,-0.8 0,0 1.6,-8.3 -2,-12.6 C 37.6,16.7 25,15.6 21.5,28.4 Z"
         inkscape:connector-curvature="0"
         style="fill:#825012" />
      <path
         id="path849"
         d="m 25,46.6 c 0,0 0.7,-0.7 1.6,-0.8 0.4,0 1.3,0.1 1.9,0.2 0.8,0.2 2.7,1.1 2.7,1.1 0,0 -2.8,0 -3.7,-0.1 C 26.4,46.9 25,46.6 25,46.6 Z"
         inkscape:connector-curvature="0"
         style="fill:#825012" />
      <path
         id="path851"
         d="m 26.8,49 1.2,0.1 c 0,0 -0.2,0.6 0.6,1.3 0.8,0.7 2.9,0.8 2.9,0.8 0,0 -1.7,1.3 -3.2,0.9 -1.5,-0.4 -2.3,-1.8 -2.3,-1.8 0,0 0.5,-0.1 0.6,-0.5 0.2,-0.4 0.2,-0.8 0.2,-0.8 z"
         inkscape:connector-curvature="0"
         style="fill:#825012" />
    </g>
    <g
       id="g910"
       transform="matrix(0.26458333,0,0,0.26458333,95.060583,123.56398)">
      <path
         id="path882"
         d="m 103.2,117 c 12.7,8.2 34.5,15.5 14.8,27.5 -18.4,11.2 -39.2,-0.4 -49.5,-10.6 -20.7,-20.6 -56.1,-20.3 -31.1,-23.8 1.9,-0.3 15.8,0 29.6,2 14.3,2 32.4,2.4 36.2,4.9 z"
         inkscape:connector-curvature="0"
         style="opacity:0.2" />
      <path
         id="path884"
         d="m 96.1,110.4 c 0,0 2,4.7 1.9,6.2 -0.1,1.5 -0.8,3.5 0.1,4.3 0.9,0.7 7.8,5.2 9.1,7.1 1.3,1.9 2,5.2 6.6,3 4.6,-2.2 3.1,-5.5 0.9,-6.4 -2.1,-0.9 -6.5,-1.7 -8.8,-3.9 -2.3,-2.2 -3.2,-2.9 -1.2,-6.3 2,-3.4 2.9,-6.1 2.9,-6.1 z"
         inkscape:connector-curvature="0"
         style="fill:#825012" />
      <path
         id="path886"
         d="m 96.1,110.4 c 0,0 2,4.7 1.9,6.2 -0.1,1.5 -0.8,3.5 0.1,4.3 0.9,0.7 7.8,5.2 9.1,7.1 1.3,1.9 2,5.2 6.6,3 4.6,-2.2 3.1,-5.5 0.9,-6.4 -2.1,-0.9 -6.5,-1.7 -8.8,-3.9 -2.3,-2.2 -3.2,-2.9 -1.2,-6.3 2,-3.4 2.9,-6.1 2.9,-6.1 z"
         inkscape:connector-curvature="0"
         style="opacity:0.2" />
      <path
         id="path888"
         d="m 86.8,47.8 c 0.8,-1.5 2.6,-3.6 5.5,-5 2.9,-1.4 5,-1.9 5,-1.9 0,0 1.7,-3.1 5.5,-1.8 3.8,1.3 7.5,8.5 8.4,11.6 0.9,3.1 2.2,8.7 1,9.4 -1.2,0.7 -3,-2.1 -3,-2.1 0,0 1,4.5 1.8,7.3 0.7,2.8 -0.1,7.7 0.7,9.3 0.7,1.6 4.2,7.5 3.8,13.7 -0.4,6.2 -2.8,12.2 -2.9,14.8 -0.1,2.6 3.4,16.8 4,17.9 0.6,1.1 0.2,4.4 1.2,6.4 1,2 8.7,3.9 6.2,7.8 -2.4,3.9 -9.3,2 -10.3,-0.2 -1,-2.2 0.1,-4.6 -1.1,-8.8 -1.2,-4.2 -6.7,-15.8 -6.7,-15.8 0,0 -2,0.6 -4.8,0.9 -2.9,0.4 -5.9,3.9 -4.9,9.7 1,5.8 2,8 2.6,9.4 0.6,1.4 0.2,4.6 1.1,6.4 0.9,1.9 7.2,4.2 4.8,7.3 -2.4,3.1 -7.5,3.2 -10.2,0.6 -2.7,-2.6 -0.4,-3.8 -2.2,-10.2 -1.9,-6.4 -4,-13.8 -4,-13.8 l -6.3,1.5 -4.4,9.3 c 0,0 3.8,2.8 5.7,3.9 1.9,1.1 5.7,0.2 7,1.9 1.3,1.7 1.8,5.5 -2.2,7 -4,1.5 -6.3,-3.4 -7.7,-4.5 -1.4,-1 -7,-3.3 -8.5,-5 -1.5,-1.7 -0.2,-5.8 -0.2,-5.8 0,0 -5.9,-0.6 -8.8,-4.4 -2.9,-3.8 -2.5,-4.6 -3.7,-5.5 -1.2,-0.9 -3.1,-1.7 -8.8,-1.1 -5.7,0.6 -12.7,-1.8 -15.7,-5.2 -3.1,-3.4 -3.7,-11.3 -2.9,-12 0.8,-0.7 2.2,4.5 3.8,5.7 1.6,1.2 5.3,4.2 9.7,3.8 4.4,-0.4 12.5,-3.6 12.5,-3.6 0,0 4.6,-12.8 10.8,-19.7 6.2,-7 14.6,-11.7 15.9,-16.8 1.1,-5.1 1,-19.9 2.3,-22.4 z"
         inkscape:connector-curvature="0"
         style="fill:#825012" />
      <g
         id="g892">
        <path
           id="path890"
           d="m 84.6,108.1 c 0,0 -1.2,1.6 -4,1.6 -1.5,0 -3.7,-0.2 -5.3,-0.4 0.6,0.1 1.4,0.3 2.2,0.6 2.8,0.9 3.9,2.1 5.1,4.6 1.1,2.5 -0.8,7.7 -0.8,7.7 l 6.3,-1.5 c 0,0 -0.7,-2.1 -1,-3.2 -0.3,-1 -2.6,-6.6 -2.5,-9.4 z"
           inkscape:connector-curvature="0"
           style="opacity:0.2" />
      </g>
      <path
         id="path894"
         d="m 94.9,65.4 c -0.4,-1.5 -1.8,-5.1 -4,-7.5 -1.6,-1.8 -3,-5.8 -3.6,-8.3 l -1.1,0.3 c -0.6,3.7 -0.8,10.7 -1.3,15.8 0.9,0.7 4.2,1.9 5.3,2.5 4.7,2.6 5.5,0.5 4.7,-2.8 z"
         inkscape:connector-curvature="0"
         style="opacity:0.2" />
      <path
         id="path896"
         d="m 93.7,52.8 c 0,0 -0.1,-2.2 0.8,-3.1 0.8,-0.9 2.5,-0.6 1.7,1.3 -0.8,2 -2.5,1.8 -2.5,1.8 z"
         inkscape:connector-curvature="0"
         style="fill:#262626" />
      <path
         id="path898"
         d="m 102.9,45.7 c 0,0 -0.2,-1.1 0.7,-1.5 0.9,-0.3 1.8,1.5 1.8,1.5 z"
         inkscape:connector-curvature="0"
         style="fill:#262626" />
      <path
         id="path900"
         d="m 111.1,53.4 c 0,0 -0.3,-0.6 -1,-0.8 -0.6,-0.2 -1.3,-0.1 -2.1,0.2 l -0.9,-1.8 -0.3,0.2 0.9,1.8 c -1.3,0.7 -1.9,1.5 -2.6,2.5 -0.4,0.6 -0.9,1.3 -1.6,1.9 -1.8,1.8 -2.8,2.1 -2.8,2.1 -0.1,0 -0.1,0.1 -0.1,0.2 0,0.1 0.1,0.1 0.2,0.1 0,0 0,0 0.1,0 0,0 1.1,-0.4 3,-2.2 0.7,-0.7 1.2,-1.4 1.6,-2 0.7,-1 1.3,-1.8 2.6,-2.5 0.8,-0.4 1.4,-0.5 1.9,-0.3 0.6,0.2 0.8,0.6 0.8,0.6 0,0.1 0.2,0.1 0.2,0.1 0.1,0.1 0.1,0 0.1,-0.1 z"
         inkscape:connector-curvature="0"
         style="fill:#262626" />
      <path
         id="path902"
         d="m 87.4,47.1 c -0.8,-0.5 -2.7,0.7 -4.1,3.4 -1.4,2.7 -3.4,7.5 -1.8,9.9 1.6,2.4 4.3,4.5 6.7,5.4 2.3,0.9 5,2.6 5.7,2.1 0.7,-0.5 -1.1,-5.7 -3,-8.4 -1.9,-2.7 -4,-5.8 -4,-5.8 0,0 2.5,-5.3 0.5,-6.6 z"
         inkscape:connector-curvature="0"
         style="fill:#825012" />
      <path
         id="path904"
         d="m 111.1,50.6 c 0.7,1.7 0.5,3.5 -0.1,5.2 -0.6,1.6 -1.7,2.3 -1.7,2.3 v 0.1 c 0.3,0.5 1.8,2.7 2.9,2 1.2,-0.7 -0.1,-6.3 -1,-9.4 -0.9,-3.1 -4.6,-10.2 -8.4,-11.6 -3.5,-1.2 -5.2,1.3 -5.5,1.7 1.6,0 4.4,0.4 5.9,1.9 1.6,1.5 2.6,2.4 3.6,3.8 1,1.4 3.5,2.2 4.3,4 z"
         inkscape:connector-curvature="0"
         style="opacity:0.2" />
      <path
         id="path906"
         d="m 102.6,48.5 c -0.7,1.6 1.8,4 4.3,2.9 2.5,-1.2 1.5,-4 0.7,-4.6 -0.8,-0.7 -4.2,-0.2 -5,1.7 z"
         inkscape:connector-curvature="0"
         style="fill:#262626" />
      <path
         id="path908"
         d="M 112.2,69.8 C 108,70.5 102.9,70.9 97.7,70.6 90,70.3 85.7,69 84,68 c -0.1,0.7 -0.2,1.4 -0.4,2 -0.2,0.6 -0.4,1.3 -0.8,1.9 4,2 10.5,2.6 14.7,2.7 1.1,0 2.2,0.1 3.3,0.1 3.7,0 7.7,-0.2 11.5,-0.9 -0.2,-1 -0.1,-2.5 -0.1,-4 z"
         inkscape:connector-curvature="0"
         style="fill:#262626" />
    </g>
    <path
       style="fill:#000000;fill-opacity:1;fill-rule:nonzero;stroke:none;stroke-width:0.264583"
       d="m 182.18256,147.85316 c -1.6138,-0.004 -3.22763,-0.009 -4.84135,-0.0268 -1.61177,-0.0205 -3.22455,-0.0413 -4.83371,-0.14239 -1.33177,-0.0948 -2.66209,-0.2246 -3.9681,-0.51436 -0.43614,-0.11592 -0.61192,-0.14886 -1.02849,-0.3125 -0.59338,-0.23309 -1.13927,-0.56521 -1.64093,-0.95649 -0.0932,-0.0798 -0.19363,-0.15193 -0.27961,-0.23949 -0.34951,-0.35593 -0.52456,-0.84556 -0.52808,-1.33785 0.008,-0.0874 0.008,-0.17615 0.025,-0.26219 0.0414,-0.20382 0.14636,-0.45439 0.22968,-0.63949 0.18212,-0.40468 0.39639,-0.79554 0.65142,-1.15908 0.0981,-0.12519 0.18949,-0.25602 0.29442,-0.37556 0.56068,-0.63872 1.27389,-1.12903 2.02185,-1.52087 0.15881,-0.0693 0.3147,-0.14562 0.47641,-0.20782 0.58393,-0.22464 1.23452,-0.35067 1.86097,-0.265 0.1457,0.0199 0.28678,0.0653 0.43017,0.0979 0.14373,0.0597 0.29048,0.11266 0.43118,0.17922 0.70647,0.33419 1.32622,0.81643 1.80266,1.43702 0.0556,0.0957 0.11861,0.18751 0.16684,0.28715 0.13568,0.2803 0.12892,0.57523 0.12091,0.8779 0,0.62225 0.88,0.62225 0.88,0 l -1.3e-4,-6e-5 c 0.0134,-0.39656 -0.007,-0.78596 -0.16655,-1.15761 -0.0646,-0.15027 -0.15394,-0.28862 -0.23091,-0.43292 -0.55488,-0.77391 -1.30003,-1.37436 -2.15667,-1.78685 -0.1652,-0.0795 -0.33752,-0.14339 -0.50628,-0.21508 -0.18834,-0.0474 -0.37326,-0.11133 -0.565,-0.14218 -0.78629,-0.12652 -1.59949,0.008 -2.339,0.28344 -0.18809,0.0701 -0.36907,0.15797 -0.5536,0.23695 -0.8515,0.43727 -1.66031,0.99108 -2.29983,1.71113 -0.12658,0.14252 -0.23814,0.29771 -0.35721,0.44656 -0.29563,0.41345 -0.54371,0.85901 -0.75351,1.32154 -0.10137,0.22349 -0.22631,0.52499 -0.27977,0.76723 -0.0299,0.1356 -0.0379,0.27513 -0.0568,0.41268 -0.0198,0.72398 0.21132,1.44174 0.70604,1.98277 0.1189,0.13002 0.25969,0.23818 0.38953,0.35727 0.56893,0.45145 1.1912,0.83333 1.8671,1.10293 0.47894,0.19103 0.66047,0.22431 1.16019,0.35929 1.35973,0.30632 2.74588,0.44306 4.13335,0.54214 1.62626,0.10256 3.25618,0.12378 4.88509,0.14455 1.61676,0.0183 3.23362,0.023 4.85046,0.0269"
       id="path5" />
    <path
       style="fill:#ff4400;fill-opacity:1;fill-rule:nonzero;stroke:none;stroke-width:0.265;stroke-dasharray:none"
       d="m 182.1803,148.73314 c 1.47177,0.003 2.94355,0.004 4.41532,0.004 1.395,0.004 2.79047,7.9e-4 4.18451,-0.0549 1.15902,-0.0627 2.31846,-0.11448 3.47865,-0.14913 1.0003,-0.0281 2.00097,-0.0381 3.00159,-0.0456 0.80614,0.007 1.61201,0.0308 2.41797,0.0485 0.48923,0.0105 0.97852,0.0175 1.46784,0.0223 0.25715,0.002 0.51432,0.004 0.77148,0.004 0.62226,0.002 0.6251,-0.87799 0.003,-0.88 v 0 c -0.25524,-7.9e-4 -0.51049,-0.002 -0.76572,-0.004 -0.48577,-0.005 -0.97151,-0.0117 -1.45719,-0.0221 -0.81458,-0.0178 -1.62909,-0.0422 -2.44387,-0.0487 -1.00717,0.008 -2.01439,0.0178 -3.02124,0.046 -1.16319,0.0348 -2.32565,0.0865 -3.48766,0.14945 -1.38215,0.0557 -2.76578,0.0573 -4.14889,0.0542 -1.47117,-5.3e-4 -2.94235,-0.001 -4.41353,-0.004"
       id="path1"
       sodipodi:nodetypes="ccccccccssscccccc" />
    <path
       style="fill:#ff4400;fill-opacity:1;fill-rule:nonzero;stroke:none;stroke-width:0.265;stroke-dasharray:none"
       d="m 202.18497,126.51067 c -0.0926,1.63907 -0.12575,3.28035 -0.20092,4.92028 -0.10531,2.34829 -0.21175,4.69675 -0.23999,7.04759 -0.0464,1.90021 -0.12945,3.79888 -0.18675,5.69868 -0.0324,1.15675 -0.068,2.31341 -0.0591,3.47085 0.005,0.62224 0.88,0.62226 0.88,0 l 6e-5,-2e-5 c -0.0137,-1.14918 0.0267,-2.29769 0.0588,-3.44623 0.0574,-1.90083 0.14032,-3.80054 0.18683,-5.70178 0.0281,-2.34487 0.13433,-4.68736 0.23937,-7.02968 0.0753,-1.63651 0.10793,-3.2744 0.2004,-4.91005"
       id="path8" />
    <path
       style="fill:#000000;fill-opacity:1;fill-rule:nonzero;stroke:none;stroke-width:0.264583"
       d="m 203.06367,126.56031 c 0.0617,-0.97306 0.11033,-1.94679 0.14076,-2.92131 0.038,-0.78623 0.0696,-1.57269 0.0932,-2.35948 0.008,-0.57988 0.0801,-1.15629 0.12792,-1.73372 0.03,-0.4809 0.0742,-0.9607 0.10599,-1.44147 0.0393,-0.41494 0.0795,-0.82974 0.10786,-1.24561 0.0134,-0.24811 0.007,-0.12553 0.0181,-0.36774 0.0275,-0.62164 -0.85162,-0.66056 -0.87914,-0.0389 v 0 c -0.0101,0.22968 -0.004,0.11403 -0.017,0.34696 -0.0283,0.41644 -0.0694,0.83171 -0.10798,1.24729 -0.0314,0.47591 -0.0753,0.95085 -0.1049,1.42689 -0.049,0.5928 -0.12272,1.18455 -0.13053,1.77989 -0.0236,0.78646 -0.0554,1.57257 -0.0932,2.35847 -0.0301,0.96712 -0.0786,1.93344 -0.13978,2.89909"
       id="path2" />
    <path
       style="fill:#000000;fill-opacity:1;fill-rule:nonzero;stroke:none;stroke-width:0.264583"
       id="path3"
       d="m 203.65674,116.30614 c -0.0116,-0.20172 -0.0135,-0.4039 -0.0166,-0.60589 -0.005,-0.32276 0.006,-0.64552 0.0109,-0.96822 -6e-5,-0.42816 0.0213,-0.85581 0.0373,-1.28356 0.0145,-0.38084 0.0226,-0.76186 0.0282,-1.14292 8e-4,-0.28104 0.0292,-0.56045 0.0591,-0.83954 0.0349,-0.2789 0.11376,-0.54972 0.17792,-0.82279 0.0889,-0.34146 0.20288,-0.67629 0.34953,-0.99722 0.0983,-0.20367 0.20301,-0.40618 0.36142,-0.56977 0.12351,-0.11211 0.26895,-0.19058 0.42214,-0.25358 0.25504,-0.0719 0.51739,-0.11176 0.77911,-0.15005 0.36432,-0.0519 0.73146,-0.0818 1.09931,-0.0883 0.26318,-0.001 0.52748,0.008 0.789,0.0398 0.1631,0.0196 0.20809,0.0319 0.36838,0.0641 0.20171,0.0498 0.4053,0.10675 0.59343,0.19698 0.0626,0.03 0.14131,0.0813 0.19982,0.11765 0.15267,0.11299 0.28246,0.25094 0.3769,0.41647 0.0239,0.0419 0.0438,0.0859 0.0658,0.12887 0.16016,0.33368 0.23428,0.6986 0.31663,1.05696 0.0947,0.4048 0.14937,0.81657 0.18464,1.23027 0.0169,0.26871 0.02,0.54007 -0.007,0.80838 -0.0158,0.15938 -0.032,0.22505 -0.062,0.38275 -0.1018,0.44142 -0.30454,0.84985 -0.51481,1.24806 -0.14893,0.25725 -0.30403,0.51741 -0.50359,0.73974 -0.0829,0.0924 -0.15168,0.1471 -0.24483,0.22798 -0.25613,0.21956 -0.56098,0.36254 -0.86673,0.49815 -0.29708,0.11984 -0.61258,0.1852 -0.92926,0.22609 -0.32027,0.0386 -0.64273,0.047 -0.96493,0.0424 -0.2581,-0.008 -0.51011,-0.0559 -0.75812,-0.12459 -0.18159,-0.0545 -0.3399,-0.15983 -0.48504,-0.27905 -0.11851,-0.0979 -0.21659,-0.21681 -0.32003,-0.32974 -0.0782,-0.0796 -0.15266,-0.16255 -0.21123,-0.25774 -0.0442,-0.0598 -0.065,-0.12556 -0.0798,-0.19699 -0.0301,-0.12707 -0.0429,-0.2571 -0.0669,-0.38544 -0.03,-0.12973 -0.0578,-0.25983 -0.0905,-0.3889 -0.0245,-0.0892 -0.0128,-0.0465 -0.0351,-0.12803 -0.16467,-0.60007 -1.01329,-0.36719 -0.84862,0.23288 v 0 c 0.021,0.0765 0.0108,0.0394 0.0307,0.11121 0.0282,0.1113 0.0517,0.22353 0.0787,0.33516 0.0264,0.13978 0.0389,0.28184 0.0741,0.41996 0.04,0.16762 0.0973,0.32932 0.19524,0.4728 0.0886,0.13698 0.18951,0.26464 0.30513,0.38006 0.13375,0.14542 0.26184,0.29723 0.41725,0.42078 0.24164,0.19156 0.50344,0.35716 0.80319,0.44163 0.32036,0.0874 0.64644,0.1469 0.97941,0.15593 0.3648,0.005 0.7299,-0.005 1.0924,-0.05 0.39987,-0.0542 0.79763,-0.13789 1.17131,-0.29446 0.38683,-0.17264 0.76861,-0.36138 1.09065,-0.64182 0.15172,-0.13505 0.21037,-0.17945 0.34795,-0.33565 0.2352,-0.267 0.42164,-0.57485 0.59747,-0.88248 0.25028,-0.47677 0.48725,-0.96665 0.60116,-1.4965 0.039,-0.21233 0.0546,-0.27149 0.0751,-0.48706 0.0297,-0.31242 0.0256,-0.62807 0.005,-0.94081 -0.0393,-0.45465 -0.0996,-0.90723 -0.20377,-1.35212 -0.0995,-0.43295 -0.19535,-0.87148 -0.39638,-1.27129 -0.0366,-0.0678 -0.0702,-0.13726 -0.10993,-0.20326 -0.16431,-0.27313 -0.38942,-0.50048 -0.65091,-0.681 -0.12882,-0.0781 -0.18057,-0.11384 -0.32127,-0.17967 -0.24196,-0.11321 -0.5021,-0.18613 -0.761,-0.24787 -0.0755,-0.0147 -0.15075,-0.0314 -0.22666,-0.0442 -0.36904,-0.0622 -0.745,-0.0771 -1.11856,-0.0762 -0.40479,0.008 -0.80888,0.0394 -1.20976,0.0975 -0.33561,0.0493 -0.67364,0.10004 -0.99555,0.21079 -0.26552,0.11494 -0.51686,0.25743 -0.72272,0.46449 -0.093,0.10222 -0.11102,0.11613 -0.19291,0.2304 -0.12867,0.17956 -0.22853,0.37769 -0.32553,0.57543 -0.16811,0.3739 -0.30415,0.76146 -0.40462,1.15917 -0.0723,0.30849 -0.16061,0.61455 -0.1962,0.93027 -0.0327,0.30594 -0.0628,0.61233 -0.0639,0.92037 -0.005,0.37434 -0.0134,0.74865 -0.0277,1.12277 -0.0162,0.43402 -0.0377,0.86794 -0.0378,1.30237 -0.005,0.33192 -0.0161,0.66388 -0.0109,0.99586 0.004,0.23385 0.004,0.46826 0.0233,0.70147 0.0772,0.61745 0.95039,0.5083 0.87321,-0.10915 z" />
    <path
       style="fill:#000000;fill-opacity:1;fill-rule:nonzero;stroke:none;stroke-width:0.264583"
       id="path4"
       d="m 209.70632,111.25319 c -0.096,0.026 -0.1939,0.0456 -0.28795,0.0779 -0.27439,0.0942 -0.48182,0.19868 -0.73281,0.34984 -0.26436,0.15921 -0.50748,0.33322 -0.7286,0.55018 -0.11613,0.11394 -0.21588,0.24344 -0.32382,0.36515 -0.095,0.16724 -0.21184,0.32386 -0.2851,0.50171 -0.20524,0.49823 -0.27754,1.02442 -0.29727,1.55979 -0.0287,0.77915 0.0494,1.56963 0.16669,2.33796 0.0678,0.44378 0.16558,0.88245 0.24838,1.32367 0.38643,1.7651 0.96481,3.47778 1.56798,5.17805 0.20807,0.58644 1.03742,0.29219 0.82935,-0.29425 v 0 c -0.58813,-1.65748 -1.15325,-3.32666 -1.53256,-5.04677 -0.0797,-0.42104 -0.1733,-0.83968 -0.23913,-1.2631 -0.11225,-0.72212 -0.18227,-1.41774 -0.16512,-2.14756 0.009,-0.39568 0.0573,-0.84644 0.19446,-1.22682 0.0438,-0.12145 0.11742,-0.22997 0.17612,-0.34496 0.0781,-0.092 0.14953,-0.19002 0.23418,-0.27599 0.18154,-0.18437 0.36054,-0.31078 0.57966,-0.44661 0.2219,-0.13756 0.45548,-0.25439 0.70744,-0.32536 0.6172,-0.0791 0.5053,-0.95199 -0.1119,-0.87286 z" />
    <path
       style="fill:#ff4400;fill-opacity:1;fill-rule:nonzero;stroke:none;stroke-width:0.265;stroke-dasharray:none"
       id="path6"
       d="m 201.94816,133.18755 c -0.42196,0.42877 -0.86584,0.83711 -1.31165,1.24117 -0.34776,0.31421 -0.696,0.62938 -1.02673,0.96174 -0.3039,0.30539 -0.5898,0.62771 -0.87427,0.95099 -0.776,0.90224 -1.57896,1.78042 -2.38616,2.65467 -1.1058,1.16326 -2.23885,2.30151 -3.39748,3.41218 -0.87021,0.83891 -1.74619,1.67252 -2.645,2.48081 -0.53564,0.48516 -1.06442,0.97783 -1.59999,1.46307 -0.24599,0.22841 -0.50333,0.44402 -0.75677,0.66394 -0.0223,0.0187 -0.0436,0.0389 -0.0671,0.0562 -0.0324,0.0239 -0.0696,0.0407 -0.10324,0.063 -0.0808,0.0535 -0.1573,0.11123 -0.23325,0.17138 -0.16575,0.14424 -0.30025,0.31983 -0.43617,0.49144 -0.0643,0.0651 -0.12577,0.13149 -0.19133,0.19506 -0.44659,0.43331 0.16621,1.06488 0.6128,0.63157 v 0 c 0.0933,-0.0906 0.18217,-0.18466 0.26918,-0.28128 0.0938,-0.11925 0.1877,-0.23982 0.29372,-0.3484 0.1395,-0.11199 0.29673,-0.1982 0.43256,-0.31471 0.25771,-0.22429 0.52024,-0.44324 0.77045,-0.67609 0.53474,-0.48458 1.06289,-0.9764 1.59766,-1.46095 0.90547,-0.81483 1.78879,-1.65423 2.6655,-2.49985 1.17125,-1.1233 2.31734,-2.27376 3.43499,-3.45041 0.81198,-0.87947 1.61971,-1.76288 2.40037,-2.67043 0.26846,-0.30537 0.53788,-0.61067 0.82474,-0.89912 0.32415,-0.32593 0.66561,-0.63491 1.0066,-0.9429 0.46567,-0.42242 0.92986,-0.84881 1.36923,-1.29844 0.42048,-0.4587 -0.22822,-1.05334 -0.64869,-0.59464 z" />
    <path
       style="fill:#ff4400;fill-opacity:1;fill-rule:nonzero;stroke:none;stroke-width:0.265;stroke-dasharray:none"
       id="path7"
       d="m 194.13305,145.64643 c 0.80561,-0.63842 1.57992,-1.31346 2.34685,-1.99745 0.95282,-0.87368 1.89825,-1.7553 2.84846,-2.6318 0.20206,-0.18372 0.39623,-0.37585 0.59727,-0.56064 0.45784,-0.42141 -0.13811,-1.06889 -0.59596,-0.64749 v 0 c -0.20105,0.18526 -0.39602,0.37699 -0.59799,0.5613 -0.94656,0.8732 -1.88852,1.75135 -2.83754,2.62191 -0.48444,0.43214 -0.7038,0.63359 -1.18327,1.04106 -0.34406,0.2924 -0.44621,0.36882 -0.77085,0.63411 -0.10659,0.0871 -0.21201,0.17563 -0.31845,0.26291 -0.50635,0.36168 0.005,1.07777 0.51148,0.71609 z" />
  </g>
</svg>
