<?xml version="1.0" encoding="UTF-8" standalone="no"?>
<svg
   width="108.02737mm"
   height="46.625023mm"
   viewBox="0 0 108.02737 46.625023"
   version="1.1"
   id="svg8"
   sodipodi:docname="20 soweli ni li sama soweli ante ala..svg"
   inkscape:version="1.3 (0e150ed6c4, 2023-07-21)"
   xmlns:inkscape="http://www.inkscape.org/namespaces/inkscape"
   xmlns:sodipodi="http://sodipodi.sourceforge.net/DTD/sodipodi-0.dtd"
   xmlns="http://www.w3.org/2000/svg"
   xmlns:svg="http://www.w3.org/2000/svg"
   xmlns:rdf="http://www.w3.org/1999/02/22-rdf-syntax-ns#"
   xmlns:cc="http://creativecommons.org/ns#"
   xmlns:dc="http://purl.org/dc/elements/1.1/">
  <sodipodi:namedview
     pagecolor="#ffffff"
     bordercolor="#666666"
     borderopacity="1"
     objecttolerance="10"
     gridtolerance="10"
     guidetolerance="10"
     inkscape:pageopacity="0"
     inkscape:pageshadow="2"
     inkscape:window-width="1920"
     inkscape:window-height="1051"
     id="namedview52"
     showgrid="false"
     inkscape:zoom="1.8939584"
     inkscape:cx="146.51853"
     inkscape:cy="54.647453"
     inkscape:window-x="-9"
     inkscape:window-y="-9"
     inkscape:window-maximized="1"
     inkscape:current-layer="svg8"
     inkscape:showpageshadow="2"
     inkscape:pagecheckerboard="0"
     inkscape:deskcolor="#d1d1d1"
     inkscape:document-units="mm" />
  <defs
     id="defs2" />
  <metadata
     id="metadata5">
    <rdf:RDF>
      <cc:Work
         rdf:about="">
        <dc:format>image/svg+xml</dc:format>
        <dc:type
           rdf:resource="http://purl.org/dc/dcmitype/StillImage" />
        <dc:title />
      </cc:Work>
    </rdf:RDF>
  </metadata>
  <g
     id="g1583"
     transform="matrix(0.26458333,0,0,0.26458333,71.956155,-5.8726931)">
    <path
       inkscape:connector-curvature="0"
       id="path1569"
       d="m 62.1,135.1 c -14.4,-6 -36.2,-15.3 -15.8,-27.7 19,-11.6 37.8,3.8 51.2,10.9 7.8,4.2 9.6,15.7 16.9,21.5 11.1,8.9 22.6,14.6 19.8,15.5 -5.8,1.9 -10.9,-6.7 -28.3,-11.1 -16.4,-4.1 -26.5,-1.8 -43.8,-9.1 z"
       style="opacity:0.2" />
    <path
       inkscape:connector-curvature="0"
       id="path1571"
       d="m 61,25.1 c 0,-1.2 -0.7,-3 -3.4,-2.9 C 55,22.4 55,26.5 55,26.5 Z"
       style="fill:#262626" />
    <path
       inkscape:connector-curvature="0"
       id="path1573"
       d="m 65.7,30.6 c -1.2,-0.5 -3,-5.7 -5.1,-6.2 -2.1,-0.4 -6.2,0.8 -7.5,4 -1.3,3.2 2,9.5 1.6,15.4 -0.4,5.9 -1.5,8.5 -2.2,13.6 -0.7,5.1 -1,8.7 -1,8.7 0,0 -5,4.7 -4,13.5 1,8.7 4.8,12.4 2.8,20.1 -2.1,7.7 -4.5,11.3 -4.5,12 0,0.7 0.3,2 -1.1,2.1 -1.3,0.1 -4.5,-0.3 -5.3,2.7 -0.8,2.9 3.1,5.8 6.2,5.4 3,-0.4 7.8,-12.4 9.7,-15.6 1.9,-3.2 3.2,-9.4 4.7,-8.9 1.5,0.4 4.4,9.2 4.4,9.2 0,0 -2.5,-1 -5.4,1.2 -2.9,2.1 -3,8.1 -2.7,10.6 0.4,2.5 1.1,5.4 1.1,5.4 0,0 -1.8,-0.5 -3.2,-1.9 -1.4,-1.3 -4.2,-2 -5.8,0.1 -1.6,2.1 -1.5,4.5 2.4,5.9 3.9,1.4 9.3,4.5 11.5,3.8 2.2,-0.6 1.8,-9.1 1.8,-9.1 0,0 3.7,10.1 10.7,11.5 5.7,1.2 11.9,0.4 11.9,0.4 0,0 7.4,0.6 11.1,2 3.7,1.4 6.9,6 14.7,8.9 4.6,1.7 11.2,6.1 15.2,7.7 4,1.6 7.7,1.8 8.4,1 1.5,-1.7 -4.6,-3 -8.8,-6 -5.4,-3.8 -10,-8.6 -13.5,-12.8 -4.6,-5.4 -11.2,-10.8 -11.2,-10.8 0,0 2.8,-3.7 -0.2,-11.7 -2.9,-7.9 -7.2,-16.4 -9.2,-22.3 -2,-5.9 -9,-15 -10.1,-18.1 C 82,69.3 78.5,65 77.2,60.9 75.9,56.8 76,49.6 76,49.6 c 0,0 2,2.1 3.6,0.8 1.6,-1.3 1.2,-5.4 0,-8.7 -1.2,-3.2 -1.2,-4.4 -2.6,-4.9 -1.3,-0.5 -1.8,-0.2 -2.9,-1.2 -1.2,-1 -4.4,-5.3 -5.7,-5.4 -1.4,-0.1 -2.7,0.4 -2.7,0.4 z"
       style="fill:#825012" />
    <path
       inkscape:connector-curvature="0"
       id="path1575"
       d="m 54.5,39.8 c 0.2,1.3 0.3,2.7 0.2,4 -0.3,5.4 -1.3,8.1 -2.1,12.5 2.6,-0.1 6.6,-1.2 10,-2.9 4.9,-2.5 4.5,-10.8 4.5,-10.8 l -5,-6.1 c -1.7,0.2 -4.7,1.3 -7.6,3.3 z"
       style="opacity:0.2" />
    <path
       inkscape:connector-curvature="0"
       id="path1577"
       d="m 62.3,36.1 c -2.7,0.2 -7.2,5.3 -8.3,6.9 -1.1,1.6 -5.3,8 -2.5,10.7 2.8,2.7 10,-1.2 12.6,-2 2.6,-0.8 7,-4.1 6.9,-6.3 -0.2,-2.3 -3.1,-9.8 -8.7,-9.3 z"
       style="fill:#825012" />
    <path
       inkscape:connector-curvature="0"
       id="path1579"
       d="m 60.2,32.3 c -0.7,0.2 -2.1,1.2 -2.3,1.5 -0.4,0.6 -0.1,1.5 -0.1,1.5 0,0 -1,-1.2 -0.2,-1.9 0.8,-0.7 2.6,-1.1 2.6,-1.1 z"
       style="opacity:0.2" />
    <path
       inkscape:connector-curvature="0"
       id="path1581"
       d="m 76.9,56.3 c -4.6,2.1 -12,3.7 -19.7,4.2 -2.2,0.1 -4.2,0.2 -5.9,0.1 -0.2,1.7 -0.4,3.1 -0.5,4.1 0.6,0 1.2,0 1.8,0 1.7,0 3.4,-0.1 4.8,-0.2 6.2,-0.4 14.3,-1.7 20.1,-4.1 -0.3,-1.1 -0.5,-2.6 -0.6,-4.1 z"
       style="fill:#262626" />
  </g>
  <g
     id="g989"
     transform="matrix(0.26458333,0,0,0.26458333,53.170738,-1.7451881)">
    <path
       inkscape:connector-curvature="0"
       id="path961"
       d="m 103.2,117 c 12.7,8.2 34.5,15.5 14.8,27.5 -18.4,11.2 -39.2,-0.4 -49.5,-10.6 -20.7,-20.6 -56.1,-20.3 -31.1,-23.8 1.9,-0.3 15.8,0 29.6,2 14.3,2 32.4,2.4 36.2,4.9 z"
       style="opacity:0.2" />
    <path
       inkscape:connector-curvature="0"
       id="path963"
       d="m 96.1,110.4 c 0,0 2,4.7 1.9,6.2 -0.1,1.5 -0.8,3.5 0.1,4.3 0.9,0.7 7.8,5.2 9.1,7.1 1.3,1.9 2,5.2 6.6,3 4.6,-2.2 3.1,-5.5 0.9,-6.4 -2.1,-0.9 -6.5,-1.7 -8.8,-3.9 -2.3,-2.2 -3.2,-2.9 -1.2,-6.3 2,-3.4 2.9,-6.1 2.9,-6.1 z"
       style="opacity:1;fill:#f8ebcb" />
    <path
       inkscape:connector-curvature="0"
       id="path965"
       d="m 96.1,110.4 c 0,0 2,4.7 1.9,6.2 -0.1,1.5 -0.8,3.5 0.1,4.3 0.9,0.7 7.8,5.2 9.1,7.1 1.3,1.9 2,5.2 6.6,3 4.6,-2.2 3.1,-5.5 0.9,-6.4 -2.1,-0.9 -6.5,-1.7 -8.8,-3.9 -2.3,-2.2 -3.2,-2.9 -1.2,-6.3 2,-3.4 2.9,-6.1 2.9,-6.1 z"
       style="opacity:0.2" />
    <path
       inkscape:connector-curvature="0"
       id="path967"
       d="m 86.8,47.8 c 0.8,-1.5 2.6,-3.6 5.5,-5 2.9,-1.4 5,-1.9 5,-1.9 0,0 1.7,-3.1 5.5,-1.8 3.8,1.3 7.5,8.5 8.4,11.6 0.9,3.1 2.2,8.7 1,9.4 -1.2,0.7 -3,-2.1 -3,-2.1 0,0 1,4.5 1.8,7.3 0.7,2.8 -0.1,7.7 0.7,9.3 0.7,1.6 4.2,7.5 3.8,13.7 -0.4,6.2 -2.8,12.2 -2.9,14.8 -0.1,2.6 3.4,16.8 4,17.9 0.6,1.1 0.2,4.4 1.2,6.4 1,2 8.7,3.9 6.2,7.8 -2.4,3.9 -9.3,2 -10.3,-0.2 -1,-2.2 0.1,-4.6 -1.1,-8.8 -1.2,-4.2 -6.7,-15.8 -6.7,-15.8 0,0 -2,0.6 -4.8,0.9 -2.9,0.4 -5.9,3.9 -4.9,9.7 1,5.8 2,8 2.6,9.4 0.6,1.4 0.2,4.6 1.1,6.4 0.9,1.9 7.2,4.2 4.8,7.3 -2.4,3.1 -7.5,3.2 -10.2,0.6 -2.7,-2.6 -0.4,-3.8 -2.2,-10.2 -1.9,-6.4 -4,-13.8 -4,-13.8 l -6.3,1.5 -4.4,9.3 c 0,0 3.8,2.8 5.7,3.9 1.9,1.1 5.7,0.2 7,1.9 1.3,1.7 1.8,5.5 -2.2,7 -4,1.5 -6.3,-3.4 -7.7,-4.5 -1.4,-1 -7,-3.3 -8.5,-5 -1.5,-1.7 -0.2,-5.8 -0.2,-5.8 0,0 -5.9,-0.6 -8.8,-4.4 -2.9,-3.8 -2.5,-4.6 -3.7,-5.5 -1.2,-0.9 -3.1,-1.7 -8.8,-1.1 -5.7,0.6 -12.7,-1.8 -15.7,-5.2 -3.1,-3.4 -3.7,-11.3 -2.9,-12 0.8,-0.7 2.2,4.5 3.8,5.7 1.6,1.2 5.3,4.2 9.7,3.8 4.4,-0.4 12.5,-3.6 12.5,-3.6 0,0 4.6,-12.8 10.8,-19.7 6.2,-7 14.6,-11.7 15.9,-16.8 1.1,-5.1 1,-19.9 2.3,-22.4 z"
       style="opacity:1;fill:#f8ebcb" />
    <g
       id="g971">
      <path
         inkscape:connector-curvature="0"
         id="path969"
         d="m 84.6,108.1 c 0,0 -1.2,1.6 -4,1.6 -1.5,0 -3.7,-0.2 -5.3,-0.4 0.6,0.1 1.4,0.3 2.2,0.6 2.8,0.9 3.9,2.1 5.1,4.6 1.1,2.5 -0.8,7.7 -0.8,7.7 l 6.3,-1.5 c 0,0 -0.7,-2.1 -1,-3.2 -0.3,-1 -2.6,-6.6 -2.5,-9.4 z"
         style="opacity:0.2" />
    </g>
    <path
       inkscape:connector-curvature="0"
       id="path973"
       d="m 94.9,65.4 c -0.4,-1.5 -1.8,-5.1 -4,-7.5 -1.6,-1.8 -3,-5.8 -3.6,-8.3 l -1.1,0.3 c -0.6,3.7 -0.8,10.7 -1.3,15.8 0.9,0.7 4.2,1.9 5.3,2.5 4.7,2.6 5.5,0.5 4.7,-2.8 z"
       style="opacity:0.2" />
    <path
       inkscape:connector-curvature="0"
       id="path975"
       d="m 93.7,52.8 c 0,0 -0.1,-2.2 0.8,-3.1 0.8,-0.9 2.5,-0.6 1.7,1.3 -0.8,2 -2.5,1.8 -2.5,1.8 z"
       style="opacity:1;fill:#262626" />
    <path
       inkscape:connector-curvature="0"
       id="path977"
       d="m 102.9,45.7 c 0,0 -0.2,-1.1 0.7,-1.5 0.9,-0.3 1.8,1.5 1.8,1.5 z"
       style="opacity:1;fill:#262626" />
    <path
       inkscape:connector-curvature="0"
       id="path979"
       d="m 111.1,53.4 c 0,0 -0.3,-0.6 -1,-0.8 -0.6,-0.2 -1.3,-0.1 -2.1,0.2 l -0.9,-1.8 -0.3,0.2 0.9,1.8 c -1.3,0.7 -1.9,1.5 -2.6,2.5 -0.4,0.6 -0.9,1.3 -1.6,1.9 -1.8,1.8 -2.8,2.1 -2.8,2.1 -0.1,0 -0.1,0.1 -0.1,0.2 0,0.1 0.1,0.1 0.2,0.1 0,0 0,0 0.1,0 0,0 1.1,-0.4 3,-2.2 0.7,-0.7 1.2,-1.4 1.6,-2 0.7,-1 1.3,-1.8 2.6,-2.5 0.8,-0.4 1.4,-0.5 1.9,-0.3 0.6,0.2 0.8,0.6 0.8,0.6 0,0.1 0.2,0.1 0.2,0.1 0.1,0.1 0.1,0 0.1,-0.1 z"
       style="opacity:1;fill:#262626" />
    <path
       inkscape:connector-curvature="0"
       id="path981"
       d="m 87.4,47.1 c -0.8,-0.5 -2.7,0.7 -4.1,3.4 -1.4,2.7 -3.4,7.5 -1.8,9.9 1.6,2.4 4.3,4.5 6.7,5.4 2.3,0.9 5,2.6 5.7,2.1 0.7,-0.5 -1.1,-5.7 -3,-8.4 -1.9,-2.7 -4,-5.8 -4,-5.8 0,0 2.5,-5.3 0.5,-6.6 z"
       style="opacity:1;fill:#f8ebcb" />
    <path
       inkscape:connector-curvature="0"
       id="path983"
       d="m 111.1,50.6 c 0.7,1.7 0.5,3.5 -0.1,5.2 -0.6,1.6 -1.7,2.3 -1.7,2.3 v 0.1 c 0.3,0.5 1.8,2.7 2.9,2 1.2,-0.7 -0.1,-6.3 -1,-9.4 -0.9,-3.1 -4.6,-10.2 -8.4,-11.6 -3.5,-1.2 -5.2,1.3 -5.5,1.7 1.6,0 4.4,0.4 5.9,1.9 1.6,1.5 2.6,2.4 3.6,3.8 1,1.4 3.5,2.2 4.3,4 z"
       style="opacity:0.2" />
    <path
       inkscape:connector-curvature="0"
       id="path985"
       d="m 102.6,48.5 c -0.7,1.6 1.8,4 4.3,2.9 2.5,-1.2 1.5,-4 0.7,-4.6 -0.8,-0.7 -4.2,-0.2 -5,1.7 z"
       style="opacity:1;fill:#262626" />
    <path
       inkscape:connector-curvature="0"
       id="path987"
       d="M 112.2,69.8 C 108,70.5 102.9,70.9 97.7,70.6 90,70.3 85.7,69 84,68 c -0.1,0.7 -0.2,1.4 -0.4,2 -0.2,0.6 -0.4,1.3 -0.8,1.9 4,2 10.5,2.6 14.7,2.7 1.1,0 2.2,0.1 3.3,0.1 3.7,0 7.7,-0.2 11.5,-0.9 -0.2,-1 -0.1,-2.5 -0.1,-4 z"
       style="opacity:1;fill:#262626" />
  </g>
  <g
     transform="matrix(0.26458333,0,0,0.26458333,69.283863,7.0654319)"
     id="g1375">
    <path
       inkscape:connector-curvature="0"
       style="opacity:0.2"
       d="m 63.6,114.3 c -14.1,9.1 -38.5,17.2 -16.5,30.7 20.5,12.5 40.7,-4.1 55.2,-11.8 21.3,-11.3 32.2,-21.2 19.2,-29.4 -13.4,-8.4 -49.5,5.1 -57.9,10.5 z"
       id="path1357" />
    <path
       inkscape:connector-curvature="0"
       style="opacity:1;fill:#baa794"
       d="m 88.4,90.5 c 0,0 8.9,2.3 8.9,4.9 0,1.4 0,5.8 0,7 0,2.2 -4.6,3.8 -4.6,6 0,2.9 5.7,4.7 7.3,4.3 1.6,-0.4 2.5,-1.2 2.5,-4 0,-2.8 1,-14.5 1.4,-18.1 0.4,-3.6 -1.1,-14.8 -1.1,-14.8 z"
       id="path1359" />
    <path
       inkscape:connector-curvature="0"
       style="opacity:0.2"
       d="m 88.4,90.5 c 0,0 8.9,2.3 8.9,4.9 0,1.4 0,5.8 0,7 0,2.2 -4.6,3.8 -4.6,6 0,2.9 5.7,4.7 7.3,4.3 1.6,-0.4 2.5,-1.2 2.5,-4 0,-2.8 1,-14.5 1.4,-18.1 0.4,-3.6 -1.1,-14.8 -1.1,-14.8 z"
       id="path1361" />
    <path
       inkscape:connector-curvature="0"
       style="opacity:1;fill:#baa794"
       d="m 21.6,54.3 c 1.6,-0.6 7.9,-2.8 8,-4 0.1,-1.2 0,-3.1 1.5,-3.8 1.5,-0.7 2.8,-4.2 4.6,-4.5 1.8,-0.4 2.8,0.1 6.3,1.2 3.5,1.1 7.7,3.4 10.4,5.3 2.8,2 4.1,4 5.9,6.7 1.8,2.7 2.4,3.5 2.1,4.2 -0.3,0.7 -0.8,0.3 -0.4,1.5 0.6,1.6 0.9,3.7 3,4.3 7.1,1.9 23.5,-9.6 27.8,-10.9 10.1,-3.3 19.9,1.8 25,6 3.3,2.7 6.5,10.1 8.9,14.9 2.4,4.8 6.7,5.4 6.3,7.5 -0.2,0.9 -1.5,1.5 -4.1,0.5 -3.3,-1.3 -10.5,-9.4 -10.5,-9.4 0,0 1,3 -0.5,7 -1.5,4 -3.8,10.5 -1.7,12.7 2,2.1 4.6,4.5 4.9,6.7 0.3,2.2 1.2,18.2 1.2,19 0,0.8 -0.5,2.3 -2,2.8 -4.5,1.5 -10.1,-1.7 -9.3,-4.5 0.8,-2.8 4,-2.1 4,-6.3 0,-1.5 -0.4,-6 -0.7,-6.9 -0.4,-1.2 -1.7,-2.4 -3.3,-3 -1.4,-0.5 -7.3,-3.8 -8.5,-7.5 -1.2,-3.7 -1.7,-7.9 -3.7,-8.2 -2,-0.6 -8.8,10.6 -14.5,14.4 -5.7,3.8 -9.5,4.1 -9.5,4.1 0,0 -1.1,18.6 -1.1,22.2 0,3.6 2.6,7.4 3,9.8 0.4,2.5 1,6.8 -2.1,8.8 -3.7,2.4 -8.4,0.2 -9.5,-1.1 -1,-1.3 -1.2,-3.7 0.4,-5.2 1.5,-1.5 3.3,-2.7 2.8,-3.4 -0.5,-0.7 -2.5,-4.1 -2.9,-6.2 -0.5,-3.3 -1,-17.2 -4.9,-19.6 -1.2,-0.7 -4.1,-1.1 -4.9,0.1 -0.8,1.3 -0.7,8.7 -0.7,9.9 0,1.9 2.8,6 2.8,9.3 0,3.3 -1.2,5.1 -4.1,6.1 -2.3,0.8 -5.4,0.2 -7.7,-2.7 -1.5,-1.9 -0.3,-4 1.2,-4.9 1,-0.6 2.3,-0.8 2.4,-2.1 0.1,-1.3 -1.8,-3.2 -1.8,-5.6 0,-2.4 -1,-12 -1,-13.2 0,-3.9 -6.4,-7.6 -8.8,-15.6 C 34.7,86.8 35.6,82.3 35.3,79 35.3,76.8 34.8,67.8 31,67 29.6,66.7 23.4,66.8 21.7,64.9 20.4,63.5 19.6,61.6 20,59.4 c 0.4,-2.3 1.6,-5.1 1.6,-5.1 z"
       id="path1363" />
    <path
       inkscape:connector-curvature="0"
       style="opacity:1;fill:#262626"
       d="m 41.3,56.5 c 0,0 -0.7,-1.9 -2.4,-2.9 -1.6,-0.9 -3.2,0.9 -1.2,2.4 1.8,1.4 3.6,0.5 3.6,0.5 z"
       id="path1365" />
    <path
       inkscape:connector-curvature="0"
       style="opacity:1;fill:#262626"
       d="m 25.7,57.1 c 0.2,-1.8 -1,-2.7 -3.3,-3.2 -1.4,-0.3 -3,0.5 -3,2.3 0,2.5 2.1,4.4 2.1,4.4 0,0 3.8,0 4.2,-3.5 z"
       id="path1367" />
    <path
       inkscape:connector-curvature="0"
       style="opacity:1;fill:#262626"
       d="m 29.8,48.5 c 0,0 1.2,0.6 0.3,1.5 -0.8,1.1 -0.3,-1.5 -0.3,-1.5 z"
       id="path1369" />
    <path
       inkscape:connector-curvature="0"
       style="opacity:1;fill:#262626"
       d="m 34.6,73.3 c 0,0 2.8,1.6 7.3,1.6 4.5,0 8.4,-1.8 10.6,-3.9 2.2,-2.1 8.1,-8.5 8.1,-8.5 l 2,2.1 c 0,0 -7,8.9 -10,10.7 -3.1,1.8 -6.3,3.4 -10.8,3.3 -4.5,-0.1 -6.6,-1.5 -6.6,-1.5 z"
       id="path1371" />
    <path
       inkscape:connector-curvature="0"
       style="opacity:0.2"
       d="m 46.7,54.8 c 0,0 -4.9,18.4 0.8,18.2 2.9,-0.1 12.3,-13.1 12.3,-13.1 0,0 -5.6,16.4 -13.4,16.5 -7.7,0.1 0.3,-21.6 0.3,-21.6 z"
       id="path1373" />
  </g>
  <g
     id="g1624"
     transform="matrix(0.26458333,0,0,0.26458333,47.110752,6.9016019)">
    <path
       inkscape:connector-curvature="0"
       id="path1600"
       d="m 54.4,127.4 c 9.1,5.9 23.5,12.9 10.6,19.8 C 51.3,154.5 33.1,145.9 26.3,138 17.2,127.5 6.9,124 2.4,122.8 c -3.7,-1 -3.8,-3.1 4.4,-1.8 1.4,0.2 11.6,1.5 21.6,2.9 10.2,1.4 23.2,1.7 26,3.5 z"
       style="opacity:0.2" />
    <path
       inkscape:connector-curvature="0"
       id="path1602"
       d="m 46.3,127.9 c 0,0 0.8,2.9 2.8,4.1 2,1.2 6.1,3.4 6.5,4.3 0.4,0.9 1.4,3 3.5,2.6 2.1,-0.4 4.8,-2.2 4.1,-3.5 -0.7,-1.3 -1.7,-0.9 -3.8,-1.4 -2.1,-0.5 -5.2,-2.4 -6,-3.7 -0.9,-1.3 -1.7,-4 -1.7,-4 z"
       style="fill:#999999" />
    <path
       inkscape:connector-curvature="0"
       id="path1604"
       d="m 46.3,127.9 c 0,0 0.8,2.9 2.8,4.1 2,1.2 6.1,3.4 6.5,4.3 0.4,0.9 1.4,3 3.5,2.6 2.1,-0.4 4.8,-2.2 4.1,-3.5 -0.7,-1.3 -1.7,-0.9 -3.8,-1.4 -2.1,-0.5 -5.2,-2.4 -6,-3.7 -0.9,-1.3 -1.7,-4 -1.7,-4 z"
       style="opacity:0.2" />
    <path
       inkscape:connector-curvature="0"
       id="path1606"
       d="m 19.4,120.4 c 0,0 -8.5,-1.5 -12,-8.3 C 4,105.3 5.4,99.8 4.5,98.2 3.6,96.6 1.4,97 0.9,98.8 c -0.5,1.8 -1.2,13.5 4.9,19.8 6.3,6.3 13.8,7.8 13.8,7.8 0,0 1.8,6.3 5.5,8 3.7,1.7 5.1,0.5 5.1,0.5 0,0 -0.9,2 -0.2,3.1 0.7,1 8.4,3.1 9.5,4 1.1,1 2.1,3.8 4.9,2.8 2.8,-1 3.7,-2.1 3,-3.4 -0.7,-1.3 -2.6,-1.8 -4,-1.9 -1.4,-0.1 -6.5,-2.5 -6.5,-2.5 0,0 2.2,-2.1 2.7,-3.7 0.5,-1.6 0.3,-2.7 0.3,-2.7 l 6.9,-2.6 c 0,0 1.2,5.4 1.5,9.2 0.3,3.8 0.5,5.6 0.9,7.4 0.4,1.9 0.2,4.3 3.3,4 3.1,-0.3 4.3,-1.1 3.9,-2.3 -0.4,-1.2 -2.4,-2.4 -2.8,-4.6 -0.4,-2.1 0.1,-12.9 0.4,-14 0.2,-1.1 2.5,-7.1 2.5,-7.1 l 2.5,-0.5 c 0,0 1.1,7.8 1.5,11.3 0.4,3.5 0.7,9.2 0.7,10.4 0,1.2 0.7,2.6 2.2,2.7 1.5,0.2 4.6,-0.8 4.5,-2.1 -0.1,-1.3 -2.3,-3.1 -2.5,-4.6 -0.2,-1.5 -0.5,-14.8 0.9,-19.4 1.4,-4.6 2.4,-7.1 2.4,-7.1 L 60,91.5 c 0,0 -3.5,0.8 -7.9,0.7 -4.5,-0.1 -17.8,-0.1 -25.4,9.5 -7.8,9.7 -7.3,18.7 -7.3,18.7 z"
       style="fill:#999999" />
    <path
       inkscape:connector-curvature="0"
       id="path1608"
       d="m 56.3,120.7 c 0,0 2.5,-2.1 2.7,-4.9 0.2,-2.8 1.8,-5.1 3.2,-6 1.4,-1 6.2,-3.4 6.2,-3.4 0,0 1.3,4.3 -0.5,7.3 -1.8,3 -4.8,5.4 -7.3,6.2 -2.5,0.8 -4.3,0.8 -4.3,0.8 z"
       style="fill:#e5e5e5" />
    <path
       inkscape:connector-curvature="0"
       id="path1610"
       d="m 46.8,128 c 0,0 -0.7,-3.1 -1,-5.4 -0.2,-2.4 -0.9,-6 -0.9,-6 0,0 -0.9,2.1 -2.8,3 -1.9,0.9 -3.7,1.3 -5.3,0.6 -1.6,-0.7 -5.4,-2.7 -5.4,-2.7 0,0 5.7,3.8 6.8,6.9 1.2,3.1 1.6,6.3 1.6,6.3 z"
       style="opacity:0.2" />
    <path
       inkscape:connector-curvature="0"
       id="path1612"
       d="m 58.2,96 c 0,0 -0.5,2.8 0.7,5.7 1.3,2.9 4,5.2 5.4,6.9 1.3,1.6 2.8,3.2 5.8,2.9 3,-0.4 3.2,-1.9 4.1,-3.1 0.9,-1.2 4.1,-5.7 4.6,-8.7 0.5,-3.1 0.1,-5.3 0.1,-5.3 0,0 2.1,-7.3 0.5,-8.2 -1.6,-0.9 -3.2,2.7 -5.1,2.9 -2,0.2 -2.9,-0.3 -5.1,-0.2 -2.2,0.1 -5.7,1 -5.7,1 0,0 -3.3,-3.4 -5.3,-2.7 -2.4,0.9 0,8.8 0,8.8 z"
       style="fill:#999999" />
    <path
       inkscape:connector-curvature="0"
       id="path1614"
       d="m 69.7,110.5 c -0.6,0 -1.7,-1 -1.6,-1.5 0.1,-0.5 2.9,-0.5 3.1,0.1 0.2,0.5 -0.9,1.4 -1.5,1.4 z"
       style="fill:#2d3134" />
    <path
       inkscape:connector-curvature="0"
       id="path1616"
       d="m 72,104.4 c 0,0 0.3,-1.8 1.8,-2.4 1.5,-0.6 2.1,-0.3 2.1,-0.3 0,0 -0.3,1.7 -1.5,2.3 -1.1,0.6 -2.4,0.4 -2.4,0.4 z"
       style="fill:#2d3134" />
    <path
       inkscape:connector-curvature="0"
       id="path1618"
       d="m 67.3,104.4 c 0,0 -0.6,-1.8 -2,-2.3 -1.4,-0.5 -2.4,0 -2.4,0 0,0 0.2,1.5 1.4,2 1.2,0.5 3,0.3 3,0.3 z"
       style="fill:#2d3134" />
    <path
       inkscape:connector-curvature="0"
       id="path1620"
       d="m 72.9,93.3 c 0,0 4.8,-7.5 6.4,-6.9 1.2,0.4 -0.4,8 -0.4,8 0,0 -1.3,-1.2 -3,-1.5 -1.6,-0.3 -3,0.4 -3,0.4 z"
       style="opacity:0.2" />
    <path
       inkscape:connector-curvature="0"
       id="path1622"
       d="m 65.2,93.2 c 0,0 -5.3,-6.3 -6.9,-5.8 -2.2,0.7 -0.1,8.6 -0.1,8.6 0,0 1.6,-2.1 2.9,-2.6 1.3,-0.5 4.1,-0.2 4.1,-0.2 z"
       style="opacity:0.2" />
  </g>
  <path
     style="fill:#000000;fill-opacity:1;fill-rule:nonzero;stroke:none;stroke-width:0.264583"
     id="path1"
     d="m 55.985932,30.014414 c -0.257851,0.08844 -0.500169,0.2163 -0.745657,0.333653 -0.252827,0.130141 -0.51051,0.250666 -0.763594,0.380188 -0.03775,0.01979 -0.07551,0.03957 -0.113263,0.05935 -0.55113,0.288888 -0.142583,1.068303 0.408547,0.779415 v 0 c 0.0356,-0.01865 0.0712,-0.03733 0.106806,-0.056 0.24518,-0.126524 0.496165,-0.241803 0.741064,-0.369017 0.21259,-0.10164 0.422253,-0.213431 0.644377,-0.292751 0.590322,-0.196773 0.312042,-1.031616 -0.27828,-0.83484 z" />
  <path
     style="fill:#000000;fill-opacity:1;fill-rule:nonzero;stroke:none;stroke-width:0.264583"
     id="path2"
     d="m 52.73419,32.280991 c -0.08309,0.117287 -0.171087,0.230905 -0.260401,0.34357 -0.109785,0.137604 -0.20276,0.287004 -0.301336,0.432514 -0.09359,0.138353 -0.167062,0.288346 -0.244609,0.435864 -0.06538,0.126328 -0.130906,0.252505 -0.198465,0.37769 -0.01185,0.02286 -0.0237,0.04575 -0.03554,0.06863 -0.285667,0.552805 0.496118,0.956799 0.781785,0.403995 v 0 c 0.0094,-0.01823 0.0188,-0.03647 0.02819,-0.05471 0.06912,-0.128106 0.136149,-0.257223 0.203117,-0.386435 0.0622,-0.118568 0.120293,-0.239487 0.194079,-0.351472 0.0864,-0.127535 0.167354,-0.258765 0.262794,-0.379929 0.08445,-0.106836 0.170548,-0.213272 0.246419,-0.326355 0.398357,-0.478028 -0.277677,-1.04139 -0.676035,-0.563362 z" />
  <path
     style="fill:#000000;fill-opacity:1;fill-rule:nonzero;stroke:none;stroke-width:0.264583"
     id="path3"
     d="m 50.797883,34.923896 c -0.06761,0 -0.0053,5.29e-4 -0.0055,-0.0011 -0.0015,-0.01466 -0.02965,-0.0047 -0.04262,-0.01164 -0.0017,-7.94e-4 0.005,-5.3e-4 0.0053,-0.0024 3.97e-4,-0.0024 -0.0026,-0.0044 -0.0039,-0.0066 -0.08781,-0.05893 -0.142529,-0.144829 -0.202649,-0.229189 -0.09253,-0.138615 -0.171619,-0.285443 -0.261133,-0.425899 -0.01499,-0.02281 -0.02999,-0.0456 -0.04498,-0.0684 -0.34205,-0.519809 -1.077171,-0.03608 -0.735121,0.483732 v 0 c 0.01346,0.02045 0.02693,0.0409 0.04039,0.06135 0.09903,0.15078 0.179503,0.313504 0.284646,0.460549 0.133071,0.186103 0.278396,0.36063 0.477792,0.479441 0.151606,0.08168 0.312219,0.144076 0.487719,0.140134 0.622254,0 0.622254,-0.880002 0,-0.880002 z" />
  <path
     style="fill:#000000;fill-opacity:1;fill-rule:nonzero;stroke:none;stroke-width:0.264583"
     id="path4"
     d="m 49.940512,32.494198 c 9.52e-4,0.0019 0.0031,0.0079 0.0028,0.0058 -0.0096,-0.09725 -0.03514,-0.194916 -0.05723,-0.289742 -0.06257,-0.274508 -0.206613,-0.505429 -0.385732,-0.71805 -0.405166,-0.472274 -1.073059,0.100718 -0.667893,0.572989 v 0 c 0.09224,0.103881 0.166011,0.208111 0.197053,0.346768 0.02862,0.119698 0.04258,0.242025 0.07612,0.360527 0.196774,0.590322 1.031616,0.312042 0.834842,-0.278281 z" />
  <path
     style="fill:#000000;fill-opacity:1;fill-rule:nonzero;stroke:none;stroke-width:0.264583"
     id="path5"
     d="m 46.996786,31.051623 c -0.222743,0.09293 -0.402475,0.255479 -0.571592,0.423334 -0.140879,0.140112 -0.254257,0.303977 -0.365207,0.467884 -0.347874,0.515929 0.38176,1.007898 0.729635,0.491968 v 0 c 0.07929,-0.118197 0.159028,-0.237759 0.259515,-0.339291 0.05247,-0.05394 0.106663,-0.107108 0.165297,-0.154463 0.01618,-0.01307 0.0333,-0.02495 0.05031,-0.03693 0.01192,-0.0084 0.02911,-0.01156 0.03647,-0.02416 0.0045,-0.0078 -0.01743,0.0043 -0.02615,0.0065 0.590322,-0.196774 0.312042,-1.031616 -0.27828,-0.83484 z" />
  <path
     style="fill:#000000;fill-opacity:1;fill-rule:nonzero;stroke:none;stroke-width:0.264583"
     id="path6"
     d="m 45.432849,34.201946 c 0,0.122883 0,0.245768 0,0.368651 0,0.152067 0,0.304134 0,0.4562 0,0.622255 0.88,0.622255 0.88,0 v 0 c 0,-0.152066 0,-0.304133 0,-0.4562 0,-0.122883 0,-0.245768 0,-0.368651 0,-0.622255 -0.88,-0.622255 -0.88,0 z" />
  <path
     style="fill:#000000;fill-opacity:1;fill-rule:nonzero;stroke:none;stroke-width:0.264583"
     id="path7"
     d="m 45.798752,37.227411 c 0.04833,0.166801 0.111004,0.328859 0.16553,0.49366 0.05363,0.163827 0.09027,0.332356 0.122817,0.501409 0.02044,0.114541 0.0087,0.05391 0.03599,0.181761 0.131644,0.608168 0.991725,0.421994 0.860081,-0.186174 v 0 c -0.0222,-0.100627 -0.01123,-0.0465 -0.03205,-0.16255 -0.03997,-0.206182 -0.08566,-0.411522 -0.151495,-0.61123 -0.04775,-0.143917 -0.100374,-0.286096 -0.147142,-0.430307 -0.150919,-0.603676 -1.004645,-0.390245 -0.853726,0.213431 z" />
  <path
     style="fill:#000000;fill-opacity:1;fill-rule:nonzero;stroke:none;stroke-width:0.264583"
     id="path8"
     d="m 47.503898,40.088589 c 0.185392,0.179689 0.391106,0.336478 0.586888,0.50446 0.134665,0.117445 0.06579,0.05847 0.206714,0.176823 0.476722,0.399921 1.042295,-0.274264 0.565574,-0.674187 v 0 c -0.130049,-0.108953 -0.0635,-0.05215 -0.199439,-0.170654 -0.170016,-0.145719 -0.345742,-0.284564 -0.51311,-0.433326 -0.422063,-0.457235 -1.06869,0.139649 -0.646627,0.596884 z" />
  <path
     style="fill:#000000;fill-opacity:1;fill-rule:nonzero;stroke:none;stroke-width:0.264583"
     id="path11"
     d="m 42.21133,31.922986 c 0.240063,0.219379 0.475517,0.443881 0.704282,0.675008 0.166624,0.176323 0.317172,0.370853 0.426223,0.588507 0.07099,0.141698 0.09952,0.227851 0.156889,0.377579 0.151893,0.420262 0.249406,0.857758 0.285176,1.302859 0.02029,0.504915 -0.095,0.998241 -0.234486,1.479523 -0.07875,0.241798 -0.176712,0.478634 -0.30926,0.696429 -0.158602,0.260606 -0.358794,0.491487 -0.555195,0.723405 -0.386272,0.439795 -0.818535,0.834996 -1.249068,1.230328 -0.05591,0.05012 -0.111828,0.100235 -0.167742,0.150352 -0.463306,0.415388 0.124142,1.070602 0.587448,0.655212 v 0 c 0.0585,-0.05247 0.11701,-0.104937 0.175516,-0.157403 0.457869,-0.420513 0.916799,-0.841719 1.32622,-1.310762 0.181279,-0.215255 0.295268,-0.34162 0.458586,-0.571794 0.254417,-0.358566 0.450668,-0.751528 0.579162,-1.172361 0.167523,-0.585546 0.299548,-1.185693 0.265514,-1.799129 -0.0086,-0.09385 -0.01395,-0.188055 -0.02586,-0.281543 -0.05497,-0.431361 -0.172443,-0.853771 -0.315535,-1.263272 -0.07973,-0.203668 -0.111316,-0.300448 -0.212646,-0.494866 -0.14825,-0.284435 -0.345159,-0.540949 -0.565927,-0.772546 -0.245838,-0.247724 -0.497916,-0.489355 -0.756597,-0.723673 -0.472451,-0.404958 -1.045147,0.263189 -0.572697,0.668147 z" />
  <path
     style="fill:#000000;fill-opacity:1;fill-rule:nonzero;stroke:none;stroke-width:0.264583"
     id="path12"
     d="m 41.411471,33.790606 c 0.0645,0.05026 0.113214,0.113871 0.160926,0.179297 0.09962,0.167791 0.164497,0.35142 0.224732,0.536012 0.06428,0.207428 0.08296,0.422026 0.06847,0.637712 -0.01128,0.237474 -0.09264,0.454408 -0.198651,0.663913 -0.131913,0.247619 -0.319779,0.449991 -0.518912,0.643718 -0.135655,0.125262 -0.273687,0.247685 -0.416925,0.364189 -0.482045,0.393488 0.07443,1.0752 0.556476,0.681712 v 0 c 0.162858,-0.133331 0.320976,-0.27206 0.474768,-0.415811 0.276032,-0.269632 0.51188,-0.538441 0.693033,-0.882957 0.155583,-0.318267 0.27232,-0.650103 0.288951,-1.007687 0.01477,-0.32475 -0.01017,-0.647769 -0.111057,-0.959091 -0.09002,-0.273216 -0.191751,-0.544486 -0.353246,-0.784815 -0.09383,-0.125865 -0.19485,-0.245763 -0.318837,-0.343357 -0.485899,-0.388721 -1.03563,0.298444 -0.549732,0.687165 z" />
  <path
     style="fill:#000000;fill-opacity:1;fill-rule:nonzero;stroke:none;stroke-width:0.264583"
     id="path13"
     d="m 42.096002,35.011195 c -0.233094,-0.04085 -0.466842,-0.07645 -0.699272,-0.121185 -0.681844,-0.140496 -1.364638,-0.276256 -2.046236,-0.417994 -1.383197,-0.305625 -2.76889,-0.599686 -4.155822,-0.887825 -1.614516,-0.331859 -3.226103,-0.67769 -4.842972,-0.997976 -1.480283,-0.287028 -2.964662,-0.552244 -4.447927,-0.823262 -1.209001,-0.216657 -2.412357,-0.463338 -3.613758,-0.718386 -0.925765,-0.20379 -1.851027,-0.409826 -2.777249,-0.611553 -0.662017,-0.146087 -1.324168,-0.291592 -1.986793,-0.43489 -0.527794,-0.112721 -1.058053,-0.213471 -1.58741,-0.318513 -0.07609,-0.01469 -0.15217,-0.02938 -0.228256,-0.04406 -0.610976,-0.117928 -0.777751,0.746125 -0.166775,0.864052 v 0 c 0.07459,0.01439 0.149172,0.02879 0.223758,0.04318 0.524444,0.104055 1.049777,0.20388 1.572689,0.315463 0.662207,0.143184 1.323924,0.288636 1.985518,0.434612 0.927732,0.202049 1.854493,0.408467 2.781779,0.612526 1.209569,0.256768 2.421112,0.505085 3.638325,0.723236 1.478987,0.270238 2.959086,0.534689 4.435113,0.820822 1.614204,0.319718 3.223101,0.665102 4.834961,0.996353 1.386883,0.28812 2.772508,0.58225 4.155669,0.887793 0.686047,0.142642 1.373278,0.27936 2.05959,0.420664 0.239509,0.04581 0.48022,0.08311 0.720397,0.12497 0.613788,0.102299 0.758459,-0.765728 0.144671,-0.868026 z" />
  <path
     style="fill:#000000;fill-opacity:1;fill-rule:nonzero;stroke:none;stroke-width:0.264583"
     id="path14"
     d="m 16.514661,26.658035 c 0.156276,0.06394 0.323681,0.09628 0.488477,0.13004 0.310573,0.05555 0.623199,0.09898 0.936146,0.138673 0.438483,0.05491 0.879649,0.081 1.32076,0.103161 0.451482,0.02058 0.903539,0.0393 1.355574,0.02751 0.09507,-0.0024 0.190061,-0.0075 0.285092,-0.01122 0.480843,-0.02821 0.961094,-0.06803 1.440429,-0.11534 0.619235,-0.06122 0.532656,-0.93695 -0.08658,-0.87573 v 0 c -0.46221,0.04577 -0.925341,0.08391 -1.388976,0.111772 -0.520587,0.02112 -1.041221,0.01387 -1.56145,-0.01587 -0.418893,-0.02098 -0.837861,-0.04533 -1.254281,-0.09729 -0.291222,-0.03683 -0.582078,-0.07741 -0.871265,-0.127982 -0.10273,-0.02072 -0.206179,-0.04159 -0.306525,-0.07186 -0.568621,-0.252721 -0.926023,0.551433 -0.357402,0.804153 z" />
  <path
     style="fill:#000000;fill-opacity:1;fill-rule:nonzero;stroke:none;stroke-width:0.264583"
     id="path15"
     d="m 24.33178,25.631253 c -0.118888,-0.0045 -0.216806,0.02819 -0.318278,0.09012 -0.03113,0.019 -0.05662,0.04599 -0.08493,0.06898 -0.0752,0.08109 -0.15274,0.171933 -0.187346,0.279667 -0.01524,0.04743 -0.03463,0.09615 -0.03232,0.14591 0.0041,0.08774 0.03406,0.172326 0.0511,0.258489 0.0585,0.06447 0.107671,0.138832 0.175491,0.19341 0.04176,0.03361 0.09604,0.04835 0.146694,0.06588 0.09053,0.03132 0.209854,0.03209 0.303237,0.01482 0.03332,-0.0062 0.06551,-0.01738 0.09826,-0.02609 0.03223,-0.01455 0.06553,-0.02692 0.09669,-0.04364 0.144342,-0.07741 0.251951,-0.216591 0.284283,-0.378246 0.0091,-0.04537 0.0063,-0.09231 0.0095,-0.138467 -0.0106,-0.05031 -0.01249,-0.103282 -0.0318,-0.150935 -0.05262,-0.129858 -0.133192,-0.223386 -0.262972,-0.284618 -0.06087,-0.02872 -0.129823,-0.03794 -0.196683,-0.04566 -0.09124,-0.01054 -0.16408,0.02269 -0.24866,0.04902 -0.02848,0.01545 -0.0582,0.02882 -0.08545,0.04636 -0.134158,0.08631 -0.233257,0.228293 -0.242022,0.393374 -0.0041,0.07724 0.01462,0.155798 0.04161,0.228286 0.01989,0.05341 0.06403,0.0943 0.09605,0.141454 0.03874,0.03026 0.07288,0.06757 0.116216,0.09077 0.180197,0.09648 0.391822,0.09189 0.562652,-0.02257 0.04012,-0.02688 0.0726,-0.06372 0.108897,-0.09558 0.03354,-0.06038 0.07944,-0.115391 0.100633,-0.181127 0.05794,-0.1797 -7.68e-4,-0.387742 -0.140096,-0.513237 -0.116286,-0.104744 -0.160613,-0.09624 -0.306101,-0.130817 -0.04596,0.003 -0.09246,0.0013 -0.137881,0.009 -0.117648,0.01976 -0.232552,0.08866 -0.312978,0.175313 -0.0199,0.02144 -0.03681,0.04548 -0.05521,0.06823 -0.02518,0.05819 -0.06383,0.11226 -0.07555,0.174576 -0.04945,0.263109 0.08678,0.470655 0.336786,0.556039 0.135969,0.04644 0.212113,0.0059 0.335654,-0.03016 0.07622,-0.04399 0.09151,-0.0465 0.154907,-0.107997 0.01941,-0.01884 0.03545,-0.04086 0.05317,-0.06129 0.378279,-0.494071 -0.320441,-1.029038 -0.69872,-0.534969 v 0 c 0.03869,-0.04147 0.07818,-0.07911 0.132609,-0.09962 0.09863,-0.02425 0.160664,-0.05309 0.267419,-0.01116 0.212677,0.08352 0.326034,0.262588 0.274918,0.490113 -0.01127,0.05015 -0.04477,0.09253 -0.06715,0.138795 -0.08627,0.09514 -0.154995,0.11345 -0.285804,0.109724 -0.107791,-0.03149 -0.140479,-0.02683 -0.224442,-0.109897 -0.10218,-0.101094 -0.138446,-0.265341 -0.08662,-0.400151 0.01919,-0.04991 0.05703,-0.09048 0.08554,-0.135722 0.06301,-0.04836 0.07389,-0.0667 0.151332,-0.08778 0.09836,-0.02678 0.196542,-0.0042 0.282784,0.04815 0.02826,0.01716 0.04968,0.04364 0.07452,0.06546 0.02182,0.03608 0.05317,0.0679 0.06547,0.10823 0.01888,0.06189 0.03248,0.127944 0.02623,0.192352 -0.01254,0.129253 -0.09072,0.24927 -0.209979,0.297815 -0.04446,0.01043 -0.09189,0.0274 -0.138926,0.01773 -0.04845,-0.0099 -0.09886,-0.01868 -0.142109,-0.04267 -0.09456,-0.05243 -0.14873,-0.121575 -0.182709,-0.220988 -0.01108,-0.03242 -0.01,-0.06779 -0.01496,-0.101691 0.0038,-0.02892 0.0039,-0.05858 0.01138,-0.08677 0.02768,-0.10427 0.102812,-0.191685 0.206327,-0.222145 0.04512,-0.0076 0.09169,-0.0114 0.134671,0.0092 0.02874,0.0138 0.06109,0.0237 0.08385,0.04604 0.04821,0.04731 0.08355,0.106155 0.125322,0.159232 0.0092,0.06961 0.02741,0.138602 0.02773,0.208818 2.13e-4,0.04705 -0.02421,0.08811 -0.04765,0.125974 -0.0015,0.0025 0.0036,-0.005 0.0038,-0.0078 3.18e-4,-0.0066 -0.0399,0.04533 -0.01621,0.01166 -0.04614,0.03093 -0.06134,0.04471 -0.126804,0.06109 -0.03358,0.0084 -0.06887,0.0071 -0.103174,0.01177 -0.03005,0.004 0.0704,-0.0029 0.03785,0 0.622254,0 0.622254,-0.880001 0,-0.880001 z" />
  <path
     style="fill:#000000;fill-opacity:1;fill-rule:nonzero;stroke:none;stroke-width:0.264583"
     id="path16"
     d="m 25.374747,23.360792 c -0.105242,-0.03364 -0.216339,-0.04614 -0.326183,-0.03028 -0.03132,0.0045 -0.06182,0.01361 -0.09273,0.02041 -0.155705,0.05102 -0.309154,0.143001 -0.384133,0.296443 -0.02451,0.05016 -0.03523,0.105966 -0.05284,0.158949 0.0011,0.05831 -0.0073,0.117598 0.0034,0.174931 0.04541,0.243504 0.269556,0.412626 0.513698,0.407103 0.05877,-0.0013 0.114965,-0.02464 0.172447,-0.03696 0.04358,-0.02515 0.09105,-0.04452 0.130738,-0.07545 0.143209,-0.111605 0.243024,-0.328743 0.200629,-0.511527 -0.01543,-0.0665 -0.04965,-0.127183 -0.07447,-0.190775 -0.04215,-0.04461 -0.07672,-0.09787 -0.126457,-0.133834 -0.106336,-0.07688 -0.22793,-0.109289 -0.358168,-0.09679 -0.153614,0.01475 -0.239986,0.08049 -0.35011,0.172505 -0.03119,0.04066 -0.06974,0.07662 -0.09356,0.121994 -0.104144,0.198362 -0.08787,0.384173 0.03499,0.570228 0.06791,0.102842 0.143362,0.129145 0.245826,0.187015 0.03597,0.01069 0.07074,0.02698 0.107916,0.03209 0.141539,0.01946 0.282928,0.0038 0.405348,-0.07458 0.04125,-0.02642 0.08343,-0.05442 0.114105,-0.09261 0.04495,-0.05597 0.07287,-0.123713 0.109299,-0.185569 0.0073,-0.06599 0.02564,-0.131665 0.02205,-0.197964 -0.008,-0.148285 -0.101658,-0.304404 -0.225346,-0.385528 -0.04635,-0.0304 -0.09677,-0.05483 -0.148383,-0.07504 -0.03418,-0.01338 -0.07149,-0.0167 -0.107239,-0.02505 -0.05652,0.0012 -0.113598,-0.0045 -0.169569,0.0035 -0.138369,0.01969 -0.312661,0.127474 -0.386588,0.249265 -0.03165,0.05215 -0.05147,0.110614 -0.07721,0.165922 -0.003,0.0716 -0.01962,0.143953 -0.0089,0.214804 0.02655,0.174907 0.154739,0.318424 0.310921,0.390277 0.103978,0.04784 0.152034,0.04213 0.25881,0.0489 0.04906,-0.0082 0.099,-0.0122 0.147189,-0.02454 0.141122,-0.03615 0.300319,-0.156538 0.3644,-0.288595 0.02573,-0.05302 0.03987,-0.110918 0.05981,-0.166378 -0.0011,-0.06518 0.0096,-0.131656 -0.0033,-0.195542 -0.04155,-0.204628 -0.206363,-0.351591 -0.407259,-0.392223 -0.136755,-0.02766 -0.193559,0.007 -0.316938,0.04669 -0.03714,0.02399 -0.07647,0.04489 -0.111411,0.07199 -0.156345,0.121229 -0.246322,0.342871 -0.192265,0.538326 0.01967,0.07113 0.06654,0.131756 0.09981,0.197634 0.04398,0.03775 0.08405,0.0806 0.131939,0.11326 0.158595,0.108173 0.400705,0.100005 0.55803,-0.0058 0.05005,-0.03366 0.08725,-0.08332 0.130869,-0.12498 0.02907,-0.09082 0.08176,-0.177248 0.08722,-0.272449 0.01174,-0.204652 -0.147925,-0.39013 -0.325951,-0.462735 -0.03448,-0.01406 -0.07147,-0.02094 -0.107208,-0.03141 -0.07066,-0.0068 -0.113869,-0.0163 -0.184165,-0.003 -0.234882,0.04438 -0.389528,0.204274 -0.406283,0.454274 -0.0054,0.08099 0.04027,0.15727 0.0604,0.235906 0.296545,0.547047 1.070187,0.12767 0.773642,-0.419378 v 0 c 0.0152,0.06953 0.05309,0.13782 0.0456,0.2086 -0.02658,0.251135 -0.220515,0.428575 -0.464619,0.385952 -0.02213,-0.0077 -0.04515,-0.01319 -0.06638,-0.0231 -0.06498,-0.03035 -0.13898,-0.09463 -0.163331,-0.163663 -0.02202,-0.06241 -0.04845,-0.128297 -0.04161,-0.194119 0.0088,-0.0847 0.05784,-0.160193 0.08676,-0.240289 0.03654,-0.03215 0.06822,-0.07085 0.109626,-0.09644 0.107385,-0.06637 0.275717,-0.07226 0.378056,0.0091 0.03228,0.02565 0.05926,0.05734 0.08889,0.08601 0.0227,0.05245 0.05594,0.101519 0.06811,0.157366 0.01044,0.04789 0.007,0.09881 -0.0017,0.147035 -0.02052,0.112774 -0.08992,0.185156 -0.18742,0.231967 -0.08474,0.02143 -0.125491,0.04205 -0.217715,0.01708 -0.147682,-0.03999 -0.268066,-0.154739 -0.289774,-0.310499 -0.0066,-0.04717 0.0043,-0.09515 0.0065,-0.142733 0.0161,-0.03679 0.02907,-0.07512 0.04829,-0.110378 0.0083,-0.01523 0.02099,-0.02781 0.03355,-0.03977 0.05871,-0.0559 0.125438,-0.07282 0.204926,-0.07312 0.05056,0.0081 0.07366,0.0082 0.12373,0.03676 0.09842,0.05613 0.171257,0.157527 0.180571,0.273278 0.0044,0.05437 -0.01112,0.108521 -0.01668,0.162782 -0.02057,0.03764 -0.03782,0.0773 -0.06172,0.112914 -0.03775,0.05626 -0.123974,0.09185 -0.188129,0.09527 -0.03583,0.0019 -0.07165,-0.0039 -0.107472,-0.0059 -0.10753,-0.03534 -0.189625,-0.10053 -0.229003,-0.21029 -0.01307,-0.03642 -0.02257,-0.07527 -0.02212,-0.113963 5.82e-4,-0.05071 0.01681,-0.100015 0.02521,-0.150023 0.03126,-0.04702 0.05667,-0.09851 0.09377,-0.141075 0.08393,-0.09631 0.238977,-0.103919 0.347715,-0.05675 0.05167,0.03541 0.09518,0.05551 0.125605,0.113811 0.07241,0.138764 0.08004,0.260431 -0.0028,0.396267 -0.01485,0.02435 -0.03843,0.04214 -0.05765,0.06321 -0.132897,0.0887 -0.30684,0.07746 -0.431757,-0.02507 -0.03349,-0.02749 -0.05533,-0.06669 -0.083,-0.100033 -0.01568,-0.04872 -0.03799,-0.09578 -0.04704,-0.146147 -0.02172,-0.120878 0.04862,-0.252992 0.146847,-0.31946 0.02627,-0.01778 0.05696,-0.02793 0.08543,-0.04189 0.04096,-0.0062 0.08149,-0.0202 0.122869,-0.01846 0.180209,0.0076 0.341621,0.13805 0.365458,0.321398 0.0057,0.04362 -0.0027,0.08793 -0.0041,0.131902 -0.01495,0.03813 -0.02519,0.07847 -0.04485,0.114401 -0.03189,0.05829 -0.08901,0.111504 -0.155635,0.124547 -0.0343,0.0039 -0.06209,0.0033 -0.09506,-0.0057 -0.004,-0.0011 0.008,0.0024 0.01216,0.0028 0.0019,1.76e-4 -0.0035,-0.0014 -0.0052,-0.0021 0.590321,0.196774 0.868602,-0.638068 0.27828,-0.834842 z" />
  <path
     style="fill:#000000;fill-opacity:1;fill-rule:nonzero;stroke:none;stroke-width:0.264583"
     id="path17"
     d="m 26.358177,25.114675 c 0.08619,0.104873 0.169553,0.211996 0.252994,0.31906 0.128117,0.162371 0.245262,0.332667 0.357469,0.50627 0.114936,0.186658 0.216476,0.381257 0.313705,0.577599 0.103956,0.213612 0.19426,0.433568 0.271172,0.65826 0.09603,0.263184 0.165022,0.53454 0.231358,0.80632 0.06847,0.276741 0.117973,0.557435 0.160458,0.839166 0.0437,0.264753 0.07752,0.530897 0.109139,0.797309 0.02635,0.242689 0.05538,0.485065 0.0847,0.727413 0.03034,0.22493 0.06125,0.449768 0.100012,0.67342 0.03312,0.204155 0.08688,0.403262 0.15323,0.598866 0.06879,0.196871 0.169416,0.379688 0.280371,0.55544 0.117188,0.181848 0.261892,0.343276 0.411569,0.498594 0.168963,0.172342 0.366515,0.311325 0.572258,0.435666 0.198498,0.11485 0.409328,0.205163 0.623349,0.286408 0.13049,0.04922 0.263521,0.09115 0.396836,0.131908 0.595153,0.181639 0.852027,-0.660034 0.256874,-0.841674 v 0 c -0.115058,-0.03504 -0.229894,-0.07103 -0.342522,-0.113374 -0.165118,-0.0621 -0.32786,-0.130902 -0.481698,-0.217812 -0.140577,-0.08353 -0.27619,-0.176716 -0.392344,-0.292696 -0.109006,-0.112355 -0.215622,-0.228356 -0.301922,-0.359505 -0.0748,-0.116086 -0.142574,-0.237281 -0.190007,-0.367392 -0.05234,-0.151818 -0.09355,-0.306541 -0.119027,-0.465318 -0.03649,-0.208597 -0.06458,-0.41847 -0.09335,-0.628242 -0.02925,-0.241689 -0.05818,-0.483405 -0.08446,-0.725435 -0.03273,-0.275688 -0.06779,-0.551098 -0.112887,-0.82509 -0.04659,-0.307639 -0.100914,-0.614132 -0.175679,-0.916347 -0.0728,-0.298157 -0.149505,-0.595575 -0.254311,-0.884452 -0.09015,-0.259998 -0.19346,-0.515343 -0.314788,-0.762509 -0.112329,-0.226084 -0.229454,-0.450239 -0.363184,-0.664544 -0.126363,-0.195138 -0.25828,-0.386579 -0.402267,-0.569262 -0.08934,-0.114596 -0.17871,-0.229173 -0.271009,-0.341409 -0.398358,-0.478029 -1.074392,0.08533 -0.676035,0.563362 z" />
  <path
     style="fill:#000000;fill-opacity:1;fill-rule:nonzero;stroke:none;stroke-width:0.264583"
     id="path18"
     d="m 15.286928,27.515689 c -0.308319,-0.08324 -0.621699,-0.145867 -0.934492,-0.209502 -0.874747,-0.175559 -1.751037,-0.343384 -2.623421,-0.53046 -0.817263,-0.181558 -1.634101,-0.365192 -2.4535258,-0.536799 -0.774004,-0.150541 -1.544029,-0.31982 -2.31295,-0.494189 -0.622695,-0.140639 -1.239724,-0.303286 -1.847877,-0.497266 -0.523626,-0.170425 -1.029099,-0.386734 -1.522611,-0.629701 -0.518858,-0.263545 -1.014463,-0.57142 -1.48694,-0.910619 -0.326858,-0.26542 -0.666945,-0.527429 -0.933,-0.857404 -0.03922,-0.04864 -0.07323,-0.101263 -0.109847,-0.151894 -0.113104,-0.184615 -0.212817,-0.407921 -0.178959,-0.631247 0.0042,-0.0276 0.01506,-0.05376 0.02257,-0.08064 0.02058,-0.02304 0.07407,-0.08411 0.09312,-0.09854 0.02387,-0.01808 0.05211,-0.02948 0.07817,-0.04421 0.163856,-0.09261 0.315772,-0.153777 0.492794,-0.218459 0.326747,-0.09841 0.665959,-0.14754 1.007063,-0.118685 0.06578,0.0056 0.130913,0.01709 0.196368,0.02563 0.383503,0.06376 0.74966,0.193364 1.094751,0.369882 0.279331,0.152089 0.520199,0.362153 0.735922,0.593793 0.170064,0.194167 0.300411,0.417563 0.421249,0.644385 0.06101,0.124524 0.03391,0.06363 0.08226,0.182239 0.240109,0.574062 1.051954,0.234498 0.811847,-0.339565 v 0 c -0.07509,-0.176682 -0.03559,-0.09092 -0.118017,-0.2575 -0.158134,-0.295042 -0.331645,-0.583451 -0.556916,-0.833092 -0.288452,-0.303474 -0.606923,-0.579464 -0.979591,-0.775741 -0.437676,-0.218969 -0.899163,-0.384121 -1.384998,-0.457931 -0.09097,-0.01053 -0.181573,-0.02496 -0.27291,-0.03159 -0.45556,-0.03306 -0.90918,0.03589 -1.34338,0.17322 -0.42363696,0.15927 -0.88439896,0.346136 -1.11545396,0.76583 -0.04509,0.0819 -0.0716,0.172743 -0.107394,0.259115 -0.01249,0.0805 -0.03193,0.160218 -0.03747,0.241489 -0.02823,0.414177 0.128341,0.813909 0.351017,1.15432 0.05358,0.07153 0.104063,0.14548 0.160737,0.21458 0.310065,0.378056 0.69778796,0.684477 1.07788396,0.987615 0.512635,0.365912 1.04808,0.700886 1.610873,0.98475 0.532863,0.261607 1.078441,0.495079 1.6437,0.678441 0.632156,0.201202 1.273191,0.371094 1.920412,0.517008 0.773668,0.175437 1.548445,0.345792 2.327219,0.4973 0.818063,0.171249 1.6334818,0.354791 2.4494018,0.535922 0.875466,0.187637 1.754769,0.356351 2.63262,0.532384 0.326752,0.06634 0.652306,0.137086 0.97595,0.2169 0.615018,0.09462 0.748829,-0.77515 0.13381,-0.869767 z" />
  <path
     style="fill:#000000;fill-opacity:1;fill-rule:nonzero;stroke:none;stroke-width:0.264583"
     id="path19"
     d="m 28.733873,13.990194 c -0.01612,0.199143 -0.05204,0.396644 -0.08694,0.593271 -0.05704,0.336952 -0.140761,0.667097 -0.24763,0.991425 -0.102402,0.295013 -0.231126,0.582597 -0.414155,0.837118 -0.0396,0.05505 -0.08354,0.106849 -0.125305,0.160275 -0.263235,0.317686 -0.588951,0.570061 -0.932032,0.794891 -0.342212,0.209459 -0.697397,0.396682 -1.052674,0.582758 -0.316377,0.166254 -0.63011,0.337759 -0.939214,0.517196 -0.24574,0.140967 -0.4917,0.282747 -0.725513,0.442977 -0.180384,0.120398 -0.330039,0.275353 -0.462705,0.445408 -0.148419,0.199681 -0.267425,0.418458 -0.367376,0.645727 -0.107627,0.28296 -0.179074,0.578685 -0.247626,0.873141 -0.06486,0.29265 -0.128871,0.58548 -0.191573,0.878599 -0.03868,0.180097 -0.01947,0.09096 -0.05771,0.267391 -0.13193,0.608107 -0.991922,0.42153 -0.859994,-0.186572 v 0 c 0.03783,-0.174376 0.01878,-0.08607 0.05717,-0.264913 0.06385,-0.298471 0.129003,-0.596656 0.195164,-0.894623 0.08161,-0.348459 0.166874,-0.698428 0.300674,-1.031114 0.131959,-0.293499 0.285465,-0.577357 0.481288,-0.83389 0.190242,-0.237912 0.402219,-0.456617 0.65718,-0.626426 0.252181,-0.17102 0.514534,-0.326449 0.779422,-0.476914 0.320207,-0.185616 0.644876,-0.363578 0.97258,-0.535597 0.330685,-0.173085 0.661166,-0.34736 0.980653,-0.540582 0.264837,-0.171068 0.51701,-0.363114 0.72274,-0.60426 0.07101,-0.08761 0.09855,-0.115997 0.158154,-0.211751 0.100234,-0.161035 0.172171,-0.337123 0.235368,-0.515311 0.09447,-0.284053 0.166554,-0.573598 0.216651,-0.868947 0.03578,-0.200973 0.06829,-0.402431 0.08921,-0.60556 0.117572,-0.611047 0.981724,-0.444769 0.864148,0.166279 z" />
  <path
     style="fill:#000000;fill-opacity:1;fill-rule:nonzero;stroke:none;stroke-width:0.264583"
     id="path20"
     d="m 25.805373,17.367302 c 0.164412,0.06759 0.312895,0.167038 0.462273,0.262018 0.22798,0.135432 0.444149,0.288538 0.651332,0.453719 0.203078,0.159202 0.394844,0.331082 0.576624,0.514035 0.162404,0.165185 0.306039,0.346609 0.441286,0.53424 0.12075,0.163489 0.219243,0.341396 0.310548,0.522507 0.08543,0.178248 0.158784,0.36143 0.215518,0.550709 0.05183,0.190648 0.08625,0.385593 0.108265,0.581774 0.01459,0.207039 0.0118,0.414906 -1.73e-4,0.621972 -0.01778,0.201804 -0.04367,0.402641 -0.05911,0.604657 -0.0093,0.118327 -0.02047,0.236615 -0.01545,0.355356 0.01981,0.621938 -0.859748,0.649947 -0.879554,0.02801 v 0 c -0.0039,-0.150589 0.0035,-0.30067 0.01758,-0.450673 0.01516,-0.197005 0.03871,-0.393025 0.05809,-0.589627 0.0098,-0.158275 0.01129,-0.316962 0.0037,-0.475389 -0.01452,-0.144403 -0.04219,-0.287467 -0.07768,-0.428135 -0.03947,-0.139385 -0.09752,-0.272069 -0.15757,-0.403714 -0.06991,-0.139903 -0.145089,-0.277583 -0.238468,-0.403492 -0.107949,-0.150365 -0.222122,-0.296052 -0.351825,-0.428554 -0.157712,-0.159412 -0.324922,-0.308183 -0.501538,-0.446542 -0.181782,-0.146088 -0.37316,-0.279111 -0.573762,-0.398272 -0.106009,-0.06742 -0.210372,-0.14049 -0.325784,-0.191152 -0.575193,-0.23739 -0.239479,-1.050833 0.335714,-0.813447 z" />
  <path
     style="fill:#000000;fill-opacity:1;fill-rule:nonzero;stroke:none;stroke-width:0.264583"
     id="path21"
     d="m 20.352439,24.61907 c -0.140628,0.237038 -0.281973,0.473823 -0.424887,0.709546 -0.255466,0.415528 -0.512834,0.829852 -0.767059,1.246148 -0.176558,0.293508 -0.358965,0.583429 -0.535213,0.877118 -0.10889,0.185036 -0.210435,0.374183 -0.319338,0.559211 -0.01436,0.02441 -0.02873,0.04879 -0.04308,0.07319 -0.315658,0.536246 0.442708,0.982654 0.758367,0.446408 v 0 c 0.01443,-0.02451 0.02886,-0.04903 0.04329,-0.07354 0.107449,-0.182877 0.208446,-0.369347 0.315363,-0.552523 0.175014,-0.291752 0.356346,-0.579643 0.53165,-0.871229 0.254724,-0.417113 0.512633,-0.832226 0.76855,-1.248601 0.14838,-0.244794 0.295262,-0.490576 0.440859,-0.736998 0.303162,-0.543409 -0.465333,-0.972145 -0.768495,-0.428736 z" />
  <path
     style="fill:#000000;fill-opacity:1;fill-rule:nonzero;stroke:none;stroke-width:0.264583"
     id="path22"
     d="m 58.347361,30.579972 c 0.190171,0 0.380343,0 0.570518,0 0.227835,-0.0024 0.455594,-0.0092 0.683376,-0.01442 0.130464,-0.0028 0.06582,-0.0016 0.193935,-0.0041 0.622122,-0.0127 0.604168,-0.892511 -0.01797,-0.879817 v 0 c -0.129635,0.0026 -0.06426,0.0013 -0.196109,0.0041 -0.221072,0.0051 -0.442124,0.01156 -0.663244,0.01421 -0.190175,0 -0.380346,0 -0.570518,0 -0.622255,0 -0.622255,0.879999 0,0.879999 z" />
  <path
     style="fill:#000000;fill-opacity:1;fill-rule:nonzero;stroke:none;stroke-width:0.264583"
     id="path23"
     d="m 61.654231,29.247343 c 0.0092,-0.008 0.0177,-0.01699 0.02766,-0.02405 0.005,-0.0035 -0.0131,0.0073 -0.01254,0.01333 5.29e-4,0.0047 0.009,-0.0029 0.01333,-0.0047 0.01371,-0.0056 0.027,-0.01209 0.04085,-0.01728 0.02995,-0.01119 0.09901,-0.03197 0.125026,-0.04003 0.142084,-0.04021 0.288663,-0.04561 0.43438,-0.02804 0.147148,0.02373 0.287147,0.07976 0.423286,0.138756 0.572259,0.244374 0.917855,-0.564925 0.345596,-0.809297 v 0 c -0.218157,-0.09226 -0.442124,-0.176313 -0.678836,-0.20484 -0.265579,-0.02492 -0.531593,-0.01437 -0.788694,0.06403 -0.173424,0.05521 -0.35365,0.114067 -0.493424,0.236035 -0.478031,0.398356 0.08533,1.074391 0.563361,0.676034 z" />
  <path
     style="fill:#000000;fill-opacity:1;fill-rule:nonzero;stroke:none;stroke-width:0.264583"
     id="path24"
     d="m 64.646772,29.810596 c 0.184838,0.01397 0.370385,0.01347 0.555556,0.0205 0.304607,0.01241 0.60882,0.03281 0.913165,0.05027 0.621233,0.03562 0.671613,-0.842933 0.05038,-0.878557 v 0 c -0.310126,-0.01778 -0.620114,-0.03858 -0.930516,-0.05109 -0.163793,-0.0061 -0.327697,-0.0077 -0.491402,-0.01574 -0.618451,-0.06872 -0.71563,0.805902 -0.09718,0.874617 z" />
  <path
     style="fill:#000000;fill-opacity:1;fill-rule:nonzero;stroke:none;stroke-width:0.264583"
     id="path25"
     d="m 67.886759,29.252836 c 0.121179,-0.008 0.237289,0.01606 0.35387,0.04533 0.14742,0.04562 0.291459,0.103812 0.425854,0.179835 0.08912,0.0542 0.170818,0.118192 0.246669,0.189487 0.457279,0.422015 1.054097,-0.224674 0.59682,-0.64669 v 0 c -0.129608,-0.118379 -0.267583,-0.226745 -0.420274,-0.314346 -0.203211,-0.109582 -0.415841,-0.20166 -0.63898,-0.26284 -0.185166,-0.04487 -0.372451,-0.07886 -0.563959,-0.07078 -0.622252,0 -0.622252,0.879999 0,0.879999 z" />
  <path
     style="fill:#000000;fill-opacity:1;fill-rule:nonzero;stroke:none;stroke-width:0.264583"
     id="path26"
     d="m 69.025129,31.302428 c 0.0019,0.141909 2.62e-4,0.283403 -0.01032,0.424947 -0.02413,0.238916 -0.04935,0.477705 -0.07184,0.716785 -0.0033,0.03649 -0.0065,0.07298 -0.0098,0.109469 -0.05535,0.619787 0.821163,0.698064 0.876511,0.07827 v 0 c 0.0031,-0.0351 0.0063,-0.0702 0.0094,-0.105306 0.0231,-0.245674 0.04948,-0.491001 0.07348,-0.736582 0.01119,-0.162433 0.01529,-0.324776 0.01257,-0.487587 0,-0.622255 -0.879999,-0.622255 -0.879999,0 z" />
</svg>
