<?xml version="1.0" encoding="UTF-8" standalone="no"?>
<svg
   id="svg8"
   version="1.1"
   viewBox="0 0 144.97034 49.245823"
   height="49.245823mm"
   width="144.97034mm"
   sodipodi:docname="21 soweli wan li lon supa. soweli ante li lon supa ala..svg"
   inkscape:version="1.3 (0e150ed6c4, 2023-07-21)"
   xmlns:inkscape="http://www.inkscape.org/namespaces/inkscape"
   xmlns:sodipodi="http://sodipodi.sourceforge.net/DTD/sodipodi-0.dtd"
   xmlns="http://www.w3.org/2000/svg"
   xmlns:svg="http://www.w3.org/2000/svg"
   xmlns:rdf="http://www.w3.org/1999/02/22-rdf-syntax-ns#"
   xmlns:cc="http://creativecommons.org/ns#"
   xmlns:dc="http://purl.org/dc/elements/1.1/">
  <sodipodi:namedview
     id="namedview1"
     pagecolor="#ffffff"
     bordercolor="#000000"
     borderopacity="0.25"
     inkscape:showpageshadow="2"
     inkscape:pageopacity="0.0"
     inkscape:pagecheckerboard="0"
     inkscape:deskcolor="#d1d1d1"
     inkscape:document-units="mm"
     inkscape:zoom="1.1242388"
     inkscape:cx="248.61267"
     inkscape:cy="32.466413"
     inkscape:window-width="1920"
     inkscape:window-height="1051"
     inkscape:window-x="-9"
     inkscape:window-y="-9"
     inkscape:window-maximized="1"
     inkscape:current-layer="svg8" />
  <defs
     id="defs2" />
  <metadata
     id="metadata5">
    <rdf:RDF>
      <cc:Work
         rdf:about="">
        <dc:format>image/svg+xml</dc:format>
        <dc:type
           rdf:resource="http://purl.org/dc/dcmitype/StillImage" />
        <dc:title />
      </cc:Work>
    </rdf:RDF>
  </metadata>
  <g
     transform="translate(-68.536007,-86.870643)"
     id="layer1">
    <g
       id="g856"
       transform="matrix(0.26458333,0,0,0.26458333,84.094311,77.83358)">
      <ellipse
         id="ellipse815"
         ry="35"
         rx="70"
         cy="160"
         cx="80"
         style="opacity:0.2" />
      <path
         id="path817"
         d="m 100,80 c -2.8,0 -5,1.1 -5,2.5 l 35,97 c 0,1.4 2.2,2.5 5,2.5 2.8,0 5,-1.1 5,-2.5 l -35,-97 c 0,-1.4 -2.2,-2.5 -5,-2.5 z"
         style="fill:#825012" />
      <path
         id="path819"
         d="m 100,85 c -2.8,0 -5,-1.1 -5,-2.5 l 35,97 c 0,1.4 2.2,2.5 5,2.5 2.8,0 5,-1.1 5,-2.5 l -35,-97 c 0,1.4 -2.2,2.5 -5,2.5 z"
         style="opacity:0.2" />
      <path
         id="path821"
         d="m 100,73 c -2.8,0 -5,1.1 -5,2.5 l 35,63 c 0,1.4 2.2,2.5 5,2.5 2.8,0 5,-1.1 5,-2.5 l -35,-63 c 0,-1.4 -2.2,-2.5 -5,-2.5 z"
         style="fill:#825012" />
      <path
         id="path823"
         d="m 100,78 c -2.8,0 -5,-1.1 -5,-2.5 l 35,63 c 0,1.4 2.2,2.5 5,2.5 2.8,0 5,-1.1 5,-2.5 l -35,-63 c 0,1.4 -2.2,2.5 -5,2.5 z"
         style="opacity:0.2" />
      <path
         id="path825"
         d="m 60,80 c 2.8,0 5,1.1 5,2.5 l -35,97 c 0,1.4 -2.2,2.5 -5,2.5 -2.8,0 -5,-1.1 -5,-2.5 l 35,-97 C 55,81.1 57.2,80 60,80 Z"
         style="fill:#825012" />
      <path
         id="path827"
         d="m 60,85 c 2.8,0 5,-1.1 5,-2.5 l -35,97 c 0,1.4 -2.2,2.5 -5,2.5 -2.8,0 -5,-1.1 -5,-2.5 l 35,-97 c 0,1.4 2.2,2.5 5,2.5 z"
         style="opacity:0.2" />
      <path
         id="path829"
         d="m 60,73 c 2.8,0 5,1.1 5,2.5 l -35,63 c 0,1.4 -2.2,2.5 -5,2.5 -2.8,0 -5,-1.1 -5,-2.5 l 35,-63 C 55,74.1 57.2,73 60,73 Z"
         style="fill:#825012" />
      <path
         id="path831"
         d="m 60,78 c 2.8,0 5,-1.1 5,-2.5 l -35,63 c 0,1.4 -2.2,2.5 -5,2.5 -2.8,0 -5,-1.1 -5,-2.5 l 35,-63 c 0,1.4 2.2,2.5 5,2.5 z"
         style="opacity:0.2" />
      <path
         id="path833"
         d="M 80,40 C 35.8,40 0,57.9 0,80 v 10 c 0,22.1 35.8,40 80,40 44.2,0 80,-17.9 80,-40 V 80 C 160,57.9 124.2,40 80,40 Z"
         style="fill:#825012" />
      <path
         id="path835"
         d="M 80,120 C 35.8,120 0,102.1 0,80 v 10 c 0,22.1 35.8,40 80,40 44.2,0 80,-17.9 80,-40 V 80 c 0,22.1 -35.8,40 -80,40 z"
         style="opacity:0.2" />
    </g>
    <g
       id="g882"
       transform="matrix(0.26458333,0,0,0.26458333,94.836394,64.101705)">
      <path
         id="path858"
         d="m 54.4,127.4 c 9.1,5.9 23.5,12.9 10.6,19.8 C 51.3,154.5 33.1,145.9 26.3,138 17.2,127.5 6.9,124 2.4,122.8 c -3.7,-1 -3.8,-3.1 4.4,-1.8 1.4,0.2 11.6,1.5 21.6,2.9 10.2,1.4 23.2,1.7 26,3.5 z"
         style="opacity:0.2" />
      <path
         id="path860"
         d="m 46.3,127.9 c 0,0 0.8,2.9 2.8,4.1 2,1.2 6.1,3.4 6.5,4.3 0.4,0.9 1.4,3 3.5,2.6 2.1,-0.4 4.8,-2.2 4.1,-3.5 -0.7,-1.3 -1.7,-0.9 -3.8,-1.4 -2.1,-0.5 -5.2,-2.4 -6,-3.7 -0.9,-1.3 -1.7,-4 -1.7,-4 z"
         style="fill:#999999" />
      <path
         id="path862"
         d="m 46.3,127.9 c 0,0 0.8,2.9 2.8,4.1 2,1.2 6.1,3.4 6.5,4.3 0.4,0.9 1.4,3 3.5,2.6 2.1,-0.4 4.8,-2.2 4.1,-3.5 -0.7,-1.3 -1.7,-0.9 -3.8,-1.4 -2.1,-0.5 -5.2,-2.4 -6,-3.7 -0.9,-1.3 -1.7,-4 -1.7,-4 z"
         style="opacity:0.2" />
      <path
         id="path864"
         d="m 19.4,120.4 c 0,0 -8.5,-1.5 -12,-8.3 C 4,105.3 5.4,99.8 4.5,98.2 3.6,96.6 1.4,97 0.9,98.8 c -0.5,1.8 -1.2,13.5 4.9,19.8 6.3,6.3 13.8,7.8 13.8,7.8 0,0 1.8,6.3 5.5,8 3.7,1.7 5.1,0.5 5.1,0.5 0,0 -0.9,2 -0.2,3.1 0.7,1 8.4,3.1 9.5,4 1.1,1 2.1,3.8 4.9,2.8 2.8,-1 3.7,-2.1 3,-3.4 -0.7,-1.3 -2.6,-1.8 -4,-1.9 -1.4,-0.1 -6.5,-2.5 -6.5,-2.5 0,0 2.2,-2.1 2.7,-3.7 0.5,-1.6 0.3,-2.7 0.3,-2.7 l 6.9,-2.6 c 0,0 1.2,5.4 1.5,9.2 0.3,3.8 0.5,5.6 0.9,7.4 0.4,1.9 0.2,4.3 3.3,4 3.1,-0.3 4.3,-1.1 3.9,-2.3 -0.4,-1.2 -2.4,-2.4 -2.8,-4.6 -0.4,-2.1 0.1,-12.9 0.4,-14 0.2,-1.1 2.5,-7.1 2.5,-7.1 l 2.5,-0.5 c 0,0 1.1,7.8 1.5,11.3 0.4,3.5 0.7,9.2 0.7,10.4 0,1.2 0.7,2.6 2.2,2.7 1.5,0.2 4.6,-0.8 4.5,-2.1 -0.1,-1.3 -2.3,-3.1 -2.5,-4.6 -0.2,-1.5 -0.5,-14.8 0.9,-19.4 1.4,-4.6 2.4,-7.1 2.4,-7.1 L 60,91.5 c 0,0 -3.5,0.8 -7.9,0.7 -4.5,-0.1 -17.8,-0.1 -25.4,9.5 -7.8,9.7 -7.3,18.7 -7.3,18.7 z"
         style="fill:#999999" />
      <path
         id="path866"
         d="m 56.3,120.7 c 0,0 2.5,-2.1 2.7,-4.9 0.2,-2.8 1.8,-5.1 3.2,-6 1.4,-1 6.2,-3.4 6.2,-3.4 0,0 1.3,4.3 -0.5,7.3 -1.8,3 -4.8,5.4 -7.3,6.2 -2.5,0.8 -4.3,0.8 -4.3,0.8 z"
         style="fill:#e5e5e5" />
      <path
         id="path868"
         d="m 46.8,128 c 0,0 -0.7,-3.1 -1,-5.4 -0.2,-2.4 -0.9,-6 -0.9,-6 0,0 -0.9,2.1 -2.8,3 -1.9,0.9 -3.7,1.3 -5.3,0.6 -1.6,-0.7 -5.4,-2.7 -5.4,-2.7 0,0 5.7,3.8 6.8,6.9 1.2,3.1 1.6,6.3 1.6,6.3 z"
         style="opacity:0.2" />
      <path
         id="path870"
         d="m 58.2,96 c 0,0 -0.5,2.8 0.7,5.7 1.3,2.9 4,5.2 5.4,6.9 1.3,1.6 2.8,3.2 5.8,2.9 3,-0.4 3.2,-1.9 4.1,-3.1 0.9,-1.2 4.1,-5.7 4.6,-8.7 0.5,-3.1 0.1,-5.3 0.1,-5.3 0,0 2.1,-7.3 0.5,-8.2 -1.6,-0.9 -3.2,2.7 -5.1,2.9 -2,0.2 -2.9,-0.3 -5.1,-0.2 -2.2,0.1 -5.7,1 -5.7,1 0,0 -3.3,-3.4 -5.3,-2.7 -2.4,0.9 0,8.8 0,8.8 z"
         style="fill:#999999" />
      <path
         id="path872"
         d="m 69.7,110.5 c -0.6,0 -1.7,-1 -1.6,-1.5 0.1,-0.5 2.9,-0.5 3.1,0.1 0.2,0.5 -0.9,1.4 -1.5,1.4 z"
         style="fill:#2d3134" />
      <path
         id="path874"
         d="m 72,104.4 c 0,0 0.3,-1.8 1.8,-2.4 1.5,-0.6 2.1,-0.3 2.1,-0.3 0,0 -0.3,1.7 -1.5,2.3 -1.1,0.6 -2.4,0.4 -2.4,0.4 z"
         style="fill:#2d3134" />
      <path
         id="path876"
         d="m 67.3,104.4 c 0,0 -0.6,-1.8 -2,-2.3 -1.4,-0.5 -2.4,0 -2.4,0 0,0 0.2,1.5 1.4,2 1.2,0.5 3,0.3 3,0.3 z"
         style="fill:#2d3134" />
      <path
         id="path878"
         d="m 72.9,93.3 c 0,0 4.8,-7.5 6.4,-6.9 1.2,0.4 -0.4,8 -0.4,8 0,0 -1.3,-1.2 -3,-1.5 -1.6,-0.3 -3,0.4 -3,0.4 z"
         style="opacity:0.2" />
      <path
         id="path880"
         d="m 65.2,93.2 c 0,0 -5.3,-6.3 -6.9,-5.8 -2.2,0.7 -0.1,8.6 -0.1,8.6 0,0 1.6,-2.1 2.9,-2.6 1.3,-0.5 4.1,-0.2 4.1,-0.2 z"
         style="opacity:0.2" />
    </g>
    <g
       id="g989"
       transform="matrix(0.26458333,0,0,0.26458333,60.916811,96.671913)">
      <path
         id="path961"
         d="m 103.2,117 c 12.7,8.2 34.5,15.5 14.8,27.5 -18.4,11.2 -39.2,-0.4 -49.5,-10.6 -20.7,-20.6 -56.1,-20.3 -31.1,-23.8 1.9,-0.3 15.8,0 29.6,2 14.3,2 32.4,2.4 36.2,4.9 z"
         style="opacity:0.2" />
      <path
         id="path963"
         d="m 96.1,110.4 c 0,0 2,4.7 1.9,6.2 -0.1,1.5 -0.8,3.5 0.1,4.3 0.9,0.7 7.8,5.2 9.1,7.1 1.3,1.9 2,5.2 6.6,3 4.6,-2.2 3.1,-5.5 0.9,-6.4 -2.1,-0.9 -6.5,-1.7 -8.8,-3.9 -2.3,-2.2 -3.2,-2.9 -1.2,-6.3 2,-3.4 2.9,-6.1 2.9,-6.1 z"
         style="opacity:1;fill:#f8ebcb" />
      <path
         id="path965"
         d="m 96.1,110.4 c 0,0 2,4.7 1.9,6.2 -0.1,1.5 -0.8,3.5 0.1,4.3 0.9,0.7 7.8,5.2 9.1,7.1 1.3,1.9 2,5.2 6.6,3 4.6,-2.2 3.1,-5.5 0.9,-6.4 -2.1,-0.9 -6.5,-1.7 -8.8,-3.9 -2.3,-2.2 -3.2,-2.9 -1.2,-6.3 2,-3.4 2.9,-6.1 2.9,-6.1 z"
         style="opacity:0.2" />
      <path
         id="path967"
         d="m 86.8,47.8 c 0.8,-1.5 2.6,-3.6 5.5,-5 2.9,-1.4 5,-1.9 5,-1.9 0,0 1.7,-3.1 5.5,-1.8 3.8,1.3 7.5,8.5 8.4,11.6 0.9,3.1 2.2,8.7 1,9.4 -1.2,0.7 -3,-2.1 -3,-2.1 0,0 1,4.5 1.8,7.3 0.7,2.8 -0.1,7.7 0.7,9.3 0.7,1.6 4.2,7.5 3.8,13.7 -0.4,6.2 -2.8,12.2 -2.9,14.8 -0.1,2.6 3.4,16.8 4,17.9 0.6,1.1 0.2,4.4 1.2,6.4 1,2 8.7,3.9 6.2,7.8 -2.4,3.9 -9.3,2 -10.3,-0.2 -1,-2.2 0.1,-4.6 -1.1,-8.8 -1.2,-4.2 -6.7,-15.8 -6.7,-15.8 0,0 -2,0.6 -4.8,0.9 -2.9,0.4 -5.9,3.9 -4.9,9.7 1,5.8 2,8 2.6,9.4 0.6,1.4 0.2,4.6 1.1,6.4 0.9,1.9 7.2,4.2 4.8,7.3 -2.4,3.1 -7.5,3.2 -10.2,0.6 -2.7,-2.6 -0.4,-3.8 -2.2,-10.2 -1.9,-6.4 -4,-13.8 -4,-13.8 l -6.3,1.5 -4.4,9.3 c 0,0 3.8,2.8 5.7,3.9 1.9,1.1 5.7,0.2 7,1.9 1.3,1.7 1.8,5.5 -2.2,7 -4,1.5 -6.3,-3.4 -7.7,-4.5 -1.4,-1 -7,-3.3 -8.5,-5 -1.5,-1.7 -0.2,-5.8 -0.2,-5.8 0,0 -5.9,-0.6 -8.8,-4.4 -2.9,-3.8 -2.5,-4.6 -3.7,-5.5 -1.2,-0.9 -3.1,-1.7 -8.8,-1.1 -5.7,0.6 -12.7,-1.8 -15.7,-5.2 -3.1,-3.4 -3.7,-11.3 -2.9,-12 0.8,-0.7 2.2,4.5 3.8,5.7 1.6,1.2 5.3,4.2 9.7,3.8 4.4,-0.4 12.5,-3.6 12.5,-3.6 0,0 4.6,-12.8 10.8,-19.7 6.2,-7 14.6,-11.7 15.9,-16.8 1.1,-5.1 1,-19.9 2.3,-22.4 z"
         style="opacity:1;fill:#f8ebcb" />
      <g
         id="g971">
        <path
           id="path969"
           d="m 84.6,108.1 c 0,0 -1.2,1.6 -4,1.6 -1.5,0 -3.7,-0.2 -5.3,-0.4 0.6,0.1 1.4,0.3 2.2,0.6 2.8,0.9 3.9,2.1 5.1,4.6 1.1,2.5 -0.8,7.7 -0.8,7.7 l 6.3,-1.5 c 0,0 -0.7,-2.1 -1,-3.2 -0.3,-1 -2.6,-6.6 -2.5,-9.4 z"
           style="opacity:0.2" />
      </g>
      <path
         id="path973"
         d="m 94.9,65.4 c -0.4,-1.5 -1.8,-5.1 -4,-7.5 -1.6,-1.8 -3,-5.8 -3.6,-8.3 l -1.1,0.3 c -0.6,3.7 -0.8,10.7 -1.3,15.8 0.9,0.7 4.2,1.9 5.3,2.5 4.7,2.6 5.5,0.5 4.7,-2.8 z"
         style="opacity:0.2" />
      <path
         id="path975"
         d="m 93.7,52.8 c 0,0 -0.1,-2.2 0.8,-3.1 0.8,-0.9 2.5,-0.6 1.7,1.3 -0.8,2 -2.5,1.8 -2.5,1.8 z"
         style="opacity:1;fill:#262626" />
      <path
         id="path977"
         d="m 102.9,45.7 c 0,0 -0.2,-1.1 0.7,-1.5 0.9,-0.3 1.8,1.5 1.8,1.5 z"
         style="opacity:1;fill:#262626" />
      <path
         id="path979"
         d="m 111.1,53.4 c 0,0 -0.3,-0.6 -1,-0.8 -0.6,-0.2 -1.3,-0.1 -2.1,0.2 l -0.9,-1.8 -0.3,0.2 0.9,1.8 c -1.3,0.7 -1.9,1.5 -2.6,2.5 -0.4,0.6 -0.9,1.3 -1.6,1.9 -1.8,1.8 -2.8,2.1 -2.8,2.1 -0.1,0 -0.1,0.1 -0.1,0.2 0,0.1 0.1,0.1 0.2,0.1 0,0 0,0 0.1,0 0,0 1.1,-0.4 3,-2.2 0.7,-0.7 1.2,-1.4 1.6,-2 0.7,-1 1.3,-1.8 2.6,-2.5 0.8,-0.4 1.4,-0.5 1.9,-0.3 0.6,0.2 0.8,0.6 0.8,0.6 0,0.1 0.2,0.1 0.2,0.1 0.1,0.1 0.1,0 0.1,-0.1 z"
         style="opacity:1;fill:#262626" />
      <path
         id="path981"
         d="m 87.4,47.1 c -0.8,-0.5 -2.7,0.7 -4.1,3.4 -1.4,2.7 -3.4,7.5 -1.8,9.9 1.6,2.4 4.3,4.5 6.7,5.4 2.3,0.9 5,2.6 5.7,2.1 0.7,-0.5 -1.1,-5.7 -3,-8.4 -1.9,-2.7 -4,-5.8 -4,-5.8 0,0 2.5,-5.3 0.5,-6.6 z"
         style="opacity:1;fill:#f8ebcb" />
      <path
         id="path983"
         d="m 111.1,50.6 c 0.7,1.7 0.5,3.5 -0.1,5.2 -0.6,1.6 -1.7,2.3 -1.7,2.3 v 0.1 c 0.3,0.5 1.8,2.7 2.9,2 1.2,-0.7 -0.1,-6.3 -1,-9.4 -0.9,-3.1 -4.6,-10.2 -8.4,-11.6 -3.5,-1.2 -5.2,1.3 -5.5,1.7 1.6,0 4.4,0.4 5.9,1.9 1.6,1.5 2.6,2.4 3.6,3.8 1,1.4 3.5,2.2 4.3,4 z"
         style="opacity:0.2" />
      <path
         id="path985"
         d="m 102.6,48.5 c -0.7,1.6 1.8,4 4.3,2.9 2.5,-1.2 1.5,-4 0.7,-4.6 -0.8,-0.7 -4.2,-0.2 -5,1.7 z"
         style="opacity:1;fill:#262626" />
      <path
         id="path987"
         d="M 112.2,69.8 C 108,70.5 102.9,70.9 97.7,70.6 90,70.3 85.7,69 84,68 c -0.1,0.7 -0.2,1.4 -0.4,2 -0.2,0.6 -0.4,1.3 -0.8,1.9 4,2 10.5,2.6 14.7,2.7 1.1,0 2.2,0.1 3.3,0.1 3.7,0 7.7,-0.2 11.5,-0.9 -0.2,-1 -0.1,-2.5 -0.1,-4 z"
         style="opacity:1;fill:#262626" />
    </g>
    <g
       id="g1031"
       transform="matrix(0.26458333,0,0,0.26458333,113.72764,94.846288)">
      <ellipse
         id="ellipse1013"
         ry="14.6"
         rx="26.799999"
         cy="136.89999"
         cx="40.900002"
         transform="matrix(0.9564,-0.2919,0.2919,0.9564,-38.1725,17.888)"
         style="opacity:0.2" />
      <path
         id="path1015"
         d="m 41.1,114.4 c 0,0 -12.3,0.8 -17.3,2.2 -5,1.4 -3.7,8.6 0.8,11.3 4.5,2.7 7.4,3.8 7.4,3.8 0,0 -7.3,0.1 -9.2,1 -1.9,0.9 -6,2.7 -5.6,5.4 0.4,2.7 3.8,4.1 6.3,3.1 2.4,-1 6.2,-4.2 8.3,-4.7 2.1,-0.5 8.3,0 8.8,-0.5 0.5,-0.5 0.9,-1.3 0.9,-1.3 l 3.5,0.9 12.7,-12.9 z"
         style="fill:#825012" />
      <path
         id="path1017"
         d="m 41.1,114.4 c 0,0 -12.3,0.8 -17.3,2.2 -5,1.4 -3.7,8.6 0.8,11.3 4.5,2.7 7.4,3.8 7.4,3.8 0,0 -7.3,0.1 -9.2,1 -1.9,0.9 -6,2.7 -5.6,5.4 0.4,2.7 3.8,4.1 6.3,3.1 2.4,-1 6.2,-4.2 8.3,-4.7 2.1,-0.5 8.3,0 8.8,-0.5 0.5,-0.5 0.9,-1.3 0.9,-1.3 l 3.5,0.9 12.7,-12.9 z"
         style="opacity:0.2" />
      <path
         id="path1019"
         d="m 63.7,127.2 c -0.2,-2.9 -4.9,-6.2 -10.4,-4.4 -5.5,1.8 -10.4,7.2 -10,10.4 0.4,3.2 4.1,6.8 4.1,6.8 0,0 -4.3,-0.1 -5.9,1.3 -1.7,1.4 -1.4,2.4 -2.7,4.2 -1.3,1.8 -3.1,4.2 -0.3,5.2 2.8,1 5,0.9 6.4,-0.6 1.4,-1.5 1.8,-4.9 1.8,-4.9 0,0 5.1,-1.2 6.4,-1.9 2.6,-1.4 1.4,-4.6 1.4,-4.6 0,0 4.3,-1 6.6,-4.2 2.3,-3.2 2.9,-3.4 2.6,-7.3 z"
         style="fill:#825012" />
      <path
         id="path1021"
         d="m 14.5,64.7 c 2.5,-2.4 7.6,-5.6 8.1,-6.7 0.5,-1.2 -0.7,-5.2 0.4,-5.9 1.1,-0.7 3.5,-1.4 3.5,-1.4 0,0 0,-2.1 0.8,-4.8 0.8,-2.7 1,-5.3 1,-5.3 0,0 2.3,2.6 2.8,4.1 0.5,1.5 2.2,3.5 2.2,3.5 0,0 2.3,-0.7 4.5,0.4 1.9,0.9 2.5,1.8 2.5,1.8 L 41.2,46 c 0,0 2.5,2.6 3.1,6.1 0.5,3 0.4,3.8 0.4,3.8 0,0 2.2,4.6 2.4,9.5 0.2,4.9 2.3,9.8 5.6,14.3 3.3,4.5 9,11 10.1,17.3 1.1,6.3 4.2,17.6 3.9,22.7 -0.3,5.4 -0.8,13.8 -5.7,17.2 -3.3,2.3 -6.4,1.8 -6.4,1.8 0,0 -4.9,-4.2 -5,-5.1 -0.1,-0.9 7,-6.8 8.8,-8.3 1.8,-1.4 0.5,-2.6 0.5,-2.6 0,0 -4.3,-1.1 -6.2,-1.5 -4.6,-1.2 -9,-4 -9,-4 0,0 -1.5,5.3 -1.3,8.7 0.3,3.4 0.4,6.9 -1.1,9.1 -1.5,2.2 -3.4,6.4 -3.5,8.7 -0.1,2.3 -0.6,5.3 -2.9,6.4 -2.3,1.2 -6.6,-0.2 -6.6,-1.5 0,-1.3 1.5,-3.2 3,-4.8 1.5,-1.6 5.3,-10.1 5.7,-12.6 0.4,-2.5 0.5,-18.2 0.5,-18.2 l -5.6,-2 c 0,0 0.1,8.7 0.2,11.4 0.1,2.8 -0.2,6.3 -1.5,10.2 -1.3,3.9 -2.6,9.3 -3.1,10.7 -0.5,1.3 -2,3.2 -3.9,3.5 -3.2,0.4 -6.2,-1.5 -5.3,-3.3 0.9,-1.7 3.7,-3.8 5,-6 1.4,-2.4 3.2,-6.2 3.4,-10.3 0.3,-8 -1.9,-19.9 -2.3,-22.1 -0.4,-2.2 -3,-4.7 -2,-11 1,-6.3 5.1,-10.9 5.2,-13.1 0.1,-2.2 1.3,-8.3 -0.4,-9 -1.7,-0.7 -6.3,2 -10.5,-1.3 -4.2,-3.2 -2.2,-6 -2.2,-6 z"
         style="fill:#2d3134" />
      <path
         id="path1023"
         d="m 39.9,65.8 c -0.4,-1 -7.1,-1 -12.8,-2.1 C 23.6,63 19.3,62.9 16.6,63 c -0.8,0.6 -1.5,1.2 -2.1,1.8 0,0 -2,2.8 2.1,6.1 4.1,3.3 8.8,0.5 10.5,1.3 0.5,0.2 0.8,1 0.9,2 0.6,1.2 1.6,2.5 2.6,2.2 1.8,-0.6 9.7,-9.6 9.3,-10.6 z"
         style="fill:#825012" />
      <path
         id="path1025"
         d="m 28.5,59.5 c -0.1,-0.7 3.8,-0.7 3.9,-0.1 0.1,0.6 -3.7,1.4 -3.9,0.1 z" />
      <path
         id="path1027"
         d="m 39.7,59.9 c -1.4,-0.7 -1.2,-3.9 0,-6.3 1.2,-2.3 2.1,-5.3 2.1,-5.3 0,0 2.4,4.7 2,7.4 -0.4,2.6 -1.8,5.3 -4.1,4.2 z"
         style="fill:#825012" />
      <path
         id="path1029"
         d="m 15.8,66.9 c -0.7,-0.6 -1.9,-2.2 -1.3,-3.7 0.6,-1.4 4,-2.9 5.6,-1.6 1.6,1.3 0.2,4.1 -0.5,4.9 -0.8,0.9 -2.7,1.3 -3.8,0.4 z"
         style="fill:#262626" />
    </g>
  </g>
  <path
     style="fill:#000000;fill-opacity:1;fill-rule:nonzero;stroke:none;stroke-width:0.264583"
     id="path1"
     d="m 86.716886,18.286852 c -0.164558,-0.151016 -0.361566,-0.261041 -0.555472,-0.368977 -0.395911,-0.209493 -0.828061,-0.326937 -1.273008,-0.369934 -0.114773,-0.01109 -0.230203,-0.01377 -0.345305,-0.02066 -0.615908,-0.0063 -1.23548,0.04273 -1.839121,0.169024 -0.118364,0.02476 -0.235217,0.05626 -0.352827,0.0844 -0.502304,0.151265 -1.01349,0.340885 -1.426491,0.67483 -0.07288,0.05893 -0.138136,0.126723 -0.207206,0.190085 -0.244845,0.263559 -0.418666,0.584854 -0.454213,0.947821 -0.02193,0.224036 0.0011,0.307588 0.02984,0.523304 0.09489,0.379918 0.294894,0.703767 0.577035,0.973542 0.171506,0.163988 0.309909,0.255937 0.500314,0.395472 0.403347,0.276158 0.843412,0.485207 1.310423,0.628595 0.354438,0.108825 0.560631,0.146404 0.925491,0.227033 1.217544,0.244176 2.455315,0.356406 3.691382,0.455911 1.613816,0.120472 3.229711,0.211482 4.845772,0.295779 1.392391,0.06873 2.784613,0.140555 4.177316,0.2028 1.012306,0.04187 2.024661,0.08132 3.036361,0.136121 0.56765,0.03217 1.134893,0.06976 1.701493,0.11684 0.62012,0.05151 0.69296,-0.825473 0.0728,-0.87698 v 0 c -0.57501,-0.04774 -1.150663,-0.08597 -1.726743,-0.118573 -1.01447,-0.05493 -2.029586,-0.09459 -3.04466,-0.136531 -1.390523,-0.06214 -2.780559,-0.133866 -4.17077,-0.202482 -1.607812,-0.08386 -3.21546,-0.174383 -4.82105,-0.294141 -1.196258,-0.09616 -2.394228,-0.2037 -3.572888,-0.438197 -0.3902,-0.0854 -0.783095,-0.16586 -1.157229,-0.309884 -0.264991,-0.102009 -0.511985,-0.244159 -0.749819,-0.39774 -0.313288,-0.226206 -0.5862,-0.410108 -0.724739,-0.786331 -0.0079,-0.04547 -0.03573,-0.185517 -0.03404,-0.24002 0.0055,-0.175922 0.07528,-0.329898 0.190315,-0.460873 0.113414,-0.110621 0.143177,-0.149778 0.280482,-0.239386 0.291516,-0.19025 0.626952,-0.310025 0.957194,-0.411545 0.101222,-0.02467 0.201753,-0.05236 0.303662,-0.07401 0.535612,-0.113747 1.085623,-0.158003 1.632408,-0.156253 0.09338,0.0049 0.186994,0.0064 0.280151,0.01455 0.335841,0.02926 0.662345,0.110491 0.961951,0.267623 0.151429,0.08292 0.304411,0.167316 0.431419,0.285949 0.4859,0.388719 1.035632,-0.298446 0.549733,-0.687165 z" />
  <path
     style="fill:#000000;fill-opacity:1;fill-rule:nonzero;stroke:none;stroke-width:0.264583"
     id="path4"
     d="m 101.52988,21.407909 c 0.26096,0.01322 0.52066,0.04264 0.78008,0.07289 0.99392,0.139587 1.99748,0.173174 2.99903,0.213842 1.72308,0.06443 3.44624,0.126817 5.16964,0.182006 1.49517,0.05561 2.99075,0.09992 4.48593,0.15533 0.58436,0.02252 1.16872,0.04523 1.75309,0.06754 0.6218,0.02374 0.65537,-0.855619 0.0336,-0.87936 v 0 c -0.5847,-0.02232 -1.16939,-0.04505 -1.75408,-0.06758 -1.49665,-0.05544 -2.9937,-0.09984 -4.49035,-0.155482 -1.72089,-0.05511 -3.44154,-0.117413 -5.16211,-0.181733 -0.9795,-0.03973 -1.96104,-0.07168 -2.93304,-0.208672 -0.26409,-0.03065 -0.52849,-0.06167 -0.79419,-0.07442 -0.61917,-0.06192 -0.70673,0.813716 -0.0876,0.875632 z" />
  <path
     style="fill:#000000;fill-opacity:1;fill-rule:nonzero;stroke:none;stroke-width:0.264583"
     id="path5"
     d="m 100.80688,25.901289 c 0.54885,-0.0088 1.09699,0.01291 1.64509,0.03885 1.52187,0.07968 3.04325,0.168233 4.56514,0.24766 1.41174,0.07299 2.82377,0.140171 4.2359,0.205018 0.83399,0.03274 1.66678,0.08817 2.49955,0.142682 0.56808,0.04239 1.136,0.0882 1.70287,0.144669 0.36042,0.03555 0.72008,0.07817 1.07999,0.118356 0.61841,0.06905 0.71606,-0.805513 0.0977,-0.874564 v 0 c -0.36342,-0.04058 -0.72659,-0.0836 -1.09052,-0.119468 -0.57675,-0.05731 -1.15453,-0.104201 -1.73252,-0.147116 -0.83846,-0.05488 -1.67696,-0.110621 -2.51665,-0.143634 -1.4103,-0.06476 -2.8205,-0.131858 -4.23041,-0.204747 -1.52333,-0.0795 -3.04615,-0.168163 -4.56947,-0.247877 -0.56193,-0.0265 -1.12393,-0.04858 -1.68662,-0.03983 -0.62225,0 -0.62225,0.880001 0,0.880001 z" />
  <path
     style="fill:#000000;fill-opacity:1;fill-rule:nonzero;stroke:none;stroke-width:0.264583"
     id="path6"
     d="m 117.29778,24.528375 c 0.35335,0 0.70669,0 1.06004,0 1.219,0.0024 2.43662,0.0602 3.65362,0.124233 1.19583,0.05878 2.39021,0.142165 3.58417,0.230356 1.08208,0.08615 2.16414,0.17255 3.24581,0.263698 0.84987,0.07636 1.70069,0.141066 2.55177,0.202264 0.57398,0.04089 1.14837,0.07579 1.72287,0.108555 0.3607,0.0206 0.72156,0.03851 1.08248,0.05495 0.2618,0.01192 0.52374,0.02025 0.78569,0.02784 0.20387,0.0047 0.40751,0.0083 0.61093,0.02268 0.23329,0.02313 0.46677,0.04335 0.70071,0.05844 0.19695,0.01153 0.39412,0.01889 0.59125,0.02641 0.6218,0.02371 0.65534,-0.855644 0.0335,-0.87936 v 0 c -0.1895,-0.0072 -0.37902,-0.01427 -0.56835,-0.02524 -0.23222,-0.01487 -0.4639,-0.03572 -0.6955,-0.05809 -0.21548,-0.01506 -0.43116,-0.01991 -0.6471,-0.02447 -0.25709,-0.0074 -0.51417,-0.0156 -0.77112,-0.0273 -0.35757,-0.01629 -0.71507,-0.03402 -1.07243,-0.05443 -0.57016,-0.03252 -1.14021,-0.06715 -1.70986,-0.107716 -0.84748,-0.06094 -1.69471,-0.125373 -2.54099,-0.201422 -1.0847,-0.0914 -2.16977,-0.178049 -3.25488,-0.264416 -1.20015,-0.08863 -2.40073,-0.172435 -3.60276,-0.231531 -1.23239,-0.06483 -2.46543,-0.123133 -3.69985,-0.125448 -0.35335,0 -0.70669,0 -1.06004,0 -0.62225,0 -0.62225,0.88 0,0.88 z" />
  <path
     style="fill:#000000;fill-opacity:1;fill-rule:nonzero;stroke:none;stroke-width:0.264583"
     id="path7"
     d="m 113.64854,24.188197 c -0.23275,0.249071 -0.45083,0.51107 -0.66904,0.772816 -0.30248,0.372071 -0.61633,0.734546 -0.92985,1.097282 -0.25775,0.289047 -0.50323,0.588598 -0.75007,0.886905 -0.15775,0.198583 -0.32275,0.391308 -0.48891,0.582871 -0.0658,0.07412 -0.13061,0.149032 -0.19651,0.223031 -0.4137,0.464815 0.24364,1.049875 0.65734,0.585063 v 0 c 0.0684,-0.07689 0.13585,-0.154597 0.20408,-0.231641 0.17049,-0.196736 0.34002,-0.394475 0.502,-0.598326 0.2428,-0.293457 0.48422,-0.588179 0.73785,-0.872458 0.31694,-0.366694 0.63418,-0.733166 0.94002,-1.109253 0.21107,-0.253211 0.42182,-0.506842 0.64719,-0.747601 0.41626,-0.462517 -0.23784,-1.051206 -0.6541,-0.588689 z" />
  <path
     style="fill:#000000;fill-opacity:1;fill-rule:nonzero;stroke:none;stroke-width:0.264583"
     id="path8"
     d="m 106.40834,25.73032 c -0.0264,0.265012 -0.0687,0.528103 -0.11132,0.790898 -0.10619,0.630552 -0.20696,1.261994 -0.29631,1.895155 -0.10211,0.837253 -0.2026,1.674577 -0.31822,2.510099 -0.098,0.709293 -0.20708,1.416937 -0.32244,2.123594 -0.0823,0.510839 -0.17197,1.020458 -0.25691,1.530866 -0.0543,0.340233 -0.10928,0.680376 -0.16297,1.020715 -0.0408,0.251322 -0.073,0.503981 -0.11254,0.75547 -0.0963,0.614764 0.77315,0.750895 0.86941,0.136133 v 0 c 0.0392,-0.251243 0.072,-0.50347 0.11239,-0.754539 0.0533,-0.337883 0.10787,-0.67555 0.16177,-1.01333 0.0851,-0.511302 0.1749,-1.02181 0.25735,-1.533546 0.11649,-0.713698 0.22666,-1.428393 0.32563,-2.144752 0.11549,-0.834758 0.21626,-1.67127 0.31791,-2.507798 0.0884,-0.627263 0.18848,-1.252773 0.29362,-1.877446 0.0473,-0.292203 0.0946,-0.584877 0.12111,-0.879843 0.0365,-0.62118 -0.84194,-0.672855 -0.87848,-0.05168 z" />
  <path
     style="fill:#000000;fill-opacity:1;fill-rule:nonzero;stroke:none;stroke-width:0.264583"
     id="path9"
     d="m 105.19663,36.11869 c -0.42275,-0.05511 -0.84435,-0.116951 -1.26502,-0.186103 -1.30122,-0.229952 -2.58852,-0.531865 -3.87533,-0.830413 -0.773023,-0.181221 -1.544323,-0.369652 -2.315834,-0.557154 -0.604652,-0.14695 -0.812472,0.708157 -0.207817,0.855109 v 0 c 0.774489,0.188225 1.548768,0.377376 2.324778,0.559279 1.305453,0.302848 2.611453,0.608949 3.931653,0.841558 0.44153,0.07238 0.88399,0.137996 1.3279,0.194111 0.61969,0.05633 0.69937,-0.820052 0.0797,-0.876387 z" />
  <path
     style="fill:#000000;fill-opacity:1;fill-rule:nonzero;stroke:none;stroke-width:0.264583"
     id="path10"
     d="m 101.00461,36.025438 c -0.0835,0.23486 -0.16859,0.469185 -0.25625,0.702521 -0.10918,0.289568 -0.22365,0.577094 -0.33261,0.866744 -0.0819,0.209121 -0.16163,0.419081 -0.2393,0.629806 -0.01,0.02463 -0.0198,0.04929 -0.0296,0.07393 -0.230433,0.578017 0.58701,0.903891 0.81744,0.325874 v 0 c 0.0126,-0.03184 0.0253,-0.06367 0.0379,-0.09551 0.077,-0.208923 0.15615,-0.417033 0.23727,-0.624382 0.10892,-0.289803 0.22368,-0.577358 0.33275,-0.867106 0.0959,-0.255547 0.19064,-0.511722 0.27856,-0.770122 0.17094,-0.598313 -0.6752,-0.840068 -0.84614,-0.241755 z" />
  <path
     style="fill:#000000;fill-opacity:1;fill-rule:nonzero;stroke:none;stroke-width:0.264583"
     id="path11"
     d="m 100.2496,32.200408 c -5.2e-4,-5.29e-4 -0.002,-0.0019 -0.002,-0.0013 0.12828,0.204573 0.28756,0.384347 0.44952,0.562451 0.29676,0.300755 0.61573,0.584857 0.96783,0.820021 0.0754,0.05039 0.1539,0.09613 0.23085,0.144193 0.39287,0.223874 0.81066,0.403412 1.23913,0.547264 0.0919,0.03084 0.18477,0.0585 0.27716,0.08776 0.55748,0.171022 1.12776,0.293862 1.70241,0.389994 0.0798,0.01214 0.15957,0.02429 0.23936,0.03644 0.61518,0.09354 0.74746,-0.776465 0.13228,-0.87 v 0 c -0.0756,-0.01148 -0.15124,-0.02297 -0.22685,-0.03444 -0.53411,-0.08882 -1.06409,-0.202954 -1.58235,-0.361188 -0.0826,-0.02598 -0.16564,-0.05054 -0.24779,-0.07791 -0.3692,-0.123029 -0.72963,-0.276051 -1.06957,-0.465781 -0.0615,-0.03777 -0.12419,-0.07356 -0.1844,-0.113308 -0.30148,-0.199035 -0.57349,-0.441999 -0.82846,-0.696677 -0.13832,-0.150439 -0.27538,-0.303294 -0.3813,-0.479057 -0.36168,-0.506349 -1.077763,0.0051 -0.71609,0.51149 z" />
  <path
     style="fill:#000000;fill-opacity:1;fill-rule:nonzero;stroke:none;stroke-width:0.264583"
     id="path12"
     d="m 137.34838,23.247334 c -0.0906,0.131649 -0.16548,0.273234 -0.2388,0.414942 -0.17792,0.343833 -0.29499,0.713847 -0.40209,1.084527 -0.1122,0.402458 -0.13974,0.82102 -0.11539,1.236836 0.005,0.07805 0.0132,0.155805 0.0199,0.233707 0.0393,0.33576 0.14093,0.660168 0.32238,0.947027 0.12468,0.197117 0.17525,0.235998 0.33345,0.407022 0.35126,0.336277 0.7853,0.563901 1.23913,0.729657 0.10072,0.03679 0.20348,0.06773 0.30523,0.101589 0.50335,0.154618 1.02513,0.242197 1.55121,0.262901 0.0971,0.0038 0.19433,0.0026 0.29149,0.0039 0.47814,-0.0086 0.95477,-0.09757 1.40377,-0.26316 0.0865,-0.0319 0.17053,-0.07017 0.2558,-0.105254 0.40342,-0.182703 0.77602,-0.430268 1.09091,-0.742579 0.0607,-0.06016 0.1168,-0.124685 0.1752,-0.187026 0.2769,-0.332973 0.50125,-0.708782 0.67462,-1.105387 0.0349,-0.07982 0.0656,-0.161421 0.0983,-0.242132 0.14888,-0.406796 0.27536,-0.827995 0.30757,-1.262285 0.007,-0.09099 0.006,-0.182385 0.009,-0.273577 -0.0163,-0.471911 -0.13058,-0.918173 -0.35304,-1.335418 -0.0436,-0.08175 -0.0944,-0.159444 -0.1416,-0.239166 -0.24524,-0.387161 -0.57198,-0.714962 -0.94797,-0.975827 -0.076,-0.05272 -0.15568,-0.09989 -0.23352,-0.149832 -0.35979,-0.214682 -0.75233,-0.370931 -1.15865,-0.472121 -0.0736,-0.01833 -0.14815,-0.03245 -0.22222,-0.04868 -0.38602,-0.07918 -0.7797,-0.08473 -1.17073,-0.05119 -0.30215,0.03299 -0.59593,0.110732 -0.88043,0.215529 -0.24605,0.09288 -0.46416,0.237765 -0.67485,0.392238 -0.17814,0.13476 -0.34827,0.279664 -0.51258,0.43087 -0.15982,0.143193 -0.31369,0.292504 -0.46121,0.448289 -0.11064,0.121076 -0.21228,0.249641 -0.30891,0.382019 -0.36612,0.503149 0.34544,1.020916 0.71156,0.517768 v 0 c 0.074,-0.102184 0.15233,-0.201037 0.23662,-0.295029 0.13368,-0.141462 0.27371,-0.276421 0.41871,-0.406308 0.13978,-0.129421 0.28535,-0.252536 0.43667,-0.36831 0.14495,-0.106627 0.29199,-0.211327 0.46115,-0.276885 0.21014,-0.07952 0.42817,-0.136208 0.65152,-0.163666 0.30261,-0.02844 0.6078,-0.02405 0.90701,0.03491 0.38243,0.08075 0.75716,0.200531 1.09413,0.403141 0.0606,0.03806 0.12246,0.07402 0.18164,0.114175 0.28335,0.192286 0.5327,0.43355 0.71793,0.722446 0.0342,0.05563 0.0712,0.109638 0.10261,0.166895 0.16174,0.294875 0.24711,0.596201 0.26644,0.932051 -10e-4,0.06561 7.9e-4,0.131332 -0.003,0.196828 -0.0217,0.355294 -0.13042,0.699019 -0.24924,1.031937 -0.0266,0.06644 -0.0514,0.133601 -0.0797,0.19932 -0.13508,0.313533 -0.30927,0.611777 -0.52214,0.878768 -0.0431,0.04707 -0.0846,0.09579 -0.12944,0.141221 -0.23852,0.241512 -0.52242,0.432888 -0.83021,0.574744 -0.0645,0.02733 -0.12789,0.05726 -0.1934,0.08198 -0.35689,0.134662 -0.73666,0.209616 -1.11776,0.21876 -0.0819,-7.94e-4 -0.16375,7.94e-4 -0.24555,-0.0021 -0.45117,-0.01622 -0.89885,-0.08874 -1.33088,-0.220226 -0.0863,-0.02828 -0.17339,-0.05436 -0.25895,-0.08485 -0.33353,-0.118819 -0.65846,-0.277135 -0.92282,-0.516192 -0.0374,-0.03785 -0.0771,-0.07355 -0.11209,-0.113567 -0.17637,-0.201464 -0.27399,-0.447468 -0.3058,-0.711911 -0.0349,-0.385265 -0.0433,-0.774605 0.0645,-1.150401 0.0904,-0.315695 0.18804,-0.631554 0.33858,-0.924655 0.0548,-0.106811 0.11067,-0.213653 0.17755,-0.313531 0.35684,-0.50977 -0.36408,-1.014417 -0.72093,-0.504647 z" />
  <path
     style="fill:#000000;fill-opacity:1;fill-rule:nonzero;stroke:none;stroke-width:0.264583"
     id="path13"
     d="m 144.09025,19.173094 c 0,0.2386 0,0.4772 0,0.715801 0,0.416065 0,0.83213 0,1.248196 -0.007,0.446122 -0.0213,0.89201 -0.0432,1.337624 -0.0124,0.461607 -0.0594,0.920823 -0.10183,1.380316 -0.0415,0.447764 -0.0684,0.896677 -0.092,1.345686 -0.021,0.446855 -0.0526,0.893117 -0.0756,1.339869 -0.014,0.443039 -0.0707,0.882935 -0.12125,1.322834 -0.0451,0.404665 -0.0955,0.808604 -0.15708,1.21108 -0.0646,0.448905 -0.16185,0.891876 -0.24576,1.337329 -0.0817,0.475906 -0.15607,0.953145 -0.22296,1.431374 -0.0557,0.409967 -0.0975,0.8216 -0.1343,1.233639 -0.0293,0.329961 -0.0504,0.660564 -0.0683,0.991319 -0.0152,0.28483 -0.0255,0.569878 -0.0343,0.85497 -0.007,0.261932 -0.0455,0.522017 -0.072,0.782544 -0.034,0.306078 -0.0547,0.613945 -0.0968,0.919023 -0.0476,0.303805 -0.0925,0.607951 -0.13009,0.913161 -0.0353,0.291209 -0.0573,0.58379 -0.0759,0.876475 -0.0152,0.188457 -0.033,0.376693 -0.0492,0.565065 -0.0533,0.619969 0.82348,0.69532 0.87676,0.07535 v 0 c 0.0168,-0.195011 0.0353,-0.389863 0.0507,-0.584994 0.0173,-0.275325 0.0379,-0.550566 0.071,-0.824513 0.037,-0.301725 0.0821,-0.602295 0.12874,-0.902668 0.0419,-0.314987 0.0665,-0.632095 0.1002,-0.948052 0.0285,-0.281041 0.0695,-0.561584 0.0761,-0.844254 0.009,-0.278305 0.0186,-0.556575 0.0335,-0.834628 0.0173,-0.320509 0.0377,-0.640874 0.0661,-0.960618 0.0354,-0.397444 0.0756,-0.794504 0.1293,-1.189958 0.0649,-0.464542 0.13719,-0.928095 0.21625,-1.39043 0.0857,-0.455343 0.18492,-0.908169 0.25083,-1.367052 0.0632,-0.413356 0.11517,-0.828186 0.16146,-1.24378 0.0526,-0.458181 0.11094,-0.916405 0.12582,-1.377833 0.0231,-0.446519 0.0547,-0.892541 0.0756,-1.339164 0.0229,-0.437392 0.049,-0.874695 0.0895,-1.310874 0.0436,-0.472 0.0914,-0.943769 0.10449,-1.417914 0.0226,-0.460035 0.0376,-0.920364 0.0443,-1.380927 0,-0.416066 0,-0.832131 0,-1.248196 0,-0.238601 0,-0.477201 0,-0.715801 0,-0.622254 -0.88,-0.622254 -0.88,0 z" />
  <path
     style="fill:#000000;fill-opacity:1;fill-rule:nonzero;stroke:none;stroke-width:0.264583"
     id="path14"
     d="m 142.41061,38.500792 c -0.42822,-0.03291 -0.85686,-0.05925 -1.28504,-0.09285 -1.06899,-0.09452 -2.13925,-0.17104 -3.21057,-0.23328 -1.18609,-0.06073 -2.37293,-0.105508 -3.55953,-0.154861 -0.77045,-0.02564 -1.53933,-0.08225 -2.30785,-0.140589 -0.0945,-0.0072 -0.18905,-0.01447 -0.28358,-0.0217 -0.62044,-0.04745 -0.68755,0.829985 -0.0671,0.877438 v 0 c 0.0947,0.0072 0.18939,0.01447 0.28408,0.02172 0.77852,0.05909 1.55742,0.11629 2.33789,0.142351 1.18178,0.04915 2.3638,0.09377 3.54508,0.154141 1.0654,0.06185 2.12973,0.13807 3.19281,0.232069 0.45102,0.03532 0.90247,0.06548 1.35382,0.09555 0.62225,0 0.62225,-0.880001 0,-0.880001 z" />
  <path
     style="fill:#000000;fill-opacity:1;fill-rule:nonzero;stroke:none;stroke-width:0.264583"
     id="path15"
     d="m 142.48592,40.539359 c -0.56765,0 -1.1353,0 -1.70296,0 -0.90594,0.0029 -1.81168,-0.02177 -2.71738,-0.03958 -0.86983,-0.01384 -1.73978,-0.01921 -2.6097,-0.02453 -0.66003,0.0011 -1.31983,-0.01127 -1.97959,-0.02864 -0.44033,-0.0078 -0.87962,-0.04072 -1.31939,-0.06164 -0.15942,-0.0071 -0.31893,-0.0123 -0.47843,-0.01746 -0.62192,-0.02016 -0.65043,0.859383 -0.0285,0.879538 v 0 c 0.15509,0.005 0.31019,0.01003 0.46522,0.01693 0.44595,0.02109 0.8914,0.05468 1.33793,0.06233 0.66569,0.01751 1.33143,0.02998 1.9974,0.02893 0.86594,0.0053 1.7319,0.01061 2.59776,0.02437 0.91147,0.01791 1.82297,0.0427 2.73468,0.03975 0.56766,0 1.13531,0 1.70296,0 0.62226,0 0.62226,-0.880001 0,-0.880001 z" />
  <path
     style="fill:#000000;fill-opacity:1;fill-rule:nonzero;stroke:none;stroke-width:0.264583"
     id="path16"
     d="m 142.34318,42.436337 c -0.29814,0.04764 -0.59992,0.07566 -0.89987,0.111794 -0.27025,0.03131 -0.13585,0.01614 -0.40319,0.04556 -0.61851,0.06811 -0.52219,0.942822 0.0963,0.874715 v 0 c 0.27363,-0.03014 0.13625,-0.01463 0.41213,-0.04659 0.34578,-0.04166 0.69536,-0.06803 1.03636,-0.139333 0.59831,-0.170947 0.35656,-1.017087 -0.24175,-0.846142 z" />
  <path
     style="fill:#000000;fill-opacity:1;fill-rule:nonzero;stroke:none;stroke-width:0.264583"
     id="path17"
     d="m 107.8194,21.175801 c 0.0125,-0.516765 0.0226,-1.033576 0.0384,-1.550283 0.0241,-1.079524 0.07,-2.158123 0.12592,-3.236402 0.0468,-0.910969 0.107,-1.821192 0.19048,-2.729553 0.0539,-0.563628 0.11922,-1.126096 0.18569,-1.68836 0.0243,-0.202358 0.0472,-0.404879 0.07,-0.607415 0.0695,-0.618365 -0.80504,-0.716594 -0.8745,-0.09823 v 0 c -0.0226,0.200841 -0.0453,0.401667 -0.0694,0.602331 -0.0674,0.569872 -0.13348,1.139957 -0.18809,1.711219 -0.0844,0.919993 -0.14567,1.841829 -0.19298,2.764459 -0.0562,1.084532 -0.10244,2.169388 -0.1267,3.25517 -0.0154,0.506113 -0.0266,1.012298 -0.0369,1.518526 -0.0414,0.620876 0.83665,0.679413 0.87804,0.05854 z" />
  <path
     style="fill:#000000;fill-opacity:1;fill-rule:nonzero;stroke:none;stroke-width:0.264583"
     id="path18"
     d="m 107.97391,11.714612 c 0.45524,0.04297 0.91335,0.04605 1.37019,0.05609 0.78354,0.0052 1.56606,0.03306 2.34793,0.08306 0.61443,0.04691 1.22768,0.107566 1.8413,0.163773 0.40289,0.03934 0.80686,0.0646 1.21104,0.08603 0.62138,0.03294 0.66796,-0.845828 0.0466,-0.878766 v 0 c -0.39293,-0.02082 -0.78567,-0.04527 -1.17735,-0.0836 -0.62167,-0.05694 -1.24296,-0.118454 -1.86547,-0.165653 -0.79412,-0.05067 -1.58889,-0.07937 -2.38469,-0.08463 -0.4245,-0.0093 -0.84992,-0.01285 -1.27323,-0.04859 -0.61679,-0.08224 -0.7331,0.790042 -0.1163,0.872281 z" />
  <path
     style="fill:#000000;fill-opacity:1;fill-rule:nonzero;stroke:none;stroke-width:0.264583"
     id="path19"
     d="m 111.31067,13.233733 c 0.003,3.17e-4 0.0107,0.0014 0.008,9.52e-4 -0.0495,-0.0081 -0.10097,-0.01436 -0.15108,-0.01321 -0.03,6.87e-4 -0.0599,0.0039 -0.0898,0.0058 -0.12845,0.02057 -0.25704,0.06311 -0.36235,0.142144 -0.10045,0.0754 -0.10519,0.09142 -0.18252,0.184062 -0.1381,0.196068 -0.17927,0.3948 -0.20054,0.627764 -0.0169,0.212788 0.0368,0.429178 0.19102,0.584828 0.0381,0.0384 0.0845,0.0675 0.12672,0.101255 0.13571,0.0802 0.28696,0.125429 0.44487,0.128644 0.0965,0.002 0.12404,-0.0066 0.2174,-0.02147 0.15524,-0.03466 0.30101,-0.103559 0.42371,-0.205253 0.0238,-0.01969 0.0455,-0.04171 0.0682,-0.06256 0.10705,-0.10545 0.18139,-0.221392 0.24315,-0.357305 0.0119,-0.04414 0.0283,-0.08732 0.0358,-0.132428 0.0161,-0.09714 0.005,-0.206619 -0.028,-0.299427 -0.0352,-0.09816 -0.0456,-0.10237 -0.10298,-0.188538 -0.0681,-0.08309 -0.15112,-0.150091 -0.24618,-0.199874 -0.047,-0.02463 -0.0732,-0.03282 -0.12147,-0.05081 -0.10734,-0.03747 -0.21999,-0.05582 -0.33372,-0.04349 -0.0305,0.0033 -0.0603,0.01137 -0.0905,0.01705 -0.13334,0.03478 -0.24635,0.108626 -0.34823,0.198841 -0.0761,0.07385 -0.14155,0.16131 -0.18055,0.26073 -0.01,0.02532 -0.0168,0.05174 -0.0252,0.07761 -0.005,0.04335 -0.0186,0.08651 -0.0155,0.130063 0.0102,0.145149 0.0382,0.216287 0.12591,0.327729 0.0243,0.03085 0.0544,0.05727 0.0863,0.08019 0.10403,0.07482 0.12924,0.07147 0.24818,0.106021 0.13453,0.02238 0.26924,0.0073 0.39711,-0.03926 0.0618,-0.02248 0.0874,-0.0373 0.14348,-0.06567 0.10617,-0.06148 0.20409,-0.137676 0.28271,-0.232396 0.0149,-0.01799 0.0282,-0.03731 0.0423,-0.05597 0.0936,-0.140777 0.12882,-0.299103 0.0988,-0.465888 -0.005,-0.02733 -0.0137,-0.05383 -0.0205,-0.08075 -0.0245,-0.048 -0.0443,-0.09875 -0.0735,-0.143997 -0.0564,-0.0872 -0.1604,-0.163887 -0.25316,-0.20989 -0.0215,-0.01067 -0.0439,-0.01943 -0.0659,-0.02915 -0.13327,-0.04704 -0.26109,-0.04777 -0.3979,-0.02359 -0.60975,0.124139 -0.43419,0.98645 0.17556,0.862311 v 0 c -0.0385,0.0039 -0.0583,-0.0046 -0.10794,-0.02305 -0.0651,-0.0366 -0.0955,-0.111822 -0.11968,-0.17847 -0.0138,-0.07968 -0.001,-0.156817 0.0503,-0.222079 0.0284,-0.01861 -0.02,0.01849 -0.0165,0.02188 -0.006,0.0032 -0.0116,0.006 -0.017,0.0096 -0.002,0.0011 -0.004,0.0052 -0.002,0.0055 0.007,9.26e-4 0.0136,-2.91e-4 0.0204,2.32e-4 0.0138,0.0011 0.0286,0.0055 0.0417,0.0088 0.0572,0.02279 0.068,0.02252 0.11984,0.06571 0.089,0.07422 0.11832,0.182698 0.12167,0.294781 7.9e-4,0.02946 -0.01,0.0581 -0.0149,0.08715 -0.009,0.02192 -0.0241,0.07021 -0.0507,0.082 2.6e-4,-7.14e-4 0.002,-0.0022 10e-4,-0.0021 -0.002,1.84e-4 -0.006,0.0043 -0.006,0.0025 0.002,-0.0026 0.0102,-0.0057 0.007,-0.0055 -0.0152,9.26e-4 -0.028,0.01863 -0.0451,0.01246 -0.0313,0.0028 -0.0663,0.0072 -0.096,-0.0066 -0.007,-0.0034 0.0284,0.0081 0.0232,0.0059 0.001,5.8e-5 0.003,0.0012 0.003,1.75e-4 -2.7e-4,-0.0017 -0.002,-0.0024 -0.004,-0.0034 -0.005,-0.0037 -0.01,-0.007 -0.0141,-0.01086 -0.01,-0.0084 -0.0133,-0.02643 -0.0241,-0.03228 -0.007,-0.01322 -0.0157,-0.02585 -0.0217,-0.03966 -0.0326,-0.07424 -0.0219,-0.150408 0.0109,-0.223286 -0.007,0.02808 -0.0277,0.05133 -0.0454,0.07338 -0.0103,0.01708 -0.0258,0.03003 -0.0438,0.03777 -0.002,0.0014 -0.005,0.0024 -0.008,0.0042 -0.002,0.0018 -0.003,0.0058 -0.005,0.007 -0.0121,0.0055 -0.0127,-0.0013 0.005,0.01807 0.0397,0.04515 0.0576,0.06672 0.0689,0.12784 0.003,0.01521 1.7e-4,0.01865 -0.004,0.0304 -0.001,-0.01392 7.9e-4,-0.02791 10e-4,-0.04186 0.004,-0.05456 0.0111,-0.108658 0.0193,-0.162541 -0.0149,-0.0029 0.001,-8.47e-4 -0.0296,0.01227 -0.008,0.0035 -0.0242,-0.0077 -0.0317,-0.002 -0.0554,-0.0042 0.0342,-2.13e-4 0.0343,0.0042 0.61745,0.07718 0.7266,-0.796023 0.10915,-0.873204 z" />
  <path
     style="fill:#000000;fill-opacity:1;fill-rule:nonzero;stroke:none;stroke-width:0.264583"
     id="path20"
     d="m 112.02035,11.030904 c 0,-0.20458 0,-0.409159 0,-0.613738 0,-0.4264359 0,-0.8528729 0,-1.2793094 0,-0.6222539 -0.88,-0.6222539 -0.88,0 v 0 c 0,0.4264365 0,0.8528735 0,1.2793094 0,0.204579 0,0.409158 0,0.613738 0,0.622254 0.88,0.622254 0.88,0 z" />
</svg>
