<?xml version="1.0" encoding="UTF-8" standalone="no"?>
<svg
   id="svg8"
   version="1.1"
   viewBox="0 0 107.78533 57.573334"
   height="57.573334mm"
   width="107.78532mm"
   sodipodi:docname="22 soweli ale li lon supa..svg"
   inkscape:version="1.3 (0e150ed6c4, 2023-07-21)"
   xmlns:inkscape="http://www.inkscape.org/namespaces/inkscape"
   xmlns:sodipodi="http://sodipodi.sourceforge.net/DTD/sodipodi-0.dtd"
   xmlns="http://www.w3.org/2000/svg"
   xmlns:svg="http://www.w3.org/2000/svg"
   xmlns:rdf="http://www.w3.org/1999/02/22-rdf-syntax-ns#"
   xmlns:cc="http://creativecommons.org/ns#"
   xmlns:dc="http://purl.org/dc/elements/1.1/">
  <sodipodi:namedview
     id="namedview1"
     pagecolor="#ffffff"
     bordercolor="#000000"
     borderopacity="0.25"
     inkscape:showpageshadow="2"
     inkscape:pageopacity="0.0"
     inkscape:pagecheckerboard="0"
     inkscape:deskcolor="#d1d1d1"
     inkscape:document-units="mm"
     inkscape:zoom="1.3599457"
     inkscape:cx="165.08012"
     inkscape:cy="71.694039"
     inkscape:window-width="1920"
     inkscape:window-height="1051"
     inkscape:window-x="-9"
     inkscape:window-y="-9"
     inkscape:window-maximized="1"
     inkscape:current-layer="svg8" />
  <defs
     id="defs2" />
  <metadata
     id="metadata5">
    <rdf:RDF>
      <cc:Work
         rdf:about="">
        <dc:format>image/svg+xml</dc:format>
        <dc:type
           rdf:resource="http://purl.org/dc/dcmitype/StillImage" />
        <dc:title />
      </cc:Work>
    </rdf:RDF>
  </metadata>
  <g
     transform="translate(-84.094311,-71.853997)"
     id="layer1">
    <g
       id="g856"
       transform="matrix(0.26458333,0,0,0.26458333,84.094311,77.83358)">
      <ellipse
         id="ellipse815"
         ry="35"
         rx="70"
         cy="160"
         cx="80"
         style="opacity:0.2" />
      <path
         id="path817"
         d="m 100,80 c -2.8,0 -5,1.1 -5,2.5 l 35,97 c 0,1.4 2.2,2.5 5,2.5 2.8,0 5,-1.1 5,-2.5 l -35,-97 c 0,-1.4 -2.2,-2.5 -5,-2.5 z"
         style="fill:#825012" />
      <path
         id="path819"
         d="m 100,85 c -2.8,0 -5,-1.1 -5,-2.5 l 35,97 c 0,1.4 2.2,2.5 5,2.5 2.8,0 5,-1.1 5,-2.5 l -35,-97 c 0,1.4 -2.2,2.5 -5,2.5 z"
         style="opacity:0.2" />
      <path
         id="path821"
         d="m 100,73 c -2.8,0 -5,1.1 -5,2.5 l 35,63 c 0,1.4 2.2,2.5 5,2.5 2.8,0 5,-1.1 5,-2.5 l -35,-63 c 0,-1.4 -2.2,-2.5 -5,-2.5 z"
         style="fill:#825012" />
      <path
         id="path823"
         d="m 100,78 c -2.8,0 -5,-1.1 -5,-2.5 l 35,63 c 0,1.4 2.2,2.5 5,2.5 2.8,0 5,-1.1 5,-2.5 l -35,-63 c 0,1.4 -2.2,2.5 -5,2.5 z"
         style="opacity:0.2" />
      <path
         id="path825"
         d="m 60,80 c 2.8,0 5,1.1 5,2.5 l -35,97 c 0,1.4 -2.2,2.5 -5,2.5 -2.8,0 -5,-1.1 -5,-2.5 l 35,-97 C 55,81.1 57.2,80 60,80 Z"
         style="fill:#825012" />
      <path
         id="path827"
         d="m 60,85 c 2.8,0 5,-1.1 5,-2.5 l -35,97 c 0,1.4 -2.2,2.5 -5,2.5 -2.8,0 -5,-1.1 -5,-2.5 l 35,-97 c 0,1.4 2.2,2.5 5,2.5 z"
         style="opacity:0.2" />
      <path
         id="path829"
         d="m 60,73 c 2.8,0 5,1.1 5,2.5 l -35,63 c 0,1.4 -2.2,2.5 -5,2.5 -2.8,0 -5,-1.1 -5,-2.5 l 35,-63 C 55,74.1 57.2,73 60,73 Z"
         style="fill:#825012" />
      <path
         id="path831"
         d="m 60,78 c 2.8,0 5,-1.1 5,-2.5 l -35,63 c 0,1.4 -2.2,2.5 -5,2.5 -2.8,0 -5,-1.1 -5,-2.5 l 35,-63 c 0,1.4 2.2,2.5 5,2.5 z"
         style="opacity:0.2" />
      <path
         id="path833"
         d="M 80,40 C 35.8,40 0,57.9 0,80 v 10 c 0,22.1 35.8,40 80,40 44.2,0 80,-17.9 80,-40 V 80 C 160,57.9 124.2,40 80,40 Z"
         style="fill:#825012" />
      <path
         id="path835"
         d="M 80,120 C 35.8,120 0,102.1 0,80 v 10 c 0,22.1 35.8,40 80,40 44.2,0 80,-17.9 80,-40 V 80 c 0,22.1 -35.8,40 -80,40 z"
         style="opacity:0.2" />
    </g>
    <g
       id="g989"
       transform="matrix(0.26458333,0,0,0.26458333,92.534519,62.408372)">
      <path
         id="path961"
         d="m 103.2,117 c 12.7,8.2 34.5,15.5 14.8,27.5 -18.4,11.2 -39.2,-0.4 -49.5,-10.6 -20.7,-20.6 -56.1,-20.3 -31.1,-23.8 1.9,-0.3 15.8,0 29.6,2 14.3,2 32.4,2.4 36.2,4.9 z"
         style="opacity:0.2" />
      <path
         id="path963"
         d="m 96.1,110.4 c 0,0 2,4.7 1.9,6.2 -0.1,1.5 -0.8,3.5 0.1,4.3 0.9,0.7 7.8,5.2 9.1,7.1 1.3,1.9 2,5.2 6.6,3 4.6,-2.2 3.1,-5.5 0.9,-6.4 -2.1,-0.9 -6.5,-1.7 -8.8,-3.9 -2.3,-2.2 -3.2,-2.9 -1.2,-6.3 2,-3.4 2.9,-6.1 2.9,-6.1 z"
         style="opacity:1;fill:#f8ebcb" />
      <path
         id="path965"
         d="m 96.1,110.4 c 0,0 2,4.7 1.9,6.2 -0.1,1.5 -0.8,3.5 0.1,4.3 0.9,0.7 7.8,5.2 9.1,7.1 1.3,1.9 2,5.2 6.6,3 4.6,-2.2 3.1,-5.5 0.9,-6.4 -2.1,-0.9 -6.5,-1.7 -8.8,-3.9 -2.3,-2.2 -3.2,-2.9 -1.2,-6.3 2,-3.4 2.9,-6.1 2.9,-6.1 z"
         style="opacity:0.2" />
      <path
         id="path967"
         d="m 86.8,47.8 c 0.8,-1.5 2.6,-3.6 5.5,-5 2.9,-1.4 5,-1.9 5,-1.9 0,0 1.7,-3.1 5.5,-1.8 3.8,1.3 7.5,8.5 8.4,11.6 0.9,3.1 2.2,8.7 1,9.4 -1.2,0.7 -3,-2.1 -3,-2.1 0,0 1,4.5 1.8,7.3 0.7,2.8 -0.1,7.7 0.7,9.3 0.7,1.6 4.2,7.5 3.8,13.7 -0.4,6.2 -2.8,12.2 -2.9,14.8 -0.1,2.6 3.4,16.8 4,17.9 0.6,1.1 0.2,4.4 1.2,6.4 1,2 8.7,3.9 6.2,7.8 -2.4,3.9 -9.3,2 -10.3,-0.2 -1,-2.2 0.1,-4.6 -1.1,-8.8 -1.2,-4.2 -6.7,-15.8 -6.7,-15.8 0,0 -2,0.6 -4.8,0.9 -2.9,0.4 -5.9,3.9 -4.9,9.7 1,5.8 2,8 2.6,9.4 0.6,1.4 0.2,4.6 1.1,6.4 0.9,1.9 7.2,4.2 4.8,7.3 -2.4,3.1 -7.5,3.2 -10.2,0.6 -2.7,-2.6 -0.4,-3.8 -2.2,-10.2 -1.9,-6.4 -4,-13.8 -4,-13.8 l -6.3,1.5 -4.4,9.3 c 0,0 3.8,2.8 5.7,3.9 1.9,1.1 5.7,0.2 7,1.9 1.3,1.7 1.8,5.5 -2.2,7 -4,1.5 -6.3,-3.4 -7.7,-4.5 -1.4,-1 -7,-3.3 -8.5,-5 -1.5,-1.7 -0.2,-5.8 -0.2,-5.8 0,0 -5.9,-0.6 -8.8,-4.4 -2.9,-3.8 -2.5,-4.6 -3.7,-5.5 -1.2,-0.9 -3.1,-1.7 -8.8,-1.1 -5.7,0.6 -12.7,-1.8 -15.7,-5.2 -3.1,-3.4 -3.7,-11.3 -2.9,-12 0.8,-0.7 2.2,4.5 3.8,5.7 1.6,1.2 5.3,4.2 9.7,3.8 4.4,-0.4 12.5,-3.6 12.5,-3.6 0,0 4.6,-12.8 10.8,-19.7 6.2,-7 14.6,-11.7 15.9,-16.8 1.1,-5.1 1,-19.9 2.3,-22.4 z"
         style="opacity:1;fill:#f8ebcb" />
      <g
         id="g971">
        <path
           id="path969"
           d="m 84.6,108.1 c 0,0 -1.2,1.6 -4,1.6 -1.5,0 -3.7,-0.2 -5.3,-0.4 0.6,0.1 1.4,0.3 2.2,0.6 2.8,0.9 3.9,2.1 5.1,4.6 1.1,2.5 -0.8,7.7 -0.8,7.7 l 6.3,-1.5 c 0,0 -0.7,-2.1 -1,-3.2 -0.3,-1 -2.6,-6.6 -2.5,-9.4 z"
           style="opacity:0.2" />
      </g>
      <path
         id="path973"
         d="m 94.9,65.4 c -0.4,-1.5 -1.8,-5.1 -4,-7.5 -1.6,-1.8 -3,-5.8 -3.6,-8.3 l -1.1,0.3 c -0.6,3.7 -0.8,10.7 -1.3,15.8 0.9,0.7 4.2,1.9 5.3,2.5 4.7,2.6 5.5,0.5 4.7,-2.8 z"
         style="opacity:0.2" />
      <path
         id="path975"
         d="m 93.7,52.8 c 0,0 -0.1,-2.2 0.8,-3.1 0.8,-0.9 2.5,-0.6 1.7,1.3 -0.8,2 -2.5,1.8 -2.5,1.8 z"
         style="opacity:1;fill:#262626" />
      <path
         id="path977"
         d="m 102.9,45.7 c 0,0 -0.2,-1.1 0.7,-1.5 0.9,-0.3 1.8,1.5 1.8,1.5 z"
         style="opacity:1;fill:#262626" />
      <path
         id="path979"
         d="m 111.1,53.4 c 0,0 -0.3,-0.6 -1,-0.8 -0.6,-0.2 -1.3,-0.1 -2.1,0.2 l -0.9,-1.8 -0.3,0.2 0.9,1.8 c -1.3,0.7 -1.9,1.5 -2.6,2.5 -0.4,0.6 -0.9,1.3 -1.6,1.9 -1.8,1.8 -2.8,2.1 -2.8,2.1 -0.1,0 -0.1,0.1 -0.1,0.2 0,0.1 0.1,0.1 0.2,0.1 0,0 0,0 0.1,0 0,0 1.1,-0.4 3,-2.2 0.7,-0.7 1.2,-1.4 1.6,-2 0.7,-1 1.3,-1.8 2.6,-2.5 0.8,-0.4 1.4,-0.5 1.9,-0.3 0.6,0.2 0.8,0.6 0.8,0.6 0,0.1 0.2,0.1 0.2,0.1 0.1,0.1 0.1,0 0.1,-0.1 z"
         style="opacity:1;fill:#262626" />
      <path
         id="path981"
         d="m 87.4,47.1 c -0.8,-0.5 -2.7,0.7 -4.1,3.4 -1.4,2.7 -3.4,7.5 -1.8,9.9 1.6,2.4 4.3,4.5 6.7,5.4 2.3,0.9 5,2.6 5.7,2.1 0.7,-0.5 -1.1,-5.7 -3,-8.4 -1.9,-2.7 -4,-5.8 -4,-5.8 0,0 2.5,-5.3 0.5,-6.6 z"
         style="opacity:1;fill:#f8ebcb" />
      <path
         id="path983"
         d="m 111.1,50.6 c 0.7,1.7 0.5,3.5 -0.1,5.2 -0.6,1.6 -1.7,2.3 -1.7,2.3 v 0.1 c 0.3,0.5 1.8,2.7 2.9,2 1.2,-0.7 -0.1,-6.3 -1,-9.4 -0.9,-3.1 -4.6,-10.2 -8.4,-11.6 -3.5,-1.2 -5.2,1.3 -5.5,1.7 1.6,0 4.4,0.4 5.9,1.9 1.6,1.5 2.6,2.4 3.6,3.8 1,1.4 3.5,2.2 4.3,4 z"
         style="opacity:0.2" />
      <path
         id="path985"
         d="m 102.6,48.5 c -0.7,1.6 1.8,4 4.3,2.9 2.5,-1.2 1.5,-4 0.7,-4.6 -0.8,-0.7 -4.2,-0.2 -5,1.7 z"
         style="opacity:1;fill:#262626" />
      <path
         id="path987"
         d="M 112.2,69.8 C 108,70.5 102.9,70.9 97.7,70.6 90,70.3 85.7,69 84,68 c -0.1,0.7 -0.2,1.4 -0.4,2 -0.2,0.6 -0.4,1.3 -0.8,1.9 4,2 10.5,2.6 14.7,2.7 1.1,0 2.2,0.1 3.3,0.1 3.7,0 7.7,-0.2 11.5,-0.9 -0.2,-1 -0.1,-2.5 -0.1,-4 z"
         style="opacity:1;fill:#262626" />
    </g>
    <g
       id="g1031"
       transform="matrix(0.26458333,0,0,0.26458333,84.200144,61.111914)">
      <ellipse
         id="ellipse1013"
         ry="14.6"
         rx="26.799999"
         cy="136.89999"
         cx="40.900002"
         transform="matrix(0.9564,-0.2919,0.2919,0.9564,-38.1725,17.888)"
         style="opacity:0.2" />
      <path
         id="path1015"
         d="m 41.1,114.4 c 0,0 -12.3,0.8 -17.3,2.2 -5,1.4 -3.7,8.6 0.8,11.3 4.5,2.7 7.4,3.8 7.4,3.8 0,0 -7.3,0.1 -9.2,1 -1.9,0.9 -6,2.7 -5.6,5.4 0.4,2.7 3.8,4.1 6.3,3.1 2.4,-1 6.2,-4.2 8.3,-4.7 2.1,-0.5 8.3,0 8.8,-0.5 0.5,-0.5 0.9,-1.3 0.9,-1.3 l 3.5,0.9 12.7,-12.9 z"
         style="fill:#825012" />
      <path
         id="path1017"
         d="m 41.1,114.4 c 0,0 -12.3,0.8 -17.3,2.2 -5,1.4 -3.7,8.6 0.8,11.3 4.5,2.7 7.4,3.8 7.4,3.8 0,0 -7.3,0.1 -9.2,1 -1.9,0.9 -6,2.7 -5.6,5.4 0.4,2.7 3.8,4.1 6.3,3.1 2.4,-1 6.2,-4.2 8.3,-4.7 2.1,-0.5 8.3,0 8.8,-0.5 0.5,-0.5 0.9,-1.3 0.9,-1.3 l 3.5,0.9 12.7,-12.9 z"
         style="opacity:0.2" />
      <path
         id="path1019"
         d="m 63.7,127.2 c -0.2,-2.9 -4.9,-6.2 -10.4,-4.4 -5.5,1.8 -10.4,7.2 -10,10.4 0.4,3.2 4.1,6.8 4.1,6.8 0,0 -4.3,-0.1 -5.9,1.3 -1.7,1.4 -1.4,2.4 -2.7,4.2 -1.3,1.8 -3.1,4.2 -0.3,5.2 2.8,1 5,0.9 6.4,-0.6 1.4,-1.5 1.8,-4.9 1.8,-4.9 0,0 5.1,-1.2 6.4,-1.9 2.6,-1.4 1.4,-4.6 1.4,-4.6 0,0 4.3,-1 6.6,-4.2 2.3,-3.2 2.9,-3.4 2.6,-7.3 z"
         style="fill:#825012" />
      <path
         id="path1021"
         d="m 14.5,64.7 c 2.5,-2.4 7.6,-5.6 8.1,-6.7 0.5,-1.2 -0.7,-5.2 0.4,-5.9 1.1,-0.7 3.5,-1.4 3.5,-1.4 0,0 0,-2.1 0.8,-4.8 0.8,-2.7 1,-5.3 1,-5.3 0,0 2.3,2.6 2.8,4.1 0.5,1.5 2.2,3.5 2.2,3.5 0,0 2.3,-0.7 4.5,0.4 1.9,0.9 2.5,1.8 2.5,1.8 L 41.2,46 c 0,0 2.5,2.6 3.1,6.1 0.5,3 0.4,3.8 0.4,3.8 0,0 2.2,4.6 2.4,9.5 0.2,4.9 2.3,9.8 5.6,14.3 3.3,4.5 9,11 10.1,17.3 1.1,6.3 4.2,17.6 3.9,22.7 -0.3,5.4 -0.8,13.8 -5.7,17.2 -3.3,2.3 -6.4,1.8 -6.4,1.8 0,0 -4.9,-4.2 -5,-5.1 -0.1,-0.9 7,-6.8 8.8,-8.3 1.8,-1.4 0.5,-2.6 0.5,-2.6 0,0 -4.3,-1.1 -6.2,-1.5 -4.6,-1.2 -9,-4 -9,-4 0,0 -1.5,5.3 -1.3,8.7 0.3,3.4 0.4,6.9 -1.1,9.1 -1.5,2.2 -3.4,6.4 -3.5,8.7 -0.1,2.3 -0.6,5.3 -2.9,6.4 -2.3,1.2 -6.6,-0.2 -6.6,-1.5 0,-1.3 1.5,-3.2 3,-4.8 1.5,-1.6 5.3,-10.1 5.7,-12.6 0.4,-2.5 0.5,-18.2 0.5,-18.2 l -5.6,-2 c 0,0 0.1,8.7 0.2,11.4 0.1,2.8 -0.2,6.3 -1.5,10.2 -1.3,3.9 -2.6,9.3 -3.1,10.7 -0.5,1.3 -2,3.2 -3.9,3.5 -3.2,0.4 -6.2,-1.5 -5.3,-3.3 0.9,-1.7 3.7,-3.8 5,-6 1.4,-2.4 3.2,-6.2 3.4,-10.3 0.3,-8 -1.9,-19.9 -2.3,-22.1 -0.4,-2.2 -3,-4.7 -2,-11 1,-6.3 5.1,-10.9 5.2,-13.1 0.1,-2.2 1.3,-8.3 -0.4,-9 -1.7,-0.7 -6.3,2 -10.5,-1.3 -4.2,-3.2 -2.2,-6 -2.2,-6 z"
         style="fill:#2d3134" />
      <path
         id="path1023"
         d="m 39.9,65.8 c -0.4,-1 -7.1,-1 -12.8,-2.1 C 23.6,63 19.3,62.9 16.6,63 c -0.8,0.6 -1.5,1.2 -2.1,1.8 0,0 -2,2.8 2.1,6.1 4.1,3.3 8.8,0.5 10.5,1.3 0.5,0.2 0.8,1 0.9,2 0.6,1.2 1.6,2.5 2.6,2.2 1.8,-0.6 9.7,-9.6 9.3,-10.6 z"
         style="fill:#825012" />
      <path
         id="path1025"
         d="m 28.5,59.5 c -0.1,-0.7 3.8,-0.7 3.9,-0.1 0.1,0.6 -3.7,1.4 -3.9,0.1 z" />
      <path
         id="path1027"
         d="m 39.7,59.9 c -1.4,-0.7 -1.2,-3.9 0,-6.3 1.2,-2.3 2.1,-5.3 2.1,-5.3 0,0 2.4,4.7 2,7.4 -0.4,2.6 -1.8,5.3 -4.1,4.2 z"
         style="fill:#825012" />
      <path
         id="path1029"
         d="m 15.8,66.9 c -0.7,-0.6 -1.9,-2.2 -1.3,-3.7 0.6,-1.4 4,-2.9 5.6,-1.6 1.6,1.3 0.2,4.1 -0.5,4.9 -0.8,0.9 -2.7,1.3 -3.8,0.4 z"
         style="fill:#262626" />
    </g>
    <g
       id="g882"
       transform="matrix(0.26458333,0,0,0.26458333,92.984311,68.573163)">
      <path
         id="path858"
         d="m 54.4,127.4 c 9.1,5.9 23.5,12.9 10.6,19.8 C 51.3,154.5 33.1,145.9 26.3,138 17.2,127.5 6.9,124 2.4,122.8 c -3.7,-1 -3.8,-3.1 4.4,-1.8 1.4,0.2 11.6,1.5 21.6,2.9 10.2,1.4 23.2,1.7 26,3.5 z"
         style="opacity:0.2" />
      <path
         id="path860"
         d="m 46.3,127.9 c 0,0 0.8,2.9 2.8,4.1 2,1.2 6.1,3.4 6.5,4.3 0.4,0.9 1.4,3 3.5,2.6 2.1,-0.4 4.8,-2.2 4.1,-3.5 -0.7,-1.3 -1.7,-0.9 -3.8,-1.4 -2.1,-0.5 -5.2,-2.4 -6,-3.7 -0.9,-1.3 -1.7,-4 -1.7,-4 z"
         style="fill:#999999" />
      <path
         id="path862"
         d="m 46.3,127.9 c 0,0 0.8,2.9 2.8,4.1 2,1.2 6.1,3.4 6.5,4.3 0.4,0.9 1.4,3 3.5,2.6 2.1,-0.4 4.8,-2.2 4.1,-3.5 -0.7,-1.3 -1.7,-0.9 -3.8,-1.4 -2.1,-0.5 -5.2,-2.4 -6,-3.7 -0.9,-1.3 -1.7,-4 -1.7,-4 z"
         style="opacity:0.2" />
      <path
         id="path864"
         d="m 19.4,120.4 c 0,0 -8.5,-1.5 -12,-8.3 C 4,105.3 5.4,99.8 4.5,98.2 3.6,96.6 1.4,97 0.9,98.8 c -0.5,1.8 -1.2,13.5 4.9,19.8 6.3,6.3 13.8,7.8 13.8,7.8 0,0 1.8,6.3 5.5,8 3.7,1.7 5.1,0.5 5.1,0.5 0,0 -0.9,2 -0.2,3.1 0.7,1 8.4,3.1 9.5,4 1.1,1 2.1,3.8 4.9,2.8 2.8,-1 3.7,-2.1 3,-3.4 -0.7,-1.3 -2.6,-1.8 -4,-1.9 -1.4,-0.1 -6.5,-2.5 -6.5,-2.5 0,0 2.2,-2.1 2.7,-3.7 0.5,-1.6 0.3,-2.7 0.3,-2.7 l 6.9,-2.6 c 0,0 1.2,5.4 1.5,9.2 0.3,3.8 0.5,5.6 0.9,7.4 0.4,1.9 0.2,4.3 3.3,4 3.1,-0.3 4.3,-1.1 3.9,-2.3 -0.4,-1.2 -2.4,-2.4 -2.8,-4.6 -0.4,-2.1 0.1,-12.9 0.4,-14 0.2,-1.1 2.5,-7.1 2.5,-7.1 l 2.5,-0.5 c 0,0 1.1,7.8 1.5,11.3 0.4,3.5 0.7,9.2 0.7,10.4 0,1.2 0.7,2.6 2.2,2.7 1.5,0.2 4.6,-0.8 4.5,-2.1 -0.1,-1.3 -2.3,-3.1 -2.5,-4.6 -0.2,-1.5 -0.5,-14.8 0.9,-19.4 1.4,-4.6 2.4,-7.1 2.4,-7.1 L 60,91.5 c 0,0 -3.5,0.8 -7.9,0.7 -4.5,-0.1 -17.8,-0.1 -25.4,9.5 -7.8,9.7 -7.3,18.7 -7.3,18.7 z"
         style="fill:#999999" />
      <path
         id="path866"
         d="m 56.3,120.7 c 0,0 2.5,-2.1 2.7,-4.9 0.2,-2.8 1.8,-5.1 3.2,-6 1.4,-1 6.2,-3.4 6.2,-3.4 0,0 1.3,4.3 -0.5,7.3 -1.8,3 -4.8,5.4 -7.3,6.2 -2.5,0.8 -4.3,0.8 -4.3,0.8 z"
         style="fill:#e5e5e5" />
      <path
         id="path868"
         d="m 46.8,128 c 0,0 -0.7,-3.1 -1,-5.4 -0.2,-2.4 -0.9,-6 -0.9,-6 0,0 -0.9,2.1 -2.8,3 -1.9,0.9 -3.7,1.3 -5.3,0.6 -1.6,-0.7 -5.4,-2.7 -5.4,-2.7 0,0 5.7,3.8 6.8,6.9 1.2,3.1 1.6,6.3 1.6,6.3 z"
         style="opacity:0.2" />
      <path
         id="path870"
         d="m 58.2,96 c 0,0 -0.5,2.8 0.7,5.7 1.3,2.9 4,5.2 5.4,6.9 1.3,1.6 2.8,3.2 5.8,2.9 3,-0.4 3.2,-1.9 4.1,-3.1 0.9,-1.2 4.1,-5.7 4.6,-8.7 0.5,-3.1 0.1,-5.3 0.1,-5.3 0,0 2.1,-7.3 0.5,-8.2 -1.6,-0.9 -3.2,2.7 -5.1,2.9 -2,0.2 -2.9,-0.3 -5.1,-0.2 -2.2,0.1 -5.7,1 -5.7,1 0,0 -3.3,-3.4 -5.3,-2.7 -2.4,0.9 0,8.8 0,8.8 z"
         style="fill:#999999" />
      <path
         id="path872"
         d="m 69.7,110.5 c -0.6,0 -1.7,-1 -1.6,-1.5 0.1,-0.5 2.9,-0.5 3.1,0.1 0.2,0.5 -0.9,1.4 -1.5,1.4 z"
         style="fill:#2d3134" />
      <path
         id="path874"
         d="m 72,104.4 c 0,0 0.3,-1.8 1.8,-2.4 1.5,-0.6 2.1,-0.3 2.1,-0.3 0,0 -0.3,1.7 -1.5,2.3 -1.1,0.6 -2.4,0.4 -2.4,0.4 z"
         style="fill:#2d3134" />
      <path
         id="path876"
         d="m 67.3,104.4 c 0,0 -0.6,-1.8 -2,-2.3 -1.4,-0.5 -2.4,0 -2.4,0 0,0 0.2,1.5 1.4,2 1.2,0.5 3,0.3 3,0.3 z"
         style="fill:#2d3134" />
      <path
         id="path878"
         d="m 72.9,93.3 c 0,0 4.8,-7.5 6.4,-6.9 1.2,0.4 -0.4,8 -0.4,8 0,0 -1.3,-1.2 -3,-1.5 -1.6,-0.3 -3,0.4 -3,0.4 z"
         style="opacity:0.2" />
      <path
         id="path880"
         d="m 65.2,93.2 c 0,0 -5.3,-6.3 -6.9,-5.8 -2.2,0.7 -0.1,8.6 -0.1,8.6 0,0 1.6,-2.1 2.9,-2.6 1.3,-0.5 4.1,-0.2 4.1,-0.2 z"
         style="opacity:0.2" />
    </g>
  </g>
  <path
     style="fill:#000000;fill-opacity:1;fill-rule:nonzero;stroke:none;stroke-width:0.264583"
     id="path1"
     d="m 65.052953,21.479971 c -0.27519,-0.139794 -0.55758,-0.266202 -0.840523,-0.389552 -0.569508,-0.237071 -1.17027,-0.377769 -1.775529,-0.486024 -0.731176,-0.115981 -1.468532,-0.07916 -2.199536,0.0092 -0.706724,0.09225 -1.386168,0.30741 -2.025939,0.616942 -0.65805,0.320319 -1.084683,0.879874 -1.430435,1.504056 -0.204415,0.449115 -0.432004,0.960175 -0.328446,1.467731 0.02365,0.115953 0.07592,0.224176 0.113887,0.336265 0.08782,0.115301 0.163195,0.24125 0.263467,0.345905 0.539202,0.56277 1.589659,0.812104 2.320266,1.006162 1.148892,0.284967 2.326175,0.423441 3.50017,0.556741 1.168374,0.126126 2.341341,0.202275 3.51412,0.273173 1.052755,0.06119 2.106535,0.101857 3.160432,0.137102 0.937561,0.03014 1.875374,0.05125 2.813245,0.06897 0.796753,0.01447 1.59357,0.02519 2.390397,0.03472 0.600353,0.0072 1.200727,0.01262 1.801103,0.01749 0.449718,0.0037 0.899443,0.0064 1.349169,0.0088 0.367527,0.0019 0.73506,0.0033 1.10259,0.0044 0.404688,0.0011 0.809379,0.0019 1.214067,0.0021 0.625414,7.93e-4 1.250826,7.93e-4 1.876237,0.0011 0.890744,2.64e-4 1.781487,5.29e-4 2.672231,5.29e-4 1.047104,1.43e-4 2.094209,2.17e-4 3.141313,2.65e-4 1.196761,7.6e-5 2.393522,1.11e-4 3.59028,1.42e-4 1.116401,-0.01357 2.232242,0.01842 3.34796,0.05224 0.803236,0.02484 1.606521,0.04797 2.409865,0.06896 0.553114,0.01431 1.106286,0.02609 1.659485,0.0364 0.358074,0.0067 0.716177,0.01169 1.074285,0.01614 0.622206,0.0077 0.633136,-0.872204 0.01093,-0.879931 v 0 c -0.356278,-0.0044 -0.712552,-0.0094 -1.068795,-0.01606 -0.551008,-0.01028 -1.10199,-0.02201 -1.652911,-0.03626 -0.802118,-0.02096 -1.604179,-0.04405 -2.406189,-0.06886 -1.124596,-0.03409 -2.249321,-0.0662 -3.374602,-0.05265 -1.19675,-3.4e-5 -2.393497,-6.8e-5 -3.590248,-1.44e-4 -1.04708,-6.9e-5 -2.094161,-1.43e-4 -3.141241,-2.92e-4 -0.890683,-1.31e-4 -1.781368,-2.91e-4 -2.672051,-5.55e-4 -0.625168,-2.19e-4 -1.250336,-4.5e-4 -1.875504,-0.0011 -0.404146,-4.76e-4 -0.808295,-0.0011 -1.21244,-0.0022 -0.366869,-0.0011 -0.733735,-0.0025 -1.100598,-0.0044 -0.448898,-0.0024 -0.897792,-0.0052 -1.346682,-0.0088 -0.599249,-0.0049 -1.198493,-0.01027 -1.797719,-0.01746 -0.794798,-0.0095 -1.589585,-0.02019 -2.384309,-0.03463 -0.933606,-0.01764 -1.867156,-0.03865 -2.800458,-0.06864 -1.045996,-0.03497 -2.091878,-0.0753 -3.136747,-0.13599 -1.157364,-0.06995 -2.314926,-0.144917 -3.467967,-0.269163 -1.131539,-0.128388 -2.266471,-0.26032 -3.374253,-0.533062 -0.562229,-0.148243 -1.167325,-0.284947 -1.676537,-0.579553 -0.0837,-0.04843 -0.226735,-0.169957 -0.312079,-0.240465 -0.01963,-0.03614 -0.04485,-0.06976 -0.05886,-0.108425 -0.100196,-0.276408 0.12075,-0.704783 0.224819,-0.953926 0.252873,-0.467609 0.554069,-0.89605 1.045538,-1.136599 0.548629,-0.272301 1.138184,-0.450311 1.745609,-0.533848 0.644253,-0.07916 1.294003,-0.115521 1.939134,-0.01635 0.537761,0.09485 1.071645,0.218496 1.578388,0.426523 0.26879,0.116693 0.536903,0.236853 0.798071,0.369719 0.556559,0.278281 0.950108,-0.508815 0.393546,-0.787095 z" />
  <path
     style="fill:#000000;fill-opacity:1;fill-rule:nonzero;stroke:none;stroke-width:0.264583"
     id="path2"
     d="m 99.609441,25.903657 c -0.01865,0.127313 -0.04342,0.253619 -0.06355,0.380743 -0.0392,0.242275 -0.05478,0.486715 -0.05295,0.731863 0.01064,0.321225 0.08112,0.635605 0.175696,0.941443 0.111824,0.357732 0.324586,0.660527 0.569243,0.938765 0.2929,0.309652 0.662,0.527606 1.03478,0.726453 0.4075,0.212003 0.84845,0.342038 1.29508,0.440487 0.49719,0.09604 1.00272,0.07049 1.50051,-0.0019 0.41582,-0.07605 0.82538,-0.20362 1.20501,-0.391242 0.0759,-0.03749 0.14906,-0.08011 0.22359,-0.120163 0.43608,-0.239733 0.78391,-0.589666 1.09571,-0.971185 0.31088,-0.413599 0.51411,-0.889518 0.67475,-1.377717 0.13981,-0.490355 0.15525,-0.996278 0.10875,-1.500383 -0.0426,-0.347166 -0.11314,-0.694936 -0.25925,-1.014826 -0.03,-0.06565 -0.0655,-0.128617 -0.0983,-0.192925 -0.16674,-0.304423 -0.39304,-0.571731 -0.67042,-0.781037 -0.0554,-0.04181 -0.11424,-0.07888 -0.17135,-0.118326 -0.35468,-0.229707 -0.75495,-0.359765 -1.16138,-0.461797 -0.50482,-0.114197 -1.02062,-0.112619 -1.53396,-0.08274 -0.47497,0.04003 -0.93779,0.154826 -1.39441,0.28624 -0.3964,0.114701 -0.76686,0.289747 -1.11799,0.504179 -0.19424,0.13013 -0.38701,0.265094 -0.55448,0.429283 -0.11321,0.110978 -0.14066,0.150325 -0.24155,0.271801 -0.194903,0.253573 -0.34547,0.53751 -0.489686,0.821952 -0.0764,0.15064 -0.141415,0.306396 -0.203205,0.463441 -0.227222,0.579285 0.592011,0.900622 0.819231,0.321338 v 0 c 0.0513,-0.13137 0.10546,-0.261609 0.16922,-0.387556 0.11467,-0.227285 0.23362,-0.454717 0.38435,-0.660487 0.16394,-0.202656 0.3543,-0.372959 0.57722,-0.510246 0.28207,-0.175218 0.58118,-0.3146 0.90068,-0.408148 0.39398,-0.113821 0.79278,-0.215327 1.20237,-0.25332 0.42462,-0.02535 0.85125,-0.03245 1.26987,0.05826 0.30605,0.0752 0.60944,0.167477 0.87913,0.335664 0.22764,0.150822 0.42647,0.331966 0.55543,0.577143 0.14788,0.276278 0.23177,0.573867 0.26249,0.886356 0.0389,0.383451 0.0296,0.768792 -0.0696,1.143765 -0.12411,0.386633 -0.28266,0.764212 -0.52129,1.095595 -0.23648,0.294134 -0.49935,0.566266 -0.8322,0.752276 -0.35625,0.195922 -0.73712,0.345078 -1.13936,0.414547 -0.39137,0.06111 -0.7905,0.08163 -1.18263,0.01233 -0.36855,-0.0791 -0.73269,-0.185345 -1.06956,-0.357809 -0.2809,-0.148455 -0.56308,-0.307528 -0.78967,-0.533704 -0.1648,-0.182848 -0.3117,-0.380124 -0.38751,-0.617731 -0.0713,-0.222803 -0.12314,-0.452879 -0.1354,-0.687131 -0.003,-0.196217 0.0114,-0.39167 0.0422,-0.585622 0.0226,-0.1436 0.0521,-0.286054 0.0699,-0.430356 0.0619,-0.619165 -0.813715,-0.706729 -0.87563,-0.08756 z" />
  <path
     style="fill:#000000;fill-opacity:1;fill-rule:nonzero;stroke:none;stroke-width:0.264583"
     id="path3"
     d="m 106.90535,21.468074 c 0.002,0.321539 -0.0194,0.642675 -0.0369,0.963582 -0.0505,0.709526 -0.0857,1.41992 -0.11459,2.130612 -0.0438,0.95224 -0.099,1.903878 -0.14215,2.856166 -0.0421,0.956866 -0.07,1.914277 -0.095,2.871719 -0.0255,0.845106 -0.0488,1.690267 -0.0684,2.535531 -0.0247,0.720688 -0.0544,1.44118 -0.0783,2.161897 -0.0205,0.622136 -0.0353,1.244436 -0.0479,1.866779 -0.0103,0.534172 -0.0179,1.068395 -0.0244,1.602629 -0.005,0.44288 -0.009,0.885777 -0.0123,1.328674 -0.004,0.232632 -0.002,0.465222 0.001,0.697838 0.009,0.622186 0.88904,0.609259 0.8799,-0.01294 v 0 c -0.003,-0.226057 -0.005,-0.45208 -10e-4,-0.678151 0.003,-0.441582 0.007,-0.883161 0.0122,-1.324724 0.006,-0.531884 0.014,-1.063754 0.0243,-1.59558 0.0125,-0.618538 0.0272,-1.237033 0.0476,-1.855367 0.024,-0.723643 0.0539,-1.447056 0.0785,-2.170676 0.0196,-0.844425 0.0429,-1.688748 0.0683,-2.533015 0.0248,-0.951793 0.0526,-1.903553 0.0944,-2.854775 0.0432,-0.953661 0.0986,-1.906668 0.14233,-2.860286 0.0287,-0.706682 0.0638,-1.413053 0.11401,-2.118577 0.0183,-0.336815 0.0406,-0.673869 0.0382,-1.011349 0,-0.622254 -0.88,-0.622254 -0.88,0 z" />
  <path
     style="fill:#000000;fill-opacity:1;fill-rule:nonzero;stroke:none;stroke-width:0.264583"
     id="path4"
     d="m 106.6186,40.149552 c -0.3326,-0.02254 -0.66626,-0.0263 -0.99947,-0.03199 -1.10703,-0.0078 -2.21384,-0.02846 -3.32048,-0.05848 -1.26882,-0.0371 -2.537597,-0.07592 -3.806206,-0.119859 -0.830889,-0.03078 -1.661422,-0.06982 -2.491819,-0.111578 -0.477819,-0.02455 -0.955694,-0.04787 -1.433669,-0.06915 -0.05822,-0.0029 -0.116432,-0.0058 -0.174648,-0.0087 -0.621483,-0.031 -0.665327,0.847905 -0.04385,0.878906 v 0 c 0.05979,0.003 0.119573,0.006 0.179361,0.0089 0.476287,0.02119 0.952473,0.04445 1.428604,0.06891 0.834975,0.04199 1.670087,0.08123 2.505554,0.112159 1.27081,0.04402 2.541793,0.08291 3.812823,0.120063 1.10959,0.03008 2.21934,0.05093 3.32933,0.05868 0.31165,0.0053 0.62364,0.009 0.9348,0.0285 0.6197,0.05634 0.69937,-0.82005 0.0797,-0.876385 z" />
  <path
     style="fill:#000000;fill-opacity:1;fill-rule:nonzero;stroke:none;stroke-width:0.264583"
     id="path5"
     d="m 106.65758,42.045477 c -0.28088,-0.01955 -0.56251,-0.02461 -0.84393,-0.03083 -0.69898,-0.01397 -1.39812,-0.01707 -2.09722,-0.02061 -1.06186,-0.01098 -2.12367,-0.02688 -3.1855,-0.04038 -0.842058,-0.01008 -1.684174,-0.01622 -2.525957,-0.04083 -0.603271,-0.01831 -1.206018,-0.05016 -1.808842,-0.07909 -0.400989,-0.01514 -0.801442,-0.03856 -1.201716,-0.0664 -0.149921,-0.01058 -0.299874,-0.02072 -0.449832,-0.03078 -0.620852,-0.04173 -0.679865,0.83629 -0.05901,0.87802 v 0 c 0.149272,0.01003 0.29854,0.02011 0.447778,0.03064 0.406566,0.02828 0.813316,0.05208 1.220605,0.06751 0.608322,0.02919 1.21657,0.06132 1.825342,0.07973 0.846616,0.02466 1.69356,0.0311 2.540442,0.04113 1.06409,0.01352 2.12815,0.02948 3.19226,0.04044 0.69412,0.0035 1.38827,0.0066 2.08227,0.0204 0.26005,0.0057 0.52023,0.01058 0.77988,0.02707 0.61945,0.059 0.70288,-0.817038 0.0834,-0.876035 z" />
  <path
     style="fill:#000000;fill-opacity:1;fill-rule:nonzero;stroke:none;stroke-width:0.264583"
     id="path6"
     d="m 106.65403,43.821111 c -0.18146,-0.003 -0.36296,-0.0056 -0.54439,-0.01048 -0.31591,-0.009 -0.63163,-0.02352 -0.94739,-0.03655 -0.0432,-0.0019 -0.0863,-0.0035 -0.1295,-0.0053 -0.62174,-0.02527 -0.65746,0.854017 -0.0357,0.879274 v 0 c 0.043,0.0019 0.0859,0.0035 0.12891,0.0052 0.32012,0.01323 0.64021,0.02794 0.96049,0.03699 0.18917,0.0049 0.3784,0.0079 0.5676,0.01077 0.62225,0 0.62225,-0.879999 0,-0.879999 z" />
  <path
     style="fill:#ff4400;fill-opacity:1;fill-rule:nonzero;stroke:none;stroke-width:0.264583"
     id="path7"
     d="m 80.855716,21.86909 c 5.3e-4,-9.26e-4 0.0021,-0.0036 0.0016,-0.0027 -0.06358,0.08058 -0.103767,0.173776 -0.139854,0.268932 -0.04138,0.133657 -0.0749,0.272128 -0.08116,0.412544 -0.0016,0.03782 -5.3e-4,0.07572 -7.94e-4,0.113588 0.0069,0.209318 0.05709,0.412991 0.124245,0.610242 0.05944,0.155678 0.137674,0.30487 0.241719,0.435677 0.07644,0.0961 0.107754,0.120605 0.195077,0.204255 0.21019,0.185633 0.465267,0.299846 0.727832,0.389465 0.233362,0.0646 0.477072,0.08258 0.715666,0.03623 0.04623,-0.009 0.09141,-0.02271 0.13712,-0.03407 0.215014,-0.06593 0.413917,-0.174858 0.574958,-0.333229 0.0316,-0.03107 0.06022,-0.06504 0.09033,-0.09755 0.154718,-0.181963 0.252492,-0.400389 0.331539,-0.623431 0.07441,-0.222233 0.08794,-0.430838 0.07167,-0.662532 -0.01773,-0.142713 -0.04905,-0.285279 -0.108654,-0.4169 -0.0424,-0.09362 -0.06194,-0.118044 -0.115591,-0.202217 -0.115864,-0.170119 -0.272568,-0.302688 -0.439595,-0.419858 -0.158654,-0.107791 -0.336229,-0.178299 -0.517935,-0.236022 -0.168576,-0.05355 -0.341521,-0.08505 -0.517728,-0.09649 -0.166669,-0.0085 -0.33051,0.01864 -0.491334,0.05947 -0.126117,0.03336 -0.24497,0.08477 -0.359379,0.146643 -0.54438,0.301414 -0.118115,1.071284 0.426265,0.769869 v 0 c 0.04807,-0.02849 0.09944,-0.04847 0.153075,-0.06445 0.07318,-0.01945 0.147114,-0.03565 0.223457,-0.03284 0.103079,0.0028 0.202832,0.02871 0.301511,0.05722 0.09748,0.03024 0.194127,0.06389 0.280519,0.11968 0.0754,0.05123 0.149484,0.106889 0.205486,0.179688 0.01201,0.01686 0.02582,0.03259 0.036,0.05062 0.02673,0.04738 0.0361,0.102536 0.04665,0.15511 0.01016,0.102611 0.007,0.204593 -0.02548,0.30363 -0.0385,0.114033 -0.08438,0.228453 -0.156171,0.325893 -0.0443,0.05484 -0.01069,0.0161 -0.06524,0.07067 -0.0067,0.0067 -0.01185,0.01532 -0.01963,0.02084 -0.04527,0.03214 -0.09824,0.05563 -0.149722,0.07543 -0.124169,0.03803 -0.220501,0.04172 -0.348634,0.01404 -0.143293,-0.0463 -0.285226,-0.103728 -0.405098,-0.196883 -0.0975,-0.08738 -0.161301,-0.163872 -0.208121,-0.288753 -0.03933,-0.106314 -0.06585,-0.217874 -0.07489,-0.33104 -0.007,-0.07253 0.0118,-0.144345 0.02911,-0.214292 0.0099,-0.03443 0.01627,-0.04685 0.04334,-0.07831 0.345165,-0.517746 -0.387041,-1.005882 -0.732203,-0.488136 z" />
</svg>
