<?xml version="1.0" encoding="UTF-8" standalone="no"?>
<svg
   id="svg8"
   version="1.1"
   viewBox="0 0 127.76891 46.03791"
   height="46.03791mm"
   width="127.76891mm"
   sodipodi:docname="23 soweli li lon poka supa..svg"
   inkscape:version="1.3 (0e150ed6c4, 2023-07-21)"
   xmlns:inkscape="http://www.inkscape.org/namespaces/inkscape"
   xmlns:sodipodi="http://sodipodi.sourceforge.net/DTD/sodipodi-0.dtd"
   xmlns="http://www.w3.org/2000/svg"
   xmlns:svg="http://www.w3.org/2000/svg"
   xmlns:rdf="http://www.w3.org/1999/02/22-rdf-syntax-ns#"
   xmlns:cc="http://creativecommons.org/ns#"
   xmlns:dc="http://purl.org/dc/elements/1.1/">
  <sodipodi:namedview
     id="namedview1"
     pagecolor="#ffffff"
     bordercolor="#000000"
     borderopacity="0.25"
     inkscape:showpageshadow="2"
     inkscape:pageopacity="0.0"
     inkscape:pagecheckerboard="0"
     inkscape:deskcolor="#d1d1d1"
     inkscape:document-units="mm"
     inkscape:zoom="2"
     inkscape:cx="291.75"
     inkscape:cy="39.75"
     inkscape:window-width="1920"
     inkscape:window-height="1051"
     inkscape:window-x="-9"
     inkscape:window-y="-9"
     inkscape:window-maximized="1"
     inkscape:current-layer="svg8" />
  <defs
     id="defs2" />
  <metadata
     id="metadata5">
    <rdf:RDF>
      <cc:Work
         rdf:about="">
        <dc:format>image/svg+xml</dc:format>
        <dc:type
           rdf:resource="http://purl.org/dc/dcmitype/StillImage" />
        <dc:title />
      </cc:Work>
    </rdf:RDF>
  </metadata>
  <g
     transform="translate(-84.094311,-87.030824)"
     id="layer1">
    <g
       transform="matrix(0.26458333,0,0,0.26458333,84.094311,77.83358)"
       id="g856">
      <ellipse
         style="opacity:0.2"
         cx="80"
         cy="160"
         rx="70"
         ry="35"
         id="ellipse815" />
      <path
         style="fill:#825012"
         d="m 100,80 c -2.8,0 -5,1.1 -5,2.5 l 35,97 c 0,1.4 2.2,2.5 5,2.5 2.8,0 5,-1.1 5,-2.5 l -35,-97 c 0,-1.4 -2.2,-2.5 -5,-2.5 z"
         id="path817" />
      <path
         style="opacity:0.2"
         d="m 100,85 c -2.8,0 -5,-1.1 -5,-2.5 l 35,97 c 0,1.4 2.2,2.5 5,2.5 2.8,0 5,-1.1 5,-2.5 l -35,-97 c 0,1.4 -2.2,2.5 -5,2.5 z"
         id="path819" />
      <path
         style="fill:#825012"
         d="m 100,73 c -2.8,0 -5,1.1 -5,2.5 l 35,63 c 0,1.4 2.2,2.5 5,2.5 2.8,0 5,-1.1 5,-2.5 l -35,-63 c 0,-1.4 -2.2,-2.5 -5,-2.5 z"
         id="path821" />
      <path
         style="opacity:0.2"
         d="m 100,78 c -2.8,0 -5,-1.1 -5,-2.5 l 35,63 c 0,1.4 2.2,2.5 5,2.5 2.8,0 5,-1.1 5,-2.5 l -35,-63 c 0,1.4 -2.2,2.5 -5,2.5 z"
         id="path823" />
      <path
         style="fill:#825012"
         d="m 60,80 c 2.8,0 5,1.1 5,2.5 l -35,97 c 0,1.4 -2.2,2.5 -5,2.5 -2.8,0 -5,-1.1 -5,-2.5 l 35,-97 C 55,81.1 57.2,80 60,80 Z"
         id="path825" />
      <path
         style="opacity:0.2"
         d="m 60,85 c 2.8,0 5,-1.1 5,-2.5 l -35,97 c 0,1.4 -2.2,2.5 -5,2.5 -2.8,0 -5,-1.1 -5,-2.5 l 35,-97 c 0,1.4 2.2,2.5 5,2.5 z"
         id="path827" />
      <path
         style="fill:#825012"
         d="m 60,73 c 2.8,0 5,1.1 5,2.5 l -35,63 c 0,1.4 -2.2,2.5 -5,2.5 -2.8,0 -5,-1.1 -5,-2.5 l 35,-63 C 55,74.1 57.2,73 60,73 Z"
         id="path829" />
      <path
         style="opacity:0.2"
         d="m 60,78 c 2.8,0 5,-1.1 5,-2.5 l -35,63 c 0,1.4 -2.2,2.5 -5,2.5 -2.8,0 -5,-1.1 -5,-2.5 l 35,-63 c 0,1.4 2.2,2.5 5,2.5 z"
         id="path831" />
      <path
         style="fill:#825012"
         d="M 80,40 C 35.8,40 0,57.9 0,80 v 10 c 0,22.1 35.8,40 80,40 44.2,0 80,-17.9 80,-40 V 80 C 160,57.9 124.2,40 80,40 Z"
         id="path833" />
      <path
         style="opacity:0.2"
         d="M 80,120 C 35.8,120 0,102.1 0,80 v 10 c 0,22.1 35.8,40 80,40 44.2,0 80,-17.9 80,-40 V 80 c 0,22.1 -35.8,40 -80,40 z"
         id="path835" />
    </g>
    <g
       transform="matrix(-0.26458333,0,0,0.26458333,136.03202,93.39108)"
       id="g882">
      <path
         style="opacity:0.2"
         d="m 54.4,127.4 c 9.1,5.9 23.5,12.9 10.6,19.8 C 51.3,154.5 33.1,145.9 26.3,138 17.2,127.5 6.9,124 2.4,122.8 c -3.7,-1 -3.8,-3.1 4.4,-1.8 1.4,0.2 11.6,1.5 21.6,2.9 10.2,1.4 23.2,1.7 26,3.5 z"
         id="path858" />
      <path
         style="fill:#999999"
         d="m 46.3,127.9 c 0,0 0.8,2.9 2.8,4.1 2,1.2 6.1,3.4 6.5,4.3 0.4,0.9 1.4,3 3.5,2.6 2.1,-0.4 4.8,-2.2 4.1,-3.5 -0.7,-1.3 -1.7,-0.9 -3.8,-1.4 -2.1,-0.5 -5.2,-2.4 -6,-3.7 -0.9,-1.3 -1.7,-4 -1.7,-4 z"
         id="path860" />
      <path
         style="opacity:0.2"
         d="m 46.3,127.9 c 0,0 0.8,2.9 2.8,4.1 2,1.2 6.1,3.4 6.5,4.3 0.4,0.9 1.4,3 3.5,2.6 2.1,-0.4 4.8,-2.2 4.1,-3.5 -0.7,-1.3 -1.7,-0.9 -3.8,-1.4 -2.1,-0.5 -5.2,-2.4 -6,-3.7 -0.9,-1.3 -1.7,-4 -1.7,-4 z"
         id="path862" />
      <path
         style="fill:#999999"
         d="m 19.4,120.4 c 0,0 -8.5,-1.5 -12,-8.3 C 4,105.3 5.4,99.8 4.5,98.2 3.6,96.6 1.4,97 0.9,98.8 c -0.5,1.8 -1.2,13.5 4.9,19.8 6.3,6.3 13.8,7.8 13.8,7.8 0,0 1.8,6.3 5.5,8 3.7,1.7 5.1,0.5 5.1,0.5 0,0 -0.9,2 -0.2,3.1 0.7,1 8.4,3.1 9.5,4 1.1,1 2.1,3.8 4.9,2.8 2.8,-1 3.7,-2.1 3,-3.4 -0.7,-1.3 -2.6,-1.8 -4,-1.9 -1.4,-0.1 -6.5,-2.5 -6.5,-2.5 0,0 2.2,-2.1 2.7,-3.7 0.5,-1.6 0.3,-2.7 0.3,-2.7 l 6.9,-2.6 c 0,0 1.2,5.4 1.5,9.2 0.3,3.8 0.5,5.6 0.9,7.4 0.4,1.9 0.2,4.3 3.3,4 3.1,-0.3 4.3,-1.1 3.9,-2.3 -0.4,-1.2 -2.4,-2.4 -2.8,-4.6 -0.4,-2.1 0.1,-12.9 0.4,-14 0.2,-1.1 2.5,-7.1 2.5,-7.1 l 2.5,-0.5 c 0,0 1.1,7.8 1.5,11.3 0.4,3.5 0.7,9.2 0.7,10.4 0,1.2 0.7,2.6 2.2,2.7 1.5,0.2 4.6,-0.8 4.5,-2.1 -0.1,-1.3 -2.3,-3.1 -2.5,-4.6 -0.2,-1.5 -0.5,-14.8 0.9,-19.4 1.4,-4.6 2.4,-7.1 2.4,-7.1 L 60,91.5 c 0,0 -3.5,0.8 -7.9,0.7 -4.5,-0.1 -17.8,-0.1 -25.4,9.5 -7.8,9.7 -7.3,18.7 -7.3,18.7 z"
         id="path864" />
      <path
         style="fill:#e5e5e5"
         d="m 56.3,120.7 c 0,0 2.5,-2.1 2.7,-4.9 0.2,-2.8 1.8,-5.1 3.2,-6 1.4,-1 6.2,-3.4 6.2,-3.4 0,0 1.3,4.3 -0.5,7.3 -1.8,3 -4.8,5.4 -7.3,6.2 -2.5,0.8 -4.3,0.8 -4.3,0.8 z"
         id="path866" />
      <path
         style="opacity:0.2"
         d="m 46.8,128 c 0,0 -0.7,-3.1 -1,-5.4 -0.2,-2.4 -0.9,-6 -0.9,-6 0,0 -0.9,2.1 -2.8,3 -1.9,0.9 -3.7,1.3 -5.3,0.6 -1.6,-0.7 -5.4,-2.7 -5.4,-2.7 0,0 5.7,3.8 6.8,6.9 1.2,3.1 1.6,6.3 1.6,6.3 z"
         id="path868" />
      <path
         style="fill:#999999"
         d="m 58.2,96 c 0,0 -0.5,2.8 0.7,5.7 1.3,2.9 4,5.2 5.4,6.9 1.3,1.6 2.8,3.2 5.8,2.9 3,-0.4 3.2,-1.9 4.1,-3.1 0.9,-1.2 4.1,-5.7 4.6,-8.7 0.5,-3.1 0.1,-5.3 0.1,-5.3 0,0 2.1,-7.3 0.5,-8.2 -1.6,-0.9 -3.2,2.7 -5.1,2.9 -2,0.2 -2.9,-0.3 -5.1,-0.2 -2.2,0.1 -5.7,1 -5.7,1 0,0 -3.3,-3.4 -5.3,-2.7 -2.4,0.9 0,8.8 0,8.8 z"
         id="path870" />
      <path
         style="fill:#2d3134"
         d="m 69.7,110.5 c -0.6,0 -1.7,-1 -1.6,-1.5 0.1,-0.5 2.9,-0.5 3.1,0.1 0.2,0.5 -0.9,1.4 -1.5,1.4 z"
         id="path872" />
      <path
         style="fill:#2d3134"
         d="m 72,104.4 c 0,0 0.3,-1.8 1.8,-2.4 1.5,-0.6 2.1,-0.3 2.1,-0.3 0,0 -0.3,1.7 -1.5,2.3 -1.1,0.6 -2.4,0.4 -2.4,0.4 z"
         id="path874" />
      <path
         style="fill:#2d3134"
         d="m 67.3,104.4 c 0,0 -0.6,-1.8 -2,-2.3 -1.4,-0.5 -2.4,0 -2.4,0 0,0 0.2,1.5 1.4,2 1.2,0.5 3,0.3 3,0.3 z"
         id="path876" />
      <path
         style="opacity:0.2"
         d="m 72.9,93.3 c 0,0 4.8,-7.5 6.4,-6.9 1.2,0.4 -0.4,8 -0.4,8 0,0 -1.3,-1.2 -3,-1.5 -1.6,-0.3 -3,0.4 -3,0.4 z"
         id="path878" />
      <path
         style="opacity:0.2"
         d="m 65.2,93.2 c 0,0 -5.3,-6.3 -6.9,-5.8 -2.2,0.7 -0.1,8.6 -0.1,8.6 0,0 1.6,-2.1 2.9,-2.6 1.3,-0.5 4.1,-0.2 4.1,-0.2 z"
         id="path880" />
    </g>
  </g>
  <path
     style="fill:#000000;fill-opacity:1;fill-rule:nonzero;stroke:none;stroke-width:0.264583"
     id="path8"
     d="m 90.199894,40.150642 c -0.03048,-0.63696 -0.05834,-1.274249 -0.07541,-1.912069 -0.02959,-1.297374 -0.0377,-2.59511 -0.04501,-3.892759 -0.0076,-1.538597 -0.0086,-3.077215 -0.0099,-4.615826 0.0013,-1.488876 -0.03361,-2.976797 -0.09052,-4.464435 -0.0296,-1.098929 -0.128199,-2.194306 -0.249476,-3.286422 -0.104857,-1.003693 -0.312624,-1.990965 -0.54398,-2.971788 -0.150585,-0.545318 -0.288883,-1.098144 -0.527547,-1.613572 -0.120608,-0.260462 -0.251582,-0.481683 -0.392039,-0.73087 -0.348128,-0.633177 -0.817657,-1.178075 -1.309658,-1.701532 -0.379137,-0.402219 -0.818333,-0.740937 -1.260293,-1.070456 -0.403053,-0.298236 -0.840938,-0.545568 -1.277403,-0.790896 -0.354271,-0.216917 -0.72777,-0.397399 -1.100336,-0.579758 -0.472802,-0.246202 -0.965096,-0.448961 -1.467434,-0.62579 -0.495676,-0.177964 -1.001501,-0.323619 -1.511459,-0.453865 -0.442928,-0.103855 -0.893321,-0.175471 -1.344324,-0.233862 -0.56696,-0.08051 -1.134187,-0.159047 -1.702924,-0.225985 -0.359916,-0.05102 -0.724565,-0.05659 -1.085025,-0.09961 -0.284244,-0.04144 -0.568896,-0.07902 -0.854985,-0.105045 -0.198258,-0.01791 -0.397193,-0.02491 -0.596096,-0.03058 -0.622003,-0.01767 -0.646993,0.861975 -0.02498,0.879646 v 0 c 0.180771,0.0051 0.361584,0.01116 0.541776,0.02736 0.279125,0.02511 0.556609,0.06329 0.834007,0.102892 0.360076,0.04006 0.722981,0.05178 1.082495,0.09931 0.565528,0.0665 1.129506,0.144899 1.69328,0.224796 0.415655,0.05328 0.830609,0.119454 1.239041,0.213714 0.485087,0.123865 0.966333,0.262012 1.437754,0.431565 0.470146,0.164491 0.929947,0.355461 1.372036,0.585864 0.357659,0.175034 0.716429,0.347717 1.056191,0.556581 0.403801,0.226692 0.809479,0.454515 1.182849,0.729497 0.400954,0.298097 0.800256,0.603993 1.14483,0.967538 0.44399,0.471684 0.870892,0.95977 1.184408,1.531333 0.112792,0.199325 0.248928,0.431024 0.346932,0.638866 0.221483,0.469711 0.341879,0.977527 0.48246,1.47495 0.223342,0.946242 0.424862,1.898526 0.525846,2.866925 0.119187,1.070961 0.21582,2.145171 0.244734,3.222841 0.05651,1.476672 0.09115,2.953617 0.08988,4.431521 0.0013,1.540018 0.0024,3.080047 0.0099,4.620051 0.0074,1.303854 0.0155,2.607792 0.04531,3.911365 0.01688,0.629935 0.04326,1.259538 0.0751,1.888505 0,0.622253 0.879999,0.622253 0.879999,0 z" />
  <path
     style="fill:#000000;fill-opacity:1;fill-rule:nonzero;stroke:none;stroke-width:0.264583"
     id="path9"
     d="m 75.039669,11.065437 c -0.02976,-0.305472 -0.03031,-0.613335 -0.03587,-0.919983 -0.0122,-0.9357345 -0.01236,-1.8715829 -0.0141,-2.8073808 -0.0019,-1.1242723 -0.0024,-2.2485458 -0.0028,-3.3728191 C 74.98665,3.3031645 74.986634,2.6410749 74.98637,1.9789852 74.98847,1.5883855 74.96449,1.1985298 74.92929,0.80971729 74.91696,0.68181376 74.9045,0.55392326 74.89262,0.42597671 74.83504,-0.19360785 73.958818,-0.11218315 74.016394,0.50740141 v 0 c 0.01185,0.12738753 0.02418,0.25472366 0.03651,0.38206581 0.03315,0.36231378 0.05535,0.72562608 0.05345,1.08963088 8.5e-5,0.6621717 2.14e-4,1.3243434 5.29e-4,1.9865151 5.29e-4,1.1247018 0.0011,2.2494037 0.0028,3.3741044 0.0019,0.9405873 0.0019,1.8812258 0.01426,2.8217484 0.0065,0.353788 0.005,0.709906 0.04992,1.06139 0.111313,0.612217 0.977117,0.454798 0.865804,-0.157419 z" />
  <path
     style="fill:#000000;fill-opacity:1;fill-rule:nonzero;stroke:none;stroke-width:0.264583"
     id="path10"
     d="m 71.725104,0.60953417 c 0.03515,0.63650983 0.03604,1.27443743 0.04949,1.91165693 0.03318,1.3042796 0.04498,2.6088633 0.04961,3.9135065 0.0021,0.8614772 0.0019,1.7229579 0.0013,2.5844367 0.0016,0.3420033 0.01196,0.6838654 0.02117,1.0257217 0.0052,0.196854 0.01924,0.393344 0.02787,0.590076 0.0071,0.165576 0.0104,0.331275 0.01273,0.496977 0.0011,0.09288 5.29e-4,0.04697 0.0013,0.13771 0.0058,0.622228 0.885735,0.614064 0.879962,-0.0082 v 0 c -7.94e-4,-0.09357 -2.65e-4,-0.04623 -0.0016,-0.142 -0.0024,-0.174429 -0.006,-0.348854 -0.01349,-0.52315 -0.0084,-0.191757 -0.02196,-0.383286 -0.02734,-0.575146 -0.009,-0.3337676 -0.01913,-0.6675398 -0.02085,-1.0014495 5.29e-4,-0.8627139 0.0011,-1.7254299 -0.0013,-2.5881422 -0.0047,-1.3097936 -0.01651,-2.6195277 -0.0498,-3.9289564 -0.01333,-0.6309778 -0.01344,-1.2629088 -0.0493,-1.893077 0,-0.62225395 -0.879999,-0.62225395 -0.879999,0 z" />
  <path
     style="fill:#000000;fill-opacity:1;fill-rule:nonzero;stroke:none;stroke-width:0.264583"
     id="path11"
     d="m 70.607898,11.429239 c -0.0324,-0.370619 -0.05506,-0.741937 -0.074,-1.11348 -0.0163,-0.3343211 -0.02769,-0.6688573 -0.03633,-1.0034563 -0.01606,-0.6220463 -0.895779,-0.5993143 -0.879705,0.022733 v 0 c 0.0088,0.3419732 0.0205,0.6838823 0.03718,1.0255713 0.0209,0.409162 0.04335,0.818579 0.08705,1.226053 0.111313,0.612217 0.977117,0.454797 0.865804,-0.15742 z" />
  <path
     style="fill:#ff4400;fill-opacity:1;fill-rule:nonzero;stroke:none;stroke-width:0.264583"
     id="path12"
     d="m 69.588945,8.9570038 c -0.414977,0.357142 -0.78513,0.7615923 -1.154916,1.1642292 -0.432975,0.485878 -0.866667,0.971808 -1.265593,1.486328 -0.04436,0.06083 -0.08872,0.121663 -0.133085,0.182494 -0.366212,0.503079 0.34525,1.020982 0.711462,0.517903 v 0 c 0.03915,-0.05389 0.0783,-0.107779 0.117446,-0.161668 0.383119,-0.495619 0.802307,-0.961653 1.217988,-1.429901 0.361347,-0.393687 0.723794,-0.7874831 1.128951,-1.1371312 0.439999,-0.44 -0.182253,-1.062254 -0.622253,-0.622254 z" />
  <path
     style="fill:#ff4400;fill-opacity:1;fill-rule:nonzero;stroke:none;stroke-width:0.264583"
     id="path13"
     d="m 67.717735,11.803471 c -0.143097,-0.210498 -0.34949,-0.364766 -0.539803,-0.52957 -0.08622,-0.07466 -0.361907,-0.315043 -0.440557,-0.383583 C 66.281445,10.515295 65.856974,10.10712 65.450968,9.679342 65.270085,9.4763481 65.358525,9.5758891 65.18562,9.3807501 64.772947,8.915025 64.114311,9.4986344 64.526985,9.9643596 v 0 c 0.181049,0.2043174 0.08585,0.097331 0.28575,0.3208364 0.425175,0.447822 0.869598,0.875387 1.346485,1.26855 0.207643,0.180952 0.415237,0.361927 0.623983,0.541605 0.03727,0.03208 0.07546,0.06313 0.111869,0.09618 0.02035,0.01846 0.03712,0.04073 0.05826,0.05825 0.0024,0.0021 2.3e-4,-0.0065 2.64e-4,-0.0097 0.308724,0.540268 1.072777,0.103666 0.764053,-0.436602 z" />
  <path
     style="fill:#000000;fill-opacity:1;fill-rule:nonzero;stroke:none;stroke-width:0.264583"
     id="path14"
     d="m 99.494506,32.398433 c -0.2669,-0.03347 -0.54801,-0.0266 -0.81415,0.01193 -0.095,0.01376 -0.18859,0.03571 -0.28288,0.05357 -0.11482,0.04405 -0.23375,0.0786 -0.34446,0.132135 -0.352698,0.170567 -0.658353,0.433679 -0.905344,0.735378 -0.234003,0.285835 -0.277191,0.39783 -0.456279,0.720161 -0.109022,0.252132 -0.23635,0.518973 -0.305567,0.786779 -0.07988,0.309059 -0.112938,0.607965 -0.109726,0.926655 0.0041,0.404577 0.04027,0.483259 0.121836,0.87603 0.04349,0.128694 0.07728,0.261086 0.130468,0.386086 0.215697,0.50692 0.592937,0.945705 1.065541,1.230712 0.122235,0.07371 0.255521,0.12732 0.383271,0.190978 0.13549,0.04278 0.26824,0.09548 0.40647,0.128339 0.41846,0.09948 0.84692,0.09361 1.26599,0.0011 0.353124,-0.07798 0.454574,-0.139661 0.783644,-0.280827 0.48647,-0.252166 0.86286,-0.561816 1.18553,-1.006379 0.18611,-0.256411 0.21858,-0.347102 0.3605,-0.626333 0.17359,-0.409201 0.31549,-0.824547 0.27588,-1.276797 -0.0248,-0.283736 -0.0784,-0.3919 -0.16749,-0.658312 -0.1795,-0.42799 -0.42897,-0.824193 -0.7287,-1.1782 -0.0467,-0.05519 -0.0969,-0.107408 -0.14529,-0.16111 -0.16143,-0.170762 -0.3359,-0.331155 -0.53224,-0.461381 -0.12536,-0.08314 -0.16561,-0.09956 -0.29878,-0.168759 -0.32439,-0.147323 -0.673424,-0.223232 -1.022744,-0.283107 -0.61342,-0.10446 -0.76115,0.763051 -0.14772,0.867511 v 0 c 0.26139,0.04416 0.52299,0.09763 0.76919,0.198784 0.0679,0.03403 0.123504,0.05936 0.186884,0.10046 0.14595,0.09462 0.27504,0.212447 0.39425,0.338439 0.28295,0.307927 0.52574,0.652396 0.6941,1.036777 0.0483,0.130702 0.0989,0.243361 0.11864,0.381807 0.0436,0.305848 -0.0727,0.591736 -0.18299,0.870181 -0.0391,0.0799 -0.0742,0.161887 -0.11737,0.239694 -0.13189,0.237934 -0.30285,0.467566 -0.50717,0.648673 -0.17811,0.157885 -0.28454,0.209394 -0.48759,0.332007 -0.242784,0.109339 -0.313124,0.154287 -0.572574,0.218409 -0.40493,0.100081 -0.75531,0.07958 -1.14921,-0.05408 -0.0857,-0.03892 -0.17492,-0.0707 -0.25697,-0.116742 -0.31884,-0.17892 -0.591104,-0.466051 -0.741575,-0.799976 -0.0414,-0.09187 -0.06798,-0.189725 -0.101973,-0.284586 -0.06832,-0.297148 -0.09373,-0.341979 -0.102574,-0.652671 -0.006,-0.211963 0.01222,-0.472409 0.06344,-0.679429 0.05223,-0.211119 0.161017,-0.448982 0.24471,-0.648457 0.05194,-0.09697 0.09867,-0.196913 0.155808,-0.290917 0.226624,-0.372872 0.539604,-0.690041 0.948074,-0.855546 0.0662,-0.01373 0.13189,-0.03085 0.19875,-0.0412 0.24137,-0.03738 0.48618,-0.03054 0.72839,-0.0078 0.622254,0 0.622254,-0.879999 0,-0.879999 z" />
  <path
     style="fill:#000000;fill-opacity:1;fill-rule:nonzero;stroke:none;stroke-width:0.264583"
     id="path15"
     d="m 102.33096,35.915547 c 0.31848,-0.02125 0.63828,-0.02233 0.95739,-0.02698 0.6033,-0.0039 1.20534,-0.04898 1.80765,-0.07961 0.64028,-0.03378 1.28163,-0.03216 1.92244,-0.04536 0.33729,-0.007 1.10272,-0.03109 1.43284,-0.04113 1.54487,-0.04987 3.09031,-0.0758 4.6358,-0.09545 1.2335,-0.01458 2.46708,-0.02122 3.70065,-0.02572 0.91717,-0.0019 1.83488,0.02786 2.7466,0.13022 0.60475,0.07321 1.19647,0.220626 1.77598,0.405064 0.42487,0.129492 0.81472,0.342149 1.19528,0.566769 0.26821,0.163478 0.45227,0.329996 0.59132,0.611092 0.12183,0.25826 0.11674,0.451022 0.081,0.726324 -0.0494,0.250978 -0.17705,0.47738 -0.34234,0.669967 -0.12902,0.138391 -0.2729,0.267314 -0.44666,0.346615 -0.13873,0.06332 -0.21328,0.07979 -0.36315,0.125122 -0.43013,0.11309 -0.87302,0.170404 -1.31617,0.199088 -0.35476,0.01844 -0.68503,-0.0208 -1.0237,-0.125032 -0.2836,-0.08953 -0.5355,-0.246078 -0.78104,-0.409561 -0.0822,-0.06106 -0.16116,-0.126011 -0.23816,-0.193477 -0.46977,-0.408056 -1.04685,0.256307 -0.57708,0.664364 v 0 c 0.10598,0.09149 0.21346,0.181083 0.32799,0.261908 0.31833,0.21141 0.64864,0.406638 1.01647,0.519967 0.0741,0.02164 0.14737,0.04621 0.22225,0.06496 0.36247,0.09076 0.73974,0.108534 1.11166,0.09493 0.51222,-0.03484 1.02414,-0.100938 1.5202,-0.237185 0.22454,-0.07176 0.32574,-0.09415 0.53597,-0.200253 0.26717,-0.134826 0.49434,-0.332306 0.6925,-0.554199 0.0455,-0.05715 0.0939,-0.112154 0.13664,-0.171458 0.20274,-0.281538 0.33909,-0.610073 0.39836,-0.951018 0.0202,-0.17789 0.0358,-0.260697 0.0297,-0.443039 -0.009,-0.278837 -0.0862,-0.548939 -0.20653,-0.799283 -0.0349,-0.06384 -0.0663,-0.129704 -0.10472,-0.191513 -0.2017,-0.324816 -0.4957,-0.567296 -0.81765,-0.766376 -0.43781,-0.25785 -0.88799,-0.498174 -1.37612,-0.647518 -0.6347,-0.200753 -1.28236,-0.361947 -1.94454,-0.440835 -0.94532,-0.104757 -1.89642,-0.138716 -2.84735,-0.135636 -1.23623,0.0045 -2.47246,0.01116 -3.70862,0.02577 -1.55069,0.01971 -3.10131,0.04575 -4.65137,0.09578 -0.31184,0.0095 -1.09626,0.03419 -1.41787,0.04081 -0.6518,0.01342 -1.30413,0.01193 -1.95537,0.04642 -0.59168,0.03012 -1.18311,0.07459 -1.77576,0.07857 -0.35122,0.0051 -0.70349,0.0051 -1.05371,0.03368 -0.61745,0.07718 -0.5083,0.950386 0.10915,0.873204 z" />
  <path
     style="fill:#000000;fill-opacity:1;fill-rule:nonzero;stroke:none;stroke-width:0.264583"
     id="path16"
     d="m 126.90009,40.728252 c -0.13955,0.475056 -0.32755,0.934534 -0.51305,1.393065 -0.24128,0.599657 -0.51554,1.184781 -0.78748,1.77088 -0.0318,0.07026 -0.0635,0.140507 -0.0953,0.210762 -0.25633,0.567005 0.54553,0.92951 0.80186,0.362506 v 0 c 0.0306,-0.06763 0.0611,-0.135263 0.0917,-0.202893 0.27813,-0.599435 0.55827,-1.198036 0.80504,-1.811338 0.19704,-0.487405 0.39594,-0.976019 0.54337,-1.481227 0.17095,-0.598313 -0.67519,-0.840068 -0.84614,-0.241755 z" />
  <path
     style="fill:#000000;fill-opacity:1;fill-rule:nonzero;stroke:none;stroke-width:0.264583"
     id="path17"
     d="m 126.2054,44.043555 c -0.30711,-0.454059 -0.54804,-0.947645 -0.79077,-1.43778 -0.20188,-0.407861 -0.38665,-0.823781 -0.57902,-1.23612 -0.26311,-0.563894 -1.06057,-0.191802 -0.79747,0.372091 v 0 c 0.19531,0.418529 0.38282,0.840729 0.58794,1.254638 0.25951,0.52377 0.51863,1.050259 0.84711,1.535306 0.34517,0.517747 1.07737,0.02961 0.73221,-0.488135 z" />
  <path
     style="fill:#000000;fill-opacity:1;fill-rule:nonzero;stroke:none;stroke-width:0.264583"
     id="path18"
     d="m 123.99953,41.339032 c -0.24148,0.24974 -0.49437,0.487084 -0.75849,0.712634 -0.39076,0.332536 -0.8271,0.602662 -1.26972,0.859261 -0.41499,0.229655 -0.85832,0.399092 -1.31495,0.523917 -0.43178,0.100647 -0.87432,0.137755 -1.31606,0.158827 -0.45093,0.0066 -0.89446,-0.08049 -1.32737,-0.1987 -0.29458,-0.106156 -0.58124,-0.236924 -0.85319,-0.392411 -0.0951,-0.05435 -0.26255,-0.162129 -0.35527,-0.220972 -0.26526,-0.169125 -0.51309,-0.363141 -0.74651,-0.573636 -0.46318,-0.415525 -1.05082,0.239515 -0.58764,0.65504 v 0 c 0.27072,0.241877 0.55588,0.467267 0.86293,0.6618 0.13062,0.08274 0.27701,0.177474 0.41082,0.253412 0.33044,0.187521 0.67905,0.34453 1.03891,0.466191 0.0864,0.02323 0.17233,0.04855 0.2593,0.06969 0.43799,0.106442 0.88951,0.163899 1.3404,0.15857 0.50654,-0.02466 1.0139,-0.06955 1.50802,-0.189582 0.083,-0.02313 0.16658,-0.04418 0.24896,-0.06938 0.44189,-0.135173 0.86742,-0.321456 1.27325,-0.541586 0.48874,-0.283742 0.96932,-0.584195 1.40046,-0.951984 0.28077,-0.240943 0.55134,-0.492586 0.80841,-0.758836 0.44,-0.439999 -0.18226,-1.062254 -0.62226,-0.622252 z" />
</svg>
