<?xml version="1.0" encoding="UTF-8" standalone="no"?>
<svg
   id="svg8"
   version="1.1"
   viewBox="0 0 127.7689 44.651821"
   height="44.651821mm"
   width="127.76891mm"
   sodipodi:docname="23 soweli li lon poka supa..svg"
   inkscape:version="1.3 (0e150ed6c4, 2023-07-21)"
   xmlns:inkscape="http://www.inkscape.org/namespaces/inkscape"
   xmlns:sodipodi="http://sodipodi.sourceforge.net/DTD/sodipodi-0.dtd"
   xmlns="http://www.w3.org/2000/svg"
   xmlns:svg="http://www.w3.org/2000/svg"
   xmlns:rdf="http://www.w3.org/1999/02/22-rdf-syntax-ns#"
   xmlns:cc="http://creativecommons.org/ns#"
   xmlns:dc="http://purl.org/dc/elements/1.1/">
  <sodipodi:namedview
     id="namedview1"
     pagecolor="#ffffff"
     bordercolor="#000000"
     borderopacity="0.25"
     inkscape:showpageshadow="2"
     inkscape:pageopacity="0.0"
     inkscape:pagecheckerboard="0"
     inkscape:deskcolor="#d1d1d1"
     inkscape:document-units="mm"
     inkscape:zoom="1.4142136"
     inkscape:cx="263.39728"
     inkscape:cy="133.99673"
     inkscape:window-width="1920"
     inkscape:window-height="1051"
     inkscape:window-x="-9"
     inkscape:window-y="-9"
     inkscape:window-maximized="1"
     inkscape:current-layer="svg8" />
  <defs
     id="defs2" />
  <metadata
     id="metadata5">
    <rdf:RDF>
      <cc:Work
         rdf:about="">
        <dc:format>image/svg+xml</dc:format>
        <dc:type
           rdf:resource="http://purl.org/dc/dcmitype/StillImage" />
        <dc:title />
      </cc:Work>
    </rdf:RDF>
  </metadata>
  <g
     transform="translate(-84.094311,-88.416913)"
     id="layer1">
    <g
       transform="matrix(0.26458333,0,0,0.26458333,84.094311,77.83358)"
       id="g856">
      <ellipse
         style="opacity:0.2"
         cx="80"
         cy="160"
         rx="70"
         ry="35"
         id="ellipse815" />
      <path
         style="fill:#825012"
         d="m 100,80 c -2.8,0 -5,1.1 -5,2.5 l 35,97 c 0,1.4 2.2,2.5 5,2.5 2.8,0 5,-1.1 5,-2.5 l -35,-97 c 0,-1.4 -2.2,-2.5 -5,-2.5 z"
         id="path817" />
      <path
         style="opacity:0.2"
         d="m 100,85 c -2.8,0 -5,-1.1 -5,-2.5 l 35,97 c 0,1.4 2.2,2.5 5,2.5 2.8,0 5,-1.1 5,-2.5 l -35,-97 c 0,1.4 -2.2,2.5 -5,2.5 z"
         id="path819" />
      <path
         style="fill:#825012"
         d="m 100,73 c -2.8,0 -5,1.1 -5,2.5 l 35,63 c 0,1.4 2.2,2.5 5,2.5 2.8,0 5,-1.1 5,-2.5 l -35,-63 c 0,-1.4 -2.2,-2.5 -5,-2.5 z"
         id="path821" />
      <path
         style="opacity:0.2"
         d="m 100,78 c -2.8,0 -5,-1.1 -5,-2.5 l 35,63 c 0,1.4 2.2,2.5 5,2.5 2.8,0 5,-1.1 5,-2.5 l -35,-63 c 0,1.4 -2.2,2.5 -5,2.5 z"
         id="path823" />
      <path
         style="fill:#825012"
         d="m 60,80 c 2.8,0 5,1.1 5,2.5 l -35,97 c 0,1.4 -2.2,2.5 -5,2.5 -2.8,0 -5,-1.1 -5,-2.5 l 35,-97 C 55,81.1 57.2,80 60,80 Z"
         id="path825" />
      <path
         style="opacity:0.2"
         d="m 60,85 c 2.8,0 5,-1.1 5,-2.5 l -35,97 c 0,1.4 -2.2,2.5 -5,2.5 -2.8,0 -5,-1.1 -5,-2.5 l 35,-97 c 0,1.4 2.2,2.5 5,2.5 z"
         id="path827" />
      <path
         style="fill:#825012"
         d="m 60,73 c 2.8,0 5,1.1 5,2.5 l -35,63 c 0,1.4 -2.2,2.5 -5,2.5 -2.8,0 -5,-1.1 -5,-2.5 l 35,-63 C 55,74.1 57.2,73 60,73 Z"
         id="path829" />
      <path
         style="opacity:0.2"
         d="m 60,78 c 2.8,0 5,-1.1 5,-2.5 l -35,63 c 0,1.4 -2.2,2.5 -5,2.5 -2.8,0 -5,-1.1 -5,-2.5 l 35,-63 c 0,1.4 2.2,2.5 5,2.5 z"
         id="path831" />
      <path
         style="fill:#825012"
         d="M 80,40 C 35.8,40 0,57.9 0,80 v 10 c 0,22.1 35.8,40 80,40 44.2,0 80,-17.9 80,-40 V 80 C 160,57.9 124.2,40 80,40 Z"
         id="path833" />
      <path
         style="opacity:0.2"
         d="M 80,120 C 35.8,120 0,102.1 0,80 v 10 c 0,22.1 35.8,40 80,40 44.2,0 80,-17.9 80,-40 V 80 c 0,22.1 -35.8,40 -80,40 z"
         id="path835" />
    </g>
    <g
       transform="matrix(-0.26458333,0,0,0.26458333,136.03202,93.39108)"
       id="g882">
      <path
         style="opacity:0.2"
         d="m 54.4,127.4 c 9.1,5.9 23.5,12.9 10.6,19.8 C 51.3,154.5 33.1,145.9 26.3,138 17.2,127.5 6.9,124 2.4,122.8 c -3.7,-1 -3.8,-3.1 4.4,-1.8 1.4,0.2 11.6,1.5 21.6,2.9 10.2,1.4 23.2,1.7 26,3.5 z"
         id="path858" />
      <path
         style="fill:#999999"
         d="m 46.3,127.9 c 0,0 0.8,2.9 2.8,4.1 2,1.2 6.1,3.4 6.5,4.3 0.4,0.9 1.4,3 3.5,2.6 2.1,-0.4 4.8,-2.2 4.1,-3.5 -0.7,-1.3 -1.7,-0.9 -3.8,-1.4 -2.1,-0.5 -5.2,-2.4 -6,-3.7 -0.9,-1.3 -1.7,-4 -1.7,-4 z"
         id="path860" />
      <path
         style="opacity:0.2"
         d="m 46.3,127.9 c 0,0 0.8,2.9 2.8,4.1 2,1.2 6.1,3.4 6.5,4.3 0.4,0.9 1.4,3 3.5,2.6 2.1,-0.4 4.8,-2.2 4.1,-3.5 -0.7,-1.3 -1.7,-0.9 -3.8,-1.4 -2.1,-0.5 -5.2,-2.4 -6,-3.7 -0.9,-1.3 -1.7,-4 -1.7,-4 z"
         id="path862" />
      <path
         style="fill:#999999"
         d="m 19.4,120.4 c 0,0 -8.5,-1.5 -12,-8.3 C 4,105.3 5.4,99.8 4.5,98.2 3.6,96.6 1.4,97 0.9,98.8 c -0.5,1.8 -1.2,13.5 4.9,19.8 6.3,6.3 13.8,7.8 13.8,7.8 0,0 1.8,6.3 5.5,8 3.7,1.7 5.1,0.5 5.1,0.5 0,0 -0.9,2 -0.2,3.1 0.7,1 8.4,3.1 9.5,4 1.1,1 2.1,3.8 4.9,2.8 2.8,-1 3.7,-2.1 3,-3.4 -0.7,-1.3 -2.6,-1.8 -4,-1.9 -1.4,-0.1 -6.5,-2.5 -6.5,-2.5 0,0 2.2,-2.1 2.7,-3.7 0.5,-1.6 0.3,-2.7 0.3,-2.7 l 6.9,-2.6 c 0,0 1.2,5.4 1.5,9.2 0.3,3.8 0.5,5.6 0.9,7.4 0.4,1.9 0.2,4.3 3.3,4 3.1,-0.3 4.3,-1.1 3.9,-2.3 -0.4,-1.2 -2.4,-2.4 -2.8,-4.6 -0.4,-2.1 0.1,-12.9 0.4,-14 0.2,-1.1 2.5,-7.1 2.5,-7.1 l 2.5,-0.5 c 0,0 1.1,7.8 1.5,11.3 0.4,3.5 0.7,9.2 0.7,10.4 0,1.2 0.7,2.6 2.2,2.7 1.5,0.2 4.6,-0.8 4.5,-2.1 -0.1,-1.3 -2.3,-3.1 -2.5,-4.6 -0.2,-1.5 -0.5,-14.8 0.9,-19.4 1.4,-4.6 2.4,-7.1 2.4,-7.1 L 60,91.5 c 0,0 -3.5,0.8 -7.9,0.7 -4.5,-0.1 -17.8,-0.1 -25.4,9.5 -7.8,9.7 -7.3,18.7 -7.3,18.7 z"
         id="path864" />
      <path
         style="fill:#e5e5e5"
         d="m 56.3,120.7 c 0,0 2.5,-2.1 2.7,-4.9 0.2,-2.8 1.8,-5.1 3.2,-6 1.4,-1 6.2,-3.4 6.2,-3.4 0,0 1.3,4.3 -0.5,7.3 -1.8,3 -4.8,5.4 -7.3,6.2 -2.5,0.8 -4.3,0.8 -4.3,0.8 z"
         id="path866" />
      <path
         style="opacity:0.2"
         d="m 46.8,128 c 0,0 -0.7,-3.1 -1,-5.4 -0.2,-2.4 -0.9,-6 -0.9,-6 0,0 -0.9,2.1 -2.8,3 -1.9,0.9 -3.7,1.3 -5.3,0.6 -1.6,-0.7 -5.4,-2.7 -5.4,-2.7 0,0 5.7,3.8 6.8,6.9 1.2,3.1 1.6,6.3 1.6,6.3 z"
         id="path868" />
      <path
         style="fill:#999999"
         d="m 58.2,96 c 0,0 -0.5,2.8 0.7,5.7 1.3,2.9 4,5.2 5.4,6.9 1.3,1.6 2.8,3.2 5.8,2.9 3,-0.4 3.2,-1.9 4.1,-3.1 0.9,-1.2 4.1,-5.7 4.6,-8.7 0.5,-3.1 0.1,-5.3 0.1,-5.3 0,0 2.1,-7.3 0.5,-8.2 -1.6,-0.9 -3.2,2.7 -5.1,2.9 -2,0.2 -2.9,-0.3 -5.1,-0.2 -2.2,0.1 -5.7,1 -5.7,1 0,0 -3.3,-3.4 -5.3,-2.7 -2.4,0.9 0,8.8 0,8.8 z"
         id="path870" />
      <path
         style="fill:#2d3134"
         d="m 69.7,110.5 c -0.6,0 -1.7,-1 -1.6,-1.5 0.1,-0.5 2.9,-0.5 3.1,0.1 0.2,0.5 -0.9,1.4 -1.5,1.4 z"
         id="path872" />
      <path
         style="fill:#2d3134"
         d="m 72,104.4 c 0,0 0.3,-1.8 1.8,-2.4 1.5,-0.6 2.1,-0.3 2.1,-0.3 0,0 -0.3,1.7 -1.5,2.3 -1.1,0.6 -2.4,0.4 -2.4,0.4 z"
         id="path874" />
      <path
         style="fill:#2d3134"
         d="m 67.3,104.4 c 0,0 -0.6,-1.8 -2,-2.3 -1.4,-0.5 -2.4,0 -2.4,0 0,0 0.2,1.5 1.4,2 1.2,0.5 3,0.3 3,0.3 z"
         id="path876" />
      <path
         style="opacity:0.2"
         d="m 72.9,93.3 c 0,0 4.8,-7.5 6.4,-6.9 1.2,0.4 -0.4,8 -0.4,8 0,0 -1.3,-1.2 -3,-1.5 -1.6,-0.3 -3,0.4 -3,0.4 z"
         id="path878" />
      <path
         style="opacity:0.2"
         d="m 65.2,93.2 c 0,0 -5.3,-6.3 -6.9,-5.8 -2.2,0.7 -0.1,8.6 -0.1,8.6 0,0 1.6,-2.1 2.9,-2.6 1.3,-0.5 4.1,-0.2 4.1,-0.2 z"
         id="path880" />
    </g>
  </g>
  <path
     style="fill:#000000;fill-opacity:1;fill-rule:nonzero;stroke:none;stroke-width:0.264583"
     id="path14"
     d="m 99.494506,31.012344 c -0.2669,-0.03347 -0.54801,-0.0266 -0.81415,0.01193 -0.095,0.01376 -0.18859,0.03571 -0.28288,0.05357 -0.11482,0.04405 -0.23375,0.0786 -0.34446,0.132135 -0.352698,0.170567 -0.658353,0.433679 -0.905344,0.735378 -0.234003,0.285835 -0.277191,0.39783 -0.456279,0.720161 -0.109022,0.252132 -0.23635,0.518973 -0.305567,0.786779 -0.07988,0.309059 -0.112938,0.607965 -0.109726,0.926655 0.0041,0.404577 0.04027,0.483259 0.121836,0.87603 0.04349,0.128694 0.07728,0.261086 0.130468,0.386086 0.215697,0.50692 0.592937,0.945705 1.065541,1.230712 0.122235,0.07371 0.255521,0.12732 0.383271,0.190978 0.13549,0.04278 0.26824,0.09548 0.40647,0.128339 0.41846,0.09948 0.84692,0.09361 1.26599,0.0011 0.353124,-0.07798 0.454574,-0.139661 0.783644,-0.280827 0.48647,-0.252166 0.86286,-0.561816 1.18553,-1.006379 0.18611,-0.256411 0.21858,-0.347102 0.3605,-0.626333 0.17359,-0.409201 0.31549,-0.824547 0.27588,-1.276797 -0.0248,-0.283736 -0.0784,-0.3919 -0.16749,-0.658312 -0.1795,-0.42799 -0.42897,-0.824193 -0.7287,-1.1782 -0.0467,-0.05519 -0.0969,-0.107408 -0.14529,-0.16111 -0.16143,-0.170762 -0.3359,-0.331155 -0.53224,-0.461381 -0.12536,-0.08314 -0.16561,-0.09956 -0.29878,-0.168759 -0.32439,-0.147323 -0.673424,-0.223232 -1.022744,-0.283107 -0.61342,-0.10446 -0.76115,0.763051 -0.14772,0.867511 v 0 c 0.26139,0.04416 0.52299,0.09763 0.76919,0.198784 0.0679,0.03403 0.123504,0.05936 0.186884,0.10046 0.14595,0.09462 0.27504,0.212447 0.39425,0.338439 0.28295,0.307927 0.52574,0.652396 0.6941,1.036777 0.0483,0.130702 0.0989,0.243361 0.11864,0.381807 0.0436,0.305848 -0.0727,0.591736 -0.18299,0.870181 -0.0391,0.0799 -0.0742,0.161887 -0.11737,0.239694 -0.13189,0.237934 -0.30285,0.467566 -0.50717,0.648673 -0.17811,0.157885 -0.28454,0.209394 -0.48759,0.332007 -0.242784,0.109339 -0.313124,0.154287 -0.572574,0.218409 -0.40493,0.100081 -0.75531,0.07958 -1.14921,-0.05408 -0.0857,-0.03892 -0.17492,-0.0707 -0.25697,-0.116742 -0.31884,-0.17892 -0.591104,-0.466051 -0.741575,-0.799976 -0.0414,-0.09187 -0.06798,-0.189725 -0.101973,-0.284586 -0.06832,-0.297148 -0.09373,-0.341979 -0.102574,-0.652671 -0.006,-0.211963 0.01222,-0.472409 0.06344,-0.679429 0.05223,-0.211119 0.161017,-0.448982 0.24471,-0.648457 0.05194,-0.09697 0.09867,-0.196913 0.155808,-0.290917 0.226624,-0.372872 0.539604,-0.690041 0.948074,-0.855546 0.0662,-0.01373 0.13189,-0.03085 0.19875,-0.0412 0.24137,-0.03738 0.48618,-0.03054 0.72839,-0.0078 0.622254,0 0.622254,-0.879999 0,-0.879999 z" />
  <path
     style="fill:#000000;fill-opacity:1;fill-rule:nonzero;stroke:none;stroke-width:0.264583"
     id="path15"
     d="m 102.33096,34.529458 c 0.31848,-0.02125 0.63828,-0.02233 0.95739,-0.02698 0.6033,-0.0039 1.20534,-0.04898 1.80765,-0.07961 0.64028,-0.03378 1.28163,-0.03216 1.92244,-0.04536 0.33729,-0.007 1.10272,-0.03109 1.43284,-0.04113 1.54487,-0.04987 3.09031,-0.0758 4.6358,-0.09545 1.2335,-0.01458 2.46708,-0.02122 3.70065,-0.02572 0.91717,-0.0019 1.83488,0.02786 2.7466,0.13022 0.60475,0.07321 1.19647,0.220626 1.77598,0.405064 0.42487,0.129492 0.81472,0.342149 1.19528,0.566769 0.26821,0.163478 0.45227,0.329996 0.59132,0.611092 0.12183,0.25826 0.11674,0.451022 0.081,0.726324 -0.0494,0.250978 -0.17705,0.47738 -0.34234,0.669967 -0.12902,0.138391 -0.2729,0.267314 -0.44666,0.346615 -0.13873,0.06332 -0.21328,0.07979 -0.36315,0.125122 -0.43013,0.11309 -0.87302,0.170404 -1.31617,0.199088 -0.35476,0.01844 -0.68503,-0.0208 -1.0237,-0.125032 -0.2836,-0.08953 -0.5355,-0.246078 -0.78104,-0.409561 -0.0822,-0.06106 -0.16116,-0.126011 -0.23816,-0.193477 -0.46977,-0.408056 -1.04685,0.256307 -0.57708,0.664364 v 0 c 0.10598,0.09149 0.21346,0.181083 0.32799,0.261908 0.31833,0.21141 0.64864,0.406638 1.01647,0.519967 0.0741,0.02164 0.14737,0.04621 0.22225,0.06496 0.36247,0.09076 0.73974,0.108534 1.11166,0.09493 0.51222,-0.03484 1.02414,-0.100938 1.5202,-0.237185 0.22454,-0.07176 0.32574,-0.09415 0.53597,-0.200253 0.26717,-0.134826 0.49434,-0.332306 0.6925,-0.554199 0.0455,-0.05715 0.0939,-0.112154 0.13664,-0.171458 0.20274,-0.281538 0.33909,-0.610073 0.39836,-0.951018 0.0202,-0.17789 0.0358,-0.260697 0.0297,-0.443039 -0.009,-0.278837 -0.0862,-0.548939 -0.20653,-0.799283 -0.0349,-0.06384 -0.0663,-0.129704 -0.10472,-0.191513 -0.2017,-0.324816 -0.4957,-0.567296 -0.81765,-0.766376 -0.43781,-0.25785 -0.88799,-0.498174 -1.37612,-0.647518 -0.6347,-0.200753 -1.28236,-0.361947 -1.94454,-0.440835 -0.94532,-0.104757 -1.89642,-0.138716 -2.84735,-0.135636 -1.23623,0.0045 -2.47246,0.01116 -3.70862,0.02577 -1.55069,0.01971 -3.10131,0.04575 -4.65137,0.09578 -0.31184,0.0095 -1.09626,0.03419 -1.41787,0.04081 -0.6518,0.01342 -1.30413,0.01193 -1.95537,0.04642 -0.59168,0.03012 -1.18311,0.07459 -1.77576,0.07857 -0.35122,0.0051 -0.70349,0.0051 -1.05371,0.03368 -0.61745,0.07718 -0.5083,0.950386 0.10915,0.873204 z" />
  <path
     style="fill:#000000;fill-opacity:1;fill-rule:nonzero;stroke:none;stroke-width:0.264583"
     id="path16"
     d="m 126.90009,39.342163 c -0.13955,0.475056 -0.32755,0.934534 -0.51305,1.393065 -0.24128,0.599657 -0.51554,1.184781 -0.78748,1.77088 -0.0318,0.07026 -0.0635,0.140507 -0.0953,0.210762 -0.25633,0.567005 0.54553,0.92951 0.80186,0.362506 v 0 c 0.0306,-0.06763 0.0611,-0.135263 0.0917,-0.202893 0.27813,-0.599435 0.55827,-1.198036 0.80504,-1.811338 0.19704,-0.487405 0.39594,-0.976019 0.54337,-1.481227 0.17095,-0.598313 -0.67519,-0.840068 -0.84614,-0.241755 z" />
  <path
     style="fill:#000000;fill-opacity:1;fill-rule:nonzero;stroke:none;stroke-width:0.264583"
     id="path17"
     d="m 126.2054,42.657466 c -0.30711,-0.454059 -0.54804,-0.947645 -0.79077,-1.43778 -0.20188,-0.407861 -0.38665,-0.823781 -0.57902,-1.23612 -0.26311,-0.563894 -1.06057,-0.191802 -0.79747,0.372091 v 0 c 0.19531,0.418529 0.38282,0.840729 0.58794,1.254638 0.25951,0.52377 0.51863,1.050259 0.84711,1.535306 0.34517,0.517747 1.07737,0.02961 0.73221,-0.488135 z" />
  <path
     style="fill:#000000;fill-opacity:1;fill-rule:nonzero;stroke:none;stroke-width:0.264583"
     id="path18"
     d="m 123.99953,39.952943 c -0.24148,0.24974 -0.49437,0.487084 -0.75849,0.712634 -0.39076,0.332536 -0.8271,0.602662 -1.26972,0.859261 -0.41499,0.229655 -0.85832,0.399092 -1.31495,0.523917 -0.43178,0.100647 -0.87432,0.137755 -1.31606,0.158827 -0.45093,0.0066 -0.89446,-0.08049 -1.32737,-0.1987 -0.29458,-0.106156 -0.58124,-0.236924 -0.85319,-0.392411 -0.0951,-0.05435 -0.26255,-0.162129 -0.35527,-0.220972 -0.26526,-0.169125 -0.51309,-0.363141 -0.74651,-0.573636 -0.46318,-0.415525 -1.05082,0.239515 -0.58764,0.65504 v 0 c 0.27072,0.241877 0.55588,0.467267 0.86293,0.6618 0.13062,0.08274 0.27701,0.177474 0.41082,0.253412 0.33044,0.187521 0.67905,0.34453 1.03891,0.466191 0.0864,0.02323 0.17233,0.04855 0.2593,0.06969 0.43799,0.106442 0.88951,0.163899 1.3404,0.15857 0.50654,-0.02466 1.0139,-0.06955 1.50802,-0.189582 0.083,-0.02313 0.16658,-0.04418 0.24896,-0.06938 0.44189,-0.135173 0.86742,-0.321456 1.27325,-0.541586 0.48874,-0.283742 0.96932,-0.584195 1.40046,-0.951984 0.28077,-0.240943 0.55134,-0.492586 0.80841,-0.758836 0.44,-0.439999 -0.18226,-1.062254 -0.62226,-0.622252 z" />
  <path
     style="fill:#000000;fill-opacity:1;fill-rule:nonzero;stroke:none;stroke-width:0.264583"
     id="path1"
     d="m 90.729061,39.010187 c -0.04773,-0.378198 -0.07082,-0.757849 -0.08709,-1.138576 -0.04357,-1.296821 0.03556,-2.594375 0.115705,-3.888285 0.116835,-1.582812 0.228785,-3.165912 0.32058,-4.750387 0.07789,-1.538251 0.152587,-3.076623 0.237619,-4.614505 0.07448,-1.36524 0.152924,-2.730232 0.218813,-4.095923 0.05032,-1.066226 0.08986,-2.132911 0.124918,-3.199733 0.02569,-0.787917 0.04569,-1.576 0.06339,-2.364132 0.0028,-0.551485 0.03363,-1.101894 0.06682,-1.652186 0.02381,-0.38248 0.04483,-0.765117 0.06319,-1.147894 0.01482,-0.292962 0.02667,-0.585905 0.02559,-0.87926 -0.0026,-0.238905 -0.0071,-0.477783 -0.01069,-0.716675 -2.65e-4,-0.164251 -0.01016,-0.328284 -0.0185,-0.492265 -0.03164,-0.6214487 -0.9105,-0.5767027 -0.878861,0.04475 v 0 c 0.0078,0.153429 0.0173,0.306901 0.01746,0.460587 0.0035,0.235698 0.008,0.471381 0.01061,0.707091 0.0013,0.278125 -0.01077,0.555836 -0.02461,0.833596 -0.0182,0.379179 -0.03903,0.758218 -0.06261,1.137103 -0.03385,0.561351 -0.06506,1.122843 -0.06819,1.6854 -0.01762,0.785082 -0.03755,1.570116 -0.06314,2.354983 -0.03491,1.062323 -0.07427,2.124508 -0.12437,3.186236 -0.06578,1.363631 -0.144147,2.726562 -0.218492,4.089744 -0.08499,1.537114 -0.159698,3.074713 -0.23749,4.612197 -0.0917,1.583319 -0.203746,3.165247 -0.320371,4.74691 -0.08194,1.324645 -0.162174,2.653004 -0.116568,3.980604 0.01614,0.370226 0.02609,0.746656 0.08401,1.113708 7.94e-4,0.0044 0.0016,-0.0087 0.0024,-0.01307 0,0.622255 0.879999,0.622255 0.879999,0 z" />
  <path
     style="fill:#000000;fill-opacity:1;fill-rule:nonzero;stroke:none;stroke-width:0.264583"
     id="path2"
     d="m 91.35361,10.442924 c 0.331954,0.0396 0.667898,0.04111 1.001749,0.04924 1.986458,0.02783 3.973222,0.02682 5.95983,0.03669 1.517864,0.0077 3.035721,0.01678 4.553571,0.02661 0.62224,0.004 0.62795,-0.8759497 0.006,-0.8799807 v 0 c -1.5183,-0.0098 -3.036598,-0.01887 -4.554907,-0.02662 -1.980951,-0.0098 -3.962059,-0.0089 -5.942864,-0.03644 -0.320162,-0.0077 -0.642023,-0.0089 -0.960388,-0.04726 -0.620673,-0.04433 -0.683371,0.8334297 -0.0627,0.8777637 z" />
  <path
     style="fill:#000000;fill-opacity:1;fill-rule:nonzero;stroke:none;stroke-width:0.264583"
     id="path3"
     d="m 91.423965,8.3381853 c 0.202822,0.00399 0.405691,0.00612 0.608547,0.00798 0.732885,0.00514 1.465792,0.00611 2.19869,0.00754 1.127956,0.00206 2.255912,0.00301 3.383867,0.0039 1.110076,8.202e-4 2.220148,0.0014 3.330221,0.00196 0.70416,3.44e-4 1.40832,6.88e-4 2.11247,9.79e-4 0.62226,2.91e-4 0.62265,-0.8797213 2.7e-4,-0.8799999 v 0 c -0.70414,-3.175e-4 -1.40828,-6.35e-4 -2.11243,-9.79e-4 -1.109986,-5.556e-4 -2.219976,-0.00114 -3.329967,-0.00196 -1.127617,-8.996e-4 -2.255234,-0.00185 -3.382849,-0.0039 -0.730773,-0.00143 -1.461555,-0.00238 -2.192316,-0.0075 -0.205555,-0.00188 -0.41111,-0.00421 -0.616633,-0.00802 -0.622252,0 -0.622252,0.8799999 0,0.8799999 z" />
  <path
     style="fill:#000000;fill-opacity:1;fill-rule:nonzero;stroke:none;stroke-width:0.264583"
     id="path4"
     d="m 91.517313,6.0229545 c 0.1833,0.020063 0.367395,0.031622 0.551505,0.041113 0.272815,0.01047 0.545844,0.0057 0.818724,0.00135 0.141973,-0.00241 0.07231,-0.00122 0.208987,-0.00357 0.622159,-0.010747 0.606959,-0.8906166 -0.01521,-0.8798687 v 0 c -0.136049,0.00235 -0.06679,0.00116 -0.207783,0.00355 -0.253253,0.00403 -0.506634,0.0087 -0.759846,-3.175e-4 -0.178202,-0.009 -0.356248,-0.020987 -0.533688,-0.040022 -0.620673,-0.044334 -0.683371,0.8334299 -0.0627,0.8777637 z" />
  <path
     style="fill:#000000;fill-opacity:1;fill-rule:nonzero;stroke:none;stroke-width:0.264583"
     id="path5"
     d="m 93.555827,5.7936719 c 0.07008,-0.089449 0.150431,-0.1696956 0.228727,-0.2518074 0.248253,-0.2611882 0.491897,-0.5266243 0.731321,-0.795913 0.198446,-0.2210917 0.391205,-0.4471585 0.585079,-0.6722396 0.126275,-0.1417732 0.250655,-0.2852121 0.3761,-0.4277172 0.411093,-0.4671221 -0.249518,-1.0484948 -0.660609,-0.5813726 v 0 c -0.127474,0.144881 -0.253995,0.2905945 -0.382255,0.4347837 -0.190875,0.2216065 -0.380621,0.4442158 -0.576013,0.6618816 -0.232577,0.2616735 -0.469345,0.5195168 -0.71051,0.7733088 -0.08691,0.091145 -0.176098,0.1804882 -0.254106,0.2795916 -0.409757,0.4682937 0.252511,1.0477778 0.662266,0.5794841 z" />
  <path
     style="fill:#000000;fill-opacity:1;fill-rule:nonzero;stroke:none;stroke-width:0.264583"
     id="path6"
     d="m 94.873809,3.6125337 c 0.04698,0.1008231 0.111474,0.1917644 0.17903,0.2795995 0.09866,0.1215355 0.201486,0.2396143 0.306761,0.3554452 0.105508,0.1137274 0.210026,0.2283576 0.314484,0.3430553 0.106018,0.1192429 0.210214,0.2402239 0.312737,0.3624961 0.103233,0.1236895 0.21222,0.2422535 0.320466,0.3615116 0.08802,0.096258 0.175914,0.1926214 0.264086,0.2887448 0.05551,0.061588 0.108812,0.125331 0.157665,0.1923536 0.04015,0.051792 0.02252,0.028527 0.0532,0.069569 0.373761,0.4974969 1.077328,-0.03108 0.703567,-0.5285771 v 0 c -0.03559,-0.047227 -0.01942,-0.0264 -0.04813,-0.062749 C 97.369504,5.1819287 97.296995,5.0930843 97.219782,5.0084356 97.132631,4.9134862 97.045787,4.818273 96.958842,4.7231391 96.858221,4.6123197 96.7567,4.5023361 96.660815,4.3873268 96.550542,4.2561009 96.438825,4.125978 96.324697,3.9980969 96.220313,3.8834826 96.11585,3.7689529 96.010438,3.6552869 c -0.0905,-0.099286 -0.178536,-0.2007873 -0.263859,-0.3045611 -0.02649,-0.032845 -0.04783,-0.066403 -0.07052,-0.1018204 -5.29e-4,-9.26e-4 5.29e-4,0.00217 7.93e-4,0.00324 0.0019,0.00458 0.0039,0.00916 0.0058,0.013742 -0.245118,-0.5719416 -1.053965,-0.2252927 -0.808847,0.3466489 z" />
</svg>
