<?xml version="1.0" encoding="UTF-8" standalone="no"?>
<svg
   id="svg8"
   version="1.1"
   viewBox="0 0 94.71695 47.611991"
   height="47.611992mm"
   width="94.716949mm"
   sodipodi:docname="23.-1 animal on table again.svg"
   inkscape:version="1.3 (0e150ed6c4, 2023-07-21)"
   xmlns:inkscape="http://www.inkscape.org/namespaces/inkscape"
   xmlns:sodipodi="http://sodipodi.sourceforge.net/DTD/sodipodi-0.dtd"
   xmlns="http://www.w3.org/2000/svg"
   xmlns:svg="http://www.w3.org/2000/svg"
   xmlns:rdf="http://www.w3.org/1999/02/22-rdf-syntax-ns#"
   xmlns:cc="http://creativecommons.org/ns#"
   xmlns:dc="http://purl.org/dc/elements/1.1/">
  <sodipodi:namedview
     id="namedview1"
     pagecolor="#ffffff"
     bordercolor="#000000"
     borderopacity="0.25"
     inkscape:showpageshadow="2"
     inkscape:pageopacity="0.0"
     inkscape:pagecheckerboard="0"
     inkscape:deskcolor="#d1d1d1"
     inkscape:document-units="mm"
     inkscape:zoom="1.3009486"
     inkscape:cx="224.4516"
     inkscape:cy="65.721274"
     inkscape:window-width="1920"
     inkscape:window-height="1051"
     inkscape:window-x="-9"
     inkscape:window-y="-9"
     inkscape:window-maximized="1"
     inkscape:current-layer="svg8" />
  <defs
     id="defs2" />
  <metadata
     id="metadata5">
    <rdf:RDF>
      <cc:Work
         rdf:about="">
        <dc:format>image/svg+xml</dc:format>
        <dc:type
           rdf:resource="http://purl.org/dc/dcmitype/StillImage" />
        <dc:title />
      </cc:Work>
    </rdf:RDF>
  </metadata>
  <g
     transform="translate(-84.094311,-85.495059)"
     id="layer1">
    <g
       transform="matrix(0.26458333,0,0,0.26458333,84.094311,77.83358)"
       id="g856">
      <ellipse
         style="opacity:0.2"
         cx="80"
         cy="160"
         rx="70"
         ry="35"
         id="ellipse815" />
      <path
         style="fill:#825012"
         d="m 100,80 c -2.8,0 -5,1.1 -5,2.5 l 35,97 c 0,1.4 2.2,2.5 5,2.5 2.8,0 5,-1.1 5,-2.5 l -35,-97 c 0,-1.4 -2.2,-2.5 -5,-2.5 z"
         id="path817" />
      <path
         style="opacity:0.2"
         d="m 100,85 c -2.8,0 -5,-1.1 -5,-2.5 l 35,97 c 0,1.4 2.2,2.5 5,2.5 2.8,0 5,-1.1 5,-2.5 l -35,-97 c 0,1.4 -2.2,2.5 -5,2.5 z"
         id="path819" />
      <path
         style="fill:#825012"
         d="m 100,73 c -2.8,0 -5,1.1 -5,2.5 l 35,63 c 0,1.4 2.2,2.5 5,2.5 2.8,0 5,-1.1 5,-2.5 l -35,-63 c 0,-1.4 -2.2,-2.5 -5,-2.5 z"
         id="path821" />
      <path
         style="opacity:0.2"
         d="m 100,78 c -2.8,0 -5,-1.1 -5,-2.5 l 35,63 c 0,1.4 2.2,2.5 5,2.5 2.8,0 5,-1.1 5,-2.5 l -35,-63 c 0,1.4 -2.2,2.5 -5,2.5 z"
         id="path823" />
      <path
         style="fill:#825012"
         d="m 60,80 c 2.8,0 5,1.1 5,2.5 l -35,97 c 0,1.4 -2.2,2.5 -5,2.5 -2.8,0 -5,-1.1 -5,-2.5 l 35,-97 C 55,81.1 57.2,80 60,80 Z"
         id="path825" />
      <path
         style="opacity:0.2"
         d="m 60,85 c 2.8,0 5,-1.1 5,-2.5 l -35,97 c 0,1.4 -2.2,2.5 -5,2.5 -2.8,0 -5,-1.1 -5,-2.5 l 35,-97 c 0,1.4 2.2,2.5 5,2.5 z"
         id="path827" />
      <path
         style="fill:#825012"
         d="m 60,73 c 2.8,0 5,1.1 5,2.5 l -35,63 c 0,1.4 -2.2,2.5 -5,2.5 -2.8,0 -5,-1.1 -5,-2.5 l 35,-63 C 55,74.1 57.2,73 60,73 Z"
         id="path829" />
      <path
         style="opacity:0.2"
         d="m 60,78 c 2.8,0 5,-1.1 5,-2.5 l -35,63 c 0,1.4 -2.2,2.5 -5,2.5 -2.8,0 -5,-1.1 -5,-2.5 l 35,-63 c 0,1.4 2.2,2.5 5,2.5 z"
         id="path831" />
      <path
         style="fill:#825012"
         d="M 80,40 C 35.8,40 0,57.9 0,80 v 10 c 0,22.1 35.8,40 80,40 44.2,0 80,-17.9 80,-40 V 80 C 160,57.9 124.2,40 80,40 Z"
         id="path833" />
      <path
         style="opacity:0.2"
         d="M 80,120 C 35.8,120 0,102.1 0,80 v 10 c 0,22.1 35.8,40 80,40 44.2,0 80,-17.9 80,-40 V 80 c 0,22.1 -35.8,40 -80,40 z"
         id="path835" />
    </g>
    <g
       transform="matrix(0.26458333,0,0,0.26458333,94.836394,64.101705)"
       id="g882">
      <path
         style="opacity:0.2"
         d="m 54.4,127.4 c 9.1,5.9 23.5,12.9 10.6,19.8 C 51.3,154.5 33.1,145.9 26.3,138 17.2,127.5 6.9,124 2.4,122.8 c -3.7,-1 -3.8,-3.1 4.4,-1.8 1.4,0.2 11.6,1.5 21.6,2.9 10.2,1.4 23.2,1.7 26,3.5 z"
         id="path858" />
      <path
         style="fill:#999999"
         d="m 46.3,127.9 c 0,0 0.8,2.9 2.8,4.1 2,1.2 6.1,3.4 6.5,4.3 0.4,0.9 1.4,3 3.5,2.6 2.1,-0.4 4.8,-2.2 4.1,-3.5 -0.7,-1.3 -1.7,-0.9 -3.8,-1.4 -2.1,-0.5 -5.2,-2.4 -6,-3.7 -0.9,-1.3 -1.7,-4 -1.7,-4 z"
         id="path860" />
      <path
         style="opacity:0.2"
         d="m 46.3,127.9 c 0,0 0.8,2.9 2.8,4.1 2,1.2 6.1,3.4 6.5,4.3 0.4,0.9 1.4,3 3.5,2.6 2.1,-0.4 4.8,-2.2 4.1,-3.5 -0.7,-1.3 -1.7,-0.9 -3.8,-1.4 -2.1,-0.5 -5.2,-2.4 -6,-3.7 -0.9,-1.3 -1.7,-4 -1.7,-4 z"
         id="path862" />
      <path
         style="fill:#999999"
         d="m 19.4,120.4 c 0,0 -8.5,-1.5 -12,-8.3 C 4,105.3 5.4,99.8 4.5,98.2 3.6,96.6 1.4,97 0.9,98.8 c -0.5,1.8 -1.2,13.5 4.9,19.8 6.3,6.3 13.8,7.8 13.8,7.8 0,0 1.8,6.3 5.5,8 3.7,1.7 5.1,0.5 5.1,0.5 0,0 -0.9,2 -0.2,3.1 0.7,1 8.4,3.1 9.5,4 1.1,1 2.1,3.8 4.9,2.8 2.8,-1 3.7,-2.1 3,-3.4 -0.7,-1.3 -2.6,-1.8 -4,-1.9 -1.4,-0.1 -6.5,-2.5 -6.5,-2.5 0,0 2.2,-2.1 2.7,-3.7 0.5,-1.6 0.3,-2.7 0.3,-2.7 l 6.9,-2.6 c 0,0 1.2,5.4 1.5,9.2 0.3,3.8 0.5,5.6 0.9,7.4 0.4,1.9 0.2,4.3 3.3,4 3.1,-0.3 4.3,-1.1 3.9,-2.3 -0.4,-1.2 -2.4,-2.4 -2.8,-4.6 -0.4,-2.1 0.1,-12.9 0.4,-14 0.2,-1.1 2.5,-7.1 2.5,-7.1 l 2.5,-0.5 c 0,0 1.1,7.8 1.5,11.3 0.4,3.5 0.7,9.2 0.7,10.4 0,1.2 0.7,2.6 2.2,2.7 1.5,0.2 4.6,-0.8 4.5,-2.1 -0.1,-1.3 -2.3,-3.1 -2.5,-4.6 -0.2,-1.5 -0.5,-14.8 0.9,-19.4 1.4,-4.6 2.4,-7.1 2.4,-7.1 L 60,91.5 c 0,0 -3.5,0.8 -7.9,0.7 -4.5,-0.1 -17.8,-0.1 -25.4,9.5 -7.8,9.7 -7.3,18.7 -7.3,18.7 z"
         id="path864" />
      <path
         style="fill:#e5e5e5"
         d="m 56.3,120.7 c 0,0 2.5,-2.1 2.7,-4.9 0.2,-2.8 1.8,-5.1 3.2,-6 1.4,-1 6.2,-3.4 6.2,-3.4 0,0 1.3,4.3 -0.5,7.3 -1.8,3 -4.8,5.4 -7.3,6.2 -2.5,0.8 -4.3,0.8 -4.3,0.8 z"
         id="path866" />
      <path
         style="opacity:0.2"
         d="m 46.8,128 c 0,0 -0.7,-3.1 -1,-5.4 -0.2,-2.4 -0.9,-6 -0.9,-6 0,0 -0.9,2.1 -2.8,3 -1.9,0.9 -3.7,1.3 -5.3,0.6 -1.6,-0.7 -5.4,-2.7 -5.4,-2.7 0,0 5.7,3.8 6.8,6.9 1.2,3.1 1.6,6.3 1.6,6.3 z"
         id="path868" />
      <path
         style="fill:#999999"
         d="m 58.2,96 c 0,0 -0.5,2.8 0.7,5.7 1.3,2.9 4,5.2 5.4,6.9 1.3,1.6 2.8,3.2 5.8,2.9 3,-0.4 3.2,-1.9 4.1,-3.1 0.9,-1.2 4.1,-5.7 4.6,-8.7 0.5,-3.1 0.1,-5.3 0.1,-5.3 0,0 2.1,-7.3 0.5,-8.2 -1.6,-0.9 -3.2,2.7 -5.1,2.9 -2,0.2 -2.9,-0.3 -5.1,-0.2 -2.2,0.1 -5.7,1 -5.7,1 0,0 -3.3,-3.4 -5.3,-2.7 -2.4,0.9 0,8.8 0,8.8 z"
         id="path870" />
      <path
         style="fill:#2d3134"
         d="m 69.7,110.5 c -0.6,0 -1.7,-1 -1.6,-1.5 0.1,-0.5 2.9,-0.5 3.1,0.1 0.2,0.5 -0.9,1.4 -1.5,1.4 z"
         id="path872" />
      <path
         style="fill:#2d3134"
         d="m 72,104.4 c 0,0 0.3,-1.8 1.8,-2.4 1.5,-0.6 2.1,-0.3 2.1,-0.3 0,0 -0.3,1.7 -1.5,2.3 -1.1,0.6 -2.4,0.4 -2.4,0.4 z"
         id="path874" />
      <path
         style="fill:#2d3134"
         d="m 67.3,104.4 c 0,0 -0.6,-1.8 -2,-2.3 -1.4,-0.5 -2.4,0 -2.4,0 0,0 0.2,1.5 1.4,2 1.2,0.5 3,0.3 3,0.3 z"
         id="path876" />
      <path
         style="opacity:0.2"
         d="m 72.9,93.3 c 0,0 4.8,-7.5 6.4,-6.9 1.2,0.4 -0.4,8 -0.4,8 0,0 -1.3,-1.2 -3,-1.5 -1.6,-0.3 -3,0.4 -3,0.4 z"
         id="path878" />
      <path
         style="opacity:0.2"
         d="m 65.2,93.2 c 0,0 -5.3,-6.3 -6.9,-5.8 -2.2,0.7 -0.1,8.6 -0.1,8.6 0,0 1.6,-2.1 2.9,-2.6 1.3,-0.5 4.1,-0.2 4.1,-0.2 z"
         id="path880" />
    </g>
  </g>
  <path
     style="fill:#000000;fill-opacity:1;fill-rule:nonzero;stroke:none;stroke-width:0.264583"
     id="path1"
     d="m 87.685925,10.777853 c 0.372488,-0.353524 0.53453,-0.8622965 0.703537,-1.3329098 0.213654,-0.6607434 0.366266,-1.3470487 0.388425,-2.0434395 0.0043,-0.1362548 -0.0021,-0.2726393 -0.0032,-0.408959 C 88.746517,6.345458 88.595705,5.7064767 88.303132,5.1265927 88.246802,5.0149469 88.180071,4.9088611 88.11854,4.7999953 87.855255,4.4079918 87.566013,4.0108105 87.17698,3.7321812 86.897996,3.5323704 86.818263,3.5224422 86.5037,3.3969117 85.917373,3.2378059 85.292512,3.2223721 84.728714,3.4783297 c -0.118761,0.053917 -0.227637,0.1273874 -0.341455,0.191081 -0.572948,0.3891441 -0.959824,0.9494363 -1.200658,1.5929156 -0.0524,0.1399901 -0.09173,0.2845267 -0.137592,0.4267899 -0.282143,1.0571664 -0.209317,2.1535981 -0.138829,3.2323845 0.09616,1.1353073 0.281011,2.2600623 0.457184,3.3849133 0.166648,1.029982 0.393777,2.048582 0.651203,3.059287 0.246761,0.901268 0.486672,1.804408 0.741286,2.703502 0.219281,0.766558 0.425407,1.536787 0.63673,2.30555 0.182414,0.657118 0.337315,1.321196 0.496742,1.984086 0.140179,0.592627 0.284686,1.18417 0.431961,1.775089 0.1151,0.472746 0.225076,0.946628 0.339011,1.419674 0.09352,0.399106 0.180896,0.799453 0.280228,1.1972 0.08086,0.353429 0.176107,0.703223 0.26746,1.054019 0.0782,0.316307 0.152839,0.633401 0.231706,0.949545 0.09016,0.350506 0.192347,0.698313 0.298008,1.044502 0.01722,0.05488 0.03445,0.10977 0.05168,0.164656 0.186375,0.593688 1.025975,0.330112 0.8396,-0.263576 v 0 c -0.01659,-0.05286 -0.0332,-0.105714 -0.0498,-0.158572 -0.101674,-0.331307 -0.198908,-0.66456 -0.285662,-1.000029 -0.07961,-0.319073 -0.154779,-0.63915 -0.233948,-0.958335 -0.09065,-0.347981 -0.18517,-0.694956 -0.265302,-1.045577 -0.09887,-0.395286 -0.185182,-0.793305 -0.27844,-1.189906 -0.114496,-0.475294 -0.224956,-0.951439 -0.340664,-1.426422 -0.146706,-0.588581 -0.290666,-1.177777 -0.430242,-1.768075 -0.161686,-0.672069 -0.31882,-1.345333 -0.503817,-2.011546 -0.211957,-0.770935 -0.418623,-1.543362 -0.638556,-2.312087 -0.252555,-0.891616 -0.490296,-1.787309 -0.735242,-2.681033 -0.250923,-0.98385 -0.471945,-1.975489 -0.634542,-2.978118 -0.172099,-1.098823 -0.353079,-2.1974669 -0.448472,-3.3063557 -0.06385,-0.9691325 -0.139356,-1.9554592 0.09939,-2.9082781 0.196715,-0.6302428 0.393324,-1.1222687 0.942826,-1.525989 0.06673,-0.041579 0.129919,-0.089487 0.2002,-0.1247383 0.363471,-0.1823059 0.772279,-0.1747644 1.159499,-0.085708 0.181436,0.06404 0.261522,0.079195 0.422704,0.1884492 0.309605,0.2098645 0.531188,0.5281507 0.741847,0.8294488 0.04881,0.083941 0.101819,0.1655714 0.146415,0.2518224 0.242543,0.4690978 0.36835,0.9877389 0.393538,1.5136554 0.0019,0.1127397 0.0083,0.2255057 0.0053,0.338219 -0.01643,0.6161259 -0.152138,1.2232499 -0.339233,1.8081251 -0.11457,0.3226507 -0.22316,0.6638629 -0.424559,0.9417892 -0.485899,0.388719 0.06383,1.075883 0.54973,0.687164 z" />
  <path
     style="fill:#000000;fill-opacity:1;fill-rule:nonzero;stroke:none;stroke-width:0.264583"
     id="path2"
     d="m 88.191054,29.815 c -0.125209,0.07421 -0.24864,0.151662 -0.372176,0.228711 -0.273537,0.172135 -0.511247,0.389906 -0.735132,0.621197 -0.327419,0.342299 -0.531021,0.752665 -0.699066,1.189831 -0.191055,0.502393 -0.306726,1.026956 -0.393385,1.555969 -0.05572,0.382657 -0.08295,0.76834 -0.03498,1.153417 0.03272,0.262663 0.05582,0.318138 0.121735,0.572593 0.203724,0.549127 0.604356,0.9643 1.091403,1.276329 0.09781,0.06266 0.20078,0.116869 0.301168,0.175305 0.515061,0.264702 1.062077,0.472638 1.630534,0.588618 0.110477,0.02254 0.222314,0.03781 0.333473,0.05671 0.462894,0.05081 0.926304,0.0307 1.377535,-0.08789 0.274476,-0.07214 0.352851,-0.113459 0.613182,-0.218996 0.368054,-0.167537 0.710319,-0.390337 0.99304,-0.681432 0.174455,-0.179623 0.226898,-0.265493 0.373274,-0.465367 0.244991,-0.375288 0.457462,-0.778008 0.598458,-1.204823 0.02897,-0.08771 0.05129,-0.17748 0.07694,-0.266221 0.126844,-0.505143 0.125079,-1.012529 0.0585,-1.525146 -0.07684,-0.446521 -0.240993,-0.868193 -0.434742,-1.275302 -0.185687,-0.376211 -0.454808,-0.695343 -0.753615,-0.985626 -0.317371,-0.303104 -0.720508,-0.484851 -1.122151,-0.647395 -0.358095,-0.140798 -0.729475,-0.239866 -1.109234,-0.299001 -0.305837,-0.04846 -0.614333,-0.04233 -0.921454,-0.01421 -0.272716,0.0331 -0.530026,0.129815 -0.778737,0.242036 -0.148048,0.07739 -0.07786,0.03934 -0.210865,0.113614 -0.542986,0.303917 -0.113181,1.071817 0.429805,0.767901 v 0 c 0.100034,-0.05615 0.0517,-0.02945 0.144912,-0.08026 0.15916,-0.0729 0.323088,-0.139531 0.497009,-0.167132 0.235752,-0.02275 0.472369,-0.02923 0.707361,0.0081 0.312836,0.04571 0.617339,0.131826 0.91244,0.245232 0.296862,0.118872 0.602467,0.24462 0.840057,0.464561 0.22524,0.215066 0.428868,0.452016 0.57054,0.731744 0.155572,0.323633 0.288993,0.658305 0.356473,1.01263 0.05431,0.389339 0.05817,0.783277 -0.03297,1.168341 -0.116946,0.424019 -0.298037,0.827408 -0.541398,1.194718 -0.09876,0.138356 -0.147601,0.216694 -0.263382,0.340466 -0.204005,0.218083 -0.455147,0.383061 -0.7247,0.508598 -0.23332,0.09753 -0.465425,0.187862 -0.715973,0.232259 -0.262935,0.04659 -0.53015,0.03998 -0.795234,0.02064 -0.09215,-0.01508 -0.184854,-0.02704 -0.276434,-0.04523 -0.485211,-0.09636 -0.951944,-0.272814 -1.393018,-0.494459 -0.417205,-0.237802 -0.772499,-0.463544 -0.981633,-0.915019 -0.0532,-0.194172 -0.0676,-0.222718 -0.0958,-0.425302 -0.04337,-0.311615 -0.01659,-0.623495 0.02704,-0.933571 0.07613,-0.470702 0.177985,-0.937527 0.347366,-1.384628 0.121539,-0.324157 0.269576,-0.638532 0.510895,-0.892712 0.172013,-0.180544 0.355586,-0.349639 0.566488,-0.484434 0.09838,-0.06136 0.208537,-0.12677 0.299996,-0.188272 0.556561,-0.278278 0.163012,-1.065374 -0.393547,-0.787096 z" />
  <path
     style="fill:#000000;fill-opacity:1;fill-rule:nonzero;stroke:none;stroke-width:0.264583"
     id="path3"
     d="m 94.012205,34.490584 c -0.604118,0.392594 -1.20986,0.781936 -1.824202,1.158457 -1.218342,0.733399 -2.477111,1.396646 -3.73748,2.054135 -1.381723,0.719979 -2.787274,1.392544 -4.193326,2.063263 -1.178554,0.559276 -2.371026,1.088306 -3.560659,1.623367 -0.871458,0.390152 -1.740802,0.784926 -2.60885,1.182606 -0.635886,0.289925 -1.27191,0.579617 -1.913514,0.856715 -0.320011,0.141661 -0.642617,0.277289 -0.965332,0.412626 -0.573837,0.240649 -0.233503,1.052176 0.340333,0.811524 v 0 c 0.325594,-0.136548 0.651074,-0.273401 0.973955,-0.416295 0.647454,-0.279715 1.289399,-0.57187 1.931083,-0.864534 0.866195,-0.396838 1.73369,-0.790768 2.603291,-1.180081 1.195636,-0.537763 2.394103,-1.069502 3.578577,-1.631667 1.415513,-0.675235 2.83047,-1.352447 4.221472,-2.077315 1.2783,-0.666914 2.55488,-1.339829 3.790349,-2.084081 0.620908,-0.380661 1.233244,-0.774099 1.843892,-1.170887 0.521726,-0.339122 0.04214,-1.076952 -0.479589,-0.737833 z" />
  <path
     style="fill:#000000;fill-opacity:1;fill-rule:nonzero;stroke:none;stroke-width:0.264583"
     id="path4"
     d="m 75.385673,43.880969 c -0.08372,-0.122327 -0.152609,-0.254584 -0.224464,-0.384156 -0.183513,-0.337119 -0.355185,-0.680329 -0.522857,-1.02553 -0.245895,-0.519774 -0.472659,-1.04838 -0.693724,-1.5791 -0.259588,-0.619948 -0.528569,-1.235985 -0.806532,-1.847911 -0.256916,-0.565189 -0.525081,-1.125154 -0.785778,-1.688581 -0.211373,-0.452239 -0.412893,-0.90904 -0.606234,-1.369259 -0.144537,-0.349866 -0.277035,-0.704524 -0.407864,-1.059693 -0.01717,-0.04734 -0.03435,-0.09468 -0.05152,-0.142026 -0.212209,-0.584951 -1.039456,-0.284842 -0.827247,0.300109 v 0 c 0.01767,0.0487 0.03534,0.0974 0.05301,0.146098 0.135385,0.367522 0.272632,0.73447 0.422349,1.096447 0.197493,0.469794 0.403045,0.93622 0.618874,1.397896 0.259895,0.561552 0.527068,1.119725 0.783227,1.683015 0.274214,0.603422 0.539335,1.211009 0.795404,1.822349 0.227642,0.546233 0.461034,1.090338 0.714494,1.625177 0.174712,0.359598 0.353671,0.717095 0.545036,1.068189 0.08354,0.150289 0.164682,0.302967 0.261626,0.445114 0.345162,0.517745 1.077367,0.02961 0.732202,-0.488138 z" />
  <path
     style="fill:#000000;fill-opacity:1;fill-rule:nonzero;stroke:none;stroke-width:0.264583"
     id="path5"
     d="M 73.355308,45.202084 C 73.156564,44.856755 72.96577,44.507233 72.782472,44.153487 72.379377,43.39145 72.024864,42.606085 71.677837,41.817426 71.320287,41.003747 70.98284,40.181528 70.646411,39.358968 70.417282,38.810298 70.198951,38.257261 69.984583,37.702694 69.836125,37.314709 69.693792,36.92446 69.547819,36.535543 69.44116,36.254479 69.335329,35.97306 69.2321,35.690715 c -0.01601,-0.04193 -0.03202,-0.08386 -0.04803,-0.125788 -0.222154,-0.581244 -1.044162,-0.26707 -0.822007,0.314177 v 0 c 0.01453,0.03799 0.02907,0.07597 0.04361,0.113961 0.104185,0.284602 0.210688,0.568376 0.318267,0.851705 0.146984,0.391609 0.290314,0.784561 0.439836,1.175215 0.216429,0.559867 0.436845,1.11819 0.668131,1.672119 0.339354,0.829702 0.679794,1.659036 1.040471,2.479768 0.354592,0.805738 0.717164,1.607965 1.128826,2.386602 0.18142,0.349846 0.368263,0.696794 0.56701,1.037157 0.278281,0.556561 1.065377,0.163012 0.787096,-0.393547 z" />
  <path
     style="fill:#000000;fill-opacity:1;fill-rule:nonzero;stroke:none;stroke-width:0.264583"
     id="path7"
     d="m 71.267976,45.991476 c -0.112488,-0.173672 -0.201285,-0.36118 -0.289645,-0.547854 -0.115961,-0.258244 -0.231254,-0.516956 -0.32857,-0.782897 -0.0449,-0.119142 -0.08828,-0.238823 -0.130815,-0.358828 -0.208005,-0.586459 -1.037384,-0.292295 -0.829379,0.294164 v 0 c 0.04373,0.123211 0.08817,0.246153 0.134305,0.368488 0.107299,0.290417 0.231288,0.574082 0.359243,0.855946 0.0964,0.203173 0.192307,0.409908 0.315601,0.598347 0.302193,0.543946 1.071451,0.116581 0.76926,-0.427366 z" />
  <path
     style="fill:#ff4400;fill-opacity:1;fill-rule:nonzero;stroke:none;stroke-width:0.264583"
     id="path8"
     d="m 69.647678,44.021143 c -0.169669,0.278804 -0.316296,0.571238 -0.470075,0.859012 -0.279061,0.513503 -0.541504,1.035762 -0.79929,1.56019 -0.169249,0.349144 -0.08662,0.176768 -0.248034,0.517069 -0.266647,0.562227 0.528463,0.939322 0.79511,0.377095 v 0 c 0.157483,-0.332102 0.07664,-0.16342 0.242679,-0.505978 0.253375,-0.515512 0.511304,-1.028907 0.785677,-1.533639 0.138412,-0.259033 0.272466,-0.520719 0.41909,-0.775203 0.352523,-0.512762 -0.372634,-1.011309 -0.725157,-0.498546 z" />
  <path
     style="fill:#ff4400;fill-opacity:1;fill-rule:nonzero;stroke:none;stroke-width:0.264583"
     id="path9"
     d="m 68.540069,46.662534 c -0.200777,-0.05715 -0.392457,-0.137184 -0.581451,-0.22505 -0.388559,-0.190005 -0.769279,-0.395557 -1.151835,-0.59727 -0.21327,-0.11281 -0.426212,-0.226182 -0.638728,-0.340408 -0.548097,-0.294597 -0.964723,0.480531 -0.416623,0.775129 v 0 c 0.214569,0.115329 0.42958,0.229788 0.644908,0.343699 0.396328,0.208971 0.790692,0.422074 1.193721,0.617953 0.218797,0.100266 0.44006,0.194051 0.671727,0.260786 0.59032,0.196774 0.868601,-0.638066 0.278281,-0.834839 z" />
  <path
     style="fill:#000000;fill-opacity:1;fill-rule:nonzero;stroke:none;stroke-width:0.264583"
     id="path6"
     d="m 89.106345,0.88074429 c 0.145886,0 0.291774,0 0.43766,0 0.40545,0 0.8109,0 1.216353,0 0.438309,-0.00441 0.876284,0.010674 1.313585,0.038978 0.318431,0.019281 0.635061,0.053206 0.948116,0.11462671 0.128561,0.026506 0.256931,0.053917 0.385429,0.080731 0.609134,0.1270975 0.788876,-0.73435041 0.179742,-0.86144781 v 0 c -0.132363,-0.027615 -0.264581,-0.055909 -0.397039,-0.083072 -0.350001,-0.067673 -0.703588,-0.108018 -1.059516,-0.1290072 -0.456189,-0.029419 -0.913082,-0.04527 -1.370317,-0.0408089996 -0.405453,0 -0.810903,0 -1.216353,0 -0.145886,0 -0.291774,0 -0.43766,0 -0.622253,0 -0.622253,0.87999995964 0,0.88000029964 z" />
  <path
     style="fill:#000000;fill-opacity:1;fill-rule:nonzero;stroke:none;stroke-width:0.264583"
     id="path10"
     d="m 93.082212,0.39322239 c -0.09818,0.1052195 -0.202507,0.2043777 -0.311116,0.2987193 C 92.573754,0.86140709 92.373412,1.0271959 92.171294,1.1909045 91.95818,1.3626216 91.744904,1.5341411 91.531219,1.7051464 91.350223,1.84682 91.169899,1.9893346 90.99048,2.1330098 90.829756,2.2604555 90.670021,2.3891728 90.51233,2.520354 90.4905,2.537869 90.46867,2.555385 90.44685,2.5729 c -0.485016,0.3898202 0.06627,1.0757359 0.551289,0.6859156 v 0 c 0.02574,-0.02071 0.05146,-0.04142 0.0772,-0.06213 0.153326,-0.1277311 0.308928,-0.2527192 0.465225,-0.3767907 0.179337,-0.1436282 0.359606,-0.28605 0.540512,-0.4276809 0.215027,-0.1720887 0.429649,-0.3446792 0.644101,-0.5174832 0.210667,-0.170635 0.419455,-0.3434929 0.625065,-0.520221 0.12286,-0.1078903 0.242793,-0.2192307 0.35423,-0.339034 0.439999,-0.44000001 -0.182256,-1.06225389 -0.622255,-0.62225401 z" />
  <path
     style="fill:#000000;fill-opacity:1;fill-rule:nonzero;stroke:none;stroke-width:0.264583"
     id="path11"
     d="m 90.719083,3.5052662 c -0.01336,-3.979e-4 -0.05005,-0.010123 -0.0401,-0.00119 0.01159,0.010401 0.03088,0.00417 0.04625,0.00671 0.01643,0.00271 0.03279,0.00578 0.04911,0.00904 0.09604,0.019204 0.191312,0.041786 0.286567,0.06447 0.303985,0.084019 0.587561,0.2233183 0.862658,0.374889 0.329629,0.1943471 0.620197,0.4461001 0.891228,0.7143322 0.226804,0.2359337 0.403559,0.5110258 0.545986,0.8042036 0.148172,0.3203925 0.166738,0.6718919 0.176946,1.0188774 0.0086,0.41026 -0.043,0.8170351 -0.124278,1.2181673 -0.08135,0.3983019 -0.216725,0.7815021 -0.377261,1.1539944 -0.153257,0.33898 -0.31486,0.6745907 -0.487561,1.00413 -0.08805,0.1589799 -0.04419,0.080425 -0.131559,0.2356809 -0.305117,0.542312 0.461828,0.973816 0.766945,0.431504 v 0 c 0.09388,-0.166902 0.04572,-0.08052 0.144334,-0.259225 0.182738,-0.3497698 0.354891,-0.7053422 0.516621,-1.0652907 0.183096,-0.428861 0.33873,-0.8693642 0.431252,-1.3275391 0.09315,-0.4674532 0.152609,-0.941274 0.141068,-1.4190631 -0.0063,-0.1897676 -0.0063,-0.3033943 -0.02791,-0.4933431 C 94.354625,5.6694925 94.280298,5.368933 94.150226,5.0889133 94.119651,5.0274487 94.090904,4.9650394 94.058495,4.9045194 93.890858,4.5914504 93.676347,4.3041997 93.432467,4.0467167 93.102452,3.7226639 92.748853,3.4193355 92.346559,3.1875127 92.001804,2.9993344 91.64594,2.8279509 91.26427,2.7281147 91.084494,2.6855117 90.903889,2.6390781 90.719083,2.6252662 c -0.622252,0 -0.622252,0.88 0,0.88 z" />
</svg>
