<?xml version="1.0" encoding="UTF-8" standalone="no"?>
<svg
   id="svg8"
   version="1.1"
   viewBox="0 0 98.661026 41.010418"
   height="41.010418mm"
   width="98.661026mm"
   sodipodi:docname="24 soweli li lon anpa supa..svg"
   inkscape:version="1.3 (0e150ed6c4, 2023-07-21)"
   xmlns:inkscape="http://www.inkscape.org/namespaces/inkscape"
   xmlns:sodipodi="http://sodipodi.sourceforge.net/DTD/sodipodi-0.dtd"
   xmlns="http://www.w3.org/2000/svg"
   xmlns:svg="http://www.w3.org/2000/svg"
   xmlns:rdf="http://www.w3.org/1999/02/22-rdf-syntax-ns#"
   xmlns:cc="http://creativecommons.org/ns#"
   xmlns:dc="http://purl.org/dc/elements/1.1/">
  <sodipodi:namedview
     id="namedview1"
     pagecolor="#ffffff"
     bordercolor="#000000"
     borderopacity="0.25"
     inkscape:showpageshadow="2"
     inkscape:pageopacity="0.0"
     inkscape:pagecheckerboard="0"
     inkscape:deskcolor="#d1d1d1"
     inkscape:document-units="mm"
     inkscape:zoom="1.9091883"
     inkscape:cx="195.63288"
     inkscape:cy="46.354779"
     inkscape:window-width="1920"
     inkscape:window-height="1051"
     inkscape:window-x="-9"
     inkscape:window-y="-9"
     inkscape:window-maximized="1"
     inkscape:current-layer="svg8" />
  <defs
     id="defs2" />
  <metadata
     id="metadata5">
    <rdf:RDF>
      <cc:Work
         rdf:about="">
        <dc:format>image/svg+xml</dc:format>
        <dc:type
           rdf:resource="http://purl.org/dc/dcmitype/StillImage" />
        <dc:title />
      </cc:Work>
    </rdf:RDF>
  </metadata>
  <g
     transform="translate(-86.182132,-88.764883)"
     id="layer1">
    <g
       transform="matrix(0.26458333,0,0,0.26458333,93.801466,89.299637)"
       id="g882">
      <path
         style="opacity:0.2"
         d="m 54.4,127.4 c 9.1,5.9 23.5,12.9 10.6,19.8 C 51.3,154.5 33.1,145.9 26.3,138 17.2,127.5 6.9,124 2.4,122.8 c -3.7,-1 -3.8,-3.1 4.4,-1.8 1.4,0.2 11.6,1.5 21.6,2.9 10.2,1.4 23.2,1.7 26,3.5 z"
         id="path858" />
      <path
         style="fill:#999999"
         d="m 46.3,127.9 c 0,0 0.8,2.9 2.8,4.1 2,1.2 6.1,3.4 6.5,4.3 0.4,0.9 1.4,3 3.5,2.6 2.1,-0.4 4.8,-2.2 4.1,-3.5 -0.7,-1.3 -1.7,-0.9 -3.8,-1.4 -2.1,-0.5 -5.2,-2.4 -6,-3.7 -0.9,-1.3 -1.7,-4 -1.7,-4 z"
         id="path860" />
      <path
         style="opacity:0.2"
         d="m 46.3,127.9 c 0,0 0.8,2.9 2.8,4.1 2,1.2 6.1,3.4 6.5,4.3 0.4,0.9 1.4,3 3.5,2.6 2.1,-0.4 4.8,-2.2 4.1,-3.5 -0.7,-1.3 -1.7,-0.9 -3.8,-1.4 -2.1,-0.5 -5.2,-2.4 -6,-3.7 -0.9,-1.3 -1.7,-4 -1.7,-4 z"
         id="path862" />
      <path
         style="fill:#999999"
         d="m 19.4,120.4 c 0,0 -8.5,-1.5 -12,-8.3 C 4,105.3 5.4,99.8 4.5,98.2 3.6,96.6 1.4,97 0.9,98.8 c -0.5,1.8 -1.2,13.5 4.9,19.8 6.3,6.3 13.8,7.8 13.8,7.8 0,0 1.8,6.3 5.5,8 3.7,1.7 5.1,0.5 5.1,0.5 0,0 -0.9,2 -0.2,3.1 0.7,1 8.4,3.1 9.5,4 1.1,1 2.1,3.8 4.9,2.8 2.8,-1 3.7,-2.1 3,-3.4 -0.7,-1.3 -2.6,-1.8 -4,-1.9 -1.4,-0.1 -6.5,-2.5 -6.5,-2.5 0,0 2.2,-2.1 2.7,-3.7 0.5,-1.6 0.3,-2.7 0.3,-2.7 l 6.9,-2.6 c 0,0 1.2,5.4 1.5,9.2 0.3,3.8 0.5,5.6 0.9,7.4 0.4,1.9 0.2,4.3 3.3,4 3.1,-0.3 4.3,-1.1 3.9,-2.3 -0.4,-1.2 -2.4,-2.4 -2.8,-4.6 -0.4,-2.1 0.1,-12.9 0.4,-14 0.2,-1.1 2.5,-7.1 2.5,-7.1 l 2.5,-0.5 c 0,0 1.1,7.8 1.5,11.3 0.4,3.5 0.7,9.2 0.7,10.4 0,1.2 0.7,2.6 2.2,2.7 1.5,0.2 4.6,-0.8 4.5,-2.1 -0.1,-1.3 -2.3,-3.1 -2.5,-4.6 -0.2,-1.5 -0.5,-14.8 0.9,-19.4 1.4,-4.6 2.4,-7.1 2.4,-7.1 L 60,91.5 c 0,0 -3.5,0.8 -7.9,0.7 -4.5,-0.1 -17.8,-0.1 -25.4,9.5 -7.8,9.7 -7.3,18.7 -7.3,18.7 z"
         id="path864" />
      <path
         style="fill:#e5e5e5"
         d="m 56.3,120.7 c 0,0 2.5,-2.1 2.7,-4.9 0.2,-2.8 1.8,-5.1 3.2,-6 1.4,-1 6.2,-3.4 6.2,-3.4 0,0 1.3,4.3 -0.5,7.3 -1.8,3 -4.8,5.4 -7.3,6.2 -2.5,0.8 -4.3,0.8 -4.3,0.8 z"
         id="path866" />
      <path
         style="opacity:0.2"
         d="m 46.8,128 c 0,0 -0.7,-3.1 -1,-5.4 -0.2,-2.4 -0.9,-6 -0.9,-6 0,0 -0.9,2.1 -2.8,3 -1.9,0.9 -3.7,1.3 -5.3,0.6 -1.6,-0.7 -5.4,-2.7 -5.4,-2.7 0,0 5.7,3.8 6.8,6.9 1.2,3.1 1.6,6.3 1.6,6.3 z"
         id="path868" />
      <path
         style="fill:#999999"
         d="m 58.2,96 c 0,0 -0.5,2.8 0.7,5.7 1.3,2.9 4,5.2 5.4,6.9 1.3,1.6 2.8,3.2 5.8,2.9 3,-0.4 3.2,-1.9 4.1,-3.1 0.9,-1.2 4.1,-5.7 4.6,-8.7 0.5,-3.1 0.1,-5.3 0.1,-5.3 0,0 2.1,-7.3 0.5,-8.2 -1.6,-0.9 -3.2,2.7 -5.1,2.9 -2,0.2 -2.9,-0.3 -5.1,-0.2 -2.2,0.1 -5.7,1 -5.7,1 0,0 -3.3,-3.4 -5.3,-2.7 -2.4,0.9 0,8.8 0,8.8 z"
         id="path870" />
      <path
         style="fill:#2d3134"
         d="m 69.7,110.5 c -0.6,0 -1.7,-1 -1.6,-1.5 0.1,-0.5 2.9,-0.5 3.1,0.1 0.2,0.5 -0.9,1.4 -1.5,1.4 z"
         id="path872" />
      <path
         style="fill:#2d3134"
         d="m 72,104.4 c 0,0 0.3,-1.8 1.8,-2.4 1.5,-0.6 2.1,-0.3 2.1,-0.3 0,0 -0.3,1.7 -1.5,2.3 -1.1,0.6 -2.4,0.4 -2.4,0.4 z"
         id="path874" />
      <path
         style="fill:#2d3134"
         d="m 67.3,104.4 c 0,0 -0.6,-1.8 -2,-2.3 -1.4,-0.5 -2.4,0 -2.4,0 0,0 0.2,1.5 1.4,2 1.2,0.5 3,0.3 3,0.3 z"
         id="path876" />
      <path
         style="opacity:0.2"
         d="m 72.9,93.3 c 0,0 4.8,-7.5 6.4,-6.9 1.2,0.4 -0.4,8 -0.4,8 0,0 -1.3,-1.2 -3,-1.5 -1.6,-0.3 -3,0.4 -3,0.4 z"
         id="path878" />
      <path
         style="opacity:0.2"
         d="m 65.2,93.2 c 0,0 -5.3,-6.3 -6.9,-5.8 -2.2,0.7 -0.1,8.6 -0.1,8.6 0,0 1.6,-2.1 2.9,-2.6 1.3,-0.5 4.1,-0.2 4.1,-0.2 z"
         id="path880" />
    </g>
    <g
       transform="matrix(0.26458333,0,0,0.26458333,86.182132,78.18155)"
       id="g856">
      <ellipse
         style="opacity:0.2"
         cx="80"
         cy="160"
         rx="70"
         ry="35"
         id="ellipse815" />
      <path
         style="fill:#825012"
         d="m 100,80 c -2.8,0 -5,1.1 -5,2.5 l 35,97 c 0,1.4 2.2,2.5 5,2.5 2.8,0 5,-1.1 5,-2.5 l -35,-97 c 0,-1.4 -2.2,-2.5 -5,-2.5 z"
         id="path817" />
      <path
         style="opacity:0.2"
         d="m 100,85 c -2.8,0 -5,-1.1 -5,-2.5 l 35,97 c 0,1.4 2.2,2.5 5,2.5 2.8,0 5,-1.1 5,-2.5 l -35,-97 c 0,1.4 -2.2,2.5 -5,2.5 z"
         id="path819" />
      <path
         style="fill:#825012"
         d="m 100,73 c -2.8,0 -5,1.1 -5,2.5 l 35,63 c 0,1.4 2.2,2.5 5,2.5 2.8,0 5,-1.1 5,-2.5 l -35,-63 c 0,-1.4 -2.2,-2.5 -5,-2.5 z"
         id="path821" />
      <path
         style="opacity:0.2"
         d="m 100,78 c -2.8,0 -5,-1.1 -5,-2.5 l 35,63 c 0,1.4 2.2,2.5 5,2.5 2.8,0 5,-1.1 5,-2.5 l -35,-63 c 0,1.4 -2.2,2.5 -5,2.5 z"
         id="path823" />
      <path
         style="fill:#825012"
         d="m 60,80 c 2.8,0 5,1.1 5,2.5 l -35,97 c 0,1.4 -2.2,2.5 -5,2.5 -2.8,0 -5,-1.1 -5,-2.5 l 35,-97 C 55,81.1 57.2,80 60,80 Z"
         id="path825" />
      <path
         style="opacity:0.2"
         d="m 60,85 c 2.8,0 5,-1.1 5,-2.5 l -35,97 c 0,1.4 -2.2,2.5 -5,2.5 -2.8,0 -5,-1.1 -5,-2.5 l 35,-97 c 0,1.4 2.2,2.5 5,2.5 z"
         id="path827" />
      <path
         style="fill:#825012"
         d="m 60,73 c 2.8,0 5,1.1 5,2.5 l -35,63 c 0,1.4 -2.2,2.5 -5,2.5 -2.8,0 -5,-1.1 -5,-2.5 l 35,-63 C 55,74.1 57.2,73 60,73 Z"
         id="path829" />
      <path
         style="opacity:0.2"
         d="m 60,78 c 2.8,0 5,-1.1 5,-2.5 l -35,63 c 0,1.4 -2.2,2.5 -5,2.5 -2.8,0 -5,-1.1 -5,-2.5 l 35,-63 c 0,1.4 2.2,2.5 5,2.5 z"
         id="path831" />
      <path
         style="fill:#825012"
         d="M 80,40 C 35.8,40 0,57.9 0,80 v 10 c 0,22.1 35.8,40 80,40 44.2,0 80,-17.9 80,-40 V 80 C 160,57.9 124.2,40 80,40 Z"
         id="path833" />
      <path
         style="opacity:0.2"
         d="M 80,120 C 35.8,120 0,102.1 0,80 v 10 c 0,22.1 35.8,40 80,40 44.2,0 80,-17.9 80,-40 V 80 c 0,22.1 -35.8,40 -80,40 z"
         id="path835" />
    </g>
  </g>
  <path
     style="fill:#000000;fill-opacity:1;fill-rule:nonzero;stroke:none;stroke-width:0.264583"
     id="path4"
     d="m 65.792034,33.068772 c 0.0149,-0.983239 0.04007,-1.966422 0.05569,-2.949721 0.02074,-1.457075 0.02781,-2.914291 0.03351,-4.371487 0.02281,-1.039509 -0.02551,-2.081245 0.02381,-3.120027 0.07015,-0.663351 0.130032,-1.327822 0.199625,-1.991201 0.01042,-0.09903 0.02085,-0.19806 0.03126,-0.29709 0.0651,-0.61884 -0.810072,-0.710906 -0.875173,-0.09207 v 0 c -0.01043,0.09918 -0.02088,0.19835 -0.0313,0.297525 -0.07109,0.680341 -0.13403,1.361628 -0.20347,2.042148 -0.04751,1.051375 -0.0045,2.105201 -0.02477,3.157274 -0.0057,1.453685 -0.01273,2.90739 -0.0334,4.360955 -0.01569,0.987955 -0.04112,1.975787 -0.0558,2.96369 0,0.622254 0.879999,0.622254 0.879999,0 z" />
  <path
     style="fill:#000000;fill-opacity:1;fill-rule:nonzero;stroke:none;stroke-width:0.264583"
     id="path5"
     d="m 63.581631,32.958261 c -0.06115,-0.714248 -0.07914,-1.431363 -0.09098,-2.147833 -0.03272,-1.159719 0.01987,-2.314117 0.09681,-3.470796 0.07648,-1.090134 0.131014,-2.18163 0.223877,-3.270565 0.07152,-0.729838 0.127302,-1.460855 0.163904,-2.193246 0.03292,-0.576482 0.01852,-1.153759 -0.0013,-1.730339 -0.02135,-0.621888 -0.900837,-0.591686 -0.879482,0.0302 v 0 c 0.01897,0.551896 0.0335,1.104465 0.0019,1.656279 -0.03598,0.722115 -0.09135,1.442835 -0.161825,2.162429 -0.09309,1.094394 -0.148582,2.191287 -0.225115,3.286891 -0.07834,1.17984 -0.131752,2.360946 -0.09862,3.543792 0.0123,0.734103 0.03085,1.468846 0.09345,2.20068 0.04772,0.620421 0.925132,0.552928 0.877406,-0.06749 z" />
  <path
     style="fill:#000000;fill-opacity:1;fill-rule:nonzero;stroke:none;stroke-width:0.264583"
     id="path6"
     d="m 60.257329,31.41952 c -0.01011,0.387536 -0.03694,0.774843 -0.05526,1.162212 -0.01172,0.263377 -0.0063,0.134953 -0.01643,0.385269 -0.02524,0.621741 0.854022,0.657454 0.879276,0.03571 v 0 c 0.01,-0.24613 0.0046,-0.119653 0.01617,-0.379429 0.01897,-0.401209 0.04702,-0.802308 0.05624,-1.203765 0,-0.622254 -0.879999,-0.622254 -0.879999,0 z" />
  <path
     style="fill:#000000;fill-opacity:1;fill-rule:nonzero;stroke:none;stroke-width:0.264583"
     id="path7"
     d="m 60.755447,30.822493 c -0.392801,-0.366269 -0.755293,-0.760849 -1.103977,-1.168794 -0.3054,-0.358086 -0.589216,-0.733492 -0.865679,-1.114076 -0.365861,-0.503333 -1.077683,0.01407 -0.711822,0.517407 v 0 c 0.290364,0.399231 0.588258,0.793155 0.908896,1.168829 0.375137,0.437881 0.764887,0.861891 1.187943,1.254355 0.465079,0.413403 1.049718,-0.244317 0.584639,-0.657721 z" />
  <path
     style="fill:#000000;fill-opacity:1;fill-rule:nonzero;stroke:none;stroke-width:0.264583"
     id="path8"
     d="m 58.065738,28.456904 c -0.395822,0.254795 -0.741609,0.58122 -1.088732,0.897321 -0.403775,0.363311 -0.778534,0.756686 -1.164452,1.138348 -0.187703,0.190005 -0.383014,0.372641 -0.565335,0.567887 -0.01836,0.01924 -0.03673,0.03847 -0.0551,0.05771 -0.429455,0.450298 0.207362,1.05764 0.636818,0.607342 v 0 c 0.02106,-0.02211 0.04213,-0.04422 0.0632,-0.06633 0.172506,-0.187384 0.36191,-0.358624 0.539443,-0.541153 0.377005,-0.373391 0.743662,-0.757651 1.138002,-1.113234 0.288499,-0.262848 0.577631,-0.525775 0.889699,-0.760799 0.556561,-0.278281 0.163012,-1.065377 -0.393549,-0.787096 z" />
  <path
     style="fill:#000000;fill-opacity:1;fill-rule:nonzero;stroke:none;stroke-width:0.264583"
     id="path9"
     d="m 65.456778,33.526978 c 0.310795,0 0.621591,0 0.932386,0 0.289534,-0.0027 0.579263,0.0064 0.868577,-0.0065 0.374737,-0.05039 0.750091,-0.08937 1.127411,-0.113981 0.49399,-0.02791 0.988787,-0.03583 1.483431,-0.04226 0.624115,-0.0066 1.24827,-0.0076 1.872414,-0.0087 0.684583,-10e-4 1.369168,-0.0012 2.053754,-0.0015 0.523809,-1.52e-4 1.04762,-1.92e-4 1.571429,-2.23e-4 0.397452,-2.1e-5 0.794906,-2.7e-5 1.192358,-3.1e-5 0.28934,-3e-6 0.578683,-4e-6 0.868024,-5e-6 0.227057,0.0011 0.453541,0.0048 0.67977,-0.01653 0.185822,-0.02053 0.372494,-0.03095 0.559205,-0.03902 0.283011,0.01476 0.566946,0.0039 0.850175,-0.0017 0.234198,-6.88e-4 0.467929,-0.01534 0.70181,-0.02567 0.266562,-0.01076 0.533352,-0.01357 0.800087,-0.0164 0.329911,-0.003 0.659836,-0.0033 0.989756,-0.0038 0.65996,-0.0053 1.319651,0.0066 1.978958,0.03538 0.861444,0.0451 1.72339,0.07788 2.585702,0.100301 0.938316,0.0188 1.876838,0.0246 2.815312,0.02993 0.869114,0.004 1.737842,0.03271 2.606908,0.04212 0.568571,-7.94e-4 0.28925,5.82e-4 0.837956,-0.0039 0.622234,-0.0052 0.61495,-0.88512 -0.0073,-0.87997 v 0 c -0.539115,0.0045 -0.265387,0.0031 -0.821179,0.004 -0.870564,-0.0094 -1.740789,-0.03836 -2.611403,-0.04215 -0.932519,-0.0053 -1.865085,-0.01106 -2.797447,-0.02965 -0.857166,-0.02226 -1.713963,-0.05494 -2.570264,-0.09976 -0.672483,-0.02919 -1.345342,-0.0417 -2.018487,-0.03622 -0.332624,4.77e-4 -0.66525,8.2e-4 -0.997863,0.0038 -0.276598,0.0029 -0.553252,0.0059 -0.829665,0.01721 -0.226734,0.01005 -0.45331,0.02444 -0.68036,0.02499 -0.290213,0.0058 -0.580757,0.01524 -0.870902,0.0024 -0.202203,0.0088 -0.40436,0.02022 -0.605618,0.04227 -0.197911,0.01979 -0.396473,0.01108 -0.595167,0.01245 -0.289346,1e-6 -0.578689,1e-6 -0.868035,5e-6 -0.397467,4e-6 -0.794932,1e-5 -1.1924,3.1e-5 -0.523885,3.1e-5 -1.047774,7.1e-5 -1.571659,2.23e-4 -0.685028,2.19e-4 -1.370055,4.76e-4 -2.055085,0.0015 -0.627422,0.0011 -1.254861,0.0022 -1.882257,0.0088 -0.510013,0.0066 -1.020188,0.01497 -1.529513,0.04407 -0.3721,0.02449 -0.743181,0.05837 -1.112198,0.113117 -0.275031,0.0146 -0.550965,2.06e-4 -0.826251,0.0055 -0.310796,0 -0.621591,0 -0.932386,0 -0.622255,0 -0.622255,0.88 0,0.88 z" />
  <path
     style="fill:#000000;fill-opacity:1;fill-rule:nonzero;stroke:none;stroke-width:0.264583"
     id="path10"
     d="m 87.854947,22.238826 c -0.274111,0.111748 -0.530997,0.274134 -0.750977,0.473013 -0.05863,0.05301 -0.113001,0.110553 -0.169503,0.165829 -0.223322,0.235493 -0.418499,0.496581 -0.567505,0.785535 -0.09658,0.187285 -0.117776,0.258235 -0.192148,0.45241 -0.159089,0.383703 -0.246452,0.786538 -0.302294,1.196351 -0.03977,0.394484 -0.01963,0.800037 0.0904,1.182736 0.02191,0.07619 0.05094,0.150155 0.07641,0.225232 0.153149,0.4038 0.424636,0.740872 0.758831,1.011013 0.07191,0.05813 0.149204,0.109276 0.223808,0.163915 0.4802,0.320072 1.036265,0.473831 1.59394,0.592993 0.364887,0.07497 0.738119,0.108557 1.10867,0.05597 0.236019,-0.0335 0.299612,-0.06196 0.525354,-0.130151 0.367075,-0.132357 0.707607,-0.331137 0.993349,-0.59798 0.05353,-0.04999 0.102796,-0.104358 0.154194,-0.156537 0.279914,-0.287451 0.505135,-0.617398 0.700485,-0.966177 0.210105,-0.379572 0.295992,-0.801694 0.354139,-1.226606 0.06417,-0.430679 0.03123,-0.862256 -0.05122,-1.287148 -0.08576,-0.320006 -0.20597,-0.641315 -0.405601,-0.909543 -0.04368,-0.05869 -0.09388,-0.112219 -0.140816,-0.168329 -0.27056,-0.28186 -0.583954,-0.514104 -0.92284,-0.70622 -0.266306,-0.144222 -0.552011,-0.245477 -0.843714,-0.323635 -0.313873,-0.07283 -0.63767,-0.09218 -0.958689,-0.07598 -0.247023,0.01822 -0.488497,0.08806 -0.723598,0.163396 -0.14355,0.04208 -0.27626,0.114886 -0.420193,0.155104 -0.03311,0.01273 -0.06621,0.02547 -0.09931,0.0382 -0.576575,0.234009 -0.245636,1.04941 0.330938,0.815402 v 0 c 0.007,-0.0036 0.01405,-0.0071 0.02106,-0.01066 0.150747,-0.04656 0.294323,-0.110419 0.443196,-0.162345 0.160192,-0.05576 0.329284,-0.101385 0.4977,-0.120506 0.228121,-0.01522 0.459237,0.0022 0.683167,0.04795 0.220501,0.05778 0.436435,0.133443 0.63845,0.24031 0.251307,0.139397 0.480962,0.31148 0.686652,0.512808 0.06187,0.06831 0.09461,0.09767 0.142235,0.176173 0.09343,0.153999 0.158181,0.325909 0.207997,0.498161 0.06639,0.329642 0.09313,0.664569 0.04249,0.999221 -0.04191,0.316162 -0.09682,0.633017 -0.251253,0.91681 -0.155321,0.282465 -0.337566,0.547737 -0.562303,0.78027 -0.220359,0.23125 -0.473567,0.41968 -0.777772,0.527543 -0.149529,0.04846 -0.193932,0.06901 -0.350253,0.0947 -0.280524,0.0461 -0.563115,0.01546 -0.83974,-0.04101 -0.438179,-0.09235 -0.879771,-0.203444 -1.262298,-0.446172 -0.190198,-0.133771 -0.384696,-0.282503 -0.521187,-0.474664 -0.0646,-0.09095 -0.09824,-0.175456 -0.14488,-0.275873 -0.117618,-0.324141 -0.164399,-0.656603 -0.125632,-1.001125 0.04547,-0.343893 0.118147,-0.680995 0.253259,-1.002341 0.133093,-0.358098 0.287591,-0.646933 0.556366,-0.924532 0.101386,-0.102725 0.201684,-0.198122 0.321619,-0.279292 0.03731,-0.02525 0.07613,-0.04819 0.114446,-0.07189 0.02819,-0.01743 0.06115,-0.02854 0.08506,-0.0515 0.0071,-0.0068 -0.01971,-0.0012 -0.02957,-0.0018 0.607436,-0.134986 0.416536,-0.994031 -0.190899,-0.859045 z" />
  <path
     style="fill:#000000;fill-opacity:1;fill-rule:nonzero;stroke:none;stroke-width:0.264583"
     id="path11"
     d="m 89.653532,21.899429 c -0.01921,-0.447966 -0.03962,-0.896431 -0.06494,-1.344247 -0.05,-0.794707 -0.076,-1.590591 -0.09644,-2.386519 -0.02138,-0.812194 0.01423,-1.62371 0.07295,-2.433547 0.06058,-0.802297 0.130948,-1.603964 0.217446,-2.403898 0.0644,-0.725719 0.184126,-1.444609 0.271594,-2.16758 0.08462,-0.771738 0.195554,-1.5398598 0.346477,-2.3013916 0.09242,-0.371111 0.188524,-0.7687525 0.429133,-1.0771661 0.02785,-0.035692 0.06168,-0.066284 0.09251,-0.099425 0.05427,-0.03978 0.132165,-0.1024274 0.196133,-0.1263727 0.132593,-0.049635 0.362903,0.042313 0.48427,0.080064 0.279754,0.1100296 0.539234,0.2753005 0.72227,0.517893 0.03624,0.048034 0.0663,0.1004326 0.09946,0.1506489 0.230333,0.3779596 0.337817,0.8079315 0.39951,1.2416696 0.04578,0.5019649 -0.09065,0.9940549 -0.231217,1.4709029 -0.13989,0.467076 -0.316124,0.921755 -0.523568,1.362715 -0.02371,0.04932 -0.04742,0.09865 -0.07112,0.147969 -0.269505,0.560863 0.523674,0.942001 0.793181,0.381139 v 0 c 0.02487,-0.0518 0.04976,-0.103594 0.07465,-0.15539 0.225618,-0.482199 0.419346,-0.978442 0.57137,-1.489023 0.17471,-0.599613 0.329769,-1.216449 0.257387,-1.8460897 -0.01339,-0.089095 -0.02387,-0.1786795 -0.04018,-0.2672839 C 93.567098,8.6805791 93.402911,8.2193392 93.149162,7.8087697 93.093032,7.7293367 93.041672,7.6463045 92.980765,7.5704719 92.686631,7.204266 92.284128,6.9523708 91.846293,6.7937409 91.618931,6.7313869 91.489518,6.6809139 91.248287,6.6777571 c -0.40246,-0.00527 -0.705601,0.1597427 -0.98892,0.4291407 -0.05558,0.065837 -0.115713,0.1280811 -0.166732,0.1975104 -0.298482,0.406187 -0.442196,0.9034561 -0.555268,1.3869932 -0.154803,0.7832376 -0.270013,1.5730106 -0.356868,2.3667056 -0.08763,0.726649 -0.208544,1.449107 -0.272848,2.178539 -0.08756,0.81027 -0.158933,1.62228 -0.220245,2.434943 -0.06058,0.838506 -0.09718,1.678758 -0.07496,2.51968 0.02069,0.805012 0.04704,1.609979 0.09756,2.413761 0.02455,0.431206 0.04348,0.863151 0.06353,1.2944 0,0.622253 0.879999,0.622253 0.879999,0 z" />
  <path
     style="fill:#000000;fill-opacity:1;fill-rule:nonzero;stroke:none;stroke-width:0.264583"
     id="path13"
     d="m 95.148361,5.3832935 c 0.272249,0.1681589 0.541732,0.3406889 0.813097,0.5102749 0.3303,0.2045729 0.666969,0.3985726 0.997622,0.6025666 0.148764,0.085304 0.287536,0.1854763 0.425854,0.2863154 0.103101,0.085713 0.218705,0.1522013 0.336447,0.2151036 0.06892,0.041626 0.144762,0.069809 0.215808,0.1070906 0.05162,0.024866 0.02516,0.012552 0.07938,0.036863 0.568878,0.2521452 0.925464,-0.5523707 0.356586,-0.8045157 v 0 c -0.02553,-0.010999 -0.01169,-0.00477 -0.04143,-0.018944 -0.06538,-0.032273 -0.132726,-0.060418 -0.19603,-0.096856 C 98.053905,6.1775809 97.9734,6.1333559 97.903277,6.071316 97.746639,5.9571634 97.588944,5.8444797 97.421016,5.7471311 97.091782,5.5441409 96.756848,5.3506262 96.427815,5.1473069 96.149775,4.9735542 95.873836,4.7965014 95.594534,4.6247929 95.058192,4.3092974 94.612014,5.0677996 95.148356,5.3832948 Z" />
  <path
     style="fill:#000000;fill-opacity:1;fill-rule:nonzero;stroke:none;stroke-width:0.264583"
     id="path14"
     d="m 97.923616,6.5065045 c -0.205148,0.05879 -0.414267,0.1023787 -0.62233,0.1494158 -0.243911,0.054918 -0.485904,0.1172673 -0.724902,0.1906355 -0.159414,0.052967 -0.317408,0.1103532 -0.472062,0.1759653 -0.126222,0.05234 -0.245271,0.1192567 -0.362011,0.1897655 -0.08025,0.051901 -0.161827,0.1012103 -0.244104,0.1497174 -0.04918,0.030659 -0.101013,0.056043 -0.153416,0.08055 -0.05453,0.023048 -0.109959,0.044513 -0.165066,0.06648 -0.577464,0.2318068 -0.24964,1.0484653 0.327824,0.8166585 v 0 c 0.07195,-0.029009 0.144695,-0.056312 0.215302,-0.088488 0.0761,-0.036507 0.151987,-0.073586 0.223859,-0.1180706 0.08416,-0.050232 0.168494,-0.099952 0.250584,-0.153594 0.08196,-0.049508 0.164616,-0.097952 0.253606,-0.1341409 0.125396,-0.054601 0.255045,-0.098868 0.384159,-0.1437206 0.217609,-0.067061 0.438166,-0.1232412 0.660275,-0.1734197 0.233408,-0.052769 0.468046,-0.1017417 0.697569,-0.169969 0.592405,-0.1904154 0.323117,-1.0282005 -0.269287,-0.8377852 z" />
  <path
     style="fill:#000000;fill-opacity:1;fill-rule:nonzero;stroke:none;stroke-width:0.264583"
     id="path15"
     d="m 95.133613,8.3728791 c 0.279041,0.155075 0.532202,0.3569272 0.758619,0.581246 0.08501,0.084219 0.165253,0.1731093 0.24788,0.259664 0.419484,0.4794388 0.783609,1.0147649 1.025179,1.6068719 0.04311,0.105655 0.07684,0.214897 0.115257,0.322345 0.02856,0.102169 0.06602,0.202257 0.08568,0.306506 0.048,0.254629 0.01873,0.521044 -0.0782,0.760913 -0.07397,0.183028 -0.139742,0.254583 -0.253648,0.413208 -0.143118,0.15474 -0.176302,0.206124 -0.347588,0.330017 -0.293418,0.212229 -0.676579,0.367675 -1.005816,0.517235 -0.08583,0.0375 -0.171659,0.07501 -0.25749,0.112516 -0.570151,0.249253 -0.217652,1.055569 0.352499,0.806316 v 0 c 0.08971,-0.03924 0.179425,-0.07847 0.269139,-0.11771 0.416463,-0.189417 0.848527,-0.370605 1.214753,-0.650544 0.247988,-0.189561 0.295031,-0.26646 0.500094,-0.499917 0.182348,-0.273711 0.265898,-0.363254 0.377587,-0.681557 0.139872,-0.398619 0.157797,-0.817944 0.07533,-1.230399 -0.02492,-0.124671 -0.07005,-0.244436 -0.105079,-0.366654 -0.04783,-0.13034 -0.09027,-0.26279 -0.1435,-0.391021 C 97.681721,9.7711801 97.261719,9.1548318 96.775142,8.604578 96.679222,8.505017 96.586404,8.4023688 96.487379,8.3058947 96.207939,8.0336567 95.896982,7.7892909 95.555006,7.6003311 95.008731,7.3023635 94.587342,8.0749115 95.133613,8.3728791 Z" />
</svg>
