<?xml version="1.0" encoding="UTF-8" standalone="no"?>
<svg
   id="svg3748"
   version="1.1"
   viewBox="0 0 207.06454 101.89801"
   height="101.89803mm"
   width="207.06454mm"
   sodipodi:docname="25 mije li lukin e lupa..svg"
   inkscape:version="1.3 (0e150ed6c4, 2023-07-21)"
   xmlns:inkscape="http://www.inkscape.org/namespaces/inkscape"
   xmlns:sodipodi="http://sodipodi.sourceforge.net/DTD/sodipodi-0.dtd"
   xmlns="http://www.w3.org/2000/svg"
   xmlns:svg="http://www.w3.org/2000/svg"
   xmlns:rdf="http://www.w3.org/1999/02/22-rdf-syntax-ns#"
   xmlns:cc="http://creativecommons.org/ns#"
   xmlns:dc="http://purl.org/dc/elements/1.1/">
  <sodipodi:namedview
     id="namedview1"
     pagecolor="#ffffff"
     bordercolor="#000000"
     borderopacity="0.25"
     inkscape:showpageshadow="2"
     inkscape:pageopacity="0.0"
     inkscape:pagecheckerboard="0"
     inkscape:deskcolor="#d1d1d1"
     inkscape:document-units="mm"
     inkscape:zoom="1.0866562"
     inkscape:cx="363.50044"
     inkscape:cy="251.68955"
     inkscape:window-width="1920"
     inkscape:window-height="1051"
     inkscape:window-x="-9"
     inkscape:window-y="-9"
     inkscape:window-maximized="1"
     inkscape:current-layer="svg3748" />
  <defs
     id="defs3742" />
  <metadata
     id="metadata3745">
    <rdf:RDF>
      <cc:Work
         rdf:about="">
        <dc:format>image/svg+xml</dc:format>
        <dc:type
           rdf:resource="http://purl.org/dc/dcmitype/StillImage" />
        <dc:title />
      </cc:Work>
    </rdf:RDF>
  </metadata>
  <g
     transform="translate(-36.018559,-76.268334)"
     id="layer1">
    <rect
       y="90.651863"
       x="36.018559"
       height="87.514496"
       width="117.96189"
       id="rect4530"
       style="fill:#99cc33;fill-opacity:1;stroke-width:0.315538" />
    <g
       id="g4340"
       transform="matrix(0.79374999,0,0,0.79374999,44.369843,119.18907)">
      <path
         id="path4293"
         d="m 64,0 -12,4 -4,4 -8,4 -8,8 h -8 l -8,4 -4,4 -12,4 12,4 4,4 8,4 8,8 h 8 l 8,4 4,4 12,4 12,-4 4,-4 8,-4 h 8 l 8,-8 8,-4 4,-4 12,-4 -12,-4 -4,-4 -8,-4 H 96 L 88,12 80,8 76,4 Z"
         style="opacity:1;fill:#baa794" />
      <path
         id="path4295"
         d="m 64,0 12,4 4,4 8,4 8,8 h 8 l 8,4 4,4 12,4 -12,4 -4,4 -8,4 -8,8 -8,-8 -8,-4 -4,-4 -12,-4 z"
         style="opacity:0.11" />
      <path
         id="path4297"
         d="m 64,0 v 32 l -12,4 -4,4 -8,4 -8,8 -8,-8 -8,-4 -4,-4 -12,-4 12,-4 4,-4 8,-4 h 8 l 8,-8 8,-4 4,-4 z"
         style="opacity:0.29" />
      <path
         id="path4299"
         d="m 16,24 8,-4 v 24 l -8,-4 z"
         style="opacity:0.1;fill:#ffffff" />
      <path
         id="path4301"
         d="m 48,8 4,-4 v 32 l -4,4 z"
         style="opacity:0.1;fill:#ffffff" />
      <path
         id="path4303"
         d="M 52,4 64,0 v 32 l -12,4 z"
         style="opacity:0.1" />
      <path
         id="path4305"
         d="m 40,12 -8,8 v 32 l 8,-8 z"
         style="opacity:0.15" />
      <path
         id="path4307"
         d="M 12,36 0,32 12,28 Z"
         style="opacity:0.1" />
      <path
         id="path4309"
         d="m 112,24 -8,-4 v 24 l 8,-4 z"
         style="opacity:0.1;fill:#ffffff" />
      <path
         id="path4311"
         d="M 80,8 76,4 v 32 l 4,4 z"
         style="opacity:0.1;fill:#ffffff" />
      <path
         id="path4313"
         d="M 76,4 64,0 v 32 l 12,4 z"
         style="opacity:0.1" />
      <path
         id="path4315"
         d="m 88,12 8,8 v 32 l -8,-8 z"
         style="opacity:0.15" />
      <path
         id="path4317"
         d="m 116,36 12,-4 -12,-4 z"
         style="opacity:0.1" />
    </g>
    <g
       id="g4380"
       transform="matrix(0.26458333,0,0,0.26458333,112.83983,71.489768)">
      <path
         id="path4342"
         d="m 13.4,105 c 0,0 1,9.1 1.3,12.3 0.3,3.2 1.3,5.5 2.1,7.3 0.8,1.8 4.5,6.2 5,5.9 0.5,-0.3 -0.3,-2.1 -0.3,-2.5 0,-0.4 0.4,-1.7 -0.2,-2.5 -0.6,-0.7 -1.7,-4 -1.6,-4.7 0.1,-0.7 1.4,-0.9 1.5,-1.4 0.1,-0.5 0.1,-0.5 0.1,-0.5 0,0 -3.6,-6 -3.6,-8.6 0,-2.7 -0.1,-6.1 -0.1,-6.1 0,0 -0.6,-0.3 -2,0 -1.4,0.2 -2.2,0.8 -2.2,0.8 z"
         style="fill:#fbd7c7" />
      <path
         id="path4344"
         d="m 28.1,216.9 c 0.6,1.8 -6.7,11.8 7.1,13.5 20.6,2.7 21.6,-13.7 29.3,-18.2 13.9,-8.1 -3.1,-14.1 -22.5,-14.1 -16.3,0.1 -30.5,1.9 -29.4,10.1 0.7,6.1 14.6,5.6 15.5,8.7 z"
         style="opacity:0.3;fill:#262626" />
      <path
         id="path4346"
         d="m 34,200.2 c 0,0 -1.6,1.2 -5.5,1.1 -3.9,-0.1 -7.3,-0.8 -11.4,1.5 -4.8,2.7 -1.2,7 0.1,7.4 1.3,0.4 18.1,0.9 21.2,0.7 3.1,-0.2 2.1,-8.2 2.1,-8.2 z"
         style="fill:#762c07" />
      <path
         id="path4348"
         d="m 39.4,209.1 c -1.5,0.1 -9,0.6 -13.5,0.5 -5,-0.1 -6.4,-0.5 -7.8,-1 -1.7,-0.6 -3.2,-1.4 -3.3,-3.1 -0.5,2.2 0.9,4.1 2.5,4.6 1.5,0.5 3.3,0.9 8.6,1.1 4.2,0.1 11.3,-0.3 12.6,-0.4 0.8,-0.1 1.4,-0.7 1.7,-1.6 -0.4,0.3 -0.5,-0.1 -0.8,-0.1 z"
         style="fill:#262626" />
      <path
         id="path4350"
         d="m 39.7,211 c 0,0 -3.9,4.4 -6.6,7.6 -2.7,3.2 -3.8,5.6 -3.6,7.9 0.2,2.3 3.5,3.4 8,3.4 4.5,0 9.3,-2.8 11.5,-5.9 2.3,-3.1 5.6,-5.9 5.6,-7.4 0,-1.5 -0.1,-6.2 -0.1,-6.2 z"
         style="fill:#762c07" />
      <path
         id="path4352"
         d="m 54.6,210.4 h -0.5 c 0,1.5 0.1,3.3 0.1,4.1 0,1.5 -3.4,4.3 -5.6,7.4 -2.3,3.1 -7,5.9 -11.5,5.9 -3.5,0 -6.3,-0.6 -7.4,-2 0,0.2 0,0.4 0,0.6 0.1,2.3 3.5,3.4 8,3.4 4.6,0 9.3,-2.8 11.5,-5.9 2.3,-3.1 5.6,-5.9 5.6,-7.4 -0.1,-1.4 -0.2,-6.1 -0.2,-6.1 z"
         style="fill:#262626" />
      <path
         id="path4354"
         d="m 19.7,114.3 c 0,0 -0.5,13 1.6,23.9 2.1,10.9 9.5,26.4 9.5,31.1 0,4.7 2.3,19 2.1,22.8 -0.1,3.8 -0.9,8.6 -0.9,8.6 0,0 2.7,5 6.2,6.7 3.5,1.7 7.2,-0.4 7.2,-0.4 L 39,116.5 Z"
         style="fill:#3399cc" />
      <path
         id="path4356"
         d="m 19.7,114.3 c 0,0 -0.5,13 1.6,23.9 2.1,10.9 9.5,26.4 9.5,31.1 0,4.7 2.3,19 2.1,22.8 -0.1,3.8 -0.9,8.6 -0.9,8.6 0,0 2.7,5 6.2,6.7 3.5,1.7 7.2,-0.4 7.2,-0.4 L 39,116.5 Z"
         style="opacity:0.2" />
      <path
         id="path4358"
         d="m 31.1,119.4 c 0,0 0.3,14.3 -0.3,25.6 -0.5,11.3 2.3,21.7 3.4,25.3 1.1,3.6 1.5,9.7 1.5,15.2 0,5.5 0.2,26.2 1,27 0.8,0.8 5.2,3.6 10.9,4 4.3,0.3 9,-2.4 9,-3.1 0,-0.7 1.5,-16.4 0.3,-29.1 -1.2,-12.7 -3.8,-19.3 -3.6,-21.3 0.1,-2 3.1,-29.1 2.8,-34.7 -0.3,-5.6 -2,-18.4 -2,-18.4 z"
         style="fill:#3399cc" />
      <path
         id="path4360"
         d="m 17.9,69.4 c 0,0 -2.2,7.4 -3.6,17.6 -1.5,10.7 -0.7,25.3 -0.7,25.3 0,0 2.1,-1.6 6.2,-1.6 4.1,0 -1.9,-41.3 -1.9,-41.3 z"
         style="fill:#ffcc00" />
      <path
         id="path4362"
         d="m 17.9,69.4 c 0,0 -2.2,7.4 -3.6,17.6 -1.5,10.7 -0.7,25.3 -0.7,25.3 0,0 2.1,-1.6 6.2,-1.6 4.1,0 -1.9,-41.3 -1.9,-41.3 z"
         style="opacity:0.2" />
      <path
         id="path4364"
         d="m 51.5,127 c 0,0 -0.4,2.9 -2.3,5.1 -1.9,2.1 -3.5,5.8 -3.5,7.3 0,2.1 0,3.9 0.9,4 1.8,0.2 1.1,-1.3 1.7,-1.3 0.6,0 0.3,2.6 3,2.7 3.5,0.1 8.5,-2.3 8.5,-4.6 0,-1.2 -0.5,-4.4 -0.9,-6.2 -0.5,-1.9 -0.5,-4.5 -0.5,-4.5 z"
         style="fill:#fbd7c7" />
      <path
         id="path4366"
         d="m 38.8,44 c 9.5,2.5 20.1,4.6 23.7,12.3 3.1,6.6 2.9,8.7 2.7,14.9 -0.3,6.2 -0.8,18.5 -0.5,22.5 0.3,4 -1.1,20.8 -2.3,26.4 -1.2,5.6 -1.6,10.3 -2.5,10.6 -0.9,0.3 -10.2,-0.9 -9.5,-2.3 0.9,-2 1.2,-7.6 1.2,-7.6 0,0 -4.4,5.4 -14.2,4 -9.8,-1.3 -18.2,-6.1 -19.1,-8.6 -0.4,-1.2 -0.6,-19.8 0.3,-24.8 0.9,-5 -2,-15.7 -2.1,-20.4 -0.1,-4.7 2.9,-17.4 3.1,-19.7 0.1,-3.4 4.2,-11.2 19.2,-7.3 z"
         style="fill:#ffcc00" />
      <path
         id="path4368"
         d="m 51.5,120.9 c 0,0 0.7,-5.2 0.7,-9.8 0,-4.6 0.1,-11.3 -0.4,-13.9 C 51.3,94.5 49.6,85 49.3,82.5 48.6,76.4 49,72.7 49.5,71.4 c -2.4,4.1 -1,19 -0.3,25.2 0.9,8.7 -0.3,25.8 -0.6,26.6 -0.3,0.7 2.9,-2.3 2.9,-2.3 z"
         style="opacity:0.2" />
      <path
         id="path4370"
         d="m 42.5,38.2 c 0,0 0,5.2 0.9,6.1 0.9,0.9 3,1.3 2.3,2.6 -0.7,1.3 -8.1,9.7 -13.5,9.2 -5.3,-0.5 -4,-9.4 -4,-9.4 z"
         style="fill:#fbd7c7" />
      <path
         id="path4372"
         d="m 22.8,26.5 c -2.2,2.8 -1.3,11 -0.3,14.7 1,3.7 2.2,5.9 2.7,7.3 0.4,1.4 1.9,3.6 3.9,3.5 2,-0.1 8.2,-4.1 10.1,-7.1 C 41,41.9 43.6,39 44,37 44.4,35 44.6,34.1 42.9,33.7 41.2,33.3 37.6,25.9 33,25.6 28.4,25.3 24.1,24.8 22.8,26.5 Z"
         style="fill:#fbd7c7" />
      <path
         id="path4374"
         d="m 21.5,28.4 c -0.4,1.6 0.8,3.3 5.5,3.3 4.7,0 7.6,-2.3 8.1,-0.8 0.5,1.5 1.8,5.7 2.2,6.6 0.4,0.9 1,2 1.3,1.6 0.3,-0.4 1.8,-3.9 2.9,-4.7 1.1,-0.8 1.7,-0.8 1.7,-0.8 0,0 1.6,-8.3 -2,-12.6 C 37.6,16.7 25,15.6 21.5,28.4 Z"
         style="fill:#825012" />
      <path
         id="path4376"
         d="m 25,46.6 c 0,0 0.7,-0.7 1.6,-0.8 0.4,0 1.3,0.1 1.9,0.2 0.8,0.2 2.7,1.1 2.7,1.1 0,0 -2.8,0 -3.7,-0.1 C 26.4,46.9 25,46.6 25,46.6 Z"
         style="fill:#825012" />
      <path
         id="path4378"
         d="m 26.8,49 1.2,0.1 c 0,0 -0.2,0.6 0.6,1.3 0.8,0.7 2.9,0.8 2.9,0.8 0,0 -1.7,1.3 -3.2,0.9 -1.5,-0.4 -2.3,-1.8 -2.3,-1.8 0,0 0.5,-0.1 0.6,-0.5 0.2,-0.4 0.2,-0.8 0.2,-0.8 z"
         style="fill:#825012" />
    </g>
  </g>
  <path
     style="fill:#000000;fill-opacity:1;fill-rule:nonzero;stroke:none;stroke-width:0.264583"
     d="m 165.45534,42.073317 c -3.57419,-0.177618 -14.54472,-0.562309 -18.1191,-0.73292 -0.6197,-0.05633 -0.69937,0.820052 -0.0797,0.876387 h 2e-5 c 3.58631,0.172797 14.5689,0.557229 18.1551,0.735447"
     id="path11" />
  <path
     style="fill:#ff4400;fill-opacity:1;fill-rule:nonzero;stroke:none;stroke-width:0.264583"
     d="m 165.41166,42.952231 c 5.5427,0.2824 3.69412,0.24372 9.24137,0.405751 0.62199,0.01818 0.64768,-0.861457 0.0257,-0.879625 v 0 c -5.54125,-0.161849 -3.68668,-0.122944 -9.22339,-0.40504"
     id="path1" />
  <path
     style="fill:#ff4400;fill-opacity:1;fill-rule:nonzero;stroke:none;stroke-width:0.264583"
     id="path2"
     d="m 174.16862,42.870657 c -0.14245,0.226293 -0.30137,0.442269 -0.45268,0.662895 -0.28851,0.411856 -0.48713,0.870183 -0.66942,1.335889 -0.18536,0.554778 -0.3032,1.127842 -0.41538,1.700845 -0.0798,0.44986 -0.14591,0.903891 -0.14285,1.361305 0.0442,0.518663 0.2705,0.990634 0.53122,1.432594 0.27692,0.427617 0.65659,0.771949 1.05128,1.088163 0.23662,0.174231 0.47571,0.343815 0.74155,0.47117 0.1553,0.0744 0.28461,0.122798 0.44421,0.186354 0.2946,0.109037 0.59131,0.217231 0.89835,0.286644 0.20352,0.04601 0.30033,0.05547 0.50499,0.08431 0.44964,0.0739 0.90026,0.0279 1.34507,-0.05098 0.41211,-0.07446 0.79659,-0.239205 1.17176,-0.419082 0.32447,-0.160906 0.63517,-0.350715 0.91374,-0.583096 0.16195,-0.135091 0.27026,-0.24724 0.42022,-0.394417 0.32828,-0.337646 0.62768,-0.699686 0.88325,-1.095127 0.24557,-0.386006 0.38702,-0.815504 0.48071,-1.259681 0.0773,-0.409358 0.10028,-0.826204 0.1189,-1.241581 0.0129,-0.382939 0.0229,-0.766188 0.0154,-1.149316 -0.0129,-0.418584 -0.0221,-0.83725 -0.0704,-1.253487 -0.0344,-0.334224 -0.12125,-0.655375 -0.2331,-0.97074 -0.0681,-0.174792 -0.0288,-0.08547 -0.11973,-0.267089 -0.28738,-0.551921 -1.06791,-0.145513 -0.78053,0.406408 v 0 c 0.0495,0.08656 0.024,0.03579 0.0709,0.154972 0.0901,0.253833 0.16284,0.510741 0.18862,0.780534 0.0477,0.387315 0.0495,0.777906 0.0644,1.167468 0.008,0.364006 -0.003,0.728186 -0.0147,1.092028 -0.0163,0.368443 -0.0352,0.738333 -0.10138,1.101826 -0.0691,0.339518 -0.1733,0.668014 -0.35984,0.963578 -0.21729,0.342238 -0.48008,0.650012 -0.75974,0.94297 -0.11292,0.111458 -0.22383,0.225321 -0.34485,0.328268 -0.22817,0.194104 -0.48541,0.349917 -0.75294,0.483267 -0.30362,0.146182 -0.61339,0.284781 -0.94714,0.346313 -0.35302,0.06528 -0.7102,0.105024 -1.06755,0.04533 -0.14425,-0.01969 -0.26126,-0.03254 -0.40325,-0.06401 -0.27244,-0.06037 -0.53516,-0.157213 -0.79648,-0.25323 -0.17284,-0.06838 -0.34972,-0.133118 -0.51254,-0.224023 -0.12042,-0.06723 -0.18769,-0.119661 -0.30196,-0.200097 -0.0491,-0.03457 -0.0983,-0.06907 -0.1474,-0.103602 -0.31318,-0.248127 -0.61698,-0.51792 -0.84354,-0.849964 -0.18527,-0.308104 -0.35362,-0.637667 -0.40762,-0.997034 -0.0125,-0.395243 0.0671,-0.788829 0.12659,-1.177997 0.10195,-0.521475 0.20846,-1.042794 0.37135,-1.549402 0.15754,-0.403554 0.32498,-0.802074 0.57567,-1.158743 0.17391,-0.253833 0.3594,-0.500425 0.51392,-0.766895 0.27828,-0.556562 -0.50881,-0.950111 -0.78709,-0.393549 z" />
  <path
     style="fill:#ff4400;fill-opacity:1;fill-rule:nonzero;stroke:none;stroke-width:0.264583"
     id="path3"
     d="m 181.17052,43.414913 c 0.28177,5.29e-4 0.56327,0.01818 0.84487,0.02781 0.65485,0.0054 1.30824,0.04052 1.96132,0.08618 0.55148,0.04192 1.1035,0.07489 1.65603,0.09864 0.29803,0.01021 0.59632,0.01352 0.89357,-0.01204 0.17132,-0.01627 0.0859,-0.0082 0.25624,-0.02416 0.61956,-0.05787 0.53772,-0.934056 -0.0818,-0.876186 v 0 c -0.17031,0.0159 -0.0859,0.008 -0.25326,0.02386 -0.25822,0.02477 -0.51801,0.01532 -0.77694,0.0093 -0.54468,-0.02339 -1.08882,-0.05598 -1.63244,-0.09731 -0.66351,-0.04635 -1.32735,-0.08225 -1.99264,-0.08781 -0.29161,-0.0099 -0.58311,-0.02826 -0.87491,-0.02832 -0.62226,0 -0.62226,0.880001 0,0.880001 z" />
  <path
     style="fill:#000000;fill-opacity:1;fill-rule:nonzero;stroke:none;stroke-width:0.264583"
     id="path6"
     d="m 177.92097,40.850291 c -0.30178,-0.338683 -0.61189,-0.669703 -0.91996,-1.002631 -0.23732,-0.251531 -0.4625,-0.513728 -0.68971,-0.774263 -0.10004,-0.115351 -0.19363,-0.235903 -0.28932,-0.354815 -0.0653,-0.08922 -0.13135,-0.177641 -0.2004,-0.263988 -0.0321,-0.03787 -0.0598,-0.07846 -0.0898,-0.11802 -0.37784,-0.494405 -1.07704,0.03994 -0.6992,0.534345 v 0 c 0.0343,0.0442 0.0652,0.0909 0.10174,0.133284 0.0696,0.08705 0.13518,0.176987 0.20211,0.26612 0.10297,0.127932 0.20387,0.257503 0.31167,0.381482 0.2329,0.267028 0.46387,0.535622 0.70702,0.793533 0.29594,0.319815 0.59336,0.638233 0.88477,0.962202 0.39403,0.481597 1.07512,-0.07565 0.68108,-0.557249 z" />
  <path
     style="fill:#000000;fill-opacity:1;fill-rule:nonzero;stroke:none;stroke-width:0.264583"
     id="path7"
     d="m 178.11569,41.327879 c 0.0339,-0.0402 0.0549,-0.06609 0.0967,-0.107968 0.13119,-0.131678 0.28465,-0.27041 0.41925,-0.394028 0.1483,-0.136192 0.46702,-0.427077 0.61529,-0.562486 0.34885,-0.322032 0.6938,-0.648226 1.03906,-0.97409 0.45253,-0.427106 -0.15149,-1.067075 -0.60402,-0.639971 v 0 c -0.34176,0.322558 -0.6832,0.645451 -1.02847,0.96426 -0.13055,0.119235 -0.4886,0.446019 -0.61877,0.565687 -0.1732,0.159211 -0.31116,0.283261 -0.47306,0.448199 -0.0562,0.0573 -0.0865,0.09479 -0.1331,0.150665 -0.38873,0.485899 0.29844,1.035629 0.68716,0.549732 z" />
  <path
     style="fill:#000000;fill-opacity:1;fill-rule:nonzero;stroke:none;stroke-width:0.264583"
     id="path8"
     d="m 175.22832,51.023104 c -0.74762,1.076672 -1.48876,2.157603 -2.21643,3.247872 -0.58096,0.889357 -0.30254,0.458549 -0.8361,1.291881 -0.33552,0.524049 0.4056,0.998543 0.74112,0.474496 v 0 c 0.52762,-0.824146 0.25225,-0.39801 0.82694,-1.277872 0.72622,-1.088181 1.46608,-2.166908 2.21217,-3.241545 0.3499,-0.514556 -0.3778,-1.009391 -0.7277,-0.494832 z" />
  <path
     style="fill:#000000;fill-opacity:1;fill-rule:nonzero;stroke:none;stroke-width:0.264583"
     id="path9"
     d="m 171.48772,42.831544 c -0.2662,0.62934 -0.58258,1.236098 -0.88982,1.846005 -0.50259,0.989203 -1.01591,1.9729 -1.50684,2.967977 -0.05,0.101037 -0.1,0.202073 -0.14996,0.303112 -0.27592,0.557734 0.51284,0.947947 0.78876,0.390213 v 0 c 0.0501,-0.10133 0.10026,-0.202658 0.15039,-0.303988 0.48981,-0.992907 1.00221,-1.974337 1.50357,-2.961428 0.32142,-0.638106 0.65294,-1.272897 0.92787,-1.932903 0.21849,-0.582636 -0.60548,-0.891625 -0.82397,-0.308988 z" />
  <path
     style="fill:#000000;fill-opacity:1;fill-rule:nonzero;stroke:none;stroke-width:0.264583"
     id="path10"
     d="m 185.20208,43.307463 c -0.005,-0.0051 -0.01,-0.02098 -0.0136,-0.01527 -0.0359,0.05508 -0.0605,0.116745 -0.0907,0.175178 -0.0482,0.09337 -0.0956,0.187161 -0.14435,0.280236 -0.19229,0.367046 -0.39111,0.73075 -0.58815,1.095256 -0.37913,0.685631 -0.72032,1.390801 -1.07189,2.090627 -0.13653,0.276346 -0.0716,0.142708 -0.19506,0.400735 -0.26843,0.561377 0.52548,0.940993 0.79391,0.379616 v 0 c 0.11763,-0.246126 0.0553,-0.117612 0.18751,-0.385321 0.34761,-0.691956 0.68477,-1.389295 1.05967,-2.0672 0.19981,-0.369652 0.40133,-0.738531 0.59633,-1.110755 0.0487,-0.09301 0.0962,-0.186674 0.14426,-0.280053 0.0356,-0.06923 0.0753,-0.136528 0.10666,-0.207775 0.0331,-0.0752 0.0577,-0.153876 0.0865,-0.230815 0.088,-0.616 -0.78315,-0.740449 -0.87115,-0.124449 z" />
  <path
     style="fill:#ff4400;fill-opacity:1;fill-rule:nonzero;stroke:none;stroke-width:0.264583"
     id="path12"
     d="m 176.85118,51.339112 c -0.0148,0.313907 -0.0195,0.628375 -0.0244,0.942631 -0.007,0.587616 -0.0144,1.175279 -0.0129,1.762943 0.002,0.269438 0.006,0.538837 0.0108,0.808235 0.001,0.09454 8e-4,0.04874 0.002,0.137414 0.009,0.622195 0.88857,0.609952 0.87992,-0.01225 v 0 c -0.001,-0.0902 -5.3e-4,-0.04372 -0.002,-0.139438 -0.004,-0.265432 -0.009,-0.53086 -0.0107,-0.796329 -0.002,-0.582253 0.006,-1.164508 0.0128,-1.746713 0.005,-0.318908 0.0106,-0.637884 0.0246,-0.956504 0,-0.622252 -0.88,-0.622252 -0.88,0 z" />
  <path
     style="fill:#000000;fill-opacity:1;fill-rule:nonzero;stroke:none;stroke-width:0.264583"
     id="path13"
     d="m 176.82891,55.110403 c -0.0142,0.44209 -0.0131,0.884585 -0.0151,1.326862 -0.003,0.728853 -0.004,1.457709 -0.005,2.186567 -5.3e-4,0.538604 -8e-4,1.077211 -8e-4,1.615816 -9e-5,0.32467 -1.2e-4,0.649337 -1.4e-4,0.974008 -0.007,0.243541 -0.0154,0.487254 -0.0377,0.729921 -0.0184,0.196348 -0.0369,0.392654 -0.0572,0.588811 -0.0641,0.618939 0.81117,0.709649 0.87531,0.09071 v 0 c 0.0207,-0.200012 0.0396,-0.400178 0.0584,-0.600383 0.0239,-0.269026 0.0353,-0.539007 0.0412,-0.809001 2e-5,-0.324604 5e-5,-0.649205 1.5e-4,-0.973809 1.5e-4,-0.538366 2.6e-4,-1.076733 7.9e-4,-1.615099 7.9e-4,-0.72785 0.002,-1.455706 0.005,-2.183553 0.002,-0.42272 0.002,-0.84555 0.0128,-1.268153 0.0443,-0.620673 -0.83343,-0.683371 -0.87777,-0.0627 z" />
  <path
     style="fill:#000000;fill-opacity:1;fill-rule:nonzero;stroke:none;stroke-width:0.264583"
     id="path14"
     d="m 176.66414,62.621631 c 0,0.421188 0,0.842378 0,1.263566 0.0112,0.966975 0.0759,1.931731 0.14284,2.89605 0.0662,0.940405 0.10066,1.882547 0.12425,2.82485 0.0153,0.694124 0.024,1.388372 0.0307,2.082625 0.003,0.316593 0.005,0.633196 0.006,0.949802 1.9e-4,0.16846 0.004,0.336841 -0.005,0.505121 -0.0106,0.199033 -0.0168,0.398288 -0.0156,0.597598 0.003,0.136494 0.001,0.06997 0.005,0.199581 0.0191,0.621961 0.89873,0.59487 0.87958,-0.02709 v 0 c -0.004,-0.118364 -0.002,-0.05863 -0.005,-0.179218 -0.002,-0.182354 0.005,-0.364665 0.0146,-0.54677 0.009,-0.183906 0.007,-0.367866 0.006,-0.551958 -0.001,-0.318516 -0.003,-0.637029 -0.006,-0.955532 -0.007,-0.69878 -0.0155,-1.397555 -0.0309,-2.096204 -0.024,-0.955272 -0.059,-1.910384 -0.12608,-2.863736 -0.0655,-0.944046 -0.12921,-1.888484 -0.14073,-2.835121 0,-0.421188 0,-0.842378 0,-1.263566 0,-0.622256 -0.88,-0.622256 -0.88,0 z" />
  <path
     style="fill:#000000;fill-opacity:1;fill-rule:nonzero;stroke:none;stroke-width:0.264583"
     id="path15"
     d="m 177.44278,74.489551 c 0.64193,-0.02673 1.28471,-0.03314 1.92714,-0.03755 0.79613,0.0035 1.59218,0.01619 2.38828,0.02323 0.96061,0.0066 1.921,0.03077 2.8815,0.04598 0.94042,0.0082 1.88053,0.03364 2.82079,0.05124 0.85735,0.01461 1.71478,0.02413 2.57222,0.03059 0.67279,0.0048 1.34559,0.0059 2.01839,0.0068 0.53434,7.94e-4 1.06867,0.0011 1.60301,0.0013 0.28155,9.8e-5 0.56309,1.54e-4 0.84464,1.86e-4 0.25999,2.3e-5 0.51998,2.3e-5 0.77997,2.6e-5 0.40394,5e-6 0.80787,5e-6 1.21181,5e-6 0.42094,0 0.84189,0 1.26283,0 0.47876,0.0037 0.95731,0.0236 1.43598,0.03451 0.45743,0.01 0.91493,0.0159 1.37244,0.02087 0.18939,0.0021 0.37878,0.0033 0.56818,0.0042 0.62225,0.0031 0.62669,-0.876851 0.004,-0.879989 v 0 c -0.1877,-0.0011 -0.37539,-0.0021 -0.56308,-0.0042 -0.45401,-0.0049 -0.90802,-0.01077 -1.36196,-0.02069 -0.48534,-0.01103 -0.97056,-0.03128 -1.456,-0.03474 -0.42094,0 -0.84189,0 -1.26283,0 -0.40394,0 -0.80787,0 -1.2118,-3e-6 -0.25997,-2e-6 -0.51993,-5e-6 -0.77989,-2.6e-5 -0.28146,-3.2e-5 -0.56293,-8.7e-5 -0.84439,-1.85e-4 -0.53403,-2.04e-4 -1.06806,-5.29e-4 -1.60208,-0.0013 -0.67101,-0.0011 -1.34203,-0.0021 -2.01302,-0.0068 -0.85417,-0.0064 -1.70832,-0.01593 -2.56239,-0.03046 -0.94111,-0.01762 -1.88207,-0.0431 -2.82334,-0.05129 -0.96255,-0.01524 -1.92499,-0.03942 -2.88764,-0.04605 -0.80073,-0.0071 -1.60139,-0.01995 -2.40214,-0.02326 -0.64038,0.0044 -1.28123,0.01032 -1.92106,0.03753 -0.62226,0 -0.62226,0.879999 0,0.879999 z" />
  <path
     style="fill:#000000;fill-opacity:1;fill-rule:nonzero;stroke:none;stroke-width:0.264583"
     id="path18"
     d="m 176.70222,62.873004 c 0.16638,0.259337 0.37552,0.489167 0.58118,0.717368 0.50695,0.54043 1.01799,1.077052 1.53214,1.610637 0.70841,0.736037 1.39588,1.491748 2.09561,2.235991 0.62844,0.661686 1.22993,1.347915 1.82605,2.038602 0.44265,0.500078 0.87594,1.008102 1.3244,1.503005 0.40841,0.446659 0.8249,0.885796 1.22306,1.341707 0.24669,0.285303 0.48762,0.57512 0.71714,0.874382 0.10701,0.137621 0.20369,0.282647 0.3065,0.42332 0.0711,0.120095 0.15374,0.232516 0.23544,0.345461 0.0691,0.09097 0.1454,0.175559 0.22035,0.261486 0.0589,0.06056 0.11858,0.120694 0.17428,0.184239 0.41568,0.463048 1.07053,-0.124809 0.65485,-0.587856 v 0 c -0.0559,-0.06168 -0.1125,-0.123172 -0.17182,-0.181486 -0.0564,-0.06279 -0.11177,-0.126269 -0.16482,-0.192378 -0.0827,-0.11421 -0.16408,-0.229069 -0.23817,-0.349208 -0.10692,-0.14582 -0.20695,-0.296598 -0.31837,-0.439166 -0.24094,-0.314079 -0.49369,-0.618413 -0.75269,-0.917797 -0.40186,-0.459756 -0.82135,-0.903338 -1.23368,-1.353635 -0.44373,-0.489603 -0.87222,-0.992399 -1.31029,-1.487051 -0.60428,-0.70013 -1.21412,-1.395629 -1.8511,-2.066414 -0.70221,-0.746858 -1.39206,-1.505273 -2.10306,-2.243812 -0.50765,-0.526817 -1.01212,-1.056717 -1.51292,-1.590046 -0.1642,-0.181136 -0.32869,-0.364042 -0.47002,-0.563951 -0.30873,-0.54027 -1.07278,-0.103666 -0.76406,0.436602 z" />
  <path
     style="fill:#000000;fill-opacity:1;fill-rule:nonzero;stroke:none;stroke-width:0.264583"
     id="path19"
     d="m 183.51497,71.69472 c -0.0174,-0.02402 -0.0333,-0.04913 -0.0521,-0.07206 -0.0764,-0.09336 -0.16707,-0.176149 -0.2521,-0.261366 -0.0306,-0.03069 -0.23601,-0.23853 -0.24471,-0.247327 -0.43794,-0.453742 -0.87964,-0.903814 -1.32242,-1.352833 -0.34596,-0.344514 -0.67945,-0.700929 -1.00808,-1.061877 -0.14868,-0.16085 -0.29088,-0.327567 -0.44013,-0.487873 -0.0736,-0.077 -0.14864,-0.152675 -0.22349,-0.228481 -0.0285,-0.0301 -0.0546,-0.06217 -0.081,-0.09402 -0.39804,-0.478287 -1.07445,0.08464 -0.6764,0.562922 v 0 c 0.0427,0.05109 0.0854,0.102076 0.13173,0.149913 0.069,0.06959 0.13769,0.139483 0.20573,0.209992 0.14719,0.157342 0.28611,0.322239 0.43287,0.479994 0.33649,0.369586 0.67805,0.734462 1.03219,1.087321 0.44305,0.449286 0.88497,0.899671 1.32322,1.353637 0.11191,0.113194 0.22436,0.225812 0.33662,0.338651 0.0234,0.02347 0.0462,0.04747 0.0695,0.07095 0.007,0.0074 0.0128,0.01789 0.0225,0.02154 0.006,0.0021 -0.006,-0.01087 -0.009,-0.01632 0.32014,0.53358 1.07474,0.08082 0.75459,-0.452755 z" />
  <path
     style="fill:#000000;fill-opacity:1;fill-rule:nonzero;stroke:none;stroke-width:0.264583"
     id="path4"
     d="m 201.46037,73.788165 c -0.0711,-0.07135 -0.0668,-0.06609 -0.15379,-0.160706 -0.44217,-0.481134 0.18597,0.195538 -0.38146,-0.418221 -0.25887,-0.280014 -0.33519,-0.35891 -0.60689,-0.646131 -0.58552,-0.601544 -1.189,-1.185519 -1.80197,-1.758998 -0.22502,-0.2106 -0.11664,-0.108924 -0.32517,-0.304975 -0.45337,-0.426219 -1.05613,0.214929 -0.60277,0.641149 v 0 c 0.21002,0.197451 0.10112,0.09528 0.32676,0.306459 0.59995,0.561195 1.19053,1.132727 1.76388,1.721128 0.26608,0.281242 0.3438,0.361643 0.59721,0.635725 0.17427,0.188484 0.34144,0.385424 0.52284,0.567253 0.0348,0.03489 0.0718,0.06753 0.10767,0.101291 0.48364,0.39152 1.03734,-0.292455 0.55369,-0.683974 z" />
  <path
     style="fill:#000000;fill-opacity:1;fill-rule:nonzero;stroke:none;stroke-width:0.264583"
     id="path5"
     d="m 200.84373,73.876205 c -0.16981,0.146999 -0.32039,0.314811 -0.47884,0.473802 -0.30587,0.307473 -0.61975,0.606579 -0.94405,0.894517 -0.30068,0.263445 -0.60947,0.517273 -0.91932,0.769773 -0.23603,0.19979 -0.48086,0.38866 -0.72947,0.572418 -0.11371,0.08409 -0.23205,0.161486 -0.3518,0.236609 -0.52682,0.33114 -0.0585,1.076188 0.46831,0.745046 v 0 c 0.13838,-0.08711 0.27523,-0.176715 0.40669,-0.274082 0.25964,-0.192059 0.51551,-0.389226 0.76218,-0.597816 0.31953,-0.260395 0.6379,-0.522263 0.94786,-0.794062 0.33753,-0.300008 0.6647,-0.611124 0.9831,-0.931397 0.1838,-0.184636 0.0846,-0.08359 0.24598,-0.250531 0.0368,-0.03809 0.0713,-0.07858 0.11009,-0.114609 0.0202,-0.01868 0.0428,-0.03457 0.0626,-0.05363 0.47803,-0.398357 -0.0853,-1.074391 -0.56336,-0.676034 z" />
  <path
     style="fill:#000000;fill-opacity:1;fill-rule:nonzero;stroke:none;stroke-width:0.264583"
     id="path16"
     d="m 200.82386,74.520402 c 0.0591,0.140697 0.15605,0.260069 0.24976,0.378809 0.0926,0.114988 0.18412,0.230814 0.26894,0.351695 0.0739,0.106976 0.15073,0.211854 0.22769,0.316637 0.0626,0.08453 0.12301,0.170717 0.19624,0.246695 0.0611,0.06335 0.11427,0.10873 0.17924,0.166584 0.12926,0.110368 0.25802,0.221253 0.38582,0.333325 0.15741,0.145973 0.32602,0.278532 0.49727,0.407657 0.17736,0.136257 0.36728,0.253338 0.56238,0.362048 0.15325,0.08145 0.31193,0.155829 0.47868,0.205575 0.0399,0.01188 0.0804,0.02133 0.12063,0.03199 0.25422,0.05859 0.5151,0.07337 0.77508,0.07625 0.26775,-0.0097 0.53326,-0.05629 0.7816,-0.159287 0.0502,-0.0208 0.0985,-0.04573 0.14778,-0.06859 0.17025,-0.08675 0.3271,-0.198281 0.464,-0.331671 0.0698,-0.06801 0.098,-0.104275 0.16012,-0.177041 0.15713,-0.202755 0.28497,-0.425111 0.40063,-0.653401 0.11992,-0.22582 0.20065,-0.467289 0.26146,-0.714743 0.0508,-0.244128 0.0762,-0.493006 0.0831,-0.742045 0.002,-0.156422 -0.007,-0.313375 -0.0468,-0.465355 -0.0304,-0.115932 -0.0538,-0.165724 -0.0973,-0.275545 -0.0945,-0.218831 -0.20829,-0.428506 -0.34256,-0.625303 -0.0921,-0.138702 -0.20611,-0.258328 -0.32581,-0.372946 -0.14331,-0.136549 -0.31517,-0.236265 -0.4894,-0.327535 -0.24674,-0.119476 -0.52213,-0.145818 -0.79146,-0.16949 -0.29309,-0.02318 -0.58362,0.01709 -0.87027,0.07421 -0.29522,0.06422 -0.58107,0.163179 -0.86282,0.270841 -0.27034,0.104643 -0.52426,0.245263 -0.78064,0.379307 -0.19858,0.103356 -0.39559,0.209655 -0.59284,0.315523 -0.1401,0.07491 -0.27434,0.160293 -0.40544,0.249859 -0.0965,0.06784 -0.19368,0.134501 -0.28991,0.202695 -0.50754,0.360003 0.002,1.077775 0.50913,0.71777 v 0 c 0.0926,-0.06579 0.18629,-0.130035 0.2793,-0.195292 0.10407,-0.07223 0.21183,-0.139478 0.32328,-0.199758 0.19433,-0.104418 0.38855,-0.20905 0.58422,-0.310959 0.22618,-0.118258 0.44971,-0.243422 0.68754,-0.337315 0.23592,-0.09052 0.475,-0.174506 0.72194,-0.229997 0.20432,-0.04172 0.41126,-0.07456 0.62064,-0.06016 0.10147,0.0086 0.20255,0.01767 0.30312,0.03409 0.004,5.3e-4 0.0977,0.01754 0.11477,0.02268 0.0148,0.0045 0.0289,0.01114 0.0434,0.01672 0.10071,0.05183 0.20249,0.105897 0.28689,0.182451 0.0771,0.07383 0.15313,0.147728 0.21109,0.238541 0.10044,0.140745 0.17735,0.29673 0.24976,0.453281 0.0139,0.03344 0.0422,0.09851 0.0541,0.136388 0.0261,0.08269 0.0268,0.16928 0.0263,0.25518 -0.003,0.186253 -0.0254,0.37226 -0.0587,0.555392 -0.043,0.18234 -0.10295,0.359277 -0.19169,0.52501 -0.0841,0.167457 -0.17679,0.330134 -0.28719,0.481938 -0.0939,0.113007 -0.19769,0.216078 -0.33103,0.282522 -0.0251,0.01265 -0.0496,0.02665 -0.0754,0.03794 -0.14822,0.06491 -0.30587,0.09477 -0.46684,0.104146 -0.18934,-0.0013 -0.37937,-0.01027 -0.56529,-0.0489 -0.13665,-0.03227 -0.26635,-0.08674 -0.38948,-0.154035 -0.1598,-0.08865 -0.31546,-0.183724 -0.46032,-0.295662 -0.15395,-0.116035 -0.30566,-0.234921 -0.44679,-0.36658 -0.12651,-0.110948 -0.25392,-0.220819 -0.38199,-0.329954 -0.005,-0.0044 -0.0958,-0.08429 -0.10978,-0.09768 -0.0549,-0.0528 -0.0938,-0.11906 -0.14066,-0.178501 -0.0735,-0.09993 -0.14679,-0.200009 -0.21724,-0.30212 -0.0946,-0.133948 -0.19504,-0.263435 -0.2982,-0.390877 -0.0457,-0.05767 -0.097,-0.114257 -0.13119,-0.179636 -0.24512,-0.571939 -1.05397,-0.225293 -0.80885,0.346649 z" />
</svg>
