<?xml version="1.0" encoding="UTF-8" standalone="no"?>
<svg
   id="svg3748"
   version="1.1"
   viewBox="0 0 207.06454 101.89801"
   height="101.89803mm"
   width="207.06454mm"
   sodipodi:docname="25.-1 man standing on ground.svg"
   inkscape:version="1.3 (0e150ed6c4, 2023-07-21)"
   xmlns:inkscape="http://www.inkscape.org/namespaces/inkscape"
   xmlns:sodipodi="http://sodipodi.sourceforge.net/DTD/sodipodi-0.dtd"
   xmlns="http://www.w3.org/2000/svg"
   xmlns:svg="http://www.w3.org/2000/svg"
   xmlns:rdf="http://www.w3.org/1999/02/22-rdf-syntax-ns#"
   xmlns:cc="http://creativecommons.org/ns#"
   xmlns:dc="http://purl.org/dc/elements/1.1/">
  <sodipodi:namedview
     id="namedview1"
     pagecolor="#ffffff"
     bordercolor="#000000"
     borderopacity="0.25"
     inkscape:showpageshadow="2"
     inkscape:pageopacity="0.0"
     inkscape:pagecheckerboard="0"
     inkscape:deskcolor="#d1d1d1"
     inkscape:document-units="mm"
     inkscape:zoom="0.5"
     inkscape:cx="-38"
     inkscape:cy="437"
     inkscape:window-width="1920"
     inkscape:window-height="1051"
     inkscape:window-x="-9"
     inkscape:window-y="-9"
     inkscape:window-maximized="1"
     inkscape:current-layer="svg3748" />
  <defs
     id="defs3742" />
  <metadata
     id="metadata3745">
    <rdf:RDF>
      <cc:Work
         rdf:about="">
        <dc:format>image/svg+xml</dc:format>
        <dc:type
           rdf:resource="http://purl.org/dc/dcmitype/StillImage" />
      </cc:Work>
    </rdf:RDF>
  </metadata>
  <g
     transform="translate(-36.018559,-76.268334)"
     id="layer1">
    <rect
       y="90.651863"
       x="36.018559"
       height="87.514496"
       width="117.96189"
       id="rect4530"
       style="fill:#99cc33;fill-opacity:1;stroke-width:0.315538" />
    <g
       id="g4380"
       transform="matrix(0.26458333,0,0,0.26458333,82.531466,81.218379)">
      <path
         id="path4342"
         d="m 13.4,105 c 0,0 1,9.1 1.3,12.3 0.3,3.2 1.3,5.5 2.1,7.3 0.8,1.8 4.5,6.2 5,5.9 0.5,-0.3 -0.3,-2.1 -0.3,-2.5 0,-0.4 0.4,-1.7 -0.2,-2.5 -0.6,-0.7 -1.7,-4 -1.6,-4.7 0.1,-0.7 1.4,-0.9 1.5,-1.4 0.1,-0.5 0.1,-0.5 0.1,-0.5 0,0 -3.6,-6 -3.6,-8.6 0,-2.7 -0.1,-6.1 -0.1,-6.1 0,0 -0.6,-0.3 -2,0 -1.4,0.2 -2.2,0.8 -2.2,0.8 z"
         style="fill:#fbd7c7" />
      <path
         id="path4344"
         d="m 28.1,216.9 c 0.6,1.8 -6.7,11.8 7.1,13.5 20.6,2.7 21.6,-13.7 29.3,-18.2 13.9,-8.1 -3.1,-14.1 -22.5,-14.1 -16.3,0.1 -30.5,1.9 -29.4,10.1 0.7,6.1 14.6,5.6 15.5,8.7 z"
         style="opacity:0.3;fill:#262626" />
      <path
         id="path4346"
         d="m 34,200.2 c 0,0 -1.6,1.2 -5.5,1.1 -3.9,-0.1 -7.3,-0.8 -11.4,1.5 -4.8,2.7 -1.2,7 0.1,7.4 1.3,0.4 18.1,0.9 21.2,0.7 3.1,-0.2 2.1,-8.2 2.1,-8.2 z"
         style="fill:#762c07" />
      <path
         id="path4348"
         d="m 39.4,209.1 c -1.5,0.1 -9,0.6 -13.5,0.5 -5,-0.1 -6.4,-0.5 -7.8,-1 -1.7,-0.6 -3.2,-1.4 -3.3,-3.1 -0.5,2.2 0.9,4.1 2.5,4.6 1.5,0.5 3.3,0.9 8.6,1.1 4.2,0.1 11.3,-0.3 12.6,-0.4 0.8,-0.1 1.4,-0.7 1.7,-1.6 -0.4,0.3 -0.5,-0.1 -0.8,-0.1 z"
         style="fill:#262626" />
      <path
         id="path4350"
         d="m 39.7,211 c 0,0 -3.9,4.4 -6.6,7.6 -2.7,3.2 -3.8,5.6 -3.6,7.9 0.2,2.3 3.5,3.4 8,3.4 4.5,0 9.3,-2.8 11.5,-5.9 2.3,-3.1 5.6,-5.9 5.6,-7.4 0,-1.5 -0.1,-6.2 -0.1,-6.2 z"
         style="fill:#762c07" />
      <path
         id="path4352"
         d="m 54.6,210.4 h -0.5 c 0,1.5 0.1,3.3 0.1,4.1 0,1.5 -3.4,4.3 -5.6,7.4 -2.3,3.1 -7,5.9 -11.5,5.9 -3.5,0 -6.3,-0.6 -7.4,-2 0,0.2 0,0.4 0,0.6 0.1,2.3 3.5,3.4 8,3.4 4.6,0 9.3,-2.8 11.5,-5.9 2.3,-3.1 5.6,-5.9 5.6,-7.4 -0.1,-1.4 -0.2,-6.1 -0.2,-6.1 z"
         style="fill:#262626" />
      <path
         id="path4354"
         d="m 19.7,114.3 c 0,0 -0.5,13 1.6,23.9 2.1,10.9 9.5,26.4 9.5,31.1 0,4.7 2.3,19 2.1,22.8 -0.1,3.8 -0.9,8.6 -0.9,8.6 0,0 2.7,5 6.2,6.7 3.5,1.7 7.2,-0.4 7.2,-0.4 L 39,116.5 Z"
         style="fill:#3399cc" />
      <path
         id="path4356"
         d="m 19.7,114.3 c 0,0 -0.5,13 1.6,23.9 2.1,10.9 9.5,26.4 9.5,31.1 0,4.7 2.3,19 2.1,22.8 -0.1,3.8 -0.9,8.6 -0.9,8.6 0,0 2.7,5 6.2,6.7 3.5,1.7 7.2,-0.4 7.2,-0.4 L 39,116.5 Z"
         style="opacity:0.2" />
      <path
         id="path4358"
         d="m 31.1,119.4 c 0,0 0.3,14.3 -0.3,25.6 -0.5,11.3 2.3,21.7 3.4,25.3 1.1,3.6 1.5,9.7 1.5,15.2 0,5.5 0.2,26.2 1,27 0.8,0.8 5.2,3.6 10.9,4 4.3,0.3 9,-2.4 9,-3.1 0,-0.7 1.5,-16.4 0.3,-29.1 -1.2,-12.7 -3.8,-19.3 -3.6,-21.3 0.1,-2 3.1,-29.1 2.8,-34.7 -0.3,-5.6 -2,-18.4 -2,-18.4 z"
         style="fill:#3399cc" />
      <path
         id="path4360"
         d="m 17.9,69.4 c 0,0 -2.2,7.4 -3.6,17.6 -1.5,10.7 -0.7,25.3 -0.7,25.3 0,0 2.1,-1.6 6.2,-1.6 4.1,0 -1.9,-41.3 -1.9,-41.3 z"
         style="fill:#ffcc00" />
      <path
         id="path4362"
         d="m 17.9,69.4 c 0,0 -2.2,7.4 -3.6,17.6 -1.5,10.7 -0.7,25.3 -0.7,25.3 0,0 2.1,-1.6 6.2,-1.6 4.1,0 -1.9,-41.3 -1.9,-41.3 z"
         style="opacity:0.2" />
      <path
         id="path4364"
         d="m 51.5,127 c 0,0 -0.4,2.9 -2.3,5.1 -1.9,2.1 -3.5,5.8 -3.5,7.3 0,2.1 0,3.9 0.9,4 1.8,0.2 1.1,-1.3 1.7,-1.3 0.6,0 0.3,2.6 3,2.7 3.5,0.1 8.5,-2.3 8.5,-4.6 0,-1.2 -0.5,-4.4 -0.9,-6.2 -0.5,-1.9 -0.5,-4.5 -0.5,-4.5 z"
         style="fill:#fbd7c7" />
      <path
         id="path4366"
         d="m 38.8,44 c 9.5,2.5 20.1,4.6 23.7,12.3 3.1,6.6 2.9,8.7 2.7,14.9 -0.3,6.2 -0.8,18.5 -0.5,22.5 0.3,4 -1.1,20.8 -2.3,26.4 -1.2,5.6 -1.6,10.3 -2.5,10.6 -0.9,0.3 -10.2,-0.9 -9.5,-2.3 0.9,-2 1.2,-7.6 1.2,-7.6 0,0 -4.4,5.4 -14.2,4 -9.8,-1.3 -18.2,-6.1 -19.1,-8.6 -0.4,-1.2 -0.6,-19.8 0.3,-24.8 0.9,-5 -2,-15.7 -2.1,-20.4 -0.1,-4.7 2.9,-17.4 3.1,-19.7 0.1,-3.4 4.2,-11.2 19.2,-7.3 z"
         style="fill:#ffcc00" />
      <path
         id="path4368"
         d="m 51.5,120.9 c 0,0 0.7,-5.2 0.7,-9.8 0,-4.6 0.1,-11.3 -0.4,-13.9 C 51.3,94.5 49.6,85 49.3,82.5 48.6,76.4 49,72.7 49.5,71.4 c -2.4,4.1 -1,19 -0.3,25.2 0.9,8.7 -0.3,25.8 -0.6,26.6 -0.3,0.7 2.9,-2.3 2.9,-2.3 z"
         style="opacity:0.2" />
      <path
         id="path4370"
         d="m 42.5,38.2 c 0,0 0,5.2 0.9,6.1 0.9,0.9 3,1.3 2.3,2.6 -0.7,1.3 -8.1,9.7 -13.5,9.2 -5.3,-0.5 -4,-9.4 -4,-9.4 z"
         style="fill:#fbd7c7" />
      <path
         id="path4372"
         d="m 22.8,26.5 c -2.2,2.8 -1.3,11 -0.3,14.7 1,3.7 2.2,5.9 2.7,7.3 0.4,1.4 1.9,3.6 3.9,3.5 2,-0.1 8.2,-4.1 10.1,-7.1 C 41,41.9 43.6,39 44,37 44.4,35 44.6,34.1 42.9,33.7 41.2,33.3 37.6,25.9 33,25.6 28.4,25.3 24.1,24.8 22.8,26.5 Z"
         style="fill:#fbd7c7" />
      <path
         id="path4374"
         d="m 21.5,28.4 c -0.4,1.6 0.8,3.3 5.5,3.3 4.7,0 7.6,-2.3 8.1,-0.8 0.5,1.5 1.8,5.7 2.2,6.6 0.4,0.9 1,2 1.3,1.6 0.3,-0.4 1.8,-3.9 2.9,-4.7 1.1,-0.8 1.7,-0.8 1.7,-0.8 0,0 1.6,-8.3 -2,-12.6 C 37.6,16.7 25,15.6 21.5,28.4 Z"
         style="fill:#825012" />
      <path
         id="path4376"
         d="m 25,46.6 c 0,0 0.7,-0.7 1.6,-0.8 0.4,0 1.3,0.1 1.9,0.2 0.8,0.2 2.7,1.1 2.7,1.1 0,0 -2.8,0 -3.7,-0.1 C 26.4,46.9 25,46.6 25,46.6 Z"
         style="fill:#825012" />
      <path
         id="path4378"
         d="m 26.8,49 1.2,0.1 c 0,0 -0.2,0.6 0.6,1.3 0.8,0.7 2.9,0.8 2.9,0.8 0,0 -1.7,1.3 -3.2,0.9 -1.5,-0.4 -2.3,-1.8 -2.3,-1.8 0,0 0.5,-0.1 0.6,-0.5 0.2,-0.4 0.2,-0.8 0.2,-0.8 z"
         style="fill:#825012" />
    </g>
  </g>
  <path
     style="fill:#000000;fill-opacity:1;fill-rule:nonzero;stroke:none;stroke-width:0.264583"
     id="path1"
     d="m 146.17563,56.987549 c 1.64095,-0.0158 3.28183,-0.03779 4.92274,-0.05639 2.95251,-0.03886 5.90504,-0.07329 8.85708,-0.139729 3.21252,-0.09295 6.4253,-0.166317 9.63906,-0.195894 2.94352,-0.0195 5.88698,0.02209 8.82972,0.08604 1.97446,0.04318 3.94817,0.113614 5.92205,0.177067 1.23476,0.04017 2.46965,0.07609 3.70461,0.109654 0.42721,0.01159 0.85445,0.02222 1.28168,0.03268 0.62207,0.01524 0.64363,-0.864489 0.0216,-0.879735 v 0 c -0.42646,-0.01045 -0.85292,-0.02106 -1.27935,-0.03263 -1.2335,-0.03352 -2.46693,-0.0694 -3.70023,-0.109525 -1.97693,-0.06355 -3.9537,-0.13408 -5.93121,-0.177313 -2.95181,-0.06414 -5.90435,-0.105825 -8.85694,-0.08621 -3.21766,0.02965 -6.43434,0.102973 -9.65077,0.19608 -2.94876,0.0664 -5.89801,0.100713 -8.84723,0.139562 -1.6376,0.01857 -3.27515,0.04047 -4.91278,0.05633 -0.62226,0 -0.62226,0.879998 0,0.879998 z" />
  <path
     style="fill:#ff4400;fill-opacity:1;fill-rule:nonzero;stroke:none;stroke-width:0.264583"
     id="path2"
     d="m 186.72307,56.764053 c -0.49276,0.754343 -0.99137,1.504815 -1.49428,2.252419 -0.52466,0.764609 -1.03832,1.53661 -1.54606,2.312525 -0.36112,0.557921 -0.72314,1.115248 -1.08382,1.673444 -0.1789,0.275842 -0.0908,0.140722 -0.26431,0.405413 -0.34117,0.520391 0.39478,1.002869 0.73594,0.482479 v 0 c 0.17618,-0.26874 0.087,-0.131988 0.2675,-0.410303 0.35976,-0.556778 0.72087,-1.112671 1.08104,-1.669182 0.5057,-0.772795 1.01733,-1.541669 1.53988,-2.303198 0.50359,-0.74862 1.00291,-1.500079 1.49631,-2.255462 0.34517,-0.517744 -0.38703,-1.005882 -0.7322,-0.488135 z" />
  <path
     style="fill:#ff4400;fill-opacity:1;fill-rule:nonzero;stroke:none;stroke-width:0.264583"
     id="path3"
     d="m 183.77542,56.249611 c -0.0526,0.112109 -0.11333,0.218003 -0.18122,0.32149 -0.27733,0.414742 -0.57764,0.813599 -0.87707,1.21249 -0.41814,0.555577 -0.83278,1.113737 -1.23582,1.680374 -0.35192,0.490775 -0.6881,0.992417 -1.02622,1.492697 -0.23915,0.353176 -0.47189,0.710607 -0.70779,1.065937 -0.15741,0.236247 -0.31916,0.469599 -0.47216,0.708764 -0.0973,0.158242 -0.19585,0.315581 -0.29681,0.471506 -0.33819,0.522324 0.40049,1.000606 0.73868,0.478279 v 0 c 0.10192,-0.157411 0.20156,-0.316182 0.29969,-0.47598 0.14995,-0.23503 0.3096,-0.463651 0.46378,-0.695894 0.2345,-0.353322 0.46597,-0.708657 0.7037,-1.059842 0.33421,-0.494487 0.66641,-0.99038 1.01427,-1.475462 0.39857,-0.560557 0.80894,-1.112483 1.22246,-1.662091 0.31156,-0.415078 0.62388,-0.830252 0.91182,-1.262256 0.0845,-0.131516 0.16217,-0.265599 0.22978,-0.406466 0.27828,-0.556561 -0.50881,-0.950108 -0.78709,-0.393546 z" />
  <path
     style="fill:#ff4400;fill-opacity:1;fill-rule:nonzero;stroke:none;stroke-width:0.264583"
     id="path4"
     d="m 179.66811,56.233408 c -0.16293,0.26475 -0.32937,0.527097 -0.50137,0.786177 -0.37973,0.570386 -0.76362,1.137973 -1.1441,1.707864 -0.45223,0.684933 -0.91864,1.36029 -1.37896,2.039769 -0.3532,0.507841 -0.70867,1.014118 -1.06792,1.5177 -0.24412,0.349456 -0.48839,0.698862 -0.72314,1.054706 -0.11119,0.164864 -0.0567,0.08586 -0.16307,0.237241 -0.35738,0.509389 0.36301,1.014804 0.72039,0.505415 v 0 c 0.11727,-0.167333 0.0581,-0.08132 0.1773,-0.258167 0.22874,-0.346946 0.46712,-0.687372 0.70491,-1.028145 0.36336,-0.509378 0.72297,-1.021426 1.08009,-1.535197 0.46142,-0.681127 0.92897,-1.358111 1.38228,-2.044702 0.38092,-0.570553 0.76527,-1.138791 1.14543,-1.709846 0.16789,-0.253024 0.33245,-0.50808 0.48909,-0.768168 0.35684,-0.50977 -0.36409,-1.014417 -0.72093,-0.504647 z" />
  <path
     style="fill:#000000;fill-opacity:1;fill-rule:nonzero;stroke:none;stroke-width:0.264583"
     id="path5"
     d="m 173.09965,54.114198 c 0.18942,0.150627 0.36891,0.313319 0.5494,0.474411 0.24923,0.218355 0.48253,0.453668 0.72101,0.68344 0.19466,0.188815 0.39355,0.373626 0.56905,0.580763 0.10778,0.12728 0.21513,0.25499 0.31845,0.385921 0.38621,0.487897 1.0762,-0.05829 0.68999,-0.546182 v 0 c -0.11052,-0.139263 -0.22421,-0.275997 -0.33942,-0.411411 -0.19561,-0.227489 -0.41078,-0.435962 -0.62769,-0.643004 -0.24663,-0.23731 -0.48773,-0.48056 -0.74545,-0.706085 -0.19229,-0.171604 -0.38375,-0.344628 -0.58561,-0.505018 -0.4859,-0.388718 -1.03563,0.298444 -0.54973,0.687165 z" />
  <path
     style="fill:#000000;fill-opacity:1;fill-rule:nonzero;stroke:none;stroke-width:0.264583"
     id="path6"
     d="m 176.08356,56.183168 c 0.0653,-0.07093 0.12954,-0.142719 0.19448,-0.213958 0.10684,-0.112644 0.2166,-0.222485 0.32596,-0.332676 0.13613,-0.137039 0.27248,-0.273857 0.40886,-0.41065 0.13969,-0.141366 0.28176,-0.280334 0.42242,-0.420727 0.15555,-0.155673 0.31084,-0.311613 0.4662,-0.467484 0.0218,-0.02135 0.0436,-0.04271 0.0654,-0.06407 0.44434,-0.435626 -0.17173,-1.064004 -0.61606,-0.628378 v 0 c -0.0242,0.02373 -0.0484,0.04748 -0.0726,0.07122 -0.15482,0.155334 -0.30958,0.31074 -0.4646,0.465881 -0.14116,0.140906 -0.28374,0.280371 -0.42393,0.422251 -0.13685,0.137263 -0.27367,0.27455 -0.41027,0.412062 -0.11815,0.119039 -0.23679,0.237646 -0.35174,0.359781 -0.071,0.07785 -0.14143,0.156083 -0.21224,0.234055 -0.40496,0.472451 0.26318,1.045147 0.66814,0.572696 z" />
  <g
     id="g7"
     transform="translate(-0.93544334,10.664054)">
    <path
       id="path7"
       style="fill:#000000;fill-opacity:1;fill-rule:nonzero;stroke:none;stroke-width:0.264583"
       d="m 185.92147,39.495264 c -0.15592,0.0024 -0.31178,0.01326 -0.46716,0.03204 -0.30957,0.03749 -0.59953,0.14381 -0.8785,0.278536 -0.24464,0.122553 -0.46871,0.279849 -0.68523,0.445968 -0.2219,0.176117 -0.4044,0.393564 -0.5736,0.619083 -0.16444,0.225447 -0.29547,0.471993 -0.4222,0.719853 -0.13074,0.251965 -0.23136,0.517265 -0.30437,0.791166 -0.0663,0.282919 -0.0883,0.572705 -0.0904,0.86248 -0.002,0.262408 0.0364,0.522235 0.093,0.77773 0.0576,0.266429 0.18478,0.507119 0.31884,0.741557 0.12688,0.214538 0.28905,0.403142 0.46767,0.575675 0.16408,0.154601 0.35192,0.277598 0.55088,0.381889 0.19545,0.09533 0.40496,0.145292 0.62011,0.166915 0.18573,0.01321 0.36881,0.01706 0.55449,0.02584 0.31371,0.01483 0.61967,-0.0324 0.92191,-0.07438 0.2691,-0.03738 0.494,-0.09297 0.74982,-0.181901 0.27868,-0.09743 0.54708,-0.219716 0.80616,-0.360701 0.27322,-0.153625 0.50851,-0.358654 0.7214,-0.586528 0.21408,-0.237431 0.37998,-0.509434 0.52813,-0.791166 0.11939,-0.24308 0.21419,-0.499139 0.26665,-0.765328 0.0112,-0.05627 0.0181,-0.113393 0.0274,-0.170015 0.054,-0.320289 0.0356,-0.644297 -0.008,-0.964283 -0.0494,-0.31909 -0.14487,-0.626909 -0.2682,-0.924491 -0.14346,-0.331116 -0.35846,-0.589431 -0.61547,-0.837158 -0.24021,-0.228631 -0.52775,-0.388969 -0.8294,-0.520382 -0.32597,-0.125377 -0.67029,-0.186119 -1.01596,-0.223759 -0.15602,-0.01514 -0.31227,-0.02099 -0.46819,-0.0186 z m 0.008,0.879533 c 0.12232,-0.0017 0.24443,0.0029 0.3669,0.01395 0.2588,0.02677 0.51671,0.07021 0.76275,0.157613 0.20715,0.08635 0.40428,0.195082 0.56947,0.349333 0.1664,0.155112 0.31763,0.329707 0.41083,0.539502 0.0963,0.226122 0.1671,0.462141 0.20774,0.704866 0.0334,0.234543 0.0492,0.472336 0.01,0.707451 -0.0342,0.231068 -0.0981,0.4549 -0.20413,0.664042 -0.11107,0.213691 -0.23495,0.420394 -0.39532,0.601514 -0.1458,0.160302 -0.30894,0.302646 -0.49713,0.411861 -0.21581,0.118972 -0.44089,0.219607 -0.67334,0.30179 -0.20186,0.07049 -0.45199,0.144694 -0.6997,0.174667 -0.24772,0.02997 -0.57367,0.06484 -0.77256,0.04654 -0.19888,-0.0183 -0.27227,-0.0292 -0.38913,-0.03669 -0.10146,-0.0043 -0.19892,-0.03408 -0.29249,-0.07235 -0.12582,-0.06256 -0.24166,-0.141486 -0.34571,-0.236161 -0.11954,-0.111817 -0.22549,-0.237145 -0.31161,-0.376721 -0.0908,-0.158169 -0.18427,-0.317621 -0.22428,-0.497644 -0.0442,-0.190075 -0.0717,-0.384288 -0.0713,-0.57981 2.2e-4,-0.216609 0.016,-0.433301 0.062,-0.645439 0.0529,-0.212947 0.13717,-0.416234 0.23616,-0.611849 0.10405,-0.203889 0.21034,-0.407899 0.34417,-0.594279 0.11981,-0.16194 0.24848,-0.318908 0.40463,-0.447518 0.16927,-0.130686 0.34445,-0.255441 0.53536,-0.35295 0.19043,-0.09464 0.38792,-0.169433 0.60048,-0.195853 0.12186,-0.01564 0.24407,-0.02411 0.36639,-0.02584 z"
       sodipodi:nodetypes="sccccccccccccsscccccccccccssccccccccccczzcccccccccccscc" />
  </g>
  <path
     style="fill:#000000;fill-opacity:1;fill-rule:nonzero;stroke:none;stroke-width:0.264583"
     id="path8"
     d="m 185.63893,50.329588 c 0,-0.165738 0,-0.331475 0,-0.497213 0,-0.287727 0,-0.57545 0,-0.863174 -7.9e-4,-0.437769 0.002,-0.875551 -0.003,-1.313291 -0.0168,-0.513996 -0.0387,-1.027801 -0.0554,-1.541807 -0.0164,-0.531254 -0.041,-1.062204 -0.0591,-1.593408 -0.0118,-0.585954 -0.036,-1.171252 -0.0657,-1.756534 -0.0309,-0.612167 -0.0528,-1.224733 -0.071,-1.837391 -0.0185,-0.634169 -0.0285,-1.26854 -0.0378,-1.902897 -0.007,-0.638564 -0.0208,-1.27717 -0.0129,-1.915758 0.02,-0.631324 0.0687,-1.261894 0.1307,-1.890418 0.0448,-0.609674 0.15452,-1.209369 0.29082,-1.804284 0.0836,-0.326365 0.18536,-0.651563 0.32811,-0.957593 0.0785,-0.168346 0.12763,-0.237529 0.22502,-0.395237 0.22333,-0.352707 0.52641,-0.6289 0.85825,-0.875649 0.22641,-0.156553 0.47263,-0.250469 0.74703,-0.262448 0.18772,-0.0086 0.35399,0.05615 0.51504,0.143792 0.14635,0.08003 0.23011,0.212953 0.30368,0.357671 0.0906,0.229781 0.12887,0.476668 0.14283,0.722093 0.007,0.324018 -0.0422,0.645436 -0.094,0.964231 -0.0713,0.392918 -0.15737,0.784124 -0.27384,1.166232 -0.12642,0.395939 -0.30382,0.77136 -0.49808,1.137756 -0.18279,0.339002 -0.4196,0.589432 -0.72336,0.819889 -0.22493,0.1634 -0.47641,0.261462 -0.74954,0.302516 -0.23166,0.02437 -0.46442,0.01642 -0.69201,-0.03276 -0.0942,-0.01991 -0.18394,-0.05211 -0.27213,-0.0898 -0.57638,-0.234507 -0.90802,0.580608 -0.33165,0.815116 v 0 c 0.1399,0.0554 0.28046,0.107699 0.42871,0.137091 0.33389,0.06518 0.67313,0.08365 1.01157,0.03841 0.41445,-0.07298 0.80136,-0.218443 1.14131,-0.47284 0.16007,-0.124206 0.22599,-0.168171 0.37318,-0.312847 0.23662,-0.23259 0.42827,-0.505835 0.59181,-0.793341 0.21997,-0.416784 0.4205,-0.844011 0.56252,-1.294482 0.12612,-0.419897 0.22374,-0.848308 0.30015,-1.280014 0.0623,-0.384322 0.11835,-0.77222 0.10351,-1.162771 -0.0265,-0.369903 -0.0865,-0.740817 -0.24501,-1.079582 -0.16204,-0.295064 -0.36242,-0.5585 -0.66654,-0.719593 -0.31412,-0.164553 -0.62851,-0.262061 -0.988,-0.244728 -0.46753,0.03791 -0.82694,0.16653 -1.21433,0.435795 -0.41981,0.315676 -0.80109,0.672684 -1.08216,1.121724 -0.13564,0.224185 -0.176,0.27702 -0.2869,0.516915 -0.16238,0.351248 -0.27772,0.724088 -0.37299,1.098219 -0.14419,0.63124 -0.26027,1.267688 -0.30874,1.914361 -0.0642,0.653634 -0.11507,1.30934 -0.13486,1.965908 -0.008,0.646461 0.006,1.292923 0.0129,1.939355 0.009,0.638787 0.0195,1.277589 0.0381,1.916184 0.0184,0.618771 0.0405,1.237451 0.0718,1.855724 0.0294,0.580435 0.0534,1.160878 0.0651,1.741983 0.0181,0.53073 0.0426,1.061212 0.059,1.591992 0.0165,0.50832 0.0379,1.016447 0.055,1.524741 0.006,0.433898 0.002,0.867844 0.003,1.301774 0,0.287724 0,0.575447 0,0.863174 0,0.165738 0,0.331475 0,0.497213 0,0.622255 0.87999,0.622255 0.87999,0 z" />
  <path
     style="fill:#000000;fill-opacity:1;fill-rule:nonzero;stroke:none;stroke-width:0.264583"
     id="path9"
     d="m 188.72823,31.464007 c 0.002,-0.003 0.0112,-0.01193 0.008,-0.0094 -0.10329,0.08525 -0.208,0.168805 -0.31065,0.254972 -0.19849,0.157513 -0.36465,0.35011 -0.53446,0.536914 -0.19236,0.199386 -0.34822,0.426612 -0.47564,0.671665 -0.13783,0.302001 -0.15087,0.633603 -0.15576,0.959795 -0.002,0.346571 0.0432,0.690679 0.0932,1.032873 0.0825,0.526508 0.19289,1.047973 0.31692,1.566079 0.25078,0.944884 0.57145,1.869045 0.87899,2.796408 0.34965,1.02367 0.68847,2.050931 1.01943,3.080774 0.1775,0.553397 0.34889,1.108722 0.51964,1.664227 0.18283,0.594795 1.02398,0.336268 0.84117,-0.25852 v 0 c -0.17181,-0.559101 -0.34439,-1.117982 -0.52301,-1.674951 -0.33183,-1.032426 -0.67142,-2.062295 -1.02196,-3.088533 -0.29972,-0.903757 -0.6123,-1.804319 -0.85852,-2.724628 -0.118,-0.49249 -0.22288,-0.988171 -0.30203,-1.48854 -0.0436,-0.296006 -0.0838,-0.593565 -0.084,-0.893375 0.002,-0.190514 5.8e-4,-0.386496 0.0583,-0.569957 0.0892,-0.177735 0.20528,-0.338308 0.34383,-0.481419 0.1433,-0.157647 0.28169,-0.322381 0.4494,-0.455107 0.11848,-0.09966 0.24257,-0.192182 0.3576,-0.295886 0.44085,-0.439153 -0.18023,-1.062597 -0.62105,-0.623448 z" />
</svg>
