<?xml version="1.0" encoding="UTF-8" standalone="no"?>
<svg
   id="svg3748"
   version="1.1"
   viewBox="0 0 201.90796 101.89817"
   height="101.89817mm"
   width="201.90796mm"
   sodipodi:docname="26 meli li lon insa lupa. mije li lukin e meli lon insa lupa..svg"
   inkscape:version="1.3 (0e150ed6c4, 2023-07-21)"
   xmlns:inkscape="http://www.inkscape.org/namespaces/inkscape"
   xmlns:sodipodi="http://sodipodi.sourceforge.net/DTD/sodipodi-0.dtd"
   xmlns="http://www.w3.org/2000/svg"
   xmlns:svg="http://www.w3.org/2000/svg"
   xmlns:rdf="http://www.w3.org/1999/02/22-rdf-syntax-ns#"
   xmlns:cc="http://creativecommons.org/ns#"
   xmlns:dc="http://purl.org/dc/elements/1.1/">
  <sodipodi:namedview
     id="namedview1"
     pagecolor="#ffffff"
     bordercolor="#000000"
     borderopacity="0.25"
     inkscape:showpageshadow="2"
     inkscape:pageopacity="0.0"
     inkscape:pagecheckerboard="0"
     inkscape:deskcolor="#d1d1d1"
     inkscape:document-units="mm"
     inkscape:zoom="1.4142136"
     inkscape:cx="607.05117"
     inkscape:cy="167.93786"
     inkscape:window-width="1920"
     inkscape:window-height="1051"
     inkscape:window-x="-9"
     inkscape:window-y="-9"
     inkscape:window-maximized="1"
     inkscape:current-layer="svg3748" />
  <defs
     id="defs3742" />
  <metadata
     id="metadata3745">
    <rdf:RDF>
      <cc:Work
         rdf:about="">
        <dc:format>image/svg+xml</dc:format>
        <dc:type
           rdf:resource="http://purl.org/dc/dcmitype/StillImage" />
        <dc:title />
      </cc:Work>
    </rdf:RDF>
  </metadata>
  <g
     transform="translate(-36.018559,-76.268334)"
     id="layer1">
    <rect
       y="90.651863"
       x="36.018559"
       height="87.514496"
       width="117.96189"
       id="rect4530"
       style="fill:#99cc33;fill-opacity:1;stroke-width:0.315538" />
    <g
       id="g4380"
       transform="matrix(0.26458333,0,0,0.26458333,112.83983,71.489768)">
      <path
         id="path4342"
         d="m 13.4,105 c 0,0 1,9.1 1.3,12.3 0.3,3.2 1.3,5.5 2.1,7.3 0.8,1.8 4.5,6.2 5,5.9 0.5,-0.3 -0.3,-2.1 -0.3,-2.5 0,-0.4 0.4,-1.7 -0.2,-2.5 -0.6,-0.7 -1.7,-4 -1.6,-4.7 0.1,-0.7 1.4,-0.9 1.5,-1.4 0.1,-0.5 0.1,-0.5 0.1,-0.5 0,0 -3.6,-6 -3.6,-8.6 0,-2.7 -0.1,-6.1 -0.1,-6.1 0,0 -0.6,-0.3 -2,0 -1.4,0.2 -2.2,0.8 -2.2,0.8 z"
         style="fill:#fbd7c7" />
      <path
         id="path4344"
         d="m 28.1,216.9 c 0.6,1.8 -6.7,11.8 7.1,13.5 20.6,2.7 21.6,-13.7 29.3,-18.2 13.9,-8.1 -3.1,-14.1 -22.5,-14.1 -16.3,0.1 -30.5,1.9 -29.4,10.1 0.7,6.1 14.6,5.6 15.5,8.7 z"
         style="opacity:0.3;fill:#262626" />
      <path
         id="path4346"
         d="m 34,200.2 c 0,0 -1.6,1.2 -5.5,1.1 -3.9,-0.1 -7.3,-0.8 -11.4,1.5 -4.8,2.7 -1.2,7 0.1,7.4 1.3,0.4 18.1,0.9 21.2,0.7 3.1,-0.2 2.1,-8.2 2.1,-8.2 z"
         style="fill:#762c07" />
      <path
         id="path4348"
         d="m 39.4,209.1 c -1.5,0.1 -9,0.6 -13.5,0.5 -5,-0.1 -6.4,-0.5 -7.8,-1 -1.7,-0.6 -3.2,-1.4 -3.3,-3.1 -0.5,2.2 0.9,4.1 2.5,4.6 1.5,0.5 3.3,0.9 8.6,1.1 4.2,0.1 11.3,-0.3 12.6,-0.4 0.8,-0.1 1.4,-0.7 1.7,-1.6 -0.4,0.3 -0.5,-0.1 -0.8,-0.1 z"
         style="fill:#262626" />
      <path
         id="path4350"
         d="m 39.7,211 c 0,0 -3.9,4.4 -6.6,7.6 -2.7,3.2 -3.8,5.6 -3.6,7.9 0.2,2.3 3.5,3.4 8,3.4 4.5,0 9.3,-2.8 11.5,-5.9 2.3,-3.1 5.6,-5.9 5.6,-7.4 0,-1.5 -0.1,-6.2 -0.1,-6.2 z"
         style="fill:#762c07" />
      <path
         id="path4352"
         d="m 54.6,210.4 h -0.5 c 0,1.5 0.1,3.3 0.1,4.1 0,1.5 -3.4,4.3 -5.6,7.4 -2.3,3.1 -7,5.9 -11.5,5.9 -3.5,0 -6.3,-0.6 -7.4,-2 0,0.2 0,0.4 0,0.6 0.1,2.3 3.5,3.4 8,3.4 4.6,0 9.3,-2.8 11.5,-5.9 2.3,-3.1 5.6,-5.9 5.6,-7.4 -0.1,-1.4 -0.2,-6.1 -0.2,-6.1 z"
         style="fill:#262626" />
      <path
         id="path4354"
         d="m 19.7,114.3 c 0,0 -0.5,13 1.6,23.9 2.1,10.9 9.5,26.4 9.5,31.1 0,4.7 2.3,19 2.1,22.8 -0.1,3.8 -0.9,8.6 -0.9,8.6 0,0 2.7,5 6.2,6.7 3.5,1.7 7.2,-0.4 7.2,-0.4 L 39,116.5 Z"
         style="fill:#3399cc" />
      <path
         id="path4356"
         d="m 19.7,114.3 c 0,0 -0.5,13 1.6,23.9 2.1,10.9 9.5,26.4 9.5,31.1 0,4.7 2.3,19 2.1,22.8 -0.1,3.8 -0.9,8.6 -0.9,8.6 0,0 2.7,5 6.2,6.7 3.5,1.7 7.2,-0.4 7.2,-0.4 L 39,116.5 Z"
         style="opacity:0.2" />
      <path
         id="path4358"
         d="m 31.1,119.4 c 0,0 0.3,14.3 -0.3,25.6 -0.5,11.3 2.3,21.7 3.4,25.3 1.1,3.6 1.5,9.7 1.5,15.2 0,5.5 0.2,26.2 1,27 0.8,0.8 5.2,3.6 10.9,4 4.3,0.3 9,-2.4 9,-3.1 0,-0.7 1.5,-16.4 0.3,-29.1 -1.2,-12.7 -3.8,-19.3 -3.6,-21.3 0.1,-2 3.1,-29.1 2.8,-34.7 -0.3,-5.6 -2,-18.4 -2,-18.4 z"
         style="fill:#3399cc" />
      <path
         id="path4360"
         d="m 17.9,69.4 c 0,0 -2.2,7.4 -3.6,17.6 -1.5,10.7 -0.7,25.3 -0.7,25.3 0,0 2.1,-1.6 6.2,-1.6 4.1,0 -1.9,-41.3 -1.9,-41.3 z"
         style="fill:#ffcc00" />
      <path
         id="path4362"
         d="m 17.9,69.4 c 0,0 -2.2,7.4 -3.6,17.6 -1.5,10.7 -0.7,25.3 -0.7,25.3 0,0 2.1,-1.6 6.2,-1.6 4.1,0 -1.9,-41.3 -1.9,-41.3 z"
         style="opacity:0.2" />
      <path
         id="path4364"
         d="m 51.5,127 c 0,0 -0.4,2.9 -2.3,5.1 -1.9,2.1 -3.5,5.8 -3.5,7.3 0,2.1 0,3.9 0.9,4 1.8,0.2 1.1,-1.3 1.7,-1.3 0.6,0 0.3,2.6 3,2.7 3.5,0.1 8.5,-2.3 8.5,-4.6 0,-1.2 -0.5,-4.4 -0.9,-6.2 -0.5,-1.9 -0.5,-4.5 -0.5,-4.5 z"
         style="fill:#fbd7c7" />
      <path
         id="path4366"
         d="m 38.8,44 c 9.5,2.5 20.1,4.6 23.7,12.3 3.1,6.6 2.9,8.7 2.7,14.9 -0.3,6.2 -0.8,18.5 -0.5,22.5 0.3,4 -1.1,20.8 -2.3,26.4 -1.2,5.6 -1.6,10.3 -2.5,10.6 -0.9,0.3 -10.2,-0.9 -9.5,-2.3 0.9,-2 1.2,-7.6 1.2,-7.6 0,0 -4.4,5.4 -14.2,4 -9.8,-1.3 -18.2,-6.1 -19.1,-8.6 -0.4,-1.2 -0.6,-19.8 0.3,-24.8 0.9,-5 -2,-15.7 -2.1,-20.4 -0.1,-4.7 2.9,-17.4 3.1,-19.7 0.1,-3.4 4.2,-11.2 19.2,-7.3 z"
         style="fill:#ffcc00" />
      <path
         id="path4368"
         d="m 51.5,120.9 c 0,0 0.7,-5.2 0.7,-9.8 0,-4.6 0.1,-11.3 -0.4,-13.9 C 51.3,94.5 49.6,85 49.3,82.5 48.6,76.4 49,72.7 49.5,71.4 c -2.4,4.1 -1,19 -0.3,25.2 0.9,8.7 -0.3,25.8 -0.6,26.6 -0.3,0.7 2.9,-2.3 2.9,-2.3 z"
         style="opacity:0.2" />
      <path
         id="path4370"
         d="m 42.5,38.2 c 0,0 0,5.2 0.9,6.1 0.9,0.9 3,1.3 2.3,2.6 -0.7,1.3 -8.1,9.7 -13.5,9.2 -5.3,-0.5 -4,-9.4 -4,-9.4 z"
         style="fill:#fbd7c7" />
      <path
         id="path4372"
         d="m 22.8,26.5 c -2.2,2.8 -1.3,11 -0.3,14.7 1,3.7 2.2,5.9 2.7,7.3 0.4,1.4 1.9,3.6 3.9,3.5 2,-0.1 8.2,-4.1 10.1,-7.1 C 41,41.9 43.6,39 44,37 44.4,35 44.6,34.1 42.9,33.7 41.2,33.3 37.6,25.9 33,25.6 28.4,25.3 24.1,24.8 22.8,26.5 Z"
         style="fill:#fbd7c7" />
      <path
         id="path4374"
         d="m 21.5,28.4 c -0.4,1.6 0.8,3.3 5.5,3.3 4.7,0 7.6,-2.3 8.1,-0.8 0.5,1.5 1.8,5.7 2.2,6.6 0.4,0.9 1,2 1.3,1.6 0.3,-0.4 1.8,-3.9 2.9,-4.7 1.1,-0.8 1.7,-0.8 1.7,-0.8 0,0 1.6,-8.3 -2,-12.6 C 37.6,16.7 25,15.6 21.5,28.4 Z"
         style="fill:#825012" />
      <path
         id="path4376"
         d="m 25,46.6 c 0,0 0.7,-0.7 1.6,-0.8 0.4,0 1.3,0.1 1.9,0.2 0.8,0.2 2.7,1.1 2.7,1.1 0,0 -2.8,0 -3.7,-0.1 C 26.4,46.9 25,46.6 25,46.6 Z"
         style="fill:#825012" />
      <path
         id="path4378"
         d="m 26.8,49 1.2,0.1 c 0,0 -0.2,0.6 0.6,1.3 0.8,0.7 2.9,0.8 2.9,0.8 0,0 -1.7,1.3 -3.2,0.9 -1.5,-0.4 -2.3,-1.8 -2.3,-1.8 0,0 0.5,-0.1 0.6,-0.5 0.2,-0.4 0.2,-0.8 0.2,-0.8 z"
         style="fill:#825012" />
    </g>
    <g
       id="g4340"
       transform="matrix(0.79374999,0,0,0.79374999,44.369843,119.18907)">
      <path
         id="path4293"
         d="m 64,0 -12,4 -4,4 -8,4 -8,8 h -8 l -8,4 -4,4 -12,4 12,4 4,4 8,4 8,8 h 8 l 8,4 4,4 12,4 12,-4 4,-4 8,-4 h 8 l 8,-8 8,-4 4,-4 12,-4 -12,-4 -4,-4 -8,-4 H 96 L 88,12 80,8 76,4 Z"
         style="opacity:1;fill:#baa794" />
      <path
         id="path4295"
         d="m 64,0 12,4 4,4 8,4 8,8 h 8 l 8,4 4,4 12,4 -12,4 -4,4 -8,4 -8,8 -8,-8 -8,-4 -4,-4 -12,-4 z"
         style="opacity:0.11" />
      <path
         id="path4297"
         d="m 64,0 v 32 l -12,4 -4,4 -8,4 -8,8 -8,-8 -8,-4 -4,-4 -12,-4 12,-4 4,-4 8,-4 h 8 l 8,-8 8,-4 4,-4 z"
         style="opacity:0.29" />
      <path
         id="path4299"
         d="m 16,24 8,-4 v 24 l -8,-4 z"
         style="opacity:0.1;fill:#ffffff" />
      <path
         id="path4301"
         d="m 48,8 4,-4 v 32 l -4,4 z"
         style="opacity:0.1;fill:#ffffff" />
      <path
         id="path4303"
         d="M 52,4 64,0 v 32 l -12,4 z"
         style="opacity:0.1" />
      <path
         id="path4305"
         d="m 40,12 -8,8 v 32 l 8,-8 z"
         style="opacity:0.15" />
      <path
         id="path4307"
         d="M 12,36 0,32 12,28 Z"
         style="opacity:0.1" />
      <path
         id="path4309"
         d="m 112,24 -8,-4 v 24 l 8,-4 z"
         style="opacity:0.1;fill:#ffffff" />
      <path
         id="path4311"
         d="M 80,8 76,4 v 32 l 4,4 z"
         style="opacity:0.1;fill:#ffffff" />
      <path
         id="path4313"
         d="M 76,4 64,0 v 32 l 12,4 z"
         style="opacity:0.1" />
      <path
         id="path4315"
         d="m 88,12 8,8 v 32 l -8,-8 z"
         style="opacity:0.15" />
      <path
         id="path4317"
         d="m 116,36 12,-4 -12,-4 z"
         style="opacity:0.1" />
    </g>
    <g
       transform="matrix(0.26458333,0,0,0.26458333,84.163177,113.57992)"
       id="g4594">
      <path
         style="opacity:0.2"
         d="m 65.1,234.6 c 15.7,-7.7 6,-16.3 -10.9,-21.1 -15,-4.3 -26.2,-22.2 -43.2,-11.4 -13.8,8.7 4.9,17.9 18.3,22.6 19.1,6.9 22.8,16.2 35.8,9.9 z"
         id="path4551" />
      <path
         style="fill:#262626"
         d="m 16.3,216.7 c 2.8,1.1 5.8,-0.2 9,-2.6 3.2,-2.4 6.2,-4.1 6.1,-6.9 -0.1,-2.8 -2.3,-3.7 -7.4,-2 -5.1,1.7 -11.1,10.2 -7.7,11.5 z"
         id="path4553" />
      <path
         style="fill:#ffffff"
         d="m 16.9,215.9 c 2.6,1 9.8,-4.1 11.7,-5.8 1.9,-1.7 3.1,-2.8 2.5,-4.3 -0.6,-1.7 -2.5,-2.9 -8.5,-0.8 -6,2.1 -9.8,9.3 -5.7,10.9 z"
         id="path4555" />
      <path
         style="fill:#cc291f"
         d="m 29,123 c 0,0 -3.9,6.7 -4.3,16.4 -0.4,9.6 0.1,23 -0.9,26 -1,3 -7.1,13.5 -8.7,24.8 -1.6,11.3 -2.2,25.2 0.4,26.5 2.6,1.3 6.8,-1 8.2,-1.9 2.7,-1.8 3.8,-4.5 4.1,-6.6 0.3,-2.1 -1.9,-3.7 -0.8,-11 1,-7.3 5.3,-17.3 8,-23.7 2.7,-6.5 6.2,-20.1 7.4,-23.6 1.2,-3.5 3.2,-24.7 3.2,-24.7 z"
         id="path4557" />
      <path
         style="opacity:0.2"
         d="m 29,123 c 0,0 -3.9,6.7 -4.3,16.4 -0.4,9.6 0.1,23 -0.9,26 -1,3 -7.1,13.5 -8.7,24.8 -1.6,11.3 -2.2,25.2 0.4,26.5 2.6,1.3 6.8,-1 8.2,-1.9 2.7,-1.8 3.8,-4.5 4.1,-6.6 0.3,-2.1 -1.9,-3.7 -0.8,-11 1,-7.3 5.3,-17.3 8,-23.7 2.7,-6.5 6.2,-20.1 7.4,-23.6 1.2,-3.5 3.2,-24.7 3.2,-24.7 z"
         id="path4559" />
      <path
         style="fill:#262626"
         d="m 46.1,229.4 c -0.2,1.6 0.5,2 3.4,2 2.9,0 10.8,-1 13.1,-1.7 2.3,-0.7 3.4,-2.3 3.3,-4.4 0,-1.9 -18.7,-6 -19.8,4.1 z"
         id="path4561" />
      <path
         style="fill:#ffffff"
         d="m 46.6,229.6 c 2,1.1 7.6,-0.5 9.8,-0.5 2.2,0 5.8,-0.2 7.6,-1.2 1.8,-1 2.7,-2.8 0.9,-4.3 -1.8,-1.5 -9.3,-2.2 -12.1,-2.2 -2.8,0 -11.6,5 -6.2,8.2 z"
         id="path4563" />
      <path
         style="fill:#cc291f"
         d="m 58.2,126.5 c 0,0 5.2,6.9 4.3,20.6 -0.9,13.7 -5.3,30.1 -5.7,43.2 -0.4,13.1 2.6,31.5 2.5,32.7 -0.1,1.2 0,5.2 -7.1,6.4 -7.1,1.2 -7.3,0 -7.8,-0.4 -0.5,-0.4 0.8,-13.5 0.2,-22.3 -0.6,-8.8 -0.4,-21 0.4,-28.3 0.8,-7.3 -0.9,-19.2 -2.5,-24.9 -0.9,-3.1 -1.9,-9.4 -2.3,-9.9 -0.7,-0.8 -3.6,-2.7 -4.7,-6.2 -1.7,-5.3 -1,-10 2.6,-15.7 3.7,-5.7 20.1,4.8 20.1,4.8 z"
         id="path4565" />
      <path
         style="fill:#fbd7c7"
         d="m 30.7,71.5 c 0,0 -0.9,-6.6 -3.6,-13.9 C 24.4,50.3 22,46.5 22,44.8 22,43 20.4,32.6 19.6,28.4 c -0.9,-4.3 -0.9,-5.9 -0.4,-7.1 0.5,-1.2 1.9,-1.7 2.2,-3.5 0.3,-1.8 0.3,-3 0.7,-3.9 0.5,-0.8 0.8,-0.6 0.2,-1 -0.6,-0.4 -1.7,0.2 -2,1 -0.3,0.8 -0.3,2.3 -0.7,2.5 -0.5,0.1 -0.7,-1.4 -0.9,-3 -0.2,-1.6 0.7,-7 -0.2,-7.2 -1.1,-0.2 -1.1,2.7 -1.3,4.1 -0.2,1.1 -0.4,3.4 -0.4,3.4 0,0 -1,-2.2 -1.5,-4.1 C 14.8,7.7 14.6,5.7 13.7,6 c -0.9,0.2 0,3.3 0.3,4.5 0.3,1.2 0.7,3.6 0.7,3.6 0,0 -1.4,-2.8 -2.1,-4.3 C 12,8.3 11.6,7 10.8,7.3 c -0.7,0.3 0.5,2.9 1,4.2 0.5,1.3 1,3.3 1,3.3 0,0 -1,-1.3 -1.6,-2.6 -0.6,-1.3 -1,-3.1 -1.8,-2.8 -0.7,0.4 0.5,2.6 1,3.8 0.5,1.2 0.8,2.7 1.4,3.8 0.6,1.1 2.1,4.2 2.2,5.2 0.1,1 0.5,7.7 0.6,12.1 0.1,4.4 -0.3,10.6 0,11.7 0.3,1.1 2.8,6.7 3.9,13.2 1.1,6.5 1.2,12.6 2.3,15.7 1.2,3.2 9.9,-3.4 9.9,-3.4 z"
         id="path4567" />
      <path
         style="fill:#ffcc00"
         d="m 30.2,67.2 c 0,0 -2.8,1.4 -5.4,2.1 -2.6,0.7 -5.2,0.7 -5.5,1.6 -0.3,0.8 3.6,14.4 5.5,19.9 1.8,5.5 7,19 6.9,22 -0.1,3 -2.1,6.2 -2.9,9 -0.8,2.8 -1.5,4.7 -1.5,4.7 0,0 6,0.5 11.6,0.9 5.6,0.4 11.3,-0.3 15.4,0.1 3.7,0.4 5.7,1.8 5.7,1.8 0,0 -2.1,-8 -2.5,-13.4 C 57.1,110.4 56.6,98 57,97.2 c 0.4,-0.8 3.1,-2.3 3,-6.1 -0.1,-3.8 -2.1,-3.5 -2.2,-4.6 -0.1,-1.1 0.5,-2.8 -0.8,-4 -2,-1.9 -5.7,-5 -9,-6.4 -3.4,-1.7 -17.8,-8.9 -17.8,-8.9 z"
         id="path4569" />
      <path
         style="fill:#825012"
         d="m 44.6,45.6 c -5.8,-0.1 -11.3,0.7 -13.9,10 -1,3.4 -1.5,6.8 -2.9,9.9 -2.7,5.8 -6.8,9.2 -3.1,13.6 4.5,5.3 15.4,7.9 18.6,4.9 3.2,-3 3,-7.1 5,-7.7 2,-0.6 4.9,1.6 6,-0.5 1.1,-2.1 -0.4,-4.7 -0.5,-8.6 -0.2,-4 5.4,-21.4 -9.2,-21.6 z"
         id="path4571" />
      <path
         style="fill:#fbd7c7"
         d="m 47.1,78.4 c -0.1,1.7 0.3,3.2 2.6,5.4 2.3,2.2 4.5,5.9 5.4,5.6 0.9,-0.3 2.1,-3.3 3.1,-6.7 1,-3.4 2.7,-6.9 2.7,-10.1 0,-3.2 -0.2,-3.2 0.6,-6.3 0.8,-3.1 1.9,-6.5 2,-11.1 0.1,-4.6 0,-8.1 0,-8.1 0,0 2.1,-2.4 2.9,-4.4 0.7,-2 0.5,-2.3 0.8,-2.7 0.3,-0.4 2.7,-2.2 1.9,-3.3 -0.7,-1.1 -2.7,1.1 -2.7,1.1 0,0 0.5,-3.8 0.5,-5.3 0,-1.4 0.5,-4.3 -1,-4 -1.5,0.3 -0.4,2.9 -1.4,5.7 -1,2.8 -3.6,7.8 -4.2,9 -0.6,1.2 -0.2,3 -1.5,6.9 -1.3,3.9 -3.4,8.2 -4.1,12 -0.7,3.9 -0.6,6.7 -1.2,7.9 -1.7,3.8 -6.3,7.7 -6.4,8.4 z"
         id="path4573" />
    </g>
    <path
       id="rect4530-3"
       transform="matrix(0.26458333,0,0,0.26458333,36.018559,76.268334)"
       d="M 0,258.21289 V 385.12695 H 445.83984 V 258.21289 h -30.29882 l 0.0234,0.008 -36,12 -12,12 -24,12 -24,24 h -24 l -24,12 -12,12 -36,12 -36,-12 -12,-12 -24,-12 h -24 l -24,-24 -23.999997,-12 -12,-12 -36,-12 0.02344,-0.008 z"
       clip-path="none"
       mask="none"
       style="fill:#99cc33;fill-opacity:1;stroke-width:0.738726" />
  </g>
  <path
     style="fill:#000000;fill-opacity:1;fill-rule:nonzero;stroke:none;stroke-width:0.264583"
     id="path1"
     d="m 150.49041,58.041538 c 1.33056,0.150315 2.67542,0.148672 4.01291,0.166404 2.09716,0.0168 1.80904,0.01212 3.90625,0.0096 1.65271,-0.0021 0.61602,-0.0039 2.26873,-0.0051 1.57553,-0.0011 3.15106,-0.0013 4.72659,-0.0013 1.49102,-1.61e-4 2.98204,-2.2e-4 4.47306,-2.62e-4 1.36818,-3.2e-5 2.73637,-3.7e-5 4.10455,-4.2e-5 0.86077,-0.01601 1.72337,0.02694 2.58346,-0.01551 0.33679,-0.02846 0.17456,-0.0132 0.48677,-0.04515 0.619,-0.06352 0.52917,-0.938926 -0.0898,-0.875403 v 0 c -0.28737,0.02958 -0.14007,0.01556 -0.44191,0.04171 -0.84481,0.04504 -1.69294,-0.0052 -2.53848,0.01434 -1.36819,5e-6 -2.73638,1.1e-5 -4.10458,4.2e-5 -1.49105,4e-5 -2.9821,9.8e-5 -4.47315,2.62e-4 -1.5757,2.01e-4 -3.15141,5.29e-4 -4.72711,0.0013 -1.65286,0.0013 -0.61632,0.0029 -2.26917,0.0051 -2.09297,0.0026 -1.80061,0.0072 -3.89354,-0.0095 -1.2998,-0.01712 -2.60671,-0.01527 -3.90009,-0.157637 -0.616,-0.088 -0.74045,0.783157 -0.12445,0.871157 z"
     sodipodi:nodetypes="cccccscccssccsscccccc" />
  <path
     style="fill:#000000;fill-opacity:1;fill-rule:nonzero;stroke:none;stroke-width:0.264583"
     id="path2"
     d="m 176.67174,57.6749 c -0.18679,0.409318 -0.38207,0.813805 -0.55511,1.229444 -0.2273,0.566833 -0.35082,1.164648 -0.44337,1.765874 -0.0505,0.343628 -0.0648,0.692351 0.0406,1.028208 0.0744,0.237003 0.14244,0.340119 0.25819,0.556117 0.33334,0.534115 0.83993,0.91789 1.3486,1.273548 0.40561,0.284041 0.86167,0.478986 1.3203,0.658744 0.4697,0.186632 0.97191,0.22052 1.47063,0.249886 0.7368,0.0435 1.47536,0.01656 2.21063,-0.03906 0.34788,-0.03629 0.70373,-0.07503 1.03536,-0.193889 0.0755,-0.02708 0.15157,-0.05466 0.22196,-0.0932 0.0888,-0.04859 0.169,-0.111379 0.2535,-0.167071 0.43429,-0.338608 0.71965,-0.813157 0.97115,-1.293815 0.21222,-0.434671 0.31728,-0.906656 0.39181,-1.381316 0.0627,-0.420557 0.0445,-0.845232 -0.004,-1.265816 -0.0347,-0.319323 -0.14123,-0.621803 -0.25235,-0.920832 -0.0976,-0.239173 -0.21138,-0.471073 -0.32773,-0.701548 -0.0917,-0.183605 -0.17794,-0.369629 -0.27518,-0.550376 -0.0499,-0.0921 -0.0268,-0.04811 -0.0696,-0.131805 -0.28442,-0.553447 -1.06712,-0.151209 -0.78269,0.402236 v 0 c 0.0515,0.09995 0.0257,0.05107 0.0775,0.1467 0.0938,0.174041 0.17579,0.353746 0.26472,0.530315 0.10183,0.201028 0.20082,0.4034 0.28824,0.611209 0.0866,0.232595 0.17509,0.466479 0.20296,0.715007 0.0399,0.341895 0.0581,0.687232 0.008,1.029505 -0.0586,0.380172 -0.13755,0.7597 -0.30264,1.109958 -0.18484,0.356191 -0.38667,0.717439 -0.69676,0.98057 -0.0326,0.0266 -0.0619,0.0578 -0.0978,0.07979 -0.0722,0.04428 -0.2018,0.08615 -0.28068,0.106687 -0.22665,0.05903 -0.4604,0.08961 -0.69321,0.110229 -0.69594,0.0534 -1.39513,0.0787 -2.09257,0.03801 -0.40602,-0.02341 -0.81722,-0.04131 -1.20091,-0.190767 -0.39444,-0.15439 -0.78896,-0.317706 -1.13828,-0.561451 -0.32366,-0.224446 -0.70235,-0.495443 -0.9537,-0.800182 -0.0453,-0.05494 -0.0836,-0.115287 -0.12546,-0.172929 -0.0668,-0.119245 -0.12822,-0.21676 -0.17597,-0.344273 -0.0831,-0.22197 -0.0569,-0.455676 -0.0254,-0.685033 0.0811,-0.531191 0.18717,-1.059961 0.38612,-1.561452 0.10407,-0.250772 0.10882,-0.269092 0.22082,-0.512357 0.11653,-0.253114 0.2493,-0.498864 0.35044,-0.758894 0.20929,-0.586005 -0.61945,-0.881981 -0.82873,-0.295976 z" />
  <path
     style="fill:#000000;fill-opacity:1;fill-rule:nonzero;stroke:none;stroke-width:0.264583"
     id="path3"
     d="m 184.0139,58.296752 c 0.45022,-0.0029 0.90034,0.0074 1.35047,0.01453 0.58675,0.0088 1.17353,0.01588 1.76033,0.02175 0.26035,0.0069 0.52049,-0.0078 0.78047,-0.01937 0.18109,-0.01249 0.3604,-0.04086 0.54037,-0.06305 0.19714,-0.0258 0.39459,-0.0489 0.59231,-0.06976 0.61881,-0.06538 0.52635,-0.940512 -0.0925,-0.875128 v 0 c -0.20321,0.02151 -0.40616,0.04513 -0.60877,0.07166 -0.15676,0.01974 -0.31301,0.04338 -0.4705,0.05715 -0.24404,0.01085 -0.48823,0.02516 -0.73262,0.01855 -0.58507,-0.0058 -1.17013,-0.01291 -1.75517,-0.0217 -0.45478,-0.0072 -0.90956,-0.01754 -1.36443,-0.01463 -0.62225,0 -0.62225,0.879999 0,0.879999 z" />
  <path
     style="fill:#000000;fill-opacity:1;fill-rule:nonzero;stroke:none;stroke-width:0.264583"
     id="path4"
     d="m 187.56366,57.946129 c -0.45078,0.864852 -0.78067,1.783064 -1.10903,2.699137 -0.25276,0.72654 -0.49078,1.457965 -0.72592,2.190337 -0.1902,0.592471 0.64768,0.861462 0.83788,0.268988 v 0 c 0.2321,-0.72305 0.46711,-1.445143 0.71646,-2.162487 0.31446,-0.877916 0.62883,-1.758511 1.06015,-2.587649 0.28873,-0.551211 -0.4908,-0.959537 -0.77954,-0.408326 z" />
  <path
     style="fill:#000000;fill-opacity:1;fill-rule:nonzero;stroke:none;stroke-width:0.264583"
     id="path5"
     d="m 180.45078,63.940976 c -0.67741,1.204177 -1.33113,2.421655 -1.9978,3.631851 -0.1675,0.302609 -0.33499,0.605219 -0.50249,0.907828 -0.30134,0.544422 0.46859,0.970579 0.76993,0.426159 v 0 c 0.16778,-0.303128 0.33556,-0.606256 0.50334,-0.909381 0.66445,-1.206185 1.31605,-2.419599 1.99107,-3.619854 0.30872,-0.540266 -0.45533,-0.976869 -0.76405,-0.436603 z" />
  <path
     style="fill:#000000;fill-opacity:1;fill-rule:nonzero;stroke:none;stroke-width:0.264583"
     id="path6"
     d="m 174.35115,57.833374 c -0.56708,0.966888 -1.1475,1.925847 -1.72982,2.883607 -0.61553,1.004252 -0.31301,0.514921 -0.90707,1.468308 -0.32906,0.528124 0.41782,0.993492 0.74689,0.465367 v 0 c 0.598,-0.959786 0.2938,-0.467719 0.91211,-1.476504 0.5869,-0.965314 0.35138,-0.575014 0.89753,-1.483924 0.25738,-0.428326 0.52157,-0.854765 0.76735,-1.290042 0.0466,-0.08261 0.0896,-0.167272 0.13436,-0.25091 0.22338,-0.580776 -0.59797,-0.896678 -0.82135,-0.315902 z" />
  <path
     style="fill:#000000;fill-opacity:1;fill-rule:nonzero;stroke:none;stroke-width:0.264583"
     id="path7"
     d="m 173.40276,57.275813 c -0.24358,-0.229497 -0.50294,-0.441931 -0.74468,-0.673502 -0.0783,-0.07501 -0.15354,-0.153139 -0.23031,-0.229706 -0.38652,-0.393669 -0.76378,-0.796579 -1.13542,-1.204315 -0.11858,-0.130911 -0.23631,-0.262551 -0.35188,-0.396118 -0.40728,-0.470453 -1.0726,0.105521 -0.66532,0.575974 v 0 c 0.12058,0.139218 0.24321,0.276606 0.36692,0.413046 0.38138,0.418164 0.7682,0.831652 1.16501,1.235223 0.0857,0.08507 0.16982,0.171728 0.25705,0.255223 0.22386,0.21428 0.46085,0.414832 0.69201,0.621061 0.42206,0.457235 1.06868,-0.139652 0.64662,-0.596886 z" />
  <path
     style="fill:#000000;fill-opacity:1;fill-rule:nonzero;stroke:none;stroke-width:0.264583"
     id="path8"
     d="m 174.93745,54.795122 c -0.24009,0.253849 -0.48418,0.504094 -0.72652,0.755896 -0.48693,0.51263 -0.98233,1.017106 -1.47142,1.527648 -0.43044,0.44935 0.20504,1.058093 0.63548,0.60874 v 0 c 0.48859,-0.510071 0.98357,-1.014005 1.46999,-1.526164 0.22876,-0.237688 0.46119,-0.472109 0.68442,-0.714973 0.46043,-0.418573 -0.13152,-1.069721 -0.59195,-0.651147 z" />
  <path
     style="fill:#000000;fill-opacity:1;fill-rule:nonzero;stroke:none;stroke-width:0.264583"
     id="path9"
     d="m 180.70017,58.663901 c -0.13858,-0.0097 -0.27761,-0.01135 -0.41646,-0.0094 -0.2068,7.94e-4 -0.41095,0.03193 -0.61245,0.07582 -0.14545,0.03419 -0.28984,0.07818 -0.42625,0.139856 -0.0346,0.01561 -0.0682,0.03321 -0.10228,0.04981 -0.17876,0.0969 -0.34436,0.215506 -0.50194,0.343442 -0.12044,0.09859 -0.21983,0.21767 -0.30171,0.349668 -0.0501,0.08085 -0.0695,0.123955 -0.1122,0.208719 -0.0641,0.134218 -0.12032,0.272061 -0.1617,0.415044 -0.0282,0.09736 -0.0329,0.127535 -0.0541,0.226182 -0.0418,0.207211 -0.0551,0.418325 -0.0655,0.628962 -0.007,0.171003 -0.01,0.342162 -0.0117,0.513297 0.004,0.109307 0.004,0.21935 0.0148,0.328335 0.007,0.07492 0.0154,0.121174 0.0265,0.193908 0.0298,0.160435 0.0673,0.320825 0.12055,0.475334 0.0123,0.03552 0.0264,0.07037 0.0395,0.105548 0.0723,0.176636 0.17147,0.34132 0.29016,0.490633 0.0273,0.03436 0.0565,0.06719 0.0848,0.100793 0.19967,0.218993 0.43908,0.396205 0.68277,0.562718 0.17288,0.108889 0.35032,0.215093 0.54083,0.290756 0.0372,0.01476 0.0753,0.02715 0.11297,0.04073 0.19044,0.06283 0.38895,0.09286 0.58765,0.114287 0.12756,0.01294 0.25539,0.01894 0.38337,0.0089 0.0833,-0.0066 0.11387,-0.01318 0.19624,-0.02643 0.15556,-0.03308 0.30938,-0.07865 0.456,-0.140777 0.0339,-0.01434 0.067,-0.03034 0.10055,-0.04551 0.13295,-0.06625 0.26497,-0.137369 0.38519,-0.225226 0.0261,-0.01908 0.0511,-0.03955 0.0767,-0.05932 0.15212,-0.124499 0.2846,-0.269496 0.41163,-0.41884 0.12516,-0.148048 0.22641,-0.312989 0.31893,-0.482719 0.08,-0.157811 0.13794,-0.324988 0.18735,-0.494464 0.0465,-0.168505 0.0897,-0.33786 0.13336,-0.507111 0.0475,-0.167225 0.076,-0.338569 0.0969,-0.510863 0.0147,-0.129429 0.022,-0.259535 0.0231,-0.389747 0.001,-0.155549 -0.0292,-0.308039 -0.0657,-0.458409 -0.0396,-0.146857 -0.0981,-0.288002 -0.16696,-0.423315 -0.0509,-0.09437 -0.11048,-0.183692 -0.16956,-0.27305 -0.0628,-0.08856 -0.12925,-0.174363 -0.20035,-0.256429 -0.0604,-0.06984 -0.12659,-0.134154 -0.19129,-0.199872 -0.0594,-0.06361 -0.12657,-0.118152 -0.1947,-0.171891 -0.0657,-0.05095 -0.13686,-0.09381 -0.20765,-0.137052 -0.0686,-0.04119 -0.13771,-0.0814 -0.20917,-0.117517 -0.0684,-0.03547 -0.13931,-0.06548 -0.21177,-0.09149 -0.0641,-0.01728 -0.10482,-0.03188 -0.16926,-0.04945 -0.0608,-0.01852 -0.12306,-0.03042 -0.18587,-0.03927 -0.0456,-0.0045 -0.09,-0.0084 -0.135,-0.01384 0.007,7.94e-4 0.0146,0.0024 0.022,0.0027 0.002,9.5e-5 -0.004,-0.0013 -0.006,-0.0021 -0.009,-0.0024 -0.0182,-0.0047 -0.0274,-0.0069 -0.0331,-0.008 -0.0662,-0.01445 -0.0998,-0.02029 -0.0756,-0.0079 -0.0402,-0.0056 -0.10606,-0.008 -0.62211,-0.01352 -0.64123,0.866272 -0.0191,0.879792 v 0 c -0.007,-0.0029 -0.001,-5.29e-4 -0.0195,-0.0038 0.0508,0.0059 0.0984,0.02935 0.14994,0.03206 0.0416,0.0051 0.0833,0.01 0.12514,0.01259 0.0258,0.0021 0.0504,0.0104 0.0753,0.01725 0.0365,0.0089 0.0716,0.02461 0.10844,0.03085 0.0401,0.0081 0.0755,0.03639 0.1132,0.05055 0.016,0.0053 0.003,7.93e-4 0.0338,0.01781 0.0353,0.01976 0.0696,0.04101 0.10471,0.06112 0.0409,0.02476 0.0822,0.0489 0.12097,0.077 0.0393,0.03077 0.0791,0.05979 0.11194,0.098 0.052,0.05262 0.1053,0.104093 0.15411,0.159796 0.0462,0.05246 0.0879,0.10818 0.12995,0.163935 0.0429,0.06475 0.0865,0.129215 0.12453,0.196956 0.0406,0.06863 0.0644,0.147381 0.0909,0.222163 0.0198,0.08072 0.0403,0.162118 0.0407,0.24579 1.7e-4,0.09655 -0.007,0.193008 -0.0168,0.28902 -0.0158,0.133662 -0.0376,0.266523 -0.0753,0.396023 -0.0416,0.161335 -0.0827,0.322784 -0.12689,0.483434 -0.0307,0.108712 -0.0676,0.215529 -0.11512,0.31815 -0.0631,0.11696 -0.13098,0.231307 -0.21675,0.33345 -0.0883,0.104632 -0.17951,0.206925 -0.28401,0.295904 -0.0875,0.071 -0.18554,0.127228 -0.28635,0.177237 -0.10673,0.05069 -0.2183,0.09029 -0.33334,0.117623 -0.0494,0.0088 -0.0996,0.01831 -0.14984,0.02027 -0.0642,0.0024 -0.12814,-0.0056 -0.19202,-0.0098 -0.13124,-0.01363 -0.26264,-0.03133 -0.38932,-0.06962 -0.16033,-0.05306 -0.30719,-0.138821 -0.44964,-0.228388 -0.17917,-0.121552 -0.35616,-0.249743 -0.50765,-0.405339 -0.0886,-0.102405 -0.1717,-0.210516 -0.22381,-0.33668 -0.0517,-0.128516 -0.0853,-0.264266 -0.112,-0.399968 -0.006,-0.03948 -0.014,-0.07876 -0.0182,-0.118504 -0.009,-0.08642 -0.008,-0.173749 -0.0128,-0.260421 0.002,-0.159735 0.004,-0.319487 0.0107,-0.479103 0.008,-0.1641 0.0166,-0.328737 0.0476,-0.490458 0.0306,-0.149204 0.0734,-0.29451 0.14263,-0.430953 0.0486,-0.09959 0.0941,-0.197482 0.18228,-0.268483 0.10684,-0.08774 0.2194,-0.168495 0.33899,-0.238128 0.10198,-0.05389 0.21206,-0.09171 0.3244,-0.11747 0.14409,-0.03216 0.29,-0.05555 0.43813,-0.05538 0.10473,-0.0021 0.20942,2.65e-4 0.31406,0.0051 0.61917,0.06191 0.70673,-0.813716 0.0876,-0.875633 z" />
  <path
     style="fill:#000000;fill-opacity:1;fill-rule:nonzero;stroke:none;stroke-width:0.264583"
     id="path10"
     d="m 181.22176,59.043714 c 8e-4,-0.563613 0.0236,-1.126985 0.0375,-1.690397 0.0281,-1.471636 0.0383,-2.9435 0.0612,-4.415224 0.0272,-1.444773 0.0938,-2.888496 0.1572,-4.332041 0.0442,-0.838716 0.0925,-1.677191 0.12813,-2.516328 0.0187,-0.436472 0.0295,-0.87322 0.0374,-1.310002 0.004,-0.236979 0.006,-0.473993 0.007,-0.71101 8e-4,-0.255778 0.001,-0.511558 0.001,-0.767339 1.4e-4,-0.282435 1.5e-4,-0.564869 1.7e-4,-0.847304 2e-5,-0.232622 2e-5,-0.465241 3e-5,-0.69786 -0.001,-0.173551 0.0215,-0.346498 0.0416,-0.518639 0.0143,-0.184581 0.0451,-0.366789 0.0761,-0.54906 0.0498,-0.277183 0.0965,-0.5548 0.13645,-0.833583 0.0397,-0.272532 0.065,-0.546799 0.0845,-0.821421 0.0123,-0.187195 0.0171,-0.374777 0.0208,-0.562305 0.003,-0.140612 0.003,-0.281249 0.004,-0.421881 0.006,-0.05472 0.0128,-0.109309 0.0195,-0.163915 0.0763,-0.617557 -0.79705,-0.725475 -0.87335,-0.107918 v 0 c -0.011,0.08936 -0.0231,0.178711 -0.0262,0.268826 -5.2e-4,0.135873 -0.001,0.271753 -0.003,0.407608 -0.003,0.172532 -0.008,0.345114 -0.0188,0.51735 -0.0179,0.253714 -0.0411,0.507111 -0.0778,0.758889 -0.0388,0.271139 -0.0845,0.541073 -0.13287,0.810662 -0.0336,0.197435 -0.0665,0.394927 -0.0827,0.594757 -0.024,0.205988 -0.0493,0.412914 -0.0475,0.620617 0,0.2326 -1e-5,0.465204 -2e-5,0.697804 -2e-5,0.282279 -3e-5,0.564557 -1.7e-4,0.846836 -1.6e-4,0.254738 -2.7e-4,0.509479 -0.001,0.764217 -0.001,0.23291 -0.003,0.46582 -0.007,0.698699 -0.008,0.429651 -0.0184,0.859274 -0.0368,1.288621 -0.0356,0.838721 -0.084,1.67677 -0.12808,2.515074 -0.0638,1.45185 -0.13069,2.903878 -0.15794,4.356965 -0.0228,1.469056 -0.0331,2.938251 -0.061,4.40722 -0.014,0.570637 -0.0373,1.141235 -0.0378,1.712082 0,0.622255 0.88,0.622255 0.88,0 z" />
  <path
     style="fill:#000000;fill-opacity:1;fill-rule:nonzero;stroke:none;stroke-width:0.264583"
     id="path11"
     d="m 178.41742,37.951278 c 0.40474,-2.13e-4 0.80946,-0.0012 1.21417,0.004 0.61583,0.01212 1.23165,0.02346 1.84756,0.03034 0.58471,0.0055 1.16945,0.0079 1.75418,0.01005 0.35965,0.0014 0.71929,0.0017 1.07894,0.002 0.18295,1.23e-4 0.3659,1.77e-4 0.54885,2.35e-4 0.62225,1.96e-4 0.62253,-0.879804 2.7e-4,-0.88 v 0 c -0.18282,-5.8e-5 -0.36564,-1.12e-4 -0.54846,-2.35e-4 -0.35881,-2.64e-4 -0.71761,-6.08e-4 -1.07642,-0.002 -0.58252,-0.0021 -1.16504,-0.0046 -1.74754,-0.01 -0.61542,-0.0069 -1.23074,-0.01825 -1.84607,-0.03033 -0.40849,-0.0052 -0.81698,-0.0044 -1.2255,-0.0041 -0.62225,0 -0.62225,0.88 0,0.88 z" />
  <path
     style="fill:#000000;fill-opacity:1;fill-rule:nonzero;stroke:none;stroke-width:0.264583"
     id="path13"
     d="m 181.38713,51.28459 c -0.0136,-0.331779 0.0291,-0.660537 0.0766,-0.988036 0.0495,-0.419121 0.16877,-0.82206 0.30166,-1.220935 0.18867,-0.570646 0.48409,-1.095386 0.79686,-1.605542 0.32541,-0.487582 0.64371,-0.981126 0.99877,-1.447851 0.27561,-0.344209 0.56495,-0.693716 0.90811,-0.974611 0.0731,-0.05985 0.15202,-0.112249 0.22804,-0.168373 0.60412,-0.414197 1.28014,-0.707615 1.95255,-0.991116 0.84794,-0.312769 1.73171,-0.510333 2.614,-0.697685 0.71038,-0.14266 1.42471,-0.262077 2.14506,-0.340212 0.72664,-0.09588 1.4564,-0.159168 2.1879,-0.201871 0.60086,-0.03329 1.20253,-0.04793 1.80414,-0.05875 0.62216,-0.01119 0.60633,-0.891048 -0.0158,-0.879858 v 0 c -0.61348,0.01103 -1.22699,0.02609 -1.8397,0.06011 -0.74613,0.04371 -1.49057,0.107836 -2.23177,0.205542 -0.7497,0.08193 -1.49342,0.20507 -2.2327,0.354253 -0.93669,0.199125 -1.87488,0.410329 -2.7733,0.747731 -0.73828,0.311938 -1.47914,0.637011 -2.13871,1.098121 -0.0989,0.07518 -0.20089,0.146389 -0.29662,0.225528 -0.38183,0.315648 -0.7048,0.70485 -1.01256,1.089713 -0.37098,0.491228 -0.70883,1.006489 -1.048,1.520008 -0.34692,0.567909 -0.67242,1.152723 -0.88141,1.787546 -0.14847,0.448432 -0.28069,0.902131 -0.3375,1.372732 -0.0529,0.369038 -0.0993,0.739852 -0.0856,1.113557 0,0.622255 0.88,0.622255 0.88,0 z" />
  <path
     style="fill:#000000;fill-opacity:1;fill-rule:nonzero;stroke:none;stroke-width:0.264583"
     id="path14"
     d="m 192.70731,40.103947 c 0.43792,0.378238 0.9013,0.726631 1.35649,1.083879 0.26763,0.215829 0.54969,0.414922 0.80441,0.646523 0.097,0.08816 0.18911,0.181443 0.28382,0.27201 0.15073,0.154493 0.0765,0.07831 0.22272,0.228531 0.43403,0.445884 1.06461,-0.167934 0.63057,-0.613818 v 0 c -0.15462,-0.158837 -0.0729,-0.07524 -0.24509,-0.250711 -0.0378,-0.03613 -0.29236,-0.279868 -0.31735,-0.302461 -0.26539,-0.239995 -0.55687,-0.448858 -0.83578,-0.672333 -0.42762,-0.335608 -0.86039,-0.66539 -1.27753,-1.013875 -0.44,-0.439999 -1.06226,0.182256 -0.62226,0.622255 z" />
  <path
     style="fill:#000000;fill-opacity:1;fill-rule:nonzero;stroke:none;stroke-width:0.264583"
     id="path15"
     d="m 193.35302,45.20233 c 0.2166,-0.191442 0.43994,-0.375044 0.65823,-0.564552 0.30538,-0.271666 0.59858,-0.556403 0.89394,-0.838769 0.19392,-0.185631 0.38869,-0.370432 0.5801,-0.558654 0.10815,-0.103563 0.21618,-0.207124 0.32873,-0.305903 0.0788,-0.06605 0.15233,-0.13788 0.22879,-0.206505 0.0531,-0.05027 0.10439,-0.102293 0.15366,-0.156358 0.003,-0.003 0.006,-0.0059 0.009,-0.0089 0.42926,-0.45048 -0.20781,-1.057553 -0.63708,-0.607076 v 0 c -0.008,0.0088 -0.0166,0.0176 -0.0249,0.02641 -0.0281,0.03203 -0.0585,0.06165 -0.0888,0.09157 -0.0738,0.06646 -0.145,0.135729 -0.22109,0.199655 -0.12493,0.109794 -0.24522,0.224504 -0.36513,0.339749 -0.18836,0.185377 -0.38028,0.367128 -0.57112,0.549947 -0.2852,0.272708 -0.56831,0.5477 -0.86286,0.810442 -0.219,0.190323 -0.44337,0.374362 -0.66065,0.566664 -0.46829,0.409757 0.11119,1.072025 0.57948,0.662268 z" />
  <path
     style="fill:#000000;fill-opacity:1;fill-rule:nonzero;stroke:none;stroke-width:0.264583"
     id="path16"
     d="m 196.35832,42.33239 c 0.0889,-0.08474 0.17557,-0.172107 0.26191,-0.25953 0.1284,-0.128027 0.26312,-0.249357 0.39567,-0.372994 0.0922,-0.08351 0.1802,-0.171677 0.27492,-0.252434 0.0495,-0.04216 0.091,-0.07437 0.14214,-0.114961 0.10678,-0.08322 0.21592,-0.163915 0.33092,-0.235527 0.0864,-0.05381 0.10637,-0.063 0.19707,-0.112585 0.14091,-0.07321 0.28078,-0.149519 0.42638,-0.213276 0.0696,-0.0305 0.13172,-0.05273 0.20306,-0.07957 0.18757,-0.07044 0.38275,-0.115967 0.58087,-0.143587 0.15727,-0.02376 0.31561,-0.01336 0.4727,0.0049 0.15317,0.01873 0.30212,0.05888 0.44995,0.10173 0.0934,0.03006 0.18648,0.06262 0.27357,0.108317 0.0558,0.02927 0.0889,0.05002 0.14383,0.08261 0.0852,0.05463 0.17169,0.110932 0.24443,0.182079 0.017,0.01664 0.0519,0.06294 0.0653,0.08004 0.032,0.04692 0.0641,0.09438 0.0855,0.147331 0.0254,0.06272 0.041,0.130436 0.059,0.195437 0.0403,0.178289 0.0575,0.360709 0.0627,0.543105 4e-5,0.123523 -0.0133,0.247136 -0.0378,0.368191 -0.0125,0.06176 -0.0243,0.09988 -0.0412,0.160525 -0.0278,0.08805 -0.0597,0.17653 -0.10611,0.256816 -0.0252,0.04366 -0.0451,0.06855 -0.0752,0.109839 -0.079,0.103267 -0.17099,0.198141 -0.27542,0.276074 -0.0197,0.01474 -0.0403,0.02828 -0.0605,0.04242 -0.0952,0.06451 -0.19727,0.122224 -0.30718,0.157763 -0.0166,0.0054 -0.0336,0.0093 -0.0505,0.01392 -0.13648,0.03067 -0.27631,0.04226 -0.41575,0.0489 -0.13773,0.0051 -0.27488,-0.01461 -0.41022,-0.0381 -0.16442,-0.03283 -0.32429,-0.08423 -0.48335,-0.136443 -0.2132,-0.06511 -0.41879,-0.151691 -0.6234,-0.239491 -0.099,-0.04373 -0.19961,-0.08446 -0.29742,-0.13096 -0.0778,-0.03701 -0.1535,-0.07868 -0.22829,-0.121415 -0.19421,-0.111564 -0.38256,-0.233019 -0.57069,-0.354446 -0.15586,-0.100539 -0.30896,-0.205306 -0.46495,-0.305642 -0.10964,-0.07487 -0.22671,-0.138321 -0.33703,-0.212042 -0.5199,-0.341919 -1.00344,0.393324 -0.48355,0.735245 v 0 c 0.11387,0.07424 0.23186,0.141994 0.34509,0.217273 0.15563,0.09974 0.30782,0.204788 0.46339,0.304639 0.20235,0.130485 0.40493,0.260998 0.61395,0.38063 0.0335,0.01886 0.0667,0.0383 0.10055,0.05661 0.16584,0.08981 0.33879,0.165092 0.51217,0.238898 0.22847,0.09788 0.45824,0.193799 0.69609,0.266925 0.20041,0.0656 0.4022,0.128984 0.60983,0.167748 0.19884,0.03336 0.39998,0.05914 0.60209,0.04946 0.2101,-0.01101 0.42081,-0.03051 0.62474,-0.08502 0.0373,-0.01161 0.0749,-0.02193 0.11175,-0.03482 0.18015,-0.06297 0.34881,-0.156417 0.50548,-0.264502 0.0342,-0.02484 0.0692,-0.0487 0.1026,-0.07455 0.16673,-0.128882 0.3139,-0.282742 0.4395,-0.45166 0.0667,-0.09617 0.0856,-0.117935 0.14192,-0.220924 0.0727,-0.132969 0.12565,-0.276437 0.16928,-0.421148 0.0277,-0.102772 0.0394,-0.139105 0.06,-0.245388 0.0346,-0.179049 0.0516,-0.361635 0.0497,-0.543983 -0.002,-0.04351 -0.002,-0.08705 -0.005,-0.130522 -0.0116,-0.208891 -0.0415,-0.417282 -0.0901,-0.620736 -0.0222,-0.07865 -0.0406,-0.149538 -0.0689,-0.226674 -0.0582,-0.158819 -0.13754,-0.301591 -0.24104,-0.435335 -0.0738,-0.08867 -0.087,-0.109683 -0.17379,-0.191405 -0.0268,-0.02527 -0.0555,-0.04847 -0.0841,-0.0717 -0.0908,-0.07368 -0.1868,-0.140552 -0.28685,-0.200988 -0.0811,-0.04755 -0.12729,-0.0764 -0.21195,-0.118851 -0.13081,-0.0656 -0.2683,-0.116284 -0.40798,-0.159414 -0.19583,-0.05651 -0.39369,-0.107222 -0.59661,-0.130913 -0.0381,-0.0041 -0.0762,-0.009 -0.11437,-0.01241 -0.19384,-0.01728 -0.38906,-0.01619 -0.58199,0.01106 -0.0404,0.006 -0.0808,0.01111 -0.12108,0.01791 -0.22003,0.0373 -0.43588,0.0969 -0.64535,0.173564 -0.10995,0.04179 -0.15607,0.05771 -0.26448,0.10551 -0.16303,0.07189 -0.32002,0.156983 -0.47781,0.239424 -0.044,0.02434 -0.0885,0.04787 -0.13204,0.07304 -0.18221,0.105293 -0.3541,0.227398 -0.51945,0.357317 -0.0711,0.05661 -0.10772,0.08478 -0.17693,0.144137 -0.10062,0.08628 -0.19492,0.179459 -0.29285,0.268705 -0.14123,0.131959 -0.28498,0.261266 -0.42154,0.398161 -0.0957,0.09712 -0.19325,0.192458 -0.28963,0.288949 -0.41627,0.462516 0.23783,1.051206 0.6541,0.588687 z" />
  <path
     style="fill:#000000;fill-opacity:1;fill-rule:nonzero;stroke:none;stroke-width:0.264583"
     id="path17"
     d="m 182.1599,37.76453 c 0.16061,-0.202897 0.32307,-0.404506 0.48539,-0.60609 0.27783,-0.349879 0.5257,-0.723014 0.74737,-1.110771 0.0422,-0.07386 0.0823,-0.148932 0.12345,-0.223398 0.12776,-0.250556 0.25527,-0.502623 0.35449,-0.766243 0.0579,-0.153809 0.0709,-0.207077 0.11741,-0.362831 0.0858,-0.296445 0.12783,-0.602497 0.15866,-0.908768 0.0115,-0.140174 0.0265,-0.28078 0.0188,-0.421639 -0.002,-0.03563 -0.006,-0.07107 -0.01,-0.106602 -0.0634,-0.619014 -0.93883,-0.529337 -0.87542,0.08968 v 0 c 0.0157,0.116902 -2e-5,0.23416 -0.009,0.351073 -0.0249,0.251322 -0.0575,0.502805 -0.12679,0.746351 -0.0328,0.112084 -0.0485,0.172685 -0.0892,0.28226 -0.0861,0.231219 -0.19847,0.451687 -0.30939,0.671599 -0.0371,0.06729 -0.0732,0.135134 -0.1112,0.201887 -0.19996,0.35096 -0.42345,0.688923 -0.67454,1.005494 -0.11754,0.145974 -0.2342,0.292649 -0.35166,0.438683 -0.061,0.07581 -0.0831,0.100893 -0.13963,0.174019 -0.009,0.01106 -0.0165,0.02254 -0.0248,0.03381 -0.36168,0.506349 0.35441,1.017838 0.71608,0.511489 z" />
  <path
     style="fill:#000000;fill-opacity:1;fill-rule:nonzero;stroke:none;stroke-width:0.264583"
     id="path18"
     d="m 184.13769,33.175733 c 3e-5,-0.149453 -0.0283,-0.298927 -0.0668,-0.442947 -0.012,-0.04474 -0.0263,-0.08879 -0.0395,-0.133187 -0.0709,-0.218768 -0.16906,-0.428794 -0.28762,-0.625816 -0.0217,-0.03602 -0.0451,-0.07098 -0.0676,-0.106469 -0.0813,-0.12356 -0.17598,-0.237706 -0.28193,-0.34089 -0.0588,-0.0573 -0.077,-0.07097 -0.13864,-0.123235 -0.08,-0.06358 -0.16113,-0.126758 -0.24794,-0.180938 -0.07,-0.04368 -0.0875,-0.05136 -0.15796,-0.08846 -0.14317,-0.0717 -0.29613,-0.122494 -0.45287,-0.154706 -0.0325,-0.0067 -0.0653,-0.01184 -0.098,-0.01776 -0.13783,-0.02233 -0.27755,-0.0311 -0.41709,-0.02623 -0.0817,0.0029 -0.12687,0.0081 -0.20731,0.01561 -0.18137,0.01942 -0.35979,0.05711 -0.5364,0.101732 -0.1725,0.04557 -0.34138,0.103268 -0.50878,0.164685 -0.14039,0.0519 -0.27688,0.11271 -0.41027,0.180403 -0.13908,0.07257 -0.27137,0.156806 -0.39839,0.248622 -0.11285,0.0839 -0.21456,0.180838 -0.31226,0.281579 -0.0836,0.08922 -0.15229,0.190856 -0.21299,0.296604 -0.0664,0.112841 -0.13641,0.366865 -0.15985,0.494505 -0.0161,0.09654 -0.0173,0.262623 -0.0214,0.360284 -0.0252,0.621745 0.87928,0.03557 0.87928,0.03557 v 0 c 0,0 -0.0115,-0.105244 -0.005,-0.189501 0.007,-0.07728 0.0155,-0.106859 0.0501,-0.182827 0.0164,-0.05655 0.074,-0.166159 0.10125,-0.202108 0.0625,-0.06446 0.12618,-0.127764 0.19781,-0.182266 0.0892,-0.06537 0.18282,-0.124262 0.28043,-0.176337 0.1021,-0.05228 0.20683,-0.09854 0.3144,-0.138544 0.13861,-0.05104 0.27841,-0.09915 0.42112,-0.137568 0.0128,-0.0032 0.10832,-0.02762 0.12584,-0.0315 0.0917,-0.02028 0.18472,-0.03483 0.27774,-0.04727 0.12958,-0.01266 0.25987,-0.02164 0.38908,0.0013 0.102,0.01691 0.20364,0.03988 0.2968,0.08631 0.0101,0.0051 0.0613,0.03087 0.0741,0.03874 0.0602,0.03707 0.11657,0.08047 0.17217,0.123984 0.0935,0.07711 0.1794,0.162671 0.24556,0.265011 0.10403,0.160082 0.19431,0.330164 0.25379,0.512129 0.0215,0.06922 0.0311,0.09478 0.0464,0.164167 0.005,0.02515 0.009,0.05066 0.0141,0.07593 0.002,0.01023 0.005,0.02025 0.007,0.03054 0.002,0.01401 0.002,0.03773 0.002,0.05087 0,0.622254 0.88,0.622254 0.88,0 z"
     sodipodi:nodetypes="cscscscscscccccccccccsscccccccsccccccccccscc" />
  <path
     style="fill:#000000;fill-opacity:1;fill-rule:nonzero;stroke:none;stroke-width:0.264583"
     id="path19"
     d="m 179.12535,33.263268 c -7.9e-4,-0.0043 -0.003,-0.01709 -0.002,-0.0128 0.0139,0.122584 0.0413,0.242646 0.0687,0.362745 0.0574,0.248376 0.1443,0.488284 0.23946,0.72429 0.11382,0.275557 0.25533,0.538317 0.39408,0.801823 0.14809,0.282561 0.30425,0.560772 0.45711,0.840748 0.13483,0.24328 0.26906,0.486844 0.40627,0.728794 0.10146,0.176087 0.20059,0.353484 0.29981,0.53084 0.0541,0.09856 0.11412,0.193716 0.16649,0.293204 0.29146,0.549777 1.06896,0.137599 0.77751,-0.412178 v 0 c -0.056,-0.105097 -0.11774,-0.206853 -0.17601,-0.310669 -0.10006,-0.178846 -0.20004,-0.357724 -0.30233,-0.535306 -0.13489,-0.237854 -0.26683,-0.477298 -0.3994,-0.716452 -0.15078,-0.276049 -0.3047,-0.550408 -0.4508,-0.828991 -0.12507,-0.237491 -0.25335,-0.473957 -0.35697,-0.721864 -0.0781,-0.192354 -0.14987,-0.387887 -0.19735,-0.590375 -0.0226,-0.09874 -0.0463,-0.197472 -0.0564,-0.298484 -0.1023,-0.613788 -0.97033,-0.469117 -0.86803,0.144671 z" />
</svg>
