<?xml version="1.0" encoding="UTF-8" standalone="no"?>
<svg
   id="svg1671"
   version="1.1"
   viewBox="0 0 215.64076 55.817814"
   height="55.817814mm"
   width="215.64076mm"
   sodipodi:docname="27 mije li weka tan meli. meli li weka tan mije..svg"
   inkscape:version="1.3 (0e150ed6c4, 2023-07-21)"
   xmlns:inkscape="http://www.inkscape.org/namespaces/inkscape"
   xmlns:sodipodi="http://sodipodi.sourceforge.net/DTD/sodipodi-0.dtd"
   xmlns="http://www.w3.org/2000/svg"
   xmlns:svg="http://www.w3.org/2000/svg"
   xmlns:rdf="http://www.w3.org/1999/02/22-rdf-syntax-ns#"
   xmlns:cc="http://creativecommons.org/ns#"
   xmlns:dc="http://purl.org/dc/elements/1.1/">
  <sodipodi:namedview
     id="namedview1"
     pagecolor="#ffffff"
     bordercolor="#000000"
     borderopacity="0.25"
     inkscape:showpageshadow="2"
     inkscape:pageopacity="0.0"
     inkscape:pagecheckerboard="0"
     inkscape:deskcolor="#d1d1d1"
     inkscape:document-units="mm"
     inkscape:zoom="1.6447612"
     inkscape:cx="567.55961"
     inkscape:cy="90.286665"
     inkscape:window-width="1920"
     inkscape:window-height="1051"
     inkscape:window-x="-9"
     inkscape:window-y="-9"
     inkscape:window-maximized="1"
     inkscape:current-layer="svg1671" />
  <defs
     id="defs1665" />
  <metadata
     id="metadata1668">
    <rdf:RDF>
      <cc:Work
         rdf:about="">
        <dc:format>image/svg+xml</dc:format>
        <dc:type
           rdf:resource="http://purl.org/dc/dcmitype/StillImage" />
        <dc:title />
      </cc:Work>
    </rdf:RDF>
  </metadata>
  <g
     transform="translate(-44.968231,-95.627961)"
     id="layer1">
    <g
       transform="matrix(0.26458333,0,0,0.26458333,156.79632,89.396099)"
       id="g2242">
      <path
         style="opacity:0.2"
         d="m 5.5,231.2 c 16,10.8 26.2,-7.9 40.9,-11.6 17.3,-4.4 37.7,-9.6 29.3,-19.3 -8.4,-9.7 -25.5,-12.8 -36.1,0 -8.2,9.9 -51.6,19 -34.1,30.9 z"
         id="path2216" />
      <path
         style="fill:#262626"
         d="m 26.3,214.2 c -0.1,2.9 -1.7,4.1 -2.8,6.4 -1.1,2 -1.9,7.5 -6.2,9.2 -3.9,1.5 -8.2,0.9 -9.5,0 -1.3,-0.9 -1.6,-3.3 -0.6,-5.2 1,-1.9 3.3,-4 4.4,-8.1 1.1,-4.1 2.6,-6.1 2.6,-6.1 z"
         id="path2218" />
      <path
         style="fill:#ffffff"
         d="m 25,213.7 c 0,0 -1,0.8 -2.4,3.9 -1.5,3.1 -2.3,7.6 -5.4,8.9 -3.8,1.6 -8.2,1.2 -9.4,0.3 -1.2,-0.9 0.3,-3.1 2.4,-5.5 2.1,-2.4 1.9,-9.2 1.9,-9.2 z"
         id="path2220" />
      <path
         style="fill:#262626"
         d="m 50.2,196.5 c 0,1.4 0.6,2.2 2.7,3.8 2.1,1.6 3.1,4.3 5.7,6.4 3.8,3 7.8,3.3 11.5,2.1 1.9,-0.6 2.1,-1.3 2.4,-2 0.3,-0.7 0.4,-3.1 -0.1,-3.7 -1.4,-1.5 -5.7,-3.3 -6.4,-4.7 -0.7,-1.4 -2,-5.1 -2,-5.1 l -13.8,-0.6 z"
         id="path2222" />
      <path
         style="fill:#ffffff"
         d="m 50.4,194.6 c 0.7,0.6 3.4,2.5 4.7,4 1.2,1.4 5.7,6.7 9.1,7.3 3.5,0.5 6.8,-0.3 7.6,-1.3 0.8,-1 0,-1.6 -1,-2.3 -1,-0.7 -4.3,-2.5 -5,-3.6 -0.7,-1.2 -1.5,-5 -1.5,-5 z"
         id="path2224" />
      <path
         style="fill:#06547a"
         d="m 64.4,110.5 c 2.8,3.7 4.3,7.4 4.5,15.7 0.2,8.3 0.3,26 -0.6,29.4 -1,4.1 -3.9,19.4 -3.7,23.6 0.2,4.2 0.5,6.7 -0.2,8 -0.7,1.3 -0.8,1.6 0.3,2.8 1.1,1.3 1.3,3.3 1.1,4.7 -0.2,1.4 1,1.5 -1,1.4 -2,-0.1 -3.6,0.4 -6.5,1.2 -2.9,0.8 -7.9,-0.2 -8.2,-0.2 -0.3,0 0.1,-1.7 -0.4,-2.7 -0.5,-1.1 -0.9,-2.3 -0.9,-4.9 0,-2.6 -1.1,-17.3 -1.1,-23 0,-5.7 1.4,-11.8 1.7,-15.3 0.3,-4.3 -0.7,-12 -1.1,-13.6 -0.4,-1.6 -4,-22.4 -4,-22.4 z"
         id="path2226" />
      <path
         style="opacity:0.2"
         d="m 64.4,110.5 c 2.8,3.7 4.3,7.4 4.5,15.7 0.2,8.3 0.3,26 -0.6,29.4 -1,4.1 -3.9,19.4 -3.7,23.6 0.2,4.2 0.5,6.7 -0.2,8 -0.7,1.3 -0.8,1.6 0.3,2.8 1.1,1.3 1.3,3.3 1.1,4.7 -0.2,1.4 1,1.5 -1,1.4 -2,-0.1 -3.6,0.4 -6.5,1.2 -2.9,0.8 -7.9,-0.2 -8.2,-0.2 -0.3,0 0.1,-1.7 -0.4,-2.7 -0.5,-1.1 -0.9,-2.3 -0.9,-4.9 0,-2.6 -1.1,-17.3 -1.1,-23 0,-5.7 1.4,-11.8 1.7,-15.3 0.3,-4.3 -0.7,-12 -1.1,-13.6 -0.4,-1.6 -4,-22.4 -4,-22.4 z"
         id="path2228" />
      <path
         style="fill:#06547a"
         d="m 53.8,121.7 c 0,0 1.7,10.5 1,12.6 -0.7,2.2 -4.7,6.6 -6,10 -1.3,3.4 -2,9.6 -4.3,14.7 -2.3,5.1 -8.2,17.4 -9.2,21.7 -1,4.3 -1.8,9.4 -3.4,11 -1.7,1.7 -1.5,3.4 -2.2,6.9 -0.7,3.5 -2.5,7.5 -2.4,10.7 0.1,3.1 -0.8,3.3 -0.7,4.3 0.1,1 1.3,2.2 -0.4,2.7 -1.7,0.5 -6.1,0 -9.5,-0.6 -3.4,-0.6 -5.4,-0.1 -5.4,-0.1 0,0 -0.9,-4 -0.2,-5.7 1,-2.4 3.2,-3.6 3,-5.1 -0.2,-1.5 -1.8,-5.1 -0.3,-7.7 1.5,-2.6 2.2,-5.2 2.2,-9.7 0.1,-4.5 2.6,-10.7 3.8,-14.6 1.2,-3.9 5.2,-21.1 5.2,-26.2 0,-5.1 0.5,-13.8 1.5,-17.6 1.2,-4.7 0.5,-12.2 1.3,-14.3 0.9,-2.1 26,7 26,7 z"
         id="path2230" />
      <path
         style="fill:#fbd7c7"
         d="m 35.8,42.2 c 0.3,2.8 0.5,5.2 -0.5,7.1 -1.7,3.2 -4.3,5 -5.4,5.5 -1.1,0.5 3.2,10.6 10,11.6 6.8,1 23.7,4 24.8,4.7 1,0.7 5.2,5.1 5.2,5.1 0,0 -4.9,6.9 -6.3,9.3 -2.3,4 -6.3,11.5 -6.3,11.5 0,0 1.9,4.4 3.9,3.8 2,-0.6 2,-5.1 2.5,-6.1 0.5,-1 14.5,-15.9 15.4,-17.5 0.9,-1.6 1.5,-3.8 -0.7,-6 -2.2,-2.2 -7.5,-9 -9,-10.6 -1,-1 -3.3,-3.5 -5.9,-5.4 -2.6,-1.9 -12.3,-5 -12.3,-5 l -1.6,-7.1 z"
         id="path2232" />
      <path
         style="fill:#e5e5e5"
         d="m 30.8,54.3 c 0,0 7.7,9.3 16.1,7 C 55.3,59 52,50.9 52,50.9 c 0,0 6,-1 10.7,2.5 4.5,3.4 5.3,4.6 5.7,5.8 -0.3,0.8 -3.2,4.8 -3.2,4.8 0,0 0.7,4.4 0.1,8.3 -0.6,3.9 -3.6,13.4 -3.2,19 0.4,5.6 1.6,12.5 2.5,15.2 0.9,2.6 1.9,6.8 1.9,6.8 0,0 -3,6.7 -12.5,8.4 -9.5,1.7 -18.8,1.9 -22.8,-1 -4.5,-3.3 -4.2,-4.8 -3.4,-6.3 0.8,-1.5 3.8,-7.2 3.5,-11 -0.3,-3.8 -8,-26.8 -8,-26.8 l -8.5,-8.8 c 0,0 1.5,-6.4 5.7,-8.5 4.2,-2.1 10.3,-5 10.3,-5 z"
         id="path2234" />
      <path
         style="fill:#fbd7c7"
         d="m 15,67.7 c 0,0 1.4,0.3 3.3,1.2 1.9,0.9 6.9,4.2 7.8,5 1,0.8 0.5,1.2 -0.8,2.3 -1.2,1.1 -13.6,15 -13.6,15 0,0 5.3,3.9 7,5.7 1.7,1.8 6,4.3 7.4,4.1 1.4,-0.2 5.1,-2.8 7.3,-1.2 2.2,1.6 4.9,5.8 2,7.2 -2.9,1.4 -8.3,2.6 -10.6,1.8 C 22.5,108 5.3,99.3 3,97.4 0.3,95.3 -1.1,91.5 1.2,88.2 3.5,84.9 15,67.7 15,67.7 Z"
         id="path2236" />
      <path
         style="fill:#fbd7c7"
         d="m 33,39 c 0,0 -1.6,0.7 0.2,3.6 1.8,2.8 2.9,3.4 3.7,3.3 0.8,-0.1 1,-0.4 1,-0.4 0,0 0.9,3.5 3.8,5.2 2.8,1.7 8.7,3.8 11.4,2.8 2.7,-1 2.7,-14.2 2,-16.9 C 54.4,33.9 52.3,24.6 43.3,23.9 34.3,23.2 28.6,30.2 33,39 Z"
         id="path2238" />
      <path
         style="fill:#825012"
         d="m 42.9,23.6 c -9,-0.7 -14.3,6.6 -9.9,15.3 0,0 1.3,-0.6 3,0.6 1.6,1.2 2.2,2.6 2.2,2.6 l 1.1,-0.8 c 0,0 -0.2,-6.7 3.6,-8.6 2.4,-1.2 5.5,0.6 7.6,-0.4 1.1,-0.5 2,-1.7 2.3,-2.7 -2.2,-3.7 -6,-5.6 -9.9,-6 z"
         id="path2240" />
    </g>
    <g
       transform="matrix(0.26458333,0,0,0.26458333,40.443856,86.260754)"
       id="g2323">
      <path
         style="opacity:0.2"
         d="m 42.8,237.8 c 5.5,-0.2 6.9,-2.6 8.2,-7.3 1.4,-4.7 -0.4,-5.7 2.9,-8.1 3.3,-2.4 5.9,-4.8 5,-8.4 -1.7,-6.9 -9,-15.1 -15.9,-15.1 -6.9,0 -19.8,10.2 -20.2,11.2 -0.4,1 -3.4,2.3 -0.4,6.4 4.8,6.5 8.4,21.6 20.4,21.3 z"
         id="path2265" />
      <path
         style="fill:#ffffff"
         d="m 27.8,204.8 c 0,0 -2.4,2.3 -4.3,3.7 -1.9,1.4 -2,4.1 -1.9,5 0.1,0.9 2.1,3.3 5.5,2.7 3.4,-0.6 6,-4.3 8.3,-6.4 2.3,-2.2 2.3,-2 4,-2.3 1.7,-0.3 0,-4.2 -2.3,-4.3 -2.3,-0.1 -6.8,-2.3 -6.8,-2.3 0,0 -1.5,2.8 -2.5,3.9 z"
         id="path2267" />
      <path
         style="fill:#ffffff"
         d="m 27.8,204.8 c 0,0 -2.4,2.3 -4.3,3.7 -1.9,1.4 -2,4.1 -1.9,5 0.1,0.9 2.1,3.3 5.5,2.7 3.4,-0.6 6,-4.3 8.3,-6.4 2.3,-2.2 2.3,-2 4,-2.3 1.7,-0.3 0,-4.2 -2.3,-4.3 -2.3,-0.1 -6.8,-2.3 -6.8,-2.3 0,0 -1.5,2.8 -2.5,3.9 z"
         id="path2269" />
      <path
         style="fill:#262626"
         d="m 35.4,209.9 c 2.3,-2.2 2.3,-2 4,-2.3 0.2,0 0.4,-0.1 0.5,-0.3 L 33.3,206 c 0,0 0.3,2.6 -1.8,4.9 -2,2.3 -3.2,3.6 -5.7,3.6 -1.8,0 -3.1,-0.4 -4.1,-1.6 0,0.3 0,0.5 0,0.7 0.1,1 2.1,3.3 5.5,2.7 3.4,-0.6 5.9,-4.2 8.2,-6.4 z"
         id="path2271" />
      <path
         style="fill:#cc291f"
         d="m 25.4,119.9 c 0,0 -3.4,9.4 -3.1,20.4 0.3,11.5 1.6,18.7 2.4,21.7 1.1,4.5 3.4,5.9 3.9,15.7 0.5,9.8 0.6,19.8 -0.2,22.7 -0.8,2.9 -2.7,4 -2.4,4.7 0.3,0.7 3.8,-0.4 5.5,1.2 1.7,1.6 4.5,2.7 5.9,2.7 1.4,0.1 2,0 2,0 l -3.7,-78.2 z"
         id="path2273" />
      <path
         style="opacity:0.2"
         d="m 25.4,119.9 c 0,0 -3.4,9.4 -3.1,20.4 0.3,11.5 1.6,18.7 2.4,21.7 1.1,4.5 3.4,5.9 3.9,15.7 0.5,9.8 0.6,19.8 -0.2,22.7 -0.8,2.9 -2.7,4 -2.4,4.7 0.3,0.7 3.8,-0.4 5.5,1.2 1.7,1.6 4.5,2.7 5.9,2.7 1.4,0.1 2,0 2,0 l -3.7,-78.2 z"
         id="path2275" />
      <path
         style="fill:#ffffff"
         d="m 41.7,225.9 c 0,0 -1.7,4.5 -1.7,5.4 0,0.9 -0.2,3.9 0.4,4.6 0.5,0.6 3.2,1.5 5.3,1.2 2.2,-0.3 4.3,-2.4 4.5,-3.2 0.2,-0.9 -0.1,-6.3 -0.2,-7.1 -0.1,-0.8 -0.5,-2.6 -0.5,-2.6 z"
         id="path2277" />
      <path
         style="fill:#262626"
         d="m 49.6,224.1 -1.4,0.3 c 0.4,1.9 0.9,6.3 0.3,8.1 -0.8,2.1 -3,2.7 -4.9,2.7 -1.1,0 -3,-0.6 -3.5,-2 0,1.1 0.1,2.3 0.4,2.7 0.5,0.6 3.2,1.5 5.3,1.2 2.2,-0.3 4.3,-2.4 4.5,-3.2 0.2,-0.9 -0.1,-6.3 -0.2,-7.1 -0.1,-0.8 -0.5,-2.7 -0.5,-2.7 z"
         id="path2279" />
      <path
         style="fill:#cc291f"
         d="m 33.8,131.7 c 0,0 -3,7.1 -3.5,17.3 -0.5,10.2 0.7,17 0.9,19.3 0.1,2.3 0.5,9.4 1.8,12.1 1.3,2.7 3.7,7.9 4.6,14.4 0.9,6.5 1.3,18.4 1.4,21.4 0.1,4 -0.5,7.3 0.2,9.2 0.7,1.9 3,-0.4 5.5,0.3 2.5,0.6 6.4,1.4 7.1,1 0.7,-0.4 -0.5,-7.5 -0.4,-11.6 0.1,-4.1 -0.2,-19.8 -1.1,-26.4 -0.8,-6.6 -5.6,-12.8 -4.8,-19.5 0.8,-6.7 5.4,-20.8 6.5,-25 1.1,-4.1 1.4,-10.2 0.8,-15.7 -0.5,-5.6 -19,3.2 -19,3.2 z"
         id="path2281" />
      <path
         style="fill:#fbd7c7"
         d="m 25.4,114.8 c 0,0 -4.3,3.1 -5.9,5.1 -1.6,2 -2.4,2.9 -2.4,4.7 0,1.8 0.8,2.9 1.6,2.7 0.8,-0.2 0,-2.7 0,-2.7 l 0.8,-1.6 c 0,0 -0.8,1.4 -0.4,2 0.4,0.5 2.2,2.4 2.7,2 0.6,-0.4 0.4,-1.2 0.4,-1.2 0,0 -1.5,-1 -1.2,-1.6 0.3,-0.6 0.8,-0.8 0.8,-0.8 0,0 -0.3,1.8 0,2.4 0.3,0.5 1.6,0.4 1.6,0.4 l 2.4,-5.5 z"
         id="path2283" />
      <path
         style="fill:#ffcc00"
         d="m 44.8,71.7 c -4.6,-0.9 -13.3,-1.6 -16.5,2.4 -3.2,4 -2.4,5.1 -2.4,7.1 0,2 -1.5,5.3 -2.4,7.5 -0.9,2.2 -2.3,5.9 -0.8,8.2 1.5,2.4 4.3,3.5 4.3,3.5 0,0 -0.8,9.3 -1.7,12.9 -0.9,3.5 -2,9.8 -2.4,11.8 -0.4,2 1.6,7.9 5.5,9.4 3.9,1.6 12.8,2.3 18.1,-1.6 5.3,-3.9 6.3,-6.3 6.3,-6.3 0,0 -1.9,-7.7 -1.6,-10.6 0.3,-2.9 5.2,-17.6 5.2,-17.6 L 60,86.6 61.2,85.8 c 0,0 0.3,-2.6 -1.2,-5.1 -1.5,-2.6 -4,-5.2 -7.5,-6.3 -3.5,-1.1 -3.7,-1.9 -7.7,-2.7 z"
         id="path2285" />
      <path
         style="fill:#fbd7c7"
         d="m 34.2,73.6 c 0,0 -6.9,5.5 -2.4,10.2 4.5,4.7 13.3,-4.2 14.9,-7.9 1.7,-3.5 -7.1,-7.6 -12.5,-2.3 z"
         id="path2287" />
      <path
         style="opacity:0.2;fill:#262626"
         d="m 22.3,93.3 c 0,0 -0.1,4.3 11,6.5 16.5,3.3 19.8,-2.9 19.8,-2.9 0,0 -3.1,8.6 -19.2,5.5 -14,-2.7 -11.6,-9.1 -11.6,-9.1 z"
         id="path2289" />
      <path
         style="fill:#825012"
         d="m 42.9,45.5 c -8.1,-0.5 -12,3 -13.5,8.6 -1.5,5.4 4,15.3 -1.8,17.9 0.1,2.2 5.1,4.5 7.3,2.1 2.2,-2.3 2.9,-2.4 2.9,-2.4 z"
         id="path2291" />
      <path
         style="fill:#fbd7c7"
         d="m 32.3,55.6 c -1.5,3.1 -1.9,15.6 0.6,17.6 2.5,2 7.6,-1.3 12.5,-3.5 4.9,-2.2 5.5,-19 -1.9,-19.2 -7.4,-0.2 -9.6,1.8 -11.2,5.1 z"
         id="path2293" />
      <path
         style="fill:#825012"
         d="m 41.4,45.7 c -3.3,0.8 -7.1,5.2 -6.4,10 1,6.2 13.2,18.3 4.6,22.2 1.4,4.6 9.5,4.3 14,2 4.3,-2.3 4.7,-4.5 4.6,-5.3 -0.1,-0.8 -3.8,-4.9 -3.8,-10.9 -0.1,-6.1 -0.4,-21.1 -13,-18 z"
         id="path2295" />
      <path
         style="fill:#fbd7c7"
         d="m 50.6,88.9 c 0,0 2.8,0 4.8,-0.3 2,-0.3 4.7,-2 4.7,-2 0,0 0.2,4.6 0.8,7.3 0.6,2.7 1.6,10.4 2,11.5 0.4,1.1 1.9,2 0,5.9 -1.9,3.9 -9.7,15.9 -11.1,19.1 -1.4,3.2 -1.3,6.2 -2,7.1 -0.7,0.9 -2.5,1.7 -2.7,1.6 -0.3,-0.1 -0.7,-0.1 -0.7,-0.1 0,0 -0.4,0.4 -1.1,0.4 -0.7,0 -0.9,-0.4 -0.9,-0.4 0,0 -0.5,0.8 -1.6,0.7 -1.1,-0.1 -1,-0.8 -1,-0.8 0,0 -1.6,0.8 -2.4,0.6 -0.8,-0.2 -1.2,-1 -0.7,-1.3 0.5,-0.3 1.6,-0.2 2.4,-0.9 0.8,-0.7 2.1,-2.8 2.1,-2.8 0,0 -0.3,-0.2 -0.2,-1.4 0,-1.2 -0.1,-3.1 1,-3.7 1.2,-0.6 2.6,-0.6 3.4,-1.6 2.5,-3 3.2,-8.2 5.4,-12.7 2.1,-4.5 3.6,-6.2 3.6,-6.6 0,-0.4 -2.8,-6.7 -3.8,-10.2 -1.1,-3.8 -2,-9.4 -2,-9.4 z"
         id="path2297" />
    </g>
  </g>
  <path
     style="fill:#000000;fill-opacity:1;fill-rule:nonzero;stroke:none;stroke-width:0.264583"
     id="path1"
     d="m 166.86458,12.217767 c 0.015,0.870417 -0.048,1.739347 -0.10298,2.607424 -0.0966,1.448084 -0.21255,2.894773 -0.31659,4.342331 -0.0136,0.194747 -0.0272,0.389493 -0.0408,0.584239 -0.0434,0.620743 0.83451,0.682052 0.87786,0.06131 v 0 c 0.0136,-0.194155 0.0271,-0.388311 0.0407,-0.582467 0.10421,-1.450051 0.22041,-2.89923 0.31709,-4.349813 0.0561,-0.886584 0.11973,-1.77406 0.10473,-2.663024 0,-0.622254 -0.87999,-0.622254 -0.87999,0 z" />
  <path
     style="fill:#000000;fill-opacity:1;fill-rule:nonzero;stroke:none;stroke-width:0.264583"
     id="path2"
     d="m 167.23758,15.42619 c -0.27124,-0.287017 -0.54601,-0.570995 -0.82197,-0.853557 -0.32169,-0.317154 -0.64475,-0.636624 -1.00118,-0.915387 -0.0729,-0.057 -0.14853,-0.110388 -0.22279,-0.165581 -0.4041,-0.28225 -0.85784,-0.49087 -1.33245,-0.623357 -0.0971,-0.02711 -0.19586,-0.04788 -0.2938,-0.07183 -0.49221,-0.100176 -0.9967,-0.157078 -1.49963,-0.136331 -0.10107,0.0042 -0.20178,0.01467 -0.30267,0.022 -0.43945,0.06189 -0.88415,0.150633 -1.28944,0.339124 -0.2701,0.125625 -0.40377,0.225722 -0.64939,0.387 -0.46398,0.339318 -0.89262,0.750954 -1.16543,1.264156 -0.0525,0.0988 -0.0913,0.204328 -0.13691,0.306491 -0.0264,0.111907 -0.0633,0.221844 -0.0792,0.33572 -0.0473,0.338849 0.0231,0.660424 0.16779,0.966895 0.11022,0.233465 0.1703,0.291109 0.3251,0.49645 0.34342,0.389971 0.79076,0.662188 1.28142,0.827132 0.10188,0.03425 0.20665,0.05921 0.30998,0.08882 0.50644,0.117591 1.02849,0.156741 1.54731,0.127292 0.10093,-0.0057 0.20147,-0.01701 0.3022,-0.02552 0.56991,-0.05913 1.12853,-0.190446 1.68278,-0.331391 0.55843,-0.148013 1.11044,-0.318001 1.65762,-0.502992 0.48295,-0.173819 0.96297,-0.355961 1.44138,-0.541932 0.25231,-0.09861 0.12886,-0.05056 0.37033,-0.1442 0.58016,-0.22499 0.26197,-1.045452 -0.31818,-0.820463 v 0 c -0.24315,0.0943 -0.11946,0.04615 -0.37106,0.14448 -0.46616,0.181295 -0.93399,0.358595 -1.40442,0.528506 -0.52577,0.177911 -1.05621,0.341228 -1.59275,0.483795 -0.50793,0.129423 -1.01965,0.251233 -1.54175,0.30749 -0.51541,0.04614 -1.0289,0.04604 -1.53604,-0.07244 -0.0775,-0.02105 -0.15603,-0.03854 -0.23246,-0.06316 -0.33861,-0.109087 -0.65595,-0.283267 -0.90066,-0.544308 -0.12468,-0.154007 -0.20424,-0.261995 -0.27859,-0.448334 -0.0172,-0.04323 -0.036,-0.08673 -0.0436,-0.132662 -0.0212,-0.128606 0.002,-0.204959 0.0214,-0.331775 0.0257,-0.06376 0.0457,-0.130078 0.077,-0.191281 0.20673,-0.404599 0.54247,-0.725511 0.90255,-0.992955 0.15211,-0.101677 0.31906,-0.221475 0.4852,-0.301651 0.32371,-0.156223 0.68209,-0.225885 1.03426,-0.280793 0.0823,-0.0065 0.1645,-0.01568 0.247,-0.01956 0.42987,-0.02019 0.86142,0.02892 1.28261,0.11186 0.0796,0.01887 0.15977,0.03522 0.2387,0.05662 0.38039,0.103168 0.74573,0.266746 1.0704,0.490446 0.40146,0.29562 0.76848,0.633204 1.11795,0.988514 0.27134,0.277751 0.54158,0.556862 0.80817,0.839099 0.42457,0.454902 1.0679,-0.145538 0.64332,-0.60044 z" />
  <path
     style="fill:#000000;fill-opacity:1;fill-rule:nonzero;stroke:none;stroke-width:0.264583"
     id="path3"
     d="m 167.43858,16.396107 c 0.18484,0 0.36968,0 0.55453,0 0.72599,-0.0065 1.45196,-0.01331 2.17798,-0.01457 1.12325,-0.0052 2.24614,0.0227 3.36873,0.05756 1.2808,0.03728 2.56168,0.07096 3.84232,0.113711 1.36061,0.04952 2.72163,0.08366 4.08289,0.108834 1.27025,0.02189 2.54061,0.0353 3.81097,0.04829 0.9774,0.0089 1.9547,0.02491 2.93205,0.03762 0.63689,0.01032 1.27374,0.02324 1.91059,0.03556 0.62214,0.01203 0.63916,-0.867802 0.017,-0.879835 v 0 c -0.63872,-0.01235 -1.27742,-0.02532 -1.91617,-0.03565 -0.97816,-0.01272 -1.95628,-0.02875 -2.93449,-0.03765 -1.26794,-0.01297 -2.53588,-0.02635 -3.8037,-0.04819 -1.3569,-0.02508 -2.71356,-0.05912 -4.06981,-0.108494 -1.28132,-0.04276 -2.56289,-0.0765 -3.84437,-0.113778 -1.1322,-0.03514 -2.2647,-0.06316 -3.39757,-0.05798 -0.7255,0.0013 -1.45097,0.008 -2.17644,0.01457 -0.18485,0 -0.36969,0 -0.55453,0 -0.62226,0 -0.62226,0.88 0,0.88 z" />
  <path
     style="fill:#000000;fill-opacity:1;fill-rule:nonzero;stroke:none;stroke-width:0.264583"
     id="path4"
     d="m 183.85587,8.5467344 c -5.3e-4,0.1098039 -0.002,0.2195243 0.0184,0.3281204 0.0109,0.057254 0.028,0.1131581 0.0419,0.1697371 0.0745,0.2494165 0.18693,0.4856629 0.33949,0.6970519 0.12286,0.170221 0.17529,0.215735 0.31968,0.3690482 0.0629,0.05699 0.12294,0.117193 0.18858,0.170956 0.28748,0.23548 0.62078,0.419452 0.96804,0.550366 0.0909,0.03428 0.18445,0.0612 0.27668,0.0918 0.34952,0.09965 0.70923,0.162612 1.07204,0.185472 0.21035,0.01325 0.30145,0.0088 0.50976,0.0069 0.32168,-0.0089 0.6423,-0.04902 0.95153,-0.140059 0.20086,-0.05913 0.24595,-0.08419 0.43771,-0.164559 0.27373,-0.126531 0.51928,-0.304377 0.72747,-0.522292 0.12824,-0.134226 0.15422,-0.179189 0.26388,-0.3277122 0.10231,-0.1614901 0.14063,-0.2046951 0.2098,-0.3951988 0.0822,-0.2263697 0.12291,-0.482327 0.14553,-0.7214556 0.007,-0.077695 0.01,-0.155767 0.0149,-0.2336506 0.0104,-0.3595603 -0.0212,-0.7207304 -0.10121,-1.0717225 -0.015,-0.065832 -0.0336,-0.1307824 -0.0504,-0.1961734 -0.0851,-0.291665 -0.19846,-0.5783292 -0.36805,-0.8321096 -0.0356,-0.053217 -0.0754,-0.1034264 -0.11315,-0.1551397 -0.168,-0.2046153 -0.37027,-0.3786775 -0.59,-0.5256837 -0.13247,-0.088627 -0.18679,-0.1147567 -0.32489,-0.1908109 -0.21887,-0.1151519 -0.45117,-0.2001001 -0.69086,-0.2599544 -0.0543,-0.013552 -0.10864,-0.027033 -0.16373,-0.036641 -0.062,-0.010816 -0.12484,-0.01638 -0.18726,-0.024569 -0.22631,-0.017936 -0.45487,-0.011909 -0.6783,0.030631 -0.13843,0.026355 -0.21224,0.050509 -0.34639,0.088719 -0.32964,0.1028658 -0.64611,0.2414453 -0.95807,0.3883057 -0.17636,0.087354 -0.35348,0.1744011 -0.52334,0.2741025 -0.11914,0.069935 -0.14337,0.088765 -0.25751,0.1655553 -0.15464,0.1074928 -0.30275,0.2249705 -0.43752,0.356729 -0.0855,0.083589 -0.10482,0.1086699 -0.18358,0.1977742 -0.10962,0.1303512 -0.20788,0.2698565 -0.28737,0.4206441 -0.0481,0.091324 -0.0626,0.1300155 -0.10318,0.2242241 -0.10198,0.2506958 -0.12474,0.5211066 -0.1421,0.7883072 -0.001,0.037338 -0.003,0.074677 -0.004,0.1120151 -0.0208,0.6219056 0.85869,0.6513488 0.87951,0.029443 v 0 c 7.9e-4,-0.028367 0.002,-0.056733 0.003,-0.0851 0.0106,-0.1678692 0.0174,-0.3400359 0.0736,-0.5000934 0.0618,-0.1477533 0.1354,-0.2881823 0.24237,-0.4091447 0.13352,-0.1539611 0.28257,-0.2923395 0.45256,-0.4058674 0.0793,-0.053979 0.11111,-0.077565 0.19372,-0.126264 0.1522,-0.089714 0.31118,-0.1676561 0.46923,-0.2462797 0.26943,-0.1270913 0.54235,-0.2477915 0.82647,-0.3387161 0.0805,-0.023516 0.15716,-0.047754 0.23922,-0.064982 0.14366,-0.030161 0.29107,-0.034783 0.43723,-0.026257 0.0341,0.00338 0.0685,0.00461 0.10229,0.010136 0.21693,0.035459 0.42614,0.1122281 0.6223,0.2095035 0.0937,0.050677 0.14759,0.077234 0.23649,0.1354632 0.14421,0.094461 0.27962,0.20443 0.39405,0.3336761 0.0232,0.030271 0.0479,0.059464 0.0696,0.090812 0.12446,0.179561 0.2039,0.3857492 0.26641,0.5936527 0.0131,0.049358 0.0277,0.098351 0.0393,0.1480725 0.0648,0.2764712 0.0914,0.561293 0.0854,0.8449427 -0.003,0.059838 -0.005,0.119808 -0.01,0.1795127 -0.0104,0.1205248 -0.0274,0.23055 -0.0508,0.3489993 -0.0154,0.077907 -0.0331,0.1657498 -0.0695,0.2380631 -0.0209,0.041627 -0.0489,0.079337 -0.0733,0.1190052 -0.0263,0.036975 -0.051,0.075088 -0.0788,0.1109244 -0.14603,0.1883175 -0.33018,0.3432499 -0.54525,0.4467971 -0.1459,0.06332 -0.16353,0.07555 -0.31809,0.12356 -0.23841,0.07406 -0.48725,0.102717 -0.73607,0.110916 -0.16424,0.0021 -0.25762,0.0061 -0.42199,-0.0035 -0.29674,-0.01735 -0.59115,-0.0667 -0.87767,-0.145618 -0.0696,-0.02216 -0.14012,-0.04142 -0.20869,-0.06648 -0.25581,-0.09347 -0.50754,-0.2241373 -0.72126,-0.3941259 -0.0485,-0.038546 -0.0928,-0.082023 -0.13918,-0.1230347 -0.0407,-0.042021 -0.083,-0.082572 -0.12221,-0.1260618 -0.14665,-0.1628623 -0.26009,-0.3498149 -0.32381,-0.5601712 -0.01,-0.02956 -0.0253,-0.070925 -0.0288,-0.104063 -0.006,-0.055164 5.3e-4,-0.1111914 -0.002,-0.1664996 0,-0.6222541 -0.88,-0.6222541 -0.88,0 z" />
  <path
     style="fill:#000000;fill-opacity:1;fill-rule:nonzero;stroke:none;stroke-width:0.264583"
     id="path5"
     d="m 190.75913,12.153311 c 0.1178,-0.0035 0.23482,0.0084 0.35166,0.0217 0.23009,0.02689 0.45366,0.08752 0.67044,0.167622 0.14959,0.0616 0.29337,0.138826 0.42559,0.232235 0.0889,0.06277 0.10709,0.08073 0.19063,0.150217 0.19357,0.175517 0.34314,0.389674 0.48139,0.609501 0.14631,0.237741 0.28208,0.481606 0.39888,0.735186 0.1194,0.260193 0.20634,0.532997 0.28473,0.807788 0.0767,0.286733 0.12514,0.579746 0.16728,0.873208 0.042,0.297054 0.0551,0.596699 0.0584,0.896333 0.003,0.315778 -0.0229,0.630781 -0.0591,0.94419 -0.0436,0.359357 -0.10967,0.715475 -0.1927,1.067676 -0.0815,0.293726 -0.18445,0.58392 -0.31954,0.857688 -0.0274,0.05549 -0.0583,0.109168 -0.0874,0.163753 -0.19689,0.34223 -0.46493,0.6348 -0.74259,0.912553 -0.2275,0.233282 -0.48855,0.427353 -0.75935,0.606667 -0.19386,0.126043 -0.39423,0.241629 -0.59814,0.350521 -0.0994,0.05074 -0.0501,0.02606 -0.14783,0.07411 -0.55825,0.274869 -0.16953,1.064358 0.38872,0.78949 v 0 c 0.11461,-0.05651 0.0566,-0.02736 0.17399,-0.08754 0.22843,-0.12224 0.45298,-0.251812 0.67001,-0.393457 0.31954,-0.212641 0.62701,-0.443436 0.89607,-0.718755 0.0525,-0.0529 0.10609,-0.104793 0.1576,-0.158689 0.2803,-0.29332 0.53946,-0.60977 0.73962,-0.963844 0.0369,-0.0705 0.0759,-0.139995 0.11082,-0.211503 0.15918,-0.325656 0.28024,-0.670462 0.37475,-1.01987 0.0902,-0.385647 0.16324,-0.775278 0.21028,-1.168717 0.0398,-0.350115 0.0685,-0.701911 0.0647,-1.054618 -0.004,-0.33813 -0.0195,-0.676264 -0.0673,-1.011428 -0.0481,-0.332765 -0.1039,-0.664909 -0.19222,-0.989735 -0.0913,-0.318513 -0.19345,-0.634388 -0.33238,-0.935836 -0.1339,-0.287532 -0.28603,-0.565709 -0.45338,-0.835234 -0.0759,-0.119691 -0.10871,-0.175445 -0.19296,-0.291382 -0.13911,-0.191418 -0.2962,-0.370101 -0.47309,-0.527477 -0.11354,-0.09276 -0.14613,-0.123253 -0.26731,-0.206667 -0.18942,-0.130383 -0.3939,-0.238868 -0.60768,-0.323467 -0.0524,-0.0188 -0.10427,-0.03894 -0.15711,-0.05639 -0.23248,-0.07677 -0.47328,-0.127525 -0.71591,-0.158663 -0.14937,-0.01651 -0.29908,-0.03077 -0.44958,-0.02716 -0.62225,0 -0.62225,0.88 0,0.88 z" />
  <path
     style="fill:#000000;fill-opacity:1;fill-rule:nonzero;stroke:none;stroke-width:0.264583"
     id="path6"
     d="m 190.18008,8.6396307 c 0.69239,0 1.38477,0 2.07716,0 2.49171,0 4.98343,0 7.47515,0 1.92903,-0.00678 3.85801,-0.02333 5.78682,-0.053281 0.88131,-0.014829 0.45114,-0.00745 1.29053,-0.022109 0.62215,-0.010868 0.60678,-0.8907341 -0.0154,-0.8798658 v 0 c -0.83844,0.014647 -0.40883,0.00727 -1.28882,0.02208 -1.92425,0.029886 -3.84868,0.046391 -5.77315,0.053175 -2.49172,0 -4.98344,0 -7.47515,0 -0.69239,0 -1.38478,0 -2.07716,0 -0.62225,0 -0.62225,0.8799999 0,0.8799999 z" />
  <path
     style="fill:#000000;fill-opacity:1;fill-rule:nonzero;stroke:none;stroke-width:0.264583"
     id="path7"
     d="m 204.05942,6.2609377 c 0.18989,0.200071 0.41023,0.3692212 0.62618,0.5398669 0.33209,0.2510544 0.67031,0.4938318 1.00534,0.7409196 0.23446,0.1772716 0.4699,0.3534435 0.70061,0.5355993 0.15276,0.1171311 0.29487,0.2468634 0.44022,0.3727818 0.47054,0.4071857 1.04638,-0.2582462 0.57585,-0.6654319 v 0 c -0.15559,-0.1344797 -0.3077,-0.2730611 -0.47108,-0.398282 -0.23834,-0.187832 -0.48105,-0.3701391 -0.72329,-0.5528951 -0.32726,-0.2413527 -0.65747,-0.4787284 -0.98231,-0.7233529 -0.17712,-0.1397233 -0.3581,-0.2777646 -0.51742,-0.4378947 -0.41627,-0.4625178 -1.07036,0.1261714 -0.6541,0.588689 z" />
  <path
     style="fill:#000000;fill-opacity:1;fill-rule:nonzero;stroke:none;stroke-width:0.264583"
     id="path8"
     d="m 206.8945,8.0144217 c -0.18978,0.1338974 -0.37016,0.2802622 -0.55001,0.4270358 -0.30684,0.2554678 -0.61951,0.5036012 -0.93307,0.7507223 -0.26448,0.2060806 -0.53665,0.4019003 -0.80245,0.6062237 -0.17337,0.1391673 -0.34701,0.2779835 -0.52043,0.4170775 -0.0827,0.06484 -0.16547,0.129631 -0.24661,0.196447 -0.4796,0.396468 0.0811,1.07472 0.56069,0.678252 v 0 c 0.0776,-0.06449 0.15778,-0.125783 0.23683,-0.18848 0.16848,-0.135412 0.33764,-0.269975 0.50591,-0.405669 0.26854,-0.206527 0.54381,-0.404083 0.81077,-0.6126992 0.31751,-0.2502397 0.63411,-0.5015433 0.94486,-0.7601806 0.1776,-0.1450305 0.35648,-0.2883729 0.54324,-0.4215649 0.4859,-0.388719 -0.0638,-1.0758835 -0.54973,-0.6871646 z" />
  <path
     style="fill:#000000;fill-opacity:1;fill-rule:nonzero;stroke:none;stroke-width:0.264583"
     id="path9"
     d="m 207.74137,8.5426467 c 0.14825,-0.092245 0.30417,-0.1733003 0.45763,-0.2568634 0.37747,-0.2108448 0.76825,-0.3947886 1.16596,-0.5636893 0.29174,-0.1186044 0.59037,-0.2199387 0.89502,-0.2998416 0.17485,-0.045859 0.29253,-0.071096 0.46853,-0.1111032 0.34952,-0.073027 0.70451,-0.1204833 1.06189,-0.1250094 0.0631,-7.99e-4 0.12619,0.00136 0.18929,0.00205 0.25936,0.00396 0.5138,0.056658 0.74863,0.1682243 0.0398,0.018914 0.0776,0.041745 0.11645,0.062617 0.13132,0.078483 0.26625,0.1679647 0.35529,0.2959271 0.037,0.053218 0.0656,0.1273775 0.091,0.1852527 0.0112,0.038272 0.0258,0.075686 0.0335,0.1148149 0.008,0.039247 0.009,0.079443 0.0121,0.1193362 0.007,0.1089259 0.01,0.2063337 2.7e-4,0.3154757 -0.009,0.1020235 -0.0331,0.2284146 -0.0506,0.3283963 -0.0528,0.243268 -0.1381,0.4786701 -0.27398,0.6883555 -0.0241,0.037229 -0.0514,0.072312 -0.0771,0.1084679 -0.15857,0.1947896 -0.36207,0.3455244 -0.57428,0.4768816 -0.18989,0.115485 -0.36518,0.119965 -0.58107,0.12096 -0.34653,-4.18e-4 -0.69005,-0.04381 -1.03046,-0.104956 -0.3629,-0.06689 -0.70998,-0.1929352 -1.04844,-0.3368727 -0.31932,-0.1415718 -0.61719,-0.3244472 -0.90797,-0.5166249 -0.22784,-0.1496995 -0.44075,-0.3195651 -0.64686,-0.497534 -0.0841,-0.073024 -0.1665,-0.1478679 -0.24858,-0.2230993 -0.45885,-0.4203127 -1.05326,0.2285899 -0.59442,0.6489026 v 0 c 0.0886,0.081121 0.17753,0.1618787 0.26828,0.2406017 0.23484,0.2023076 0.47756,0.3952637 0.73691,0.5656294 0.3358,0.2212702 0.68034,0.4307832 1.04951,0.5924702 0.0653,0.02756 0.13016,0.05628 0.19596,0.08267 0.33661,0.13502 0.68487,0.241829 1.04122,0.310205 0.0716,0.01266 0.1429,0.02655 0.21466,0.03799 0.32452,0.05175 0.65297,0.07729 0.9815,0.08054 0.14916,-0.0028 0.22052,3.42e-4 0.36856,-0.01989 0.23779,-0.0325 0.46381,-0.110191 0.66885,-0.235544 0.0457,-0.02894 0.0922,-0.05664 0.13708,-0.0868 0.26077,-0.17524 0.50088,-0.383652 0.69242,-0.633676 0.0386,-0.0565 0.0796,-0.1114862 0.11587,-0.1695042 0.18778,-0.3000795 0.30835,-0.6348132 0.3797,-0.9804754 0.0284,-0.1685624 0.0512,-0.27945 0.0629,-0.4524363 0.0163,-0.2420968 0.004,-0.4954326 -0.0552,-0.7314674 -0.0189,-0.075282 -0.0503,-0.1468844 -0.0755,-0.2203266 -0.0879,-0.1779018 -0.10419,-0.2332604 -0.22813,-0.3923603 -0.16171,-0.2075704 -0.38114,-0.3625919 -0.60704,-0.4920602 -0.0631,-0.03211 -0.12477,-0.067056 -0.1892,-0.09633 -0.33802,-0.1535702 -0.70413,-0.2270802 -1.07444,-0.2337326 -0.0763,-5.027e-4 -0.15259,-0.00271 -0.22887,-0.00148 -0.41229,0.00659 -0.82196,0.061455 -1.22509,0.1463784 -0.19218,0.043816 -0.31856,0.070929 -0.51019,0.1216641 -0.34116,0.09032 -0.67573,0.204014 -1.0024,0.3375075 -0.4236,0.1803626 -0.84015,0.3761152 -1.24242,0.6006629 -0.17094,0.093084 -0.34326,0.1841945 -0.50884,0.2866655 -0.002,0.00114 0.004,-0.00213 0.006,-0.0032 -0.52767,0.329794 -0.0613,1.0760325 0.4664,0.7462386 z" />
  <path
     style="fill:#000000;fill-opacity:1;fill-rule:nonzero;stroke:none;stroke-width:0.264583"
     id="path10"
     d="m 167.78132,40.503234 c -0.27644,0.230381 -0.5415,0.474369 -0.80831,0.715812 -0.3652,0.328798 -0.72697,0.661278 -1.08701,0.995691 -0.2437,0.228806 -0.48741,0.457851 -0.7152,0.702625 -0.12578,0.14207 -0.24774,0.287477 -0.37059,0.432093 -0.40284,0.474258 0.26786,1.043959 0.6707,0.569698 v 0 c 0.11455,-0.134863 0.22845,-0.270301 0.34509,-0.403362 0.21204,-0.229569 0.44204,-0.441537 0.66888,-0.656275 0.35726,-0.331828 0.71622,-0.661744 1.07861,-0.987984 0.24946,-0.225761 0.49778,-0.453175 0.75437,-0.67079 0.49322,-0.379394 -0.0433,-1.076904 -0.53654,-0.697508 z" />
  <path
     style="fill:#000000;fill-opacity:1;fill-rule:nonzero;stroke:none;stroke-width:0.264583"
     id="path11"
     d="m 164.42817,44.238863 c 0.12506,0.210918 0.29059,0.393895 0.45196,0.577101 0.31648,0.350176 0.6495,0.68503 0.98319,1.018707 0.32742,0.32662 0.66754,0.640146 1.00338,0.958035 0.26309,0.248181 0.5252,0.497268 0.77962,0.75435 0.0379,0.038 0.0757,0.076 0.11362,0.113996 0.43927,0.440727 1.06255,-0.180499 0.62328,-0.621226 v 0 c -0.0372,-0.03728 -0.0743,-0.07456 -0.11148,-0.111844 -0.2612,-0.263811 -0.52998,-0.519721 -0.8001,-0.774372 -0.33001,-0.312375 -0.66427,-0.620435 -0.98613,-0.941263 -0.32076,-0.320636 -0.64087,-0.642419 -0.94548,-0.978554 -0.14201,-0.160692 -0.28679,-0.320611 -0.39577,-0.50642 -0.36168,-0.506349 -1.07777,0.0051 -0.71609,0.51149 z" />
  <path
     style="fill:#000000;fill-opacity:1;fill-rule:nonzero;stroke:none;stroke-width:0.264583"
     id="path12"
     d="m 165.17299,43.723678 c -0.0539,-0.08904 -0.10918,-0.17709 -0.16733,-0.263479 -0.16753,-0.236515 -0.35165,-0.46103 -0.54516,-0.676721 -0.0549,-0.06115 -0.11131,-0.120857 -0.16698,-0.181283 -0.31957,-0.335792 -0.67098,-0.640471 -1.03917,-0.921706 -0.0721,-0.05513 -0.14587,-0.108182 -0.2188,-0.162277 -0.27203,-0.197879 -0.55513,-0.380119 -0.86239,-0.518648 -0.19767,-0.08912 -0.24066,-0.09799 -0.44549,-0.166974 -0.33084,-0.09491 -0.67642,-0.120638 -1.01885,-0.09323 -0.21716,0.01741 -0.30629,0.03929 -0.5195,0.07844 -0.41841,0.09142 -0.82708,0.237888 -1.19248,0.464117 -0.0742,0.04595 -0.14443,0.09806 -0.21664,0.147097 -0.0678,0.05444 -0.13847,0.10545 -0.20334,0.163332 -0.1999,0.178386 -0.37767,0.382695 -0.52642,0.60535 -0.12725,0.190463 -0.14754,0.246604 -0.24994,0.450582 -0.0315,0.0803 -0.0671,0.159137 -0.0946,0.240922 -0.0971,0.288804 -0.15747,0.63189 -0.15308,0.937226 9.1e-4,0.07691 0.01,0.153499 0.0147,0.230248 0.03,0.291051 0.1285,0.567487 0.27324,0.820766 0.0868,0.151793 0.12625,0.196233 0.22966,0.335102 0.17543,0.212981 0.38779,0.390583 0.62344,0.533343 0.13881,0.08409 0.19755,0.108052 0.34248,0.177652 0.23066,0.102298 0.47064,0.184106 0.72136,0.21916 0.16527,0.02311 0.23552,0.02008 0.40134,0.02407 0.2728,-0.0024 0.54484,-0.03217 0.81241,-0.08505 0.1664,-0.03281 0.2518,-0.05688 0.41547,-0.09853 0.31579,-0.08726 0.63116,-0.179293 0.93697,-0.297615 0.0602,-0.0233 0.11968,-0.04874 0.17951,-0.07312 0.33479,-0.144024 0.66128,-0.306273 0.98727,-0.468949 0.25479,-0.127781 0.50787,-0.25897 0.7586,-0.39453 0.17913,-0.09549 0.35376,-0.198964 0.5305,-0.298681 0.0234,-0.01362 0.0469,-0.02721 0.0703,-0.04083 0.53787,-0.312875 0.0954,-1.073547 -0.44247,-0.76067 v 0 c -0.0201,0.01173 -0.0402,0.02342 -0.0602,0.03508 -0.17212,0.09714 -0.34223,0.197906 -0.51661,0.291009 -0.24226,0.131025 -0.48682,0.257705 -0.73299,0.381214 -0.30641,0.152931 -0.61319,0.305571 -0.92747,0.441844 -0.0499,0.0205 -0.0994,0.04196 -0.14962,0.06151 -0.27781,0.108095 -0.5647,0.191264 -0.85161,0.271115 -0.13027,0.03347 -0.21792,0.05785 -0.34921,0.0843 -0.21212,0.04272 -0.42769,0.06819 -0.64411,0.07188 -0.10591,-0.0012 -0.16195,0.001 -0.2658,-0.01096 -0.17288,-0.01992 -0.33685,-0.07876 -0.49586,-0.14724 -0.10469,-0.04902 -0.14379,-0.06447 -0.24348,-0.122541 -0.14865,-0.08658 -0.28441,-0.193871 -0.3977,-0.323702 -0.0271,-0.03517 -0.0554,-0.06937 -0.0812,-0.105513 -0.0929,-0.130386 -0.18504,-0.297353 -0.22331,-0.453873 -0.0106,-0.04429 -0.0153,-0.08983 -0.024,-0.134651 -0.004,-0.04424 -0.0111,-0.08833 -0.0129,-0.132725 -0.005,-0.162899 0.0172,-0.327467 0.0525,-0.486044 0.0123,-0.05532 0.0254,-0.110564 0.0425,-0.164612 0.0178,-0.05649 0.0413,-0.111019 0.062,-0.166535 0.0268,-0.0553 0.0513,-0.111804 0.0804,-0.165905 0.0497,-0.09248 0.13658,-0.230979 0.20186,-0.314315 0.0409,-0.0521 0.0857,-0.100931 0.13047,-0.149637 0.0419,-0.04558 0.084,-0.09119 0.12962,-0.133111 0.0468,-0.04307 0.0982,-0.08096 0.14736,-0.121452 0.13825,-0.09686 0.16719,-0.123704 0.3178,-0.202607 0.23754,-0.124433 0.49279,-0.210874 0.7542,-0.268591 0.0676,-0.01292 0.13501,-0.02783 0.20303,-0.03877 0.11996,-0.01933 0.26179,-0.03529 0.38391,-0.03665 0.0611,-6.89e-4 0.12243,0.0026 0.18349,0.0069 0.0555,0.0038 0.11101,0.0084 0.16588,0.01734 0.055,0.0089 0.10875,0.02414 0.16312,0.03622 0.16031,0.05219 0.18394,0.05557 0.3405,0.12443 0.25806,0.113513 0.49307,0.268363 0.7209,0.433179 0.0664,0.04915 0.13359,0.09735 0.19932,0.147424 0.33115,0.252223 0.64775,0.525066 0.93558,0.826073 0.2223,0.240603 0.44044,0.485986 0.62976,0.753908 0.0465,0.06842 0.0902,0.138581 0.13337,0.209058 0.30983,0.539635 1.07299,0.101476 0.76316,-0.438159 z" />
  <path
     style="fill:#000000;fill-opacity:1;fill-rule:nonzero;stroke:none;stroke-width:0.264583"
     id="path13"
     d="m 165.60853,44.490196 h 1.2108 2.93632 3.86988 2.88434 4.87366 c 1.74066,7.93e-4 3.48129,0.0026 5.22192,-0.0094 1.28723,-0.0099 2.57446,-0.02183 3.86168,-0.03308 0.62223,-0.0055 0.61453,-0.88541 -0.008,-0.879965 v 0 c -1.28666,0.01127 -2.57332,0.0231 -3.85999,0.03307 -1.73862,0.01188 -3.47725,0.01019 -5.21591,0.0093 h -4.87366 -2.88434 -3.86988 -2.93632 -1.2108 c -0.62226,0 -0.62226,0.879999 0,0.879999 z"
     sodipodi:nodetypes="ccccccccssccccccscc" />
  <path
     style="fill:#000000;fill-opacity:1;fill-rule:nonzero;stroke:none;stroke-width:0.264583"
     id="path14"
     d="m 191.40396,40.623948 c 0.22035,0.04097 0.43484,0.104852 0.64334,0.186396 0.27431,0.108448 0.52003,0.269214 0.75299,0.447633 0.21363,0.17227 0.37406,0.392747 0.50485,0.631513 0.17295,0.34631 0.23887,0.726262 0.2851,1.106585 0.0554,0.50795 0.0369,1.019477 0.0233,1.529051 -0.004,0.488894 -0.0765,0.971066 -0.16446,1.450652 -0.0741,0.341866 -0.15859,0.68313 -0.28827,1.008801 -0.0745,0.1872 -0.16704,0.379494 -0.25174,0.561919 -0.23425,0.507955 -0.52105,0.987473 -0.82759,1.454333 -0.19292,0.297256 -0.41772,0.570137 -0.66818,0.820139 -0.12337,0.115737 -0.0624,0.06033 -0.18255,0.166511 -0.46553,0.41289 0.11838,1.071255 0.58391,0.658362 v 0 c 0.14622,-0.130029 0.0722,-0.06232 0.22173,-0.203464 0.29148,-0.293336 0.55569,-0.611164 0.78086,-0.958805 0.32981,-0.503018 0.63797,-1.019943 0.89021,-1.566977 0.10254,-0.221527 0.19214,-0.406609 0.28149,-0.634402 0.14557,-0.371083 0.243,-0.75874 0.32575,-1.147939 0.0958,-0.524143 0.1729,-1.051415 0.17852,-1.585527 0.0148,-0.553701 0.0328,-1.109458 -0.0297,-1.661186 -0.0119,-0.0937 -0.0212,-0.187756 -0.0356,-0.281107 -0.0612,-0.397187 -0.17342,-0.786608 -0.3546,-1.146188 -0.034,-0.0601 -0.0659,-0.121515 -0.10212,-0.180305 -0.16945,-0.274757 -0.38861,-0.517843 -0.63786,-0.72213 -0.30023,-0.227505 -0.61757,-0.431295 -0.97025,-0.568844 -0.24255,-0.09211 -0.48989,-0.172098 -0.74573,-0.218747 -0.60367,-0.150918 -0.8171,0.702805 -0.21343,0.853726 z" />
  <path
     style="fill:#000000;fill-opacity:1;fill-rule:nonzero;stroke:none;stroke-width:0.264583"
     id="path15"
     d="m 183.51005,35.817061 c -0.0407,0.180351 -0.0519,0.365953 -0.062,0.550053 -0.007,0.227772 0.0136,0.455337 0.0739,0.675563 0.0455,0.165928 0.068,0.204364 0.13553,0.365062 0.12012,0.253134 0.27235,0.490744 0.45926,0.699886 0.13371,0.149603 0.17562,0.178271 0.32709,0.311483 0.30491,0.25218 0.65721,0.441826 1.02785,0.578345 0.076,0.02798 0.15358,0.05139 0.23037,0.07708 0.32676,0.0965 0.66568,0.146349 1.00632,0.151329 0.22541,0.0033 0.30745,-0.0084 0.53188,-0.02604 0.45588,-0.04364 0.89313,-0.158327 1.31253,-0.342271 0.0825,-0.0362 0.16269,-0.07763 0.24403,-0.116448 0.0768,-0.04264 0.15588,-0.08126 0.23025,-0.127918 0.23376,-0.146656 0.45146,-0.327282 0.64005,-0.52869 0.17121,-0.182846 0.2033,-0.241629 0.34929,-0.445098 0.25621,-0.40072 0.45334,-0.83752 0.60171,-1.288976 0.0278,-0.08448 0.0516,-0.170188 0.0775,-0.255284 0.0911,-0.31945 0.14684,-0.650965 0.13432,-0.984136 -0.008,-0.208629 -0.0245,-0.25832 -0.062,-0.461497 -0.0219,-0.07384 -0.04,-0.148899 -0.0656,-0.221522 -0.0954,-0.270354 -0.25056,-0.531926 -0.42599,-0.758063 -0.043,-0.0554 -0.0899,-0.107646 -0.13479,-0.16147 -0.24019,-0.270489 -0.5299,-0.490357 -0.84578,-0.665173 -0.064,-0.03544 -0.13004,-0.06715 -0.19506,-0.100732 -0.27497,-0.134792 -0.56571,-0.231214 -0.86508,-0.294384 -0.19576,-0.04131 -0.26856,-0.04752 -0.46613,-0.0743 -0.29512,-0.03368 -0.59245,-0.05255 -0.88957,-0.04265 -0.18612,0.0062 -0.24966,0.01535 -0.43334,0.03329 -0.26427,0.03589 -0.52812,0.08378 -0.78376,0.161073 -0.16492,0.04986 -0.19763,0.0666 -0.35703,0.129651 -0.0583,0.02797 -0.11832,0.05275 -0.17501,0.08392 -0.23117,0.127108 -0.44192,0.294737 -0.62765,0.481359 -0.0444,0.04457 -0.0859,0.09183 -0.12889,0.137744 -0.15967,0.176014 -0.29579,0.371094 -0.41076,0.578824 -0.0675,0.122026 -0.0866,0.167701 -0.14561,0.292844 -0.0853,0.193934 -0.15493,0.394469 -0.20622,0.600067 -0.0322,0.12887 -0.0358,0.16034 -0.0594,0.289718 -0.0462,0.245216 -0.0416,0.494784 -0.0337,0.742889 0.004,0.144079 0.0174,0.287449 0.0385,0.429954 0.0924,0.615352 0.96266,0.484656 0.87024,-0.130697 v 0 c -0.0167,-0.108516 -0.0259,-0.217884 -0.0292,-0.327662 -0.006,-0.186399 -0.0139,-0.374222 0.0202,-0.558686 0.041,-0.232604 0.0998,-0.455753 0.19643,-0.672201 0.10874,-0.233846 0.22813,-0.455655 0.40476,-0.646668 0.0302,-0.03301 0.0595,-0.06698 0.0907,-0.09904 0.0945,-0.09695 0.19723,-0.183623 0.30773,-0.261731 0.0321,-0.0227 0.064,-0.0459 0.0981,-0.06551 0.0376,-0.02164 0.0777,-0.03869 0.11655,-0.05804 0.11826,-0.04799 0.14181,-0.06041 0.26516,-0.09866 0.20717,-0.06424 0.42171,-0.102293 0.63598,-0.133469 0.14686,-0.0149 0.20841,-0.0235 0.35636,-0.02903 0.2548,-0.0095 0.50977,0.0067 0.76293,0.03496 0.0643,0.0084 0.12875,0.01543 0.19282,0.02529 0.2952,0.0454 0.58451,0.12268 0.85365,0.254339 0.0504,0.02556 0.10155,0.04974 0.15124,0.07668 0.22968,0.124569 0.44267,0.27948 0.61848,0.473747 0.0317,0.03691 0.0648,0.07264 0.095,0.110723 0.0631,0.07949 0.11877,0.162436 0.17106,0.24937 0.0524,0.08709 0.0895,0.15593 0.12604,0.250714 0.0164,0.04258 0.0285,0.0867 0.0427,0.130056 0.0261,0.12492 0.0386,0.162388 0.046,0.291359 0.014,0.247944 -0.0295,0.494914 -0.0968,0.7326 -0.0217,0.07256 -0.0418,0.145632 -0.0652,0.21767 -0.12153,0.374197 -0.28206,0.737065 -0.48937,1.071787 -0.101,0.144828 -0.13039,0.197255 -0.24886,0.327038 -0.0883,0.09672 -0.19488,0.193225 -0.29741,0.274463 -0.0502,0.03974 -0.10111,0.07878 -0.15498,0.113337 -0.0587,0.03764 -0.12139,0.06858 -0.18209,0.102878 -0.0642,0.03122 -0.12736,0.06455 -0.19252,0.09366 -0.19777,0.08837 -0.40625,0.16137 -0.61735,0.210606 -0.17229,0.04019 -0.2609,0.04733 -0.43639,0.07029 -0.16691,0.01416 -0.25248,0.0254 -0.41869,0.02416 -0.26078,-0.0019 -0.52066,-0.03603 -0.77155,-0.107717 -0.0606,-0.01979 -0.12173,-0.03785 -0.18171,-0.05936 -0.22024,-0.079 -0.44944,-0.1882 -0.6419,-0.322212 -0.0463,-0.03223 -0.0895,-0.06861 -0.13427,-0.102917 -0.0401,-0.03418 -0.0816,-0.06673 -0.12029,-0.102526 -0.0614,-0.05685 -0.15406,-0.154496 -0.20611,-0.221645 -0.0889,-0.114675 -0.16359,-0.241159 -0.22856,-0.370551 -0.0169,-0.03771 -0.0353,-0.07473 -0.0505,-0.113123 -0.068,-0.171579 -0.0936,-0.348961 -0.0885,-0.533003 0.007,-0.128074 0.0138,-0.256979 0.037,-0.383307 0.15091,-0.603673 -0.70281,-0.817105 -0.85373,-0.213431 z" />
  <path
     style="fill:#000000;fill-opacity:1;fill-rule:nonzero;stroke:none;stroke-width:0.264583"
     id="path16"
     d="m 190.34801,36.138266 c 0.37131,-0.0026 0.74147,0.03307 1.11112,0.0633 1.14762,0.09324 2.29683,0.164457 3.44663,0.224224 1.49328,0.06887 2.98749,0.116345 4.48195,0.149706 1.37792,0.02125 2.75609,0.0074 4.13406,-5.29e-4 1.08438,-0.0064 2.16875,-0.01259 3.25313,-0.01855 0.51726,-0.0028 0.26482,-0.0013 0.75731,-0.0041 0.62224,-0.0033 0.61754,-0.883309 -0.005,-0.879986 v 0 c -0.49258,0.0026 -0.2401,0.0013 -0.75745,0.0041 -1.08445,0.006 -2.1689,0.01217 -3.25336,0.01857 -1.36974,0.0079 -2.73967,0.02167 -4.10936,7.94e-4 -1.48578,-0.03313 -2.97131,-0.08037 -4.45592,-0.148741 -1.14111,-0.05927 -2.28164,-0.129974 -3.42059,-0.22248 -0.39351,-0.03215 -0.78756,-0.06914 -1.18282,-0.06623 -0.62226,0 -0.62226,0.880002 0,0.880002 z" />
  <path
     style="fill:#000000;fill-opacity:1;fill-rule:nonzero;stroke:none;stroke-width:0.264583"
     id="path17"
     d="m 207.2899,32.899184 c 0.002,0.326006 -2.3e-4,0.651795 -0.0118,0.977609 -0.0228,0.566382 -0.0529,1.132408 -0.0823,1.698479 -0.0263,0.531117 -0.0467,1.062501 -0.0652,1.593937 -0.0155,0.435692 -0.0253,0.871556 -0.0339,1.307428 -0.007,0.358746 -0.0123,0.717516 -0.0171,1.076293 -5.3e-4,0.04904 -0.001,0.09808 -0.002,0.147122 -0.008,0.622205 0.87201,0.633397 0.87993,0.01119 v 0 c 5.3e-4,-0.04882 0.001,-0.09764 0.002,-0.146458 0.005,-0.356938 0.0102,-0.713869 0.017,-1.070774 0.009,-0.431466 0.0182,-0.862925 0.0336,-1.294209 0.0183,-0.526455 0.0385,-1.052854 0.0645,-1.578988 0.0296,-0.571035 0.06,-1.142027 0.0829,-1.713381 0.0116,-0.336034 0.0147,-0.672028 0.0123,-1.008253 0,-0.622252 -0.88,-0.622252 -0.88,0 z" />
  <path
     style="fill:#000000;fill-opacity:1;fill-rule:nonzero;stroke:none;stroke-width:0.264583"
     id="path18"
     d="m 207.96024,36.53654 c 0.1429,-0.127656 0.29586,-0.243178 0.44811,-0.35928 0.28069,-0.210468 0.56729,-0.41411 0.86775,-0.595646 0.0722,-0.04364 0.1459,-0.08484 0.21884,-0.127267 0.31598,-0.178787 0.64369,-0.336418 0.97919,-0.475038 0.2211,-0.09136 0.31522,-0.123288 0.54041,-0.205891 0.44576,-0.149315 0.89893,-0.280519 1.3602,-0.372949 0.0785,-0.01574 0.15755,-0.02867 0.23632,-0.04301 0.28805,-0.03635 0.59586,-0.107926 0.88562,-0.04157 0.0377,0.0087 0.0735,0.02426 0.11033,0.03641 0.21347,0.106291 0.39478,0.262757 0.54601,0.446135 0.0357,0.04334 0.068,0.08945 0.10199,0.134178 0.16988,0.238144 0.3196,0.496559 0.40911,0.776679 0.0168,0.05266 0.0278,0.107013 0.0417,0.16052 0.0648,0.271243 0.0751,0.554244 0.0187,0.828212 -0.0102,0.04959 -0.0267,0.09767 -0.0401,0.146503 -0.0604,0.20937 -0.15227,0.408484 -0.27881,0.586274 -0.0773,0.10863 -0.1185,0.148569 -0.20807,0.248113 -0.19741,0.202994 -0.43038,0.364665 -0.68499,0.487521 -0.0541,0.02612 -0.10987,0.04882 -0.16481,0.07323 -0.23136,0.08728 -0.47344,0.145592 -0.7186,0.177499 -0.14397,0.01873 -0.21318,0.01955 -0.35802,0.02712 -0.29276,-0.0021 -0.5863,-0.04275 -0.87085,-0.111572 -0.0537,-0.01299 -0.10662,-0.02882 -0.15993,-0.04323 -0.32522,-0.09109 -0.61968,-0.256453 -0.90696,-0.429604 -0.28149,-0.169278 -0.54068,-0.370822 -0.79583,-0.576684 -0.24753,-0.204009 -0.47853,-0.426741 -0.71141,-0.646996 -0.16918,-0.160676 -0.3375,-0.322326 -0.50359,-0.486209 -0.0606,-0.05844 -0.11909,-0.118975 -0.17812,-0.178969 -0.43644,-0.443537 -1.0637,0.173675 -0.62726,0.617212 v 0 c 0.0621,0.06314 0.12377,0.126756 0.18747,0.18832 0.17054,0.168097 0.34311,0.334168 0.51681,0.498991 0.24969,0.23614 0.49772,0.47454 0.76364,0.692626 0.28666,0.231121 0.5788,0.456118 0.89504,0.646009 0.3584,0.214792 0.72777,0.414909 1.1335,0.5256 0.0678,0.01789 0.13523,0.03746 0.20348,0.05366 0.36041,0.08557 0.73193,0.13339 1.10245,0.129511 0.18963,-0.0109 0.26167,-0.01138 0.45169,-0.03734 0.32082,-0.04382 0.63685,-0.123896 0.93783,-0.243557 0.0718,-0.03264 0.14457,-0.063 0.21524,-0.09791 0.34791,-0.171852 0.66419,-0.399785 0.93166,-0.68141 0.12984,-0.14799 0.18073,-0.197199 0.29287,-0.360781 0.17578,-0.256418 0.30413,-0.541374 0.38835,-0.840234 0.0196,-0.08072 0.0433,-0.160563 0.0589,-0.242158 0.0749,-0.391845 0.0519,-0.796022 -0.0415,-1.182163 -0.0229,-0.08108 -0.0422,-0.16328 -0.0688,-0.24324 -0.11985,-0.360455 -0.31315,-0.693602 -0.53474,-1.000037 -0.0493,-0.06288 -0.0961,-0.12777 -0.14777,-0.18864 -0.20013,-0.235561 -0.44063,-0.448302 -0.71602,-0.591863 -0.0777,-0.04051 -0.15984,-0.07189 -0.23975,-0.107833 -0.0796,-0.0209 -0.15788,-0.04719 -0.23864,-0.06273 -0.3834,-0.07373 -0.77597,-0.0078 -1.15627,0.04878 -0.0885,0.01627 -0.17724,0.03105 -0.26542,0.04885 -0.50059,0.101042 -0.99255,0.243382 -1.47607,0.406699 -0.24668,0.09074 -0.34312,0.123386 -0.58604,0.224115 -0.36779,0.152509 -0.72688,0.326118 -1.07324,0.52256 -0.0814,0.04756 -0.16367,0.09381 -0.24433,0.142698 -0.3228,0.195646 -0.63112,0.414361 -0.93284,0.640816 -0.16225,0.123798 -0.32527,0.247052 -0.47775,0.382923 -0.47803,0.398357 0.0853,1.074391 0.56336,0.676034 z" />
</svg>
