<?xml version="1.0" encoding="UTF-8" standalone="no"?>
<svg
   id="svg1671"
   version="1.1"
   viewBox="0 0 132.45692 55.817814"
   height="55.817814mm"
   width="132.45692mm"
   sodipodi:docname="28 mije li weka ala tan meli. meli li weka ala tan mije..svg"
   inkscape:version="1.3 (0e150ed6c4, 2023-07-21)"
   xmlns:inkscape="http://www.inkscape.org/namespaces/inkscape"
   xmlns:sodipodi="http://sodipodi.sourceforge.net/DTD/sodipodi-0.dtd"
   xmlns="http://www.w3.org/2000/svg"
   xmlns:svg="http://www.w3.org/2000/svg"
   xmlns:rdf="http://www.w3.org/1999/02/22-rdf-syntax-ns#"
   xmlns:cc="http://creativecommons.org/ns#"
   xmlns:dc="http://purl.org/dc/elements/1.1/">
  <sodipodi:namedview
     id="namedview1"
     pagecolor="#ffffff"
     bordercolor="#000000"
     borderopacity="0.25"
     inkscape:showpageshadow="2"
     inkscape:pageopacity="0.0"
     inkscape:pagecheckerboard="0"
     inkscape:deskcolor="#d1d1d1"
     inkscape:document-units="mm"
     inkscape:zoom="1.4027172"
     inkscape:cx="269.83343"
     inkscape:cy="84.478895"
     inkscape:window-width="1920"
     inkscape:window-height="1051"
     inkscape:window-x="-9"
     inkscape:window-y="-9"
     inkscape:window-maximized="1"
     inkscape:current-layer="svg1671" />
  <defs
     id="defs1665" />
  <metadata
     id="metadata1668">
    <rdf:RDF>
      <cc:Work
         rdf:about="">
        <dc:format>image/svg+xml</dc:format>
        <dc:type
           rdf:resource="http://purl.org/dc/dcmitype/StillImage" />
        <dc:title />
      </cc:Work>
    </rdf:RDF>
  </metadata>
  <g
     transform="translate(-123.4355,-95.627961)"
     id="layer1">
    <g
       transform="matrix(0.26458333,0,0,0.26458333,156.79632,89.396099)"
       id="g2242">
      <path
         style="opacity:0.2"
         d="m 5.5,231.2 c 16,10.8 26.2,-7.9 40.9,-11.6 17.3,-4.4 37.7,-9.6 29.3,-19.3 -8.4,-9.7 -25.5,-12.8 -36.1,0 -8.2,9.9 -51.6,19 -34.1,30.9 z"
         id="path2216" />
      <path
         style="fill:#262626"
         d="m 26.3,214.2 c -0.1,2.9 -1.7,4.1 -2.8,6.4 -1.1,2 -1.9,7.5 -6.2,9.2 -3.9,1.5 -8.2,0.9 -9.5,0 -1.3,-0.9 -1.6,-3.3 -0.6,-5.2 1,-1.9 3.3,-4 4.4,-8.1 1.1,-4.1 2.6,-6.1 2.6,-6.1 z"
         id="path2218" />
      <path
         style="fill:#ffffff"
         d="m 25,213.7 c 0,0 -1,0.8 -2.4,3.9 -1.5,3.1 -2.3,7.6 -5.4,8.9 -3.8,1.6 -8.2,1.2 -9.4,0.3 -1.2,-0.9 0.3,-3.1 2.4,-5.5 2.1,-2.4 1.9,-9.2 1.9,-9.2 z"
         id="path2220" />
      <path
         style="fill:#262626"
         d="m 50.2,196.5 c 0,1.4 0.6,2.2 2.7,3.8 2.1,1.6 3.1,4.3 5.7,6.4 3.8,3 7.8,3.3 11.5,2.1 1.9,-0.6 2.1,-1.3 2.4,-2 0.3,-0.7 0.4,-3.1 -0.1,-3.7 -1.4,-1.5 -5.7,-3.3 -6.4,-4.7 -0.7,-1.4 -2,-5.1 -2,-5.1 l -13.8,-0.6 z"
         id="path2222" />
      <path
         style="fill:#ffffff"
         d="m 50.4,194.6 c 0.7,0.6 3.4,2.5 4.7,4 1.2,1.4 5.7,6.7 9.1,7.3 3.5,0.5 6.8,-0.3 7.6,-1.3 0.8,-1 0,-1.6 -1,-2.3 -1,-0.7 -4.3,-2.5 -5,-3.6 -0.7,-1.2 -1.5,-5 -1.5,-5 z"
         id="path2224" />
      <path
         style="fill:#06547a"
         d="m 64.4,110.5 c 2.8,3.7 4.3,7.4 4.5,15.7 0.2,8.3 0.3,26 -0.6,29.4 -1,4.1 -3.9,19.4 -3.7,23.6 0.2,4.2 0.5,6.7 -0.2,8 -0.7,1.3 -0.8,1.6 0.3,2.8 1.1,1.3 1.3,3.3 1.1,4.7 -0.2,1.4 1,1.5 -1,1.4 -2,-0.1 -3.6,0.4 -6.5,1.2 -2.9,0.8 -7.9,-0.2 -8.2,-0.2 -0.3,0 0.1,-1.7 -0.4,-2.7 -0.5,-1.1 -0.9,-2.3 -0.9,-4.9 0,-2.6 -1.1,-17.3 -1.1,-23 0,-5.7 1.4,-11.8 1.7,-15.3 0.3,-4.3 -0.7,-12 -1.1,-13.6 -0.4,-1.6 -4,-22.4 -4,-22.4 z"
         id="path2226" />
      <path
         style="opacity:0.2"
         d="m 64.4,110.5 c 2.8,3.7 4.3,7.4 4.5,15.7 0.2,8.3 0.3,26 -0.6,29.4 -1,4.1 -3.9,19.4 -3.7,23.6 0.2,4.2 0.5,6.7 -0.2,8 -0.7,1.3 -0.8,1.6 0.3,2.8 1.1,1.3 1.3,3.3 1.1,4.7 -0.2,1.4 1,1.5 -1,1.4 -2,-0.1 -3.6,0.4 -6.5,1.2 -2.9,0.8 -7.9,-0.2 -8.2,-0.2 -0.3,0 0.1,-1.7 -0.4,-2.7 -0.5,-1.1 -0.9,-2.3 -0.9,-4.9 0,-2.6 -1.1,-17.3 -1.1,-23 0,-5.7 1.4,-11.8 1.7,-15.3 0.3,-4.3 -0.7,-12 -1.1,-13.6 -0.4,-1.6 -4,-22.4 -4,-22.4 z"
         id="path2228" />
      <path
         style="fill:#06547a"
         d="m 53.8,121.7 c 0,0 1.7,10.5 1,12.6 -0.7,2.2 -4.7,6.6 -6,10 -1.3,3.4 -2,9.6 -4.3,14.7 -2.3,5.1 -8.2,17.4 -9.2,21.7 -1,4.3 -1.8,9.4 -3.4,11 -1.7,1.7 -1.5,3.4 -2.2,6.9 -0.7,3.5 -2.5,7.5 -2.4,10.7 0.1,3.1 -0.8,3.3 -0.7,4.3 0.1,1 1.3,2.2 -0.4,2.7 -1.7,0.5 -6.1,0 -9.5,-0.6 -3.4,-0.6 -5.4,-0.1 -5.4,-0.1 0,0 -0.9,-4 -0.2,-5.7 1,-2.4 3.2,-3.6 3,-5.1 -0.2,-1.5 -1.8,-5.1 -0.3,-7.7 1.5,-2.6 2.2,-5.2 2.2,-9.7 0.1,-4.5 2.6,-10.7 3.8,-14.6 1.2,-3.9 5.2,-21.1 5.2,-26.2 0,-5.1 0.5,-13.8 1.5,-17.6 1.2,-4.7 0.5,-12.2 1.3,-14.3 0.9,-2.1 26,7 26,7 z"
         id="path2230" />
      <path
         style="fill:#fbd7c7"
         d="m 35.8,42.2 c 0.3,2.8 0.5,5.2 -0.5,7.1 -1.7,3.2 -4.3,5 -5.4,5.5 -1.1,0.5 3.2,10.6 10,11.6 6.8,1 23.7,4 24.8,4.7 1,0.7 5.2,5.1 5.2,5.1 0,0 -4.9,6.9 -6.3,9.3 -2.3,4 -6.3,11.5 -6.3,11.5 0,0 1.9,4.4 3.9,3.8 2,-0.6 2,-5.1 2.5,-6.1 0.5,-1 14.5,-15.9 15.4,-17.5 0.9,-1.6 1.5,-3.8 -0.7,-6 -2.2,-2.2 -7.5,-9 -9,-10.6 -1,-1 -3.3,-3.5 -5.9,-5.4 -2.6,-1.9 -12.3,-5 -12.3,-5 l -1.6,-7.1 z"
         id="path2232" />
      <path
         style="fill:#e5e5e5"
         d="m 30.8,54.3 c 0,0 7.7,9.3 16.1,7 C 55.3,59 52,50.9 52,50.9 c 0,0 6,-1 10.7,2.5 4.5,3.4 5.3,4.6 5.7,5.8 -0.3,0.8 -3.2,4.8 -3.2,4.8 0,0 0.7,4.4 0.1,8.3 -0.6,3.9 -3.6,13.4 -3.2,19 0.4,5.6 1.6,12.5 2.5,15.2 0.9,2.6 1.9,6.8 1.9,6.8 0,0 -3,6.7 -12.5,8.4 -9.5,1.7 -18.8,1.9 -22.8,-1 -4.5,-3.3 -4.2,-4.8 -3.4,-6.3 0.8,-1.5 3.8,-7.2 3.5,-11 -0.3,-3.8 -8,-26.8 -8,-26.8 l -8.5,-8.8 c 0,0 1.5,-6.4 5.7,-8.5 4.2,-2.1 10.3,-5 10.3,-5 z"
         id="path2234" />
      <path
         style="fill:#fbd7c7"
         d="m 15,67.7 c 0,0 1.4,0.3 3.3,1.2 1.9,0.9 6.9,4.2 7.8,5 1,0.8 0.5,1.2 -0.8,2.3 -1.2,1.1 -13.6,15 -13.6,15 0,0 5.3,3.9 7,5.7 1.7,1.8 6,4.3 7.4,4.1 1.4,-0.2 5.1,-2.8 7.3,-1.2 2.2,1.6 4.9,5.8 2,7.2 -2.9,1.4 -8.3,2.6 -10.6,1.8 C 22.5,108 5.3,99.3 3,97.4 0.3,95.3 -1.1,91.5 1.2,88.2 3.5,84.9 15,67.7 15,67.7 Z"
         id="path2236" />
      <path
         style="fill:#fbd7c7"
         d="m 33,39 c 0,0 -1.6,0.7 0.2,3.6 1.8,2.8 2.9,3.4 3.7,3.3 0.8,-0.1 1,-0.4 1,-0.4 0,0 0.9,3.5 3.8,5.2 2.8,1.7 8.7,3.8 11.4,2.8 2.7,-1 2.7,-14.2 2,-16.9 C 54.4,33.9 52.3,24.6 43.3,23.9 34.3,23.2 28.6,30.2 33,39 Z"
         id="path2238" />
      <path
         style="fill:#825012"
         d="m 42.9,23.6 c -9,-0.7 -14.3,6.6 -9.9,15.3 0,0 1.3,-0.6 3,0.6 1.6,1.2 2.2,2.6 2.2,2.6 l 1.1,-0.8 c 0,0 -0.2,-6.7 3.6,-8.6 2.4,-1.2 5.5,0.6 7.6,-0.4 1.1,-0.5 2,-1.7 2.3,-2.7 -2.2,-3.7 -6,-5.6 -9.9,-6 z"
         id="path2240" />
    </g>
    <g
       transform="matrix(0.26458333,0,0,0.26458333,118.91113,86.260754)"
       id="g2323">
      <path
         style="opacity:0.2"
         d="m 42.8,237.8 c 5.5,-0.2 6.9,-2.6 8.2,-7.3 1.4,-4.7 -0.4,-5.7 2.9,-8.1 3.3,-2.4 5.9,-4.8 5,-8.4 -1.7,-6.9 -9,-15.1 -15.9,-15.1 -6.9,0 -19.8,10.2 -20.2,11.2 -0.4,1 -3.4,2.3 -0.4,6.4 4.8,6.5 8.4,21.6 20.4,21.3 z"
         id="path2265" />
      <path
         style="fill:#ffffff"
         d="m 27.8,204.8 c 0,0 -2.4,2.3 -4.3,3.7 -1.9,1.4 -2,4.1 -1.9,5 0.1,0.9 2.1,3.3 5.5,2.7 3.4,-0.6 6,-4.3 8.3,-6.4 2.3,-2.2 2.3,-2 4,-2.3 1.7,-0.3 0,-4.2 -2.3,-4.3 -2.3,-0.1 -6.8,-2.3 -6.8,-2.3 0,0 -1.5,2.8 -2.5,3.9 z"
         id="path2267" />
      <path
         style="fill:#ffffff"
         d="m 27.8,204.8 c 0,0 -2.4,2.3 -4.3,3.7 -1.9,1.4 -2,4.1 -1.9,5 0.1,0.9 2.1,3.3 5.5,2.7 3.4,-0.6 6,-4.3 8.3,-6.4 2.3,-2.2 2.3,-2 4,-2.3 1.7,-0.3 0,-4.2 -2.3,-4.3 -2.3,-0.1 -6.8,-2.3 -6.8,-2.3 0,0 -1.5,2.8 -2.5,3.9 z"
         id="path2269" />
      <path
         style="fill:#262626"
         d="m 35.4,209.9 c 2.3,-2.2 2.3,-2 4,-2.3 0.2,0 0.4,-0.1 0.5,-0.3 L 33.3,206 c 0,0 0.3,2.6 -1.8,4.9 -2,2.3 -3.2,3.6 -5.7,3.6 -1.8,0 -3.1,-0.4 -4.1,-1.6 0,0.3 0,0.5 0,0.7 0.1,1 2.1,3.3 5.5,2.7 3.4,-0.6 5.9,-4.2 8.2,-6.4 z"
         id="path2271" />
      <path
         style="fill:#cc291f"
         d="m 25.4,119.9 c 0,0 -3.4,9.4 -3.1,20.4 0.3,11.5 1.6,18.7 2.4,21.7 1.1,4.5 3.4,5.9 3.9,15.7 0.5,9.8 0.6,19.8 -0.2,22.7 -0.8,2.9 -2.7,4 -2.4,4.7 0.3,0.7 3.8,-0.4 5.5,1.2 1.7,1.6 4.5,2.7 5.9,2.7 1.4,0.1 2,0 2,0 l -3.7,-78.2 z"
         id="path2273" />
      <path
         style="opacity:0.2"
         d="m 25.4,119.9 c 0,0 -3.4,9.4 -3.1,20.4 0.3,11.5 1.6,18.7 2.4,21.7 1.1,4.5 3.4,5.9 3.9,15.7 0.5,9.8 0.6,19.8 -0.2,22.7 -0.8,2.9 -2.7,4 -2.4,4.7 0.3,0.7 3.8,-0.4 5.5,1.2 1.7,1.6 4.5,2.7 5.9,2.7 1.4,0.1 2,0 2,0 l -3.7,-78.2 z"
         id="path2275" />
      <path
         style="fill:#ffffff"
         d="m 41.7,225.9 c 0,0 -1.7,4.5 -1.7,5.4 0,0.9 -0.2,3.9 0.4,4.6 0.5,0.6 3.2,1.5 5.3,1.2 2.2,-0.3 4.3,-2.4 4.5,-3.2 0.2,-0.9 -0.1,-6.3 -0.2,-7.1 -0.1,-0.8 -0.5,-2.6 -0.5,-2.6 z"
         id="path2277" />
      <path
         style="fill:#262626"
         d="m 49.6,224.1 -1.4,0.3 c 0.4,1.9 0.9,6.3 0.3,8.1 -0.8,2.1 -3,2.7 -4.9,2.7 -1.1,0 -3,-0.6 -3.5,-2 0,1.1 0.1,2.3 0.4,2.7 0.5,0.6 3.2,1.5 5.3,1.2 2.2,-0.3 4.3,-2.4 4.5,-3.2 0.2,-0.9 -0.1,-6.3 -0.2,-7.1 -0.1,-0.8 -0.5,-2.7 -0.5,-2.7 z"
         id="path2279" />
      <path
         style="fill:#cc291f"
         d="m 33.8,131.7 c 0,0 -3,7.1 -3.5,17.3 -0.5,10.2 0.7,17 0.9,19.3 0.1,2.3 0.5,9.4 1.8,12.1 1.3,2.7 3.7,7.9 4.6,14.4 0.9,6.5 1.3,18.4 1.4,21.4 0.1,4 -0.5,7.3 0.2,9.2 0.7,1.9 3,-0.4 5.5,0.3 2.5,0.6 6.4,1.4 7.1,1 0.7,-0.4 -0.5,-7.5 -0.4,-11.6 0.1,-4.1 -0.2,-19.8 -1.1,-26.4 -0.8,-6.6 -5.6,-12.8 -4.8,-19.5 0.8,-6.7 5.4,-20.8 6.5,-25 1.1,-4.1 1.4,-10.2 0.8,-15.7 -0.5,-5.6 -19,3.2 -19,3.2 z"
         id="path2281" />
      <path
         style="fill:#fbd7c7"
         d="m 25.4,114.8 c 0,0 -4.3,3.1 -5.9,5.1 -1.6,2 -2.4,2.9 -2.4,4.7 0,1.8 0.8,2.9 1.6,2.7 0.8,-0.2 0,-2.7 0,-2.7 l 0.8,-1.6 c 0,0 -0.8,1.4 -0.4,2 0.4,0.5 2.2,2.4 2.7,2 0.6,-0.4 0.4,-1.2 0.4,-1.2 0,0 -1.5,-1 -1.2,-1.6 0.3,-0.6 0.8,-0.8 0.8,-0.8 0,0 -0.3,1.8 0,2.4 0.3,0.5 1.6,0.4 1.6,0.4 l 2.4,-5.5 z"
         id="path2283" />
      <path
         style="fill:#ffcc00"
         d="m 44.8,71.7 c -4.6,-0.9 -13.3,-1.6 -16.5,2.4 -3.2,4 -2.4,5.1 -2.4,7.1 0,2 -1.5,5.3 -2.4,7.5 -0.9,2.2 -2.3,5.9 -0.8,8.2 1.5,2.4 4.3,3.5 4.3,3.5 0,0 -0.8,9.3 -1.7,12.9 -0.9,3.5 -2,9.8 -2.4,11.8 -0.4,2 1.6,7.9 5.5,9.4 3.9,1.6 12.8,2.3 18.1,-1.6 5.3,-3.9 6.3,-6.3 6.3,-6.3 0,0 -1.9,-7.7 -1.6,-10.6 0.3,-2.9 5.2,-17.6 5.2,-17.6 L 60,86.6 61.2,85.8 c 0,0 0.3,-2.6 -1.2,-5.1 -1.5,-2.6 -4,-5.2 -7.5,-6.3 -3.5,-1.1 -3.7,-1.9 -7.7,-2.7 z"
         id="path2285" />
      <path
         style="fill:#fbd7c7"
         d="m 34.2,73.6 c 0,0 -6.9,5.5 -2.4,10.2 4.5,4.7 13.3,-4.2 14.9,-7.9 1.7,-3.5 -7.1,-7.6 -12.5,-2.3 z"
         id="path2287" />
      <path
         style="opacity:0.2;fill:#262626"
         d="m 22.3,93.3 c 0,0 -0.1,4.3 11,6.5 16.5,3.3 19.8,-2.9 19.8,-2.9 0,0 -3.1,8.6 -19.2,5.5 -14,-2.7 -11.6,-9.1 -11.6,-9.1 z"
         id="path2289" />
      <path
         style="fill:#825012"
         d="m 42.9,45.5 c -8.1,-0.5 -12,3 -13.5,8.6 -1.5,5.4 4,15.3 -1.8,17.9 0.1,2.2 5.1,4.5 7.3,2.1 2.2,-2.3 2.9,-2.4 2.9,-2.4 z"
         id="path2291" />
      <path
         style="fill:#fbd7c7"
         d="m 32.3,55.6 c -1.5,3.1 -1.9,15.6 0.6,17.6 2.5,2 7.6,-1.3 12.5,-3.5 4.9,-2.2 5.5,-19 -1.9,-19.2 -7.4,-0.2 -9.6,1.8 -11.2,5.1 z"
         id="path2293" />
      <path
         style="fill:#825012"
         d="m 41.4,45.7 c -3.3,0.8 -7.1,5.2 -6.4,10 1,6.2 13.2,18.3 4.6,22.2 1.4,4.6 9.5,4.3 14,2 4.3,-2.3 4.7,-4.5 4.6,-5.3 -0.1,-0.8 -3.8,-4.9 -3.8,-10.9 -0.1,-6.1 -0.4,-21.1 -13,-18 z"
         id="path2295" />
      <path
         style="fill:#fbd7c7"
         d="m 50.6,88.9 c 0,0 2.8,0 4.8,-0.3 2,-0.3 4.7,-2 4.7,-2 0,0 0.2,4.6 0.8,7.3 0.6,2.7 1.6,10.4 2,11.5 0.4,1.1 1.9,2 0,5.9 -1.9,3.9 -9.7,15.9 -11.1,19.1 -1.4,3.2 -1.3,6.2 -2,7.1 -0.7,0.9 -2.5,1.7 -2.7,1.6 -0.3,-0.1 -0.7,-0.1 -0.7,-0.1 0,0 -0.4,0.4 -1.1,0.4 -0.7,0 -0.9,-0.4 -0.9,-0.4 0,0 -0.5,0.8 -1.6,0.7 -1.1,-0.1 -1,-0.8 -1,-0.8 0,0 -1.6,0.8 -2.4,0.6 -0.8,-0.2 -1.2,-1 -0.7,-1.3 0.5,-0.3 1.6,-0.2 2.4,-0.9 0.8,-0.7 2.1,-2.8 2.1,-2.8 0,0 -0.3,-0.2 -0.2,-1.4 0,-1.2 -0.1,-3.1 1,-3.7 1.2,-0.6 2.6,-0.6 3.4,-1.6 2.5,-3 3.2,-8.2 5.4,-12.7 2.1,-4.5 3.6,-6.2 3.6,-6.6 0,-0.4 -2.8,-6.7 -3.8,-10.2 -1.1,-3.8 -2,-9.4 -2,-9.4 z"
         id="path2297" />
    </g>
  </g>
  <g
     id="g50"
     transform="rotate(-32.379252,113.67795,25.54344)">
    <path
       style="fill:#000000;fill-opacity:1;fill-rule:nonzero;stroke:none;stroke-width:0.264583"
       id="path1"
       d="m 101.2427,-1.427295 c -0.162,0.282982 -0.0822,0.152776 -0.39202,0.59171102 -0.56702,0.803244 -0.67677,0.926934 -1.271218,1.80648605 -0.6874,1.01708303 -0.810373,1.23645403 -1.453843,2.27120303 -0.20551,0.3471 -0.41103,0.694199 -0.61654,1.041299 -0.31698,0.535466 0.44028,0.983743 0.75726,0.448277 v 0 c 0.20221,-0.341649 0.40441,-0.683298 0.60662,-1.024947 0.630513,-1.014404 0.755223,-1.236326 1.428981,-2.233423 0.2322,-0.343633 0.47164,-0.68233203 0.7103,-1.02150703 0.21973,-0.31226805 0.68855,-0.94776505 0.92161,-1.31548205 0.0479,-0.07551 0.0839,-0.15786202 0.12591,-0.23679302 0.23111,-0.577749 -0.58595,-0.9045719 -0.81706,-0.326824 z" />
    <path
       style="fill:#000000;fill-opacity:1;fill-rule:nonzero;stroke:none;stroke-width:0.264583"
       id="path2"
       d="m 99.880582,1.6773751 c -0.003,-0.177958 -0.0186,-0.354784 -0.0399,-0.531399 -0.0386,-0.36303503 -0.12621,-0.71703003 -0.22896,-1.06646508 -0.14554,-0.466854 -0.34832,-0.912616 -0.56408,-1.35046402 -0.232743,-0.4699509 -0.538093,-0.8973269 -0.866043,-1.3045509 -0.24845,-0.291144 -0.52923,-0.562312 -0.86289,-0.754987 -0.0722,-0.0417 -0.1484,-0.07607 -0.2226,-0.114113 -0.31831,-0.133546 -0.65853,-0.213688 -1.00399,-0.227756 -0.22754,-0.0093 -0.30926,0.0055 -0.53475,0.0258 -0.3511,0.04947 -0.70102,0.134794 -1.02534,0.281151 -0.19416,0.08762 -0.30487,0.159001 -0.48579,0.265512 -0.34441,0.218452 -0.6636,0.48341 -0.9146,0.807078 -0.048,0.06188 -0.0903,0.127976 -0.13544,0.191964 -0.19185,0.313975 -0.31082,0.6700919 -0.33318,1.0383779 -0.004,0.06989 -0.001,0.14002902 -0.002,0.21004302 0.0116,0.276975 0.0744,0.546271 0.19011,0.798273 0.0703,0.153018 0.11067,0.208802 0.19868,0.35149605 0.14588,0.220822 0.31746,0.423829 0.5164,0.598717 0.11985,0.10535703 0.19094,0.15378403 0.31839,0.24792003 0.21712,0.151927 0.44302,0.291986 0.6829,0.405285 0.15274,0.07214 0.22484,0.09745 0.381,0.158714 0.35224,0.13131 0.71332,0.234854 1.07643,0.33089 0.34123,0.09291 0.68851,0.158961 1.03771,0.213106 0.37488,0.06028 0.75342,0.0709 1.1322,0.06826 0.38205,-0.0038 0.763183,-0.02725 1.144093,-0.05497 0.62061,-0.04519 0.55671,-0.922865 -0.0639,-0.877676 v 0 c -0.36179,0.02635 -0.723743,0.04905 -1.086623,0.05267 -0.33165,0.0025 -0.66303,-0.0049 -0.99133,-0.05796 -0.3188,-0.04911 -0.63578,-0.109289 -0.94722,-0.1942 -0.3309,-0.08746 -0.66008,-0.181032 -0.98137,-0.29988103 -0.31003,-0.120285 -0.59329,-0.255177 -0.86282,-0.453379 -0.24209,-0.17671405 -0.44597,-0.34767905 -0.60966,-0.60395405 -0.1397,-0.219142 -0.24128,-0.417878 -0.25499,-0.683448 -0.002,-0.0963 -0.006,-0.14920302 0.007,-0.24463802 0.0246,-0.176255 0.0832,-0.348571 0.17171,-0.502622 0.0279,-0.04153 0.0536,-0.08468 0.0838,-0.1245919 0.18796,-0.248492 0.43026,-0.450872 0.69121,-0.6183 0.11234,-0.06702 0.2437,-0.149407 0.36295,-0.205133 0.24688,-0.115369 0.51525,-0.181542 0.78345,-0.222697 0.15229,-0.01567 0.22643,-0.02829 0.37837,-0.02482 0.23395,0.0054 0.46567,0.05576 0.68403,0.138306 0.0455,0.02163 0.0925,0.04033 0.13642,0.06489 0.25547,0.142682 0.46788,0.349333 0.65705,0.569507 0.28829,0.3559579 0.55679,0.7299579 0.76159,1.14116192 0.19406,0.392572 0.37692,0.792103 0.50927,1.21034205 0.0899,0.302485 0.166273,0.608992 0.199363,0.92358203 0.0202,0.163705 0.0319,0.327534 0.036,0.492447 0.0477,0.62042 0.92513,0.552928 0.87741,-0.06749 z" />
    <path
       style="fill:#000000;fill-opacity:1;fill-rule:nonzero;stroke:none;stroke-width:0.264583"
       id="path3"
       d="m 99.483572,2.0274171 c 0.12746,0.06945 0.26331,0.122128 0.39626,0.17998 0.195908,0.07694 0.384548,0.169331 0.571928,0.264742 0.33719,0.182716 0.66154,0.388165 0.98703,0.590701 0.58047,0.367387 1.16334,0.730895 1.74702,1.09315 0.86723,0.536415 1.73408,1.073308 2.60691,1.600589 1.00779,0.595186 2.00207,1.212581 2.99861,1.82626 0.82742,0.509861 1.65065,1.026532 2.46733,1.553431 0.53,0.3515246 1.0702,0.6869486 1.61156,1.0205429 0.40783,0.247947 0.81415,0.498178 1.21572,0.756135 0.42733,0.269273 0.83459,0.568345 1.24339,0.864489 0.37921,0.276457 0.75452,0.558209 1.12878,0.841306 0.49627,0.375382 1.02714,-0.326456 0.53087,-0.701838 v 0 c -0.37911,-0.286748 -0.75927,-0.57213 -1.1434,-0.852129 -0.42211,-0.305769 -0.84287,-0.614182 -1.28406,-0.892253 -0.40621,-0.2608823 -0.8171,-0.5141453 -1.22964,-0.7648933 -0.5362,-0.3304086 -1.07126,-0.6625896 -1.59617,-1.0108306 -0.82188,-0.53019 -1.65027,-1.050223 -2.48295,-1.563279 -0.99867,-0.614987 -1.99508,-1.233691 -3.00502,-1.830169 -0.86981,-0.525445 -1.73364,-1.060516 -2.59788,-1.595061 -0.58339,-0.362078 -1.16596,-0.725429 -1.74616,-1.092619 -0.34685,-0.21581 -0.69257,-0.434651 -1.05275,-0.627783 -0.20322,-0.103404 -0.40795,-0.203475 -0.62013,-0.287464 -0.10897,-0.04738 -0.22082,-0.09002 -0.325858,-0.145555 -0.54627,-0.29796803 -0.96766,0.47458 -0.42139,0.772548 z" />
    <path
       style="fill:#000000;fill-opacity:1;fill-rule:nonzero;stroke:none;stroke-width:0.264583"
       id="path10"
       d="m 120.2214,6.5403521 c 0.26208,0.181246 0.53555,0.346118 0.80572,0.515003 0.77217,0.484171 1.54487,0.967461 2.31388,1.456643 1.05412,0.668149 2.0818,1.3766846 3.10725,2.0876779 0.75718,0.527692 1.51327,1.05692 2.263,1.595157 0.47272,0.344448 0.95145,0.68047 1.43112,1.015145 0.31953,0.222922 0.63893,0.446032 0.95866,0.668669 0.17175,0.121605 0.0868,0.0616 0.25472,0.180037 0.50846,0.358714 1.01576,-0.360346 0.5073,-0.719061 v 0 c -0.16859,-0.11894 -0.0822,-0.0579 -0.25915,-0.183145 -0.31951,-0.222479 -0.63869,-0.445427 -0.95799,-0.668195 -0.47643,-0.332416 -0.95194,-0.666167 -1.42147,-1.008317 -0.75365,-0.541021 -1.51363,-1.073051 -2.27478,-1.6034683 -1.03502,-0.7176216 -2.07238,-1.4326346 -3.13634,-2.1070076 -0.77097,-0.490412 -1.54562,-0.97495 -2.31975,-1.460342 -0.24263,-0.151659 -0.48683,-0.301422 -0.72539,-0.459385 -0.001,-8.2e-4 0.002,0.0023 0.003,0.0034 -0.4859,-0.388719 -1.03563,0.298446 -0.54973,0.687165 z" />
    <path
       style="fill:#000000;fill-opacity:1;fill-rule:nonzero;stroke:none;stroke-width:0.264583"
       id="path11"
       d="m 128.16412,14.503138 c 0.0913,-0.0033 0.1827,-0.0049 0.27403,-0.0073 0.30555,-0.0076 0.61114,-0.01296 0.91671,-0.01951 0.3468,-0.0072 0.69364,-0.01232 1.04049,-0.0169 0.26904,-0.0034 0.53809,-0.0063 0.80715,-0.009 0.16634,-0.0017 0.3327,-0.0032 0.49905,-0.0046 0.0592,-4.77e-4 0.11835,-9e-4 0.17752,-0.0014 0.62224,-0.0045 0.61585,-0.884496 -0.006,-0.879977 v 0 c -0.0595,4.24e-4 -0.11893,8.73e-4 -0.1784,0.0014 -0.16691,0.0014 -0.33381,0.0029 -0.50072,0.0046 -0.26995,0.0027 -0.5399,0.0056 -0.80984,0.009 -0.34925,0.0046 -0.6985,0.0097 -1.0477,0.01702 -0.30696,0.0066 -0.61393,0.01197 -0.92086,0.01961 -0.12515,0.0033 -0.25094,0.0021 -0.3755,0.01583 -0.616,0.088 -0.49155,0.959156 0.12445,0.871156 z" />
    <path
       style="fill:#000000;fill-opacity:1;fill-rule:nonzero;stroke:none;stroke-width:0.264583"
       id="path12"
       d="m 132.46538,13.806772 c -0.004,-0.03623 -0.008,-0.07257 -0.0135,-0.108683 -10e-4,-0.0088 -0.004,-0.01719 -0.006,-0.02579 -0.01,-0.04074 -0.007,-0.03118 -0.022,-0.08562 -0.0146,-0.05333 -0.032,-0.113043 -0.0472,-0.165622 -0.0807,-0.29392 -0.16429,-0.587024 -0.24843,-0.879979 -0.0958,-0.332027 -0.19435,-0.663242 -0.29329,-0.994342 -0.0736,-0.247519 -0.14739,-0.494977 -0.21953,-0.742926 -0.04,-0.134758 -0.0792,-0.269776 -0.11844,-0.404752 -0.17388,-0.5974673 -1.01883,-0.351566 -0.84495,0.2459 v 0 c 0.0393,0.134959 0.0784,0.269962 0.11843,0.404702 0.0727,0.249981 0.14712,0.499475 0.22133,0.749022 0.098,0.328091 0.19572,0.656296 0.29064,0.985304 0.0842,0.293266 0.16783,0.586697 0.24869,0.880912 0.0178,0.06185 0.0366,0.123618 0.0526,0.185987 0.003,0.01066 0.005,0.02141 0.008,0.0321 10e-4,0.0039 0.003,0.01582 0.003,0.01178 -0.002,-0.02939 -0.006,-0.05866 -0.009,-0.08799 0,0.622254 0.88,0.622254 0.88,0 z" />
    <path
       style="fill:#000000;fill-opacity:1;fill-rule:nonzero;stroke:none;stroke-width:0.264583"
       id="path13"
       d="m 131.53642,14.079227 c 0.0158,0.08532 0.0367,0.169434 0.0598,0.25305 0.0401,0.143119 0.0901,0.283306 0.1411,0.422861 0.0559,0.163782 0.12592,0.322033 0.19467,0.480668 0.0921,0.203392 0.19779,0.400028 0.31052,0.592624 0.12798,0.218679 0.26862,0.429401 0.41021,0.63939 0.14551,0.213776 0.29795,0.422702 0.45689,0.62666 0.15673,0.203281 0.32963,0.392642 0.51429,0.570643 0.21353,0.200973 0.46668,0.349998 0.72771,0.479839 0.29919,0.140236 0.62177,0.213114 0.94632,0.264536 0.24177,0.03301 0.48701,0.03904 0.72965,0.01166 0.14843,-0.01675 0.21056,-0.03237 0.35539,-0.06146 0.26745,-0.06706 0.5345,-0.155089 0.778,-0.286804 0.052,-0.0281 0.1016,-0.06028 0.15239,-0.09042 0.17847,-0.117726 0.34404,-0.254878 0.48539,-0.415731 0.0905,-0.103042 0.10754,-0.133865 0.18579,-0.245683 0.20151,-0.311977 0.24761,-0.653368 0.27387,-1.014861 0.0225,-0.308139 -0.007,-0.614664 -0.0618,-0.91761 -0.0534,-0.283805 -0.14503,-0.546554 -0.26672,-0.807484 -0.0875,-0.172376 -0.19542,-0.333353 -0.32163,-0.479811 -0.0801,-0.09294 -0.11816,-0.12762 -0.20436,-0.213409 -0.16958,-0.160798 -0.34947,-0.313279 -0.55333,-0.42931 -0.0445,-0.02531 -0.0906,-0.04745 -0.13598,-0.07118 -0.24597,-0.123418 -0.50624,-0.212934 -0.77066,-0.286986 -0.32302,-0.08873 -0.65683,-0.119615 -0.98983,-0.141696 -0.35596,-0.0233 -0.7124,-0.0051 -1.06785,0.01677 -0.2963,0.01817 -0.59132,0.05025 -0.88591,0.08606 -0.22306,0.03036 -0.44486,0.06894 -0.66776,0.100412 -0.14521,0.02298 -0.29031,0.04667 -0.43572,0.06836 -0.61544,0.09185 -0.48554,0.962212 0.1299,0.87036 v 0 c 0.14318,-0.02139 0.2861,-0.04445 0.42905,-0.06739 0.21721,-0.03076 0.43346,-0.06774 0.65072,-0.09817 0.27732,-0.03372 0.55502,-0.06422 0.83397,-0.0813 0.31827,-0.01969 0.63743,-0.03742 0.95622,-0.01697 0.27274,0.01752 0.54655,0.04014 0.8115,0.111413 0.20729,0.05709 0.41129,0.12663 0.60447,0.222009 0.17987,0.08923 0.32884,0.202489 0.47232,0.343225 0.13529,0.13273 0.26344,0.272529 0.34924,0.443587 0.0907,0.188034 0.15711,0.386056 0.19698,0.591257 0.0435,0.229848 0.0658,0.462618 0.0493,0.696752 -0.01,0.147247 -0.0204,0.293506 -0.0607,0.436104 -0.006,0.02291 -0.0125,0.04611 -0.0218,0.06801 -0.0108,0.02524 -0.0256,0.04859 -0.0383,0.07288 -0.11237,0.167954 -0.2338,0.295947 -0.40357,0.408516 -0.0267,0.01699 -0.0524,0.03563 -0.0801,0.05098 -0.17762,0.0985 -0.37372,0.164082 -0.56914,0.215929 -0.10533,0.022 -0.14902,0.03329 -0.25559,0.04697 -0.17201,0.02209 -0.34635,0.01778 -0.51811,-0.0045 -0.23672,-0.0359 -0.47276,-0.08622 -0.69249,-0.184321 -0.18104,-0.08806 -0.35789,-0.188887 -0.50735,-0.325345 -0.15509,-0.14807 -0.29852,-0.307348 -0.4298,-0.477014 -0.14665,-0.187841 -0.28689,-0.380562 -0.42118,-0.577454 -0.13133,-0.194741 -0.26214,-0.389929 -0.38083,-0.592746 -0.0951,-0.161604 -0.18369,-0.326878 -0.26212,-0.497301 -0.062,-0.142916 -0.12557,-0.285283 -0.17563,-0.432989 -0.0431,-0.117589 -0.0855,-0.235728 -0.1197,-0.35627 -0.0155,-0.05526 -0.0272,-0.110597 -0.04,-0.166453 -2.6e-4,-0.0015 2.7e-4,0.003 5.3e-4,0.0045 -0.10229,-0.613787 -0.97032,-0.469116 -0.86802,0.144671 z" />
    <path
       style="fill:#000000;fill-opacity:1;fill-rule:nonzero;stroke:none;stroke-width:0.264583"
       id="path51"
       d="m 116.5194,1.0739223 c -0.14627,0.065252 -0.27431,0.1648194 -0.40009,0.2623551 -0.22051,0.1692276 -0.41133,0.3712729 -0.59686,0.5770662 -0.0361,0.044336 -0.0739,0.087312 -0.10819,0.1330237 -0.15169,0.202153 -0.27868,0.4248454 -0.38721,0.652731 -0.0285,0.059933 -0.0545,0.1210537 -0.0818,0.1815877 -0.10619,0.2459455 -0.19211,0.5024385 -0.24464,0.765531 -0.0374,0.1872005 -0.0385,0.2441728 -0.0577,0.4334237 -0.022,0.2997077 -7.3e-4,0.6013382 0.0547,0.8965101 0.0352,0.1876309 0.0564,0.2481138 0.10743,0.4297066 0.11151,0.3440841 0.27626,0.6704595 0.49143,0.9615728 0.044,0.059538 0.092,0.1160453 0.13796,0.1740664 0.23688,0.2801144 0.51358,0.5247091 0.81929,0.7274354 0.0607,0.040239 0.12364,0.076963 0.18545,0.1154654 0.31921,0.178005 0.66438,0.3148479 1.02624,0.3751004 0.073,0.012162 0.14698,0.018119 0.22047,0.027179 0.27496,0.019373 0.55235,0.00259 0.82303,-0.04993 0.1501,-0.029122 0.22913,-0.05412 0.37427,-0.09457 0.28781,-0.087548 0.5626,-0.2138774 0.81809,-0.3725311 0.0495,-0.030696 0.0973,-0.063838 0.14599,-0.095757 0.2219,-0.157831 0.43296,-0.3317774 0.62676,-0.523255 0.0362,-0.035809 0.0711,-0.072995 0.10665,-0.1094944 0.13689,-0.1483669 0.26267,-0.3078755 0.36838,-0.4801223 0.0693,-0.1127756 0.0859,-0.1517278 0.14494,-0.2687952 0.0829,-0.1742589 0.14976,-0.3565063 0.19939,-0.5430296 0.0284,-0.1068899 0.0381,-0.1615197 0.0601,-0.268547 0.0317,-0.1864124 0.0471,-0.3754685 0.0383,-0.5645467 -0.006,-0.1254424 -0.0138,-0.165267 -0.0304,-0.2886872 -0.0294,-0.1784242 -0.073,-0.3549247 -0.13402,-0.5252647 -0.0366,-0.1022396 -0.058,-0.1474978 -0.10046,-0.2456247 -0.0827,-0.1800731 -0.17376,-0.3573405 -0.2864,-0.5207851 -0.0247,-0.035919 -0.0513,-0.070564 -0.077,-0.1058461 -0.12813,-0.1709543 -0.26845,-0.3322004 -0.41452,-0.4879293 -0.0936,-0.095879 -0.19036,-0.1893033 -0.29322,-0.2753427 -0.0703,-0.058846 -0.11133,-0.088771 -0.18374,-0.1438979 -0.1759,-0.1355052 -0.36461,-0.252306 -0.55661,-0.3632379 -0.18354,-0.1061434 -0.37485,-0.197301 -0.56905,-0.2819469 -0.19201,-0.084563 -0.39245,-0.1463168 -0.59544,-0.19794553 -0.1608,-0.037599 -0.32422,-0.068788 -0.48946,-0.07778 -0.0369,-0.00201 -0.0738,-0.002 -0.11075,-0.003 -0.17672,4.173e-4 -0.35285,0.014617 -0.52781,0.038659 -0.0962,0.013937 -0.19064,0.036588 -0.2847,0.060513 -0.60282,0.15430233 -0.3846,1.00681683 0.21822,0.85251593 v 0 c 0.0621,-0.016033 0.12439,-0.031603 0.18784,-0.041437 0.12924,-0.018321 0.25935,-0.028458 0.38992,-0.030406 0.13568,2.554e-4 0.26997,0.022406 0.40167,0.054245 0.15673,0.039009 0.3113,0.086601 0.45944,0.151567 0.16398,0.071188 0.32555,0.1478044 0.48048,0.2373186 0.16004,0.092102 0.31756,0.1887253 0.46396,0.3016916 0.0377,0.028584 0.0991,0.074294 0.13661,0.1054585 0.0811,0.067419 0.15749,0.1406374 0.23145,0.2157474 0.12214,0.1295863 0.23908,0.2641398 0.34655,0.40624 0.0165,0.022168 0.0338,0.043875 0.0497,0.066522 0.0857,0.1219547 0.15323,0.2555791 0.216,0.3903651 0.0262,0.059591 0.0496,0.1105268 0.0721,0.1715228 0.044,0.119478 0.0756,0.243509 0.0975,0.3688109 0.0109,0.074616 0.0177,0.1107064 0.0222,0.1855943 0.007,0.1243091 -0.002,0.2484074 -0.0208,0.3713277 -0.0156,0.077489 -0.0241,0.1251927 -0.0437,0.2016062 -0.0345,0.1346298 -0.082,0.2663172 -0.14068,0.3922475 -0.0345,0.0701 -0.0543,0.1141679 -0.0945,0.1808192 -0.0752,0.125088 -0.16533,0.2409578 -0.26343,0.3488155 -0.0273,0.028363 -0.0541,0.057312 -0.082,0.085103 -0.15621,0.1553895 -0.32646,0.2965054 -0.5046,0.4259471 -0.0361,0.024092 -0.0717,0.049126 -0.10842,0.072281 -0.19005,0.1197494 -0.39418,0.2164215 -0.60881,0.2831277 -0.0909,0.025824 -0.18365,0.054133 -0.27641,0.072988 -0.19102,0.038833 -0.38704,0.054099 -0.58168,0.044496 -0.0482,-0.005 -0.0966,-0.00779 -0.14449,-0.015009 -0.26084,-0.039315 -0.50953,-0.1375357 -0.7408,-0.2617652 -0.0474,-0.028973 -0.0957,-0.056486 -0.14212,-0.086896 -0.23724,-0.1552759 -0.45328,-0.3417539 -0.63794,-0.5570681 -0.0341,-0.042026 -0.0696,-0.082926 -0.10218,-0.1260827 -0.15983,-0.2114814 -0.28295,-0.4495344 -0.36788,-0.70036 -0.0373,-0.1293185 -0.0588,-0.1929845 -0.0845,-0.3254001 -0.0432,-0.2221049 -0.0634,-0.4491544 -0.0482,-0.6751869 0.0118,-0.1283186 0.0144,-0.1916377 0.0385,-0.3174236 0.04,-0.2085808 0.1071,-0.41224 0.19107,-0.6069462 0.0218,-0.049115 0.0426,-0.098696 0.0655,-0.1473307 0.0633,-0.1346345 0.13531,-0.2649557 0.21542,-0.390304 0.0224,-0.035065 0.045,-0.070046 0.0696,-0.1036209 0.0245,-0.033346 0.0516,-0.064625 0.0774,-0.096951 0.15076,-0.1677158 0.30437,-0.3339286 0.48385,-0.4718043 0.0568,-0.044589 0.065,-0.052302 0.12155,-0.092239 0.015,-0.010622 0.0303,-0.020891 0.0457,-0.031031 0.0108,-0.00712 0.0232,-0.012071 0.0328,-0.020752 0.003,-0.00299 -0.0294,0.011333 -0.0101,0.00303 0.57661,-0.2339369 0.24577,-1.04937923 -0.33083,-0.8154424 z" />
  </g>
  <path
     style="fill:#000000;fill-opacity:1;fill-rule:nonzero;stroke:none;stroke-width:0.264583"
     id="path25"
     d="m 87.708418,44.237977 c -0.0138,0.228769 -0.0156,0.458176 -0.0193,0.687292 -0.008,0.631241 -0.0108,1.262534 -0.0137,1.893816 -0.003,0.681919 -0.005,1.36384 -0.007,2.045764 0.004,0.494178 0.0208,0.988147 0.0353,1.482106 0.007,0.233124 0.0129,0.466272 0.0188,0.699423 0.0157,0.622057 0.895381,0.599906 0.879721,-0.02215 v 0 c -0.006,-0.234379 -0.012,-0.468755 -0.0189,-0.703107 -0.0142,-0.484515 -0.0302,-0.969036 -0.0349,-1.453764 0.002,-0.681397 0.004,-1.362794 0.007,-2.044189 0.003,-0.627959 0.006,-1.255935 0.0136,-1.883854 0.004,-0.233844 0.007,-0.46776 0.0194,-0.701337 0,-0.622255 -0.880001,-0.622255 -0.880001,0 z" />
  <path
     style="fill:#000000;fill-opacity:1;fill-rule:nonzero;stroke:none;stroke-width:0.264583"
     id="path26"
     d="m 87.688618,47.03756 c -0.009,-0.0016 -0.0174,-0.0016 -0.0256,-0.0046 -0.003,-0.0011 0.0104,5.29e-4 0.008,-0.0016 -0.0189,-0.01966 -0.0459,-0.02953 -0.0677,-0.04598 -0.0972,-0.07347 -0.0931,-0.07241 -0.19646,-0.158514 -0.28724,-0.254622 -0.56932,-0.514543 -0.86757,-0.75637 -0.33854,-0.272227 -0.70674,-0.502507 -1.08729,-0.710517 -0.39795,-0.216472 -0.82569,-0.363726 -1.26057,-0.484831 -0.45268,-0.130955 -0.922461,-0.157435 -1.390755,-0.154408 -0.300498,0.0093 -0.599633,0.05042 -0.887712,0.137962 -0.181649,0.0552 -0.245967,0.08701 -0.41969,0.159419 -0.452427,0.188807 -0.726871,0.489588 -0.995539,0.885222 -0.210371,0.32953 -0.322948,0.697026 -0.316699,1.089067 0.0013,0.08358 0.01225,0.166743 0.01836,0.250113 0.04414,0.3667 0.173136,0.713981 0.400662,1.00751 0.152823,0.197157 0.246615,0.265258 0.430887,0.428583 0.377304,0.293954 0.789657,0.552524 1.238358,0.723617 0.09884,0.03769 0.200763,0.06674 0.301144,0.100113 0.557466,0.180342 1.128958,0.222609 1.710474,0.212127 0.53224,-0.01167 1.04947,-0.130054 1.55532,-0.286885 0.47328,-0.142666 0.92332,-0.345414 1.36143,-0.571974 0.33017,-0.175742 0.65192,-0.366662 0.979911,-0.54632 0.0408,-0.02148 0.0815,-0.04295 0.12224,-0.06443 0.55036,-0.290351 0.13974,-1.068679 -0.410621,-0.778328 v 0 c -0.0449,0.02371 -0.0898,0.0474 -0.13464,0.0711 -0.32186,0.17657 -0.63807,0.363318 -0.96174,0.536636 -0.39204,0.203581 -0.79477,0.38575 -1.21877,0.513284 -0.42613,0.134067 -0.86201,0.235937 -1.31095,0.247097 -0.480085,0.01101 -0.959602,-0.02082 -1.420133,-0.169045 -0.07467,-0.02363 -0.150599,-0.0436 -0.223999,-0.07092 -0.365271,-0.135953 -0.700731,-0.344815 -1.009785,-0.579424 -0.305073,-0.259553 -0.473258,-0.434914 -0.532842,-0.845976 -0.03198,-0.320598 -0.0191,-0.494832 0.152786,-0.776592 0.155946,-0.238389 0.332388,-0.45684 0.605766,-0.563586 0.314407,-0.1343 0.627068,-0.22625 0.972678,-0.228394 0.386582,-0.0037 0.774866,0.01402 1.148739,0.122444 0.37057,0.102227 0.73546,0.225788 1.07472,0.409594 0.33438,0.181438 0.65718,0.383738 0.95467,0.621808 0.29628,0.239249 0.57372,0.499716 0.86023,0.750361 0.20712,0.170389 0.42358,0.356441 0.69752,0.400542 0.613791,0.102298 0.758461,-0.765728 0.14467,-0.868027 z" />
  <path
     style="fill:#000000;fill-opacity:1;fill-rule:nonzero;stroke:none;stroke-width:0.264583"
     d="m 99.996003,47.037177 c -0.80904,7.93e-4 -0.40382,0.0019 -1.21285,0.0034 -0.93842,0.0019 -1.87684,0.0037 -2.81525,0.0067 -0.96858,0.0032 -1.93716,0.0065 -2.90571,0.01371 -0.86506,0.0069 -1.7304,0.0104 -2.59503,0.04053 -0.54556,0.02294 -1.090594,0.05513 -1.635994,0.08111 -0.22921,0.01212 -0.45816,0.02776 -0.6874,0.03886 -0.620421,0.04773 -0.552931,0.925135 0.0675,0.877409 l -3e-5,3e-6 c 0.22219,-0.01037 0.44408,-0.02582 0.66621,-0.03749 0.54229,-0.0258 1.084214,-0.05788 1.626654,-0.08067 0.85466,-0.02955 1.71001,-0.03297 2.56508,-0.03978 0.96719,-0.0072 1.93439,-0.0105 2.90159,-0.01368 0.938,-0.003 1.87601,-0.0049 2.81401,-0.0067 0.8088,-0.0016 0.40335,-0.0024 1.21216,-0.0034"
     id="path33" />
  <path
     style="fill:#ff4400;fill-opacity:1;fill-rule:nonzero;stroke:none;stroke-width:0.264583"
     d="m 99.996943,47.917179 c 0.339067,-2.64e-4 1.892387,-7.94e-4 2.231447,-0.0011 0.62226,-5.29e-4 0.62144,-0.880576 -7.9e-4,-0.880002 v 0 c -0.33912,2.65e-4 -1.89248,5.3e-4 -2.231597,0.0011"
     id="path27" />
  <path
     style="fill:#ff4400;fill-opacity:1;fill-rule:nonzero;stroke:none;stroke-width:0.264583"
     id="path28"
     d="m 103.95745,44.499847 c -0.18986,0.0671 -0.215,-0.02363 -0.3796,0.0897 -0.045,0.03706 -0.14006,0.141694 -0.26184,0.285058 -0.18711,0.220129 -0.38295,0.484595 -0.5078,0.743384 -0.0328,0.06796 -0.061,0.138041 -0.0915,0.207061 -0.14829,0.375615 -0.25373,0.768609 -0.31288,1.168228 -0.0128,0.08626 -0.0208,0.173148 -0.0312,0.259725 -0.0328,0.371869 -0.0186,0.748805 0.0773,1.111258 0.0683,0.258101 0.10842,0.322874 0.21601,0.566042 0.0594,0.09569 0.11332,0.194945 0.17805,0.287083 0.2474,0.352145 0.57978,0.666144 0.92961,0.915038 0.0892,0.06344 0.18322,0.119756 0.27483,0.179636 0.39681,0.228859 0.83,0.398439 1.28389,0.471488 0.28398,0.0457 0.40662,0.03799 0.68992,0.04276 0.42364,-0.0092 0.84175,-0.08516 1.24084,-0.227761 0.24923,-0.08905 0.30317,-0.124595 0.53817,-0.241737 0.32813,-0.181044 0.62797,-0.409392 0.88617,-0.68127 0.17064,-0.179679 0.20249,-0.233722 0.35146,-0.43149 0.21161,-0.299181 0.3866,-0.622853 0.5015,-0.971521 0.0792,-0.240337 0.0852,-0.308878 0.13491,-0.556205 0.0619,-0.373226 0.0561,-0.750435 -0.0242,-1.120251 -0.047,-0.216691 -0.0816,-0.298524 -0.15263,-0.50615 -0.11843,-0.314725 -0.27974,-0.612373 -0.4882,-0.876774 -0.13402,-0.169992 -0.18952,-0.217474 -0.34105,-0.370501 -0.28441,-0.261213 -0.59303,-0.499571 -0.92899,-0.691253 -0.0638,-0.03637 -0.12945,-0.06924 -0.19418,-0.103863 -0.30689,-0.153812 -0.63086,-0.275857 -0.96572,-0.353136 -0.0654,-0.01508 -0.13161,-0.02641 -0.19741,-0.03959 -0.28303,-0.04639 -0.57168,-0.07373 -0.85888,-0.06504 -0.0544,0.0016 -0.10864,0.0064 -0.16296,0.0097 -0.21573,0.02217 -0.43026,0.06708 -0.63268,0.146357 -0.13516,0.05293 -0.17301,0.07767 -0.29965,0.145053 -0.23916,0.139568 -0.45737,0.309787 -0.66309,0.494239 -0.10752,0.103142 -0.0557,0.05192 -0.15558,0.153445 -0.43555,0.444405 0.19293,1.060368 0.62848,0.615966 v 0 c 0.0749,-0.07672 0.0363,-0.03829 0.11568,-0.115213 0.15351,-0.138721 0.31616,-0.266679 0.49323,-0.374438 0.063,-0.03499 0.10524,-0.06096 0.17148,-0.0884 0.12704,-0.05264 0.26263,-0.08227 0.39871,-0.09883 0.26548,-0.01918 0.53317,-0.0026 0.7957,0.04071 0.0484,0.0092 0.0971,0.01685 0.14523,0.02769 0.26842,0.06045 0.52847,0.156599 0.7747,0.278725 0.13354,0.07028 0.17475,0.08842 0.30253,0.169968 0.21674,0.138311 0.42075,0.297048 0.61086,0.469922 0.11349,0.112249 0.15418,0.146359 0.25466,0.269885 0.15682,0.192807 0.27679,0.412184 0.36572,0.643803 0.0564,0.159813 0.0792,0.210598 0.11836,0.375875 0.062,0.261321 0.0683,0.527851 0.0263,0.793096 -0.0134,0.07074 -0.0239,0.142079 -0.0401,0.212228 -0.0282,0.122288 -0.0779,0.287589 -0.12635,0.404484 -0.0813,0.196112 -0.19232,0.379008 -0.31164,0.553816 -0.042,0.05696 -0.0818,0.115551 -0.12589,0.170865 -0.22118,0.277402 -0.49417,0.507849 -0.80279,0.682463 -0.0658,0.03372 -0.13029,0.07014 -0.19741,0.101156 -0.36908,0.170558 -0.76857,0.260644 -1.17444,0.27409 -0.1887,-0.0013 -0.32801,0.0047 -0.51496,-0.02299 -0.34952,-0.05177 -0.68424,-0.177815 -0.99133,-0.349967 -0.0725,-0.04639 -0.1469,-0.08993 -0.21749,-0.139176 -0.27281,-0.190328 -0.52407,-0.424119 -0.72378,-0.690771 -0.0422,-0.05633 -0.0784,-0.11693 -0.11755,-0.175395 -0.0754,-0.162134 -0.1085,-0.216458 -0.15746,-0.387887 -0.0766,-0.268044 -0.0865,-0.548235 -0.0638,-0.824535 0.008,-0.06987 0.0138,-0.140004 0.0239,-0.2096 0.0478,-0.330824 0.13254,-0.656624 0.25255,-0.968499 0.0631,-0.146384 0.12634,-0.285652 0.21394,-0.419336 0.0275,-0.04194 0.092,-0.134437 0.13117,-0.175138 0.0211,-0.02193 0.19011,-0.217043 0.35438,-0.413976 l -0.26523,-0.669275 z"
     sodipodi:nodetypes="cccscccscsscscscscscccscccscccscccssccsccscscsccccscccscscsscccccssccc" />
  <path
     style="fill:#ff4400;fill-opacity:1;fill-rule:nonzero;stroke:none;stroke-width:0.264583"
     d="m 112.00397,46.932192 c -0.48937,0.0081 -1.22625,0.01865 -1.71561,0.02727 h -0.85177 c -0.62225,0 -0.62225,0.880001 0,0.880001 l 3e-5,-3.6e-5 h 0.85177 c 0.49419,-0.0084 1.23591,-0.01924 1.73011,-0.02739"
     id="path34" />
  <path
     style="fill:#000000;fill-opacity:1;fill-rule:nonzero;stroke:none;stroke-width:0.264583"
     d="m 112.0185,47.812037 c 0.52079,-0.0096 0.79403,-0.01482 1.3149,-0.0113 0.52756,0.01283 1.05497,0.03078 1.58251,0.04426 0.53621,0.01302 1.07251,0.0218 1.60881,0.03009 0.37056,0.0076 0.74102,0.01924 1.11153,0.02892 0.38535,0.0087 0.77071,0.01426 1.15601,0.02516 0.53805,0.0164 1.07622,0.02758 1.61443,0.0364 0.70497,0.0109 1.40979,0.0299 2.11473,0.04284 0.78835,0.01849 1.57664,0.03949 2.36496,0.05887 0.62207,0.01529 0.64369,-0.864444 0.0216,-0.879735 v 0 c -0.79015,-0.01942 -1.58026,-0.04049 -2.37044,-0.05898 -0.70551,-0.01294 -1.4109,-0.03197 -2.11645,-0.04287 -0.53474,-0.0088 -1.06945,-0.01987 -1.60402,-0.03617 -0.38591,-0.0109 -0.77188,-0.01659 -1.15784,-0.02519 -0.37364,-0.0098 -0.74723,-0.02154 -1.12093,-0.02911 -0.53334,-0.0083 -1.06668,-0.01699 -1.59993,-0.0299 -0.53307,-0.01363 -1.066,-0.03194 -1.5991,-0.04453 -0.52767,-0.0035 -0.80771,0.0016 -1.3353,0.0114"
     id="path29" />
  <path
     style="fill:#000000;fill-opacity:1;fill-rule:nonzero;stroke:none;stroke-width:0.264583"
     id="path30"
     d="m 125.34659,47.219072 c 2.7e-4,2.04e-4 8e-4,7.94e-4 10e-4,5.29e-4 0.003,-0.0024 -0.005,-0.0057 -0.008,-0.0085 -0.008,-0.0076 -0.015,-0.01532 -0.0227,-0.02278 -0.0436,-0.04238 -0.0875,-0.08437 -0.13114,-0.126693 -0.36241,-0.339522 -0.72673,-0.677013 -1.08996,-1.015677 -0.52938,-0.491363 -1.05977,-0.981636 -1.59206,-1.469856 -0.3142,-0.286102 -0.6254,-0.575453 -0.92965,-0.872122 -0.44556,-0.434377 -1.05986,0.195733 -0.6143,0.630108 v 0 c 0.3107,0.302855 0.62828,0.598455 0.94912,0.890531 0.53052,0.486596 1.05915,0.975249 1.58678,1.464972 0.35898,0.334711 0.71894,0.668382 1.07735,1.003691 0.0853,0.08268 0.16776,0.169606 0.26228,0.241838 0.50634,0.361677 1.01783,-0.354407 0.51149,-0.716085 z" />
  <path
     style="fill:#000000;fill-opacity:1;fill-rule:nonzero;stroke:none;stroke-width:0.264583"
     id="path31"
     d="m 124.99499,47.330006 c -0.0905,0.08222 -0.18817,0.155536 -0.28626,0.228352 -0.33104,0.236098 -0.67178,0.458123 -1.01186,0.680873 -0.36509,0.242245 -0.73553,0.476139 -1.10708,0.70829 -0.25385,0.157316 -0.50922,0.312158 -0.7633,0.469114 -0.16207,0.09925 -0.32297,0.200364 -0.48158,0.305054 -0.10792,0.07129 -0.21333,0.146232 -0.31893,0.220887 -0.0802,0.05599 -0.16063,0.111522 -0.24124,0.16686 -0.0598,0.04058 -0.12064,0.07949 -0.18037,0.120113 -0.0512,0.03291 -0.10007,0.06923 -0.14899,0.105386 -0.006,0.0039 -0.0111,0.0079 -0.0167,0.01188 -0.50612,0.361989 0.006,1.077759 0.51193,0.715772 v 0 c 0.009,-0.0067 0.0188,-0.01347 0.0281,-0.02019 0.0397,-0.02939 0.0793,-0.05901 0.12099,-0.0855 0.0606,-0.04135 0.12268,-0.08047 0.18316,-0.122015 0.0839,-0.05763 0.1677,-0.115409 0.25111,-0.173739 0.098,-0.06928 0.19573,-0.138914 0.29584,-0.205113 0.15116,-0.09988 0.30469,-0.196056 0.45916,-0.290727 0.25533,-0.157749 0.51201,-0.313327 0.7671,-0.471471 0.37688,-0.235485 0.7526,-0.472774 1.12295,-0.718447 0.35468,-0.232317 0.71005,-0.463926 1.05481,-0.710869 0.11095,-0.08263 0.22182,-0.165529 0.3245,-0.258461 0.47803,-0.39836 -0.0853,-1.074394 -0.56337,-0.676037 z" />
  <path
     style="fill:#000000;fill-opacity:1;fill-rule:nonzero;stroke:none;stroke-width:0.264583"
     id="path32"
     d="m 125.7666,47.849561 c 3e-5,5.29e-4 -2.7e-4,0.0021 1e-4,0.0016 0.0595,-0.05655 0.1156,-0.116853 0.17348,-0.174998 0.0969,-0.09736 0.0956,-0.09512 0.19956,-0.195868 0.28399,-0.269695 0.58009,-0.526394 0.88734,-0.76917 0.21112,-0.167812 0.43782,-0.313275 0.67865,-0.434555 0.1563,-0.07871 0.22976,-0.107212 0.39082,-0.176196 0.27415,-0.107852 0.56044,-0.186899 0.85108,-0.235519 0.17125,-0.02865 0.26448,-0.0346 0.43731,-0.05128 0.25316,-0.01786 0.50831,-0.0236 0.76059,0.0088 0.14365,0.01844 0.16205,0.02617 0.30023,0.05804 0.0429,0.01431 0.0873,0.02492 0.1288,0.04297 0.0364,0.01582 0.07,0.03752 0.10392,0.05817 0.13195,0.08038 0.2418,0.167828 0.34653,0.281959 0.035,0.03818 0.0665,0.07952 0.0997,0.119274 0.1026,0.13834 0.18943,0.287488 0.26193,0.44364 0.0497,0.107071 0.10044,0.229537 0.12925,0.344567 0.0143,0.05697 0.0206,0.115657 0.0309,0.173484 0.007,0.06525 0.0162,0.130302 0.0211,0.195747 0.0179,0.239559 0.0139,0.50418 -0.0397,0.739381 -0.0112,0.04896 -0.0285,0.0963 -0.0428,0.144452 -0.0703,0.185182 -0.17649,0.356862 -0.31044,0.503147 -0.0665,0.07261 -0.13802,0.129479 -0.21275,0.193223 -0.0377,0.0259 -0.0734,0.05495 -0.11303,0.07771 -0.0691,0.03969 -0.1803,0.07901 -0.2542,0.101433 -0.16867,0.05119 -0.33631,0.07619 -0.5103,0.10043 -0.30403,0.04088 -0.61285,0.04144 -0.91745,0.0057 -0.0615,-0.0072 -0.12267,-0.01744 -0.184,-0.02614 -0.36551,-0.05861 -0.71625,-0.177549 -1.06115,-0.308448 -0.30744,-0.115631 -0.59735,-0.269939 -0.8827,-0.431195 -0.25121,-0.140705 -0.48873,-0.303321 -0.72313,-0.470005 -0.17821,-0.128165 -0.34652,-0.269079 -0.51529,-0.409186 -0.0907,-0.07592 -0.0467,-0.03869 -0.13196,-0.111615 -0.47295,-0.404381 -1.04483,0.264462 -0.57189,0.668843 v 0 c 0.0932,0.07966 0.046,0.0397 0.14178,0.119875 0.18568,0.154125 0.37122,0.3087 0.56752,0.449347 0.25934,0.184261 0.52252,0.363397 0.80034,0.519049 0.32434,0.182954 0.6545,0.356716 1.00381,0.487902 0.40649,0.153495 0.82045,0.290703 1.25138,0.357034 0.0757,0.01035 0.15111,0.02254 0.227,0.03105 0.37222,0.0417 0.74917,0.03893 1.1204,-0.01114 0.0764,-0.01117 0.15319,-0.02011 0.22925,-0.0335 0.32144,-0.05654 0.64028,-0.149203 0.92003,-0.321945 0.0631,-0.03894 0.12007,-0.08693 0.1801,-0.130399 0.13694,-0.120105 0.19999,-0.167947 0.32278,-0.307573 0.15375,-0.174813 0.28581,-0.376891 0.38242,-0.588706 0.0342,-0.07491 0.0597,-0.153456 0.0896,-0.230185 0.0212,-0.07987 0.0465,-0.158753 0.0635,-0.239607 0.0652,-0.309239 0.0721,-0.665797 0.045,-0.979863 -0.008,-0.089 -0.0214,-0.177374 -0.0322,-0.266062 -0.0197,-0.09353 -0.0342,-0.188333 -0.0592,-0.280583 -0.0412,-0.151932 -0.11274,-0.324585 -0.18055,-0.46687 -0.0687,-0.144177 -0.14654,-0.284756 -0.23494,-0.417865 -0.045,-0.06773 -0.095,-0.131985 -0.14246,-0.197977 -0.13655,-0.156652 -0.17116,-0.207793 -0.32943,-0.343593 -0.18475,-0.158517 -0.39443,-0.291039 -0.62103,-0.381302 -0.0663,-0.0264 -0.13637,-0.04233 -0.20455,-0.06349 -0.18578,-0.0406 -0.21952,-0.05262 -0.40935,-0.07533 -0.30856,-0.03692 -0.6202,-0.03191 -0.92957,-0.0085 -0.21404,0.02138 -0.30925,0.02712 -0.52301,0.06399 -0.35104,0.06055 -0.6963,0.15797 -1.02698,0.290195 -0.19171,0.08276 -0.27308,0.114308 -0.46016,0.209688 -0.28612,0.145867 -0.55597,0.320095 -0.80775,0.51944 -0.0595,0.04715 -0.11961,0.09351 -0.17845,0.141463 -0.26753,0.217998 -0.52377,0.449931 -0.77535,0.685969 -0.14284,0.138581 -0.28341,0.279405 -0.4228,0.421449 -0.40976,0.468294 0.25251,1.047777 0.66227,0.579483 z" />
  <path
     style="fill:#000000;fill-opacity:1;fill-rule:nonzero;stroke:none;stroke-width:0.264583"
     id="path35"
     d="m 203.43952,21.405539 c 0.0102,0.381719 0.0113,0.763634 0.0137,1.145461 0.005,0.923904 0.007,1.847819 0.01,2.771731 0.002,0.740428 0.004,1.480857 0.005,2.221287 0.001,0.536563 0.002,1.073126 0.002,1.609689 9e-5,0.06887 1.8e-4,0.137735 2.6e-4,0.206603 8e-4,0.622253 0.88083,0.621084 0.88,-0.0012 v 0 c -9e-5,-0.06888 -1.8e-4,-0.137767 -2.6e-4,-0.20665 -8e-4,-0.536697 -0.002,-1.073393 -0.002,-1.61009 -0.001,-0.7407 -0.003,-1.4814 -0.005,-2.222099 -0.003,-0.924949 -0.005,-1.849901 -0.01,-2.774842 -0.002,-0.379973 -0.003,-0.760065 -0.0136,-1.13992 0,-0.622254 -0.88,-0.622254 -0.88,0 z" />
  <path
     style="fill:#000000;fill-opacity:1;fill-rule:nonzero;stroke:none;stroke-width:0.264583"
     id="path36"
     d="m 204.06125,25.293626 c -0.14754,-0.184516 -0.33248,-0.334526 -0.51091,-0.487718 -0.3396,-0.281863 -0.71311,-0.518575 -1.08909,-0.748124 -0.4565,-0.278051 -0.93845,-0.508666 -1.42578,-0.726535 -0.41689,-0.181306 -0.85069,-0.323763 -1.29483,-0.4214 -0.0934,-0.02053 -0.18766,-0.03686 -0.28149,-0.05529 -0.37794,-0.05913 -0.76788,-0.115466 -1.15156,-0.104352 -0.26897,0.0078 -0.38362,0.03173 -0.64775,0.06959 -0.49602,0.09094 -0.98412,0.234952 -1.44797,0.433668 -0.0839,0.03593 -0.16592,0.07599 -0.24888,0.113983 -0.3069,0.15385 -0.60253,0.334523 -0.86562,0.556174 -0.15506,0.13063 -0.2062,0.189795 -0.34602,0.333034 -0.19812,0.217452 -0.36988,0.457558 -0.51324,0.714356 -0.0831,0.148846 -0.10433,0.202062 -0.17495,0.354645 -0.10562,0.251292 -0.16485,0.520584 -0.16217,0.793918 0.002,0.180086 0.0163,0.21916 0.0478,0.394456 0.0194,0.06339 0.0347,0.128185 0.0582,0.190171 0.0912,0.240403 0.23874,0.462789 0.41781,0.64655 0.0445,0.04572 0.0934,0.08704 0.14013,0.130553 0.27139,0.222477 0.59119,0.375842 0.92192,0.488539 0.0724,0.02468 0.1461,0.04556 0.21914,0.06833 0.45007,0.136126 0.91464,0.209014 1.38053,0.263682 0.33618,0.03256 0.67427,0.05342 1.01213,0.0408 0.22163,-0.0083 0.28435,-0.01865 0.50455,-0.04186 0.46623,-0.05377 0.9203,-0.173166 1.37053,-0.301358 0.41783,-0.117854 0.82549,-0.267514 1.23185,-0.419421 0.36799,-0.135716 0.72862,-0.289766 1.08735,-0.448011 0.28221,-0.123749 0.55653,-0.264212 0.83045,-0.405052 0.19121,-0.0993 0.38182,-0.199996 0.57035,-0.304311 0.54422,-0.301707 0.11754,-1.071348 -0.42667,-0.769641 v 0 c -0.18032,0.1002 -0.36316,0.196011 -0.54608,0.291342 -0.25841,0.132868 -0.51702,0.265742 -0.78323,0.382527 -0.34325,0.151437 -0.68821,0.2991 -1.04037,0.428878 -0.38428,0.14371 -0.76963,0.28582 -1.16477,0.397368 -0.40199,0.114606 -0.80694,0.223426 -1.22315,0.272685 -0.18415,0.0201 -0.23994,0.02935 -0.42498,0.03697 -0.29909,0.01232 -0.59842,-0.007 -0.89609,-0.03499 -0.41246,-0.0477 -0.82391,-0.110952 -1.2226,-0.230376 -0.28341,-0.08657 -0.56907,-0.184767 -0.80773,-0.366172 -0.027,-0.02373 -0.0551,-0.04629 -0.081,-0.0712 -0.119,-0.114391 -0.21234,-0.257227 -0.26446,-0.413816 -0.0175,-0.07811 -0.029,-0.113319 -0.0323,-0.193944 -0.006,-0.157612 0.0226,-0.313351 0.0823,-0.45906 0.0527,-0.115751 0.0716,-0.162693 0.13333,-0.275079 0.10815,-0.196794 0.23736,-0.381372 0.38704,-0.548863 0.0999,-0.103883 0.14956,-0.160501 0.25908,-0.254571 0.20839,-0.178997 0.44479,-0.323248 0.68879,-0.447879 0.0697,-0.03229 0.13867,-0.06637 0.20919,-0.09688 0.39934,-0.172762 0.82007,-0.298154 1.24716,-0.379424 0.1796,-0.02697 0.32313,-0.05397 0.50438,-0.06045 0.33483,-0.01197 0.66947,0.03849 0.99927,0.08827 0.0806,0.01553 0.16156,0.02916 0.24176,0.04659 0.39229,0.08526 0.77564,0.20985 1.14376,0.369766 0.45328,0.202387 0.90187,0.415975 1.32652,0.674358 0.33572,0.204555 0.66974,0.414818 0.97419,0.664618 0.13928,0.119496 0.28664,0.234294 0.40297,0.377198 0.39403,0.481598 1.07512,-0.07565 0.68108,-0.557249 z" />
  <path
     style="fill:#000000;fill-opacity:1;fill-rule:nonzero;stroke:none;stroke-width:0.264583"
     id="path37"
     d="m 203.90223,26.056062 c 0.32574,0.114127 0.66984,0.163017 1.01007,0.212247 0.62568,0.07573 1.25557,0.105771 1.88481,0.133601 0.85985,0.03523 1.72068,0.03765 2.58111,0.04386 0.94467,0.0021 1.88922,0.01684 2.83378,0.02989 0.82731,0.01556 1.65449,0.03266 2.48105,0.07173 0.58544,0.03017 1.17094,0.05887 1.75593,0.09685 0.50744,0.02716 1.01416,0.06211 1.52078,0.101532 0.23788,0.01903 0.47593,0.03589 0.71398,0.05271 0.6207,0.04384 0.6827,-0.833975 0.062,-0.877813 v 0 c -0.23596,-0.01666 -0.47191,-0.03337 -0.7077,-0.05224 -0.51037,-0.03972 -1.02086,-0.07493 -1.53205,-0.102337 -0.59016,-0.0383 -1.18081,-0.06731 -1.77142,-0.09771 -0.83634,-0.03947 -1.67331,-0.05699 -2.51041,-0.07263 -0.94649,-0.01308 -1.89298,-0.02779 -2.83958,-0.02996 -0.84961,-0.0061 -1.69959,-0.0084 -2.54863,-0.04302 -0.60025,-0.02649 -1.20108,-0.05484 -1.7981,-0.125458 -0.28834,-0.04138 -0.5812,-0.07969 -0.85734,-0.176089 -0.59032,-0.196774 -0.8686,0.638067 -0.27828,0.834841 z" />
  <path
     style="fill:#000000;fill-opacity:1;fill-rule:nonzero;stroke:none;stroke-width:0.264583"
     id="path38"
     d="m 218.96079,26.849775 c 0.30284,0.004 0.59647,-0.06169 0.88617,-0.142838 0.57747,-0.164698 1.11388,-0.436866 1.64297,-0.715246 0.74359,-0.400553 1.44715,-0.868682 2.14687,-1.340128 0.86506,-0.587074 1.68332,-1.237882 2.50255,-1.886175 0.87844,-0.706147 1.75048,-1.420175 2.63611,-2.117356 0.89544,-0.706524 1.80956,-1.388293 2.74861,-2.035668 0.56927,-0.373539 1.14695,-0.738255 1.74876,-1.057811 0.31796,-0.168827 0.54953,-0.273165 0.87548,-0.426776 0.87423,-0.401795 1.79008,-0.695434 2.71742,-0.945154 0.82165,-0.208041 1.65285,-0.377154 2.49207,-0.495553 0.65556,-0.09266 1.31621,-0.138245 1.97787,-0.149307 0.0887,-1.63e-4 0.1774,-3.28e-4 0.2661,-4.92e-4 0.62225,-0.0013 0.62046,-0.881265 -0.002,-0.879998 v 0 c -0.0932,2.07e-4 -0.18633,4.13e-4 -0.27949,6.19e-4 -0.69783,0.01238 -1.39466,0.05975 -2.08606,0.157866 -0.87474,0.124267 -1.74149,0.299202 -2.59781,0.517211 -0.97739,0.263899 -1.94259,0.574361 -2.86372,0.998899 -0.35776,0.168883 -0.57907,0.268157 -0.929,0.454299 -0.62607,0.333029 -1.22728,0.712484 -1.8194,1.101743 -0.95416,0.658136 -1.88349,1.350525 -2.79339,2.068682 -0.88617,0.697696 -1.75895,1.411969 -2.63785,2.118728 -0.80162,0.634373 -1.60193,1.271689 -2.4482,1.846452 -0.67335,0.453741 -1.34993,0.90501 -2.0651,1.291245 -0.47542,0.250481 -0.95619,0.498665 -1.47499,0.647845 -0.21031,0.0619 -0.42346,0.111472 -0.64418,0.108911 -0.62225,0 -0.62225,0.88 0,0.88 z" />
  <path
     style="fill:#000000;fill-opacity:1;fill-rule:nonzero;stroke:none;stroke-width:0.264583"
     id="path39"
     d="m 218.91806,26.882587 c 0.23363,0.06716 0.47015,0.123972 0.70592,0.183103 0.62462,0.16911 1.23683,0.380121 1.84975,0.586757 0.87463,0.294819 1.74009,0.615374 2.59567,0.961429 0.95231,0.386263 1.86316,0.861175 2.75683,1.366128 0.58299,0.342477 1.14967,0.713215 1.69882,1.107677 0.34964,0.251149 0.47596,0.353064 0.81678,0.615723 0.79272,0.621138 1.55368,1.281306 2.32235,1.931599 0.89485,0.749891 1.78098,1.510066 2.67317,2.263097 0.82514,0.69946 1.65897,1.388608 2.49566,2.074182 0.79352,0.654815 1.60774,1.283985 2.43261,1.898641 0.67671,0.49866 1.35873,0.994224 2.08044,1.42679 0.14565,0.0873 0.29465,0.168886 0.44197,0.253329 0.61322,0.336944 1.24937,0.63233 1.90426,0.878901 0.45171,0.170071 0.60802,0.214193 1.06801,0.362278 0.94804,0.295733 1.92399,0.493831 2.90718,0.62875 0.20532,0.02818 0.41139,0.05056 0.61708,0.07585 1.19757,0.138186 2.40123,0.206899 3.60484,0.264673 1.0603,0.04136 2.12126,0.06567 3.18229,0.07679 0.44846,0.0048 0.89695,0.0027 1.34542,0.0011 0.62225,-0.0024 0.61876,-0.882462 -0.003,-0.879993 v 0 c -0.44425,0.0019 -0.8885,0.0038 -1.33274,-7.94e-4 -1.05003,-0.01095 -2.09999,-0.03509 -3.1493,-0.07583 -1.18192,-0.05669 -2.36389,-0.123801 -3.53991,-0.259141 -0.19745,-0.02416 -0.39525,-0.04552 -0.59234,-0.07246 -0.93655,-0.127984 -1.86653,-0.315116 -2.76968,-0.596447 -0.43813,-0.140674 -0.58351,-0.181496 -1.01319,-0.34263 -0.61607,-0.231035 -1.2144,-0.508433 -1.79135,-0.824563 -0.13725,-0.07841 -0.27612,-0.154057 -0.41175,-0.235227 -0.70173,-0.419946 -1.36419,-0.902262 -2.02197,-1.386778 -0.81408,-0.606502 -1.61756,-1.227452 -2.40064,-1.87366 -0.8334,-0.682862 -1.66393,-1.369285 -2.48582,-2.065987 -0.89193,-0.752803 -1.77779,-1.51278 -2.67239,-2.262444 -0.77892,-0.658961 -1.55008,-1.327861 -2.35368,-1.956898 -0.35642,-0.274462 -0.48335,-0.376973 -0.84943,-0.639703 -0.57225,-0.410695 -1.16282,-0.796526 -1.77045,-1.152802 -0.92703,-0.523351 -1.87198,-1.015393 -2.85973,-1.415732 -0.87173,-0.352308 -1.75329,-0.679268 -2.64439,-0.979473 -0.63499,-0.214071 -1.26935,-0.432432 -1.91681,-0.606435 -0.20638,-0.05176 -0.41341,-0.104219 -0.61926,-0.156558 -0.58479,-0.21265 -0.88553,0.614368 -0.30074,0.827019 z" />
  <path
     style="fill:#000000;fill-opacity:1;fill-rule:nonzero;stroke:none;stroke-width:0.264583"
     id="path40"
     d="m 241.63161,13.414467 c -0.0961,0.145328 -0.16772,0.304158 -0.23564,0.463976 -0.0982,0.271934 -0.18023,0.55259 -0.21469,0.840513 -0.007,0.06115 -0.0104,0.122732 -0.0156,0.184098 -0.0105,0.251637 0.009,0.495551 0.08,0.738125 0.051,0.174705 0.0784,0.218527 0.1548,0.386304 0.17255,0.32792 0.41008,0.615872 0.67783,0.870488 0.053,0.05037 0.10854,0.09793 0.16281,0.146902 0.3004,0.257508 0.64887,0.447439 1.01218,0.600163 0.0734,0.03085 0.14803,0.05858 0.22204,0.08787 0.39471,0.141758 0.80505,0.252008 1.2239,0.290855 0.0913,0.0085 0.18306,0.01022 0.2746,0.01532 0.17543,-0.0026 0.35935,9.53e-4 0.53363,-0.02609 0.17981,-0.02789 0.40301,-0.08827 0.57498,-0.151036 0.23404,-0.08543 0.3072,-0.13121 0.52658,-0.243474 0.0799,-0.04952 0.16251,-0.09494 0.23973,-0.148553 0.22938,-0.159244 0.45445,-0.363891 0.62639,-0.584551 0.17052,-0.218827 0.1842,-0.274461 0.3107,-0.52134 0.0354,-0.09049 0.0756,-0.179223 0.10605,-0.271469 0.11488,-0.34771 0.17202,-0.738311 0.1821,-1.103944 0.002,-0.08554 -7.9e-4,-0.171144 -0.001,-0.256716 -0.005,-0.08198 -0.008,-0.164138 -0.0156,-0.245945 -0.0277,-0.303297 -0.0799,-0.613714 -0.19558,-0.897047 -0.0319,-0.07816 -0.0722,-0.152618 -0.10838,-0.228926 -0.14499,-0.270678 -0.33025,-0.517227 -0.54315,-0.738066 -0.1226,-0.127161 -0.17304,-0.166932 -0.30386,-0.282055 -0.19861,-0.164858 -0.41598,-0.305531 -0.64663,-0.42118 -0.14047,-0.07043 -0.18829,-0.08719 -0.33285,-0.147021 -0.22441,-0.08553 -0.45549,-0.156843 -0.69316,-0.194563 -0.15604,-0.02477 -0.21854,-0.0254 -0.37489,-0.03578 -0.28214,-0.0092 -0.56639,0.0092 -0.84387,0.06262 -0.0511,0.0098 -0.10158,0.02235 -0.15238,0.03352 -0.30393,0.07337 -0.57997,0.219504 -0.84628,0.378747 -0.17608,0.107319 -0.34942,0.220372 -0.50752,0.353248 -0.0348,0.02925 -0.0683,0.06007 -0.1024,0.09011 -0.18711,0.170452 -0.35529,0.359445 -0.51488,0.55545 -0.0664,0.08121 -0.12618,0.167375 -0.18583,0.253541 -0.35358,0.512038 0.37056,1.012071 0.72413,0.500033 v 0 c 0.0465,-0.06749 0.0928,-0.135161 0.1447,-0.198682 0.12897,-0.159168 0.26476,-0.312695 0.41556,-0.451765 0.0633,-0.05671 0.0762,-0.0702 0.14287,-0.122028 0.10669,-0.08288 0.22149,-0.154638 0.33635,-0.225447 0.18511,-0.111725 0.37522,-0.218987 0.5859,-0.274538 0.0353,-0.0081 0.0704,-0.01731 0.1059,-0.02441 0.21105,-0.04217 0.42767,-0.05716 0.64254,-0.05214 0.10155,0.0059 0.1652,0.0073 0.26521,0.02193 0.17967,0.02632 0.35396,0.08082 0.52363,0.144128 0.11282,0.04591 0.1469,0.05748 0.25627,0.111167 0.17027,0.08359 0.33102,0.185474 0.47815,0.305324 0.0988,0.08582 0.14204,0.119963 0.23421,0.213957 0.15565,0.158713 0.29302,0.335072 0.40128,0.529533 0.0637,0.124525 0.0809,0.144831 0.12221,0.279344 0.0709,0.230747 0.0928,0.4744 0.10837,0.713925 8e-4,0.06724 0.004,0.134489 0.002,0.201723 -0.003,0.152782 -0.0135,0.271164 -0.0363,0.42288 -0.0188,0.125575 -0.051,0.292373 -0.089,0.414568 -0.0205,0.0659 -0.0481,0.129375 -0.0721,0.194062 -0.0704,0.14864 -0.0866,0.202198 -0.18533,0.334095 -0.11545,0.154249 -0.27478,0.306116 -0.43134,0.418156 -0.0568,0.04063 -0.11776,0.07502 -0.17665,0.112536 -0.1554,0.08158 -0.22538,0.124353 -0.38955,0.186646 -0.0785,0.0298 -0.29534,0.09762 -0.3847,0.112814 -0.12923,0.02197 -0.2816,0.02076 -0.41175,0.02385 -0.0688,-0.0031 -0.1378,-0.0033 -0.20642,-0.0092 -0.34706,-0.02973 -0.68707,-0.121183 -1.01436,-0.236916 -0.0627,-0.02456 -0.12594,-0.04785 -0.18814,-0.07369 -0.27863,-0.115752 -0.54888,-0.255494 -0.78091,-0.450588 -0.043,-0.03827 -0.087,-0.07539 -0.12889,-0.114799 -0.19431,-0.182655 -0.37093,-0.38662 -0.502,-0.619777 -0.0581,-0.1195 -0.0587,-0.110741 -0.10051,-0.23546 -0.0107,-0.03201 -0.0219,-0.06407 -0.0288,-0.09712 -0.024,-0.114802 -0.0262,-0.234239 -0.0256,-0.350909 0.003,-0.04026 0.004,-0.08066 0.008,-0.120787 0.0234,-0.21616 0.0863,-0.426155 0.15579,-0.631284 0.0476,-0.114758 0.098,-0.228886 0.16692,-0.332793 0.33408,-0.524972 -0.40834,-0.997422 -0.74242,-0.47245 z" />
  <path
     style="fill:#000000;fill-opacity:1;fill-rule:nonzero;stroke:none;stroke-width:0.264583"
     id="path41"
     d="m 250.93166,33.866864 c -0.18022,0.07035 -0.33245,0.192604 -0.48068,0.313867 -0.2263,0.191721 -0.41589,0.421265 -0.56555,0.677149 -0.0348,0.05941 -0.0654,0.12111 -0.0982,0.181665 -0.0975,0.202257 -0.18078,0.413094 -0.23023,0.632755 -0.0193,0.0856 -0.0337,0.17231 -0.0455,0.259257 -0.0302,0.223037 -0.0252,0.294863 -0.0298,0.520221 0.01,0.352767 0.0555,0.704722 0.15045,1.045029 0.0635,0.227559 0.0887,0.274383 0.17536,0.493014 0.0378,0.07733 0.0724,0.156298 0.11337,0.231998 0.16058,0.296759 0.36937,0.577529 0.62423,0.800283 0.069,0.06028 0.14432,0.112842 0.21648,0.169264 0.30441,0.20223 0.63513,0.366791 0.98578,0.472325 0.23683,0.07127 0.32091,0.07864 0.56385,0.121331 0.37227,0.05063 0.7508,0.06429 1.12486,0.02335 0.24651,-0.02698 0.31799,-0.04914 0.55879,-0.101593 0.34979,-0.09155 0.68771,-0.225983 1.00272,-0.403774 0.19156,-0.108116 0.23364,-0.144037 0.41169,-0.268986 0.13786,-0.111849 0.23103,-0.179159 0.35187,-0.310353 0.1612,-0.175005 0.30682,-0.386122 0.41403,-0.59869 0.0376,-0.07445 0.0677,-0.152419 0.10152,-0.228628 0.0264,-0.08026 0.0573,-0.159141 0.079,-0.240774 0.0926,-0.347811 0.11153,-0.71973 0.0647,-1.076207 -0.0126,-0.0956 -0.0345,-0.189732 -0.0518,-0.284599 -0.10805,-0.461939 -0.30159,-0.901002 -0.56322,-1.296589 -0.0517,-0.07823 -0.10883,-0.152769 -0.16325,-0.229154 -0.11442,-0.142256 -0.20785,-0.26524 -0.33437,-0.396496 -0.17303,-0.179512 -0.36721,-0.343643 -0.5737,-0.483477 -0.0656,-0.04445 -0.1346,-0.0838 -0.2019,-0.125696 -0.24965,-0.13954 -0.51349,-0.256005 -0.7928,-0.321498 -0.18157,-0.04258 -0.23879,-0.0432 -0.42337,-0.06341 -0.28118,-0.0184 -0.562,0.0031 -0.8394,0.04978 -0.16254,0.02734 -0.22469,0.0436 -0.38423,0.07955 -0.33203,0.08211 -0.65517,0.195384 -0.9708,0.326343 -0.18346,0.07705 -0.35915,0.1698 -0.52935,0.272465 -0.53217,0.322486 -0.0761,1.075085 0.45606,0.752599 v 0 c 0.1321,-0.08055 0.26899,-0.152294 0.4116,-0.212693 0.2688,-0.112444 0.54447,-0.208675 0.82706,-0.280494 0.3083,-0.0704 0.62064,-0.130102 0.9387,-0.1122 0.11936,0.01122 0.16553,0.01192 0.28207,0.03702 0.19875,0.04281 0.38544,0.126156 0.56362,0.222223 0.0482,0.0291 0.0977,0.05617 0.14458,0.08729 0.15355,0.101854 0.30581,0.225335 0.43453,0.357275 0.10167,0.104213 0.18509,0.211959 0.27691,0.324724 0.0431,0.05946 0.0884,0.117458 0.12941,0.178391 0.20493,0.3043 0.35918,0.642495 0.44739,0.998717 0.0131,0.06473 0.0297,0.128851 0.0394,0.19419 0.0356,0.240948 0.0311,0.497251 -0.0262,0.734624 -0.013,0.0538 -0.0322,0.105887 -0.0484,0.158831 -0.0201,0.04855 -0.0375,0.09833 -0.0603,0.145642 -0.0465,0.09632 -0.10935,0.194824 -0.17102,0.281939 -0.0284,0.04019 -0.0568,0.08067 -0.0894,0.117574 -0.0821,0.09297 -0.15158,0.144065 -0.24723,0.223425 -0.1349,0.09648 -0.16805,0.125124 -0.31384,0.208927 -0.24562,0.141185 -0.50949,0.248484 -0.78266,0.323034 -0.17906,0.04053 -0.25105,0.06187 -0.43341,0.08316 -0.30274,0.03534 -0.60942,0.02586 -0.91118,-0.0131 -0.17351,-0.02877 -0.25757,-0.03733 -0.42532,-0.08579 -0.26158,-0.07558 -0.50848,-0.195578 -0.73868,-0.339732 -0.046,-0.03386 -0.0942,-0.06488 -0.13797,-0.101592 -0.23339,-0.195867 -0.40398,-0.455893 -0.53377,-0.728591 -0.0249,-0.06096 -0.052,-0.121057 -0.0746,-0.182894 -0.11888,-0.324893 -0.17474,-0.668324 -0.18793,-1.013229 5.3e-4,-0.06601 -0.001,-0.132083 0.002,-0.198024 0.005,-0.100146 0.0208,-0.260812 0.0417,-0.361442 0.0326,-0.156801 0.0907,-0.307368 0.15807,-0.452073 0.0532,-0.101082 0.0773,-0.153591 0.13977,-0.247511 0.086,-0.129352 0.18921,-0.24504 0.30679,-0.346401 0.058,-0.04806 0.11513,-0.09606 0.17808,-0.137596 0.0113,-0.0075 0.023,-0.01444 0.0346,-0.02158 0.005,-0.0031 0.0209,-0.0093 0.015,-0.009 -0.01,3.7e-4 -0.0185,0.0064 -0.0277,0.0095 0.59032,-0.196774 0.31204,-1.031616 -0.27829,-0.834842 z" />
  <path
     style="fill:#000000;fill-opacity:1;fill-rule:nonzero;stroke:none;stroke-width:0.264583"
     id="path42"
     d="m 242.0535,8.5969091 c 0.5256,0 1.05119,0 1.57679,0 0.90566,0 1.81131,0 2.71696,0 0.98535,-0.0039 1.96994,-0.0082 2.9544,0.0369 1.30492,0.04976 2.59028,0.280191 3.86681,0.540086 1.44177,0.296198 2.83557,0.775048 4.21084,1.2914559 0.89847,0.352024 1.77844,0.755009 2.61741,1.23287 0.54271,0.309114 0.86963,0.526995 1.39769,0.863713 1.38025,0.910586 2.70332,1.903206 3.98938,2.941489 1.20222,0.979335 2.35676,2.0146 3.53273,3.024776 1.15561,1.010511 2.36803,1.949719 3.62119,2.835233 0.80802,0.548217 1.64637,1.057569 2.52844,1.478763 0.51461,0.245732 0.82189,0.359947 1.34855,0.571928 1.44572,0.550593 2.95417,0.902537 4.46538,1.217421 1.19606,0.242005 2.40488,0.411239 3.61455,0.5677 0.61712,0.07979 0.72996,-0.792943 0.11284,-0.872735 v 0 c -1.18736,-0.153468 -2.37392,-0.319272 -3.54798,-0.556482 -1.46047,-0.303972 -2.91865,-0.64239 -4.31653,-1.172388 -0.48554,-0.194974 -0.80341,-0.31382 -1.27644,-0.539091 -0.84473,-0.402283 -1.64739,-0.889549 -2.42108,-1.413869 -1.23074,-0.869131 -2.42083,-1.791778 -3.55551,-2.784015 -1.1828,-1.015992 -2.34399,-2.057304 -3.55342,-3.042005 -1.31176,-1.058588 -2.66103,-2.070945 -4.06913,-2.99882 -0.55387,-0.352831 -0.88212,-0.571836 -1.4526,-0.895976 -0.87417,-0.496683 -1.79046,-0.916284 -2.72625,-1.2823979 -1.41894,-0.532282 -2.85715,-1.024995 -4.34464,-1.329908 -1.32119,-0.268555 -2.65168,-0.505344 -4.00212,-0.556834 -0.99784,-0.04535 -1.99578,-0.04221 -2.99451,-0.03782 -0.90565,0 -1.8113,0 -2.71696,0 -0.5256,0 -1.05119,0 -1.57679,0 -0.62225,0 -0.62225,0.88 0,0.880001 z" />
  <path
     style="fill:#000000;fill-opacity:1;fill-rule:nonzero;stroke:none;stroke-width:0.264583"
     id="path43"
     d="m 256.25332,37.071386 c 0.59783,-0.100537 1.19504,-0.20483 1.7922,-0.309322 1.07186,-0.200292 2.1541,-0.344728 3.22343,-0.558971 0.25212,-0.05051 0.50252,-0.109298 0.75378,-0.163947 1.05511,-0.249792 2.08262,-0.606642 3.07544,-1.041206 0.58244,-0.254935 0.87141,-0.407775 1.43695,-0.689903 1.42084,-0.738296 2.77614,-1.593164 4.12272,-2.45713 1.23121,-0.795064 2.45957,-1.594486 3.69746,-2.379129 0.9492,-0.606534 1.91665,-1.183524 2.89632,-1.739275 0.66771,-0.391014 1.3715,-0.712677 2.07479,-1.032883 0.6162,-0.284674 1.26184,-0.496524 1.91101,-0.691139 0.58375,-0.173509 1.17902,-0.302809 1.77169,-0.441094 0.42126,-0.10234 0.84533,-0.192434 1.27126,-0.272957 0.31794,-0.06395 0.63915,-0.101538 0.9624,-0.123142 0.17877,-0.0045 0.0895,-0.0032 0.26776,-0.0038 0.62225,-0.0026 0.61852,-0.882629 -0.004,-0.879992 v 0 c -0.21039,0.0011 -0.10267,-7.41e-4 -0.32315,0.0058 -0.35826,0.02428 -0.71442,0.06601 -1.06685,0.13649 -0.43811,0.08293 -0.87436,0.17541 -1.30769,0.28065 -0.61044,0.142493 -1.22349,0.276006 -1.82463,0.455198 -0.6872,0.206406 -1.37036,0.431669 -2.02273,0.733114 -0.727,0.331013 -1.45401,0.664485 -2.14438,1.068379 -0.99209,0.562912 -1.97191,1.147158 -2.9332,1.761409 -1.23924,0.785531 -2.46901,1.585761 -3.70155,2.381743 -1.32002,0.847019 -2.64828,1.685564 -4.04053,2.410423 -0.54031,0.269877 -0.82551,0.420608 -1.38077,0.66428 -0.9445,0.414489 -1.92191,0.755717 -2.9259,0.99435 -0.24152,0.0527 -0.48218,0.109498 -0.72456,0.158097 -1.06717,0.213977 -2.14733,0.357715 -3.21702,0.557826 -0.58811,0.102908 -1.17631,0.205333 -1.76497,0.304996 -0.616,0.088 -0.49155,0.959155 0.12445,0.871155 z" />
  <path
     style="fill:#000000;fill-opacity:1;fill-rule:nonzero;stroke:none;stroke-width:0.264583"
     id="path45"
     d="m 285.52136,25.135582 c 0.26929,0.01406 0.53926,0.01328 0.80885,0.01565 0.99682,0.0067 1.99367,0.0072 2.9905,0.0087 1.60892,0.0014 3.21785,0.005 4.82677,0.0028 1.28305,-0.0041 2.56612,-0.0052 3.84916,-0.0135 0.5587,-0.0053 1.11735,-0.01487 1.67599,-0.02443 0.62216,-0.01065 0.60711,-0.890515 -0.0151,-0.879871 v 0 c -0.55551,0.0095 -1.11103,0.01905 -1.6666,0.02432 -1.28154,0.0083 -2.56311,0.0094 -3.84467,0.01348 -1.6081,0.0021 -3.21619,-0.0015 -4.82429,-0.0028 -0.99469,-0.0015 -1.9894,-0.002 -2.98407,-0.0087 -0.24782,-0.0022 -0.49588,-0.0021 -0.74351,-0.01264 -0.6201,-0.05167 -0.69318,0.825284 -0.0731,0.876959 z" />
  <path
     style="fill:#000000;fill-opacity:1;fill-rule:nonzero;stroke:none;stroke-width:0.264583"
     id="path47"
     d="m 295.69549,21.218823 c 0.14377,0.164323 0.29111,0.325354 0.4396,0.485443 0.31715,0.33655 0.64658,0.661252 0.97895,0.982672 0.32693,0.315082 0.66587,0.617329 1.00347,0.92085 0.24793,0.224546 0.50443,0.439293 0.76017,0.654801 0.15783,0.135363 0.31687,0.269184 0.47253,0.407038 0.46582,0.412558 1.04927,-0.246223 0.58344,-0.65878 v 0 c -0.16106,-0.142642 -0.32555,-0.281198 -0.48891,-0.421195 -0.24855,-0.209444 -0.49792,-0.418037 -0.73888,-0.636267 -0.32968,-0.2964 -0.66075,-0.591461 -0.9801,-0.899063 -0.32095,-0.310318 -0.6391,-0.623759 -0.94551,-0.948532 -0.13787,-0.148619 -0.27529,-0.29784 -0.40873,-0.45033 -0.39836,-0.478028 -1.07439,0.08533 -0.67603,0.563363 z" />
  <path
     style="fill:#000000;fill-opacity:1;fill-rule:nonzero;stroke:none;stroke-width:0.264583"
     id="path48"
     d="m 295.95825,28.119042 c 0.13859,-0.101447 0.28399,-0.194343 0.4277,-0.288505 0.43201,-0.286722 0.87696,-0.552645 1.3249,-0.813445 0.47025,-0.267411 0.93301,-0.547266 1.38978,-0.836996 0.33101,-0.212273 0.65866,-0.429791 0.98231,-0.653123 0.14897,-0.101799 0.29635,-0.205874 0.44382,-0.309833 0.50857,-0.358539 0.002,-1.077774 -0.50706,-0.719235 v 0 c -0.14507,0.102276 -0.29005,0.204686 -0.43662,0.30482 -0.31424,0.216928 -0.63248,0.428058 -0.95385,0.63428 -0.44732,0.283807 -0.90061,0.557754 -1.36118,0.819609 -0.46132,0.268632 -0.91946,0.542678 -1.36443,0.837884 -0.1795,0.117652 -0.36289,0.231767 -0.53001,0.366824 -0.46508,0.413403 0.11956,1.071123 0.58464,0.65772 z" />
  <path
     style="fill:#000000;fill-opacity:1;fill-rule:nonzero;stroke:none;stroke-width:0.264583"
     id="path49"
     d="m 300.74837,24.731985 c -0.002,0.0043 -0.0178,0.01631 -0.0127,0.01307 0.0245,-0.01543 0.0462,-0.03475 0.0701,-0.05113 0.0252,-0.01731 0.0932,-0.06203 0.11339,-0.0754 0.24004,-0.151587 0.47684,-0.30813 0.71508,-0.462494 0.3489,-0.230315 0.72103,-0.420796 1.09824,-0.59953 0.45418,-0.217152 0.92242,-0.389594 1.40077,-0.544419 0.30338,-0.09363 0.60885,-0.181853 0.92044,-0.244089 0.19896,-0.03974 0.2399,-0.04279 0.43889,-0.07112 0.25223,-0.03058 0.50878,-0.05145 0.76248,-0.02367 0.14643,0.01603 0.17901,0.03077 0.32057,0.06914 0.28469,0.08538 0.54443,0.232157 0.78315,0.4073 0.043,0.03153 0.0837,0.06604 0.12553,0.09906 0.23678,0.200794 0.36435,0.470775 0.48818,0.74912 0.0698,0.165863 0.12767,0.339636 0.1432,0.519964 0.009,0.102952 0.004,0.132971 2.5e-4,0.235893 -0.0138,0.151422 -0.0513,0.30009 -0.1201,0.436163 -0.0426,0.0842 -0.0869,0.148591 -0.13801,0.228494 -0.11934,0.163604 -0.25356,0.316935 -0.4037,0.453125 -0.0822,0.07457 -0.15659,0.1279 -0.24524,0.195287 -0.27896,0.214116 -0.6048,0.344082 -0.93376,0.459103 -0.38536,0.136907 -0.79622,0.162978 -1.20157,0.172626 -0.43589,-0.0012 -0.86664,-0.07266 -1.29224,-0.160345 -0.3897,-0.07794 -0.76337,-0.212404 -1.12807,-0.367587 -0.29519,-0.127992 -0.56825,-0.297196 -0.83258,-0.479013 -0.19059,-0.134469 -0.37221,-0.281226 -0.54391,-0.439017 -0.14132,-0.124647 -0.27015,-0.262271 -0.39667,-0.401632 -0.0715,-0.07471 -0.13906,-0.152919 -0.20734,-0.2305 -0.41111,-0.467106 -1.0717,0.114292 -0.66059,0.581397 v 0 c 0.0714,0.08109 0.14212,0.162755 0.21669,0.240951 0.14476,0.159157 0.29243,0.31602 0.45365,0.458819 0.20249,0.184857 0.41534,0.358194 0.6401,0.515466 0.3132,0.214679 0.63758,0.413143 0.98724,0.563757 0.41873,0.176878 0.84758,0.330233 1.29454,0.419387 0.49124,0.100487 0.98864,0.180191 1.49164,0.17803 0.0839,-0.0023 0.16785,-0.0028 0.25167,-0.0068 0.41321,-0.01991 0.82794,-0.07868 1.21966,-0.215476 0.0708,-0.02508 0.14221,-0.04864 0.21248,-0.07523 0.34228,-0.12953 0.6713,-0.293938 0.96405,-0.515235 0.13843,-0.106598 0.19727,-0.147212 0.32676,-0.266039 0.1995,-0.18307 0.37643,-0.390251 0.53162,-0.611803 0.0861,-0.13795 0.13533,-0.207996 0.20498,-0.357138 0.11062,-0.236878 0.17076,-0.492683 0.18837,-0.752971 0.003,-0.168262 0.01,-0.220064 -0.009,-0.388779 -0.0294,-0.260237 -0.10815,-0.511965 -0.21113,-0.75187 -0.0283,-0.0625 -0.055,-0.125792 -0.085,-0.187504 -0.16517,-0.339451 -0.36813,-0.654408 -0.66438,-0.894459 -0.0569,-0.044 -0.11243,-0.08977 -0.17063,-0.132001 -0.32251,-0.23404 -0.67719,-0.422142 -1.06098,-0.533014 -0.0821,-0.02024 -0.16324,-0.04456 -0.24621,-0.06072 -0.38918,-0.07581 -0.78982,-0.05117 -1.18051,-0.0033 -0.22753,0.03302 -0.2754,0.03679 -0.50218,0.0826 -0.33948,0.06858 -0.67262,0.164044 -1.0032,0.266523 -0.21945,0.07122 -0.30648,0.09734 -0.52403,0.176557 -0.33366,0.121501 -0.66026,0.261189 -0.98261,0.409929 -0.41203,0.195713 -0.81832,0.404549 -1.19964,0.65612 -0.2405,0.155907 -0.47968,0.313775 -0.72193,0.466977 -0.10584,0.07004 -0.21408,0.138824 -0.3076,0.225186 -0.44,0.44 0.18225,1.062254 0.62225,0.622254 z" />
  <g
     id="g49"
     transform="rotate(22.302527,109.05757,5.9671545)">
    <path
       style="fill:#000000;fill-opacity:1;fill-rule:nonzero;stroke:none;stroke-width:0.264583"
       id="path16"
       d="m 103.94233,38.604341 c -0.38296,-0.09726 -0.75978,-0.217208 -1.14105,-0.321557 -0.7446,-0.19452 -1.4919,-0.379067 -2.24031,-0.558417 -0.10725,-0.02515 -0.21449,-0.05029 -0.32174,-0.07544 -0.60582,-0.142036 -0.80669,0.714732 -0.20086,0.856768 v 0 c 0.10584,0.02481 0.21169,0.04963 0.31753,0.07444 0.73934,0.177154 1.47756,0.359483 2.21317,0.551453 0.39267,0.107378 0.7805,0.231745 1.17538,0.330212 0.60632,0.13992 0.8042,-0.717544 0.19788,-0.857464 z" />
    <path
       style="fill:#000000;fill-opacity:1;fill-rule:nonzero;stroke:none;stroke-width:0.264583"
       id="path17"
       d="m 100.99019,34.198885 c -0.0792,0.216277 -0.17028,0.427846 -0.26019,0.639834 -0.15403,0.359616 -0.29787,0.723461 -0.45009,1.083833 -0.12816,0.298906 -0.26019,0.596076 -0.38673,0.895692 -0.0885,0.20656 -0.16535,0.417747 -0.24804,0.626636 -0.0467,0.122184 -0.0954,0.243542 -0.14508,0.364547 -0.23628,0.57565 0.57782,0.909796 0.81409,0.334146 v 0 c 0.0511,-0.124404 0.10115,-0.249159 0.1492,-0.374766 0.0803,-0.202725 0.1548,-0.407666 0.24051,-0.608215 0.12653,-0.299627 0.2587,-0.596746 0.38674,-0.895716 0.15196,-0.359973 0.29584,-0.723297 0.44954,-1.082543 0.10165,-0.239669 0.20494,-0.478855 0.29114,-0.724652 0.18299,-0.594738 -0.65809,-0.853533 -0.84109,-0.258796 z" />
    <path
       style="fill:#000000;fill-opacity:1;fill-rule:nonzero;stroke:none;stroke-width:0.264583"
       id="path18"
       d="m 99.37296,37.800313 c -0.11939,0.154612 -0.24095,0.307443 -0.36348,0.459611 -0.23335,0.292407 -0.46734,0.584585 -0.71512,0.864939 -0.23829,0.273545 -0.51342,0.510547 -0.80742,0.721803 -0.27288,0.197674 -0.57795,0.337468 -0.89563,0.44512 -0.35296,0.113493 -0.72304,0.152809 -1.09179,0.167245 -0.3041,0.003 -0.6126,-0.0097 -0.91191,-0.06871 -0.0492,-0.0097 -0.0974,-0.02377 -0.14616,-0.03565 -0.20235,-0.05938 -0.40624,-0.138454 -0.56839,-0.277602 -0.0253,-0.02173 -0.0479,-0.0465 -0.0718,-0.06975 -0.10016,-0.108456 -0.1873,-0.23235 -0.24829,-0.367418 -0.0349,-0.07729 -0.0428,-0.129137 -0.0627,-0.212093 -0.0536,-0.256497 -0.0358,-0.515354 0.0151,-0.770024 0.0598,-0.222354 0.18118,-0.417494 0.3272,-0.592864 0.16764,-0.186717 0.39257,-0.289926 0.62221,-0.378319 0.29964,-0.106025 0.61446,-0.144255 0.92947,-0.16775 0.33768,-0.01958 0.67542,0.01989 1.00858,0.07183 0.33779,0.05731 0.66814,0.147291 0.99728,0.240812 0.35089,0.09946 0.70124,0.200464 1.04942,0.309056 0.31145,0.09248 0.62245,0.186661 0.93451,0.277061 0.0447,0.01253 0.0893,0.02505 0.13398,0.03758 0.59916,0.167966 0.8367,-0.679368 0.23754,-0.847334 v 0 c -0.0423,-0.01184 -0.0845,-0.02368 -0.12678,-0.03552 -0.30634,-0.08865 -0.61157,-0.181258 -0.91733,-0.271896 -0.35534,-0.11075 -0.71282,-0.214014 -1.07093,-0.315463 -0.36401,-0.103331 -0.72969,-0.201666 -1.10341,-0.263982 -0.39972,-0.06121 -0.80454,-0.105918 -1.20944,-0.07962 -0.40233,0.03097 -0.80356,0.08594 -1.18451,0.226106 -0.16177,0.06441 -0.22389,0.08394 -0.37815,0.16632 -0.22899,0.122286 -0.43561,0.282103 -0.6066,0.477655 -0.0385,0.04847 -0.079,0.09545 -0.11561,0.1454 -0.18334,0.250327 -0.31812,0.533996 -0.39173,0.835436 -0.0294,0.158026 -0.0424,0.205686 -0.0552,0.36783 -0.021,0.265771 -0.003,0.533669 0.054,0.794098 0.0197,0.07026 0.0354,0.141785 0.0592,0.210772 0.1032,0.299137 0.28729,0.564961 0.50659,0.790217 0.0493,0.04404 0.0962,0.0908 0.14779,0.132113 0.25883,0.207377 0.56955,0.336773 0.88684,0.42406 0.0709,0.0162 0.14129,0.03493 0.21273,0.0486 0.35591,0.06811 0.72186,0.08319 1.08318,0.07829 0.45366,-0.01992 0.90801,-0.07123 1.34134,-0.214347 0.0687,-0.02392 0.13822,-0.04591 0.20627,-0.07177 0.32611,-0.123956 0.63383,-0.292719 0.91925,-0.492759 0.34504,-0.251416 0.67079,-0.529011 0.95121,-0.85241 0.25596,-0.290702 0.49948,-0.592034 0.74057,-0.89514 0.11687,-0.145139 0.23415,-0.289922 0.34621,-0.438826 0.40496,-0.472451 -0.26318,-1.045147 -0.66814,-0.572697 z" />
    <path
       style="fill:#000000;fill-opacity:1;fill-rule:nonzero;stroke:none;stroke-width:0.264583"
       id="path19"
       d="m 100.64005,38.233487 c 0.3431,-0.141879 0.67897,-0.303027 1.01523,-0.460693 0.80505,-0.365589 1.63313,-0.677279 2.45903,-0.991811 0.95955,-0.361521 1.92441,-0.708159 2.87914,-1.082333 0.97351,-0.382345 1.94792,-0.762359 2.92123,-1.145197 0.84708,-0.32993 1.69214,-0.664932 2.5374,-0.999462 0.67587,-0.263506 1.34666,-0.539338 2.01622,-0.81836 0.5407,-0.222041 1.07846,-0.45107 1.61784,-0.676311 0.44087,-0.180034 0.87839,-0.368061 1.31809,-0.550887 0.34755,-0.151662 0.69588,-0.301493 1.04423,-0.451293 0.31873,-0.139292 0.64418,-0.262109 0.96837,-0.387897 0.20374,-0.07759 0.40622,-0.158397 0.60964,-0.236815 0.58059,-0.223852 0.26402,-1.044937 -0.31658,-0.821085 v 0 c -0.204,0.07867 -0.40709,0.159662 -0.6114,0.2375 -0.33402,0.129619 -0.66928,0.256344 -0.99767,0.399878 -0.34511,0.148406 -0.69023,0.296739 -1.03446,0.447159 -0.44011,0.183013 -0.87805,0.371187 -1.31933,0.551402 -0.53917,0.22516 -1.07674,0.454104 -1.61724,0.676059 -0.66469,0.276994 -1.33058,0.550853 -2.00155,0.812405 -0.84468,0.334312 -1.68918,0.66907 -2.53567,0.998779 -0.97299,0.382713 -1.94708,0.762599 -2.92026,1.144816 -0.95206,0.37323 -1.91439,0.718509 -2.87119,1.079262 -0.84636,0.322336 -1.69481,0.642065 -2.51947,1.017449 -0.3309,0.1552 -0.66091,0.314536 -0.999,0.45328 -0.56862,0.252722 -0.21122,1.056876 0.3574,0.804155 z" />
    <path
       style="fill:#000000;fill-opacity:1;fill-rule:nonzero;stroke:none;stroke-width:0.264583"
       id="path21"
       d="m 117.61675,24.647904 c 0.43638,-0.181272 0.88058,-0.344277 1.32254,-0.511588 1.64995,-0.61808 3.29095,-1.258958 4.92727,-1.912146 1.29766,-0.521334 2.5875,-1.061668 3.87568,-1.605923 0.6033,-0.257159 0.30936,-0.131759 0.88183,-0.376173 0.57228,-0.244333 0.22674,-1.053656 -0.34554,-0.809323 v 0 c -0.57114,0.243847 -0.27821,0.118879 -0.87878,0.374877 -1.28278,0.541978 -2.56721,1.080082 -3.85944,1.599253 -1.63144,0.651247 -3.26755,1.290219 -4.91258,1.906435 -0.48151,0.182285 -0.96835,0.354657 -1.43835,0.56533 -0.54395,0.302193 -0.11658,1.071451 0.42737,0.769258 z" />
    <path
       style="fill:#000000;fill-opacity:1;fill-rule:nonzero;stroke:none;stroke-width:0.264583"
       id="path22"
       d="m 127.02052,17.292148 c 0.0665,0.19182 0.14522,0.379082 0.22391,0.566128 0.17377,0.40362 0.34949,0.806392 0.52312,1.210068 0.1708,0.41606 0.36223,0.822798 0.56018,1.226466 0.16682,0.336936 0.34057,0.670332 0.51726,1.002172 0.12352,0.229213 0.24761,0.458116 0.3701,0.687884 0.044,0.08268 0.0871,0.165819 0.13001,0.249082 0.28497,0.553165 1.06726,0.150156 0.78229,-0.403009 v 0 c -0.0448,-0.08692 -0.0898,-0.17373 -0.13575,-0.260049 -0.12243,-0.229647 -0.24642,-0.458446 -0.36991,-0.687522 -0.17212,-0.323197 -0.34137,-0.647912 -0.5039,-0.976055 -0.19157,-0.390545 -0.37687,-0.784031 -0.54189,-1.18669 -0.17273,-0.401568 -0.3475,-0.802259 -0.52043,-1.203743 -0.0748,-0.177725 -0.14954,-0.355684 -0.21264,-0.538008 -0.22152,-0.581489 -1.04387,-0.268213 -0.82235,0.313276 z" />
    <path
       style="fill:#000000;fill-opacity:1;fill-rule:nonzero;stroke:none;stroke-width:0.264583"
       id="path23"
       d="m 129.23033,19.809745 c 0.0338,-0.07948 0.0693,-0.158097 0.1072,-0.235741 0.11559,-0.229061 0.24844,-0.44888 0.37946,-0.669305 0.12618,-0.203168 0.25476,-0.405614 0.4066,-0.59088 0.0823,-0.100349 0.15784,-0.18103 0.24513,-0.277071 0.18752,-0.197432 0.39762,-0.373615 0.63585,-0.50688 0.0474,-0.02651 0.0966,-0.0496 0.14491,-0.0744 0.21064,-0.10142 0.43504,-0.17253 0.66451,-0.216685 0.13481,-0.02594 0.19802,-0.02952 0.33392,-0.04357 0.14249,-0.0041 0.28932,-0.01247 0.42933,0.02238 0.0374,0.0093 0.073,0.02482 0.10877,0.03911 0.13381,0.05345 0.12831,0.05537 0.25498,0.12451 0.19894,0.115458 0.38291,0.257817 0.53348,0.432533 0.0263,0.03048 0.0499,0.06316 0.0748,0.09474 0.0923,0.127286 0.17016,0.264394 0.21926,0.414285 0.0238,0.07261 0.0335,0.134502 0.0484,0.2095 0.0223,0.156392 0.009,0.316602 -0.04,0.466959 -0.009,0.02658 -0.0204,0.05209 -0.0306,0.07813 -0.043,0.102922 -0.10293,0.199714 -0.18537,0.275841 -0.0487,0.04495 -0.0985,0.07933 -0.15186,0.118939 -0.20731,0.149504 -0.44779,0.234951 -0.68905,0.311604 -0.17232,0.05129 -0.34817,0.09105 -0.52717,0.109662 -0.10864,0.01129 -0.15774,0.01167 -0.2676,0.01635 -0.28238,0.0096 -0.56403,-0.01361 -0.84483,-0.04028 -0.29288,-0.02584 -0.57761,-0.09983 -0.85998,-0.178167 -0.27316,-0.08171 -0.5455,-0.166152 -0.81775,-0.25083 -0.14463,-0.04459 -0.0737,-0.02286 -0.21288,-0.06522 -0.59531,-0.181127 -0.85147,0.660767 -0.25616,0.841894 v 0 c 0.13543,0.0412 0.0662,0.02 0.20769,0.06362 0.28109,0.08742 0.56224,0.174726 0.84439,0.258656 0.33211,0.0917 0.66739,0.17595 1.01169,0.20612 0.32154,0.0304 0.64417,0.05536 0.96746,0.04331 0.14187,-0.0067 0.20271,-0.0072 0.34441,-0.0232 0.23051,-0.02595 0.45728,-0.0768 0.67917,-0.143865 0.13734,-0.04428 0.20046,-0.06217 0.3354,-0.115697 0.21848,-0.08666 0.42766,-0.19569 0.61825,-0.333772 0.11396,-0.08813 0.17214,-0.126917 0.27409,-0.231748 0.15667,-0.161106 0.27461,-0.354667 0.35726,-0.562902 0.0187,-0.05351 0.0399,-0.10621 0.056,-0.16053 0.0835,-0.280478 0.0966,-0.576972 0.0488,-0.86494 -0.0328,-0.151489 -0.0396,-0.205027 -0.0917,-0.35393 -0.0814,-0.232396 -0.20589,-0.446142 -0.35276,-0.642848 -0.0401,-0.04889 -0.0784,-0.09932 -0.12025,-0.14668 -0.2163,-0.244533 -0.47818,-0.444366 -0.76118,-0.605482 -0.16409,-0.08501 -0.23265,-0.128365 -0.40883,-0.188056 -0.0805,-0.02729 -0.16229,-0.05188 -0.24553,-0.06931 -0.21143,-0.04427 -0.43005,-0.03662 -0.64402,-0.02567 -0.18555,0.0205 -0.25239,0.02387 -0.43795,0.0611 -0.30226,0.06064 -0.59685,0.158305 -0.87373,0.294005 -0.0663,0.03502 -0.13384,0.06779 -0.1989,0.10505 -0.30881,0.176825 -0.58276,0.406918 -0.82649,0.665137 -0.10924,0.12065 -0.18601,0.20224 -0.28923,0.329694 -0.17336,0.214046 -0.32284,0.44568 -0.46715,0.679871 -0.14353,0.241519 -0.28871,0.482577 -0.41437,0.734053 -0.041,0.08456 -0.0803,0.169948 -0.11695,0.256448 -0.25749,0.566479 0.54363,0.930626 0.80113,0.364147 z" />
    <path
       style="fill:#000000;fill-opacity:1;fill-rule:nonzero;stroke:none;stroke-width:0.264583"
       id="path50"
       d="m 109.75888,25.48368 c -0.008,0.108403 -0.0127,0.217347 -0.006,0.325983 0.003,0.04257 0.007,0.08497 0.0109,0.127462 0.0367,0.267767 0.0947,0.534102 0.18214,0.790163 0.0211,0.06192 0.0454,0.122735 0.0681,0.184098 0.1319,0.334052 0.31583,0.644921 0.54332,0.922815 0.049,0.0599 0.10186,0.116584 0.15279,0.174876 0.28696,0.307419 0.63397,0.552329 0.99941,0.757789 0.0744,0.04184 0.15086,0.08002 0.22629,0.120031 0.33269,0.169171 0.69135,0.277035 1.05651,0.349389 0.21495,0.04259 0.31659,0.05236 0.53171,0.08043 0.19467,0.0164 0.31695,0.03268 0.51346,0.0248 0.26057,-0.01045 0.53325,-0.05516 0.78493,-0.123469 0.0859,-0.02332 0.16991,-0.05324 0.25486,-0.07986 0.40976,-0.142172 0.79212,-0.354164 1.14076,-0.611232 0.0744,-0.05487 0.14587,-0.113611 0.21881,-0.170417 0.0734,-0.06549 0.1505,-0.126962 0.22004,-0.196481 0.28847,-0.288362 0.51625,-0.630306 0.7036,-0.991005 0.0422,-0.08127 0.0797,-0.164898 0.1196,-0.247346 0.14372,-0.334348 0.23749,-0.687347 0.28185,-1.048432 0.0286,-0.232968 0.0242,-0.292052 0.0297,-0.525669 -0.013,-0.381031 -0.0251,-0.773689 -0.13781,-1.141231 -0.0231,-0.07544 -0.0539,-0.148314 -0.0808,-0.222481 -0.14088,-0.323533 -0.33818,-0.620041 -0.5628,-0.891366 -0.0422,-0.05101 -0.0869,-0.09994 -0.13034,-0.149912 -0.20672,-0.222706 -0.4338,-0.428341 -0.6839,-0.601642 -0.0472,-0.03272 -0.0962,-0.06281 -0.14431,-0.09421 -0.19406,-0.116011 -0.40275,-0.206001 -0.61879,-0.27222 -0.13132,-0.04025 -0.1737,-0.04715 -0.30726,-0.07722 -0.20983,-0.03863 -0.42285,-0.05607 -0.63611,-0.05387 -0.13347,0.0014 -0.17085,0.0061 -0.30409,0.01562 -0.29897,0.02418 -0.59192,0.08983 -0.88319,0.158443 -0.26363,0.06118 -0.52192,0.141391 -0.77653,0.232624 -0.1671,0.06337 -0.33328,0.130381 -0.4933,0.210259 -0.0878,0.04384 -0.15721,0.0831 -0.24296,0.130273 -0.22363,0.127882 -0.43654,0.273125 -0.64599,0.422764 -0.1755,0.123106 -0.33968,0.260454 -0.49427,0.408724 -0.0914,0.09016 -0.18222,0.181454 -0.26202,0.282314 -0.0526,0.06647 -0.0739,0.09959 -0.12117,0.167991 -0.099,0.142726 -0.17889,0.296324 -0.25235,0.453278 -0.066,0.138745 -0.11215,0.285093 -0.14947,0.433748 -0.0325,0.135085 -0.0394,0.274328 -0.0439,0.412649 -7.4e-4,0.07619 -7.6e-4,0.0388 -1e-5,0.112168 0.007,0.62221 0.88737,0.611709 0.87994,-0.0105 v 0 c -6.9e-4,-0.04924 -5.7e-4,-0.02446 -3.5e-4,-0.07435 0.002,-0.07626 0.004,-0.153421 0.0185,-0.228444 0.0226,-0.09352 0.051,-0.185496 0.0925,-0.272619 0.0529,-0.113354 0.1087,-0.225021 0.18064,-0.327875 0.0234,-0.03441 0.0479,-0.07151 0.0733,-0.104605 0.0584,-0.07597 0.1276,-0.142563 0.19513,-0.210198 0.1229,-0.119316 0.25524,-0.227807 0.39537,-0.326443 0.18139,-0.129815 0.36562,-0.256025 0.5588,-0.367841 0.0588,-0.03245 0.13686,-0.07629 0.19749,-0.106915 0.13334,-0.06736 0.27242,-0.122797 0.41177,-0.176245 0.22312,-0.08048 0.44971,-0.15049 0.68088,-0.204257 0.24614,-0.05812 0.4934,-0.115513 0.74596,-0.137331 0.22864,-0.01757 0.45822,-0.02135 0.68497,0.01979 0.22311,0.04839 0.44026,0.112938 0.63867,0.229264 0.034,0.0217 0.0687,0.04229 0.10203,0.06508 0.19781,0.135444 0.37747,0.296728 0.54153,0.471044 0.0341,0.03866 0.0691,0.07644 0.10216,0.115993 0.16752,0.200637 0.31809,0.41824 0.42953,0.655105 0.0476,0.120845 0.0647,0.149763 0.0923,0.278434 0.0534,0.248818 0.0598,0.50589 0.0704,0.759014 -0.001,0.06797 2.3e-4,0.136021 -0.003,0.203925 -0.0166,0.345576 -0.0902,0.686192 -0.22185,1.006279 -0.0323,0.06785 -0.0628,0.136661 -0.097,0.203563 -0.10734,0.209522 -0.22939,0.409907 -0.37665,0.59392 -0.0461,0.05763 -0.0931,0.114872 -0.14471,0.167609 -0.0548,0.05593 -0.11597,0.105198 -0.17395,0.157798 -0.0603,0.04744 -0.11934,0.09647 -0.18084,0.142316 -0.27633,0.205969 -0.57864,0.378825 -0.90405,0.494054 -0.0621,0.02034 -0.12347,0.0433 -0.18641,0.06101 -0.12509,0.0352 -0.26396,0.06143 -0.39245,0.07973 -0.0616,0.0088 -0.12333,0.01762 -0.18545,0.02094 -0.1546,0.0082 -0.2533,-0.0051 -0.40856,-0.01758 -0.0753,-0.0096 -0.15082,-0.01781 -0.22593,-0.02886 -0.36658,-0.05392 -0.73118,-0.14006 -1.06432,-0.306482 -0.0627,-0.03291 -0.12633,-0.06427 -0.18823,-0.09873 -0.22982,-0.127947 -0.46543,-0.280044 -0.66096,-0.456892 -0.0442,-0.03996 -0.0847,-0.08383 -0.12701,-0.125748 -0.0385,-0.04314 -0.0784,-0.08498 -0.11536,-0.129416 -0.17365,-0.208905 -0.31593,-0.441741 -0.41657,-0.69428 -0.0178,-0.04699 -0.0367,-0.09363 -0.0533,-0.14108 -0.0687,-0.1963 -0.11296,-0.401002 -0.14507,-0.606149 -0.0106,-0.102313 -0.014,-0.204706 -0.004,-0.307251 0.0463,-0.620533 -0.83131,-0.68594 -0.87756,-0.06541 z" />
  </g>
</svg>
