<?xml version="1.0" encoding="UTF-8" standalone="no"?>
<svg
   id="svg2369"
   version="1.1"
   viewBox="0 0 152.0007 46.257706"
   height="46.257706mm"
   width="152.0007mm"
   sodipodi:docname="29 soweli wan li suli. soweli tu li suli ala. soweli tu li lili..svg"
   inkscape:version="1.3 (0e150ed6c4, 2023-07-21)"
   xmlns:inkscape="http://www.inkscape.org/namespaces/inkscape"
   xmlns:sodipodi="http://sodipodi.sourceforge.net/DTD/sodipodi-0.dtd"
   xmlns="http://www.w3.org/2000/svg"
   xmlns:svg="http://www.w3.org/2000/svg"
   xmlns:rdf="http://www.w3.org/1999/02/22-rdf-syntax-ns#"
   xmlns:cc="http://creativecommons.org/ns#"
   xmlns:dc="http://purl.org/dc/elements/1.1/">
  <sodipodi:namedview
     id="namedview1"
     pagecolor="#ffffff"
     bordercolor="#000000"
     borderopacity="0.25"
     inkscape:showpageshadow="2"
     inkscape:pageopacity="0.0"
     inkscape:pagecheckerboard="0"
     inkscape:deskcolor="#d1d1d1"
     inkscape:document-units="mm"
     inkscape:zoom="1.4142136"
     inkscape:cx="251.73001"
     inkscape:cy="66.114484"
     inkscape:window-width="1920"
     inkscape:window-height="1051"
     inkscape:window-x="-9"
     inkscape:window-y="-9"
     inkscape:window-maximized="1"
     inkscape:current-layer="svg2369" />
  <defs
     id="defs2363" />
  <metadata
     id="metadata2366">
    <rdf:RDF>
      <cc:Work
         rdf:about="">
        <dc:format>image/svg+xml</dc:format>
        <dc:type
           rdf:resource="http://purl.org/dc/dcmitype/StillImage" />
        <dc:title />
      </cc:Work>
    </rdf:RDF>
  </metadata>
  <path
     style="fill:#ff4400;fill-opacity:1;fill-rule:nonzero;stroke:none;stroke-width:0.264583"
     id="path20"
     d="m 144.51035,25.915903 c -0.0745,0.07681 -0.12119,0.172668 -0.16406,0.269319 -0.0589,0.13597 -0.0865,0.281326 -0.10833,0.426977 -0.0249,0.184785 -0.0376,0.370914 -0.0423,0.557223 -0.006,0.263623 0.0468,0.521777 0.1068,0.776867 0.054,0.22955 0.14291,0.450151 0.26348,0.65287 0.0264,0.04444 0.0557,0.08715 0.0835,0.13073 0.14579,0.21309 0.3171,0.41247 0.52256,0.570617 0.0473,0.03644 0.0977,0.06875 0.14656,0.103129 0.18541,0.118782 0.38499,0.21449 0.59117,0.291396 0.0509,0.019 0.10177,0.0384 0.154,0.0533 0.0646,0.01844 0.13074,0.03105 0.19611,0.04658 0.32797,0.05397 0.66316,0.05297 0.99259,0.01177 0.0659,-0.0082 0.13125,-0.01987 0.19688,-0.0298 0.26423,-0.04839 0.52364,-0.120774 0.77143,-0.224962 0.16464,-0.06923 0.20373,-0.0939 0.36168,-0.176549 0.26013,-0.143552 0.50484,-0.315613 0.72792,-0.51196 0.0392,-0.03453 0.0769,-0.07084 0.11528,-0.106268 0.17517,-0.172992 0.32727,-0.370945 0.43159,-0.594934 0.0183,-0.03925 0.0332,-0.07996 0.0499,-0.119943 0.0487,-0.144566 0.0717,-0.288774 0.048,-0.441283 -0.008,-0.05078 -0.0205,-0.101457 -0.0406,-0.14873 -0.0678,-0.158999 -0.0973,-0.170003 -0.21027,-0.288674 -0.0369,-0.02727 -0.0719,-0.0572 -0.11065,-0.0818 -0.14883,-0.09459 -0.32825,-0.15154 -0.50427,-0.162359 -0.0487,-0.003 -0.0975,2.65e-4 -0.14622,5.29e-4 -0.14551,0.0146 -0.28611,0.05074 -0.41939,0.11125 -0.0459,0.02082 -0.0901,0.04523 -0.13407,0.0699 -0.0376,0.02111 -0.0749,0.04294 -0.1105,0.06733 -0.0441,0.03021 -0.0854,0.06418 -0.12816,0.09627 -0.21212,0.182433 -0.38502,0.40608 -0.52351,0.64851 -0.0292,0.05117 -0.0554,0.104052 -0.083,0.156077 -0.0759,0.152673 -0.14067,0.310634 -0.1974,0.471353 -0.0312,0.08853 -0.0714,0.211585 -0.0931,0.303125 -0.0132,0.0556 -0.022,0.112123 -0.0331,0.168182 -0.0134,0.114898 -0.0318,0.224423 -0.0211,0.341006 0.0139,0.151879 0.0473,0.283729 0.10902,0.42259 0.0724,0.162986 0.11999,0.215963 0.22109,0.359463 0.22584,0.283271 0.521,0.495226 0.83951,0.662972 0.0622,0.03274 0.12614,0.06198 0.18921,0.09298 0.35564,0.163914 0.74279,0.243602 1.13227,0.268737 0.0829,0.0053 0.16599,0.0057 0.24899,0.0086 0.38407,0.0033 0.76723,-0.03434 1.14507,-0.101928 0.0668,-0.01196 0.13318,-0.02604 0.19978,-0.03905 0.23786,-0.05143 0.12137,-0.02522 0.34951,-0.07846 0.60592,-0.141653 0.40559,-0.998548 -0.20032,-0.856895 v 0 c -0.20865,0.04886 -0.10235,0.02484 -0.31894,0.07188 -0.0575,0.01138 -0.11486,0.02371 -0.17255,0.03414 -0.32177,0.05823 -0.64796,0.09209 -0.97519,0.09074 -0.0651,-0.0019 -0.13032,-0.0016 -0.19536,-0.0053 -0.22826,-0.01299 -0.46247,-0.04667 -0.679,-0.122795 -0.0505,-0.01775 -0.099,-0.04044 -0.14857,-0.06066 -0.049,-0.02365 -0.0986,-0.04604 -0.14696,-0.07094 -0.20577,-0.105942 -0.40269,-0.234178 -0.55503,-0.410618 -0.0421,-0.05499 -0.0785,-0.09753 -0.1117,-0.157578 -0.0122,-0.02209 -0.0212,-0.04586 -0.0317,-0.0688 -0.006,-0.01389 -0.0164,-0.02662 -0.0191,-0.04165 -0.01,-0.05399 0.001,-0.124476 0.006,-0.177003 0.005,-0.0314 0.009,-0.06314 0.0159,-0.09421 0.0161,-0.07134 0.0468,-0.165155 0.0705,-0.233148 0.0435,-0.124817 0.0929,-0.247671 0.15067,-0.366601 0.044,-0.08481 0.0668,-0.133541 0.11799,-0.213315 0.0712,-0.110953 0.19329,-0.253923 0.24962,-0.306301 0.0983,-0.09141 0.11771,-0.127061 0.18423,-0.173761 0.04,-0.0281 0.17868,-0.126985 0.17881,-0.0254 1.4e-4,0.101587 -0.12661,0.249822 -0.22618,0.351232 -0.0284,0.02656 -0.0562,0.05381 -0.0853,0.07967 -0.17447,0.155382 -0.3664,0.291684 -0.5703,0.405548 -0.1267,0.0676 -0.14164,0.07883 -0.27438,0.136414 -0.18655,0.08093 -0.38293,0.135093 -0.58234,0.173691 -0.0504,0.008 -0.10062,0.0173 -0.15122,0.02397 -0.23584,0.03103 -0.47582,0.03544 -0.7119,0.005 -0.0343,-0.0068 -0.0692,-0.01116 -0.103,-0.02032 -0.0387,-0.01048 -0.0763,-0.02471 -0.11389,-0.03846 -0.14513,-0.05305 -0.28643,-0.118062 -0.41815,-0.199051 -0.0265,-0.01741 -0.054,-0.03337 -0.0795,-0.0522 -0.13816,-0.101902 -0.25183,-0.234469 -0.34927,-0.374618 -0.0179,-0.02701 -0.0367,-0.05344 -0.0536,-0.08103 -0.081,-0.131763 -0.14114,-0.275625 -0.17557,-0.426464 -0.0433,-0.182173 -0.086,-0.365963 -0.0835,-0.554495 0.003,-0.150376 0.0142,-0.30054 0.0332,-0.449765 0.01,-0.06876 0.0192,-0.138073 0.0444,-0.2032 0.0329,-0.07996 -0.0195,0.04649 0.0165,-0.03719 5.3e-4,-0.0011 0.001,-0.0046 5.3e-4,-0.0037 -0.003,0.0029 -0.005,0.0064 -0.007,0.0093 -0.01,0.01119 -0.0201,0.02212 -0.0301,0.03316 0.44,-0.44 -0.18225,-1.062254 -0.62225,-0.622254 z"
     sodipodi:nodetypes="ccccsscscsscccscscscccccscssscsccsccccscccsccsscccsscscsccccscszzzcccscccsccccccccccccccc" />
  <g
     transform="translate(-37.952991,-101.33041)"
     id="layer1">
    <g
       transform="matrix(0.26458333,0,0,0.26458333,36.129144,99.030652)"
       id="g2938">
      <path
         style="fill:#fbd7c7"
         d="m 111.7,81.3 c -1.3,7 0.1,10.3 -0.5,11.5 -0.6,1.2 -1.6,0.6 -1.6,0.6 0,0 -2.5,5.9 -4.3,5.9 -1.8,0 -1.8,-3.6 -1.8,-3.6 0,0 -1.2,3.2 -3.4,2.8 -1.9,-0.4 -0.5,-2.5 1.6,-7.7 2.2,-5.6 2.8,-11.5 2.8,-11.5 0,0 8.4,-5 7.2,2 z"
         id="path2914" />
      <path
         style="opacity:0.2"
         d="m 104.2,132.9 c 16.5,-8.9 57.4,-26.6 32.9,-41.6 -22.9,-14 -60.9,6.8 -77.1,15.4 -23.8,12.7 -47.8,29.9 -33.2,39 14.9,9.3 46.4,4 77.4,-12.8 z"
         id="path2916" />
      <path
         style="opacity:0.15"
         d="m 111.7,81.3 c -1.3,7 0.1,10.3 -0.5,11.5 -0.6,1.2 -1.6,0.6 -1.6,0.6 0,0 -2.5,5.9 -4.3,5.9 -1.8,0 -1.8,-3.6 -1.8,-3.6 0,0 -1.2,3.2 -3.4,2.8 -1.9,-0.4 -0.5,-2.5 1.6,-7.7 2.2,-5.6 2.8,-11.5 2.8,-11.5 0,0 8.4,-5 7.2,2 z"
         id="path2918" />
      <path
         style="fill:#2d3134"
         d="m 109.2,94.2 c -1.5,-0.1 -4.7,-0.5 -7.9,-2.2 -1.8,4.4 -2.9,6.2 -1.1,6.6 2.1,0.4 3.4,-2.8 3.4,-2.8 0,0 0,3.6 1.8,3.6 1.3,-0.1 3.1,-3.6 3.8,-5.2 z"
         id="path2920" />
      <g
         id="g2928">
        <path
           style="fill:#fbd7c7"
           d="m 146.8,52.3 c 2.3,-12.6 -1.6,-25.4 -12.9,-33.7 0.9,-3.7 1.4,-8.6 -1.4,-9.6 -3,-1.1 -5.6,1.1 -5.6,1.1 0,0 2.9,-0.8 3.2,1.9 0.2,1.6 -0.5,2.8 -1.1,3.5 -1.7,-0.9 -3.4,-1.7 -5.3,-2.4 -22.4,-8.5 -48.3,12.8 -63.3,21.3 -15,8.5 -25.2,16.4 -28.9,20.4 -2.8,3 -4.7,6.2 -5.9,9.4 -1.1,-0.1 -9.3,-0.6 -11.1,2.1 -0.4,0.6 2.1,9.5 2.1,9.5 0,0 -3.1,7 -2.3,13.6 0.8,6.6 -3.5,17.8 -4.7,19 -1.2,1.2 -2.6,2.5 -2.7,3.9 -0.2,3 4.1,7.8 8.3,8.3 3.6,0.5 14,-4.6 20.5,-7.5 -0.9,4.6 -1.9,7.9 -3.6,12.6 -1.5,3.9 -3.3,6.4 -3.7,8.5 -0.4,2.1 4.5,-0.6 4.5,-0.6 0,0 -0.5,2.7 1.4,3.4 1.9,0.7 4.6,-5.6 4.6,-5.6 0,0 0.4,1.1 1.3,0.8 0.9,-0.3 1.3,-4.1 1.6,-6.4 0.7,-4.6 3.9,-11.5 6.2,-15.9 1.9,0.8 3.7,1.2 5.3,1.2 4.4,0 11,-0.7 14.8,1.9 0.1,0 0.1,0.1 0.2,0.1 1.2,2.9 2.2,5.8 2.5,8 1.7,13.1 -2.4,18.9 -1.6,21.5 0.8,2.6 4.2,-2.1 4.2,-2.1 0,0 -0.3,2.7 1.4,3.2 1.7,0.5 5,-7.4 5,-7.4 0,0 1.6,1.8 2.1,0.6 0.5,-1.2 -0.3,-8.5 0.5,-13 0.7,-4 5.1,-15.6 6.4,-22.7 1.9,-1.8 3.8,-3.3 5.9,-4.2 9.1,-3.9 24.3,-10.6 35.8,-19.6 0.7,0.9 1.3,1.9 1.6,3.1 3.5,14.8 0.3,23.9 1,26.3 0.8,3 3.4,-1.2 3.4,-1.2 0,0 -0.4,2.5 1.7,2.8 2.1,0.3 3.5,-5.9 3.8,-6.6 0.3,-0.7 1.1,1.8 1.8,1 0.6,-0.8 -0.6,-6.1 -1,-8 -0.4,-1.9 -0.6,-19.2 0.5,-22.7 1,-3.4 5.2,-10.9 3.5,-19.8 z"
           id="path2922" />
        <path
           style="fill:#2d3134"
           d="m 33.8,101.9 c 0,0 0.1,-2 2.2,-2.9 2,-0.9 4.5,-0.3 4.5,-0.3 0,0 -0.1,2.5 -2,3.2 -2,0.7 -4.7,0 -4.7,0 z"
           id="path2924" />
        <path
           style="opacity:0.15"
           d="m 42.9,82.3 c 1.6,-3.8 8.6,-3.3 13.1,-2.2 4.5,1.2 7.6,0.3 7.6,0.3 0,0 -1,7.4 -3.9,10.8 -2.9,3.3 -6.6,4.2 -9.3,3.9 C 47.7,94.8 41,86.9 42.9,82.3 Z"
           id="path2926" />
      </g>
      <path
         style="fill:#2d3134"
         d="m 35.8,131.6 c -1.9,-0.7 -3.5,-1.3 -5.1,-2.5 -1.1,2.2 -2,3.8 -2.2,5.2 -0.3,2.1 4.5,-0.6 4.5,-0.6 0,0 -0.5,2.7 1.4,3.4 1.5,0.5 3.4,-3 4.2,-4.7 -0.8,-0.3 -1.8,-0.5 -2.8,-0.8 z"
         id="path2930" />
      <path
         style="fill:#2d3134"
         d="m 141.6,103 c -1.5,-0.1 -4.8,-0.4 -8.2,-2.3 -0.3,3.1 -0.7,5.2 -0.4,6.2 0.8,3 3.4,-1.2 3.4,-1.2 0,0 -0.4,2.5 1.7,2.8 1.7,0.2 2.9,-3.6 3.5,-5.5 z"
         id="path2932" />
      <path
         style="opacity:0.15"
         d="m 14.5,113 c -1.5,-1.7 -4.7,-2.9 -6.8,-2.6 -0.5,0.6 -0.8,1.2 -0.8,1.9 -0.2,3 4.1,7.8 8.3,8.3 0.8,0.1 1.8,0 3,-0.3 -0.1,-2.8 -2.2,-5.6 -3.7,-7.3 z"
         id="path2934" />
      <path
         style="fill:#2d3134"
         d="m 69.2,142.6 c 0.8,2.6 4.2,-2.1 4.2,-2.1 0,0 -0.3,2.7 1.4,3.2 1.3,0.4 3.4,-3.9 4.4,-6.1 -1.1,0 -4.9,-0.2 -8.8,-2.4 -0.7,3.8 -1.6,6 -1.2,7.4 z"
         id="path2936" />
    </g>
    <g
       transform="matrix(-0.13229166,0,0,0.13229167,58.936227,127.71148)"
       id="g2984">
      <path
         style="opacity:1;fill:#baa794"
         d="m 111.7,81.3 c -1.3,7 0.1,10.3 -0.5,11.5 -0.6,1.2 -1.6,0.6 -1.6,0.6 0,0 -2.5,5.9 -4.3,5.9 -1.8,0 -1.8,-3.6 -1.8,-3.6 0,0 -1.2,3.2 -3.4,2.8 -1.9,-0.4 -0.5,-2.5 1.6,-7.7 2.2,-5.6 2.8,-11.5 2.8,-11.5 0,0 8.4,-5 7.2,2 z"
         id="path2960" />
      <path
         style="opacity:0.2"
         d="m 104.2,132.9 c 16.5,-8.9 57.4,-26.6 32.9,-41.6 -22.9,-14 -60.9,6.8 -77.1,15.4 -23.8,12.7 -47.8,29.9 -33.2,39 14.9,9.3 46.4,4 77.4,-12.8 z"
         id="path2962" />
      <path
         style="opacity:0.15"
         d="m 111.7,81.3 c -1.3,7 0.1,10.3 -0.5,11.5 -0.6,1.2 -1.6,0.6 -1.6,0.6 0,0 -2.5,5.9 -4.3,5.9 -1.8,0 -1.8,-3.6 -1.8,-3.6 0,0 -1.2,3.2 -3.4,2.8 -1.9,-0.4 -0.5,-2.5 1.6,-7.7 2.2,-5.6 2.8,-11.5 2.8,-11.5 0,0 8.4,-5 7.2,2 z"
         id="path2964" />
      <path
         style="opacity:1;fill:#2d3134"
         d="m 109.2,94.2 c -1.5,-0.1 -4.7,-0.5 -7.9,-2.2 -1.8,4.4 -2.9,6.2 -1.1,6.6 2.1,0.4 3.4,-2.8 3.4,-2.8 0,0 0,3.6 1.8,3.6 1.3,-0.1 3.1,-3.6 3.8,-5.2 z"
         id="path2966" />
      <g
         id="g2974">
        <path
           style="opacity:1;fill:#baa794"
           d="m 146.8,52.3 c 2.3,-12.6 -1.6,-25.4 -12.9,-33.7 0.9,-3.7 1.4,-8.6 -1.4,-9.6 -3,-1.1 -5.6,1.1 -5.6,1.1 0,0 2.9,-0.8 3.2,1.9 0.2,1.6 -0.5,2.8 -1.1,3.5 -1.7,-0.9 -3.4,-1.7 -5.3,-2.4 -22.4,-8.5 -48.3,12.8 -63.3,21.3 -15,8.5 -25.2,16.4 -28.9,20.4 -2.8,3 -4.7,6.2 -5.9,9.4 -1.1,-0.1 -9.3,-0.6 -11.1,2.1 -0.4,0.6 2.1,9.5 2.1,9.5 0,0 -3.1,7 -2.3,13.6 0.8,6.6 -3.5,17.8 -4.7,19 -1.2,1.2 -2.6,2.5 -2.7,3.9 -0.2,3 4.1,7.8 8.3,8.3 3.6,0.5 14,-4.6 20.5,-7.5 -0.9,4.6 -1.9,7.9 -3.6,12.6 -1.5,3.9 -3.3,6.4 -3.7,8.5 -0.4,2.1 4.5,-0.6 4.5,-0.6 0,0 -0.5,2.7 1.4,3.4 1.9,0.7 4.6,-5.6 4.6,-5.6 0,0 0.4,1.1 1.3,0.8 0.9,-0.3 1.3,-4.1 1.6,-6.4 0.7,-4.6 3.9,-11.5 6.2,-15.9 1.9,0.8 3.7,1.2 5.3,1.2 4.4,0 11,-0.7 14.8,1.9 0.1,0 0.1,0.1 0.2,0.1 1.2,2.9 2.2,5.8 2.5,8 1.7,13.1 -2.4,18.9 -1.6,21.5 0.8,2.6 4.2,-2.1 4.2,-2.1 0,0 -0.3,2.7 1.4,3.2 1.7,0.5 5,-7.4 5,-7.4 0,0 1.6,1.8 2.1,0.6 0.5,-1.2 -0.3,-8.5 0.5,-13 0.7,-4 5.1,-15.6 6.4,-22.7 1.9,-1.8 3.8,-3.3 5.9,-4.2 9.1,-3.9 24.3,-10.6 35.8,-19.6 0.7,0.9 1.3,1.9 1.6,3.1 3.5,14.8 0.3,23.9 1,26.3 0.8,3 3.4,-1.2 3.4,-1.2 0,0 -0.4,2.5 1.7,2.8 2.1,0.3 3.5,-5.9 3.8,-6.6 0.3,-0.7 1.1,1.8 1.8,1 0.6,-0.8 -0.6,-6.1 -1,-8 -0.4,-1.9 -0.6,-19.2 0.5,-22.7 1,-3.4 5.2,-10.9 3.5,-19.8 z"
           id="path2968" />
        <path
           style="opacity:1;fill:#2d3134"
           d="m 33.8,101.9 c 0,0 0.1,-2 2.2,-2.9 2,-0.9 4.5,-0.3 4.5,-0.3 0,0 -0.1,2.5 -2,3.2 -2,0.7 -4.7,0 -4.7,0 z"
           id="path2970" />
        <path
           style="opacity:0.15"
           d="m 42.9,82.3 c 1.6,-3.8 8.6,-3.3 13.1,-2.2 4.5,1.2 7.6,0.3 7.6,0.3 0,0 -1,7.4 -3.9,10.8 -2.9,3.3 -6.6,4.2 -9.3,3.9 C 47.7,94.8 41,86.9 42.9,82.3 Z"
           id="path2972" />
      </g>
      <path
         style="opacity:1;fill:#2d3134"
         d="m 35.8,131.6 c -1.9,-0.7 -3.5,-1.3 -5.1,-2.5 -1.1,2.2 -2,3.8 -2.2,5.2 -0.3,2.1 4.5,-0.6 4.5,-0.6 0,0 -0.5,2.7 1.4,3.4 1.5,0.5 3.4,-3 4.2,-4.7 -0.8,-0.3 -1.8,-0.5 -2.8,-0.8 z"
         id="path2976" />
      <path
         style="opacity:1;fill:#2d3134"
         d="m 141.6,103 c -1.5,-0.1 -4.8,-0.4 -8.2,-2.3 -0.3,3.1 -0.7,5.2 -0.4,6.2 0.8,3 3.4,-1.2 3.4,-1.2 0,0 -0.4,2.5 1.7,2.8 1.7,0.2 2.9,-3.6 3.5,-5.5 z"
         id="path2978" />
      <path
         style="opacity:0.15"
         d="m 14.5,113 c -1.5,-1.7 -4.7,-2.9 -6.8,-2.6 -0.5,0.6 -0.8,1.2 -0.8,1.9 -0.2,3 4.1,7.8 8.3,8.3 0.8,0.1 1.8,0 3,-0.3 -0.1,-2.8 -2.2,-5.6 -3.7,-7.3 z"
         id="path2980" />
      <path
         style="opacity:1;fill:#2d3134"
         d="m 69.2,142.6 c 0.8,2.6 4.2,-2.1 4.2,-2.1 0,0 -0.3,2.7 1.4,3.2 1.3,0.4 3.4,-3.9 4.4,-6.1 -1.1,0 -4.9,-0.2 -8.8,-2.4 -0.7,3.8 -1.6,6 -1.2,7.4 z"
         id="path2982" />
    </g>
    <g
       transform="matrix(0.13229166,0,0,0.13229167,59.068519,121.45409)"
       id="g3030">
      <path
         style="opacity:0.2"
         d="m 94.2,132.2 c 16.5,-8.9 58.5,-25.7 34,-40.7 -22.9,-14 -60.9,6.8 -77.1,15.4 -23.8,12.7 -47.8,29.9 -33.2,39 14.9,9.3 45.2,3.1 76.3,-13.7 z"
         id="path3006" />
      <path
         style="opacity:1;fill:#999999"
         d="m 69.6,94 c 0.1,5 -1,11.1 -0.3,11.9 0.7,0.8 1.1,0 1.5,1.2 0.4,1.2 1.6,1.9 3.8,2.2 2.2,0.2 7.1,-0.4 7.5,-1.7 0.4,-1.3 -1.6,-2.2 -2.1,-4.1 -0.5,-1.9 -1.5,-9.3 -1.3,-10.9 0.2,-1.6 3.2,-13.3 3.2,-13.3 z"
         id="path3008" />
      <path
         style="opacity:0.15"
         d="m 69.6,94 c 0.1,5 -1,11.1 -0.3,11.9 0.7,0.8 1.1,0 1.5,1.2 0.4,1.2 1.6,1.9 3.8,2.2 2.2,0.2 7.1,-0.4 7.5,-1.7 0.4,-1.3 -1.6,-2.2 -2.1,-4.1 -0.5,-1.9 -1.5,-9.3 -1.3,-10.9 0.2,-1.6 3.2,-13.3 3.2,-13.3 z"
         id="path3010" />
      <path
         style="opacity:1;fill:#2d3134"
         d="m 74.6,109.3 c 2.2,0.2 7.1,-0.4 7.5,-1.7 0.3,-0.8 -0.4,-1.5 -1.1,-2.3 -0.9,0.4 -1.9,0.7 -3,0.9 -3.3,0.7 -4.9,0.9 -7.3,0.5 0.1,0.1 0.1,0.2 0.2,0.4 0.3,1.2 1.5,1.9 3.7,2.2 z"
         id="path3012" />
      <path
         style="opacity:1;fill:#999999"
         d="m 150,40.4 c -1.4,-1 -3.5,-6.3 -4.1,-10.5 -0.6,-4.3 -2.6,-7.5 -11.1,-13.7 -7,-5.1 -18.6,-4.1 -18.6,-4.1 0,0 -8.7,-1.9 -10.1,-0.8 -0.3,0.2 -0.5,0.6 -0.6,1 -1.6,-0.3 -3.2,-0.4 -4.9,-0.4 C 83.7,12.1 77.8,18.5 56.5,23.1 35.3,27.8 21.2,39.4 15,54.7 c -1.9,4.6 -2.7,10.2 -2.3,15.7 -1.2,12.6 3.7,24.9 4.1,33.4 0.3,7.4 0.6,14 0.2,20.7 -0.1,2 -1.4,4.9 -1.2,5.6 0.3,0.9 1.6,0.5 1.9,4.5 0.2,2.1 11.6,2.7 11.9,1.1 0.3,-1.6 -3.1,-6.1 -3.1,-13.7 0,-3.8 1.7,-16.7 4.1,-20.7 0.9,-1.5 2.6,-3.3 4.4,-5 1.3,0.2 2.7,0.4 4.1,0.5 4,0.2 7.9,0 11.8,-0.4 0.4,1.4 0.7,3.1 1,5.3 0.9,7.3 3.1,27.6 2.9,30.4 -0.1,0.8 -0.6,3.5 -0.5,4.6 0.1,0.8 1.4,1.5 1.6,2.2 0.6,1.6 1.7,3.8 4.1,3.9 4.7,0.2 6.1,-0.4 6,-1.7 -0.1,-1.3 -2.1,-8.9 -1.6,-22.6 0.4,-13.7 10.2,-18.3 17,-28.3 0.8,-1.1 1.4,-2.4 2,-3.7 7.1,-3 14.4,-6.3 21.9,-9.3 1.7,3 5.6,10.2 7,17.1 1.9,9 -0.6,9.3 0.5,11.2 1.1,1.9 2.8,1.4 3.4,3 0.5,1.5 3.3,2.8 6.7,2.8 3.4,0 6.2,-1.9 6,-2.9 -0.2,-1 -2.6,-2.1 -4.4,-4.6 -1.7,-2.6 -3.2,-14.3 -1.1,-18.8 2.1,-4.4 9.7,-15 8.1,-26.4 3.6,-1.6 8.1,-3.6 9.2,-4.3 1.9,-1.2 9.7,-4.3 10.6,-7.1 1.2,-3.2 0,-5.9 -1.3,-6.8 z"
         id="path3014" />
      <path
         style="opacity:0.15"
         d="m 32.2,59.5 c 1.7,1.4 4.2,-0.4 4.5,-2.6 0.3,-2.2 -2.6,-3.7 -0.7,-6.6 1.8,-2.9 3.8,-3.8 3.8,-3.8 0,0 -5,-0.7 -8.2,4 -3.2,4.7 -0.6,7.9 0.6,9 z"
         id="path3016" />
      <path
         style="opacity:1;fill:#999999"
         d="m 140.2,25.4 c 2.7,-1.5 8.5,-1.3 7.4,5.8 -1.1,7.1 -4.1,12.8 -4.1,12.8 0,0 -1.6,-1.7 -5.7,-3 -4.1,-1.3 -5.2,-2 -5.2,-4.5 0,-2.5 3.6,-9 7.6,-11.1 z"
         id="path3018" />
      <path
         style="opacity:0.15"
         d="m 140.2,25.4 c 2.7,-1.5 8.5,-1.3 7.4,5.8 -1.1,7.1 -4.1,12.8 -4.1,12.8 0,0 -1.6,-1.7 -5.7,-3 -4.1,-1.3 -5.2,-2 -5.2,-4.5 0,-1.6 1.5,-4.8 3.6,-7.5 1.2,-1.6 2.6,-2.9 4,-3.6 z"
         id="path3020" />
      <path
         style="opacity:1;fill:#2d3134"
         d="m 29.6,135.6 c 0.1,-0.7 -0.5,-2 -1.2,-3.8 -3.1,0.3 -8.5,0.3 -11.6,-0.6 0.4,0.5 0.8,1.4 0.9,3.3 0.3,2.1 11.7,2.7 11.9,1.1 z"
         id="path3022" />
      <path
         style="opacity:1;fill:#2d3134"
         d="m 55.9,138.6 c 0,0 0,0.1 0.1,0.1 0.6,1.6 1.7,3.8 4.1,3.9 4.7,0.2 6.5,-0.5 6.4,-1.8 0,-0.3 -0.2,-0.8 -0.4,-1.5 -0.9,0.1 -2.2,0.2 -3.3,0.2 -2.9,0.1 -4.8,-0.4 -6.9,-0.9 z"
         id="path3024" />
      <path
         style="opacity:1;fill:#2d3134"
         d="m 116.2,108.3 c 0.5,1.5 3.3,2.8 6.7,2.8 3.4,0 6.2,-1.9 6,-2.9 -0.1,-0.5 -0.7,-1 -1.4,-1.6 -1.1,0.8 -2.7,1.7 -4.6,1.7 -3.2,0 -4.9,-0.3 -7.1,-0.7 0.2,0.2 0.3,0.4 0.4,0.7 z"
         id="path3026" />
      <path
         style="opacity:0.15"
         d="m 150,40.4 c -0.1,-0.1 -0.2,-0.1 -0.3,-0.2 -0.8,1.2 1,5.7 0.6,8.4 0.6,-0.5 1,-1.1 1.2,-1.6 1,-3 -0.2,-5.7 -1.5,-6.6 z"
         id="path3028" />
    </g>
  </g>
  <path
     style="fill:#000000;fill-opacity:1;fill-rule:nonzero;stroke:none;stroke-width:0.264583"
     id="path4"
     d="m 66.306961,17.737869 c 0.01445,0.947811 0.03649,1.895603 0.05355,2.843414 0.02088,1.141408 0.0369,2.282892 0.05023,3.42441 0.02278,0.962948 0.05867,1.925529 0.09032,2.888213 0.0164,0.517483 0.0085,0.263229 0.02381,0.762762 0.01908,0.621961 0.89867,0.594968 0.879586,-0.02699 v 0 c -0.01537,-0.500756 -0.0074,-0.245861 -0.02387,-0.76468 -0.03144,-0.956475 -0.06705,-1.912846 -0.0899,-2.869576 -0.01336,-1.143372 -0.02939,-2.28671 -0.05031,-3.429972 -0.01696,-0.942533 -0.03878,-1.885051 -0.05341,-2.827578 0,-0.622254 -0.879999,-0.622254 -0.879999,0 z" />
  <path
     style="fill:#000000;fill-opacity:1;fill-rule:nonzero;stroke:none;stroke-width:0.264583"
     id="path5"
     d="m 54.50207,27.962764 c 0.09802,-0.195876 0.200446,-0.389466 0.305152,-0.581879 0.187098,-0.357278 0.437396,-0.67695 0.715071,-0.968307 0.0723,-0.07586 0.149188,-0.1472 0.223782,-0.220799 0.346848,-0.318297 0.71796,-0.612236 1.118291,-0.860865 0.269801,-0.167563 0.365556,-0.209164 0.648634,-0.354088 0.455311,-0.217168 0.930949,-0.391934 1.424945,-0.497137 0.34934,-0.0744 0.413501,-0.07275 0.768091,-0.112453 0.516903,-0.03833 1.037396,-0.02022 1.550466,0.05337 0.320667,0.04599 0.40305,0.07071 0.717545,0.140941 0.532823,0.130439 1.052261,0.31487 1.538015,0.571037 0.08493,0.04479 0.167293,0.09429 0.250941,0.141437 0.446664,0.265688 0.864171,0.575501 1.270989,0.897835 0.311426,0.242908 0.591834,0.521139 0.862868,0.807432 0.179398,0.193614 0.358663,0.388088 0.515252,0.600908 0.06903,0.09915 0.11726,0.210122 0.167568,0.319334 0.260954,0.564893 1.059831,0.19585 0.798878,-0.369044 v 0 c -0.07586,-0.163832 -0.152895,-0.327919 -0.259681,-0.474583 -0.179099,-0.239998 -0.378177,-0.463635 -0.583149,-0.681797 -0.29999,-0.316514 -0.611103,-0.623272 -0.955403,-0.892119 -0.443473,-0.351039 -0.899146,-0.687782 -1.38694,-0.975541 -0.09764,-0.0545 -0.193842,-0.111671 -0.292923,-0.163511 -0.548704,-0.287085 -1.134875,-0.494441 -1.735987,-0.640537 -0.352999,-0.07772 -0.447027,-0.105526 -0.806855,-0.155963 -0.579911,-0.08129 -1.167976,-0.09974 -1.751758,-0.05348 -0.401627,0.04693 -0.485984,0.0467 -0.880478,0.13279 -0.559644,0.122137 -1.099079,0.320406 -1.614741,0.56845 -0.323835,0.167107 -0.424297,0.210475 -0.733587,0.403962 -0.447876,0.280187 -0.863454,0.610274 -1.250728,0.968868 -0.08709,0.08678 -0.176723,0.171075 -0.261254,0.260349 -0.32293,0.341054 -0.611069,0.717159 -0.830874,1.132992 -0.105249,0.193537 -0.208592,0.388101 -0.306943,0.585192 -0.295011,0.547875 0.479803,0.965083 0.774813,0.417206 z" />
  <path
     style="fill:#000000;fill-opacity:1;fill-rule:nonzero;stroke:none;stroke-width:0.264583"
     id="path6"
     d="m 54.313653,28.39983 c 0.285668,-0.02178 0.571688,-0.03855 0.857498,-0.05843 0.677874,-0.0483 1.356458,-0.08431 2.035485,-0.11136 0.978802,-0.03764 1.958493,-0.03477 2.93783,-0.03419 0.921951,0.0013 1.843902,0.0041 2.765851,0.0065 0.633627,0.0059 1.267195,-0.0027 1.900756,-0.01056 0.518906,-0.0066 1.037823,-0.0123 1.556748,-0.01733 0.200739,-0.0019 0.401478,-0.0037 0.60222,-0.0054 0.622232,-0.0053 0.614691,-0.885298 -0.0075,-0.879967 v 0 c -0.20107,0.0019 -0.402143,0.0035 -0.603216,0.0054 -0.519734,0.005 -1.03946,0.01077 -1.559176,0.01736 -0.629129,0.0078 -1.258263,0.0164 -1.887458,0.0105 -0.922557,-0.0024 -1.845112,-0.0052 -2.767672,-0.0065 -0.991195,-5.3e-4 -1.982747,-0.0033 -2.973398,0.03489 -0.687723,0.02744 -1.375005,0.06385 -2.061564,0.112789 -0.294624,0.02053 -0.589492,0.0375 -0.883928,0.06067 -0.619167,0.06191 -0.531604,0.937549 0.08756,0.875634 z" />
  <path
     style="fill:#000000;fill-opacity:1;fill-rule:nonzero;stroke:none;stroke-width:0.264583"
     d="m 74.238931,24.545102 c -0.807495,0.240979 -1.653108,0.305408 -2.488634,0.371864 -0.370469,0.02115 -0.741301,0.03641 -1.112268,0.04439 -0.622253,0 -0.622253,0.88 0,0.88 v 5e-6 c 0.387622,-0.0077 0.775062,-0.02394 1.16215,-0.04581 0.890165,-0.06892 1.789338,-0.143249 2.650152,-0.396218"
     id="path18" />
  <path
     style="fill:#000000;fill-opacity:1;fill-rule:nonzero;stroke:none;stroke-width:0.264583"
     d="m 74.450331,25.399333 c 0.216037,-0.06349 0.42645,-0.144752 0.639675,-0.217127 0.851204,-0.316264 1.671338,-0.715173 2.453672,-1.175738 0.490923,-0.289011 0.671568,-0.419051 1.144127,-0.734284 0.717089,-0.499385 1.411964,-1.032831 2.064554,-1.614568 0.366286,-0.32652 0.590468,-0.551721 0.94111,-0.892612 0.840986,-0.844259 1.632235,-1.735977 2.422723,-2.627118 0.434245,-0.481059 0.850757,-0.979095 1.301041,-1.445579 0.283379,-0.293574 0.332039,-0.328823 0.632359,-0.601545 0.522277,-0.461111 1.124577,-0.824947 1.761297,-1.105326 0.131456,-0.05789 0.265914,-0.108702 0.39887,-0.163053 0.804005,-0.31742 1.647272,-0.507329 2.494185,-0.666897 0.354505,-0.06433 0.710583,-0.119277 1.066612,-0.174308 0.614947,-0.09507 0.480494,-0.964741 -0.134453,-0.869668 v 0 c -0.365628,0.05654 -0.731301,0.11302 -1.095336,0.179237 -0.905359,0.171094 -1.806302,0.376613 -2.665211,0.717568 -0.147497,0.06079 -0.29669,0.117606 -0.442489,0.182356 -0.714925,0.317503 -1.389237,0.730168 -1.97576,1.249248 -0.116425,0.106155 -0.235289,0.209696 -0.349271,0.318466 -0.588595,0.561668 -1.104646,1.193512 -1.65017,1.795543 -0.776128,0.874989 -1.552852,1.750671 -2.377942,2.580233 -0.328507,0.31963 -0.558202,0.549962 -0.900481,0.855497 -0.625874,0.55869 -1.292473,1.070923 -1.980276,1.550656 -0.447247,0.298877 -0.622702,0.425147 -1.086432,0.698893 -0.735788,0.434348 -1.507093,0.811184 -2.307638,1.110396 -0.188722,0.06517 -0.374848,0.138404 -0.566166,0.195499"
     id="path7" />
  <path
     style="fill:#000000;fill-opacity:1;fill-rule:nonzero;stroke:none;stroke-width:0.264583"
     id="path8"
     d="m 81.964854,19.963325 c 0.07295,0.222355 0.196297,0.423414 0.313757,0.624229 0.341074,0.568383 0.749675,1.091366 1.165156,1.606333 0.421523,0.495405 0.849019,0.992064 1.348314,1.412016 0.09818,0.08258 0.201287,0.159111 0.301932,0.238666 0.426818,0.316988 0.902544,0.561086 1.398196,0.751045 0.299032,0.114605 0.488849,0.167455 0.793813,0.261295 0.518467,0.148577 1.044194,0.273608 1.577105,0.35813 0.34526,0.05476 0.454268,0.06196 0.80078,0.09894 0.688504,0.06365 1.379188,0.09907 2.069618,0.134004 0.09071,0.0038 0.181425,0.0076 0.272137,0.01136 0.621715,0.02591 0.65836,-0.853324 0.03665,-0.879237 v 0 c -0.08811,-0.0037 -0.176213,-0.0073 -0.264319,-0.011 -0.674264,-0.03411 -1.348777,-0.06859 -2.021205,-0.130213 -0.319416,-0.03369 -0.422931,-0.04053 -0.740754,-0.09047 -0.497356,-0.07816 -0.987893,-0.194801 -1.471827,-0.332789 -0.264644,-0.08098 -0.455459,-0.13457 -0.713838,-0.232455 -0.421574,-0.159709 -0.828122,-0.36275 -1.19213,-0.630146 -0.244795,-0.19166 -0.285615,-0.21493 -0.514295,-0.429388 -0.357878,-0.335622 -0.677452,-0.709763 -0.995397,-1.08246 -0.38831,-0.480912 -0.771149,-0.968621 -1.090895,-1.498897 -0.08683,-0.147511 -0.181954,-0.294489 -0.237953,-0.457245 -0.196776,-0.590322 -1.031616,-0.312042 -0.834843,0.27828 z" />
  <path
     style="fill:#000000;fill-opacity:1;fill-rule:nonzero;stroke:none;stroke-width:0.264583"
     id="path9"
     d="m 97.054386,20.436002 c -0.118428,0.06818 -0.211106,0.166894 -0.293619,0.274032 -0.01987,0.03504 -0.04404,0.06797 -0.05963,0.105111 -0.06931,0.165116 -0.07165,0.313838 -0.0053,0.481808 0.0364,0.09223 0.08322,0.136908 0.14411,0.207822 0.02889,0.0249 0.05602,0.05201 0.08668,0.07471 0.124018,0.09183 0.28921,0.152999 0.445365,0.138477 0.05501,-0.0051 0.108302,-0.02196 0.162451,-0.03294 0.04197,-0.02037 0.08654,-0.03609 0.125918,-0.06111 0.116168,-0.07383 0.216572,-0.192166 0.276384,-0.316245 0.01701,-0.0353 0.03001,-0.07239 0.04502,-0.108581 0.0091,-0.04773 0.02614,-0.09462 0.02737,-0.1432 0.0044,-0.176284 -0.04781,-0.315053 -0.164629,-0.444668 -0.07411,-0.08223 -0.117375,-0.09411 -0.217033,-0.149521 -0.06528,-0.01287 -0.129349,-0.03631 -0.19585,-0.03862 -0.154754,-0.0054 -0.310779,0.06424 -0.424759,0.164911 -0.08921,0.07879 -0.105447,0.119322 -0.165807,0.216017 -0.01707,0.0424 -0.03777,0.08353 -0.05123,0.127213 -0.04156,0.134961 -0.04359,0.282422 -2.64e-4,0.417401 0.03969,0.123761 0.06935,0.147748 0.143409,0.248447 0.03204,0.02948 0.06067,0.06314 0.09611,0.08844 0.126817,0.09054 0.281752,0.142301 0.438954,0.12296 0.147405,-0.01814 0.173683,-0.04696 0.294553,-0.114687 0.146614,-0.111041 0.251703,-0.25992 0.278019,-0.445717 0.01725,-0.121872 -0.0011,-0.159105 -0.0254,-0.27724 -0.01498,-0.03569 -0.02742,-0.07256 -0.04493,-0.107076 -0.04484,-0.08835 -0.122809,-0.189809 -0.200809,-0.252904 -0.03075,-0.02488 -0.06398,-0.04653 -0.09597,-0.06979 -0.04617,-0.01942 -0.08999,-0.04584 -0.138512,-0.05827 -0.205899,-0.05273 -0.371882,0.0071 -0.521187,0.154006 -0.07774,0.07651 -0.09414,0.150005 -0.131214,0.247247 -0.006,0.04793 -0.01958,0.09551 -0.01802,0.143792 0.0062,0.191903 0.09798,0.370743 0.254366,0.482663 0.03752,0.02685 0.08014,0.04574 0.120208,0.06861 0.199334,0.03938 0.189333,0.06276 0.377621,0.01108 0.03649,-0.01002 0.06912,-0.03084 0.103685,-0.04626 0.550696,-0.289713 0.140978,-1.068515 -0.409718,-0.778802 v 0 c 0.112059,-0.0382 0.18089,-0.03015 0.29474,0.01386 0.05079,0.0352 0.05635,0.03242 0.09043,0.0766 0.04164,0.05396 0.05138,0.13618 0.0482,0.200834 -0.0011,0.02397 -0.01042,0.04686 -0.01564,0.07029 -0.0223,0.0453 -0.03529,0.08317 -0.07699,0.116527 -0.112721,0.09017 -0.226568,0.128801 -0.368052,0.08284 -0.02821,-0.0092 -0.0528,-0.02705 -0.07919,-0.04057 -0.110808,-0.09866 -0.01841,-0.01782 -0.01892,-0.01993 -0.0042,-0.0167 -0.01646,-0.0309 -0.01519,-0.04933 -0.0016,-0.01915 -0.0056,-0.03823 -0.0051,-0.05745 0.0019,-0.07897 0.03951,-0.16108 0.111128,-0.198324 0.01577,-0.0061 0.03084,-0.01455 0.04733,-0.01832 0.10995,-0.02515 0.214096,-0.0049 0.283567,0.08918 0.03296,0.06508 0.05211,0.143214 0.0011,0.2042 -0.0626,0.05138 -0.135083,0.07931 -0.218816,0.06653 -0.03984,-0.0061 -0.07721,-0.02317 -0.115811,-0.03475 -0.01987,-0.01376 -0.04096,-0.02591 -0.05962,-0.04127 -0.07508,-0.06181 -0.08969,-0.172219 -0.07982,-0.261856 0.0024,-0.02072 0.01241,-0.03981 0.01863,-0.05972 0.0051,-0.0082 0.0092,-0.01706 0.01521,-0.02465 0.0026,-0.0034 -0.0073,0.01615 -0.0057,0.01662 0.0074,0.0022 0.08403,-0.0593 0.10658,-0.05031 0.02786,-0.0026 0.0556,-0.0079 0.08359,-0.0079 0.05306,-9.9e-5 0.101457,0.02498 0.131937,0.06709 0.05434,0.106548 0.06538,0.230242 -0.01495,0.326866 0.004,-0.01397 0.02008,-0.02896 0.02864,-0.03601 0.53749,-0.313536 0.09408,-1.073661 -0.443407,-0.760126 z" />
  <path
     style="fill:#000000;fill-opacity:1;fill-rule:nonzero;stroke:none;stroke-width:0.264583"
     id="path10"
     d="m 102.10733,20.284776 c -0.13675,0.09361 -0.23067,0.238458 -0.27376,0.398006 -0.0111,0.04123 -0.0166,0.08379 -0.0248,0.125685 7.9e-4,0.05445 -0.007,0.109708 0.002,0.163348 0.0339,0.193653 0.1323,0.337143 0.28718,0.45367 0.10104,0.07602 0.15139,0.0886 0.26627,0.136399 0.0464,0.01167 0.0921,0.02666 0.13915,0.03502 0.1897,0.03369 0.39921,0.01222 0.56687,-0.08864 0.0489,-0.02942 0.0906,-0.06935 0.13595,-0.104021 0.0302,-0.03602 0.0639,-0.06942 0.0906,-0.108073 0.14759,-0.21307 0.15728,-0.467483 -0.002,-0.681054 -0.0376,-0.05031 -0.0942,-0.08305 -0.14133,-0.124576 -0.0508,-0.02205 -0.0994,-0.05031 -0.1525,-0.06616 -0.13953,-0.04163 -0.29415,-0.02367 -0.42583,0.03468 -0.0949,0.04206 -0.12135,0.07111 -0.19802,0.133324 -0.17385,0.167738 -0.24111,0.357483 -0.17496,0.597644 0.0336,0.122134 0.0902,0.166676 0.16967,0.257689 0.14865,0.09108 0.206,0.155913 0.4061,0.130072 0.0868,-0.01121 0.16885,-0.05168 0.24434,-0.09592 0.0783,-0.04589 0.1513,-0.150912 0.19517,-0.229911 0.0175,-0.03145 0.0297,-0.06555 0.0445,-0.09832 0.071,-0.18604 0.074,-0.375706 -0.007,-0.55945 -0.0132,-0.02984 -0.0307,-0.05764 -0.046,-0.08646 -0.0782,-0.114846 -0.17958,-0.213945 -0.31136,-0.26516 -0.10145,-0.03943 -0.12257,-0.03418 -0.2259,-0.0428 -0.0475,0.0068 -0.096,0.0082 -0.14243,0.02035 -0.17657,0.04628 -0.2845,0.166362 -0.37635,0.313523 -0.0895,0.161537 -0.10144,0.322129 -0.0297,0.495768 0.0329,0.07976 0.0712,0.115793 0.12442,0.177556 0.0761,0.07999 0.1702,0.134405 0.27065,0.177319 0.57628,0.234747 0.90826,-0.58023 0.33199,-0.814977 v 0 c 0.0128,0.0097 0.0272,0.01808 0.0359,0.03215 0.0751,0.105968 0.1,0.261465 0.0265,0.376211 -0.0625,0.07536 -0.1606,0.10191 -0.25506,0.101984 -0.0943,-0.01485 -0.16306,-0.04042 -0.20813,-0.127392 -0.0153,-0.04419 -0.0157,-0.08627 -0.006,-0.132421 8e-4,-0.0041 0.002,-0.0091 0.006,-0.01114 0.002,-0.0013 -1.6e-4,0.0053 -2.5e-4,0.008 0.0149,-0.0039 -0.005,0.0022 0.0246,-0.02216 0.0196,-0.01597 0.0375,-0.03576 0.0609,-0.04516 0.0558,-0.02236 0.11351,-0.04699 0.1736,-0.04882 0.14383,-0.0044 0.17069,0.03506 0.26683,0.106387 0.0149,0.02087 0.0328,0.0399 0.0447,0.06262 0.0541,0.103169 0.043,0.221075 -0.009,0.32249 -0.0124,0.02412 -0.0336,0.04261 -0.0512,0.06322 -5.3e-4,6.61e-4 -5.3e-4,-0.0017 -8e-4,-0.0025 -0.10579,0.04983 -0.19613,0.03472 -0.29303,-0.02982 -0.0252,-0.02693 -0.0567,-0.04912 -0.0756,-0.0808 -0.0698,-0.117179 -0.0975,-0.297837 0.0249,-0.389514 0.0161,-0.0082 0.0315,-0.01828 0.0485,-0.02459 0.0391,-0.01456 0.0671,0.0095 0.0112,0.01027 -0.0117,-4.77e-4 -0.0254,-0.0015 -0.0259,6.35e-4 -0.001,0.0058 0.004,0.01116 0.006,0.01665 0.007,0.01713 0.0165,0.0333 0.0208,0.05121 0.0178,0.073 0.013,0.07038 0.003,0.133066 -0.0161,0.02728 -0.004,0.0032 -0.0156,0.01464 -0.0282,0.02741 -0.0536,0.05811 -0.0895,0.07648 0.52767,-0.329794 0.0613,-1.076033 -0.4664,-0.746239 z" />
  <path
     style="fill:#000000;fill-opacity:1;fill-rule:nonzero;stroke:none;stroke-width:0.264583"
     id="path11"
     d="m 101.36049,14.788841 c -0.0689,0.08263 -0.1172,0.181088 -0.14059,0.286253 -0.007,0.03226 -0.0102,0.0653 -0.0153,0.09795 5.3e-4,0.04268 -0.004,0.08582 0.002,0.128035 0.0267,0.179068 0.1051,0.309584 0.24427,0.424495 0.0951,0.07854 0.15106,0.08999 0.26477,0.134925 0.0514,0.0088 0.1022,0.02241 0.15418,0.02653 0.13991,0.01108 0.31172,-0.01962 0.44061,-0.07722 0.0383,-0.01712 0.0744,-0.03888 0.11158,-0.05832 0.042,-0.03561 0.0887,-0.06643 0.12613,-0.106828 0.12135,-0.130826 0.16658,-0.296905 0.14534,-0.472157 -0.0139,-0.115088 -0.05,-0.158129 -0.10437,-0.258462 -0.10431,-0.138373 -0.23847,-0.238296 -0.41126,-0.275386 -0.11653,-0.02501 -0.16648,-0.0091 -0.2791,0.006 -0.17178,0.04411 -0.32761,0.134883 -0.44496,0.268992 -0.0232,0.02646 -0.043,0.05564 -0.0645,0.08345 -0.0208,0.0392 -0.0485,0.07547 -0.0624,0.117592 -0.0586,0.176787 -0.0553,0.332549 0.0343,0.497133 0.0593,0.108924 0.0932,0.126748 0.1816,0.207263 0.0455,0.02494 0.0881,0.05601 0.13643,0.07483 0.12977,0.0505 0.26487,0.04895 0.3975,0.01464 0.0761,-0.01967 0.10617,-0.04053 0.17761,-0.07711 0.0329,-0.02517 0.0678,-0.04807 0.0988,-0.07551 0.13005,-0.114865 0.18492,-0.25573 0.21528,-0.421531 0.017,-0.152088 -0.0116,-0.301399 -0.087,-0.434931 -0.0125,-0.02206 -0.027,-0.04286 -0.0406,-0.06429 -0.0834,-0.118976 -0.19863,-0.201426 -0.32755,-0.264279 -0.1045,-0.04636 -0.21789,-0.07021 -0.3325,-0.05388 -0.0387,0.0055 -0.0757,0.01942 -0.11352,0.02913 -0.58567,0.21021 -0.28839,1.038475 0.29729,0.828265 v 0 c -0.0843,0.0176 -0.14478,0.03016 -0.22456,-0.0066 7.9e-4,-5e-6 0.003,5.03e-4 0.002,-1.4e-5 -0.0113,-0.01227 -0.0239,-0.02417 -0.0317,-0.04185 -0.018,-0.04168 -0.0212,-0.08657 -0.0109,-0.130733 0.009,-0.01316 -0.0106,0.0154 0.0138,-0.03035 0.0236,-0.04429 0.0565,-0.07271 0.10102,-0.09554 0.0984,-0.03645 0.19197,-0.006 0.27296,0.05851 0.0108,0.01256 0.0232,0.02395 0.0324,0.03768 0.0704,0.104113 0.0603,0.246607 -0.0159,0.345112 -0.007,0.0041 -0.0145,0.0054 -0.0145,0.0019 3e-5,-0.0025 0.007,-0.0044 0.005,-0.0057 -0.007,-0.0047 -0.019,0.0088 -0.0261,0.0014 -0.0843,-0.0025 -0.17206,-0.03001 -0.21305,-0.10889 -0.008,-0.02045 -0.0192,-0.0401 -0.0254,-0.06136 -0.0305,-0.105036 0.004,-0.236449 0.0885,-0.307801 0.0179,-0.01513 0.0393,-0.02534 0.059,-0.03801 0.007,-0.0016 0.0135,-0.0062 0.0203,-0.0049 0.004,8.73e-4 -0.007,0.0048 -0.0115,0.0066 -0.0104,0.0046 -0.0341,0.01163 -0.0342,0.01226 -0.002,0.01432 0.0538,-0.0045 0.039,0.01846 0.0722,0.05896 0.10273,0.158798 0.0881,0.249507 -0.009,0.02721 -0.0218,0.06041 -0.0437,0.08012 -5.3e-4,5.55e-4 0.001,-0.0014 0.001,-0.0021 0.39836,-0.478029 -0.27767,-1.041391 -0.67603,-0.563362 z" />
  <path
     style="fill:#000000;fill-opacity:1;fill-rule:nonzero;stroke:none;stroke-width:0.264583"
     id="path14"
     d="m 105.06226,21.523129 h 0.40917 c 0.43846,0.0055 0.8739,-0.05522 1.30875,-0.102999 0.70217,-0.08555 0.93382,-0.119026 1.63821,-0.182148 0.90893,-0.07766 1.81624,-0.172622 2.72412,-0.261273 0.99676,-0.09695 1.99607,-0.162759 2.99586,-0.218259 0.9933,-0.05357 1.98753,-0.08633 2.98181,-0.114699 1.01395,-0.02888 2.0282,-0.04474 3.04245,-0.05805 1.03368,-0.0139 2.06739,-0.02291 3.10116,-0.02474 1.04182,-0.0039 2.08324,0.01554 3.12406,0.05984 1.11921,0.05143 2.23799,0.112063 3.35668,0.173682 1.03182,0.05805 2.06444,0.09979 3.09723,0.135824 0.87837,0.02952 1.75698,0.05096 2.6356,0.07108 0.50608,0.01137 1.01218,0.02164 1.51829,0.03145 0.62214,0.01207 0.6392,-0.867768 0.0171,-0.879835 v 0 c -0.50509,-0.0098 -1.01017,-0.02004 -1.51522,-0.03139 -0.87511,-0.02003 -1.7502,-0.04139 -2.62505,-0.07077 -1.02689,-0.03582 -2.05361,-0.07731 -3.07952,-0.135028 -1.12237,-0.06182 -2.24482,-0.122648 -3.3677,-0.174219 -1.0538,-0.04475 -2.1082,-0.06466 -3.163,-0.06064 -1.0371,0.0019 -2.07414,0.01087 -3.11115,0.02482 -1.01877,0.01338 -2.03753,0.02932 -3.056,0.05833 -1.00218,0.02861 -2.00431,0.06167 -3.0055,0.115695 -1.01205,0.05622 -2.02361,0.122899 -3.03259,0.221071 -0.90556,0.08843 -1.81055,0.183147 -2.71715,0.260621 -0.71024,0.06366 -0.94776,0.09765 -1.65578,0.183899 -0.40291,0.04427 -0.80638,0.102237 -1.21262,0.09773 h -0.40918 c -0.62225,0 -0.62225,0.88 0,0.88 z"
     sodipodi:nodetypes="cccccccccccccsssccccccccccccscc" />
  <path
     style="fill:#000000;fill-opacity:1;fill-rule:nonzero;stroke:none;stroke-width:0.264583"
     id="path15"
     d="m 103.55133,13.690041 c 0.17045,-0.137996 0.29336,-0.278293 0.46042,-0.396931 0.23322,-0.162543 0.23255,-0.160051 0.48738,-0.281408 0.19829,-0.09443 0.26136,-0.113608 0.4711,-0.193934 0.46919,-0.170769 0.94866,-0.31944 1.43971,-0.413447 0.10079,-0.01929 0.20252,-0.03323 0.30379,-0.04984 0.54108,-0.0558 1.08969,-0.04487 1.62938,0.0225 0.1068,0.01333 0.21294,0.03149 0.3194,0.04723 0.42112,0.07472 0.83567,0.185172 1.23615,0.335611 0.2723,0.102288 0.37353,0.151993 0.64001,0.270387 0.62545,0.285532 1.21443,0.641049 1.7936,1.00947 0.57341,0.375971 1.12181,0.788712 1.65773,1.215953 0.52803,0.434377 1.071,0.849575 1.62513,1.249945 0.50996,0.367658 1.05197,0.686797 1.59844,0.99626 0.32477,0.178342 0.65175,0.354097 0.99049,0.504843 0.23037,0.102515 0.279,0.116446 0.51572,0.204673 0.4436,0.149769 0.89795,0.272307 1.36189,0.339498 0.0942,0.01365 0.18899,0.02299 0.28349,0.03448 0.56577,0.04989 1.13376,0.01983 1.69978,-0.0072 0.31216,-0.0155 0.15937,-0.0093 0.45836,-0.01907 0.62191,-0.02057 0.59282,-0.900091 -0.0291,-0.879519 v 0 c -0.31301,0.01044 -0.1559,0.0039 -0.47131,0.01959 -0.51707,0.02475 -1.03581,0.05365 -1.5529,0.01249 -0.4918,-0.05806 -0.97623,-0.159709 -1.44405,-0.325272 -0.47798,-0.176482 -0.93626,-0.397481 -1.37881,-0.650275 -0.51835,-0.2934 -1.03287,-0.595341 -1.5167,-0.943821 -0.54299,-0.392152 -1.07474,-0.799229 -1.59205,-1.224841 -0.56054,-0.446412 -1.13389,-0.877952 -1.73391,-1.270291 -0.61621,-0.391707 -1.24344,-0.768663 -1.90921,-1.071403 -0.29401,-0.130037 -0.4059,-0.184799 -0.70766,-0.297085 -0.45293,-0.16854 -0.92151,-0.292427 -1.39756,-0.37511 -0.1196,-0.01737 -0.23884,-0.03744 -0.3588,-0.0521 -0.61696,-0.07539 -1.24391,-0.08533 -1.86165,-0.01504 -0.11621,0.01949 -0.23294,0.03609 -0.34862,0.05848 -0.53451,0.103463 -1.0566,0.26527 -1.56734,0.45184 -0.0975,0.0378 -0.19593,0.07315 -0.29242,0.113401 -0.37216,0.155239 -0.46844,0.230354 -0.81446,0.43591 -0.23084,0.144146 -0.4302,0.309809 -0.61768,0.521786 -0.22705,0.227051 -0.20246,0.461129 -0.0592,0.603392 0.1794,0.178201 0.46384,0.195063 0.6815,0.01885 z"
     sodipodi:nodetypes="scscscscscccccscscccssccccccccscscscsccss" />
  <path
     style="fill:#000000;fill-opacity:1;fill-rule:nonzero;stroke:none;stroke-width:0.264583"
     id="path16"
     d="m 122.5263,21.859861 c -0.21894,0.0082 -0.43693,0.03177 -0.65507,0.05123 -0.50165,0.03885 -0.9989,0.115254 -1.49583,0.191858 -0.77877,0.121822 -1.55688,0.247776 -2.33465,0.375874 -0.84165,0.132602 -1.68277,0.267568 -2.52057,0.422876 -0.80641,0.154891 -1.60821,0.332759 -2.40695,0.522981 -0.76942,0.182373 -1.52811,0.404594 -2.2839,0.636054 -0.70079,0.216968 -1.39703,0.448237 -2.09405,0.67692 -0.63412,0.21302 -1.27231,0.412861 -1.91649,0.593149 -0.58465,0.167397 -1.18042,0.287133 -1.78112,0.378772 -0.40072,0.05258 -0.80399,0.0936 -1.20831,0.10322 -0.25535,0.0061 -0.33571,-1.27e-4 -0.59069,-0.0084 -0.37369,-0.02463 -0.7481,-0.05722 -1.11676,-0.125451 -0.21427,-0.03965 -0.29217,-0.06256 -0.50314,-0.11526 -0.47697,-0.126172 -0.93267,-0.317012 -1.37978,-0.522919 -0.257477,-0.125284 -0.513173,-0.255748 -0.756483,-0.407158 -0.112684,-0.07012 -0.191678,-0.126338 -0.300636,-0.201361 -0.159607,-0.116822 -0.214712,-0.189867 -0.377272,-0.376891 -0.06597,-0.0759 -0.09993,-0.118993 -0.161134,-0.198994 -0.140589,-0.188032 -0.146863,-0.258047 -0.250545,-0.467962 -0.06194,-0.126188 -0.111461,-0.257839 -0.166312,-0.387193 -0.105896,-0.249731 -0.374485,-0.340831 -0.578483,-0.253283 -0.192826,0.08275 -0.315022,0.349196 -0.256445,0.51741 0.0625,0.179472 0.212575,0.513463 0.212575,0.513463 0.130005,0.262139 0.166175,0.382589 0.343459,0.616389 0.09715,0.124356 0.217747,0.280281 0.327668,0.396169 0.172545,0.181911 0.205346,0.219647 0.408041,0.366115 0.13436,0.09219 0.209298,0.145828 0.349599,0.232686 0.269827,0.167045 0.552759,0.31191 0.838187,0.450073 0.497311,0.228552 1.004701,0.438819 1.535441,0.577506 0.2457,0.06072 0.32507,0.08431 0.5754,0.130024 0.40576,0.07409 0.81761,0.110493 1.22887,0.136199 0.28761,0.0088 0.3689,0.01532 0.65735,0.008 0.43586,-0.01106 0.87059,-0.05514 1.30252,-0.112487 0.63574,-0.09756 1.26644,-0.224015 1.88528,-0.401241 0.65656,-0.183935 1.30721,-0.387198 1.95355,-0.604407 0.69149,-0.226873 1.3822,-0.456324 2.07741,-0.671645 0.73801,-0.226046 1.47877,-0.443346 2.23011,-0.621426 0.78432,-0.186855 1.57165,-0.361509 2.36348,-0.513781 0.83198,-0.154328 1.66734,-0.288004 2.50314,-0.419823 0.7748,-0.12761 1.54993,-0.253092 2.32573,-0.374452 0.47837,-0.07376 0.95697,-0.147878 1.43991,-0.18506 0.19219,-0.01714 0.38422,-0.037 0.5769,-0.04775 0.62226,0 0.62226,-0.88 0,-0.88 z"
     sodipodi:nodetypes="ccccccccccccsccscsccsssccscsccscscccccccccccc" />
  <path
     style="fill:#000000;fill-opacity:1;fill-rule:nonzero;stroke:none;stroke-width:0.264583"
     id="path12"
     d="m 137.07589,21.034642 c 0.15017,0 0.30034,0 0.45051,0 0.30544,0 0.61088,0 0.91632,0 0.5081,-0.0071 1.01583,0.01196 1.52289,0.04272 0.63495,0.04568 1.26902,0.102777 1.89986,0.188606 0.49681,0.06749 0.98845,0.170782 1.46606,0.323394 0.19163,0.06613 0.3834,0.136792 0.55993,0.237951 0.17225,0.09871 0.32788,0.221662 0.48108,0.346804 0.24207,0.211058 0.46234,0.451185 0.62816,0.727619 0.031,0.05163 0.0574,0.105843 0.0861,0.158764 0.18195,0.346483 0.22192,0.674489 0.22543,1.058879 -0.007,0.368462 -0.12112,0.717602 -0.26905,1.051052 -0.17121,0.364923 -0.43639,0.665406 -0.72945,0.936594 -0.28289,0.233324 -0.60814,0.411467 -0.95209,0.537581 -0.0744,0.02728 -0.15055,0.04951 -0.22582,0.07427 -0.51337,0.155789 -1.05131,0.178692 -1.58386,0.180731 -0.53738,-0.0041 -1.06964,-0.07915 -1.5986,-0.166991 -0.41968,-0.06101 -0.79591,-0.214212 -1.17097,-0.404128 -0.19142,-0.09947 -0.3742,-0.214382 -0.55568,-0.33069 -0.52409,-0.335456 -0.99849,0.405718 -0.4744,0.741173 v 0 c 0.20694,0.132308 0.4155,0.262758 0.63404,0.375359 0.16592,0.08329 0.24997,0.129014 0.42368,0.201242 0.321,0.133475 0.65646,0.228283 0.99937,0.285189 0.57797,0.09571 1.15974,0.175686 1.74684,0.178835 0.62578,-0.0036 1.25639,-0.03765 1.85804,-0.225939 0.0939,-0.03167 0.18889,-0.06023 0.28167,-0.09502 0.44261,-0.165966 0.85836,-0.401778 1.21852,-0.708562 0.0629,-0.05918 0.12771,-0.116359 0.18865,-0.177544 0.30489,-0.306146 0.56071,-0.659232 0.74643,-1.049729 0.0328,-0.07593 0.0682,-0.150812 0.0984,-0.227803 0.14877,-0.378826 0.23587,-0.781418 0.24418,-1.188651 -0.004,-0.209123 2.1e-4,-0.286903 -0.0272,-0.496467 -0.0447,-0.341619 -0.14893,-0.669656 -0.30805,-0.975261 -0.0412,-0.07352 -0.0796,-0.148711 -0.12367,-0.220556 -0.21514,-0.350671 -0.49655,-0.656576 -0.80731,-0.924191 -0.0669,-0.05367 -0.13207,-0.109523 -0.20064,-0.161011 -0.34135,-0.25629 -0.72025,-0.450956 -1.12782,-0.578362 -0.52642,-0.165742 -1.06634,-0.283657 -1.61365,-0.356538 -0.65257,-0.08833 -1.30833,-0.148321 -1.96517,-0.194999 -0.52472,-0.03152 -1.05011,-0.05156 -1.5759,-0.04432 -0.30544,0 -0.61088,0 -0.91632,0 -0.15017,0 -0.30034,0 -0.45051,0 -0.62225,0 -0.62225,0.88 0,0.879999 z" />
  <path
     style="fill:#ff4400;fill-opacity:1;fill-rule:nonzero;stroke:none;stroke-width:0.264583"
     id="path17"
     d="m 143.00154,23.227306 c -0.0162,0.176878 -0.0167,0.354929 -0.0204,0.532417 -0.003,0.226103 10e-4,0.452234 0.004,0.678311 0.001,0.08584 0.003,0.171682 0.004,0.257524 0.009,0.622187 0.889,0.609324 0.8799,-0.01286 v 0 c -0.001,-0.08603 -0.003,-0.172066 -0.004,-0.258097 -0.003,-0.215546 -0.008,-0.431142 -0.005,-0.646714 0.003,-0.144776 0.005,-0.28966 0.0128,-0.434273 0.0822,-0.616796 -0.79005,-0.7331 -0.87228,-0.116304 z" />
  <path
     style="fill:#ff4400;fill-opacity:1;fill-rule:nonzero;stroke:none;stroke-width:0.264583"
     id="path19"
     d="m 140.79157,23.201739 c 0,0.12388 0,0.24776 0,0.37164 5.3e-4,0.168305 -0.001,0.33662 0.001,0.504916 0.003,0.133764 0.006,0.267515 0.008,0.401279 0.001,0.0726 0.003,0.145212 0.004,0.217821 0.01,0.622181 0.88946,0.608651 0.8799,-0.01353 v 0 c -0.001,-0.07384 -0.002,-0.147669 -0.004,-0.221499 -0.003,-0.131647 -0.006,-0.263284 -0.008,-0.39493 -0.002,-0.164674 -2.7e-4,-0.329375 -8e-4,-0.494058 0,-0.12388 0,-0.24776 0,-0.37164 0,-0.622254 -0.88,-0.622254 -0.88,0 z" />
</svg>
