<?xml version="1.0" encoding="UTF-8" standalone="no"?>
<svg
   id="svg8"
   version="1.1"
   viewBox="0 0 78.5689 67.5121"
   height="67.5121mm"
   width="78.568901mm"
   sodipodi:docname="3 jan li lukin e ijo..svg"
   inkscape:version="1.3 (0e150ed6c4, 2023-07-21)"
   xmlns:inkscape="http://www.inkscape.org/namespaces/inkscape"
   xmlns:sodipodi="http://sodipodi.sourceforge.net/DTD/sodipodi-0.dtd"
   xmlns="http://www.w3.org/2000/svg"
   xmlns:svg="http://www.w3.org/2000/svg"
   xmlns:rdf="http://www.w3.org/1999/02/22-rdf-syntax-ns#"
   xmlns:cc="http://creativecommons.org/ns#"
   xmlns:dc="http://purl.org/dc/elements/1.1/">
  <sodipodi:namedview
     id="namedview1"
     pagecolor="#ffffff"
     bordercolor="#000000"
     borderopacity="0.25"
     inkscape:showpageshadow="2"
     inkscape:pageopacity="0.0"
     inkscape:pagecheckerboard="0"
     inkscape:deskcolor="#d1d1d1"
     inkscape:document-units="mm"
     inkscape:zoom="2.0000001"
     inkscape:cx="123.25"
     inkscape:cy="128.75"
     inkscape:window-width="1920"
     inkscape:window-height="1051"
     inkscape:window-x="-9"
     inkscape:window-y="-9"
     inkscape:window-maximized="1"
     inkscape:current-layer="svg8" />
  <defs
     id="defs2" />
  <metadata
     id="metadata5">
    <rdf:RDF>
      <cc:Work
         rdf:about="">
        <dc:format>image/svg+xml</dc:format>
        <dc:type
           rdf:resource="http://purl.org/dc/dcmitype/StillImage" />
        <dc:title />
      </cc:Work>
    </rdf:RDF>
  </metadata>
  <g
     transform="translate(-116.18961,-89.839171)"
     id="layer1">
    <g
       transform="matrix(0.26458333,0,0,0.26458333,130.58631,85.060605)"
       id="g853">
      <path
         style="fill:#fbd7c7"
         d="m 13.4,105 c 0,0 1,9.1 1.3,12.3 0.3,3.2 1.3,5.5 2.1,7.3 0.8,1.8 4.5,6.2 5,5.9 0.5,-0.3 -0.3,-2.1 -0.3,-2.5 0,-0.4 0.4,-1.7 -0.2,-2.5 -0.6,-0.7 -1.7,-4 -1.6,-4.7 0.1,-0.7 1.4,-0.9 1.5,-1.4 0.1,-0.5 0.1,-0.5 0.1,-0.5 0,0 -3.6,-6 -3.6,-8.6 0,-2.7 -0.1,-6.1 -0.1,-6.1 0,0 -0.6,-0.3 -2,0 -1.4,0.2 -2.2,0.8 -2.2,0.8 z"
         id="path815" />
      <path
         style="opacity:0.3;fill:#262626"
         d="m 28.1,216.9 c 0.6,1.8 -6.7,11.8 7.1,13.5 20.6,2.7 21.6,-13.7 29.3,-18.2 13.9,-8.1 -3.1,-14.1 -22.5,-14.1 -16.3,0.1 -30.5,1.9 -29.4,10.1 0.7,6.1 14.6,5.6 15.5,8.7 z"
         id="path817" />
      <path
         style="fill:#762c07"
         d="m 34,200.2 c 0,0 -1.6,1.2 -5.5,1.1 -3.9,-0.1 -7.3,-0.8 -11.4,1.5 -4.8,2.7 -1.2,7 0.1,7.4 1.3,0.4 18.1,0.9 21.2,0.7 3.1,-0.2 2.1,-8.2 2.1,-8.2 z"
         id="path819" />
      <path
         style="fill:#262626"
         d="m 39.4,209.1 c -1.5,0.1 -9,0.6 -13.5,0.5 -5,-0.1 -6.4,-0.5 -7.8,-1 -1.7,-0.6 -3.2,-1.4 -3.3,-3.1 -0.5,2.2 0.9,4.1 2.5,4.6 1.5,0.5 3.3,0.9 8.6,1.1 4.2,0.1 11.3,-0.3 12.6,-0.4 0.8,-0.1 1.4,-0.7 1.7,-1.6 -0.4,0.3 -0.5,-0.1 -0.8,-0.1 z"
         id="path821" />
      <path
         style="fill:#762c07"
         d="m 39.7,211 c 0,0 -3.9,4.4 -6.6,7.6 -2.7,3.2 -3.8,5.6 -3.6,7.9 0.2,2.3 3.5,3.4 8,3.4 4.5,0 9.3,-2.8 11.5,-5.9 2.3,-3.1 5.6,-5.9 5.6,-7.4 0,-1.5 -0.1,-6.2 -0.1,-6.2 z"
         id="path823" />
      <path
         style="fill:#262626"
         d="m 54.6,210.4 h -0.5 c 0,1.5 0.1,3.3 0.1,4.1 0,1.5 -3.4,4.3 -5.6,7.4 -2.3,3.1 -7,5.9 -11.5,5.9 -3.5,0 -6.3,-0.6 -7.4,-2 0,0.2 0,0.4 0,0.6 0.1,2.3 3.5,3.4 8,3.4 4.6,0 9.3,-2.8 11.5,-5.9 2.3,-3.1 5.6,-5.9 5.6,-7.4 -0.1,-1.4 -0.2,-6.1 -0.2,-6.1 z"
         id="path825" />
      <path
         style="fill:#3399cc"
         d="m 19.7,114.3 c 0,0 -0.5,13 1.6,23.9 2.1,10.9 9.5,26.4 9.5,31.1 0,4.7 2.3,19 2.1,22.8 -0.1,3.8 -0.9,8.6 -0.9,8.6 0,0 2.7,5 6.2,6.7 3.5,1.7 7.2,-0.4 7.2,-0.4 L 39,116.5 Z"
         id="path827" />
      <path
         style="opacity:0.2"
         d="m 19.7,114.3 c 0,0 -0.5,13 1.6,23.9 2.1,10.9 9.5,26.4 9.5,31.1 0,4.7 2.3,19 2.1,22.8 -0.1,3.8 -0.9,8.6 -0.9,8.6 0,0 2.7,5 6.2,6.7 3.5,1.7 7.2,-0.4 7.2,-0.4 L 39,116.5 Z"
         id="path829" />
      <path
         style="fill:#3399cc"
         d="m 31.1,119.4 c 0,0 0.3,14.3 -0.3,25.6 -0.5,11.3 2.3,21.7 3.4,25.3 1.1,3.6 1.5,9.7 1.5,15.2 0,5.5 0.2,26.2 1,27 0.8,0.8 5.2,3.6 10.9,4 4.3,0.3 9,-2.4 9,-3.1 0,-0.7 1.5,-16.4 0.3,-29.1 -1.2,-12.7 -3.8,-19.3 -3.6,-21.3 0.1,-2 3.1,-29.1 2.8,-34.7 -0.3,-5.6 -2,-18.4 -2,-18.4 z"
         id="path831" />
      <path
         style="fill:#ffcc00"
         d="m 17.9,69.4 c 0,0 -2.2,7.4 -3.6,17.6 -1.5,10.7 -0.7,25.3 -0.7,25.3 0,0 2.1,-1.6 6.2,-1.6 4.1,0 -1.9,-41.3 -1.9,-41.3 z"
         id="path833" />
      <path
         style="opacity:0.2"
         d="m 17.9,69.4 c 0,0 -2.2,7.4 -3.6,17.6 -1.5,10.7 -0.7,25.3 -0.7,25.3 0,0 2.1,-1.6 6.2,-1.6 4.1,0 -1.9,-41.3 -1.9,-41.3 z"
         id="path835" />
      <path
         style="fill:#fbd7c7"
         d="m 51.5,127 c 0,0 -0.4,2.9 -2.3,5.1 -1.9,2.1 -3.5,5.8 -3.5,7.3 0,2.1 0,3.9 0.9,4 1.8,0.2 1.1,-1.3 1.7,-1.3 0.6,0 0.3,2.6 3,2.7 3.5,0.1 8.5,-2.3 8.5,-4.6 0,-1.2 -0.5,-4.4 -0.9,-6.2 -0.5,-1.9 -0.5,-4.5 -0.5,-4.5 z"
         id="path837" />
      <path
         style="fill:#ffcc00"
         d="m 38.8,44 c 9.5,2.5 20.1,4.6 23.7,12.3 3.1,6.6 2.9,8.7 2.7,14.9 -0.3,6.2 -0.8,18.5 -0.5,22.5 0.3,4 -1.1,20.8 -2.3,26.4 -1.2,5.6 -1.6,10.3 -2.5,10.6 -0.9,0.3 -10.2,-0.9 -9.5,-2.3 0.9,-2 1.2,-7.6 1.2,-7.6 0,0 -4.4,5.4 -14.2,4 -9.8,-1.3 -18.2,-6.1 -19.1,-8.6 -0.4,-1.2 -0.6,-19.8 0.3,-24.8 0.9,-5 -2,-15.7 -2.1,-20.4 -0.1,-4.7 2.9,-17.4 3.1,-19.7 0.1,-3.4 4.2,-11.2 19.2,-7.3 z"
         id="path839" />
      <path
         style="opacity:0.2"
         d="m 51.5,120.9 c 0,0 0.7,-5.2 0.7,-9.8 0,-4.6 0.1,-11.3 -0.4,-13.9 C 51.3,94.5 49.6,85 49.3,82.5 48.6,76.4 49,72.7 49.5,71.4 c -2.4,4.1 -1,19 -0.3,25.2 0.9,8.7 -0.3,25.8 -0.6,26.6 -0.3,0.7 2.9,-2.3 2.9,-2.3 z"
         id="path841" />
      <path
         style="fill:#fbd7c7"
         d="m 42.5,38.2 c 0,0 0,5.2 0.9,6.1 0.9,0.9 3,1.3 2.3,2.6 -0.7,1.3 -8.1,9.7 -13.5,9.2 -5.3,-0.5 -4,-9.4 -4,-9.4 z"
         id="path843" />
      <path
         style="fill:#fbd7c7"
         d="m 22.8,26.5 c -2.2,2.8 -1.3,11 -0.3,14.7 1,3.7 2.2,5.9 2.7,7.3 0.4,1.4 1.9,3.6 3.9,3.5 2,-0.1 8.2,-4.1 10.1,-7.1 C 41,41.9 43.6,39 44,37 44.4,35 44.6,34.1 42.9,33.7 41.2,33.3 37.6,25.9 33,25.6 28.4,25.3 24.1,24.8 22.8,26.5 Z"
         id="path845" />
      <path
         style="fill:#825012"
         d="m 21.5,28.4 c -0.4,1.6 0.8,3.3 5.5,3.3 4.7,0 7.6,-2.3 8.1,-0.8 0.5,1.5 1.8,5.7 2.2,6.6 0.4,0.9 1,2 1.3,1.6 0.3,-0.4 1.8,-3.9 2.9,-4.7 1.1,-0.8 1.7,-0.8 1.7,-0.8 0,0 1.6,-8.3 -2,-12.6 C 37.6,16.7 25,15.6 21.5,28.4 Z"
         id="path847" />
      <path
         style="fill:#825012"
         d="m 25,46.6 c 0,0 0.7,-0.7 1.6,-0.8 0.4,0 1.3,0.1 1.9,0.2 0.8,0.2 2.7,1.1 2.7,1.1 0,0 -2.8,0 -3.7,-0.1 C 26.4,46.9 25,46.6 25,46.6 Z"
         id="path849" />
      <path
         style="fill:#825012"
         d="m 26.8,49 1.2,0.1 c 0,0 -0.2,0.6 0.6,1.3 0.8,0.7 2.9,0.8 2.9,0.8 0,0 -1.7,1.3 -3.2,0.9 -1.5,-0.4 -2.3,-1.8 -2.3,-1.8 0,0 0.5,-0.1 0.6,-0.5 0.2,-0.4 0.2,-0.8 0.2,-0.8 z"
         id="path851" />
    </g>
    <g
       transform="matrix(0.26458333,0,0,0.26458333,116.18961,137.24294)"
       id="g961">
      <path
         style="fill:#cc291f"
         d="M 56,43.8 C 56,30.5 45.3,14.4 32,7.8 28,5.8 24.3,4.9 21,5 13.3,5.1 1,11.7 1,21 1,26.7 24,76 24,76 L 32,71.8 50.7,56.2 C 54,53.7 56,49.5 56,43.8 Z"
         id="path953" />
      <path
         style="opacity:0.19"
         d="M 24,76 32,71.8 50.7,56.2 C 54,53.7 56,49.5 56,43.8 56,42.1 55.8,40.3 55.5,38.6 l -37.7,19 z"
         id="path955" />
      <path
         style="fill:#cc291f"
         d="M 48,48 C 48,34.7 37.3,18.6 24,12 10.7,5.4 0,10.7 0,24 0,29.7 2,35.9 5.3,41.6 L 24,76 42.7,60.4 C 46,57.9 48,53.7 48,48 Z"
         id="path957" />
      <path
         style="opacity:0.09"
         d="M 48,48 C 48,34.7 37.3,18.6 24,12 10.7,5.4 0,10.7 0,24 0,29.7 2,35.9 5.3,41.6 L 24,76 42.7,60.4 C 46,57.9 48,53.7 48,48 Z"
         id="path959" />
    </g>
  </g>
  <path
     style="fill:#000000;fill-opacity:1;fill-rule:nonzero;stroke:none;stroke-width:0.264583"
     id="path1"
     d="m 70.105256,48.87126 c -0.171233,-0.215542 -0.381791,-0.410294 -0.621152,-0.548558 -0.07544,-0.04358 -0.155601,-0.07844 -0.233405,-0.11766 -0.563269,-0.234518 -1.154065,-0.316889 -1.758934,-0.347636 -0.461693,-0.0078 -0.932212,0.01542 -1.377685,0.147976 -0.07993,0.02379 -0.157591,0.05463 -0.236387,0.08195 -0.420994,0.16813 -0.743307,0.473229 -0.981244,0.854509 -0.0459,0.07355 -0.08476,0.151265 -0.127146,0.226896 -0.314338,0.614493 -0.401317,1.298194 -0.462169,1.976134 -0.02487,0.581922 0.0123,1.183827 0.195136,1.741662 0.03353,0.102306 0.07872,0.200414 0.118086,0.300622 0.08844,0.126214 0.165791,0.260974 0.265314,0.378645 0.101909,0.120494 0.21881,0.227896 0.336555,0.33297 0.362696,0.323673 0.77742,0.593331 1.205807,0.820971 0.150619,0.08004 0.306424,0.149897 0.459636,0.224845 0.688203,0.290621 1.403761,0.533178 2.140641,0.665896 0.116851,0.02103 0.23481,0.03538 0.352216,0.05308 0.403373,0.03595 0.82346,0.03354 1.208132,-0.110966 0.214948,-0.08075 0.273897,-0.135146 0.45982,-0.25963 0.432612,-0.356309 0.565597,-0.70861 0.678169,-1.240216 0.07004,-0.536829 -0.0061,-1.074997 -0.0833,-1.606286 -0.06839,-0.460565 -0.221607,-0.899157 -0.373687,-1.336807 -0.14667,-0.457603 -0.335027,-0.899674 -0.550263,-1.328799 -0.205401,-0.418192 -0.436928,-0.82133 -0.689462,-1.21259 C 69.77604,48.183233 69.481696,47.827241 69.198063,47.46418 68.86255,47.02698 68.505262,46.607602 68.150088,46.186467 67.693616,45.63887 67.217606,45.107856 66.73865,44.579938 66.170322,43.953564 65.580738,43.347448 64.994829,42.737687 64.461627,42.217209 63.962618,41.663746 63.461788,41.112534 63.0582,40.667963 62.683968,40.198266 62.317243,39.723218 62.010927,39.331153 61.693091,38.948232 61.378787,38.562546 61.053132,38.174442 60.728571,37.785536 60.407308,37.393768 60.099468,37.037046 59.808853,36.666262 59.503018,36.307796 59.219655,35.977501 58.968525,35.621531 58.69348,35.284854 58.472566,35.017357 58.25687,34.74608 58.043751,34.472448 57.861546,34.236905 57.67888,34.001519 57.492288,33.769431 57.34642,33.583583 57.200466,33.397192 57.065965,33.202855 56.942037,33.028423 56.806117,32.863358 56.671175,32.69749 56.559401,32.553779 56.443932,32.413066 56.33735,32.265402 c -0.100645,-0.135657 -0.202343,-0.270558 -0.308012,-0.402466 -0.06073,-0.07921 -0.02379,-0.03382 -0.114083,-0.133429 -0.426686,-0.452924 -1.067216,0.1505 -0.64053,0.603425 v 0 c 0.03988,0.03583 0.01421,0.01064 0.06962,0.08244 0.09733,0.119441 0.188817,0.243237 0.280691,0.36676 0.116891,0.160523 0.241277,0.315143 0.363943,0.471247 0.121031,0.148243 0.242654,0.295912 0.354234,0.451506 0.146987,0.210989 0.304393,0.414729 0.463699,0.616508 0.184073,0.228105 0.363175,0.460388 0.542763,0.692036 0.21798,0.279429 0.438084,0.556866 0.663901,0.830112 0.280654,0.339032 0.530764,0.703231 0.820163,1.035629 0.302297,0.353846 0.58878,0.720516 0.893104,1.072603 0.320698,0.391072 0.644601,0.779362 0.96978,1.166698 0.309446,0.379693 0.622331,0.756696 0.924073,1.142543 0.381158,0.493591 0.770355,0.981427 1.189818,1.443336 0.506391,0.557186 1.010835,1.116769 1.54977,1.643052 0.580107,0.603721 1.163966,1.203719 1.726671,1.823887 0.471897,0.519956 0.94075,1.043104 1.390428,1.582512 0.348101,0.41275 0.698505,0.823577 1.027229,1.252162 0.267549,0.342416 0.545515,0.677926 0.786341,1.040125 0.236048,0.364318 0.450805,0.740518 0.64234,1.130297 0.199009,0.394081 0.370321,0.801426 0.505137,1.222166 0.133805,0.384921 0.272338,0.769543 0.334063,1.174496 0.0627,0.430943 0.128696,0.866013 0.09214,1.302684 -0.05096,0.259638 -0.10931,0.513678 -0.318328,0.694582 -0.07878,0.05879 -0.126371,0.101256 -0.217104,0.141398 -0.254405,0.112565 -0.549045,0.09722 -0.819177,0.08143 -0.770707,-0.112948 -1.521621,-0.330631 -2.237211,-0.639797 -0.13572,-0.06569 -0.273669,-0.126968 -0.407162,-0.197074 -0.532894,-0.279861 -1.045038,-0.631172 -1.429469,-1.099008 -0.02808,-0.06656 -0.06086,-0.131321 -0.08422,-0.199679 -0.15545,-0.454959 -0.185393,-0.958932 -0.168259,-1.4351 0.04849,-0.556222 0.108209,-1.120827 0.356582,-1.629497 0.151336,-0.282593 0.324323,-0.548336 0.631814,-0.676362 0.409848,-0.150567 0.842965,-0.195596 1.278636,-0.180176 0.479526,0.01984 0.962274,0.08666 1.412899,0.258897 0.199845,0.09323 0.38789,0.211125 0.525534,0.387403 0.361677,0.506349 1.077764,-0.0051 0.716087,-0.51149 z" />
  <path
     style="fill:#000000;fill-opacity:1;fill-rule:nonzero;stroke:none;stroke-width:0.264583"
     d="m 70.750826,16.617117 c -1.041313,0.861843 -2.065033,1.744478 -3.078261,2.63918 -1.604774,1.419151 -3.214078,2.834375 -4.739348,4.339979 -1.42158,1.384134 -2.816321,2.795913 -4.162907,4.253447 -0.711499,0.761492 -1.426805,1.521534 -2.19887,2.22258 -0.369702,0.322807 -0.745122,0.639426 -1.106408,0.971364 -0.184767,0.176401 -0.35284,0.363866 -0.485212,0.583444 -0.308723,0.540268 0.45533,0.97687 0.764056,0.436602 0.08908,-0.146312 0.202261,-0.264753 0.326501,-0.381331 0.352806,-0.32344 0.719122,-0.632277 1.079831,-0.947187 0.795107,-0.72 1.531144,-1.501502 2.263063,-2.284637 1.337202,-1.447329 2.722036,-2.849417 4.133813,-4.223753 1.515211,-1.495781 3.114196,-2.901458 4.708441,-4.311298 1.006046,-0.888333 2.022451,-1.764754 3.056382,-2.62046"
     id="path6" />
  <path
     style="fill:#ff4400;fill-opacity:1;fill-rule:nonzero;stroke:none;stroke-width:0.264583"
     d="m 71.311907,17.295047 c 0.459956,-0.39589 0.936566,-0.771637 1.419275,-1.139214 0.495022,-0.377033 -0.03818,-1.077099 -0.533204,-0.700067 v 0 c -0.492073,0.374861 -0.97812,0.757814 -1.447152,1.161351"
     id="path2" />
  <path
     style="fill:#ff4400;fill-opacity:1;fill-rule:nonzero;stroke:none;stroke-width:0.264583"
     id="path3"
     d="m 73.950599,9.7432202 c -0.356161,0.03524 -0.690851,0.169654 -1.021919,0.2972788 -0.3484,0.131239 -0.674542,0.316393 -0.961062,0.55472 -0.05811,0.04834 -0.112593,0.100887 -0.168888,0.151331 -0.227021,0.209979 -0.410401,0.459547 -0.536856,0.742144 -0.08045,0.179798 -0.09716,0.258795 -0.152585,0.446049 -0.114025,0.452885 -0.149408,0.918879 -0.145955,1.384313 0.02027,0.336828 0.08197,0.670726 0.188831,0.991008 0.06705,0.200975 0.09544,0.251142 0.181639,0.442152 0.155032,0.281776 0.321135,0.563201 0.530431,0.809129 0.133948,0.157391 0.208391,0.219056 0.357836,0.358531 0.246748,0.214481 0.508987,0.414863 0.793729,0.576888 0.189097,0.107602 0.251192,0.12853 0.450913,0.216019 0.451853,0.167592 0.930622,0.257037 1.41115,0.28661 0.09772,0.006 0.195715,0.0063 0.293571,0.0095 0.466961,-0.0016 0.930185,-0.08205 1.369894,-0.239687 0.081,-0.02904 0.159789,-0.06392 0.239686,-0.09588 0.338804,-0.142428 0.651957,-0.339221 0.904181,-0.608852 0.04847,-0.05181 0.09199,-0.108039 0.137988,-0.162058 0.254934,-0.294255 0.408959,-0.649097 0.536176,-1.012413 0.113175,-0.352981 0.162991,-0.721398 0.198538,-1.089058 0.03275,-0.378111 -0.01233,-0.756112 -0.07309,-1.128912 -0.05017,-0.330372 -0.153731,-0.646455 -0.273878,-0.95699 -0.101611,-0.275794 -0.225267,-0.54381 -0.372748,-0.797969 -0.130567,-0.238616 -0.317839,-0.434335 -0.522256,-0.610276 -0.202665,-0.179029 -0.438401,-0.285367 -0.689962,-0.3746768 -0.282297,-0.09125 -0.578821,-0.123264 -0.872958,-0.149712 -0.270306,-0.02182 -0.541531,-0.03105 -0.81266,-0.02905 -0.225866,0.0051 -0.449534,-0.02067 -0.675367,-0.0144 -0.121856,5.29e-4 -0.165848,-0.0063 -0.311132,0.0053 -0.620694,0.04404 -0.139261,0.8901948 -0.139261,0.8901948 v 0 c 0,0 0.273175,0.02002 0.47279,0.01925 0.220284,-0.0061 0.440476,-0.01508 0.660781,-0.02044 0.242441,-0.0026 0.484987,0.007 0.726721,0.02562 0.220683,0.01947 0.443687,0.0405 0.657143,0.102644 0.149709,0.05294 0.296984,0.107414 0.416234,0.217644 0.132567,0.107865 0.250016,0.233942 0.332005,0.38502 0.12759,0.210392 0.222686,0.440263 0.310425,0.669561 0.09913,0.253706 0.185602,0.511164 0.22589,0.781686 0.04999,0.297469 0.08844,0.599635 0.06531,0.901704 -0.02814,0.29827 -0.06619,0.597631 -0.154143,0.885015 -0.08982,0.263719 -0.195324,0.523509 -0.380347,0.736541 -0.19454,0.241563 -0.407469,0.401525 -0.697105,0.519083 -0.404961,0.167234 -0.811599,0.271098 -1.252863,0.271444 -0.467971,-0.01229 -0.937774,-0.0637 -1.380789,-0.223897 -0.137928,-0.05894 -0.209238,-0.08486 -0.338897,-0.157587 -0.235929,-0.132344 -0.452961,-0.297417 -0.65759,-0.473404 -0.07964,-0.07309 -0.18695,-0.166859 -0.258773,-0.250026 -0.167394,-0.193832 -0.299321,-0.416737 -0.427006,-0.637469 -0.160086,-0.345645 -0.267113,-0.693294 -0.291084,-1.076165 -0.0046,-0.380003 0.02352,-0.760349 0.111281,-1.131233 0.08879,-0.316757 0.186031,-0.554017 0.435393,-0.781125 0.250748,-0.23152 0.530995,-0.422955 0.855475,-0.536831 0.156218,-0.06033 0.308578,-0.135447 0.472022,-0.17248 0.09116,-0.02065 0.09201,-0.03969 0.475563,-0.03797 0.0025,1.1e-5 -0.242813,-0.02547 -0.242313,-0.02787 0.622255,0 0.622255,-0.8799998 0,-0.8799998 z"
     sodipodi:nodetypes="scscsccscscscscscsccccccccccccssccccccccccccccscscccccsscss" />
  <path
     style="fill:#000000;fill-opacity:1;fill-rule:nonzero;stroke:none;stroke-width:0.264583"
     id="path4"
     d="m 63.32653,23.572271 c -0.0292,0.721325 -0.104068,1.439431 -0.168169,2.158182 -0.09836,1.096849 -0.143391,2.197246 -0.175829,3.297687 -0.02643,0.991503 -0.03621,1.983338 -0.04353,2.975131 -0.005,0.757381 -0.0066,1.514774 -0.0079,2.272168 0.0057,0.608997 -0.0048,1.217589 -0.02347,1.826255 -0.01341,0.526274 -0.02887,1.05247 -0.04478,1.578673 -0.0042,0.421259 -0.0231,0.84132 -0.0639,1.260578 -0.02392,0.281485 -0.07157,0.560166 -0.110103,0.839862 -0.02498,0.17064 -0.03811,0.342572 -0.04609,0.514741 -0.0058,0.141127 -0.0078,0.282372 -0.0091,0.423601 -0.0011,0.131077 -0.0013,0.262157 -0.0016,0.393237 -2.4e-5,0.01969 -4.8e-5,0.03935 -7.2e-5,0.05902 -7.93e-4,0.622252 0.879258,0.623302 0.880002,0.0011 v 0 c 2.1e-5,-0.01955 4.5e-5,-0.0391 6.9e-5,-0.05865 2.06e-4,-0.128836 5.29e-4,-0.257672 0.0013,-0.386503 0.0013,-0.130543 0.0029,-0.261104 0.0082,-0.391557 0.0065,-0.145479 0.01752,-0.290748 0.03879,-0.434912 0.0401,-0.291383 0.08956,-0.581718 0.114223,-0.874998 0.04235,-0.438653 0.06335,-0.878149 0.0676,-1.318874 0.0159,-0.526087 0.03136,-1.052168 0.04477,-1.578326 0.01889,-0.617162 0.02955,-1.234263 0.02387,-1.851758 0.0013,-0.755706 0.0029,-1.511414 0.0079,-2.267106 0.0073,-0.985325 0.01693,-1.970691 0.04318,-2.955724 0.03187,-1.082998 0.07597,-2.165961 0.172728,-3.245427 0.0664,-0.744704 0.144336,-1.488813 0.171649,-2.236348 0,-0.622253 -0.879999,-0.622253 -0.879999,0 z" />
  <path
     style="fill:#000000;fill-opacity:1;fill-rule:nonzero;stroke:none;stroke-width:0.264583"
     id="path5"
     d="m 61.044499,28.830864 c -0.0087,0.647989 -0.03815,1.295437 -0.06576,1.942828 -0.03401,0.767175 -0.09531,1.532641 -0.149074,2.29857 -0.03533,0.473012 -0.05606,0.946724 -0.05935,1.420998 -2.65e-4,0.320281 0.0029,0.640548 0.0056,0.960813 0.0011,0.137475 5.29e-4,0.0709 0.0016,0.199718 0.0046,0.622237 0.884608,0.615683 0.879975,-0.0066 v 0 c -0.0011,-0.12941 -5.29e-4,-0.06255 -0.0016,-0.200572 -0.0027,-0.315817 -0.0059,-0.631635 -0.0056,-0.947468 0.003,-0.455697 0.02328,-0.910833 0.05721,-1.365319 0.05432,-0.773959 0.116189,-1.547458 0.150437,-2.322681 0.02815,-0.659882 0.05811,-1.319832 0.06656,-1.980333 0,-0.622252 -0.879999,-0.622252 -0.879999,0 z" />
  <path
     style="fill:#000000;fill-opacity:1;fill-rule:nonzero;stroke:none;stroke-width:0.264583"
     id="path7"
     d="m 67.668967,54.468595 c 0.08736,-0.185274 0.198874,-0.401597 0.230246,-0.604001 0.02652,-0.171074 0.03918,-0.345088 0.0352,-0.51816 -0.0043,-0.18505 -0.0099,-0.373827 -0.05982,-0.552064 -0.06792,-0.242467 -0.193471,-0.464957 -0.290205,-0.697436 -0.190014,-0.248267 -0.356847,-0.516131 -0.570042,-0.7448 -0.541986,-0.581329 -1.297022,-1.138978 -1.937912,-1.58719 -1.248545,-0.87318 -2.568144,-1.638644 -3.881816,-2.407377 -1.076277,-0.629627 -2.183463,-1.203183 -3.289578,-1.777749 -0.552209,-0.286819 -0.957834,0.49412 -0.405627,0.780941 v 0 c 1.093052,0.567698 2.187257,1.134222 3.250814,1.756357 1.286483,0.752547 2.577364,1.502619 3.801948,2.35462 0.598443,0.416364 1.253998,0.89835 1.771015,1.425101 0.168855,0.172033 0.305332,0.373095 0.457999,0.559642 0.07316,0.147066 0.169403,0.284758 0.219491,0.441193 0.04247,0.132643 0.04306,0.275455 0.05441,0.414268 0.0079,0.09727 0.01537,0.195914 0.0034,0.29277 -0.01873,0.151185 -0.09893,0.305091 -0.162046,0.442497 -0.297969,0.546272 0.47458,0.967663 0.772549,0.421388 z" />
</svg>
