<?xml version="1.0" encoding="UTF-8" standalone="no"?>
<svg
   id="svg2369"
   version="1.1"
   viewBox="0 0 167.92816 81.358612"
   height="81.358612mm"
   width="167.92816mm"
   sodipodi:docname="30 waso li suli mute..svg"
   inkscape:version="1.3 (0e150ed6c4, 2023-07-21)"
   xmlns:inkscape="http://www.inkscape.org/namespaces/inkscape"
   xmlns:sodipodi="http://sodipodi.sourceforge.net/DTD/sodipodi-0.dtd"
   xmlns="http://www.w3.org/2000/svg"
   xmlns:svg="http://www.w3.org/2000/svg"
   xmlns:rdf="http://www.w3.org/1999/02/22-rdf-syntax-ns#"
   xmlns:cc="http://creativecommons.org/ns#"
   xmlns:dc="http://purl.org/dc/elements/1.1/">
  <sodipodi:namedview
     id="namedview1"
     pagecolor="#ffffff"
     bordercolor="#000000"
     borderopacity="0.25"
     inkscape:showpageshadow="2"
     inkscape:pageopacity="0.0"
     inkscape:pagecheckerboard="0"
     inkscape:deskcolor="#d1d1d1"
     inkscape:document-units="mm"
     inkscape:zoom="0.68049419"
     inkscape:cx="262.30937"
     inkscape:cy="285.82169"
     inkscape:window-width="1920"
     inkscape:window-height="1051"
     inkscape:window-x="-9"
     inkscape:window-y="-9"
     inkscape:window-maximized="1"
     inkscape:current-layer="svg2369" />
  <defs
     id="defs2363" />
  <metadata
     id="metadata2366">
    <rdf:RDF>
      <cc:Work
         rdf:about="">
        <dc:format>image/svg+xml</dc:format>
        <dc:type
           rdf:resource="http://purl.org/dc/dcmitype/StillImage" />
        <dc:title />
      </cc:Work>
    </rdf:RDF>
  </metadata>
  <g
     transform="translate(-99.655863,-118.61041)"
     id="layer1">
    <g
       id="g3263"
       transform="matrix(-0.79374999,0,0,0.79374999,182.04711,117.83897)">
      <path
         id="path3243"
         d="m 24.5,61.8 c -6.5,4 -6.9,8.7 1.4,13.2 9.2,4.9 14.6,3.9 21.7,-0.3 6.2,-3.6 4.8,-8.5 -5.7,-12.8 C 33.5,58.6 29.1,59 24.5,61.8 Z"
         style="opacity:0.2" />
      <path
         id="path3245"
         d="m 39.7,61.7 c -0.1,1.1 -1.5,7.6 -2.3,8.7 -0.8,1.1 -5.8,4.2 -5.8,4.2 l 5.2,-1.7 1.2,3.1 0.7,-3.4 4.1,-1.8 -3.4,-0.3 c 0,0 1.5,-4.9 1.9,-6.2 0.4,-1.3 0.6,-2.5 0.6,-2.5 z"
         style="fill:#baa794" />
      <path
         id="path3247"
         d="m 32.6,58.1 c 0,0 -1.7,7.3 -2.1,8.1 -0.4,0.9 -6.1,3.6 -6.1,3.6 l 5,-1.4 0.7,3 1.3,-3 4.1,-1.3 -3,-0.6 c 0,0 1.4,-5.4 1.8,-6.8 0.4,-1.4 0.2,-1.9 0.2,-1.9 z"
         style="fill:#baa794" />
      <path
         id="path3249"
         d="m 25.5,25.8 c 3.9,-2.7 11.7,-4.7 16.2,-4.3 4.5,0.4 12.4,2.8 13.5,4.6 1.1,1.9 7.9,16.1 0.4,25.6 -4.5,5.7 -9.1,5.7 -9.1,5.7 0,0 -1.3,4.9 -5.3,4.9 -3.6,0 -5.8,-3.6 -5.8,-3.6 0,0 -1.5,0.3 -3.3,-0.1 -1.9,-0.4 -3.3,-2.5 -3.3,-2.5 0,0 -8.9,-0.6 -10.8,-10.4 -2.1,-11 2.9,-16.7 7.5,-19.9 z"
         style="fill:#825012" />
      <path
         id="path3251"
         d="M 41.4,22.3 C 41,21.6 43.4,16.5 45.2,11.2 47,5.6 47.4,1.6 49,1.4 c 1.6,-0.2 1.9,1.5 1.9,1.5 0,0 0.5,-2.2 2.1,-1.9 1.6,0.3 1.3,2.5 1.3,2.5 0,0 0.6,-1.1 1.9,-0.3 1.3,0.7 0.5,3.2 0.5,3.2 0,0 0.9,-1.1 2,-0.4 1.6,0.9 1.7,8.8 1.2,13.7 -0.7,7.2 -2.2,12.3 -2.2,12.3 0,0 -3.7,-6.2 -7.8,-7 -4.1,-0.8 -7.6,-0.9 -8.5,-2.7 z"
         style="fill:#762c07" />
      <path
         id="path3253"
         d="m 20.2,16.9 c 0.6,-1 2.7,-3.4 5.3,-2.3 2.6,1.1 4.6,4.2 6.4,7.7 1.8,3.5 2.1,5.4 4,6.9 1.1,0.9 5.2,2.6 5.2,2.6 l -6.4,0.6 0.2,4.1 -5,-2.1 -1.5,5.2 -3.5,-4.4 -4.1,4.2 -0.1,-4.4 -3.5,1.6 c 0,0 1.2,-1.8 1.9,-3.3 3.5,-7.7 -0.8,-13.5 1.1,-16.4 z"
         style="fill:#762c07" />
      <path
         id="path3255"
         d="m 17.8,18.3 c -1.3,0.6 -1.8,4.9 -1.8,4.9 0,0 2,-1.4 3.4,-1.8 1.5,-0.4 -0.5,-3.6 -1.6,-3.1 z"
         style="fill:#baa794" />
      <path
         id="path3257"
         d="m 19.6,18 c 1.1,0 0.9,-1.3 2.7,-2.8 1.5,-1.3 2.6,-1.8 2.6,-2.6 0,-1.4 -2.5,-2 -2.7,-0.7 -0.1,0.7 -1.1,-0.5 -2,0.3 -0.8,0.6 -0.3,1.5 -0.5,1.8 -0.1,0.3 -1.4,0.2 -1.9,1 -0.4,0.8 -0.1,3 1.8,3 z"
         style="fill:#cc291f" />
      <path
         id="path3259"
         d="m 19.9,20.5 c -1.3,0.4 -2.2,2.7 -0.5,3.7 1.9,1.2 3,-2.8 3,-2.8 0,0 3.4,-2.1 3,-3.2 C 25,17.1 20.5,18 20.5,18 c 0,0 -1.8,-0.4 -2.7,0.3 -0.9,0.7 -0.9,1.1 -0.9,1.1 0,0 1.2,-0.3 2.2,0.2 1,0.5 0.8,0.9 0.8,0.9 z"
         style="fill:#cc291f" />
      <path
         id="path3261"
         d="m 23.3,18.2 c 0.6,-0.2 1.1,0.9 0.3,1.1 -0.7,0.3 -1.1,-0.8 -0.3,-1.1 z"
         style="fill:#2d3134" />
    </g>
    <g
       id="g3343"
       transform="matrix(0.26458333,0,0,0.26458333,96.85128,138.82043)">
      <path
         id="path3283"
         d="m 119.4,180.6 c 14.5,8.7 25,3.3 40.8,-3.7 17.5,-7.7 27.1,-19.8 18.5,-24.9 -8.6,-5.1 -22.6,-1.2 -37.5,4.9 -13.8,5.6 -31.1,18.2 -21.8,23.7 z"
         style="opacity:0.2" />
      <path
         id="path3285"
         d="m 23.4,206.9 c -9.5,5.8 -10.2,12.8 2.1,19.4 13.5,7.2 21.4,5.7 31.9,-0.4 9.2,-5.3 7.1,-12.5 -8.4,-18.7 -12.5,-5 -18.8,-4.4 -25.6,-0.3 z"
         style="opacity:0.2" />
      <path
         id="path3287"
         d="m 11.7,114.9 c 0.2,6.2 2.3,21.9 3.8,26.3 1.5,4.4 3.2,11.2 2.5,14.8 -0.7,3.6 -3,9.6 -1.7,18 1.4,8.3 5.5,21.2 4.6,26.9 -0.9,5.7 -2.7,8.4 -0.8,10.1 1.9,1.7 2.9,3 6.6,2.8 3.6,-0.2 4,0.2 6.6,1.5 2.6,1.3 9,0.5 9.4,-1.8 0.4,-2.3 -7.5,-1.3 -9.1,-4.1 -1.7,-2.8 -4.3,-9.3 -3.4,-15.6 0.9,-6.3 2.9,-23.1 2.9,-28.2 0.1,-3.8 2.4,-17.3 4.3,-24.6 2.5,-9.3 4.3,-29.6 4.3,-29.6 l -26.3,-9.6 c 0,-0.1 -3.9,6.1 -3.7,13.1 z"
         style="opacity:1;fill:#fbd7c7" />
      <g
         id="g3293">
        <path
           id="path3289"
           d="m 19.9,205.3 c 0,0 3,1.4 5,2.2 2.7,1.2 7.6,-0.8 7.6,-0.8 0,0 0.8,2.3 2.2,2.6 1.4,0.3 6.6,-0.5 7.8,0.1 1.2,0.6 4.6,1.6 2.2,3.5 -2.4,1.8 -7.9,4.4 -10.4,3.9 -2.6,-0.5 -7.2,-1.8 -8.4,-1.4 -1.2,0.4 -0.5,4.5 -0.5,4.5 l -2,1 -2.4,-1.2 c 0,0 0,-1.4 -0.3,-3 -0.4,-1.6 -2.1,-2.3 -2.1,-5.2 -0.1,-2.9 1.3,-6.2 1.3,-6.2 z"
           style="opacity:1;fill:#e5e5e5" />
        <path
           id="path3291"
           d="m 18.5,211.9 c 0.1,2.6 1.7,3.3 2.1,4.7 0.4,1.6 0.3,3 0.3,3 l 2.4,1.2 2,-1 c 0,0 -0.7,-4.1 0.5,-4.5 1.2,-0.4 5.9,0.9 8.4,1.4 2.6,0.5 8,-2 10.4,-3.9 0.7,-0.5 0.9,-1.1 0.8,-1.6 -1.4,1.1 -6.1,5.5 -14.1,3.5 -4.7,-1.1 -7.8,-0.9 -12.8,-2.8 z"
           style="opacity:0.4" />
      </g>
      <path
         id="path3295"
         d="m 30.3,110.3 c 0,0 -4.7,7.4 -2.9,14 1.8,6.7 3.7,8.3 3.7,8.3 0,0 1.4,7.9 2.6,11.2 1.2,3.3 4.6,13.3 4.3,15.2 -0.3,1.9 -3.9,10.6 -3.5,17 0.4,6.4 1.9,20 2.4,25.5 0.4,5.3 0.8,6.7 -0.2,9.3 -1,2.7 -3.4,7.2 0.8,8.6 4.2,1.4 6.3,-0.1 9.3,2 3,2.1 8,2.8 9.8,0.5 1.8,-2.3 -3,-3.3 -3.7,-3.5 -0.7,-0.2 -4.3,-4.4 -5.1,-9.6 -0.9,-5.9 0.1,-19.1 1.5,-24.5 1.4,-5.4 1.4,-14.1 1.7,-16.5 0.3,-2.4 5.9,-16.9 5.9,-25.6 0,-8.7 -3.8,-26.1 -3.8,-26.1 z"
         style="opacity:1;fill:#fbd7c7" />
      <path
         id="path3297"
         d="m 36.3,211.3 c 0,0 3.3,1.2 5.8,2.3 1.5,0.6 4.5,0.5 5.4,0.3 0.9,-0.3 2,-0.7 2,-0.7 0,0 1.3,3.5 2.3,3.8 0.9,0.3 4.3,-0.7 6,1.1 1.8,1.8 1.3,2.8 0.4,3.9 -0.9,1 -4.4,3.5 -7.1,3 -1.9,-0.4 -7.9,-2.7 -9.1,-2.5 -1.2,0.2 -0.7,4.6 -0.7,4.6 l -2.3,1.1 -2,-1 c 0,0 -0.1,-2.1 -0.7,-3.6 -0.7,-1.4 -1.9,-3.1 -1.9,-6.2 0,-3.1 1.9,-6.1 1.9,-6.1 z"
         style="opacity:1;fill:#e5e5e5" />
      <path
         id="path3299"
         d="m 58.9,219.8 c -0.1,1.9 -5.3,4.8 -7.6,4.1 -6.9,-2.1 -12.6,-3.9 -16.9,-6.3 v 0 c 0,3 1.3,4.6 1.9,6 0.7,1.4 0.7,3.6 0.7,3.6 l 2,1 2.3,-1.1 c 0,0 -0.6,-4.4 0.7,-4.6 1.2,-0.3 7.2,2.1 9.1,2.5 2.6,0.5 6.2,-2 7.1,-3 0.6,-0.7 0.9,-1.3 0.7,-2.2 z"
         style="opacity:0.4" />
      <path
         id="path3301"
         d="m 27.7,113.7 c 0,0 -16,-3.2 -16.1,-2.3 -0.6,7.1 -0.4,16.8 1.2,22.9 1.7,6.8 3.5,16.5 2.9,22.1 -0.7,5.6 -0.8,14.9 0.1,22.6 0.9,7.7 1.8,15.7 1.8,15.7 0,0 3.5,2 7.6,2 4.1,0 6.8,-1 6.8,-1 0,0 1.3,-20.6 1.6,-25.9 0.3,-5.4 2.1,-19.2 2.1,-19.2 0,0 0.8,-16.5 -0.7,-21.7 -1.4,-5.4 -7.3,-15.2 -7.3,-15.2 z"
         style="opacity:1;fill:#06547a" />
      <path
         id="path3303"
         d="m 27.7,113.7 c 0,0 -16,-3.2 -16.1,-2.3 -0.6,7.1 -0.4,16.8 1.2,22.9 1.7,6.8 3.5,16.5 2.9,22.1 -0.7,5.6 -0.8,14.9 0.1,22.6 0.9,7.7 1.8,15.7 1.8,15.7 0,0 3.5,2 7.6,2 4.1,0 6.8,-1 6.8,-1 0,0 1.3,-20.6 1.6,-25.9 0.3,-5.4 2.1,-19.2 2.1,-19.2 0,0 0.8,-16.5 -0.7,-21.7 -1.4,-5.4 -7.3,-15.2 -7.3,-15.2 z"
         style="opacity:0.15" />
      <path
         id="path3305"
         d="m 36.3,159.2 c -0.8,4.8 -2.5,9.4 -2.5,16 0,6.5 1.2,25.5 1.2,25.5 0,0 3.4,1.3 7.2,1.4 3.8,0.1 8.6,-1.2 8.6,-1.2 0,0 -0.3,-20.3 0.3,-24.4 0.5,-4.1 2.7,-13 4.6,-22.3 2.4,-11.4 1.4,-21.7 0,-27.9 -1.4,-6.2 -2.6,-11.8 -2.6,-11.8 0,0 -3.1,-1.8 -7.5,-4 l -21.1,1 c 0,0 -2.3,15.7 0.1,20.6 2.6,5.4 5.3,5.5 7.3,9.2 2.4,4.3 3.8,9.2 3.8,9.2 0,0 1.4,3.8 0.6,8.7 z"
         style="opacity:1;fill:#06547a" />
      <g
         id="g3325">
        <path
           id="path3307"
           d="m 150.7,144.6 c 0.5,2.2 -0.1,6.2 -0.5,7.6 -0.8,2.6 -0.8,4.9 0.1,5.8 1.4,1.5 3.9,1.5 5.5,1 1.6,-0.5 2.9,-2.3 2,-3.6 -0.9,-1.3 -2.3,-1.5 -2.3,-1.5 0,0 0.4,-1.8 0.8,-4 0.5,-2.5 0.3,-5.8 0.3,-5.8 z"
           style="opacity:1;fill:#f8ebcb" />
        <path
           id="path3309"
           d="m 134,146.5 c -0.7,3.5 -2.6,7.7 -4.9,10.6 -2.2,3 -3.5,4.5 -4,6.3 -0.4,1.5 -1.2,6.6 -0.6,7.1 0.6,0.5 2.3,0.4 2.9,2.9 0.4,1.6 -2.5,3.1 -4.7,2.9 -2.1,-0.2 -4.3,-1.2 -4,-4.8 0.3,-3.6 3.5,-26.6 3.5,-26.6 l 8.2,-2 z"
           style="opacity:1;fill:#f8ebcb" />
        <path
           id="path3311"
           d="m 150.7,144.6 c 0.5,2.2 -0.1,6.2 -0.5,7.6 -0.8,2.6 -0.8,4.9 0.1,5.8 1.4,1.5 3.9,1.5 5.5,1 1.6,-0.5 2.9,-2.3 2,-3.6 -0.9,-1.3 -2.3,-1.5 -2.3,-1.5 0,0 0.4,-1.8 0.8,-4 0.5,-2.5 0.3,-5.8 0.3,-5.8 z"
           style="opacity:0.2" />
        <path
           id="path3313"
           d="m 134,146.5 c -0.7,3.5 -2.6,7.7 -4.9,10.6 -2.2,3 -3.5,4.5 -4,6.3 -0.4,1.5 -1.2,6.6 -0.6,7.1 0.6,0.5 2.3,0.4 2.9,2.9 0.4,1.6 -2.5,3.1 -4.7,2.9 -2.1,-0.2 -4.3,-1.2 -4,-4.8 0.3,-3.6 3.5,-26.6 3.5,-26.6 l 8.2,-2 z"
           style="opacity:0.2" />
        <path
           id="path3315"
           d="m 182.5,92.9 c 0,0 3.9,-3.3 4.2,-7.1 0.2,-3 -0.1,-5.2 -0.9,-5.8 -0.8,-0.6 -2.7,-1.1 -4.7,0.1 -2,1.2 -3,1.9 -3.6,1.7 -0.6,-0.2 -1,-2 -3.3,-1.3 -2.3,0.7 -3.9,1.4 -5,1.3 -1.1,-0.1 -2.5,-1 -4.7,1 -2.2,2 -5.5,6 -5.5,7.6 0,1.6 3.1,2.9 3.1,4.2 0.1,1.3 -2.1,7.9 -6.9,14.1 -4.9,6.4 -6.6,8.7 -13.3,11 -6.7,2.3 -13.9,4.9 -17.3,10.5 -3.4,5.6 -3.2,9.4 -3.6,12.4 -1.1,7.6 -3.9,15.2 -8.3,21.9 -1.3,1.9 -2.1,5 1.8,1.9 3.9,-3.1 6.7,-8.4 7.3,-9.7 0.6,-1.3 5.6,-11.3 7.8,-10.8 2.3,0.5 5.5,5.6 5.9,8.8 0.4,3.3 0.1,7.9 -1,10.2 -1.3,2.9 -2.4,6.8 -2.4,10.2 0,3.4 0.6,6 2,7.2 2,1.6 5.6,0.7 6.8,-0.2 1.2,-0.9 0.9,-3.1 -0.6,-3.9 -1,-0.6 -2.1,-0.7 -2.3,-1.5 -0.3,-0.8 0.1,-4.9 1.7,-7.7 1.4,-2.4 6.3,-10.1 8.3,-15.9 2,-5.9 2.2,-7.3 2.2,-7.3 0,0 6.4,0 9.7,-2 3.8,-2.3 5.6,-5.9 6.9,-5 1.3,0.9 1.9,11.6 1.2,16.5 -0.4,3.1 -3.4,6 -1.8,9.2 1,1.9 4.5,2.3 6.6,1.5 2.1,-0.8 2.1,-2.8 1.5,-3.6 -0.6,-0.8 -2.6,-1.4 -2.6,-1.7 0,-0.3 1.3,-2.3 1.8,-4.4 1.1,-4.7 1.4,-13.4 3.5,-19 2.1,-5.6 3.6,-13.1 3.2,-17.6 -0.4,-4.5 -2.3,-4.7 -2,-9.8 0.3,-5.1 2.1,-8.9 2.1,-8.9 0,0 1.1,0.1 1.8,-0.2 0.9,-0.6 0.4,-7.9 0.4,-7.9 z"
           style="opacity:1;fill:#f8ebcb" />
        <path
           id="path3317"
           d="m 182.4,79.5 c 1.3,0 3.8,1.4 4.2,2.9 1.6,-0.8 -0.5,-6.2 -4.2,-2.9 z"
           style="opacity:1;fill:#262626" />
        <path
           id="path3319"
           d="m 181.9,84.5 c 0.2,0.9 -0.3,2.8 -0.3,2.8 0,0 0.9,-1.1 0.8,-1.9 0,-0.7 -0.5,-0.9 -0.5,-0.9 z"
           style="opacity:1;fill:#262626" />
        <path
           id="path3321"
           d="m 163.2,91.6 c 0,0 -0.9,0.3 -1.9,0.1 -0.8,-0.1 -1.6,-0.6 -2.2,-1 0.3,1.4 3,2.7 3.1,3.9 v 0 c 0.5,-1.6 1,-3 1,-3 z"
           style="opacity:0.2" />
        <path
           id="path3323"
           d="m 174.1,96.3 c 2.3,3.7 5.5,5.2 7.8,4.4 0.1,0 -4.1,-0.4 -7.8,-4.4 z"
           style="opacity:0.2" />
      </g>
      <path
         id="path3327"
         d="m 36.9,112 c -0.3,0 -0.6,-0.2 -0.6,-0.5 0,-0.3 0.2,-0.6 0.6,-0.6 l 122.9,-9 c 0,0 0,0 0,0 0.3,0 0.6,0.2 0.6,0.5 0,0.3 -0.2,0.6 -0.6,0.6 z"
         style="opacity:1;fill:#262626" />
      <path
         id="path3329"
         d="m 17,62.4 c 0,0 -3.7,13 -3.7,15.7 0,2.7 5.4,15.9 5.8,16.8 0.4,0.9 5.2,-4.1 5.2,-4.1 0,0 -2.9,-8.4 -2.9,-10.8 0,-2.4 1.8,-8.2 1.8,-8.2 z"
         style="opacity:1;fill:#fbd7c7" />
      <path
         id="path3331"
         d="m 33.2,50 c -1.3,-0.2 -9,-3.4 -12.8,-1.5 -2.7,1.3 -3.9,3.6 -4,5.7 -0.1,1.7 0.4,5.9 -0.2,8.3 -0.3,1.3 -0.9,4 -0.9,4 l 2.5,1.7 c 0,0 1,8.5 0.4,14.9 -0.6,6.4 -3,15.7 -5.1,20.4 -2.2,5.1 -2.5,9.6 -2.5,16.1 0,8 17.5,12.8 25.5,13 7.7,0.1 22.8,-1.3 22.5,-7.6 -0.8,-14.9 -4,-38.2 -2.3,-41 1.7,-2.8 4,-7.2 1,-11.9 -3,-4.7 -5.6,-6.7 -5.9,-7.7 -0.3,-1 -0.2,-3 -2.4,-5.1 C 46.7,56.7 40.4,51.1 33.2,50 Z"
         style="opacity:1;fill:#993399" />
      <path
         id="path3333"
         d="m 29.8,22.7 c 6.9,-1.6 14.3,0.7 15.6,10.3 1.3,9.6 -1,11.7 -2.1,12.4 -1.1,0.7 -2.4,3.3 -2.9,4.9 -0.5,1.6 0.2,2.6 0.2,2.6 0,0 -7.7,4.5 -12.4,2.7 -4,-1.5 -4.5,-3.5 -2.8,-6.6 1.6,-3.1 -2.3,-5 -3.5,-9.6 -1.2,-4.6 -1.3,-14.6 7.9,-16.7 z"
         style="opacity:1;fill:#fbd7c7" />
      <path
         id="path3335"
         d="m 38.7,20.7 c 3.5,1.1 6.4,6 6.4,6 l -2.6,-1.5 2.5,3.7 -2.3,-1.6 2.2,5 -1.4,-0.7 c 0,0 0.8,1.8 0.3,4.6 -0.3,1.9 -1.4,3.4 -1.4,3.4 v -3.4 c 0,0 -0.3,4.4 -2.5,7.4 0,0 1,-4.5 0.6,-5.2 -0.5,-0.7 -1,1.6 -1,1.6 l -0.7,-2 -0.4,2.1 -1.8,-0.9 c 0,0 0.6,2.2 -1.1,5.6 -1,2 -3.9,4.8 -3.9,4.8 l 0.9,-4.3 -3.6,6.3 -0.9,-3.4 -0.6,2.4 -0.6,-1.8 -0.8,2 c 0,0 -0.9,-3.6 -1.3,-4.4 -0.3,-0.7 -0.8,0.7 -0.8,0.7 L 22,42.5 21.3,43.9 20.5,38.5 19.9,39.6 19.3,34 18.2,35.2 c 0,0 0.2,-5.4 1.9,-7.7 1.2,-1.7 2.4,-2 2.4,-2 l -1.7,-0.1 c 0,0 2.7,-3.9 7,-4.4 3.7,-0.5 4.1,0.3 4.1,0.3 0,0 2.6,-1.9 6.8,-0.6 z"
         style="opacity:1;fill:#656565" />
      <path
         id="path3337"
         d="m 55.5,80.6 c -3.2,1.3 -5.6,0.6 -5.6,0.6 0,0 -0.4,2.2 -0.4,4.2 0,1.2 0.1,3 0.1,3 0,0 3.7,-2 6.7,-4.5 0,0 0,-0.1 0.1,-0.1 0.9,-1.5 2,-3.4 2.3,-5.6 -0.8,1 -1.9,1.9 -3.2,2.4 z"
         style="opacity:0.15" />
      <path
         id="path3339"
         d="m 39,79.3 c 0,0 3.8,0.9 6.4,0.5 2.6,-0.4 4.9,-1.4 4.9,-1.4 0,0 -0.6,5.3 -0.5,9.3 0.1,3.9 -0.2,7.3 1.7,11.8 1.9,4.5 3.1,12.6 4.3,15.1 1.2,2.5 5.2,7.9 5.2,10.1 0,2.2 0,7.3 -0.8,8.6 -0.8,1.2 -4,4.4 -5.4,3.8 -1.4,-0.6 -0.9,-5.5 -0.9,-6.3 0,-0.8 0.8,-4.1 0.2,-5.2 C 53.5,124.5 45.3,112.7 43.7,108.8 42.1,104.9 39.3,97.1 39.1,90.7 39,84.3 39,79.3 39,79.3 Z"
         style="opacity:1;fill:#fbd7c7" />
      <path
         id="path3341"
         d="m 159.9,100.3 c 0,0 5,2.4 9.6,3.2 5.1,0.9 9.7,0.9 9.7,0.9 l -0.8,3.3 c 0,0 -3.1,0.6 -9.4,-0.6 -5.1,-1 -10.9,-3.4 -10.9,-3.4 z"
         style="opacity:1;fill:#262626" />
    </g>
  </g>
  <path
     style="fill:#000000;fill-opacity:1;fill-rule:nonzero;stroke:none;stroke-width:0.264583"
     id="path1"
     d="m 120.09128,39.98718 c 0.005,0.690414 -0.003,1.380521 -0.0204,2.070705 -0.0548,1.302518 -0.13139,2.604001 -0.20161,3.905753 -0.0652,0.926529 -0.0501,1.855639 -0.0377,2.783549 0.0107,0.699569 0.0213,1.399138 0.0307,2.098723 0.005,0.389059 0.003,0.196934 0.007,0.576376 0.007,0.62221 0.88728,0.61183 0.87994,-0.01037 v 0 c -0.005,-0.380344 -0.002,-0.187735 -0.007,-0.577829 -0.009,-0.699563 -0.02,-1.399111 -0.0307,-2.098656 -0.0122,-0.90818 -0.0276,-1.81756 0.0365,-2.724385 0.0707,-1.31008 0.14783,-2.619883 0.20259,-3.930751 0.0177,-0.697651 0.0254,-1.395225 0.0207,-2.093103 0,-0.622255 -0.87999,-0.622255 -0.87999,0 z" />
  <path
     style="fill:#000000;fill-opacity:1;fill-rule:nonzero;stroke:none;stroke-width:0.264583"
     id="path2"
     d="m 120.22845,50.997384 c -0.20812,-0.0063 -1.79396,-0.09714 -2.69112,-0.142155 -1.80611,-0.08672 -4.12949,-0.143871 -5.93712,-0.182508 -1.66776,-0.03484 -3.33563,-0.0628 -5.00355,-0.08839 -0.85019,-0.01267 -0.43436,-0.0066 -1.24749,-0.01839 -0.62219,-0.009 -0.635,0.870849 -0.0128,0.879906 v 0 c 0.81269,0.01183 0.39709,0.0057 1.2468,0.01839 1.66615,0.02556 3.33226,0.05349 4.99824,0.0883 1.7992,0.03845 4.11415,0.09535 5.91183,0.1816 0.91185,0.04574 1.8236,0.09332 2.73522,0.143262 0.62094,0 0.6153,-0.861536 0,-0.880015 z"
     sodipodi:nodetypes="sccccssccccs" />
  <path
     style="fill:#000000;fill-opacity:1;fill-rule:nonzero;stroke:none;stroke-width:0.264583"
     id="path3"
     d="m 105.66603,50.900665 c 1.5e-4,0.0016 1.4e-4,0.0061 5.3e-4,0.0046 0.01,-0.04842 0.01,-0.07715 0.0308,-0.124574 0.0591,-0.147918 0.144,-0.283374 0.23113,-0.416036 0.16184,-0.237175 0.34539,-0.45837 0.53092,-0.677138 0.27694,-0.318804 0.58607,-0.607679 0.89528,-0.894593 0.27994,-0.249365 0.57587,-0.482521 0.89107,-0.686001 0.0613,-0.03958 0.12411,-0.07683 0.18617,-0.115247 0.41624,-0.238871 0.86998,-0.395026 1.32817,-0.530559 0.49745,-0.145782 1.01188,-0.209251 1.52634,-0.256762 0.56722,-0.04823 1.13604,-0.05196 1.70466,-0.03789 0.0977,0.0046 0.19549,0.0082 0.29316,0.01387 0.20172,0.01159 0.38566,0.02527 0.5864,0.04837 0.29549,0.034 0.58777,0.08616 0.88031,0.138981 0.54907,0.0991 1.08918,0.23909 1.62015,0.409408 0.33863,0.111749 0.67604,0.232659 0.99253,0.3986 0.0529,0.02774 0.10433,0.05824 0.1565,0.08736 0.27789,0.159112 0.51747,0.373113 0.74634,0.59477 0.22159,0.212061 0.40226,0.460338 0.58227,0.707229 0.1937,0.27524 0.36694,0.564115 0.52815,0.85935 0.12202,0.224428 0.22781,0.457023 0.32962,0.691145 0.0498,0.114567 0.0926,0.231963 0.13453,0.349589 0.20918,0.586038 1.03797,0.29021 0.82879,-0.295831 v 0 c -0.0487,-0.136282 -0.0986,-0.272222 -0.15645,-0.404969 -0.11253,-0.258291 -0.22959,-0.514821 -0.36451,-0.762359 -0.17997,-0.32829 -0.37257,-0.649918 -0.5892,-0.955562 -0.20999,-0.2877 -0.4232,-0.574865 -0.68187,-0.821579 -0.28482,-0.274436 -0.58487,-0.536172 -0.93107,-0.731467 -0.0651,-0.03585 -0.12926,-0.07331 -0.19517,-0.107558 -0.3553,-0.184616 -0.73255,-0.32204 -1.11223,-0.446844 -0.5679,-0.181369 -1.14515,-0.331759 -1.73227,-0.43733 -0.2467,-0.0444 -0.37879,-0.0703 -0.62785,-0.106426 -0.41976,-0.06088 -0.84273,-0.09441 -1.26658,-0.108471 -0.60293,-0.01466 -1.20612,-0.01021 -1.80752,0.0414 -0.22604,0.02106 -0.34646,0.03003 -0.57158,0.06005 -0.37937,0.05058 -0.75559,0.125169 -1.12398,0.229362 -0.0889,0.02649 -0.17825,0.05144 -0.26665,0.07947 -0.44185,0.140121 -0.87269,0.316103 -1.27526,0.547103 -0.0714,0.04444 -0.14356,0.08754 -0.21407,0.133313 -0.35274,0.229013 -0.68443,0.490252 -0.9976,0.770559 -0.33479,0.310917 -0.66898,0.624409 -0.96795,0.970619 -0.20898,0.246777 -0.41533,0.496612 -0.5964,0.764963 -0.12385,0.190556 -0.24238,0.38607 -0.32251,0.59975 -0.0122,0.03609 -0.0261,0.07167 -0.0367,0.108262 -0.0291,0.100166 -0.0421,0.205131 -0.0463,0.309073 0,0.622255 0.88,0.622255 0.88,0 z" />
  <path
     style="fill:#000000;fill-opacity:1;fill-rule:nonzero;stroke:none;stroke-width:0.264583"
     id="path4"
     d="m 123.68925,48.941852 c 0.34418,-0.01868 0.68866,-0.02835 1.03286,-0.04862 0.7697,-0.04782 1.51444,-0.258535 2.22353,-0.555173 0.19898,-0.08324 0.39323,-0.177361 0.58984,-0.266041 0.51125,-0.265946 0.72288,-0.362373 1.21273,-0.672835 0.60315,-0.382268 1.17241,-0.820235 1.71969,-1.278001 0.17324,-0.144902 0.34155,-0.295585 0.51233,-0.443379 0.65815,-0.592068 1.26749,-1.235993 1.8405,-1.910236 0.32505,-0.382465 0.48502,-0.588975 0.79647,-0.979233 0.56897,-0.717307 1.11907,-1.45346 1.74655,-2.121908 0.10478,-0.111623 0.21458,-0.218427 0.32187,-0.327642 0.3753,-0.363796 0.79104,-0.68758 1.25312,-0.934103 0.26626,-0.14205 0.33675,-0.161441 0.6134,-0.271674 0.36384,-0.1416 0.7471,-0.213998 1.13054,-0.277223 0.61381,-0.102142 0.46936,-0.970206 -0.14445,-0.868063 v 0 c -0.0995,0.01669 -0.19947,0.03118 -0.29862,0.05009 -0.3455,0.06589 -0.68716,0.15327 -1.01618,0.278892 -0.32741,0.132995 -0.41503,0.158205 -0.72913,0.328459 -0.52901,0.286742 -1.00667,0.658328 -1.43699,1.077489 -0.11601,0.118496 -0.23463,0.234477 -0.34801,0.355484 -0.63865,0.681606 -1.20092,1.429999 -1.77997,2.16136 -0.30258,0.37932 -0.45707,0.578839 -0.77229,0.950216 -0.54588,0.643147 -1.12612,1.257687 -1.75291,1.822882 -0.16334,0.141562 -0.32434,0.285871 -0.49001,0.424688 -0.51369,0.430397 -1.04768,0.844036 -1.61351,1.204243 -0.4543,0.289205 -0.65412,0.381047 -1.12783,0.628719 -0.1812,0.08223 -0.36029,0.169256 -0.54359,0.246686 -0.6245,0.263806 -1.27976,0.455602 -1.959,0.497838 -0.34779,0.02064 -0.69589,0.02965 -1.04364,0.04932 -0.62067,0.04433 -0.55798,0.922097 0.0627,0.877764 z" />
  <path
     style="fill:#000000;fill-opacity:1;fill-rule:nonzero;stroke:none;stroke-width:0.264583"
     id="path5"
     d="m 131.88419,44.245529 c 0.10439,0.346536 0.25112,0.67714 0.40376,1.004499 0.21702,0.434676 0.46497,0.855292 0.74607,1.251844 0.20793,0.293333 0.33749,0.447069 0.56217,0.72817 0.38573,0.458526 0.79809,0.896152 1.25149,1.288656 0.26108,0.226018 0.35741,0.292156 0.6292,0.497943 0.39869,0.295273 0.8352,0.535456 1.29941,0.710743 0.28074,0.10601 0.39843,0.13223 0.68594,0.212775 0.4159,0.107759 0.83855,0.185221 1.26131,0.260072 0.61274,0.108395 0.76603,-0.758153 0.15329,-0.866545 v 0 c -0.39499,-0.06981 -0.78991,-0.141756 -1.17874,-0.241329 -0.24366,-0.06724 -0.34957,-0.09083 -0.58636,-0.178533 -0.3949,-0.146264 -0.766,-0.348554 -1.10432,-0.599278 -0.2444,-0.184261 -0.33497,-0.24646 -0.56942,-0.448482 -0.4186,-0.360704 -0.79842,-0.764096 -1.15468,-1.185815 -0.19878,-0.248145 -0.33489,-0.410588 -0.51837,-0.668433 -0.2557,-0.359333 -0.48165,-0.740452 -0.67971,-1.134266 -0.14151,-0.302231 -0.27639,-0.607661 -0.3723,-0.927997 -0.20929,-0.586002 -1.03802,-0.290028 -0.82874,0.295976 z" />
  <path
     style="fill:#000000;fill-opacity:1;fill-rule:nonzero;stroke:none;stroke-width:0.264583"
     id="path6"
     d="m 141.75846,35.114333 c -0.14226,0.06852 -0.23324,0.194571 -0.30691,0.328829 -0.0149,0.03939 -0.0352,0.07714 -0.0446,0.118181 -0.049,0.212609 0.007,0.428316 0.16624,0.581465 0.0398,0.03819 0.0893,0.0646 0.13399,0.09691 0.0434,0.01828 0.085,0.04158 0.13016,0.05483 0.16429,0.04815 0.33387,0.03375 0.4887,-0.03906 0.12116,-0.05697 0.14684,-0.095 0.24315,-0.184859 0.031,-0.0444 0.0659,-0.08632 0.093,-0.133202 0.078,-0.134974 0.11401,-0.300114 0.11636,-0.455067 5.3e-4,-0.03541 -0.003,-0.07078 -0.004,-0.106178 -0.007,-0.03946 -0.01,-0.07996 -0.0209,-0.118379 -0.0521,-0.175464 -0.15707,-0.316519 -0.32661,-0.396505 -0.13686,-0.06457 -0.20068,-0.04822 -0.34057,-0.04467 -0.0503,0.01384 -0.10183,0.02371 -0.15086,0.04151 -0.1146,0.04159 -0.24596,0.133516 -0.32765,0.224861 -0.0283,0.03164 -0.0529,0.06639 -0.0794,0.09958 -0.0234,0.04849 -0.0541,0.0941 -0.0701,0.145476 -0.0526,0.168563 -0.0324,0.343522 0.057,0.495784 0.065,0.110643 0.11349,0.135591 0.20832,0.20964 0.1767,0.103481 0.3771,0.139348 0.57503,0.07601 0.0362,-0.01156 0.0695,-0.03057 0.10423,-0.04586 0.0322,-0.02188 0.0668,-0.04056 0.0966,-0.0656 0.16119,-0.135506 0.20402,-0.282205 0.19101,-0.487421 -0.006,-0.09138 -0.0469,-0.158279 -0.0844,-0.239336 -0.0925,-0.148273 -0.22742,-0.252389 -0.39932,-0.29196 -0.0956,-0.02201 -0.13694,-0.01029 -0.23442,-0.0019 -0.18385,0.04176 -0.30479,0.129249 -0.42118,0.273785 -0.11154,0.157507 -0.15809,0.349499 -0.0998,0.538173 0.0137,0.04426 0.0391,0.08401 0.0586,0.126013 0.075,0.10232 0.0349,0.05524 0.11949,0.141994 0.45313,0.426469 1.05625,-0.214352 0.60312,-0.64082 v 0 c 0.0242,0.03032 0.012,0.01323 0.0355,0.05196 0.009,0.02463 0.0221,0.04822 0.0279,0.0739 0.0185,0.08169 0.0117,0.177163 -0.0453,0.242668 -0.0387,0.03459 -0.0798,0.05487 -0.13256,0.06016 -0.0206,2.01e-4 -0.0413,0.0024 -0.0618,5.29e-4 -0.0911,-0.0075 -0.17775,-0.06316 -0.21815,-0.144936 -0.006,-0.01767 -0.0133,-0.03489 -0.0176,-0.05301 -0.034,-0.142708 0.0518,-0.303948 0.17996,-0.367059 0.0773,-0.02476 0.15311,-0.02992 0.21812,0.0249 0.0889,0.09331 0.11778,0.207216 0.0646,0.328718 -0.009,0.02103 -0.025,0.03855 -0.0375,0.05782 -0.008,0.0066 -0.0142,0.01434 -0.0226,0.01976 -0.0101,0.0065 0.0248,-0.02492 0.0223,-0.02691 -0.0164,-0.01281 -0.0627,0.06712 -0.062,0.006 -0.0199,-0.0024 -0.0404,-0.0013 -0.0597,-0.0068 -0.10955,-0.03125 -0.23596,-0.124654 -0.22738,-0.252127 0.0176,0.02772 -0.0213,0.07853 0.0369,0.02991 0.0724,-0.03126 0.15911,-0.02852 0.22312,0.02088 0.0153,0.0149 0.0329,0.02781 0.046,0.04468 0.0755,0.09697 0.0864,0.223239 0.0252,0.330043 0.002,-0.0045 0.005,-0.0087 0.006,-0.0136 0.002,-0.0063 -0.01,0.0081 -0.015,0.0122 -0.0208,0.01714 -0.0836,0.06637 -0.0671,0.04502 0.55656,-0.27828 0.16302,-1.065376 -0.39354,-0.787095 z" />
  <path
     style="fill:#000000;fill-opacity:1;fill-rule:nonzero;stroke:none;stroke-width:0.264583"
     id="path7"
     d="m 145.37693,35.913292 c 0.381,-0.0088 0.76175,-0.02561 1.14254,-0.04088 0.85125,-0.04296 1.7032,-0.06807 2.55522,-0.0895 1.08855,-0.02601 2.17743,-0.03333 3.26623,-0.0415 1.08364,-0.01233 2.16732,-0.004 3.25096,0.0024 1.16586,0.01371 2.33175,0.02577 3.49732,0.05565 1.01997,0.02692 2.03974,0.05936 3.05922,0.100838 0.65198,0.02949 1.30556,0.07 1.94966,0.180456 0.11039,0.01892 0.21997,0.04239 0.32996,0.06359 0.40603,0.08835 0.8058,0.209556 1.18472,0.381471 0.22405,0.101656 0.27795,0.139124 0.48924,0.26034 0.26065,0.169566 0.52076,0.350808 0.73405,0.579538 0.0967,0.103719 0.12039,0.148151 0.19771,0.262929 0.0123,0.03299 0.0312,0.06423 0.037,0.09898 0.007,0.04249 -0.0238,0.05383 -0.044,0.08087 -0.0852,0.113421 -0.0203,0.05507 -0.13768,0.189232 -0.0377,0.04311 -0.08,0.08203 -0.12001,0.123045 -0.23574,0.201443 -0.49512,0.386326 -0.78629,0.499483 -0.23624,0.09181 -0.41195,0.121208 -0.66268,0.178625 -0.63932,0.134848 -1.29489,0.190789 -1.94738,0.144997 -0.12255,-0.0086 -0.24442,-0.02516 -0.36664,-0.03775 -0.62149,-0.08407 -1.2227,-0.266462 -1.81479,-0.467365 -0.0739,-0.02707 -0.14783,-0.05413 -0.22176,-0.0812 -0.58442,-0.213651 -0.88657,0.612852 -0.30214,0.826503 v 0 c 0.0805,0.02937 0.16092,0.05874 0.24139,0.08811 0.65515,0.221888 1.32109,0.420706 2.00926,0.509535 0.14069,0.01386 0.28101,0.03213 0.42206,0.04156 0.73083,0.04886 1.46492,-0.01556 2.18061,-0.167566 0.35446,-0.0845 0.51132,-0.106894 0.84557,-0.243411 0.39002,-0.159298 0.73798,-0.410488 1.04738,-0.692444 0.15403,-0.170516 0.24623,-0.251703 0.35616,-0.455906 0.15885,-0.295082 0.20784,-0.575898 0.10253,-0.899547 -0.0272,-0.08364 -0.077,-0.158197 -0.11542,-0.237296 -0.12956,-0.183343 -0.15283,-0.230079 -0.31108,-0.395918 -0.26609,-0.278865 -0.58451,-0.503851 -0.90827,-0.709686 -0.25704,-0.145495 -0.31614,-0.186772 -0.58803,-0.30869 -0.43406,-0.194643 -0.8913,-0.332732 -1.35579,-0.432707 -0.12147,-0.02315 -0.2425,-0.04875 -0.36441,-0.06949 -0.67576,-0.11495 -1.36114,-0.158919 -2.04508,-0.18956 -1.02389,-0.04165 -2.04808,-0.07426 -3.07246,-0.101277 -1.17135,-0.02997 -2.34301,-0.04221 -3.51465,-0.05593 -1.08757,-0.0064 -2.17519,-0.01474 -3.26276,-0.0024 -1.09398,0.0082 -2.18804,0.01558 -3.28177,0.04175 -0.8564,0.02156 -1.71274,0.04678 -2.56837,0.08993 -0.38367,0.0154 -0.76731,0.03211 -1.1512,0.04127 -0.62148,0.03107 -0.57753,0.909976 0.0439,0.878901 z" />
  <path
     style="fill:#000000;fill-opacity:1;fill-rule:nonzero;stroke:none;stroke-width:0.264583"
     id="path8"
     d="m 158.07902,32.781726 c 0,0.19536 0,0.390719 0,0.586079 0,0.285102 0,0.570204 0,0.855307 0,0.212075 0,0.424152 0,0.636228 0,0.119925 0,0.23985 0,0.359778 0,0.622253 0.88,0.622253 0.88,0 v 0 c 0,-0.119928 0,-0.239853 0,-0.359778 0,-0.212076 0,-0.424153 0,-0.636228 0,-0.285103 0,-0.570205 0,-0.855307 0,-0.19536 0,-0.390719 0,-0.586079 0,-0.622254 -0.88,-0.622254 -0.88,0 z" />
  <path
     style="fill:#000000;fill-opacity:1;fill-rule:nonzero;stroke:none;stroke-width:0.264583"
     id="path9"
     d="m 160.88251,32.309962 c 0.14216,-0.0023 0.2816,0.02284 0.42038,0.05061 0.1759,0.03911 0.35074,0.08518 0.51883,0.15084 0.0813,0.03178 0.15317,0.06608 0.23254,0.10245 0.22479,0.103441 0.40656,0.268329 0.58332,0.437406 0.18663,0.182029 0.36507,0.371982 0.53552,0.569186 0.0799,0.09618 0.16143,0.19098 0.24006,0.288224 0.39165,0.483539 1.07548,-0.07034 0.68382,-0.553878 v 0 c -0.0848,-0.10457 -0.17219,-0.206967 -0.25853,-0.310284 -0.1892,-0.218286 -0.38667,-0.429108 -0.59392,-0.630435 -0.25343,-0.240587 -0.504,-0.45349 -0.82514,-0.600891 -0.11538,-0.05241 -0.18218,-0.08474 -0.30223,-0.130701 -0.20921,-0.08009 -0.42614,-0.137873 -0.6448,-0.185444 -0.19475,-0.03766 -0.39077,-0.06986 -0.58985,-0.06708 -0.62226,0 -0.62226,0.88 0,0.88 z" />
  <path
     style="fill:#000000;fill-opacity:1;fill-rule:nonzero;stroke:none;stroke-width:0.264583"
     id="path10"
     d="m 164.29289,33.831462 c -0.002,0.0043 -0.01,0.016 -0.006,0.013 0.006,-0.0048 0.009,-0.01257 0.0132,-0.01877 0.0124,-0.01707 0.0243,-0.03449 0.0374,-0.05104 0.0165,-0.02096 0.0339,-0.04124 0.0514,-0.06144 0.0837,-0.09688 0.0695,-0.07929 0.16254,-0.173822 0.13803,-0.134078 0.28437,-0.261159 0.44556,-0.36692 0.10126,-0.06644 0.15142,-0.09099 0.25817,-0.149289 0.17597,-0.08901 0.35675,-0.170856 0.54489,-0.230968 0.099,-0.03164 0.16472,-0.04573 0.26583,-0.07035 0.24772,-0.05222 0.50144,-0.05862 0.75362,-0.05527 0.0356,0.0011 0.0712,0.0021 0.10682,0.0032 0.62198,0.01837 0.64797,-0.861245 0.026,-0.879617 v 0 c -0.0409,-0.0012 -0.0818,-0.0024 -0.12275,-0.0036 -0.32647,-0.0032 -0.65451,0.0085 -0.9743,0.08079 -0.14514,0.03613 -0.20588,0.04858 -0.34987,0.09557 -0.23302,0.07605 -0.45731,0.177553 -0.67502,0.289485 -0.14708,0.08164 -0.20229,0.108325 -0.34297,0.202541 -0.20415,0.136716 -0.39094,0.298058 -0.56599,0.469976 -0.15296,0.157929 -0.30721,0.319828 -0.41551,0.512899 -0.27828,0.556561 0.50881,0.950109 0.78709,0.393548 z" />
</svg>
