<?xml version="1.0" encoding="UTF-8" standalone="no"?>
<svg
   id="svg2369"
   version="1.1"
   viewBox="0 0 180.92014 71.264923"
   height="71.264923mm"
   width="180.92015mm"
   sodipodi:docname="31 mije li toki. mije li toki tawa meli. mije li toki soweli tawa meli. mije li toki e ni, “soweli li suli.”.svg"
   inkscape:version="1.3 (0e150ed6c4, 2023-07-21)"
   xmlns:inkscape="http://www.inkscape.org/namespaces/inkscape"
   xmlns:sodipodi="http://sodipodi.sourceforge.net/DTD/sodipodi-0.dtd"
   xmlns="http://www.w3.org/2000/svg"
   xmlns:svg="http://www.w3.org/2000/svg"
   xmlns:rdf="http://www.w3.org/1999/02/22-rdf-syntax-ns#"
   xmlns:cc="http://creativecommons.org/ns#"
   xmlns:dc="http://purl.org/dc/elements/1.1/">
  <sodipodi:namedview
     id="namedview1"
     pagecolor="#ffffff"
     bordercolor="#000000"
     borderopacity="0.25"
     inkscape:showpageshadow="2"
     inkscape:pageopacity="0.0"
     inkscape:pagecheckerboard="0"
     inkscape:deskcolor="#d1d1d1"
     inkscape:document-units="mm"
     inkscape:zoom="1.0986697"
     inkscape:cx="427.79008"
     inkscape:cy="98.755795"
     inkscape:window-width="1920"
     inkscape:window-height="1051"
     inkscape:window-x="-9"
     inkscape:window-y="-9"
     inkscape:window-maximized="1"
     inkscape:current-layer="svg2369" />
  <defs
     id="defs2363" />
  <metadata
     id="metadata2366">
    <rdf:RDF>
      <cc:Work
         rdf:about="">
        <dc:format>image/svg+xml</dc:format>
        <dc:type
           rdf:resource="http://purl.org/dc/dcmitype/StillImage" />
        <dc:title />
      </cc:Work>
    </rdf:RDF>
  </metadata>
  <g
     transform="translate(-66.588701,-28.949654)"
     id="layer1">
    <g
       transform="matrix(-0.26458333,0,0,0.26458333,128.74899,24.157521)"
       id="g3721">
      <path
         style="opacity:0.2"
         d="m 64.8,232 c 19.4,-9.4 1.8,-21.9 -17.4,-25.3 -8.4,-1.5 -13.5,-14.9 -34.6,-1.6 -16.9,10.8 0,17.9 8.6,22 12,5.5 25.3,13.6 43.4,4.9 z"
         id="path3666" />
      <path
         style="fill:#fbd7c7"
         d="m 23.3,93.5 c 0,0 -2,9.7 -3.1,12.8 -1.2,3 -2,7.7 -1.5,11.1 0.5,3.4 2.1,10.4 2.7,11.5 0.7,1.1 3.2,3.6 4,4 0.8,0.4 2.4,-14.9 2.4,-14.9 z"
         id="path3668" />
      <path
         style="fill:#e5e5e5"
         d="m 19,108.7 4.1,2.2 1.6,-12 L 23.8,84 c 0,0 -2.3,5.6 -3.2,11.5 -0.9,5.8 -0.7,9.1 -0.7,9.1 z"
         id="path3670" />
      <path
         style="fill:#825012"
         d="m 27.2,201.6 c 0,0 2.2,2.9 6.2,2.3 4,-0.5 7.9,-2.1 7.9,-2.1 0,0 1.1,6.3 -0.7,7.9 -1.8,1.6 -8.5,1.9 -11.4,3.3 -2.9,1.4 -6.9,4.2 -11.2,4.5 -9.2,0.7 -7.8,-6.8 -3.6,-8.7 3.3,-1.4 6.7,-3 8.8,-4.2 2.1,-1.1 4,-3 4,-3 z"
         id="path3672" />
      <path
         style="opacity:0.4"
         d="m 41.6,207.4 c -2.7,1.3 -8.3,2.4 -11.1,3 -3.4,0.6 -9.7,5.7 -14.1,5.8 -3.1,0.1 -4.9,-1.3 -4.9,-4 -1,2.7 0.4,5.9 6.6,5.5 4.3,-0.3 8.3,-3.1 11.2,-4.5 2.9,-1.4 9.6,-1.6 11.4,-3.3 0.5,-0.6 0.7,-1.5 0.9,-2.5 z"
         id="path3674" />
      <path
         style="fill:#825012"
         d="m 53.9,214.6 c 0,0 2.4,2.1 5.7,1.7 3.3,-0.4 7.9,-3.8 8.2,-2.1 0.3,1.7 2,5.2 0.6,6.3 -1.4,1.1 -9.1,5.7 -10.4,7.1 -1.4,1.4 -5.6,4.8 -9.9,5.3 -4.8,0.5 -9.2,-1.3 -9.2,-4.8 0,-4.1 6.6,-6.9 9.4,-8.8 2.7,-2.1 5.6,-4.7 5.6,-4.7 z"
         id="path3676" />
      <path
         style="opacity:0.4"
         d="m 57.9,227.5 c 1.4,-1.4 9.1,-6 10.4,-7.1 0.7,-0.5 0.6,-1.6 0.4,-2.7 -2,1.7 -5.9,3.7 -9.5,5.9 -5.2,3.3 -6.2,7.4 -13.4,7.7 -5,0.2 -6.9,-2.2 -6.9,-4.6 -0.1,0.4 -0.2,0.8 -0.2,1.2 0,3.5 4.4,5.4 9.2,4.8 4.4,-0.4 8.6,-3.8 10,-5.2 z"
         id="path3678" />
      <path
         style="fill:#baa794"
         d="m 22.9,109.3 c -1,3.9 -0.6,15.3 0.2,21.4 0.8,6 1.7,19.1 3.2,31.7 1,8.5 -0.7,31.9 -1.9,37.4 -0.7,3.7 -3.4,6.2 1,7.7 4.8,1.7 10,2 15.1,0.5 2.2,-0.6 1.7,-2.8 1.8,-6.3 0.1,-4.7 1.5,-15.8 1.9,-19.9 0.4,-4.1 0.7,-9.4 0.9,-14 0.3,-4.6 1.7,-20.7 2.2,-24.4 0.5,-3.7 0.5,-32.6 0.5,-32.6 z"
         id="path3680" />
      <path
         style="opacity:0.2"
         d="m 22.9,109.3 c -1,3.9 -0.6,15.3 0.2,21.4 0.8,6 1.7,19.1 3.2,31.7 1,8.5 -0.7,31.9 -1.9,37.4 -0.7,3.7 -3.4,6.2 1,7.7 4.8,1.7 10,2 15.1,0.5 2.2,-0.6 1.7,-2.8 1.8,-6.3 0.1,-4.7 1.5,-15.8 1.9,-19.9 0.4,-4.1 0.7,-9.4 0.9,-14 0.3,-4.6 1.7,-20.7 2.2,-24.4 0.5,-3.7 0.5,-32.6 0.5,-32.6 z"
         id="path3682" />
      <path
         style="fill:#baa794"
         d="m 30.4,109.5 c 0,0 -1.5,8.2 2.2,12.8 3.7,4.6 8.6,6.7 8.5,9.9 -0.1,3.3 2.9,21.3 5,27.4 2.1,6.1 2.6,14.4 3.3,20.2 0.7,5.8 1.5,21.9 1.2,26.2 -0.3,5.6 -1.8,10.8 -2.2,12.8 -0.3,1.4 5,3.5 8.2,3.7 5.4,0.3 8.3,-1.5 10.4,-3 1.9,-1.3 1.8,-1.5 1.7,-4.6 -0.1,-3.1 -0.7,-31.8 -1.2,-39 -0.5,-7.2 2.4,-38.8 2.2,-45.2 -0.5,-11.6 -4.1,-22.1 -4.1,-22.1 z"
         id="path3684" />
      <path
         style="fill:#e5e5e5"
         d="m 49.1,46.1 c -8.4,-0.5 -15.3,-2.4 -18.2,2.4 -2.9,4.8 -2.7,7.9 -4.1,10.2 -1.4,2.3 -4.3,8.8 -4.2,13.4 0.1,4.6 1.4,7.3 0.8,9.9 -0.7,2.6 -1.5,11.7 -1.6,15.2 -0.2,6.8 -0.6,13.1 0.5,14.8 1.7,2.6 16.6,4.1 27.2,2.8 12,-1.4 19.9,-5.1 19.9,-6.2 0,-1.1 -4.7,-13.4 -5.5,-15 C 57.3,79.8 74,75.2 73.9,74.5 73.8,72.5 74.6,65.9 74.1,63 73.6,60.1 70,55.4 67.4,53 64.8,50.5 60.6,46.5 57.7,45.7 55,44.9 49.1,46.1 49.1,46.1 Z"
         id="path3686" />
      <path
         style="fill:#fbd7c7"
         d="m 58.1,78.2 c 0,0 5.2,0.4 9.1,-0.8 3.9,-1.2 6,-2.4 6,-2.4 0,0 1.3,12.9 2.3,15.6 1,2.7 0.9,7.3 -0.5,12.6 -1.4,5.3 -4.1,23.6 -4,26.4 0.1,2.8 -0.2,6.3 -0.7,8.3 -0.5,2 -1.9,5.8 -4.5,7.3 -3,1.7 -6.4,1.4 -7.6,0.4 -1.9,-1.5 1.9,-7.3 1.1,-8.1 -0.8,-0.8 -2.4,-0.6 -2.9,0.7 -0.5,1.3 -2.4,2.7 -3.4,2 -1,-0.7 0.2,-1.8 0.8,-2.9 0.6,-1.2 2,-3.9 3.4,-4.8 1.4,-0.9 4,-1.4 4.6,-3.8 0.6,-2.5 0,-13 0.6,-18.5 C 63,104.7 65.3,99.7 65.2,98.6 65.1,97.5 61.6,89.4 60,84.5 58.5,80.1 58.1,78.2 58.1,78.2 Z"
         id="path3688" />
      <path
         style="fill:#fbd7c7"
         d="m 35.5,24.5 c -2.8,4.3 -1.3,14.8 -0.9,17.5 0.4,2.6 1.1,5.4 3,6.2 1.9,0.7 3.6,1.5 3.6,2.7 0,1.2 -3,3.9 -1.7,4.7 1.3,0.8 8.5,0.9 14.5,-1.5 5.6,-2.3 7.2,-5 6.4,-6 -0.7,-0.9 -4.2,-2.9 -4.2,-5.9 0.1,-3.1 3.1,-7.8 3.2,-12.4 0.1,-9.1 -13.3,-14.6 -21.1,-8.3 -1,0.7 -2,1.7 -2.8,3 z"
         id="path3690" />
      <path
         style="fill:#999999"
         d="m 49.1,20.1 c 5.6,3.1 -3.8,6.8 -1.6,9 1.9,1.8 1.9,7.3 2.9,9 1.2,2.1 2.4,-2.3 3.5,-3.4 1,-1 2.8,-1.2 3.3,0.3 0.5,1.5 -0.4,3.7 -0.5,4.3 C 58.3,39 60.4,33.6 60,27.9 59.6,21.1 49.9,14.7 39.4,20.6 c -2.1,1.2 -2.8,2.5 -1.7,1.6 2,-1.6 7.9,-4.1 11.4,-2.1 z"
         id="path3692" />
      <path
         style="opacity:0.2"
         d="m 57.6,78.2 c 0,0 2.8,13.9 2.7,17.9 -0.1,4 -4.3,17.7 -4.3,17.7 l 9.9,-2.4 2.9,-15.8 z"
         id="path3694" />
      <path
         style="fill:#e5e5e5"
         d="m 61.2,120.9 c 0.2,1.6 0.6,5.3 0.6,5.3 l -0.8,3.3 c 0,0 5.2,-0.1 6.9,0.8 1.6,0.9 3.4,2.1 3.4,2.1 V 127 c 0,0 4.1,-14 5.2,-18.9 1.1,-4.8 0.3,-13.7 0.1,-15.3 C 76.3,91.2 74.4,73.2 74.4,70 74.4,66.8 74,63.5 74,63.5 L 54.5,70 c 0,0 7.2,18.5 7.9,23 0.7,4.6 -2.1,19.2 -1.2,27.9 z"
         id="path3696" />
    </g>
    <g
       transform="matrix(0.26458333,0,0,0.26458333,113.08567,17.648771)"
       id="g3628">
      <path
         style="fill:#fbd7c7"
         d="m 140,131.5 c 0,0 -1.6,3 -2.2,5.1 -0.6,2.1 -1.7,8.6 -1.6,9.7 0.1,1.1 4.1,8.4 5.8,9.2 1.7,0.8 2,-10.2 2,-10.2 l -0.5,-4.8 2.7,-5.6 z"
         id="path3572" />
      <path
         style="opacity:0.2"
         d="m 143.9,224.7 c -11.8,7.6 -12.4,14.4 0,21 13.5,7.2 22.4,3.3 32.9,-2.7 10.5,-6 11.8,-13.4 -3.6,-19.6 -12.5,-5 -20.4,-4.4 -29.3,1.3 z"
         id="path3574" />
      <path
         style="opacity:0.2"
         d="m 51,282.8 c -11.8,7.6 -32,14.4 -13.7,25.5 17.1,10.4 33.9,-3.4 46,-9.8 C 101,289 110.1,280.8 99.3,274 88.1,267.1 58,278.3 51,282.8 Z"
         id="path3576" />
      <path
         style="fill:#fbd7c7"
         d="m 141.5,142.8 c -0.4,3.3 -1.6,26.2 0,32.2 1.6,6 2.2,8.8 2.6,11 0.4,2.2 1.8,4.1 2.5,7.6 0.7,3.5 3.7,15.1 2.7,19.6 -0.9,4.6 -1.4,11.7 -4.5,15.6 -3,3.9 -8,6.8 -4.8,8 3.1,1.2 6.7,0.4 8.1,-0.5 1.4,-0.9 5.2,-6.5 8.4,-7.7 3.1,-1.2 6.3,-2.9 6,-6 -0.3,-3.1 -3.1,-3.8 -3.3,-7.6 -0.1,-3.8 4.5,-14.3 3.1,-21.3 -1.4,-7 -3.4,-10.5 -3.4,-10.5 l 2.4,-16.2 c 0,0 1.7,18.9 1.8,20.5 0.1,1.6 1,4.7 1,4.7 0,0 -0.3,8.1 0.3,12.7 0.6,4.6 3.8,13.2 2,20 -1.8,6.8 -1.4,8 -3.9,11.1 -2.5,3.1 -7.2,5.6 -3.8,7.3 3.4,1.7 7.3,2.5 9.9,-1.8 2.6,-4.3 5.5,-5.9 6.9,-7.2 1.4,-1.3 1.8,-2.2 0.8,-6.3 -1,-4.1 -1,-9.4 0.4,-13.6 1.4,-4.2 4.7,-15.4 4.8,-20.2 0.1,-4.7 -2.2,-9.4 -2.2,-9.4 0,0 4.3,-15.1 5.5,-26.8 1.2,-11.8 1,-20.4 -1,-25.5 -2,-5.2 -42.3,10.3 -42.3,10.3 z"
         id="path3578" />
      <path
         style="fill:#e5e5e5"
         d="m 164.8,230.2 c 0,0 1.6,1.7 4.2,1.8 3,0.1 6.1,-1.6 6.6,-2.9 0.7,-1.7 0.3,-4.3 0.3,-4.3 0,0 2.8,2.3 2.8,5.1 0,2.5 -1.8,5.5 -1.9,6.5 -0.1,1 0.1,3.5 0.1,3.5 l -1.8,1 -3,-1.4 c 0,0 -0.9,2.9 -2.9,4.4 -2,1.4 -6.8,4.2 -11.3,2.5 -4.5,-1.7 -2,-5.6 -0.9,-6.9 1.1,-1.3 5,-4 6,-5.9 1.2,-2.3 1.8,-3.4 1.8,-3.4 z"
         id="path3580" />
      <path
         style="fill:#e5e5e5"
         d="m 147,223 c 0,0 2.4,2.4 5.2,2.3 2.1,-0.1 5.3,-1.5 6.4,-3.4 0.9,-1.6 1.4,-4.6 1.4,-4.6 0,0 2.7,1.6 2.7,5.2 0,3.2 -2.3,6.3 -2.4,8.5 -0.1,2.2 0,1.3 0,1.3 l -2.4,1.2 -2.4,-1.2 c 0,0 0.8,-2.5 0,-2 -0.8,0.5 -3.3,4.2 -5.1,5.9 -1.8,1.7 -5.8,4 -9.4,2.9 -3.6,-1.1 -3.4,-4.8 -1.3,-6.6 1.8,-1.6 4.1,-2.8 5.4,-5.2 1.2,-2.3 1.9,-4.3 1.9,-4.3 z"
         id="path3582" />
      <g
         style="opacity:0.4"
         id="g3588">
        <path
           d="m 160.1,232.3 v 0 c 0,0.4 0,0 0,0 z"
           id="path3584" />
        <path
           d="m 162.6,222.5 c 0,0 0,-0.1 0,-0.1 -0.4,1.5 -1.2,2.5 -3.1,4 -2.2,1.8 -4,3.3 -6.1,5.8 -2.1,2.6 -6,6 -10.7,6 -2.7,0 -4.7,-1.9 -4.4,-3.8 -0.6,1.8 0.1,3.8 2.6,4.6 3.6,1.1 7.7,-1.2 9.4,-2.9 1.8,-1.7 4.3,-5.4 5.1,-5.9 0.8,-0.5 0,2 0,2 l 2.4,1.2 2.3,-1.2 c 0,-0.2 0,-0.6 0.1,-1.3 0.1,-2.1 2.4,-5.2 2.4,-8.4 z"
           id="path3586" />
      </g>
      <path
         style="opacity:0.4"
         d="m 169.3,243.9 c 2,-1.4 2.9,-4.4 2.9,-4.4 l 3,1.4 1.8,-1 c 0,0 -0.2,-2.5 -0.1,-3.5 0,-0.9 1.5,-3.3 1.8,-5.7 -0.2,0.4 -0.4,0.8 -0.7,1.2 -1.4,2.3 -3.7,3.4 -6.5,8.1 -2.6,4.5 -9.3,5.9 -12,5.4 -2.2,-0.4 -3.7,-1.3 -4,-2.7 -0.2,1.3 0.4,2.7 2.6,3.5 4.4,1.9 9.2,-0.9 11.2,-2.3 z"
         id="path3590" />
      <path
         style="fill:#06547a"
         d="m 140.6,142.1 c -0.3,2.1 -1.3,27.5 -0.3,33.8 2,12.5 5,17.6 6.7,29.8 0.3,2.5 0.6,7.7 0.6,7.7 0,0 5.5,0.6 8.1,0.4 4.2,-0.4 5.5,-0.8 5.5,-0.8 0,0 1.7,-6.7 1.8,-16.8 0,-3.7 -3.3,-13.2 -3.3,-13.2 l 1.6,-8.4 -3,-32.8 c -9.5,-0.2 -17.7,0.3 -17.7,0.3 z"
         id="path3592" />
      <path
         style="opacity:0.15"
         d="m 140.6,142.1 c -0.3,2.1 -1.3,27.5 -0.3,33.8 2,12.5 5,17.6 6.7,29.8 0.3,2.5 0.6,7.7 0.6,7.7 0,0 5.5,0.6 8.1,0.4 4.2,-0.4 5.5,-0.8 5.5,-0.8 0,0 1.7,-6.7 1.8,-16.8 0,-3.7 -3.3,-13.2 -3.3,-13.2 l 1.6,-8.4 -3,-32.8 c -9.5,-0.2 -17.7,0.3 -17.7,0.3 z"
         id="path3594" />
      <path
         style="fill:#06547a"
         d="m 165.1,220 c 0,0 3.5,1.1 6.8,0.9 4.7,-0.3 7.7,-1.9 7.7,-1.9 0.1,0.7 1.9,-14.1 2.6,-21.6 0.5,-5 -1.2,-9.8 -0.9,-12.4 0.3,-2.6 7.3,-29.1 6.3,-37.3 -0.6,-4.8 -43.1,-31.6 -40.5,-5.5 1.1,11.1 7.4,12 9.8,16.4 3.6,6.6 3.9,12.4 4.2,16 0.6,6.3 2.5,22.7 2.9,27 0.4,4.3 1.1,18.4 1.1,18.4 z"
         id="path3596" />
      <path
         style="fill:#993399"
         d="m 143,109.3 c 0,0 -1.9,8.4 -2.9,23.8 -0.1,2.3 0,5.7 -0.1,9.7 -0.1,6.6 11.1,10.9 22.5,11.6 12.5,0.8 25.4,-0.6 25.8,-6.8 1.1,-14.8 -9.3,-28.5 -10.6,-34.3 -1.3,-5.8 6.7,-8.6 6.7,-8.6 0,0 -2,-4.7 -1.5,-11.6 0.5,-6.9 -5.4,-9.9 -7.5,-11.3 -1.7,-1.2 -17.3,-8.4 -19.8,-9.1 -2.5,-0.7 -7.1,-0.9 -8.2,3.5 -1.2,4.5 0,9.2 -1.4,10.9 -1.4,1.7 -6.5,8.1 -6.3,12.4 0.1,4.4 3.3,9.8 3.3,9.8 z"
         id="path3598" />
      <path
         style="fill:#fbd7c7"
         d="m 158,47.1 c -5.3,3.5 -5.8,10.8 -5.6,15.8 0.2,5 0.3,9.1 2.2,10.8 1.9,1.7 2.1,2.4 2.3,3.6 0.2,1.2 -5.7,5.7 -0.6,8 5.1,2.2 6.9,-0.3 10.9,-2.1 4.3,-1.9 7.6,-1.6 7.6,-1.6 0,0 -2.6,-4.7 -2.4,-8.1 0.2,-3.3 1,-5.8 2.6,-9.3 1.6,-3.5 4.2,-12.7 -1.1,-16.4 -5.2,-3.5 -12.3,-3 -15.9,-0.7 z"
         id="path3600" />
      <path
         style="fill:#656565"
         d="m 171.4,45.4 c 0,0 -3.4,-4.2 -10.2,-2.1 -6.8,2.1 -8.2,7.9 -8.2,7.9 l 2.7,-1.8 -1.6,3.5 2.5,-2.1 c 0,0 -1.1,2.6 -1.1,2.5 0,-0.2 2.6,-2.1 2.6,-2.1 0,0 -1.8,4.6 -1.8,4.4 0.1,-0.2 6.5,-6.2 6.5,-6.2 l -3.4,7.2 1.6,-0.5 -1.5,7.3 1.5,-2.5 0.3,5.7 1.8,-6.2 1,4.3 1.1,-4.1 1.4,6.8 1.3,-3.5 0.9,3 1.8,-4.5 0.4,1.8 1.5,-2.7 0.2,1.6 1,-0.2 -2,7.5 1.9,-3.7 -0.6,6.3 3.1,-7.2 0.3,1.6 1.6,-6.7 0.3,3.2 0.6,-4.9 0.9,0.9 -0.7,-4.3 1,0.6 -1.9,-3.6 1.3,0.5 c 0,-0.2 -1.9,-8 -8.1,-7.7 z"
         id="path3602" />
      <path
         style="opacity:0.15"
         d="m 170.9,102.4 c 0,0 -6.7,8.3 -15.4,7.1 -9.2,-1.3 -2.7,-14.5 -2.7,-14.5 0,0 -8,14.1 -12.9,6.3 0.9,4 3.2,8 3.2,8 0,0 0,0 0,0 1.8,1.2 3.2,0.9 5.6,-2 1.8,12.4 21.9,6.1 24.9,3.3 -0.8,-2.7 -2.7,-8.2 -2.7,-8.2 z"
         id="path3604" />
      <path
         style="fill:#fbd7c7"
         d="m 186.2,120.6 c -0.7,-3.5 -2.2,-13.2 -2.9,-15.5 l -10.7,2.5 c 0.1,0.3 0.1,0.3 0.2,0.6 1,2.6 3.3,14.4 3.5,15.3 0.2,0.9 -2,3.3 -3,5.6 -2.7,6.1 -3.3,13.9 -3.7,15.5 -0.5,1.6 -1.6,2.9 -2.9,3.8 -1.3,0.9 -5.3,4.7 -5.7,5.8 -0.3,0.7 -1.3,4.8 -0.7,6.3 0.6,1.5 4.8,3 5.8,3 1,0 1,-1.4 1,-1.4 0,0 -1.1,-1.8 -1.2,-3.4 -0.1,-1.6 1.2,-2.7 4.3,-5 3.1,-2.3 3.4,-5.4 7,-11.1 3.6,-5.7 6.6,-9.9 7.8,-12.6 1.2,-2.9 1.5,-7.8 1.2,-9.4 z"
         id="path3606" />
      <path
         style="fill:#825012"
         d="m 71.6,263 c 0,0 7.4,1.9 7.4,4.1 0,1.1 0,4.8 0,5.8 0,1.9 -3.9,3.1 -3.9,5 0,2.4 4.8,3.9 6,3.5 1.3,-0.4 2.1,-1 2.1,-3.3 0,-2.3 0.8,-12.1 1.1,-15.1 0.3,-3 -0.9,-12.3 -0.9,-12.3 z"
         id="path3608" />
      <path
         style="opacity:0.2"
         d="m 71.6,263 c 0,0 7.4,1.9 7.4,4.1 0,1.1 0,4.8 0,5.8 0,1.9 -3.9,3.1 -3.9,5 0,2.4 4.8,3.9 6,3.5 1.3,-0.4 2.1,-1 2.1,-3.3 0,-2.3 0.8,-12.1 1.1,-15.1 0.3,-3 -0.9,-12.3 -0.9,-12.3 z"
         id="path3610" />
      <path
         style="fill:#825012"
         d="m 16,232.8 c 1.4,-0.5 6.6,-2.3 6.7,-3.3 0.1,-1 0,-2.6 1.2,-3.1 1.2,-0.6 2.3,-3.5 3.9,-3.8 1.6,-0.3 2.3,0.1 5.2,1 2.9,0.9 6.4,2.8 8.6,4.4 2.3,1.7 3.4,3.3 4.9,5.6 1.5,2.3 2,2.9 1.8,3.5 -0.2,0.6 -0.7,0.3 -0.3,1.2 0.5,1.4 0.8,3.1 2.5,3.5 5.9,1.6 19.6,-8 23.1,-9.1 8.4,-2.7 16.6,1.5 20.8,5 2.8,2.3 5.4,8.4 7.4,12.4 2,4 5.6,4.5 5.2,6.2 -0.2,0.7 -1.2,1.3 -3.4,0.4 -2.7,-1.1 -8.8,-7.8 -8.8,-7.8 0,0 0.8,2.5 -0.4,5.8 -1.2,3.3 -3.1,8.8 -1.5,10.6 1.7,1.8 3.9,3.7 4.1,5.6 0.2,1.9 1,15.2 1,15.8 0,0.6 -0.4,1.9 -1.7,2.3 -3.8,1.2 -8.4,-1.4 -7.8,-3.7 0.7,-2.4 3.3,-1.8 3.3,-5.2 0,-1.3 -0.3,-5 -0.6,-5.7 -0.3,-1 -1.4,-2 -2.7,-2.5 -1.1,-0.4 -6.1,-3.1 -7.1,-6.3 -1,-3.2 -1.5,-6.6 -3.1,-6.9 -1.6,-0.2 -7.3,9.1 -12,12.3 -4.7,3.2 -7.9,3.4 -7.9,3.4 0,0 -0.9,15.5 -0.9,18.5 0,3 2.1,6.2 2.5,8.1 0.4,2.1 0.8,5.6 -1.8,7.3 -3.1,2 -7,0.1 -7.9,-0.9 -0.8,-1 -1,-3.1 0.3,-4.3 1.3,-1.2 2.7,-2.3 2.3,-2.8 -0.4,-0.6 -2.1,-3.4 -2.4,-5.2 -0.4,-2.7 -0.8,-14.3 -4.1,-16.4 -1,-0.6 -3.4,-0.9 -4.1,0.1 -0.6,1 -0.6,7.2 -0.6,8.3 0,1.6 2.3,5 2.3,7.7 0,2.7 -1,4.2 -3.4,5.1 -1.9,0.6 -4.5,0.2 -6.4,-2.3 -1.2,-1.6 -0.3,-3.3 1,-4.1 0.8,-0.5 1.9,-0.7 2,-1.8 0.1,-1.1 -1.5,-2.7 -1.5,-4.7 0,-2 -0.8,-10 -0.8,-11 0,-3.2 -5.4,-6.3 -7.3,-13 -1,-3.3 -0.2,-7 -0.5,-9.8 -0.2,-1.7 -0.5,-9.2 -3.7,-9.9 -1.2,-0.3 -6.3,-0.2 -7.8,-1.8 -1.1,-1.2 -1.7,-2.7 -1.4,-4.6 0.8,-1.7 1.8,-4.1 1.8,-4.1 z"
         id="path3612" />
      <path
         style="fill:#262626"
         d="m 32.4,234.7 c 0,0 -0.6,-1.6 -2,-2.4 -1.3,-0.8 -2.7,0.7 -1,2 1.5,1.2 3,0.4 3,0.4 z"
         id="path3614" />
      <path
         style="fill:#262626"
         d="m 19.4,235.1 c 0.2,-1.5 -0.8,-2.2 -2.8,-2.7 -1.2,-0.2 -2.5,0.4 -2.5,1.9 0,2.1 1.8,3.7 1.8,3.7 0,0 3.2,0 3.5,-2.9 z"
         id="path3616" />
      <path
         style="fill:#262626"
         d="m 22.9,228 c 0,0 1,0.5 0.3,1.3 -0.8,0.9 -0.3,-1.3 -0.3,-1.3 z"
         id="path3618" />
      <path
         style="fill:#262626"
         d="m 166.7,159.5 -6.8,-1.5 c -0.3,-0.1 -0.5,-0.4 -0.5,-0.7 0.1,-0.3 0.4,-0.5 0.7,-0.4 l 4.7,1.1 -4.8,-2 c -0.3,-0.1 -0.5,-0.5 -0.3,-0.8 0.1,-0.3 0.5,-0.4 0.8,-0.3 l 6.6,2.7 z"
         id="path3620" />
      <path
         style="fill:#262626"
         d="m 49.1,241.2 c -0.2,0 -0.4,-0.1 -0.5,-0.3 -0.2,-0.3 -0.1,-0.6 0.2,-0.8 l 117.1,-81.8 c 0.3,-0.2 0.6,-0.1 0.8,0.1 0.2,0.3 0.1,0.6 -0.2,0.8 L 49.4,241.1 c -0.1,0.1 -0.2,0.1 -0.3,0.1 z"
         id="path3622" />
      <path
         style="fill:#262626"
         d="m 26.8,248.6 c 0,0 2.4,1.3 6.1,1.4 3.7,0 7,-1.5 8.8,-3.3 1.8,-1.8 6.7,-7.1 6.7,-7.1 l 1.7,1.8 c 0,0 -5.8,7.4 -8.3,8.9 -2.5,1.5 -5.2,2.8 -9,2.7 -3.8,-0.1 -5.5,-1.2 -5.5,-1.2 z"
         id="path3624" />
      <path
         style="opacity:0.2"
         d="m 36.9,233.2 c 0,0 -4.1,15.3 0.6,15.2 2.4,-0.1 10.2,-10.9 10.2,-10.9 0,0 -4.6,13.7 -11.1,13.7 -6.4,0.1 0.3,-18 0.3,-18 z"
         id="path3626" />
    </g>
  </g>
  <path
     d="M 18.945723,34.423998 C 8.482571,34.423998 0,29.124357 0,22.587911 0,16.051016 8.482571,10.751376 18.945723,10.751376 c 3.280679,0 6.365794,0.521232 9.056291,1.437418 5.31015,-1.793862 12.560471,-5.1832152 12.560471,-5.1832152 0,0 -4.727451,2.4019664 -6.676601,5.3188972 -0.497889,0.745576 -0.789738,1.526977 -0.956366,2.277927 3.081124,2.104631 4.962426,4.907821 4.962426,7.985508 0,6.536446 -8.482571,11.836087 -18.946221,11.836087"
     fill="#dddddd"
     id="path1"
     style="stroke-width:0.472651" />
  <path
     style="fill:#000000;fill-opacity:1;fill-rule:nonzero;stroke:none;stroke-width:0.264583"
     id="path2"
     d="m 9.8659872,16.443899 c 0.1905808,0.09938 0.3514068,0.245381 0.5092458,0.389048 0.161238,0.157238 0.307679,0.33037 0.42793,0.521199 0.07773,0.12335 0.114256,0.204088 0.180557,0.335636 0.184669,0.43583 0.318467,0.890669 0.434959,1.348725 0.07925,0.346658 0.116015,0.704638 0.0789,1.059599 -0.0075,0.0718 -0.02141,0.14278 -0.03212,0.214171 -0.07674,0.467487 -0.274611,0.896801 -0.496674,1.310606 -0.198735,0.366291 -0.454081,0.695037 -0.720416,1.013676 -0.159621,0.191326 -0.3384019,0.364659 -0.5240674,0.530256 -0.4638895,0.414737 0.1226368,1.070776 0.5865264,0.656039 v 0 c 0.217115,-0.194502 0.426195,-0.398008 0.613048,-0.6223 0.304527,-0.365107 0.594459,-0.743283 0.821084,-1.162999 0.110537,-0.207694 0.152907,-0.278651 0.249357,-0.495403 0.157461,-0.353864 0.278568,-0.723381 0.342384,-1.106026 0.01319,-0.09676 0.03032,-0.193066 0.03959,-0.290281 0.04233,-0.444042 -0.0048,-0.891625 -0.104894,-1.324783 -0.133075,-0.520577 -0.285702,-1.038021 -0.503374,-1.530379 -0.09586,-0.186954 -0.128172,-0.261232 -0.24167,-0.437942 -0.158114,-0.246172 -0.349704,-0.469496 -0.560306,-0.67198 -0.205729,-0.185651 -0.416881,-0.370701 -0.663451,-0.500916 -0.5402674,-0.308724 -0.9768696,0.45533 -0.4366018,0.764054 z" />
  <path
     style="fill:#000000;fill-opacity:1;fill-rule:nonzero;stroke:none;stroke-width:0.264583"
     id="path3"
     d="m 10.068743,23.448762 c -0.0074,-0.129219 -0.008,-0.258773 -0.01014,-0.388163 -0.0064,-0.262413 0.0083,-0.524729 0.02625,-0.786417 0.0313,-0.415548 0.07196,-0.830315 0.107998,-1.245466 0.04038,-0.457622 0.06721,-0.916205 0.08874,-1.375047 0.02028,-0.455867 0.03372,-0.911997 0.04583,-1.368143 0.0094,-0.365705 0.01668,-0.731459 0.02306,-1.097227 0.0069,-0.290744 0.014,-0.581419 0.0303,-0.8718 0.01005,-0.166595 0.005,-0.08423 0.01501,-0.247082 0.03805,-0.62109 -0.8403069,-0.674896 -0.8783537,-0.05381 v 0 c -0.010105,0.164958 -0.00501,0.08106 -0.015285,0.251695 -0.016851,0.30166 -0.024529,0.603615 -0.031538,0.905651 -0.00633,0.363103 -0.013555,0.72619 -0.022884,1.089229 -0.011943,0.450187 -0.025186,0.900358 -0.045171,1.350271 -0.020944,0.447204 -0.047051,0.894157 -0.08641,1.340171 -0.036497,0.420605 -0.077759,0.840815 -0.1092645,1.261837 -0.019368,0.286343 -0.035139,0.573332 -0.028166,0.860451 0.00257,0.157019 0.00246,0.314436 0.015401,0.471026 0.068717,0.618448 0.9433332,0.521268 0.8746172,-0.09718 z" />
  <path
     style="fill:#000000;fill-opacity:1;fill-rule:nonzero;stroke:none;stroke-width:0.264583"
     id="path4"
     d="m 9.8493751,23.975481 c 0.1215178,-0.0039 0.2429159,-0.0101 0.3643049,-0.01711 0.263326,-0.01714 0.527244,-0.02024 0.791017,-0.02381 0.324187,-0.005 0.648094,0.0091 0.971821,0.02421 0.330989,0.01823 0.661227,0.04632 0.991507,0.0741 0.320366,0.03057 0.641269,0.05451 0.962442,0.07466 0.301033,0.01838 0.602373,0.03088 0.903766,0.04147 0.252765,0.0084 0.505594,0.01388 0.758293,0.02413 0.201893,0.0051 0.403225,0.02049 0.604272,0.03898 0.185023,0.01856 0.370325,0.03395 0.555804,0.04711 0.178238,0.0091 0.355851,0.02636 0.533676,0.0411 0.18966,0.01829 0.379578,0.03366 0.569424,0.04987 0.193436,0.01718 0.387189,0.02985 0.581116,0.03982 0.207792,0.01147 0.415993,0.01251 0.623789,0.02331 0.235187,0.015 0.470554,0.02663 0.706024,0.03608 0.28171,0.01756 0.563553,0.03488 0.844902,0.05765 0.279304,0.02222 0.557682,0.05409 0.836218,0.08409 0.272733,0.03016 0.546351,0.05109 0.819868,0.07258 0.279082,0.02812 0.558383,0.05319 0.838201,0.07268 0.34866,0.02604 0.697943,0.04182 1.047273,0.0554 0.443219,0.01142 0.882688,0.06952 1.321445,0.128724 0.439989,0.06322 0.877867,0.140895 1.313156,0.23081 0.336545,0.06743 0.667012,0.157825 0.990531,0.271997 0.125648,0.04826 0.251749,0.09809 0.370422,0.162171 0.101979,0.05507 0.195369,0.123964 0.288608,0.192249 0.145912,0.107002 0.258731,0.24621 0.337344,0.408306 0.03368,0.108814 0.01685,0.22113 -0.01323,0.328636 -0.04957,0.143397 -0.143922,0.259726 -0.246742,0.368285 -0.161094,0.154892 -0.353827,0.269486 -0.547674,0.377933 -0.215715,0.117216 -0.445432,0.203454 -0.679998,0.273944 -0.1959,0.04691 -0.396343,0.05682 -0.595148,0.02698 -0.24418,-0.04325 -0.474192,-0.138957 -0.702962,-0.231315 -0.229337,-0.09658 -0.455765,-0.20016 -0.673166,-0.321384 -0.129376,-0.07479 -0.06561,-0.03733 -0.191321,-0.112329 -0.534499,-0.318609 -0.985079,0.437287 -0.450581,0.755893 v 0 c 0.140684,0.08379 0.06898,0.04175 0.215152,0.126035 0.249484,0.137736 0.507609,0.258537 0.770772,0.367913 0.298118,0.120119 0.599428,0.239308 0.919091,0.287899 0.05879,0.007 0.117325,0.01646 0.176353,0.0209 0.264248,0.0199 0.530757,-0.01545 0.786982,-0.0784 0.295397,-0.09008 0.584748,-0.199718 0.855962,-0.348983 0.273666,-0.15436 0.54225,-0.322058 0.763315,-0.548359 0.03414,-0.03758 0.06967,-0.07395 0.102438,-0.112739 0.1612,-0.190781 0.284568,-0.409972 0.354055,-0.650375 0.01098,-0.05017 0.02442,-0.09987 0.03291,-0.150519 0.04484,-0.267424 0.01558,-0.537152 -0.09507,-0.785261 -0.02418,-0.04523 -0.04639,-0.09157 -0.07257,-0.135679 -0.134728,-0.227064 -0.31822,-0.420972 -0.528587,-0.57926 -0.10496,-0.07583 -0.153919,-0.114149 -0.265581,-0.182518 -0.19504,-0.119421 -0.404693,-0.211592 -0.619077,-0.290269 -0.36104,-0.126371 -0.729179,-0.228701 -1.104522,-0.303619 -0.45525,-0.09371 -0.913056,-0.175362 -1.37323,-0.241043 -0.466457,-0.0629 -0.933782,-0.123481 -1.40493,-0.135958 -0.340363,-0.01321 -0.680683,-0.02853 -1.02039,-0.05395 -0.2772,-0.01923 -0.553831,-0.04457 -0.830325,-0.0721 -0.265064,-0.02082 -0.530237,-0.041 -0.794542,-0.07022 -0.286387,-0.03084 -0.57262,-0.06351 -0.8598,-0.08631 -0.293159,-0.02351 -0.586777,-0.04205 -0.88033,-0.05979 -0.232364,-0.0093 -0.464617,-0.0209 -0.696703,-0.03565 -0.207639,-0.0103 -0.415579,-0.01254 -0.623215,-0.02328 -0.184005,-0.0094 -0.36784,-0.02147 -0.551377,-0.03779 -0.190574,-0.01627 -0.381217,-0.03173 -0.571609,-0.05005 -0.181313,-0.01502 -0.362431,-0.03253 -0.544156,-0.04191 -0.179449,-0.0127 -0.358716,-0.02767 -0.537721,-0.04564 -0.215911,-0.01971 -0.43213,-0.03628 -0.648931,-0.04193 -0.254276,-0.01029 -0.508679,-0.01597 -0.763024,-0.0243 -0.293339,-0.0103 -0.586626,-0.02243 -0.879616,-0.04029 -0.314935,-0.01972 -0.629593,-0.0433 -0.943734,-0.07328 -0.341144,-0.02869 -0.682261,-0.05758 -1.024148,-0.07624 -0.341394,-0.01596 -0.68299,-0.03039 -1.024864,-0.02509 -0.276714,0.0038 -0.553568,0.0073 -0.829815,0.02519 -0.140902,0.0081 -0.2820005,0.01193 -0.4227172,0.02244 -0.6174489,0.07718 -0.5082982,0.950386 0.1091506,0.873204 z" />
  <path
     style="fill:#000000;fill-opacity:1;fill-rule:nonzero;stroke:none;stroke-width:0.264583"
     id="path5"
     d="m 147.11119,50.144227 c -1.72407,0.148368 -3.45571,0.190212 -5.18468,0.246624 -1.89956,0.05918 -3.79934,0.110987 -5.69918,0.160266 -1.25274,0.03267 -2.50563,0.05898 -3.75858,0.08179 -0.17239,0.003 -0.34478,0.006 -0.51716,0.009 -0.62216,0.0108 -0.60689,0.890666 0.0153,0.879869 v 0 c 0.17264,-0.003 0.34527,-0.006 0.51791,-0.009 1.25522,-0.02286 2.51037,-0.04921 3.76538,-0.08194 1.9018,-0.04933 3.80354,-0.101192 5.70506,-0.16044 1.75873,-0.05739 3.5204,-0.09904 5.27383,-0.254082 0.61665,-0.08333 0.4988,-0.955405 -0.11785,-0.872072 z" />
  <path
     style="fill:#000000;fill-opacity:1;fill-rule:nonzero;stroke:none;stroke-width:0.264583"
     id="path6"
     d="m 134.20254,47.978359 c -0.35638,0.259868 -0.66965,0.571434 -0.98029,0.882862 -0.30675,0.311009 -0.61724,0.618254 -0.91758,0.935487 -0.20553,0.224226 -0.41105,0.448458 -0.62286,0.666792 -0.0308,0.03132 -0.0617,0.06264 -0.0925,0.09395 -0.43659,0.443386 0.19046,1.060812 0.62704,0.617423 v 0 c 0.0324,-0.03294 0.0649,-0.06588 0.0973,-0.09882 0.21413,-0.220978 0.42253,-0.447329 0.63015,-0.674407 0.29504,-0.311751 0.60037,-0.613389 0.90164,-0.919081 0.27303,-0.273923 0.54697,-0.549209 0.85804,-0.780685 0.51161,-0.354195 0.0107,-1.077724 -0.5009,-0.723529 z" />
  <path
     style="fill:#000000;fill-opacity:1;fill-rule:nonzero;stroke:none;stroke-width:0.264583"
     id="path7"
     d="m 131.39364,51.435053 c 0.30926,0.336341 0.62895,0.66295 0.94787,0.99011 0.43855,0.444511 0.88077,0.885291 1.31631,1.332775 0.0636,0.06623 0.12714,0.132456 0.19071,0.198684 0.43092,0.448897 1.06575,-0.160515 0.63483,-0.609412 v 0 c -0.065,-0.06768 -0.12995,-0.135369 -0.19493,-0.203055 -0.43571,-0.447638 -0.878,-0.888661 -1.31679,-1.333262 -0.31264,-0.320709 -0.62614,-0.640775 -0.92931,-0.970478 -0.42047,-0.458698 -1.06917,0.13594 -0.64869,0.594638 z" />
  <path
     style="fill:#000000;fill-opacity:1;fill-rule:nonzero;stroke:none;stroke-width:0.264583"
     id="path8"
     d="m 131.65231,50.364202 c -0.20386,-0.284327 -0.45278,-0.533096 -0.70704,-0.771816 -0.25158,-0.213603 -0.51239,-0.420105 -0.79905,-0.585547 -0.38255,-0.220779 -0.78994,-0.384519 -1.19969,-0.545716 -0.57492,-0.207182 -1.1739,-0.34726 -1.7855,-0.378492 -0.40568,-0.02072 -0.49378,-0.0011 -0.89666,0.03009 -0.60426,0.09115 -1.18246,0.31088 -1.6922,0.649438 -0.31546,0.209518 -0.38701,0.296259 -0.66102,0.55068 -0.0884,0.102703 -0.18337,0.200057 -0.26512,0.308107 -0.28764,0.380175 -0.50963,0.869138 -0.57051,1.345105 -0.0149,0.116811 -0.0108,0.235273 -0.0163,0.352909 0.0242,0.450125 0.16862,0.877896 0.44394,1.237787 0.17897,0.23395 0.27344,0.295349 0.49487,0.486016 0.51269,0.379722 1.0836,0.584785 1.71499,0.661808 0.12675,0.01545 0.25464,0.01934 0.38196,0.02902 0.58386,0.02606 1.16622,-0.06365 1.72624,-0.226362 0.105,-0.03051 0.20815,-0.06704 0.31223,-0.100555 0.58687,-0.21387 1.12924,-0.526388 1.66668,-0.840383 0.41215,-0.245006 0.82053,-0.495924 1.21834,-0.763637 0.20331,-0.137594 0.1026,-0.06819 0.30215,-0.208185 0.50927,-0.35755 0.004,-1.07777 -0.50565,-0.72022 v 0 c -0.18654,0.131072 -0.0906,0.06485 -0.28799,0.198446 -0.38217,0.257466 -0.77493,0.498102 -1.17085,0.733819 -0.48298,0.28231 -0.96914,0.56543 -1.49437,0.763151 -0.55083,0.180462 -1.12028,0.314155 -1.70435,0.286141 -0.10058,-0.0065 -0.20157,-0.0084 -0.30174,-0.0196 -0.46318,-0.05165 -0.90925,-0.192813 -1.2902,-0.466058 -0.061,-0.04993 -0.12489,-0.09653 -0.183,-0.149792 -0.25385,-0.232666 -0.41156,-0.533087 -0.44359,-0.876911 -2.7e-4,-0.06773 -0.007,-0.135781 -7.9e-4,-0.203203 0.0316,-0.328271 0.18593,-0.685522 0.37891,-0.949944 0.0603,-0.0827 0.13104,-0.157337 0.19656,-0.236005 0.20453,-0.194911 0.27146,-0.274461 0.50703,-0.434975 0.39494,-0.269105 0.8441,-0.449755 1.31474,-0.529466 0.12298,-0.0105 0.24563,-0.02648 0.36896,-0.03153 0.65663,-0.02687 1.30485,0.101121 1.92116,0.322144 0.35508,0.13852 0.71202,0.277865 1.0446,0.466434 0.2422,0.137321 0.46164,0.310875 0.67468,0.488749 0.21467,0.199001 0.42401,0.408186 0.59587,0.646144 0.36599,0.503237 1.07768,-0.01434 0.71168,-0.517591 z" />
  <path
     style="fill:#000000;fill-opacity:1;fill-rule:nonzero;stroke:none;stroke-width:0.264583"
     id="path9"
     d="m 147.30324,51.000067 c 0.30452,0.0019 0.60867,-0.01831 0.91268,-0.03336 0.81411,-0.03629 1.62896,-0.0521 2.44375,-0.06264 1.0349,-0.01609 2.06986,-0.0044 3.10474,0.0052 0.9692,0.0039 1.93812,0.02738 2.90711,0.04598 0.95768,0.01844 1.91545,0.03137 2.87324,0.0426 0.90019,0.0086 1.80033,0.01513 2.70041,0.03203 0.88118,0.02143 1.76231,0.04442 2.64354,0.06363 0.75629,0.01603 1.51266,0.02791 2.26906,0.03794 0.59124,0.0076 1.1825,0.01376 1.77377,0.01929 0.40557,0.0037 0.81114,0.0069 1.21671,0.0097 0.3134,-0.0036 0.62632,0.01315 0.93926,0.02737 0.33326,0.01508 0.66673,0.02484 1.00023,0.03293 0.3959,0.0082 0.79187,0.01281 1.18783,0.01723 0.23587,0.0024 0.11978,0.0013 0.34827,0.0036 0.62222,0.0062 0.631,-0.873747 0.009,-0.879957 v 0 c -0.22782,-0.0024 -0.11209,-0.0011 -0.34718,-0.0035 -0.39214,-0.0044 -0.7843,-0.0089 -1.17639,-0.01704 -0.32728,-0.0079 -0.65452,-0.01749 -0.98157,-0.03229 -0.32418,-0.01474 -0.64838,-0.03169 -0.97304,-0.02826 -0.4049,-0.0029 -0.80979,-0.0061 -1.21469,-0.0097 -0.59011,-0.0055 -1.18022,-0.01167 -1.77031,-0.01924 -0.75389,-0.01 -1.50776,-0.02185 -2.26155,-0.03781 -0.88212,-0.01924 -1.76414,-0.04228 -2.6462,-0.06368 -0.90214,-0.01693 -1.80435,-0.0235 -2.70661,-0.03212 -0.9556,-0.01119 -1.91118,-0.0241 -2.86668,-0.0425 -0.97187,-0.01865 -1.94368,-0.04213 -2.91577,-0.0461 -1.04142,-0.0097 -2.08292,-0.02138 -3.12435,-0.0052 -0.82551,0.01072 -1.65108,0.02675 -2.4759,0.06364 -0.28951,0.01434 -0.57915,0.03387 -0.86913,0.03229 -0.62226,0 -0.62226,0.879999 0,0.879999 z" />
  <path
     style="fill:#000000;fill-opacity:1;fill-rule:nonzero;stroke:none;stroke-width:0.264583"
     id="path10"
     d="m 173.56841,48.327596 c -0.0181,0.450879 -0.0275,0.902049 -0.0365,1.353179 -0.01,0.515925 -0.0162,1.031904 -0.0222,1.547882 -0.005,0.393932 -0.008,0.787876 -0.0113,1.181822 -1e-4,0.217506 -0.006,0.434938 -0.0123,0.652343 -0.0166,0.622033 0.86312,0.645462 0.87969,0.02342 v 0 c 0.006,-0.222927 0.0124,-0.445879 0.0126,-0.668906 0.003,-0.392785 0.007,-0.785564 0.0113,-1.178333 0.006,-0.513561 0.0125,-1.027123 0.0221,-1.540629 0.009,-0.44337 0.0181,-0.886775 0.0357,-1.329899 0.0289,-0.62158 -0.85014,-0.662466 -0.87905,-0.04089 z" />
  <path
     style="fill:#000000;fill-opacity:1;fill-rule:nonzero;stroke:none;stroke-width:0.264583"
     id="path11"
     d="m 173.95107,51.416696 c 0.1809,0.172162 0.3858,0.312724 0.59708,0.444286 0.47637,0.278407 0.99994,0.460047 1.5223,0.630306 0.39144,0.119412 0.78591,0.233812 1.18706,0.316561 0.2743,0.05658 0.35911,0.06392 0.63512,0.102449 0.51568,0.03585 1.03998,-0.0073 1.5386,-0.148516 0.0854,-0.02418 0.16863,-0.05546 0.25294,-0.08319 0.40889,-0.145425 0.73739,-0.435607 0.9623,-0.803981 0.0388,-0.06351 0.0704,-0.131123 0.10562,-0.196684 0.16156,-0.33534 0.20048,-0.70196 0.14305,-1.067599 -0.0107,-0.06838 -0.0281,-0.135548 -0.0421,-0.203321 -0.10957,-0.436311 -0.34466,-0.738778 -0.66154,-1.044205 -0.28208,-0.255833 -0.61956,-0.428972 -0.97366,-0.560702 -0.25818,-0.08424 -0.52906,-0.131236 -0.80099,-0.133779 -0.17526,-0.0016 -0.28878,0.01206 -0.46215,0.02687 -0.4832,0.04492 -0.96109,0.135874 -1.43023,0.258437 -0.45269,0.131905 -0.8958,0.293753 -1.33687,0.459732 -0.36888,0.13494 -0.72176,0.30707 -1.06695,0.493379 -0.0493,0.02782 -0.0986,0.05564 -0.14787,0.08347 -0.54173,0.306136 -0.10879,1.072271 0.43295,0.766135 v 0 c 0.0445,-0.02516 0.089,-0.05034 0.13346,-0.07551 0.3099,-0.167894 0.62687,-0.322755 0.95838,-0.44387 0.41291,-0.155425 0.8276,-0.307198 1.2509,-0.432324 0.42045,-0.111652 0.84984,-0.191133 1.28306,-0.23281 0.30635,-0.02769 0.58813,-0.04245 0.88523,0.05716 0.24202,0.08517 0.47274,0.202896 0.66816,0.371353 0.17844,0.166471 0.34456,0.350687 0.40802,0.592751 0.0529,0.228942 0.0832,0.45783 -0.0211,0.678024 -0.0807,0.163343 -0.17392,0.305176 -0.311,0.4273 -0.0298,0.02653 -0.0584,0.05548 -0.0931,0.07519 -0.0516,0.02936 -0.10904,0.04715 -0.16357,0.07073 -0.0601,0.02074 -0.11919,0.04442 -0.18019,0.06221 -0.39164,0.114181 -0.80439,0.152051 -1.21067,0.132056 -0.23244,-0.03185 -0.32747,-0.04095 -0.55754,-0.08814 -0.37612,-0.07715 -0.74593,-0.184356 -1.11294,-0.295976 -0.45619,-0.148204 -0.91467,-0.303734 -1.33283,-0.5426 -0.16629,-0.101097 -0.32568,-0.211568 -0.46692,-0.346337 -0.46043,-0.418573 -1.05238,0.232574 -0.59195,0.651148 z" />
  <path
     style="fill:#000000;fill-opacity:1;fill-rule:nonzero;stroke:none;stroke-width:0.264583"
     d="m 148.10184,31.080478 c 0.009,0.738727 0.0186,1.477442 0.0298,2.216137 0.0172,1.121422 0.0359,2.242822 0.059,3.364139 0.0313,1.481045 0.0659,2.96205 0.11475,4.44264 0.0496,1.467194 0.11822,2.933822 0.1507,4.401492 0.0116,1.06199 0.008,2.124051 0.0112,3.186094 7e-5,0.452818 -2.5e-4,0.905655 -0.0125,1.358349 0,0.622255 0.88,0.622255 0.88,0 l -8e-5,4e-5 c 0.0125,-0.452723 0.0125,-0.905621 0.0125,-1.358477 -0.003,-1.065196 2.6e-4,-2.130414 -0.0112,-3.19556 -0.0323,-1.474388 -0.10135,-2.947715 -0.15114,-4.421614 -0.0488,-1.476888 -0.0832,-2.954194 -0.11445,-4.431543 -0.023,-1.1196 -0.0418,-2.239282 -0.0589,-3.358986 -0.0111,-0.737708 -0.0209,-1.475436 -0.0297,-2.213175"
     id="path26" />
  <path
     style="fill:#ff4400;fill-opacity:1;fill-rule:nonzero;stroke:none;stroke-width:0.264583"
     d="m 148.98182,31.070014 c -0.006,-0.499314 -0.0106,-0.998641 -0.015,-1.49797 -0.003,-0.288517 -0.005,-0.577037 -0.007,-0.865559 -0.004,-0.622241 -0.88411,-0.616401 -0.87998,0.0058 v 0 c 0.002,0.289156 0.004,0.57831 0.007,0.867461 0.004,0.50025 0.009,1.000497 0.015,1.500732"
     id="path12" />
  <path
     style="fill:#000000;fill-opacity:1;fill-rule:nonzero;stroke:none;stroke-width:0.264583"
     id="path13"
     d="m 148.58965,39.969228 c 0.24141,0.260316 0.5063,0.497861 0.76442,0.741318 0.51052,0.468894 0.96244,0.99619 1.41549,1.51942 0.53089,0.610076 1.0507,1.229492 1.59394,1.828697 0.52653,0.571698 1.06979,1.12736 1.61665,1.679503 0.41077,0.4147 0.82781,0.823127 1.24211,1.234303 0.31665,0.315528 0.62224,0.641807 0.93179,0.964231 0.28622,0.307795 0.56023,0.626753 0.83484,0.944883 0.25504,0.303797 0.51279,0.605205 0.77316,0.904452 0.19475,0.225279 0.40033,0.440764 0.60416,0.657746 0.0946,0.102909 0.0488,0.0523 0.13735,0.151709 0.41407,0.464484 1.07095,-0.121097 0.65688,-0.585584 v 0 c -0.0997,-0.11177 -0.0488,-0.05553 -0.15285,-0.168645 -0.19619,-0.20882 -0.39418,-0.416092 -0.58166,-0.632867 -0.25962,-0.298379 -0.51656,-0.598962 -0.7709,-0.901843 -0.28477,-0.329867 -0.56891,-0.660588 -0.86618,-0.979308 -0.31446,-0.327528 -0.62492,-0.658953 -0.94669,-0.979376 -0.41251,-0.409401 -0.82775,-0.816063 -1.23677,-1.228953 -0.53778,-0.542975 -1.07212,-1.089321 -1.59003,-1.651415 -0.53891,-0.594043 -1.0538,-1.208839 -1.58055,-1.813589 -0.47247,-0.545598 -0.94467,-1.094489 -1.47693,-1.583539 -0.2519,-0.237591 -0.51054,-0.46917 -0.74598,-0.723398 -0.44,-0.439999 -1.06226,0.182253 -0.62225,0.622255 z" />
  <path
     style="fill:#ff4400;fill-opacity:1;fill-rule:nonzero;stroke:none;stroke-width:0.264583"
     id="path14"
     d="m 146.40283,29.942575 c 0.0549,-0.08985 0.11377,-0.175222 0.1863,-0.251652 0.17249,-0.174243 0.39115,-0.284128 0.60804,-0.391705 0.28752,-0.148362 0.58888,-0.251201 0.90164,-0.330185 0.35911,-0.0733 0.72596,-0.05451 1.08686,-0.0083 0.19779,0.03724 0.39844,0.08332 0.57633,0.181058 0.0988,0.05427 0.14045,0.08867 0.23291,0.155165 0.23517,0.187263 0.43077,0.416707 0.61922,0.64931 0.3923,0.48301 1.07538,-0.07179 0.68308,-0.5548 v 0 c -0.23991,-0.29474 -0.49127,-0.583134 -0.79556,-0.813965 -0.1489,-0.103409 -0.20708,-0.151158 -0.36995,-0.234286 -0.26179,-0.133618 -0.54846,-0.207473 -0.83696,-0.255697 -0.075,-0.0092 -0.14968,-0.02032 -0.22485,-0.02751 -0.39618,-0.03792 -0.79863,-0.02582 -1.18865,0.05635 -0.17252,0.04439 -0.22309,0.05434 -0.39215,0.110012 -0.23495,0.07738 -0.46157,0.17733 -0.684,0.285023 -0.1197,0.05974 -0.2237,0.109141 -0.33938,0.177285 -0.19243,0.113356 -0.37098,0.249982 -0.52718,0.409699 -0.0995,0.111422 -0.19133,0.227513 -0.2679,0.356068 -0.34516,0.517747 0.38704,1.005883 0.7322,0.488136 z" />
  <path
     style="fill:#000000;fill-opacity:1;fill-rule:nonzero;stroke:none;stroke-width:0.264583"
     id="path17"
     d="m 136.91099,26.508878 c 0.20645,0.05617 0.41944,0.08399 0.62996,0.120552 0.39091,0.06764 0.78244,0.131483 1.17496,0.189097 0.61566,0.09034 0.74342,-0.780338 0.12776,-0.870676 v 0 c -0.38491,-0.05646 -0.76884,-0.11913 -1.15216,-0.185447 -0.17605,-0.03056 -0.35385,-0.05468 -0.52766,-0.09641 -0.59601,-0.178803 -0.84888,0.664084 -0.25286,0.842887 z" />
  <path
     style="fill:#000000;fill-opacity:1;fill-rule:nonzero;stroke:none;stroke-width:0.264583"
     id="path18"
     d="m 142.3854,27.371431 c 0.21067,0.02137 0.42167,0.03745 0.63307,0.04984 0.24529,0.01529 0.48998,0.03745 0.73468,0.05998 0.61964,0.05705 0.70032,-0.819246 0.0807,-0.876294 v 0 c -0.25448,-0.02343 -0.50898,-0.04634 -0.76407,-0.06219 -0.19204,-0.01117 -0.38384,-0.02536 -0.57521,-0.04454 -0.61744,-0.07718 -0.7266,0.796023 -0.10915,0.873205 z" />
  <path
     style="fill:#000000;fill-opacity:1;fill-rule:nonzero;stroke:none;stroke-width:0.264583"
     id="path19"
     d="m 146.65872,27.543737 c 0.23981,0.02604 0.48158,0.02497 0.72249,0.02802 0.23935,0.0026 0.47871,0.0039 0.71807,0.0054 0.62224,0.0037 0.62752,-0.876255 0.005,-0.879984 v 0 c -0.23741,-0.0014 -0.47483,-0.0028 -0.71223,-0.0053 -0.20816,-0.0026 -0.41706,-0.0012 -0.62445,-0.02129 -0.61745,-0.07718 -0.7266,0.796024 -0.10916,0.873205 z" />
  <path
     style="fill:#000000;fill-opacity:1;fill-rule:nonzero;stroke:none;stroke-width:0.264583"
     id="path20"
     d="m 152.19494,27.585667 c 0.28087,-0.01698 0.55618,-0.08508 0.83101,-0.141874 0.35594,-0.08047 0.71251,-0.158135 1.06929,-0.234775 0.60837,-0.13071 0.42351,-0.991076 -0.18486,-0.860366 v 0 c -0.35451,0.07618 -0.70887,0.15321 -1.06251,0.233349 -0.21682,0.0448 -0.43328,0.0948 -0.65293,0.123666 -0.62225,0 -0.62225,0.88 0,0.88 z" />
  <path
     style="fill:#000000;fill-opacity:1;fill-rule:nonzero;stroke:none;stroke-width:0.264583"
     id="path21"
     d="m 157.95367,26.594823 c 0.5027,-0.10467 0.97244,-0.32375 1.44191,-0.525344 0.0832,-0.03524 0.16637,-0.07048 0.24955,-0.10572 0.57296,-0.24274 0.22967,-1.05302 -0.34329,-0.81028 v 0 c -0.0845,0.0358 -0.16901,0.07161 -0.25352,0.107413 -0.39542,0.169839 -0.78973,0.351948 -1.20727,0.461167 -0.61713,0.07963 -0.50452,0.952395 0.11262,0.872764 z" />
  <path
     style="fill:#000000;fill-opacity:1;fill-rule:nonzero;stroke:none;stroke-width:0.264583"
     id="path23"
     d="m 153.64418,20.545977 c 0.26017,0.03836 0.52246,0.04218 0.78475,0.03385 0.55547,-0.03762 1.08904,-0.203169 1.61191,-0.383904 0.41821,-0.166649 0.83811,-0.336167 1.23348,-0.553189 0.25669,-0.140902 0.30911,-0.184207 0.54914,-0.346353 0.48681,-0.335277 0.87299,-0.777264 1.21729,-1.252148 0.26147,-0.361114 0.45394,-0.759985 0.57468,-1.187986 0.0782,-0.33559 0.0574,-0.679165 -0.11852,-0.981442 -0.032,-0.05499 -0.0735,-0.103945 -0.11023,-0.155924 -0.23871,-0.302291 -0.58002,-0.470128 -0.92378,-0.622996 -0.39035,-0.172423 -0.80745,-0.244311 -1.22917,-0.283398 -0.49913,-0.03897 -0.99276,0.03812 -1.47967,0.139326 -0.60999,0.140625 -1.19781,0.358764 -1.78356,0.576247 -0.56591,0.216521 -1.1225,0.456296 -1.67832,0.697226 -0.61155,0.266043 -1.21997,0.539188 -1.82801,0.813125 -0.64189,0.289676 -1.28268,0.581748 -1.92326,0.874304 -0.64926,0.29684 -1.29789,0.595043 -1.94644,0.893428 -0.56223,0.258675 -1.12426,0.517802 -1.68623,0.777047 -0.44217,0.204011 -0.88428,0.408165 -1.32635,0.612415 -0.34203,0.158018 -0.68403,0.316163 -1.026,0.474328 -0.31385,0.14518 -0.62767,0.290425 -0.94148,0.435687 -0.29685,0.127098 -0.60005,0.238323 -0.90221,0.351938 -0.32923,0.124187 -0.65535,0.256378 -0.98103,0.389536 -0.28395,0.115767 -0.56587,0.236363 -0.84713,0.358486 -0.1858,0.08116 -0.0935,0.04071 -0.27712,0.121353 -0.56976,0.25019 -0.21594,1.055928 0.35383,0.805731 v 0 c 0.18152,-0.07971 0.0903,-0.03975 0.27379,-0.119909 0.27548,-0.119619 0.55158,-0.23775 0.82969,-0.351132 0.31794,-0.130003 0.6363,-0.259114 0.95771,-0.380387 0.32244,-0.121236 0.64601,-0.239936 0.96215,-0.377042 0.31373,-0.14523 0.62746,-0.290446 0.94122,-0.435569 0.34188,-0.15812 0.68376,-0.316182 1.02569,-0.474176 0.44191,-0.204179 0.88385,-0.408289 1.32589,-0.612204 0.56168,-0.259126 1.12344,-0.518127 1.68538,-0.77667 0.64782,-0.298044 1.29572,-0.595908 1.94425,-0.892407 0.6392,-0.291935 1.27863,-0.58338 1.91913,-0.872436 0.60423,-0.272225 1.20884,-0.543667 1.81653,-0.808052 0.54144,-0.234711 1.08356,-0.468405 1.6347,-0.679685 0.5447,-0.202322 1.09088,-0.406526 1.6575,-0.539863 0.40143,-0.08472 0.80818,-0.153106 1.22024,-0.124221 0.32632,0.02848 0.64928,0.07918 0.95194,0.211572 0.20436,0.09006 0.42061,0.175851 0.57452,0.34422 0.0214,0.02471 0.049,0.0448 0.0656,0.07306 0.0541,0.09267 0.0377,0.20833 0.0198,0.307416 -0.084,0.328313 -0.24501,0.627637 -0.43917,0.904129 -0.28216,0.393312 -0.59756,0.760629 -0.99819,1.039152 -0.19146,0.130949 -0.24916,0.177 -0.45434,0.290285 -0.35949,0.198514 -0.74202,0.35231 -1.12209,0.505749 -0.43953,0.152993 -0.88738,0.296537 -1.35388,0.335847 -0.20703,0.0078 -0.41384,0.0053 -0.61937,-0.02394 -0.61488,-0.09551 -0.74995,0.774063 -0.13507,0.869569 z" />
  <path
     style="fill:#000000;fill-opacity:1;fill-rule:nonzero;stroke:none;stroke-width:0.264583"
     id="path24"
     d="m 139.01536,22.32994 c -0.15027,-0.333956 -0.29207,-0.671747 -0.43784,-1.007727 -0.25846,-0.594692 -0.52474,-1.185987 -0.79943,-1.773356 -0.282,-0.591956 -0.56122,-1.185268 -0.84773,-1.775058 -0.28377,-0.579603 -0.56709,-1.159424 -0.8488,-1.740033 -0.22334,-0.460606 -0.44606,-0.921513 -0.66263,-1.385349 -0.1158,-0.249385 -0.059,-0.126871 -0.17039,-0.367539 -0.26138,-0.564699 -1.05997,-0.195137 -0.79863,0.36958 v 0 c 0.11211,0.242317 0.0549,0.11886 0.17171,0.370379 0.21884,0.467551 0.4431,0.932509 0.66817,1.397081 0.28178,0.580763 0.56517,1.160736 0.84902,1.740489 0.28469,0.585876 0.56209,1.175275 0.8421,1.7634 0.27095,0.579997 0.53375,1.163799 0.78929,1.750746 0.1488,0.342489 0.29292,0.687097 0.44672,1.027355 0.2616,0.564592 1.06005,0.194626 0.79844,-0.369963 z" />
  <path
     style="fill:#000000;fill-opacity:1;fill-rule:nonzero;stroke:none;stroke-width:0.264583"
     id="path25"
     d="m 139.00211,22.96498 c 0.16055,-0.151169 0.28002,-0.338536 0.39437,-0.525284 0.19624,-0.342488 0.34146,-0.71045 0.47105,-1.082289 0.15583,-0.440761 0.22821,-0.902799 0.28045,-1.365417 0.0526,-0.47437 0.0412,-0.951411 0.008,-1.426441 -0.0271,-0.28114 -0.0598,-0.563567 -0.12326,-0.839267 -0.0411,-0.178469 -0.0659,-0.245459 -0.12058,-0.419091 -0.12753,-0.3912 -0.32111,-0.754357 -0.53735,-1.102619 -0.22748,-0.34774 -0.50878,-0.652939 -0.80786,-0.93938 -0.26702,-0.258289 -0.56419,-0.479092 -0.8742,-0.682268 -0.27509,-0.17193 -0.56456,-0.318953 -0.858,-0.45661 -0.2663,-0.12599 -0.55034,-0.198845 -0.84033,-0.242955 -0.2275,-0.03215 -0.45695,-0.0403 -0.68635,-0.03616 -0.0948,0.0016 -0.18912,0.01128 -0.28334,0.02098 -0.61889,0.06462 -0.52751,0.939861 0.0914,0.875245 v 0 c 0.0694,-0.0074 0.13896,-0.01504 0.20886,-0.01638 0.1809,-0.0038 0.36178,0.0021 0.54127,0.02694 0.20565,0.02875 0.4064,0.08081 0.59517,0.169216 0.25611,0.1198 0.5088,0.24766 0.74965,0.39619 0.26543,0.173191 0.51988,0.361095 0.74809,0.582199 0.24678,0.234921 0.47958,0.484598 0.66918,0.769033 0.17891,0.284767 0.33848,0.582535 0.44506,0.902684 0.0384,0.119792 0.0676,0.202579 0.0963,0.324555 0.0562,0.239704 0.0843,0.485634 0.10867,0.730154 0.0301,0.421592 0.0422,0.844967 -0.005,1.266129 -0.044,0.397744 -0.10366,0.795548 -0.23722,1.174629 -0.1084,0.313646 -0.22987,0.624098 -0.39206,0.914411 -0.0598,0.09985 -0.0558,0.09757 -0.11998,0.188532 -0.0328,0.04645 -0.0713,0.08749 -0.10496,0.132881 -0.002,0.0026 0.005,-0.0037 0.008,-0.0058 -0.47099,0.406643 0.10409,1.072731 0.5751,0.666087 z" />
  <path
     style="fill:#000000;fill-opacity:1;fill-rule:nonzero;stroke:none;stroke-width:0.264583"
     id="path16"
     d="m 23.167533,23.831336 c 1.96e-4,0.0013 -9e-6,0.0053 5.82e-4,0.0041 0.0084,-0.01727 0.02203,-0.17615 0.02448,-0.192267 0.02399,-0.157859 0.02706,-0.162385 0.06044,-0.330373 0.09733,-0.463027 0.227952,-0.917271 0.386601,-1.362745 0.136177,-0.36522 0.312286,-0.713359 0.514858,-1.045804 0.09441,-0.135307 0.193469,-0.273838 0.335772,-0.362904 0.05479,-0.03429 0.131171,-0.06562 0.188942,-0.09142 0.175233,-0.05873 0.36103,-0.113067 0.548234,-0.106074 0.02731,0.001 0.05418,0.0072 0.08128,0.01084 0.140984,0.02274 0.280734,0.0687 0.389339,0.165178 0.0157,0.01395 0.02773,0.03154 0.04159,0.04731 0.14373,0.177789 0.196956,0.399876 0.247366,0.617606 0.07236,0.346159 0.09425,0.700118 0.103713,1.052821 0.0061,0.322307 -0.0092,0.644385 -0.03626,0.965455 -0.01763,0.213876 -0.05004,0.426275 -0.08394,0.638082 -0.09813,0.614468 0.770861,0.753243 0.868989,0.138776 v 0 c 0.03722,-0.233551 0.0726,-0.467745 0.0919,-0.703568 0.02932,-0.353633 0.0463,-0.708325 0.03898,-1.063288 -0.01191,-0.412518 -0.03918,-0.826273 -0.126939,-1.23058 -0.03683,-0.153592 -0.05392,-0.242118 -0.106545,-0.391811 -0.08557,-0.243441 -0.212706,-0.469875 -0.388908,-0.659352 -0.04955,-0.04491 -0.09625,-0.09318 -0.148663,-0.134719 -0.234288,-0.185708 -0.524786,-0.279086 -0.817145,-0.318833 -0.06673,-0.0042 -0.133331,-0.01234 -0.200197,-0.01274 -0.300307,-0.0018 -0.596855,0.08135 -0.874743,0.187375 -0.149145,0.07131 -0.220731,0.09826 -0.359029,0.195701 -0.224138,0.157926 -0.396137,0.372788 -0.546002,0.599551 -0.232535,0.384385 -0.436343,0.785785 -0.591863,1.207965 -0.172161,0.486223 -0.315535,0.981529 -0.420678,1.486851 -0.04465,0.22771 -0.08904,0.456783 -0.102144,0.688894 0,0.622254 0.88,0.622254 0.88,0 z" />
  <path
     style="fill:#000000;fill-opacity:1;fill-rule:nonzero;stroke:none;stroke-width:0.264583"
     id="path22"
     d="m 24.60544,20.392375 c 0.0017,0.143236 -0.01528,0.285934 -0.02646,0.428566 -0.01941,0.268798 -0.04693,0.536801 -0.07839,0.804419 -0.03604,0.283321 -0.06572,0.56738 -0.09208,0.851747 -0.02161,0.232541 -0.03808,0.465513 -0.05168,0.698647 -0.01115,0.19964 -0.01885,0.39945 -0.02608,0.599264 -9.52e-4,0.02803 -0.0019,0.05607 -0.0028,0.0841 -0.02104,0.621898 0.85846,0.651648 0.879497,0.02975 v 0 c 9.26e-4,-0.02735 0.0019,-0.0547 0.0028,-0.08205 0.007,-0.19336 0.01442,-0.386718 0.02516,-0.579912 0.01296,-0.223116 0.02877,-0.446071 0.04942,-0.66862 0.02566,-0.277186 0.05467,-0.554059 0.08982,-0.830219 0.03277,-0.278908 0.0614,-0.558225 0.08172,-0.838351 0.01297,-0.165516 0.03156,-0.331103 0.02916,-0.497343 0,-0.622254 -0.88,-0.622254 -0.88,0 z" />
  <path
     style="fill:#000000;fill-opacity:1;fill-rule:nonzero;stroke:none;stroke-width:0.264583"
     id="path27"
     d="m 150.79332,17.041201 c 0.008,0.0091 0.0166,0.01859 0.0255,0.02726 0.002,0.0016 -0.002,-0.0039 -0.003,-0.0058 -0.005,-0.008 -0.0108,-0.01581 -0.0158,-0.02393 -0.0226,-0.03636 -0.0429,-0.07444 -0.064,-0.111671 -0.0968,-0.174521 -0.17795,-0.357118 -0.25576,-0.540689 -0.0961,-0.230511 -0.18511,-0.465541 -0.24961,-0.707145 -0.0139,-0.05195 -0.0249,-0.104621 -0.0374,-0.156931 -0.0654,-0.287302 -0.0873,-0.583267 -0.0673,-0.877222 0.004,-0.06016 0.0124,-0.119967 0.0186,-0.17995 0.009,-0.06065 0.0162,-0.121733 0.028,-0.181959 0.04,-0.20464 0.11788,-0.446203 0.22666,-0.624927 0.0255,-0.04195 0.0567,-0.08019 0.0851,-0.120292 0.034,-0.04195 0.0664,-0.08533 0.1021,-0.125847 0.12831,-0.145546 0.28138,-0.283491 0.44758,-0.384672 0.0326,-0.01987 0.0676,-0.03566 0.1014,-0.05348 0.0342,-0.01463 0.0673,-0.03233 0.1027,-0.04389 0.12853,-0.042 0.30334,-3.44e-4 0.43019,0.02835 0.23565,0.06436 0.42501,0.220355 0.60895,0.37376 0.21594,0.197601 0.42329,0.406479 0.60739,0.634449 0.0334,0.04132 0.065,0.08404 0.0974,0.126068 0.1762,0.23539 0.32285,0.490467 0.46478,0.747362 0.11451,0.204338 0.20761,0.419223 0.29997,0.634131 0.0701,0.167251 0.14414,0.332822 0.21482,0.499831 0.2426,0.573013 1.05296,0.22992 0.81036,-0.343093 v 0 c -0.0713,-0.168453 -0.14591,-0.335519 -0.21669,-0.504217 -0.10385,-0.241596 -0.20963,-0.482651 -0.33829,-0.712373 -0.1641,-0.296733 -0.33509,-0.590495 -0.53997,-0.861459 -0.0401,-0.05139 -0.0791,-0.103601 -0.12021,-0.154159 -0.21776,-0.267796 -0.46193,-0.513957 -0.71846,-0.744414 -0.12529,-0.103115 -0.18303,-0.155308 -0.31688,-0.246935 -0.20494,-0.140298 -0.42856,-0.250705 -0.67063,-0.309798 -0.0569,-0.0116 -0.11344,-0.0256 -0.17081,-0.03481 -0.12416,-0.01992 -0.26276,-0.03207 -0.38815,-0.0246 -0.2049,0.01221 -0.40102,0.07068 -0.58235,0.165676 -0.0591,0.03352 -0.11976,0.06429 -0.17717,0.100548 -0.23765,0.150078 -0.45187,0.346105 -0.63417,0.559275 -0.0504,0.05892 -0.0959,0.12184 -0.14384,0.18276 -0.0467,0.07138 -0.0976,0.140188 -0.14015,0.214148 -0.15297,0.266096 -0.25535,0.590946 -0.31184,0.89163 -0.0141,0.07524 -0.0224,0.151456 -0.0336,0.227183 -0.007,0.07941 -0.0174,0.158624 -0.0223,0.238229 -0.0232,0.37275 0.009,0.747709 0.0915,1.111671 0.0165,0.06719 0.0314,0.13478 0.0494,0.201562 0.0738,0.273157 0.17431,0.539038 0.28305,0.799888 0.0912,0.21392 0.18613,0.426764 0.2998,0.629898 0.0598,0.105466 0.11831,0.21332 0.20125,0.30283 0.44,0.44 1.06225,-0.182254 0.62226,-0.622254 z" />
  <path
     style="fill:#000000;fill-opacity:1;fill-rule:nonzero;stroke:none;stroke-width:0.264583"
     id="path28"
     d="m 150.49566,12.963766 c 0.0231,0.128485 0.0535,0.255165 0.0873,0.381205 0.0766,0.281346 0.1729,0.556596 0.26987,0.831386 0.0978,0.280884 0.20397,0.558573 0.32137,0.831819 0.11337,0.250537 0.23272,0.498306 0.35584,0.744175 0.09,0.176379 0.17607,0.354677 0.26425,0.531943 0.0551,0.110211 0.10849,0.221295 0.16359,0.331526 0.27822,0.556589 1.06536,0.16312 0.78713,-0.393469 v 0 c -0.0549,-0.109745 -0.10791,-0.220369 -0.16286,-0.330074 -0.0886,-0.177943 -0.17494,-0.356963 -0.26529,-0.534017 -0.11553,-0.230625 -0.22744,-0.463049 -0.33428,-0.697839 -0.10989,-0.255079 -0.20845,-0.514644 -0.29991,-0.776906 -0.0896,-0.254007 -0.17921,-0.508262 -0.25023,-0.768276 -0.0316,-0.115355 -0.0572,-0.23183 -0.0793,-0.349349 -0.13992,-0.606319 -0.99738,-0.408442 -0.85746,0.197876 z" />
</svg>
