<?xml version="1.0" encoding="UTF-8" standalone="no"?>
<svg
   id="svg2369"
   version="1.1"
   viewBox="0 0 161.95636 71.264923"
   height="71.264923mm"
   width="161.95636mm"
   sodipodi:docname="32 mije li toki e nimi..svg"
   inkscape:version="1.3 (0e150ed6c4, 2023-07-21)"
   xmlns:inkscape="http://www.inkscape.org/namespaces/inkscape"
   xmlns:sodipodi="http://sodipodi.sourceforge.net/DTD/sodipodi-0.dtd"
   xmlns="http://www.w3.org/2000/svg"
   xmlns:svg="http://www.w3.org/2000/svg"
   xmlns:rdf="http://www.w3.org/1999/02/22-rdf-syntax-ns#"
   xmlns:cc="http://creativecommons.org/ns#"
   xmlns:dc="http://purl.org/dc/elements/1.1/">
  <sodipodi:namedview
     id="namedview1"
     pagecolor="#ffffff"
     bordercolor="#000000"
     borderopacity="0.25"
     inkscape:showpageshadow="2"
     inkscape:pageopacity="0.0"
     inkscape:pagecheckerboard="0"
     inkscape:deskcolor="#d1d1d1"
     inkscape:document-units="mm"
     inkscape:zoom="1.0986697"
     inkscape:cx="349.05852"
     inkscape:cy="152.45711"
     inkscape:window-width="1920"
     inkscape:window-height="1051"
     inkscape:window-x="-9"
     inkscape:window-y="-9"
     inkscape:window-maximized="1"
     inkscape:current-layer="svg2369" />
  <defs
     id="defs2363" />
  <metadata
     id="metadata2366">
    <rdf:RDF>
      <cc:Work
         rdf:about="">
        <dc:format>image/svg+xml</dc:format>
        <dc:type
           rdf:resource="http://purl.org/dc/dcmitype/StillImage" />
        <dc:title />
      </cc:Work>
    </rdf:RDF>
  </metadata>
  <g
     transform="translate(-65.161863,-28.949654)"
     id="layer1">
    <g
       transform="matrix(-0.26458333,0,0,0.26458333,128.74899,24.157521)"
       id="g3721">
      <path
         style="opacity:0.2"
         d="m 64.8,232 c 19.4,-9.4 1.8,-21.9 -17.4,-25.3 -8.4,-1.5 -13.5,-14.9 -34.6,-1.6 -16.9,10.8 0,17.9 8.6,22 12,5.5 25.3,13.6 43.4,4.9 z"
         id="path3666" />
      <path
         style="fill:#fbd7c7"
         d="m 23.3,93.5 c 0,0 -2,9.7 -3.1,12.8 -1.2,3 -2,7.7 -1.5,11.1 0.5,3.4 2.1,10.4 2.7,11.5 0.7,1.1 3.2,3.6 4,4 0.8,0.4 2.4,-14.9 2.4,-14.9 z"
         id="path3668" />
      <path
         style="fill:#e5e5e5"
         d="m 19,108.7 4.1,2.2 1.6,-12 L 23.8,84 c 0,0 -2.3,5.6 -3.2,11.5 -0.9,5.8 -0.7,9.1 -0.7,9.1 z"
         id="path3670" />
      <path
         style="fill:#825012"
         d="m 27.2,201.6 c 0,0 2.2,2.9 6.2,2.3 4,-0.5 7.9,-2.1 7.9,-2.1 0,0 1.1,6.3 -0.7,7.9 -1.8,1.6 -8.5,1.9 -11.4,3.3 -2.9,1.4 -6.9,4.2 -11.2,4.5 -9.2,0.7 -7.8,-6.8 -3.6,-8.7 3.3,-1.4 6.7,-3 8.8,-4.2 2.1,-1.1 4,-3 4,-3 z"
         id="path3672" />
      <path
         style="opacity:0.4"
         d="m 41.6,207.4 c -2.7,1.3 -8.3,2.4 -11.1,3 -3.4,0.6 -9.7,5.7 -14.1,5.8 -3.1,0.1 -4.9,-1.3 -4.9,-4 -1,2.7 0.4,5.9 6.6,5.5 4.3,-0.3 8.3,-3.1 11.2,-4.5 2.9,-1.4 9.6,-1.6 11.4,-3.3 0.5,-0.6 0.7,-1.5 0.9,-2.5 z"
         id="path3674" />
      <path
         style="fill:#825012"
         d="m 53.9,214.6 c 0,0 2.4,2.1 5.7,1.7 3.3,-0.4 7.9,-3.8 8.2,-2.1 0.3,1.7 2,5.2 0.6,6.3 -1.4,1.1 -9.1,5.7 -10.4,7.1 -1.4,1.4 -5.6,4.8 -9.9,5.3 -4.8,0.5 -9.2,-1.3 -9.2,-4.8 0,-4.1 6.6,-6.9 9.4,-8.8 2.7,-2.1 5.6,-4.7 5.6,-4.7 z"
         id="path3676" />
      <path
         style="opacity:0.4"
         d="m 57.9,227.5 c 1.4,-1.4 9.1,-6 10.4,-7.1 0.7,-0.5 0.6,-1.6 0.4,-2.7 -2,1.7 -5.9,3.7 -9.5,5.9 -5.2,3.3 -6.2,7.4 -13.4,7.7 -5,0.2 -6.9,-2.2 -6.9,-4.6 -0.1,0.4 -0.2,0.8 -0.2,1.2 0,3.5 4.4,5.4 9.2,4.8 4.4,-0.4 8.6,-3.8 10,-5.2 z"
         id="path3678" />
      <path
         style="fill:#baa794"
         d="m 22.9,109.3 c -1,3.9 -0.6,15.3 0.2,21.4 0.8,6 1.7,19.1 3.2,31.7 1,8.5 -0.7,31.9 -1.9,37.4 -0.7,3.7 -3.4,6.2 1,7.7 4.8,1.7 10,2 15.1,0.5 2.2,-0.6 1.7,-2.8 1.8,-6.3 0.1,-4.7 1.5,-15.8 1.9,-19.9 0.4,-4.1 0.7,-9.4 0.9,-14 0.3,-4.6 1.7,-20.7 2.2,-24.4 0.5,-3.7 0.5,-32.6 0.5,-32.6 z"
         id="path3680" />
      <path
         style="opacity:0.2"
         d="m 22.9,109.3 c -1,3.9 -0.6,15.3 0.2,21.4 0.8,6 1.7,19.1 3.2,31.7 1,8.5 -0.7,31.9 -1.9,37.4 -0.7,3.7 -3.4,6.2 1,7.7 4.8,1.7 10,2 15.1,0.5 2.2,-0.6 1.7,-2.8 1.8,-6.3 0.1,-4.7 1.5,-15.8 1.9,-19.9 0.4,-4.1 0.7,-9.4 0.9,-14 0.3,-4.6 1.7,-20.7 2.2,-24.4 0.5,-3.7 0.5,-32.6 0.5,-32.6 z"
         id="path3682" />
      <path
         style="fill:#baa794"
         d="m 30.4,109.5 c 0,0 -1.5,8.2 2.2,12.8 3.7,4.6 8.6,6.7 8.5,9.9 -0.1,3.3 2.9,21.3 5,27.4 2.1,6.1 2.6,14.4 3.3,20.2 0.7,5.8 1.5,21.9 1.2,26.2 -0.3,5.6 -1.8,10.8 -2.2,12.8 -0.3,1.4 5,3.5 8.2,3.7 5.4,0.3 8.3,-1.5 10.4,-3 1.9,-1.3 1.8,-1.5 1.7,-4.6 -0.1,-3.1 -0.7,-31.8 -1.2,-39 -0.5,-7.2 2.4,-38.8 2.2,-45.2 -0.5,-11.6 -4.1,-22.1 -4.1,-22.1 z"
         id="path3684" />
      <path
         style="fill:#e5e5e5"
         d="m 49.1,46.1 c -8.4,-0.5 -15.3,-2.4 -18.2,2.4 -2.9,4.8 -2.7,7.9 -4.1,10.2 -1.4,2.3 -4.3,8.8 -4.2,13.4 0.1,4.6 1.4,7.3 0.8,9.9 -0.7,2.6 -1.5,11.7 -1.6,15.2 -0.2,6.8 -0.6,13.1 0.5,14.8 1.7,2.6 16.6,4.1 27.2,2.8 12,-1.4 19.9,-5.1 19.9,-6.2 0,-1.1 -4.7,-13.4 -5.5,-15 C 57.3,79.8 74,75.2 73.9,74.5 73.8,72.5 74.6,65.9 74.1,63 73.6,60.1 70,55.4 67.4,53 64.8,50.5 60.6,46.5 57.7,45.7 55,44.9 49.1,46.1 49.1,46.1 Z"
         id="path3686" />
      <path
         style="fill:#fbd7c7"
         d="m 58.1,78.2 c 0,0 5.2,0.4 9.1,-0.8 3.9,-1.2 6,-2.4 6,-2.4 0,0 1.3,12.9 2.3,15.6 1,2.7 0.9,7.3 -0.5,12.6 -1.4,5.3 -4.1,23.6 -4,26.4 0.1,2.8 -0.2,6.3 -0.7,8.3 -0.5,2 -1.9,5.8 -4.5,7.3 -3,1.7 -6.4,1.4 -7.6,0.4 -1.9,-1.5 1.9,-7.3 1.1,-8.1 -0.8,-0.8 -2.4,-0.6 -2.9,0.7 -0.5,1.3 -2.4,2.7 -3.4,2 -1,-0.7 0.2,-1.8 0.8,-2.9 0.6,-1.2 2,-3.9 3.4,-4.8 1.4,-0.9 4,-1.4 4.6,-3.8 0.6,-2.5 0,-13 0.6,-18.5 C 63,104.7 65.3,99.7 65.2,98.6 65.1,97.5 61.6,89.4 60,84.5 58.5,80.1 58.1,78.2 58.1,78.2 Z"
         id="path3688" />
      <path
         style="fill:#fbd7c7"
         d="m 35.5,24.5 c -2.8,4.3 -1.3,14.8 -0.9,17.5 0.4,2.6 1.1,5.4 3,6.2 1.9,0.7 3.6,1.5 3.6,2.7 0,1.2 -3,3.9 -1.7,4.7 1.3,0.8 8.5,0.9 14.5,-1.5 5.6,-2.3 7.2,-5 6.4,-6 -0.7,-0.9 -4.2,-2.9 -4.2,-5.9 0.1,-3.1 3.1,-7.8 3.2,-12.4 0.1,-9.1 -13.3,-14.6 -21.1,-8.3 -1,0.7 -2,1.7 -2.8,3 z"
         id="path3690" />
      <path
         style="fill:#999999"
         d="m 49.1,20.1 c 5.6,3.1 -3.8,6.8 -1.6,9 1.9,1.8 1.9,7.3 2.9,9 1.2,2.1 2.4,-2.3 3.5,-3.4 1,-1 2.8,-1.2 3.3,0.3 0.5,1.5 -0.4,3.7 -0.5,4.3 C 58.3,39 60.4,33.6 60,27.9 59.6,21.1 49.9,14.7 39.4,20.6 c -2.1,1.2 -2.8,2.5 -1.7,1.6 2,-1.6 7.9,-4.1 11.4,-2.1 z"
         id="path3692" />
      <path
         style="opacity:0.2"
         d="m 57.6,78.2 c 0,0 2.8,13.9 2.7,17.9 -0.1,4 -4.3,17.7 -4.3,17.7 l 9.9,-2.4 2.9,-15.8 z"
         id="path3694" />
      <path
         style="fill:#e5e5e5"
         d="m 61.2,120.9 c 0.2,1.6 0.6,5.3 0.6,5.3 l -0.8,3.3 c 0,0 5.2,-0.1 6.9,0.8 1.6,0.9 3.4,2.1 3.4,2.1 V 127 c 0,0 4.1,-14 5.2,-18.9 1.1,-4.8 0.3,-13.7 0.1,-15.3 C 76.3,91.2 74.4,73.2 74.4,70 74.4,66.8 74,63.5 74,63.5 L 54.5,70 c 0,0 7.2,18.5 7.9,23 0.7,4.6 -2.1,19.2 -1.2,27.9 z"
         id="path3696" />
    </g>
    <g
       transform="matrix(0.26458333,0,0,0.26458333,113.08567,17.648771)"
       id="g3628">
      <path
         style="fill:#fbd7c7"
         d="m 140,131.5 c 0,0 -1.6,3 -2.2,5.1 -0.6,2.1 -1.7,8.6 -1.6,9.7 0.1,1.1 4.1,8.4 5.8,9.2 1.7,0.8 2,-10.2 2,-10.2 l -0.5,-4.8 2.7,-5.6 z"
         id="path3572" />
      <path
         style="opacity:0.2"
         d="m 143.9,224.7 c -11.8,7.6 -12.4,14.4 0,21 13.5,7.2 22.4,3.3 32.9,-2.7 10.5,-6 11.8,-13.4 -3.6,-19.6 -12.5,-5 -20.4,-4.4 -29.3,1.3 z"
         id="path3574" />
      <path
         style="opacity:0.2"
         d="m 51,282.8 c -11.8,7.6 -32,14.4 -13.7,25.5 17.1,10.4 33.9,-3.4 46,-9.8 C 101,289 110.1,280.8 99.3,274 88.1,267.1 58,278.3 51,282.8 Z"
         id="path3576" />
      <path
         style="fill:#fbd7c7"
         d="m 141.5,142.8 c -0.4,3.3 -1.6,26.2 0,32.2 1.6,6 2.2,8.8 2.6,11 0.4,2.2 1.8,4.1 2.5,7.6 0.7,3.5 3.7,15.1 2.7,19.6 -0.9,4.6 -1.4,11.7 -4.5,15.6 -3,3.9 -8,6.8 -4.8,8 3.1,1.2 6.7,0.4 8.1,-0.5 1.4,-0.9 5.2,-6.5 8.4,-7.7 3.1,-1.2 6.3,-2.9 6,-6 -0.3,-3.1 -3.1,-3.8 -3.3,-7.6 -0.1,-3.8 4.5,-14.3 3.1,-21.3 -1.4,-7 -3.4,-10.5 -3.4,-10.5 l 2.4,-16.2 c 0,0 1.7,18.9 1.8,20.5 0.1,1.6 1,4.7 1,4.7 0,0 -0.3,8.1 0.3,12.7 0.6,4.6 3.8,13.2 2,20 -1.8,6.8 -1.4,8 -3.9,11.1 -2.5,3.1 -7.2,5.6 -3.8,7.3 3.4,1.7 7.3,2.5 9.9,-1.8 2.6,-4.3 5.5,-5.9 6.9,-7.2 1.4,-1.3 1.8,-2.2 0.8,-6.3 -1,-4.1 -1,-9.4 0.4,-13.6 1.4,-4.2 4.7,-15.4 4.8,-20.2 0.1,-4.7 -2.2,-9.4 -2.2,-9.4 0,0 4.3,-15.1 5.5,-26.8 1.2,-11.8 1,-20.4 -1,-25.5 -2,-5.2 -42.3,10.3 -42.3,10.3 z"
         id="path3578" />
      <path
         style="fill:#e5e5e5"
         d="m 164.8,230.2 c 0,0 1.6,1.7 4.2,1.8 3,0.1 6.1,-1.6 6.6,-2.9 0.7,-1.7 0.3,-4.3 0.3,-4.3 0,0 2.8,2.3 2.8,5.1 0,2.5 -1.8,5.5 -1.9,6.5 -0.1,1 0.1,3.5 0.1,3.5 l -1.8,1 -3,-1.4 c 0,0 -0.9,2.9 -2.9,4.4 -2,1.4 -6.8,4.2 -11.3,2.5 -4.5,-1.7 -2,-5.6 -0.9,-6.9 1.1,-1.3 5,-4 6,-5.9 1.2,-2.3 1.8,-3.4 1.8,-3.4 z"
         id="path3580" />
      <path
         style="fill:#e5e5e5"
         d="m 147,223 c 0,0 2.4,2.4 5.2,2.3 2.1,-0.1 5.3,-1.5 6.4,-3.4 0.9,-1.6 1.4,-4.6 1.4,-4.6 0,0 2.7,1.6 2.7,5.2 0,3.2 -2.3,6.3 -2.4,8.5 -0.1,2.2 0,1.3 0,1.3 l -2.4,1.2 -2.4,-1.2 c 0,0 0.8,-2.5 0,-2 -0.8,0.5 -3.3,4.2 -5.1,5.9 -1.8,1.7 -5.8,4 -9.4,2.9 -3.6,-1.1 -3.4,-4.8 -1.3,-6.6 1.8,-1.6 4.1,-2.8 5.4,-5.2 1.2,-2.3 1.9,-4.3 1.9,-4.3 z"
         id="path3582" />
      <g
         style="opacity:0.4"
         id="g3588">
        <path
           d="m 160.1,232.3 v 0 c 0,0.4 0,0 0,0 z"
           id="path3584" />
        <path
           d="m 162.6,222.5 c 0,0 0,-0.1 0,-0.1 -0.4,1.5 -1.2,2.5 -3.1,4 -2.2,1.8 -4,3.3 -6.1,5.8 -2.1,2.6 -6,6 -10.7,6 -2.7,0 -4.7,-1.9 -4.4,-3.8 -0.6,1.8 0.1,3.8 2.6,4.6 3.6,1.1 7.7,-1.2 9.4,-2.9 1.8,-1.7 4.3,-5.4 5.1,-5.9 0.8,-0.5 0,2 0,2 l 2.4,1.2 2.3,-1.2 c 0,-0.2 0,-0.6 0.1,-1.3 0.1,-2.1 2.4,-5.2 2.4,-8.4 z"
           id="path3586" />
      </g>
      <path
         style="opacity:0.4"
         d="m 169.3,243.9 c 2,-1.4 2.9,-4.4 2.9,-4.4 l 3,1.4 1.8,-1 c 0,0 -0.2,-2.5 -0.1,-3.5 0,-0.9 1.5,-3.3 1.8,-5.7 -0.2,0.4 -0.4,0.8 -0.7,1.2 -1.4,2.3 -3.7,3.4 -6.5,8.1 -2.6,4.5 -9.3,5.9 -12,5.4 -2.2,-0.4 -3.7,-1.3 -4,-2.7 -0.2,1.3 0.4,2.7 2.6,3.5 4.4,1.9 9.2,-0.9 11.2,-2.3 z"
         id="path3590" />
      <path
         style="fill:#06547a"
         d="m 140.6,142.1 c -0.3,2.1 -1.3,27.5 -0.3,33.8 2,12.5 5,17.6 6.7,29.8 0.3,2.5 0.6,7.7 0.6,7.7 0,0 5.5,0.6 8.1,0.4 4.2,-0.4 5.5,-0.8 5.5,-0.8 0,0 1.7,-6.7 1.8,-16.8 0,-3.7 -3.3,-13.2 -3.3,-13.2 l 1.6,-8.4 -3,-32.8 c -9.5,-0.2 -17.7,0.3 -17.7,0.3 z"
         id="path3592" />
      <path
         style="opacity:0.15"
         d="m 140.6,142.1 c -0.3,2.1 -1.3,27.5 -0.3,33.8 2,12.5 5,17.6 6.7,29.8 0.3,2.5 0.6,7.7 0.6,7.7 0,0 5.5,0.6 8.1,0.4 4.2,-0.4 5.5,-0.8 5.5,-0.8 0,0 1.7,-6.7 1.8,-16.8 0,-3.7 -3.3,-13.2 -3.3,-13.2 l 1.6,-8.4 -3,-32.8 c -9.5,-0.2 -17.7,0.3 -17.7,0.3 z"
         id="path3594" />
      <path
         style="fill:#06547a"
         d="m 165.1,220 c 0,0 3.5,1.1 6.8,0.9 4.7,-0.3 7.7,-1.9 7.7,-1.9 0.1,0.7 1.9,-14.1 2.6,-21.6 0.5,-5 -1.2,-9.8 -0.9,-12.4 0.3,-2.6 7.3,-29.1 6.3,-37.3 -0.6,-4.8 -43.1,-31.6 -40.5,-5.5 1.1,11.1 7.4,12 9.8,16.4 3.6,6.6 3.9,12.4 4.2,16 0.6,6.3 2.5,22.7 2.9,27 0.4,4.3 1.1,18.4 1.1,18.4 z"
         id="path3596" />
      <path
         style="fill:#993399"
         d="m 143,109.3 c 0,0 -1.9,8.4 -2.9,23.8 -0.1,2.3 0,5.7 -0.1,9.7 -0.1,6.6 11.1,10.9 22.5,11.6 12.5,0.8 25.4,-0.6 25.8,-6.8 1.1,-14.8 -9.3,-28.5 -10.6,-34.3 -1.3,-5.8 6.7,-8.6 6.7,-8.6 0,0 -2,-4.7 -1.5,-11.6 0.5,-6.9 -5.4,-9.9 -7.5,-11.3 -1.7,-1.2 -17.3,-8.4 -19.8,-9.1 -2.5,-0.7 -7.1,-0.9 -8.2,3.5 -1.2,4.5 0,9.2 -1.4,10.9 -1.4,1.7 -6.5,8.1 -6.3,12.4 0.1,4.4 3.3,9.8 3.3,9.8 z"
         id="path3598" />
      <path
         style="fill:#fbd7c7"
         d="m 158,47.1 c -5.3,3.5 -5.8,10.8 -5.6,15.8 0.2,5 0.3,9.1 2.2,10.8 1.9,1.7 2.1,2.4 2.3,3.6 0.2,1.2 -5.7,5.7 -0.6,8 5.1,2.2 6.9,-0.3 10.9,-2.1 4.3,-1.9 7.6,-1.6 7.6,-1.6 0,0 -2.6,-4.7 -2.4,-8.1 0.2,-3.3 1,-5.8 2.6,-9.3 1.6,-3.5 4.2,-12.7 -1.1,-16.4 -5.2,-3.5 -12.3,-3 -15.9,-0.7 z"
         id="path3600" />
      <path
         style="fill:#656565"
         d="m 171.4,45.4 c 0,0 -3.4,-4.2 -10.2,-2.1 -6.8,2.1 -8.2,7.9 -8.2,7.9 l 2.7,-1.8 -1.6,3.5 2.5,-2.1 c 0,0 -1.1,2.6 -1.1,2.5 0,-0.2 2.6,-2.1 2.6,-2.1 0,0 -1.8,4.6 -1.8,4.4 0.1,-0.2 6.5,-6.2 6.5,-6.2 l -3.4,7.2 1.6,-0.5 -1.5,7.3 1.5,-2.5 0.3,5.7 1.8,-6.2 1,4.3 1.1,-4.1 1.4,6.8 1.3,-3.5 0.9,3 1.8,-4.5 0.4,1.8 1.5,-2.7 0.2,1.6 1,-0.2 -2,7.5 1.9,-3.7 -0.6,6.3 3.1,-7.2 0.3,1.6 1.6,-6.7 0.3,3.2 0.6,-4.9 0.9,0.9 -0.7,-4.3 1,0.6 -1.9,-3.6 1.3,0.5 c 0,-0.2 -1.9,-8 -8.1,-7.7 z"
         id="path3602" />
      <path
         style="opacity:0.15"
         d="m 170.9,102.4 c 0,0 -6.7,8.3 -15.4,7.1 -9.2,-1.3 -2.7,-14.5 -2.7,-14.5 0,0 -8,14.1 -12.9,6.3 0.9,4 3.2,8 3.2,8 0,0 0,0 0,0 1.8,1.2 3.2,0.9 5.6,-2 1.8,12.4 21.9,6.1 24.9,3.3 -0.8,-2.7 -2.7,-8.2 -2.7,-8.2 z"
         id="path3604" />
      <path
         style="fill:#fbd7c7"
         d="m 186.2,120.6 c -0.7,-3.5 -2.2,-13.2 -2.9,-15.5 l -10.7,2.5 c 0.1,0.3 0.1,0.3 0.2,0.6 1,2.6 3.3,14.4 3.5,15.3 0.2,0.9 -2,3.3 -3,5.6 -2.7,6.1 -3.3,13.9 -3.7,15.5 -0.5,1.6 -1.6,2.9 -2.9,3.8 -1.3,0.9 -5.3,4.7 -5.7,5.8 -0.3,0.7 -1.3,4.8 -0.7,6.3 0.6,1.5 4.8,3 5.8,3 1,0 1,-1.4 1,-1.4 0,0 -1.1,-1.8 -1.2,-3.4 -0.1,-1.6 1.2,-2.7 4.3,-5 3.1,-2.3 3.4,-5.4 7,-11.1 3.6,-5.7 6.6,-9.9 7.8,-12.6 1.2,-2.9 1.5,-7.8 1.2,-9.4 z"
         id="path3606" />
      <path
         style="fill:#825012"
         d="m 71.6,263 c 0,0 7.4,1.9 7.4,4.1 0,1.1 0,4.8 0,5.8 0,1.9 -3.9,3.1 -3.9,5 0,2.4 4.8,3.9 6,3.5 1.3,-0.4 2.1,-1 2.1,-3.3 0,-2.3 0.8,-12.1 1.1,-15.1 0.3,-3 -0.9,-12.3 -0.9,-12.3 z"
         id="path3608" />
      <path
         style="opacity:0.2"
         d="m 71.6,263 c 0,0 7.4,1.9 7.4,4.1 0,1.1 0,4.8 0,5.8 0,1.9 -3.9,3.1 -3.9,5 0,2.4 4.8,3.9 6,3.5 1.3,-0.4 2.1,-1 2.1,-3.3 0,-2.3 0.8,-12.1 1.1,-15.1 0.3,-3 -0.9,-12.3 -0.9,-12.3 z"
         id="path3610" />
      <path
         style="fill:#825012"
         d="m 16,232.8 c 1.4,-0.5 6.6,-2.3 6.7,-3.3 0.1,-1 0,-2.6 1.2,-3.1 1.2,-0.6 2.3,-3.5 3.9,-3.8 1.6,-0.3 2.3,0.1 5.2,1 2.9,0.9 6.4,2.8 8.6,4.4 2.3,1.7 3.4,3.3 4.9,5.6 1.5,2.3 2,2.9 1.8,3.5 -0.2,0.6 -0.7,0.3 -0.3,1.2 0.5,1.4 0.8,3.1 2.5,3.5 5.9,1.6 19.6,-8 23.1,-9.1 8.4,-2.7 16.6,1.5 20.8,5 2.8,2.3 5.4,8.4 7.4,12.4 2,4 5.6,4.5 5.2,6.2 -0.2,0.7 -1.2,1.3 -3.4,0.4 -2.7,-1.1 -8.8,-7.8 -8.8,-7.8 0,0 0.8,2.5 -0.4,5.8 -1.2,3.3 -3.1,8.8 -1.5,10.6 1.7,1.8 3.9,3.7 4.1,5.6 0.2,1.9 1,15.2 1,15.8 0,0.6 -0.4,1.9 -1.7,2.3 -3.8,1.2 -8.4,-1.4 -7.8,-3.7 0.7,-2.4 3.3,-1.8 3.3,-5.2 0,-1.3 -0.3,-5 -0.6,-5.7 -0.3,-1 -1.4,-2 -2.7,-2.5 -1.1,-0.4 -6.1,-3.1 -7.1,-6.3 -1,-3.2 -1.5,-6.6 -3.1,-6.9 -1.6,-0.2 -7.3,9.1 -12,12.3 -4.7,3.2 -7.9,3.4 -7.9,3.4 0,0 -0.9,15.5 -0.9,18.5 0,3 2.1,6.2 2.5,8.1 0.4,2.1 0.8,5.6 -1.8,7.3 -3.1,2 -7,0.1 -7.9,-0.9 -0.8,-1 -1,-3.1 0.3,-4.3 1.3,-1.2 2.7,-2.3 2.3,-2.8 -0.4,-0.6 -2.1,-3.4 -2.4,-5.2 -0.4,-2.7 -0.8,-14.3 -4.1,-16.4 -1,-0.6 -3.4,-0.9 -4.1,0.1 -0.6,1 -0.6,7.2 -0.6,8.3 0,1.6 2.3,5 2.3,7.7 0,2.7 -1,4.2 -3.4,5.1 -1.9,0.6 -4.5,0.2 -6.4,-2.3 -1.2,-1.6 -0.3,-3.3 1,-4.1 0.8,-0.5 1.9,-0.7 2,-1.8 0.1,-1.1 -1.5,-2.7 -1.5,-4.7 0,-2 -0.8,-10 -0.8,-11 0,-3.2 -5.4,-6.3 -7.3,-13 -1,-3.3 -0.2,-7 -0.5,-9.8 -0.2,-1.7 -0.5,-9.2 -3.7,-9.9 -1.2,-0.3 -6.3,-0.2 -7.8,-1.8 -1.1,-1.2 -1.7,-2.7 -1.4,-4.6 0.8,-1.7 1.8,-4.1 1.8,-4.1 z"
         id="path3612" />
      <path
         style="fill:#262626"
         d="m 32.4,234.7 c 0,0 -0.6,-1.6 -2,-2.4 -1.3,-0.8 -2.7,0.7 -1,2 1.5,1.2 3,0.4 3,0.4 z"
         id="path3614" />
      <path
         style="fill:#262626"
         d="m 19.4,235.1 c 0.2,-1.5 -0.8,-2.2 -2.8,-2.7 -1.2,-0.2 -2.5,0.4 -2.5,1.9 0,2.1 1.8,3.7 1.8,3.7 0,0 3.2,0 3.5,-2.9 z"
         id="path3616" />
      <path
         style="fill:#262626"
         d="m 22.9,228 c 0,0 1,0.5 0.3,1.3 -0.8,0.9 -0.3,-1.3 -0.3,-1.3 z"
         id="path3618" />
      <path
         style="fill:#262626"
         d="m 166.7,159.5 -6.8,-1.5 c -0.3,-0.1 -0.5,-0.4 -0.5,-0.7 0.1,-0.3 0.4,-0.5 0.7,-0.4 l 4.7,1.1 -4.8,-2 c -0.3,-0.1 -0.5,-0.5 -0.3,-0.8 0.1,-0.3 0.5,-0.4 0.8,-0.3 l 6.6,2.7 z"
         id="path3620" />
      <path
         style="fill:#262626"
         d="m 49.1,241.2 c -0.2,0 -0.4,-0.1 -0.5,-0.3 -0.2,-0.3 -0.1,-0.6 0.2,-0.8 l 117.1,-81.8 c 0.3,-0.2 0.6,-0.1 0.8,0.1 0.2,0.3 0.1,0.6 -0.2,0.8 L 49.4,241.1 c -0.1,0.1 -0.2,0.1 -0.3,0.1 z"
         id="path3622" />
      <path
         style="fill:#262626"
         d="m 26.8,248.6 c 0,0 2.4,1.3 6.1,1.4 3.7,0 7,-1.5 8.8,-3.3 1.8,-1.8 6.7,-7.1 6.7,-7.1 l 1.7,1.8 c 0,0 -5.8,7.4 -8.3,8.9 -2.5,1.5 -5.2,2.8 -9,2.7 -3.8,-0.1 -5.5,-1.2 -5.5,-1.2 z"
         id="path3624" />
      <path
         style="opacity:0.2"
         d="m 36.9,233.2 c 0,0 -4.1,15.3 0.6,15.2 2.4,-0.1 10.2,-10.9 10.2,-10.9 0,0 -4.6,13.7 -11.1,13.7 -6.4,0.1 0.3,-18 0.3,-18 z"
         id="path3626" />
    </g>
  </g>
  <path
     d="M 18.945723,42.533522 C 8.482571,42.533522 0,37.233881 0,30.697435 0,24.16054 8.482571,18.8609 18.945723,18.8609 c 3.280679,0 6.365794,0.521232 9.056291,1.437418 5.31015,-1.793862 12.560471,-5.183215 12.560471,-5.183215 0,0 -4.727451,2.401966 -6.676601,5.318897 -0.497889,0.745576 -0.789738,1.526977 -0.956366,2.277927 3.081124,2.104631 4.962426,4.907821 4.962426,7.985508 0,6.536446 -8.482571,11.836087 -18.946221,11.836087"
     fill="#dddddd"
     id="path1"
     style="stroke-width:0.472651" />
  <g
     id="g5"
     transform="translate(43.196127)">
    <path
       style="fill:#000000;fill-opacity:1;fill-rule:nonzero;stroke:none;stroke-width:0.264583"
       id="path2"
       d="m -32.595503,27.56996 c -0.161685,-0.07117 -0.336982,-0.119237 -0.514596,-0.123616 -0.07146,-0.0019 -0.142854,0.0055 -0.214281,0.0083 -0.458084,0.06519 -0.886915,0.262742 -1.280094,0.501137 -0.09509,0.05766 -0.186169,0.121676 -0.279254,0.182515 -0.412541,0.310367 -0.831742,0.630801 -1.159587,1.034108 -0.05942,0.07309 -0.111673,0.151714 -0.167508,0.227573 -0.09812,0.185468 -0.205536,0.343038 -0.220004,0.562184 -0.01934,0.293121 0.046,0.495626 0.202547,0.739294 0.16455,0.256124 0.320799,0.358256 0.550071,0.552267 0.633302,0.425365 1.349693,0.727858 2.103231,0.859089 0.17135,0.02984 0.34517,0.04315 0.517753,0.06473 0.178752,0.0074 0.357354,0.02336 0.536257,0.02228 0.851961,-0.0051 1.707121,-0.159075 2.529311,-0.372737 0.254085,-0.06603 0.504764,-0.144531 0.757145,-0.2168 1.673778,-0.528243 3.320131,-1.138666 4.964088,-1.752174 1.325238,-0.499401 2.648952,-1.002826 3.97453,-1.50133 0.809497,-0.302596 1.62109,-0.599654 2.4361,-0.887092 0.55083,-0.195019 1.104128,-0.382905 1.657278,-0.571199 0.279951,-0.09283 0.142096,-0.04675 0.413583,-0.138162 0.589719,-0.19857 0.308897,-1.03256 -0.280823,-0.833989 v 0 c -0.269866,0.09088 -0.131096,0.04448 -0.416343,0.139097 -0.556192,0.189344 -1.112542,0.378254 -1.666401,0.574358 -0.820705,0.289481 -1.637998,0.588566 -2.453151,0.893307 -1.324888,0.498245 -2.647916,1.001395 -3.972457,1.500553 -1.622652,0.605573 -3.247635,1.208085 -4.899291,1.730817 -0.237533,0.06842 -0.473451,0.142705 -0.712592,0.205256 -0.745892,0.195103 -1.523444,0.341309 -2.296824,0.350758 -0.15503,0.0019 -0.309888,-0.01106 -0.464831,-0.01659 -0.144031,-0.0167 -0.289046,-0.02638 -0.432096,-0.05006 -0.618747,-0.102412 -1.207418,-0.345432 -1.735614,-0.679887 -0.06765,-0.05317 -0.138329,-0.102706 -0.202951,-0.15952 -0.258501,-0.227264 -0.03793,-0.05253 -0.207074,-0.22284 -0.01273,-0.01281 -0.03974,-0.01402 -0.04398,-0.03156 -0.01889,-0.07818 0.04797,-0.184737 0.07495,-0.243467 0.03829,-0.05394 0.07378,-0.109982 0.114858,-0.161832 0.274349,-0.346303 0.637442,-0.613236 0.983821,-0.881494 0.34725,-0.230828 0.715656,-0.453535 1.12875,-0.540218 0.09602,-0.01117 0.193685,-0.01156 0.281926,0.02405 0.556562,0.278281 0.950109,-0.508814 0.39355,-0.787095 z" />
    <path
       style="fill:#000000;fill-opacity:1;fill-rule:nonzero;stroke:none;stroke-width:0.264583"
       id="path4"
       d="m -16.118808,26.877257 c 0.134049,0.390472 0.288306,0.773923 0.439561,1.157981 0.313349,0.777476 0.607739,1.562259 0.898478,2.348397 0.265858,0.728271 0.525573,1.458793 0.782675,2.190197 0.197713,0.553524 0.388983,1.109392 0.596833,1.659223 0.148158,0.385127 0.287519,0.773597 0.43716,1.158147 0.225795,0.57984 1.045815,0.260517 0.82002,-0.319323 v 0 c -0.148787,-0.381793 -0.286718,-0.767738 -0.43407,-1.150093 -0.205545,-0.543333 -0.394176,-1.092832 -0.589747,-1.639798 -0.258701,-0.735877 -0.519969,-1.47089 -0.78751,-2.203606 -0.292887,-0.791903 -0.589456,-1.582438 -0.90506,-2.365637 -0.143513,-0.364328 -0.289477,-0.728178 -0.418398,-1.09797 -0.185603,-0.59393 -1.025545,-0.331446 -0.839942,0.262482 z" />
    <path
       style="fill:#000000;fill-opacity:1;fill-rule:nonzero;stroke:none;stroke-width:0.264583"
       id="path5"
       d="m -16.319389,26.280613 c -0.196435,0.151935 -0.36322,0.337508 -0.522196,0.527114 -0.232131,0.267367 -0.376355,0.587743 -0.500691,0.915244 -0.137116,0.375767 -0.229256,0.764537 -0.296089,1.158227 -0.06445,0.419378 -0.09866,0.842801 -0.116107,1.266528 -0.02218,0.388303 0.01161,0.775314 0.0621,1.159923 0.03952,0.259326 0.0901,0.51916 0.174805,0.768078 0.06408,0.188312 0.09391,0.241374 0.176775,0.422637 0.219257,0.449935 0.532556,0.842341 0.858969,1.218086 0.288909,0.3283 0.606697,0.627968 0.949436,0.898999 0.298564,0.228261 0.621614,0.42147 0.953252,0.597122 0.283131,0.147508 0.580529,0.262893 0.885351,0.356254 0.324845,0.09267 0.661493,0.101081 0.996475,0.09146 0.04514,-0.0019 0.09028,-0.0039 0.135423,-0.0059 0.62165,-0.02741 0.582893,-0.906553 -0.03876,-0.879147 v 0 c -0.04098,0.0019 -0.08195,0.0037 -0.122927,0.0055 -0.239571,0.0075 -0.480816,0.0084 -0.714409,-0.05386 -0.251575,-0.07563 -0.4962,-0.171802 -0.729954,-0.292272 -0.285038,-0.150281 -0.562764,-0.31565 -0.819989,-0.510447 -0.300722,-0.235644 -0.576807,-0.499528 -0.830288,-0.785596 -0.272585,-0.312081 -0.536873,-0.636786 -0.72367,-1.009115 -0.05395,-0.115263 -0.09111,-0.186397 -0.132454,-0.305375 -0.07103,-0.204393 -0.112764,-0.418351 -0.145622,-0.63165 -0.04454,-0.334616 -0.07524,-0.67124 -0.05523,-1.009197 0.01521,-0.386768 0.04706,-0.773221 0.104652,-1.156129 0.05605,-0.33763 0.13545,-0.670647 0.251506,-0.993164 0.08852,-0.235908 0.184683,-0.470104 0.353005,-0.66222 0.110505,-0.133136 0.225796,-0.262837 0.358123,-0.374957 0.506349,-0.361678 -0.0051,-1.077764 -0.511489,-0.716087 z" />
  </g>
  <path
     style="fill:#000000;fill-opacity:1;fill-rule:nonzero;stroke:none;stroke-width:0.264583"
     id="path8"
     d="m 138.61477,45.847305 c -0.31769,0.319815 -0.64034,0.634603 -0.96513,0.947198 -0.57541,0.527158 -1.1893,1.010464 -1.79675,1.499769 -0.69118,0.556379 -1.40231,1.086988 -2.12859,1.596472 -0.59364,0.438079 -1.24617,0.774033 -1.93301,1.037685 -0.39439,0.124418 -0.80638,0.202102 -1.22132,0.198853 -0.23605,-0.0019 -0.31848,-0.02394 -0.54984,-0.061 -0.178,-0.04843 -0.3206,-0.07763 -0.48684,-0.160379 -0.3037,-0.151175 -0.53657,-0.412129 -0.75295,-0.664792 -0.37398,-0.454433 -0.49283,-0.90051 -0.55939,-1.472796 -0.0112,-0.239326 -0.0275,-0.489376 0.0495,-0.721336 0.0642,-0.193471 0.19756,-0.344852 0.33364,-0.489627 0.33044,-0.288589 0.7277,-0.510646 1.15082,-0.631301 0.0906,-0.02585 0.18356,-0.04256 0.27534,-0.06384 0.60525,-0.09804 1.21761,0.0055 1.8096,0.136533 0.61949,0.154911 1.19903,0.425241 1.76386,0.717134 0.63932,0.331452 1.23232,0.742072 1.81779,1.159045 0.55944,0.396883 1.09709,0.822364 1.62636,1.258271 0.42996,0.353546 0.84782,0.721328 1.26828,1.086008 0.31432,0.271569 0.61403,0.559226 0.91859,0.841529 0.15064,0.145941 0.0741,0.07281 0.22961,0.219355 0.45292,0.426691 1.05635,-0.213836 0.60343,-0.640524 v 0 c -0.15161,-0.142759 -0.0733,-0.06808 -0.23485,-0.224253 -0.31168,-0.28884 -0.61842,-0.583144 -0.94019,-0.860896 -0.42613,-0.369583 -0.84967,-0.742267 -1.28547,-1.100532 -0.54521,-0.448918 -1.09915,-0.887002 -1.67536,-1.295828 -0.61967,-0.441058 -1.248,-0.874144 -1.92482,-1.224283 -0.63331,-0.326038 -1.28385,-0.625597 -1.9791,-0.794681 -0.72293,-0.15665 -1.46712,-0.270836 -2.20332,-0.132522 -0.12027,0.02967 -0.24219,0.05327 -0.36079,0.08901 -0.5657,0.170437 -1.0912,0.473864 -1.51956,0.879467 -0.1988,0.233649 -0.27078,0.287531 -0.40461,0.563655 -0.20419,0.421304 -0.23336,0.8772 -0.19214,1.33699 0.0148,0.115462 0.0243,0.231714 0.0444,0.346382 0.10292,0.589267 0.33981,1.135425 0.72411,1.596134 0.076,0.08657 0.14806,0.176807 0.22806,0.259722 0.4457,0.461955 0.9128,0.730994 1.5434,0.858304 0.11865,0.01741 0.23659,0.04066 0.35596,0.05221 0.63105,0.06103 1.26524,-0.04483 1.86493,-0.239104 0.12267,-0.04763 0.24674,-0.09182 0.36802,-0.142896 0.62176,-0.261858 1.20405,-0.605187 1.7534,-0.995336 0.74206,-0.520833 1.46893,-1.062834 2.17516,-1.631511 0.62758,-0.505537 1.26176,-1.00497 1.85496,-1.551049 0.34285,-0.329993 0.6846,-0.661384 1.01715,-1.001749 0.40976,-0.468294 -0.25251,-1.047779 -0.66226,-0.579485 z" />
  <path
     style="fill:#000000;fill-opacity:1;fill-rule:nonzero;stroke:none;stroke-width:0.264583"
     id="path9"
     d="m 135.89175,48.93214 c 0.19019,0.04033 0.38509,0.05494 0.57817,0.0757 0.42443,0.04278 0.85056,0.06415 1.27659,0.08299 0.53839,0.02262 1.07715,0.03401 1.61589,0.04445 0.61155,0.01169 1.22329,0.0049 1.8349,0.0019 0.71749,-0.0038 1.43499,-0.0061 2.1525,-0.0081 0.71385,-0.0019 1.4277,-0.0032 2.14155,-0.0044 0.72392,-0.0011 1.44784,-0.0016 2.17176,-0.0021 0.77716,2.65e-4 1.55428,7.94e-4 2.33139,-0.0081 0.76205,-0.01035 1.52412,-0.01868 2.28622,-0.02532 0.817,-0.0069 1.63402,-0.01095 2.45105,-0.01431 0.99101,-0.0037 1.98203,-0.0055 2.97305,-0.0073 0.98962,-0.0016 1.97925,-0.0027 2.96887,-0.0037 0.55404,-5.3e-4 0.28192,-2.65e-4 0.81638,-7.94e-4 0.62225,-5.29e-4 0.62145,-0.880568 -7.9e-4,-0.879999 v 0 c -0.53452,5.29e-4 -0.26237,2.33e-4 -0.81646,7.94e-4 -0.98984,0.0011 -1.97969,0.0021 -2.96954,0.0037 -0.99172,0.0019 -1.98344,0.0037 -2.97515,0.0073 -0.81837,0.0034 -1.63673,0.0075 -2.45507,0.01434 -0.76288,0.0066 -1.52574,0.01497 -2.28858,0.02532 -0.77398,0.0088 -1.54797,0.0083 -2.32199,0.0081 -0.72418,5.29e-4 -1.44836,0.0011 -2.17253,0.0021 -0.7142,0.0011 -1.4284,0.0024 -2.1426,0.0044 -0.71816,0.0021 -1.43633,0.0043 -2.15449,0.0081 -0.60445,0.003 -1.20903,0.0098 -1.81342,-0.0016 -0.53147,-0.01029 -1.06297,-0.02151 -1.5941,-0.04376 -0.40761,-0.01799 -0.81532,-0.0382 -1.22142,-0.07881 -0.15301,-0.0164 -0.30692,-0.02953 -0.45874,-0.05446 -0.60368,-0.150921 -0.81711,0.702804 -0.21343,0.853723 z" />
  <path
     style="fill:#000000;fill-opacity:1;fill-rule:nonzero;stroke:none;stroke-width:0.264583"
     d="m 147.75707,30.654635 c 0.0403,1.018712 0.0414,1.249722 0.0916,2.267995 0.0706,1.396351 0.15313,2.792031 0.22513,4.188303 0.0837,1.5703 0.17764,3.140189 0.23046,4.711946 0.0316,1.256732 0.0576,2.513764 0.0551,3.770966 v 2.310847 0.815703 c 0,0.622252 0.88,0.622252 0.88,0 l -5e-5,2e-6 v -0.815703 -2.310847 c 0.003,-1.264584 -0.0235,-2.528998 -0.0553,-3.793111 -0.0529,-1.579997 -0.14731,-3.158109 -0.23142,-4.736629 -0.0719,-1.395471 -0.15447,-2.790349 -0.22501,-4.185899 -0.0501,-1.015048 -0.0511,-1.242832 -0.0912,-2.25832"
     id="path15" />
  <path
     style="fill:#ff4400;fill-opacity:1;fill-rule:nonzero;stroke:none;stroke-width:0.264583"
     d="m 148.63642,30.619888 c -0.0273,-0.686461 -0.0913,-2.160699 -0.11057,-2.847425 -0.007,-0.265382 -0.0137,-0.530786 -0.0201,-0.796192 -0.0149,-0.622076 -0.8946,-0.601065 -0.87975,0.02101 v 0 c 0.006,0.26662 0.0128,0.533238 0.0202,0.799834 0.0194,0.690092 0.0835,2.167695 0.11087,2.85752"
     id="path10" />
  <path
     style="fill:#000000;fill-opacity:1;fill-rule:nonzero;stroke:none;stroke-width:0.264583"
     id="path11"
     d="m 159.0615,48.138493 c -0.23176,-0.207981 -0.45048,-0.429657 -0.67136,-0.648959 -0.55408,-0.537591 -1.10141,-1.082019 -1.64783,-1.627375 -0.68044,-0.690873 -1.36267,-1.37998 -2.04316,-2.070799 -0.5214,-0.528817 -1.03061,-1.069319 -1.5307,-1.618266 -0.36096,-0.397385 -0.71324,-0.802489 -1.07503,-1.199112 -0.283,-0.313799 -0.58384,-0.610672 -0.88552,-0.906312 -0.25233,-0.248597 -0.49927,-0.502648 -0.74505,-0.757701 -0.18009,-0.187436 -0.35967,-0.375314 -0.54171,-0.560861 -0.14253,-0.143764 -0.28704,-0.28557 -0.43539,-0.423325 -0.0978,-0.09058 -0.19394,-0.183026 -0.28848,-0.277029 -0.44144,-0.438547 -1.06164,0.185756 -0.6202,0.624302 v 0 c 0.10173,0.100976 0.20492,0.200486 0.31014,0.297826 0.13837,0.12827 0.27281,0.260681 0.40578,0.394528 0.18021,0.183669 0.35794,0.369684 0.53622,0.55522 0.25163,0.261081 0.50442,0.521137 0.76278,0.775576 0.28997,0.28412 0.57935,0.569235 0.85131,0.870866 0.36171,0.396435 0.71367,0.801571 1.07464,1.198684 0.50784,0.557358 1.02485,1.106212 1.55429,1.643155 0.68225,0.692592 1.36621,1.383493 2.04844,2.076106 0.54696,0.545899 1.0948,1.090901 1.64946,1.629002 0.22707,0.225444 0.45205,0.4532 0.69019,0.667113 0.45441,0.425098 1.05559,-0.217541 0.60118,-0.642639 z" />
  <path
     style="fill:#ff4400;fill-opacity:1;fill-rule:nonzero;stroke:none;stroke-width:0.264583"
     id="path12"
     d="m 148.12719,27.293445 c 0.23683,-0.0082 0.47385,-0.0096 0.71079,-0.01193 0.47574,-0.0042 0.95149,-0.0061 1.42724,-0.0078 0.68985,-0.0022 1.3797,-0.0031 2.06955,-0.004 0.66656,-8.21e-4 1.33312,-0.0015 1.99967,-0.002 0.50041,-3.97e-4 1.00083,-7.15e-4 1.50123,-10e-4 0.32876,-1.9e-4 0.65752,-3.7e-4 0.98628,-5.02e-4 0.22987,-1.04e-4 0.45974,-1.84e-4 0.68961,-2.58e-4 0.17338,-5.7e-5 0.34675,-9.6e-5 0.52012,-1.3e-4 0.14963,-2.9e-5 0.29925,-4.9e-5 0.44888,-6.6e-5 0.12223,-1.4e-5 0.24446,-2.4e-5 0.36669,-3.3e-5 0.0186,-1e-6 0.0371,-2e-6 0.0557,-4e-6 0.62225,-4e-5 0.62219,-0.88004 -6e-5,-0.88 v 0 c -0.0186,2e-6 -0.0371,3e-6 -0.0557,4e-6 -0.12224,9e-6 -0.24449,1.9e-5 -0.36673,3.3e-5 -0.14965,1.7e-5 -0.2993,3.7e-5 -0.44895,6.6e-5 -0.17341,3.4e-5 -0.34682,7.3e-5 -0.52023,1.3e-4 -0.22991,7.4e-5 -0.45983,1.54e-4 -0.68974,2.58e-4 -0.32879,1.51e-4 -0.65759,3.17e-4 -0.98639,5.02e-4 -0.50048,2.91e-4 -1.00096,6.09e-4 -1.50144,0.001 -0.66669,5.55e-4 -1.33339,0.0012 -2.00008,0.002 -0.69053,8.99e-4 -1.38106,0.0017 -2.07159,0.004 -0.47761,0.0017 -0.95522,0.0037 -1.43281,0.0079 -0.25232,0.0025 -0.50477,0.0037 -0.75693,0.0136 -0.62104,0.03881 -0.56615,0.917101 0.0549,0.878286 z" />
  <path
     style="fill:#ff4400;fill-opacity:1;fill-rule:nonzero;stroke:none;stroke-width:0.264583"
     id="path13"
     d="m 147.76092,27.12451 c 0.0243,0.192295 0.0762,0.379976 0.13055,0.565603 0.0711,0.225131 0.17317,0.440582 0.31806,0.628071 0.0357,0.04613 0.0753,0.08903 0.11293,0.133552 0.24576,0.26556 0.55865,0.442732 0.8819,0.595746 0.21679,0.0975 0.44437,0.171696 0.68066,0.203134 0.1427,0.01899 0.20942,0.01655 0.34993,0.01923 0.26628,-0.01196 0.53529,-0.05644 0.78059,-0.164872 0.0486,-0.02146 0.0948,-0.0478 0.14219,-0.0717 0.29578,-0.174143 0.49391,-0.453467 0.67365,-0.737665 0.13927,-0.219842 0.23454,-0.46128 0.31686,-0.706892 0.0566,-0.174459 0.10265,-0.352007 0.14174,-0.531116 0.005,-0.02662 0.0105,-0.05324 0.0158,-0.07985 0.12014,-0.610546 -0.7433,-0.780448 -0.86344,-0.169902 v 0 c -0.004,0.02105 -0.008,0.0421 -0.0123,0.06316 -0.0319,0.148089 -0.0703,0.294712 -0.11646,0.439041 -0.0595,0.179181 -0.12554,0.356448 -0.22701,0.516966 -0.0953,0.152507 -0.19378,0.311633 -0.33518,0.425717 -0.0451,0.02512 -0.0811,0.04764 -0.12993,0.06508 -0.11979,0.04278 -0.24818,0.06139 -0.37424,0.07212 -0.0689,-4.23e-4 -0.14426,9.79e-4 -0.21302,-0.0066 -0.15848,-0.01746 -0.31018,-0.06742 -0.45522,-0.132162 -0.21253,-0.09916 -0.42305,-0.20785 -0.59104,-0.375304 -0.11482,-0.126941 -0.20418,-0.267966 -0.25213,-0.433932 -0.0393,-0.133215 -0.0774,-0.267664 -0.0992,-0.404999 -0.0619,-0.619166 -0.93755,-0.531603 -0.87563,0.08756 z" />
</svg>
