<?xml version="1.0" encoding="UTF-8" standalone="no"?>
<svg
   id="svg2369"
   version="1.1"
   viewBox="0 0 183.19007 71.264923"
   height="71.264923mm"
   width="183.19006mm"
   sodipodi:docname="33 meli li toki e nimi mute..svg"
   inkscape:version="1.3 (0e150ed6c4, 2023-07-21)"
   xmlns:inkscape="http://www.inkscape.org/namespaces/inkscape"
   xmlns:sodipodi="http://sodipodi.sourceforge.net/DTD/sodipodi-0.dtd"
   xmlns="http://www.w3.org/2000/svg"
   xmlns:svg="http://www.w3.org/2000/svg"
   xmlns:rdf="http://www.w3.org/1999/02/22-rdf-syntax-ns#"
   xmlns:cc="http://creativecommons.org/ns#"
   xmlns:dc="http://purl.org/dc/elements/1.1/">
  <sodipodi:namedview
     id="namedview1"
     pagecolor="#ffffff"
     bordercolor="#000000"
     borderopacity="0.25"
     inkscape:showpageshadow="2"
     inkscape:pageopacity="0.0"
     inkscape:pagecheckerboard="0"
     inkscape:deskcolor="#d1d1d1"
     inkscape:document-units="mm"
     inkscape:zoom="1.0986697"
     inkscape:cx="382.73561"
     inkscape:cy="119.69021"
     inkscape:window-width="1920"
     inkscape:window-height="1051"
     inkscape:window-x="-9"
     inkscape:window-y="-9"
     inkscape:window-maximized="1"
     inkscape:current-layer="svg2369" />
  <defs
     id="defs2363" />
  <metadata
     id="metadata2366">
    <rdf:RDF>
      <cc:Work
         rdf:about="">
        <dc:format>image/svg+xml</dc:format>
        <dc:type
           rdf:resource="http://purl.org/dc/dcmitype/StillImage" />
        <dc:title />
      </cc:Work>
    </rdf:RDF>
  </metadata>
  <g
     transform="translate(-108.35799,-28.949654)"
     id="layer1">
    <g
       transform="matrix(-0.26458333,0,0,0.26458333,128.74899,24.157521)"
       id="g3721">
      <path
         style="opacity:0.2"
         d="m 64.8,232 c 19.4,-9.4 1.8,-21.9 -17.4,-25.3 -8.4,-1.5 -13.5,-14.9 -34.6,-1.6 -16.9,10.8 0,17.9 8.6,22 12,5.5 25.3,13.6 43.4,4.9 z"
         id="path3666" />
      <path
         style="fill:#fbd7c7"
         d="m 23.3,93.5 c 0,0 -2,9.7 -3.1,12.8 -1.2,3 -2,7.7 -1.5,11.1 0.5,3.4 2.1,10.4 2.7,11.5 0.7,1.1 3.2,3.6 4,4 0.8,0.4 2.4,-14.9 2.4,-14.9 z"
         id="path3668" />
      <path
         style="fill:#e5e5e5"
         d="m 19,108.7 4.1,2.2 1.6,-12 L 23.8,84 c 0,0 -2.3,5.6 -3.2,11.5 -0.9,5.8 -0.7,9.1 -0.7,9.1 z"
         id="path3670" />
      <path
         style="fill:#825012"
         d="m 27.2,201.6 c 0,0 2.2,2.9 6.2,2.3 4,-0.5 7.9,-2.1 7.9,-2.1 0,0 1.1,6.3 -0.7,7.9 -1.8,1.6 -8.5,1.9 -11.4,3.3 -2.9,1.4 -6.9,4.2 -11.2,4.5 -9.2,0.7 -7.8,-6.8 -3.6,-8.7 3.3,-1.4 6.7,-3 8.8,-4.2 2.1,-1.1 4,-3 4,-3 z"
         id="path3672" />
      <path
         style="opacity:0.4"
         d="m 41.6,207.4 c -2.7,1.3 -8.3,2.4 -11.1,3 -3.4,0.6 -9.7,5.7 -14.1,5.8 -3.1,0.1 -4.9,-1.3 -4.9,-4 -1,2.7 0.4,5.9 6.6,5.5 4.3,-0.3 8.3,-3.1 11.2,-4.5 2.9,-1.4 9.6,-1.6 11.4,-3.3 0.5,-0.6 0.7,-1.5 0.9,-2.5 z"
         id="path3674" />
      <path
         style="fill:#825012"
         d="m 53.9,214.6 c 0,0 2.4,2.1 5.7,1.7 3.3,-0.4 7.9,-3.8 8.2,-2.1 0.3,1.7 2,5.2 0.6,6.3 -1.4,1.1 -9.1,5.7 -10.4,7.1 -1.4,1.4 -5.6,4.8 -9.9,5.3 -4.8,0.5 -9.2,-1.3 -9.2,-4.8 0,-4.1 6.6,-6.9 9.4,-8.8 2.7,-2.1 5.6,-4.7 5.6,-4.7 z"
         id="path3676" />
      <path
         style="opacity:0.4"
         d="m 57.9,227.5 c 1.4,-1.4 9.1,-6 10.4,-7.1 0.7,-0.5 0.6,-1.6 0.4,-2.7 -2,1.7 -5.9,3.7 -9.5,5.9 -5.2,3.3 -6.2,7.4 -13.4,7.7 -5,0.2 -6.9,-2.2 -6.9,-4.6 -0.1,0.4 -0.2,0.8 -0.2,1.2 0,3.5 4.4,5.4 9.2,4.8 4.4,-0.4 8.6,-3.8 10,-5.2 z"
         id="path3678" />
      <path
         style="fill:#baa794"
         d="m 22.9,109.3 c -1,3.9 -0.6,15.3 0.2,21.4 0.8,6 1.7,19.1 3.2,31.7 1,8.5 -0.7,31.9 -1.9,37.4 -0.7,3.7 -3.4,6.2 1,7.7 4.8,1.7 10,2 15.1,0.5 2.2,-0.6 1.7,-2.8 1.8,-6.3 0.1,-4.7 1.5,-15.8 1.9,-19.9 0.4,-4.1 0.7,-9.4 0.9,-14 0.3,-4.6 1.7,-20.7 2.2,-24.4 0.5,-3.7 0.5,-32.6 0.5,-32.6 z"
         id="path3680" />
      <path
         style="opacity:0.2"
         d="m 22.9,109.3 c -1,3.9 -0.6,15.3 0.2,21.4 0.8,6 1.7,19.1 3.2,31.7 1,8.5 -0.7,31.9 -1.9,37.4 -0.7,3.7 -3.4,6.2 1,7.7 4.8,1.7 10,2 15.1,0.5 2.2,-0.6 1.7,-2.8 1.8,-6.3 0.1,-4.7 1.5,-15.8 1.9,-19.9 0.4,-4.1 0.7,-9.4 0.9,-14 0.3,-4.6 1.7,-20.7 2.2,-24.4 0.5,-3.7 0.5,-32.6 0.5,-32.6 z"
         id="path3682" />
      <path
         style="fill:#baa794"
         d="m 30.4,109.5 c 0,0 -1.5,8.2 2.2,12.8 3.7,4.6 8.6,6.7 8.5,9.9 -0.1,3.3 2.9,21.3 5,27.4 2.1,6.1 2.6,14.4 3.3,20.2 0.7,5.8 1.5,21.9 1.2,26.2 -0.3,5.6 -1.8,10.8 -2.2,12.8 -0.3,1.4 5,3.5 8.2,3.7 5.4,0.3 8.3,-1.5 10.4,-3 1.9,-1.3 1.8,-1.5 1.7,-4.6 -0.1,-3.1 -0.7,-31.8 -1.2,-39 -0.5,-7.2 2.4,-38.8 2.2,-45.2 -0.5,-11.6 -4.1,-22.1 -4.1,-22.1 z"
         id="path3684" />
      <path
         style="fill:#e5e5e5"
         d="m 49.1,46.1 c -8.4,-0.5 -15.3,-2.4 -18.2,2.4 -2.9,4.8 -2.7,7.9 -4.1,10.2 -1.4,2.3 -4.3,8.8 -4.2,13.4 0.1,4.6 1.4,7.3 0.8,9.9 -0.7,2.6 -1.5,11.7 -1.6,15.2 -0.2,6.8 -0.6,13.1 0.5,14.8 1.7,2.6 16.6,4.1 27.2,2.8 12,-1.4 19.9,-5.1 19.9,-6.2 0,-1.1 -4.7,-13.4 -5.5,-15 C 57.3,79.8 74,75.2 73.9,74.5 73.8,72.5 74.6,65.9 74.1,63 73.6,60.1 70,55.4 67.4,53 64.8,50.5 60.6,46.5 57.7,45.7 55,44.9 49.1,46.1 49.1,46.1 Z"
         id="path3686" />
      <path
         style="fill:#fbd7c7"
         d="m 58.1,78.2 c 0,0 5.2,0.4 9.1,-0.8 3.9,-1.2 6,-2.4 6,-2.4 0,0 1.3,12.9 2.3,15.6 1,2.7 0.9,7.3 -0.5,12.6 -1.4,5.3 -4.1,23.6 -4,26.4 0.1,2.8 -0.2,6.3 -0.7,8.3 -0.5,2 -1.9,5.8 -4.5,7.3 -3,1.7 -6.4,1.4 -7.6,0.4 -1.9,-1.5 1.9,-7.3 1.1,-8.1 -0.8,-0.8 -2.4,-0.6 -2.9,0.7 -0.5,1.3 -2.4,2.7 -3.4,2 -1,-0.7 0.2,-1.8 0.8,-2.9 0.6,-1.2 2,-3.9 3.4,-4.8 1.4,-0.9 4,-1.4 4.6,-3.8 0.6,-2.5 0,-13 0.6,-18.5 C 63,104.7 65.3,99.7 65.2,98.6 65.1,97.5 61.6,89.4 60,84.5 58.5,80.1 58.1,78.2 58.1,78.2 Z"
         id="path3688" />
      <path
         style="fill:#fbd7c7"
         d="m 35.5,24.5 c -2.8,4.3 -1.3,14.8 -0.9,17.5 0.4,2.6 1.1,5.4 3,6.2 1.9,0.7 3.6,1.5 3.6,2.7 0,1.2 -3,3.9 -1.7,4.7 1.3,0.8 8.5,0.9 14.5,-1.5 5.6,-2.3 7.2,-5 6.4,-6 -0.7,-0.9 -4.2,-2.9 -4.2,-5.9 0.1,-3.1 3.1,-7.8 3.2,-12.4 0.1,-9.1 -13.3,-14.6 -21.1,-8.3 -1,0.7 -2,1.7 -2.8,3 z"
         id="path3690" />
      <path
         style="fill:#999999"
         d="m 49.1,20.1 c 5.6,3.1 -3.8,6.8 -1.6,9 1.9,1.8 1.9,7.3 2.9,9 1.2,2.1 2.4,-2.3 3.5,-3.4 1,-1 2.8,-1.2 3.3,0.3 0.5,1.5 -0.4,3.7 -0.5,4.3 C 58.3,39 60.4,33.6 60,27.9 59.6,21.1 49.9,14.7 39.4,20.6 c -2.1,1.2 -2.8,2.5 -1.7,1.6 2,-1.6 7.9,-4.1 11.4,-2.1 z"
         id="path3692" />
      <path
         style="opacity:0.2"
         d="m 57.6,78.2 c 0,0 2.8,13.9 2.7,17.9 -0.1,4 -4.3,17.7 -4.3,17.7 l 9.9,-2.4 2.9,-15.8 z"
         id="path3694" />
      <path
         style="fill:#e5e5e5"
         d="m 61.2,120.9 c 0.2,1.6 0.6,5.3 0.6,5.3 l -0.8,3.3 c 0,0 5.2,-0.1 6.9,0.8 1.6,0.9 3.4,2.1 3.4,2.1 V 127 c 0,0 4.1,-14 5.2,-18.9 1.1,-4.8 0.3,-13.7 0.1,-15.3 C 76.3,91.2 74.4,73.2 74.4,70 74.4,66.8 74,63.5 74,63.5 L 54.5,70 c 0,0 7.2,18.5 7.9,23 0.7,4.6 -2.1,19.2 -1.2,27.9 z"
         id="path3696" />
    </g>
    <g
       transform="matrix(0.26458333,0,0,0.26458333,113.08567,17.648771)"
       id="g3628">
      <path
         style="fill:#fbd7c7"
         d="m 140,131.5 c 0,0 -1.6,3 -2.2,5.1 -0.6,2.1 -1.7,8.6 -1.6,9.7 0.1,1.1 4.1,8.4 5.8,9.2 1.7,0.8 2,-10.2 2,-10.2 l -0.5,-4.8 2.7,-5.6 z"
         id="path3572" />
      <path
         style="opacity:0.2"
         d="m 143.9,224.7 c -11.8,7.6 -12.4,14.4 0,21 13.5,7.2 22.4,3.3 32.9,-2.7 10.5,-6 11.8,-13.4 -3.6,-19.6 -12.5,-5 -20.4,-4.4 -29.3,1.3 z"
         id="path3574" />
      <path
         style="opacity:0.2"
         d="m 51,282.8 c -11.8,7.6 -32,14.4 -13.7,25.5 17.1,10.4 33.9,-3.4 46,-9.8 C 101,289 110.1,280.8 99.3,274 88.1,267.1 58,278.3 51,282.8 Z"
         id="path3576" />
      <path
         style="fill:#fbd7c7"
         d="m 141.5,142.8 c -0.4,3.3 -1.6,26.2 0,32.2 1.6,6 2.2,8.8 2.6,11 0.4,2.2 1.8,4.1 2.5,7.6 0.7,3.5 3.7,15.1 2.7,19.6 -0.9,4.6 -1.4,11.7 -4.5,15.6 -3,3.9 -8,6.8 -4.8,8 3.1,1.2 6.7,0.4 8.1,-0.5 1.4,-0.9 5.2,-6.5 8.4,-7.7 3.1,-1.2 6.3,-2.9 6,-6 -0.3,-3.1 -3.1,-3.8 -3.3,-7.6 -0.1,-3.8 4.5,-14.3 3.1,-21.3 -1.4,-7 -3.4,-10.5 -3.4,-10.5 l 2.4,-16.2 c 0,0 1.7,18.9 1.8,20.5 0.1,1.6 1,4.7 1,4.7 0,0 -0.3,8.1 0.3,12.7 0.6,4.6 3.8,13.2 2,20 -1.8,6.8 -1.4,8 -3.9,11.1 -2.5,3.1 -7.2,5.6 -3.8,7.3 3.4,1.7 7.3,2.5 9.9,-1.8 2.6,-4.3 5.5,-5.9 6.9,-7.2 1.4,-1.3 1.8,-2.2 0.8,-6.3 -1,-4.1 -1,-9.4 0.4,-13.6 1.4,-4.2 4.7,-15.4 4.8,-20.2 0.1,-4.7 -2.2,-9.4 -2.2,-9.4 0,0 4.3,-15.1 5.5,-26.8 1.2,-11.8 1,-20.4 -1,-25.5 -2,-5.2 -42.3,10.3 -42.3,10.3 z"
         id="path3578" />
      <path
         style="fill:#e5e5e5"
         d="m 164.8,230.2 c 0,0 1.6,1.7 4.2,1.8 3,0.1 6.1,-1.6 6.6,-2.9 0.7,-1.7 0.3,-4.3 0.3,-4.3 0,0 2.8,2.3 2.8,5.1 0,2.5 -1.8,5.5 -1.9,6.5 -0.1,1 0.1,3.5 0.1,3.5 l -1.8,1 -3,-1.4 c 0,0 -0.9,2.9 -2.9,4.4 -2,1.4 -6.8,4.2 -11.3,2.5 -4.5,-1.7 -2,-5.6 -0.9,-6.9 1.1,-1.3 5,-4 6,-5.9 1.2,-2.3 1.8,-3.4 1.8,-3.4 z"
         id="path3580" />
      <path
         style="fill:#e5e5e5"
         d="m 147,223 c 0,0 2.4,2.4 5.2,2.3 2.1,-0.1 5.3,-1.5 6.4,-3.4 0.9,-1.6 1.4,-4.6 1.4,-4.6 0,0 2.7,1.6 2.7,5.2 0,3.2 -2.3,6.3 -2.4,8.5 -0.1,2.2 0,1.3 0,1.3 l -2.4,1.2 -2.4,-1.2 c 0,0 0.8,-2.5 0,-2 -0.8,0.5 -3.3,4.2 -5.1,5.9 -1.8,1.7 -5.8,4 -9.4,2.9 -3.6,-1.1 -3.4,-4.8 -1.3,-6.6 1.8,-1.6 4.1,-2.8 5.4,-5.2 1.2,-2.3 1.9,-4.3 1.9,-4.3 z"
         id="path3582" />
      <g
         style="opacity:0.4"
         id="g3588">
        <path
           d="m 160.1,232.3 v 0 c 0,0.4 0,0 0,0 z"
           id="path3584" />
        <path
           d="m 162.6,222.5 c 0,0 0,-0.1 0,-0.1 -0.4,1.5 -1.2,2.5 -3.1,4 -2.2,1.8 -4,3.3 -6.1,5.8 -2.1,2.6 -6,6 -10.7,6 -2.7,0 -4.7,-1.9 -4.4,-3.8 -0.6,1.8 0.1,3.8 2.6,4.6 3.6,1.1 7.7,-1.2 9.4,-2.9 1.8,-1.7 4.3,-5.4 5.1,-5.9 0.8,-0.5 0,2 0,2 l 2.4,1.2 2.3,-1.2 c 0,-0.2 0,-0.6 0.1,-1.3 0.1,-2.1 2.4,-5.2 2.4,-8.4 z"
           id="path3586" />
      </g>
      <path
         style="opacity:0.4"
         d="m 169.3,243.9 c 2,-1.4 2.9,-4.4 2.9,-4.4 l 3,1.4 1.8,-1 c 0,0 -0.2,-2.5 -0.1,-3.5 0,-0.9 1.5,-3.3 1.8,-5.7 -0.2,0.4 -0.4,0.8 -0.7,1.2 -1.4,2.3 -3.7,3.4 -6.5,8.1 -2.6,4.5 -9.3,5.9 -12,5.4 -2.2,-0.4 -3.7,-1.3 -4,-2.7 -0.2,1.3 0.4,2.7 2.6,3.5 4.4,1.9 9.2,-0.9 11.2,-2.3 z"
         id="path3590" />
      <path
         style="fill:#06547a"
         d="m 140.6,142.1 c -0.3,2.1 -1.3,27.5 -0.3,33.8 2,12.5 5,17.6 6.7,29.8 0.3,2.5 0.6,7.7 0.6,7.7 0,0 5.5,0.6 8.1,0.4 4.2,-0.4 5.5,-0.8 5.5,-0.8 0,0 1.7,-6.7 1.8,-16.8 0,-3.7 -3.3,-13.2 -3.3,-13.2 l 1.6,-8.4 -3,-32.8 c -9.5,-0.2 -17.7,0.3 -17.7,0.3 z"
         id="path3592" />
      <path
         style="opacity:0.15"
         d="m 140.6,142.1 c -0.3,2.1 -1.3,27.5 -0.3,33.8 2,12.5 5,17.6 6.7,29.8 0.3,2.5 0.6,7.7 0.6,7.7 0,0 5.5,0.6 8.1,0.4 4.2,-0.4 5.5,-0.8 5.5,-0.8 0,0 1.7,-6.7 1.8,-16.8 0,-3.7 -3.3,-13.2 -3.3,-13.2 l 1.6,-8.4 -3,-32.8 c -9.5,-0.2 -17.7,0.3 -17.7,0.3 z"
         id="path3594" />
      <path
         style="fill:#06547a"
         d="m 165.1,220 c 0,0 3.5,1.1 6.8,0.9 4.7,-0.3 7.7,-1.9 7.7,-1.9 0.1,0.7 1.9,-14.1 2.6,-21.6 0.5,-5 -1.2,-9.8 -0.9,-12.4 0.3,-2.6 7.3,-29.1 6.3,-37.3 -0.6,-4.8 -43.1,-31.6 -40.5,-5.5 1.1,11.1 7.4,12 9.8,16.4 3.6,6.6 3.9,12.4 4.2,16 0.6,6.3 2.5,22.7 2.9,27 0.4,4.3 1.1,18.4 1.1,18.4 z"
         id="path3596" />
      <path
         style="fill:#993399"
         d="m 143,109.3 c 0,0 -1.9,8.4 -2.9,23.8 -0.1,2.3 0,5.7 -0.1,9.7 -0.1,6.6 11.1,10.9 22.5,11.6 12.5,0.8 25.4,-0.6 25.8,-6.8 1.1,-14.8 -9.3,-28.5 -10.6,-34.3 -1.3,-5.8 6.7,-8.6 6.7,-8.6 0,0 -2,-4.7 -1.5,-11.6 0.5,-6.9 -5.4,-9.9 -7.5,-11.3 -1.7,-1.2 -17.3,-8.4 -19.8,-9.1 -2.5,-0.7 -7.1,-0.9 -8.2,3.5 -1.2,4.5 0,9.2 -1.4,10.9 -1.4,1.7 -6.5,8.1 -6.3,12.4 0.1,4.4 3.3,9.8 3.3,9.8 z"
         id="path3598" />
      <path
         style="fill:#fbd7c7"
         d="m 158,47.1 c -5.3,3.5 -5.8,10.8 -5.6,15.8 0.2,5 0.3,9.1 2.2,10.8 1.9,1.7 2.1,2.4 2.3,3.6 0.2,1.2 -5.7,5.7 -0.6,8 5.1,2.2 6.9,-0.3 10.9,-2.1 4.3,-1.9 7.6,-1.6 7.6,-1.6 0,0 -2.6,-4.7 -2.4,-8.1 0.2,-3.3 1,-5.8 2.6,-9.3 1.6,-3.5 4.2,-12.7 -1.1,-16.4 -5.2,-3.5 -12.3,-3 -15.9,-0.7 z"
         id="path3600" />
      <path
         style="fill:#656565"
         d="m 171.4,45.4 c 0,0 -3.4,-4.2 -10.2,-2.1 -6.8,2.1 -8.2,7.9 -8.2,7.9 l 2.7,-1.8 -1.6,3.5 2.5,-2.1 c 0,0 -1.1,2.6 -1.1,2.5 0,-0.2 2.6,-2.1 2.6,-2.1 0,0 -1.8,4.6 -1.8,4.4 0.1,-0.2 6.5,-6.2 6.5,-6.2 l -3.4,7.2 1.6,-0.5 -1.5,7.3 1.5,-2.5 0.3,5.7 1.8,-6.2 1,4.3 1.1,-4.1 1.4,6.8 1.3,-3.5 0.9,3 1.8,-4.5 0.4,1.8 1.5,-2.7 0.2,1.6 1,-0.2 -2,7.5 1.9,-3.7 -0.6,6.3 3.1,-7.2 0.3,1.6 1.6,-6.7 0.3,3.2 0.6,-4.9 0.9,0.9 -0.7,-4.3 1,0.6 -1.9,-3.6 1.3,0.5 c 0,-0.2 -1.9,-8 -8.1,-7.7 z"
         id="path3602" />
      <path
         style="opacity:0.15"
         d="m 170.9,102.4 c 0,0 -6.7,8.3 -15.4,7.1 -9.2,-1.3 -2.7,-14.5 -2.7,-14.5 0,0 -8,14.1 -12.9,6.3 0.9,4 3.2,8 3.2,8 0,0 0,0 0,0 1.8,1.2 3.2,0.9 5.6,-2 1.8,12.4 21.9,6.1 24.9,3.3 -0.8,-2.7 -2.7,-8.2 -2.7,-8.2 z"
         id="path3604" />
      <path
         style="fill:#fbd7c7"
         d="m 186.2,120.6 c -0.7,-3.5 -2.2,-13.2 -2.9,-15.5 l -10.7,2.5 c 0.1,0.3 0.1,0.3 0.2,0.6 1,2.6 3.3,14.4 3.5,15.3 0.2,0.9 -2,3.3 -3,5.6 -2.7,6.1 -3.3,13.9 -3.7,15.5 -0.5,1.6 -1.6,2.9 -2.9,3.8 -1.3,0.9 -5.3,4.7 -5.7,5.8 -0.3,0.7 -1.3,4.8 -0.7,6.3 0.6,1.5 4.8,3 5.8,3 1,0 1,-1.4 1,-1.4 0,0 -1.1,-1.8 -1.2,-3.4 -0.1,-1.6 1.2,-2.7 4.3,-5 3.1,-2.3 3.4,-5.4 7,-11.1 3.6,-5.7 6.6,-9.9 7.8,-12.6 1.2,-2.9 1.5,-7.8 1.2,-9.4 z"
         id="path3606" />
      <path
         style="fill:#825012"
         d="m 71.6,263 c 0,0 7.4,1.9 7.4,4.1 0,1.1 0,4.8 0,5.8 0,1.9 -3.9,3.1 -3.9,5 0,2.4 4.8,3.9 6,3.5 1.3,-0.4 2.1,-1 2.1,-3.3 0,-2.3 0.8,-12.1 1.1,-15.1 0.3,-3 -0.9,-12.3 -0.9,-12.3 z"
         id="path3608" />
      <path
         style="opacity:0.2"
         d="m 71.6,263 c 0,0 7.4,1.9 7.4,4.1 0,1.1 0,4.8 0,5.8 0,1.9 -3.9,3.1 -3.9,5 0,2.4 4.8,3.9 6,3.5 1.3,-0.4 2.1,-1 2.1,-3.3 0,-2.3 0.8,-12.1 1.1,-15.1 0.3,-3 -0.9,-12.3 -0.9,-12.3 z"
         id="path3610" />
      <path
         style="fill:#825012"
         d="m 16,232.8 c 1.4,-0.5 6.6,-2.3 6.7,-3.3 0.1,-1 0,-2.6 1.2,-3.1 1.2,-0.6 2.3,-3.5 3.9,-3.8 1.6,-0.3 2.3,0.1 5.2,1 2.9,0.9 6.4,2.8 8.6,4.4 2.3,1.7 3.4,3.3 4.9,5.6 1.5,2.3 2,2.9 1.8,3.5 -0.2,0.6 -0.7,0.3 -0.3,1.2 0.5,1.4 0.8,3.1 2.5,3.5 5.9,1.6 19.6,-8 23.1,-9.1 8.4,-2.7 16.6,1.5 20.8,5 2.8,2.3 5.4,8.4 7.4,12.4 2,4 5.6,4.5 5.2,6.2 -0.2,0.7 -1.2,1.3 -3.4,0.4 -2.7,-1.1 -8.8,-7.8 -8.8,-7.8 0,0 0.8,2.5 -0.4,5.8 -1.2,3.3 -3.1,8.8 -1.5,10.6 1.7,1.8 3.9,3.7 4.1,5.6 0.2,1.9 1,15.2 1,15.8 0,0.6 -0.4,1.9 -1.7,2.3 -3.8,1.2 -8.4,-1.4 -7.8,-3.7 0.7,-2.4 3.3,-1.8 3.3,-5.2 0,-1.3 -0.3,-5 -0.6,-5.7 -0.3,-1 -1.4,-2 -2.7,-2.5 -1.1,-0.4 -6.1,-3.1 -7.1,-6.3 -1,-3.2 -1.5,-6.6 -3.1,-6.9 -1.6,-0.2 -7.3,9.1 -12,12.3 -4.7,3.2 -7.9,3.4 -7.9,3.4 0,0 -0.9,15.5 -0.9,18.5 0,3 2.1,6.2 2.5,8.1 0.4,2.1 0.8,5.6 -1.8,7.3 -3.1,2 -7,0.1 -7.9,-0.9 -0.8,-1 -1,-3.1 0.3,-4.3 1.3,-1.2 2.7,-2.3 2.3,-2.8 -0.4,-0.6 -2.1,-3.4 -2.4,-5.2 -0.4,-2.7 -0.8,-14.3 -4.1,-16.4 -1,-0.6 -3.4,-0.9 -4.1,0.1 -0.6,1 -0.6,7.2 -0.6,8.3 0,1.6 2.3,5 2.3,7.7 0,2.7 -1,4.2 -3.4,5.1 -1.9,0.6 -4.5,0.2 -6.4,-2.3 -1.2,-1.6 -0.3,-3.3 1,-4.1 0.8,-0.5 1.9,-0.7 2,-1.8 0.1,-1.1 -1.5,-2.7 -1.5,-4.7 0,-2 -0.8,-10 -0.8,-11 0,-3.2 -5.4,-6.3 -7.3,-13 -1,-3.3 -0.2,-7 -0.5,-9.8 -0.2,-1.7 -0.5,-9.2 -3.7,-9.9 -1.2,-0.3 -6.3,-0.2 -7.8,-1.8 -1.1,-1.2 -1.7,-2.7 -1.4,-4.6 0.8,-1.7 1.8,-4.1 1.8,-4.1 z"
         id="path3612" />
      <path
         style="fill:#262626"
         d="m 32.4,234.7 c 0,0 -0.6,-1.6 -2,-2.4 -1.3,-0.8 -2.7,0.7 -1,2 1.5,1.2 3,0.4 3,0.4 z"
         id="path3614" />
      <path
         style="fill:#262626"
         d="m 19.4,235.1 c 0.2,-1.5 -0.8,-2.2 -2.8,-2.7 -1.2,-0.2 -2.5,0.4 -2.5,1.9 0,2.1 1.8,3.7 1.8,3.7 0,0 3.2,0 3.5,-2.9 z"
         id="path3616" />
      <path
         style="fill:#262626"
         d="m 22.9,228 c 0,0 1,0.5 0.3,1.3 -0.8,0.9 -0.3,-1.3 -0.3,-1.3 z"
         id="path3618" />
      <path
         style="fill:#262626"
         d="m 166.7,159.5 -6.8,-1.5 c -0.3,-0.1 -0.5,-0.4 -0.5,-0.7 0.1,-0.3 0.4,-0.5 0.7,-0.4 l 4.7,1.1 -4.8,-2 c -0.3,-0.1 -0.5,-0.5 -0.3,-0.8 0.1,-0.3 0.5,-0.4 0.8,-0.3 l 6.6,2.7 z"
         id="path3620" />
      <path
         style="fill:#262626"
         d="m 49.1,241.2 c -0.2,0 -0.4,-0.1 -0.5,-0.3 -0.2,-0.3 -0.1,-0.6 0.2,-0.8 l 117.1,-81.8 c 0.3,-0.2 0.6,-0.1 0.8,0.1 0.2,0.3 0.1,0.6 -0.2,0.8 L 49.4,241.1 c -0.1,0.1 -0.2,0.1 -0.3,0.1 z"
         id="path3622" />
      <path
         style="fill:#262626"
         d="m 26.8,248.6 c 0,0 2.4,1.3 6.1,1.4 3.7,0 7,-1.5 8.8,-3.3 1.8,-1.8 6.7,-7.1 6.7,-7.1 l 1.7,1.8 c 0,0 -5.8,7.4 -8.3,8.9 -2.5,1.5 -5.2,2.8 -9,2.7 -3.8,-0.1 -5.5,-1.2 -5.5,-1.2 z"
         id="path3624" />
      <path
         style="opacity:0.2"
         d="m 36.9,233.2 c 0,0 -4.1,15.3 0.6,15.2 2.4,-0.1 10.2,-10.9 10.2,-10.9 0,0 -4.6,13.7 -11.1,13.7 -6.4,0.1 0.3,-18 0.3,-18 z"
         id="path3626" />
    </g>
  </g>
  <path
     d="m 91.065752,51.782767 c 16.255858,0 29.434628,-8.313511 29.434628,-18.567192 0,-10.254384 -13.17877,-18.567896 -29.434628,-18.567896 -5.096963,0 -9.890088,0.817654 -14.070119,2.254869 -8.250001,-2.81402 -19.514308,-8.1308735 -19.514308,-8.1308735 0,0 7.344698,3.7679485 10.372955,8.3437165 0.773534,1.169582 1.226964,2.395358 1.485842,3.57337 -4.786928,3.301521 -7.709769,7.698867 -7.709769,12.526814 0,10.253681 13.178765,18.567192 29.435399,18.567192"
     fill="#dddddd"
     id="path1"
     style="stroke-width:0.737875" />
  <g
     id="g17"
     transform="translate(3.4919079,-0.12041097)">
    <path
       style="fill:#000000;fill-opacity:1;fill-rule:nonzero;stroke:none;stroke-width:0.264583"
       id="path2"
       d="m 101.58363,35.840767 c 0.41422,0.03002 0.82817,0.0028 1.24083,-0.03404 0.45508,-0.05084 0.90775,-0.152221 1.33834,-0.309645 0.27176,-0.09935 0.36358,-0.15113 0.6214,-0.275198 0.44825,-0.231506 0.88406,-0.521402 1.16512,-0.951532 0.0508,-0.07776 0.0893,-0.162885 0.13398,-0.244327 0.028,-0.09571 0.0678,-0.188743 0.084,-0.287134 0.0882,-0.533566 -0.19331,-0.958738 -0.49479,-1.363374 -0.26441,-0.30344 -0.56967,-0.574 -0.90879,-0.791884 -0.21817,-0.140177 -0.32724,-0.188079 -0.55713,-0.304446 -0.5615,-0.269155 -1.15628,-0.451474 -1.75624,-0.611243 -0.59468,-0.155644 -1.20183,-0.252412 -1.81202,-0.320736 -0.741021,-0.07032 -1.48492,-0.103719 -2.228439,-0.134379 -0.690089,-0.02381 -1.380183,-0.05358 -2.070727,-0.0584 -0.638281,-0.0013 -1.27616,0.02254 -1.913528,0.05417 -0.644972,0.032 -1.288658,0.08136 -1.932284,0.132855 -0.590679,0.0464 -1.179777,0.109922 -1.769096,0.170728 -0.605523,0.06406 -1.212975,0.106212 -1.820754,0.141452 -0.650399,0.03534 -1.301375,0.05776 -1.952459,0.07554 -0.686578,0.01762 -1.373296,0.02883 -2.060027,0.03836 -0.699029,0.0093 -1.398101,0.01469 -2.097172,0.01937 -0.714767,0.0047 -1.429546,0.0074 -2.144324,0.0098 -0.735621,0.0024 -1.471244,0.0038 -2.206868,0.0049 -0.814165,-0.0064 -1.628037,0.01611 -2.441885,0.03501 -0.748725,0.01783 -1.497531,0.03168 -2.246368,0.04382 -0.572177,0.0093 -1.144383,0.01659 -1.7166,0.02307 -0.433025,0.009 -0.865889,0.02432 -1.298832,0.03649 -0.06301,0.0016 -0.12601,0.0033 -0.189016,0.005 -0.622038,0.0164 -0.59885,0.896091 0.02318,0.879694 v 0 c 0.06352,-0.0016 0.127047,-0.0034 0.190571,-0.005 0.428025,-0.01204 0.855967,-0.02709 1.284068,-0.0362 0.573643,-0.0065 1.147278,-0.01384 1.720885,-0.02313 0.750892,-0.01217 1.501756,-0.02606 2.252538,-0.04394 0.807497,-0.01876 1.615014,-0.04119 2.422824,-0.03478 0.736155,-0.0011 1.472311,-0.0024 2.208466,-0.0049 0.715754,-0.0024 1.43151,-0.0051 2.147255,-0.0098 0.701172,-0.0047 1.402345,-0.01013 2.103477,-0.01942 0.690674,-0.0096 1.381334,-0.02088 2.071852,-0.0386 0.660069,-0.01804 1.320027,-0.0408 1.979398,-0.07669 0.620916,-0.03605 1.241494,-0.07919 1.860106,-0.144621 0.582615,-0.06012 1.165,-0.123 1.748956,-0.168884 0.634786,-0.05079 1.269614,-0.0996 1.90573,-0.131133 0.620877,-0.03083 1.242246,-0.0543 1.864016,-0.05311 0.680419,0.0043 1.360393,0.03464 2.040369,0.05767 0.723136,0.02979 1.446633,0.06214 2.167398,0.129734 0.56681,0.06258 1.13068,0.152786 1.68315,0.296574 0.54164,0.143819 1.07911,0.306086 1.58695,0.546946 0.17137,0.08555 0.28685,0.137684 0.44824,0.23944 0.2631,0.165883 0.5007,0.372605 0.71086,0.60106 0.11499,0.149476 0.3388,0.418327 0.3429,0.621323 5.3e-4,0.03054 -0.006,0.06075 -0.01,0.09112 -0.0199,0.0421 -0.0359,0.0863 -0.0598,0.126283 -0.19096,0.319662 -0.5241,0.515329 -0.843,0.685292 -0.2046,0.09981 -0.29728,0.151172 -0.51154,0.230868 -0.36745,0.13667 -0.75475,0.225152 -1.14374,0.269565 -0.38659,0.03528 -0.77371,0.05824 -1.16176,0.03048 -0.62226,0 -0.62226,0.879999 0,0.879999 z" />
    <path
       style="fill:#000000;fill-opacity:1;fill-rule:nonzero;stroke:none;stroke-width:0.264583"
       id="path3"
       d="m 70.730244,31.284547 c 0.0084,-0.208478 -0.008,-0.417332 -0.02236,-0.625237 -0.03069,-0.388172 -0.05846,-0.776486 -0.08049,-1.165254 -0.02883,-0.508195 -0.04134,-1.017103 -0.05308,-1.525918 -0.01312,-0.625882 -0.02064,-1.251865 -0.02735,-1.877844 -0.0049,-0.555149 -0.01535,-1.110232 -0.02416,-1.665329 -0.0061,-0.383135 -0.01167,-0.766278 -0.01664,-1.14943 -0.0024,-0.195043 -0.0013,-0.09938 -0.0035,-0.286986 -0.0075,-0.622209 -0.887396,-0.611659 -0.879938,0.01055 v 0 c 0.0024,0.188138 0.0011,0.0922 0.0035,0.287826 0.005,0.384015 0.01056,0.768022 0.01667,1.15202 0.0088,0.553588 0.01921,1.107162 0.0241,1.660802 0.0068,0.629594 0.01431,1.259191 0.02754,1.888688 0.01198,0.518668 0.02482,1.037423 0.05425,1.555456 0.02228,0.39248 0.05016,0.784513 0.08119,1.17639 0.01175,0.168172 0.02511,0.337103 0.0222,0.50573 -0.04139,0.620877 0.83666,0.679413 0.878052,0.05854 z" />
    <path
       style="fill:#000000;fill-opacity:1;fill-rule:nonzero;stroke:none;stroke-width:0.264583"
       id="path4"
       d="m 70.18366,23.378253 c 0.0957,0.0062 0.1886,0.02857 0.280911,0.05318 0.192899,0.05904 0.378777,0.139555 0.557366,0.232924 0.172302,0.08793 0.316701,0.212692 0.444513,0.356041 0.156967,0.174037 0.258059,0.38549 0.360587,0.593646 0.12714,0.254506 0.230188,0.519251 0.325964,0.786772 0.102833,0.291422 0.169058,0.593057 0.223777,0.896591 0.03409,0.199259 0.06441,0.399924 0.0684,0.602421 0.0024,0.120258 -0.0024,0.180456 -0.0081,0.301535 -0.02349,0.315597 -0.07281,0.628541 -0.13969,0.937659 -0.05685,0.247608 -0.12955,0.491379 -0.225724,0.726567 -0.07247,0.184748 -0.189756,0.344242 -0.313264,0.497435 -0.140827,0.171323 -0.296487,0.329004 -0.456832,0.481817 -0.13181,0.124958 -0.274161,0.237485 -0.419492,0.346059 -0.115268,0.0842 -0.23749,0.158488 -0.363325,0.225703 -0.0683,0.03543 -0.139573,0.06441 -0.210905,0.09302 -0.577167,0.232548 -0.248296,1.048785 0.328869,0.816237 v 0 c 0.101148,-0.04089 0.201951,-0.0829 0.298474,-0.13403 0.164007,-0.08847 0.323678,-0.18534 0.473747,-0.296079 0.173392,-0.129664 0.342686,-0.264782 0.499875,-0.413999 0.188629,-0.179911 0.371054,-0.366315 0.536231,-0.568346 0.176167,-0.22076 0.338468,-0.453308 0.442481,-0.718013 0.113371,-0.282842 0.203885,-0.573995 0.270243,-0.871569 0.07629,-0.357381 0.133881,-0.718923 0.158464,-1.083847 0.0067,-0.159467 0.01214,-0.2246 0.0078,-0.384617 -0.0065,-0.240162 -0.04035,-0.478385 -0.08136,-0.714764 -0.06383,-0.351064 -0.141734,-0.699771 -0.261286,-1.036677 -0.10722,-0.298879 -0.223142,-0.594479 -0.365041,-0.878931 -0.139139,-0.282117 -0.284789,-0.563078 -0.499205,-0.797025 -0.0928,-0.100615 -0.114618,-0.129452 -0.217326,-0.22016 -0.1441,-0.127262 -0.305279,-0.234327 -0.474266,-0.325421 -0.237185,-0.121328 -0.482153,-0.229083 -0.738838,-0.302446 -0.16482,-0.04238 -0.332129,-0.07862 -0.503071,-0.08168 -0.622255,0 -0.622255,0.88 0,0.88 z" />
    <path
       style="fill:#000000;fill-opacity:1;fill-rule:nonzero;stroke:none;stroke-width:0.264583"
       id="path5"
       d="m 82.376459,31.047944 c -0.234289,0.107368 -0.467043,0.217699 -0.696227,0.335602 -0.38906,0.201634 -0.741429,0.461418 -1.07773,0.740254 -0.422638,0.342445 -0.771552,0.760109 -1.118857,1.175531 -0.35565,0.43439 -0.674264,0.89631 -0.978257,1.3677 -0.290283,0.447445 -0.546751,0.91503 -0.779817,1.394399 -0.237038,0.493279 -0.439158,1.001871 -0.621729,1.517459 -0.170317,0.455121 -0.324953,0.915742 -0.472614,1.378638 -0.132104,0.420833 -0.258231,0.843569 -0.380858,1.267267 -0.101782,0.344564 -0.185049,0.694124 -0.258426,1.045713 -0.126942,0.609166 0.734552,0.788691 0.861494,0.179522 v 0 c 0.0686,-0.329734 0.146777,-0.657503 0.242244,-0.980596 0.120423,-0.416118 0.244251,-0.831299 0.373968,-1.244608 0.144711,-0.454183 0.296722,-0.90597 0.463817,-1.35247 0.171278,-0.484741 0.361251,-0.962782 0.583737,-1.426583 0.217085,-0.447831 0.456991,-0.884145 0.727855,-1.301996 0.284105,-0.441042 0.581653,-0.873334 0.913765,-1.28006 0.313246,-0.374795 0.625232,-0.754332 1.006505,-1.063437 0.286194,-0.239088 0.586546,-0.461452 0.918122,-0.634548 0.225774,-0.116657 0.456063,-0.22375 0.686554,-0.330689 0.556562,-0.278281 0.163013,-1.065377 -0.393546,-0.787098 z" />
    <path
       style="fill:#000000;fill-opacity:1;fill-rule:nonzero;stroke:none;stroke-width:0.264583"
       id="path6"
       d="m 76.374934,40.860897 c -0.01437,-7.93e-4 -0.02896,1.46e-4 -0.04313,-0.0024 -0.11679,-0.02103 -0.24221,-0.06822 -0.354367,-0.102047 -0.229465,-0.06922 -0.282067,-0.08681 -0.521034,-0.162401 -0.86347,-0.274545 -1.746646,-0.480198 -2.627479,-0.68993 -0.823402,-0.193006 -1.646711,-0.386025 -2.472258,-0.569659 -0.588047,-0.121705 -1.173287,-0.256109 -1.758437,-0.390863 -0.209693,-0.04732 -0.419817,-0.09254 -0.629386,-0.140396 -0.606652,-0.138467 -0.802476,0.719468 -0.195823,0.857935 v 0 c 0.209029,0.04768 0.418558,0.09295 0.627724,0.140015 0.587285,0.135244 1.174657,0.270161 1.764845,0.392313 0.82129,0.182685 1.64035,0.374724 2.459506,0.566722 0.860134,0.204787 1.72272,0.405051 2.565968,0.672907 0.386501,0.122203 0.777796,0.273598 1.183871,0.307811 0.622252,0 0.622252,-0.879999 0,-0.879999 z" />
    <path
       style="fill:#000000;fill-opacity:1;fill-rule:nonzero;stroke:none;stroke-width:0.264583"
       id="path7"
       d="m 74.420356,40.164583 c 0.06874,-0.105855 0.148865,-0.204608 0.237514,-0.294315 0.174908,-0.159946 0.378052,-0.28271 0.59292,-0.380497 0.1436,-0.06204 0.299586,-0.100076 0.455044,-0.06684 0.08435,0.01402 0.132866,0.06766 0.182401,0.132458 0.03645,0.05631 0.07022,0.116165 0.0898,0.180779 0.0042,0.014 0.02058,0.106421 0.02122,0.109945 0.02299,0.161677 0.02043,0.324477 0.0055,0.486601 -0.01371,0.152088 -0.04279,0.302027 -0.0709,0.451916 -0.0037,0.01505 -0.0073,0.03012 -0.01095,0.04519 -0.141097,0.606046 0.715978,0.80559 0.857078,0.199546 v 0 c 0.0063,-0.0275 0.01252,-0.055 0.01879,-0.0825 0.03347,-0.178451 0.06691,-0.357148 0.08271,-0.538253 0.02032,-0.245311 0.02246,-0.49195 -0.01939,-0.735494 -0.02429,-0.11585 -0.02823,-0.152251 -0.06844,-0.267366 -0.05378,-0.153977 -0.139557,-0.295585 -0.23839,-0.424363 -0.02992,-0.03352 -0.05803,-0.06873 -0.08975,-0.100547 -0.174733,-0.175302 -0.394224,-0.288782 -0.638405,-0.329512 -0.05192,-0.0061 -0.103582,-0.01513 -0.155765,-0.0182 -0.273225,-0.01622 -0.542735,0.0501 -0.791634,0.158731 -0.05151,0.02429 -0.103814,0.04698 -0.15453,0.0729 -0.256873,0.131273 -0.494659,0.300177 -0.704146,0.498221 -0.145481,0.155561 -0.285872,0.319749 -0.387768,0.508082 -0.278281,0.556559 0.508815,0.950108 0.787096,0.393546 z" />
    <path
       style="fill:#000000;fill-opacity:1;fill-rule:nonzero;stroke:none;stroke-width:0.264583"
       id="path8"
       d="M 79.90896,37.955352 C 79.765998,37.74635 79.632198,37.529674 79.502277,37.311867 79.195802,36.789505 78.905205,36.25792 78.617346,35.725123 78.408122,35.337419 78.209668,34.944129 78.020555,34.54627 c -0.112713,-0.243978 -0.235128,-0.483288 -0.349872,-0.726279 -0.05096,-0.111919 -0.02671,-0.05706 -0.07291,-0.164491 -0.246447,-0.571371 -1.054487,-0.222846 -0.808041,0.348525 v 0 c 0.05518,0.127624 0.02675,0.0636 0.08536,0.19204 0.115207,0.243506 0.237561,0.483568 0.350721,0.728064 0.195686,0.41148 0.400867,0.818319 0.617318,1.219311 0.293859,0.543843 0.590536,1.086435 0.903565,1.619525 0.158358,0.265033 0.318781,0.530048 0.504545,0.777026 0.413403,0.465079 1.071123,-0.11956 0.657722,-0.584639 z" />
    <path
       style="fill:#000000;fill-opacity:1;fill-rule:nonzero;stroke:none;stroke-width:0.264583"
       id="path9"
       d="M 92.371835,30.297106 C 92.1802,30.263544 91.992997,30.203719 91.808831,30.141725 91.487597,30.034346 91.209798,29.839695 90.940622,29.639667 90.527247,29.333203 90.19637,28.93859 89.875266,28.540802 89.540351,28.115913 89.25271,27.658488 89.003898,27.178838 88.740916,26.660898 88.554511,26.111509 88.382479,25.55835 88.195308,24.930777 88.075586,24.286916 87.97908,23.640101 c -0.08452,-0.628186 -0.119703,-1.260805 -0.133922,-1.893987 -0.0046,-0.485514 0.03648,-0.97042 0.136054,-1.445582 0.05849,-0.235752 0.12609,-0.472571 0.232513,-0.691989 0.04814,-0.09926 0.08451,-0.148055 0.144809,-0.23963 0.145532,-0.212878 0.347475,-0.366273 0.568722,-0.492646 0.162089,-0.08469 0.349393,-0.174189 0.53721,-0.138098 0.150654,0.08542 0.270807,0.221355 0.38114,0.352879 0.177882,0.209463 0.265161,0.465929 0.348025,0.723024 0.09194,0.313452 0.0858,0.640523 0.0527,0.962068 -0.02772,0.323116 -0.138067,0.625983 -0.268623,0.919882 -0.07768,0.170417 -0.177986,0.32805 -0.277961,0.485794 -0.33292,0.525704 0.410538,0.996523 0.743458,0.470819 v 0 c 0.123391,-0.194981 0.245044,-0.391221 0.339971,-0.602181 0.165939,-0.379912 0.303213,-0.772338 0.338968,-1.188577 0.04164,-0.44254 0.04101,-0.890205 -0.09147,-1.319395 -0.119677,-0.366828 -0.260607,-0.726223 -0.515851,-1.022878 -0.216188,-0.250209 -0.457948,-0.497826 -0.778039,-0.610868 -0.06569,-0.0232 -0.135625,-0.03191 -0.203438,-0.04787 -0.06422,-0.0031 -0.128376,-0.01076 -0.192653,-0.0094 -0.304285,0.0066 -0.594913,0.121149 -0.858031,0.265344 -0.3449,0.205115 -0.637786,0.437975 -0.863928,0.775532 -0.101544,0.159971 -0.132289,0.197889 -0.214913,0.372 -0.12953,0.272952 -0.213633,0.565943 -0.284504,0.858576 -0.109879,0.540727 -0.161904,1.090895 -0.153929,1.643119 0.01535,0.670063 0.05303,1.339572 0.14338,2.004238 0.103664,0.691182 0.232352,1.379166 0.433464,2.049551 0.187796,0.603007 0.393391,1.201206 0.681093,1.765311 0.27722,0.530934 0.595009,1.038728 0.967547,1.508813 0.368438,0.455295 0.751703,0.903108 1.226053,1.252897 0.344376,0.254252 0.702942,0.494329 1.11316,0.629534 0.234664,0.07787 0.472623,0.152979 0.717301,0.191852 0.615998,0.088 0.74045,-0.783153 0.12445,-0.871154 z" />
    <path
       style="fill:#000000;fill-opacity:1;fill-rule:nonzero;stroke:none;stroke-width:0.264583"
       id="path10"
       d="m 87.375269,20.692091 c -0.177647,-1.14e-4 -0.355285,-3.7e-4 -0.532924,0.0015 -0.347168,-0.0064 -0.689943,0.04785 -1.027888,0.121774 -0.409908,0.104944 -0.798653,0.275104 -1.179859,0.455829 -0.386022,0.188551 -0.748056,0.420371 -1.10051,0.664801 -0.208333,0.15256 -0.41124,0.31517 -0.591193,0.501035 -0.111557,0.115223 -0.139481,0.155216 -0.238422,0.277727 -0.177247,0.239594 -0.319251,0.514098 -0.358222,0.813341 -0.0084,0.06479 -0.0078,0.130433 -0.01172,0.19565 0.01333,0.304505 0.108307,0.599604 0.259059,0.863945 0.03087,0.05412 0.06638,0.105461 0.09957,0.158191 0.204089,0.281143 0.476293,0.503675 0.776994,0.675063 0.06268,0.03573 0.127778,0.06703 0.191667,0.100545 0.250325,0.118502 0.509611,0.21911 0.776198,0.294741 0.171765,0.04873 0.237958,0.05991 0.412443,0.09727 0.378555,0.07729 0.763632,0.103957 1.148643,0.122534 0.29341,0.009 0.58701,0.0061 0.880412,-0.0011 0.233624,-0.0027 0.466455,-0.02016 0.698995,-0.04132 0.02932,-0.0023 0.05864,-0.0046 0.08797,-0.0069 0.620323,-0.04895 0.551095,-0.926225 -0.06923,-0.877272 v 0 c -0.03284,0.0026 -0.06568,0.0052 -0.09852,0.0078 -0.21327,0.01943 -0.426757,0.03583 -0.641048,0.03796 -0.272042,0.0068 -0.544248,0.0095 -0.816314,0.0019 -0.337802,-0.01618 -0.67578,-0.03749 -1.008147,-0.104364 -0.332568,-0.06989 -0.659495,-0.163216 -0.966325,-0.31242 -0.236677,-0.120735 -0.468757,-0.25961 -0.634841,-0.472336 -0.105383,-0.15465 -0.188222,-0.327263 -0.218048,-0.51347 -7.94e-4,-0.0218 -0.0038,-0.04362 -0.0026,-0.06541 0.0084,-0.156376 0.09267,-0.299488 0.179877,-0.424117 0.06207,-0.07838 0.09521,-0.123908 0.164661,-0.196576 0.145526,-0.152277 0.310901,-0.284606 0.479964,-0.409466 0.312897,-0.21744 0.633894,-0.424341 0.976329,-0.592843 0.321281,-0.153014 0.648499,-0.29812 0.992812,-0.391568 0.278029,-0.0628 0.560535,-0.106919 0.846529,-0.100935 0.174561,-0.0019 0.34912,-0.0015 0.523689,-0.0014 0.622255,0 0.622255,-0.88 0,-0.88 z" />
    <path
       style="fill:#000000;fill-opacity:1;fill-rule:nonzero;stroke:none;stroke-width:0.264583"
       id="path11"
       d="m 83.140896,24.304252 c 0.259207,-0.03533 0.518255,-0.07092 0.778113,-0.101286 0.400365,-0.03877 0.800933,-0.07493 1.20097,-0.117105 0.342905,-0.03811 0.685779,-0.07649 1.028692,-0.114534 0.247277,-0.02714 0.495062,-0.04935 0.742979,-0.06973 0.147831,-0.01221 0.295825,-0.02219 0.443881,-0.0312 0.621101,-0.03783 0.567603,-0.916203 -0.0535,-0.878373 v 0 c -0.15427,0.0094 -0.308483,0.0198 -0.46252,0.03253 -0.25622,0.02108 -0.512305,0.04405 -0.767866,0.07214 -0.341326,0.03787 -0.682614,0.07607 -1.02393,0.114019 -0.403352,0.04253 -0.807265,0.07868 -1.210905,0.118209 -0.259408,0.03035 -0.518081,0.0654 -0.776782,0.101131 -0.618152,0.07133 -0.517282,0.945525 0.10087,0.8742 z" />
    <path
       style="fill:#000000;fill-opacity:1;fill-rule:nonzero;stroke:none;stroke-width:0.264583"
       id="path12"
       d="m 87.167978,31.613898 c 0.150606,0.113665 0.287396,0.2453 0.428157,0.370774 0.253119,0.23323 0.50591,0.467561 0.743815,0.71651 0.157329,0.164634 0.261437,0.285366 0.413491,0.456808 0.422463,0.479362 0.794075,0.999517 1.153641,1.526702 0.308891,0.450117 0.58692,0.920025 0.852681,1.396526 0.199009,0.35161 0.383863,0.710742 0.559157,1.074666 0.02384,0.04985 0.04769,0.0997 0.07153,0.149553 0.268494,0.561348 1.062361,0.181639 0.793864,-0.379709 v 0 c -0.02421,-0.05062 -0.04843,-0.10125 -0.07264,-0.151876 -0.183049,-0.379669 -0.375803,-0.754483 -0.583422,-1.121391 -0.278736,-0.499436 -0.570442,-0.991881 -0.894241,-1.463736 -0.380752,-0.557871 -0.774904,-1.107789 -1.222386,-1.614855 -0.170363,-0.19185 -0.269227,-0.306875 -0.445968,-0.491474 -0.250902,-0.262054 -0.517054,-0.50912 -0.783958,-0.754624 -0.191479,-0.170685 -0.375706,-0.355618 -0.596509,-0.48869 -0.547878,-0.295011 -0.965083,0.479806 -0.417208,0.774816 z" />
    <path
       style="fill:#000000;fill-opacity:1;fill-rule:nonzero;stroke:none;stroke-width:0.264583"
       id="path13"
       d="m 91.550076,36.850417 c -0.140385,0.03817 -0.263543,0.117973 -0.383537,0.19729 -0.255786,0.174876 -0.467262,0.401174 -0.666851,0.635828 -0.186282,0.227528 -0.349361,0.473392 -0.482883,0.735481 -0.02721,0.0534 -0.05203,0.107984 -0.07804,0.161977 -0.13076,0.294656 -0.218205,0.608629 -0.255109,0.929111 -0.0075,0.06522 -0.01069,0.130863 -0.01606,0.196295 -0.02103,0.342347 0.03655,0.684477 0.161277,1.003781 0.02521,0.06457 0.0558,0.126923 0.0837,0.190384 0.136801,0.267406 0.323596,0.503475 0.540012,0.710668 0.05283,0.05058 0.106006,0.101103 0.163471,0.146338 0.06759,0.0532 0.140697,0.09897 0.211047,0.148461 0.36064,0.2175 0.763685,0.345204 1.179941,0.400796 0.08129,0.01085 0.16323,0.01617 0.244846,0.02426 0.390638,0.03317 0.783727,0.01111 1.164539,-0.08516 0.07845,-0.01984 0.155324,-0.04547 0.232987,-0.0682 0.341548,-0.116372 0.676045,-0.26575 0.969457,-0.478438 0.0559,-0.04052 0.108389,-0.08553 0.162581,-0.128294 0.20415,-0.174993 0.374555,-0.384693 0.509808,-0.616791 0.07934,-0.136144 0.107595,-0.205521 0.173183,-0.347001 0.140917,-0.319773 0.232494,-0.657794 0.299259,-0.999927 0.03746,-0.216942 0.05673,-0.437613 0.03103,-0.657175 -0.0182,-0.155622 -0.03608,-0.202205 -0.07568,-0.352986 -0.07361,-0.232685 -0.181885,-0.45344 -0.315227,-0.657669 -0.08418,-0.128924 -0.119348,-0.167989 -0.214075,-0.287935 -0.151254,-0.18237 -0.321029,-0.348504 -0.516524,-0.48319 -0.128064,-0.08823 -0.178028,-0.110292 -0.314492,-0.183687 -0.252981,-0.12718 -0.521552,-0.227743 -0.802712,-0.269696 -0.05899,-0.0088 -0.11861,-0.01275 -0.177913,-0.0191 -0.310039,-0.02648 -0.619551,0.0028 -0.92618,0.04762 -0.245808,0.04032 -0.489259,0.09271 -0.728675,0.161391 -0.119317,0.03645 -0.06067,0.01786 -0.175959,0.05571 -0.590976,0.194802 -0.315486,1.030568 0.27549,0.835768 v 0 c 0.09302,-0.03081 0.04475,-0.01537 0.144883,-0.0461 0.201007,-0.05872 0.406098,-0.100875 0.612449,-0.136152 0.235551,-0.03494 0.473083,-0.06074 0.711574,-0.04249 0.09424,0.0079 0.116403,0.0067 0.209356,0.02669 0.155253,0.03334 0.30347,0.09347 0.445307,0.163764 0.09273,0.04817 0.119947,0.05928 0.206651,0.11606 0.133344,0.08732 0.245842,0.200101 0.348271,0.321513 0.0638,0.07925 0.09603,0.115645 0.152365,0.199875 0.08931,0.133527 0.163978,0.277505 0.216485,0.429421 0.02379,0.08153 0.03459,0.108432 0.04742,0.191492 0.02164,0.140245 0.0042,0.281895 -0.01804,0.420891 -0.05134,0.273072 -0.125032,0.542629 -0.234667,0.798463 -0.04374,0.09631 -0.0686,0.156651 -0.120002,0.248367 -0.08287,0.147865 -0.186579,0.283392 -0.313579,0.396097 -0.03453,0.02831 -0.06781,0.0582 -0.103574,0.08493 -0.219244,0.163885 -0.473575,0.274658 -0.730102,0.365397 -0.05557,0.01707 -0.110476,0.03642 -0.166698,0.05118 -0.08506,0.02233 -0.254698,0.05609 -0.343855,0.06633 -0.183192,0.02106 -0.368541,0.01482 -0.552021,0.003 -0.06182,-0.0055 -0.123854,-0.0089 -0.185444,-0.01656 -0.289065,-0.03582 -0.571307,-0.115716 -0.82609,-0.259059 -0.04098,-0.02656 -0.08415,-0.05003 -0.122952,-0.07969 -0.0438,-0.03348 -0.08379,-0.07174 -0.124209,-0.109238 -0.141824,-0.131588 -0.266236,-0.28144 -0.361037,-0.450543 -0.01844,-0.03968 -0.03875,-0.07855 -0.05532,-0.119044 -0.084,-0.20528 -0.128659,-0.425112 -0.114941,-0.647129 0.0032,-0.04591 0.0048,-0.09195 0.0096,-0.137726 0.02424,-0.232368 0.08542,-0.460708 0.17789,-0.675026 0.119782,-0.252241 0.258538,-0.494488 0.43901,-0.709068 0.145206,-0.172826 0.297815,-0.341114 0.483243,-0.472059 0.03862,-0.02611 0.114292,-0.0798 0.137081,-0.0833 0.598312,-0.170948 0.356557,-1.017088 -0.241755,-0.846143 z" />
    <path
       style="fill:#000000;fill-opacity:1;fill-rule:nonzero;stroke:none;stroke-width:0.264583"
       id="path14"
       d="m 96.25319,39.677744 c -0.365201,0.211516 -0.714155,0.44863 -1.063024,0.685647 -0.900517,0.610407 -1.777839,1.253985 -2.659367,1.891234 -0.947327,0.691758 -1.939766,1.317434 -2.940804,1.927566 -0.849103,0.519316 -1.705157,1.027006 -2.559939,1.536869 -0.431932,0.261916 -0.221054,0.13402 -0.632637,0.383686 -0.532024,0.322725 -0.07562,1.075121 0.456401,0.752395 v 0 c 0.409657,-0.248499 0.200647,-0.121724 0.627039,-0.380317 0.857191,-0.511305 1.715653,-1.020445 2.567156,-1.541224 1.020662,-0.622192 2.032363,-1.260512 2.99833,-1.965804 0.874607,-0.632251 1.74498,-1.270865 2.638393,-1.876534 0.339585,-0.230769 0.679262,-0.461502 1.034849,-0.667279 0.527672,-0.329795 0.06127,-1.076034 -0.466397,-0.746239 z" />
    <path
       style="fill:#000000;fill-opacity:1;fill-rule:nonzero;stroke:none;stroke-width:0.264583"
       id="path15"
       d="m 91.016226,43.585905 c -0.02737,0.365434 -0.02879,0.732769 -0.03945,1.099089 -0.01699,0.592701 -0.03829,1.18531 -0.0623,1.777773 -0.02207,0.446341 -0.05276,0.892172 -0.07516,1.338495 -0.01614,0.310491 -0.02,0.621448 -0.02434,0.932281 -0.0021,0.169865 -0.0011,0.08627 -0.003,0.25078 -0.007,0.622215 0.87291,0.632161 0.879943,0.0099 v 0 c 0.0019,-0.163129 7.94e-4,-0.08031 0.0029,-0.248465 0.0042,-0.30022 0.0078,-0.60057 0.02331,-0.900464 0.02252,-0.449141 0.05362,-0.897779 0.07554,-1.346954 0.02413,-0.595802 0.04558,-1.19175 0.06265,-1.787793 0.0094,-0.322259 0.01905,-0.645305 0.02564,-0.967271 0.111312,-0.612217 -0.754494,-0.769636 -0.865804,-0.157419 z" />
    <path
       style="fill:#000000;fill-opacity:1;fill-rule:nonzero;stroke:none;stroke-width:0.264583"
       id="path16"
       d="m 93.209482,42.041926 c -2.65e-4,0.355415 -5.29e-4,0.710808 0.0029,1.066207 0.01167,0.657032 0.04195,1.313514 0.06671,1.970133 0.0196,0.564261 0.0388,1.128524 0.06028,1.692719 0.0058,0.209376 0.01826,0.418465 0.03044,0.627536 0.03625,0.621197 0.91476,0.569926 0.878507,-0.05127 v 0 c -0.01188,-0.203139 -0.02405,-0.406296 -0.02958,-0.60974 -0.02148,-0.564089 -0.04065,-1.128247 -0.06027,-1.692404 -0.02445,-0.648433 -0.05434,-1.296731 -0.06612,-1.945569 -0.0035,-0.352533 -0.0031,-0.705062 -0.0028,-1.057611 0,-0.622255 -0.879999,-0.622255 -0.879999,0 z" />
    <path
       style="fill:#000000;fill-opacity:1;fill-rule:nonzero;stroke:none;stroke-width:0.264583"
       id="path17"
       d="m 95.497286,40.650062 c 0,0.27093 0,0.541864 0,0.812794 -0.0052,0.63803 0.01812,1.275691 0.04057,1.913189 0.0186,0.516938 0.03655,1.033899 0.05317,1.550906 0.0104,0.322527 0.01982,0.645085 0.02815,0.967673 0.0011,0.0421 0.0021,0.0842 0.0031,0.126294 0.01521,0.622067 0.89495,0.600551 0.879737,-0.02151 v 0 c -0.0011,-0.04251 -0.0021,-0.08502 -0.0031,-0.127529 -0.0084,-0.324427 -0.01786,-0.648827 -0.02831,-0.973196 -0.01664,-0.517898 -0.03461,-1.035751 -0.05326,-1.553583 -0.02207,-0.627184 -0.04523,-1.254527 -0.04003,-1.882235 0,-0.27093 0,-0.541864 0,-0.812794 0,-0.622255 -0.879999,-0.622255 -0.879999,0 z" />
  </g>
  <path
     style="fill:#000000;fill-opacity:1;fill-rule:nonzero;stroke:none;stroke-width:0.264583"
     id="path18"
     d="m 153.24361,42.847294 c 0.0102,0.667507 0.021,1.335069 0.0292,2.002634 0.0111,0.938594 0.0197,1.877211 0.0274,2.815839 0.005,0.676756 0.01,1.353521 0.0142,2.030288 0.002,0.35292 0.004,0.705839 0.005,1.058762 0.003,0.622247 0.88262,0.618532 0.87999,-0.0037 v 0 c -0.002,-0.353492 -0.003,-0.706986 -0.005,-1.060474 -0.004,-0.677355 -0.009,-1.354707 -0.0142,-2.03205 -0.008,-0.93984 -0.0163,-1.879672 -0.0274,-2.819477 -0.008,-0.663956 -0.0188,-1.327912 -0.0291,-1.991805 0,-0.622255 -0.88,-0.622255 -0.88,0 z" />
  <path
     style="fill:#000000;fill-opacity:1;fill-rule:nonzero;stroke:none;stroke-width:0.264583"
     id="path19"
     d="m 153.98069,45.990145 c -0.26871,-0.27636 -0.54857,-0.539946 -0.83773,-0.795703 -0.55484,-0.494374 -1.11095,-0.986279 -1.70844,-1.428763 -0.57945,-0.446905 -1.25844,-0.704506 -1.94807,-0.924669 -0.53788,-0.157416 -1.09375,-0.316994 -1.66098,-0.294664 -0.12319,0.0048 -0.24524,0.02548 -0.36786,0.03821 -0.54264,0.105035 -1.07792,0.294275 -1.52393,0.62892 -0.0862,0.0647 -0.16475,0.139068 -0.24713,0.2086 -0.45797,0.439076 -0.7606,0.993365 -1.01203,1.568207 -0.13343,0.359209 -0.28891,0.72385 -0.31987,1.110752 -0.0217,0.271685 0.003,0.348811 0.0392,0.61309 0.0839,0.38871 0.24824,0.756732 0.49688,1.068742 0.16261,0.204052 0.26578,0.285094 0.45662,0.460098 0.4055,0.323344 0.82993,0.638981 1.31185,0.840366 0.1049,0.04384 0.21386,0.07721 0.3208,0.115822 0.69935,0.23962 1.43842,0.185713 2.15779,0.08856 0.67557,-0.105899 1.30676,-0.369059 1.92184,-0.656785 0.50613,-0.241573 0.9827,-0.536792 1.46389,-0.823193 0.3674,-0.222618 0.74925,-0.418671 1.1263,-0.623745 0.14877,-0.08056 0.2994,-0.157485 0.44865,-0.237156 0.54886,-0.293167 0.13426,-1.06938 -0.4146,-0.776211 v 0 c -0.15136,0.0809 -0.30429,0.158676 -0.45509,0.240628 -0.38648,0.211 -0.77861,0.411575 -1.15535,0.640294 -0.45629,0.271595 -0.90767,0.552453 -1.38713,0.782503 -0.53455,0.250854 -1.08165,0.485584 -1.66847,0.581879 -0.57876,0.08138 -1.1793,0.14002 -1.74453,-0.04646 -0.50814,-0.174472 -0.92095,-0.436925 -1.33468,-0.778275 -0.32222,-0.288168 -0.57859,-0.572884 -0.67461,-1.008324 -0.0215,-0.123965 -0.0459,-0.22188 -0.0396,-0.348454 0.0156,-0.311912 0.15617,-0.603882 0.25717,-0.893506 0.19567,-0.454165 0.42793,-0.896003 0.77872,-1.251648 0.38404,-0.339434 0.7944,-0.531572 1.29918,-0.630632 0.0799,-0.01087 0.15925,-0.02843 0.23981,-0.03267 0.48542,-0.02551 0.96027,0.12147 1.42021,0.253606 0.59816,0.189722 1.18972,0.405058 1.69186,0.793768 0.57773,0.426181 1.11211,0.904383 1.64881,1.380533 0.31586,0.278857 0.6054,0.57509 0.9158,0.857205 0.50977,0.356838 1.01442,-0.364086 0.50465,-0.720926 z" />
  <path
     style="fill:#000000;fill-opacity:1;fill-rule:nonzero;stroke:none;stroke-width:0.264583"
     id="path20"
     d="m 153.97659,46.91856 c 0.37781,0 0.75561,0 1.13342,0 0.82857,0.003 1.65709,-0.0082 2.4856,-0.01622 0.90758,-0.0088 1.81329,-0.0705 2.71895,-0.124423 0.70459,-0.04389 1.40959,-0.07929 2.11544,-0.093 0.56134,-0.0073 1.12275,-0.007 1.68413,-0.0073 0.44003,-1.54e-4 0.88006,-9e-5 1.32008,-5.6e-5 0.41019,3.5e-5 0.82038,6.1e-5 1.23057,8.5e-5 0.36593,2.1e-5 0.73186,3.4e-5 1.09779,4.8e-5 0.32028,10e-6 0.64056,1.6e-5 0.96084,2.3e-5 0.28055,6e-6 0.5611,8e-6 0.84165,1.1e-5 0.46093,5e-6 0.92186,5e-6 1.38279,5e-6 0.88373,3e-6 1.76745,3e-6 2.65118,3e-6 1.15597,3e-6 2.31194,3e-6 3.46791,3e-6 0.84195,0.0024 1.68426,0.0016 2.52592,0.02611 0.55177,0.01767 1.10288,0.04936 1.65395,0.08148 0.42173,0.02037 0.84173,0.06573 1.26203,0.104675 0.0585,0.0052 0.11706,0.0104 0.17559,0.01561 0.61982,0.05505 0.69768,-0.821497 0.0779,-0.876548 v 0 c -0.0574,-0.0051 -0.11483,-0.01021 -0.17225,-0.01529 -0.43028,-0.03987 -0.86028,-0.08606 -1.29204,-0.106937 -0.55961,-0.03261 -1.11927,-0.06471 -1.6796,-0.0826 -0.85018,-0.02453 -1.70098,-0.02445 -2.55145,-0.02649 -1.15598,-3e-6 -2.31195,-3e-6 -3.46792,-3e-6 -0.88373,0 -1.76745,0 -2.65118,-2e-6 -0.46093,-3e-6 -0.92186,-3e-6 -1.38279,-6e-6 -0.28054,-2e-6 -0.56109,-7e-6 -0.84163,-1.3e-5 -0.32028,-5e-6 -0.64056,-1.3e-5 -0.96083,-2.4e-5 -0.36593,-1e-5 -0.73185,-2.3e-5 -1.09777,-4.5e-5 -0.41018,-2.3e-5 -0.82036,-5e-5 -1.23054,-8.4e-5 -0.44023,-3.7e-5 -0.88044,-9.8e-5 -1.32067,5.5e-5 -0.56695,2.65e-4 -1.13392,-3.9e-5 -1.70084,0.0075 -0.71754,0.01413 -1.43425,0.04962 -2.15052,0.09439 -0.89108,0.05305 -1.7822,0.114001 -2.67515,0.12291 -0.82568,0.008 -1.65137,0.01913 -2.4771,0.01619 -0.37781,0 -0.75561,0 -1.13342,0 -0.62225,0 -0.62225,0.880002 0,0.880002 z" />
  <path
     style="fill:#ff4400;fill-opacity:1;fill-rule:nonzero;stroke:none;stroke-width:0.264583"
     d="m 166.39747,26.526731 0.0288,-3.134008 v -1.578382 c 0,-0.622254 -0.88649,-0.543764 -0.88,0 l -3e-5,1.578383 -0.0288,3.134008"
     id="path26" />
  <path
     style="fill:#000000;fill-opacity:1;fill-rule:nonzero;stroke:none;stroke-width:0.264583"
     d="m 165.51744,26.526732 c -0.002,1.509428 0.008,0.412016 -0.018,1.921212 -0.0342,1.669706 -0.0637,3.339497 -0.0898,5.009349 -0.0222,1.420521 -0.0377,2.841135 -0.0515,4.26176 -0.0104,1.104765 -0.0187,2.209546 -0.0261,3.314335 -0.01,0.818578 -0.0252,1.637085 -0.0378,2.455629 -0.009,0.593103 -0.0138,1.186238 -0.031,1.779175 -0.007,0.213828 -0.0138,0.427643 -0.0207,0.641464 -0.0203,0.621924 0.85927,0.650576 0.87953,0.02865 v 0 c 0.007,-0.21486 0.0141,-0.429717 0.0208,-0.644585 0.0173,-0.59693 0.0222,-1.194052 0.0312,-1.79115 0.0126,-0.821092 0.0279,-1.642147 0.0379,-2.463276 0.007,-1.103908 0.0157,-2.207811 0.0261,-3.311697 0.0138,-1.418889 0.0293,-2.837768 0.0514,-4.256556 0.0261,-1.669299 0.0556,-3.338534 0.0898,-5.007684 0.0265,-1.514335 0.0164,-0.42206 0.0182,-1.936627"
     id="path22" />
  <path
     style="fill:#000000;fill-opacity:1;fill-rule:nonzero;stroke:none;stroke-width:0.264583"
     id="path23"
     d="m 165.64076,35.47582 c 0.42105,0.360056 0.81487,0.756147 1.21036,1.144942 0.78432,0.781931 1.55268,1.579772 2.30877,2.388986 0.71036,0.765787 1.42375,1.528691 2.12819,2.299952 0.5249,0.578038 1.04568,1.159782 1.57172,1.736802 0.39746,0.431202 0.79263,0.864534 1.19407,1.292042 0.31076,0.330412 0.62757,0.655204 0.95096,0.973267 0.20003,0.192858 0.39179,0.393766 0.57753,0.600321 0.13087,0.150175 0.26036,0.301493 0.39134,0.451575 0.40922,0.468757 1.07215,-0.109974 0.66292,-0.578734 v 0 c -0.13387,-0.153283 -0.26596,-0.308046 -0.39992,-0.461258 -0.19781,-0.219967 -0.40207,-0.433914 -0.61495,-0.639445 -0.31519,-0.309695 -0.62354,-0.626372 -0.92639,-0.948132 -0.3985,-0.424328 -0.79068,-0.854514 -1.18524,-1.282496 -0.52623,-0.57722 -1.04716,-1.159198 -1.57228,-1.737413 -0.70669,-0.773713 -1.42233,-1.539084 -2.13498,-2.307299 -0.76466,-0.818245 -1.54157,-1.625148 -2.33485,-2.415738 -0.31486,-0.309468 -0.34443,-0.340829 -0.65467,-0.637218 -0.22266,-0.212719 -0.44651,-0.439557 -0.70082,-0.616021 -0.0431,-0.02989 -0.0911,-0.0519 -0.1367,-0.07785 -0.57539,-0.236924 -0.91044,0.576791 -0.33506,0.813715 z" />
  <path
     style="fill:#ff4400;fill-opacity:1;fill-rule:nonzero;stroke:none;stroke-width:0.264583"
     id="path24"
     d="m 166.04252,22.23376 c 0.16964,0 0.33929,0 0.50893,0 0.30616,-3.96e-4 0.6123,-3.44e-4 0.91844,0.0025 0.31589,0.0062 0.6316,0.01846 0.94732,0.03002 0.29172,0.0081 0.58314,0.0186 0.87433,0.038 0.25554,0.01784 0.51121,0.03376 0.767,0.04754 0.2008,0.01044 0.40172,0.01848 0.60264,0.02589 0.14484,0.0053 0.28971,0.0097 0.4346,0.0131 0.14663,0.0032 0.29327,0.005 0.43992,0.0066 0.18318,0.0017 0.36636,0.0026 0.54955,0.0033 0.20896,7.94e-4 0.41793,0.0012 0.6269,0.0017 0.25411,4.76e-4 0.50822,6.62e-4 0.76233,8.47e-4 0.32928,-1.67e-4 0.65856,-8.2e-4 0.98778,0.0064 0.31509,0.0074 0.62981,0.02543 0.9446,0.04063 0.22552,0.01105 0.4511,0.02075 0.67673,0.02952 0.17062,0.0069 0.34133,0.01123 0.51205,0.01526 0.62208,0.01469 0.64285,-0.865065 0.0208,-0.879755 v 0 c -0.16626,-0.0039 -0.3325,-0.0082 -0.49867,-0.01484 -0.22287,-0.0087 -0.4457,-0.01824 -0.66847,-0.02916 -0.32251,-0.01556 -0.64496,-0.03395 -0.9678,-0.04144 -0.33542,-0.0073 -0.67091,-0.007 -1.0064,-0.0066 -0.25375,-1.72e-4 -0.50749,-3.71e-4 -0.76123,-8.2e-4 -0.20836,-3.97e-4 -0.41672,-8.73e-4 -0.62507,-0.0016 -0.18121,-7.14e-4 -0.36242,-0.0015 -0.54363,-0.0033 -0.14284,-0.0015 -0.28568,-0.0033 -0.4285,-0.0064 -0.14104,-0.0033 -0.28206,-0.0076 -0.42305,-0.01276 -0.19596,-0.0072 -0.3919,-0.01505 -0.58773,-0.02521 -0.25209,-0.01357 -0.50405,-0.02929 -0.7559,-0.04688 -0.29992,-0.01993 -0.60008,-0.03112 -0.90054,-0.03936 -0.32378,-0.01186 -0.64756,-0.0244 -0.97151,-0.03058 -0.30882,-0.0028 -0.61763,-0.0029 -0.92646,-0.0025 -0.16965,0 -0.33929,0 -0.50894,0 -0.62225,0 -0.62225,0.88 0,0.88 z" />
  <path
     style="fill:#ff4400;fill-opacity:1;fill-rule:nonzero;stroke:none;stroke-width:0.264583"
     id="path25"
     d="m 165.59933,22.194224 c 0.0724,0.1725 0.15143,0.342175 0.23082,0.511552 0.10998,0.244525 0.23745,0.480165 0.37489,0.710169 0.17417,0.295876 0.39347,0.529453 0.64777,0.757214 0.20651,0.171349 0.42627,0.330319 0.66408,0.455911 0.16438,0.08681 0.24287,0.114872 0.41334,0.185666 0.28049,0.112864 0.56879,0.199861 0.86928,0.237731 0.15243,0.01921 0.29019,0.02397 0.44299,0.03211 0.3834,0.02138 0.76271,-0.02727 1.13744,-0.103156 0.38467,-0.07691 0.72956,-0.262977 1.05997,-0.466749 0.32073,-0.204843 0.55031,-0.456435 0.7666,-0.765406 0.16861,-0.259689 0.31882,-0.530701 0.46535,-0.803266 0.11429,-0.207499 0.21007,-0.424031 0.29563,-0.644689 0.0116,-0.03246 0.0232,-0.06493 0.0348,-0.09739 0.20832,-0.586348 -0.6209,-0.880955 -0.82922,-0.294607 v 0 c -0.009,0.02487 -0.0175,0.04975 -0.0263,0.07462 -0.072,0.186827 -0.15307,0.369962 -0.24996,0.5454 -0.13097,0.243643 -0.26493,0.485955 -0.41389,0.719181 -0.13824,0.203219 -0.29723,0.384526 -0.50659,0.518193 -0.24126,0.150503 -0.49111,0.294482 -0.77279,0.352585 -0.30143,0.06251 -0.60635,0.10332 -0.91516,0.08648 -0.17141,-0.0087 -0.34718,-0.01201 -0.51628,-0.04487 -0.17427,-0.03387 -0.34046,-0.09946 -0.50659,-0.159814 -0.11173,-0.04557 -0.203,-0.07972 -0.30982,-0.134844 -0.18554,-0.09575 -0.35651,-0.219085 -0.51796,-0.3506 -0.18433,-0.162485 -0.35322,-0.337526 -0.47761,-0.551717 -0.12264,-0.2044 -0.23559,-0.414214 -0.33321,-0.631849 -0.0826,-0.17602 -0.16302,-0.353051 -0.24044,-0.531406 -0.27828,-0.556561 -1.06538,-0.163013 -0.78709,0.393548 z" />
</svg>
