<?xml version="1.0" encoding="UTF-8" standalone="no"?>
<svg
   id="svg2369"
   version="1.1"
   viewBox="0 0 183.19007 71.264923"
   height="71.264923mm"
   width="183.19006mm"
   sodipodi:docname="33 meli li toki e nimi mute..svg"
   inkscape:version="1.3 (0e150ed6c4, 2023-07-21)"
   xmlns:inkscape="http://www.inkscape.org/namespaces/inkscape"
   xmlns:sodipodi="http://sodipodi.sourceforge.net/DTD/sodipodi-0.dtd"
   xmlns="http://www.w3.org/2000/svg"
   xmlns:svg="http://www.w3.org/2000/svg"
   xmlns:rdf="http://www.w3.org/1999/02/22-rdf-syntax-ns#"
   xmlns:cc="http://creativecommons.org/ns#"
   xmlns:dc="http://purl.org/dc/elements/1.1/">
  <sodipodi:namedview
     id="namedview1"
     pagecolor="#ffffff"
     bordercolor="#000000"
     borderopacity="0.25"
     inkscape:showpageshadow="2"
     inkscape:pageopacity="0.0"
     inkscape:pagecheckerboard="0"
     inkscape:deskcolor="#d1d1d1"
     inkscape:document-units="mm"
     inkscape:zoom="1.5537536"
     inkscape:cx="519.38738"
     inkscape:cy="88.495371"
     inkscape:window-width="1920"
     inkscape:window-height="1051"
     inkscape:window-x="-9"
     inkscape:window-y="-9"
     inkscape:window-maximized="1"
     inkscape:current-layer="svg2369" />
  <defs
     id="defs2363" />
  <metadata
     id="metadata2366">
    <rdf:RDF>
      <cc:Work
         rdf:about="">
        <dc:format>image/svg+xml</dc:format>
        <dc:type
           rdf:resource="http://purl.org/dc/dcmitype/StillImage" />
        <dc:title />
      </cc:Work>
    </rdf:RDF>
  </metadata>
  <g
     transform="translate(-108.35799,-28.949654)"
     id="layer1">
    <g
       transform="matrix(-0.26458333,0,0,0.26458333,128.74899,24.157521)"
       id="g3721">
      <path
         style="opacity:0.2"
         d="m 64.8,232 c 19.4,-9.4 1.8,-21.9 -17.4,-25.3 -8.4,-1.5 -13.5,-14.9 -34.6,-1.6 -16.9,10.8 0,17.9 8.6,22 12,5.5 25.3,13.6 43.4,4.9 z"
         id="path3666" />
      <path
         style="fill:#fbd7c7"
         d="m 23.3,93.5 c 0,0 -2,9.7 -3.1,12.8 -1.2,3 -2,7.7 -1.5,11.1 0.5,3.4 2.1,10.4 2.7,11.5 0.7,1.1 3.2,3.6 4,4 0.8,0.4 2.4,-14.9 2.4,-14.9 z"
         id="path3668" />
      <path
         style="fill:#e5e5e5"
         d="m 19,108.7 4.1,2.2 1.6,-12 L 23.8,84 c 0,0 -2.3,5.6 -3.2,11.5 -0.9,5.8 -0.7,9.1 -0.7,9.1 z"
         id="path3670" />
      <path
         style="fill:#825012"
         d="m 27.2,201.6 c 0,0 2.2,2.9 6.2,2.3 4,-0.5 7.9,-2.1 7.9,-2.1 0,0 1.1,6.3 -0.7,7.9 -1.8,1.6 -8.5,1.9 -11.4,3.3 -2.9,1.4 -6.9,4.2 -11.2,4.5 -9.2,0.7 -7.8,-6.8 -3.6,-8.7 3.3,-1.4 6.7,-3 8.8,-4.2 2.1,-1.1 4,-3 4,-3 z"
         id="path3672" />
      <path
         style="opacity:0.4"
         d="m 41.6,207.4 c -2.7,1.3 -8.3,2.4 -11.1,3 -3.4,0.6 -9.7,5.7 -14.1,5.8 -3.1,0.1 -4.9,-1.3 -4.9,-4 -1,2.7 0.4,5.9 6.6,5.5 4.3,-0.3 8.3,-3.1 11.2,-4.5 2.9,-1.4 9.6,-1.6 11.4,-3.3 0.5,-0.6 0.7,-1.5 0.9,-2.5 z"
         id="path3674" />
      <path
         style="fill:#825012"
         d="m 53.9,214.6 c 0,0 2.4,2.1 5.7,1.7 3.3,-0.4 7.9,-3.8 8.2,-2.1 0.3,1.7 2,5.2 0.6,6.3 -1.4,1.1 -9.1,5.7 -10.4,7.1 -1.4,1.4 -5.6,4.8 -9.9,5.3 -4.8,0.5 -9.2,-1.3 -9.2,-4.8 0,-4.1 6.6,-6.9 9.4,-8.8 2.7,-2.1 5.6,-4.7 5.6,-4.7 z"
         id="path3676" />
      <path
         style="opacity:0.4"
         d="m 57.9,227.5 c 1.4,-1.4 9.1,-6 10.4,-7.1 0.7,-0.5 0.6,-1.6 0.4,-2.7 -2,1.7 -5.9,3.7 -9.5,5.9 -5.2,3.3 -6.2,7.4 -13.4,7.7 -5,0.2 -6.9,-2.2 -6.9,-4.6 -0.1,0.4 -0.2,0.8 -0.2,1.2 0,3.5 4.4,5.4 9.2,4.8 4.4,-0.4 8.6,-3.8 10,-5.2 z"
         id="path3678" />
      <path
         style="fill:#baa794"
         d="m 22.9,109.3 c -1,3.9 -0.6,15.3 0.2,21.4 0.8,6 1.7,19.1 3.2,31.7 1,8.5 -0.7,31.9 -1.9,37.4 -0.7,3.7 -3.4,6.2 1,7.7 4.8,1.7 10,2 15.1,0.5 2.2,-0.6 1.7,-2.8 1.8,-6.3 0.1,-4.7 1.5,-15.8 1.9,-19.9 0.4,-4.1 0.7,-9.4 0.9,-14 0.3,-4.6 1.7,-20.7 2.2,-24.4 0.5,-3.7 0.5,-32.6 0.5,-32.6 z"
         id="path3680" />
      <path
         style="opacity:0.2"
         d="m 22.9,109.3 c -1,3.9 -0.6,15.3 0.2,21.4 0.8,6 1.7,19.1 3.2,31.7 1,8.5 -0.7,31.9 -1.9,37.4 -0.7,3.7 -3.4,6.2 1,7.7 4.8,1.7 10,2 15.1,0.5 2.2,-0.6 1.7,-2.8 1.8,-6.3 0.1,-4.7 1.5,-15.8 1.9,-19.9 0.4,-4.1 0.7,-9.4 0.9,-14 0.3,-4.6 1.7,-20.7 2.2,-24.4 0.5,-3.7 0.5,-32.6 0.5,-32.6 z"
         id="path3682" />
      <path
         style="fill:#baa794"
         d="m 30.4,109.5 c 0,0 -1.5,8.2 2.2,12.8 3.7,4.6 8.6,6.7 8.5,9.9 -0.1,3.3 2.9,21.3 5,27.4 2.1,6.1 2.6,14.4 3.3,20.2 0.7,5.8 1.5,21.9 1.2,26.2 -0.3,5.6 -1.8,10.8 -2.2,12.8 -0.3,1.4 5,3.5 8.2,3.7 5.4,0.3 8.3,-1.5 10.4,-3 1.9,-1.3 1.8,-1.5 1.7,-4.6 -0.1,-3.1 -0.7,-31.8 -1.2,-39 -0.5,-7.2 2.4,-38.8 2.2,-45.2 -0.5,-11.6 -4.1,-22.1 -4.1,-22.1 z"
         id="path3684" />
      <path
         style="fill:#e5e5e5"
         d="m 49.1,46.1 c -8.4,-0.5 -15.3,-2.4 -18.2,2.4 -2.9,4.8 -2.7,7.9 -4.1,10.2 -1.4,2.3 -4.3,8.8 -4.2,13.4 0.1,4.6 1.4,7.3 0.8,9.9 -0.7,2.6 -1.5,11.7 -1.6,15.2 -0.2,6.8 -0.6,13.1 0.5,14.8 1.7,2.6 16.6,4.1 27.2,2.8 12,-1.4 19.9,-5.1 19.9,-6.2 0,-1.1 -4.7,-13.4 -5.5,-15 C 57.3,79.8 74,75.2 73.9,74.5 73.8,72.5 74.6,65.9 74.1,63 73.6,60.1 70,55.4 67.4,53 64.8,50.5 60.6,46.5 57.7,45.7 55,44.9 49.1,46.1 49.1,46.1 Z"
         id="path3686" />
      <path
         style="fill:#fbd7c7"
         d="m 58.1,78.2 c 0,0 5.2,0.4 9.1,-0.8 3.9,-1.2 6,-2.4 6,-2.4 0,0 1.3,12.9 2.3,15.6 1,2.7 0.9,7.3 -0.5,12.6 -1.4,5.3 -4.1,23.6 -4,26.4 0.1,2.8 -0.2,6.3 -0.7,8.3 -0.5,2 -1.9,5.8 -4.5,7.3 -3,1.7 -6.4,1.4 -7.6,0.4 -1.9,-1.5 1.9,-7.3 1.1,-8.1 -0.8,-0.8 -2.4,-0.6 -2.9,0.7 -0.5,1.3 -2.4,2.7 -3.4,2 -1,-0.7 0.2,-1.8 0.8,-2.9 0.6,-1.2 2,-3.9 3.4,-4.8 1.4,-0.9 4,-1.4 4.6,-3.8 0.6,-2.5 0,-13 0.6,-18.5 C 63,104.7 65.3,99.7 65.2,98.6 65.1,97.5 61.6,89.4 60,84.5 58.5,80.1 58.1,78.2 58.1,78.2 Z"
         id="path3688" />
      <path
         style="fill:#fbd7c7"
         d="m 35.5,24.5 c -2.8,4.3 -1.3,14.8 -0.9,17.5 0.4,2.6 1.1,5.4 3,6.2 1.9,0.7 3.6,1.5 3.6,2.7 0,1.2 -3,3.9 -1.7,4.7 1.3,0.8 8.5,0.9 14.5,-1.5 5.6,-2.3 7.2,-5 6.4,-6 -0.7,-0.9 -4.2,-2.9 -4.2,-5.9 0.1,-3.1 3.1,-7.8 3.2,-12.4 0.1,-9.1 -13.3,-14.6 -21.1,-8.3 -1,0.7 -2,1.7 -2.8,3 z"
         id="path3690" />
      <path
         style="fill:#999999"
         d="m 49.1,20.1 c 5.6,3.1 -3.8,6.8 -1.6,9 1.9,1.8 1.9,7.3 2.9,9 1.2,2.1 2.4,-2.3 3.5,-3.4 1,-1 2.8,-1.2 3.3,0.3 0.5,1.5 -0.4,3.7 -0.5,4.3 C 58.3,39 60.4,33.6 60,27.9 59.6,21.1 49.9,14.7 39.4,20.6 c -2.1,1.2 -2.8,2.5 -1.7,1.6 2,-1.6 7.9,-4.1 11.4,-2.1 z"
         id="path3692" />
      <path
         style="opacity:0.2"
         d="m 57.6,78.2 c 0,0 2.8,13.9 2.7,17.9 -0.1,4 -4.3,17.7 -4.3,17.7 l 9.9,-2.4 2.9,-15.8 z"
         id="path3694" />
      <path
         style="fill:#e5e5e5"
         d="m 61.2,120.9 c 0.2,1.6 0.6,5.3 0.6,5.3 l -0.8,3.3 c 0,0 5.2,-0.1 6.9,0.8 1.6,0.9 3.4,2.1 3.4,2.1 V 127 c 0,0 4.1,-14 5.2,-18.9 1.1,-4.8 0.3,-13.7 0.1,-15.3 C 76.3,91.2 74.4,73.2 74.4,70 74.4,66.8 74,63.5 74,63.5 L 54.5,70 c 0,0 7.2,18.5 7.9,23 0.7,4.6 -2.1,19.2 -1.2,27.9 z"
         id="path3696" />
    </g>
    <g
       transform="matrix(0.26458333,0,0,0.26458333,113.08567,17.648771)"
       id="g3628">
      <path
         style="fill:#fbd7c7"
         d="m 140,131.5 c 0,0 -1.6,3 -2.2,5.1 -0.6,2.1 -1.7,8.6 -1.6,9.7 0.1,1.1 4.1,8.4 5.8,9.2 1.7,0.8 2,-10.2 2,-10.2 l -0.5,-4.8 2.7,-5.6 z"
         id="path3572" />
      <path
         style="opacity:0.2"
         d="m 143.9,224.7 c -11.8,7.6 -12.4,14.4 0,21 13.5,7.2 22.4,3.3 32.9,-2.7 10.5,-6 11.8,-13.4 -3.6,-19.6 -12.5,-5 -20.4,-4.4 -29.3,1.3 z"
         id="path3574" />
      <path
         style="opacity:0.2"
         d="m 51,282.8 c -11.8,7.6 -32,14.4 -13.7,25.5 17.1,10.4 33.9,-3.4 46,-9.8 C 101,289 110.1,280.8 99.3,274 88.1,267.1 58,278.3 51,282.8 Z"
         id="path3576" />
      <path
         style="fill:#fbd7c7"
         d="m 141.5,142.8 c -0.4,3.3 -1.6,26.2 0,32.2 1.6,6 2.2,8.8 2.6,11 0.4,2.2 1.8,4.1 2.5,7.6 0.7,3.5 3.7,15.1 2.7,19.6 -0.9,4.6 -1.4,11.7 -4.5,15.6 -3,3.9 -8,6.8 -4.8,8 3.1,1.2 6.7,0.4 8.1,-0.5 1.4,-0.9 5.2,-6.5 8.4,-7.7 3.1,-1.2 6.3,-2.9 6,-6 -0.3,-3.1 -3.1,-3.8 -3.3,-7.6 -0.1,-3.8 4.5,-14.3 3.1,-21.3 -1.4,-7 -3.4,-10.5 -3.4,-10.5 l 2.4,-16.2 c 0,0 1.7,18.9 1.8,20.5 0.1,1.6 1,4.7 1,4.7 0,0 -0.3,8.1 0.3,12.7 0.6,4.6 3.8,13.2 2,20 -1.8,6.8 -1.4,8 -3.9,11.1 -2.5,3.1 -7.2,5.6 -3.8,7.3 3.4,1.7 7.3,2.5 9.9,-1.8 2.6,-4.3 5.5,-5.9 6.9,-7.2 1.4,-1.3 1.8,-2.2 0.8,-6.3 -1,-4.1 -1,-9.4 0.4,-13.6 1.4,-4.2 4.7,-15.4 4.8,-20.2 0.1,-4.7 -2.2,-9.4 -2.2,-9.4 0,0 4.3,-15.1 5.5,-26.8 1.2,-11.8 1,-20.4 -1,-25.5 -2,-5.2 -42.3,10.3 -42.3,10.3 z"
         id="path3578" />
      <path
         style="fill:#e5e5e5"
         d="m 164.8,230.2 c 0,0 1.6,1.7 4.2,1.8 3,0.1 6.1,-1.6 6.6,-2.9 0.7,-1.7 0.3,-4.3 0.3,-4.3 0,0 2.8,2.3 2.8,5.1 0,2.5 -1.8,5.5 -1.9,6.5 -0.1,1 0.1,3.5 0.1,3.5 l -1.8,1 -3,-1.4 c 0,0 -0.9,2.9 -2.9,4.4 -2,1.4 -6.8,4.2 -11.3,2.5 -4.5,-1.7 -2,-5.6 -0.9,-6.9 1.1,-1.3 5,-4 6,-5.9 1.2,-2.3 1.8,-3.4 1.8,-3.4 z"
         id="path3580" />
      <path
         style="fill:#e5e5e5"
         d="m 147,223 c 0,0 2.4,2.4 5.2,2.3 2.1,-0.1 5.3,-1.5 6.4,-3.4 0.9,-1.6 1.4,-4.6 1.4,-4.6 0,0 2.7,1.6 2.7,5.2 0,3.2 -2.3,6.3 -2.4,8.5 -0.1,2.2 0,1.3 0,1.3 l -2.4,1.2 -2.4,-1.2 c 0,0 0.8,-2.5 0,-2 -0.8,0.5 -3.3,4.2 -5.1,5.9 -1.8,1.7 -5.8,4 -9.4,2.9 -3.6,-1.1 -3.4,-4.8 -1.3,-6.6 1.8,-1.6 4.1,-2.8 5.4,-5.2 1.2,-2.3 1.9,-4.3 1.9,-4.3 z"
         id="path3582" />
      <g
         style="opacity:0.4"
         id="g3588">
        <path
           d="m 160.1,232.3 v 0 c 0,0.4 0,0 0,0 z"
           id="path3584" />
        <path
           d="m 162.6,222.5 c 0,0 0,-0.1 0,-0.1 -0.4,1.5 -1.2,2.5 -3.1,4 -2.2,1.8 -4,3.3 -6.1,5.8 -2.1,2.6 -6,6 -10.7,6 -2.7,0 -4.7,-1.9 -4.4,-3.8 -0.6,1.8 0.1,3.8 2.6,4.6 3.6,1.1 7.7,-1.2 9.4,-2.9 1.8,-1.7 4.3,-5.4 5.1,-5.9 0.8,-0.5 0,2 0,2 l 2.4,1.2 2.3,-1.2 c 0,-0.2 0,-0.6 0.1,-1.3 0.1,-2.1 2.4,-5.2 2.4,-8.4 z"
           id="path3586" />
      </g>
      <path
         style="opacity:0.4"
         d="m 169.3,243.9 c 2,-1.4 2.9,-4.4 2.9,-4.4 l 3,1.4 1.8,-1 c 0,0 -0.2,-2.5 -0.1,-3.5 0,-0.9 1.5,-3.3 1.8,-5.7 -0.2,0.4 -0.4,0.8 -0.7,1.2 -1.4,2.3 -3.7,3.4 -6.5,8.1 -2.6,4.5 -9.3,5.9 -12,5.4 -2.2,-0.4 -3.7,-1.3 -4,-2.7 -0.2,1.3 0.4,2.7 2.6,3.5 4.4,1.9 9.2,-0.9 11.2,-2.3 z"
         id="path3590" />
      <path
         style="fill:#06547a"
         d="m 140.6,142.1 c -0.3,2.1 -1.3,27.5 -0.3,33.8 2,12.5 5,17.6 6.7,29.8 0.3,2.5 0.6,7.7 0.6,7.7 0,0 5.5,0.6 8.1,0.4 4.2,-0.4 5.5,-0.8 5.5,-0.8 0,0 1.7,-6.7 1.8,-16.8 0,-3.7 -3.3,-13.2 -3.3,-13.2 l 1.6,-8.4 -3,-32.8 c -9.5,-0.2 -17.7,0.3 -17.7,0.3 z"
         id="path3592" />
      <path
         style="opacity:0.15"
         d="m 140.6,142.1 c -0.3,2.1 -1.3,27.5 -0.3,33.8 2,12.5 5,17.6 6.7,29.8 0.3,2.5 0.6,7.7 0.6,7.7 0,0 5.5,0.6 8.1,0.4 4.2,-0.4 5.5,-0.8 5.5,-0.8 0,0 1.7,-6.7 1.8,-16.8 0,-3.7 -3.3,-13.2 -3.3,-13.2 l 1.6,-8.4 -3,-32.8 c -9.5,-0.2 -17.7,0.3 -17.7,0.3 z"
         id="path3594" />
      <path
         style="fill:#06547a"
         d="m 165.1,220 c 0,0 3.5,1.1 6.8,0.9 4.7,-0.3 7.7,-1.9 7.7,-1.9 0.1,0.7 1.9,-14.1 2.6,-21.6 0.5,-5 -1.2,-9.8 -0.9,-12.4 0.3,-2.6 7.3,-29.1 6.3,-37.3 -0.6,-4.8 -43.1,-31.6 -40.5,-5.5 1.1,11.1 7.4,12 9.8,16.4 3.6,6.6 3.9,12.4 4.2,16 0.6,6.3 2.5,22.7 2.9,27 0.4,4.3 1.1,18.4 1.1,18.4 z"
         id="path3596" />
      <path
         style="fill:#993399"
         d="m 143,109.3 c 0,0 -1.9,8.4 -2.9,23.8 -0.1,2.3 0,5.7 -0.1,9.7 -0.1,6.6 11.1,10.9 22.5,11.6 12.5,0.8 25.4,-0.6 25.8,-6.8 1.1,-14.8 -9.3,-28.5 -10.6,-34.3 -1.3,-5.8 6.7,-8.6 6.7,-8.6 0,0 -2,-4.7 -1.5,-11.6 0.5,-6.9 -5.4,-9.9 -7.5,-11.3 -1.7,-1.2 -17.3,-8.4 -19.8,-9.1 -2.5,-0.7 -7.1,-0.9 -8.2,3.5 -1.2,4.5 0,9.2 -1.4,10.9 -1.4,1.7 -6.5,8.1 -6.3,12.4 0.1,4.4 3.3,9.8 3.3,9.8 z"
         id="path3598" />
      <path
         style="fill:#fbd7c7"
         d="m 158,47.1 c -5.3,3.5 -5.8,10.8 -5.6,15.8 0.2,5 0.3,9.1 2.2,10.8 1.9,1.7 2.1,2.4 2.3,3.6 0.2,1.2 -5.7,5.7 -0.6,8 5.1,2.2 6.9,-0.3 10.9,-2.1 4.3,-1.9 7.6,-1.6 7.6,-1.6 0,0 -2.6,-4.7 -2.4,-8.1 0.2,-3.3 1,-5.8 2.6,-9.3 1.6,-3.5 4.2,-12.7 -1.1,-16.4 -5.2,-3.5 -12.3,-3 -15.9,-0.7 z"
         id="path3600" />
      <path
         style="fill:#656565"
         d="m 171.4,45.4 c 0,0 -3.4,-4.2 -10.2,-2.1 -6.8,2.1 -8.2,7.9 -8.2,7.9 l 2.7,-1.8 -1.6,3.5 2.5,-2.1 c 0,0 -1.1,2.6 -1.1,2.5 0,-0.2 2.6,-2.1 2.6,-2.1 0,0 -1.8,4.6 -1.8,4.4 0.1,-0.2 6.5,-6.2 6.5,-6.2 l -3.4,7.2 1.6,-0.5 -1.5,7.3 1.5,-2.5 0.3,5.7 1.8,-6.2 1,4.3 1.1,-4.1 1.4,6.8 1.3,-3.5 0.9,3 1.8,-4.5 0.4,1.8 1.5,-2.7 0.2,1.6 1,-0.2 -2,7.5 1.9,-3.7 -0.6,6.3 3.1,-7.2 0.3,1.6 1.6,-6.7 0.3,3.2 0.6,-4.9 0.9,0.9 -0.7,-4.3 1,0.6 -1.9,-3.6 1.3,0.5 c 0,-0.2 -1.9,-8 -8.1,-7.7 z"
         id="path3602" />
      <path
         style="opacity:0.15"
         d="m 170.9,102.4 c 0,0 -6.7,8.3 -15.4,7.1 -9.2,-1.3 -2.7,-14.5 -2.7,-14.5 0,0 -8,14.1 -12.9,6.3 0.9,4 3.2,8 3.2,8 0,0 0,0 0,0 1.8,1.2 3.2,0.9 5.6,-2 1.8,12.4 21.9,6.1 24.9,3.3 -0.8,-2.7 -2.7,-8.2 -2.7,-8.2 z"
         id="path3604" />
      <path
         style="fill:#fbd7c7"
         d="m 186.2,120.6 c -0.7,-3.5 -2.2,-13.2 -2.9,-15.5 l -10.7,2.5 c 0.1,0.3 0.1,0.3 0.2,0.6 1,2.6 3.3,14.4 3.5,15.3 0.2,0.9 -2,3.3 -3,5.6 -2.7,6.1 -3.3,13.9 -3.7,15.5 -0.5,1.6 -1.6,2.9 -2.9,3.8 -1.3,0.9 -5.3,4.7 -5.7,5.8 -0.3,0.7 -1.3,4.8 -0.7,6.3 0.6,1.5 4.8,3 5.8,3 1,0 1,-1.4 1,-1.4 0,0 -1.1,-1.8 -1.2,-3.4 -0.1,-1.6 1.2,-2.7 4.3,-5 3.1,-2.3 3.4,-5.4 7,-11.1 3.6,-5.7 6.6,-9.9 7.8,-12.6 1.2,-2.9 1.5,-7.8 1.2,-9.4 z"
         id="path3606" />
      <path
         style="fill:#825012"
         d="m 71.6,263 c 0,0 7.4,1.9 7.4,4.1 0,1.1 0,4.8 0,5.8 0,1.9 -3.9,3.1 -3.9,5 0,2.4 4.8,3.9 6,3.5 1.3,-0.4 2.1,-1 2.1,-3.3 0,-2.3 0.8,-12.1 1.1,-15.1 0.3,-3 -0.9,-12.3 -0.9,-12.3 z"
         id="path3608" />
      <path
         style="opacity:0.2"
         d="m 71.6,263 c 0,0 7.4,1.9 7.4,4.1 0,1.1 0,4.8 0,5.8 0,1.9 -3.9,3.1 -3.9,5 0,2.4 4.8,3.9 6,3.5 1.3,-0.4 2.1,-1 2.1,-3.3 0,-2.3 0.8,-12.1 1.1,-15.1 0.3,-3 -0.9,-12.3 -0.9,-12.3 z"
         id="path3610" />
      <path
         style="fill:#825012"
         d="m 16,232.8 c 1.4,-0.5 6.6,-2.3 6.7,-3.3 0.1,-1 0,-2.6 1.2,-3.1 1.2,-0.6 2.3,-3.5 3.9,-3.8 1.6,-0.3 2.3,0.1 5.2,1 2.9,0.9 6.4,2.8 8.6,4.4 2.3,1.7 3.4,3.3 4.9,5.6 1.5,2.3 2,2.9 1.8,3.5 -0.2,0.6 -0.7,0.3 -0.3,1.2 0.5,1.4 0.8,3.1 2.5,3.5 5.9,1.6 19.6,-8 23.1,-9.1 8.4,-2.7 16.6,1.5 20.8,5 2.8,2.3 5.4,8.4 7.4,12.4 2,4 5.6,4.5 5.2,6.2 -0.2,0.7 -1.2,1.3 -3.4,0.4 -2.7,-1.1 -8.8,-7.8 -8.8,-7.8 0,0 0.8,2.5 -0.4,5.8 -1.2,3.3 -3.1,8.8 -1.5,10.6 1.7,1.8 3.9,3.7 4.1,5.6 0.2,1.9 1,15.2 1,15.8 0,0.6 -0.4,1.9 -1.7,2.3 -3.8,1.2 -8.4,-1.4 -7.8,-3.7 0.7,-2.4 3.3,-1.8 3.3,-5.2 0,-1.3 -0.3,-5 -0.6,-5.7 -0.3,-1 -1.4,-2 -2.7,-2.5 -1.1,-0.4 -6.1,-3.1 -7.1,-6.3 -1,-3.2 -1.5,-6.6 -3.1,-6.9 -1.6,-0.2 -7.3,9.1 -12,12.3 -4.7,3.2 -7.9,3.4 -7.9,3.4 0,0 -0.9,15.5 -0.9,18.5 0,3 2.1,6.2 2.5,8.1 0.4,2.1 0.8,5.6 -1.8,7.3 -3.1,2 -7,0.1 -7.9,-0.9 -0.8,-1 -1,-3.1 0.3,-4.3 1.3,-1.2 2.7,-2.3 2.3,-2.8 -0.4,-0.6 -2.1,-3.4 -2.4,-5.2 -0.4,-2.7 -0.8,-14.3 -4.1,-16.4 -1,-0.6 -3.4,-0.9 -4.1,0.1 -0.6,1 -0.6,7.2 -0.6,8.3 0,1.6 2.3,5 2.3,7.7 0,2.7 -1,4.2 -3.4,5.1 -1.9,0.6 -4.5,0.2 -6.4,-2.3 -1.2,-1.6 -0.3,-3.3 1,-4.1 0.8,-0.5 1.9,-0.7 2,-1.8 0.1,-1.1 -1.5,-2.7 -1.5,-4.7 0,-2 -0.8,-10 -0.8,-11 0,-3.2 -5.4,-6.3 -7.3,-13 -1,-3.3 -0.2,-7 -0.5,-9.8 -0.2,-1.7 -0.5,-9.2 -3.7,-9.9 -1.2,-0.3 -6.3,-0.2 -7.8,-1.8 -1.1,-1.2 -1.7,-2.7 -1.4,-4.6 0.8,-1.7 1.8,-4.1 1.8,-4.1 z"
         id="path3612" />
      <path
         style="fill:#262626"
         d="m 32.4,234.7 c 0,0 -0.6,-1.6 -2,-2.4 -1.3,-0.8 -2.7,0.7 -1,2 1.5,1.2 3,0.4 3,0.4 z"
         id="path3614" />
      <path
         style="fill:#262626"
         d="m 19.4,235.1 c 0.2,-1.5 -0.8,-2.2 -2.8,-2.7 -1.2,-0.2 -2.5,0.4 -2.5,1.9 0,2.1 1.8,3.7 1.8,3.7 0,0 3.2,0 3.5,-2.9 z"
         id="path3616" />
      <path
         style="fill:#262626"
         d="m 22.9,228 c 0,0 1,0.5 0.3,1.3 -0.8,0.9 -0.3,-1.3 -0.3,-1.3 z"
         id="path3618" />
      <path
         style="fill:#262626"
         d="m 166.7,159.5 -6.8,-1.5 c -0.3,-0.1 -0.5,-0.4 -0.5,-0.7 0.1,-0.3 0.4,-0.5 0.7,-0.4 l 4.7,1.1 -4.8,-2 c -0.3,-0.1 -0.5,-0.5 -0.3,-0.8 0.1,-0.3 0.5,-0.4 0.8,-0.3 l 6.6,2.7 z"
         id="path3620" />
      <path
         style="fill:#262626"
         d="m 49.1,241.2 c -0.2,0 -0.4,-0.1 -0.5,-0.3 -0.2,-0.3 -0.1,-0.6 0.2,-0.8 l 117.1,-81.8 c 0.3,-0.2 0.6,-0.1 0.8,0.1 0.2,0.3 0.1,0.6 -0.2,0.8 L 49.4,241.1 c -0.1,0.1 -0.2,0.1 -0.3,0.1 z"
         id="path3622" />
      <path
         style="fill:#262626"
         d="m 26.8,248.6 c 0,0 2.4,1.3 6.1,1.4 3.7,0 7,-1.5 8.8,-3.3 1.8,-1.8 6.7,-7.1 6.7,-7.1 l 1.7,1.8 c 0,0 -5.8,7.4 -8.3,8.9 -2.5,1.5 -5.2,2.8 -9,2.7 -3.8,-0.1 -5.5,-1.2 -5.5,-1.2 z"
         id="path3624" />
      <path
         style="opacity:0.2"
         d="m 36.9,233.2 c 0,0 -4.1,15.3 0.6,15.2 2.4,-0.1 10.2,-10.9 10.2,-10.9 0,0 -4.6,13.7 -11.1,13.7 -6.4,0.1 0.3,-18 0.3,-18 z"
         id="path3626" />
    </g>
  </g>
  <path
     d="m 91.065752,51.782767 c 16.255858,0 29.434628,-8.313511 29.434628,-18.567192 0,-10.254384 -13.17877,-18.567896 -29.434628,-18.567896 -5.096963,0 -9.890088,0.817654 -14.070119,2.254869 -8.250001,-2.81402 -19.514308,-8.1308735 -19.514308,-8.1308735 0,0 7.344698,3.7679485 10.372955,8.3437165 0.773534,1.169582 1.226964,2.395358 1.485842,3.57337 -4.786928,3.301521 -7.709769,7.698867 -7.709769,12.526814 0,10.253681 13.178765,18.567192 29.435399,18.567192"
     fill="#dddddd"
     id="path1"
     style="stroke-width:0.737875" />
  <g
     id="g17"
     transform="translate(4.2745779,4.0337607)">
    <path
       style="fill:#000000;fill-opacity:1;fill-rule:nonzero;stroke:none;stroke-width:0.264583"
       id="path2"
       d="m 101.58363,35.840767 c 0.41422,0.03002 0.82817,0.0028 1.24083,-0.03404 0.45508,-0.05084 0.90775,-0.152221 1.33834,-0.309645 0.27176,-0.09935 0.36358,-0.15113 0.6214,-0.275198 0.44825,-0.231506 0.88406,-0.521402 1.16512,-0.951532 0.0508,-0.07776 0.0893,-0.162885 0.13398,-0.244327 0.028,-0.09571 0.0678,-0.188743 0.084,-0.287134 0.0882,-0.533566 -0.19331,-0.958738 -0.49479,-1.363374 -0.26441,-0.30344 -0.56967,-0.574 -0.90879,-0.791884 -0.21817,-0.140177 -0.32724,-0.188079 -0.55713,-0.304446 -0.5615,-0.269155 -1.15628,-0.451474 -1.75624,-0.611243 -0.59468,-0.155644 -1.20183,-0.252412 -1.81202,-0.320736 -0.741021,-0.07032 -1.48492,-0.103719 -2.228439,-0.134379 -0.690089,-0.02381 -1.380183,-0.05358 -2.070727,-0.0584 -0.638281,-0.0013 -1.27616,0.02254 -1.913528,0.05417 -0.644972,0.032 -1.288658,0.08136 -1.932284,0.132855 -0.590679,0.0464 -1.179777,0.109922 -1.769096,0.170728 -0.605523,0.06406 -1.212975,0.106212 -1.820754,0.141452 -0.650399,0.03534 -1.301375,0.05776 -1.952459,0.07554 -0.686578,0.01762 -1.373296,0.02883 -2.060027,0.03836 -0.699029,0.0093 -1.398101,0.01469 -2.097172,0.01937 -0.714767,0.0047 -1.429546,0.0074 -2.144324,0.0098 -0.735621,0.0024 -1.471244,0.0038 -2.206868,0.0049 -0.814165,-0.0064 -1.628037,0.01611 -2.441885,0.03501 -0.748725,0.01783 -1.497531,0.03168 -2.246368,0.04382 -0.572177,0.0093 -1.144383,0.01659 -1.7166,0.02307 -0.433025,0.009 -0.865889,0.02432 -1.298832,0.03649 -0.06301,0.0016 -0.12601,0.0033 -0.189016,0.005 -0.622038,0.0164 -0.59885,0.896091 0.02318,0.879694 v 0 c 0.06352,-0.0016 0.127047,-0.0034 0.190571,-0.005 0.428025,-0.01204 0.855967,-0.02709 1.284068,-0.0362 0.573643,-0.0065 1.147278,-0.01384 1.720885,-0.02313 0.750892,-0.01217 1.501756,-0.02606 2.252538,-0.04394 0.807497,-0.01876 1.615014,-0.04119 2.422824,-0.03478 0.736155,-0.0011 1.472311,-0.0024 2.208466,-0.0049 0.715754,-0.0024 1.43151,-0.0051 2.147255,-0.0098 0.701172,-0.0047 1.402345,-0.01013 2.103477,-0.01942 0.690674,-0.0096 1.381334,-0.02088 2.071852,-0.0386 0.660069,-0.01804 1.320027,-0.0408 1.979398,-0.07669 0.620916,-0.03605 1.241494,-0.07919 1.860106,-0.144621 0.582615,-0.06012 1.165,-0.123 1.748956,-0.168884 0.634786,-0.05079 1.269614,-0.0996 1.90573,-0.131133 0.620877,-0.03083 1.242246,-0.0543 1.864016,-0.05311 0.680419,0.0043 1.360393,0.03464 2.040369,0.05767 0.723136,0.02979 1.446633,0.06214 2.167398,0.129734 0.56681,0.06258 1.13068,0.152786 1.68315,0.296574 0.54164,0.143819 1.07911,0.306086 1.58695,0.546946 0.17137,0.08555 0.28685,0.137684 0.44824,0.23944 0.2631,0.165883 0.5007,0.372605 0.71086,0.60106 0.11499,0.149476 0.3388,0.418327 0.3429,0.621323 5.3e-4,0.03054 -0.006,0.06075 -0.01,0.09112 -0.0199,0.0421 -0.0359,0.0863 -0.0598,0.126283 -0.19096,0.319662 -0.5241,0.515329 -0.843,0.685292 -0.2046,0.09981 -0.29728,0.151172 -0.51154,0.230868 -0.36745,0.13667 -0.75475,0.225152 -1.14374,0.269565 -0.38659,0.03528 -0.77371,0.05824 -1.16176,0.03048 -0.62226,0 -0.62226,0.879999 0,0.879999 z" />
    <path
       style="fill:#000000;fill-opacity:1;fill-rule:nonzero;stroke:none;stroke-width:0.264583"
       id="path3"
       d="m 70.730244,31.284547 c 0.0084,-0.208478 -0.008,-0.417332 -0.02236,-0.625237 -0.03069,-0.388172 -0.05846,-0.776486 -0.08049,-1.165254 -0.02883,-0.508195 -0.04134,-1.017103 -0.05308,-1.525918 -0.01312,-0.625882 -0.02064,-1.251865 -0.02735,-1.877844 -0.0049,-0.555149 -0.01535,-1.110232 -0.02416,-1.665329 -0.0061,-0.383135 -0.01167,-0.766278 -0.01664,-1.14943 -0.0024,-0.195043 -0.0013,-0.09938 -0.0035,-0.286986 -0.0075,-0.622209 -0.887396,-0.611659 -0.879938,0.01055 v 0 c 0.0024,0.188138 0.0011,0.0922 0.0035,0.287826 0.005,0.384015 0.01056,0.768022 0.01667,1.15202 0.0088,0.553588 0.01921,1.107162 0.0241,1.660802 0.0068,0.629594 0.01431,1.259191 0.02754,1.888688 0.01198,0.518668 0.02482,1.037423 0.05425,1.555456 0.02228,0.39248 0.05016,0.784513 0.08119,1.17639 0.01175,0.168172 0.02511,0.337103 0.0222,0.50573 -0.04139,0.620877 0.83666,0.679413 0.878052,0.05854 z" />
    <path
       style="fill:#000000;fill-opacity:1;fill-rule:nonzero;stroke:none;stroke-width:0.264583"
       id="path4"
       d="m 70.18366,23.378253 c 0.0957,0.0062 0.1886,0.02857 0.280911,0.05318 0.192899,0.05904 0.378777,0.139555 0.557366,0.232924 0.172302,0.08793 0.316701,0.212692 0.444513,0.356041 0.156967,0.174037 0.258059,0.38549 0.360587,0.593646 0.12714,0.254506 0.230188,0.519251 0.325964,0.786772 0.102833,0.291422 0.169058,0.593057 0.223777,0.896591 0.03409,0.199259 0.06441,0.399924 0.0684,0.602421 0.0024,0.120258 -0.0024,0.180456 -0.0081,0.301535 -0.02349,0.315597 -0.07281,0.628541 -0.13969,0.937659 -0.05685,0.247608 -0.12955,0.491379 -0.225724,0.726567 -0.07247,0.184748 -0.189756,0.344242 -0.313264,0.497435 -0.140827,0.171323 -0.296487,0.329004 -0.456832,0.481817 -0.13181,0.124958 -0.274161,0.237485 -0.419492,0.346059 -0.115268,0.0842 -0.23749,0.158488 -0.363325,0.225703 -0.0683,0.03543 -0.139573,0.06441 -0.210905,0.09302 -0.577167,0.232548 -0.248296,1.048785 0.328869,0.816237 v 0 c 0.101148,-0.04089 0.201951,-0.0829 0.298474,-0.13403 0.164007,-0.08847 0.323678,-0.18534 0.473747,-0.296079 0.173392,-0.129664 0.342686,-0.264782 0.499875,-0.413999 0.188629,-0.179911 0.371054,-0.366315 0.536231,-0.568346 0.176167,-0.22076 0.338468,-0.453308 0.442481,-0.718013 0.113371,-0.282842 0.203885,-0.573995 0.270243,-0.871569 0.07629,-0.357381 0.133881,-0.718923 0.158464,-1.083847 0.0067,-0.159467 0.01214,-0.2246 0.0078,-0.384617 -0.0065,-0.240162 -0.04035,-0.478385 -0.08136,-0.714764 -0.06383,-0.351064 -0.141734,-0.699771 -0.261286,-1.036677 -0.10722,-0.298879 -0.223142,-0.594479 -0.365041,-0.878931 -0.139139,-0.282117 -0.284789,-0.563078 -0.499205,-0.797025 -0.0928,-0.100615 -0.114618,-0.129452 -0.217326,-0.22016 -0.1441,-0.127262 -0.305279,-0.234327 -0.474266,-0.325421 -0.237185,-0.121328 -0.482153,-0.229083 -0.738838,-0.302446 -0.16482,-0.04238 -0.332129,-0.07862 -0.503071,-0.08168 -0.622255,0 -0.622255,0.88 0,0.88 z" />
    <path
       style="fill:#000000;fill-opacity:1;fill-rule:nonzero;stroke:none;stroke-width:0.264583"
       id="path5"
       d="m 87.313301,30.815782 c -0.234289,0.107368 -0.467043,0.217699 -0.696227,0.335602 -0.38906,0.201634 -0.741429,0.461418 -1.07773,0.740254 -0.422638,0.342445 -0.771552,0.760109 -1.118857,1.175531 -0.35565,0.43439 -0.674264,0.89631 -0.978257,1.3677 -0.290283,0.447445 -0.546751,0.91503 -0.779817,1.394399 -0.237038,0.493279 -0.439158,1.001871 -0.621729,1.517459 -0.170317,0.455121 -0.324953,0.915742 -0.472614,1.378638 -0.132104,0.420833 -0.258231,0.843569 -0.380858,1.267267 -0.101782,0.344564 -0.185049,0.694124 -0.258426,1.045713 -0.126942,0.609166 0.734552,0.788691 0.861494,0.179522 v 0 c 0.0686,-0.329734 0.146777,-0.657503 0.242244,-0.980596 0.120423,-0.416118 0.244251,-0.831299 0.373968,-1.244608 0.144711,-0.454183 0.296722,-0.90597 0.463817,-1.35247 0.171278,-0.484741 0.361251,-0.962782 0.583737,-1.426583 0.217085,-0.447831 0.456991,-0.884145 0.727855,-1.301996 0.284105,-0.441042 0.581653,-0.873334 0.913765,-1.28006 0.313246,-0.374795 0.625232,-0.754332 1.006505,-1.063437 0.286194,-0.239088 0.586546,-0.461452 0.918122,-0.634548 0.225774,-0.116657 0.456063,-0.22375 0.686554,-0.330689 0.556562,-0.278281 0.163013,-1.065377 -0.393546,-0.787098 z" />
    <path
       style="fill:#000000;fill-opacity:1;fill-rule:nonzero;stroke:none;stroke-width:0.264583"
       id="path6"
       d="m 81.311776,40.628735 c -0.01437,-7.93e-4 -0.02896,1.46e-4 -0.04313,-0.0024 -0.11679,-0.02103 -0.24221,-0.06822 -0.354367,-0.102047 -0.229465,-0.06922 -0.282067,-0.08681 -0.521034,-0.162401 -0.86347,-0.274545 -1.746646,-0.480198 -2.627479,-0.68993 -0.823402,-0.193006 -1.646711,-0.386025 -2.472258,-0.569659 -0.588047,-0.121705 -1.173287,-0.256109 -1.758437,-0.390863 -0.209693,-0.04732 -0.419817,-0.09254 -0.629386,-0.140396 -0.606652,-0.138467 -0.802476,0.719468 -0.195823,0.857935 v 0 c 0.209029,0.04768 0.418558,0.09295 0.627724,0.140015 0.587285,0.135244 1.174657,0.270161 1.764845,0.392313 0.82129,0.182685 1.64035,0.374724 2.459506,0.566722 0.860134,0.204787 1.72272,0.405051 2.565968,0.672907 0.386501,0.122203 0.777796,0.273598 1.183871,0.307811 0.622252,0 0.622252,-0.879999 0,-0.879999 z" />
    <path
       style="fill:#000000;fill-opacity:1;fill-rule:nonzero;stroke:none;stroke-width:0.264583"
       id="path7"
       d="m 79.357198,39.932421 c 0.06874,-0.105855 0.148865,-0.204608 0.237514,-0.294315 0.174908,-0.159946 0.378052,-0.28271 0.59292,-0.380497 0.1436,-0.06204 0.299586,-0.100076 0.455044,-0.06684 0.08435,0.01402 0.132866,0.06766 0.182401,0.132458 0.03645,0.05631 0.07022,0.116165 0.0898,0.180779 0.0042,0.014 0.02058,0.106421 0.02122,0.109945 0.02299,0.161677 0.02043,0.324477 0.0055,0.486601 -0.01371,0.152088 -0.04279,0.302027 -0.0709,0.451916 -0.0037,0.01505 -0.0073,0.03012 -0.01095,0.04519 -0.141097,0.606046 0.715978,0.80559 0.857078,0.199546 v 0 c 0.0063,-0.0275 0.01252,-0.055 0.01879,-0.0825 0.03347,-0.178451 0.06691,-0.357148 0.08271,-0.538253 0.02032,-0.245311 0.02246,-0.49195 -0.01939,-0.735494 -0.02429,-0.11585 -0.02823,-0.152251 -0.06844,-0.267366 -0.05378,-0.153977 -0.139557,-0.295585 -0.23839,-0.424363 -0.02992,-0.03352 -0.05803,-0.06873 -0.08975,-0.100547 -0.174733,-0.175302 -0.394224,-0.288782 -0.638405,-0.329512 -0.05192,-0.0061 -0.103582,-0.01513 -0.155765,-0.0182 -0.273225,-0.01622 -0.542735,0.0501 -0.791634,0.158731 -0.05151,0.02429 -0.103814,0.04698 -0.15453,0.0729 -0.256873,0.131273 -0.494659,0.300177 -0.704146,0.498221 -0.145481,0.155561 -0.285872,0.319749 -0.387768,0.508082 -0.278281,0.556559 0.508815,0.950108 0.787096,0.393546 z" />
    <path
       style="fill:#000000;fill-opacity:1;fill-rule:nonzero;stroke:none;stroke-width:0.264583"
       id="path8"
       d="M 84.845802,37.72319 C 84.70284,37.514188 84.56904,37.297512 84.439119,37.079705 84.132644,36.557343 83.842047,36.025758 83.554188,35.492961 83.344964,35.105257 83.14651,34.711967 82.957397,34.314108 82.844684,34.07013 82.722269,33.83082 82.607525,33.587829 c -0.05096,-0.111919 -0.02671,-0.05706 -0.07291,-0.164491 -0.246447,-0.571371 -1.054487,-0.222846 -0.808041,0.348525 v 0 c 0.05518,0.127624 0.02675,0.0636 0.08536,0.19204 0.115207,0.243506 0.237561,0.483568 0.350721,0.728064 0.195686,0.41148 0.400867,0.818319 0.617318,1.219311 0.293859,0.543843 0.590536,1.086435 0.903565,1.619525 0.158358,0.265033 0.318781,0.530048 0.504545,0.777026 0.413403,0.465079 1.071123,-0.11956 0.657722,-0.584639 z" />
    <path
       style="fill:#000000;fill-opacity:1;fill-rule:nonzero;stroke:none;stroke-width:0.264583"
       id="path12"
       d="m 92.309437,30.364234 c -0.177492,-0.06402 -0.347102,-0.149294 -0.518683,-0.227507 -0.310789,-0.147905 -0.62159,-0.296959 -0.922496,-0.464381 -0.198993,-0.110719 -0.334159,-0.195246 -0.530127,-0.314029 -0.545369,-0.332919 -1.054232,-0.719849 -1.553668,-1.117058 -0.42823,-0.338584 -0.832834,-0.705202 -1.227669,-1.081748 -0.294123,-0.276995 -0.576951,-0.565362 -0.852063,-0.861134 -0.03752,-0.04057 -0.07505,-0.08113 -0.112573,-0.121697 -0.422548,-0.456786 -1.068542,0.140788 -0.645991,0.597574 v 0 c 0.0381,0.04119 0.07622,0.08239 0.11432,0.123587 0.287179,0.308519 0.582192,0.609528 0.889065,0.898589 0.414015,0.394615 0.838352,0.778716 1.287253,1.133654 0.528752,0.420253 1.067951,0.828946 1.645416,1.180927 0.219495,0.132861 0.347963,0.213488 0.571405,0.337535 0.317199,0.176095 0.64453,0.333361 0.972118,0.488912 0.233404,0.106396 0.464096,0.228547 0.714384,0.290339 0.61063,0.119717 0.779932,-0.743845 0.169305,-0.863562 z" />
    <path
       style="fill:#000000;fill-opacity:1;fill-rule:nonzero;stroke:none;stroke-width:0.264583"
       id="path13"
       d="m 86.574294,26.658556 c 0.122808,-0.07799 0.216843,-0.19066 0.308,-0.301926 0.192599,-0.242722 0.327659,-0.521454 0.448892,-0.804652 0.11063,-0.272453 0.19367,-0.555558 0.243677,-0.845417 0.01019,-0.05906 0.01775,-0.118543 0.02663,-0.177814 0.03773,-0.32015 0.02838,-0.645939 -0.03118,-0.962992 -0.01213,-0.06452 -0.0285,-0.128168 -0.04273,-0.19226 -0.08119,-0.333243 -0.237415,-0.643023 -0.451023,-0.911134 -0.04318,-0.05422 -0.09085,-0.104733 -0.136278,-0.157099 -0.209788,-0.214963 -0.458062,-0.385202 -0.726088,-0.519094 -0.06543,-0.03269 -0.131171,-0.06522 -0.199446,-0.09142 -0.0803,-0.03082 -0.163679,-0.05292 -0.245522,-0.07938 -0.408843,-0.10107 -0.831626,-0.103818 -1.245695,-0.03377 -0.08086,0.01369 -0.160707,0.03285 -0.241063,0.04926 -0.382965,0.08388 -0.751931,0.22125 -1.087215,0.425873 -0.06907,0.04216 -0.134919,0.08939 -0.20238,0.134076 -0.291831,0.212208 -0.567161,0.453859 -0.784516,0.743831 -0.04141,0.05524 -0.07823,0.113768 -0.117347,0.17065 -0.14324,0.227557 -0.243978,0.478284 -0.304511,0.740006 -0.03551,0.153522 -0.04198,0.228153 -0.06277,0.382703 -0.04,0.347149 -0.02748,0.697131 0.01,1.043701 0.0284,0.218313 0.07528,0.434807 0.164782,0.636937 0.06343,0.143271 0.09429,0.182479 0.176722,0.314795 0.139154,0.200491 0.307892,0.379332 0.495686,0.53497 0.118553,0.09825 0.163704,0.12516 0.289676,0.211712 0.198437,0.129458 0.409762,0.237928 0.636353,0.308748 0.148433,0.04639 0.202688,0.05269 0.354757,0.08242 0.279282,0.04664 0.565582,0.06325 0.846567,0.02014 0.05895,-0.009 0.117073,-0.02291 0.1756,-0.03439 0.303994,-0.06643 0.590988,-0.185967 0.870631,-0.319496 0.222876,-0.111236 0.43993,-0.233305 0.648309,-0.369742 0.103193,-0.07012 0.05267,-0.03501 0.151601,-0.105274 0.50689,-0.36092 -0.0035,-1.07777 -0.510417,-0.716852 v 0 c -0.07974,0.05695 -0.0382,0.02792 -0.124759,0.0869 -0.174637,0.115558 -0.358076,0.216502 -0.544753,0.311248 -0.214669,0.103063 -0.433936,0.197981 -0.66715,0.251105 -0.09236,0.02033 -0.113174,0.02804 -0.20788,0.03644 -0.158167,0.01408 -0.317538,4.95e-4 -0.473822,-0.02469 -0.10283,-0.01858 -0.132116,-0.02114 -0.231737,-0.04973 -0.153208,-0.04396 -0.294036,-0.118412 -0.427799,-0.204086 -0.08439,-0.05683 -0.125944,-0.08206 -0.204677,-0.145851 -0.124815,-0.101127 -0.238736,-0.21657 -0.333837,-0.346151 -0.04684,-0.07084 -0.06512,-0.09334 -0.101949,-0.168891 -0.06216,-0.127565 -0.08741,-0.268034 -0.107287,-0.407387 -0.03175,-0.276037 -0.0411,-0.555329 -0.01206,-0.832146 0.01329,-0.104939 0.01918,-0.169933 0.04115,-0.272751 0.03542,-0.165763 0.09439,-0.325905 0.182357,-0.471137 0.02461,-0.03726 0.04756,-0.07566 0.07381,-0.11177 0.160944,-0.221412 0.371118,-0.402469 0.589317,-0.565039 0.04803,-0.03275 0.09476,-0.06747 0.144095,-0.09821 0.07465,-0.0465 0.226702,-0.128931 0.308839,-0.165089 0.168761,-0.07431 0.347659,-0.123188 0.526422,-0.16618 0.06068,-0.01304 0.120943,-0.02814 0.182042,-0.03904 0.286722,-0.0513 0.579967,-0.05848 0.865752,0.0031 0.047,0.01325 0.09518,0.02289 0.141024,0.03975 0.05174,0.01902 0.101263,0.04374 0.150967,0.0676 0.174405,0.08374 0.337581,0.190076 0.478167,0.323563 0.02935,0.03245 0.06025,0.06357 0.08806,0.09735 0.140972,0.171239 0.248668,0.368018 0.301247,0.584155 0.01053,0.0448 0.02262,0.08925 0.03158,0.134401 0.04559,0.229138 0.0547,0.465356 0.02978,0.697437 -0.03979,0.276387 -0.100672,0.54884 -0.209582,0.807207 -0.08758,0.208048 -0.183566,0.413952 -0.321954,0.593893 -0.02917,0.03637 -0.08557,0.110041 -0.1063,0.120126 -0.520955,0.340305 -0.03969,1.077045 0.481261,0.736744 z" />
    <path
       style="fill:#000000;fill-opacity:1;fill-rule:nonzero;stroke:none;stroke-width:0.264583"
       id="path14"
       d="m 81.245257,25.349195 c 0.286276,-0.310091 0.54946,-0.639828 0.812591,-0.969446 0.679619,-0.849498 1.327268,-1.723819 1.980806,-2.59334 0.700266,-0.941055 1.463174,-1.832333 2.238896,-2.711307 0.657455,-0.747273 1.324989,-1.485497 1.990666,-2.225421 0.33511,-0.377977 0.171509,-0.193419 0.490805,-0.553674 0.412731,-0.465676 -0.245836,-1.049366 -0.658564,-0.58369 v 0 c -0.317801,0.358571 -0.155654,0.175636 -0.486454,0.5488 -0.667552,0.742014 -1.336957,1.482336 -1.996272,2.231717 -0.790899,0.896299 -1.568467,1.805354 -2.282534,2.764852 -0.648406,0.862698 -1.290885,1.730222 -1.96512,2.573092 -0.256111,0.320904 -0.512321,0.641801 -0.791112,0.943565 -0.406482,0.471142 0.259815,1.045993 0.666292,0.574852 z" />
    <path
       style="fill:#000000;fill-opacity:1;fill-rule:nonzero;stroke:none;stroke-width:0.264583"
       id="path15"
       d="m 85.091573,20.066642 c -0.08197,-0.357173 -0.189286,-0.708484 -0.287478,-1.06156 -0.15912,-0.571195 -0.314095,-1.143578 -0.466438,-1.716623 -0.110966,-0.43289 -0.213548,-0.867843 -0.324194,-1.300813 -0.07644,-0.301367 -0.164749,-0.599546 -0.252562,-0.897749 -0.04825,-0.162882 -0.02447,-0.08273 -0.07133,-0.240442 -0.177393,-0.596432 -1.020857,-0.345614 -0.843481,0.250872 v 0 c 0.04645,0.156389 0.023,0.07695 0.07074,0.238201 0.08481,0.288023 0.170226,0.575993 0.244133,0.867051 0.111365,0.435698 0.214386,0.873453 0.326334,1.309006 0.153216,0.57627 0.309036,1.151887 0.469067,1.726298 0.08636,0.310614 0.172715,0.622054 0.261672,0.931557 0.07479,0.617743 0.948414,0.511969 0.873619,-0.105773 z" />
    <path
       style="fill:#000000;fill-opacity:1;fill-rule:nonzero;stroke:none;stroke-width:0.264583"
       id="path16"
       d="m 83.453278,22.190373 c -0.104895,-0.339583 -0.209785,-0.679145 -0.318204,-1.01762 -0.205528,-0.624168 -0.428671,-1.242305 -0.646581,-1.862205 -0.185658,-0.533204 -0.370934,-1.066527 -0.558368,-1.599112 -0.06748,-0.198287 -0.141244,-0.39433 -0.214732,-0.590439 -0.218406,-0.582664 -1.042421,-0.273784 -0.824012,0.308879 v 0 c 0.07145,0.190531 0.143174,0.380993 0.208645,0.573694 0.187403,0.532483 0.372619,1.065715 0.558265,1.598813 0.215192,0.612173 0.435541,1.222607 0.63875,1.838915 0.10764,0.335717 0.211552,0.672583 0.315566,1.009439 0.184092,0.5944 1.024698,0.334055 0.840606,-0.260345 z" />
    <path
       style="fill:#000000;fill-opacity:1;fill-rule:nonzero;stroke:none;stroke-width:0.264583"
       id="path17"
       d="m 81.679666,24.196771 c -0.08015,-0.258802 -0.160309,-0.517608 -0.240463,-0.77641 -0.183792,-0.611007 -0.394718,-1.213224 -0.604765,-1.815543 -0.170702,-0.488295 -0.340789,-0.976804 -0.50962,-1.46575 -0.105353,-0.305013 -0.20978,-0.610344 -0.313173,-0.916028 -0.01351,-0.03989 -0.02692,-0.07981 -0.04032,-0.119723 -0.198566,-0.58972 -1.032559,-0.308899 -0.833992,0.280815 v 0 c 0.01363,0.04028 0.02716,0.08059 0.04069,0.120903 0.104005,0.307419 0.209014,0.614498 0.31496,0.921256 0.169113,0.489791 0.339484,0.979146 0.510498,1.46828 0.206633,0.592579 0.414353,1.184988 0.595092,1.786135 0.08015,0.258802 0.160308,0.517608 0.240462,0.776409 0.184092,0.5944 1.024699,0.334055 0.840606,-0.260345 z" />
    <path
       style="fill:#000000;fill-opacity:1;fill-rule:nonzero;stroke:none;stroke-width:0.264583"
       id="path9"
       d="m 97.069649,30.333517 c -0.0011,-0.135818 0.0013,-0.271597 0.0034,-0.407394 0.0078,-0.428345 0.03271,-0.855541 0.08307,-1.280962 0.04126,-0.31994 0.11244,-0.635691 0.239945,-0.933056 0.06937,-0.161769 0.127876,-0.255206 0.214421,-0.407956 0.150741,-0.232716 0.318167,-0.458139 0.522764,-0.646887 0.110487,-0.10193 0.171688,-0.14079 0.293362,-0.22901 0.237247,-0.153189 0.489969,-0.29339 0.766204,-0.362016 0.04563,-0.01133 0.0923,-0.01795 0.138457,-0.02693 0.224054,-0.02278 0.45493,-0.01563 0.672798,0.04642 0.0358,0.0102 0.0704,0.02446 0.10556,0.03669 0.22333,0.09953 0.31414,0.2414 0.42957,0.44738 0.16607,0.356629 0.27083,0.738063 0.36857,1.11796 0.10278,0.407794 0.16721,0.823574 0.22407,1.239808 0.0498,0.371396 0.0791,0.745125 0.10171,1.119034 0.0109,0.141021 0.0126,0.282387 0.0134,0.423731 0.004,0.622239 0.88405,0.616484 0.87998,-0.0058 v 0 c -0.001,-0.15716 -0.003,-0.314352 -0.015,-0.471168 -0.024,-0.396007 -0.0553,-0.791797 -0.10824,-1.185127 -0.0617,-0.450061 -0.13218,-0.899504 -0.24383,-1.340331 -0.11817,-0.456959 -0.24617,-0.916089 -0.45927,-1.339344 -0.0914,-0.154496 -0.12407,-0.224027 -0.23988,-0.362631 -0.18205,-0.217878 -0.4144,-0.377691 -0.67829,-0.480199 -0.0632,-0.01986 -0.12558,-0.04271 -0.18967,-0.05958 -0.339113,-0.08928 -0.695758,-0.0966 -1.041521,-0.04828 -0.07299,0.01592 -0.146767,0.02854 -0.21895,0.04776 -0.369613,0.09844 -0.710332,0.282638 -1.026814,0.493467 -0.17681,0.131245 -0.238548,0.169143 -0.400346,0.321771 -0.25898,0.244297 -0.473223,0.532248 -0.662131,0.832673 -0.119501,0.214702 -0.175791,0.302205 -0.272002,0.532443 -0.151662,0.362936 -0.238593,0.747567 -0.288898,1.136618 -0.05292,0.454977 -0.08119,0.911656 -0.08895,1.369711 -0.0021,0.14038 -0.0045,0.280749 -0.0035,0.421153 0,0.622255 0.880002,0.622255 0.880002,0 z" />
    <path
       style="fill:#000000;fill-opacity:1;fill-rule:nonzero;stroke:none;stroke-width:0.264583"
       id="path10"
       d="m 98.808583,25.901168 c -0.0021,0.165414 0.0021,0.330691 0.0072,0.496012 0.01085,0.340491 0.01818,0.681076 0.02463,1.021674 0.0062,0.333407 0.0105,0.666845 0.014,1.000289 0.0074,0.305385 0.02051,0.610598 0.0321,0.915845 0.0082,0.216199 0.01503,0.432443 0.0209,0.648716 0.0063,0.160824 0.0047,0.321725 0.0026,0.482605 -0.0084,0.622197 0.871492,0.634111 0.879917,0.01191 v 0 c 0.0024,-0.172828 0.0038,-0.34568 -0.0028,-0.518448 -0.006,-0.219414 -0.01291,-0.438801 -0.02122,-0.65814 -0.01127,-0.297217 -0.02397,-0.5944 -0.03151,-0.891741 -0.0035,-0.335915 -0.0079,-0.671823 -0.0141,-1.0077 -0.0065,-0.344067 -0.01394,-0.688124 -0.0249,-1.032083 -0.0048,-0.156306 -0.0088,-0.312546 -0.0068,-0.468943 0,-0.622254 -0.879999,-0.622254 -0.879999,0 z" />
  </g>
  <path
     style="fill:#000000;fill-opacity:1;fill-rule:nonzero;stroke:none;stroke-width:0.264583"
     id="path18"
     d="m 153.24361,42.847294 c 0.0102,0.667507 0.021,1.335069 0.0292,2.002634 0.0111,0.938594 0.0197,1.877211 0.0274,2.815839 0.005,0.676756 0.01,1.353521 0.0142,2.030288 0.002,0.35292 0.004,0.705839 0.005,1.058762 0.003,0.622247 0.88262,0.618532 0.87999,-0.0037 v 0 c -0.002,-0.353492 -0.003,-0.706986 -0.005,-1.060474 -0.004,-0.677355 -0.009,-1.354707 -0.0142,-2.03205 -0.008,-0.93984 -0.0163,-1.879672 -0.0274,-2.819477 -0.008,-0.663956 -0.0188,-1.327912 -0.0291,-1.991805 0,-0.622255 -0.88,-0.622255 -0.88,0 z" />
  <path
     style="fill:#000000;fill-opacity:1;fill-rule:nonzero;stroke:none;stroke-width:0.264583"
     id="path19"
     d="m 153.98069,45.990145 c -0.26871,-0.27636 -0.54857,-0.539946 -0.83773,-0.795703 -0.55484,-0.494374 -1.11095,-0.986279 -1.70844,-1.428763 -0.57945,-0.446905 -1.25844,-0.704506 -1.94807,-0.924669 -0.53788,-0.157416 -1.09375,-0.316994 -1.66098,-0.294664 -0.12319,0.0048 -0.24524,0.02548 -0.36786,0.03821 -0.54264,0.105035 -1.07792,0.294275 -1.52393,0.62892 -0.0862,0.0647 -0.16475,0.139068 -0.24713,0.2086 -0.45797,0.439076 -0.7606,0.993365 -1.01203,1.568207 -0.13343,0.359209 -0.28891,0.72385 -0.31987,1.110752 -0.0217,0.271685 0.003,0.348811 0.0392,0.61309 0.0839,0.38871 0.24824,0.756732 0.49688,1.068742 0.16261,0.204052 0.26578,0.285094 0.45662,0.460098 0.4055,0.323344 0.82993,0.638981 1.31185,0.840366 0.1049,0.04384 0.21386,0.07721 0.3208,0.115822 0.69935,0.23962 1.43842,0.185713 2.15779,0.08856 0.67557,-0.105899 1.30676,-0.369059 1.92184,-0.656785 0.50613,-0.241573 0.9827,-0.536792 1.46389,-0.823193 0.3674,-0.222618 0.74925,-0.418671 1.1263,-0.623745 0.14877,-0.08056 0.2994,-0.157485 0.44865,-0.237156 0.54886,-0.293167 0.13426,-1.06938 -0.4146,-0.776211 v 0 c -0.15136,0.0809 -0.30429,0.158676 -0.45509,0.240628 -0.38648,0.211 -0.77861,0.411575 -1.15535,0.640294 -0.45629,0.271595 -0.90767,0.552453 -1.38713,0.782503 -0.53455,0.250854 -1.08165,0.485584 -1.66847,0.581879 -0.57876,0.08138 -1.1793,0.14002 -1.74453,-0.04646 -0.50814,-0.174472 -0.92095,-0.436925 -1.33468,-0.778275 -0.32222,-0.288168 -0.57859,-0.572884 -0.67461,-1.008324 -0.0215,-0.123965 -0.0459,-0.22188 -0.0396,-0.348454 0.0156,-0.311912 0.15617,-0.603882 0.25717,-0.893506 0.19567,-0.454165 0.42793,-0.896003 0.77872,-1.251648 0.38404,-0.339434 0.7944,-0.531572 1.29918,-0.630632 0.0799,-0.01087 0.15925,-0.02843 0.23981,-0.03267 0.48542,-0.02551 0.96027,0.12147 1.42021,0.253606 0.59816,0.189722 1.18972,0.405058 1.69186,0.793768 0.57773,0.426181 1.11211,0.904383 1.64881,1.380533 0.31586,0.278857 0.6054,0.57509 0.9158,0.857205 0.50977,0.356838 1.01442,-0.364086 0.50465,-0.720926 z" />
  <path
     style="fill:#000000;fill-opacity:1;fill-rule:nonzero;stroke:none;stroke-width:0.264583"
     id="path20"
     d="m 153.97659,46.91856 c 0.37781,0 0.75561,0 1.13342,0 0.82857,0.003 1.65709,-0.0082 2.4856,-0.01622 0.90758,-0.0088 1.81329,-0.0705 2.71895,-0.124423 0.70459,-0.04389 1.40959,-0.07929 2.11544,-0.093 0.56134,-0.0073 1.12275,-0.007 1.68413,-0.0073 0.44003,-1.54e-4 0.88006,-9e-5 1.32008,-5.6e-5 0.41019,3.5e-5 0.82038,6.1e-5 1.23057,8.5e-5 0.36593,2.1e-5 0.73186,3.4e-5 1.09779,4.8e-5 0.32028,10e-6 0.64056,1.6e-5 0.96084,2.3e-5 0.28055,6e-6 0.5611,8e-6 0.84165,1.1e-5 0.46093,5e-6 0.92186,5e-6 1.38279,5e-6 0.88373,3e-6 1.76745,3e-6 2.65118,3e-6 1.15597,3e-6 2.31194,3e-6 3.46791,3e-6 0.84195,0.0024 1.68426,0.0016 2.52592,0.02611 0.55177,0.01767 1.10288,0.04936 1.65395,0.08148 0.42173,0.02037 0.84173,0.06573 1.26203,0.104675 0.0585,0.0052 0.11706,0.0104 0.17559,0.01561 0.61982,0.05505 0.69768,-0.821497 0.0779,-0.876548 v 0 c -0.0574,-0.0051 -0.11483,-0.01021 -0.17225,-0.01529 -0.43028,-0.03987 -0.86028,-0.08606 -1.29204,-0.106937 -0.55961,-0.03261 -1.11927,-0.06471 -1.6796,-0.0826 -0.85018,-0.02453 -1.70098,-0.02445 -2.55145,-0.02649 -1.15598,-3e-6 -2.31195,-3e-6 -3.46792,-3e-6 -0.88373,0 -1.76745,0 -2.65118,-2e-6 -0.46093,-3e-6 -0.92186,-3e-6 -1.38279,-6e-6 -0.28054,-2e-6 -0.56109,-7e-6 -0.84163,-1.3e-5 -0.32028,-5e-6 -0.64056,-1.3e-5 -0.96083,-2.4e-5 -0.36593,-1e-5 -0.73185,-2.3e-5 -1.09777,-4.5e-5 -0.41018,-2.3e-5 -0.82036,-5e-5 -1.23054,-8.4e-5 -0.44023,-3.7e-5 -0.88044,-9.8e-5 -1.32067,5.5e-5 -0.56695,2.65e-4 -1.13392,-3.9e-5 -1.70084,0.0075 -0.71754,0.01413 -1.43425,0.04962 -2.15052,0.09439 -0.89108,0.05305 -1.7822,0.114001 -2.67515,0.12291 -0.82568,0.008 -1.65137,0.01913 -2.4771,0.01619 -0.37781,0 -0.75561,0 -1.13342,0 -0.62225,0 -0.62225,0.880002 0,0.880002 z" />
  <path
     style="fill:#ff4400;fill-opacity:1;fill-rule:nonzero;stroke:none;stroke-width:0.264583"
     d="m 166.39747,26.526731 0.0288,-3.134008 v -1.578382 c 0,-0.622254 -0.88649,-0.543764 -0.88,0 l -3e-5,1.578383 -0.0288,3.134008"
     id="path26" />
  <path
     style="fill:#000000;fill-opacity:1;fill-rule:nonzero;stroke:none;stroke-width:0.264583"
     d="m 165.51744,26.526732 c -0.002,1.509428 0.008,0.412016 -0.018,1.921212 -0.0342,1.669706 -0.0637,3.339497 -0.0898,5.009349 -0.0222,1.420521 -0.0377,2.841135 -0.0515,4.26176 -0.0104,1.104765 -0.0187,2.209546 -0.0261,3.314335 -0.01,0.818578 -0.0252,1.637085 -0.0378,2.455629 -0.009,0.593103 -0.0138,1.186238 -0.031,1.779175 -0.007,0.213828 -0.0138,0.427643 -0.0207,0.641464 -0.0203,0.621924 0.85927,0.650576 0.87953,0.02865 v 0 c 0.007,-0.21486 0.0141,-0.429717 0.0208,-0.644585 0.0173,-0.59693 0.0222,-1.194052 0.0312,-1.79115 0.0126,-0.821092 0.0279,-1.642147 0.0379,-2.463276 0.007,-1.103908 0.0157,-2.207811 0.0261,-3.311697 0.0138,-1.418889 0.0293,-2.837768 0.0514,-4.256556 0.0261,-1.669299 0.0556,-3.338534 0.0898,-5.007684 0.0265,-1.514335 0.0164,-0.42206 0.0182,-1.936627"
     id="path22" />
  <path
     style="fill:#000000;fill-opacity:1;fill-rule:nonzero;stroke:none;stroke-width:0.264583"
     id="path23"
     d="m 165.64076,35.47582 c 0.42105,0.360056 0.81487,0.756147 1.21036,1.144942 0.78432,0.781931 1.55268,1.579772 2.30877,2.388986 0.71036,0.765787 1.42375,1.528691 2.12819,2.299952 0.5249,0.578038 1.04568,1.159782 1.57172,1.736802 0.39746,0.431202 0.79263,0.864534 1.19407,1.292042 0.31076,0.330412 0.62757,0.655204 0.95096,0.973267 0.20003,0.192858 0.39179,0.393766 0.57753,0.600321 0.13087,0.150175 0.26036,0.301493 0.39134,0.451575 0.40922,0.468757 1.07215,-0.109974 0.66292,-0.578734 v 0 c -0.13387,-0.153283 -0.26596,-0.308046 -0.39992,-0.461258 -0.19781,-0.219967 -0.40207,-0.433914 -0.61495,-0.639445 -0.31519,-0.309695 -0.62354,-0.626372 -0.92639,-0.948132 -0.3985,-0.424328 -0.79068,-0.854514 -1.18524,-1.282496 -0.52623,-0.57722 -1.04716,-1.159198 -1.57228,-1.737413 -0.70669,-0.773713 -1.42233,-1.539084 -2.13498,-2.307299 -0.76466,-0.818245 -1.54157,-1.625148 -2.33485,-2.415738 -0.31486,-0.309468 -0.34443,-0.340829 -0.65467,-0.637218 -0.22266,-0.212719 -0.44651,-0.439557 -0.70082,-0.616021 -0.0431,-0.02989 -0.0911,-0.0519 -0.1367,-0.07785 -0.57539,-0.236924 -0.91044,0.576791 -0.33506,0.813715 z" />
  <path
     style="fill:#ff4400;fill-opacity:1;fill-rule:nonzero;stroke:none;stroke-width:0.264583"
     id="path24"
     d="m 166.04252,22.23376 c 0.16964,0 0.33929,0 0.50893,0 0.30616,-3.96e-4 0.6123,-3.44e-4 0.91844,0.0025 0.31589,0.0062 0.6316,0.01846 0.94732,0.03002 0.29172,0.0081 0.58314,0.0186 0.87433,0.038 0.25554,0.01784 0.51121,0.03376 0.767,0.04754 0.2008,0.01044 0.40172,0.01848 0.60264,0.02589 0.14484,0.0053 0.28971,0.0097 0.4346,0.0131 0.14663,0.0032 0.29327,0.005 0.43992,0.0066 0.18318,0.0017 0.36636,0.0026 0.54955,0.0033 0.20896,7.94e-4 0.41793,0.0012 0.6269,0.0017 0.25411,4.76e-4 0.50822,6.62e-4 0.76233,8.47e-4 0.32928,-1.67e-4 0.65856,-8.2e-4 0.98778,0.0064 0.31509,0.0074 0.62981,0.02543 0.9446,0.04063 0.22552,0.01105 0.4511,0.02075 0.67673,0.02952 0.17062,0.0069 0.34133,0.01123 0.51205,0.01526 0.62208,0.01469 0.64285,-0.865065 0.0208,-0.879755 v 0 c -0.16626,-0.0039 -0.3325,-0.0082 -0.49867,-0.01484 -0.22287,-0.0087 -0.4457,-0.01824 -0.66847,-0.02916 -0.32251,-0.01556 -0.64496,-0.03395 -0.9678,-0.04144 -0.33542,-0.0073 -0.67091,-0.007 -1.0064,-0.0066 -0.25375,-1.72e-4 -0.50749,-3.71e-4 -0.76123,-8.2e-4 -0.20836,-3.97e-4 -0.41672,-8.73e-4 -0.62507,-0.0016 -0.18121,-7.14e-4 -0.36242,-0.0015 -0.54363,-0.0033 -0.14284,-0.0015 -0.28568,-0.0033 -0.4285,-0.0064 -0.14104,-0.0033 -0.28206,-0.0076 -0.42305,-0.01276 -0.19596,-0.0072 -0.3919,-0.01505 -0.58773,-0.02521 -0.25209,-0.01357 -0.50405,-0.02929 -0.7559,-0.04688 -0.29992,-0.01993 -0.60008,-0.03112 -0.90054,-0.03936 -0.32378,-0.01186 -0.64756,-0.0244 -0.97151,-0.03058 -0.30882,-0.0028 -0.61763,-0.0029 -0.92646,-0.0025 -0.16965,0 -0.33929,0 -0.50894,0 -0.62225,0 -0.62225,0.88 0,0.88 z" />
  <path
     style="fill:#ff4400;fill-opacity:1;fill-rule:nonzero;stroke:none;stroke-width:0.264583"
     id="path25"
     d="m 165.59933,22.194224 c 0.0724,0.1725 0.15143,0.342175 0.23082,0.511552 0.10998,0.244525 0.23745,0.480165 0.37489,0.710169 0.17417,0.295876 0.39347,0.529453 0.64777,0.757214 0.20651,0.171349 0.42627,0.330319 0.66408,0.455911 0.16438,0.08681 0.24287,0.114872 0.41334,0.185666 0.28049,0.112864 0.56879,0.199861 0.86928,0.237731 0.15243,0.01921 0.29019,0.02397 0.44299,0.03211 0.3834,0.02138 0.76271,-0.02727 1.13744,-0.103156 0.38467,-0.07691 0.72956,-0.262977 1.05997,-0.466749 0.32073,-0.204843 0.55031,-0.456435 0.7666,-0.765406 0.16861,-0.259689 0.31882,-0.530701 0.46535,-0.803266 0.11429,-0.207499 0.21007,-0.424031 0.29563,-0.644689 0.0116,-0.03246 0.0232,-0.06493 0.0348,-0.09739 0.20832,-0.586348 -0.6209,-0.880955 -0.82922,-0.294607 v 0 c -0.009,0.02487 -0.0175,0.04975 -0.0263,0.07462 -0.072,0.186827 -0.15307,0.369962 -0.24996,0.5454 -0.13097,0.243643 -0.26493,0.485955 -0.41389,0.719181 -0.13824,0.203219 -0.29723,0.384526 -0.50659,0.518193 -0.24126,0.150503 -0.49111,0.294482 -0.77279,0.352585 -0.30143,0.06251 -0.60635,0.10332 -0.91516,0.08648 -0.17141,-0.0087 -0.34718,-0.01201 -0.51628,-0.04487 -0.17427,-0.03387 -0.34046,-0.09946 -0.50659,-0.159814 -0.11173,-0.04557 -0.203,-0.07972 -0.30982,-0.134844 -0.18554,-0.09575 -0.35651,-0.219085 -0.51796,-0.3506 -0.18433,-0.162485 -0.35322,-0.337526 -0.47761,-0.551717 -0.12264,-0.2044 -0.23559,-0.414214 -0.33321,-0.631849 -0.0826,-0.17602 -0.16302,-0.353051 -0.24044,-0.531406 -0.27828,-0.556561 -1.06538,-0.163013 -0.78709,0.393548 z" />
</svg>
