<?xml version="1.0" encoding="UTF-8" standalone="no"?>
<svg
   id="svg2369"
   version="1.1"
   viewBox="0 0 143.31187 71.264923"
   height="71.264923mm"
   width="143.31187mm"
   sodipodi:docname="34 meli li toki e ni, “ni li soweli.” ni li lon..svg"
   inkscape:version="1.3 (0e150ed6c4, 2023-07-21)"
   xmlns:inkscape="http://www.inkscape.org/namespaces/inkscape"
   xmlns:sodipodi="http://sodipodi.sourceforge.net/DTD/sodipodi-0.dtd"
   xmlns="http://www.w3.org/2000/svg"
   xmlns:svg="http://www.w3.org/2000/svg"
   xmlns:rdf="http://www.w3.org/1999/02/22-rdf-syntax-ns#"
   xmlns:cc="http://creativecommons.org/ns#"
   xmlns:dc="http://purl.org/dc/elements/1.1/">
  <sodipodi:namedview
     id="namedview1"
     pagecolor="#ffffff"
     bordercolor="#000000"
     borderopacity="0.25"
     inkscape:showpageshadow="2"
     inkscape:pageopacity="0.0"
     inkscape:pagecheckerboard="0"
     inkscape:deskcolor="#d1d1d1"
     inkscape:document-units="mm"
     inkscape:zoom="1.0986697"
     inkscape:cx="263.5005"
     inkscape:cy="175.2119"
     inkscape:window-width="1920"
     inkscape:window-height="1051"
     inkscape:window-x="-9"
     inkscape:window-y="-9"
     inkscape:window-maximized="1"
     inkscape:current-layer="svg2369" />
  <defs
     id="defs2363" />
  <metadata
     id="metadata2366">
    <rdf:RDF>
      <cc:Work
         rdf:about="">
        <dc:format>image/svg+xml</dc:format>
        <dc:type
           rdf:resource="http://purl.org/dc/dcmitype/StillImage" />
        <dc:title />
      </cc:Work>
    </rdf:RDF>
  </metadata>
  <g
     transform="translate(-108.35799,-28.949654)"
     id="layer1">
    <g
       transform="matrix(-0.26458333,0,0,0.26458333,128.74899,24.157521)"
       id="g3721">
      <path
         style="opacity:0.2"
         d="m 64.8,232 c 19.4,-9.4 1.8,-21.9 -17.4,-25.3 -8.4,-1.5 -13.5,-14.9 -34.6,-1.6 -16.9,10.8 0,17.9 8.6,22 12,5.5 25.3,13.6 43.4,4.9 z"
         id="path3666" />
      <path
         style="fill:#fbd7c7"
         d="m 23.3,93.5 c 0,0 -2,9.7 -3.1,12.8 -1.2,3 -2,7.7 -1.5,11.1 0.5,3.4 2.1,10.4 2.7,11.5 0.7,1.1 3.2,3.6 4,4 0.8,0.4 2.4,-14.9 2.4,-14.9 z"
         id="path3668" />
      <path
         style="fill:#e5e5e5"
         d="m 19,108.7 4.1,2.2 1.6,-12 L 23.8,84 c 0,0 -2.3,5.6 -3.2,11.5 -0.9,5.8 -0.7,9.1 -0.7,9.1 z"
         id="path3670" />
      <path
         style="fill:#825012"
         d="m 27.2,201.6 c 0,0 2.2,2.9 6.2,2.3 4,-0.5 7.9,-2.1 7.9,-2.1 0,0 1.1,6.3 -0.7,7.9 -1.8,1.6 -8.5,1.9 -11.4,3.3 -2.9,1.4 -6.9,4.2 -11.2,4.5 -9.2,0.7 -7.8,-6.8 -3.6,-8.7 3.3,-1.4 6.7,-3 8.8,-4.2 2.1,-1.1 4,-3 4,-3 z"
         id="path3672" />
      <path
         style="opacity:0.4"
         d="m 41.6,207.4 c -2.7,1.3 -8.3,2.4 -11.1,3 -3.4,0.6 -9.7,5.7 -14.1,5.8 -3.1,0.1 -4.9,-1.3 -4.9,-4 -1,2.7 0.4,5.9 6.6,5.5 4.3,-0.3 8.3,-3.1 11.2,-4.5 2.9,-1.4 9.6,-1.6 11.4,-3.3 0.5,-0.6 0.7,-1.5 0.9,-2.5 z"
         id="path3674" />
      <path
         style="fill:#825012"
         d="m 53.9,214.6 c 0,0 2.4,2.1 5.7,1.7 3.3,-0.4 7.9,-3.8 8.2,-2.1 0.3,1.7 2,5.2 0.6,6.3 -1.4,1.1 -9.1,5.7 -10.4,7.1 -1.4,1.4 -5.6,4.8 -9.9,5.3 -4.8,0.5 -9.2,-1.3 -9.2,-4.8 0,-4.1 6.6,-6.9 9.4,-8.8 2.7,-2.1 5.6,-4.7 5.6,-4.7 z"
         id="path3676" />
      <path
         style="opacity:0.4"
         d="m 57.9,227.5 c 1.4,-1.4 9.1,-6 10.4,-7.1 0.7,-0.5 0.6,-1.6 0.4,-2.7 -2,1.7 -5.9,3.7 -9.5,5.9 -5.2,3.3 -6.2,7.4 -13.4,7.7 -5,0.2 -6.9,-2.2 -6.9,-4.6 -0.1,0.4 -0.2,0.8 -0.2,1.2 0,3.5 4.4,5.4 9.2,4.8 4.4,-0.4 8.6,-3.8 10,-5.2 z"
         id="path3678" />
      <path
         style="fill:#baa794"
         d="m 22.9,109.3 c -1,3.9 -0.6,15.3 0.2,21.4 0.8,6 1.7,19.1 3.2,31.7 1,8.5 -0.7,31.9 -1.9,37.4 -0.7,3.7 -3.4,6.2 1,7.7 4.8,1.7 10,2 15.1,0.5 2.2,-0.6 1.7,-2.8 1.8,-6.3 0.1,-4.7 1.5,-15.8 1.9,-19.9 0.4,-4.1 0.7,-9.4 0.9,-14 0.3,-4.6 1.7,-20.7 2.2,-24.4 0.5,-3.7 0.5,-32.6 0.5,-32.6 z"
         id="path3680" />
      <path
         style="opacity:0.2"
         d="m 22.9,109.3 c -1,3.9 -0.6,15.3 0.2,21.4 0.8,6 1.7,19.1 3.2,31.7 1,8.5 -0.7,31.9 -1.9,37.4 -0.7,3.7 -3.4,6.2 1,7.7 4.8,1.7 10,2 15.1,0.5 2.2,-0.6 1.7,-2.8 1.8,-6.3 0.1,-4.7 1.5,-15.8 1.9,-19.9 0.4,-4.1 0.7,-9.4 0.9,-14 0.3,-4.6 1.7,-20.7 2.2,-24.4 0.5,-3.7 0.5,-32.6 0.5,-32.6 z"
         id="path3682" />
      <path
         style="fill:#baa794"
         d="m 30.4,109.5 c 0,0 -1.5,8.2 2.2,12.8 3.7,4.6 8.6,6.7 8.5,9.9 -0.1,3.3 2.9,21.3 5,27.4 2.1,6.1 2.6,14.4 3.3,20.2 0.7,5.8 1.5,21.9 1.2,26.2 -0.3,5.6 -1.8,10.8 -2.2,12.8 -0.3,1.4 5,3.5 8.2,3.7 5.4,0.3 8.3,-1.5 10.4,-3 1.9,-1.3 1.8,-1.5 1.7,-4.6 -0.1,-3.1 -0.7,-31.8 -1.2,-39 -0.5,-7.2 2.4,-38.8 2.2,-45.2 -0.5,-11.6 -4.1,-22.1 -4.1,-22.1 z"
         id="path3684" />
      <path
         style="fill:#e5e5e5"
         d="m 49.1,46.1 c -8.4,-0.5 -15.3,-2.4 -18.2,2.4 -2.9,4.8 -2.7,7.9 -4.1,10.2 -1.4,2.3 -4.3,8.8 -4.2,13.4 0.1,4.6 1.4,7.3 0.8,9.9 -0.7,2.6 -1.5,11.7 -1.6,15.2 -0.2,6.8 -0.6,13.1 0.5,14.8 1.7,2.6 16.6,4.1 27.2,2.8 12,-1.4 19.9,-5.1 19.9,-6.2 0,-1.1 -4.7,-13.4 -5.5,-15 C 57.3,79.8 74,75.2 73.9,74.5 73.8,72.5 74.6,65.9 74.1,63 73.6,60.1 70,55.4 67.4,53 64.8,50.5 60.6,46.5 57.7,45.7 55,44.9 49.1,46.1 49.1,46.1 Z"
         id="path3686" />
      <path
         style="fill:#fbd7c7"
         d="m 58.1,78.2 c 0,0 5.2,0.4 9.1,-0.8 3.9,-1.2 6,-2.4 6,-2.4 0,0 1.3,12.9 2.3,15.6 1,2.7 0.9,7.3 -0.5,12.6 -1.4,5.3 -4.1,23.6 -4,26.4 0.1,2.8 -0.2,6.3 -0.7,8.3 -0.5,2 -1.9,5.8 -4.5,7.3 -3,1.7 -6.4,1.4 -7.6,0.4 -1.9,-1.5 1.9,-7.3 1.1,-8.1 -0.8,-0.8 -2.4,-0.6 -2.9,0.7 -0.5,1.3 -2.4,2.7 -3.4,2 -1,-0.7 0.2,-1.8 0.8,-2.9 0.6,-1.2 2,-3.9 3.4,-4.8 1.4,-0.9 4,-1.4 4.6,-3.8 0.6,-2.5 0,-13 0.6,-18.5 C 63,104.7 65.3,99.7 65.2,98.6 65.1,97.5 61.6,89.4 60,84.5 58.5,80.1 58.1,78.2 58.1,78.2 Z"
         id="path3688" />
      <path
         style="fill:#fbd7c7"
         d="m 35.5,24.5 c -2.8,4.3 -1.3,14.8 -0.9,17.5 0.4,2.6 1.1,5.4 3,6.2 1.9,0.7 3.6,1.5 3.6,2.7 0,1.2 -3,3.9 -1.7,4.7 1.3,0.8 8.5,0.9 14.5,-1.5 5.6,-2.3 7.2,-5 6.4,-6 -0.7,-0.9 -4.2,-2.9 -4.2,-5.9 0.1,-3.1 3.1,-7.8 3.2,-12.4 0.1,-9.1 -13.3,-14.6 -21.1,-8.3 -1,0.7 -2,1.7 -2.8,3 z"
         id="path3690" />
      <path
         style="fill:#999999"
         d="m 49.1,20.1 c 5.6,3.1 -3.8,6.8 -1.6,9 1.9,1.8 1.9,7.3 2.9,9 1.2,2.1 2.4,-2.3 3.5,-3.4 1,-1 2.8,-1.2 3.3,0.3 0.5,1.5 -0.4,3.7 -0.5,4.3 C 58.3,39 60.4,33.6 60,27.9 59.6,21.1 49.9,14.7 39.4,20.6 c -2.1,1.2 -2.8,2.5 -1.7,1.6 2,-1.6 7.9,-4.1 11.4,-2.1 z"
         id="path3692" />
      <path
         style="opacity:0.2"
         d="m 57.6,78.2 c 0,0 2.8,13.9 2.7,17.9 -0.1,4 -4.3,17.7 -4.3,17.7 l 9.9,-2.4 2.9,-15.8 z"
         id="path3694" />
      <path
         style="fill:#e5e5e5"
         d="m 61.2,120.9 c 0.2,1.6 0.6,5.3 0.6,5.3 l -0.8,3.3 c 0,0 5.2,-0.1 6.9,0.8 1.6,0.9 3.4,2.1 3.4,2.1 V 127 c 0,0 4.1,-14 5.2,-18.9 1.1,-4.8 0.3,-13.7 0.1,-15.3 C 76.3,91.2 74.4,73.2 74.4,70 74.4,66.8 74,63.5 74,63.5 L 54.5,70 c 0,0 7.2,18.5 7.9,23 0.7,4.6 -2.1,19.2 -1.2,27.9 z"
         id="path3696" />
    </g>
    <g
       transform="matrix(0.26458333,0,0,0.26458333,113.08567,17.648771)"
       id="g3628">
      <path
         style="fill:#fbd7c7"
         d="m 140,131.5 c 0,0 -1.6,3 -2.2,5.1 -0.6,2.1 -1.7,8.6 -1.6,9.7 0.1,1.1 4.1,8.4 5.8,9.2 1.7,0.8 2,-10.2 2,-10.2 l -0.5,-4.8 2.7,-5.6 z"
         id="path3572" />
      <path
         style="opacity:0.2"
         d="m 143.9,224.7 c -11.8,7.6 -12.4,14.4 0,21 13.5,7.2 22.4,3.3 32.9,-2.7 10.5,-6 11.8,-13.4 -3.6,-19.6 -12.5,-5 -20.4,-4.4 -29.3,1.3 z"
         id="path3574" />
      <path
         style="opacity:0.2"
         d="m 51,282.8 c -11.8,7.6 -32,14.4 -13.7,25.5 17.1,10.4 33.9,-3.4 46,-9.8 C 101,289 110.1,280.8 99.3,274 88.1,267.1 58,278.3 51,282.8 Z"
         id="path3576" />
      <path
         style="fill:#fbd7c7"
         d="m 141.5,142.8 c -0.4,3.3 -1.6,26.2 0,32.2 1.6,6 2.2,8.8 2.6,11 0.4,2.2 1.8,4.1 2.5,7.6 0.7,3.5 3.7,15.1 2.7,19.6 -0.9,4.6 -1.4,11.7 -4.5,15.6 -3,3.9 -8,6.8 -4.8,8 3.1,1.2 6.7,0.4 8.1,-0.5 1.4,-0.9 5.2,-6.5 8.4,-7.7 3.1,-1.2 6.3,-2.9 6,-6 -0.3,-3.1 -3.1,-3.8 -3.3,-7.6 -0.1,-3.8 4.5,-14.3 3.1,-21.3 -1.4,-7 -3.4,-10.5 -3.4,-10.5 l 2.4,-16.2 c 0,0 1.7,18.9 1.8,20.5 0.1,1.6 1,4.7 1,4.7 0,0 -0.3,8.1 0.3,12.7 0.6,4.6 3.8,13.2 2,20 -1.8,6.8 -1.4,8 -3.9,11.1 -2.5,3.1 -7.2,5.6 -3.8,7.3 3.4,1.7 7.3,2.5 9.9,-1.8 2.6,-4.3 5.5,-5.9 6.9,-7.2 1.4,-1.3 1.8,-2.2 0.8,-6.3 -1,-4.1 -1,-9.4 0.4,-13.6 1.4,-4.2 4.7,-15.4 4.8,-20.2 0.1,-4.7 -2.2,-9.4 -2.2,-9.4 0,0 4.3,-15.1 5.5,-26.8 1.2,-11.8 1,-20.4 -1,-25.5 -2,-5.2 -42.3,10.3 -42.3,10.3 z"
         id="path3578" />
      <path
         style="fill:#e5e5e5"
         d="m 164.8,230.2 c 0,0 1.6,1.7 4.2,1.8 3,0.1 6.1,-1.6 6.6,-2.9 0.7,-1.7 0.3,-4.3 0.3,-4.3 0,0 2.8,2.3 2.8,5.1 0,2.5 -1.8,5.5 -1.9,6.5 -0.1,1 0.1,3.5 0.1,3.5 l -1.8,1 -3,-1.4 c 0,0 -0.9,2.9 -2.9,4.4 -2,1.4 -6.8,4.2 -11.3,2.5 -4.5,-1.7 -2,-5.6 -0.9,-6.9 1.1,-1.3 5,-4 6,-5.9 1.2,-2.3 1.8,-3.4 1.8,-3.4 z"
         id="path3580" />
      <path
         style="fill:#e5e5e5"
         d="m 147,223 c 0,0 2.4,2.4 5.2,2.3 2.1,-0.1 5.3,-1.5 6.4,-3.4 0.9,-1.6 1.4,-4.6 1.4,-4.6 0,0 2.7,1.6 2.7,5.2 0,3.2 -2.3,6.3 -2.4,8.5 -0.1,2.2 0,1.3 0,1.3 l -2.4,1.2 -2.4,-1.2 c 0,0 0.8,-2.5 0,-2 -0.8,0.5 -3.3,4.2 -5.1,5.9 -1.8,1.7 -5.8,4 -9.4,2.9 -3.6,-1.1 -3.4,-4.8 -1.3,-6.6 1.8,-1.6 4.1,-2.8 5.4,-5.2 1.2,-2.3 1.9,-4.3 1.9,-4.3 z"
         id="path3582" />
      <g
         style="opacity:0.4"
         id="g3588">
        <path
           d="m 160.1,232.3 v 0 c 0,0.4 0,0 0,0 z"
           id="path3584" />
        <path
           d="m 162.6,222.5 c 0,0 0,-0.1 0,-0.1 -0.4,1.5 -1.2,2.5 -3.1,4 -2.2,1.8 -4,3.3 -6.1,5.8 -2.1,2.6 -6,6 -10.7,6 -2.7,0 -4.7,-1.9 -4.4,-3.8 -0.6,1.8 0.1,3.8 2.6,4.6 3.6,1.1 7.7,-1.2 9.4,-2.9 1.8,-1.7 4.3,-5.4 5.1,-5.9 0.8,-0.5 0,2 0,2 l 2.4,1.2 2.3,-1.2 c 0,-0.2 0,-0.6 0.1,-1.3 0.1,-2.1 2.4,-5.2 2.4,-8.4 z"
           id="path3586" />
      </g>
      <path
         style="opacity:0.4"
         d="m 169.3,243.9 c 2,-1.4 2.9,-4.4 2.9,-4.4 l 3,1.4 1.8,-1 c 0,0 -0.2,-2.5 -0.1,-3.5 0,-0.9 1.5,-3.3 1.8,-5.7 -0.2,0.4 -0.4,0.8 -0.7,1.2 -1.4,2.3 -3.7,3.4 -6.5,8.1 -2.6,4.5 -9.3,5.9 -12,5.4 -2.2,-0.4 -3.7,-1.3 -4,-2.7 -0.2,1.3 0.4,2.7 2.6,3.5 4.4,1.9 9.2,-0.9 11.2,-2.3 z"
         id="path3590" />
      <path
         style="fill:#06547a"
         d="m 140.6,142.1 c -0.3,2.1 -1.3,27.5 -0.3,33.8 2,12.5 5,17.6 6.7,29.8 0.3,2.5 0.6,7.7 0.6,7.7 0,0 5.5,0.6 8.1,0.4 4.2,-0.4 5.5,-0.8 5.5,-0.8 0,0 1.7,-6.7 1.8,-16.8 0,-3.7 -3.3,-13.2 -3.3,-13.2 l 1.6,-8.4 -3,-32.8 c -9.5,-0.2 -17.7,0.3 -17.7,0.3 z"
         id="path3592" />
      <path
         style="opacity:0.15"
         d="m 140.6,142.1 c -0.3,2.1 -1.3,27.5 -0.3,33.8 2,12.5 5,17.6 6.7,29.8 0.3,2.5 0.6,7.7 0.6,7.7 0,0 5.5,0.6 8.1,0.4 4.2,-0.4 5.5,-0.8 5.5,-0.8 0,0 1.7,-6.7 1.8,-16.8 0,-3.7 -3.3,-13.2 -3.3,-13.2 l 1.6,-8.4 -3,-32.8 c -9.5,-0.2 -17.7,0.3 -17.7,0.3 z"
         id="path3594" />
      <path
         style="fill:#06547a"
         d="m 165.1,220 c 0,0 3.5,1.1 6.8,0.9 4.7,-0.3 7.7,-1.9 7.7,-1.9 0.1,0.7 1.9,-14.1 2.6,-21.6 0.5,-5 -1.2,-9.8 -0.9,-12.4 0.3,-2.6 7.3,-29.1 6.3,-37.3 -0.6,-4.8 -43.1,-31.6 -40.5,-5.5 1.1,11.1 7.4,12 9.8,16.4 3.6,6.6 3.9,12.4 4.2,16 0.6,6.3 2.5,22.7 2.9,27 0.4,4.3 1.1,18.4 1.1,18.4 z"
         id="path3596" />
      <path
         style="fill:#993399"
         d="m 143,109.3 c 0,0 -1.9,8.4 -2.9,23.8 -0.1,2.3 0,5.7 -0.1,9.7 -0.1,6.6 11.1,10.9 22.5,11.6 12.5,0.8 25.4,-0.6 25.8,-6.8 1.1,-14.8 -9.3,-28.5 -10.6,-34.3 -1.3,-5.8 6.7,-8.6 6.7,-8.6 0,0 -2,-4.7 -1.5,-11.6 0.5,-6.9 -5.4,-9.9 -7.5,-11.3 -1.7,-1.2 -17.3,-8.4 -19.8,-9.1 -2.5,-0.7 -7.1,-0.9 -8.2,3.5 -1.2,4.5 0,9.2 -1.4,10.9 -1.4,1.7 -6.5,8.1 -6.3,12.4 0.1,4.4 3.3,9.8 3.3,9.8 z"
         id="path3598" />
      <path
         style="fill:#fbd7c7"
         d="m 158,47.1 c -5.3,3.5 -5.8,10.8 -5.6,15.8 0.2,5 0.3,9.1 2.2,10.8 1.9,1.7 2.1,2.4 2.3,3.6 0.2,1.2 -5.7,5.7 -0.6,8 5.1,2.2 6.9,-0.3 10.9,-2.1 4.3,-1.9 7.6,-1.6 7.6,-1.6 0,0 -2.6,-4.7 -2.4,-8.1 0.2,-3.3 1,-5.8 2.6,-9.3 1.6,-3.5 4.2,-12.7 -1.1,-16.4 -5.2,-3.5 -12.3,-3 -15.9,-0.7 z"
         id="path3600" />
      <path
         style="fill:#656565"
         d="m 171.4,45.4 c 0,0 -3.4,-4.2 -10.2,-2.1 -6.8,2.1 -8.2,7.9 -8.2,7.9 l 2.7,-1.8 -1.6,3.5 2.5,-2.1 c 0,0 -1.1,2.6 -1.1,2.5 0,-0.2 2.6,-2.1 2.6,-2.1 0,0 -1.8,4.6 -1.8,4.4 0.1,-0.2 6.5,-6.2 6.5,-6.2 l -3.4,7.2 1.6,-0.5 -1.5,7.3 1.5,-2.5 0.3,5.7 1.8,-6.2 1,4.3 1.1,-4.1 1.4,6.8 1.3,-3.5 0.9,3 1.8,-4.5 0.4,1.8 1.5,-2.7 0.2,1.6 1,-0.2 -2,7.5 1.9,-3.7 -0.6,6.3 3.1,-7.2 0.3,1.6 1.6,-6.7 0.3,3.2 0.6,-4.9 0.9,0.9 -0.7,-4.3 1,0.6 -1.9,-3.6 1.3,0.5 c 0,-0.2 -1.9,-8 -8.1,-7.7 z"
         id="path3602" />
      <path
         style="opacity:0.15"
         d="m 170.9,102.4 c 0,0 -6.7,8.3 -15.4,7.1 -9.2,-1.3 -2.7,-14.5 -2.7,-14.5 0,0 -8,14.1 -12.9,6.3 0.9,4 3.2,8 3.2,8 0,0 0,0 0,0 1.8,1.2 3.2,0.9 5.6,-2 1.8,12.4 21.9,6.1 24.9,3.3 -0.8,-2.7 -2.7,-8.2 -2.7,-8.2 z"
         id="path3604" />
      <path
         style="fill:#fbd7c7"
         d="m 186.2,120.6 c -0.7,-3.5 -2.2,-13.2 -2.9,-15.5 l -10.7,2.5 c 0.1,0.3 0.1,0.3 0.2,0.6 1,2.6 3.3,14.4 3.5,15.3 0.2,0.9 -2,3.3 -3,5.6 -2.7,6.1 -3.3,13.9 -3.7,15.5 -0.5,1.6 -1.6,2.9 -2.9,3.8 -1.3,0.9 -5.3,4.7 -5.7,5.8 -0.3,0.7 -1.3,4.8 -0.7,6.3 0.6,1.5 4.8,3 5.8,3 1,0 1,-1.4 1,-1.4 0,0 -1.1,-1.8 -1.2,-3.4 -0.1,-1.6 1.2,-2.7 4.3,-5 3.1,-2.3 3.4,-5.4 7,-11.1 3.6,-5.7 6.6,-9.9 7.8,-12.6 1.2,-2.9 1.5,-7.8 1.2,-9.4 z"
         id="path3606" />
      <path
         style="fill:#825012"
         d="m 71.6,263 c 0,0 7.4,1.9 7.4,4.1 0,1.1 0,4.8 0,5.8 0,1.9 -3.9,3.1 -3.9,5 0,2.4 4.8,3.9 6,3.5 1.3,-0.4 2.1,-1 2.1,-3.3 0,-2.3 0.8,-12.1 1.1,-15.1 0.3,-3 -0.9,-12.3 -0.9,-12.3 z"
         id="path3608" />
      <path
         style="opacity:0.2"
         d="m 71.6,263 c 0,0 7.4,1.9 7.4,4.1 0,1.1 0,4.8 0,5.8 0,1.9 -3.9,3.1 -3.9,5 0,2.4 4.8,3.9 6,3.5 1.3,-0.4 2.1,-1 2.1,-3.3 0,-2.3 0.8,-12.1 1.1,-15.1 0.3,-3 -0.9,-12.3 -0.9,-12.3 z"
         id="path3610" />
      <path
         style="fill:#825012"
         d="m 16,232.8 c 1.4,-0.5 6.6,-2.3 6.7,-3.3 0.1,-1 0,-2.6 1.2,-3.1 1.2,-0.6 2.3,-3.5 3.9,-3.8 1.6,-0.3 2.3,0.1 5.2,1 2.9,0.9 6.4,2.8 8.6,4.4 2.3,1.7 3.4,3.3 4.9,5.6 1.5,2.3 2,2.9 1.8,3.5 -0.2,0.6 -0.7,0.3 -0.3,1.2 0.5,1.4 0.8,3.1 2.5,3.5 5.9,1.6 19.6,-8 23.1,-9.1 8.4,-2.7 16.6,1.5 20.8,5 2.8,2.3 5.4,8.4 7.4,12.4 2,4 5.6,4.5 5.2,6.2 -0.2,0.7 -1.2,1.3 -3.4,0.4 -2.7,-1.1 -8.8,-7.8 -8.8,-7.8 0,0 0.8,2.5 -0.4,5.8 -1.2,3.3 -3.1,8.8 -1.5,10.6 1.7,1.8 3.9,3.7 4.1,5.6 0.2,1.9 1,15.2 1,15.8 0,0.6 -0.4,1.9 -1.7,2.3 -3.8,1.2 -8.4,-1.4 -7.8,-3.7 0.7,-2.4 3.3,-1.8 3.3,-5.2 0,-1.3 -0.3,-5 -0.6,-5.7 -0.3,-1 -1.4,-2 -2.7,-2.5 -1.1,-0.4 -6.1,-3.1 -7.1,-6.3 -1,-3.2 -1.5,-6.6 -3.1,-6.9 -1.6,-0.2 -7.3,9.1 -12,12.3 -4.7,3.2 -7.9,3.4 -7.9,3.4 0,0 -0.9,15.5 -0.9,18.5 0,3 2.1,6.2 2.5,8.1 0.4,2.1 0.8,5.6 -1.8,7.3 -3.1,2 -7,0.1 -7.9,-0.9 -0.8,-1 -1,-3.1 0.3,-4.3 1.3,-1.2 2.7,-2.3 2.3,-2.8 -0.4,-0.6 -2.1,-3.4 -2.4,-5.2 -0.4,-2.7 -0.8,-14.3 -4.1,-16.4 -1,-0.6 -3.4,-0.9 -4.1,0.1 -0.6,1 -0.6,7.2 -0.6,8.3 0,1.6 2.3,5 2.3,7.7 0,2.7 -1,4.2 -3.4,5.1 -1.9,0.6 -4.5,0.2 -6.4,-2.3 -1.2,-1.6 -0.3,-3.3 1,-4.1 0.8,-0.5 1.9,-0.7 2,-1.8 0.1,-1.1 -1.5,-2.7 -1.5,-4.7 0,-2 -0.8,-10 -0.8,-11 0,-3.2 -5.4,-6.3 -7.3,-13 -1,-3.3 -0.2,-7 -0.5,-9.8 -0.2,-1.7 -0.5,-9.2 -3.7,-9.9 -1.2,-0.3 -6.3,-0.2 -7.8,-1.8 -1.1,-1.2 -1.7,-2.7 -1.4,-4.6 0.8,-1.7 1.8,-4.1 1.8,-4.1 z"
         id="path3612" />
      <path
         style="fill:#262626"
         d="m 32.4,234.7 c 0,0 -0.6,-1.6 -2,-2.4 -1.3,-0.8 -2.7,0.7 -1,2 1.5,1.2 3,0.4 3,0.4 z"
         id="path3614" />
      <path
         style="fill:#262626"
         d="m 19.4,235.1 c 0.2,-1.5 -0.8,-2.2 -2.8,-2.7 -1.2,-0.2 -2.5,0.4 -2.5,1.9 0,2.1 1.8,3.7 1.8,3.7 0,0 3.2,0 3.5,-2.9 z"
         id="path3616" />
      <path
         style="fill:#262626"
         d="m 22.9,228 c 0,0 1,0.5 0.3,1.3 -0.8,0.9 -0.3,-1.3 -0.3,-1.3 z"
         id="path3618" />
      <path
         style="fill:#262626"
         d="m 166.7,159.5 -6.8,-1.5 c -0.3,-0.1 -0.5,-0.4 -0.5,-0.7 0.1,-0.3 0.4,-0.5 0.7,-0.4 l 4.7,1.1 -4.8,-2 c -0.3,-0.1 -0.5,-0.5 -0.3,-0.8 0.1,-0.3 0.5,-0.4 0.8,-0.3 l 6.6,2.7 z"
         id="path3620" />
      <path
         style="fill:#262626"
         d="m 49.1,241.2 c -0.2,0 -0.4,-0.1 -0.5,-0.3 -0.2,-0.3 -0.1,-0.6 0.2,-0.8 l 117.1,-81.8 c 0.3,-0.2 0.6,-0.1 0.8,0.1 0.2,0.3 0.1,0.6 -0.2,0.8 L 49.4,241.1 c -0.1,0.1 -0.2,0.1 -0.3,0.1 z"
         id="path3622" />
      <path
         style="fill:#262626"
         d="m 26.8,248.6 c 0,0 2.4,1.3 6.1,1.4 3.7,0 7,-1.5 8.8,-3.3 1.8,-1.8 6.7,-7.1 6.7,-7.1 l 1.7,1.8 c 0,0 -5.8,7.4 -8.3,8.9 -2.5,1.5 -5.2,2.8 -9,2.7 -3.8,-0.1 -5.5,-1.2 -5.5,-1.2 z"
         id="path3624" />
      <path
         style="opacity:0.2"
         d="m 36.9,233.2 c 0,0 -4.1,15.3 0.6,15.2 2.4,-0.1 10.2,-10.9 10.2,-10.9 0,0 -4.6,13.7 -11.1,13.7 -6.4,0.1 0.3,-18 0.3,-18 z"
         id="path3626" />
    </g>
  </g>
  <path
     d="m 78.594626,39.784441 c 10.851395,0 19.648716,-6.248689 19.648716,-13.955669 0,-7.707508 -8.797321,-13.956197 -19.648716,-13.956197 -3.402409,0 -6.602001,0.614574 -9.392326,1.694829 C 63.695109,11.4523 56.175761,7.4559903 56.175761,7.4559903 c 0,0 4.902867,2.8321057 6.924343,6.2713927 0.516362,0.879092 0.819039,1.800425 0.991855,2.685853 -3.195454,2.481524 -5.146561,5.786704 -5.146561,9.415536 0,7.70698 8.797321,13.955669 19.649228,13.955669"
     fill="#dddddd"
     id="path1"
     style="stroke-width:0.522664" />
  <path
     style="fill:#ff4400;fill-opacity:1;fill-rule:nonzero;stroke:none;stroke-width:0.264583"
     id="path2"
     d="m 68.555369,21.871692 c 0,0.309973 0,0.619945 0,0.929918 -0.0011,0.618767 -0.0013,1.237485 0.007,1.856204 0.0043,0.539804 0.03593,1.078952 0.07402,1.617277 0.031,0.395356 0.05588,0.791112 0.07707,1.1871 0.01775,0.32947 0.03034,0.659165 0.04086,0.988933 0.01984,0.621935 0.899401,0.593866 0.879552,-0.02807 v 0 c -0.01074,-0.336092 -0.02357,-0.672108 -0.04167,-1.007896 -0.02148,-0.401023 -0.04663,-0.801814 -0.07801,-1.202197 -0.03694,-0.521584 -0.06784,-1.043964 -0.0719,-1.566988 -0.0083,-0.61477 -0.0079,-1.229541 -0.007,-1.844361 0,-0.309973 0,-0.619945 0,-0.929918 0,-0.622254 -0.880001,-0.622254 -0.880001,0 z" />
  <path
     style="fill:#ff4400;fill-opacity:1;fill-rule:nonzero;stroke:none;stroke-width:0.264583"
     id="path3"
     d="M 69.321359,28.365217 C 69.045002,28.150859 68.778104,27.925445 68.514555,27.695596 68.053616,27.28845 67.566651,26.912474 67.09525,26.517867 66.682932,26.173582 66.270298,25.829625 65.861419,25.481256 65.560442,25.22721 65.255158,24.978001 64.960349,24.716763 64.816429,24.591134 64.670924,24.467289 64.530173,24.33811 64.071129,23.918015 63.477026,24.5672 63.93607,24.987295 v 0 c 0.144719,0.132124 0.293105,0.260103 0.441132,0.388511 0.299296,0.264489 0.607959,0.518188 0.91355,0.77533 0.410919,0.350012 0.825466,0.695764 1.239833,1.04168 0.467021,0.390494 0.94879,0.763313 1.405609,1.166027 0.260048,0.226735 0.521716,0.451548 0.796475,0.660471 0.462518,0.416267 1.051208,-0.237831 0.58869,-0.654097 z" />
  <path
     style="fill:#ff4400;fill-opacity:1;fill-rule:nonzero;stroke:none;stroke-width:0.264583"
     d="m 71.97236,24.116444 c -0.875776,-0.0019 -0.908677,-0.01895 -1.784448,-0.02215 -0.661969,-0.0028 -1.579819,-0.006 -2.241748,-0.01403 -0.477531,-0.0061 -0.909891,-0.01345 -1.387332,-0.02471 -0.381704,-0.0076 -1.245029,0.0066 -1.626805,0.008 h -0.710133 c -0.622255,0 -0.622255,0.88 0,0.88 l -1.14e-4,3.9e-5 h 0.710134 c 0.375952,-0.0014 1.233454,-0.01561 1.609331,-0.0082 0.479537,0.01131 0.913993,0.01871 1.393616,0.02481 0.664398,0.0081 1.584711,0.01123 2.249146,0.01409 0.876395,0.0033 0.909921,0.02025 1.786319,0.02215"
     id="path24" />
  <path
     style="fill:#000000;fill-opacity:1;fill-rule:nonzero;stroke:none;stroke-width:0.264583"
     d="m 71.970326,24.996443 c 0.628838,0.0013 1.408186,0.0025 2.037024,0.0036 0.41457,6.88e-4 0.82914,0.0013 1.243711,0.0018 0.217768,2.62e-4 0.110103,1.37e-4 0.32299,3.7e-4 0.622252,6.88e-4 0.623242,-0.8793 0.0011,-0.879999 v 0 c -0.212794,-2.39e-4 -0.105174,-1.14e-4 -0.32286,-3.7e-4 -0.414446,-5.3e-4 -0.82889,-0.0011 -1.243336,-0.0018 -0.628695,-0.0011 -1.4079,-0.0022 -2.036595,-0.0036"
     id="path4" />
  <path
     style="fill:#000000;fill-opacity:1;fill-rule:nonzero;stroke:none;stroke-width:0.264583"
     id="path5"
     d="m 76.393034,22.202618 c -0.131484,0.116481 -0.224792,0.264958 -0.311433,0.415805 -0.142073,0.276852 -0.223475,0.578551 -0.304117,0.877504 -0.102682,0.379115 -0.15775,0.76826 -0.204221,1.157527 -0.04914,0.382742 -0.0486,0.768109 -0.01408,1.15172 0.04558,0.371865 0.205941,0.714236 0.440446,1.004639 0.0499,0.0618 0.105746,0.118557 0.158618,0.177837 0.300321,0.30145 0.660839,0.533696 1.046951,0.709856 0.08302,0.03788 0.16823,0.07076 0.252346,0.10614 0.37836,0.144529 0.77742,0.243044 1.184622,0.245973 0.31188,0.0021 0.37479,-0.02357 0.681469,-0.07814 0.411993,-0.101258 0.8046,-0.266575 1.162584,-0.494472 0.218887,-0.139345 0.27223,-0.191701 0.472779,-0.35374 0.348848,-0.318891 0.64752,-0.689914 0.89208,-1.094102 0.04579,-0.07569 0.08757,-0.153734 0.131349,-0.2306 0.160835,-0.303316 0.285989,-0.624556 0.36848,-0.957929 0.05033,-0.203416 0.05463,-0.261394 0.08614,-0.466232 0.03704,-0.283777 0.05,-0.573425 0.005,-0.857318 -0.0279,-0.176168 -0.05243,-0.240058 -0.101925,-0.407646 -0.156059,-0.443028 -0.455224,-0.748191 -0.799354,-1.051327 -0.302742,-0.237244 -0.648168,-0.420388 -1.012785,-0.543358 -0.0838,-0.02826 -0.169524,-0.05045 -0.254286,-0.07567 -0.343006,-0.08873 -0.693314,-0.14675 -1.047824,-0.157729 -0.195895,-0.0061 -0.316434,0.0021 -0.510395,0.0099 -0.304789,0.02253 -0.609129,0.0653 -0.906687,0.136085 -0.179089,0.0426 -0.220284,0.05967 -0.392594,0.115575 -0.30516,0.09898 -0.590452,0.244878 -0.865558,0.407907 -0.14387,0.09057 -0.07325,0.04427 -0.211939,0.138796 -0.513313,0.351723 -0.0159,1.077658 0.497411,0.725935 v 0 c 0.104407,-0.07206 0.04978,-0.03583 0.164169,-0.108277 0.219321,-0.130852 0.446328,-0.248981 0.690089,-0.328161 0.123571,-0.04107 0.171159,-0.0597 0.299413,-0.09059 0.250147,-0.06024 0.506002,-0.09756 0.762288,-0.118032 0.147463,-0.0064 0.27387,-0.01435 0.421442,-0.01073 0.2888,0.0071 0.573804,0.05333 0.853572,0.124025 0.06273,0.01783 0.126222,0.03319 0.188195,0.0535 0.266473,0.08736 0.521439,0.216134 0.746377,0.383383 0.174313,0.150764 0.376097,0.328778 0.487317,0.534392 0.01894,0.035 0.03253,0.07264 0.04879,0.108964 0.02716,0.08685 0.0539,0.162318 0.06987,0.252058 0.0369,0.207319 0.02564,0.419721 -7.93e-4,0.627362 -0.02326,0.159163 -0.02638,0.204886 -0.06424,0.363104 -0.06311,0.263696 -0.160353,0.51784 -0.28579,0.758121 -0.09135,0.162218 -0.122208,0.224631 -0.226713,0.379452 -0.170344,0.252359 -0.365215,0.487955 -0.586941,0.696874 -0.155557,0.128093 -0.195001,0.167785 -0.364668,0.278389 -0.269888,0.175934 -0.566385,0.30472 -0.877654,0.387249 -0.204142,0.04152 -0.255733,0.06209 -0.464664,0.06461 -0.30919,0.0037 -0.612238,-0.07171 -0.899737,-0.179761 -0.06826,-0.02821 -0.137348,-0.0545 -0.204793,-0.08462 -0.285837,-0.127635 -0.555773,-0.293684 -0.782185,-0.511131 -0.03413,-0.03645 -0.07013,-0.07124 -0.102399,-0.109348 -0.137027,-0.161795 -0.242729,-0.350417 -0.271624,-0.562389 -0.03088,-0.321833 -0.02911,-0.645336 0.01167,-0.966524 0.04122,-0.347137 0.08885,-0.694428 0.180084,-1.032607 0.06121,-0.2274 0.120864,-0.457014 0.219538,-0.671725 0.03875,-0.0694 0.0764,-0.141364 0.135014,-0.196458 0.462518,-0.416266 -0.126172,-1.070365 -0.58869,-0.654099 z" />
  <path
     style="fill:#000000;fill-opacity:1;fill-rule:nonzero;stroke:none;stroke-width:0.264583"
     id="path6"
     d="m 82.187451,24.999124 c 0.119534,-0.0046 0.23794,-0.02074 0.3566,-0.03488 0.192366,-0.02113 0.385768,-0.02976 0.578692,-0.04402 0.215857,-0.01863 0.432276,-0.02899 0.648427,-0.04327 0.232141,-0.01634 0.464339,-0.02917 0.69595,-0.0521 0.245441,-0.02549 0.491675,-0.04197 0.737978,-0.05633 0.289208,-0.0157 0.578755,-0.02353 0.86827,-0.03079 0.318339,-0.0088 0.636836,-0.0041 0.955135,0.0036 0.324374,0.0064 0.648312,0.01483 0.971669,0.04193 0.326017,0.03171 0.652635,0.06643 0.974818,0.126287 0.351544,0.07082 0.696082,0.170182 1.036656,0.281484 0.291224,0.0946 0.569211,0.223507 0.843386,0.358625 0.180213,0.08729 0.343889,0.199509 0.489164,0.3368 0.113075,0.114576 0.172654,0.265762 0.223965,0.415433 0.0592,0.170616 0.02957,0.343966 -0.01476,0.513934 -0.04442,0.216043 -0.170757,0.38575 -0.309907,0.55004 -0.180681,0.194204 -0.391125,0.353782 -0.617825,0.48972 -0.20646,0.121158 -0.426456,0.21749 -0.656559,0.283136 -0.184068,0.04785 -0.373438,0.05734 -0.561202,0.0312 -0.200806,-0.03358 -0.389282,-0.111127 -0.576284,-0.188542 -0.17726,-0.08539 -0.352287,-0.176329 -0.518969,-0.281056 -0.09933,-0.06525 -0.05223,-0.03247 -0.141642,-0.09784 -0.504418,-0.364368 -1.019712,0.348986 -0.515295,0.713354 v 0 c 0.12822,0.09188 0.06416,0.04809 0.192,0.131641 0.208547,0.128894 0.425043,0.244977 0.647909,0.347233 0.260834,0.107559 0.525741,0.209143 0.806887,0.248878 0.30757,0.03404 0.615646,0.02392 0.915461,-0.06078 0.301799,-0.09085 0.593259,-0.212069 0.864042,-0.374788 0.307903,-0.188296 0.595111,-0.407228 0.836525,-0.677603 0.09178,-0.110725 0.145124,-0.168981 0.224824,-0.290724 0.123341,-0.188397 0.211027,-0.397899 0.265163,-0.616114 0.08015,-0.343993 0.108672,-0.675439 -0.01101,-1.015936 -0.102719,-0.283635 -0.233039,-0.557304 -0.4562,-0.767597 -0.210169,-0.191551 -0.440139,-0.356705 -0.6976,-0.479895 -0.311669,-0.153283 -0.628078,-0.298417 -0.959035,-0.405686 -0.378278,-0.123298 -0.761064,-0.233134 -1.151671,-0.310606 -0.350699,-0.06311 -0.705064,-0.104878 -1.059854,-0.137558 -0.340527,-0.02815 -0.681593,-0.03844 -1.023184,-0.0447 -0.332801,-0.0081 -0.665808,-0.01277 -0.998651,-0.0036 -0.299262,0.0075 -0.598554,0.01567 -0.89749,0.032 -0.258205,0.01509 -0.516329,0.03246 -0.773637,0.05914 -0.222043,0.02212 -0.444719,0.03374 -0.667268,0.04972 -0.21844,0.01455 -0.437171,0.02485 -0.65532,0.04376 -0.206018,0.01538 -0.412594,0.02431 -0.617945,0.04782 -0.116356,0.01393 -0.232196,0.02889 -0.34938,0.03405 -0.618448,0.06872 -0.521266,0.943334 0.09718,0.874618 z" />
  <path
     style="fill:#000000;fill-opacity:1;fill-rule:nonzero;stroke:none;stroke-width:0.264583"
     id="path7"
     d="m 86.690133,24.044898 c 2.38e-4,-0.08776 0.008,-0.175217 0.0164,-0.262506 0.02806,-0.226546 0.05826,-0.452856 0.09109,-0.678766 0.04265,-0.272665 0.08726,-0.545045 0.140734,-0.815812 0.04513,-0.24501 0.100846,-0.487634 0.171794,-0.726423 0.05246,-0.161139 0.12427,-0.318767 0.229265,-0.452643 0.0727,-0.09199 0.163623,-0.160328 0.272036,-0.203566 0.128357,-0.05375 0.265647,-0.05197 0.402156,-0.0501 0.129069,0.01035 0.259887,0.01848 0.386437,0.04798 0.05682,0.01325 0.11298,0.03545 0.167601,0.05511 0.181755,0.07216 0.352568,0.168833 0.513821,0.278869 0.06253,0.04888 0.12841,0.09596 0.181199,0.155952 0.04446,0.05053 0.08477,0.120601 0.119521,0.178062 0.08585,0.156505 0.136075,0.328235 0.180152,0.50019 0.05202,0.200065 0.07234,0.405209 0.08948,0.61053 0.01675,0.227121 0.0214,0.454684 0.01913,0.682325 -1.85e-4,0.195324 -0.0114,0.390245 -0.02559,0.584965 -0.0084,0.11243 -0.0043,0.057 -0.01249,0.166285 -0.04666,0.620502 0.830858,0.686496 0.87752,0.06599 v 0 c 0.0083,-0.110139 0.0041,-0.05401 0.01265,-0.168383 0.01551,-0.21321 0.02747,-0.426663 0.02788,-0.640521 0.0024,-0.25499 -0.003,-0.509927 -0.02217,-0.764303 -0.02151,-0.254869 -0.04973,-0.509296 -0.114491,-0.757477 -0.06725,-0.257737 -0.148621,-0.513151 -0.284615,-0.74407 -0.05889,-0.09331 -0.0838,-0.138336 -0.152471,-0.225003 -0.114951,-0.145081 -0.25137,-0.26801 -0.403098,-0.373759 -0.22542,-0.151203 -0.46283,-0.28541 -0.717674,-0.380938 -0.132287,-0.04494 -0.163907,-0.05968 -0.301599,-0.09012 -0.175199,-0.03873 -0.355687,-0.05094 -0.534249,-0.06167 -0.102791,-3.97e-4 -0.157597,-0.0028 -0.260379,0.0055 -0.176668,0.01415 -0.349099,0.05312 -0.512276,0.123219 -0.04161,0.01971 -0.08421,0.03744 -0.12483,0.05912 -0.193202,0.103138 -0.356391,0.252064 -0.491567,0.423107 -0.0276,0.03839 -0.05672,0.07573 -0.08279,0.115169 -0.123997,0.187511 -0.213358,0.39751 -0.28239,0.610553 -0.07815,0.265117 -0.141431,0.533996 -0.191339,0.80591 -0.05612,0.285312 -0.1036,0.572198 -0.148212,0.859523 -0.03487,0.240337 -0.06728,0.481074 -0.09629,0.722183 -0.01077,0.114907 -0.02027,0.230026 -0.02032,0.345531 0,0.622254 0.879999,0.622254 0.879999,0 z" />
  <path
     style="fill:#000000;fill-opacity:1;fill-rule:nonzero;stroke:none;stroke-width:0.264583"
     id="path8"
     d="m 88.010232,20.521062 c -0.03084,0.154308 -0.04846,0.311019 -0.06808,0.467076 -0.02702,0.213212 -0.04614,0.427286 -0.06359,0.641455 -0.01363,0.188137 -0.0271,0.376288 -0.03904,0.56454 -0.0091,0.163101 -0.02368,0.325941 -0.04271,0.488177 -0.01765,0.156003 -0.04048,0.311285 -0.06591,0.466185 -0.02455,0.140628 -0.04116,0.282481 -0.06359,0.423419 -0.01299,0.08073 -0.0065,0.04044 -0.01939,0.120856 -0.09831,0.614439 0.770636,0.753472 0.868947,0.139033 v 0 c 0.01291,-0.08069 0.0063,-0.03965 0.01977,-0.12313 0.0217,-0.139152 0.03897,-0.27898 0.0627,-0.417832 0.02757,-0.16844 0.0524,-0.337293 0.07161,-0.506915 0.02048,-0.177555 0.03695,-0.355659 0.04684,-0.534137 0.01159,-0.182996 0.02474,-0.365889 0.0379,-0.548775 0.01638,-0.201397 0.03424,-0.402717 0.05964,-0.603214 0.01572,-0.125226 0.03056,-0.250755 0.05155,-0.375184 0.14252,-0.605713 -0.714087,-0.807267 -0.856607,-0.201554 z" />
  <path
     style="fill:#000000;fill-opacity:1;fill-rule:nonzero;stroke:none;stroke-width:0.264583"
     id="path9"
     d="m 113.10737,48.588375 c -0.0387,1.002252 -0.13136,2.001216 -0.20862,3.000976 -0.0994,1.311455 -0.17676,2.624428 -0.24855,3.937637 -0.0276,0.50554 -0.0522,1.011235 -0.0767,1.516933 -0.0301,0.621528 0.84891,0.664046 0.87898,0.04252 v 0 c 0.0244,-0.503859 0.0489,-1.007716 0.0764,-1.511414 0.0714,-1.306618 0.14838,-2.613006 0.24725,-3.917878 0.079,-1.022295 0.17419,-2.043793 0.21123,-3.068773 0,-0.622255 -0.88,-0.622255 -0.88,0 z" />
  <path
     style="fill:#000000;fill-opacity:1;fill-rule:nonzero;stroke:none;stroke-width:0.264583"
     id="path10"
     d="m 113.25762,52.898522 c -0.0216,-0.06039 -0.0383,-0.12279 -0.065,-0.181157 -0.0262,-0.05738 -0.12711,-0.201295 -0.16188,-0.24815 -0.13135,-0.177046 -0.27997,-0.33596 -0.43141,-0.495703 -0.46896,-0.472098 -1.03267,-0.825836 -1.61241,-1.14396 -0.58742,-0.310647 -1.20852,-0.546939 -1.84841,-0.722334 -0.38937,-0.07665 -0.80378,-0.143467 -1.19968,-0.06334 -0.27112,0.05487 -0.35758,0.110834 -0.59963,0.222718 -0.44348,0.258813 -0.79366,0.6399 -1.04935,1.082995 -0.0488,0.0845 -0.0896,0.173331 -0.13436,0.259998 -0.16786,0.383681 -0.31664,0.785175 -0.37872,1.201595 -0.0118,0.07946 -0.0168,0.15979 -0.0252,0.239686 -0.0161,0.391874 0.0378,0.79226 0.21554,1.146334 0.0368,0.07338 0.0832,0.141584 0.12477,0.212375 0.24486,0.357508 0.58487,0.623623 0.98526,0.787863 0.0922,0.03783 0.18813,0.06598 0.28219,0.09897 0.61191,0.185965 1.24664,0.217202 1.88085,0.188841 0.61922,-0.04487 1.22583,-0.187584 1.82289,-0.351512 0.50352,-0.149646 0.98044,-0.373132 1.45335,-0.598842 0.36733,-0.1718 0.7259,-0.360641 1.07829,-0.561129 0.19056,-0.114813 0.37979,-0.231812 0.57159,-0.344551 0.53632,-0.315539 0.0901,-1.074004 -0.44624,-0.758465 v 0 c -0.18811,0.110765 -0.37418,0.224907 -0.56074,0.338262 -0.33394,0.190238 -0.67389,0.369083 -1.02217,0.531805 -0.42599,0.203599 -0.85508,0.406627 -1.30775,0.544507 -0.53407,0.147592 -1.07684,0.276786 -1.63054,0.320897 -0.52357,0.02604 -1.04766,0.0043 -1.55481,-0.142478 -0.32147,-0.105913 -0.5972,-0.227261 -0.80025,-0.51135 -0.17152,-0.264967 -0.22339,-0.499861 -0.21642,-0.815789 0.0342,-0.391999 0.15272,-0.76952 0.3126,-1.12829 0.18499,-0.372602 0.42098,-0.719846 0.77814,-0.94748 0.0653,-0.03275 0.23388,-0.123251 0.31299,-0.141812 0.28723,-0.06738 0.59232,-0.01352 0.87618,0.03727 0.57403,0.155136 1.12999,0.368985 1.65729,0.645282 0.50074,0.272984 0.9894,0.574627 1.39714,0.978434 0.12228,0.128048 0.24278,0.254966 0.34982,0.396288 0.0216,0.02856 0.0418,0.05817 0.0625,0.08744 0.01,0.014 0.0241,0.05871 0.0291,0.04233 0.008,-0.02702 -0.0111,-0.05539 -0.0167,-0.0831 0.088,0.616001 0.95916,0.491548 0.87116,-0.124452 z" />
  <path
     style="fill:#000000;fill-opacity:1;fill-rule:nonzero;stroke:none;stroke-width:0.264583"
     id="path11"
     d="m 113.38389,53.781974 c 0.23923,0 0.47846,0 0.71769,0 0.48629,0 0.97258,0 1.45887,0 0.62358,-0.0026 1.24695,-0.0013 1.87036,0.01389 0.72515,0.02709 1.44897,0.08008 2.17147,0.14665 0.76366,0.0726 1.52696,0.149019 2.29018,0.226155 0.72057,0.0746 1.44261,0.132866 2.16349,0.204145 0.58073,0.05922 1.16238,0.108331 1.7445,0.151347 0.47215,0.03462 0.94491,0.05943 1.41786,0.0799 0.44832,0.01508 0.89635,0.03708 1.34452,0.05619 0.43295,0.01672 0.86589,0.02704 1.2983,0.05496 0.36258,0.02566 0.7252,0.0506 1.08811,0.07112 0.30306,0.01852 0.60676,0.02421 0.90984,0.04175 0.12,0.01585 0.24375,0.007 0.36347,0.02463 0.0736,0.01082 0.14323,0.04038 0.21601,0.05559 0.0617,0.01291 0.12415,0.02238 0.18622,0.03357 0.31276,0.04778 0.62849,0.07093 0.94407,0.09004 0.32543,0.01836 0.65124,0.02849 0.97705,0.03742 0.30495,0.008 0.60997,0.01352 0.91499,0.01847 0.62217,0.01011 0.63647,-0.869773 0.0143,-0.879882 v 0 c -0.30176,-0.0049 -0.60351,-0.01035 -0.9052,-0.01826 -0.31615,-0.0087 -0.63231,-0.01841 -0.9481,-0.03615 -0.28264,-0.01701 -0.5654,-0.03731 -0.84573,-0.07852 -0.28861,-0.04801 -0.57076,-0.131501 -0.8668,-0.125479 -0.30333,-0.01717 -0.60717,-0.02379 -0.91048,-0.04179 -0.36059,-0.02037 -0.72088,-0.04525 -1.08115,-0.0707 -0.43878,-0.02824 -0.87807,-0.03936 -1.31741,-0.05598 -0.44798,-0.0191 -0.89584,-0.04111 -1.34398,-0.05617 -0.46401,-0.02005 -0.92783,-0.04439 -1.39105,-0.07833 -0.57487,-0.04246 -1.14927,-0.09098 -1.72276,-0.149471 -0.72024,-0.0712 -1.44165,-0.12949 -2.16159,-0.203955 -0.76582,-0.07739 -1.53173,-0.154088 -2.298,-0.226912 -0.74223,-0.06825 -1.4858,-0.12274 -2.23077,-0.150095 -0.63053,-0.01529 -1.26102,-0.01678 -1.89172,-0.01413 -0.48629,0 -0.97258,0 -1.45887,0 -0.23923,0 -0.47846,0 -0.71769,0 -0.62226,0 -0.62226,0.880002 0,0.880002 z" />
  <path
     style="fill:#000000;fill-opacity:1;fill-rule:nonzero;stroke:none;stroke-width:0.264583"
     id="path12"
     d="m 125.66721,53.863831 c 0,-0.237726 0,-0.475451 0,-0.713177 0,-0.542668 0,-1.085336 0,-1.628005 -0.007,-0.632698 0.005,-1.265012 0.023,-1.897409 0.0257,-0.684839 0.0504,-1.369705 0.071,-2.054717 0.0212,-0.71175 0.033,-1.423723 0.0428,-2.135703 0.01,-0.77469 0.0161,-1.549422 0.0217,-2.324151 0.004,-0.5306 0.007,-1.061206 0.01,-1.591815 0.003,-0.622244 -0.87663,-0.626983 -0.87999,-0.0047 v 0 c -0.003,0.530058 -0.006,1.060114 -0.01,1.590167 -0.006,0.772816 -0.0117,1.545632 -0.0217,2.318406 -0.01,0.707176 -0.0214,1.414346 -0.0425,2.121292 -0.0207,0.685691 -0.0454,1.371232 -0.0711,2.056754 -0.0178,0.640559 -0.0304,1.281049 -0.0234,1.921915 0,0.542668 0,1.085337 0,1.628005 0,0.237725 0,0.475451 0,0.713176 0,0.622253 0.88,0.622253 0.88,0 z" />
  <path
     style="fill:#000000;fill-opacity:1;fill-rule:nonzero;stroke:none;stroke-width:0.264583"
     id="path13"
     d="m 125.28588,46.798255 c 0.0832,0.08345 0.16499,0.168238 0.24705,0.252775 0.1915,0.201474 0.37068,0.414057 0.55228,0.624353 0.27666,0.325741 0.53946,0.662733 0.80549,0.997111 0.3099,0.398336 0.63228,0.786569 0.95636,1.173364 0.31625,0.379962 0.64942,0.745204 0.9868,1.106358 0.30568,0.329818 0.62226,0.649112 0.93627,0.970904 0.23777,0.245877 0.47707,0.490297 0.71127,0.7396 0.19717,0.212217 0.39501,0.423794 0.59182,0.636352 0.16425,0.181626 0.33972,0.352499 0.509,0.529323 0.11904,0.120896 0.23863,0.24121 0.35523,0.364469 0.0776,0.08412 0.15006,0.17267 0.2222,0.261424 0.01,0.01238 0.0192,0.02474 0.0288,0.03712 0.38252,0.490795 1.07661,-0.05017 0.69409,-0.540961 v 0 c -0.0134,-0.01714 -0.0268,-0.0343 -0.0402,-0.05145 -0.0861,-0.105804 -0.17285,-0.21123 -0.26584,-0.311129 -0.11787,-0.12442 -0.23831,-0.246309 -0.35878,-0.368207 -0.16594,-0.173136 -0.33767,-0.34071 -0.49878,-0.518459 -0.19826,-0.214133 -0.39759,-0.427268 -0.59621,-0.641065 -0.23806,-0.253298 -0.48109,-0.501832 -0.7228,-0.751636 -0.30957,-0.317182 -0.62167,-0.631904 -0.92301,-0.957022 -0.32658,-0.34957 -0.64925,-0.702968 -0.95533,-1.070797 -0.31932,-0.381077 -0.63697,-0.763554 -0.94224,-1.156066 -0.27339,-0.34363 -0.54357,-0.689869 -0.82814,-1.024421 -0.19277,-0.223171 -0.3831,-0.448691 -0.58683,-0.662088 -0.0851,-0.08767 -0.17001,-0.175543 -0.25623,-0.262104 -0.44,-0.44 -1.06226,0.182255 -0.62226,0.622255 z" />
  <path
     style="fill:#000000;fill-opacity:1;fill-rule:nonzero;stroke:none;stroke-width:0.264583"
     id="path14"
     d="m 123.91826,42.888364 c 0.003,-0.06021 0.0172,-0.117179 0.0341,-0.174686 0.0403,-0.110927 0.0917,-0.21567 0.15538,-0.314788 0.0419,-0.05612 0.0804,-0.117803 0.13344,-0.1646 0.0102,-0.009 0.0229,-0.01466 0.0342,-0.02209 0.0887,-0.05795 0.036,-0.02633 0.13372,-0.0806 0.1577,-0.08537 0.32361,-0.15227 0.49863,-0.191293 0.13577,-0.0317 0.27277,-0.04052 0.41055,-0.02093 0.14276,0.01998 0.2793,0.06531 0.40991,0.125034 0.1629,0.07415 0.31186,0.173887 0.45383,0.281982 0.14045,0.112242 0.2716,0.235448 0.38387,0.376 0.10806,0.133715 0.20446,0.275714 0.29226,0.423344 0.0546,0.08979 0.10302,0.183007 0.1526,0.275579 0.29379,0.548537 1.06953,0.133064 0.77575,-0.415472 v 0 c -0.056,-0.104627 -0.1112,-0.209767 -0.17281,-0.311283 -0.11026,-0.184057 -0.23056,-0.361645 -0.36588,-0.528394 -0.15949,-0.193127 -0.3376,-0.368966 -0.53602,-0.522441 -0.19641,-0.147063 -0.40157,-0.283249 -0.6264,-0.383558 -0.21214,-0.09262 -0.432,-0.165799 -0.6628,-0.194585 -0.24454,-0.02663 -0.4768,-0.01953 -0.71718,0.0383 -0.25742,0.06275 -0.50497,0.155295 -0.73642,0.285679 -0.10286,0.06066 -0.15815,0.08853 -0.25192,0.162433 -0.14174,0.111699 -0.2568,0.247817 -0.35461,0.398896 -0.10559,0.170416 -0.19527,0.349494 -0.25628,0.541063 -0.027,0.09584 -0.051,0.192413 -0.0591,0.291959 -0.088,0.616001 0.78315,0.74045 0.87115,0.124452 z" />
  <path
     style="fill:#000000;fill-opacity:1;fill-rule:nonzero;stroke:none;stroke-width:0.264583"
     id="path16"
     d="m 116.62297,53.604571 c 0.1388,-0.06312 0.26719,-0.145434 0.39415,-0.229201 0.25288,-0.16175 0.47952,-0.357875 0.69922,-0.561215 0.22019,-0.208609 0.39879,-0.454155 0.52634,-0.729531 0.0292,-0.06302 0.0536,-0.128135 0.0804,-0.192204 0.15444,-0.393895 0.23484,-0.810358 0.30504,-1.225915 0.0741,-0.43725 0.13299,-0.876908 0.18709,-1.317027 0.0528,-0.444362 0.0853,-0.890757 0.11463,-1.337172 0.0261,-0.399286 0.0432,-0.799066 0.0581,-1.198899 0.008,-0.344874 0.0243,-0.689165 0.0449,-1.033457 0.0157,-0.326803 0.0535,-0.651314 0.10352,-0.974426 0.0537,-0.312602 0.12655,-0.621292 0.21228,-0.926528 0.0748,-0.276924 0.19085,-0.539727 0.3172,-0.79638 0.11942,-0.245235 0.26438,-0.476957 0.4206,-0.700188 0.13792,-0.196374 0.29131,-0.380828 0.45043,-0.560187 0.13005,-0.145621 0.27154,-0.279881 0.41965,-0.406842 0.15117,-0.122793 0.30785,-0.237691 0.47797,-0.332658 0.20072,-0.0995 0.40541,-0.19168 0.61866,-0.260815 0.25,-0.07291 0.50724,-0.11647 0.76405,-0.157205 0.27177,-0.04197 0.54597,-0.06325 0.81977,-0.08675 0.33342,-0.03494 0.66694,-0.06894 0.99974,-0.109456 0.28688,-0.03183 0.57182,-0.07799 0.85514,-0.132773 0.26444,-0.04853 0.52562,-0.111596 0.78691,-0.174347 0.32361,-0.0789 0.64366,-0.171001 0.961,-0.272003 0.32503,-0.100036 0.6407,-0.225832 0.95454,-0.356004 0.30142,-0.121746 0.58373,-0.282694 0.86194,-0.449411 0.23807,-0.137094 0.45317,-0.306517 0.66343,-0.482066 0.21701,-0.177752 0.39233,-0.397586 0.55942,-0.621075 0.11749,-0.163777 0.23022,-0.332657 0.31551,-0.515908 0.049,-0.105222 0.0876,-0.211979 0.12885,-0.320207 0.10987,-0.315737 0.18583,-0.641768 0.25081,-0.969261 0.0655,-0.342995 0.096,-0.6912 0.12551,-1.038728 0.0259,-0.315116 0.0444,-0.630766 0.0609,-0.946491 0.007,-0.127122 0.0122,-0.254294 0.0178,-0.381463 0.0273,-0.621654 -0.85184,-0.66027 -0.87915,-0.03862 v 0 c -0.005,0.124719 -0.011,0.249439 -0.0175,0.374108 -0.016,0.306228 -0.0339,0.612386 -0.0589,0.918024 -0.0267,0.315262 -0.0534,0.631265 -0.11197,0.942563 -0.0549,0.279342 -0.11928,0.557374 -0.21019,0.827481 -0.0151,0.04001 -0.0704,0.18845 -0.0907,0.233879 -0.062,0.138967 -0.14902,0.265022 -0.23658,0.388718 -0.12533,0.168791 -0.25482,0.33724 -0.41804,0.471635 -0.17518,0.14645 -0.35288,0.289436 -0.55205,0.40285 -0.24097,0.144841 -0.48496,0.285684 -0.74633,0.391136 -0.29088,0.12069 -0.58318,0.237971 -0.88457,0.33039 -0.29693,0.09478 -0.59651,0.180743 -0.89933,0.254792 -0.24878,0.05978 -0.49737,0.120131 -0.7492,0.16616 -0.26289,0.05138 -0.52751,0.09343 -0.79378,0.123085 -0.3224,0.03935 -0.64554,0.07201 -0.96852,0.106211 -0.29485,0.02532 -0.59008,0.04881 -0.88269,0.09444 -0.30356,0.04838 -0.60746,0.101166 -0.90206,0.190754 -0.26706,0.08947 -0.52616,0.200826 -0.77621,0.330671 -0.21868,0.125111 -0.42421,0.269803 -0.61795,0.431083 -0.17792,0.153357 -0.3484,0.31497 -0.50467,0.490611 -0.18142,0.2051 -0.35639,0.415965 -0.5136,0.640445 -0.18106,0.260573 -0.3501,0.530143 -0.4888,0.815975 -0.14918,0.305218 -0.2857,0.61766 -0.37448,0.946507 -0.0947,0.339178 -0.17595,0.682035 -0.23456,1.029462 -0.054,0.350261 -0.095,0.702056 -0.11227,1.056252 -0.021,0.35089 -0.0381,0.701796 -0.0459,1.053271 -0.0146,0.391525 -0.0313,0.782998 -0.0568,1.173988 -0.0282,0.429827 -0.0593,0.859647 -0.10995,1.287516 -0.0525,0.427199 -0.10954,0.853953 -0.18147,1.278363 -0.0588,0.350938 -0.12385,0.703366 -0.25106,1.037087 -0.0919,0.22937 -0.20451,0.443043 -0.39104,0.611 -0.18433,0.170974 -0.37334,0.337201 -0.58621,0.472512 -0.0833,0.05512 -0.16597,0.110294 -0.25573,0.154588 -0.57194,0.245118 -0.22529,1.053965 0.34665,0.808847 z" />
  <path
     style="fill:#000000;fill-opacity:1;fill-rule:nonzero;stroke:none;stroke-width:0.264583"
     id="path17"
     d="m 129.57371,28.730404 c -0.14207,0.04074 -0.27576,0.108101 -0.39855,0.189902 -0.0411,0.02737 -0.0803,0.05747 -0.12044,0.0862 -0.23313,0.178565 -0.43781,0.391134 -0.59492,0.639998 -0.0354,0.05603 -0.0662,0.114813 -0.0993,0.17222 -0.0293,0.06125 -0.0608,0.121528 -0.088,0.183745 -0.0496,0.113297 -0.10153,0.25749 -0.13986,0.375544 -0.0397,0.122225 -0.0779,0.253797 -0.10381,0.379688 -0.0145,0.07035 -0.024,0.141632 -0.036,0.212445 -0.006,0.07514 -0.0168,0.15005 -0.0195,0.225422 -0.0109,0.301953 0.0308,0.638408 0.11751,0.928201 0.023,0.07682 0.0535,0.15119 0.0802,0.226787 0.13013,0.306134 0.31789,0.571638 0.56497,0.794851 0.15472,0.139779 0.23893,0.190092 0.40885,0.3077 0.37456,0.225213 0.78454,0.416144 1.22366,0.468 0.0975,0.01151 0.19606,0.01053 0.2941,0.0158 0.36569,-0.0097 0.73349,-0.07137 1.07155,-0.216104 0.22388,-0.09585 0.27318,-0.140441 0.47566,-0.272476 0.31631,-0.227909 0.58567,-0.514392 0.81281,-0.830334 0.0402,-0.05592 0.0772,-0.114035 0.11587,-0.171056 0.13726,-0.219001 0.25735,-0.449066 0.34765,-0.691488 0.0504,-0.135229 0.0659,-0.196736 0.10604,-0.333529 0.068,-0.262763 0.0999,-0.533939 0.0804,-0.80518 -0.004,-0.0508 -0.0109,-0.101277 -0.0164,-0.151915 -0.0313,-0.199306 -0.0865,-0.394873 -0.18385,-0.572604 -0.063,-0.115017 -0.0984,-0.15422 -0.17653,-0.257405 -0.19534,-0.233743 -0.44981,-0.399314 -0.71164,-0.548502 -0.23327,-0.128278 -0.48484,-0.21685 -0.73804,-0.296299 -0.19857,-0.06035 -0.40183,-0.102722 -0.60638,-0.136631 -0.1611,-0.02646 -0.32364,-0.04106 -0.48673,-0.04595 -0.16185,-0.0048 -0.32251,0.01701 -0.48198,0.04188 -0.149,0.02241 -0.296,0.05434 -0.44138,0.0937 -0.60037,0.163542 -0.36909,1.012605 0.23129,0.849064 v 0 c 0.11406,-0.03133 0.22955,-0.05586 0.34659,-0.07342 0.10603,-0.0168 0.21281,-0.03367 0.32051,-0.03159 0.12353,0.0032 0.24657,0.01482 0.36862,0.03459 0.16417,0.02685 0.32731,0.06048 0.48682,0.108233 0.19384,0.06036 0.38726,0.125934 0.56681,0.222017 0.16094,0.09054 0.32135,0.186233 0.44953,0.321416 0.0419,0.0518 0.0875,0.104426 0.11572,0.165624 0.0331,0.0718 0.0508,0.15 0.0665,0.226986 0.0266,0.204949 0.0187,0.40931 -0.0348,0.610013 -0.0369,0.12827 -0.074,0.257016 -0.1272,0.379775 -0.0601,0.138496 -0.13405,0.271102 -0.21186,0.400219 -0.0288,0.04333 -0.0564,0.08756 -0.0865,0.129977 -0.16869,0.237236 -0.36577,0.456371 -0.60012,0.630266 -0.11746,0.08111 -0.16205,0.119663 -0.29198,0.178991 -0.22943,0.104762 -0.48246,0.148693 -0.73255,0.162388 -0.0574,-7.94e-4 -0.11512,0.0028 -0.17233,-0.0024 -0.31667,-0.02889 -0.6111,-0.171884 -0.88244,-0.327904 -0.10603,-0.07167 -0.19104,-0.124232 -0.28744,-0.207425 -0.15636,-0.134943 -0.27094,-0.283729 -0.35736,-0.471504 -0.0175,-0.04537 -0.0379,-0.08973 -0.0525,-0.13612 -0.0628,-0.199543 -0.0982,-0.437396 -0.0945,-0.64662 8e-4,-0.05123 0.007,-0.102222 0.0107,-0.153332 0.008,-0.04933 0.0134,-0.099 0.023,-0.147994 0.0482,-0.245954 0.13726,-0.484519 0.24178,-0.711412 0.053,-0.09593 0.0652,-0.124971 0.12852,-0.212921 0.0888,-0.123259 0.19926,-0.227399 0.31776,-0.321646 0.0666,-0.04979 0.1408,-0.103163 0.21484,-0.134077 0.60367,-0.150919 0.39024,-1.004644 -0.21343,-0.853726 z" />
  <path
     style="fill:#000000;fill-opacity:1;fill-rule:nonzero;stroke:none;stroke-width:0.264583"
     id="path18"
     d="m 131.35206,29.02256 c 0.0123,-0.151239 0.0185,-0.302811 0.0302,-0.454179 0.0254,-0.343802 0.0358,-0.688456 0.0453,-1.032986 0.0122,-0.462473 0.0188,-0.925065 0.0245,-1.387658 0.006,-0.47889 0.009,-0.957807 0.0123,-1.436722 0.007,-0.461684 -0.009,-0.923141 -0.0263,-1.384395 -0.0158,-0.422835 -0.0304,-0.845735 -0.0377,-1.268808 0.006,-0.254953 -0.005,-0.512871 0.0243,-0.766849 0.0123,-0.105397 0.0461,-0.244718 0.0686,-0.346774 0.075,-0.315467 0.1839,-0.620229 0.32552,-0.911537 0.041,-0.07403 0.0581,-0.117137 0.11326,-0.177388 0.0826,-0.09032 0.19708,-0.150472 0.30446,-0.204748 0.18502,-0.08195 0.38107,-0.127949 0.58161,-0.148382 0.0892,-0.0021 0.18194,-0.005 0.26756,0.0247 0.0363,0.01259 0.0692,0.0308 0.10346,0.04804 0.13378,0.07799 0.24248,0.188365 0.33944,0.307511 0.1249,0.160318 0.21191,0.343089 0.28216,0.532527 0.0831,0.231147 0.12372,0.470854 0.12987,0.715601 -0.007,0.289758 -0.0726,0.572476 -0.14573,0.851443 -0.0708,0.242983 -0.15835,0.481072 -0.2531,0.715662 -0.0619,0.155755 -0.13006,0.308815 -0.20349,0.459427 -0.27221,0.559559 0.51913,0.944509 0.79133,0.384947 v 0 c 0.0821,-0.169206 0.15909,-0.340852 0.22849,-0.515727 0.10817,-0.269381 0.20892,-0.542414 0.28818,-0.821822 0.0941,-0.361463 0.17337,-0.728833 0.1738,-1.104402 -0.003,-0.06266 -0.003,-0.125456 -0.008,-0.187992 -0.021,-0.276422 -0.0892,-0.546722 -0.17852,-0.80833 -0.10739,-0.280395 -0.23998,-0.550412 -0.42984,-0.785384 -0.18333,-0.216282 -0.38878,-0.412931 -0.64469,-0.541798 -0.11804,-0.05277 -0.15381,-0.07416 -0.2812,-0.108397 -0.18131,-0.04873 -0.37055,-0.05325 -0.55671,-0.04068 -0.31045,0.03602 -0.61449,0.108653 -0.8973,0.245652 -0.054,0.02938 -0.10944,0.05617 -0.16192,0.08814 -0.27422,0.167019 -0.49767,0.397928 -0.63611,0.689215 -0.16975,0.354377 -0.3041,0.723426 -0.39277,1.106871 -0.041,0.191033 -0.0645,0.278702 -0.0868,0.475517 -0.0315,0.278447 -0.0207,0.560885 -0.0261,0.840357 0.008,0.429035 0.0222,0.8579 0.0383,1.286693 0.017,0.448276 0.033,0.896745 0.0257,1.345441 -0.003,0.477203 -0.007,0.954408 -0.0123,1.431586 -0.006,0.458028 -0.0121,0.916059 -0.0242,1.373971 -0.009,0.32998 -0.0189,0.660088 -0.0431,0.989386 -0.008,0.09951 -0.0157,0.198874 -0.0199,0.298606 -0.001,0.03028 -0.005,0.06057 -0.004,0.09084 1.8e-4,0.004 0.002,-0.0079 0.003,-0.01185 -0.1023,0.613789 0.76573,0.758458 0.86803,0.144672 z" />
  <path
     style="fill:#000000;fill-opacity:1;fill-rule:nonzero;stroke:none;stroke-width:0.264583"
     id="path19"
     d="m 130.72744,20.57168 c -0.17518,-0.0012 -0.34988,0.01629 -0.52444,0.02897 -0.33223,0.02402 -0.66194,0.0719 -0.99133,0.119937 -0.36453,0.04734 -0.72168,0.134008 -1.07418,0.236277 -0.34173,0.09751 -0.66843,0.2381 -0.98352,0.401012 -0.23807,0.137135 -0.47958,0.281928 -0.67653,0.476377 -0.0441,0.04352 -0.0838,0.09127 -0.12567,0.136909 -0.13514,0.167778 -0.25706,0.349198 -0.33912,0.54942 -0.051,0.12445 -0.061,0.177452 -0.0948,0.304289 -0.056,0.25371 -0.0594,0.514535 0.0152,0.764979 0.0153,0.05139 0.0363,0.100923 0.0544,0.151384 0.0995,0.219692 0.23136,0.429101 0.4058,0.59763 0.04,0.03864 0.0837,0.07327 0.12551,0.109903 0.28566,0.213884 0.61656,0.349105 0.95144,0.464341 0.31937,0.102886 0.6486,0.169077 0.97829,0.228534 0.29263,0.04964 0.58743,0.0847 0.8834,0.106167 0.22522,0.01508 0.45075,0.02416 0.67645,0.02696 0.18537,0.0035 0.37056,-0.009 0.55514,-0.02485 0.10967,-0.01003 0.21941,-0.01934 0.32924,-0.02761 0.62049,-0.0468 0.5543,-0.924312 -0.0662,-0.877507 v 0 c -0.11287,0.0085 -0.22565,0.01802 -0.33837,0.02835 -0.15595,0.01344 -0.31244,0.02474 -0.46909,0.0217 -0.2082,-0.0024 -0.41622,-0.01098 -0.624,-0.02474 -0.26491,-0.01889 -0.52869,-0.05062 -0.79067,-0.09451 -0.28612,-0.05141 -0.57204,-0.107704 -0.84971,-0.195204 -0.2317,-0.07842 -0.4607,-0.168328 -0.66662,-0.302631 -0.11833,-0.09317 -0.21023,-0.212135 -0.27729,-0.347178 -0.0584,-0.138486 -0.0714,-0.234992 -0.0409,-0.385635 0.0123,-0.0504 0.025,-0.109497 0.0432,-0.158626 0.0446,-0.120693 0.11935,-0.22795 0.19603,-0.330038 0.0183,-0.02203 0.0351,-0.0455 0.055,-0.0661 0.14142,-0.146114 0.32329,-0.248434 0.49602,-0.351621 0.26302,-0.137959 0.53731,-0.254367 0.8231,-0.336681 0.31344,-0.09141 0.63106,-0.168877 0.95543,-0.210477 0.3084,-0.04498 0.61703,-0.09037 0.92807,-0.113037 0.15335,-0.01114 0.30684,-0.02725 0.4607,-0.02665 0.62225,0 0.62225,-0.88 0,-0.88 z" />
  <path
     style="fill:#000000;fill-opacity:1;fill-rule:nonzero;stroke:none;stroke-width:0.264583"
     id="path20"
     d="m 126.60638,23.634921 c 0.23718,-0.0305 0.47678,-0.0286 0.71542,-0.02973 0.41512,5.8e-5 0.83023,0.0028 1.24535,0.005 0.32118,0.0016 0.64236,0.0031 0.96355,0.0044 0.23213,7.94e-4 0.46426,0.0016 0.69639,0.0024 0.1619,5.29e-4 0.3238,7.94e-4 0.4857,0.0011 0.0654,1.27e-4 0.13073,2.33e-4 0.1961,2.65e-4 0.62225,0.0011 0.62364,-0.879017 10e-4,-0.88 v 0 c -0.0653,-1.03e-4 -0.13051,-2.09e-4 -0.19577,-3.44e-4 -0.16164,-3.17e-4 -0.32329,-6.88e-4 -0.48494,-0.0011 -0.23181,-6.61e-4 -0.46362,-0.0014 -0.69544,-0.0022 -0.32079,-0.0012 -0.64157,-0.0026 -0.96235,-0.0044 -0.4181,-0.0022 -0.83619,-0.005 -1.2543,-0.005 -0.29486,0.0015 -0.59168,2.8e-5 -0.88368,0.04681 -0.61017,0.122034 -0.43759,0.984945 0.17258,0.862912 z" />
  <path
     style="fill:#000000;fill-opacity:1;fill-rule:nonzero;stroke:none;stroke-width:0.264583"
     d="m 135.29011,41.191416 c -0.46529,0.0075 -0.93069,0.01651 -1.39604,0.0089 -0.75993,-0.0093 -1.51972,-0.02668 -2.27952,-0.04346 -1.0102,-0.02289 -2.02032,-0.04886 -3.03051,-0.07233 -0.70873,-0.01701 -1.41775,-0.02792 -2.12604,-0.05897 -0.25582,-0.01418 -0.51198,-0.0276 -0.76521,-0.06879 -0.61845,-0.06872 -0.71563,0.805899 -0.0972,0.874617 l 7e-5,-1.4e-5 c 0.26918,0.04342 0.5416,0.05762 0.81348,0.07282 0.71753,0.03185 1.43583,0.04283 2.15382,0.06008 1.01059,0.02347 2.02111,0.04945 3.03171,0.07236 0.76284,0.01685 1.52567,0.03424 2.28865,0.04361 0.4737,0.0077 0.94746,-0.0013 1.4211,-0.009"
     id="path23" />
  <path
     style="fill:#ff4400;fill-opacity:1;fill-rule:nonzero;stroke:none;stroke-width:0.264583"
     d="m 135.30442,42.071239 c 0.30457,-0.0049 0.60914,-0.01027 0.91373,-0.01426 0.19292,-0.0016 0.38579,0.0037 0.57863,0.0083 0.62208,0.01474 0.64294,-0.865007 0.0208,-0.879753 v 0 c -0.20362,-0.0048 -0.40729,-0.0104 -0.61099,-0.0084 -0.30551,0.004 -0.61099,0.0093 -0.91648,0.01429"
     id="path21" />
  <path
     style="fill:#ff4400;fill-opacity:1;fill-rule:nonzero;stroke:none;stroke-width:0.264583"
     id="path22"
     d="m 136.60881,40.939616 c -0.008,0.07164 -0.0192,0.142764 -0.0278,0.214336 -0.0213,0.161377 -0.0361,0.32349 -0.0501,0.485632 -0.0208,0.202404 -0.0272,0.40536 -0.022,0.608645 0.006,0.220853 0.0518,0.436989 0.1074,0.649912 0.0497,0.185478 0.1201,0.365363 0.20746,0.536355 0.0185,0.03632 0.0387,0.0718 0.0581,0.107704 0.1204,0.205582 0.26484,0.396648 0.43427,0.564394 0.0366,0.03627 0.0754,0.07039 0.11301,0.105584 0.17007,0.147947 0.35945,0.272341 0.55965,0.375584 0.13143,0.06778 0.17933,0.08508 0.31497,0.142537 0.2256,0.08804 0.4589,0.156281 0.69818,0.194921 0.16147,0.02609 0.20687,0.02585 0.36975,0.03776 0.31198,0.01302 0.62435,-0.02085 0.9296,-0.08476 0.0618,-0.01294 0.12296,-0.02868 0.18443,-0.04303 0.32188,-0.0894 0.63442,-0.212532 0.93075,-0.366869 0.0567,-0.0295 0.11194,-0.06153 0.16791,-0.09229 0.20883,-0.120597 0.4089,-0.257392 0.59103,-0.415824 0.11604,-0.100952 0.14681,-0.136822 0.2533,-0.245872 0.15894,-0.174305 0.29914,-0.364451 0.41628,-0.56923 0.0713,-0.124661 0.0915,-0.17253 0.15306,-0.30099 0.13454,-0.28551 0.20748,-0.592376 0.26451,-0.9011 0.0336,-0.19559 0.0496,-0.39371 0.0493,-0.592132 -2e-4,-0.127233 -0.005,-0.169804 -0.012,-0.296246 -0.0205,-0.233243 -0.0583,-0.465511 -0.11893,-0.69184 -0.0117,-0.04382 -0.0253,-0.08712 -0.0379,-0.130681 -0.0685,-0.214574 -0.15585,-0.425077 -0.27775,-0.615299 -0.0259,-0.0404 -0.0546,-0.07894 -0.0819,-0.118404 -0.11784,-0.154596 -0.25556,-0.293084 -0.40799,-0.413599 -0.0883,-0.06978 -0.12833,-0.09424 -0.22071,-0.156416 -0.21609,-0.142484 -0.4567,-0.237202 -0.70117,-0.317918 -0.17735,-0.05314 -0.35655,-0.102624 -0.53967,-0.131689 -0.0385,-0.0061 -0.0773,-0.01048 -0.1159,-0.01574 -0.21173,-0.02936 -0.42518,-0.02178 -0.6374,-0.0042 -0.20234,0.01947 -0.40037,0.06527 -0.59641,0.117277 -0.18457,0.05062 -0.36667,0.109516 -0.54667,0.174424 -0.17534,0.06094 -0.34736,0.130479 -0.51749,0.204589 -0.16204,0.0706 -0.31708,0.155472 -0.46849,0.246311 -0.13116,0.07949 -0.25802,0.165743 -0.38125,0.256961 -0.11141,0.08263 -0.21513,0.174813 -0.31592,0.269917 -0.0892,0.08303 -0.16657,0.177263 -0.24257,0.272203 -0.0686,0.08674 -0.12904,0.179441 -0.18526,0.274588 -0.0591,0.09736 -0.0989,0.203705 -0.13148,0.312298 -0.018,0.06235 -0.0312,0.125923 -0.0444,0.189447 -0.12525,0.609518 0.73674,0.786646 0.86199,0.177128 v 0 c 0.008,-0.0393 0.0158,-0.07871 0.0264,-0.117441 0.0115,-0.04044 0.0237,-0.08046 0.0466,-0.116252 0.0341,-0.05898 0.0715,-0.115994 0.11324,-0.169908 0.0506,-0.06327 0.10073,-0.127339 0.1602,-0.182734 0.0754,-0.07155 0.15296,-0.141026 0.23643,-0.203161 0.0997,-0.07471 0.2035,-0.143896 0.30973,-0.209015 0.11838,-0.0715 0.23971,-0.138166 0.36652,-0.193688 0.15278,-0.06669 0.30733,-0.129064 0.4649,-0.183645 0.15609,-0.05658 0.31417,-0.107442 0.47421,-0.151717 0.146,-0.03916 0.29325,-0.07463 0.44388,-0.09071 0.14936,-0.01299 0.29964,-0.02077 0.44882,-1.19e-4 0.1686,0.02088 0.33359,0.06095 0.49584,0.111093 0.16886,0.05485 0.33641,0.116764 0.48653,0.213477 0.14999,0.09912 0.28517,0.201829 0.39761,0.344358 0.0418,0.05767 0.0549,0.07249 0.0901,0.134556 0.061,0.107529 0.10667,0.223509 0.14498,0.340752 0.0611,0.205039 0.10491,0.414954 0.1229,0.628459 0.0144,0.22583 0.0164,0.4527 -0.0246,0.676291 -0.0421,0.232807 -0.0935,0.465201 -0.19337,0.681138 -0.0457,0.09674 -0.0605,0.132564 -0.11276,0.225946 -0.0824,0.147347 -0.18159,0.28388 -0.29379,0.410001 -0.0726,0.07553 -0.10301,0.110289 -0.18156,0.179676 -0.1403,0.123939 -0.29517,0.230468 -0.45679,0.32452 -0.0441,0.02458 -0.0877,0.05022 -0.13243,0.07372 -0.2367,0.12442 -0.48609,0.224494 -0.7428,0.299178 -0.0475,0.0114 -0.0948,0.02402 -0.1426,0.03421 -0.23251,0.04952 -0.47032,0.07945 -0.70831,0.07211 -0.12024,-0.0077 -0.14988,-0.007 -0.26901,-0.0249 -0.17785,-0.02672 -0.35092,-0.07731 -0.51881,-0.141147 -0.0979,-0.04072 -0.13969,-0.05595 -0.23378,-0.103413 -0.13653,-0.06887 -0.2668,-0.150894 -0.38404,-0.249274 -0.0648,-0.05918 -0.0886,-0.07821 -0.14769,-0.142486 -0.0852,-0.09268 -0.1587,-0.195218 -0.22444,-0.302411 -0.0784,-0.141912 -0.14696,-0.289819 -0.18745,-0.447416 -0.0392,-0.14732 -0.0733,-0.296645 -0.0787,-0.449672 -0.005,-0.170143 0.002,-0.339858 0.0191,-0.509252 0.0131,-0.152439 0.027,-0.304858 0.0471,-0.45657 0.008,-0.06992 0.0213,-0.139631 0.0274,-0.209767 5.3e-4,-0.0051 -0.001,0.01019 -0.002,0.01529 0.088,-0.615998 -0.78315,-0.74045 -0.87115,-0.124449 z" />
</svg>
