<?xml version="1.0" encoding="UTF-8" standalone="no"?>
<svg
   id="svg2369"
   version="1.1"
   viewBox="0 0 165.76259 71.264923"
   height="71.264923mm"
   width="165.76259mm"
   sodipodi:docname="35 mije li toki e ni, “ni li waso.” ni li lon ala..svg"
   inkscape:version="1.3 (0e150ed6c4, 2023-07-21)"
   xmlns:inkscape="http://www.inkscape.org/namespaces/inkscape"
   xmlns:sodipodi="http://sodipodi.sourceforge.net/DTD/sodipodi-0.dtd"
   xmlns="http://www.w3.org/2000/svg"
   xmlns:svg="http://www.w3.org/2000/svg"
   xmlns:rdf="http://www.w3.org/1999/02/22-rdf-syntax-ns#"
   xmlns:cc="http://creativecommons.org/ns#"
   xmlns:dc="http://purl.org/dc/elements/1.1/">
  <sodipodi:namedview
     id="namedview1"
     pagecolor="#ffffff"
     bordercolor="#000000"
     borderopacity="0.25"
     inkscape:showpageshadow="2"
     inkscape:pageopacity="0.0"
     inkscape:pagecheckerboard="0"
     inkscape:deskcolor="#d1d1d1"
     inkscape:document-units="mm"
     inkscape:zoom="1.5537535"
     inkscape:cx="288.65582"
     inkscape:cy="143.20161"
     inkscape:window-width="1920"
     inkscape:window-height="1051"
     inkscape:window-x="-9"
     inkscape:window-y="-9"
     inkscape:window-maximized="1"
     inkscape:current-layer="svg2369" />
  <defs
     id="defs2363" />
  <metadata
     id="metadata2366">
    <rdf:RDF>
      <cc:Work
         rdf:about="">
        <dc:format>image/svg+xml</dc:format>
        <dc:type
           rdf:resource="http://purl.org/dc/dcmitype/StillImage" />
        <dc:title />
      </cc:Work>
    </rdf:RDF>
  </metadata>
  <g
     transform="translate(-65.626799,-28.949654)"
     id="layer1">
    <g
       transform="matrix(-0.26458333,0,0,0.26458333,128.74899,24.157521)"
       id="g3721">
      <path
         style="opacity:0.2"
         d="m 64.8,232 c 19.4,-9.4 1.8,-21.9 -17.4,-25.3 -8.4,-1.5 -13.5,-14.9 -34.6,-1.6 -16.9,10.8 0,17.9 8.6,22 12,5.5 25.3,13.6 43.4,4.9 z"
         id="path3666" />
      <path
         style="fill:#fbd7c7"
         d="m 23.3,93.5 c 0,0 -2,9.7 -3.1,12.8 -1.2,3 -2,7.7 -1.5,11.1 0.5,3.4 2.1,10.4 2.7,11.5 0.7,1.1 3.2,3.6 4,4 0.8,0.4 2.4,-14.9 2.4,-14.9 z"
         id="path3668" />
      <path
         style="fill:#e5e5e5"
         d="m 19,108.7 4.1,2.2 1.6,-12 L 23.8,84 c 0,0 -2.3,5.6 -3.2,11.5 -0.9,5.8 -0.7,9.1 -0.7,9.1 z"
         id="path3670" />
      <path
         style="fill:#825012"
         d="m 27.2,201.6 c 0,0 2.2,2.9 6.2,2.3 4,-0.5 7.9,-2.1 7.9,-2.1 0,0 1.1,6.3 -0.7,7.9 -1.8,1.6 -8.5,1.9 -11.4,3.3 -2.9,1.4 -6.9,4.2 -11.2,4.5 -9.2,0.7 -7.8,-6.8 -3.6,-8.7 3.3,-1.4 6.7,-3 8.8,-4.2 2.1,-1.1 4,-3 4,-3 z"
         id="path3672" />
      <path
         style="opacity:0.4"
         d="m 41.6,207.4 c -2.7,1.3 -8.3,2.4 -11.1,3 -3.4,0.6 -9.7,5.7 -14.1,5.8 -3.1,0.1 -4.9,-1.3 -4.9,-4 -1,2.7 0.4,5.9 6.6,5.5 4.3,-0.3 8.3,-3.1 11.2,-4.5 2.9,-1.4 9.6,-1.6 11.4,-3.3 0.5,-0.6 0.7,-1.5 0.9,-2.5 z"
         id="path3674" />
      <path
         style="fill:#825012"
         d="m 53.9,214.6 c 0,0 2.4,2.1 5.7,1.7 3.3,-0.4 7.9,-3.8 8.2,-2.1 0.3,1.7 2,5.2 0.6,6.3 -1.4,1.1 -9.1,5.7 -10.4,7.1 -1.4,1.4 -5.6,4.8 -9.9,5.3 -4.8,0.5 -9.2,-1.3 -9.2,-4.8 0,-4.1 6.6,-6.9 9.4,-8.8 2.7,-2.1 5.6,-4.7 5.6,-4.7 z"
         id="path3676" />
      <path
         style="opacity:0.4"
         d="m 57.9,227.5 c 1.4,-1.4 9.1,-6 10.4,-7.1 0.7,-0.5 0.6,-1.6 0.4,-2.7 -2,1.7 -5.9,3.7 -9.5,5.9 -5.2,3.3 -6.2,7.4 -13.4,7.7 -5,0.2 -6.9,-2.2 -6.9,-4.6 -0.1,0.4 -0.2,0.8 -0.2,1.2 0,3.5 4.4,5.4 9.2,4.8 4.4,-0.4 8.6,-3.8 10,-5.2 z"
         id="path3678" />
      <path
         style="fill:#baa794"
         d="m 22.9,109.3 c -1,3.9 -0.6,15.3 0.2,21.4 0.8,6 1.7,19.1 3.2,31.7 1,8.5 -0.7,31.9 -1.9,37.4 -0.7,3.7 -3.4,6.2 1,7.7 4.8,1.7 10,2 15.1,0.5 2.2,-0.6 1.7,-2.8 1.8,-6.3 0.1,-4.7 1.5,-15.8 1.9,-19.9 0.4,-4.1 0.7,-9.4 0.9,-14 0.3,-4.6 1.7,-20.7 2.2,-24.4 0.5,-3.7 0.5,-32.6 0.5,-32.6 z"
         id="path3680" />
      <path
         style="opacity:0.2"
         d="m 22.9,109.3 c -1,3.9 -0.6,15.3 0.2,21.4 0.8,6 1.7,19.1 3.2,31.7 1,8.5 -0.7,31.9 -1.9,37.4 -0.7,3.7 -3.4,6.2 1,7.7 4.8,1.7 10,2 15.1,0.5 2.2,-0.6 1.7,-2.8 1.8,-6.3 0.1,-4.7 1.5,-15.8 1.9,-19.9 0.4,-4.1 0.7,-9.4 0.9,-14 0.3,-4.6 1.7,-20.7 2.2,-24.4 0.5,-3.7 0.5,-32.6 0.5,-32.6 z"
         id="path3682" />
      <path
         style="fill:#baa794"
         d="m 30.4,109.5 c 0,0 -1.5,8.2 2.2,12.8 3.7,4.6 8.6,6.7 8.5,9.9 -0.1,3.3 2.9,21.3 5,27.4 2.1,6.1 2.6,14.4 3.3,20.2 0.7,5.8 1.5,21.9 1.2,26.2 -0.3,5.6 -1.8,10.8 -2.2,12.8 -0.3,1.4 5,3.5 8.2,3.7 5.4,0.3 8.3,-1.5 10.4,-3 1.9,-1.3 1.8,-1.5 1.7,-4.6 -0.1,-3.1 -0.7,-31.8 -1.2,-39 -0.5,-7.2 2.4,-38.8 2.2,-45.2 -0.5,-11.6 -4.1,-22.1 -4.1,-22.1 z"
         id="path3684" />
      <path
         style="fill:#e5e5e5"
         d="m 49.1,46.1 c -8.4,-0.5 -15.3,-2.4 -18.2,2.4 -2.9,4.8 -2.7,7.9 -4.1,10.2 -1.4,2.3 -4.3,8.8 -4.2,13.4 0.1,4.6 1.4,7.3 0.8,9.9 -0.7,2.6 -1.5,11.7 -1.6,15.2 -0.2,6.8 -0.6,13.1 0.5,14.8 1.7,2.6 16.6,4.1 27.2,2.8 12,-1.4 19.9,-5.1 19.9,-6.2 0,-1.1 -4.7,-13.4 -5.5,-15 C 57.3,79.8 74,75.2 73.9,74.5 73.8,72.5 74.6,65.9 74.1,63 73.6,60.1 70,55.4 67.4,53 64.8,50.5 60.6,46.5 57.7,45.7 55,44.9 49.1,46.1 49.1,46.1 Z"
         id="path3686" />
      <path
         style="fill:#fbd7c7"
         d="m 58.1,78.2 c 0,0 5.2,0.4 9.1,-0.8 3.9,-1.2 6,-2.4 6,-2.4 0,0 1.3,12.9 2.3,15.6 1,2.7 0.9,7.3 -0.5,12.6 -1.4,5.3 -4.1,23.6 -4,26.4 0.1,2.8 -0.2,6.3 -0.7,8.3 -0.5,2 -1.9,5.8 -4.5,7.3 -3,1.7 -6.4,1.4 -7.6,0.4 -1.9,-1.5 1.9,-7.3 1.1,-8.1 -0.8,-0.8 -2.4,-0.6 -2.9,0.7 -0.5,1.3 -2.4,2.7 -3.4,2 -1,-0.7 0.2,-1.8 0.8,-2.9 0.6,-1.2 2,-3.9 3.4,-4.8 1.4,-0.9 4,-1.4 4.6,-3.8 0.6,-2.5 0,-13 0.6,-18.5 C 63,104.7 65.3,99.7 65.2,98.6 65.1,97.5 61.6,89.4 60,84.5 58.5,80.1 58.1,78.2 58.1,78.2 Z"
         id="path3688" />
      <path
         style="fill:#fbd7c7"
         d="m 35.5,24.5 c -2.8,4.3 -1.3,14.8 -0.9,17.5 0.4,2.6 1.1,5.4 3,6.2 1.9,0.7 3.6,1.5 3.6,2.7 0,1.2 -3,3.9 -1.7,4.7 1.3,0.8 8.5,0.9 14.5,-1.5 5.6,-2.3 7.2,-5 6.4,-6 -0.7,-0.9 -4.2,-2.9 -4.2,-5.9 0.1,-3.1 3.1,-7.8 3.2,-12.4 0.1,-9.1 -13.3,-14.6 -21.1,-8.3 -1,0.7 -2,1.7 -2.8,3 z"
         id="path3690" />
      <path
         style="fill:#999999"
         d="m 49.1,20.1 c 5.6,3.1 -3.8,6.8 -1.6,9 1.9,1.8 1.9,7.3 2.9,9 1.2,2.1 2.4,-2.3 3.5,-3.4 1,-1 2.8,-1.2 3.3,0.3 0.5,1.5 -0.4,3.7 -0.5,4.3 C 58.3,39 60.4,33.6 60,27.9 59.6,21.1 49.9,14.7 39.4,20.6 c -2.1,1.2 -2.8,2.5 -1.7,1.6 2,-1.6 7.9,-4.1 11.4,-2.1 z"
         id="path3692" />
      <path
         style="opacity:0.2"
         d="m 57.6,78.2 c 0,0 2.8,13.9 2.7,17.9 -0.1,4 -4.3,17.7 -4.3,17.7 l 9.9,-2.4 2.9,-15.8 z"
         id="path3694" />
      <path
         style="fill:#e5e5e5"
         d="m 61.2,120.9 c 0.2,1.6 0.6,5.3 0.6,5.3 l -0.8,3.3 c 0,0 5.2,-0.1 6.9,0.8 1.6,0.9 3.4,2.1 3.4,2.1 V 127 c 0,0 4.1,-14 5.2,-18.9 1.1,-4.8 0.3,-13.7 0.1,-15.3 C 76.3,91.2 74.4,73.2 74.4,70 74.4,66.8 74,63.5 74,63.5 L 54.5,70 c 0,0 7.2,18.5 7.9,23 0.7,4.6 -2.1,19.2 -1.2,27.9 z"
         id="path3696" />
    </g>
    <g
       transform="matrix(0.26458333,0,0,0.26458333,113.08567,17.648771)"
       id="g3628">
      <path
         style="fill:#fbd7c7"
         d="m 140,131.5 c 0,0 -1.6,3 -2.2,5.1 -0.6,2.1 -1.7,8.6 -1.6,9.7 0.1,1.1 4.1,8.4 5.8,9.2 1.7,0.8 2,-10.2 2,-10.2 l -0.5,-4.8 2.7,-5.6 z"
         id="path3572" />
      <path
         style="opacity:0.2"
         d="m 143.9,224.7 c -11.8,7.6 -12.4,14.4 0,21 13.5,7.2 22.4,3.3 32.9,-2.7 10.5,-6 11.8,-13.4 -3.6,-19.6 -12.5,-5 -20.4,-4.4 -29.3,1.3 z"
         id="path3574" />
      <path
         style="opacity:0.2"
         d="m 51,282.8 c -11.8,7.6 -32,14.4 -13.7,25.5 17.1,10.4 33.9,-3.4 46,-9.8 C 101,289 110.1,280.8 99.3,274 88.1,267.1 58,278.3 51,282.8 Z"
         id="path3576" />
      <path
         style="fill:#fbd7c7"
         d="m 141.5,142.8 c -0.4,3.3 -1.6,26.2 0,32.2 1.6,6 2.2,8.8 2.6,11 0.4,2.2 1.8,4.1 2.5,7.6 0.7,3.5 3.7,15.1 2.7,19.6 -0.9,4.6 -1.4,11.7 -4.5,15.6 -3,3.9 -8,6.8 -4.8,8 3.1,1.2 6.7,0.4 8.1,-0.5 1.4,-0.9 5.2,-6.5 8.4,-7.7 3.1,-1.2 6.3,-2.9 6,-6 -0.3,-3.1 -3.1,-3.8 -3.3,-7.6 -0.1,-3.8 4.5,-14.3 3.1,-21.3 -1.4,-7 -3.4,-10.5 -3.4,-10.5 l 2.4,-16.2 c 0,0 1.7,18.9 1.8,20.5 0.1,1.6 1,4.7 1,4.7 0,0 -0.3,8.1 0.3,12.7 0.6,4.6 3.8,13.2 2,20 -1.8,6.8 -1.4,8 -3.9,11.1 -2.5,3.1 -7.2,5.6 -3.8,7.3 3.4,1.7 7.3,2.5 9.9,-1.8 2.6,-4.3 5.5,-5.9 6.9,-7.2 1.4,-1.3 1.8,-2.2 0.8,-6.3 -1,-4.1 -1,-9.4 0.4,-13.6 1.4,-4.2 4.7,-15.4 4.8,-20.2 0.1,-4.7 -2.2,-9.4 -2.2,-9.4 0,0 4.3,-15.1 5.5,-26.8 1.2,-11.8 1,-20.4 -1,-25.5 -2,-5.2 -42.3,10.3 -42.3,10.3 z"
         id="path3578" />
      <path
         style="fill:#e5e5e5"
         d="m 164.8,230.2 c 0,0 1.6,1.7 4.2,1.8 3,0.1 6.1,-1.6 6.6,-2.9 0.7,-1.7 0.3,-4.3 0.3,-4.3 0,0 2.8,2.3 2.8,5.1 0,2.5 -1.8,5.5 -1.9,6.5 -0.1,1 0.1,3.5 0.1,3.5 l -1.8,1 -3,-1.4 c 0,0 -0.9,2.9 -2.9,4.4 -2,1.4 -6.8,4.2 -11.3,2.5 -4.5,-1.7 -2,-5.6 -0.9,-6.9 1.1,-1.3 5,-4 6,-5.9 1.2,-2.3 1.8,-3.4 1.8,-3.4 z"
         id="path3580" />
      <path
         style="fill:#e5e5e5"
         d="m 147,223 c 0,0 2.4,2.4 5.2,2.3 2.1,-0.1 5.3,-1.5 6.4,-3.4 0.9,-1.6 1.4,-4.6 1.4,-4.6 0,0 2.7,1.6 2.7,5.2 0,3.2 -2.3,6.3 -2.4,8.5 -0.1,2.2 0,1.3 0,1.3 l -2.4,1.2 -2.4,-1.2 c 0,0 0.8,-2.5 0,-2 -0.8,0.5 -3.3,4.2 -5.1,5.9 -1.8,1.7 -5.8,4 -9.4,2.9 -3.6,-1.1 -3.4,-4.8 -1.3,-6.6 1.8,-1.6 4.1,-2.8 5.4,-5.2 1.2,-2.3 1.9,-4.3 1.9,-4.3 z"
         id="path3582" />
      <g
         style="opacity:0.4"
         id="g3588">
        <path
           d="m 160.1,232.3 v 0 c 0,0.4 0,0 0,0 z"
           id="path3584" />
        <path
           d="m 162.6,222.5 c 0,0 0,-0.1 0,-0.1 -0.4,1.5 -1.2,2.5 -3.1,4 -2.2,1.8 -4,3.3 -6.1,5.8 -2.1,2.6 -6,6 -10.7,6 -2.7,0 -4.7,-1.9 -4.4,-3.8 -0.6,1.8 0.1,3.8 2.6,4.6 3.6,1.1 7.7,-1.2 9.4,-2.9 1.8,-1.7 4.3,-5.4 5.1,-5.9 0.8,-0.5 0,2 0,2 l 2.4,1.2 2.3,-1.2 c 0,-0.2 0,-0.6 0.1,-1.3 0.1,-2.1 2.4,-5.2 2.4,-8.4 z"
           id="path3586" />
      </g>
      <path
         style="opacity:0.4"
         d="m 169.3,243.9 c 2,-1.4 2.9,-4.4 2.9,-4.4 l 3,1.4 1.8,-1 c 0,0 -0.2,-2.5 -0.1,-3.5 0,-0.9 1.5,-3.3 1.8,-5.7 -0.2,0.4 -0.4,0.8 -0.7,1.2 -1.4,2.3 -3.7,3.4 -6.5,8.1 -2.6,4.5 -9.3,5.9 -12,5.4 -2.2,-0.4 -3.7,-1.3 -4,-2.7 -0.2,1.3 0.4,2.7 2.6,3.5 4.4,1.9 9.2,-0.9 11.2,-2.3 z"
         id="path3590" />
      <path
         style="fill:#06547a"
         d="m 140.6,142.1 c -0.3,2.1 -1.3,27.5 -0.3,33.8 2,12.5 5,17.6 6.7,29.8 0.3,2.5 0.6,7.7 0.6,7.7 0,0 5.5,0.6 8.1,0.4 4.2,-0.4 5.5,-0.8 5.5,-0.8 0,0 1.7,-6.7 1.8,-16.8 0,-3.7 -3.3,-13.2 -3.3,-13.2 l 1.6,-8.4 -3,-32.8 c -9.5,-0.2 -17.7,0.3 -17.7,0.3 z"
         id="path3592" />
      <path
         style="opacity:0.15"
         d="m 140.6,142.1 c -0.3,2.1 -1.3,27.5 -0.3,33.8 2,12.5 5,17.6 6.7,29.8 0.3,2.5 0.6,7.7 0.6,7.7 0,0 5.5,0.6 8.1,0.4 4.2,-0.4 5.5,-0.8 5.5,-0.8 0,0 1.7,-6.7 1.8,-16.8 0,-3.7 -3.3,-13.2 -3.3,-13.2 l 1.6,-8.4 -3,-32.8 c -9.5,-0.2 -17.7,0.3 -17.7,0.3 z"
         id="path3594" />
      <path
         style="fill:#06547a"
         d="m 165.1,220 c 0,0 3.5,1.1 6.8,0.9 4.7,-0.3 7.7,-1.9 7.7,-1.9 0.1,0.7 1.9,-14.1 2.6,-21.6 0.5,-5 -1.2,-9.8 -0.9,-12.4 0.3,-2.6 7.3,-29.1 6.3,-37.3 -0.6,-4.8 -43.1,-31.6 -40.5,-5.5 1.1,11.1 7.4,12 9.8,16.4 3.6,6.6 3.9,12.4 4.2,16 0.6,6.3 2.5,22.7 2.9,27 0.4,4.3 1.1,18.4 1.1,18.4 z"
         id="path3596" />
      <path
         style="fill:#993399"
         d="m 143,109.3 c 0,0 -1.9,8.4 -2.9,23.8 -0.1,2.3 0,5.7 -0.1,9.7 -0.1,6.6 11.1,10.9 22.5,11.6 12.5,0.8 25.4,-0.6 25.8,-6.8 1.1,-14.8 -9.3,-28.5 -10.6,-34.3 -1.3,-5.8 6.7,-8.6 6.7,-8.6 0,0 -2,-4.7 -1.5,-11.6 0.5,-6.9 -5.4,-9.9 -7.5,-11.3 -1.7,-1.2 -17.3,-8.4 -19.8,-9.1 -2.5,-0.7 -7.1,-0.9 -8.2,3.5 -1.2,4.5 0,9.2 -1.4,10.9 -1.4,1.7 -6.5,8.1 -6.3,12.4 0.1,4.4 3.3,9.8 3.3,9.8 z"
         id="path3598" />
      <path
         style="fill:#fbd7c7"
         d="m 158,47.1 c -5.3,3.5 -5.8,10.8 -5.6,15.8 0.2,5 0.3,9.1 2.2,10.8 1.9,1.7 2.1,2.4 2.3,3.6 0.2,1.2 -5.7,5.7 -0.6,8 5.1,2.2 6.9,-0.3 10.9,-2.1 4.3,-1.9 7.6,-1.6 7.6,-1.6 0,0 -2.6,-4.7 -2.4,-8.1 0.2,-3.3 1,-5.8 2.6,-9.3 1.6,-3.5 4.2,-12.7 -1.1,-16.4 -5.2,-3.5 -12.3,-3 -15.9,-0.7 z"
         id="path3600" />
      <path
         style="fill:#656565"
         d="m 171.4,45.4 c 0,0 -3.4,-4.2 -10.2,-2.1 -6.8,2.1 -8.2,7.9 -8.2,7.9 l 2.7,-1.8 -1.6,3.5 2.5,-2.1 c 0,0 -1.1,2.6 -1.1,2.5 0,-0.2 2.6,-2.1 2.6,-2.1 0,0 -1.8,4.6 -1.8,4.4 0.1,-0.2 6.5,-6.2 6.5,-6.2 l -3.4,7.2 1.6,-0.5 -1.5,7.3 1.5,-2.5 0.3,5.7 1.8,-6.2 1,4.3 1.1,-4.1 1.4,6.8 1.3,-3.5 0.9,3 1.8,-4.5 0.4,1.8 1.5,-2.7 0.2,1.6 1,-0.2 -2,7.5 1.9,-3.7 -0.6,6.3 3.1,-7.2 0.3,1.6 1.6,-6.7 0.3,3.2 0.6,-4.9 0.9,0.9 -0.7,-4.3 1,0.6 -1.9,-3.6 1.3,0.5 c 0,-0.2 -1.9,-8 -8.1,-7.7 z"
         id="path3602" />
      <path
         style="opacity:0.15"
         d="m 170.9,102.4 c 0,0 -6.7,8.3 -15.4,7.1 -9.2,-1.3 -2.7,-14.5 -2.7,-14.5 0,0 -8,14.1 -12.9,6.3 0.9,4 3.2,8 3.2,8 0,0 0,0 0,0 1.8,1.2 3.2,0.9 5.6,-2 1.8,12.4 21.9,6.1 24.9,3.3 -0.8,-2.7 -2.7,-8.2 -2.7,-8.2 z"
         id="path3604" />
      <path
         style="fill:#fbd7c7"
         d="m 186.2,120.6 c -0.7,-3.5 -2.2,-13.2 -2.9,-15.5 l -10.7,2.5 c 0.1,0.3 0.1,0.3 0.2,0.6 1,2.6 3.3,14.4 3.5,15.3 0.2,0.9 -2,3.3 -3,5.6 -2.7,6.1 -3.3,13.9 -3.7,15.5 -0.5,1.6 -1.6,2.9 -2.9,3.8 -1.3,0.9 -5.3,4.7 -5.7,5.8 -0.3,0.7 -1.3,4.8 -0.7,6.3 0.6,1.5 4.8,3 5.8,3 1,0 1,-1.4 1,-1.4 0,0 -1.1,-1.8 -1.2,-3.4 -0.1,-1.6 1.2,-2.7 4.3,-5 3.1,-2.3 3.4,-5.4 7,-11.1 3.6,-5.7 6.6,-9.9 7.8,-12.6 1.2,-2.9 1.5,-7.8 1.2,-9.4 z"
         id="path3606" />
      <path
         style="fill:#825012"
         d="m 71.6,263 c 0,0 7.4,1.9 7.4,4.1 0,1.1 0,4.8 0,5.8 0,1.9 -3.9,3.1 -3.9,5 0,2.4 4.8,3.9 6,3.5 1.3,-0.4 2.1,-1 2.1,-3.3 0,-2.3 0.8,-12.1 1.1,-15.1 0.3,-3 -0.9,-12.3 -0.9,-12.3 z"
         id="path3608" />
      <path
         style="opacity:0.2"
         d="m 71.6,263 c 0,0 7.4,1.9 7.4,4.1 0,1.1 0,4.8 0,5.8 0,1.9 -3.9,3.1 -3.9,5 0,2.4 4.8,3.9 6,3.5 1.3,-0.4 2.1,-1 2.1,-3.3 0,-2.3 0.8,-12.1 1.1,-15.1 0.3,-3 -0.9,-12.3 -0.9,-12.3 z"
         id="path3610" />
      <path
         style="fill:#825012"
         d="m 16,232.8 c 1.4,-0.5 6.6,-2.3 6.7,-3.3 0.1,-1 0,-2.6 1.2,-3.1 1.2,-0.6 2.3,-3.5 3.9,-3.8 1.6,-0.3 2.3,0.1 5.2,1 2.9,0.9 6.4,2.8 8.6,4.4 2.3,1.7 3.4,3.3 4.9,5.6 1.5,2.3 2,2.9 1.8,3.5 -0.2,0.6 -0.7,0.3 -0.3,1.2 0.5,1.4 0.8,3.1 2.5,3.5 5.9,1.6 19.6,-8 23.1,-9.1 8.4,-2.7 16.6,1.5 20.8,5 2.8,2.3 5.4,8.4 7.4,12.4 2,4 5.6,4.5 5.2,6.2 -0.2,0.7 -1.2,1.3 -3.4,0.4 -2.7,-1.1 -8.8,-7.8 -8.8,-7.8 0,0 0.8,2.5 -0.4,5.8 -1.2,3.3 -3.1,8.8 -1.5,10.6 1.7,1.8 3.9,3.7 4.1,5.6 0.2,1.9 1,15.2 1,15.8 0,0.6 -0.4,1.9 -1.7,2.3 -3.8,1.2 -8.4,-1.4 -7.8,-3.7 0.7,-2.4 3.3,-1.8 3.3,-5.2 0,-1.3 -0.3,-5 -0.6,-5.7 -0.3,-1 -1.4,-2 -2.7,-2.5 -1.1,-0.4 -6.1,-3.1 -7.1,-6.3 -1,-3.2 -1.5,-6.6 -3.1,-6.9 -1.6,-0.2 -7.3,9.1 -12,12.3 -4.7,3.2 -7.9,3.4 -7.9,3.4 0,0 -0.9,15.5 -0.9,18.5 0,3 2.1,6.2 2.5,8.1 0.4,2.1 0.8,5.6 -1.8,7.3 -3.1,2 -7,0.1 -7.9,-0.9 -0.8,-1 -1,-3.1 0.3,-4.3 1.3,-1.2 2.7,-2.3 2.3,-2.8 -0.4,-0.6 -2.1,-3.4 -2.4,-5.2 -0.4,-2.7 -0.8,-14.3 -4.1,-16.4 -1,-0.6 -3.4,-0.9 -4.1,0.1 -0.6,1 -0.6,7.2 -0.6,8.3 0,1.6 2.3,5 2.3,7.7 0,2.7 -1,4.2 -3.4,5.1 -1.9,0.6 -4.5,0.2 -6.4,-2.3 -1.2,-1.6 -0.3,-3.3 1,-4.1 0.8,-0.5 1.9,-0.7 2,-1.8 0.1,-1.1 -1.5,-2.7 -1.5,-4.7 0,-2 -0.8,-10 -0.8,-11 0,-3.2 -5.4,-6.3 -7.3,-13 -1,-3.3 -0.2,-7 -0.5,-9.8 -0.2,-1.7 -0.5,-9.2 -3.7,-9.9 -1.2,-0.3 -6.3,-0.2 -7.8,-1.8 -1.1,-1.2 -1.7,-2.7 -1.4,-4.6 0.8,-1.7 1.8,-4.1 1.8,-4.1 z"
         id="path3612" />
      <path
         style="fill:#262626"
         d="m 32.4,234.7 c 0,0 -0.6,-1.6 -2,-2.4 -1.3,-0.8 -2.7,0.7 -1,2 1.5,1.2 3,0.4 3,0.4 z"
         id="path3614" />
      <path
         style="fill:#262626"
         d="m 19.4,235.1 c 0.2,-1.5 -0.8,-2.2 -2.8,-2.7 -1.2,-0.2 -2.5,0.4 -2.5,1.9 0,2.1 1.8,3.7 1.8,3.7 0,0 3.2,0 3.5,-2.9 z"
         id="path3616" />
      <path
         style="fill:#262626"
         d="m 22.9,228 c 0,0 1,0.5 0.3,1.3 -0.8,0.9 -0.3,-1.3 -0.3,-1.3 z"
         id="path3618" />
      <path
         style="fill:#262626"
         d="m 166.7,159.5 -6.8,-1.5 c -0.3,-0.1 -0.5,-0.4 -0.5,-0.7 0.1,-0.3 0.4,-0.5 0.7,-0.4 l 4.7,1.1 -4.8,-2 c -0.3,-0.1 -0.5,-0.5 -0.3,-0.8 0.1,-0.3 0.5,-0.4 0.8,-0.3 l 6.6,2.7 z"
         id="path3620" />
      <path
         style="fill:#262626"
         d="m 49.1,241.2 c -0.2,0 -0.4,-0.1 -0.5,-0.3 -0.2,-0.3 -0.1,-0.6 0.2,-0.8 l 117.1,-81.8 c 0.3,-0.2 0.6,-0.1 0.8,0.1 0.2,0.3 0.1,0.6 -0.2,0.8 L 49.4,241.1 c -0.1,0.1 -0.2,0.1 -0.3,0.1 z"
         id="path3622" />
      <path
         style="fill:#262626"
         d="m 26.8,248.6 c 0,0 2.4,1.3 6.1,1.4 3.7,0 7,-1.5 8.8,-3.3 1.8,-1.8 6.7,-7.1 6.7,-7.1 l 1.7,1.8 c 0,0 -5.8,7.4 -8.3,8.9 -2.5,1.5 -5.2,2.8 -9,2.7 -3.8,-0.1 -5.5,-1.2 -5.5,-1.2 z"
         id="path3624" />
      <path
         style="opacity:0.2"
         d="m 36.9,233.2 c 0,0 -4.1,15.3 0.6,15.2 2.4,-0.1 10.2,-10.9 10.2,-10.9 0,0 -4.6,13.7 -11.1,13.7 -6.4,0.1 0.3,-18 0.3,-18 z"
         id="path3626" />
    </g>
  </g>
  <path
     d="M 19.534255,43.478085 C 8.746075,43.478085 0,37.390348 0,29.881882 0,22.372901 8.746075,16.285165 19.534255,16.285165 c 3.38259,0 6.563542,0.598743 9.337616,1.651172 5.475105,-2.060622 12.950651,-5.953996 12.950651,-5.953996 0,0 -4.874305,2.759157 -6.884004,6.109856 -0.513356,0.856449 -0.81427,1.75405 -0.986074,2.616672 3.176837,2.417605 5.116579,5.637651 5.116579,9.173013 0,7.508466 -8.746074,13.596203 -19.534768,13.596203"
     fill="#dddddd"
     id="path1"
     style="stroke-width:0.514384" />
  <path
     style="fill:#000000;fill-opacity:1;fill-rule:nonzero;stroke:none;stroke-width:0.264583"
     id="path2"
     d="m 30.314556,32.208554 c 0.0032,-0.202874 -0.02348,-0.404669 -0.04098,-0.606459 -0.03157,-0.372883 -0.05682,-0.746173 -0.07647,-1.119862 -0.02221,-0.433674 -0.03535,-0.867725 -0.04691,-1.301787 -0.0106,-0.440693 -0.01768,-0.88146 -0.02402,-1.322232 -0.0037,-0.361188 -0.01666,-0.72219 -0.02686,-1.083233 -0.0076,-0.26752 -0.01404,-0.53507 -0.01974,-0.802637 -0.0023,-0.107089 -0.0041,-0.214186 -0.0059,-0.321284 -0.0105,-0.622165 -0.89037,-0.607322 -0.879875,0.01484 v 0 c 0.0018,0.108406 0.0037,0.216812 0.006,0.325209 0.0058,0.269601 0.01225,0.539185 0.0199,0.80874 0.01009,0.356965 0.02296,0.713899 0.0266,1.071007 0.0064,0.44437 0.01353,0.888733 0.02424,1.333021 0.01177,0.441677 0.02519,0.883341 0.04782,1.324618 0.02022,0.383627 0.04611,0.766855 0.07855,1.149657 0.01532,0.176496 0.03983,0.353004 0.03768,0.5304 0,0.622255 0.88,0.622255 0.88,0 z" />
  <path
     style="fill:#000000;fill-opacity:1;fill-rule:nonzero;stroke:none;stroke-width:0.264583"
     id="path3"
     d="m 29.370766,25.704019 c 0.203276,0.203183 0.421369,0.389282 0.647433,0.56639 0.428988,0.3178 0.855433,0.639004 1.283599,0.957906 0.40167,0.299887 0.794665,0.611077 1.191969,0.916649 0.332651,0.258019 0.66764,0.512951 1.003197,0.76717 0.162909,0.122918 0.327966,0.242938 0.490622,0.366178 0.496137,0.375563 1.027264,-0.32608 0.531126,-0.701645 v 0 c -0.162667,-0.123034 -0.327398,-0.24329 -0.490344,-0.365967 -0.333871,-0.252936 -0.667173,-0.506584 -0.998145,-0.763315 -0.40092,-0.308282 -0.797404,-0.62235 -1.202779,-0.92483 -0.422978,-0.315026 -0.844124,-0.632502 -1.268147,-0.946129 -0.19844,-0.153816 -0.388111,-0.317543 -0.566277,-0.494661 -0.44,-0.44 -1.062254,0.182254 -0.622254,0.622254 z" />
  <path
     style="fill:#000000;fill-opacity:1;fill-rule:nonzero;stroke:none;stroke-width:0.264583"
     id="path4"
     d="m 34.326376,28.767682 c -0.298047,0.03176 -0.59687,0.05501 -0.895886,0.07537 -0.475998,0.03109 -0.952667,0.0493 -1.42937,0.06516 -0.460406,0.01572 -0.921027,0.02344 -1.381512,0.03616 -0.436841,0.01363 -0.873726,0.02564 -1.310673,0.03527 -0.407401,0.0087 -0.814853,0.01468 -1.222314,0.01974 -0.358862,0.0043 -0.717736,0.0074 -1.076613,0.01003 -0.283638,0.0021 -0.56728,0.0037 -0.850922,0.0051 -0.229938,0.0011 -0.459878,0.0019 -0.689818,0.0026 -0.183212,5.29e-4 -0.366426,0.0011 -0.549639,0.0013 -0.159909,2.65e-4 -0.319818,5.3e-4 -0.479727,5.3e-4 -0.17122,1.66e-4 -0.34244,2.51e-4 -0.51366,2.64e-4 -0.180495,7.4e-5 -0.36099,1.25e-4 -0.541486,1.64e-4 -0.119641,2.4e-5 -0.239282,4.3e-5 -0.358923,6.1e-5 -0.622254,9.3e-5 -0.622124,0.880092 1.3e-4,0.879999 v 0 c 0.119661,-1.6e-5 0.239323,-3.4e-5 0.358984,-6.1e-5 0.180563,-4e-5 0.361126,-8.7e-5 0.541689,-1.64e-4 0.171399,-7.7e-5 0.342798,-1.61e-4 0.514196,-2.65e-4 0.160127,-1.69e-4 0.320254,-2.64e-4 0.480381,-5.29e-4 0.183563,-2.64e-4 0.367126,-7.93e-4 0.550689,-0.0013 0.230497,-7.93e-4 0.460994,-0.0016 0.691489,-0.0026 0.284388,-0.0013 0.568775,-0.0029 0.853159,-0.0051 0.360324,-0.0027 0.720645,-0.0057 1.080953,-0.01005 0.410301,-0.0051 0.820592,-0.01111 1.230833,-0.01987 0.438587,-0.0097 0.877113,-0.02172 1.315595,-0.03539 0.462139,-0.01281 0.924418,-0.02048 1.386478,-0.03631 0.4869,-0.01622 0.973763,-0.0349 1.459938,-0.06672 0.303419,-0.02072 0.606677,-0.04407 0.909109,-0.07637 0.620104,-0.05168 0.547024,-0.928637 -0.07308,-0.876961 z" />
  <path
     style="fill:#000000;fill-opacity:1;fill-rule:nonzero;stroke:none;stroke-width:0.264583"
     id="path5"
     d="m 17.232684,26.658562 c -0.174201,0.10977 -0.325258,0.252814 -0.454763,0.412456 -0.03541,0.04365 -0.06788,0.08962 -0.101813,0.134427 -0.228968,0.328488 -0.364983,0.705691 -0.48599,1.083969 -0.09804,0.340923 -0.181409,0.687898 -0.23027,1.039669 -0.01008,0.0726 -0.01664,0.14564 -0.02495,0.218459 -0.02718,0.359158 -0.03652,0.727204 0.05338,1.079309 0.0208,0.08146 0.05028,0.16046 0.07542,0.240689 0.164962,0.427445 0.425065,0.810956 0.740701,1.14168 0.06552,0.06865 0.135874,0.132506 0.203811,0.19876 0.362176,0.323683 0.788721,0.568561 1.240021,0.745871 0.08741,0.03434 0.17707,0.06268 0.265605,0.09402 0.09061,0.0245 0.18012,0.05348 0.271825,0.07348 0.34177,0.07453 0.747713,0.104564 1.096499,0.07187 0.09614,-0.009 0.191199,-0.02725 0.286798,-0.04087 0.365424,-0.07228 0.71981,-0.193636 1.05562,-0.354547 0.203048,-0.0973 0.273052,-0.14368 0.465265,-0.25649 0.278561,-0.16804 0.539732,-0.365072 0.767041,-0.598451 0.135125,-0.138731 0.178955,-0.200342 0.298684,-0.349361 0.168157,-0.225528 0.315167,-0.467857 0.427332,-0.726262 0.06869,-0.158253 0.08342,-0.215821 0.136169,-0.377376 0.06689,-0.242599 0.109576,-0.491545 0.127315,-0.742569 0.01046,-0.148045 0.0085,-0.20557 0.0094,-0.352808 -0.0018,-0.289658 -0.03302,-0.577755 -0.06836,-0.864881 -0.02881,-0.243877 -0.09648,-0.479314 -0.181089,-0.708991 -0.09813,-0.246033 -0.24818,-0.464576 -0.402842,-0.677666 -0.164836,-0.22768 -0.376238,-0.413936 -0.595798,-0.586843 -0.223871,-0.175219 -0.471704,-0.312894 -0.726735,-0.436407 -0.215875,-0.105702 -0.441304,-0.187605 -0.671917,-0.254129 -0.202784,-0.05674 -0.410079,-0.09449 -0.617772,-0.127847 -0.189635,-0.03269 -0.380904,-0.04768 -0.573022,-0.05337 -0.167052,-0.006 -0.333998,0.004 -0.500607,0.01501 -0.140136,0.0101 -0.279322,0.03113 -0.417281,0.0573 -0.121508,0.02365 -0.240993,0.05589 -0.359611,0.09101 -0.106874,0.03083 -0.211413,0.06926 -0.314415,0.111098 -0.09735,0.04239 -0.193147,0.08788 -0.287427,0.13667 -0.09046,0.04715 -0.176135,0.10265 -0.262746,0.156368 -0.109326,0.0677 -0.208381,0.148608 -0.300557,0.237909 -0.08129,0.0796 -0.14758,0.171931 -0.21011,0.266446 -0.341848,0.519943 0.393462,1.003387 0.73531,0.483447 v 0 c 0.02734,-0.04203 0.05466,-0.08444 0.08984,-0.12051 0.04554,-0.04525 0.09455,-0.08551 0.149356,-0.119462 0.06732,-0.04176 0.133705,-0.08523 0.20353,-0.12274 0.07072,-0.03664 0.142465,-0.07087 0.215211,-0.103326 0.07601,-0.03121 0.153315,-0.05957 0.232327,-0.08225 0.0912,-0.02713 0.182957,-0.05241 0.276412,-0.07068 0.101688,-0.02032 0.204817,-0.03467 0.30815,-0.0432 0.138869,-0.0092 0.278014,-0.01852 0.417268,-0.01347 0.154036,0.0043 0.307221,0.0159 0.459231,0.04267 0.172918,0.0276 0.345634,0.05829 0.51461,0.104902 0.182666,0.05182 0.360718,0.117012 0.531524,0.200572 0.198719,0.09564 0.392561,0.200705 0.567052,0.336963 0.1563,0.121293 0.308722,0.251227 0.426567,0.411559 0.107928,0.147929 0.215705,0.297805 0.289526,0.466403 0.06206,0.165137 0.11173,0.334441 0.132628,0.510262 0.03091,0.250113 0.05908,0.500994 0.06175,0.753311 -5.56e-4,0.281985 -0.0196,0.555688 -0.09434,0.829278 -0.03333,0.105249 -0.05078,0.169032 -0.09397,0.270785 -0.08354,0.196829 -0.193597,0.38167 -0.319797,0.553916 -0.08774,0.110924 -0.124672,0.162801 -0.222519,0.265594 -0.176989,0.185939 -0.383241,0.340656 -0.602516,0.473181 -0.148232,0.088 -0.219681,0.134593 -0.375053,0.210058 -0.264278,0.128362 -0.542652,0.227547 -0.830127,0.288782 -0.06499,0.01064 -0.129475,0.025 -0.194967,0.03189 -0.207509,0.0218 -0.420683,0.01214 -0.627328,-0.01262 -0.06823,-0.0082 -0.136541,-0.01688 -0.203858,-0.0307 -0.06985,-0.01434 -0.138061,-0.03574 -0.207092,-0.0536 -0.06931,-0.02387 -0.139571,-0.04513 -0.207946,-0.07155 -0.282659,-0.109249 -0.562574,-0.250468 -0.806545,-0.43135 -0.05869,-0.04351 -0.113121,-0.0925 -0.169682,-0.138742 -0.05336,-0.05111 -0.108585,-0.100336 -0.160088,-0.153313 -0.233448,-0.240141 -0.430939,-0.51739 -0.559658,-0.827447 -0.04621,-0.133065 -0.05853,-0.150006 -0.08137,-0.289068 -0.03582,-0.218125 -0.02405,-0.441296 -0.0095,-0.660604 0.0063,-0.05787 0.01091,-0.115932 0.01878,-0.173601 0.04226,-0.309523 0.11527,-0.614849 0.200369,-0.915038 0.09044,-0.285461 0.187477,-0.572413 0.352799,-0.824767 0.0675,-0.09272 0.138289,-0.184986 0.225992,-0.259987 0.01509,-0.01291 0.03189,-0.02371 0.047,-0.03658 0.0015,-0.0013 0.0016,-0.0037 0.0024,-0.0055 0.545229,-0.299876 0.12114,-1.070945 -0.424087,-0.77107 z" />
  <path
     style="fill:#000000;fill-opacity:1;fill-rule:nonzero;stroke:none;stroke-width:0.264583"
     id="path6"
     d="m 16.187869,29.331565 c -0.223669,-0.0062 -0.447408,-0.0093 -0.67114,-0.0123 -0.336965,-0.004 -0.673947,-0.0067 -1.01093,-0.0088 -0.341842,-0.0019 -0.683686,-0.0033 -1.025531,-0.0045 -0.256886,-7.94e-4 -0.513773,-0.0016 -0.77066,-0.0024 -0.22113,-5.3e-4 -0.442259,-7.94e-4 -0.663389,-0.0011 -0.209863,-2.59e-4 -0.419727,-5.29e-4 -0.629592,-5.29e-4 -0.195675,-1.32e-4 -0.391353,-2.2e-4 -0.587029,-2.65e-4 -0.243273,0.0013 -0.486381,5.3e-4 -0.729509,-0.0083 C 9.745357,29.280671 9.390805,29.265431 9.03661,29.241991 8.649863,29.218121 8.263913,29.186071 7.878875,29.142781 7.545201,29.104791 7.215057,29.041046 6.890424,28.955636 6.661273,28.894846 6.444823,28.801347 6.245158,28.674252 6.105709,28.576832 5.977161,28.464982 5.872429,28.330717 5.793519,28.232997 5.75579,28.119701 5.732133,27.998572 c -0.02273,-0.112445 0.0057,-0.214079 0.0419,-0.319505 0.04121,-0.102301 0.09231,-0.200938 0.175101,-0.275199 0.0814,-0.07267 0.18124,-0.108283 0.285009,-0.135006 0.189029,-0.02647 0.380903,-0.02879 0.571418,-0.02336 0.22207,0.01275 0.443159,0.03684 0.663832,0.06416 0.185433,0.02638 0.367594,0.07188 0.545245,0.130673 0.162997,0.05982 0.321657,0.131267 0.47357,0.21528 0.07627,0.04328 0.152043,0.0874 0.227423,0.132221 0.534993,0.317775 0.984395,-0.438822 0.4494,-0.756598 v 0 C 9.080681,26.981178 8.995989,26.931718 8.910523,26.883572 8.710109,26.774772 8.502588,26.679065 8.287172,26.6036 8.055501,26.52899 7.819111,26.468425 7.577452,26.436322 c -0.24901,-0.03079 -0.498579,-0.05771 -0.749263,-0.07053 -0.278377,-0.0066 -0.55997,-0.0034 -0.833187,0.05619 -0.04455,0.01311 -0.08971,0.02432 -0.133659,0.03933 -0.200366,0.06843 -0.383172,0.17831 -0.537419,0.323273 -0.03014,0.03155 -0.06194,0.0616 -0.09043,0.09464 -0.133051,0.15436 -0.225418,0.339 -0.296614,0.528587 -0.03166,0.100695 -0.05002,0.148524 -0.06918,0.253865 -0.03144,0.17289 -0.02793,0.34824 0.0039,0.520803 0.02429,0.10894 0.02912,0.145146 0.0675,0.25354 0.05735,0.161983 0.144332,0.311153 0.248478,0.447254 0.170378,0.207534 0.366765,0.389956 0.591949,0.537668 0.04402,0.02709 0.0872,0.05558 0.132051,0.08128 0.236932,0.135747 0.494332,0.230913 0.7565,0.304848 0.365693,0.09494 0.736888,0.168179 1.11262,0.210211 0.398439,0.0447 0.797796,0.07813 1.197994,0.102799 0.363074,0.02392 0.726495,0.03981 1.090117,0.05274 0.253463,0.0089 0.5069,0.01048 0.760508,0.0089 0.19558,7.1e-5 0.39116,1.56e-4 0.586738,2.65e-4 0.20969,1.45e-4 0.419383,2.64e-4 0.629073,5.29e-4 0.220805,2.64e-4 0.441611,5.29e-4 0.662416,0.0011 0.256545,5.29e-4 0.513091,0.0013 0.769633,0.0024 0.341075,0.0013 0.682149,0.0026 1.023221,0.0045 0.334936,0.0021 0.669869,0.0047 1.004789,0.0087 0.227595,0.003 0.455182,0.0065 0.682721,0.01238 0.622254,0 0.622254,-0.879999 0,-0.879999 z" />
  <path
     style="fill:#000000;fill-opacity:1;fill-rule:nonzero;stroke:none;stroke-width:0.264583"
     id="path8"
     d="m 11.858997,30.283557 c 0.006,0.281033 0.0092,0.562118 0.01259,0.84319 0.0032,0.264872 0.0056,0.529749 0.0078,0.794629 2.64e-4,0.03637 5.29e-4,0.07273 7.93e-4,0.109098 0.0049,0.622236 0.884921,0.615238 0.879973,-0.007 v 0 c -2.65e-4,-0.03648 -5.29e-4,-0.07296 -7.94e-4,-0.109448 -0.0021,-0.266007 -0.0047,-0.532013 -0.0079,-0.79801 -0.0035,-0.286382 -0.0067,-0.572777 -0.01294,-0.859115 -0.01884,-0.621969 -0.898443,-0.595315 -0.879597,0.02665 z" />
  <path
     style="fill:#000000;fill-opacity:1;fill-rule:nonzero;stroke:none;stroke-width:0.264583"
     id="path9"
     d="m 5.886094,33.070564 c 0.13488,0.02458 0.270796,0.03585 0.407755,0.04128 0.284088,0.0057 0.566235,-0.03658 0.844174,-0.0912 0.241398,-0.05467 0.478467,-0.140605 0.691957,-0.267316 0.04292,-0.02548 0.08378,-0.05428 0.125664,-0.08142 0.211569,-0.145669 0.382931,-0.336712 0.548534,-0.530696 0.08758,-0.102772 0.166476,-0.212289 0.24561,-0.321538 0.365017,-0.503946 -0.34767,-1.020159 -0.712687,-0.516212 v 0 c -0.06545,0.09037 -0.130066,0.181417 -0.202356,0.266559 -0.112307,0.131702 -0.224713,0.265362 -0.365265,0.368369 -0.151694,0.105077 -0.32276,0.179197 -0.503134,0.219165 -0.211453,0.04273 -0.426501,0.07626 -0.642776,0.0748 -0.117975,-0.0028 -0.233495,-0.01902 -0.349912,-0.03741 -0.619164,-0.06191 -0.706728,0.813718 -0.08756,0.875633 z" />
  <path
     style="fill:#000000;fill-opacity:1;fill-rule:nonzero;stroke:none;stroke-width:0.264583"
     id="path10"
     d="m 8.17537,31.662658 c -0.0041,-0.0084 -0.01564,-0.03395 -0.01225,-0.02521 0.05338,0.137644 0.12546,0.267745 0.192606,0.398889 0.122314,0.23668 0.281188,0.45072 0.452509,0.653677 0.164015,0.183226 0.360524,0.334809 0.579143,0.447587 0.0452,0.02331 0.0921,0.04319 0.138145,0.06479 0.273105,0.11988 0.541155,0.150828 0.835644,0.149132 0.106016,-2.64e-4 0.211354,-0.01228 0.316534,-0.02405 0.618286,-0.07016 0.51907,-0.944544 -0.09922,-0.874387 v 0 c -0.07534,0.0087 -0.150733,0.01841 -0.226748,0.01849 -0.157279,0.0029 -0.313531,-0.0062 -0.460261,-0.06948 -0.15462,-0.06732 -0.298667,-0.1553 -0.412467,-0.281697 -0.128715,-0.15032 -0.247716,-0.309462 -0.34,-0.48514 C 9.077265,31.514696 9.01197,31.395428 8.962462,31.269131 8.684181,30.712572 7.897085,31.106119 8.175366,31.662681 Z" />
  <path
     style="fill:#000000;fill-opacity:1;fill-rule:nonzero;stroke:none;stroke-width:0.264583"
     id="path11"
     d="m 132.95929,51.726306 c -0.44087,0.39931 -0.88696,0.793065 -1.3388,1.179955 -0.73071,0.605859 -1.44615,1.22977 -2.19236,1.816735 -0.73572,0.583557 -1.52315,1.089562 -2.35007,1.532159 -0.54689,0.260305 -1.1181,0.552855 -1.73386,0.60052 -0.0966,0.0075 -0.19386,-0.0024 -0.29079,-0.0034 -0.59127,-0.124587 -1.0066,-0.56578 -1.33647,-1.045038 -0.16922,-0.344369 -0.28581,-0.774197 -0.10679,-1.143379 0.0261,-0.05382 0.0737,-0.09424 0.11051,-0.141366 0.37863,-0.458669 0.93985,-0.689261 1.50482,-0.822341 0.78316,-0.124966 1.51171,0.036 2.2488,0.289462 0.87128,0.312925 1.67636,0.767567 2.45121,1.268095 0.73454,0.506783 1.4568,1.032669 2.15744,1.585513 0.5684,0.466283 1.11654,0.956394 1.68295,1.424979 0.47952,0.396569 1.04035,-0.281566 0.56083,-0.678135 v 0 c -0.57183,-0.472757 -1.12439,-0.968248 -1.69891,-1.43787 -0.72283,-0.569568 -1.4669,-1.112737 -2.22526,-1.633963 -0.83583,-0.53853 -1.7048,-1.026562 -2.64469,-1.361678 -0.92375,-0.311687 -1.76656,-0.479364 -2.74357,-0.310685 -0.83198,0.212889 -1.50382,0.516316 -2.04236,1.21425 -0.0713,0.127979 -0.15894,0.248129 -0.21388,0.383934 -0.251,0.62048 -0.0637,1.312154 0.23973,1.870337 0.53899,0.750935 1.11055,1.282012 2.06184,1.417863 0.143,-0.0028 0.28659,0.0048 0.42899,-0.0085 0.71082,-0.06634 1.37318,-0.385894 2.00518,-0.692975 0.87157,-0.467768 1.7028,-1.000638 2.4786,-1.616266 0.75544,-0.594905 1.48084,-1.225814 2.22054,-1.839878 0.45411,-0.389022 0.90274,-0.784598 1.34586,-1.186053 0.46829,-0.409757 -0.11119,-1.072025 -0.57949,-0.662268 z" />
  <path
     style="fill:#000000;fill-opacity:1;fill-rule:nonzero;stroke:none;stroke-width:0.264583"
     id="path12"
     d="m 130.61095,55.288327 c 0.63327,-0.032 1.26764,-0.03789 1.90156,-0.04773 1.161,-0.01564 2.32208,-0.02402 3.48316,-0.03134 1.46216,-0.0087 2.92434,-0.01244 4.38652,-0.01598 1.71263,-0.0052 3.42537,0.0026 5.1367,0.07221 1.71375,0.08286 3.42758,0.163521 5.1418,0.235813 1.2628,0.05304 2.52597,0.09658 3.78922,0.137184 0.16443,0.0051 0.32887,0.01011 0.4933,0.01516 0.62196,0.0191 0.64899,-0.860472 0.027,-0.879583 v 0 c -0.16402,-0.005 -0.32804,-0.01008 -0.49206,-0.01511 -1.26031,-0.04051 -2.52054,-0.08394 -3.78041,-0.136856 -1.71469,-0.07231 -3.42898,-0.153032 -5.1432,-0.23587 -1.72394,-0.06981 -3.44927,-0.07843 -5.17451,-0.07294 -1.46332,0.0035 -2.92664,0.0073 -4.38994,0.01601 -1.16378,0.0073 -2.32757,0.01574 -3.49127,0.03142 -0.66572,0.01035 -1.33234,0.01413 -1.99705,0.05442 -0.61745,0.07718 -0.5083,0.950386 0.10915,0.873204 z" />
  <path
     style="fill:#000000;fill-opacity:1;fill-rule:nonzero;stroke:none;stroke-width:0.264583"
     id="path13"
     d="m 145.08175,54.612572 c 0.0426,-0.531778 0.0901,-1.06322 0.12691,-1.595565 0.0891,-1.338492 0.12264,-2.679438 0.1366,-4.020526 0.007,-1.2207 0.004,-2.441429 0.002,-3.662137 1e-4,-0.81339 -0.0102,-1.626733 -0.0194,-2.440059 -0.006,-0.52977 -0.0114,-1.059548 -0.0163,-1.589331 -0.003,-0.343892 -0.006,-0.687787 -0.008,-1.031682 -0.002,-0.244409 -0.003,-0.48882 -0.004,-0.733232 -7.9e-4,-0.188783 -0.001,-0.377563 -0.002,-0.566346 -0.002,-0.622252 -0.88169,-0.619855 -0.88,0.0024 v 0 c 5.3e-4,0.189302 0.001,0.378601 0.002,0.567902 0.001,0.245216 0.002,0.490429 0.004,0.73564 0.002,0.344487 0.005,0.688975 0.008,1.033459 0.005,0.530384 0.0102,1.060763 0.0163,1.591136 0.009,0.810546 0.0194,1.62111 0.0193,2.431722 0.002,1.217131 0.005,2.43428 -0.002,3.651398 -0.0137,1.323922 -0.0467,2.647701 -0.13456,3.969067 -0.0381,0.552546 -0.0912,1.103641 -0.129,1.656157 0,0.622252 0.88,0.622252 0.88,0 z" />
  <path
     style="fill:#000000;fill-opacity:1;fill-rule:nonzero;stroke:none;stroke-width:0.264583"
     id="path14"
     d="m 144.69665,47.504273 c 0.12628,0.285404 0.36338,0.505363 0.57367,0.729748 0.40803,0.424333 0.81463,0.85005 1.22309,1.273971 0.46337,0.481661 0.9158,0.973762 1.36024,1.472914 0.37815,0.430718 0.75039,0.866498 1.12691,1.298628 0.30141,0.350047 0.61709,0.687422 0.93308,1.024253 0.22439,0.230391 0.44731,0.462174 0.66621,0.697793 0.16602,0.178417 0.32467,0.363128 0.47951,0.551238 0.14859,0.1816 0.30939,0.352526 0.4664,0.526741 0.41664,0.462179 1.07026,-0.127045 0.65362,-0.589222 v 0 c -0.14825,-0.164399 -0.30014,-0.325617 -0.44062,-0.496827 -0.16606,-0.201681 -0.33635,-0.399605 -0.51428,-0.59097 -0.2199,-0.23658 -0.44351,-0.469633 -0.66905,-0.700839 -0.30862,-0.328965 -0.61706,-0.65836 -0.9114,-1.000276 -0.37861,-0.434509 -0.75285,-0.872749 -1.13319,-1.305756 -0.45218,-0.507693 -0.91231,-1.008361 -1.38374,-1.498277 -0.40569,-0.421018 -0.80946,-0.843889 -1.21479,-1.265243 -0.11243,-0.119872 -0.22811,-0.23817 -0.33352,-0.364439 -0.0157,-0.01879 -0.0295,-0.03908 -0.0449,-0.05808 -0.003,-0.0039 -0.0101,-0.01545 -0.0108,-0.01048 -0.001,0.0093 0.006,0.01789 0.008,0.02685 -0.19677,-0.59032 -1.03161,-0.312042 -0.83484,0.278281 z" />
  <path
     style="fill:#000000;fill-opacity:1;fill-rule:nonzero;stroke:none;stroke-width:0.264583"
     id="path15"
     d="m 143.22069,39.978859 c 0.0821,-0.163576 0.17775,-0.320503 0.28935,-0.465531 0.14722,-0.196223 0.36539,-0.310708 0.58496,-0.408096 0.28043,-0.09343 0.57593,-0.07883 0.86595,-0.05522 0.18816,0.01963 0.37818,0.04307 0.5595,0.09965 0.0935,0.02916 0.11485,0.04277 0.20237,0.08384 0.19735,0.107873 0.35882,0.263025 0.5086,0.42822 0.11076,0.126206 0.21705,0.255841 0.31503,0.392205 0.36437,0.504412 1.07772,-0.01087 0.71335,-0.5153 v 0 c -0.1185,-0.163393 -0.24523,-0.320172 -0.3793,-0.471122 -0.2322,-0.251886 -0.48649,-0.482799 -0.79633,-0.636395 -0.0563,-0.02471 -0.11151,-0.05187 -0.16877,-0.07416 -0.2827,-0.110042 -0.58559,-0.15449 -0.88575,-0.184255 -0.44693,-0.0339 -0.87423,-0.03484 -1.29924,0.131619 -0.0621,0.02876 -0.12537,0.05518 -0.18634,0.08629 -0.28369,0.144759 -0.54319,0.338358 -0.73686,0.593162 -0.14896,0.200342 -0.28382,0.411551 -0.39068,0.637691 -0.25272,0.568624 0.55143,0.926025 0.80416,0.357401 z" />
  <path
     style="fill:#000000;fill-opacity:1;fill-rule:nonzero;stroke:none;stroke-width:0.264583"
     d="m 152.793,38.647046 c -0.73964,-0.05699 -1.47923,-0.114382 -2.21959,-0.161277 -0.93587,-0.06308 -1.87198,-0.124881 -2.80938,-0.160364 -0.62527,-0.02381 -1.25041,-0.05339 -1.8739,-0.107693 -0.26322,-0.02045 -0.52678,-0.03828 -0.79099,-0.03595 -0.62226,0 -0.62226,0.879999 0,0.879999 l 2e-5,-6e-6 c 0.24134,-0.0024 0.48206,0.01439 0.72249,0.03328 0.63513,0.05524 1.27193,0.0854 1.90886,0.109723 0.92885,0.03518 1.85641,0.0965 2.78373,0.159009 0.73755,0.0467 1.47435,0.103894 2.21117,0.160668"
     id="path28" />
  <path
     style="fill:#ff4400;fill-opacity:1;fill-rule:nonzero;stroke:none;stroke-width:0.264583"
     d="m 152.72541,39.524435 c 0.44383,0.03424 0.88774,0.06726 1.33183,0.09799 0.27973,0.02175 0.55999,0.03406 0.84039,0.0426 0.27224,0.007 0.54453,0.01056 0.81675,0.01802 0.27933,0.0048 0.55785,0.02801 0.83591,0.05347 0.27832,0.02875 0.55594,0.06537 0.83301,0.104471 0.25605,0.03953 0.51297,0.07265 0.77039,0.101804 0.13758,0.01537 0.27539,0.02846 0.41324,0.04102 0.61969,0.05644 0.69951,-0.81993 0.0798,-0.876374 v 0 c -0.13146,-0.01196 -0.26289,-0.02442 -0.39409,-0.03906 -0.24949,-0.02822 -0.49846,-0.06045 -0.74662,-0.09879 -0.29123,-0.04094 -0.58299,-0.07959 -0.87556,-0.10941 -0.29672,-0.02714 -0.59394,-0.05149 -0.89199,-0.0568 -0.27136,-0.0074 -0.54277,-0.01106 -0.81414,-0.01794 -0.26906,-0.0082 -0.53797,-0.01995 -0.80638,-0.04091 -0.44179,-0.03056 -0.88342,-0.06341 -1.32495,-0.09748"
     id="path16" />
  <path
     style="fill:#ff4400;fill-opacity:1;fill-rule:nonzero;stroke:none;stroke-width:0.264583"
     id="path17"
     d="m 155.6957,37.517562 c -0.25133,0.392401 -0.49256,0.791181 -0.73557,1.188771 -0.2674,0.441341 -0.53117,0.884867 -0.79817,1.326454 -0.13333,0.218273 -0.0679,0.110485 -0.19631,0.323337 -0.3214,0.532825 0.43213,0.98735 0.75353,0.454525 v 0 c 0.12654,-0.209807 0.0613,-0.102272 0.19584,-0.322549 0.26626,-0.440388 0.52935,-0.882681 0.79597,-1.322848 0.23698,-0.387731 0.47236,-0.776533 0.71692,-1.159554 0.34516,-0.517745 -0.38704,-1.005883 -0.73221,-0.488136 z" />
  <path
     style="fill:#ff4400;fill-opacity:1;fill-rule:nonzero;stroke:none;stroke-width:0.264583"
     id="path18"
     d="m 158.42856,39.259795 c -0.0132,0.163105 -0.0142,0.326864 -0.01,0.490321 0.0137,0.225412 0.0367,0.45099 0.0784,0.673097 0.009,0.04739 0.0196,0.09444 0.0294,0.141653 0.0619,0.255995 0.15928,0.503481 0.28931,0.732618 0.0258,0.04541 0.0541,0.08933 0.0811,0.13399 0.064,0.09201 0.11913,0.178694 0.19751,0.260041 0.10601,0.11 0.19351,0.177093 0.32173,0.258791 0.13918,0.08869 0.19793,0.110347 0.34802,0.180936 0.27841,0.112641 0.57129,0.184959 0.8711,0.206734 0.20902,0.01519 0.28241,0.0064 0.49136,-0.0019 0.3934,-0.02696 0.77663,-0.123362 1.14921,-0.24874 0.0652,-0.02193 0.12955,-0.0461 0.19432,-0.06914 0.24792,-0.09182 0.48658,-0.208735 0.70129,-0.363985 0.13659,-0.09876 0.16735,-0.133575 0.2904,-0.246623 0.2128,-0.222396 0.38593,-0.481743 0.51235,-0.762445 0.024,-0.05324 0.0443,-0.108037 0.0665,-0.162055 0.11882,-0.345442 0.13326,-0.71026 0.13799,-1.071821 0.002,-0.24991 -0.0131,-0.502534 -0.0779,-0.745078 -0.0137,-0.05139 -0.0316,-0.10161 -0.0473,-0.152418 -0.0799,-0.213789 -0.19794,-0.412562 -0.35084,-0.582464 -0.10373,-0.115269 -0.15702,-0.154427 -0.27385,-0.254495 -0.22396,-0.173226 -0.4631,-0.32988 -0.72149,-0.447207 -0.0503,-0.02286 -0.10204,-0.04255 -0.15307,-0.06382 -0.18599,-0.06704 -0.37802,-0.120126 -0.57364,-0.15041 -0.12373,-0.01916 -0.15469,-0.01847 -0.27884,-0.02661 -0.18535,-0.0042 -0.37114,0.01283 -0.55375,0.04433 -0.11923,0.02056 -0.16336,0.03264 -0.28093,0.06005 -0.251,0.0589 -0.49421,0.145745 -0.73493,0.237064 -0.18938,0.07228 -0.37253,0.158998 -0.55146,0.253941 -0.15065,0.07881 -0.29026,0.175723 -0.4223,0.282324 -0.0812,0.06936 -0.15983,0.142957 -0.2284,0.225044 -0.0532,0.06372 -0.062,0.07948 -0.1082,0.146222 -0.0796,0.122865 -0.14492,0.254818 -0.19066,0.394002 -0.0109,0.03308 -0.0198,0.06675 -0.0298,0.100123 -0.047,0.178748 -0.0766,0.36144 -0.10471,0.543931 -0.004,0.02408 -0.007,0.04815 -0.0107,0.07223 -0.0907,0.615606 0.77988,0.743903 0.8706,0.128297 v 0 c 0.003,-0.02225 0.007,-0.04452 0.01,-0.06678 0.0223,-0.145058 0.0453,-0.290274 0.0802,-0.432927 0.0235,-0.08573 0.0536,-0.168934 0.10269,-0.243824 0.008,-0.01283 0.0279,-0.0436 0.0384,-0.05668 0.0378,-0.04724 0.0826,-0.08899 0.12801,-0.128646 0.0856,-0.07202 0.17956,-0.133437 0.27805,-0.186311 0.14627,-0.07796 0.29604,-0.149032 0.45095,-0.208339 0.20435,-0.07782 0.41068,-0.15255 0.62375,-0.203028 0.19039,-0.04526 0.38372,-0.08306 0.58032,-0.08261 0.0705,0.0037 0.1038,0.0037 0.17356,0.01386 0.13533,0.01966 0.26824,0.05551 0.39772,0.09884 0.0337,0.01352 0.0679,0.02582 0.10115,0.04052 0.19317,0.08543 0.37096,0.202372 0.53955,0.328568 0.0627,0.05191 0.10907,0.08701 0.165,0.144735 0.0808,0.08338 0.14451,0.1831 0.18998,0.289597 0.009,0.02638 0.0194,0.05234 0.0272,0.07914 0.0503,0.174434 0.0564,0.357902 0.0558,0.53812 -0.003,0.252629 -0.007,0.507928 -0.0742,0.753303 -0.014,0.03554 -0.0266,0.07162 -0.0419,0.10663 -0.0797,0.182988 -0.18871,0.353568 -0.32063,0.503134 -0.0748,0.07118 -0.0992,0.09852 -0.1822,0.160674 -0.15357,0.114943 -0.32644,0.198651 -0.50577,0.265181 -0.35186,0.12628 -0.71104,0.239794 -1.08625,0.267443 -0.16204,0.0081 -0.20026,0.01429 -0.36117,0.0058 -0.20385,-0.01077 -0.40289,-0.059 -0.59368,-0.130472 -0.0393,-0.01762 -0.0793,-0.03377 -0.11795,-0.05288 -0.0589,-0.02913 -0.13284,-0.07231 -0.18821,-0.109945 -0.0201,-0.01368 -0.0408,-0.02694 -0.0584,-0.04375 -0.046,-0.04395 -0.0841,-0.102254 -0.12076,-0.153355 -0.0188,-0.03031 -0.0385,-0.0601 -0.0564,-0.09093 -0.0903,-0.155139 -0.15864,-0.323252 -0.20343,-0.496983 -0.0464,-0.218379 -0.0772,-0.439756 -0.0895,-0.662808 -0.005,-0.119724 -0.002,-0.239347 0.004,-0.358999 0.0727,-0.617993 -0.80126,-0.720813 -0.87397,-0.10282 z" />
  <path
     style="fill:#000000;fill-opacity:1;fill-rule:nonzero;stroke:none;stroke-width:0.264583"
     d="m 143.33044,36.713323 c -0.29209,0.02117 -0.58378,0.05434 -0.87239,0.104053 -0.31082,0.05354 -0.62016,0.118798 -0.92288,0.208767 -0.33914,0.104375 -0.66963,0.232333 -0.9916,0.381828 -0.36549,0.17031 -0.71504,0.372036 -1.02332,0.634492 -0.32939,0.283019 -0.6308,0.599638 -0.85117,0.976942 -0.19875,0.361011 -0.35011,0.724226 -0.42994,1.130604 -0.0782,0.384043 -0.13516,0.772526 -0.15871,1.164053 -0.0208,0.428239 -0.0133,0.85624 0.0192,1.28388 0.0282,0.459007 0.0606,0.917903 0.11179,1.375008 0.0559,0.488828 0.12046,0.976559 0.19612,1.462752 0.0828,0.521639 0.1664,1.043135 0.26048,1.562888 0.0866,0.520899 0.17797,1.041353 0.23844,1.566138 0.0503,0.490283 0.0881,0.983361 0.0298,1.475203 -0.0613,0.523888 -0.15346,1.043596 -0.31749,1.546296 -0.15035,0.460386 -0.34333,0.904182 -0.58936,1.32229 -0.19074,0.327874 -0.39252,0.660447 -0.69043,0.902933 -0.19801,0.154733 -0.41364,0.284919 -0.64743,0.37883 -0.0936,0.03552 -0.18812,0.07638 -0.28844,0.08762 -0.62226,0 -0.62226,0.879999 0,0.879999 l -7e-5,1.1e-5 c 0.20858,-0.0021 0.40621,-0.07188 0.59906,-0.144264 0.31605,-0.122389 0.60356,-0.300162 0.87256,-0.504068 0.39287,-0.30906 0.6644,-0.731232 0.91434,-1.156854 0.21972,-0.390583 0.42323,-0.792977 0.57436,-1.215652 0.0326,-0.09121 0.0609,-0.183925 0.0913,-0.275889 0.18287,-0.558533 0.28645,-1.136097 0.3555,-1.718283 0.0665,-0.555782 0.0282,-1.113372 -0.0283,-1.667693 -0.0618,-0.543221 -0.15612,-1.081913 -0.2458,-1.621015 -0.0937,-0.517612 -0.17698,-1.036952 -0.25944,-1.55644 -0.0736,-0.473544 -0.13656,-0.948569 -0.19093,-1.424673 -0.0494,-0.44182 -0.0806,-0.885373 -0.10775,-1.329023 -0.0297,-0.395156 -0.0388,-0.790573 -0.0186,-1.186276 0.0219,-0.346792 0.0718,-0.691083 0.14191,-1.031205 0.0607,-0.313344 0.18136,-0.603012 0.33705,-0.879716 0.17127,-0.282514 0.40049,-0.522745 0.65229,-0.734227 0.24789,-0.20992 0.52864,-0.371096 0.82266,-0.506065 0.28586,-0.132096 0.57841,-0.247299 0.87961,-0.33899 0.26805,-0.07896 0.5419,-0.135371 0.81695,-0.183377 0.2653,-0.04218 0.53233,-0.07316 0.80001,-0.09446 0.54601,-0.04344 0.53988,-0.921303 -0.0794,-0.876417 z"
     id="path27"
     sodipodi:nodetypes="ssccccccccccccccccccccccsccccccccccccccss" />
  <path
     style="fill:#000000;fill-opacity:1;fill-rule:nonzero;stroke:none;stroke-width:0.264583"
     d="m 146.47099,37.342375 c 0.434,-0.0795 0.84173,-0.207269 1.25019,-0.370864 0.41819,-0.177223 0.81543,-0.397666 1.1983,-0.640889 0.44467,-0.275789 0.84169,-0.615217 1.22959,-0.964012 0.41801,-0.377868 0.79547,-0.795872 1.15269,-1.23071 0.30601,-0.379931 0.5972,-0.771607 0.87955,-1.169352 0.25921,-0.362085 0.50546,-0.732973 0.74914,-1.105583 0.14295,-0.224149 0.0733,-0.113358 0.20913,-0.332295 0.32799,-0.528796 -0.41985,-0.992637 -0.74783,-0.463841 v 0 c -0.12823,0.206827 -0.0623,0.10197 -0.19779,0.314486 -0.23758,0.363294 -0.47753,0.724996 -0.73033,1.077981 -0.27029,0.381085 -0.54932,0.756169 -0.8421,1.120326 -0.32872,0.400952 -0.67614,0.786328 -1.06101,1.134763 -0.35167,0.316521 -0.71016,0.626258 -1.11386,0.876049 -0.33643,0.215027 -0.68632,0.40863 -1.05353,0.566512 -0.36035,0.14528 -0.71816,0.241101 -1.09886,0.325356 -0.70293,0.15557 -0.5482,0.994866 0.17672,0.862073 z"
     id="path25"
     sodipodi:nodetypes="scccccccssccccccss" />
  <path
     style="fill:#000000;fill-opacity:1;fill-rule:nonzero;stroke:none;stroke-width:0.264583"
     id="path20"
     d="m 151.45052,27.075374 c -0.0708,0.09924 -0.13134,0.206571 -0.17602,0.320159 -0.0166,0.04233 -0.0303,0.08578 -0.0455,0.128672 -0.0953,0.300043 -0.1427,0.612264 -0.17898,0.924097 -0.0236,0.241133 -0.0297,0.485002 -0.002,0.726117 0.02,0.173374 0.0366,0.231733 0.0727,0.402265 0.0903,0.404421 0.3044,0.762884 0.56242,1.082558 0.0524,0.06497 0.109,0.126495 0.1635,0.189744 0.28247,0.303329 0.61242,0.559255 0.9746,0.760616 0.0681,0.03787 0.1385,0.07152 0.20775,0.107278 0.2693,0.125505 0.5506,0.232786 0.84679,0.272611 0.20713,0.02785 0.25403,0.01746 0.4625,0.0104 0.0855,-0.01569 0.17238,-0.02535 0.25657,-0.04709 0.26393,-0.06821 0.51316,-0.192075 0.7381,-0.344319 0.19439,-0.131561 0.26394,-0.202612 0.43937,-0.357018 0.35566,-0.337105 0.63433,-0.743788 0.86154,-1.176041 0.0435,-0.08272 0.083,-0.167463 0.12454,-0.251193 0.15019,-0.329448 0.28661,-0.66979 0.35472,-1.02699 0.0415,-0.21743 0.0427,-0.317331 0.0586,-0.534469 0.0144,-0.326673 -0.0203,-0.653696 -0.1258,-0.964139 -0.0244,-0.07176 -0.0505,-0.143293 -0.0839,-0.211286 -0.0386,-0.07832 -0.0877,-0.150966 -0.13155,-0.226449 -0.24498,-0.342736 -0.57834,-0.603143 -0.94741,-0.801286 -0.0723,-0.03882 -0.14719,-0.07259 -0.22079,-0.108882 -0.26413,-0.117896 -0.53804,-0.216074 -0.81938,-0.284338 -0.15212,-0.03691 -0.21645,-0.04492 -0.36803,-0.07017 -0.21768,-0.02844 -0.43885,-0.04476 -0.65833,-0.02807 -0.13758,0.01046 -0.18009,0.02157 -0.31347,0.04569 -0.25635,0.05206 -0.50116,0.142442 -0.73805,0.251537 -0.20103,0.09307 -0.38922,0.208948 -0.5709,0.334987 -0.13687,0.09797 -0.26863,0.202396 -0.39149,0.31745 -0.10305,0.09557 -0.18994,0.205513 -0.2659,0.32328 -0.0423,0.07312 -0.022,0.03608 -0.0609,0.111125 -0.28205,0.554659 0.50236,0.953537 0.78441,0.398875 v 0 c 0.0131,-0.02717 0.006,-0.01341 0.0212,-0.04123 0.0326,-0.05686 0.0776,-0.105416 0.12413,-0.151104 0.0909,-0.0861 0.19,-0.162314 0.29113,-0.236056 0.13944,-0.09739 0.28361,-0.187161 0.43824,-0.25887 0.17002,-0.07943 0.34555,-0.1455 0.5296,-0.184938 0.0652,-0.01277 0.12132,-0.02563 0.1875,-0.03146 0.1599,-0.01408 0.32136,-0.0021 0.48019,0.01716 0.1036,0.0167 0.17791,0.02675 0.28032,0.05113 0.22767,0.05419 0.44956,0.132261 0.66382,0.225895 0.0558,0.02683 0.1125,0.05178 0.16734,0.08049 0.24013,0.125728 0.46451,0.285235 0.63568,0.497407 0.0225,0.03316 0.0487,0.06408 0.0675,0.09947 0.0229,0.04305 0.0397,0.0891 0.0568,0.134729 0.0777,0.206886 0.0975,0.428593 0.0901,0.648187 -0.01,0.150299 -0.0118,0.247541 -0.0379,0.39611 -0.0512,0.291579 -0.16672,0.567889 -0.28665,0.836666 -0.0352,0.07171 -0.0688,0.144245 -0.10569,0.215132 -0.17918,0.344623 -0.39567,0.672359 -0.6757,0.943716 -0.0534,0.04799 -0.10514,0.09788 -0.16018,0.143976 -0.2132,0.178543 -0.45528,0.325802 -0.7301,0.383336 -0.11757,0.008 -0.14785,0.01513 -0.26577,0.0026 -0.21109,-0.02238 -0.40992,-0.103921 -0.60186,-0.189873 -0.0536,-0.02712 -0.10805,-0.05258 -0.16074,-0.08138 -0.28073,-0.15339 -0.53758,-0.34816 -0.75808,-0.580059 -0.18647,-0.212813 -0.39192,-0.457232 -0.48758,-0.728147 -0.0177,-0.04996 -0.0285,-0.102055 -0.0427,-0.153085 -0.0274,-0.123796 -0.04,-0.167471 -0.0562,-0.291902 -0.0237,-0.182459 -0.0175,-0.367593 -5.3e-4,-0.550307 0.0282,-0.249721 0.0649,-0.499967 0.13784,-0.741082 0.0236,-0.07579 0.0521,-0.150476 0.10004,-0.214648 0.36599,-0.50324 -0.34569,-1.020832 -0.71169,-0.517591 z" />
  <path
     style="fill:#000000;fill-opacity:1;fill-rule:nonzero;stroke:none;stroke-width:0.264583"
     id="path21"
     d="m 155.99165,26.468674 c 0.1847,-0.219619 0.34068,-0.461576 0.50117,-0.698968 0.3723,-0.567975 0.73054,-1.144947 1.09746,-1.716374 0.40557,-0.631775 0.81173,-1.263129 1.22273,-1.891385 0.31162,-0.486626 0.62801,-0.970104 0.94451,-1.453558 0.23297,-0.361414 0.47095,-0.719641 0.70015,-1.083462 0.16523,-0.257883 0.32619,-0.518414 0.48962,-0.777419 0.11046,-0.17536 0.2164,-0.353338 0.33077,-0.526195 0.0972,-0.145662 0.19667,-0.289873 0.2945,-0.435153 0.10921,-0.152825 0.22326,-0.302089 0.33373,-0.454011 0.10654,-0.15191 0.22258,-0.29701 0.34045,-0.44022 0.10307,-0.134191 0.21756,-0.257174 0.35463,-0.356699 0.15321,-0.100185 0.32502,-0.156399 0.50033,-0.202768 0.14603,-0.01762 0.29439,-0.03069 0.44167,-0.02222 0.0655,0.0038 0.13661,0.0201 0.20047,0.03261 0.2046,0.05037 0.38485,0.156275 0.55724,0.273466 0.16737,0.133406 0.27643,0.315634 0.37186,0.503535 0.11091,0.227377 0.17446,0.472768 0.20734,0.722652 0.0222,0.228476 -0.0562,0.440356 -0.14684,0.645422 -0.0884,0.17306 -0.17773,0.347771 -0.29012,0.506958 -0.0579,0.082 -0.10897,0.137051 -0.17485,0.213147 -0.19562,0.224354 -0.41405,0.387587 -0.66474,0.543552 -0.26125,0.151713 -0.53152,0.286774 -0.79876,0.427331 -0.10917,0.05521 -0.21748,0.112089 -0.3262,0.168168 -0.55301,0.285264 -0.14959,1.067344 0.40342,0.78208 v 0 c 0.1109,-0.05721 0.2214,-0.115202 0.33273,-0.17157 0.28642,-0.150956 0.57657,-0.295229 0.85554,-0.459977 0.12685,-0.07972 0.20039,-0.122656 0.32222,-0.213105 0.19891,-0.147688 0.37708,-0.321896 0.5442,-0.504091 0.10963,-0.129062 0.14866,-0.168856 0.24646,-0.309324 0.13881,-0.199378 0.25056,-0.416943 0.35795,-0.634197 0.15944,-0.374873 0.25489,-0.704333 0.21035,-1.117401 -0.0512,-0.347193 -0.13775,-0.688494 -0.29685,-1.003505 -0.16809,-0.321641 -0.36406,-0.612412 -0.66184,-0.829376 -0.27409,-0.183602 -0.56492,-0.340014 -0.8908,-0.409408 -0.15774,-0.02761 -0.19376,-0.03874 -0.35697,-0.04697 -0.22475,-0.01133 -0.45155,0.01169 -0.67221,0.05246 -0.28347,0.07727 -0.55897,0.178274 -0.80091,0.349506 -0.18955,0.145433 -0.36065,0.310016 -0.50524,0.501047 -0.12866,0.156805 -0.25566,0.315334 -0.37228,0.481383 -0.11668,0.16048 -0.2376,0.317824 -0.35192,0.480004 -0.0992,0.147284 -0.19994,0.293482 -0.29851,0.441151 -0.11783,0.178166 -0.22756,0.361236 -0.34107,0.542151 -0.16354,0.25924 -0.3247,0.519948 -0.49003,0.778067 -0.22628,0.35953 -0.46175,0.713217 -0.69175,1.070371 -0.31655,0.483535 -0.633,0.967092 -0.94466,1.453801 -0.41237,0.630355 -0.8199,1.263804 -1.22682,1.897687 -0.36315,0.565633 -0.71792,1.136613 -1.08606,1.699058 -0.13693,0.202667 -0.27048,0.408525 -0.42321,0.599789 -0.41858,0.46043 0.23257,1.052382 0.65114,0.591952 z" />
  <path
     style="fill:#000000;fill-opacity:1;fill-rule:nonzero;stroke:none;stroke-width:0.264583"
     id="path22"
     d="m 156.23717,18.980023 c 0.22493,0.219823 0.47834,0.408208 0.72981,0.596141 0.32473,0.238597 0.64274,0.486111 0.9635,0.729972 0.20945,0.157702 0.4153,0.32004 0.62186,0.481469 0.0903,0.06876 0.17933,0.139119 0.26792,0.210053 0.48576,0.388884 1.03573,-0.298095 0.54996,-0.686978 v 0 c -0.0913,-0.07306 -0.18299,-0.145599 -0.276,-0.216449 -0.20965,-0.163839 -0.4186,-0.328566 -0.63116,-0.488639 -0.32275,-0.245364 -0.64274,-0.494408 -0.96949,-0.73448 -0.2112,-0.157643 -0.42354,-0.315456 -0.61663,-0.495318 -0.42725,-0.452387 -1.06703,0.151842 -0.63977,0.604229 z" />
  <path
     style="fill:#000000;fill-opacity:1;fill-rule:nonzero;stroke:none;stroke-width:0.264583"
     id="path23"
     d="m 157.94457,17.068074 c 0.0133,-0.0127 0.026,-0.02612 0.0399,-0.03811 0.002,-0.002 0.006,-0.0019 0.009,-0.0036 0.0136,-0.0088 0.0263,-0.01907 0.04,-0.02791 0.0584,-0.03787 0.12027,-0.07034 0.18156,-0.1031 0.15493,-0.08066 0.32014,-0.134741 0.48899,-0.176963 0.15729,-0.03592 0.31776,-0.05166 0.47887,-0.05063 0.12316,0.0022 0.24483,0.02351 0.36587,0.04454 0.6131,0.106341 0.76349,-0.760713 0.15039,-0.867054 v 0 c -0.17122,-0.02965 -0.3436,-0.05669 -0.51785,-0.05749 -0.23364,0.0016 -0.46658,0.02245 -0.69422,0.07779 -0.23803,0.06128 -0.47112,0.13943 -0.68905,0.254881 -0.15081,0.08156 -0.30817,0.165147 -0.43246,0.285337 -0.46829,0.409758 0.11119,1.072025 0.57949,0.662268 z" />
  <path
     style="fill:#000000;fill-opacity:1;fill-rule:nonzero;stroke:none;stroke-width:0.264583"
     id="path24"
     d="m 160.40927,16.048453 c -0.036,-0.09909 -0.0572,-0.202296 -0.077,-0.305558 -0.0309,-0.168514 -0.057,-0.337689 -0.0599,-0.509157 -0.003,-0.134481 0.0195,-0.267244 0.0488,-0.397953 0.0184,-0.09301 0.0515,-0.176099 0.0974,-0.258097 0.0384,-0.07329 0.0989,-0.127915 0.15871,-0.183313 0.0771,-0.06943 0.16169,-0.129412 0.24761,-0.187196 0.0442,-0.02816 0.0904,-0.05297 0.13742,-0.07606 0.5566,-0.278205 0.16316,-1.065354 -0.39344,-0.787149 v 0 c -0.0808,0.04078 -0.16058,0.0836 -0.2361,0.13367 -0.1243,0.08404 -0.24597,0.172328 -0.35662,0.274047 -0.12731,0.119808 -0.24713,0.247671 -0.32958,0.403599 -0.0341,0.06309 -0.0514,0.09217 -0.0806,0.159733 -0.0462,0.106818 -0.077,0.219569 -0.1044,0.332402 -0.0431,0.199829 -0.0745,0.402588 -0.069,0.607752 0.006,0.220453 0.0339,0.438678 0.0758,0.65525 0.0314,0.160394 0.067,0.320602 0.12715,0.473086 0.23692,0.575385 1.05064,0.240325 0.81372,-0.33506 z" />
</svg>
