<?xml version="1.0" encoding="UTF-8" standalone="no"?>
<svg
   id="svg1032"
   version="1.1"
   viewBox="0 0 133.98332 90.500801"
   height="90.500801mm"
   width="133.98332mm"
   sodipodi:docname="36 ni li ilo..svg"
   inkscape:version="1.3 (0e150ed6c4, 2023-07-21)"
   xmlns:inkscape="http://www.inkscape.org/namespaces/inkscape"
   xmlns:sodipodi="http://sodipodi.sourceforge.net/DTD/sodipodi-0.dtd"
   xmlns="http://www.w3.org/2000/svg"
   xmlns:svg="http://www.w3.org/2000/svg"
   xmlns:rdf="http://www.w3.org/1999/02/22-rdf-syntax-ns#"
   xmlns:cc="http://creativecommons.org/ns#"
   xmlns:dc="http://purl.org/dc/elements/1.1/">
  <sodipodi:namedview
     id="namedview1"
     pagecolor="#ffffff"
     bordercolor="#000000"
     borderopacity="0.25"
     inkscape:showpageshadow="2"
     inkscape:pageopacity="0.0"
     inkscape:pagecheckerboard="0"
     inkscape:deskcolor="#d1d1d1"
     inkscape:document-units="mm"
     inkscape:zoom="1.7302965"
     inkscape:cx="313.53009"
     inkscape:cy="159.79921"
     inkscape:window-width="1920"
     inkscape:window-height="1051"
     inkscape:window-x="-9"
     inkscape:window-y="-9"
     inkscape:window-maximized="1"
     inkscape:current-layer="svg1032" />
  <defs
     id="defs1026" />
  <metadata
     id="metadata1029">
    <rdf:RDF>
      <cc:Work
         rdf:about="">
        <dc:format>image/svg+xml</dc:format>
        <dc:type
           rdf:resource="http://purl.org/dc/dcmitype/StillImage" />
        <dc:title />
      </cc:Work>
    </rdf:RDF>
  </metadata>
  <g
     transform="translate(-69.508009,-104.57493)"
     id="layer1">
    <g
       transform="matrix(0.26458333,0,0,0.26458333,100.72547,120.59819)"
       id="g1678">
      <path
         style="fill:#e5e5e5"
         d="m 0,80 v 120 l 80,40 80,-40 V 80 Z"
         id="path1577" />
      <path
         style="fill:#999999"
         d="m 0,80 v 6 l 78,39 v 12 l 2,1 80,-40 V 80 L 80,40 Z"
         id="path1579" />
      <path
         style="fill:#cc291f"
         d="m 80,138 -2,-1 v 102 l 2,1 80,-40 V 98 Z"
         id="path1581" />
      <path
         style="fill:#2d3134"
         d="m 94,117 v 10 l 24,-12 v -10 z"
         id="path1583" />
      <path
         style="opacity:0.11"
         d="M 80,240 0,200 V 80 l 80,40 z"
         id="path1585" />
      <path
         style="opacity:0.2"
         d="m 80,240 80,-40 v -4 l -80,40 -4,-2 v 4 z"
         id="path1587" />
      <path
         style="fill:#3399cc"
         d="m 96,118 v 6 l 20,-10 v -6 z"
         id="path1589" />
      <path
         style="opacity:0.2"
         d="m 80,138 -2,-1 v 2 l 2,1 4,-2 v 6 l 24,-12 v -6 l 52,-26 v -2 z"
         id="path1591" />
      <path
         style="opacity:0.2"
         d="m 86,135 v 6 l 20,-10 v -6 z"
         id="path1593" />
      <path
         style="opacity:0.29"
         d="m 80,120 v 120 l 80,-40 V 80 Z"
         id="path1595" />
      <g
         style="fill:#2d3134"
         id="g1615">
        <path
           d="m 123,110.3 c 0,0.8 0.6,1.1 1.4,0.7 0.8,-0.4 1.4,-1.3 1.4,-2.1 0,-0.8 -0.6,-1.1 -1.4,-0.7 -0.8,0.4 -1.4,1.3 -1.4,2.1 z"
           id="path1597" />
        <path
           d="m 129,107.3 c 0,0.8 0.6,1.1 1.4,0.7 0.8,-0.4 1.4,-1.3 1.4,-2.1 0,-0.8 -0.6,-1.1 -1.4,-0.7 -0.8,0.4 -1.4,1.3 -1.4,2.1 z"
           id="path1599" />
        <path
           d="m 135,104.3 c 0,0.8 0.6,1.1 1.4,0.7 0.8,-0.4 1.4,-1.3 1.4,-2.1 0,-0.8 -0.6,-1.1 -1.4,-0.7 -0.8,0.4 -1.4,1.3 -1.4,2.1 z"
           id="path1601" />
        <path
           d="m 141,101.3 c 0,0.8 0.6,1.1 1.4,0.7 0.8,-0.4 1.4,-1.3 1.4,-2.1 0,-0.8 -0.6,-1.1 -1.4,-0.7 -0.8,0.4 -1.4,1.3 -1.4,2.1 z"
           id="path1603" />
        <path
           d="m 123,106.1 c 0,0.8 0.6,1.1 1.4,0.7 0.8,-0.4 1.4,-1.3 1.4,-2.1 0,-0.8 -0.6,-1.1 -1.4,-0.7 -0.8,0.4 -1.4,1.4 -1.4,2.1 z"
           id="path1605" />
        <path
           d="m 129,103.1 c 0,0.8 0.6,1.1 1.4,0.7 0.8,-0.4 1.4,-1.3 1.4,-2.1 0,-0.8 -0.6,-1.1 -1.4,-0.7 -0.8,0.4 -1.4,1.4 -1.4,2.1 z"
           id="path1607" />
        <path
           d="m 135,100.1 c 0,0.8 0.6,1.1 1.4,0.7 0.8,-0.4 1.4,-1.3 1.4,-2.1 0,-0.8 -0.6,-1.1 -1.4,-0.7 -0.8,0.4 -1.4,1.4 -1.4,2.1 z"
           id="path1609" />
        <path
           d="m 141,97.1 c 0,0.8 0.6,1.1 1.4,0.7 0.8,-0.4 1.4,-1.3 1.4,-2.1 0,-0.8 -0.6,-1.1 -1.4,-0.7 -0.8,0.4 -1.4,1.4 -1.4,2.1 z"
           id="path1611" />
        <path
           d="m 151.1,90.4 c 0.8,-0.4 1.6,-0.5 2.2,-0.2 l 1.6,0.8 c 0.6,0.3 1,0.9 1,1.8 0,1.7 -1.4,3.8 -3.1,4.7 -0.9,0.4 -1.6,0.5 -2.2,0.2 0,0 -1.6,-0.8 -1.7,-0.8 -0.5,-0.3 -0.8,-0.9 -0.8,-1.7 -0.1,-1.9 1.3,-4 3,-4.8 z"
           id="path1613" />
      </g>
      <path
         style="opacity:0.11"
         d="m 150.5,97.6 c -0.2,-0.1 -1.5,-0.8 -1.6,-0.8 -0.5,-0.3 -0.8,-0.9 -0.8,-1.7 0,-0.7 0.2,-1.5 0.6,-2.2 l 1.6,0.8 c -0.4,0.7 -0.6,1.5 -0.6,2.2 -0.1,0.8 0.2,1.4 0.8,1.7 z"
         id="path1617" />
      <path
         style="opacity:0.29"
         d="m 149.6,95.9 c 0,1.7 1.4,2.4 3.1,1.6 1.7,-0.9 3.1,-3 3.1,-4.7 0,-1.7 -1.4,-2.4 -3.1,-1.6 -1.7,0.8 -3.1,2.9 -3.1,4.7 z"
         id="path1619" />
      <path
         style="opacity:0.1"
         d="m 93.8,185.9 c 0,16.4 13.3,23 29.6,14.8 16.3,-8.2 29.6,-28.1 29.6,-44.4 0,-16.3 -13.3,-23 -29.6,-14.8 -16.4,8.2 -29.6,28.1 -29.6,44.4 z"
         id="path1621" />
      <path
         style="fill:#e5e5e5"
         d="m 120.3,139.5 c 7.9,-3.9 15,-4.4 20.3,-2 l 2.1,1.1 c 5.7,2.5 9.3,8.4 9.3,16.8 0,16.4 -13.3,36.2 -29.6,44.4 -8.1,4 -15.4,4.5 -20.8,1.9 0,0 -2,-1 -3.2,-1.7 -4.8,-2.9 -7.7,-8.4 -7.7,-16 0,-16.5 13.3,-36.3 29.6,-44.5 z"
         id="path1623" />
      <path
         style="opacity:0.11"
         d="m 101.3,201.5 c -2.1,-1 -1.8,-0.9 -2.9,-1.6 -4.8,-2.9 -7.7,-8.4 -7.7,-16 0,-6.6 2.2,-13.7 5.8,-20.4 l 2.1,1.1 c -3.6,6.7 -5.8,13.9 -5.8,20.4 0,8.1 3.2,13.8 8.5,16.5 z"
         id="path1625" />
      <path
         style="opacity:0.29"
         d="m 92.8,185 c 0,16.4 13.3,23 29.6,14.8 16.4,-8.2 29.6,-28.1 29.6,-44.4 0,-16.3 -13.3,-23 -29.6,-14.8 -16.3,8.2 -29.6,28 -29.6,44.4 z"
         id="path1627" />
      <path
         style="fill:#3399cc"
         d="m 138,162.3 c 0,-3.5 0.8,-7.3 2.3,-10.9 0.7,-1.7 0.1,-3.7 -1.5,-4.6 -4.1,-2.4 -9.9,-2.2 -16.4,1 C 110,154 100,169 100,181.3 c 0,12.3 10,17.3 22.4,11.2 7.3,-3.7 13.8,-10.4 17.9,-17.9 0.6,-1.2 0.6,-2.6 -0.1,-3.8 -1.4,-2.2 -2.2,-5 -2.2,-8.5 z"
         id="path1629" />
      <path
         style="opacity:0.29"
         d="m 138,162.3 c 0,-3.5 0.8,-7.3 2.3,-10.9 0.7,-1.7 0.1,-3.7 -1.5,-4.6 -4.1,-2.4 -9.9,-2.2 -16.4,1 C 110,154 100,169 100,181.3 c 0,12.3 10,17.3 22.4,11.2 7.3,-3.7 13.8,-10.4 17.9,-17.9 0.6,-1.2 0.6,-2.6 -0.1,-3.8 -1.4,-2.2 -2.2,-5 -2.2,-8.5 z"
         id="path1631" />
      <path
         style="opacity:0.2"
         d="m 140.2,170.8 c -1.4,-2.2 -2.1,-5.1 -2.1,-8.5 0,-3.5 0.8,-7.3 2.3,-10.9 0.7,-1.7 0.1,-3.7 -1.5,-4.6 -1.4,-0.8 -2.9,-1.3 -4.6,-1.5 0.5,0.9 0.5,2.1 0.1,3.1 -1.4,3.7 -2.3,7.4 -2.3,10.9 0,3.4 0.8,6.3 2.1,8.5 0.7,1.1 0.8,2.6 0.1,3.8 -4.1,7.5 -10.6,14.3 -17.9,17.9 -4.6,2.3 -8.9,3.1 -12.5,2.4 4,3.9 10.8,4.4 18.5,0.6 7.3,-3.7 13.8,-10.4 17.9,-17.9 0.6,-1.2 0.6,-2.6 -0.1,-3.8 z"
         id="path1633" />
      <path
         style="opacity:0.2;fill:#ffffff"
         d="m 108,177.6 c 0,-8.7 5.2,-18.8 12.6,-25.9 -9.7,4.9 -17.6,16.7 -17.6,26.4 0,2.5 0.5,4.5 1.4,6.2 1.3,2.4 5,0.8 4.2,-1.8 -0.4,-1.4 -0.6,-3.1 -0.6,-4.9 z"
         id="path1635" />
      <path
         style="opacity:0.2"
         d="m 78,125 -2,-1 v 110 l 2,1 z"
         id="path1637" />
    </g>
    <g
       transform="matrix(0.26458333,0,0,0.26458333,106.01716,117.68777)"
       id="g1833">
      <path
         style="fill:#e5e5e5"
         d="m 0,40 v 40 l 40,20 60,-30 V 30 L 60,10 Z"
         id="path1774" />
      <path
         style="fill:#2d3134"
         d="M 44,94 82,75 V 43 L 44,62 Z"
         id="path1776" />
      <path
         style="fill:#3399cc"
         d="M 48,88 78,73 V 49 L 48,64 Z"
         id="path1778" />
      <path
         style="opacity:0.11"
         d="M 40,100 0,80 V 40 l 40,20 z"
         id="path1780" />
      <path
         style="fill:#2d3134"
         d="m 100,41 v -7 l -12,6 v 7 z"
         id="path1782" />
      <path
         style="fill:#3399cc"
         d="m 98,40 v -3 l -8,4 v 3 z"
         id="path1784" />
      <path
         style="opacity:0.29"
         d="m 40,60 v 40 L 100,70 V 30 Z"
         id="path1786" />
      <path
         style="opacity:0.2"
         d="m 36,58 v 40 l 2,1 V 59 L 98,29 96,28 Z"
         id="path1788" />
      <path
         style="opacity:0.2"
         d="m 88,36 v 40 l -2,1 V 37 l -2,-1 2,-1 z"
         id="path1790" />
      <path
         style="fill:#656565"
         d="m 93.3,57.6 c 0.8,-0.4 1.6,-0.5 2.2,-0.2 l 1.6,0.8 c 0.6,0.3 1,0.9 1,1.8 0,1.7 -1.4,3.8 -3.1,4.7 -0.9,0.4 -1.6,0.5 -2.2,0.2 0,0 -1.6,-0.8 -1.7,-0.8 -0.5,-0.3 -0.8,-0.9 -0.8,-1.7 -0.1,-1.8 1.3,-4 3,-4.8 z"
         id="path1792" />
      <path
         style="opacity:0.11"
         d="M 92.6,64.8 C 92.4,64.7 91.1,64 91,64 c -0.5,-0.3 -0.8,-0.9 -0.8,-1.7 0,-0.7 0.2,-1.5 0.6,-2.2 l 1.6,0.8 c -0.4,0.7 -0.6,1.5 -0.6,2.2 -0.1,0.8 0.3,1.4 0.8,1.7 z"
         id="path1794" />
      <path
         style="opacity:0.29"
         d="m 91.7,63.1 c 0,1.7 1.4,2.4 3.1,1.6 1.7,-0.9 3.1,-3 3.1,-4.7 0,-1.7 -1.4,-2.4 -3.1,-1.6 -1.7,0.8 -3.1,2.9 -3.1,4.7 z"
         id="path1796" />
      <path
         style="fill:#656565"
         d="m 93.3,47.6 c 0.8,-0.4 1.6,-0.5 2.2,-0.2 l 1.6,0.8 c 0.6,0.3 1,0.9 1,1.8 0,1.7 -1.4,3.8 -3.1,4.7 -0.9,0.4 -1.6,0.5 -2.2,0.2 0,0 -1.6,-0.8 -1.7,-0.8 -0.5,-0.3 -0.8,-0.9 -0.8,-1.7 -0.1,-1.8 1.3,-4 3,-4.8 z"
         id="path1798" />
      <path
         style="opacity:0.11"
         d="M 92.6,54.8 C 92.4,54.7 91.1,54 91,54 c -0.5,-0.3 -0.8,-0.9 -0.8,-1.7 0,-0.7 0.2,-1.5 0.6,-2.2 l 1.6,0.8 c -0.4,0.7 -0.6,1.5 -0.6,2.2 -0.1,0.8 0.3,1.4 0.8,1.7 z"
         id="path1800" />
      <path
         style="opacity:0.29"
         d="m 91.7,53.1 c 0,1.7 1.4,2.4 3.1,1.6 1.7,-0.9 3.1,-3 3.1,-4.7 0,-1.7 -1.4,-2.4 -3.1,-1.6 -1.7,0.8 -3.1,2.9 -3.1,4.7 z"
         id="path1802" />
      <path
         style="opacity:0.2"
         d="m 98,71 v -4 l -8,4 v 4 z"
         id="path1804" />
      <path
         style="opacity:0.15;fill:#ffffff"
         d="m 74,51 4,-2 v 4 L 64,74 Z"
         id="path1806" />
    </g>
    <g
       transform="matrix(0.26458333,0,0,0.26458333,129.82966,128.80027)"
       id="g1922">
      <path
         style="fill:#656565"
         d="m 21,12 12,-6 4,2 v 18 l -2,1 -4,-2 V 13 l -6,3 z"
         id="path1869" />
      <path
         style="opacity:0.29"
         d="m 37,8 v 18 l -2,1 V 11 l -10,5 v -2 z"
         id="path1871" />
      <path
         style="opacity:0.11"
         d="m 31,13 4,-2 v 16 l -4,-2 z"
         id="path1873" />
      <ellipse
         style="fill:#656565"
         cx="20"
         cy="14"
         rx="12"
         ry="6"
         id="ellipse1875" />
      <path
         style="fill:#cc291f"
         d="M 35.9,46.2 32,14 H 8 L 4.1,46.2 C 4.1,46.3 4,47 4,47 v 2 c 0,4.4 7.2,8 16,8 8.8,0 16,-3.6 16,-8 v -1.9 c 0,-0.3 0,-0.6 -0.1,-0.9 z"
         id="path1877" />
      <g
         style="fill:#656565"
         id="g1885">
        <path
           d="m 20,55.1 c -8.8,0 -16,-3.6 -16,-8 V 50 c 0,4.4 7.2,8 16,8 8.8,0 16,-3.6 16,-8 v -2.9 c 0,4.4 -7.2,8 -16,8 z"
           id="path1879" />
        <path
           d="m 20,23 c 6,0 11,-2 12.5,-4.8 L 32,14 C 32,10.7 26.6,8 20,8 13.4,8 8,10.7 8,14 L 7.5,18.2 C 9,21 14,23 20,23 Z"
           id="path1881" />
        <path
           d="M 21.1,47 H 19 c -1.1,0 -1.9,-0.9 -1.9,-1.9 V 28.9 C 17.1,27.8 18,27 19,27 h 2.1 c 1.1,0 1.9,0.9 1.9,1.9 V 45 c 0,1.1 -0.9,2 -1.9,2 z"
           id="path1883" />
      </g>
      <path
         style="fill:#3399cc"
         d="m 19,29 h 2 v 16 h -2 z"
         id="path1887" />
      <ellipse
         style="opacity:0.2;fill:#ffffff"
         cx="20"
         cy="14"
         rx="8"
         ry="4"
         id="ellipse1889" />
      <path
         style="opacity:0.15"
         d="M 35.9,46.2 34.4,33.8 32,14 c 0,3.3 -5.4,6 -12,6 C 13.4,20 8,17.3 8,14 L 7.6,17.5 4.1,46.2 C 4.1,46.3 4,47 4,47 v 3 c 0,4.4 7.2,8 16,8 8.8,0 16,-3.6 16,-8 v -2.9 c 0,-0.3 0,-0.6 -0.1,-0.9 z"
         id="path1891" />
      <path
         style="fill:#656565"
         d="M 8,14 4,19 8,29 12,18 Z"
         id="path1893" />
      <path
         style="opacity:0.29"
         d="M 8,29 12,18 4,19 Z"
         id="path1895" />
      <path
         style="opacity:0.29"
         d="m 8.7,15.3 -3,3 5,-1 z"
         id="path1897" />
    </g>
    <g
       transform="translate(21.695833,-9.2604201)"
       id="g2296">
      <g
         id="g1772"
         transform="matrix(0.26458333,0,0,0.26458333,58.392137,140.17736)">
        <path
           id="path1680"
           d="m 0,80 v 120 l 80,40 80,-40 V 80 Z"
           style="fill:#e5e5e5" />
        <path
           id="path1682"
           d="m 0,80 v 6 l 80,40 80,-40 V 80 L 80,40 Z"
           style="fill:#999999" />
        <path
           id="path1684"
           d="M 80,240 0,200 V 80 l 80,40 z"
           style="opacity:0.11" />
        <path
           id="path1686"
           d="m 80,126 v 14 l 80,-40 V 86 Z"
           style="fill:#656565" />
        <path
           id="path1688"
           d="m 80,142 v 92 l 80,-40 v -92 z"
           style="fill:#656565" />
        <path
           id="path1690"
           d="m 90,147 v 73 l 60,-30 v -73 z"
           style="fill:#2d3134" />
        <path
           id="path1692"
           d="m 96,152 v 57 l 48,-24 v -57 z"
           style="fill:#3399cc" />
        <path
           id="path1694"
           d="m 106,115 v 10 l 28,-14 v -10 z"
           style="fill:#2d3134" />
        <path
           id="path1696"
           d="m 80,240 80,-40 v -4 l -80,40 z"
           style="opacity:0.2" />
        <path
           id="path1698"
           d="m 80,240 2,-1 V 125 l -2,1 z"
           style="opacity:0.2" />
        <path
           id="path1700"
           d="m 158,201 2,-1 V 86 l -2,1 z"
           style="opacity:0.2" />
        <path
           id="path1702"
           d="m 113,184 21,-51 10,-5 v 8 z"
           style="opacity:0.15;fill:#ffffff" />
        <path
           id="path1704"
           d="m 96,188 v 12 l 31,-62 z"
           style="opacity:0.15;fill:#ffffff" />
        <path
           id="path1706"
           d="m 94,153 v 4 l 52,-26 v -4 z"
           style="fill:#e5e5e5" />
        <path
           id="path1708"
           d="m 110,115 v 6 l 20,-10 v -6 z"
           style="fill:#3399cc" />
        <path
           id="path1710"
           d="m 80,120 v 120 l 80,-40 V 80 Z"
           style="opacity:0.29" />
        <path
           id="path1712"
           d="m 99.3,119.6 c 0.8,-0.4 1.6,-0.5 2.2,-0.2 l 1.6,0.8 c 0.6,0.3 1,0.9 1,1.8 0,1.7 -1.4,3.8 -3.1,4.7 -0.9,0.4 -1.6,0.5 -2.2,0.2 0,0 -1.6,-0.8 -1.7,-0.8 -0.5,-0.3 -0.8,-0.9 -0.8,-1.7 -0.1,-1.8 1.3,-4 3,-4.8 z"
           style="fill:#2d3134" />
        <path
           id="path1714"
           d="M 98.6,126.8 C 98.4,126.7 97.1,126 97,126 c -0.5,-0.3 -0.8,-0.9 -0.8,-1.7 0,-0.7 0.2,-1.5 0.6,-2.2 l 1.6,0.8 c -0.4,0.7 -0.6,1.5 -0.6,2.2 -0.1,0.8 0.3,1.4 0.8,1.7 z"
           style="opacity:0.11" />
        <path
           id="path1716"
           d="m 97.7,125.1 c 0,1.7 1.4,2.4 3.1,1.6 1.7,-0.9 3.1,-3 3.1,-4.7 0,-1.7 -1.4,-2.4 -3.1,-1.6 -1.7,0.8 -3.1,2.9 -3.1,4.7 z"
           style="opacity:0.29" />
        <path
           id="path1718"
           d="m 89.3,124.6 c 0.8,-0.4 1.6,-0.5 2.2,-0.2 l 1.6,0.8 c 0.6,0.3 1,0.9 1,1.8 0,1.7 -1.4,3.8 -3.1,4.7 -0.9,0.4 -1.6,0.5 -2.2,0.2 0,0 -1.6,-0.8 -1.7,-0.8 -0.5,-0.3 -0.8,-0.9 -0.8,-1.7 -0.1,-1.8 1.3,-4 3,-4.8 z"
           style="fill:#2d3134" />
        <path
           id="path1720"
           d="M 88.6,131.8 C 88.4,131.7 87.1,131 87,131 c -0.5,-0.3 -0.8,-0.9 -0.8,-1.7 0,-0.7 0.2,-1.5 0.6,-2.2 l 1.6,0.8 c -0.4,0.7 -0.6,1.5 -0.6,2.2 -0.1,0.8 0.3,1.4 0.8,1.7 z"
           style="opacity:0.11" />
        <path
           id="path1722"
           d="m 87.7,130.1 c 0,1.7 1.4,2.4 3.1,1.6 1.7,-0.9 3.1,-3 3.1,-4.7 0,-1.7 -1.4,-2.4 -3.1,-1.6 -1.7,0.8 -3.1,2.9 -3.1,4.7 z"
           style="opacity:0.29" />
        <path
           id="path1724"
           d="m 149.3,94.6 c 0.8,-0.4 1.6,-0.5 2.2,-0.2 l 1.6,0.8 c 0.6,0.3 1,0.9 1,1.8 0,1.7 -1.4,3.8 -3.1,4.7 -0.9,0.4 -1.6,0.5 -2.2,0.2 0,0 -1.6,-0.8 -1.7,-0.8 -0.5,-0.3 -0.8,-0.9 -0.8,-1.7 -0.1,-1.8 1.3,-4 3,-4.8 z"
           style="fill:#2d3134" />
        <path
           id="path1726"
           d="m 148.6,101.8 c -0.2,-0.1 -1.5,-0.8 -1.6,-0.8 -0.5,-0.3 -0.8,-0.9 -0.8,-1.7 0,-0.7 0.2,-1.5 0.6,-2.2 l 1.6,0.8 c -0.4,0.7 -0.6,1.5 -0.6,2.2 -0.1,0.8 0.3,1.4 0.8,1.7 z"
           style="opacity:0.11" />
        <path
           id="path1728"
           d="m 147.7,100.1 c 0,1.7 1.4,2.4 3.1,1.6 1.7,-0.9 3.1,-3 3.1,-4.7 0,-1.7 -1.4,-2.4 -3.1,-1.6 -1.7,0.8 -3.1,2.9 -3.1,4.7 z"
           style="opacity:0.29" />
        <path
           id="path1730"
           d="m 139.3,99.6 c 0.8,-0.4 1.6,-0.5 2.2,-0.2 l 1.6,0.8 c 0.6,0.3 1,0.9 1,1.8 0,1.7 -1.4,3.8 -3.1,4.7 -0.9,0.4 -1.6,0.5 -2.2,0.2 0,0 -1.6,-0.8 -1.7,-0.8 -0.5,-0.3 -0.8,-0.9 -0.8,-1.7 -0.1,-1.8 1.3,-4 3,-4.8 z"
           style="fill:#2d3134" />
        <path
           id="path1732"
           d="m 138.6,106.8 c -0.2,-0.1 -1.5,-0.8 -1.6,-0.8 -0.5,-0.3 -0.8,-0.9 -0.8,-1.7 0,-0.7 0.2,-1.5 0.6,-2.2 l 1.6,0.8 c -0.4,0.7 -0.6,1.5 -0.6,2.2 -0.1,0.8 0.3,1.4 0.8,1.7 z"
           style="opacity:0.11" />
        <path
           id="path1734"
           d="m 137.7,105.1 c 0,1.7 1.4,2.4 3.1,1.6 1.7,-0.9 3.1,-3 3.1,-4.7 0,-1.7 -1.4,-2.4 -3.1,-1.6 -1.7,0.8 -3.1,2.9 -3.1,4.7 z"
           style="opacity:0.29" />
      </g>
      <g
         id="g2181"
         transform="matrix(0.26458333,0,0,0.26458333,58.392137,140.17736)">
        <g
           id="g1936"
           style="fill:#999999">
          <path
             id="path1924"
             d="M 0,80 80,120 160,80 80,40 Z" />
          <ellipse
             id="ellipse1926"
             ry="1"
             rx="2"
             cy="97"
             cx="103" />
          <ellipse
             id="ellipse1928"
             ry="1"
             rx="2"
             cy="93"
             cx="111" />
          <ellipse
             id="ellipse1930"
             ry="1"
             rx="2"
             cy="97"
             cx="111" />
          <ellipse
             id="ellipse1932"
             ry="1"
             rx="2"
             cy="95"
             cx="107" />
          <ellipse
             id="ellipse1934"
             ry="1"
             rx="2"
             cy="93"
             cx="103" />
        </g>
        <path
           id="path1938"
           d="m 66,63 -4,2 v 2 l 2,1 4,-2 v -2 z"
           style="fill:#2d3134" />
        <path
           id="path1940"
           d="m 64,66 4,-2 v 2 l -4,2 z"
           style="opacity:0.29" />
        <path
           id="path1942"
           d="m 90,63 -2,1 v 2 l 4,2 2,-1 v -2 z"
           style="fill:#2d3134" />
        <path
           id="path1944"
           d="m 92,66 -4,-2 v 2 l 4,2 z"
           style="opacity:0.11" />
        <path
           id="path1946"
           d="M 78,43 46,59 v 2 L 78,77 110,61 V 59 Z M 52,60 78,47 104,60 78,73 Z"
           style="fill:#2d3134" />
        <path
           id="path1948"
           d="M 78,45 50,59 52,60 78,47 Z"
           style="opacity:0.29" />
        <path
           id="path1950"
           d="m 78,45 v 2 l 26,13 2,-1 z"
           style="opacity:0.11" />
        <path
           id="path1952"
           d="M 78,75 46,59 v 2 l 32,16 z"
           style="opacity:0.11" />
        <path
           id="path1954"
           d="m 78,75 v 2 l 32,-16 v -2 z"
           style="opacity:0.29" />
        <path
           id="path1956"
           d="m 66,51 -2,1 v 2 l 4,2 2,-1 v -2 z"
           style="fill:#2d3134" />
        <path
           id="path1958"
           d="m 68,54 -4,-2 v 2 l 4,2 z"
           style="opacity:0.11" />
        <path
           id="path1960"
           d="m 68,54 2,-1 v 2 l -2,1 z"
           style="opacity:0.29" />
        <path
           id="path1962"
           d="m 90,51 -4,2 v 2 l 2,1 4,-2 v -2 z"
           style="fill:#2d3134" />
        <path
           id="path1964"
           d="m 88,54 -2,-1 v 2 l 2,1 z"
           style="opacity:0.11" />
        <path
           id="path1966"
           d="m 88,54 4,-2 v 2 l -4,2 z"
           style="opacity:0.29" />
        <path
           id="path1968"
           d="m 78,54 c -6.1,0 -11,2.5 -11,5.5 v 2 c 0,3 4.9,5.5 11,5.5 6.1,0 11,-2.5 11,-5.5 v -2 C 89,56.5 84.1,54 78,54 Z"
           style="fill:#656565" />
        <path
           id="path1970"
           d="M 78,65 C 71.9,65 67,62.5 67,59.5 v 2 c 0,3 4.9,5.5 11,5.5 6.1,0 11,-2.5 11,-5.5 v -2 c 0,3 -4.9,5.5 -11,5.5 z"
           style="opacity:0.2" />
        <path
           id="path1972"
           d="m 30,81 -4,2 v 2 l 2,1 4,-2 v -2 z"
           style="fill:#2d3134" />
        <path
           id="path1974"
           d="m 28,84 4,-2 v 2 l -4,2 z"
           style="opacity:0.29" />
        <path
           id="path1976"
           d="m 54,81 -2,1 v 2 l 4,2 2,-1 v -2 z"
           style="fill:#2d3134" />
        <path
           id="path1978"
           d="m 56,84 -4,-2 v 2 l 4,2 z"
           style="opacity:0.11" />
        <path
           id="path1980"
           d="M 42,61 10,77 v 2 L 42,95 74,79 V 77 Z M 16,78 42,65 68,78 42,91 Z"
           style="fill:#2d3134" />
        <path
           id="path1982"
           d="M 42,63 14,77 16,78 42,65 Z"
           style="opacity:0.29" />
        <path
           id="path1984"
           d="m 42,63 v 2 l 26,13 2,-1 z"
           style="opacity:0.11" />
        <path
           id="path1986"
           d="M 42,93 10,77 v 2 l 32,16 z"
           style="opacity:0.11" />
        <path
           id="path1988"
           d="m 42,93 v 2 L 74,79 v -2 z"
           style="opacity:0.29" />
        <path
           id="path1990"
           d="m 30,69 -2,1 v 2 l 4,2 2,-1 v -2 z"
           style="fill:#2d3134" />
        <path
           id="path1992"
           d="m 32,72 -4,-2 v 2 l 4,2 z"
           style="opacity:0.11" />
        <path
           id="path1994"
           d="m 32,72 2,-1 v 2 l -2,1 z"
           style="opacity:0.29" />
        <path
           id="path1996"
           d="m 54,69 -4,2 v 2 l 2,1 4,-2 v -2 z"
           style="fill:#2d3134" />
        <path
           id="path1998"
           d="m 52,72 -2,-1 v 2 l 2,1 z"
           style="opacity:0.11" />
        <path
           id="path2000"
           d="m 52,72 4,-2 v 2 l -4,2 z"
           style="opacity:0.29" />
        <path
           id="path2002"
           d="m 42,72 c -6.1,0 -11,2.5 -11,5.5 v 2 c 0,3 4.9,5.5 11,5.5 6.1,0 11,-2.5 11,-5.5 v -2 C 53,74.5 48.1,72 42,72 Z"
           style="fill:#656565" />
        <path
           id="path2004"
           d="M 42,83 C 35.9,83 31,80.5 31,77.5 v 2 c 0,3 4.9,5.5 11,5.5 6.1,0 11,-2.5 11,-5.5 v -2 c 0,3 -4.9,5.5 -11,5.5 z"
           style="opacity:0.2" />
        <path
           id="path2006"
           d="m 66,99 -4,2 v 2 l 2,1 4,-2 v -2 z"
           style="fill:#2d3134" />
        <path
           id="path2008"
           d="m 64,102 4,-2 v 2 l -4,2 z"
           style="opacity:0.29" />
        <path
           id="path2010"
           d="M 106,93 78,79 46,95 v 2 l 32,16 18,-9 v -2 l -2,-1 12,-6 z m -18,7 v 2 l 2,1 -12,6 -26,-13 26,-13 22,11 z"
           style="fill:#2d3134" />
        <path
           id="path2012"
           d="m 96,104 -18,9 v -2 l 18,-9 z"
           style="opacity:0.29" />
        <path
           id="path2014"
           d="m 106,95 -12,6 -2,-1 14,-7 z"
           style="opacity:0.29" />
        <path
           id="path2016"
           d="M 78,83 52,96 50,95 78,81 Z"
           style="opacity:0.29" />
        <path
           id="path2018"
           d="m 46,97 32,16 v -2 L 46,95 Z"
           style="opacity:0.11" />
        <path
           id="path2020"
           d="m 78,83 22,11 2,-1 -24,-12 z"
           style="opacity:0.11" />
        <path
           id="path2022"
           d="m 88,102 2,1 2,-1 -4,-2 z"
           style="opacity:0.11" />
        <path
           id="path2024"
           d="m 66,87 -2,1 v 2 l 4,2 2,-1 v -2 z"
           style="fill:#2d3134" />
        <path
           id="path2026"
           d="m 68,90 -4,-2 v 2 l 4,2 z"
           style="opacity:0.11" />
        <path
           id="path2028"
           d="m 68,90 2,-1 v 2 l -2,1 z"
           style="opacity:0.29" />
        <path
           id="path2030"
           d="m 90,87 -4,2 v 2 l 2,1 4,-2 v -2 z"
           style="fill:#2d3134" />
        <path
           id="path2032"
           d="m 88,90 -2,-1 v 2 l 2,1 z"
           style="opacity:0.11" />
        <path
           id="path2034"
           d="m 88,90 4,-2 v 2 l -4,2 z"
           style="opacity:0.29" />
        <path
           id="path2036"
           d="m 78,90 c -5,0 -9,2 -9,4.5 v 2 c 0,2.5 4,4.5 9,4.5 5,0 9,-2 9,-4.5 v -2 C 87,92 83,90 78,90 Z"
           style="fill:#656565" />
        <path
           id="path2038"
           d="m 78,99 c -5,0 -9,-2 -9,-4.5 v 2 c 0,2.5 4,4.5 9,4.5 5,0 9,-2 9,-4.5 v -2 C 87,97 83,99 78,99 Z"
           style="opacity:0.2" />
        <path
           id="path2040"
           d="m 102,81 -4,2 v 2 l 2,1 4,-2 v -2 z"
           style="fill:#2d3134" />
        <path
           id="path2042"
           d="m 100,84 4,-2 v 2 l -4,2 z"
           style="opacity:0.29" />
        <path
           id="path2044"
           d="M 146,77 114,61 82,77 v 2 l 28,14 16,-8 4,2 16,-8 z m -16,6 -4,-2 -6,3 -10,5 -22,-11 26,-13 26,13 z"
           style="fill:#2d3134" />
        <path
           id="path2046"
           d="m 126,85 -16,8 v -2 l 16,-8 z"
           style="opacity:0.29" />
        <path
           id="path2048"
           d="m 146,79 -16,8 v -2 l 16,-8 z"
           style="opacity:0.29" />
        <path
           id="path2050"
           d="M 114,65 88,78 86,77 114,63 Z"
           style="opacity:0.29" />
        <path
           id="path2052"
           d="m 82,79 28,14 V 91 L 82,77 Z"
           style="opacity:0.11" />
        <path
           id="path2054"
           d="m 114,65 26,13 2,-1 -28,-14 z"
           style="opacity:0.11" />
        <path
           id="path2056"
           d="m 130,87 -4,-2 v -2 l 4,2 z"
           style="opacity:0.11" />
        <path
           id="path2058"
           d="m 102,69 -2,1 v 2 l 4,2 2,-1 v -2 z"
           style="fill:#2d3134" />
        <path
           id="path2060"
           d="m 104,72 -4,-2 v 2 l 4,2 z"
           style="opacity:0.11" />
        <path
           id="path2062"
           d="m 104,72 2,-1 v 2 l -2,1 z"
           style="opacity:0.29" />
        <path
           id="path2064"
           d="m 126,69 -4,2 v 2 l 2,1 4,-2 v -2 z"
           style="fill:#2d3134" />
        <path
           id="path2066"
           d="m 124,72 -2,-1 v 2 l 2,1 z"
           style="opacity:0.11" />
        <path
           id="path2068"
           d="m 124,72 4,-2 v 2 l -4,2 z"
           style="opacity:0.29" />
        <path
           id="path2070"
           d="m 114,72 c -5,0 -9,2 -9,4.5 v 2 c 0,2.5 4,4.5 9,4.5 5,0 9,-2 9,-4.5 v -2 C 123,74 119,72 114,72 Z"
           style="fill:#656565" />
        <path
           id="path2072"
           d="m 114,81 c -5,0 -9,-2 -9,-4.5 v 2 c 0,2.5 4,4.5 9,4.5 5,0 9,-2 9,-4.5 v -2 c 0,2.5 -4,4.5 -9,4.5 z"
           style="opacity:0.2" />
        <path
           id="path2074"
           d="m 126,88 c -1.7,0 -3,0.7 -3,1.5 v 2 c 0,0.8 1.3,1.5 3,1.5 1.7,0 3,-0.7 3,-1.5 v -2 c 0,-0.8 -1.3,-1.5 -3,-1.5 z"
           style="fill:#2d3134" />
        <path
           id="path2076"
           d="m 126,91 c -1.7,0 -3,-0.7 -3,-1.5 v 2 c 0,0.8 1.3,1.5 3,1.5 1.7,0 3,-0.7 3,-1.5 v -2 c 0,0.8 -1.3,1.5 -3,1.5 z"
           style="opacity:0.2" />
        <path
           id="path2078"
           d="m 118,92 c -1.7,0 -3,0.7 -3,1.5 v 2 c 0,0.8 1.3,1.5 3,1.5 1.7,0 3,-0.7 3,-1.5 v -2 c 0,-0.8 -1.3,-1.5 -3,-1.5 z"
           style="fill:#2d3134" />
        <path
           id="path2080"
           d="m 118,95 c -1.7,0 -3,-0.7 -3,-1.5 v 2 c 0,0.8 1.3,1.5 3,1.5 1.7,0 3,-0.7 3,-1.5 v -2 c 0,0.8 -1.3,1.5 -3,1.5 z"
           style="opacity:0.2" />
        <path
           id="path2082"
           d="m 110,96 c -1.7,0 -3,0.7 -3,1.5 v 2 c 0,0.8 1.3,1.5 3,1.5 1.7,0 3,-0.7 3,-1.5 v -2 c 0,-0.8 -1.3,-1.5 -3,-1.5 z"
           style="fill:#2d3134" />
        <path
           id="path2084"
           d="m 110,99 c -1.7,0 -3,-0.7 -3,-1.5 v 2 c 0,0.8 1.3,1.5 3,1.5 1.7,0 3,-0.7 3,-1.5 v -2 c 0,0.8 -1.3,1.5 -3,1.5 z"
           style="opacity:0.2" />
        <path
           id="path2086"
           d="m 102,100 c -1.7,0 -3,0.7 -3,1.5 v 2 c 0,0.8 1.3,1.5 3,1.5 1.7,0 3,-0.7 3,-1.5 v -2 c 0,-0.8 -1.3,-1.5 -3,-1.5 z"
           style="fill:#2d3134" />
        <path
           id="path2088"
           d="m 102,103 c -1.7,0 -3,-0.7 -3,-1.5 v 2 c 0,0.8 1.3,1.5 3,1.5 1.7,0 3,-0.7 3,-1.5 v -2 c 0,0.8 -1.3,1.5 -3,1.5 z"
           style="opacity:0.2" />
      </g>
    </g>
    <g
       transform="matrix(0.26458333,0,0,0.26458333,106.01716,113.45444)"
       id="g2435">
      <path
         style="fill:#656565"
         d="m 0,56 v 4 L 30,75 60,60 V 56 L 30,41 Z"
         id="path2298" />
      <path
         style="opacity:0.11"
         d="M 30,75 0,60 v -4 l 30,15 z"
         id="path2300" />
      <path
         style="fill:#999999"
         d="m 40,50 -22,11 16,8 v 2 L 56,60 v -2 z m -2,15 -12,-6 2,-1 12,6 z m -4,2 -12,-6 2,-1 12,6 z m 8,-4 -12,-6 2,-1 12,6 z m 4,-2 -12,-6 2,-1 12,6 z m 4,-2 -12,-6 2,-1 12,6 z"
         id="path2302" />
      <path
         style="opacity:0.29"
         d="m 30,71 v 4 L 60,60 v -4 z"
         id="path2304" />
      <path
         style="fill:#656565"
         d="M 0,30 V 56 L 10,61 40,46 V 20 L 30,15 Z"
         id="path2306" />
      <path
         style="opacity:0.11"
         d="M 10,61 0,56 V 30 l 10,5 z"
         id="path2308" />
      <path
         style="opacity:0.29"
         d="M 10,35 V 61 L 40,46 V 20 Z"
         id="path2310" />
      <path
         style="fill:#e5e5e5"
         d="m 19,42.3 c -1.1,0 -2,0.4 -2,1 v 9.6 c 0,0.6 0.9,1 2,1 1.1,0 2,-0.4 2,-1 v -9.6 c 0,-0.6 -0.9,-1 -2,-1 z"
         id="path2312" />
      <path
         style="opacity:0.2"
         d="m 19,44.3 c -1.1,0 -2,-0.4 -2,-1 v 9.6 c 0,0.6 0.9,1 2,1 1.1,0 2,-0.4 2,-1 v -9.6 c 0,0.6 -0.9,1 -2,1 z"
         id="path2314" />
      <path
         style="fill:#2d3134"
         d="m 19,37.5 c -1.1,0 -2,0.4 -2,1 v 4.8 c 0,0.6 0.9,1 2,1 1.1,0 2,-0.4 2,-1 v -4.8 c 0,-0.6 -0.9,-1 -2,-1 z"
         id="path2316" />
      <path
         style="opacity:0.2"
         d="m 19,39.5 c -1.1,0 -2,-0.4 -2,-1 v 4.8 c 0,0.6 0.9,1 2,1 1.1,0 2,-0.4 2,-1 v -4.8 c 0,0.6 -0.9,1 -2,1 z"
         id="path2318" />
      <path
         style="fill:#f8ebcb"
         d="m 34,46.1 c -3.8,0 -6.9,1.5 -6.9,3.4 l 1.4,10.7 c 0,1.5 2.5,2.7 5.5,2.7 3,0 5.5,-1.2 5.5,-2.7 l 1.4,-10.7 c 0,-1.8 -3.1,-3.4 -6.9,-3.4 z"
         id="path2320" />
      <path
         style="fill:#825012"
         d="m 34,48.1 c -3.1,0 -5.7,1.3 -5.7,2.8 V 51 c 1.1,1 3.2,1.7 5.7,1.7 2.5,0 4.6,-0.7 5.7,-1.7 v -0.1 c 0,-1.5 -2.6,-2.8 -5.7,-2.8 z"
         id="path2322" />
      <path
         style="opacity:0.2"
         d="m 34,53 c -3.8,0 -6.9,-1.5 -6.9,-3.4 l 1.4,10.7 c 0,1.5 2.5,2.7 5.5,2.7 3,0 5.5,-1.2 5.5,-2.7 l 1.4,-10.7 c 0,1.9 -3.1,3.4 -6.9,3.4 z"
         id="path2324" />
      <path
         style="fill:#f8ebcb"
         d="m 34,46.1 c -3.8,0 -6.9,1.5 -6.9,3.4 0,1.9 3.1,3.5 6.9,3.5 3.8,0 6.9,-1.5 6.9,-3.4 0,-1.9 -3.1,-3.5 -6.9,-3.5 z m 0,6.6 c -3.5,0 -6.3,-1.4 -6.3,-3.1 0,-1.7 2.8,-3.1 6.3,-3.1 3.5,0 6.3,1.4 6.3,3.1 0,1.7 -2.8,3.1 -6.3,3.1 z"
         id="path2326" />
      <path
         style="fill:#e5e5e5"
         d="m 39,40 c -1.1,0 -2,0.4 -2,1 v 5 c 0,0.6 0.9,1 2,1 1.1,0 2,-0.4 2,-1 v -5 c 0,-0.6 -0.9,-1 -2,-1 z"
         id="path2328" />
      <path
         style="opacity:0.2"
         d="m 39,42 c -1.1,0 -2,-0.4 -2,-1 v 5 c 0,0.6 0.9,1 2,1 1.1,0 2,-0.4 2,-1 v -5 c 0,0.6 -0.9,1 -2,1 z"
         id="path2330" />
      <path
         style="fill:#e5e5e5"
         d="m 31,41 c -1.1,0 -2,0.4 -2,1 v 5 c 0,0.6 0.9,1 2,1 1.1,0 2,-0.4 2,-1 v -5 c 0,-0.6 -0.9,-1 -2,-1 z"
         id="path2332" />
      <path
         style="opacity:0.2"
         d="m 31,43 c -1.1,0 -2,-0.4 -2,-1 v 5 c 0,0.6 0.9,1 2,1 1.1,0 2,-0.4 2,-1 v -5 c 0,0.6 -0.9,1 -2,1 z"
         id="path2334" />
      <path
         style="fill:#999999"
         d="m 34,18 c -6.6,0 -12,2.7 -12,6 v 16 c 0,3.3 5.4,6 12,6 6.6,0 12,-2.7 12,-6 V 24 c 0,-3.3 -5.4,-6 -12,-6 z"
         id="path2336" />
      <path
         style="opacity:0.2"
         d="M 34,30 C 27.4,30 22,27.3 22,24 v 16 c 0,3.3 5.4,6 12,6 6.6,0 12,-2.7 12,-6 V 24 c 0,3.3 -5.4,6 -12,6 z"
         id="path2338" />
      <path
         style="fill:#656565"
         d="M 0,15 V 30 L 26,43 56,28 V 13 L 30,0 Z"
         id="path2340" />
      <path
         style="fill:#e5e5e5"
         d="m 24,27 v 15 l 2,1 30,-15 V 13 l -2,-1 z"
         id="path2342" />
      <path
         style="opacity:0.11"
         d="M 26,43 0,30 V 15 l 26,13 z"
         id="path2344" />
      <g
         style="fill:#656565"
         id="g2352">
        <path
           d="m 29,37.1 c 0,0.8 0.6,1.1 1.4,0.7 0.8,-0.4 1.4,-1.3 1.4,-2.1 0,-0.8 -0.6,-1.1 -1.4,-0.7 -0.8,0.4 -1.4,1.4 -1.4,2.1 z"
           id="path2346" />
        <path
           d="m 33,35.3 c 0,0.8 0.6,1.1 1.4,0.7 0.8,-0.4 1.4,-1.3 1.4,-2.1 0,-0.8 -0.6,-1.1 -1.4,-0.7 -0.8,0.4 -1.4,1.3 -1.4,2.1 z"
           id="path2348" />
        <path
           d="m 54,26 -6,3 v -5 l 6,-3 z"
           id="path2350" />
      </g>
      <path
         style="fill:#3399cc"
         d="m 53,25 -4,2 v -2 l 4,-2 z"
         id="path2354" />
      <path
         style="opacity:0.29"
         d="M 26,28 V 43 L 56,28 V 13 Z"
         id="path2356" />
      <path
         style="opacity:0.2"
         d="M 30,4 8,15 28,25 30,24 12,15 30,6 l 18,9 2,-1 z"
         id="path2358" />
      <path
         style="fill:#656565"
         d="m 40.3,24.6 c 0.8,-0.4 1.6,-0.5 2.2,-0.2 l 1.6,0.8 c 0.6,0.3 1,0.9 1,1.8 0,1.7 -1.4,3.8 -3.1,4.7 -0.9,0.4 -1.6,0.5 -2.2,0.2 0,0 -1.6,-0.8 -1.7,-0.8 -0.5,-0.3 -0.8,-0.9 -0.8,-1.7 -0.1,-1.8 1.3,-4 3,-4.8 z"
         id="path2360" />
      <path
         style="opacity:0.11"
         d="M 39.6,31.8 C 39.4,31.7 38.1,31 38,31 c -0.5,-0.3 -0.8,-0.9 -0.8,-1.7 0,-0.7 0.2,-1.5 0.6,-2.2 l 1.6,0.8 c -0.4,0.7 -0.6,1.5 -0.6,2.2 -0.1,0.8 0.3,1.4 0.8,1.7 z"
         id="path2362" />
      <path
         style="opacity:0.29"
         d="m 38.7,30.1 c 0,1.7 1.4,2.4 3.1,1.6 1.7,-0.9 3.1,-3 3.1,-4.7 0,-1.7 -1.4,-2.4 -3.1,-1.6 -1.7,0.8 -3.1,2.9 -3.1,4.7 z"
         id="path2364" />
      <path
         style="fill:#2d3134"
         d="m 41.8,37.3 c 0.7,-0.4 1.4,-0.4 1.9,-0.2 l 12,5.9 c 0.5,0.2 0.9,0.8 0.9,1.6 0,1.5 -1.2,3.4 -2.8,4.1 -0.8,0.4 -1.4,0.4 -1.9,0.2 0,0 -12,-5.9 -12.2,-6 -0.4,-0.3 -0.7,-0.8 -0.7,-1.5 0,-1.5 1.2,-3.3 2.8,-4.1 z"
         id="path2366" />
      <path
         style="opacity:0.11"
         d="M 51.8,48.9 C 51.6,48.8 39.8,43 39.7,42.9 39.3,42.6 39,42.1 39,41.4 c 0,-0.6 0.2,-1.3 0.5,-1.9 l 12,5.9 C 51.2,46 51,46.7 51,47.3 c 0,0.8 0.3,1.4 0.8,1.6 z"
         id="path2368" />
      <path
         style="opacity:0.29"
         d="m 51,47.4 c 0,1.5 1.2,2.1 2.8,1.4 1.5,-0.8 2.8,-2.6 2.8,-4.1 0,-1.5 -1.2,-2.1 -2.8,-1.4 C 52.3,44 51,45.9 51,47.4 Z"
         id="path2370" />
      <path
         style="fill:#e5e5e5"
         d="m 53.9,43.1 c 0.8,-0.4 1.5,-0.4 2,-0.2 l 1.3,0.7 c 0.6,0.3 0.9,0.8 0.9,1.7 0,1.6 -1.3,3.6 -2.9,4.4 -0.8,0.4 -1.5,0.4 -2,0.2 0,0 -1.3,-0.7 -1.5,-0.8 -0.5,-0.3 -0.8,-0.8 -0.8,-1.6 0.1,-1.7 1.4,-3.6 3,-4.4 z"
         id="path2372" />
      <path
         style="opacity:0.11"
         d="M 53.2,49.8 C 53,49.7 51.9,49.1 51.8,49.1 51.3,48.8 51,48.3 51,47.5 c 0,-0.6 0.2,-1.3 0.6,-2 l 1.3,0.7 c -0.4,0.7 -0.6,1.4 -0.6,2 0,0.7 0.4,1.3 0.9,1.6 z"
         id="path2374" />
      <path
         style="opacity:0.29"
         d="m 52.3,48.1 c 0,1.6 1.3,2.3 2.9,1.5 1.6,-0.8 2.9,-2.8 2.9,-4.4 0,-1.6 -1.3,-2.3 -2.9,-1.5 -1.6,0.8 -2.9,2.8 -2.9,4.4 z"
         id="path2376" />
      <path
         style="fill:#999999"
         d="M 17.7,27.4 C 16.9,27 16.1,26.9 15.5,27.2 L 14,27.9 c -0.6,0.3 -1,0.9 -1,1.8 0,1.7 1.4,3.8 3.1,4.7 0.9,0.4 1.6,0.5 2.2,0.2 0,0 1.6,-0.8 1.7,-0.8 0.5,-0.3 0.8,-0.9 0.8,-1.7 0,-1.8 -1.4,-3.9 -3.1,-4.7 z"
         id="path2378" />
      <path
         style="opacity:0.29"
         d="m 18.4,34.6 c 0.2,-0.1 1.5,-0.8 1.6,-0.8 0.5,-0.3 0.8,-0.9 0.8,-1.7 0,-0.7 -0.2,-1.5 -0.6,-2.2 l -1.6,0.8 c 0.4,0.7 0.6,1.5 0.6,2.2 0.1,0.8 -0.3,1.4 -0.8,1.7 z"
         id="path2380" />
      <path
         style="opacity:0.11"
         d="m 19.3,32.9 c 0,1.7 -1.4,2.4 -3.1,1.6 -1.7,-0.9 -3.1,-3 -3.1,-4.7 0,-1.7 1.4,-2.4 3.1,-1.6 1.7,0.8 3.1,2.9 3.1,4.7 z"
         id="path2382" />
    </g>
    <g
       transform="matrix(0.26458333,0,0,0.26458333,123.49278,103.46903)"
       id="g2460">
      <path
         style="fill:#cc291f"
         d="M 30.8,6.7 C 24.6,3.6 18,3.6 13.9,5.4 L 14.9,5 12.3,6.2 C 7.8,8.3 5,12.8 5,19.5 c 0,12.8 10.4,28.4 23.2,34.8 6.3,3.2 12.1,3.5 16.3,1.5 0,0 2.6,-1.2 3.5,-1.7 3.7,-2.2 6,-6.6 6,-12.6 C 54,28.6 43.6,13.1 30.8,6.7 Z"
         id="path2437" />
      <path
         style="fill:#ffffff"
         d="m 47.2,40.6 c 0,10.5 -8.5,14.7 -19,9.5 -10.5,-5.2 -19,-18 -19,-28.5 0,-10.5 8.5,-14.7 19,-9.5 10.5,5.2 19,18 19,28.5 z"
         id="path2439" />
      <path
         style="opacity:0.2"
         d="m 29.5,49.6 c -10.5,-5.2 -19,-18 -19,-28.5 0,-5.4 2.3,-9.1 5.9,-10.8 -4.4,1.3 -7.2,5.2 -7.2,11.3 0,10.5 8.5,23.3 19,28.5 5.1,2.5 9.7,2.8 13.1,1.3 -3.2,0.9 -7.3,0.4 -11.8,-1.8 z"
         id="path2441" />
      <path
         style="opacity:0.29"
         d="M 51.4,42.7 C 51.4,55.5 41,60.7 28.2,54.3 15.4,47.9 5,32.3 5,19.5 5,6.7 15.4,1.5 28.2,7.9 41,14.3 51.4,29.9 51.4,42.7 Z"
         id="path2443" />
      <path
         style="fill:#2d3134"
         d="m 26,14 v 18 l 18,9 V 39 L 28,31 V 15 Z"
         id="path2445" />
    </g>
    <g
       transform="matrix(0.52916666,0,0,0.52916666,68.502592,112.52573)"
       id="g1867">
      <path
         style="fill:#825012"
         d="m 20,142 c -6.6,0 -12,2.7 -12,6 v 2 c 0,3.3 5.4,6 12,6 6.6,0 12,-2.7 12,-6 v -2 c 0,-3.3 -5.4,-6 -12,-6 z"
         id="path1835" />
      <path
         style="opacity:0.2"
         d="m 20,154 c -6.6,0 -12,-2.7 -12,-6 v 2 c 0,3.3 5.4,6 12,6 6.6,0 12,-2.7 12,-6 v -2 c 0,3.3 -5.4,6 -12,6 z"
         id="path1837" />
      <path
         style="fill:#825012"
         d="m 20,25 c -1.7,0 -3,0.7 -3,1.5 v 122.1 c 0,0.8 1.3,1.5 3,1.5 1.7,0 3,-0.7 3,-1.5 V 26.5 C 23,25.7 21.7,25 20,25 Z"
         id="path1839" />
      <path
         style="opacity:0.2"
         d="m 20,28 c -1.7,0 -3,-0.7 -3,-1.5 v 122.1 c 0,0.8 1.3,1.5 3,1.5 1.7,0 3,-0.7 3,-1.5 V 26.5 c 0,0.8 -1.3,1.5 -3,1.5 z"
         id="path1841" />
      <path
         style="fill:#f8ebcb"
         d="m 20,22.9 c 10,0 18.1,4 18.1,9 L 34.5,7.2 C 34.5,3.2 28,0 20,0 12,0 5.5,3.2 5.5,7.2 L 1.9,32 C 1.9,27 10,22.9 20,22.9 Z"
         id="path1843" />
      <path
         style="fill:#ffcc00"
         d="m 25,11 c 0,-3.1 -2.8,-5.6 -6.1,-4.9 -2,0.4 -3.5,2 -3.9,4 -0.2,1.5 0.2,2.9 1,3.9 0.8,1.1 1.3,2.4 1.5,3.8 l 0.5,3.2 2,1 2,-1 0.4,-3 c 0.2,-1.4 0.7,-2.8 1.6,-4 0.6,-0.8 1,-1.9 1,-3 z"
         id="path1845" />
      <path
         style="fill:#f8ebcb"
         d="M 20,14.5 C 12,14.5 5.5,11.3 5.5,7.3 L 1.9,32 c 0,5 8.1,9 18.1,9 10,0 18.1,-4 18.1,-9 L 34.5,7.2 c 0,4 -6.5,7.3 -14.5,7.3 z"
         id="path1847" />
      <path
         style="opacity:0.2"
         d="M 20,14.5 C 12,14.5 5.5,11.3 5.5,7.3 L 1.9,32 c 0,5 8.1,9 18.1,9 10,0 18.1,-4 18.1,-9 L 34.5,7.2 c 0,4 -6.5,7.3 -14.5,7.3 z"
         id="path1849" />
    </g>
  </g>
  <path
     style="fill:#000000;fill-opacity:1;fill-rule:nonzero;stroke:none;stroke-width:0.264583"
     id="path4"
     d="m 91.264793,22.884002 c 0.13448,0.436692 0.235106,0.881684 0.323977,1.32955 0.134649,0.717486 0.253537,1.437965 0.370459,2.158548 0.05065,0.316553 0.09599,0.633898 0.140748,0.951324 0.08689,0.616156 0.958273,0.493268 0.871376,-0.122889 v 0 c -0.04563,-0.323454 -0.09184,-0.64683 -0.143489,-0.969394 -0.118613,-0.730867 -0.239181,-1.461637 -0.376013,-2.18932 -0.09518,-0.477131 -0.202594,-0.951324 -0.345974,-1.416615 -0.182997,-0.594737 -1.024081,-0.335942 -0.841084,0.258796 z" />
  <path
     style="fill:#000000;fill-opacity:1;fill-rule:nonzero;stroke:none;stroke-width:0.264583"
     id="path5"
     d="m 92.546845,32.401998 c 0.05581,0.516333 0.1002,1.034062 0.143499,1.551621 0.03313,0.395754 0.05751,0.792147 0.08231,1.188482 0.03888,0.621038 0.917162,0.56605 0.878282,-0.05499 v 0 c -0.02522,-0.402474 -0.05,-0.805005 -0.08366,-1.206889 -0.04512,-0.538893 -0.09034,-1.07815 -0.151198,-1.615473 -0.09705,-0.61464 -0.966283,-0.477393 -0.869233,0.137247 z" />
  <path
     style="fill:#000000;fill-opacity:1;fill-rule:nonzero;stroke:none;stroke-width:0.264583"
     id="path6"
     d="m 93.218685,40.849304 c 0,0.223454 0,0.446905 0,0.670359 0,0.485762 0,0.971523 0,1.457288 0,0.506709 0,1.01342 0,1.520131 0,0.622256 0.879999,0.622256 0.879999,0 v 0 c 0,-0.506711 0,-1.013422 0,-1.520131 0,-0.485765 0,-0.971526 0,-1.457288 0,-0.223454 0,-0.446905 0,-0.670359 0,-0.622255 -0.879999,-0.622255 -0.879999,0 z" />
  <path
     style="fill:#000000;fill-opacity:1;fill-rule:nonzero;stroke:none;stroke-width:0.264583"
     id="path7"
     d="m 93.218685,49.794663 c 0,0.189349 0,0.378695 0,0.568041 0.0069,0.353772 -0.02135,0.706766 -0.04052,1.05977 -0.03373,0.62134 0.844976,0.669042 0.878708,0.0477 v 0 c 0.02003,-0.368879 0.04886,-0.737788 0.04181,-1.107472 0,-0.189346 0,-0.378692 0,-0.568041 0,-0.622253 -0.879999,-0.622253 -0.879999,0 z" />
  <path
     style="fill:#000000;fill-opacity:1;fill-rule:nonzero;stroke:none;stroke-width:0.264583"
     id="path8"
     d="m 93.065772,56.905078 c -0.01103,0.1661 -0.03471,0.330967 -0.06217,0.495186 -0.06937,0.392422 -0.149876,0.782656 -0.220916,1.174787 -0.08284,0.450567 -0.140925,0.90511 -0.203698,1.358765 -0.0095,0.07268 -0.01894,0.145359 -0.02842,0.21804 -0.0804,0.617038 0.792221,0.730742 0.872623,0.113705 v 0 c 0.0092,-0.07038 0.01833,-0.140756 0.0275,-0.211135 0.06109,-0.441542 0.117414,-0.883983 0.197913,-1.322543 0.07181,-0.396582 0.153506,-0.791197 0.223232,-1.188152 0.03464,-0.211653 0.06494,-0.424124 0.07394,-0.638653 0,-0.622253 -0.880001,-0.622253 -0.880001,0 z" />
  <path
     style="fill:#000000;fill-opacity:1;fill-rule:nonzero;stroke:none;stroke-width:0.264583"
     id="path9"
     d="m 97.008429,37.936972 c -0.418619,0.267933 -0.722059,0.66113 -0.993095,1.069461 -0.394925,0.666367 -0.603184,1.414786 -0.791081,2.159821 -0.119734,0.533487 -0.21273,1.079703 -0.215603,1.628282 -0.0021,0.388816 0.02521,0.52106 0.07011,0.906492 0.112365,0.81435 0.346194,1.605169 0.666646,2.360464 0.225264,0.51847 0.592344,0.936281 1.001557,1.315943 0.457618,0.421647 1.053917,-0.225523 0.596299,-0.647169 v 0 c -0.320387,-0.292631 -0.611624,-0.611788 -0.788638,-1.01456 -0.291545,-0.676577 -0.497136,-1.388904 -0.602062,-2.118934 -0.03748,-0.305528 -0.06511,-0.451639 -0.06502,-0.758193 1.51e-4,-0.490932 0.08382,-0.980062 0.19009,-1.457531 0.163224,-0.649873 0.338735,-1.304838 0.673105,-1.891319 0.192177,-0.296209 0.403048,-0.581255 0.69429,-0.788702 0.540266,-0.308726 0.103664,-1.072779 -0.436604,-0.764055 z" />
  <path
     style="fill:#000000;fill-opacity:1;fill-rule:nonzero;stroke:none;stroke-width:0.264583"
     id="path10"
     d="m 97.665056,40.357544 c -0.297352,0.146378 -0.440182,0.439428 -0.563835,0.730226 -0.13212,0.339913 -0.204534,0.69787 -0.265756,1.056085 -0.0902,0.452479 -0.01371,0.891963 0.118523,1.326192 0.09873,0.30032 0.215384,0.597154 0.388445,0.863528 0.109453,0.168474 0.171884,0.234437 0.29831,0.38576 0.256297,0.237292 0.121505,0.129244 0.403606,0.325099 0.517118,0.346107 1.006584,-0.38521 0.489466,-0.731314 v 0 c -0.152003,-0.09463 -0.07836,-0.04138 -0.220131,-0.16084 -0.253177,-0.297029 -0.408022,-0.564398 -0.519274,-0.943173 -0.09616,-0.301623 -0.157257,-0.601456 -0.09139,-0.917763 0.04942,-0.292484 0.106222,-0.585131 0.21005,-0.864013 0.05387,-0.132146 0.02718,-0.07285 0.08448,-0.191503 0.01011,-0.02093 0.01556,-0.04412 0.02751,-0.06404 0.0037,-0.0062 0.02156,-0.01302 0.0149,-0.01572 -0.0093,-0.0038 -0.01884,0.0069 -0.02824,0.01032 0.571942,-0.245118 0.225293,-1.053965 -0.346649,-0.808847 z" />
  <path
     style="fill:#000000;fill-opacity:1;fill-rule:nonzero;stroke:none;stroke-width:0.264583"
     id="path11"
     d="m 97.667043,42.87312 c 0.321537,-0.01677 0.643442,-0.0241 0.9653,-0.03144 0.478835,-0.01175 0.957752,0.01386 1.436247,0.02999 0.4763,0.02204 0.95307,0.01955 1.42972,0.01746 0.4962,0.0071 0.99091,-0.02793 1.48535,-0.06411 0.5468,-0.03609 1.09331,-0.07633 1.64039,-0.10794 0.62797,-0.03454 1.25659,-0.05481 1.8852,-0.07339 0.58564,-0.01677 1.17143,-0.02773 1.75722,-0.03784 0.44904,-0.0076 0.89811,-0.01389 1.34719,-0.01913 0.34883,-0.004 0.69767,-0.007 1.04651,-0.0096 0.2836,-0.0021 0.5672,-0.0036 0.8508,-0.0049 0.62225,-0.0028 0.61832,-0.882771 -0.004,-0.879991 v 0 c -0.28451,0.0013 -0.56901,0.0028 -0.85351,0.0049 -0.35005,0.0026 -0.70009,0.0057 -1.05013,0.0097 -0.45072,0.0053 -0.90143,0.01154 -1.35212,0.01918 -0.5894,0.01019 -1.17879,0.02122 -1.76804,0.03809 -0.63687,0.01884 -1.27375,0.03942 -1.90997,0.07447 -0.55157,0.03191 -1.10256,0.07237 -1.65384,0.108818 -0.47435,0.03472 -0.94891,0.06901 -1.42498,0.06178 -0.46547,0.0021 -0.93106,0.0047 -1.39619,-0.01696 -0.495059,-0.01669 -0.990545,-0.04278 -1.485961,-0.03027 -0.315153,0.0072 -0.630497,0.01323 -0.945253,0.03122 -0.622255,0 -0.622255,0.880002 0,0.880002 z" />
  <path
     style="fill:#000000;fill-opacity:1;fill-rule:nonzero;stroke:none;stroke-width:0.264583"
     id="path12"
     d="m 111.61302,42.567294 c 0.28643,-0.0056 0.56777,-0.05454 0.84639,-0.117512 0.28155,-0.07291 0.5628,-0.161931 0.82286,-0.294344 0.1608,-0.08188 0.25007,-0.144002 0.39969,-0.239898 0.31317,-0.222858 0.59919,-0.491691 0.79554,-0.825627 0.0405,-0.06892 0.0732,-0.142184 0.10974,-0.213278 0.20103,-0.485402 0.14872,-0.945335 0.0516,-1.444572 -0.0649,-0.267435 -0.16091,-0.52806 -0.30624,-0.762807 -0.0859,-0.138795 -0.1232,-0.176651 -0.22455,-0.301167 -0.20904,-0.228534 -0.45828,-0.415039 -0.75569,-0.510527 -0.0572,-0.01836 -0.11639,-0.02994 -0.17458,-0.0449 -0.23436,-0.04747 -0.47578,-0.05312 -0.70367,0.02988 -0.16532,0.06021 -0.21173,0.107016 -0.35437,0.207287 -0.34024,0.299728 -0.52192,0.713476 -0.67914,1.128496 -0.15576,0.422722 -0.24022,0.865764 -0.29501,1.311489 -0.0561,0.511474 -0.0571,1.026422 -0.0507,1.540209 0.0208,0.640262 0.0643,1.279556 0.098,1.919237 0.0313,0.57124 0.0507,1.142942 0.0641,1.714846 0.009,0.434732 0.0161,0.869522 0.0222,1.304314 7.9e-4,0.05897 0.002,0.117941 0.002,0.176911 0.008,0.6222 0.88811,0.610635 0.87993,-0.01156 v 0 c -8e-4,-0.05918 -0.002,-0.118354 -0.002,-0.17753 -0.006,-0.4376 -0.0128,-0.875194 -0.0223,-1.312733 -0.0136,-0.580499 -0.0333,-1.160788 -0.0651,-1.740614 -0.0331,-0.62796 -0.0756,-1.255549 -0.0969,-1.884043 -0.006,-0.474763 -0.006,-0.950624 0.0444,-1.423373 0.0446,-0.376214 0.11534,-0.750303 0.24507,-1.107432 0.0961,-0.257943 0.19907,-0.520645 0.38062,-0.7321 0.0278,-0.02439 0.075,-0.07715 0.11389,-0.08943 0.0687,-0.0217 0.14502,-0.0085 0.21375,0.0019 0.1991,0.0399 0.31468,0.11304 0.45735,0.260519 0.0581,0.06841 0.0886,0.10002 0.13776,0.175408 0.0992,0.152032 0.16207,0.323543 0.20786,0.498277 0.0583,0.289597 0.11861,0.592272 0.0244,0.880903 -0.0198,0.04187 -0.0372,0.08501 -0.0595,0.125622 -0.12694,0.231127 -0.3258,0.411739 -0.53523,0.566737 -0.0794,0.05152 -0.20193,0.133962 -0.28747,0.178621 -0.20611,0.107614 -0.43069,0.178387 -0.65461,0.237466 -0.2141,0.04975 -0.42983,0.08832 -0.65012,0.09535 -0.62226,0 -0.62226,0.879999 0,0.879999 z" />
  <path
     style="fill:#000000;fill-opacity:1;fill-rule:nonzero;stroke:none;stroke-width:0.264583"
     d="m 121.8494,46.281095 c -0.26482,0.0016 -0.52963,0.0036 -0.79444,0.0063 -0.30336,0.0033 -0.60671,0.007 -0.91003,0.01257 -0.34579,0.0066 -0.69157,0.01429 -1.03726,0.02492 -0.41227,0.01294 -0.82448,0.02785 -1.23644,0.04872 -0.46076,0.0236 -0.92124,0.05239 -1.3822,0.07207 -0.47032,0.01969 -0.94117,0.02861 -1.41082,0.06226 -0.32748,0.02392 -0.65378,0.05848 -0.98058,0.08986 -0.31192,0.02209 -0.62354,0.04831 -0.93578,0.06564 -0.29272,0.01582 -0.58587,0.02572 -0.87894,0.03174 h -0.41676 c -0.62226,0 -0.62226,0.880002 0,0.880002 l -4e-5,-9e-6 h 0.41676 c 0.3088,-0.0057 0.61764,-0.01659 0.92606,-0.033 0.31725,-0.01749 0.63387,-0.04415 0.95079,-0.06657 0.32749,-0.03052 0.65431,-0.06616 0.9824,-0.08999 0.46059,-0.03261 0.92234,-0.04148 1.38357,-0.06069 0.46373,-0.01971 0.92699,-0.04872 1.39052,-0.07245 0.40615,-0.02056 0.81256,-0.03525 1.21901,-0.048 0.34207,-0.01053 0.68422,-0.01815 1.02639,-0.02466 0.30093,-0.0055 0.60189,-0.0092 0.90285,-0.01246 0.26351,-0.0028 0.52703,-0.0046 0.79054,-0.0063"
     id="path18" />
  <path
     style="fill:#ff4400;fill-opacity:1;fill-rule:nonzero;stroke:none;stroke-width:0.264583"
     d="m 121.855,47.161048 c 0.20546,-0.0013 0.41092,-0.0024 0.61638,-0.0032 0.18346,-7.94e-4 0.36692,-0.0011 0.55037,-0.0016 l 0.49836,-7.94e-4 c 0.18464,-2.04e-4 0.36929,-2.65e-4 0.55394,-5.29e-4 0.20618,-9.6e-5 0.41237,-1.54e-4 0.61855,-2.04e-4 0.20895,-5e-5 0.41791,-7.9e-5 0.62685,-1.03e-4 0.25648,-2.9e-5 0.51296,-4e-5 0.76943,-5.3e-5 0.3379,-7.94e-4 0.67581,0.0027 1.01365,-0.0037 0.3868,-0.0071 0.77255,-0.03844 1.15818,-0.06709 0.22293,-0.01622 0.11293,-0.0084 0.33,-0.02363 0.62072,-0.04365 0.55899,-0.921486 -0.0617,-0.877832 v 0 c -0.21965,0.01545 -0.1085,0.0075 -0.33345,0.02386 -0.36967,0.02746 -0.73944,0.05785 -1.11021,0.06484 -0.33211,0.0067 -0.6643,0.0024 -0.99647,0.0036 -0.25649,10e-6 -0.51299,2.4e-5 -0.76949,5.3e-5 -0.20899,2.3e-5 -0.41797,5.3e-5 -0.62696,1.03e-4 -0.20626,5e-5 -0.41252,1.06e-4 -0.61879,2.04e-4 -0.18484,9.2e-5 -0.36969,2.03e-4 -0.55454,5.29e-4 -0.16643,1.95e-4 -0.33286,5.29e-4 -0.49928,7.93e-4 -0.18404,5.3e-4 -0.36807,7.94e-4 -0.55211,0.0016 -0.20611,7.94e-4 -0.41221,0.0019 -0.61831,0.0032"
     id="path13" />
  <path
     style="fill:#ff4400;fill-opacity:1;fill-rule:nonzero;stroke:none;stroke-width:0.264583"
     id="path14"
     d="m 133.87733,53.9832 c -0.21741,-0.304509 -0.44824,-0.599562 -0.67039,-0.900756 -0.57617,-0.783547 -1.10388,-1.600938 -1.6285,-2.419403 -0.68964,-1.091544 -1.37909,-2.183151 -2.05162,-3.285339 -0.60507,-1.003144 -1.20239,-2.010775 -1.78817,-3.025299 -0.49805,-0.857337 -0.98822,-1.719167 -1.46875,-2.586439 -0.38808,-0.699863 -0.7685,-1.403956 -1.15146,-2.106639 -0.29293,-0.535914 -0.583,-1.073304 -0.87115,-1.611792 -0.0385,-0.07081 -0.077,-0.141631 -0.11546,-0.212447 -0.29715,-0.546716 -1.07032,-0.126481 -0.77317,0.420238 v 0 c 0.0376,0.06914 0.0752,0.138269 0.11274,0.207404 0.28921,0.540459 0.58034,1.079831 0.87434,1.617713 0.38394,0.70448 0.76534,1.410372 1.15442,2.112026 0.48306,0.871789 0.97575,1.738156 1.4764,2.599968 0.58936,1.020667 1.19029,2.034434 1.79907,3.043639 0.67593,1.107723 1.36879,2.204868 2.06196,3.301871 0.53506,0.834641 1.07348,1.668031 1.66124,2.466969 0.22362,0.302961 0.45606,0.599662 0.6745,0.906285 0.37336,0.497803 1.07736,-0.0302 0.704,-0.527999 z" />
  <path
     style="fill:#ff4400;fill-opacity:1;fill-rule:nonzero;stroke:none;stroke-width:0.264583"
     id="path16"
     d="m 125.14149,46.361752 c -5.3e-4,-0.122214 0.0287,-0.243485 0.05,-0.36345 0.0532,-0.305726 0.1495,-0.600575 0.2506,-0.893075 0.0745,-0.213775 0.15999,-0.423815 0.26439,-0.624871 0.0519,-0.09997 0.12341,-0.22319 0.17892,-0.320623 0.16642,-0.28758 0.3464,-0.566951 0.5199,-0.850235 0.0217,-0.03448 0.0435,-0.06895 0.0652,-0.103431 0.3318,-0.526413 -0.41266,-0.995643 -0.74446,-0.469231 v 0 c -0.0238,0.0377 -0.0475,0.0754 -0.0713,0.113104 -0.17836,0.291333 -0.36356,0.578538 -0.53424,0.874533 -0.0714,0.125637 -0.13833,0.240366 -0.20456,0.369136 -0.12005,0.233394 -0.2193,0.476684 -0.30572,0.724339 -0.116,0.336108 -0.22435,0.675537 -0.2853,1.026721 -0.0302,0.170773 -0.066,0.342852 -0.0635,0.517083 0,0.622255 0.88,0.622255 0.88,0 z" />
  <path
     style="fill:#ff4400;fill-opacity:1;fill-rule:nonzero;stroke:none;stroke-width:0.264583"
     id="path17"
     d="m 132.95748,48.498683 c 0.004,-0.208897 -0.005,-0.417386 -0.018,-0.625835 -0.017,-0.255416 -0.0511,-0.50954 -0.10198,-0.760413 -0.0354,-0.174291 -0.0541,-0.239318 -0.0977,-0.411038 -0.0819,-0.294576 -0.19226,-0.582168 -0.32451,-0.857893 -0.082,-0.170947 -0.12686,-0.245139 -0.21881,-0.409398 -0.19211,-0.320553 -0.41155,-0.626102 -0.6614,-0.904422 -0.0476,-0.05298 -0.0976,-0.103651 -0.14641,-0.155477 -0.20418,-0.199168 -0.42336,-0.382924 -0.6543,-0.550315 -0.11449,-0.08299 -0.20744,-0.143566 -0.32437,-0.221694 -0.22113,-0.138989 -0.44786,-0.269606 -0.6827,-0.384178 -0.16389,-0.07996 -0.20723,-0.09591 -0.37573,-0.167812 -0.36675,-0.148672 -0.74433,-0.268671 -1.12132,-0.388271 -0.26452,-0.08324 -0.53133,-0.158874 -0.79917,-0.230605 -0.18064,-0.04872 -0.365,-0.08143 -0.54951,-0.111332 -0.0864,-0.01408 -0.17312,-0.0254 -0.25994,-0.0362 -0.61753,-0.07655 -0.72579,0.796761 -0.10827,0.873315 v 0 c 0.0761,0.0094 0.15206,0.01926 0.22771,0.03159 0.15521,0.02506 0.31045,0.05186 0.46242,0.09268 0.25495,0.06823 0.50891,0.140192 0.7607,0.219361 0.35046,0.111135 0.70157,0.222324 1.04298,0.359264 0.14259,0.06041 0.18295,0.07533 0.32145,0.142507 0.20385,0.09887 0.40046,0.212019 0.59278,0.331566 0.0951,0.06345 0.19201,0.126801 0.28482,0.193683 0.19115,0.13776 0.37266,0.288861 0.5433,0.451315 0.0392,0.04114 0.0794,0.08127 0.11752,0.123415 0.21201,0.234566 0.39834,0.492342 0.56213,0.762463 0.0712,0.126254 0.12057,0.209217 0.18353,0.339437 0.11103,0.229626 0.20492,0.46904 0.27438,0.714436 0.0847,0.330626 0.15574,0.665271 0.17402,1.007131 0.0116,0.190764 0.0203,0.381524 0.0164,0.572712 0,0.622252 0.88001,0.622252 0.88001,0 z" />
</svg>
