<?xml version="1.0" encoding="UTF-8" standalone="no"?>
<svg
   id="svg8"
   version="1.1"
   viewBox="0 0 113.23539 56.288929"
   height="56.288929mm"
   width="113.23539mm"
   sodipodi:docname="37 jan li jo e ilo..svg"
   inkscape:version="1.3 (0e150ed6c4, 2023-07-21)"
   xmlns:inkscape="http://www.inkscape.org/namespaces/inkscape"
   xmlns:sodipodi="http://sodipodi.sourceforge.net/DTD/sodipodi-0.dtd"
   xmlns="http://www.w3.org/2000/svg"
   xmlns:svg="http://www.w3.org/2000/svg"
   xmlns:rdf="http://www.w3.org/1999/02/22-rdf-syntax-ns#"
   xmlns:cc="http://creativecommons.org/ns#"
   xmlns:dc="http://purl.org/dc/elements/1.1/">
  <sodipodi:namedview
     id="namedview1"
     pagecolor="#ffffff"
     bordercolor="#000000"
     borderopacity="0.25"
     inkscape:showpageshadow="2"
     inkscape:pageopacity="0.0"
     inkscape:pagecheckerboard="0"
     inkscape:deskcolor="#d1d1d1"
     inkscape:document-units="mm"
     inkscape:zoom="0.9835693"
     inkscape:cx="189.61552"
     inkscape:cy="186.5654"
     inkscape:window-width="1920"
     inkscape:window-height="1051"
     inkscape:window-x="-9"
     inkscape:window-y="-9"
     inkscape:window-maximized="1"
     inkscape:current-layer="svg8" />
  <defs
     id="defs2" />
  <metadata
     id="metadata5">
    <rdf:RDF>
      <cc:Work
         rdf:about="">
        <dc:format>image/svg+xml</dc:format>
        <dc:type
           rdf:resource="http://purl.org/dc/dcmitype/StillImage" />
        <dc:title />
      </cc:Work>
    </rdf:RDF>
  </metadata>
  <g
     transform="translate(-116.162,-106.2687)"
     id="layer1">
    <g
       transform="matrix(0.26458333,0,0,0.26458333,106.63699,101.16224)"
       id="g889">
      <path
         style="fill:#fbd7c7"
         d="m 60.3,87.6 1.1,8.1 c 0,0 -3.9,1.4 -6.4,1.8 -2.5,0.4 -4.6,0.9 -5.3,1.1 -0.7,0.2 -3.1,1.8 -4.3,1.3 -1.2,-0.5 -3.3,-6.7 -3,-8.2 0.4,-1.8 1.4,-4.3 2.7,-4.8 1.3,-0.5 2.9,-0.6 3.2,-1.4 0.3,-0.8 -0.8,-5.4 -0.1,-6.6 0.7,-1.2 2,-0.9 2.1,-0.1 0.1,0.8 0.6,4.7 3,6.3 2.4,1.6 4.4,1.9 5.2,2.3 0.8,0.4 1.8,0.2 1.8,0.2 z"
         id="path815" />
      <path
         style="fill:#99cc33"
         d="m 60,87 1.3,9.5 c 0,0 4.1,-0.6 10.2,-2.1 6,-1.4 16.5,-3.5 20.8,-5.4 5.4,-2.4 10.9,-10.6 12.4,-14.3 1.5,-3.7 7.6,-28.5 -2.9,-23.1 -6.2,3.2 -6,10.3 -7.9,15.1 -1.9,4.8 -5,11.6 -7.1,12.4 C 84.7,79.9 75.5,82.7 71.4,84 67.7,85.2 60,87 60,87 Z"
         id="path817" />
      <path
         style="fill:#99cc33"
         d="m 98,107.9 c 2.5,-17.6 0.6,-27.2 0.3,-31.7 -0.5,-8 -3,-19.4 1.6,-22.3 2.7,-1.7 7.2,-4.3 9.9,-5.1 l 17.5,-0.3 c 0,0 10,5 13.7,8.5 6.1,5.7 0.6,18.4 -3.5,29.9 -6.3,17.8 -3.2,31.6 -3.7,32.5 -0.8,1.6 -30.3,3.4 -37.1,-1.6 -0.8,-0.6 0.7,-6 1.3,-9.9 z"
         id="path819" />
      <path
         style="opacity:0.2"
         d="m 144.9,225.9 c 12.3,-8.2 -0.2,-17 -17.1,-21.3 -7.4,-1.9 -20.2,-11.6 -39.8,-1.1 -15.8,8.5 7.5,12.3 16.4,16.8 10.7,5.5 19,19.9 40.5,5.6 z"
         id="path821" />
      <path
         style="fill:#2d3134"
         d="m 110.5,194.5 -10.4,1.2 c 0,0 -0.2,1.8 -2.1,3.8 -1.9,2 -10.1,6.4 -11.7,7.6 -2.8,2.1 -0.9,5 1.5,5.3 2.6,0.4 6.1,-0.4 10.5,-2 3.4,-1.2 7.4,-2.3 11.3,-3.6 3.3,-1.1 2.5,-5.9 2,-8 -0.6,-2 -1.1,-4.3 -1.1,-4.3 z"
         id="path823" />
      <path
         style="opacity:0.4"
         d="m 87.8,210.9 c 2.7,0.4 6.5,-0.5 11.2,-2.2 3.7,-1.3 7.9,-2.5 12,-3.9 0.3,-0.1 0.5,-0.2 0.7,-0.3 -0.3,1 -1,1.9 -2.2,2.3 -3.8,1.3 -7.8,2.4 -11.3,3.6 -4.4,1.6 -7.9,2.4 -10.5,2 -1.8,-0.3 -3.2,-1.9 -2.8,-3.5 0.6,1 1.7,1.8 2.9,2 z"
         id="path825" />
      <path
         style="fill:#06547a"
         d="m 100.3,95.6 c 0,0 -6.1,23.2 -5.7,34.4 0.4,11.2 2.4,23.6 2.9,33 0.5,9.4 0.4,30.7 -0.1,34.9 -0.6,4.8 1.8,5.1 4.8,5.2 3.1,0.1 9.1,-0.9 10.1,-1.9 1,-1 0.9,-8.7 0.9,-14.3 0,-5.6 0.5,-14 0.1,-21.9 -0.3,-6.8 2.2,-16.2 3.6,-21.4 1.4,-5.2 7.4,-22.6 7.8,-27.4 0.4,-4.8 0.1,-15.2 0.1,-15.2 z"
         id="path827" />
      <path
         style="opacity:0.2"
         d="m 100.3,95.6 c 0,0 -6.1,23.2 -5.7,34.4 0.4,11.2 2.4,23.6 2.9,33 0.5,9.4 0.4,30.7 -0.1,34.9 -0.6,4.8 1.8,5.1 4.8,5.2 3.1,0.1 9.1,-0.9 10.1,-1.9 1,-1 0.9,-8.7 0.9,-14.3 0,-5.6 0.5,-14 0.1,-21.9 -0.3,-6.8 2.2,-16.2 3.6,-21.4 1.4,-5.2 7.4,-22.6 7.8,-27.4 0.4,-4.8 0.1,-15.2 0.1,-15.2 z"
         id="path829" />
      <path
         style="fill:#2d3134"
         d="m 146.6,210.3 c -0.2,0.1 -10.6,2.2 -10.6,2.2 0,0 -2.7,6 -5.3,8.1 -2.1,1.8 -8,5.7 -7.7,7.9 0.3,2.2 6.3,4 11.9,1.1 2.6,-1.3 12.9,-6.6 13.4,-10.1 0.6,-3.9 -1.7,-9.2 -1.7,-9.2 z"
         id="path831" />
      <path
         style="opacity:0.4"
         d="m 134.9,227.9 c 2.6,-1.3 12.9,-6.6 13.4,-10.1 0,-0.2 0,-0.3 0.1,-0.5 0.1,0.8 0.1,1.6 -0.1,2.3 -0.5,3.5 -10.8,8.8 -13.4,10.1 -5.6,2.9 -11.6,1.1 -11.9,-1.1 0,-0.3 0.1,-0.7 0.3,-1.2 1.2,1.9 6.6,3.1 11.6,0.5 z"
         id="path833" />
      <g
         style="fill:#06547a"
         id="g841">
        <path
           d="m 102.2,69.8 c -0.2,1.6 -0.3,12.7 -4,34.3 0.1,1 9.9,6.5 10.1,7.8 1.2,8 6.3,33.3 8.1,34.4 3.7,12.1 6.5,19.8 8.3,26.8 1.8,7 5.9,23.7 7,32 0.4,3.2 1,12 1.7,12.9 3.3,4.1 11.3,2 12.9,0.6 1.7,-1.6 2.6,-2.4 2.2,-5.5 -0.4,-3.1 -1.7,-21.3 -2.7,-27.8 -1.7,-10.7 -5,-15 -6.1,-20.1 -1.1,-5.1 1.1,-24.1 -2.3,-42 -3.4,-17.9 -8.1,-51.4 -8.1,-51.4 z"
           id="path835" />
        <path
           d="m 135.4,53 c 0,0 -4.3,3.7 -6.4,11.4 -1.7,5.9 -1.7,10.6 -2.2,10.7 -0.5,0.1 -4.3,0 -4.3,0 0,0 0.1,-7.5 3.3,-15.6 1.9,-4.8 5.9,-8.9 5.9,-8.9 z"
           id="path837" />
        <path
           d="m 104.5,50.3 c 0,0 -1.1,5.7 -1.4,12.7 -0.3,5.3 -0.3,8 -0.3,8 l 3.8,0.6 c 0,0 -0.3,-2.3 0.1,-9.9 0.5,-8.7 1,-12.9 1,-12.9 z"
           id="path839" />
      </g>
      <path
         style="fill:#fbd7c7"
         d="m 126.6,48.3 c 0,0 -2.6,-1.1 -2.7,-2.9 -0.2,-1.9 5.6,-9.2 0.8,-16 -4.8,-6.8 -16.9,-5.5 -19,1.2 -2.1,6.7 -2.3,19.6 -0.7,21 2,1.7 5.6,1 5.6,1 0,0 1.2,3.1 0.9,4.9 -0.4,2.5 1.9,2.7 3.2,2.7 1.7,-0.1 9.4,-4.9 11.9,-11.9 z"
         id="path843" />
      <path
         style="fill:#762c07"
         d="m 124.6,43.7 -1.5,0.9 c 0,0 3.9,-5.4 1.3,-6.5 -2.6,-1.1 -3.9,2.2 -3.9,2.2 0,0 -1.9,-3.4 -5,-3.7 -3.1,-0.3 -11.4,-2.2 -11.1,-4.8 0.1,-1 3.4,-10 13.2,-8.3 9.9,1.7 10.2,9.9 9.6,13.2 -0.6,3.3 -2.6,7 -2.6,7 z"
         id="path845" />
      <path
         style="fill:#ffcc00"
         d="m 100.9,34.5 c 0,0 -2.8,1.2 -2.8,2.1 0,0.9 8.3,4.5 14,3.9 5.7,-0.6 16.1,-3.5 16.7,-5 0.6,-1.5 -0.7,-16.2 -12.7,-16.2 -14,0 -15.2,15.2 -15.2,15.2 z"
         id="path847" />
      <path
         style="opacity:0.2"
         d="m 98.1,36.6 c 0,0.9 8.3,4.5 14,3.9 4.6,-0.5 12.1,-2.4 15.2,-4 -3.1,1.1 -7.3,2.2 -10.4,2.1 -5.4,-0.2 -14.2,-2.8 -16.1,-4.1 0.1,0.1 -2.7,1.3 -2.7,2.1 z"
         id="path849" />
      <path
         style="opacity:0.2"
         d="m 102.4,32.8 1.2,0.4 c 0.6,-3.6 3.3,-13.3 13.8,-13.3 0.6,0 1.2,0.1 1.8,0.1 -0.9,-0.3 -1.9,-0.4 -3,-0.4 -10.4,0 -13.1,9.5 -13.8,13.2 z"
         id="path851" />
      <path
         style="opacity:0.2"
         d="m 106.8,34.3 c 0.3,-2.6 2,-13.8 11.2,-13.8 0.5,0 1,0.1 1.4,0.1 -0.7,-0.3 -1.5,-0.4 -2.4,-0.4 -9.1,0 -11.2,10.9 -11.5,13.6 z"
         id="path853" />
      <path
         style="fill:#fbd7c7"
         d="m 136.9,125.5 c 0,0 0.2,7.9 0,10.5 -0.2,2.7 -1.2,6.3 -2.1,7.1 -1.6,1.6 -4.7,2.9 -6.8,2.4 -2.1,-0.4 -2.2,-2.5 -2.2,-3.3 0,-0.8 0.3,-7.9 0.3,-7.9 0,0 -1.1,0.1 -1.3,1.1 -0.2,1 0.7,2.3 -0.3,3 -1,0.7 -1.8,-1.6 -2,-2.9 -0.2,-1.2 0.4,-3.4 1,-4.1 0.5,-0.7 1.2,-1.7 2.4,-2.8 1.2,-1.1 3.8,-4.1 3.8,-4.1 z"
         id="path855" />
      <path
         style="fill:#99cc33"
         d="m 135.8,56.2 c -4.7,1.1 -7.7,7 -6.1,13.9 1.6,6.9 3.7,13.1 4.8,15.9 1.1,2.8 2.2,8 2.2,8 0,0 -1.6,4.7 -3.4,11.3 -1.8,6.7 -5.5,19.2 -5,20.3 0.6,1.1 8.2,2.6 9.3,2.5 1.1,-0.1 3.8,-10.1 5.5,-15.7 1.7,-5.6 5.2,-14.8 4.9,-18.4 -0.3,-3.6 -2.8,-22.2 -3.1,-25.9 -0.6,-6.5 -3.7,-13.2 -9.1,-11.9 z"
         id="path857" />
    </g>
    <g
       transform="matrix(0.26458333,0,0,0.26458333,114.83908,111.0841)"
       id="g923">
      <path
         style="fill:#825012"
         d="m 20,63 c -5.5,0 -10,2.2 -10,5 v 2 c 0,2.8 4.5,5 10,5 5.5,0 10,-2.2 10,-5 v -2 c 0,-2.8 -4.5,-5 -10,-5 z"
         id="path891" />
      <path
         style="opacity:0.2"
         d="M 20,73 C 14.5,73 10,70.8 10,68 v 2 c 0,2.8 4.5,5 10,5 5.5,0 10,-2.2 10,-5 v -2 c 0,2.8 -4.5,5 -10,5 z"
         id="path893" />
      <path
         style="fill:#825012"
         d="m 20,47 c -1.1,0 -2,0.4 -2,1 v 20.1 c 0,0.6 0.9,1 2,1 1.1,0 2,-0.4 2,-1 V 48 c 0,-0.6 -0.9,-1 -2,-1 z"
         id="path895" />
      <path
         style="opacity:0.2"
         d="m 20,49 c -1.1,0 -2,-0.4 -2,-1 v 20.1 c 0,0.6 0.9,1 2,1 1.1,0 2,-0.4 2,-1 V 48 c 0,0.6 -0.9,1 -2,1 z"
         id="path897" />
      <path
         style="fill:#f8ebcb"
         d="m 20,34 c 8.3,0 15,3.4 15,7.5 L 32,21 C 32,17.7 26.6,15 20,15 13.4,15 8,17.7 8,21 L 5,41.5 C 5,37.4 11.7,34 20,34 Z"
         id="path899" />
      <path
         style="fill:#ffcc00"
         d="m 25,26 c 0,-3.1 -2.8,-5.6 -6.1,-4.9 -2,0.4 -3.5,2 -3.9,4 -0.2,1.5 0.2,2.9 1,3.9 0.8,1.1 1.3,2.4 1.5,3.8 l 0.5,3.2 2,1 2,-1 0.4,-3 c 0.2,-1.4 0.7,-2.8 1.6,-4 0.6,-0.8 1,-1.9 1,-3 z"
         id="path901" />
      <path
         style="fill:#f8ebcb"
         d="M 20,27 C 13.4,27 8,24.3 8,21 L 5,41.5 c 0,4.1 6.7,7.5 15,7.5 8.3,0 15,-3.4 15,-7.5 L 32,21 c 0,3.3 -5.4,6 -12,6 z"
         id="path903" />
      <path
         style="opacity:0.2"
         d="M 20,27 C 13.4,27 8,24.3 8,21 L 5,41.5 c 0,4.1 6.7,7.5 15,7.5 8.3,0 15,-3.4 15,-7.5 L 32,21 c 0,3.3 -5.4,6 -12,6 z"
         id="path905" />
    </g>
  </g>
  <path
     style="fill:#000000;fill-opacity:1;fill-rule:nonzero;stroke:none;stroke-width:0.264583"
     id="path1"
     d="m 60.875291,29.043894 c 0.448616,-0.01994 0.879014,-0.153753 1.299852,-0.300233 0.551262,-0.21664 1.056982,-0.541851 1.488337,-0.948035 0.08695,-0.08188 0.166881,-0.170904 0.25032,-0.256356 0.29001,-0.329911 0.566497,-0.681395 0.750112,-1.083679 0.113551,-0.24878 0.131048,-0.347189 0.204139,-0.605814 0.03728,-0.209399 0.0849,-0.395371 0.06315,-0.611331 -0.0347,-0.344587 -0.181984,-0.702223 -0.399796,-0.971877 -0.084,-0.103992 -0.187143,-0.190939 -0.280715,-0.286408 -0.110242,-0.07997 -0.216279,-0.166083 -0.330727,-0.239906 -0.239874,-0.154724 -0.473869,-0.264672 -0.735317,-0.378111 -0.23428,-0.101653 -0.522515,-0.213469 -0.768149,-0.282999 -0.142642,-0.04038 -0.288512,-0.06834 -0.432768,-0.102505 -0.710028,-0.123809 -1.438201,-0.120735 -2.150774,-0.01716 -0.129291,0.01879 -0.257355,0.04523 -0.386032,0.06785 -0.613175,0.133878 -1.208099,0.354111 -1.736284,0.697477 -0.105494,0.06858 -0.204642,0.146463 -0.306964,0.219695 -0.46677,0.370282 -0.859816,0.828924 -1.162957,1.341711 -0.05271,0.08916 -0.09888,0.182024 -0.14832,0.273036 -0.173911,0.387292 -0.277731,0.799651 -0.143677,1.217974 0.08712,0.271857 0.181448,0.35595 0.351054,0.578619 0.532196,0.527791 1.222127,0.819707 1.914769,1.072142 0.681212,0.229457 1.38349,0.386249 2.08839,0.522146 0.627989,0.119836 1.262658,0.196487 1.898365,0.26057 0.682368,0.06653 1.367226,0.101116 2.052028,0.130275 0.858219,0.03077 1.716784,0.0493 2.575132,0.07599 0.903962,0.02712 1.807437,0.06876 2.710868,0.109568 0.785317,0.03919 1.569921,0.08974 2.354061,0.147601 0.65487,0.04814 1.309886,0.09214 1.963933,0.150591 0.542018,0.05325 1.0843,0.103471 1.627175,0.147151 0.395411,0.02648 0.789974,0.06294 1.183708,0.107748 0.298477,0.03785 0.598279,0.06405 0.897017,0.09935 0.282623,0.03582 0.565912,0.06597 0.849559,0.09237 0.256061,0.02308 0.512691,0.03876 0.76913,0.05686 0.305613,0.01562 0.610122,0.04587 0.91508,0.07044 0.438108,0.03276 0.876422,0.06252 1.314569,0.09477 0.620996,0.04584 1.241748,0.0943 1.863133,0.134789 0.372186,0.02401 0.744609,0.04405 1.117055,0.06358 0.6214,0.03257 0.667464,-0.846221 0.04606,-0.878793 v 0 c -0.368729,-0.01932 -0.737437,-0.03916 -1.105911,-0.06292 -0.618929,-0.04031 -1.237218,-0.08864 -1.855761,-0.134277 -0.436134,-0.03209 -0.872432,-0.06175 -1.308529,-0.0943 -0.307845,-0.02477 -0.615249,-0.05527 -0.923748,-0.07109 -0.249938,-0.01764 -0.500062,-0.03292 -0.749641,-0.05527 -0.276563,-0.02568 -0.552759,-0.0552 -0.82832,-0.09013 -0.2999,-0.03506 -0.600731,-0.06208 -0.900361,-0.09973 -0.403326,-0.04574 -0.807456,-0.08344 -1.212483,-0.110539 -0.540292,-0.04345 -1.079976,-0.09356 -1.619419,-0.146493 -0.658569,-0.05883 -1.318104,-0.1033 -1.977504,-0.151698 -0.79248,-0.05846 -1.585428,-0.10954 -2.379099,-0.14909 -0.90755,-0.04099 -1.815144,-0.08279 -2.723229,-0.110039 -0.854996,-0.02658 -1.710206,-0.04509 -2.565074,-0.07562 -0.667851,-0.02839 -1.335771,-0.06193 -2.001261,-0.126642 -0.609497,-0.06131 -1.218033,-0.134398 -1.820153,-0.249125 -0.659509,-0.126816 -1.316654,-0.272655 -1.954599,-0.48524 -0.542825,-0.19601 -1.086337,-0.415198 -1.529218,-0.796448 -0.06768,-0.07529 -0.20407,-0.21742 -0.222827,-0.326093 -0.02962,-0.171635 0.04764,-0.346137 0.104492,-0.501683 0.0389,-0.073 0.07507,-0.14752 0.116692,-0.219003 0.243568,-0.418327 0.559422,-0.795132 0.935554,-1.100001 0.07958,-0.05834 0.156437,-0.120593 0.238749,-0.175017 0.437962,-0.289585 0.932479,-0.47447 1.44277,-0.588769 0.111705,-0.02011 0.222856,-0.04359 0.335116,-0.06033 0.61168,-0.09122 1.237451,-0.09877 1.848422,3.71e-4 0.118366,0.02688 0.238122,0.04825 0.355102,0.08065 0.224719,0.06224 0.464463,0.15641 0.678474,0.247709 0.287512,0.122657 0.569021,0.260426 0.819679,0.449422 0.05366,0.04746 0.112948,0.08923 0.160973,0.142381 0.09437,0.104451 0.14565,0.21291 0.201877,0.339494 0.01886,0.04249 0.04303,0.08408 0.05075,0.129934 0.02215,0.131394 -0.01114,0.264383 -0.03157,0.392329 -0.0466,0.174611 -0.06467,0.268585 -0.137229,0.435124 -0.142486,0.327016 -0.370792,0.60817 -0.601091,0.876465 -0.06529,0.06823 -0.127622,0.139401 -0.195852,0.204681 -0.347634,0.332596 -0.755703,0.601675 -1.201846,0.781336 -0.3273,0.116 -0.660152,0.222578 -1.008446,0.250584 -0.622255,0 -0.622255,0.88 0,0.88 z" />
  <path
     style="fill:#000000;fill-opacity:1;fill-rule:nonzero;stroke:none;stroke-width:0.264583"
     id="path2"
     d="m 86.200056,27.438438 c -0.195284,0.178508 -0.383368,0.364972 -0.570426,0.552096 -0.256741,0.261662 -0.515988,0.523443 -0.742362,0.812528 -0.05031,0.06425 -0.09751,0.130864 -0.146265,0.196296 -0.239855,0.34069 -0.436927,0.710413 -0.558911,1.109944 -0.02522,0.08259 -0.04401,0.167 -0.06601,0.2505 -0.09461,0.442997 -0.09475,0.901243 0.01021,1.342583 0.02233,0.09392 0.05301,0.185661 0.07951,0.27849 0.127506,0.372817 0.299842,0.734637 0.528344,1.056963 0.166095,0.234294 0.22969,0.288401 0.425228,0.498126 0.323845,0.301836 0.676375,0.58261 1.068906,0.791146 0.253254,0.134544 0.381127,0.17507 0.645665,0.277244 0.54075,0.195699 1.115142,0.258606 1.686502,0.201385 0.112755,-0.0113 0.224446,-0.03145 0.336667,-0.04717 0.498072,-0.09168 0.987112,-0.244978 1.440852,-0.471787 0.08544,-0.04271 0.167976,-0.091 0.251962,-0.136506 0.402646,-0.235961 0.758309,-0.542234 1.062853,-0.89513 0.05928,-0.0687 0.114345,-0.140925 0.171518,-0.211387 0.219107,-0.292909 0.404784,-0.61137 0.533049,-0.954743 0.08349,-0.22352 0.09867,-0.310118 0.156323,-0.539203 0.09226,-0.440687 0.105844,-0.89638 0.04361,-1.342404 -0.01238,-0.08866 -0.03104,-0.176327 -0.04656,-0.264491 -0.100039,-0.426629 -0.242814,-0.846514 -0.462548,-1.227417 -0.04462,-0.07735 -0.09514,-0.151143 -0.142713,-0.226715 -0.249709,-0.365002 -0.564354,-0.685773 -0.931146,-0.934145 -0.07603,-0.05149 -0.15613,-0.0967 -0.234196,-0.145044 -0.453337,-0.258557 -0.950081,-0.422698 -1.448898,-0.567694 -0.348596,-0.09256 -0.699934,-0.184945 -1.059529,-0.223429 -0.06685,-0.0072 -0.134064,-0.01044 -0.201096,-0.01567 -0.378683,-0.02745 -0.744472,0.06569 -1.098588,0.189076 -0.265451,0.10688 -0.512103,0.252881 -0.749553,0.411222 -0.516962,0.34634 -0.02716,1.077434 0.489799,0.731094 v 0 c 0.175649,-0.118404 0.358306,-0.226995 0.552511,-0.31244 0.238363,-0.08554 0.484632,-0.157214 0.740762,-0.141361 0.367522,0.0254 0.726508,0.106716 1.080629,0.206691 0.423802,0.122544 0.847027,0.258569 1.234686,0.473149 0.05798,0.03489 0.11743,0.06745 0.173937,0.104671 0.278456,0.183431 0.517957,0.423597 0.708356,0.696477 0.03592,0.05557 0.07416,0.1097 0.107754,0.166702 0.17721,0.300675 0.290029,0.633871 0.373833,0.971177 0.01249,0.06695 0.02749,0.133472 0.03745,0.200839 0.0509,0.344174 0.04505,0.696879 -0.02267,1.038094 -0.04066,0.167529 -0.0558,0.249869 -0.114268,0.411911 -0.0962,0.266607 -0.238551,0.513421 -0.405974,0.741283 -0.04539,0.05673 -0.08898,0.114951 -0.136162,0.170204 -0.239607,0.280617 -0.517343,0.527267 -0.835002,0.716375 -0.06648,0.03669 -0.13173,0.07571 -0.19945,0.110061 -0.376442,0.190969 -0.783252,0.320064 -1.196999,0.399527 -0.226719,0.03378 -0.307174,0.05272 -0.536125,0.05935 -0.356762,0.01032 -0.711047,-0.04337 -1.047031,-0.164423 -0.189182,-0.07159 -0.331845,-0.119073 -0.511302,-0.212267 -0.321564,-0.166995 -0.609414,-0.395918 -0.87717,-0.637567 -0.14105,-0.147838 -0.206441,-0.206105 -0.32561,-0.370652 -0.182242,-0.25164 -0.320177,-0.535741 -0.423828,-0.82763 -0.04809,-0.160073 -0.07626,-0.233235 -0.101949,-0.39674 -0.03951,-0.251505 -0.02939,-0.509328 0.01968,-0.758498 0.01503,-0.06036 0.02734,-0.121454 0.04506,-0.181075 0.09364,-0.315043 0.246176,-0.605885 0.434427,-0.874446 0.242147,-0.328287 0.513495,-0.625057 0.804233,-0.910967 0.161298,-0.161391 0.325609,-0.319698 0.488293,-0.479574 0.491176,-0.382027 -0.04909,-1.076657 -0.540268,-0.694629 z" />
  <path
     style="fill:#000000;fill-opacity:1;fill-rule:nonzero;stroke:none;stroke-width:0.264583"
     id="path3"
     d="m 57.799205,24.018112 c 1.4e-4,0.231893 0.02061,0.462782 0.101317,0.682639 0.03524,0.09601 0.08512,0.186 0.12768,0.279 0.26702,0.465452 0.582761,0.765034 1.074497,0.992475 0.138244,0.06394 0.279823,0.124213 0.427593,0.16114 0.192296,0.04805 0.391591,0.06166 0.587385,0.09249 0.226396,-2.07e-4 0.453232,0.01343 0.679191,-6.08e-4 0.535882,-0.03332 1.112864,-0.139382 1.632588,-0.262091 0.698053,-0.164814 1.229,-0.337355 1.91072,-0.574945 0.335886,-0.11706 0.667951,-0.244807 1.001924,-0.367211 1.730211,-0.656391 3.418737,-1.414657 5.111261,-2.161004 0.833045,-0.364432 0.425907,-0.18728 1.221324,-0.531678 0.571024,-0.247245 0.221366,-1.054797 -0.349657,-0.807552 v 0 c -0.799251,0.346067 -0.390308,0.168127 -1.226728,0.53404 -1.675402,0.738796 -3.346735,1.489635 -5.059198,2.140003 -0.923859,0.339042 -1.825032,0.676265 -2.784475,0.905888 -0.472123,0.112994 -0.978527,0.207823 -1.464765,0.244578 -0.182724,0.01381 -0.366437,0.0061 -0.549656,0.0092 -0.135721,-0.01578 -0.273704,-0.01805 -0.407162,-0.04735 -0.109305,-0.024 -0.213294,-0.06864 -0.316646,-0.111553 -0.314063,-0.130399 -0.520308,-0.306136 -0.69475,-0.596365 -0.04879,-0.09365 -0.09457,-0.164525 -0.119058,-0.2665 -0.0245,-0.102063 -0.01781,-0.210551 -0.02339,-0.314554 0,-0.622254 -0.879999,-0.622254 -0.879999,0 z" />
  <path
     style="fill:#000000;fill-opacity:1;fill-rule:nonzero;stroke:none;stroke-width:0.264583"
     id="path4"
     d="m 92.271884,31.374016 c 0.610547,0.0127 1.220956,0.03116 1.831493,0.04498 1.273262,0.02614 2.546792,0.03658 3.820254,0.04756 1.17556,0.0046 2.350979,0.0222 3.526149,0.05255 0.72548,0.02048 1.45086,0.04415 2.17628,0.06632 0.55883,0.0177 1.11784,0.02829 1.67687,0.03662 0.63843,0.0089 1.27684,0.0089 1.91498,0.03157 0.0981,0.0042 0.19625,0.0083 0.29438,0.01243 0.6217,0.02627 0.65885,-0.852948 0.0371,-0.879216 v 0 c -0.10014,-0.0042 -0.20028,-0.0085 -0.30042,-0.01267 -0.64414,-0.02271 -1.28854,-0.02331 -1.93298,-0.03202 -0.55444,-0.0083 -1.10886,-0.01874 -1.6631,-0.03631 -0.72681,-0.02221 -1.45358,-0.04594 -2.18045,-0.06644 -1.18021,-0.03045 -2.360669,-0.04816 -3.541269,-0.05282 -1.26936,-0.01094 -2.538783,-0.02135 -3.807942,-0.04737 -0.617167,-0.01396 -1.234202,-0.03289 -1.851395,-0.0452 -0.622255,0 -0.622255,0.88 0,0.88 z" />
  <path
     style="fill:#000000;fill-opacity:1;fill-rule:nonzero;stroke:none;stroke-width:0.264583"
     id="path5"
     d="m 101.61439,22.968578 c 0.0141,0.03333 0.0263,0.06756 0.0424,0.09999 0.27543,0.555379 0.63617,1.067636 0.97666,1.583605 0.59541,0.903125 1.21244,1.791697 1.82583,2.682638 0.53464,0.794189 1.08152,1.580132 1.6123,2.37691 0.4357,0.658672 0.87592,1.314284 1.29802,1.981801 0.33723,0.520102 0.65405,1.052918 0.98132,1.579214 0.26149,0.41707 0.53473,0.826502 0.81218,1.233066 0.20938,0.308055 0.43626,0.603483 0.65879,0.901975 0.18088,0.250937 0.35679,0.505389 0.53726,0.756635 0.17405,0.241009 0.34703,0.482711 0.51747,0.726276 0.16251,0.226189 0.32047,0.455575 0.47445,0.687646 0.14099,0.22283 0.29033,0.44019 0.43631,0.659747 0.12839,0.195712 0.25242,0.394435 0.3705,0.596553 0.0838,0.136779 0.16111,0.277347 0.23819,0.417992 0.29916,0.545618 1.07078,0.122536 0.77162,-0.423085 v 0 c -0.0811,-0.147754 -0.16229,-0.29546 -0.25024,-0.439261 -0.12682,-0.216522 -0.25941,-0.429766 -0.39727,-0.639429 -0.14585,-0.219364 -0.29506,-0.43652 -0.43592,-0.659159 -0.15805,-0.238038 -0.31991,-0.473515 -0.48665,-0.705557 -0.17252,-0.246525 -0.34758,-0.491188 -0.52375,-0.735131 -0.18353,-0.255474 -0.36217,-0.514403 -0.54651,-0.769282 -0.21525,-0.288594 -0.43473,-0.574204 -0.63738,-0.871963 -0.27045,-0.39628 -0.53686,-0.795306 -0.7918,-1.201796 -0.32854,-0.52809 -0.64631,-1.062903 -0.98482,-1.584796 -0.4259,-0.673371 -0.86976,-1.334945 -1.30942,-1.999365 -0.53335,-0.800436 -1.08257,-1.590193 -1.61983,-2.388013 -0.61011,-0.886199 -1.22391,-1.770018 -1.81617,-2.66832 -0.31942,-0.483984 -0.64692,-0.963974 -0.91865,-1.477168 -0.19677,-0.590322 -1.03161,-0.312042 -0.83484,0.27828 z" />
  <path
     style="fill:#000000;fill-opacity:1;fill-rule:nonzero;stroke:none;stroke-width:0.264583"
     id="path6"
     d="m 103.76725,30.92133 c 0.0593,-0.238619 0.13793,-0.471315 0.2212,-0.702432 0.16766,-0.452085 0.35811,-0.895213 0.5459,-1.339169 0.1433,-0.336152 0.29091,-0.670431 0.43627,-1.005684 0.0936,-0.221323 0.19086,-0.441099 0.28454,-0.662402 0.0123,-0.02983 0.0246,-0.05965 0.0369,-0.08948 0.23727,-0.575241 -0.57624,-0.910792 -0.81352,-0.335551 v 0 c -0.0113,0.02736 -0.0225,0.05472 -0.0338,0.08207 -0.0926,0.218967 -0.18895,0.436343 -0.28151,0.655337 -0.14636,0.337664 -0.29509,0.674299 -0.43936,1.012876 -0.1941,0.458874 -0.39076,0.916972 -0.56358,1.384431 -0.0983,0.2744 -0.19191,0.550952 -0.2575,0.835339 -0.11643,0.611264 0.74803,0.775922 0.86446,0.16466 z" />
  <path
     style="fill:#000000;fill-opacity:1;fill-rule:nonzero;stroke:none;stroke-width:0.264583"
     id="path7"
     d="m 104.71531,27.322925 c 0.11204,0.0089 0.22298,0.02733 0.33345,0.04748 0.2354,0.04406 0.46909,0.09705 0.70208,0.152334 0.27137,0.06694 0.54137,0.139201 0.80971,0.217401 0.2607,0.0785 0.52124,0.157618 0.78078,0.239923 0.25565,0.07654 0.50692,0.165634 0.75569,0.26195 0.24502,0.09638 0.48964,0.193829 0.73272,0.295011 0.18975,0.07971 0.37248,0.174694 0.55115,0.276539 0.18149,0.106534 0.35366,0.22781 0.52439,0.350559 0.18756,0.135171 0.36991,0.277392 0.5545,0.416564 0.16143,0.122114 0.31748,0.250883 0.47095,0.38278 0.14155,0.120137 0.27638,0.247478 0.40888,0.377403 0.0203,0.02054 0.0406,0.04107 0.0609,0.06162 0.0396,0.04015 0.0778,0.07774 0.11517,0.119863 0.05,0.05641 0.095,0.116903 0.14001,0.177295 0.0893,0.125477 0.16843,0.257893 0.24904,0.389055 0.0747,0.118949 0.13643,0.245189 0.19712,0.371642 0.0589,0.119062 0.0978,0.245382 0.13341,0.372813 0.0448,0.162555 0.0661,0.330084 0.084,0.497335 0.0229,0.19367 0.0286,0.388392 0.0316,0.583165 -9e-5,0.177488 -0.0105,0.354584 -0.0294,0.530995 -0.02,0.159642 -0.0414,0.319083 -0.06,0.478888 -0.0138,0.135091 -0.0297,0.269955 -0.0474,0.40459 -0.0809,0.616977 0.79167,0.731335 0.87253,0.114359 v 0 c 0.0182,-0.13883 0.0347,-0.277882 0.0489,-0.417177 0.0189,-0.162888 0.0412,-0.32535 0.061,-0.488124 0.0221,-0.211831 0.035,-0.424463 0.0342,-0.637553 -0.004,-0.221645 -0.0109,-0.443225 -0.0366,-0.663618 -0.0234,-0.215585 -0.0531,-0.431128 -0.11162,-0.64045 -0.0497,-0.176599 -0.10654,-0.350986 -0.18746,-0.516168 -0.0739,-0.153781 -0.15004,-0.306779 -0.24071,-0.451546 -0.0947,-0.154011 -0.18787,-0.309334 -0.29431,-0.455652 -0.12324,-0.163977 -0.25498,-0.318734 -0.40441,-0.459717 -0.14629,-0.143409 -0.29539,-0.283735 -0.45149,-0.416519 -0.16771,-0.144026 -0.33828,-0.284603 -0.51466,-0.417964 -0.18996,-0.143203 -0.3776,-0.289568 -0.57073,-0.428514 -0.19612,-0.140859 -0.39422,-0.279528 -0.60313,-0.40102 -0.21015,-0.119129 -0.42475,-0.230699 -0.64784,-0.323908 -0.24992,-0.103973 -0.50136,-0.204252 -0.75328,-0.303267 -0.26583,-0.102775 -0.53425,-0.198107 -0.8073,-0.280092 -0.26614,-0.08434 -0.53325,-0.165575 -0.8006,-0.245952 -0.28264,-0.08229 -0.56698,-0.158487 -0.85284,-0.228786 -0.24842,-0.05883 -0.49755,-0.115312 -0.74857,-0.162037 -0.13337,-0.02392 -0.2672,-0.0461 -0.40237,-0.05714 -0.61916,-0.06192 -0.70673,0.813716 -0.0876,0.875633 z" />
</svg>
