<?xml version="1.0" encoding="UTF-8" standalone="no"?>
<svg
   id="svg8"
   version="1.1"
   viewBox="0 0 133.30218 56.288929"
   height="56.288929mm"
   width="133.30219mm"
   sodipodi:docname="38 meli li jo e wan ilo. mije li jo e wan ilo ante..svg"
   inkscape:version="1.3.2 (091e20e, 2023-11-25, custom)"
   xmlns:inkscape="http://www.inkscape.org/namespaces/inkscape"
   xmlns:sodipodi="http://sodipodi.sourceforge.net/DTD/sodipodi-0.dtd"
   xmlns="http://www.w3.org/2000/svg"
   xmlns:svg="http://www.w3.org/2000/svg"
   xmlns:rdf="http://www.w3.org/1999/02/22-rdf-syntax-ns#"
   xmlns:cc="http://creativecommons.org/ns#"
   xmlns:dc="http://purl.org/dc/elements/1.1/">
  <sodipodi:namedview
     id="namedview1"
     pagecolor="#ffffff"
     bordercolor="#000000"
     borderopacity="0.25"
     inkscape:showpageshadow="2"
     inkscape:pageopacity="0.0"
     inkscape:pagecheckerboard="0"
     inkscape:deskcolor="#d1d1d1"
     inkscape:document-units="mm"
     inkscape:zoom="1.9671385"
     inkscape:cx="263.32665"
     inkscape:cy="130.9008"
     inkscape:window-width="1920"
     inkscape:window-height="1051"
     inkscape:window-x="-9"
     inkscape:window-y="-9"
     inkscape:window-maximized="1"
     inkscape:current-layer="svg8" />
  <defs
     id="defs2" />
  <metadata
     id="metadata5">
    <rdf:RDF>
      <cc:Work
         rdf:about="">
        <dc:format>image/svg+xml</dc:format>
        <dc:type
           rdf:resource="http://purl.org/dc/dcmitype/StillImage" />
        <dc:title />
      </cc:Work>
    </rdf:RDF>
  </metadata>
  <g
     transform="translate(-94.740685,-106.2687)"
     id="layer1">
    <g
       transform="matrix(0.26458333,0,0,0.26458333,106.63699,101.16224)"
       id="g889">
      <path
         style="fill:#fbd7c7"
         d="m 60.3,87.6 1.1,8.1 c 0,0 -3.9,1.4 -6.4,1.8 -2.5,0.4 -4.6,0.9 -5.3,1.1 -0.7,0.2 -3.1,1.8 -4.3,1.3 -1.2,-0.5 -3.3,-6.7 -3,-8.2 0.4,-1.8 1.4,-4.3 2.7,-4.8 1.3,-0.5 2.9,-0.6 3.2,-1.4 0.3,-0.8 -0.8,-5.4 -0.1,-6.6 0.7,-1.2 2,-0.9 2.1,-0.1 0.1,0.8 0.6,4.7 3,6.3 2.4,1.6 4.4,1.9 5.2,2.3 0.8,0.4 1.8,0.2 1.8,0.2 z"
         id="path815" />
      <path
         style="fill:#99cc33"
         d="m 60,87 1.3,9.5 c 0,0 4.1,-0.6 10.2,-2.1 6,-1.4 16.5,-3.5 20.8,-5.4 5.4,-2.4 10.9,-10.6 12.4,-14.3 1.5,-3.7 7.6,-28.5 -2.9,-23.1 -6.2,3.2 -6,10.3 -7.9,15.1 -1.9,4.8 -5,11.6 -7.1,12.4 C 84.7,79.9 75.5,82.7 71.4,84 67.7,85.2 60,87 60,87 Z"
         id="path817" />
      <path
         style="fill:#99cc33"
         d="m 98,107.9 c 2.5,-17.6 0.6,-27.2 0.3,-31.7 -0.5,-8 -3,-19.4 1.6,-22.3 2.7,-1.7 7.2,-4.3 9.9,-5.1 l 17.5,-0.3 c 0,0 10,5 13.7,8.5 6.1,5.7 0.6,18.4 -3.5,29.9 -6.3,17.8 -3.2,31.6 -3.7,32.5 -0.8,1.6 -30.3,3.4 -37.1,-1.6 -0.8,-0.6 0.7,-6 1.3,-9.9 z"
         id="path819" />
      <path
         style="opacity:0.2"
         d="m 144.9,225.9 c 12.3,-8.2 -0.2,-17 -17.1,-21.3 -7.4,-1.9 -20.2,-11.6 -39.8,-1.1 -15.8,8.5 7.5,12.3 16.4,16.8 10.7,5.5 19,19.9 40.5,5.6 z"
         id="path821" />
      <path
         style="fill:#2d3134"
         d="m 110.5,194.5 -10.4,1.2 c 0,0 -0.2,1.8 -2.1,3.8 -1.9,2 -10.1,6.4 -11.7,7.6 -2.8,2.1 -0.9,5 1.5,5.3 2.6,0.4 6.1,-0.4 10.5,-2 3.4,-1.2 7.4,-2.3 11.3,-3.6 3.3,-1.1 2.5,-5.9 2,-8 -0.6,-2 -1.1,-4.3 -1.1,-4.3 z"
         id="path823" />
      <path
         style="opacity:0.4"
         d="m 87.8,210.9 c 2.7,0.4 6.5,-0.5 11.2,-2.2 3.7,-1.3 7.9,-2.5 12,-3.9 0.3,-0.1 0.5,-0.2 0.7,-0.3 -0.3,1 -1,1.9 -2.2,2.3 -3.8,1.3 -7.8,2.4 -11.3,3.6 -4.4,1.6 -7.9,2.4 -10.5,2 -1.8,-0.3 -3.2,-1.9 -2.8,-3.5 0.6,1 1.7,1.8 2.9,2 z"
         id="path825" />
      <path
         style="fill:#06547a"
         d="m 100.3,95.6 c 0,0 -6.1,23.2 -5.7,34.4 0.4,11.2 2.4,23.6 2.9,33 0.5,9.4 0.4,30.7 -0.1,34.9 -0.6,4.8 1.8,5.1 4.8,5.2 3.1,0.1 9.1,-0.9 10.1,-1.9 1,-1 0.9,-8.7 0.9,-14.3 0,-5.6 0.5,-14 0.1,-21.9 -0.3,-6.8 2.2,-16.2 3.6,-21.4 1.4,-5.2 7.4,-22.6 7.8,-27.4 0.4,-4.8 0.1,-15.2 0.1,-15.2 z"
         id="path827" />
      <path
         style="opacity:0.2"
         d="m 100.3,95.6 c 0,0 -6.1,23.2 -5.7,34.4 0.4,11.2 2.4,23.6 2.9,33 0.5,9.4 0.4,30.7 -0.1,34.9 -0.6,4.8 1.8,5.1 4.8,5.2 3.1,0.1 9.1,-0.9 10.1,-1.9 1,-1 0.9,-8.7 0.9,-14.3 0,-5.6 0.5,-14 0.1,-21.9 -0.3,-6.8 2.2,-16.2 3.6,-21.4 1.4,-5.2 7.4,-22.6 7.8,-27.4 0.4,-4.8 0.1,-15.2 0.1,-15.2 z"
         id="path829" />
      <path
         style="fill:#2d3134"
         d="m 146.6,210.3 c -0.2,0.1 -10.6,2.2 -10.6,2.2 0,0 -2.7,6 -5.3,8.1 -2.1,1.8 -8,5.7 -7.7,7.9 0.3,2.2 6.3,4 11.9,1.1 2.6,-1.3 12.9,-6.6 13.4,-10.1 0.6,-3.9 -1.7,-9.2 -1.7,-9.2 z"
         id="path831" />
      <path
         style="opacity:0.4"
         d="m 134.9,227.9 c 2.6,-1.3 12.9,-6.6 13.4,-10.1 0,-0.2 0,-0.3 0.1,-0.5 0.1,0.8 0.1,1.6 -0.1,2.3 -0.5,3.5 -10.8,8.8 -13.4,10.1 -5.6,2.9 -11.6,1.1 -11.9,-1.1 0,-0.3 0.1,-0.7 0.3,-1.2 1.2,1.9 6.6,3.1 11.6,0.5 z"
         id="path833" />
      <g
         style="fill:#06547a"
         id="g841">
        <path
           d="m 102.2,69.8 c -0.2,1.6 -0.3,12.7 -4,34.3 0.1,1 9.9,6.5 10.1,7.8 1.2,8 6.3,33.3 8.1,34.4 3.7,12.1 6.5,19.8 8.3,26.8 1.8,7 5.9,23.7 7,32 0.4,3.2 1,12 1.7,12.9 3.3,4.1 11.3,2 12.9,0.6 1.7,-1.6 2.6,-2.4 2.2,-5.5 -0.4,-3.1 -1.7,-21.3 -2.7,-27.8 -1.7,-10.7 -5,-15 -6.1,-20.1 -1.1,-5.1 1.1,-24.1 -2.3,-42 -3.4,-17.9 -8.1,-51.4 -8.1,-51.4 z"
           id="path835" />
        <path
           d="m 135.4,53 c 0,0 -4.3,3.7 -6.4,11.4 -1.7,5.9 -1.7,10.6 -2.2,10.7 -0.5,0.1 -4.3,0 -4.3,0 0,0 0.1,-7.5 3.3,-15.6 1.9,-4.8 5.9,-8.9 5.9,-8.9 z"
           id="path837" />
        <path
           d="m 104.5,50.3 c 0,0 -1.1,5.7 -1.4,12.7 -0.3,5.3 -0.3,8 -0.3,8 l 3.8,0.6 c 0,0 -0.3,-2.3 0.1,-9.9 0.5,-8.7 1,-12.9 1,-12.9 z"
           id="path839" />
      </g>
      <path
         style="fill:#fbd7c7"
         d="m 126.6,48.3 c 0,0 -2.6,-1.1 -2.7,-2.9 -0.2,-1.9 5.6,-9.2 0.8,-16 -4.8,-6.8 -16.9,-5.5 -19,1.2 -2.1,6.7 -2.3,19.6 -0.7,21 2,1.7 5.6,1 5.6,1 0,0 1.2,3.1 0.9,4.9 -0.4,2.5 1.9,2.7 3.2,2.7 1.7,-0.1 9.4,-4.9 11.9,-11.9 z"
         id="path843" />
      <path
         style="fill:#762c07"
         d="m 124.6,43.7 -1.5,0.9 c 0,0 3.9,-5.4 1.3,-6.5 -2.6,-1.1 -3.9,2.2 -3.9,2.2 0,0 -1.9,-3.4 -5,-3.7 -3.1,-0.3 -11.4,-2.2 -11.1,-4.8 0.1,-1 3.4,-10 13.2,-8.3 9.9,1.7 10.2,9.9 9.6,13.2 -0.6,3.3 -2.6,7 -2.6,7 z"
         id="path845" />
      <path
         style="fill:#ffcc00"
         d="m 100.9,34.5 c 0,0 -2.8,1.2 -2.8,2.1 0,0.9 8.3,4.5 14,3.9 5.7,-0.6 16.1,-3.5 16.7,-5 0.6,-1.5 -0.7,-16.2 -12.7,-16.2 -14,0 -15.2,15.2 -15.2,15.2 z"
         id="path847" />
      <path
         style="opacity:0.2"
         d="m 98.1,36.6 c 0,0.9 8.3,4.5 14,3.9 4.6,-0.5 12.1,-2.4 15.2,-4 -3.1,1.1 -7.3,2.2 -10.4,2.1 -5.4,-0.2 -14.2,-2.8 -16.1,-4.1 0.1,0.1 -2.7,1.3 -2.7,2.1 z"
         id="path849" />
      <path
         style="opacity:0.2"
         d="m 102.4,32.8 1.2,0.4 c 0.6,-3.6 3.3,-13.3 13.8,-13.3 0.6,0 1.2,0.1 1.8,0.1 -0.9,-0.3 -1.9,-0.4 -3,-0.4 -10.4,0 -13.1,9.5 -13.8,13.2 z"
         id="path851" />
      <path
         style="opacity:0.2"
         d="m 106.8,34.3 c 0.3,-2.6 2,-13.8 11.2,-13.8 0.5,0 1,0.1 1.4,0.1 -0.7,-0.3 -1.5,-0.4 -2.4,-0.4 -9.1,0 -11.2,10.9 -11.5,13.6 z"
         id="path853" />
      <path
         style="fill:#fbd7c7"
         d="m 136.9,125.5 c 0,0 0.2,7.9 0,10.5 -0.2,2.7 -1.2,6.3 -2.1,7.1 -1.6,1.6 -4.7,2.9 -6.8,2.4 -2.1,-0.4 -2.2,-2.5 -2.2,-3.3 0,-0.8 0.3,-7.9 0.3,-7.9 0,0 -1.1,0.1 -1.3,1.1 -0.2,1 0.7,2.3 -0.3,3 -1,0.7 -1.8,-1.6 -2,-2.9 -0.2,-1.2 0.4,-3.4 1,-4.1 0.5,-0.7 1.2,-1.7 2.4,-2.8 1.2,-1.1 3.8,-4.1 3.8,-4.1 z"
         id="path855" />
      <path
         style="fill:#99cc33"
         d="m 135.8,56.2 c -4.7,1.1 -7.7,7 -6.1,13.9 1.6,6.9 3.7,13.1 4.8,15.9 1.1,2.8 2.2,8 2.2,8 0,0 -1.6,4.7 -3.4,11.3 -1.8,6.7 -5.5,19.2 -5,20.3 0.6,1.1 8.2,2.6 9.3,2.5 1.1,-0.1 3.8,-10.1 5.5,-15.7 1.7,-5.6 5.2,-14.8 4.9,-18.4 -0.3,-3.6 -2.8,-22.2 -3.1,-25.9 -0.6,-6.5 -3.7,-13.2 -9.1,-11.9 z"
         id="path857" />
    </g>
    <g
       transform="matrix(0.26458333,0,0,0.26458333,91.074512,100.31053)"
       id="g990">
      <path
         style="opacity:0.2"
         d="m 21.1,224.2 c 6.4,6.4 9.8,7 26.8,2.3 18.1,-5 19.3,-8.7 11.3,-14.5 -8,-5.8 -14.4,-5.1 -25.3,-1.8 -10.9,3.3 -21,5.7 -12.8,14 z"
         id="path944" />
      <path
         style="fill:#fbd7c7"
         d="m 60.5,104.4 c 0,0 4.3,3.9 5.4,5.4 1.4,2 0.9,5.9 -0.4,7.5 -1.4,1.7 -4,1.7 -4.2,1.3 -0.2,-0.4 1.9,-2.4 2.1,-3.3 0.1,-0.5 0,-1.3 0,-1.3 0,0 -0.8,0.2 -1.3,0 -1.9,-0.8 -4.1,-4.6 -4.2,-5.4 -0.1,-0.8 -1.3,-2.1 -1.3,-2.1 z"
         id="path946" />
      <path
         style="fill:#762c07"
         d="M 26.6,45.7 C 26.1,46 20.2,49.8 20.1,55.4 20,61.1 17.5,69.3 14.4,73.2 19.7,71.3 27.8,68.3 29,59.4 30.2,50.5 26.6,45.7 26.6,45.7 Z"
         id="path948" />
      <path
         style="fill:#2d3134"
         d="m 49.9,206.5 c 1.4,1.3 2.6,2.3 6.2,4.6 3.4,2.1 5,3.9 4.7,6 -0.4,2.6 -4.8,3.6 -9.4,1.7 -4.6,-1.9 -7.7,-4.3 -10.2,-5.1 -2.5,-0.8 -4.9,-1.2 -5.1,-2.1 -0.2,-1 0.4,-5.1 0.4,-5.1 z"
         id="path950" />
      <path
         style="opacity:0.5"
         d="m 41,211.9 c 2.6,0.9 5.6,3.2 10.2,5.1 4.5,1.9 8.9,0.9 9.4,-1.6 0.2,0.5 0.2,1 0.2,1.6 -0.4,2.6 -4.8,3.6 -9.4,1.7 -4.6,-1.9 -7.7,-4.3 -10.2,-5.1 -2.5,-0.8 -4.9,-1.2 -5.1,-2.1 -0.1,-0.3 0,-0.8 0,-1.4 0.5,0.7 2.6,1 4.9,1.8 z"
         id="path952" />
      <path
         style="fill:#2d3134"
         d="m 32.2,213 c 0.6,1.6 0.8,3.5 2.4,6 1.2,2 3.1,6.7 1.8,8.5 -1.9,2.6 -9.5,2 -11.9,-2.8 -2.1,-4.2 -4.1,-8.7 -4.1,-9.8 -0.1,-2.7 0.6,-5.2 0.6,-5.2 z"
         id="path954" />
      <path
         style="opacity:0.5"
         d="m 20.7,211.7 c 0,0.4 0,0.9 0,1.3 0,1.1 2,5.6 4.1,9.8 2.4,4.8 10,5.4 11.9,2.8 0.1,-0.1 0.2,-0.3 0.2,-0.4 0.1,0.9 0,1.7 -0.4,2.3 -1.9,2.6 -9.5,2 -11.9,-2.8 -2.1,-4.2 -4.1,-8.7 -4.1,-9.8 -0.1,-1.2 0,-2.3 0.2,-3.2 z"
         id="path956" />
      <path
         style="fill:#06547a"
         d="m 50,117.7 c 2.5,7.1 5.8,16.5 7.6,25.6 1.8,9.1 3.4,17.9 2.9,22.6 -0.5,4.4 -6.2,16 -8,26 -1.9,9.9 -1.2,15.2 -1.7,15.7 -0.9,0.9 -5.5,1.3 -7.5,1.3 -2,0 -6.3,-0.3 -6.9,-1.3 -0.6,-1 -0.1,-15.9 1.8,-24.3 1.9,-8.4 6,-18.2 5.7,-20.1 -0.3,-1.9 -9.8,-20.1 -11.9,-25.5 -2.1,-5.4 -3.8,-21.8 -3.8,-21.8 z"
         id="path958" />
      <path
         style="opacity:0.2"
         d="m 50,117.7 c 2.5,7.1 5.8,16.5 7.6,25.6 1.8,9.1 3.4,17.9 2.9,22.6 -0.5,4.4 -6.2,16 -8,26 -1.9,9.9 -1.2,15.2 -1.7,15.7 -0.9,0.9 -5.5,1.3 -7.5,1.3 -2,0 -6.3,-0.3 -6.9,-1.3 -0.6,-1 -0.1,-15.9 1.8,-24.3 1.9,-8.4 6,-18.2 5.7,-20.1 -0.3,-1.9 -9.8,-20.1 -11.9,-25.5 -2.1,-5.4 -3.8,-21.8 -3.8,-21.8 z"
         id="path960" />
      <path
         style="fill:#06547a"
         d="m 38.3,117.5 c 0,0 0.8,19.2 0.6,29.4 -0.2,10.2 -0.9,20.6 -2.8,25.9 -1.3,3.8 -2.4,22.9 -2.7,29.9 -0.2,4.4 0.5,10.2 0,11.4 -0.8,1.9 -10,1 -11.7,0.3 -1.7,-0.8 -1.8,-1.5 -2,-3.5 -0.2,-2 -1.6,-20.4 -0.8,-29.1 0.8,-8.7 3.4,-17.3 2.7,-22.1 -0.7,-4.9 -7.5,-24.6 -6,-35.1 1.5,-10.5 6.3,-14.8 6.3,-14.8 z"
         id="path962" />
      <path
         style="fill:#3399cc"
         d="m 60.7,104.2 -4,3.1 c 0,0 -4.3,-4.5 -7.5,-8.1 C 46,95.6 40,86.8 40,86.8 l 6.7,-4.6 c 0,0 6.6,9.4 8.9,13.2 2.3,3.8 5.1,8.8 5.1,8.8 z"
         id="path964" />
      <path
         style="fill:#3399cc"
         d="m 43.3,58 c -3.1,-0.9 -20.8,0.7 -24,5.6 -4.9,7.6 2.8,25.8 2.6,31.2 -0.1,5.3 -1.2,17.5 -1.7,20.1 -0.5,2.6 13.9,11.5 21.3,11.3 7.4,-0.2 8.7,-4.9 8.8,-7.1 0.1,-2.2 0,-20.7 -0.3,-23.5 -0.3,-2.8 -0.6,-6.6 0,-8.8 0.6,-2.2 5.1,-6.5 3.3,-10.5 C 51.5,72.3 48.2,68.7 47,65 46,61.4 45.1,58.5 43.3,58 Z"
         id="path966" />
      <path
         style="fill:#99cc33"
         d="m 36.7,58 c 1.4,-0.2 7.8,-1.9 10,3.8 1.6,4.2 6.4,11.8 7.1,14.6 0.7,2.7 0,6.4 -1,9.4 -1,3 -1.4,18.2 -1.1,25.3 0.3,7.1 2.9,15.1 2.1,16.7 -0.8,1.7 -6.1,2.3 -7.8,2 -1.7,-0.3 -0.9,-18 -0.7,-25.3 0.1,-3.4 0.3,-12.8 0.1,-19.3 C 45.3,81.6 41.6,67.9 40.4,64.7 39.2,61.4 36.7,58 36.7,58 Z"
         id="path968" />
      <path
         style="fill:#fbd7c7"
         d="m 36.3,31.8 c 5.2,0.1 12,6.1 11.3,13.8 -0.6,7.7 -3.4,15.9 -5.3,16.6 -1.9,0.7 -4.1,-0.4 -4.1,-0.4 0,0 2.5,3.5 1.2,4.5 -1.3,0.9 -7.6,-0.4 -10.9,-2.4 -3.3,-2 -3.2,-3.6 -3.2,-3.6 0,0 3,-4.7 2.8,-7.3 -0.2,-2.6 -4.4,-7.9 -1.6,-14.6 2.7,-6.4 5.8,-6.7 9.8,-6.6 z"
         id="path970" />
      <path
         style="fill:#762c07"
         d="m 47.7,41.9 c -0.4,1.3 -3.4,1.9 -6.2,2 -2.7,0.1 -5.3,0.4 -6.5,2 -1.2,1.6 -2.2,3.3 -3.2,2.8 -1,-0.5 -2.5,-2.7 -4.1,-2.4 -1.5,0.3 -0.6,3.7 -0.6,3.7 0,0 -4.7,-10.6 1,-16 4.1,-3.9 10.7,-3.7 15.2,0.1 4.4,3.7 4.6,7.2 4.4,7.8 z"
         id="path972" />
      <path
         style="fill:#99cc33"
         d="m 24.7,59.9 c -2,0.1 -8.8,5.5 -9.8,8 -3.8,8.9 4,26.2 4,30.3 0,4.1 -3.8,24 -4,26.8 -0.2,2.8 7.8,4.6 12.6,5.4 4.8,0.8 14.3,1.1 15.2,-0.7 0.9,-1.8 3.2,-18 3,-26.4 -0.2,-8.4 0.2,-14.2 -2.4,-20.4 -5.4,-12.4 -18.2,-23 -18.6,-23 z"
         id="path974" />
      <path
         style="fill:#fbd7c7"
         d="m 34.6,119.4 c 0,0 0.6,1.3 1.3,1.3 0.6,0 3.5,-0.1 4.2,1.3 0.7,1.4 0.6,2.2 2.5,3.3 1.9,1.2 5.5,1.4 5.4,2.5 -0.1,1.3 -2,2.5 -3.3,2.9 -1.3,0.4 -6.6,1.5 -8.4,0 -1.8,-1.5 -3.9,-4.8 -4.2,-5.4 -0.3,-0.6 -2.1,-2.3 -2.1,-2.9 0,-0.7 4.6,-3 4.6,-3 z"
         id="path976" />
      <path
         style="fill:#3399cc"
         d="m 35.4,120 -5,3.8 c 0,0 -6.1,-7 -9.1,-10.2 -2.2,-2.4 -5.9,-7.5 -6.3,-9.8 -0.4,-2.3 -0.7,-19.3 -0.7,-24.2 0,-3 -1.6,-13.2 4.9,-12.9 6.5,0.3 7.2,6 6.7,12.4 -0.5,6.4 -2.3,20.7 -1.7,21.8 0.5,0.9 5.1,8.5 6.8,11.2 1.7,2.7 4.4,7.9 4.4,7.9 z"
         id="path978" />
      <g
         id="g988">
        <path
           style="fill:#ffcc00"
           d="m 51.2,42.7 c 0,0 2.7,1.2 2.7,2 0,0.8 -7.9,4.3 -13.4,3.7 C 35,47.8 25.1,45 24.5,43.7 23.9,42.3 25.2,28.2 36.6,28.2 c 13.5,0 14.6,14.5 14.6,14.5 z"
           id="path980" />
        <path
           style="opacity:0.2"
           d="m 53.8,44.7 c 0,0.8 -7.9,4.3 -13.4,3.7 -4.4,-0.5 -11.5,-2.3 -14.5,-3.8 3,1 7,2.1 9.9,2 5.2,-0.2 13.6,-2.7 15.3,-3.9 0.1,0 2.7,1.2 2.7,2 z"
           id="path982" />
        <path
           style="opacity:0.2"
           d="m 49.7,41.1 -1.2,0.4 C 48,38 45.4,28.8 35.5,28.8 c -0.6,0 -1.2,0 -1.7,0.1 0.9,-0.2 1.8,-0.4 2.9,-0.4 9.8,0 12.4,9 13,12.6 z"
           id="path984" />
        <path
           style="opacity:0.2"
           d="M 45.5,42.5 C 45.2,40 43.6,29.3 34.8,29.3 c -0.5,0 -0.9,0 -1.4,0.1 0.7,-0.2 1.5,-0.4 2.3,-0.4 8.7,0 10.7,10.4 11,13 z"
           id="path986" />
      </g>
    </g>
    <g
       transform="translate(24.449931,-3.3140107)"
       id="g1088">
      <path
         style="fill:#f8ebcb;stroke-width:0.264583"
         d="m 79.853748,134.766 c 2.196041,0 3.96875,0.89959 3.96875,1.98438 l -0.79375,-5.42396 c 0,-0.87313 -1.42875,-1.5875 -3.175,-1.5875 -1.74625,0 -3.175,0.71437 -3.175,1.5875 l -0.79375,5.42396 c 0,-1.08479 1.772708,-1.98438 3.96875,-1.98438 z"
         id="path899-5" />
      <path
         style="fill:#f8ebcb;stroke-width:0.264583"
         d="m 79.853748,132.91392 c -1.74625,0 -3.175,-0.71438 -3.175,-1.5875 l -0.79375,5.42396 c 0,1.08479 1.772708,1.98437 3.96875,1.98437 2.196041,0 3.96875,-0.89958 3.96875,-1.98437 l -0.79375,-5.42396 c 0,0.87312 -1.42875,1.5875 -3.175,1.5875 z"
         id="path903-2" />
      <path
         style="opacity:0.2;stroke-width:0.264583"
         d="m 79.853748,132.91392 c -1.74625,0 -3.175,-0.71438 -3.175,-1.5875 l -0.79375,5.42396 c 0,1.08479 1.772708,1.98437 3.96875,1.98437 2.196041,0 3.96875,-0.89958 3.96875,-1.98437 l -0.79375,-5.42396 c 0,0.87312 -1.42875,1.5875 -3.175,1.5875 z"
         id="path905-9" />
    </g>
    <g
       id="g1075">
      <path
         style="fill:#825012;stroke-width:0.264583"
         d="m 120.13075,127.75285 c -1.45521,0 -2.64584,0.58208 -2.64584,1.32292 v 0.52916 c 0,0.74084 1.19063,1.32292 2.64584,1.32292 1.4552,0 2.64583,-0.58208 2.64583,-1.32292 v -0.52916 c 0,-0.74084 -1.19063,-1.32292 -2.64583,-1.32292 z"
         id="path891" />
      <path
         style="opacity:0.2;stroke-width:0.264583"
         d="m 120.13075,130.39868 c -1.45521,0 -2.64584,-0.58208 -2.64584,-1.32291 v 0.52916 c 0,0.74084 1.19063,1.32292 2.64584,1.32292 1.4552,0 2.64583,-0.58208 2.64583,-1.32292 v -0.52916 c 0,0.74083 -1.19063,1.32291 -2.64583,1.32291 z"
         id="path893" />
      <path
         style="fill:#825012;stroke-width:0.334582"
         d="m 120.13075,120.01633 c -0.29105,0 -0.52917,0.16923 -0.52917,0.42309 v 8.50428 c 0,0.25386 0.23812,0.42311 0.52917,0.42311 0.29104,0 0.52916,-0.16925 0.52916,-0.42311 v -8.50428 c 0,-0.25386 -0.23812,-0.42309 -0.52916,-0.42309 z"
         id="path895" />
      <path
         style="fill:#ffcc00;stroke-width:0.264583"
         d="m 121.45366,117.96327 c 0,-0.82021 -0.74083,-1.48167 -1.61396,-1.29646 -0.52916,0.10583 -0.92604,0.52916 -1.03187,1.05833 -0.0529,0.39688 0.0529,0.76729 0.26458,1.03188 0.21167,0.29104 0.34396,0.635 0.39688,1.00541 l 0.13229,0.84667 0.52917,0.26458 0.52916,-0.26458 0.10584,-0.79375 c 0.0529,-0.37042 0.1852,-0.74083 0.42333,-1.05833 0.15875,-0.21167 0.26458,-0.50271 0.26458,-0.79375 z"
         id="path901" />
      <path
         style="opacity:0.2;stroke-width:0.334362"
         d="m 120.13075,120.87368 c -0.29105,0 -0.52917,-0.16902 -0.52917,-0.42254 v 8.49312 c 0,0.25352 0.23812,0.42255 0.52917,0.42255 0.29104,0 0.52916,-0.16903 0.52916,-0.42255 v -8.49312 c 0,0.25352 -0.23812,0.42254 -0.52916,0.42254 z"
         id="path897" />
    </g>
  </g>
  <path
     style="fill:#ff4400;fill-opacity:1;fill-rule:nonzero;stroke:none;stroke-width:0.264583"
     id="path3"
     d="m 97.86867,17.366478 c -0.258809,-0.0059 -0.516228,-0.03721 -0.773947,-0.05961 -0.501819,-0.05096 -1.004858,-0.06704 -1.508894,-0.0637 -0.464155,0.01891 -0.927681,0.05059 -1.391583,0.075 -0.405846,0.0213 -0.812071,0.03365 -1.21833,0.04373 -0.372475,0.0075 -0.743342,0.03551 -1.113656,0.07477 -0.435234,0.04506 -0.857878,0.156282 -1.270312,0.29867 -0.519696,0.186816 -0.975261,0.502256 -1.415327,0.828706 -0.47771,0.35371 -0.870942,0.794532 -1.219844,1.271934 -0.353133,0.478657 -0.544647,1.036169 -0.6824,1.60798 -0.08306,0.441395 -0.116845,0.895289 -0.05033,1.341513 0.01339,0.0897 0.0344,0.178103 0.0516,0.267153 0.119599,0.504519 0.347222,0.968312 0.617191,1.407344 0.275052,0.421096 0.617241,0.786378 1.006922,1.10178 0.450141,0.345716 0.980465,0.55154 1.511891,0.735014 0.541624,0.176744 1.099865,0.294739 1.662505,0.379767 0.584055,0.07602 1.172069,0.112774 1.760138,0.139071 0.540521,0.02134 1.081281,0.03573 1.622031,0.04955 0.435297,0.0074 0.87049,0.02845 1.305876,0.02387 0.333082,-0.0089 0.665913,-0.02481 0.998877,-0.03705 0.04663,-0.0017 0.09336,-0.0031 0.139993,-0.0048 0.621891,-0.02117 0.591949,-0.900664 -0.02995,-0.879491 v 0 c -0.04743,0.0017 -0.09496,0.0032 -0.142404,0.0049 -0.325639,0.012 -0.651161,0.02734 -0.976896,0.03652 -0.424382,0.0057 -0.848666,-0.01777 -1.272977,-0.02355 -0.53518,-0.01373 -1.070363,-0.02794 -1.605318,-0.04899 -0.557568,-0.02484 -1.115054,-0.05931 -1.668956,-0.130229 -0.509841,-0.07566 -1.015396,-0.183492 -1.506507,-0.341572 -0.436217,-0.149634 -0.875623,-0.311437 -1.248551,-0.590077 -0.314894,-0.247935 -0.584081,-0.544842 -0.808298,-0.877593 -0.217091,-0.348332 -0.400715,-0.716531 -0.502559,-1.116443 -0.08517,-0.40885 -0.09224,-0.821375 -0.0083,-1.232488 0.108177,-0.459307 0.254544,-0.909391 0.537819,-1.294132 0.294935,-0.406884 0.627522,-0.782503 1.033344,-1.083596 0.367678,-0.273816 0.746068,-0.543828 1.179542,-0.703865 0.34832,-0.122302 0.706086,-0.215775 1.074126,-0.254736 0.346684,-0.03689 0.693793,-0.0633 1.042553,-0.07011 0.414393,-0.01028 0.828774,-0.02293 1.242758,-0.04467 0.450479,-0.02372 0.900639,-0.05381 1.35129,-0.07381 0.476661,-0.0033 0.952262,0.0118 1.426805,0.06043 0.278584,0.02414 0.556828,0.05784 0.836655,0.0628 0.622188,0.0095 0.635588,-0.870418 0.0134,-0.879896 z" />
  <path
     style="fill:#000000;fill-opacity:1;fill-rule:nonzero;stroke:none;stroke-width:0.264583"
     id="path4"
     d="m 104.373,22.263878 c 0.41584,-0.006 0.83169,-0.01197 1.24755,-0.01795 0.60734,-0.0066 1.21439,-0.01469 1.82118,-0.04207 0.5873,-0.03 1.17475,-0.05671 1.76234,-0.08063 0.54288,-0.0213 1.08591,-0.03838 1.62896,-0.05475 0.40967,-0.01219 0.81938,-0.02319 1.22911,-0.0336 0.62205,-0.01575 0.59973,-0.895502 -0.0224,-0.879715 v 0 c -0.41113,0.01042 -0.82224,0.02144 -1.23332,0.03372 -0.54614,0.01646 -1.09227,0.03363 -1.63824,0.05509 -0.58888,0.02398 -1.17765,0.0507 -1.76625,0.0808 -0.59777,0.02705 -1.19581,0.03473 -1.79413,0.04128 -0.41585,0.006 -0.8317,0.01197 -1.24754,0.01795 -0.62219,0.009 -0.60953,0.888861 0.0126,0.879905 z" />
  <path
     style="fill:#000000;fill-opacity:1;fill-rule:nonzero;stroke:none;stroke-width:0.264583"
     id="path6"
     d="m 121.44639,27.432261 c 0.34604,0.517676 0.71807,1.017694 1.08572,1.520104 0.68064,0.926615 1.36723,1.848831 2.05522,2.769986 0.69115,0.924194 1.38462,1.846664 2.07835,2.768937 0.27199,0.353106 0.53146,0.715509 0.79154,1.077389 0.36318,0.505273 1.07774,-0.0084 0.71456,-0.51362 v 0 c -0.26385,-0.366991 -0.52706,-0.734537 -0.80285,-1.092722 -0.69312,-0.921488 -1.38603,-1.84313 -2.07657,-2.766544 -0.6863,-0.91879 -1.37112,-1.838679 -2.05003,-2.762952 -0.37075,-0.506775 -0.74489,-1.011614 -1.0952,-1.53288 -0.37646,-0.495466 -1.07715,0.03683 -0.70072,0.532358 z" />
  <path
     style="fill:#ff4400;fill-opacity:1;fill-rule:nonzero;stroke:none;stroke-width:0.264583"
     id="path7"
     d="m 92.640878,17.820727 c -0.0075,0.350076 -0.01903,0.700081 -0.02874,1.050112 -0.01824,0.649813 -0.03327,1.299666 -0.04101,1.949692 -0.0032,0.647724 -7.04e-4,1.295457 5.95e-4,1.943183 0.0014,0.480213 0.0359,0.959062 0.07397,1.437433 0.02726,0.358583 0.06182,0.716549 0.08982,1.07507 0.01771,0.265945 0.04223,0.531906 0.04403,0.798572 6.99e-4,0.146104 -0.0106,0.291904 -0.02,0.437598 -0.04078,0.620911 0.837265,0.678663 0.87811,0.05775 v 0 c 0.01065,-0.167906 0.02289,-0.335952 0.02185,-0.504326 -0.0035,-0.286596 -0.02599,-0.572473 -0.04669,-0.858261 -0.02815,-0.358916 -0.06251,-0.717285 -0.08992,-1.076257 -0.03633,-0.455716 -0.07005,-0.911846 -0.07124,-1.369326 -0.0013,-0.643637 -0.0038,-1.287287 -6.89e-4,-1.930922 0.0082,-0.645484 0.02233,-1.290815 0.0408,-1.936089 0.0096,-0.353606 0.02174,-0.70717 0.02901,-1.060825 0.0095,-0.622182 -0.870418,-0.635586 -0.879898,-0.0134 z" />
  <path
     style="fill:#ff4400;fill-opacity:1;fill-rule:nonzero;stroke:none;stroke-width:0.264583"
     id="path8"
     d="m 92.735657,21.738363 c -0.257061,-0.0172 -0.514654,-0.02472 -0.772126,-0.03299 -0.488264,-0.01884 -0.976746,0.0016 -1.464793,0.01657 -0.538858,0.01724 -1.077904,0.02733 -1.616958,0.03604 -0.30651,0.0046 -0.155718,0.0024 -0.452357,0.0064 -0.6222,0.0084 -0.610297,0.888333 0.01184,0.879919 v 0 c 0.298211,-0.0041 0.146648,-0.0019 0.454698,-0.0065 0.543306,-0.0088 1.086603,-0.01895 1.629715,-0.03635 0.469645,-0.01441 0.939732,-0.03464 1.409586,-0.0166 0.241507,0.0078 0.483105,0.01491 0.724285,0.03013 0.61992,0.05378 0.695987,-0.822923 0.07602,-0.876706 z" />
  <path
     style="fill:#000000;fill-opacity:1;fill-rule:nonzero;stroke:none;stroke-width:0.264583"
     id="path9"
     d="m 97.601195,18.270729 c 0.075,3.48e-4 0.149895,0.0028 0.224803,0.006 0.136508,0.0095 0.272126,0.02971 0.406339,0.056 0.167517,0.0396 0.33005,0.09591 0.491899,0.153779 0.162665,0.06124 0.324079,0.125747 0.483654,0.194622 0.152253,0.06198 0.301819,0.130072 0.451924,0.196996 0.158336,0.06876 0.318033,0.134349 0.476466,0.202897 0.15831,0.06953 0.32038,0.129652 0.48297,0.188232 0.18144,0.06161 0.3641,0.11937 0.54886,0.170212 0.20704,0.05581 0.41601,0.103285 0.62526,0.149865 0.24981,0.05784 0.50094,0.109144 0.75281,0.157179 0.24737,0.04695 0.49369,0.09884 0.73986,0.151685 0.14607,0.03093 0.0739,0.01587 0.21673,0.04529 0.60948,0.125475 0.78692,-0.736448 0.17745,-0.861923 v 0 c -0.13724,-0.02823 -0.0674,-0.01368 -0.20949,-0.04375 -0.25277,-0.05426 -0.50573,-0.107489 -0.75974,-0.155713 -0.24307,-0.04632 -0.48541,-0.09585 -0.72648,-0.151743 -0.19528,-0.04344 -0.39034,-0.08752 -0.58358,-0.139514 -0.16283,-0.04451 -0.32358,-0.09587 -0.4836,-0.149549 -0.14542,-0.05231 -0.29045,-0.1058 -0.43198,-0.168061 -0.1554,-0.06708 -0.31184,-0.131691 -0.46721,-0.198832 -0.153494,-0.06843 -0.306468,-0.138001 -0.462117,-0.201467 -0.176755,-0.07601 -0.355307,-0.147788 -0.53557,-0.215055 -0.204126,-0.07294 -0.409724,-0.14262 -0.621756,-0.189267 -0.176762,-0.03361 -0.355098,-0.06069 -0.534897,-0.07105 -0.08305,-0.0037 -0.166083,-0.0062 -0.249195,-0.0067 -0.622188,-0.0095 -0.635588,0.870419 -0.01341,0.879897 z" />
  <path
     style="fill:#000000;fill-opacity:1;fill-rule:nonzero;stroke:none;stroke-width:0.264583"
     id="path10"
     d="m 97.970872,26.841578 c -0.007,0.0018 -0.02821,0.0069 -0.02109,0.0055 0.0935,-0.01853 0.185919,-0.04483 0.278504,-0.06724 0.209495,-0.04695 0.413348,-0.114699 0.616886,-0.182215 0.251232,-0.08065 0.491745,-0.189434 0.730962,-0.299753 0.229357,-0.10851 0.456196,-0.222324 0.684056,-0.333926 0.22058,-0.105158 0.44337,-0.205704 0.66675,-0.304731 0.21903,-0.09956 0.44473,-0.182953 0.67049,-0.265687 0.25412,-0.09248 0.51079,-0.177721 0.76636,-0.26607 0.20739,-0.07302 0.41872,-0.133548 0.63092,-0.19071 0.18077,-0.04796 0.36386,-0.08694 0.54737,-0.122868 0.1446,-0.02933 0.29102,-0.04789 0.43629,-0.07324 0.0215,-0.0041 0.0428,-0.0081 0.0643,-0.01225 0.61117,-0.116923 0.44582,-0.981248 -0.16535,-0.864329 v 0 c -0.0174,0.0033 -0.0349,0.0067 -0.0524,0.01008 -0.15041,0.02724 -0.30263,0.04457 -0.45231,0.07621 -0.20347,0.04001 -0.40649,0.08329 -0.60689,0.136708 -0.23191,0.06251 -0.46278,0.12902 -0.68948,0.2087 -0.2607,0.09015 -0.52253,0.177068 -0.7817,0.271533 -0.24393,0.08944 -0.48761,0.180021 -0.72434,0.287466 -0.23357,0.103603 -0.46656,0.208687 -0.697099,0.318887 -0.221738,0.108608 -0.442489,0.219312 -0.665563,0.32513 -0.209418,0.0966 -0.419484,0.193158 -0.639512,0.263629 -0.180516,0.05991 -0.36101,0.121002 -0.546922,0.162173 -0.09307,0.02253 -0.185694,0.04705 -0.279084,0.0673 -0.600843,0.161814 -0.372008,1.011538 0.228835,0.849725 z" />
  <path
     style="fill:#ff4400;fill-opacity:1;fill-rule:nonzero;stroke:none;stroke-width:0.264583"
     d="m 84.099675,22.656542 c 0.56067,0.0031 1.121393,0.0055 1.681978,-0.0069 0.449237,-0.009 0.898373,-0.02295 1.347705,-0.02593 0.184339,-9.97e-4 0.368601,0.0022 0.552905,0.0053 0.622188,0.0095 0.635588,-0.87042 0.0134,-0.879897 l 1.1e-5,-3.6e-5 c -0.19022,-0.0034 -0.380388,-0.0063 -0.570646,-0.0054 -0.453762,0.0029 -0.907331,0.017 -1.361,0.02609 -0.553071,0.01224 -1.106282,0.0098 -1.659442,0.0068"
     id="path20" />
  <path
     style="fill:#000000;fill-opacity:1;fill-rule:nonzero;stroke:none;stroke-width:0.264583"
     d="m 84.104586,21.77653 c -0.514042,-0.0065 -1.027992,-0.0061 -1.541972,0.0032 -0.450971,0.0086 -0.901762,0.02415 -1.352671,0.03513 -0.376905,0.0088 -0.753876,0.01352 -1.130859,0.01768 -0.260764,0.0027 -0.521538,0.0047 -0.78232,0.0059 -0.186972,5.55e-4 -0.373915,-8.9e-5 -0.560833,0.0047 -0.14962,0.0045 -0.299261,0.0085 -0.448926,0.01144 -0.137909,0.0077 -0.275278,0.02246 -0.412991,0.03299 -0.09312,0.007 -0.186284,0.01209 -0.279531,0.01628 -0.621629,0.02807 -0.58192,0.907182 0.03966,0.879101 v 0 c 0.102457,-0.0047 0.204865,-0.01015 0.307131,-0.01795 0.121122,-0.0093 0.24203,-0.02094 0.363107,-0.03059 0.151486,-0.003 0.302947,-0.007 0.454388,-0.01158 0.180708,-0.0048 0.361434,-0.0037 0.542187,-0.0044 0.262602,-0.0013 0.525195,-0.0032 0.787781,-0.006 0.380894,-0.0042 0.761787,-0.009 1.142614,-0.01788 0.449048,-0.01094 0.897977,-0.02639 1.347078,-0.03502 0.507057,-0.0092 1.014097,-0.0096 1.521207,-0.0031"
     id="path11" />
  <path
     style="fill:#000000;fill-opacity:1;fill-rule:nonzero;stroke:none;stroke-width:0.264583"
     id="path12"
     d="m 71.910563,13.566257 c 0.475917,0.784323 0.914225,1.591678 1.356422,2.395407 1.387786,2.587062 2.814008,5.153094 4.236983,7.720871 1.179884,2.122714 2.34301,4.254694 3.522904,6.377398 0.1412,0.253825 0.2824,0.507635 0.4236,0.761454 0.302503,0.543781 1.071517,0.115931 0.769013,-0.427796 v 0 c -0.141152,-0.253733 -0.282303,-0.507463 -0.423454,-0.761202 -1.17972,-2.122359 -2.34264,-4.254025 -3.52235,-6.376404 -1.422546,-2.566999 -2.848311,-5.132261 -4.23569,-7.718531 -0.452085,-0.821636 -0.90001,-1.647095 -1.387874,-2.448123 -0.337236,-0.522943 -1.076789,-0.04601 -0.739554,0.476926 z" />
  <path
     style="fill:#000000;fill-opacity:1;fill-rule:nonzero;stroke:none;stroke-width:0.264583"
     id="path13"
     d="m 81.478475,22.369259 c -0.02751,0.139961 -0.06787,0.276877 -0.10524,0.41441 -0.104216,0.349408 -0.200228,0.701154 -0.301348,1.051445 -0.105916,0.35893 -0.230944,0.711501 -0.362098,1.061829 -0.121452,0.299453 -0.250697,0.595892 -0.38675,0.889005 -0.09341,0.20929 -0.195771,0.414375 -0.2917,0.622506 -0.06134,0.135292 -0.129415,0.267237 -0.195379,0.400282 -0.276405,0.557496 0.512017,0.948386 0.788421,0.390887 v 0 c 0.06972,-0.140564 0.141399,-0.280106 0.206238,-0.423013 0.09548,-0.20748 0.19772,-0.411777 0.290738,-0.620413 0.145254,-0.31344 0.283771,-0.630208 0.412585,-0.950759 0.139059,-0.371556 0.271307,-0.74562 0.383447,-1.126336 0.102299,-0.354668 0.199779,-0.710727 0.305015,-1.064555 0.04894,-0.180006 0.102475,-0.359557 0.13026,-0.5444 0.07135,-0.61815 -0.802865,-0.71904 -0.874199,-0.100891 z" />
  <path
     style="fill:#000000;fill-opacity:1;fill-rule:nonzero;stroke:none;stroke-width:0.264583"
     id="path14"
     d="m 79.900393,26.810348 c -0.153152,-0.01506 -0.305949,-0.03361 -0.458714,-0.05229 -0.270455,-0.02973 -0.537564,-0.08016 -0.804476,-0.131689 -0.325755,-0.06949 -0.652075,-0.136237 -0.978145,-0.204176 -0.302125,-0.06047 -0.603471,-0.1247 -0.905477,-0.185717 -0.295519,-0.06021 -0.589998,-0.125453 -0.883427,-0.195102 -0.260686,-0.06072 -0.517039,-0.138126 -0.770417,-0.224039 -0.235478,-0.07885 -0.447937,-0.211381 -0.657485,-0.342038 -0.237469,-0.145429 -0.441898,-0.335685 -0.64952,-0.519387 -0.195941,-0.183071 -0.380947,-0.377802 -0.553557,-0.582957 -0.161876,-0.192042 -0.301532,-0.400982 -0.416977,-0.623789 -0.107856,-0.218893 -0.171563,-0.455124 -0.225278,-0.692063 -0.06798,-0.300515 -0.07622,-0.608965 -0.07739,-0.915667 0.01295,-0.441338 0.08104,-0.878424 0.155206,-1.312876 0.07242,-0.400631 0.154639,-0.799366 0.234796,-1.198491 0.01084,-0.05333 0.02078,-0.106672 0.03122,-0.160005 0.119124,-0.610746 -0.744599,-0.779215 -0.863723,-0.168471 v 0 c -0.0098,0.05174 -0.02023,0.103467 -0.03025,0.1552 -0.08183,0.407596 -0.165804,0.814794 -0.239528,1.223974 -0.08244,0.484712 -0.157108,0.972621 -0.167696,1.465142 0.0022,0.371212 0.01598,0.744059 0.09958,1.107414 0.07161,0.310681 0.158977,0.6192 0.303917,0.904788 0.147444,0.278403 0.319635,0.542543 0.524114,0.782938 0.200905,0.236807 0.413972,0.463448 0.642505,0.673936 0.244514,0.216332 0.487617,0.43709 0.767748,0.60749 0.267279,0.165996 0.539889,0.329372 0.840346,0.428443 0.279409,0.09435 0.561928,0.17981 0.8493,0.246694 0.303046,0.07186 0.607131,0.139312 0.912341,0.201445 0.300252,0.06064 0.599853,0.124518 0.900213,0.184637 0.330297,0.06882 0.660822,0.136528 0.990827,0.20672 0.286814,0.05537 0.573967,0.108854 0.864515,0.141144 0.151516,0.01853 0.303105,0.03696 0.455,0.05182 0.617336,0.07813 0.72782,-0.794906 0.110464,-0.873035 z" />
  <path
     style="fill:none;stroke:#000000;stroke-width:0.88;stroke-linecap:round;stroke-linejoin:round;stroke-dasharray:none"
     d="m 127.93441,35.479854 c 0.48706,0.667242 1.18147,1.649948 1.67191,2.315198 1.25896,1.707703 2.8628,3.693182 3.22694,5.844406 0.41787,2.468577 -3.52784,3.018991 -4.862,1.545817 -2.88924,-3.190287 -0.0638,-6.456435 3.50564,-4.652547"
     id="path1"
     sodipodi:nodetypes="csssc" />
  <path
     style="fill:none;stroke:#000000;stroke-width:0.88;stroke-linecap:round;stroke-linejoin:round;stroke-dasharray:none"
     d="m 129.23386,45.809301 c 1.1703,-5.649581 -5.6355,-7.025318 -9.04797,-8.912584"
     id="path2" />
  <path
     style="fill:none;stroke:#000000;stroke-width:0.879999;stroke-linecap:round;stroke-linejoin:round"
     d="m 111.9202,21.600486 c 1.7904,-0.03735 3.58237,-0.02379 5.37354,-0.02379 1.50144,1.729308 3.01834,3.61521 4.44626,5.516223"
     id="path5"
     sodipodi:nodetypes="ccc" />
  <path
     style="fill:none;stroke:#000000;stroke-width:0.879999;stroke-linecap:round;stroke-linejoin:round"
     d="m 114.06769,21.553154 c -0.40173,-1.425935 -1.28335,-2.622737 -2.00483,-3.869509"
     id="path15" />
  <path
     style="fill:none;stroke:#000000;stroke-width:0.879999;stroke-linecap:round;stroke-linejoin:round"
     d="m 122.32339,18.271979 c -0.59413,1.079867 -1.21092,2.143336 -1.55229,3.332427"
     id="path16" />
</svg>
