<?xml version="1.0" encoding="UTF-8" standalone="no"?>
<svg
   width="192.36475mm"
   height="94.545326mm"
   viewBox="0 0 192.36474 94.545324"
   version="1.1"
   id="svg3748"
   sodipodi:docname="39 jan li pali. jan li pali e lupa. jan li pali e lupa kepeken ilo..svg"
   inkscape:version="1.3.2 (091e20e, 2023-11-25, custom)"
   xmlns:inkscape="http://www.inkscape.org/namespaces/inkscape"
   xmlns:sodipodi="http://sodipodi.sourceforge.net/DTD/sodipodi-0.dtd"
   xmlns="http://www.w3.org/2000/svg"
   xmlns:svg="http://www.w3.org/2000/svg"
   xmlns:rdf="http://www.w3.org/1999/02/22-rdf-syntax-ns#"
   xmlns:cc="http://creativecommons.org/ns#"
   xmlns:dc="http://purl.org/dc/elements/1.1/">
  <sodipodi:namedview
     id="namedview1"
     pagecolor="#ffffff"
     bordercolor="#000000"
     borderopacity="0.25"
     inkscape:showpageshadow="2"
     inkscape:pageopacity="0.0"
     inkscape:pagecheckerboard="0"
     inkscape:deskcolor="#d1d1d1"
     inkscape:document-units="mm"
     inkscape:zoom="1.3110078"
     inkscape:cx="446.98437"
     inkscape:cy="202.51596"
     inkscape:window-width="1920"
     inkscape:window-height="1051"
     inkscape:window-x="-9"
     inkscape:window-y="-9"
     inkscape:window-maximized="1"
     inkscape:current-layer="svg3748" />
  <defs
     id="defs3742" />
  <metadata
     id="metadata3745">
    <rdf:RDF>
      <cc:Work
         rdf:about="">
        <dc:format>image/svg+xml</dc:format>
        <dc:type
           rdf:resource="http://purl.org/dc/dcmitype/StillImage" />
        <dc:title />
      </cc:Work>
    </rdf:RDF>
  </metadata>
  <rect
     style="fill:#99cc33;fill-opacity:1;stroke-width:0.290312"
     id="rect4530"
     width="117.96189"
     height="74.080925"
     x="0"
     y="8.6025562" />
  <g
     transform="matrix(0.79374999,0,0,0.79374999,8.3512845,23.706191)"
     id="g4340">
    <path
       style="opacity:1;fill:#baa794"
       d="m 64,0 -12,4 -4,4 -8,4 -8,8 h -8 l -8,4 -4,4 -12,4 12,4 4,4 8,4 8,8 h 8 l 8,4 4,4 12,4 12,-4 4,-4 8,-4 h 8 l 8,-8 8,-4 4,-4 12,-4 -12,-4 -4,-4 -8,-4 H 96 L 88,12 80,8 76,4 Z"
       id="path4293" />
    <path
       style="opacity:0.11"
       d="m 64,0 12,4 4,4 8,4 8,8 h 8 l 8,4 4,4 12,4 -12,4 -4,4 -8,4 -8,8 -8,-8 -8,-4 -4,-4 -12,-4 z"
       id="path4295" />
    <path
       style="opacity:0.29"
       d="m 64,0 v 32 l -12,4 -4,4 -8,4 -8,8 -8,-8 -8,-4 -4,-4 -12,-4 12,-4 4,-4 8,-4 h 8 l 8,-8 8,-4 4,-4 z"
       id="path4297" />
    <path
       style="opacity:0.1;fill:#ffffff"
       d="m 16,24 8,-4 v 24 l -8,-4 z"
       id="path4299" />
    <path
       style="opacity:0.1;fill:#ffffff"
       d="m 48,8 4,-4 v 32 l -4,4 z"
       id="path4301" />
    <path
       style="opacity:0.1"
       d="M 52,4 64,0 v 32 l -12,4 z"
       id="path4303" />
    <path
       style="opacity:0.15"
       d="m 40,12 -8,8 v 32 l 8,-8 z"
       id="path4305" />
    <path
       style="opacity:0.1"
       d="M 12,36 0,32 12,28 Z"
       id="path4307" />
    <path
       style="opacity:0.1;fill:#ffffff"
       d="m 112,24 -8,-4 v 24 l 8,-4 z"
       id="path4309" />
    <path
       style="opacity:0.1;fill:#ffffff"
       d="M 80,8 76,4 v 32 l 4,4 z"
       id="path4311" />
    <path
       style="opacity:0.1"
       d="M 76,4 64,0 v 32 l 12,4 z"
       id="path4313" />
    <path
       style="opacity:0.15"
       d="m 88,12 8,8 v 32 l -8,-8 z"
       id="path4315" />
    <path
       style="opacity:0.1"
       d="m 116,36 12,-4 -12,-4 z"
       id="path4317" />
  </g>
  <g
     id="g884"
     transform="matrix(0.26458333,0,0,0.26458333,41.556492,4.1270255)">
    <path
       id="path848"
       d="m 101.9,233 c 0,0 -13.9,-2.6 -22.7,-5.9 -8.8,-3.3 -13.3,-1.1 -20.1,-0.1 -6.8,1 -11,2.4 -22.7,-8.9 -11.7,-11.3 19.8,-13.2 28.4,-15.3 8.6,-2.1 35.2,-9.8 36.7,2.5 1.6,12.4 0.4,27.7 0.4,27.7 z"
       style="opacity:0.2" />
    <path
       id="path850"
       d="m 72.4,208.9 31.1,-14.5 3.5,8.5 c 2.7,6.6 2.5,14 -0.5,20.5 l -4.6,9.7 -10.3,-3.2 c -6.5,-2 -11.9,-6.6 -15,-12.7 z"
       style="fill:#656565" />
    <path
       id="path852"
       d="m 37.9,210.3 c 0,0 -1.3,4.6 -0.9,5.2 0.4,0.6 4,4.3 4,4.3 0,0 1.1,-0.4 1.8,0.1 0.6,0.5 4.2,8.8 15,6.9 10.2,-1.8 1,-10.8 -0.5,-11.7 -1.5,-0.9 -5.6,-7 -5.6,-7 z"
       style="fill:#825012" />
    <path
       id="path854"
       d="m 57.7,226.9 c 3.8,-0.7 4.9,-2.3 4.7,-4.2 -1,1 -2.6,2.1 -4.9,2.6 -4.7,1 -11.3,-2 -13.3,-5.4 -1.4,-2.4 -5,-5.8 -7,-7.6 -0.3,1.3 -0.6,2.9 -0.4,3.2 0.4,0.6 4,4.3 4,4.3 0,0 1.1,-0.4 1.8,0.1 0.7,0.6 4.3,8.9 15.1,7 z"
       style="opacity:0.5" />
    <path
       id="path856"
       d="m 38.6,70.6 c 0.5,-1.4 7.1,-6.1 9.9,-8.3 2.7,-2.2 8.5,-7.3 10.7,-8.2 2.4,-0.9 5.8,-1 7.9,-0.1 2.2,0.9 6.8,3.4 9.4,4.4 2.6,1 11.3,7.3 15.1,10.3 3.8,3 17,13.4 19.1,19.1 2,5.7 -14.8,14.4 -14.8,14.4 0,0 -3,-0.3 -5.3,5.7 -1,2.6 -1.5,7.8 -1.5,7.8 l -37.8,-0.5 c 0,0 4.9,-21.6 8.1,-29 C 62.6,78.9 66.5,74 66.5,74 66.5,74 65.6,71 65,69.6 64.4,68.2 61.1,66 61.1,66 c 0,0 -3.7,2.1 -6.7,3.6 -3,1.6 -10.6,7.1 -11.3,7.1 -0.7,0 -5.2,-3.8 -4.5,-6.1 z"
       style="fill:#cc291f" />
    <path
       id="path858"
       d="m 89.7,65.9 c 0,0 -0.5,-2.4 -1.7,-1.7 -1.3,0.7 -1.6,6.2 -1.2,6.9 0.4,0.7 1.3,0.4 1,1.3 -0.3,0.9 -0.4,3.8 -1.9,6.4 C 85,80.4 85,93.4 85,93.4 c 0,0 9.5,-4.5 11.4,-5.9 1.9,-1.4 4.7,-3.6 4.9,-4.9 0.2,-1.3 0.7,-2.3 0.7,-2.3 l 1.7,-2.4 c 0,0 3.6,-2.9 4.2,-4.9 0.6,-2 -0.7,-1.7 -0.7,-1.7 0,0 5.7,-12.5 -3.8,-14.7 -9.5,-2.3 -13.7,9.3 -13.7,9.3 z"
       style="fill:#fbd7c7" />
    <path
       id="path860"
       d="m 89.1,69.1 c 0.1,0.3 1.1,-2.2 1.9,-2 0.8,0.1 1.4,-2.4 1.8,-3.2 0.4,-0.8 0.8,-1.6 1.6,-1.2 0.8,0.4 3,3 5.8,4 2.9,1 6.6,-0.2 6.9,0.5 0.3,0.7 -1.8,4.2 -1.8,5 0.1,0.8 0,1.8 0.2,1.8 0.2,0 4.5,-5.3 4.5,-10.5 0.1,-8.5 -13.1,-12.7 -17.3,-6.4 -4.2,6.2 -3.7,11.4 -3.6,12 z"
       style="fill:#762c07" />
    <path
       id="path862"
       d="m 39.2,71.4 c 0,0 -0.9,0.8 -1.9,1.4 -1,0.6 -4.6,2.9 -5.9,4.4 -1.9,2 -2.8,6.5 -1.8,8.4 0.3,0.6 3.1,1.8 4.1,0.8 0.9,-1 1.2,-6.3 1.8,-6.3 0.6,0 1.2,0.7 1.2,0.7 L 42,74 Z"
       style="fill:#fbd7c7" />
    <g
       id="g870">
      <path
         id="path864"
         d="m 83,188.5 c -0.9,2.8 -2.2,4.3 -1.9,5.9 0.3,1.6 5.7,5.9 6.1,5.9 0.4,0 1.8,0 1.8,0 0,0 3.3,4.1 6.8,5.5 3.4,1.4 14,2.7 14.7,-0.9 0.6,-3.6 -0.5,-6.5 -5,-8 -4.5,-1.5 -8.7,-4.2 -9.4,-6.4 -0.7,-2.2 -13.1,-2 -13.1,-2 z"
         style="fill:#825012" />
      <path
         id="path866"
         d="m 110.4,204.8 c 0.1,-0.7 0.2,-1.3 0.2,-2 -2.8,4.7 -15.9,2 -19.8,-2.9 -1.8,-2.2 -6.5,-6 -9,-8.5 -0.5,1.1 -0.9,2 -0.7,2.9 0.3,1.5 5.7,5.9 6.1,5.9 0.4,0 1.8,0 1.8,0 0,0 3.3,4.1 6.8,5.5 3.4,1.4 13.9,2.7 14.6,-0.9 z"
         style="opacity:0.5" />
      <path
         id="path868"
         d="m 83.7,62.8 c 0,0 -6.3,6.4 -9.5,13.5 -1.9,4.3 -5.5,16.6 -5.5,16.6 l -2.2,-0.4 c 0,0 -3.7,12.7 -4,13.5 -0.3,0.8 -9.6,-1.4 -9.6,-1.4 0,0 -2.9,9.3 -3.7,16.7 -0.8,7.4 -4.2,32.1 -5.1,34.7 -0.9,2.5 -1,8.9 -2.5,13.3 -1.5,4.3 -5.5,19.9 -6,25 -0.5,5.1 -0.8,15.7 0.5,16.9 1.3,1.2 9.7,1.7 12.1,1.1 2.4,-0.5 6.4,-1.9 6.4,-3.6 0,-1.7 3.3,-27.5 4.5,-30.6 1.1,-3.1 7,-13.6 8.9,-21.3 1.9,-7.6 3.7,-14.8 4.5,-16.9 0.8,-2.2 2.2,-7.9 2.2,-7.9 0,0 11.8,12.2 15.2,14.7 2.8,2 7.5,6.1 7.5,6.1 0,0 -8.5,13 -10.7,17.3 -2.2,4.3 -6.2,14.7 -6.6,16.3 -0.4,1.7 -0.9,4.1 1.8,4.8 2.7,0.7 9.6,2.3 11.9,2 2.3,-0.3 3.7,-1.1 3.8,-2.4 0.1,-1.3 3.8,-6.4 6.4,-9.8 2.5,-3.4 7.1,-12.4 8.3,-14.9 1.1,-2.5 5.4,-8.9 5.7,-13 0.4,-4 -2.4,-9.6 -7,-15.4 -4.3,-5.5 -15.4,-17.5 -16.6,-19.1 -1.1,-1.7 -2.8,-5.6 -3.6,-7.6 -0.8,-2 0.4,-5.4 1.2,-7.2 0.6,-1.3 1.3,-2.7 1.3,-2.7 l -0.8,-0.8 c 0,0 8.5,-10 10.7,-13.1 2.1,-2.9 4.1,-6.1 4.1,-6.1 l -3.1,-2.2 c 0,0 -0.3,0.8 -3.5,5.5 -3.3,5 -12.1,14 -12.1,14 L 73.3,93.5 c 0,0 2.6,-11.5 5.2,-17 3.3,-7.2 7.9,-12.4 7.9,-12.4 z"
         style="fill:#06547a" />
    </g>
    <path
       id="path872"
       d="m 70.4,141.7 c 0,0 -3.3,0.7 -5,2.6 -1.7,1.9 -3.1,4.1 -3.8,4 -0.7,-0.1 -3,-0.2 -3.7,0.5 -0.8,0.8 -1.4,3.1 0.3,4.6 1.8,1.5 5.7,2.6 7,1.9 1.3,-0.7 5.6,-2.8 6.1,-4.4 0.5,-1.6 2.4,-3.1 2.4,-3.1 l 0.9,-0.5 z"
       style="fill:#fbd7c7" />
    <path
       id="path874"
       d="m 88.4,206.1 c -0.9,0 -1.7,-0.5 -2.1,-1.4 L 24.3,65.4 c -0.5,-1.2 0,-2.5 1.2,-3 1.2,-0.5 2.5,0 3,1.2 l 62,139.3 c 0.5,1.2 0,2.5 -1.2,3 -0.3,0.1 -0.6,0.2 -0.9,0.2 z"
       style="fill:#656565" />
    <path
       id="path876"
       d="m 88.4,206.1 c -0.9,0 -1.7,-0.5 -2.1,-1.4 L 24.3,65.4 c -0.5,-1.2 0,-2.5 1.2,-3 1.2,-0.5 2.5,0 3,1.2 l 62,139.3 c 0.5,1.2 0,2.5 -1.2,3 -0.3,0.1 -0.6,0.2 -0.9,0.2 z"
       style="opacity:0.2" />
    <path
       id="path878"
       d="m 68.3,142.1 c 0.1,0.8 2.3,3.2 4.1,3.9 1.8,0.7 2,2.3 2.4,1.9 0.4,-0.4 17.5,-13 19.8,-15.2 2.3,-2.2 5.2,-8.6 7.5,-13.8 2.2,-5.2 7.6,-12.7 9.5,-17.9 1.8,-5.2 0.5,-11.6 -1,-13.3 -0.8,-1 -14.7,14.5 -14.7,14.5 0,0 -3.7,12.2 -6.5,16.6 -1.4,2.2 -2.9,5.6 -5.7,8.8 -2.9,3.2 -7.1,6.3 -9.4,8.6 -2.3,2.4 -6,5.1 -6,5.9 z"
       style="fill:#cc291f" />
    <path
       id="path880"
       d="m 43,75.2 c 0,0 -0.5,2.5 -1.6,3.8 -1.1,1.4 -4,4.2 -4.5,5 -0.5,0.8 -1.8,2.1 -2.7,1.8 -0.8,-0.4 -0.9,-1.8 0.6,-3.5 0.7,-0.9 1.5,-1.1 1.1,-2.1 -0.4,-1.1 -0.2,-0.9 0.1,-1.9 0.3,-1 5.1,-5.1 5.1,-5.1 L 42,74 Z"
       style="fill:#fbd7c7" />
    <path
       id="path882"
       d="m 68,149 c -0.3,1.1 -1.9,2.7 -2.5,3.6 -0.6,0.9 -1.1,1.7 -0.7,2.2 0.4,0.5 2.1,-0.4 3.8,-1.3 1.7,-0.9 3.2,-1 3.6,-2.7 0.4,-1.7 0.4,-4.1 -1.3,-3.8 -1.8,0.3 -3.1,2.4 -3.1,2.4 z"
       style="fill:#fbd7c7" />
  </g>
  <g
     id="g973"
     transform="matrix(-0.52916666,0,0,0.52916666,45.561121,14.407107)">
    <path
       id="path947"
       d="M 44,40 52,37 62,31 40,8 34,5 20,4 0,24 l 16,8 6,4 10,4 z"
       style="opacity:1;fill:#baa794" />
    <path
       id="path949"
       d="M 29,7 26,6 18,16 13.2,20 8,28 16,32 22,20.5 25,12 Z"
       style="opacity:0.15;fill:#ffffff" />
    <path
       id="path951"
       d="M 20,4 0,24 8,28 Z"
       style="opacity:0.1" />
    <path
       id="path953"
       d="m 22,36 10,4 4,-31 h -2 l -5,13 -4,5.3 z"
       style="opacity:0.1" />
    <path
       id="path955"
       d="M 44,40 H 32 l 4,-31 2,17 4.1,4 z"
       style="opacity:0.15;fill:#ffffff" />
    <path
       id="path957"
       d="M 52,37 62,31 40,8 Z"
       style="opacity:0.1" />
  </g>
  <path
     style="fill:#000000;fill-opacity:1;fill-rule:nonzero;stroke:none;stroke-width:0.264583"
     id="path1"
     d="m 157.37998,79.538222 c 0.58213,-0.06062 1.16857,-0.06729 1.75319,-0.08131 1.94257,-0.03682 3.88564,-0.02748 5.82845,-0.02529 1.73477,0.0026 3.46954,0.006 5.2043,0.0089 1.36143,0.0024 2.72285,0.004 4.08428,0.0053 1.42574,7.94e-4 2.8513,-0.0083 4.27661,0.03081 0.21695,0.0075 0.43389,0.01503 0.65084,0.02257 0.62188,0.02156 0.65235,-0.857922 0.0305,-0.879473 v 0 c -0.21907,-0.0076 -0.43815,-0.01519 -0.65722,-0.02275 -1.43307,-0.03915 -2.86638,-0.03048 -4.29987,-0.03114 -1.3612,-0.0013 -2.7224,-0.0029 -4.0836,-0.0053 -1.73494,-0.003 -3.46988,-0.0063 -5.20482,-0.0089 -1.95018,-0.0021 -3.90063,-0.01154 -5.85056,0.02556 -0.61913,0.0149 -1.24037,0.02191 -1.85652,0.0899 -0.616,0.088 -0.49155,0.959157 0.12445,0.871157 z" />
  <path
     style="fill:#000000;fill-opacity:1;fill-rule:nonzero;stroke:none;stroke-width:0.264583"
     id="path2"
     d="m 178.58246,78.871175 c -0.12355,0.196467 -0.2132,0.41638 -0.30545,0.62901 -0.2521,0.590648 -0.43691,1.205611 -0.6044,1.824535 -0.13739,0.573619 -0.23715,1.175528 -0.10062,1.75995 0.0286,0.122317 0.0748,0.239837 0.11217,0.359757 0.26648,0.61808 0.68408,1.162928 1.18348,1.61268 0.10569,0.09518 0.21968,0.180721 0.32952,0.271079 0.56309,0.398232 1.17511,0.738079 1.8294,0.962131 0.13244,0.04535 0.26798,0.08112 0.40197,0.121682 0.6459,0.149889 1.31575,0.222924 1.97889,0.175413 0.12027,-0.0086 0.23976,-0.02601 0.35964,-0.039 0.73669,-0.117502 1.34946,-0.482984 1.92967,-0.93131 0.5286,-0.428881 0.89713,-0.995238 1.19393,-1.599379 0.27238,-0.602303 0.36067,-1.179214 0.35928,-1.833793 -0.0251,-0.562824 -0.15547,-1.111856 -0.27803,-1.659334 -0.0931,-0.413147 -0.21717,-0.817354 -0.35649,-1.216888 -0.0828,-0.221401 -0.0421,-0.113623 -0.12205,-0.323374 -0.22165,-0.581437 -1.04393,-0.26797 -0.82227,0.313468 v 0 c 0.0758,0.198813 0.038,0.09892 0.11341,0.299704 0.12823,0.367573 0.24302,0.73918 0.32866,1.119352 0.10891,0.486455 0.22724,0.973651 0.25679,1.473089 0.006,0.496525 -0.064,0.986438 -0.27063,1.442815 -0.23307,0.485074 -0.52427,0.942382 -0.94286,1.289711 -0.44248,0.346917 -0.92425,0.651105 -1.48715,0.751385 -0.66463,0.07696 -1.33529,0.05144 -1.98826,-0.104844 -0.1134,-0.03355 -0.22814,-0.06288 -0.34021,-0.100658 -0.56684,-0.191092 -1.09663,-0.483994 -1.58772,-0.822298 -0.0893,-0.07197 -0.18228,-0.139676 -0.26799,-0.215919 -0.39671,-0.352877 -0.73641,-0.777422 -0.96411,-1.257805 -0.0666,-0.192699 -0.10622,-0.271428 -0.12782,-0.474924 -0.0408,-0.384009 0.0463,-0.771174 0.12891,-1.143027 0.15607,-0.577905 0.32749,-1.152358 0.56224,-1.70407 0.0918,-0.211714 0.18551,-0.422241 0.30225,-0.621734 0.25272,-0.568621 -0.55143,-0.926023 -0.80415,-0.357402 z" />
  <path
     style="fill:#000000;fill-opacity:1;fill-rule:nonzero;stroke:none;stroke-width:0.264583"
     id="path3"
     d="m 186.00958,79.386285 c 0.46495,0.100039 0.93506,0.167716 1.40689,0.225089 1.23526,0.123565 2.47718,0.162483 3.71729,0.205345 0.25028,0.0077 0.50056,0.01532 0.75084,0.02299 0.62196,0.01905 0.64889,-0.860544 0.0269,-0.879589 v 0 c -0.24913,-0.0076 -0.49826,-0.01524 -0.74739,-0.02289 -1.21488,-0.04197 -2.43153,-0.0799 -3.64179,-0.199478 -0.44953,-0.05429 -0.8973,-0.118872 -1.34019,-0.214392 -0.61017,-0.122036 -0.78275,0.740876 -0.17258,0.86291 z" />
  <path
     style="fill:#ff4400;fill-opacity:1;fill-rule:nonzero;stroke:none;stroke-width:0.264583"
     d="m 183.53882,75.061288 c 0.75177,1.238879 0.52685,0.823805 1.24127,2.08486 0.0815,0.154246 0.16505,0.307385 0.24437,0.462737 0.23362,0.457542 0.44068,0.928534 0.63802,1.402636 0.23833,0.574802 1.05123,0.237749 0.81289,-0.337055 -0.2044,-0.490982 -0.419,-0.978641 -0.66061,-1.45265 -0.0832,-0.163267 -0.17091,-0.324213 -0.25636,-0.48632 -0.7215,-1.277252 -0.50638,-0.876823 -1.26725,-2.130726"
     id="path7" />
  <path
     style="fill:#000000;fill-opacity:1;fill-rule:nonzero;stroke:none;stroke-width:0.264583"
     d="m 184.29115,74.60477 c -0.6509,-1.082598 -2.28866,-3.813507 -2.9037,-4.916893 -0.41769,-0.749411 -0.79761,-1.518831 -1.1692,-2.291854 -0.30755,-0.67334 -0.61537,-1.346576 -0.92109,-2.020757 -0.12529,-0.279511 -0.24747,-0.560379 -0.36873,-0.841653 -0.24637,-0.571406 -1.05446,-0.222993 -0.80809,0.348412 v 0 c 0.12345,0.286295 0.2478,0.572192 0.37537,0.85668 0.30844,0.680149 0.61886,1.359411 0.92942,2.038588 0.37931,0.788981 0.7673,1.574187 1.19368,2.339058 0.62036,1.112801 2.26346,3.853112 2.92001,4.944937"
     id="path4" />
  <path
     style="fill:#000000;fill-opacity:1;fill-rule:nonzero;stroke:none;stroke-width:0.264583"
     id="path5"
     d="m 178.77353,64.29255 c 0.0159,0.02311 0.0319,0.04622 0.0478,0.06933 0.002,0.0041 0.007,0.01716 0.007,0.01242 7.9e-4,-0.0075 -0.004,-0.01456 -0.006,-0.02177 -0.006,-0.0183 -0.0114,-0.03648 -0.017,-0.05477 -0.0387,-0.126762 0.006,0.01542 -0.0423,-0.136861 -0.0652,-0.222593 -0.12062,-0.447802 -0.17065,-0.67423 -0.0645,-0.322337 -0.11547,-0.647591 -0.14338,-0.975177 -0.0178,-0.288807 0.003,-0.578299 0.0557,-0.862455 0.0385,-0.190356 0.11553,-0.369715 0.23194,-0.525507 0.0235,-0.03146 0.0498,-0.06075 0.0747,-0.09112 0.1348,-0.155209 0.30009,-0.281538 0.48595,-0.369747 0.0375,-0.01781 0.0764,-0.03254 0.11468,-0.04881 0.20821,-0.08161 0.43173,-0.105014 0.65393,-0.08889 0.0505,0.0037 0.10047,0.01175 0.15071,0.01763 0.34114,0.05373 0.64711,0.213521 0.9432,0.382793 0.26683,0.156948 0.52188,0.336445 0.73967,0.557748 0.0443,0.045 0.0854,0.093 0.1281,0.139504 0.18419,0.214547 0.34962,0.445033 0.49529,0.687382 0.0877,0.145979 0.12743,0.226405 0.20695,0.377247 0.12412,0.256455 0.22489,0.524264 0.29756,0.799854 0.0174,0.06602 0.035,0.132184 0.0467,0.19946 0.0108,0.06237 0.0138,0.125844 0.0207,0.188765 0.011,0.344719 -0.0465,0.689733 -0.15462,1.016856 -0.0216,0.06538 -0.0478,0.129159 -0.0717,0.193738 -0.10963,0.246283 -0.24531,0.481224 -0.40245,0.70027 -0.0857,0.119436 -0.13546,0.177261 -0.2275,0.290502 -0.20071,0.23191 -0.42746,0.439856 -0.66162,0.637337 -0.1564,0.137284 -0.33857,0.238194 -0.52415,0.329811 -0.14011,0.0682 -0.29232,0.106879 -0.44509,0.134263 -0.12062,0.02212 -0.24334,0.02445 -0.36547,0.01871 -0.0188,-0.0011 -0.0377,-0.0024 -0.0565,-0.0035 -0.62111,-0.03769 -0.67442,0.840695 -0.0533,0.878385 v 0 c 0.0244,0.0013 0.0488,0.0029 0.0732,0.0044 0.18845,0.0072 0.37755,0.0021 0.56345,-0.03287 0.23229,-0.0444 0.46256,-0.105365 0.67527,-0.211264 0.24838,-0.124032 0.49055,-0.262525 0.70076,-0.445905 0.27575,-0.233672 0.5428,-0.47947 0.77719,-0.75537 0.11233,-0.13905 0.16724,-0.202784 0.27224,-0.350817 0.19769,-0.278736 0.36769,-0.577652 0.50073,-0.892541 0.0302,-0.0838 0.0632,-0.166613 0.0905,-0.251391 0.14198,-0.44104 0.21019,-0.905649 0.18237,-1.368688 -0.0126,-0.09459 -0.0206,-0.189893 -0.0378,-0.283762 -0.0151,-0.08274 -0.0371,-0.164137 -0.0589,-0.245376 -0.089,-0.331779 -0.21215,-0.653962 -0.36363,-0.962145 -0.0957,-0.180546 -0.1353,-0.261345 -0.2417,-0.43713 -0.17425,-0.287865 -0.37252,-0.5612 -0.59359,-0.814912 -0.0569,-0.06079 -0.11186,-0.12348 -0.17073,-0.182369 -0.26856,-0.268624 -0.57993,-0.489351 -0.90678,-0.681008 -0.15797,-0.08951 -0.2386,-0.139004 -0.40381,-0.217058 -0.27969,-0.132142 -0.575,-0.231547 -0.88179,-0.275962 -0.0755,-0.0075 -0.15086,-0.01809 -0.22666,-0.02237 -0.34995,-0.01976 -0.69978,0.0312 -1.02504,0.163196 -0.0599,0.02689 -0.12099,0.05135 -0.17974,0.08069 -0.28997,0.144784 -0.54624,0.348546 -0.75542,0.595752 -0.0403,0.05162 -0.0829,0.101501 -0.12087,0.154855 -0.18174,0.25543 -0.30199,0.547381 -0.36315,0.854261 -0.0103,0.05867 -0.0221,0.117087 -0.0308,0.176009 -0.0449,0.303353 -0.0525,0.612322 -0.0353,0.918084 0.0325,0.365766 0.0871,0.729293 0.16089,1.08907 0.0559,0.251776 0.11741,0.502363 0.19091,0.749655 0.0469,0.147742 0.0788,0.302513 0.1734,0.429217 0.39836,0.478029 1.07439,-0.08533 0.67603,-0.563362 z" />
  <path
     style="fill:#000000;fill-opacity:1;fill-rule:nonzero;stroke:none;stroke-width:0.264583"
     id="path6"
     d="m 181.99034,61.080589 c -0.2277,0.09703 -0.40748,0.26671 -0.57763,0.441257 -0.28329,0.321057 -0.48681,0.70678 -0.46576,1.148256 0.007,0.142867 0.0429,0.282816 0.0644,0.424224 0.053,0.162548 0.0984,0.327739 0.15885,0.487643 0.12851,0.339859 0.32801,0.750958 0.49318,1.071108 0.21553,0.41776 0.42089,0.782321 0.67042,1.181899 0.12827,0.205425 0.265,0.405449 0.39751,0.608173 0.78093,1.165165 1.73805,2.191821 2.73057,3.176738 0.39684,0.380053 0.7903,0.763482 1.18065,1.150175 0.44209,0.437902 1.06138,-0.187309 0.61929,-0.62521 v 0 c -0.39025,-0.386503 -0.7834,-0.769951 -1.18021,-1.149731 -0.94917,-0.941129 -1.86602,-1.920924 -2.61395,-3.033834 -0.12595,-0.192219 -0.25588,-0.381878 -0.37783,-0.576655 -0.24021,-0.383667 -0.42947,-0.719768 -0.63715,-1.120671 -0.15941,-0.307709 -0.32009,-0.639176 -0.44837,-0.962439 -0.047,-0.11856 -0.0844,-0.240757 -0.12653,-0.361135 -0.0316,-0.140481 -0.0678,-0.234851 -0.0569,-0.374091 0.0132,-0.169654 0.12551,-0.308532 0.22702,-0.435395 0.10863,-0.116391 0.21957,-0.22125 0.36981,-0.281053 0.54395,-0.302193 0.11658,-1.071452 -0.42736,-0.769259 z" />
  <path
     style="fill:#000000;fill-opacity:1;fill-rule:nonzero;stroke:none;stroke-width:0.264583"
     id="path10"
     d="m 176.14589,79.184868 c -0.32624,0.423738 -0.55958,0.909188 -0.77555,1.395465 -0.37442,0.944047 -0.76853,1.879682 -1.17251,2.811405 -0.32743,0.753218 -0.68927,1.490551 -1.03642,2.234689 -0.24569,0.538977 -0.49684,1.075222 -0.75424,1.608693 -0.035,0.07352 -0.0701,0.147045 -0.10513,0.220567 -0.26774,0.561708 0.52663,0.940348 0.79437,0.37864 v 0 c 0.0344,-0.07227 0.0689,-0.144534 0.10333,-0.216799 0.25906,-0.536925 0.51188,-1.076616 0.75916,-1.619073 0.35053,-0.751427 0.71589,-1.495973 1.04631,-2.256655 0.40315,-0.929838 0.7971,-1.863349 1.17004,-2.805779 0.17868,-0.406697 0.37258,-0.809623 0.63291,-1.171671 0.40976,-0.468291 -0.25251,-1.047776 -0.66227,-0.579482 z" />
  <path
     style="fill:#000000;fill-opacity:1;fill-rule:nonzero;stroke:none;stroke-width:0.264583"
     id="path12"
     d="m 180.15323,85.720378 c -0.24424,0.43621 -0.48703,0.873265 -0.73295,1.308552 -0.55301,0.977398 -1.11665,1.948752 -1.67977,2.920349 -0.3955,0.679911 -0.78248,1.364732 -1.16415,2.052482 -0.23522,0.424616 -0.45839,0.855705 -0.68571,1.284557 -0.10545,0.194937 -0.20376,0.393573 -0.30608,0.590135 -0.28719,0.552021 0.49349,0.958159 0.78067,0.40614 v 0 c 0.10119,-0.194622 0.19866,-0.391154 0.30295,-0.584168 0.22465,-0.42387 0.44523,-0.849931 0.67763,-1.269651 0.37901,-0.682976 0.7633,-1.363043 1.15606,-2.038223 0.56474,-0.974399 1.13,-1.948561 1.6846,-2.928778 0.26305,-0.465672 0.52784,-0.930783 0.77905,-1.402932 0.23933,-0.574389 -0.57298,-0.91285 -0.8123,-0.338463 z" />
  <path
     style="fill:#000000;fill-opacity:1;fill-rule:nonzero;stroke:none;stroke-width:0.264583"
     id="path13"
     d="m 190.35029,79.375998 c -0.27661,0.438613 -0.50338,0.905457 -0.72637,1.372833 -0.0659,0.155204 -0.13417,0.30939 -0.19757,0.465613 -0.22142,0.545537 -0.41934,1.100749 -0.62815,1.651138 -0.22767,0.600083 -0.22186,0.579898 -0.45718,1.177652 -0.40325,1.019527 -0.82314,2.03227 -1.25409,3.040357 -0.15363,0.357901 -0.30609,0.716303 -0.45877,1.07461 -0.24393,0.57245 0.56563,0.917422 0.80956,0.344974 v 0 c 0.15255,-0.357994 0.30488,-0.716084 0.45837,-1.073673 0.43428,-1.015905 0.85742,-2.036506 1.26378,-3.063947 0.23817,-0.605128 0.23195,-0.583822 0.46204,-1.190284 0.20457,-0.53921 0.39868,-1.083011 0.61482,-1.617773 0.0583,-0.144267 0.12105,-0.2867 0.18158,-0.430051 0.20663,-0.434007 0.4162,-0.867987 0.67222,-1.275583 0.33649,-0.523428 -0.40375,-0.999294 -0.74024,-0.475866 z" />
  <path
     style="fill:none;stroke:#000000;stroke-width:0.88;stroke-linecap:round;stroke-linejoin:round"
     d="m 182.62371,14.166293 c -0.0736,-3.489602 -0.12681,-6.2616195 -0.16197,-7.3013486"
     id="path23" />
  <path
     style="fill:none;stroke:#000000;stroke-width:0.88;stroke-linecap:round;stroke-linejoin:round"
     d="m 182.96947,27.738393 c -0.0916,-2.781589 -0.17067,-6.441968 -0.23818,-9.327981"
     id="path21"
     sodipodi:nodetypes="cc" />
  <path
     style="fill:none;stroke:#000000;stroke-width:0.88;stroke-linecap:round;stroke-linejoin:round"
     d="m 183.416,36.66987 c -0.67566,-2.808033 -6.24329,-1.168892 -4.92402,1.477145 2.29082,4.594683 5.41694,3.694593 4.92402,-1.477145 -0.1069,-1.121549 -0.2041,-2.810427 -0.29216,-4.827658"
     id="path8" />
  <path
     style="fill:none;stroke:#000000;stroke-width:0.879999;stroke-linecap:round;stroke-linejoin:round"
     d="m 179.10109,38.850355 c 4.92686,-2.921044 -3.41962,-8.038895 -5.29792,-10.266493"
     id="path9" />
  <path
     style="fill:none;stroke:#000000;stroke-width:0.879999;stroke-linecap:round;stroke-linejoin:round"
     d="m 166.97191,0.43999949 c 4.33522,1.02843051 8.72776,1.05004041 13.13335,1.05004041 -6.58052,6.6059123 9.56425,7.37767 5.40344,0.5250202 1.74486,0.2455086 3.49815,0.2250086 5.25334,0.2250086"
     id="path11"
     sodipodi:nodetypes="cccc" />
  <path
     style="fill:none;stroke:#000000;stroke-width:0.879999;stroke-linecap:round;stroke-linejoin:round"
     d="m 177.53147,13.550904 c 1.35758,-2.088798 2.466,-4.5069343 3.4522,-6.6752562"
     id="path15" />
  <path
     style="fill:none;stroke:#000000;stroke-width:0.879999;stroke-linecap:round;stroke-linejoin:round"
     d="m 177.32849,1.6400456 c -1.4259,2.2000844 -2.85181,4.4001691 -4.27772,6.6002534 0,0.025 0,0.050002 0,0.075003"
     id="path16" />
  <path
     style="fill:none;stroke:#000000;stroke-width:0.879999;stroke-linecap:round;stroke-linejoin:round"
     d="m 189.93651,2.3900745 c -1.40089,2.400092 -2.80178,4.8001842 -4.20267,7.2002764 -0.025,0.050002 -0.0501,0.1000034 -0.075,0.1500056"
     id="path17" />
  <path
     style="fill:none;stroke:#000000;stroke-width:0.879999;stroke-linecap:round;stroke-linejoin:round"
     d="m 176.81273,20.121545 c 2.0628,1.760964 3.58127,2.531194 5.92229,4.78065"
     id="path18"
     sodipodi:nodetypes="cc" />
  <path
     style="fill:none;stroke:#000000;stroke-width:0.879999;stroke-linecap:round;stroke-linejoin:round"
     d="m 179.88091,22.048075 c 0.94393,-2.082501 1.72664,-2.240996 2.99961,-3.389267 3.84299,2.552866 3.63365,7.149773 1.94457,9.454273"
     id="path19"
     sodipodi:nodetypes="ccc" />
  <path
     style="fill:none;stroke:#ff4400;stroke-width:0.88;stroke-linecap:round;stroke-linejoin:round;stroke-opacity:1"
     d="m 183.12384,31.842212 c -0.055,-1.259348 -0.10639,-2.64667 -0.15437,-4.103819"
     id="path20" />
  <path
     style="fill:none;stroke:#ff4400;stroke-width:0.88;stroke-linecap:round;stroke-linejoin:round;stroke-opacity:1"
     d="m 182.73129,18.410412 c -0.0398,-1.702732 -0.0756,-2.728901 -0.10758,-4.244119"
     id="path22"
     sodipodi:nodetypes="cc" />
</svg>
