<?xml version="1.0" encoding="UTF-8" standalone="no"?>
<svg
   id="svg1124"
   version="1.1"
   viewBox="0 0 42.717717 62.127331"
   height="62.127331mm"
   width="42.717716mm"
   sodipodi:docname="4 ni li soweli..svg"
   inkscape:version="1.3 (0e150ed6c4, 2023-07-21)"
   xmlns:inkscape="http://www.inkscape.org/namespaces/inkscape"
   xmlns:sodipodi="http://sodipodi.sourceforge.net/DTD/sodipodi-0.dtd"
   xmlns="http://www.w3.org/2000/svg"
   xmlns:svg="http://www.w3.org/2000/svg"
   xmlns:rdf="http://www.w3.org/1999/02/22-rdf-syntax-ns#"
   xmlns:cc="http://creativecommons.org/ns#"
   xmlns:dc="http://purl.org/dc/elements/1.1/">
  <sodipodi:namedview
     id="namedview1"
     pagecolor="#ffffff"
     bordercolor="#000000"
     borderopacity="0.25"
     inkscape:showpageshadow="2"
     inkscape:pageopacity="0.0"
     inkscape:pagecheckerboard="0"
     inkscape:deskcolor="#d1d1d1"
     inkscape:document-units="mm"
     inkscape:zoom="2"
     inkscape:cx="17.75"
     inkscape:cy="124.75"
     inkscape:window-width="1920"
     inkscape:window-height="1051"
     inkscape:window-x="-9"
     inkscape:window-y="-9"
     inkscape:window-maximized="1"
     inkscape:current-layer="layer1" />
  <defs
     id="defs1118" />
  <metadata
     id="metadata1121">
    <rdf:RDF>
      <cc:Work
         rdf:about="">
        <dc:format>image/svg+xml</dc:format>
        <dc:type
           rdf:resource="http://purl.org/dc/dcmitype/StillImage" />
        <dc:title />
      </cc:Work>
    </rdf:RDF>
  </metadata>
  <g
     transform="translate(-49.595752,-81.379895)"
     id="layer1">
    <g
       transform="matrix(0.26458333,0,0,0.26458333,52.226691,103.27463)"
       id="g1693">
      <path
         style="opacity:0.2"
         d="m 54.4,127.4 c 9.1,5.9 23.5,12.9 10.6,19.8 C 51.3,154.5 33.1,145.9 26.3,138 17.2,127.5 6.9,124 2.4,122.8 c -3.7,-1 -3.8,-3.1 4.4,-1.8 1.4,0.2 11.6,1.5 21.6,2.9 10.2,1.4 23.2,1.7 26,3.5 z"
         id="path1669" />
      <path
         style="fill:#999999"
         d="m 46.3,127.9 c 0,0 0.8,2.9 2.8,4.1 2,1.2 6.1,3.4 6.5,4.3 0.4,0.9 1.4,3 3.5,2.6 2.1,-0.4 4.8,-2.2 4.1,-3.5 -0.7,-1.3 -1.7,-0.9 -3.8,-1.4 -2.1,-0.5 -5.2,-2.4 -6,-3.7 -0.9,-1.3 -1.7,-4 -1.7,-4 z"
         id="path1671" />
      <path
         style="opacity:0.2"
         d="m 46.3,127.9 c 0,0 0.8,2.9 2.8,4.1 2,1.2 6.1,3.4 6.5,4.3 0.4,0.9 1.4,3 3.5,2.6 2.1,-0.4 4.8,-2.2 4.1,-3.5 -0.7,-1.3 -1.7,-0.9 -3.8,-1.4 -2.1,-0.5 -5.2,-2.4 -6,-3.7 -0.9,-1.3 -1.7,-4 -1.7,-4 z"
         id="path1673" />
      <path
         style="fill:#999999"
         d="m 19.4,120.4 c 0,0 -8.5,-1.5 -12,-8.3 C 4,105.3 5.4,99.8 4.5,98.2 3.6,96.6 1.4,97 0.9,98.8 c -0.5,1.8 -1.2,13.5 4.9,19.8 6.3,6.3 13.8,7.8 13.8,7.8 0,0 1.8,6.3 5.5,8 3.7,1.7 5.1,0.5 5.1,0.5 0,0 -0.9,2 -0.2,3.1 0.7,1 8.4,3.1 9.5,4 1.1,1 2.1,3.8 4.9,2.8 2.8,-1 3.7,-2.1 3,-3.4 -0.7,-1.3 -2.6,-1.8 -4,-1.9 -1.4,-0.1 -6.5,-2.5 -6.5,-2.5 0,0 2.2,-2.1 2.7,-3.7 0.5,-1.6 0.3,-2.7 0.3,-2.7 l 6.9,-2.6 c 0,0 1.2,5.4 1.5,9.2 0.3,3.8 0.5,5.6 0.9,7.4 0.4,1.9 0.2,4.3 3.3,4 3.1,-0.3 4.3,-1.1 3.9,-2.3 -0.4,-1.2 -2.4,-2.4 -2.8,-4.6 -0.4,-2.1 0.1,-12.9 0.4,-14 0.2,-1.1 2.5,-7.1 2.5,-7.1 l 2.5,-0.5 c 0,0 1.1,7.8 1.5,11.3 0.4,3.5 0.7,9.2 0.7,10.4 0,1.2 0.7,2.6 2.2,2.7 1.5,0.2 4.6,-0.8 4.5,-2.1 -0.1,-1.3 -2.3,-3.1 -2.5,-4.6 -0.2,-1.5 -0.5,-14.8 0.9,-19.4 1.4,-4.6 2.4,-7.1 2.4,-7.1 L 60,91.5 c 0,0 -3.5,0.8 -7.9,0.7 -4.5,-0.1 -17.8,-0.1 -25.4,9.5 -7.8,9.7 -7.3,18.7 -7.3,18.7 z"
         id="path1675" />
      <path
         style="fill:#e5e5e5"
         d="m 56.3,120.7 c 0,0 2.5,-2.1 2.7,-4.9 0.2,-2.8 1.8,-5.1 3.2,-6 1.4,-1 6.2,-3.4 6.2,-3.4 0,0 1.3,4.3 -0.5,7.3 -1.8,3 -4.8,5.4 -7.3,6.2 -2.5,0.8 -4.3,0.8 -4.3,0.8 z"
         id="path1677" />
      <path
         style="opacity:0.2"
         d="m 46.8,128 c 0,0 -0.7,-3.1 -1,-5.4 -0.2,-2.4 -0.9,-6 -0.9,-6 0,0 -0.9,2.1 -2.8,3 -1.9,0.9 -3.7,1.3 -5.3,0.6 -1.6,-0.7 -5.4,-2.7 -5.4,-2.7 0,0 5.7,3.8 6.8,6.9 1.2,3.1 1.6,6.3 1.6,6.3 z"
         id="path1679" />
      <path
         style="fill:#999999"
         d="m 58.2,96 c 0,0 -0.5,2.8 0.7,5.7 1.3,2.9 4,5.2 5.4,6.9 1.3,1.6 2.8,3.2 5.8,2.9 3,-0.4 3.2,-1.9 4.1,-3.1 0.9,-1.2 4.1,-5.7 4.6,-8.7 0.5,-3.1 0.1,-5.3 0.1,-5.3 0,0 2.1,-7.3 0.5,-8.2 -1.6,-0.9 -3.2,2.7 -5.1,2.9 -2,0.2 -2.9,-0.3 -5.1,-0.2 -2.2,0.1 -5.7,1 -5.7,1 0,0 -3.3,-3.4 -5.3,-2.7 -2.4,0.9 0,8.8 0,8.8 z"
         id="path1681" />
      <path
         style="fill:#2d3134"
         d="m 69.7,110.5 c -0.6,0 -1.7,-1 -1.6,-1.5 0.1,-0.5 2.9,-0.5 3.1,0.1 0.2,0.5 -0.9,1.4 -1.5,1.4 z"
         id="path1683" />
      <path
         style="fill:#2d3134"
         d="m 72,104.4 c 0,0 0.3,-1.8 1.8,-2.4 1.5,-0.6 2.1,-0.3 2.1,-0.3 0,0 -0.3,1.7 -1.5,2.3 -1.1,0.6 -2.4,0.4 -2.4,0.4 z"
         id="path1685" />
      <path
         style="fill:#2d3134"
         d="m 67.3,104.4 c 0,0 -0.6,-1.8 -2,-2.3 -1.4,-0.5 -2.4,0 -2.4,0 0,0 0.2,1.5 1.4,2 1.2,0.5 3,0.3 3,0.3 z"
         id="path1687" />
      <path
         style="opacity:0.2"
         d="m 72.9,93.3 c 0,0 4.8,-7.5 6.4,-6.9 1.2,0.4 -0.4,8 -0.4,8 0,0 -1.3,-1.2 -3,-1.5 -1.6,-0.3 -3,0.4 -3,0.4 z"
         id="path1689" />
      <path
         style="opacity:0.2"
         d="m 65.2,93.2 c 0,0 -5.3,-6.3 -6.9,-5.8 -2.2,0.7 -0.1,8.6 -0.1,8.6 0,0 1.6,-2.1 2.9,-2.6 1.3,-0.5 4.1,-0.2 4.1,-0.2 z"
         id="path1691" />
    </g>
    <g
       transform="matrix(0.26458333,0,0,0.26458333,76.394373,122.7957)"
       id="g1735">
      <path
         style="opacity:0.2"
         d="m 24.5,61.8 c -6.5,4 -6.9,8.7 1.4,13.2 9.2,4.9 14.6,3.9 21.7,-0.3 6.2,-3.6 4.8,-8.5 -5.7,-12.8 C 33.5,58.6 29.1,59 24.5,61.8 Z"
         id="path1715" />
      <path
         style="fill:#baa794"
         d="m 39.7,61.7 c -0.1,1.1 -1.5,7.6 -2.3,8.7 -0.8,1.1 -5.8,4.2 -5.8,4.2 l 5.2,-1.7 1.2,3.1 0.7,-3.4 4.1,-1.8 -3.4,-0.3 c 0,0 1.5,-4.9 1.9,-6.2 0.4,-1.3 0.6,-2.5 0.6,-2.5 z"
         id="path1717" />
      <path
         style="fill:#baa794"
         d="m 32.6,58.1 c 0,0 -1.7,7.3 -2.1,8.1 -0.4,0.9 -6.1,3.6 -6.1,3.6 l 5,-1.4 0.7,3 1.3,-3 4.1,-1.3 -3,-0.6 c 0,0 1.4,-5.4 1.8,-6.8 0.4,-1.4 0.2,-1.9 0.2,-1.9 z"
         id="path1719" />
      <path
         style="fill:#825012"
         d="m 25.5,25.8 c 3.9,-2.7 11.7,-4.7 16.2,-4.3 4.5,0.4 12.4,2.8 13.5,4.6 1.1,1.9 7.9,16.1 0.4,25.6 -4.5,5.7 -9.1,5.7 -9.1,5.7 0,0 -1.3,4.9 -5.3,4.9 -3.6,0 -5.8,-3.6 -5.8,-3.6 0,0 -1.5,0.3 -3.3,-0.1 -1.9,-0.4 -3.3,-2.5 -3.3,-2.5 0,0 -8.9,-0.6 -10.8,-10.4 -2.1,-11 2.9,-16.7 7.5,-19.9 z"
         id="path1721" />
      <path
         style="fill:#762c07"
         d="M 41.4,22.3 C 41,21.6 43.4,16.5 45.2,11.2 47,5.6 47.4,1.6 49,1.4 c 1.6,-0.2 1.9,1.5 1.9,1.5 0,0 0.5,-2.2 2.1,-1.9 1.6,0.3 1.3,2.5 1.3,2.5 0,0 0.6,-1.1 1.9,-0.3 1.3,0.7 0.5,3.2 0.5,3.2 0,0 0.9,-1.1 2,-0.4 1.6,0.9 1.7,8.8 1.2,13.7 -0.7,7.2 -2.2,12.3 -2.2,12.3 0,0 -3.7,-6.2 -7.8,-7 -4.1,-0.8 -7.6,-0.9 -8.5,-2.7 z"
         id="path1723" />
      <path
         style="fill:#762c07"
         d="m 20.2,16.9 c 0.6,-1 2.7,-3.4 5.3,-2.3 2.6,1.1 4.6,4.2 6.4,7.7 1.8,3.5 2.1,5.4 4,6.9 1.1,0.9 5.2,2.6 5.2,2.6 l -6.4,0.6 0.2,4.1 -5,-2.1 -1.5,5.2 -3.5,-4.4 -4.1,4.2 -0.1,-4.4 -3.5,1.6 c 0,0 1.2,-1.8 1.9,-3.3 3.5,-7.7 -0.8,-13.5 1.1,-16.4 z"
         id="path1725" />
      <path
         style="fill:#baa794"
         d="m 17.8,18.3 c -1.3,0.6 -1.8,4.9 -1.8,4.9 0,0 2,-1.4 3.4,-1.8 1.5,-0.4 -0.5,-3.6 -1.6,-3.1 z"
         id="path1727" />
      <path
         style="fill:#cc291f"
         d="m 19.6,18 c 1.1,0 0.9,-1.3 2.7,-2.8 1.5,-1.3 2.6,-1.8 2.6,-2.6 0,-1.4 -2.5,-2 -2.7,-0.7 -0.1,0.7 -1.1,-0.5 -2,0.3 -0.8,0.6 -0.3,1.5 -0.5,1.8 -0.1,0.3 -1.4,0.2 -1.9,1 -0.4,0.8 -0.1,3 1.8,3 z"
         id="path1729" />
      <path
         style="fill:#cc291f"
         d="m 19.9,20.5 c -1.3,0.4 -2.2,2.7 -0.5,3.7 1.9,1.2 3,-2.8 3,-2.8 0,0 3.4,-2.1 3,-3.2 C 25,17.1 20.5,18 20.5,18 c 0,0 -1.8,-0.4 -2.7,0.3 -0.9,0.7 -0.9,1.1 -0.9,1.1 0,0 1.2,-0.3 2.2,0.2 1,0.5 0.8,0.9 0.8,0.9 z"
         id="path1731" />
      <path
         style="fill:#2d3134"
         d="m 23.3,18.2 c 0.6,-0.2 1.1,0.9 0.3,1.1 -0.7,0.3 -1.1,-0.8 -0.3,-1.1 z"
         id="path1733" />
    </g>
    <path
       style="fill:#ff4400;fill-opacity:1;fill-rule:nonzero;stroke:none;stroke-width:0.264583"
       d="m 62.750772,101.69062 c -0.08833,-0.98527 -0.134579,-1.972448 -0.199261,-2.959251 -0.02122,-0.32378 -0.04867,-0.64711 -0.073,-0.97066 -0.157311,-1.56837 -0.350508,-3.13209 -0.534496,-4.69744 -0.02263,-0.27319 -0.05498,-0.545752 -0.0679,-0.819576 -0.05954,-1.26263 0.03753,-2.535891 0.289073,-3.773896 0.120796,-0.449354 0.190052,-0.775455 0.374683,-1.201722 0.197545,-0.456083 0.590377,-1.090313 0.933777,-1.452578 0.110908,-0.117 0.245662,-0.208826 0.368493,-0.313239 0.258556,-0.161154 0.496327,-0.338715 0.796294,-0.419186 0.555442,-0.149004 1.15074,0.03124 1.689003,0.155737 0.750285,0.241541 1.53741,0.526676 1.937463,1.257792 0.04086,0.106471 0.0909,0.209859 0.122583,0.319412 0.215818,0.746301 0.06985,1.53729 -0.04773,2.285599 -0.09363,0.44788 -0.08957,0.482034 -0.220953,0.908836 -0.132967,0.431949 -0.117354,0.334612 -0.26955,0.739881 -0.02684,0.07146 -0.04983,0.14431 -0.07475,0.216466 -0.02176,0.0566 -0.04351,0.113197 -0.06527,0.169796 -0.196774,0.590322 0.638068,0.868602 0.834842,0.27828 l 2.3e-5,10e-6 c 0.196223,-0.527477 0.407978,-1.049347 0.542923,-1.597432 0.04351,-0.176721 0.07585,-0.356007 0.113771,-0.53401 0.146166,-0.866456 0.281904,-1.77259 0.04996,-2.63833 -0.04127,-0.154027 -0.106306,-0.300678 -0.159459,-0.451018 -0.07832,-0.13716 -0.143225,-0.2829 -0.23495,-0.411481 -0.541386,-0.758914 -1.405508,-1.100679 -2.256372,-1.380535 -0.656845,-0.162391 -1.371072,-0.35192 -2.051196,-0.194411 -0.529373,0.122597 -0.703107,0.271408 -1.161299,0.541175 -0.158923,0.1301 -0.332256,0.24436 -0.476767,0.390302 -0.46238,0.466958 -0.885611,1.12361 -1.151697,1.72321 -0.230177,0.518684 -0.29374,0.831638 -0.443061,1.376905 -0.27404,1.315756 -0.381883,2.670297 -0.319762,4.013678 0.01362,0.294571 0.04717,0.587885 0.07075,0.881825 0.183368,1.57093 0.378221,3.13994 0.535979,4.71375 0.02369,0.31625 0.05042,0.63228 0.07108,0.94874 0.0645,0.987843 0.111153,1.976021 0.199496,2.962321"
       id="path10" />
    <path
       style="fill:#000000;fill-opacity:1;fill-rule:nonzero;stroke:none;stroke-width:0.264583"
       d="m 63.677948,110.58652 c -0.08441,-0.98406 -0.225645,-1.96074 -0.325215,-2.9431 -0.143998,-1.36542 -0.287957,-2.73065 -0.412707,-4.09796 -0.02233,-0.21643 -0.170897,-1.65007 -0.189254,-1.85484 l -0.87728,0.069 c 0.0204,0.22772 0.165835,1.63037 0.191195,1.8762 0.124832,1.36797 0.268891,2.73385 0.412914,4.09994 0.0983,0.97671 0.239902,1.94758 0.323574,2.92592 z"
       id="path9"
       sodipodi:nodetypes="ccccccccc" />
    <path
       style="fill:#ff4400;fill-opacity:1;fill-rule:nonzero;stroke:none;stroke-width:0.264583"
       d="m 62.801175,110.66163 c 0.04838,0.60397 0.06174,1.20987 0.0671,1.8155 -0.0071,0.38167 0.0018,0.76114 0.02947,1.14163 0.03514,0.47289 0.05327,0.94681 0.06422,1.42081 0.01442,0.62209 0.894184,0.60169 0.879763,-0.0204 v 0 c -0.01136,-0.48853 -0.03008,-0.97696 -0.06631,-1.46434 -0.02636,-0.36181 -0.03411,-0.72247 -0.02719,-1.08554 -0.0056,-0.62809 -0.01984,-1.25643 -0.07028,-1.88277"
       id="path1" />
    <path
       style="fill:#ff4400;fill-opacity:1;fill-rule:nonzero;stroke:none;stroke-width:0.264583"
       id="path2"
       d="m 61.077953,114.64644 c 0.215162,0.33057 0.463753,0.65096 0.777534,0.89459 0.275149,0.21364 0.375281,0.24191 0.687072,0.39291 0.148323,0.0413 0.29427,0.0924 0.44497,0.12394 0.517383,0.10836 1.083559,0.10843 1.594496,-0.0352 0.118371,-0.0333 0.231253,-0.0837 0.346879,-0.12549 0.355523,-0.16498 0.664735,-0.4076 0.894911,-0.72583 0.100403,-0.13882 0.122661,-0.19731 0.196189,-0.34481 0.27074,-0.56027 -0.521599,-0.94315 -0.792338,-0.38288 v 0 c -0.126438,0.27847 -0.334989,0.4929 -0.61026,0.6305 -0.07143,0.029 -0.140466,0.0647 -0.214279,0.0869 -0.485011,0.1458 -1.002173,0.10415 -1.485182,-0.023 -0.08452,-0.0383 -0.171793,-0.0712 -0.253572,-0.11506 -0.140728,-0.0755 -0.311607,-0.19353 -0.42504,-0.30822 -0.0665,-0.0672 -0.121605,-0.14486 -0.181917,-0.21769 -0.165078,-0.19936 -0.104367,-0.11619 -0.224869,-0.30337 -0.320147,-0.53358 -1.074741,-0.0808 -0.754594,0.45276 z" />
    <path
       style="fill:#ff4400;fill-opacity:1;fill-rule:nonzero;stroke:none;stroke-width:0.264583"
       id="path3"
       d="m 59.866623,116.1881 c 0.02969,0.037 0.05615,0.0769 0.08906,0.11104 0.319474,0.3319 0.735433,0.61109 1.132646,0.83972 0.133889,0.0771 0.272775,0.14511 0.409162,0.21766 0.756101,0.32383 1.569175,0.54052 2.393621,0.58492 0.160716,0.009 0.321893,0.002 0.48284,0.003 0.571906,-0.038 1.14706,-0.12761 1.679167,-0.35019 0.276488,-0.11565 0.413018,-0.20644 0.666045,-0.35494 0.257622,-0.17563 0.517117,-0.35137 0.742866,-0.56805 0.16185,-0.15535 0.302198,-0.32893 0.436536,-0.50771 0.370824,-0.49969 -0.335843,-1.02411 -0.706668,-0.52442 v 0 c -0.09531,0.13084 -0.197865,0.25968 -0.313496,0.37351 -0.183103,0.18025 -0.398176,0.32177 -0.607208,0.46922 -0.177344,0.10587 -0.325251,0.20185 -0.515829,0.2843 -0.436151,0.18868 -0.910545,0.26082 -1.38076,0.29828 -0.131418,6.4e-4 -0.262991,0.008 -0.394255,0.002 -0.711764,-0.0347 -1.414929,-0.21767 -2.07145,-0.48736 -0.118254,-0.0621 -0.238767,-0.12012 -0.354763,-0.18636 -0.180944,-0.10333 -0.41915,-0.26143 -0.590141,-0.38608 -0.05015,-0.0366 -0.256143,-0.19448 -0.32507,-0.26163 -0.02105,-0.0205 -0.03748,-0.0453 -0.05622,-0.0679 -0.361678,-0.50635 -1.077763,0.005 -0.716085,0.51149 z" />
    <path
       style="fill:#ff4400;fill-opacity:1;fill-rule:nonzero;stroke:none;stroke-width:0.264583"
       id="path13"
       d="m 69.751302,82.259901 c 0.70544,0.0031 1.410929,0.02458 2.116001,0.04752 0.568657,0.03091 1.140319,0.02154 1.707524,0.07826 0.208027,0.0208 0.171716,-0.033 0.215149,0.04985 -0.04696,-0.02783 -0.110172,-0.03835 -0.140877,-0.08349 -0.0495,-0.07276 -0.06033,-0.165447 -0.0858,-0.249687 -0.0045,-0.01481 0.01169,-0.04809 -0.0037,-0.04627 -0.02448,0.0029 -0.03366,0.03608 -0.05175,0.05281 -0.04587,0.04243 -0.09387,0.08251 -0.14005,0.124606 -0.08368,0.07628 -0.166348,0.153663 -0.249522,0.230495 -0.553406,0.495537 -1.09321,1.005699 -1.634527,1.514305 -0.137318,0.125824 -0.259738,0.265477 -0.380545,0.406662 -0.02061,0.02408 -0.04145,0.04796 -0.06247,0.07168 -0.01626,0.01834 -0.03631,0.03375 -0.04936,0.05449 -0.03957,0.06285 -0.07183,0.130028 -0.107739,0.195042 0.01755,0.147679 -0.0074,0.306972 0.05265,0.443037 0.05388,0.122117 0.17366,0.203668 0.272326,0.29356 0.108952,0.09926 0.233129,0.18042 0.348541,0.272095 0.136513,0.108437 0.276343,0.213034 0.40721,0.328222 0.437764,0.385314 0.430988,0.413259 0.809957,0.867001 0.109169,0.190915 0.230529,0.375358 0.327506,0.572745 0.322392,0.656197 0.533329,1.37662 0.577788,2.108488 0.04314,0.710089 -0.02849,1.062769 -0.108183,1.771894 -0.154769,0.767605 -0.317508,1.549223 -0.683009,2.250343 -0.08824,0.16926 -0.193572,0.32985 -0.30673,0.48357 -0.269988,0.36678 -0.343936,0.39227 -0.685159,0.66887 -0.474727,0.30003 -0.236765,0.16603 -0.711784,0.40572 -0.553984,0.28337 -0.153231,1.06683 0.400753,0.78345 v 0 c 0.581728,-0.30088 0.289023,-0.13165 0.874762,-0.51344 0.42874,-0.36547 0.535366,-0.41166 0.868707,-0.87987 0.136518,-0.19175 0.261717,-0.3926 0.368584,-0.60232 0.398285,-0.78163 0.583848,-1.646571 0.74864,-2.500471 0.087,-0.812858 0.162647,-1.175187 0.104408,-1.993356 -0.05983,-0.840459 -0.30674,-1.677816 -0.689145,-2.427129 -0.122683,-0.240393 -0.276189,-0.463767 -0.414283,-0.69565 -0.152748,-0.17979 -0.296228,-0.367884 -0.458243,-0.53937 -0.304692,-0.322504 -0.551756,-0.514686 -0.892499,-0.784094 -0.09713,-0.07679 -0.191708,-0.157326 -0.294397,-0.226503 -0.01994,-0.01343 -0.0603,-0.04088 -0.06964,-0.01873 -0.03416,0.08096 -0.02188,0.174379 -0.03283,0.261569 -0.01846,0.02182 -0.08281,0.07352 -0.05539,0.06546 0.02883,-0.0085 0.04049,-0.04441 0.06039,-0.06693 0.124481,-0.140825 0.2406,-0.289277 0.381757,-0.414703 0.539508,-0.506907 1.077489,-1.015378 1.629076,-1.509228 0.08248,-0.07619 0.165206,-0.15213 0.247447,-0.228585 0.300473,-0.279331 0.619631,-0.553975 0.413566,-1.025144 -0.04454,-0.101851 -0.160674,-0.153673 -0.241011,-0.23051 -0.08195,-0.02894 -0.161324,-0.06658 -0.24584,-0.08682 -0.09987,-0.02392 -0.502448,-0.05218 -0.574381,-0.05649 -0.472634,-0.02834 -0.94641,-0.03312 -1.419317,-0.05497 -0.714596,-0.02318 -1.42961,-0.04494 -2.14458,-0.04799 -0.622254,0 -0.622254,0.88 0,0.88 z" />
    <path
       style="fill:#ff4400;fill-opacity:1;fill-rule:nonzero;stroke:none;stroke-width:0.264583"
       id="path8"
       d="m 50.451688,125.4262 c 0.07832,-0.21786 0.205525,-0.413 0.327375,-0.60816 0.197206,-0.31584 0.101815,-0.16691 0.301901,-0.47125 0.117472,-0.19125 0.259933,-0.3641 0.403099,-0.53607 0.397217,-0.47898 -0.280159,-1.04073 -0.677376,-0.56175 v 0 c -0.16332,0.19758 -0.325662,0.39637 -0.461246,0.6147 -0.257965,0.39306 -0.529106,0.78634 -0.70606,1.22407 -0.239329,0.57439 0.572979,0.91285 0.812307,0.33846 z" />
    <path
       style="fill:#ff4400;fill-opacity:1;fill-rule:nonzero;stroke:none;stroke-width:0.264583"
       id="path11"
       d="m 53.377079,122.19599 c 0.198251,-0.23401 0.476052,-0.37685 0.739434,-0.52376 0.451054,-0.25276 0.910308,-0.49184 1.385828,-0.69533 0.571818,-0.24541 0.224763,-1.05408 -0.347055,-0.80867 v 0 c -0.50367,0.2167 -0.991576,0.46782 -1.469397,0.73656 -0.35299,0.19908 -0.71404,0.40196 -0.976956,0.7185 -0.404957,0.47245 0.263189,1.04515 0.668146,0.5727 z" />
    <path
       style="fill:#ff4400;fill-opacity:1;fill-rule:nonzero;stroke:none;stroke-width:0.264583"
       id="path12"
       d="m 57.395146,120.42964 c 0.358378,-0.10992 0.729636,-0.16445 1.097657,-0.23056 0.433735,-0.0733 0.866855,-0.15081 1.301574,-0.21814 0.04452,-0.006 0.08904,-0.0128 0.133558,-0.0191 0.615954,-0.0883 0.491056,-0.95941 -0.124899,-0.87109 v 0 c -0.04783,0.007 -0.09566,0.0137 -0.143495,0.0206 -0.441641,0.0685 -0.881724,0.14702 -1.322361,0.22162 -0.400855,0.072 -0.804718,0.13359 -1.1949,0.2538 -0.596011,0.1788 -0.343145,1.02169 0.252866,0.84289 z" />
    <path
       style="fill:#ff4400;fill-opacity:1;fill-rule:nonzero;stroke:none;stroke-width:0.264583"
       id="path14"
       d="m 62.849775,120.01437 c 0.172029,-0.0288 0.346767,-0.0396 0.520393,-0.0553 0.304964,-0.0267 0.610993,-0.0372 0.916899,-0.0459 0.275998,-0.007 0.552081,-0.01 0.82815,-0.0116 0.136561,-8e-4 0.06944,-5.3e-4 0.20137,-0.001 0.622246,-0.003 0.617823,-0.88312 -0.0044,-0.87999 v 0 c -0.133419,7.9e-4 -0.06555,2.6e-4 -0.203595,0.001 -0.28219,0.002 -0.564394,0.005 -0.84651,0.0119 -0.324056,0.009 -0.648228,0.0206 -0.97127,0.0491 -0.228225,0.0207 -0.459265,0.0321 -0.682768,0.0856 -0.598312,0.17094 -0.356557,1.01709 0.241755,0.84614 z" />
    <path
       style="fill:#ff4400;fill-opacity:1;fill-rule:nonzero;stroke:none;stroke-width:0.264583"
       id="path15"
       d="m 67.554537,120.08618 c 0.177101,-0.006 0.352513,0.0263 0.527569,0.0492 0.359582,0.0534 0.713043,0.13977 1.065309,0.22818 0.239761,0.0648 0.477064,0.13781 0.714794,0.2095 0.595758,0.17965 0.849815,-0.66288 0.254057,-0.84252 v 0 c -0.25096,-0.0757 -0.501494,-0.15274 -0.754752,-0.22054 -0.385191,-0.0966 -0.771899,-0.1901 -1.165281,-0.24719 -0.212848,-0.0278 -0.426328,-0.0628 -0.641696,-0.0566 -0.622254,0 -0.622254,0.88001 0,0.88001 z" />
    <path
       style="fill:#ff4400;fill-opacity:1;fill-rule:nonzero;stroke:none;stroke-width:0.264583"
       id="path16"
       d="m 72.101767,121.2977 c 0.02621,0.0266 0.05072,0.0549 0.07863,0.0797 0.02848,0.0253 0.181497,0.1428 0.213287,0.16756 0.115593,0.09 0.228915,0.18233 0.341448,0.27614 0.246459,0.20867 0.507959,0.39834 0.757327,0.60341 0.08452,0.0812 0.165721,0.1654 0.244984,0.25166 0.422206,0.4571 1.068646,-0.13999 0.64644,-0.59709 v 0 c -0.106992,-0.11538 -0.215516,-0.22929 -0.332765,-0.33449 -0.248004,-0.20361 -0.507203,-0.39294 -0.752716,-0.5996 -0.12059,-0.10041 -0.241993,-0.19928 -0.365798,-0.29571 -0.05025,-0.0391 -0.09559,-0.0863 -0.152155,-0.11557 -0.0049,-0.003 0.0057,0.01 0.0085,0.0143 -0.388719,-0.4859 -1.075883,0.0638 -0.687164,0.54973 z" />
    <path
       style="fill:#ff4400;fill-opacity:1;fill-rule:nonzero;stroke:none;stroke-width:0.264583"
       id="path17"
       d="m 74.59055,124.35525 c 0.295048,0.4235 0.520696,0.89059 0.745652,1.35369 0.185524,0.36308 0.312046,0.74877 0.416094,1.14152 0.160091,0.60131 1.010468,0.3749 0.850377,-0.22641 v 0 c -0.119509,-0.44695 -0.264861,-0.88602 -0.475028,-1.29984 -0.246747,-0.50724 -0.49586,-1.01772 -0.82101,-1.48045 -0.361678,-0.50635 -1.077763,0.005 -0.716085,0.51149 z" />
    <path
       style="fill:#ff4400;fill-opacity:1;fill-rule:nonzero;stroke:none;stroke-width:0.264583"
       id="path18"
       d="m 75.879702,129.04443 c 0.06215,0.33237 0.05901,0.67334 0.0662,1.01021 0.01692,0.56825 0.0065,1.1357 -0.05017,1.70132 -0.06168,0.61919 0.813985,0.70642 0.875666,0.0872 v 0 c 0.0596,-0.60093 0.07247,-1.20378 0.0543,-1.80747 -0.0081,-0.37216 -0.0072,-0.74843 -0.07484,-1.11574 -0.088,-0.616 -0.959156,-0.49155 -0.871156,0.12445 z" />
  </g>
</svg>
