<?xml version="1.0" encoding="UTF-8" standalone="no"?>
<svg
   id="svg3224"
   version="1.1"
   viewBox="0 0 132.62305 70.499222"
   height="70.499222mm"
   width="132.62305mm"
   sodipodi:docname="40 meli li pali e ijo ike tawa mije. meli li pali e ijo+ike tawa mije..svg"
   inkscape:version="1.3.2 (091e20e, 2023-11-25, custom)"
   xmlns:inkscape="http://www.inkscape.org/namespaces/inkscape"
   xmlns:sodipodi="http://sodipodi.sourceforge.net/DTD/sodipodi-0.dtd"
   xmlns:xlink="http://www.w3.org/1999/xlink"
   xmlns="http://www.w3.org/2000/svg"
   xmlns:svg="http://www.w3.org/2000/svg"
   xmlns:rdf="http://www.w3.org/1999/02/22-rdf-syntax-ns#"
   xmlns:cc="http://creativecommons.org/ns#"
   xmlns:dc="http://purl.org/dc/elements/1.1/">
  <sodipodi:namedview
     id="namedview1"
     pagecolor="#ffffff"
     bordercolor="#000000"
     borderopacity="0.25"
     inkscape:showpageshadow="2"
     inkscape:pageopacity="0.0"
     inkscape:pagecheckerboard="0"
     inkscape:deskcolor="#d1d1d1"
     inkscape:document-units="mm"
     inkscape:zoom="1.570629"
     inkscape:cx="254.67503"
     inkscape:cy="155.67011"
     inkscape:window-width="1920"
     inkscape:window-height="1051"
     inkscape:window-x="-9"
     inkscape:window-y="-9"
     inkscape:window-maximized="1"
     inkscape:current-layer="svg3224" />
  <defs
     id="defs3218">
    <linearGradient
       id="swatch13"
       inkscape:swatch="solid">
      <stop
         style="stop-color:#ff4400;stop-opacity:1;"
         offset="0"
         id="stop13" />
    </linearGradient>
    <linearGradient
       inkscape:collect="always"
       xlink:href="#swatch13"
       id="linearGradient13"
       x1="105.90589"
       y1="37.809639"
       x2="109.5559"
       y2="37.809639"
       gradientUnits="userSpaceOnUse"
       gradientTransform="matrix(0.87367478,0.48651041,0.48651041,-0.87367478,-11.056338,16.188975)" />
    <linearGradient
       inkscape:collect="always"
       xlink:href="#swatch13"
       id="linearGradient14"
       x1="110.65762"
       y1="40.815178"
       x2="119.60812"
       y2="40.815178"
       gradientUnits="userSpaceOnUse"
       gradientTransform="matrix(0.87367478,0.48651041,0.48651041,-0.87367478,-11.056338,16.188975)" />
    <linearGradient
       inkscape:collect="always"
       xlink:href="#swatch13"
       id="linearGradient15"
       x1="108.70436"
       y1="37.057148"
       x2="116.832"
       y2="37.057148"
       gradientUnits="userSpaceOnUse"
       gradientTransform="matrix(0.87367478,0.48651041,0.48651041,-0.87367478,-11.056338,16.188975)" />
  </defs>
  <metadata
     id="metadata3221">
    <rdf:RDF>
      <cc:Work
         rdf:about="">
        <dc:format>image/svg+xml</dc:format>
        <dc:type
           rdf:resource="http://purl.org/dc/dcmitype/StillImage" />
        <dc:title />
      </cc:Work>
    </rdf:RDF>
  </metadata>
  <g
     transform="translate(-88.343584,-110.07279)"
     id="layer1">
    <g
       transform="matrix(0.26458333,0,0,0.26458333,84.450135,135.51291)"
       id="g3804">
      <path
         style="opacity:0.2"
         d="m 209.7,107.5 c 0,0 27.3,5.5 24.9,7.4 -2.4,1.9 -17.2,3.7 -24.6,3.4 -9.9,-0.4 -30.8,4.1 -37.8,7 -9.5,3.8 -18.1,11.7 -20.8,14.1 -2.7,2.4 -15.4,11.1 -23.4,12 -21.1,2.3 -42.2,-5.7 -42.2,-5.7 0,0 -19.5,3 -26.8,7.5 -11.9,7.4 -12.2,2.7 -9.5,0.8 7.4,-5 37.1,-19.7 37.1,-19.7 l 17.7,-8.2 46.9,-9.5 c 0,0 -16.4,9.1 -25.2,11.7 -6.6,1.9 -15,2.3 -20.4,5.6 -4.5,2.7 -12.6,7.5 -12.6,7.5 l 44.6,-3.4 24,-19.2 25.9,-11.4 z"
         id="path3769" />
      <path
         style="fill:#fbd7c7"
         d="m 145.3,118.1 c -3.5,0.6 -8.1,4.1 -12.9,8.1 -4.8,4 -12.3,11.5 -13.7,11.7 -1.4,0.2 -9.5,-3.1 -19.8,-1.9 -10.3,1.2 -19.9,1.4 -22.2,0.4 -2.3,-1 -5.4,-5.2 -9.1,-3.9 -3.8,1.3 -8.5,4.2 -13.4,4.4 -5,0.1 -11.5,1 -11.1,3.4 0.4,2.5 3,6.7 6.8,6.4 3.7,-0.3 13.4,-3.4 19.9,-2.8 6.4,0.6 25.4,6.2 34.9,6.9 9.5,0.7 17.2,0 23.7,-1.4 6.5,-1.4 16.1,-3.3 27.5,-14.8 11.4,-11.5 14.8,-13.4 14.8,-13.4 0,0 -10.1,-5.7 -25.4,-3.1 z"
         id="path3771" />
      <path
         style="opacity:0.15"
         d="m 85.4,136.9 c 2.9,-0.1 6.3,-0.3 9.8,-0.6 -1.9,1 -6,3.6 -8.6,5.6 -1.8,1.4 -3.4,3 -4.5,4.3 -5.3,-1.2 -10,-2.3 -12.6,-2.5 -0.6,-0.1 -1.2,-0.1 -1.8,-0.1 l -0.3,-0.1 z"
         id="path3773" />
      <path
         style="fill:#fbd7c7"
         d="m 44.2,160.7 c 1,2.5 3.8,9 5.8,9.5 2,0.5 2,-0.9 1.8,-2.8 -0.2,-2 0.1,-6.6 2.3,-10.4 2.3,-3.8 13.8,-8.8 21,-11.5 7.2,-2.7 19.2,-8.1 24.5,-11.7 5.3,-3.6 11.1,-2.9 20.9,-5.8 9.8,-2.8 13,-5.4 14.6,-5.3 1.5,0.1 12.8,-1.4 13,-1.4 0.2,0 19.8,0.7 21.8,0 2,-0.7 11.1,-1.2 21.1,-2 9.9,-0.8 15.2,-2.6 19.2,-4.1 4,-1.5 14.2,-2.9 20.2,-3.2 6.6,-0.4 8.7,-2.8 9.5,-5.4 0.8,-2.6 -2.4,-4.8 -7.4,-7 -5,-2.1 -13.6,-4.7 -14.8,-5 -1.2,-0.3 -1.3,-2.3 -1.3,-3.6 0,-0.2 -0.1,-0.5 -0.3,-0.8 0.1,-0.3 0.2,-0.5 0.3,-0.7 0.2,-1 -0.9,-1.5 -0.9,-1.5 0,0 8.1,-8.1 3.4,-12.9 -4.7,-4.8 -8.3,-3.3 -13.3,-0.7 -5,2.5 -7.1,7.4 -7.6,8 0,0 -1.1,0.8 -5,1.1 -1.7,0.1 -3.2,-0.6 -4.4,-1.4 -0.5,-0.5 -1.7,-2.3 -1.9,-2.5 -1.7,-2.1 -3.3,-6.5 -9.4,-5.4 -6.1,1.1 -14.6,14 -20.3,18.5 -5.7,4.4 -13.6,4.5 -26.8,8.7 -13.2,4.2 -24.2,13.9 -29.9,17.8 -5.7,3.9 -12.1,3.6 -20.3,8 -8.3,4.4 -22.2,18 -24.2,19.5 -2,1.5 -4.8,2.7 -6.6,3.4 -2,0.8 -5,0.6 -6,2.8 -0.5,0.8 0,5.3 1,7.8 z M 209.7,101 c -3.7,-0.2 -5.2,-1.9 -7.9,-3.4 0.1,-0.3 0.3,-0.7 0.7,-1.2 0.3,-0.4 1.5,-1.2 2.7,-2 1.5,1.4 3.1,2.6 4.1,3.2 1.8,1.1 6.6,3.2 6.6,3.2 0,0 -2,0.4 -6.2,0.2 z"
         id="path3775" />
      <path
         style="fill:#2d3134"
         d="m 170,121.7 c -1.3,1.4 -3.5,3.5 -5.4,5.6 -5.5,5.9 -15.7,14.1 -15.7,14.1 0,0 -3,-4.2 -6.8,-6.6 -6.9,-4.5 -8.9,-9.5 -8.9,-9.5 l 1.7,-1.9 -3.6,1.1 c 0,0 -2.1,-6.3 -6.7,-9.5 -6.4,-4.4 -5.6,-9 -5.6,-9 0,0 6.3,-4.5 14.3,-7 7.6,-2.4 15.4,-2.8 15.4,-2.8 0,0 2.2,4.1 7,10.2 4.7,6 14.3,15.3 14.3,15.3 z"
         id="path3777" />
      <path
         style="fill:#cc291f"
         d="m 204.8,99.3 c 0,0 -6.4,1 -11.8,6.8 -5.4,5.9 -4.5,13.6 -4.5,13.6 0,0 -12.6,1.1 -16.3,2.8 -3.7,1.7 -9.1,6.6 -9.1,6.6 0,0 -5.3,-5.5 -9.3,-9.8 -5.6,-6 -6.9,-14 -9.4,-17.3 -2.5,-3.3 -5.4,-4.9 -5.4,-4.9 0,0 5.6,-1 11.8,-2.5 7,-1.7 13.5,-8.6 14.7,-9.2 2,-1 19.8,-8.2 19.8,-8.2 l 1.9,2.5 c 0,0 -6.8,3.9 -3.5,10.7 3.3,6.9 8.8,7.9 12.1,7.6 5.6,-0.5 6.4,-0.7 6.4,-0.7 z"
         id="path3779" />
      <path
         style="opacity:0.15"
         d="m 157,92.6 c 2.7,-2.1 6,-6.1 9.4,-9.7 -2,3.2 -5.2,8.6 -5.4,9.5 -0.2,1.3 4.5,5 7.1,13.4 0.3,0.8 0.9,2.2 0.9,2.7 -0.2,1.5 -2.8,0 -3.1,1.5 -0.5,2.4 -2,5.5 -2.4,5.8 -8.8,6 -11.2,-14.1 -11.2,-14.1 l -3.5,-5.3 c 3.2,-0.9 5.9,-2 8.2,-3.8 z"
         id="path3781" />
      <path
         style="fill:#fbd7c7"
         d="m 184.4,76.7 c 0,0 -3.5,-6.8 -9.3,-5.6 -5.8,1.3 -9.7,7.5 -11.6,8.9 -1.9,1.5 -11.4,7.4 -13.5,8.5 -2.1,1.1 -5.1,4 -5.1,5.6 0,1.6 0.7,2.3 2.1,2.1 1.3,-0.1 5.7,1 5.7,1 0,0 -0.3,4.4 0.4,7.3 0.7,2.9 2.5,9.7 4.9,11.6 1.1,0.8 3.2,1 4.7,0.3 1.6,-0.8 2.1,-3.8 1.9,-7.3 -0.2,-3.2 0.1,-4.7 0.1,-4.7 0,0 0.3,2.2 1.1,3.1 0.8,0.9 2.5,1.6 2.8,0.9 0.3,-0.7 -0.6,-1.4 -1.3,-2.7 -0.7,-1.3 -0.9,-4 -2.1,-5.2 -1.1,-1.2 -4.4,-6.4 -5.9,-7 -1.2,-0.5 -2.4,-0.7 -2.4,-0.7 0,0 7.4,-6.7 10.6,-9.4 3.2,-2.7 9.1,-7.2 10.7,-7.5 1.6,-0.4 6.2,0.8 6.2,0.8 z"
         id="path3783" />
      <path
         style="fill:#762c07"
         d="m 216.6,73.2 c 4.6,2.8 5.3,7.4 3,12.9 -2.1,5.1 -5.3,6.4 -7.5,6.9 -1.9,0.4 -4.5,-0.1 -4.5,-0.1 l 4,-1.6 c 0,0 1.1,0.7 2.4,0.4 1.7,-0.4 2.6,-1.8 2.1,-2.7 -0.5,-0.9 -1.7,-0.7 -1.7,-0.7 l -0.6,-0.4 c 0,0 3.9,-3.5 4.7,-6.4 1.6,-6 -1.9,-8.3 -1.9,-8.3 z"
         id="path3785" />
    </g>
    <g
       transform="matrix(0.26458333,0,0,0.26458333,81.089927,106.85854)"
       id="g4150">
      <path
         style="opacity:0.2"
         d="m 38.8,160.9 6.8,-3.6 141.4,71.3 -6.8,3.6 z"
         id="path3806" />
      <path
         style="fill:#cc291f"
         d="m 128.9,116.1 h 3.6 v 48.2 h -3.6 z"
         transform="matrix(0.702,0.7121,-0.7121,0.702,138.7409,-51.285)"
         id="path3808" />
      <path
         style="fill:#cc291f"
         d="m 61.2,141.8 h 55.9 v 2.6 H 61.2 Z"
         transform="matrix(0.8849,0.4657,-0.4657,0.8849,76.911,-25.0529)"
         id="path3810" />
      <path
         style="fill:#2d3134"
         d="m 113.7,156.3 -2.2,-5.1 -8.7,-8.1 -5.8,-4.9 c -0.1,-0.1 -0.2,-0.3 -0.2,-0.5 0,-0.2 0.1,-0.3 0.3,-0.4 l 1.6,-0.7 0.4,0.9 -0.9,0.3 5.2,4.4 8.8,8.1 c 0,0 0.1,0.1 0.1,0.2 l 2.2,5.2 z"
         id="path3812" />
      <path
         style="fill:#fbd7c7"
         d="m 110,74.6 c 0,0 12.5,9.6 16.6,15.2 4.1,5.6 12.5,18.5 13.1,21.2 1,4.4 -0.5,7.9 -6.3,9.9 -4.6,1.6 -16.1,5.5 -18.5,7.2 -2.4,1.7 -4.2,2.6 -4.5,4.5 -0.3,1.9 1.2,6 -0.5,6.8 -1.7,0.8 -10.2,-8.4 -9.9,-10.4 0.3,-1.9 3.2,-2.8 6.3,-4.5 3.2,-1.7 8,-7.2 11.3,-9.5 2.9,-2 7.2,-3.2 7.2,-3.2 0,0 -9.2,-6.8 -14.9,-11.7 C 104.3,95.1 98.6,87 98.6,87 Z"
         id="path3814" />
      <path
         style="fill:#2d3134"
         d="M 101.2,139.5 96,136.9 V 135 l 9.1,-4.6 5.2,2.6 v 2 z"
         id="path3816" />
      <path
         style="opacity:0.11"
         d="m 96,135 v 1.9 l 5.2,2.6 v -1.9 z"
         id="path3818" />
      <path
         style="fill:#cc291f"
         d="m 110.3,133 v 2 l -9.1,4.5 v -1.9 z"
         id="path3820" />
      <path
         style="opacity:0.29"
         d="m 110.3,133 v 2 l -9.1,4.5 v -1.9 z"
         id="path3822" />
      <path
         style="fill:#cc291f"
         d="m 173.3,184.6 c -0.5,0.1 -1,-0.2 -1.1,-0.7 -4.1,-14.6 -11.7,-41.4 -12.7,-44 -1,-2.5 -7.8,-6 -9,-6.4 l 0.7,-2.8 c 0.5,0.1 9.3,4 10.9,8.2 1.2,3.2 10.1,37.9 11.9,44.5 0.2,0.5 -0.1,1.1 -0.7,1.2 z"
         id="path3824" />
      <path
         style="fill:#656565"
         d="m 148.9,195.4 c -9.3,-18.6 -8.7,-38.1 0.9,-45.1 -0.9,0.2 -1.8,0.6 -2.6,1 -11.5,5.7 -12.8,26.5 -2.8,46.3 9.9,19.8 27.2,31.2 38.7,25.5 0.7,-0.3 1.3,-0.7 1.9,-1.2 -11.3,3 -26.9,-8.1 -36.1,-26.5 z"
         id="path3826" />
      <path
         style="opacity:0.2"
         d="m 148.9,195.4 c -9.3,-18.6 -8.7,-38.1 0.9,-45.1 -0.9,0.2 -1.8,0.6 -2.6,1 -11.5,5.7 -12.8,26.5 -2.8,46.3 9.9,19.8 27.2,31.2 38.7,25.5 0.7,-0.3 1.3,-0.7 1.9,-1.2 -11.3,3 -26.9,-8.1 -36.1,-26.5 z"
         id="path3828" />
      <path
         style="fill:#2d3134"
         d="m 170.3,221.2 h -0.2 l 3.3,-37.1 1.9,-25.7 h 0.2 l -1.9,25.7 z"
         id="path3830" />
      <path
         style="fill:#2d3134"
         d="M 188.9,220.9 173.4,184.2 159,149 l 0.2,-0.1 14.4,35.2 15.5,36.7 z"
         id="path3832" />
      <path
         style="fill:#2d3134"
         d="m 156.3,209.2 -0.2,-0.1 17.3,-25 10.3,-14.4 0.2,0.1 -10.3,14.4 z"
         id="path3834" />
      <path
         style="fill:#2d3134"
         d="m 194.5,205.6 -21.1,-21.4 -30.3,-27.3 0.1,-0.2 30.4,27.3 21,21.5 z"
         id="path3836" />
      <path
         style="fill:#2d3134"
         d="m 193.9,193 -20.5,-8.8 -33.2,-13.7 0.1,-0.2 33.2,13.7 20.5,8.8 z"
         id="path3838" />
      <path
         style="fill:#2d3134"
         d="m 173.5,184.2 -30.7,-0.3 v -0.3 l 30.7,0.4 h 19.4 v 0.2 z"
         id="path3840" />
      <path
         style="fill:#2d3134"
         d="m 148.1,197.8 -0.1,-0.2 25.4,-13.6 13.6,-7.5 0.1,0.2 -13.6,7.5 z"
         id="path3842" />
      <ellipse
         style="fill:#999999"
         cx="173.39999"
         cy="184"
         rx="2.0999999"
         ry="3.5999999"
         transform="matrix(0.8945,-0.4471,0.4471,0.8945,-63.9911,96.9322)"
         id="ellipse3844" />
      <path
         style="fill:#999999"
         d="m 163,186.4 8.5,-4.3 c 1.2,-0.6 1.8,0.3 2.4,1.5 0.6,1.2 0.9,2.2 -0.3,2.8 l -8.5,4.3 z"
         id="path3846" />
      <path
         style="opacity:0.2"
         d="m 174.2,184.1 c -0.1,0.2 -0.3,0.4 -0.7,0.6 l -8.5,4.3 -1.4,-2.9 -0.5,0.3 2.1,4.3 8.5,-4.3 c 1,-0.5 0.9,-1.3 0.5,-2.3 z"
         id="path3848" />
      <g
         style="fill:#2d3134"
         id="g3866">
        <path
           d="m 163.4,216.7 h -0.2 l 0.2,-27.9 1.8,-35.2 h 0.2 l -1.8,35.2 z"
           id="path3850" />
        <path
           d="m 175.3,222.6 -11.9,-33.8 -9.3,-39.1 h 0.2 l 9.3,39 11.9,33.8 z"
           id="path3852" />
        <path
           d="m 151.7,205.4 -0.2,-0.2 11.9,-16.5 14.8,-23.5 0.2,0.1 -14.8,23.5 z"
           id="path3854" />
        <path
           d="m 185.4,221.6 -22,-32.8 -18.4,-34.8 0.2,-0.1 18.4,34.8 21.9,32.8 z"
           id="path3856" />
        <path
           d="m 192.2,214.8 -28.8,-25.9 -23.9,-26.5 0.2,-0.1 23.9,26.4 28.8,26 z"
           id="path3858" />
        <path
           d="m 194.2,202.8 -30.7,-13.9 -24.6,-13.1 0.1,-0.2 24.6,13.1 30.7,13.9 z"
           id="path3860" />
        <path
           d="m 143.2,191.1 v -0.2 l 20.3,-2.2 27.5,-4.1 v 0.3 l -27.5,4 z"
           id="path3862" />
        <path
           d="m 192.6,173.5 c -11.1,-22.2 -31.3,-34.7 -45,-27.8 -13.8,6.9 -15.9,30.5 -4.8,52.7 11.1,22.2 31.3,34.7 45,27.8 13.8,-6.9 15.9,-30.5 4.8,-52.7 z m -9.5,49.5 c -11.5,5.7 -28.8,-5.7 -38.7,-25.5 -9.9,-19.8 -8.6,-40.5 2.8,-46.3 11.5,-5.7 28.8,5.7 38.7,25.5 10,19.9 8.7,40.6 -2.8,46.3 z"
           id="path3864" />
      </g>
      <path
         style="fill:#999999"
         d="m 176.6,225 c -5.4,0 -11.6,-2.7 -17.4,-7.5 -6,-4.9 -11.2,-11.8 -15.2,-19.8 -10,-20 -8.6,-41.1 3.1,-46.9 2,-1 4.3,-1.5 6.7,-1.5 5.4,0 11.6,2.7 17.4,7.5 6,4.9 11.2,11.8 15.2,19.8 10,20 8.6,41.1 -3.1,46.9 -2,1 -4.3,1.5 -6.7,1.5 z m -22.9,-74.7 c -2.3,0 -4.4,0.5 -6.3,1.4 -11.2,5.6 -12.4,26.1 -2.6,45.6 7.9,15.7 20.9,26.7 31.8,26.7 2.3,0 4.4,-0.5 6.3,-1.4 11.2,-5.6 12.4,-26.1 2.6,-45.6 -7.8,-15.7 -20.9,-26.7 -31.8,-26.7 z"
         id="path3868" />
      <ellipse
         style="fill:#999999"
         cx="163.60001"
         cy="188.8"
         rx="2.0999999"
         ry="3.5999999"
         transform="matrix(0.8945,-0.4471,0.4471,0.8945,-67.1622,93.071)"
         id="ellipse3870" />
      <path
         style="fill:#ffffff"
         d="m 108.7,122.6 c 0,0 -1.5,3.9 0.2,6 1.7,2 2.6,2.3 2.6,2.3 0,0 -1.4,1.4 -0.7,2.6 0.7,1.1 1.8,3.8 -0.4,5 -2.3,1.1 -9.8,-5 -9.8,-7.2 0,-2.2 0.9,-5.4 0.9,-5.4 0,0 2.4,-0.3 4.1,-1 1.7,-0.9 3.1,-2.3 3.1,-2.3 z"
         id="path3872" />
      <path
         style="fill:#656565"
         d="M 40.6,141.1 C 31.3,122.5 31.9,103 41.5,96 c -0.9,0.2 -1.8,0.6 -2.6,1 -11.5,5.7 -12.8,26.5 -2.8,46.3 9.9,19.8 27.2,31.2 38.7,25.5 0.7,-0.3 1.3,-0.7 1.9,-1.2 -11.3,3 -26.9,-8.2 -36.1,-26.5 z"
         id="path3874" />
      <path
         style="opacity:0.2"
         d="M 40.6,141.1 C 31.3,122.5 31.9,103 41.5,96 c -0.9,0.2 -1.8,0.6 -2.6,1 -11.5,5.7 -12.8,26.5 -2.8,46.3 9.9,19.8 27.2,31.2 38.7,25.5 0.7,-0.3 1.3,-0.7 1.9,-1.2 -11.3,3 -26.9,-8.2 -36.1,-26.5 z"
         id="path3876" />
      <path
         style="fill:#2d3134"
         d="m 61.9,166.9 -0.2,-0.1 3.3,-37 1.9,-25.7 h 0.2 l -1.8,25.7 z"
         id="path3878" />
      <path
         style="fill:#2d3134"
         d="M 80.6,166.6 65.1,129.9 50.7,94.7 l 0.2,-0.1 14.4,35.2 15.5,36.7 z"
         id="path3880" />
      <path
         style="fill:#2d3134"
         d="m 47.9,154.9 -0.1,-0.1 17.3,-25.1 10.3,-14.3 0.2,0.1 -10.3,14.4 z"
         id="path3882" />
      <path
         style="fill:#2d3134"
         d="m 86.1,151.3 -21,-21.4 -30.3,-27.4 0.1,-0.1 30.3,27.3 21.1,21.5 z"
         id="path3884" />
      <path
         style="fill:#2d3134"
         d="M 85.5,138.7 65.1,129.9 31.9,116.2 32,116 l 33.2,13.7 20.4,8.7 z"
         id="path3886" />
      <path
         style="fill:#2d3134"
         d="m 65.2,129.9 -30.7,-0.3 v -0.3 l 30.7,0.4 h 19.4 v 0.2 z"
         id="path3888" />
      <path
         style="fill:#2d3134"
         d="m 39.8,143.5 -0.1,-0.2 25.4,-13.6 13.6,-7.5 0.1,0.2 -13.6,7.5 z"
         id="path3890" />
      <ellipse
         style="fill:#999999"
         cx="65"
         cy="129.7"
         rx="2.0999999"
         ry="3.5999999"
         transform="matrix(0.8945,-0.4471,0.4471,0.8945,-51.1376,42.7607)"
         id="ellipse3892" />
      <path
         style="fill:#999999"
         d="m 54.7,132.1 9.1,-4.6 2.1,4.3 -9.1,4.6 z"
         id="path3894" />
      <path
         style="fill:#2d3134"
         d="m 55.1,162.4 h -0.2 l 0.2,-27.9 1.7,-35.2 h 0.3 l -1.8,35.2 z"
         id="path3896" />
      <path
         style="fill:#2d3134"
         d="M 66.9,168.3 55.1,134.5 45.8,95.4 46,95.3 l 9.3,39.1 11.8,33.8 z"
         id="path3898" />
      <path
         style="fill:#2d3134"
         d="m 43.4,151.1 -0.2,-0.2 11.9,-16.5 14.8,-23.6 0.2,0.2 -14.8,23.5 z"
         id="path3900" />
      <path
         style="fill:#2d3134"
         d="M 77,167.3 55.1,134.5 36.7,99.7 l 0.2,-0.2 18.4,34.9 21.9,32.8 z"
         id="path3902" />
      <path
         style="fill:#2d3134"
         d="m 83.9,160.5 -28.8,-26 -23.9,-26.4 0.1,-0.1 24,26.4 28.7,25.9 z"
         id="path3904" />
      <path
         style="fill:#2d3134"
         d="m 85.9,148.5 -30.8,-13.9 -24.5,-13.1 0.1,-0.2 24.5,13.1 30.7,13.9 z"
         id="path3906" />
      <path
         style="fill:#2d3134"
         d="m 34.8,136.8 v -0.2 l 20.4,-2.3 27.4,-4 0.1,0.2 -27.5,4.1 z"
         id="path3908" />
      <path
         style="fill:#2d3134"
         d="M 84.3,119.1 C 73.2,96.9 53,84.5 39.3,91.3 25.6,98.1 23.4,121.8 34.5,144 c 11.1,22.2 31.3,34.7 45,27.8 13.8,-6.8 15.9,-30.4 4.8,-52.7 z m -9.5,49.6 C 63.3,174.4 46,163 36.1,143.2 c -9.9,-19.8 -8.6,-40.5 2.8,-46.3 11.5,-5.7 28.8,5.7 38.7,25.5 9.9,19.9 8.7,40.6 -2.8,46.3 z"
         id="path3910" />
      <path
         style="fill:#999999"
         d="m 68.3,170.7 c -5.4,0 -11.6,-2.7 -17.4,-7.5 -6,-4.9 -11.2,-11.8 -15.2,-19.8 -10,-20 -8.6,-41.1 3.1,-46.9 2,-1 4.3,-1.5 6.7,-1.5 5.4,0 11.6,2.7 17.4,7.5 6,4.9 11.2,11.8 15.2,19.8 10,20 8.6,41.1 -3.1,46.9 -2,1 -4.3,1.5 -6.7,1.5 z M 45.4,96 c -2.3,0 -4.4,0.5 -6.3,1.4 -11.2,5.6 -12.4,26.1 -2.6,45.6 7.9,15.7 20.9,26.7 31.8,26.7 2.3,0 4.4,-0.5 6.3,-1.4 C 85.8,162.7 87,142.2 77.2,122.7 69.3,106.9 56.3,96 45.4,96 Z"
         id="path3912" />
      <ellipse
         style="fill:#999999"
         cx="55.299999"
         cy="134.5"
         rx="2.0999999"
         ry="3.5999999"
         transform="matrix(0.8945,-0.4471,0.4471,0.8945,-54.3087,38.8995)"
         id="ellipse3914" />
      <ellipse
         style="fill:#656565"
         cx="56.400002"
         cy="134.10001"
         rx="4.5"
         ry="7.6999998"
         transform="matrix(0.8945,-0.4471,0.4471,0.8945,-53.989,39.3609)"
         id="ellipse3916" />
      <ellipse
         style="opacity:0.2"
         cx="56.400002"
         cy="134.10001"
         rx="4.5"
         ry="7.6999998"
         transform="matrix(0.8945,-0.4471,0.4471,0.8945,-53.989,39.3609)"
         id="ellipse3918" />
      <path
         style="fill:#333399"
         d="m 103.6,125.6 c 0,0 -2.1,-0.6 -3.2,0.2 -1,0.8 -2.5,2 -2.6,4.2 -0.1,2.2 5.1,6.5 6.6,10 1.6,3.5 5.8,7.7 6.6,8.2 2.4,1.5 5.2,0 5.6,-1.7 0.3,-1.7 -0.9,-7 -2.8,-9.8 -1.3,-1.9 -2.9,-3.6 -2.9,-3.6 0,0 -0.2,2.5 -1.9,3.2 -1.7,0.7 -4.4,-1 -5.4,-2.6 -1,-1.6 -2.9,-5.7 -2.1,-6.9 0.7,-1.1 2.1,-1.2 2.1,-1.2 z"
         id="path3920" />
      <path
         style="fill:#cc291f"
         d="m 70.3,126.4 h 59.9 V 130 H 70.3 Z"
         transform="matrix(0.3582,0.9336,-0.9336,0.3582,183.9552,-11.3189)"
         id="path3922" />
      <path
         style="fill:#cc291f"
         d="m 70.3,126.4 h 59.9 V 130 H 70.3 Z"
         transform="matrix(0.3582,0.9336,-0.9336,0.3582,183.9552,-11.3189)"
         id="path3924" />
      <path
         style="fill:#2d3134"
         d="m 110.3,171.4 c -1.5,-0.7 -23.7,-13.4 -44.5,-25.3 -5.1,-2.9 -8.9,-5.1 -9,-5.2 -1.5,-0.8 -3.5,-2 -4.8,-4.6 -1,-1.9 -1.4,-3.9 -1.3,-5.7 0.1,-1.9 0.9,-3.2 2.1,-3.8 1,-0.5 2.4,-0.4 3.7,0.3 l 51.9,18.9 c 3.3,1.3 6.5,4.6 8.6,8.8 1.7,3.4 2.5,6.9 2.2,10 -0.2,3.2 -1.5,5.5 -3.7,6.6 -0.8,0.4 -1.7,0.6 -2.6,0.6 -0.5,0 -1.1,-0.1 -1.6,-0.2 z m 0.4,-0.9 0.2,0.1 c 0.7,0.2 1.4,0.3 2.1,0.3 0.8,0 1.5,-0.2 2.1,-0.5 1.8,-0.9 2.9,-3 3.1,-5.8 0.2,-2.9 -0.5,-6.3 -2.1,-9.5 -2.1,-4.1 -5.2,-7.3 -8.3,-8.4 L 107.5,146.6 56,127.9 c -1.1,-0.6 -2.1,-0.7 -2.8,-0.3 -0.9,0.5 -1.4,1.5 -1.5,3 -0.1,1.6 0.3,3.4 1.2,5.2 1.2,2.3 2.9,3.5 4.3,4.2 0.1,0.1 3,1.7 9.1,5.2 14,8.1 43.3,24.8 44.4,25.3 z"
         id="path3926" />
      <path
         style="fill:#cc291f"
         d="M 107.8,160.9 54.6,135.7 c -0.5,-0.2 -0.7,-0.7 -0.7,-1.2 0,-0.5 0.3,-1 0.8,-1.2 l 39,-17.4 0.9,2.5 -36.3,16.1 50.6,24 z"
         id="path3928" />
      <path
         style="fill:#cc291f"
         d="m 146.8,123.4 -49.6,-4.7 c -0.5,0 -0.9,-0.3 -1.1,-0.7 -0.5,-1.1 -0.1,-2.3 1,-2.9 l 50,4.8 z"
         id="path3930" />
      <path
         style="fill:#cc291f"
         d="m 149.9,133.9 -7,-20.7 0.2,-1.3 3.1,-0.1 7.1,21 z"
         id="path3932" />
      <path
         style="fill:#cc291f"
         d="m 163.6,189.7 c -0.6,0.2 -1.2,0 -1.5,-0.6 -2.9,-7.2 -15.8,-39.5 -16.1,-44.5 -0.3,-6.1 3.8,-13.3 3.9,-13.7 l 2.5,1.4 c 0,0.1 -3.8,6.9 -3.6,12 0.2,3.6 8.8,27.9 15.2,43.8 0.4,0.8 0.2,1.4 -0.4,1.6 z"
         id="path3934" />
      <path
         style="fill:#cc291f"
         d="m 144.2,110.7 c 0.4,-0.2 0.7,-0.2 0.9,-0.1 l 4.4,2.2 c 0.3,0.1 0.4,0.4 0.4,0.8 0,0.8 -0.6,1.7 -1.4,2 -0.4,0.2 -0.7,0.2 -1,0.1 0,0 -4.4,-2.2 -4.5,-2.3 -0.2,-0.1 -0.4,-0.4 -0.4,-0.7 0.2,-0.7 0.8,-1.7 1.6,-2 z"
         id="path3936" />
      <path
         style="opacity:0.1"
         d="m 147.6,115.7 c -0.1,0 -4.4,-2.2 -4.5,-2.3 -0.2,-0.1 -0.4,-0.4 -0.4,-0.7 0,-0.3 0.1,-0.6 0.3,-0.9 l 4.4,2.2 c -0.2,0.3 -0.3,0.6 -0.3,0.9 0.2,0.4 0.3,0.7 0.5,0.8 z"
         id="path3938" />
      <path
         style="opacity:0.11"
         d="m 147.3,114.9 c 0,0.8 0.6,1.1 1.4,0.7 0.8,-0.4 1.4,-1.3 1.4,-2 0,-0.7 -0.6,-1.1 -1.4,-0.7 -0.8,0.4 -1.4,1.3 -1.4,2 z"
         id="path3940" />
      <path
         style="fill:#cc291f"
         d="m 114.2,153.5 c -0.7,-0.4 -1.4,-0.4 -1.9,-0.2 l -6,3.1 c -0.5,0.2 -0.8,0.8 -0.8,1.5 0,1.5 1.2,3.3 2.7,4.1 0.7,0.4 1.4,0.4 1.9,0.2 0,0 6,-3.1 6.2,-3.2 0.4,-0.3 0.7,-0.8 0.7,-1.5 -0.1,-1.4 -1.3,-3.2 -2.8,-4 z"
         id="path3942" />
      <path
         style="opacity:0.2"
         d="m 110,162.2 c 0.2,-0.1 6,-3.1 6.1,-3.1 0.4,-0.3 0.7,-0.8 0.7,-1.5 0,-0.6 -0.2,-1.3 -0.5,-1.9 l -6,3.1 c 0.3,0.6 0.5,1.3 0.5,1.9 0,0.7 -0.3,1.2 -0.8,1.5 z"
         id="path3944" />
      <path
         style="opacity:0.11"
         d="m 110.8,160.7 c 0,1.5 -1.2,2.1 -2.7,1.4 -1.5,-0.7 -2.7,-2.6 -2.7,-4.1 0,-1.5 1.2,-2.1 2.7,-1.4 1.5,0.8 2.7,2.6 2.7,4.1 z"
         id="path3946" />
      <path
         style="fill:#656565"
         d="m 112.8,171.2 c -3.8,0 -8.2,-3.6 -10.9,-9 -3.4,-6.8 -2.9,-13.6 1.2,-15.7 0.7,-0.4 1.5,-0.5 2.4,-0.5 3.8,0 8.2,3.6 10.9,9 3.4,6.8 2.9,13.6 -1.2,15.7 -0.8,0.3 -1.6,0.5 -2.4,0.5 z m -7.3,-23.9 c -0.6,0 -1.2,0.1 -1.8,0.4 -3.3,1.7 -3.6,7.9 -0.6,13.9 2.4,4.9 6.4,8.3 9.7,8.3 0.6,0 1.2,-0.1 1.8,-0.4 3.3,-1.7 3.6,-7.9 0.6,-13.9 -2.4,-4.9 -6.4,-8.3 -9.7,-8.3 z"
         id="path3948" />
      <path
         style="fill:#656565"
         d="m 112.5,169.3 c -3,0 -6.7,-3.2 -9,-7.8 -2.9,-5.7 -2.7,-11.4 0.4,-13 0.5,-0.3 1.1,-0.4 1.7,-0.4 3,0 6.7,3.2 9,7.8 2.9,5.7 2.7,11.4 -0.4,13 -0.5,0.2 -1.1,0.4 -1.7,0.4 z m -6.9,-20.2 c -0.4,0 -0.8,0.1 -1.2,0.3 -2.5,1.3 -2.5,6.6 0,11.6 2.1,4.2 5.5,7.3 8.1,7.3 0.4,0 0.8,-0.1 1.2,-0.3 2.5,-1.3 2.5,-6.6 0,-11.6 -2.1,-4.3 -5.5,-7.3 -8.1,-7.3 z"
         id="path3950" />
      <ellipse
         style="fill:#656565"
         cx="108.9"
         cy="159.2"
         rx="2.9000001"
         ry="4.5999999"
         transform="matrix(0.8945,-0.4471,0.4471,0.8945,-59.68,65.4881)"
         id="ellipse3952" />
      <path
         style="opacity:0.2"
         d="m 112.8,171.2 c -3.8,0 -8.2,-3.6 -10.9,-9 -3.4,-6.8 -2.9,-13.6 1.2,-15.7 0.7,-0.4 1.5,-0.5 2.4,-0.5 3.8,0 8.2,3.6 10.9,9 3.4,6.8 2.9,13.6 -1.2,15.7 -0.8,0.3 -1.6,0.5 -2.4,0.5 z m -7.3,-23.9 c -0.6,0 -1.2,0.1 -1.8,0.4 -3.3,1.7 -3.6,7.9 -0.6,13.9 2.4,4.9 6.4,8.3 9.7,8.3 0.6,0 1.2,-0.1 1.8,-0.4 3.3,-1.7 3.6,-7.9 0.6,-13.9 -2.4,-4.9 -6.4,-8.3 -9.7,-8.3 z"
         id="path3954" />
      <path
         style="opacity:0.2"
         d="m 112.5,169.3 c -3,0 -6.7,-3.2 -9,-7.8 -2.9,-5.7 -2.7,-11.4 0.4,-13 0.5,-0.3 1.1,-0.4 1.7,-0.4 3,0 6.7,3.2 9,7.8 2.9,5.7 2.7,11.4 -0.4,13 -0.5,0.2 -1.1,0.4 -1.7,0.4 z m -6.9,-20.2 c -0.4,0 -0.8,0.1 -1.2,0.3 -2.5,1.3 -2.5,6.6 0,11.6 2.1,4.2 5.5,7.3 8.1,7.3 0.4,0 0.8,-0.1 1.2,-0.3 2.5,-1.3 2.5,-6.6 0,-11.6 -2.1,-4.3 -5.5,-7.3 -8.1,-7.3 z"
         id="path3956" />
      <ellipse
         style="opacity:0.2"
         cx="108.9"
         cy="159.2"
         rx="2.9000001"
         ry="4.5999999"
         transform="matrix(0.8945,-0.4471,0.4471,0.8945,-59.68,65.4881)"
         id="ellipse3958" />
      <path
         style="fill:#762c07"
         d="m 168.1,102.6 c -0.5,-0.2 -0.9,-0.3 -1.2,-0.1 l -10.2,5 c -0.3,0.2 -0.6,0.5 -0.6,1 0,1 0.8,2.2 1.8,2.6 0.5,0.2 0.9,0.3 1.2,0.1 0,0 10.2,-5 10.3,-5 0.3,-0.2 0.5,-0.5 0.5,-1 -0.1,-0.9 -0.9,-2.1 -1.8,-2.6 z"
         id="path3960" />
      <path
         style="opacity:0.2"
         d="m 159.1,111.2 c 0.1,-0.1 10.2,-5 10.2,-5 0.3,-0.2 0.5,-0.5 0.5,-1 0,-0.4 -0.1,-0.8 -0.3,-1.2 l -10.2,5 c 0.2,0.4 0.3,0.8 0.3,1.2 0,0.5 -0.2,0.9 -0.5,1 z"
         id="path3962" />
      <path
         style="opacity:0.11"
         d="m 159.6,110.2 c 0,1 -0.8,1.4 -1.8,0.9 -1,-0.5 -1.8,-1.7 -1.8,-2.6 0,-0.9 0.8,-1.4 1.8,-0.9 1,0.5 1.8,1.7 1.8,2.6 z"
         id="path3964" />
      <path
         style="fill:#2d3134"
         d="m 105.6,183.9 -0.4,-0.9 2.4,-1 -3.9,-5 c -0.1,-0.1 -0.1,-0.2 -0.1,-0.3 l -0.3,-5.7 -5.4,-6.7 c -0.1,-0.1 -0.1,-0.3 -0.1,-0.4 0,-0.1 0.1,-0.3 0.3,-0.3 l 10.1,-4.9 0.4,0.9 -9.5,4.6 5.1,6.4 c 0.1,0.1 0.1,0.2 0.1,0.3 l 0.3,5.7 4.1,5.4 c 0.1,0.1 0.1,0.3 0.1,0.4 0,0.1 -0.1,0.3 -0.3,0.3 z"
         id="path3966" />
      <path
         style="fill:#2d3134"
         d="M 100.9,190.6 95.7,188 v -2 l 9.1,-4.5 5.2,2.6 v 1.9 z"
         id="path3968" />
      <path
         style="opacity:0.11"
         d="m 95.7,186 v 2 l 5.2,2.6 v -2 z"
         id="path3970" />
      <path
         style="fill:#cc291f"
         d="m 110,184.1 v 1.9 l -9.1,4.6 v -2 z"
         id="path3972" />
      <path
         style="opacity:0.29"
         d="m 110,184.1 v 1.9 l -9.1,4.6 v -2 z"
         id="path3974" />
      <ellipse
         style="fill:#cc291f"
         cx="89.5"
         cy="100.2"
         rx="1.8"
         ry="0.80000001"
         transform="matrix(0.942,-0.3356,0.3356,0.942,-28.4242,35.8386)"
         id="ellipse3976" />
      <path
         style="fill:#656565"
         d="m 90.6,99.6 -10.8,-28.4 -2.4,0.9 10.8,28.3 c 0.1,0.3 0.8,0.4 1.4,0.1 0.7,-0.1 1.2,-0.6 1,-0.9 z"
         id="path3978" />
      <path
         style="opacity:0.2"
         d="M 90.6,99.6 79.8,71.2 77.4,72.1 77.6,72.6 79.1,72 90,100.3 c 0.4,-0.1 0.7,-0.4 0.6,-0.7 z"
         id="path3980" />
      <path
         style="fill:#762c07"
         d="m 71.8,71.3 c -4.1,2.6 -6.3,8.5 -2.5,13 2.7,3.2 9,1.4 14.1,2.9 5.1,1.5 9.9,4.8 13,2.9 1.2,-0.7 0.5,-3.7 -2.5,-6.5 -3.1,-2.8 -7.4,-8.3 -7.6,-8.7 -1,-1.8 -8,-7.7 -14.5,-3.6 z"
         id="path3982" />
      <path
         style="opacity:0.2"
         d="M 83.9,85.4 C 78.8,83.9 72.5,85.8 69.8,82.5 68.1,80.4 67.6,78.1 68,75.9 c -1.1,2.7 -0.9,5.8 1.3,8.5 2.7,3.2 9,1.4 14.1,2.9 5.1,1.5 9.9,4.8 13,2.9 0.5,-0.3 0.6,-0.9 0.5,-1.8 -3.2,1.8 -8,-1.5 -13,-3 z"
         id="path3984" />
      <path
         style="fill:#fbd7c7"
         d="m 81.2,65.2 c 0,0 -8.7,5 -8.6,13.1 0.1,8.1 7,26.9 8.6,32.9 1.6,6 5.1,13.4 5,19.4 -0.1,6 -1.2,14.1 0.8,20.6 2,6.4 8.6,18.1 8.6,19.8 0,1.7 0.1,7.4 1.8,9 1.7,1.6 9,2 9.9,1.8 0.9,-0.2 -1.4,-5 -3.2,-8.6 -1.8,-3.6 -4.6,-10.8 -5,-18 -0.3,-7.2 -2,-17.7 -1.8,-19.4 0.2,-1.7 0.3,-4.3 0.5,-6.8 0.2,-2.5 0.3,-7.8 -0.5,-12.6 -0.8,-4.8 -4.1,-23.2 -4.1,-26.1 0,-2.9 0,-10.4 0,-10.4 z"
         id="path3986" />
      <path
         style="fill:#fbd7c7"
         d="m 132.7,42.3 c 0,0 5.1,7.7 7.8,13.8 2.7,6.1 3.2,9.3 4.5,10.8 1.3,1.5 8.4,12.6 10.6,17.6 2.1,4.8 4.2,9.1 5.8,10.6 1.2,1.1 3.7,4.4 4.8,6.2 1.1,1.8 2.8,7.3 0.4,8.8 -2.3,1.5 -5,-0.5 -5,-0.5 l -2,-3.5 -1.5,0.6 c 0,0 -2.5,-4.3 -2.2,-5.7 0.3,-1.5 0.2,-2.8 -0.3,-3.7 -0.4,-0.9 -7.7,-8.6 -11.9,-15 -4.2,-6.4 -8.2,-13.8 -8.4,-14.5 -0.2,-0.7 -9.5,-13.5 -10,-16.7 -0.5,-3.2 7.4,-8.8 7.4,-8.8 z"
         id="path3988" />
      <path
         style="fill:#333399"
         d="m 94.2,86.3 c 0,0 7.7,7.7 11.7,11.2 4,3.5 12.6,9.9 12.6,9.9 l 12.6,-11.7 c 0,0 -6.1,-8.5 -9.3,-12 C 118.6,80.2 110,71 110,71 l -4.1,-1.8 -12.1,17.1 z"
         id="path3990" />
      <path
         style="fill:#333399"
         d="m 107.7,70.6 c 0,0 -13.9,-4.7 -17.1,-6.8 -3.2,-2.1 -7.2,-5.4 -7.2,-5.4 0,0 -10.1,8.4 -12.6,14.9 -2.5,6.5 1.1,17.9 3.6,23.4 2.5,5.5 7.8,18.9 7.8,18.9 l 15,-2 c 0,0 -0.2,-9.2 -0.7,-15.9 C 96.1,93 95.1,85 95.1,85 Z"
         id="path3992" />
      <path
         style="fill:#993399"
         d="m 104.1,33.2 c 0,0 -10.5,4.1 -13.1,7.7 -2.6,3.6 -3,5.1 -6.3,10.4 -2.6,4.2 -8.4,12.3 -10.6,15.3 -0.5,0.7 -0.5,1.7 0.1,2.3 1.6,1.7 4.9,4.8 9.1,6.2 6.8,2.2 16.1,0.6 21.7,-0.9 4.6,-1.2 5.8,-5.5 7.8,-6.4 2,-0.9 5.9,0.2 10.1,-3.5 1.8,-1.6 4.5,-10.8 4.5,-10.8 0,0 2.8,-2.7 5,-3.6 2.1,-0.9 4.1,-1.8 4.1,-1.8 0,0 -1.8,-6.5 -3.6,-9.5 -1.8,-3 -8.8,-6.1 -14.9,-5.9 -6,0.3 -13.9,0.5 -13.9,0.5 z"
         id="path3994" />
      <path
         style="fill:#ffffff"
         d="m 93.8,166.7 c 0,0 1.2,0.6 3.6,0.3 2.4,-0.3 3.8,-1.4 3.8,-1.4 0,0 2.1,4.7 2.9,6.5 0.8,1.8 2.2,4.4 2.2,4.4 0,0 -1.9,3.5 -4.8,3.7 -2.9,0.2 -7.2,-3.5 -7.2,-3.5 0,0 1.2,-2.9 0.8,-5.5 -0.2,-1.4 -1.3,-4.5 -1.3,-4.5 z"
         id="path3996" />
      <path
         style="fill:#333399"
         d="m 94.4,175.9 c 0,0 -0.9,2.6 -0.9,4 0,1.4 0.3,2.4 2.6,3.1 0.3,0.1 2,0.7 4,1.5 2.5,1 6.1,3.4 7.8,3.7 5.2,0.9 8.5,-2.1 7.5,-3.5 -0.6,-0.9 -5.3,-2.9 -6.5,-4.5 -1.2,-1.6 -2.6,-4.1 -2.6,-4.1 0,0 -0.4,0.6 -1.7,1.2 -1.8,0.9 -4.2,0.9 -5.7,0.5 -1.5,-0.4 -4.5,-1.9 -4.5,-1.9 z"
         id="path3998" />
      <path
         style="fill:#825012"
         d="m 128.9,19.3 c 1,1.1 2.6,7.3 2.7,13.1 0.1,5.8 2.8,5.6 2.8,5.6 0,0 -2.2,3.3 -5.5,2.1 -3,-1.1 -5,-10.4 -5,-10.4 z"
         id="path4000" />
      <path
         style="fill:#fbd7c7"
         d="m 129.3,21.1 c 1.2,2.2 1.6,18.4 -1.8,21.2 -1.7,1.4 -3.7,1.4 -5.6,0.8 -1.8,-0.5 -6.2,1.3 -7.1,0.7 -1.7,-1.3 -2.9,-12.3 -0.4,-20 2.5,-7.8 12.5,-7 14.9,-2.7 z"
         id="path4002" />
      <path
         style="fill:#825012"
         d="m 128.9,23.3 c -2.9,1.3 -5.1,1.4 -5,3.6 0.1,2.2 0.5,9.4 -2.3,10.8 -2.8,1.5 -5,0.5 -5,0.5 0,0 -0.1,3 1.9,4.1 2.2,1.2 4.4,0.4 4.4,0.4 0,0 -4.9,5.8 -11.7,3.5 -6.8,-2.3 -10.2,-12.8 -5.4,-24.2 4.8,-11.5 13.8,-11 18.9,-8.1 5.1,2.9 6.4,5.8 5.9,7.2 -0.5,1.4 -1.7,2.2 -1.7,2.2 z"
         id="path4004" />
      <path
         style="fill:#762c07"
         d="m 158.9,106.3 c -0.7,-0.3 -1.3,-0.4 -1.7,-0.2 l -1.9,0.9 c -0.5,0.2 -0.8,0.7 -0.8,1.4 0,1.4 1.1,3 2.5,3.7 0.7,0.3 1.3,0.4 1.7,0.2 0,0 1.9,-0.9 2,-1 0.4,-0.2 0.6,-0.7 0.6,-1.3 0,-1.4 -1.1,-3 -2.4,-3.7 z"
         id="path4006" />
      <path
         style="opacity:0.2"
         d="m 158.8,112.3 c 0.2,-0.1 1.8,-0.9 1.9,-1 0.4,-0.2 0.6,-0.7 0.6,-1.3 0,-0.5 -0.2,-1.1 -0.5,-1.7 l -1.9,0.9 c 0.3,0.6 0.5,1.2 0.5,1.7 0.1,0.7 -0.2,1.2 -0.6,1.4 z"
         id="path4008" />
      <path
         style="opacity:0.1"
         d="m 159.5,110.9 c 0,1.4 -1.1,1.9 -2.5,1.2 -1.4,-0.7 -2.5,-2.3 -2.5,-3.7 0,-1.4 1.1,-1.9 2.5,-1.2 1.4,0.7 2.5,2.4 2.5,3.7 z"
         id="path4010" />
      <path
         style="fill:#656565"
         d="m 133.3,123.5 c -0.6,0 -1.2,-0.3 -1.5,-0.9 -0.4,-0.8 -0.1,-1.9 0.8,-2.3 L 156,108.6 c 0.8,-0.4 1.9,-0.1 2.3,0.8 0.4,0.8 0.1,1.9 -0.8,2.3 L 134,123.3 c -0.2,0.1 -0.5,0.2 -0.7,0.2 z"
         id="path4012" />
      <path
         style="opacity:0.2"
         d="m 157.9,109.9 -23.4,11.7 c -0.2,0.1 -0.5,0.2 -0.8,0.2 -0.6,0 -1.2,-0.3 -1.5,-0.9 0,-0.1 -0.1,-0.2 -0.1,-0.2 -0.5,0.5 -0.7,1.3 -0.4,2 0.3,0.6 0.9,0.9 1.5,0.9 0.3,0 0.5,-0.1 0.8,-0.2 l 23.4,-11.7 c 0.8,-0.4 1.1,-1.3 0.9,-2 -0.1,0 -0.3,0.1 -0.4,0.2 z"
         id="path4014" />
      <path
         style="fill:#762c07"
         d="m 140,115.8 c -0.7,-0.3 -1.3,-0.4 -1.7,-0.2 l -1.9,0.9 c -0.5,0.2 -0.8,0.7 -0.8,1.4 0,1.4 1.1,3 2.5,3.7 0.7,0.3 1.3,0.4 1.7,0.2 0,0 1.9,-0.9 2,-1 0.4,-0.2 0.6,-0.7 0.6,-1.3 0.1,-1.4 -1.1,-3.1 -2.4,-3.7 z"
         id="path4016" />
      <path
         style="opacity:0.2"
         d="m 139.9,121.7 c 0.2,-0.1 1.8,-0.9 1.9,-1 0.4,-0.2 0.6,-0.7 0.6,-1.3 0,-0.5 -0.2,-1.1 -0.5,-1.7 l -1.9,0.9 c 0.3,0.6 0.5,1.2 0.5,1.7 0.1,0.7 -0.2,1.2 -0.6,1.4 z"
         id="path4018" />
      <path
         style="opacity:0.1"
         d="m 140.6,120.4 c 0,1.4 -1.1,1.9 -2.5,1.2 -1.4,-0.7 -2.5,-2.3 -2.5,-3.7 0,-1.4 1.1,-1.9 2.5,-1.2 1.4,0.7 2.5,2.3 2.5,3.7 z"
         id="path4020" />
      <path
         style="fill:#762c07"
         d="m 137.9,117.5 c -0.5,-0.2 -0.9,-0.3 -1.2,-0.1 l -10.2,5 c -0.3,0.2 -0.6,0.5 -0.6,1 0,1 0.8,2.2 1.8,2.6 0.5,0.2 0.9,0.3 1.2,0.1 0,0 10.2,-5 10.3,-5 0.3,-0.2 0.5,-0.5 0.5,-1 -0.1,-1 -0.9,-2.1 -1.8,-2.6 z"
         id="path4022" />
      <path
         style="opacity:0.2"
         d="m 128.9,126.1 c 0.1,-0.1 10.2,-5 10.2,-5 0.3,-0.2 0.5,-0.5 0.5,-1 0,-0.4 -0.1,-0.8 -0.3,-1.2 l -10.2,5 c 0.2,0.4 0.3,0.8 0.3,1.2 0,0.5 -0.2,0.8 -0.5,1 z"
         id="path4024" />
      <path
         style="opacity:0.1"
         d="m 129.4,125.1 c 0,1 -0.8,1.4 -1.8,0.9 -1,-0.5 -1.8,-1.7 -1.8,-2.6 0,-0.9 0.8,-1.4 1.8,-0.9 1,0.5 1.8,1.6 1.8,2.6 z"
         id="path4026" />
      <path
         style="fill:#fbd7c7"
         d="m 91.1,68.3 c 0,0 6,14.2 7.2,16.7 2.2,4.5 2.8,5.9 7.2,10.4 4.4,4.5 17.5,17.3 19,19 1.6,1.7 3.3,4.4 3.3,5 0.1,0.6 3.4,5.7 5.4,6.4 1.5,0.5 4,-1.1 4.8,-2.1 0.8,-1 0,-3.2 0,-3.2 l -2.7,-2.7 1.4,-0.5 c 0,0 -2,-2.5 -3.2,-3.2 -1.2,-0.7 -3.8,-2.9 -4.1,-3.6 -0.3,-0.8 -9.8,-14.2 -13.6,-18.4 -2.3,-2.5 -7.6,-6.8 -7.6,-6.8 0,0 -3.7,-11.5 -5.1,-16 -0.3,-0.9 -1.5,-4.2 -1.5,-4.2 z"
         id="path4028" />
    </g>
  </g>
  <path
     style="fill:#000000;fill-opacity:1;fill-rule:nonzero;stroke:none;stroke-width:0.264583"
     id="path1"
     d="m 87.110802,26.757053 c -0.267012,1.150707 -0.548711,2.297904 -0.8339,3.444232 -0.336788,1.415336 -0.693293,2.824798 -1.095256,4.223049 -0.0628,0.215299 -0.125611,0.430601 -0.188415,0.645904 -0.174252,0.597357 0.670538,0.843788 0.84479,0.24643 v 0 c 0.06313,-0.216413 0.126254,-0.432827 0.189384,-0.64924 0.404759,-1.408449 0.764333,-2.828041 1.103468,-4.25369 0.196533,-0.789985 0.3921,-1.580042 0.580338,-2.372053 0.08074,-0.339715 0.168203,-0.677916 0.241532,-1.019305 0.01495,-0.0696 0.02424,-0.14029 0.03635,-0.210434 0.03881,-0.621043 -0.83947,-0.675936 -0.878287,-0.05489 z" />
  <path
     style="fill:#000000;fill-opacity:1;fill-rule:nonzero;stroke:none;stroke-width:0.264583"
     id="path2"
     d="m 86.721886,30.712341 c -0.239173,-0.395081 -0.523835,-0.76142 -0.806617,-1.125903 -0.490543,-0.616624 -1.043699,-1.179983 -1.641589,-1.692079 -0.370265,-0.305996 -0.778033,-0.583144 -1.245388,-0.716997 -0.312391,-0.08947 -0.364241,-0.07054 -0.685027,-0.07867 -0.639871,0.04664 -1.126969,0.327213 -1.621147,0.710539 -0.255871,0.230672 -0.507548,0.481994 -0.660869,0.795763 -0.1026,0.209976 -0.116922,0.312338 -0.173447,0.534424 -0.0674,0.40766 -0.09219,0.848395 0.06855,1.239991 0.03567,0.08689 0.08637,0.166828 0.129561,0.250243 0.317741,0.465098 0.720254,0.728768 1.218129,0.968701 0.483767,0.211693 0.992999,0.351353 1.511289,0.445669 0.544497,0.06612 1.09356,0.03952 1.638559,-0.0031 0.396071,-0.03186 0.790882,-0.07409 1.183405,-0.135776 0.205041,-0.03603 0.409667,-0.07388 0.612682,-0.119954 0.606515,-0.139068 0.409843,-0.99681 -0.196672,-0.857739 v 0 c -0.182986,0.04252 -0.368068,0.07468 -0.552855,0.108397 -0.370004,0.05835 -0.742246,0.09755 -1.115608,0.127786 -0.470268,0.03724 -0.943565,0.062 -1.414187,0.01423 -0.441764,-0.07779 -0.874877,-0.198466 -1.288455,-0.374089 -0.313505,-0.146693 -0.610664,-0.322707 -0.826685,-0.600845 -0.0208,-0.03198 -0.0453,-0.06184 -0.0624,-0.09595 -0.11588,-0.231182 -0.07962,-0.51404 -0.05026,-0.75951 0.02111,-0.09358 0.04308,-0.213886 0.08158,-0.304337 0.09225,-0.216715 0.274839,-0.380606 0.440116,-0.540941 0.317683,-0.251695 0.662075,-0.476821 1.074759,-0.523488 0.06204,-0.0021 0.124184,-0.01037 0.186134,-0.0063 0.451403,0.0294 0.837591,0.322022 1.177044,0.591437 0.554252,0.470847 1.062567,0.994523 1.517631,1.562248 0.259199,0.333735 0.520973,0.668893 0.741641,1.029708 0.313534,0.537488 1.07366,0.09408 0.760124,-0.443408 z" />
  <path
     style="fill:#000000;fill-opacity:1;fill-rule:nonzero;stroke:none;stroke-width:0.264583"
     d="m 99.896404,34.641969 c -1.56851,-0.411498 -10.973957,-2.996343 -13.035533,-3.560317 -0.595297,-0.181169 -0.97066,0.595176 -0.380804,0.79334 1.983961,0.592703 11.577707,3.165851 13.192917,3.618142"
     id="path12" />
  <path
     style="fill:url(#linearGradient13);fill-opacity:1;fill-rule:nonzero;stroke:none;stroke-width:0.264583"
     d="m 99.886124,34.643365 c 0.975196,0.263292 1.994826,0.538502 3.051536,0.839326 0.59847,0.170375 0.37416,1.013182 -0.22641,0.850375 -0.96135,-0.260611 -2.18538,-0.596842 -3.044026,-0.837363"
     id="path3" />
  <path
     style="fill:url(#linearGradient14);fill-opacity:1;fill-rule:nonzero;stroke:none;stroke-width:0.264583"
     d="m 112.52237,40.115513 c -0.91763,-0.222779 -1.82357,-0.493186 -2.70179,-0.842515 -0.74984,-0.313043 -1.49079,-0.661859 -2.11716,-1.189825 -0.56099,-0.463271 -1.09109,-0.964718 -1.49884,-1.572719 -0.15121,-0.242002 -0.22582,-0.340021 -0.33742,-0.602886 -0.15104,-0.355777 -0.21296,-0.740895 -0.20236,-1.125834 0.0392,-0.487852 0.13042,-0.970575 0.36594,-1.405898 0.13333,-0.225047 0.27114,-0.450128 0.45069,-0.642037 0.43511,-0.444841 1.0642,0.170496 0.62909,0.615337 l 5e-5,-1.4e-5 c -0.12675,0.143747 -0.22518,0.309211 -0.32188,0.473813 -0.16169,0.319763 -0.22168,0.671609 -0.24639,1.025357 -0.002,0.260392 0.0436,0.52115 0.15214,0.759152 0.0812,0.178084 0.14644,0.265365 0.25389,0.432611 0.35955,0.52731 0.82476,0.961177 1.31473,1.363956 0.56011,0.471569 1.22538,0.778126 1.89585,1.05662 0.83592,0.330687 1.69742,0.588767 2.57056,0.799597"
     id="path13" />
  <path
     style="fill:#000000;fill-opacity:1;fill-rule:nonzero;stroke:none;stroke-width:0.264583"
     d="m 112.53375,40.130042 c 1.08528,0.214824 2.16244,0.464433 3.23804,0.722561 1.2441,0.293662 2.49088,0.575606 3.73527,0.867997 1.12648,0.255609 2.24783,0.532559 3.37124,0.801158 0.43048,0.105533 0.86131,0.209635 1.29211,0.313817 0.60482,0.146265 0.81167,-0.709079 0.20685,-0.855344 v 0 c -0.43154,-0.104361 -0.86312,-0.208648 -1.29434,-0.314352 -1.12452,-0.26884 -2.24698,-0.546059 -3.37457,-0.801947 -1.24303,-0.292066 -2.48846,-0.573741 -3.7312,-0.867034 -1.08891,-0.261321 -2.17947,-0.513792 -3.27819,-0.731209"
     id="path7" />
  <path
     style="fill:url(#linearGradient15);fill-opacity:1;fill-rule:nonzero;stroke:none;stroke-width:0.264583"
     id="path8"
     d="m 103.30236,35.970964 c 0.001,0.0082 0.001,0.01623 0.003,0.02394 0.009,0.04545 0.0235,0.08981 0.0376,0.134028 0.0262,0.08186 0.0807,0.23391 0.11188,0.307822 0.0271,0.06422 0.0581,0.126697 0.0872,0.190047 0.20569,0.423922 0.45502,0.825628 0.73222,1.206351 0.0612,0.08412 0.12554,0.16604 0.18831,0.249063 0.23877,0.307618 0.48799,0.608419 0.76379,0.883874 0.17223,0.172012 0.22528,0.212162 0.40998,0.3721 0.35637,0.28626 0.72816,0.555613 1.12193,0.788473 0.0777,0.04603 0.15703,0.08928 0.23555,0.133917 0.43598,0.238771 0.8811,0.460634 1.32946,0.67513 0.56129,0.268616 0.18142,1.0624 -0.37987,0.793787 v 0 c -0.46722,-0.22367 -0.93114,-0.45487 -1.38521,-0.704299 -0.0873,-0.04987 -0.17543,-0.0983 -0.26194,-0.149523 -0.43434,-0.257984 -0.84498,-0.555359 -1.23717,-0.87322 -0.21521,-0.187586 -0.26874,-0.227583 -0.46958,-0.429 -0.2991,-0.299964 -0.57014,-0.626623 -0.8294,-0.96113 -0.069,-0.09155 -0.13957,-0.181876 -0.20689,-0.27463 -0.30846,-0.425012 -0.58488,-0.873965 -0.81265,-1.347429 -0.14154,-0.314954 -0.28825,-0.642523 -0.31736,-0.990825 -0.0201,-0.621927 0.85943,-0.650371 0.87954,-0.02844 z" />
  <path
     style="fill:#000000;fill-opacity:1;fill-rule:nonzero;stroke:none;stroke-width:0.264583"
     id="path11"
     d="m 120.78553,44.415503 c 0.0965,-0.03589 0.19729,-0.06076 0.29725,-0.0854 0.31246,-0.07871 0.61387,-0.195232 0.91487,-0.308927 0.29328,-0.111465 0.58715,-0.221552 0.87839,-0.338247 0.31727,-0.130109 0.6317,-0.267018 0.94814,-0.399102 0.31708,-0.131986 0.63926,-0.250976 0.9617,-0.369054 0.3405,-0.125253 0.68898,-0.226842 1.03961,-0.319223 0.38805,-0.09904 0.78258,-0.169169 1.17705,-0.236823 0.30013,-0.0496 0.60239,-0.0966 0.90705,-0.105342 0.0576,-0.0017 0.11508,-2.89e-4 0.17262,-4.03e-4 0.29721,0.0052 0.59466,0.03874 0.88574,0.09946 0.0581,0.01213 0.11565,0.02702 0.17347,0.04052 0.2329,0.05538 0.46008,0.131851 0.67913,0.228414 0.13303,0.05864 0.19337,0.09357 0.32206,0.161706 0.26055,0.151933 0.51305,0.321834 0.73309,0.52928 0.0422,0.03973 0.0818,0.08205 0.1227,0.123074 0.15504,0.166335 0.30658,0.337962 0.4353,0.525893 0.0658,0.09602 0.0988,0.155849 0.15795,0.255832 0.0871,0.184523 0.14622,0.384676 0.15401,0.589707 9.3e-4,0.03583 -0.002,0.07167 -0.003,0.107455 -0.017,0.148435 -0.0493,0.297995 -0.11557,0.433 -0.0383,0.078 -0.0677,0.113708 -0.11811,0.185247 -0.0265,0.03078 -0.0512,0.06306 -0.0793,0.09233 -0.12903,0.134366 -0.30074,0.259354 -0.46235,0.351011 -0.0441,0.025 -0.0903,0.04606 -0.13556,0.0691 -0.28884,0.14008 -0.59918,0.220833 -0.9123,0.284271 -0.26289,0.04834 -0.50967,0.03057 -0.77074,-0.01411 -0.25697,-0.05721 -0.49883,-0.16216 -0.73394,-0.278046 -0.24616,-0.130288 -0.4737,-0.29161 -0.69801,-0.455755 -0.21978,-0.159881 -0.42484,-0.338876 -0.62508,-0.522303 -0.19802,-0.188722 -0.39092,-0.382754 -0.5829,-0.577578 -0.19347,-0.193048 -0.37176,-0.399775 -0.54464,-0.611164 -0.19025,-0.232296 -0.38274,-0.462757 -0.57414,-0.694113 -0.1832,-0.219271 -0.35868,-0.444632 -0.53018,-0.673102 -0.19494,-0.250085 -0.36322,-0.519122 -0.5372,-0.783786 -0.18105,-0.275177 -0.35616,-0.554216 -0.52896,-0.834628 -0.139,-0.228261 -0.27882,-0.456088 -0.42361,-0.680729 -0.0931,-0.142559 -0.18478,-0.286034 -0.271,-0.432908 -0.0653,-0.114571 -0.13285,-0.227732 -0.19567,-0.343681 -0.0575,-0.102423 -0.11192,-0.206525 -0.16652,-0.310494 -0.0402,-0.07863 -0.0788,-0.15811 -0.11949,-0.236485 -0.2874,-0.551906 -1.06791,-0.145455 -0.78051,0.406447 v 0 c 0.0414,0.07942 0.0799,0.160187 0.12118,0.239664 0.0564,0.107284 0.11249,0.214787 0.17187,0.320516 0.0677,0.124707 0.13999,0.24675 0.21047,0.369901 0.0925,0.157302 0.19024,0.311367 0.29019,0.46406 0.14169,0.219482 0.27797,0.442423 0.41398,0.665453 0.17734,0.287662 0.35697,0.573975 0.54276,0.856276 0.18404,0.279972 0.36267,0.564125 0.56879,0.828739 0.17985,0.239514 0.36387,0.475768 0.55588,0.705709 0.19039,0.230113 0.38184,0.459349 0.57109,0.690398 0.19013,0.232302 0.38653,0.459251 0.59897,0.671653 0.20264,0.205562 0.40615,0.410391 0.61559,0.609057 0.22418,0.204957 0.45385,0.404753 0.69977,0.583486 0.26596,0.194292 0.53665,0.383906 0.82988,0.53545 0.31252,0.152659 0.6351,0.287997 0.97789,0.356175 0.15366,0.02478 0.19786,0.03531 0.35398,0.04666 0.24619,0.01791 0.49384,0.0054 0.73677,-0.03864 0.39327,-0.08117 0.78225,-0.186463 1.14338,-0.366455 0.0664,-0.03529 0.13427,-0.068 0.19926,-0.105847 0.24249,-0.141224 0.48003,-0.324433 0.66864,-0.53263 0.0466,-0.05155 0.0877,-0.108011 0.13149,-0.162015 0.0985,-0.149698 0.13212,-0.187962 0.2064,-0.352628 0.10739,-0.238015 0.16059,-0.497094 0.1776,-0.756527 -4.6e-4,-0.06696 0.002,-0.134005 -0.002,-0.200827 -0.0201,-0.331353 -0.12117,-0.653007 -0.2726,-0.946785 -0.0799,-0.133929 -0.11374,-0.195683 -0.20397,-0.325544 -0.15632,-0.225021 -0.33757,-0.432125 -0.52555,-0.63093 -0.0539,-0.05322 -0.10637,-0.108055 -0.16182,-0.159652 -0.27236,-0.253207 -0.58238,-0.462817 -0.90437,-0.647202 -0.17004,-0.08907 -0.22342,-0.120806 -0.40036,-0.198131 -0.2622,-0.114576 -0.53457,-0.204227 -0.81279,-0.270727 -0.0711,-0.01625 -0.14177,-0.03406 -0.21318,-0.04873 -0.34486,-0.07084 -0.69704,-0.108857 -1.04895,-0.113785 -0.0725,6.16e-4 -0.14493,-5.39e-4 -0.21735,0.0018 -0.33787,0.01091 -0.67323,0.06122 -1.00614,0.116613 -0.41992,0.07208 -0.83982,0.147287 -1.25277,0.253277 -0.37695,0.09962 -0.75161,0.208949 -1.11768,0.34376 -0.33469,0.12257 -0.66903,0.246267 -0.99813,0.38332 -0.31261,0.130553 -0.62333,0.265644 -0.93668,0.394414 -0.28565,0.114694 -0.57415,0.222254 -0.8618,0.33179 -0.26888,0.101602 -0.5378,0.206998 -0.81664,0.278244 -0.12659,0.03178 -0.2532,0.06461 -0.37615,0.108776 -0.003,10e-4 0.006,-0.0018 0.01,-0.0029 -0.58936,0.199659 -0.30699,1.033129 0.28236,0.833467 z" />
</svg>
