<?xml version="1.0" encoding="UTF-8" standalone="no"?>
<svg
   id="svg3224"
   version="1.1"
   viewBox="0 0 139.0195 70.499222"
   height="70.499222mm"
   width="139.0195mm"
   sodipodi:docname="40 meli li pali e ijo ike tawa mije. meli li pali e ijo+ike tawa mije..svg"
   inkscape:version="1.3 (0e150ed6c4, 2023-07-21)"
   xmlns:inkscape="http://www.inkscape.org/namespaces/inkscape"
   xmlns:sodipodi="http://sodipodi.sourceforge.net/DTD/sodipodi-0.dtd"
   xmlns:xlink="http://www.w3.org/1999/xlink"
   xmlns="http://www.w3.org/2000/svg"
   xmlns:svg="http://www.w3.org/2000/svg"
   xmlns:rdf="http://www.w3.org/1999/02/22-rdf-syntax-ns#"
   xmlns:cc="http://creativecommons.org/ns#"
   xmlns:dc="http://purl.org/dc/elements/1.1/">
  <sodipodi:namedview
     id="namedview1"
     pagecolor="#ffffff"
     bordercolor="#000000"
     borderopacity="0.25"
     inkscape:showpageshadow="2"
     inkscape:pageopacity="0.0"
     inkscape:pagecheckerboard="0"
     inkscape:deskcolor="#d1d1d1"
     inkscape:document-units="mm"
     inkscape:zoom="0.78531452"
     inkscape:cx="212.01696"
     inkscape:cy="164.90208"
     inkscape:window-width="1920"
     inkscape:window-height="1051"
     inkscape:window-x="-9"
     inkscape:window-y="-9"
     inkscape:window-maximized="1"
     inkscape:current-layer="svg3224" />
  <defs
     id="defs3218">
    <linearGradient
       id="swatch13"
       inkscape:swatch="solid">
      <stop
         style="stop-color:#ff4400;stop-opacity:1;"
         offset="0"
         id="stop13" />
    </linearGradient>
    <linearGradient
       inkscape:collect="always"
       xlink:href="#swatch13"
       id="linearGradient13"
       x1="105.90589"
       y1="37.809638"
       x2="109.5559"
       y2="37.809638"
       gradientUnits="userSpaceOnUse" />
    <linearGradient
       inkscape:collect="always"
       xlink:href="#swatch13"
       id="linearGradient14"
       x1="110.65762"
       y1="40.815177"
       x2="119.60812"
       y2="40.815177"
       gradientUnits="userSpaceOnUse" />
    <linearGradient
       inkscape:collect="always"
       xlink:href="#swatch13"
       id="linearGradient15"
       x1="108.70436"
       y1="37.057149"
       x2="116.832"
       y2="37.057149"
       gradientUnits="userSpaceOnUse" />
  </defs>
  <metadata
     id="metadata3221">
    <rdf:RDF>
      <cc:Work
         rdf:about="">
        <dc:format>image/svg+xml</dc:format>
        <dc:type
           rdf:resource="http://purl.org/dc/dcmitype/StillImage" />
        <dc:title />
      </cc:Work>
    </rdf:RDF>
  </metadata>
  <g
     transform="translate(-88.343584,-110.07279)"
     id="layer1">
    <g
       transform="matrix(0.26458333,0,0,0.26458333,84.450135,135.51291)"
       id="g3804">
      <path
         style="opacity:0.2"
         d="m 209.7,107.5 c 0,0 27.3,5.5 24.9,7.4 -2.4,1.9 -17.2,3.7 -24.6,3.4 -9.9,-0.4 -30.8,4.1 -37.8,7 -9.5,3.8 -18.1,11.7 -20.8,14.1 -2.7,2.4 -15.4,11.1 -23.4,12 -21.1,2.3 -42.2,-5.7 -42.2,-5.7 0,0 -19.5,3 -26.8,7.5 -11.9,7.4 -12.2,2.7 -9.5,0.8 7.4,-5 37.1,-19.7 37.1,-19.7 l 17.7,-8.2 46.9,-9.5 c 0,0 -16.4,9.1 -25.2,11.7 -6.6,1.9 -15,2.3 -20.4,5.6 -4.5,2.7 -12.6,7.5 -12.6,7.5 l 44.6,-3.4 24,-19.2 25.9,-11.4 z"
         id="path3769" />
      <path
         style="fill:#fbd7c7"
         d="m 145.3,118.1 c -3.5,0.6 -8.1,4.1 -12.9,8.1 -4.8,4 -12.3,11.5 -13.7,11.7 -1.4,0.2 -9.5,-3.1 -19.8,-1.9 -10.3,1.2 -19.9,1.4 -22.2,0.4 -2.3,-1 -5.4,-5.2 -9.1,-3.9 -3.8,1.3 -8.5,4.2 -13.4,4.4 -5,0.1 -11.5,1 -11.1,3.4 0.4,2.5 3,6.7 6.8,6.4 3.7,-0.3 13.4,-3.4 19.9,-2.8 6.4,0.6 25.4,6.2 34.9,6.9 9.5,0.7 17.2,0 23.7,-1.4 6.5,-1.4 16.1,-3.3 27.5,-14.8 11.4,-11.5 14.8,-13.4 14.8,-13.4 0,0 -10.1,-5.7 -25.4,-3.1 z"
         id="path3771" />
      <path
         style="opacity:0.15"
         d="m 85.4,136.9 c 2.9,-0.1 6.3,-0.3 9.8,-0.6 -1.9,1 -6,3.6 -8.6,5.6 -1.8,1.4 -3.4,3 -4.5,4.3 -5.3,-1.2 -10,-2.3 -12.6,-2.5 -0.6,-0.1 -1.2,-0.1 -1.8,-0.1 l -0.3,-0.1 z"
         id="path3773" />
      <path
         style="fill:#fbd7c7"
         d="m 44.2,160.7 c 1,2.5 3.8,9 5.8,9.5 2,0.5 2,-0.9 1.8,-2.8 -0.2,-2 0.1,-6.6 2.3,-10.4 2.3,-3.8 13.8,-8.8 21,-11.5 7.2,-2.7 19.2,-8.1 24.5,-11.7 5.3,-3.6 11.1,-2.9 20.9,-5.8 9.8,-2.8 13,-5.4 14.6,-5.3 1.5,0.1 12.8,-1.4 13,-1.4 0.2,0 19.8,0.7 21.8,0 2,-0.7 11.1,-1.2 21.1,-2 9.9,-0.8 15.2,-2.6 19.2,-4.1 4,-1.5 14.2,-2.9 20.2,-3.2 6.6,-0.4 8.7,-2.8 9.5,-5.4 0.8,-2.6 -2.4,-4.8 -7.4,-7 -5,-2.1 -13.6,-4.7 -14.8,-5 -1.2,-0.3 -1.3,-2.3 -1.3,-3.6 0,-0.2 -0.1,-0.5 -0.3,-0.8 0.1,-0.3 0.2,-0.5 0.3,-0.7 0.2,-1 -0.9,-1.5 -0.9,-1.5 0,0 8.1,-8.1 3.4,-12.9 -4.7,-4.8 -8.3,-3.3 -13.3,-0.7 -5,2.5 -7.1,7.4 -7.6,8 0,0 -1.1,0.8 -5,1.1 -1.7,0.1 -3.2,-0.6 -4.4,-1.4 -0.5,-0.5 -1.7,-2.3 -1.9,-2.5 -1.7,-2.1 -3.3,-6.5 -9.4,-5.4 -6.1,1.1 -14.6,14 -20.3,18.5 -5.7,4.4 -13.6,4.5 -26.8,8.7 -13.2,4.2 -24.2,13.9 -29.9,17.8 -5.7,3.9 -12.1,3.6 -20.3,8 -8.3,4.4 -22.2,18 -24.2,19.5 -2,1.5 -4.8,2.7 -6.6,3.4 -2,0.8 -5,0.6 -6,2.8 -0.5,0.8 0,5.3 1,7.8 z M 209.7,101 c -3.7,-0.2 -5.2,-1.9 -7.9,-3.4 0.1,-0.3 0.3,-0.7 0.7,-1.2 0.3,-0.4 1.5,-1.2 2.7,-2 1.5,1.4 3.1,2.6 4.1,3.2 1.8,1.1 6.6,3.2 6.6,3.2 0,0 -2,0.4 -6.2,0.2 z"
         id="path3775" />
      <path
         style="fill:#2d3134"
         d="m 170,121.7 c -1.3,1.4 -3.5,3.5 -5.4,5.6 -5.5,5.9 -15.7,14.1 -15.7,14.1 0,0 -3,-4.2 -6.8,-6.6 -6.9,-4.5 -8.9,-9.5 -8.9,-9.5 l 1.7,-1.9 -3.6,1.1 c 0,0 -2.1,-6.3 -6.7,-9.5 -6.4,-4.4 -5.6,-9 -5.6,-9 0,0 6.3,-4.5 14.3,-7 7.6,-2.4 15.4,-2.8 15.4,-2.8 0,0 2.2,4.1 7,10.2 4.7,6 14.3,15.3 14.3,15.3 z"
         id="path3777" />
      <path
         style="fill:#cc291f"
         d="m 204.8,99.3 c 0,0 -6.4,1 -11.8,6.8 -5.4,5.9 -4.5,13.6 -4.5,13.6 0,0 -12.6,1.1 -16.3,2.8 -3.7,1.7 -9.1,6.6 -9.1,6.6 0,0 -5.3,-5.5 -9.3,-9.8 -5.6,-6 -6.9,-14 -9.4,-17.3 -2.5,-3.3 -5.4,-4.9 -5.4,-4.9 0,0 5.6,-1 11.8,-2.5 7,-1.7 13.5,-8.6 14.7,-9.2 2,-1 19.8,-8.2 19.8,-8.2 l 1.9,2.5 c 0,0 -6.8,3.9 -3.5,10.7 3.3,6.9 8.8,7.9 12.1,7.6 5.6,-0.5 6.4,-0.7 6.4,-0.7 z"
         id="path3779" />
      <path
         style="opacity:0.15"
         d="m 157,92.6 c 2.7,-2.1 6,-6.1 9.4,-9.7 -2,3.2 -5.2,8.6 -5.4,9.5 -0.2,1.3 4.5,5 7.1,13.4 0.3,0.8 0.9,2.2 0.9,2.7 -0.2,1.5 -2.8,0 -3.1,1.5 -0.5,2.4 -2,5.5 -2.4,5.8 -8.8,6 -11.2,-14.1 -11.2,-14.1 l -3.5,-5.3 c 3.2,-0.9 5.9,-2 8.2,-3.8 z"
         id="path3781" />
      <path
         style="fill:#fbd7c7"
         d="m 184.4,76.7 c 0,0 -3.5,-6.8 -9.3,-5.6 -5.8,1.3 -9.7,7.5 -11.6,8.9 -1.9,1.5 -11.4,7.4 -13.5,8.5 -2.1,1.1 -5.1,4 -5.1,5.6 0,1.6 0.7,2.3 2.1,2.1 1.3,-0.1 5.7,1 5.7,1 0,0 -0.3,4.4 0.4,7.3 0.7,2.9 2.5,9.7 4.9,11.6 1.1,0.8 3.2,1 4.7,0.3 1.6,-0.8 2.1,-3.8 1.9,-7.3 -0.2,-3.2 0.1,-4.7 0.1,-4.7 0,0 0.3,2.2 1.1,3.1 0.8,0.9 2.5,1.6 2.8,0.9 0.3,-0.7 -0.6,-1.4 -1.3,-2.7 -0.7,-1.3 -0.9,-4 -2.1,-5.2 -1.1,-1.2 -4.4,-6.4 -5.9,-7 -1.2,-0.5 -2.4,-0.7 -2.4,-0.7 0,0 7.4,-6.7 10.6,-9.4 3.2,-2.7 9.1,-7.2 10.7,-7.5 1.6,-0.4 6.2,0.8 6.2,0.8 z"
         id="path3783" />
      <path
         style="fill:#762c07"
         d="m 216.6,73.2 c 4.6,2.8 5.3,7.4 3,12.9 -2.1,5.1 -5.3,6.4 -7.5,6.9 -1.9,0.4 -4.5,-0.1 -4.5,-0.1 l 4,-1.6 c 0,0 1.1,0.7 2.4,0.4 1.7,-0.4 2.6,-1.8 2.1,-2.7 -0.5,-0.9 -1.7,-0.7 -1.7,-0.7 l -0.6,-0.4 c 0,0 3.9,-3.5 4.7,-6.4 1.6,-6 -1.9,-8.3 -1.9,-8.3 z"
         id="path3785" />
    </g>
    <g
       transform="matrix(0.26458333,0,0,0.26458333,81.089927,106.85854)"
       id="g4150">
      <path
         style="opacity:0.2"
         d="m 38.8,160.9 6.8,-3.6 141.4,71.3 -6.8,3.6 z"
         id="path3806" />
      <path
         style="fill:#cc291f"
         d="m 128.9,116.1 h 3.6 v 48.2 h -3.6 z"
         transform="matrix(0.702,0.7121,-0.7121,0.702,138.7409,-51.285)"
         id="path3808" />
      <path
         style="fill:#cc291f"
         d="m 61.2,141.8 h 55.9 v 2.6 H 61.2 Z"
         transform="matrix(0.8849,0.4657,-0.4657,0.8849,76.911,-25.0529)"
         id="path3810" />
      <path
         style="fill:#2d3134"
         d="m 113.7,156.3 -2.2,-5.1 -8.7,-8.1 -5.8,-4.9 c -0.1,-0.1 -0.2,-0.3 -0.2,-0.5 0,-0.2 0.1,-0.3 0.3,-0.4 l 1.6,-0.7 0.4,0.9 -0.9,0.3 5.2,4.4 8.8,8.1 c 0,0 0.1,0.1 0.1,0.2 l 2.2,5.2 z"
         id="path3812" />
      <path
         style="fill:#fbd7c7"
         d="m 110,74.6 c 0,0 12.5,9.6 16.6,15.2 4.1,5.6 12.5,18.5 13.1,21.2 1,4.4 -0.5,7.9 -6.3,9.9 -4.6,1.6 -16.1,5.5 -18.5,7.2 -2.4,1.7 -4.2,2.6 -4.5,4.5 -0.3,1.9 1.2,6 -0.5,6.8 -1.7,0.8 -10.2,-8.4 -9.9,-10.4 0.3,-1.9 3.2,-2.8 6.3,-4.5 3.2,-1.7 8,-7.2 11.3,-9.5 2.9,-2 7.2,-3.2 7.2,-3.2 0,0 -9.2,-6.8 -14.9,-11.7 C 104.3,95.1 98.6,87 98.6,87 Z"
         id="path3814" />
      <path
         style="fill:#2d3134"
         d="M 101.2,139.5 96,136.9 V 135 l 9.1,-4.6 5.2,2.6 v 2 z"
         id="path3816" />
      <path
         style="opacity:0.11"
         d="m 96,135 v 1.9 l 5.2,2.6 v -1.9 z"
         id="path3818" />
      <path
         style="fill:#cc291f"
         d="m 110.3,133 v 2 l -9.1,4.5 v -1.9 z"
         id="path3820" />
      <path
         style="opacity:0.29"
         d="m 110.3,133 v 2 l -9.1,4.5 v -1.9 z"
         id="path3822" />
      <path
         style="fill:#cc291f"
         d="m 173.3,184.6 c -0.5,0.1 -1,-0.2 -1.1,-0.7 -4.1,-14.6 -11.7,-41.4 -12.7,-44 -1,-2.5 -7.8,-6 -9,-6.4 l 0.7,-2.8 c 0.5,0.1 9.3,4 10.9,8.2 1.2,3.2 10.1,37.9 11.9,44.5 0.2,0.5 -0.1,1.1 -0.7,1.2 z"
         id="path3824" />
      <path
         style="fill:#656565"
         d="m 148.9,195.4 c -9.3,-18.6 -8.7,-38.1 0.9,-45.1 -0.9,0.2 -1.8,0.6 -2.6,1 -11.5,5.7 -12.8,26.5 -2.8,46.3 9.9,19.8 27.2,31.2 38.7,25.5 0.7,-0.3 1.3,-0.7 1.9,-1.2 -11.3,3 -26.9,-8.1 -36.1,-26.5 z"
         id="path3826" />
      <path
         style="opacity:0.2"
         d="m 148.9,195.4 c -9.3,-18.6 -8.7,-38.1 0.9,-45.1 -0.9,0.2 -1.8,0.6 -2.6,1 -11.5,5.7 -12.8,26.5 -2.8,46.3 9.9,19.8 27.2,31.2 38.7,25.5 0.7,-0.3 1.3,-0.7 1.9,-1.2 -11.3,3 -26.9,-8.1 -36.1,-26.5 z"
         id="path3828" />
      <path
         style="fill:#2d3134"
         d="m 170.3,221.2 h -0.2 l 3.3,-37.1 1.9,-25.7 h 0.2 l -1.9,25.7 z"
         id="path3830" />
      <path
         style="fill:#2d3134"
         d="M 188.9,220.9 173.4,184.2 159,149 l 0.2,-0.1 14.4,35.2 15.5,36.7 z"
         id="path3832" />
      <path
         style="fill:#2d3134"
         d="m 156.3,209.2 -0.2,-0.1 17.3,-25 10.3,-14.4 0.2,0.1 -10.3,14.4 z"
         id="path3834" />
      <path
         style="fill:#2d3134"
         d="m 194.5,205.6 -21.1,-21.4 -30.3,-27.3 0.1,-0.2 30.4,27.3 21,21.5 z"
         id="path3836" />
      <path
         style="fill:#2d3134"
         d="m 193.9,193 -20.5,-8.8 -33.2,-13.7 0.1,-0.2 33.2,13.7 20.5,8.8 z"
         id="path3838" />
      <path
         style="fill:#2d3134"
         d="m 173.5,184.2 -30.7,-0.3 v -0.3 l 30.7,0.4 h 19.4 v 0.2 z"
         id="path3840" />
      <path
         style="fill:#2d3134"
         d="m 148.1,197.8 -0.1,-0.2 25.4,-13.6 13.6,-7.5 0.1,0.2 -13.6,7.5 z"
         id="path3842" />
      <ellipse
         style="fill:#999999"
         cx="173.39999"
         cy="184"
         rx="2.0999999"
         ry="3.5999999"
         transform="matrix(0.8945,-0.4471,0.4471,0.8945,-63.9911,96.9322)"
         id="ellipse3844" />
      <path
         style="fill:#999999"
         d="m 163,186.4 8.5,-4.3 c 1.2,-0.6 1.8,0.3 2.4,1.5 0.6,1.2 0.9,2.2 -0.3,2.8 l -8.5,4.3 z"
         id="path3846" />
      <path
         style="opacity:0.2"
         d="m 174.2,184.1 c -0.1,0.2 -0.3,0.4 -0.7,0.6 l -8.5,4.3 -1.4,-2.9 -0.5,0.3 2.1,4.3 8.5,-4.3 c 1,-0.5 0.9,-1.3 0.5,-2.3 z"
         id="path3848" />
      <g
         style="fill:#2d3134"
         id="g3866">
        <path
           d="m 163.4,216.7 h -0.2 l 0.2,-27.9 1.8,-35.2 h 0.2 l -1.8,35.2 z"
           id="path3850" />
        <path
           d="m 175.3,222.6 -11.9,-33.8 -9.3,-39.1 h 0.2 l 9.3,39 11.9,33.8 z"
           id="path3852" />
        <path
           d="m 151.7,205.4 -0.2,-0.2 11.9,-16.5 14.8,-23.5 0.2,0.1 -14.8,23.5 z"
           id="path3854" />
        <path
           d="m 185.4,221.6 -22,-32.8 -18.4,-34.8 0.2,-0.1 18.4,34.8 21.9,32.8 z"
           id="path3856" />
        <path
           d="m 192.2,214.8 -28.8,-25.9 -23.9,-26.5 0.2,-0.1 23.9,26.4 28.8,26 z"
           id="path3858" />
        <path
           d="m 194.2,202.8 -30.7,-13.9 -24.6,-13.1 0.1,-0.2 24.6,13.1 30.7,13.9 z"
           id="path3860" />
        <path
           d="m 143.2,191.1 v -0.2 l 20.3,-2.2 27.5,-4.1 v 0.3 l -27.5,4 z"
           id="path3862" />
        <path
           d="m 192.6,173.5 c -11.1,-22.2 -31.3,-34.7 -45,-27.8 -13.8,6.9 -15.9,30.5 -4.8,52.7 11.1,22.2 31.3,34.7 45,27.8 13.8,-6.9 15.9,-30.5 4.8,-52.7 z m -9.5,49.5 c -11.5,5.7 -28.8,-5.7 -38.7,-25.5 -9.9,-19.8 -8.6,-40.5 2.8,-46.3 11.5,-5.7 28.8,5.7 38.7,25.5 10,19.9 8.7,40.6 -2.8,46.3 z"
           id="path3864" />
      </g>
      <path
         style="fill:#999999"
         d="m 176.6,225 c -5.4,0 -11.6,-2.7 -17.4,-7.5 -6,-4.9 -11.2,-11.8 -15.2,-19.8 -10,-20 -8.6,-41.1 3.1,-46.9 2,-1 4.3,-1.5 6.7,-1.5 5.4,0 11.6,2.7 17.4,7.5 6,4.9 11.2,11.8 15.2,19.8 10,20 8.6,41.1 -3.1,46.9 -2,1 -4.3,1.5 -6.7,1.5 z m -22.9,-74.7 c -2.3,0 -4.4,0.5 -6.3,1.4 -11.2,5.6 -12.4,26.1 -2.6,45.6 7.9,15.7 20.9,26.7 31.8,26.7 2.3,0 4.4,-0.5 6.3,-1.4 11.2,-5.6 12.4,-26.1 2.6,-45.6 -7.8,-15.7 -20.9,-26.7 -31.8,-26.7 z"
         id="path3868" />
      <ellipse
         style="fill:#999999"
         cx="163.60001"
         cy="188.8"
         rx="2.0999999"
         ry="3.5999999"
         transform="matrix(0.8945,-0.4471,0.4471,0.8945,-67.1622,93.071)"
         id="ellipse3870" />
      <path
         style="fill:#ffffff"
         d="m 108.7,122.6 c 0,0 -1.5,3.9 0.2,6 1.7,2 2.6,2.3 2.6,2.3 0,0 -1.4,1.4 -0.7,2.6 0.7,1.1 1.8,3.8 -0.4,5 -2.3,1.1 -9.8,-5 -9.8,-7.2 0,-2.2 0.9,-5.4 0.9,-5.4 0,0 2.4,-0.3 4.1,-1 1.7,-0.9 3.1,-2.3 3.1,-2.3 z"
         id="path3872" />
      <path
         style="fill:#656565"
         d="M 40.6,141.1 C 31.3,122.5 31.9,103 41.5,96 c -0.9,0.2 -1.8,0.6 -2.6,1 -11.5,5.7 -12.8,26.5 -2.8,46.3 9.9,19.8 27.2,31.2 38.7,25.5 0.7,-0.3 1.3,-0.7 1.9,-1.2 -11.3,3 -26.9,-8.2 -36.1,-26.5 z"
         id="path3874" />
      <path
         style="opacity:0.2"
         d="M 40.6,141.1 C 31.3,122.5 31.9,103 41.5,96 c -0.9,0.2 -1.8,0.6 -2.6,1 -11.5,5.7 -12.8,26.5 -2.8,46.3 9.9,19.8 27.2,31.2 38.7,25.5 0.7,-0.3 1.3,-0.7 1.9,-1.2 -11.3,3 -26.9,-8.2 -36.1,-26.5 z"
         id="path3876" />
      <path
         style="fill:#2d3134"
         d="m 61.9,166.9 -0.2,-0.1 3.3,-37 1.9,-25.7 h 0.2 l -1.8,25.7 z"
         id="path3878" />
      <path
         style="fill:#2d3134"
         d="M 80.6,166.6 65.1,129.9 50.7,94.7 l 0.2,-0.1 14.4,35.2 15.5,36.7 z"
         id="path3880" />
      <path
         style="fill:#2d3134"
         d="m 47.9,154.9 -0.1,-0.1 17.3,-25.1 10.3,-14.3 0.2,0.1 -10.3,14.4 z"
         id="path3882" />
      <path
         style="fill:#2d3134"
         d="m 86.1,151.3 -21,-21.4 -30.3,-27.4 0.1,-0.1 30.3,27.3 21.1,21.5 z"
         id="path3884" />
      <path
         style="fill:#2d3134"
         d="M 85.5,138.7 65.1,129.9 31.9,116.2 32,116 l 33.2,13.7 20.4,8.7 z"
         id="path3886" />
      <path
         style="fill:#2d3134"
         d="m 65.2,129.9 -30.7,-0.3 v -0.3 l 30.7,0.4 h 19.4 v 0.2 z"
         id="path3888" />
      <path
         style="fill:#2d3134"
         d="m 39.8,143.5 -0.1,-0.2 25.4,-13.6 13.6,-7.5 0.1,0.2 -13.6,7.5 z"
         id="path3890" />
      <ellipse
         style="fill:#999999"
         cx="65"
         cy="129.7"
         rx="2.0999999"
         ry="3.5999999"
         transform="matrix(0.8945,-0.4471,0.4471,0.8945,-51.1376,42.7607)"
         id="ellipse3892" />
      <path
         style="fill:#999999"
         d="m 54.7,132.1 9.1,-4.6 2.1,4.3 -9.1,4.6 z"
         id="path3894" />
      <path
         style="fill:#2d3134"
         d="m 55.1,162.4 h -0.2 l 0.2,-27.9 1.7,-35.2 h 0.3 l -1.8,35.2 z"
         id="path3896" />
      <path
         style="fill:#2d3134"
         d="M 66.9,168.3 55.1,134.5 45.8,95.4 46,95.3 l 9.3,39.1 11.8,33.8 z"
         id="path3898" />
      <path
         style="fill:#2d3134"
         d="m 43.4,151.1 -0.2,-0.2 11.9,-16.5 14.8,-23.6 0.2,0.2 -14.8,23.5 z"
         id="path3900" />
      <path
         style="fill:#2d3134"
         d="M 77,167.3 55.1,134.5 36.7,99.7 l 0.2,-0.2 18.4,34.9 21.9,32.8 z"
         id="path3902" />
      <path
         style="fill:#2d3134"
         d="m 83.9,160.5 -28.8,-26 -23.9,-26.4 0.1,-0.1 24,26.4 28.7,25.9 z"
         id="path3904" />
      <path
         style="fill:#2d3134"
         d="m 85.9,148.5 -30.8,-13.9 -24.5,-13.1 0.1,-0.2 24.5,13.1 30.7,13.9 z"
         id="path3906" />
      <path
         style="fill:#2d3134"
         d="m 34.8,136.8 v -0.2 l 20.4,-2.3 27.4,-4 0.1,0.2 -27.5,4.1 z"
         id="path3908" />
      <path
         style="fill:#2d3134"
         d="M 84.3,119.1 C 73.2,96.9 53,84.5 39.3,91.3 25.6,98.1 23.4,121.8 34.5,144 c 11.1,22.2 31.3,34.7 45,27.8 13.8,-6.8 15.9,-30.4 4.8,-52.7 z m -9.5,49.6 C 63.3,174.4 46,163 36.1,143.2 c -9.9,-19.8 -8.6,-40.5 2.8,-46.3 11.5,-5.7 28.8,5.7 38.7,25.5 9.9,19.9 8.7,40.6 -2.8,46.3 z"
         id="path3910" />
      <path
         style="fill:#999999"
         d="m 68.3,170.7 c -5.4,0 -11.6,-2.7 -17.4,-7.5 -6,-4.9 -11.2,-11.8 -15.2,-19.8 -10,-20 -8.6,-41.1 3.1,-46.9 2,-1 4.3,-1.5 6.7,-1.5 5.4,0 11.6,2.7 17.4,7.5 6,4.9 11.2,11.8 15.2,19.8 10,20 8.6,41.1 -3.1,46.9 -2,1 -4.3,1.5 -6.7,1.5 z M 45.4,96 c -2.3,0 -4.4,0.5 -6.3,1.4 -11.2,5.6 -12.4,26.1 -2.6,45.6 7.9,15.7 20.9,26.7 31.8,26.7 2.3,0 4.4,-0.5 6.3,-1.4 C 85.8,162.7 87,142.2 77.2,122.7 69.3,106.9 56.3,96 45.4,96 Z"
         id="path3912" />
      <ellipse
         style="fill:#999999"
         cx="55.299999"
         cy="134.5"
         rx="2.0999999"
         ry="3.5999999"
         transform="matrix(0.8945,-0.4471,0.4471,0.8945,-54.3087,38.8995)"
         id="ellipse3914" />
      <ellipse
         style="fill:#656565"
         cx="56.400002"
         cy="134.10001"
         rx="4.5"
         ry="7.6999998"
         transform="matrix(0.8945,-0.4471,0.4471,0.8945,-53.989,39.3609)"
         id="ellipse3916" />
      <ellipse
         style="opacity:0.2"
         cx="56.400002"
         cy="134.10001"
         rx="4.5"
         ry="7.6999998"
         transform="matrix(0.8945,-0.4471,0.4471,0.8945,-53.989,39.3609)"
         id="ellipse3918" />
      <path
         style="fill:#333399"
         d="m 103.6,125.6 c 0,0 -2.1,-0.6 -3.2,0.2 -1,0.8 -2.5,2 -2.6,4.2 -0.1,2.2 5.1,6.5 6.6,10 1.6,3.5 5.8,7.7 6.6,8.2 2.4,1.5 5.2,0 5.6,-1.7 0.3,-1.7 -0.9,-7 -2.8,-9.8 -1.3,-1.9 -2.9,-3.6 -2.9,-3.6 0,0 -0.2,2.5 -1.9,3.2 -1.7,0.7 -4.4,-1 -5.4,-2.6 -1,-1.6 -2.9,-5.7 -2.1,-6.9 0.7,-1.1 2.1,-1.2 2.1,-1.2 z"
         id="path3920" />
      <path
         style="fill:#cc291f"
         d="m 70.3,126.4 h 59.9 V 130 H 70.3 Z"
         transform="matrix(0.3582,0.9336,-0.9336,0.3582,183.9552,-11.3189)"
         id="path3922" />
      <path
         style="fill:#cc291f"
         d="m 70.3,126.4 h 59.9 V 130 H 70.3 Z"
         transform="matrix(0.3582,0.9336,-0.9336,0.3582,183.9552,-11.3189)"
         id="path3924" />
      <path
         style="fill:#2d3134"
         d="m 110.3,171.4 c -1.5,-0.7 -23.7,-13.4 -44.5,-25.3 -5.1,-2.9 -8.9,-5.1 -9,-5.2 -1.5,-0.8 -3.5,-2 -4.8,-4.6 -1,-1.9 -1.4,-3.9 -1.3,-5.7 0.1,-1.9 0.9,-3.2 2.1,-3.8 1,-0.5 2.4,-0.4 3.7,0.3 l 51.9,18.9 c 3.3,1.3 6.5,4.6 8.6,8.8 1.7,3.4 2.5,6.9 2.2,10 -0.2,3.2 -1.5,5.5 -3.7,6.6 -0.8,0.4 -1.7,0.6 -2.6,0.6 -0.5,0 -1.1,-0.1 -1.6,-0.2 z m 0.4,-0.9 0.2,0.1 c 0.7,0.2 1.4,0.3 2.1,0.3 0.8,0 1.5,-0.2 2.1,-0.5 1.8,-0.9 2.9,-3 3.1,-5.8 0.2,-2.9 -0.5,-6.3 -2.1,-9.5 -2.1,-4.1 -5.2,-7.3 -8.3,-8.4 L 107.5,146.6 56,127.9 c -1.1,-0.6 -2.1,-0.7 -2.8,-0.3 -0.9,0.5 -1.4,1.5 -1.5,3 -0.1,1.6 0.3,3.4 1.2,5.2 1.2,2.3 2.9,3.5 4.3,4.2 0.1,0.1 3,1.7 9.1,5.2 14,8.1 43.3,24.8 44.4,25.3 z"
         id="path3926" />
      <path
         style="fill:#cc291f"
         d="M 107.8,160.9 54.6,135.7 c -0.5,-0.2 -0.7,-0.7 -0.7,-1.2 0,-0.5 0.3,-1 0.8,-1.2 l 39,-17.4 0.9,2.5 -36.3,16.1 50.6,24 z"
         id="path3928" />
      <path
         style="fill:#cc291f"
         d="m 146.8,123.4 -49.6,-4.7 c -0.5,0 -0.9,-0.3 -1.1,-0.7 -0.5,-1.1 -0.1,-2.3 1,-2.9 l 50,4.8 z"
         id="path3930" />
      <path
         style="fill:#cc291f"
         d="m 149.9,133.9 -7,-20.7 0.2,-1.3 3.1,-0.1 7.1,21 z"
         id="path3932" />
      <path
         style="fill:#cc291f"
         d="m 163.6,189.7 c -0.6,0.2 -1.2,0 -1.5,-0.6 -2.9,-7.2 -15.8,-39.5 -16.1,-44.5 -0.3,-6.1 3.8,-13.3 3.9,-13.7 l 2.5,1.4 c 0,0.1 -3.8,6.9 -3.6,12 0.2,3.6 8.8,27.9 15.2,43.8 0.4,0.8 0.2,1.4 -0.4,1.6 z"
         id="path3934" />
      <path
         style="fill:#cc291f"
         d="m 144.2,110.7 c 0.4,-0.2 0.7,-0.2 0.9,-0.1 l 4.4,2.2 c 0.3,0.1 0.4,0.4 0.4,0.8 0,0.8 -0.6,1.7 -1.4,2 -0.4,0.2 -0.7,0.2 -1,0.1 0,0 -4.4,-2.2 -4.5,-2.3 -0.2,-0.1 -0.4,-0.4 -0.4,-0.7 0.2,-0.7 0.8,-1.7 1.6,-2 z"
         id="path3936" />
      <path
         style="opacity:0.1"
         d="m 147.6,115.7 c -0.1,0 -4.4,-2.2 -4.5,-2.3 -0.2,-0.1 -0.4,-0.4 -0.4,-0.7 0,-0.3 0.1,-0.6 0.3,-0.9 l 4.4,2.2 c -0.2,0.3 -0.3,0.6 -0.3,0.9 0.2,0.4 0.3,0.7 0.5,0.8 z"
         id="path3938" />
      <path
         style="opacity:0.11"
         d="m 147.3,114.9 c 0,0.8 0.6,1.1 1.4,0.7 0.8,-0.4 1.4,-1.3 1.4,-2 0,-0.7 -0.6,-1.1 -1.4,-0.7 -0.8,0.4 -1.4,1.3 -1.4,2 z"
         id="path3940" />
      <path
         style="fill:#cc291f"
         d="m 114.2,153.5 c -0.7,-0.4 -1.4,-0.4 -1.9,-0.2 l -6,3.1 c -0.5,0.2 -0.8,0.8 -0.8,1.5 0,1.5 1.2,3.3 2.7,4.1 0.7,0.4 1.4,0.4 1.9,0.2 0,0 6,-3.1 6.2,-3.2 0.4,-0.3 0.7,-0.8 0.7,-1.5 -0.1,-1.4 -1.3,-3.2 -2.8,-4 z"
         id="path3942" />
      <path
         style="opacity:0.2"
         d="m 110,162.2 c 0.2,-0.1 6,-3.1 6.1,-3.1 0.4,-0.3 0.7,-0.8 0.7,-1.5 0,-0.6 -0.2,-1.3 -0.5,-1.9 l -6,3.1 c 0.3,0.6 0.5,1.3 0.5,1.9 0,0.7 -0.3,1.2 -0.8,1.5 z"
         id="path3944" />
      <path
         style="opacity:0.11"
         d="m 110.8,160.7 c 0,1.5 -1.2,2.1 -2.7,1.4 -1.5,-0.7 -2.7,-2.6 -2.7,-4.1 0,-1.5 1.2,-2.1 2.7,-1.4 1.5,0.8 2.7,2.6 2.7,4.1 z"
         id="path3946" />
      <path
         style="fill:#656565"
         d="m 112.8,171.2 c -3.8,0 -8.2,-3.6 -10.9,-9 -3.4,-6.8 -2.9,-13.6 1.2,-15.7 0.7,-0.4 1.5,-0.5 2.4,-0.5 3.8,0 8.2,3.6 10.9,9 3.4,6.8 2.9,13.6 -1.2,15.7 -0.8,0.3 -1.6,0.5 -2.4,0.5 z m -7.3,-23.9 c -0.6,0 -1.2,0.1 -1.8,0.4 -3.3,1.7 -3.6,7.9 -0.6,13.9 2.4,4.9 6.4,8.3 9.7,8.3 0.6,0 1.2,-0.1 1.8,-0.4 3.3,-1.7 3.6,-7.9 0.6,-13.9 -2.4,-4.9 -6.4,-8.3 -9.7,-8.3 z"
         id="path3948" />
      <path
         style="fill:#656565"
         d="m 112.5,169.3 c -3,0 -6.7,-3.2 -9,-7.8 -2.9,-5.7 -2.7,-11.4 0.4,-13 0.5,-0.3 1.1,-0.4 1.7,-0.4 3,0 6.7,3.2 9,7.8 2.9,5.7 2.7,11.4 -0.4,13 -0.5,0.2 -1.1,0.4 -1.7,0.4 z m -6.9,-20.2 c -0.4,0 -0.8,0.1 -1.2,0.3 -2.5,1.3 -2.5,6.6 0,11.6 2.1,4.2 5.5,7.3 8.1,7.3 0.4,0 0.8,-0.1 1.2,-0.3 2.5,-1.3 2.5,-6.6 0,-11.6 -2.1,-4.3 -5.5,-7.3 -8.1,-7.3 z"
         id="path3950" />
      <ellipse
         style="fill:#656565"
         cx="108.9"
         cy="159.2"
         rx="2.9000001"
         ry="4.5999999"
         transform="matrix(0.8945,-0.4471,0.4471,0.8945,-59.68,65.4881)"
         id="ellipse3952" />
      <path
         style="opacity:0.2"
         d="m 112.8,171.2 c -3.8,0 -8.2,-3.6 -10.9,-9 -3.4,-6.8 -2.9,-13.6 1.2,-15.7 0.7,-0.4 1.5,-0.5 2.4,-0.5 3.8,0 8.2,3.6 10.9,9 3.4,6.8 2.9,13.6 -1.2,15.7 -0.8,0.3 -1.6,0.5 -2.4,0.5 z m -7.3,-23.9 c -0.6,0 -1.2,0.1 -1.8,0.4 -3.3,1.7 -3.6,7.9 -0.6,13.9 2.4,4.9 6.4,8.3 9.7,8.3 0.6,0 1.2,-0.1 1.8,-0.4 3.3,-1.7 3.6,-7.9 0.6,-13.9 -2.4,-4.9 -6.4,-8.3 -9.7,-8.3 z"
         id="path3954" />
      <path
         style="opacity:0.2"
         d="m 112.5,169.3 c -3,0 -6.7,-3.2 -9,-7.8 -2.9,-5.7 -2.7,-11.4 0.4,-13 0.5,-0.3 1.1,-0.4 1.7,-0.4 3,0 6.7,3.2 9,7.8 2.9,5.7 2.7,11.4 -0.4,13 -0.5,0.2 -1.1,0.4 -1.7,0.4 z m -6.9,-20.2 c -0.4,0 -0.8,0.1 -1.2,0.3 -2.5,1.3 -2.5,6.6 0,11.6 2.1,4.2 5.5,7.3 8.1,7.3 0.4,0 0.8,-0.1 1.2,-0.3 2.5,-1.3 2.5,-6.6 0,-11.6 -2.1,-4.3 -5.5,-7.3 -8.1,-7.3 z"
         id="path3956" />
      <ellipse
         style="opacity:0.2"
         cx="108.9"
         cy="159.2"
         rx="2.9000001"
         ry="4.5999999"
         transform="matrix(0.8945,-0.4471,0.4471,0.8945,-59.68,65.4881)"
         id="ellipse3958" />
      <path
         style="fill:#762c07"
         d="m 168.1,102.6 c -0.5,-0.2 -0.9,-0.3 -1.2,-0.1 l -10.2,5 c -0.3,0.2 -0.6,0.5 -0.6,1 0,1 0.8,2.2 1.8,2.6 0.5,0.2 0.9,0.3 1.2,0.1 0,0 10.2,-5 10.3,-5 0.3,-0.2 0.5,-0.5 0.5,-1 -0.1,-0.9 -0.9,-2.1 -1.8,-2.6 z"
         id="path3960" />
      <path
         style="opacity:0.2"
         d="m 159.1,111.2 c 0.1,-0.1 10.2,-5 10.2,-5 0.3,-0.2 0.5,-0.5 0.5,-1 0,-0.4 -0.1,-0.8 -0.3,-1.2 l -10.2,5 c 0.2,0.4 0.3,0.8 0.3,1.2 0,0.5 -0.2,0.9 -0.5,1 z"
         id="path3962" />
      <path
         style="opacity:0.11"
         d="m 159.6,110.2 c 0,1 -0.8,1.4 -1.8,0.9 -1,-0.5 -1.8,-1.7 -1.8,-2.6 0,-0.9 0.8,-1.4 1.8,-0.9 1,0.5 1.8,1.7 1.8,2.6 z"
         id="path3964" />
      <path
         style="fill:#2d3134"
         d="m 105.6,183.9 -0.4,-0.9 2.4,-1 -3.9,-5 c -0.1,-0.1 -0.1,-0.2 -0.1,-0.3 l -0.3,-5.7 -5.4,-6.7 c -0.1,-0.1 -0.1,-0.3 -0.1,-0.4 0,-0.1 0.1,-0.3 0.3,-0.3 l 10.1,-4.9 0.4,0.9 -9.5,4.6 5.1,6.4 c 0.1,0.1 0.1,0.2 0.1,0.3 l 0.3,5.7 4.1,5.4 c 0.1,0.1 0.1,0.3 0.1,0.4 0,0.1 -0.1,0.3 -0.3,0.3 z"
         id="path3966" />
      <path
         style="fill:#2d3134"
         d="M 100.9,190.6 95.7,188 v -2 l 9.1,-4.5 5.2,2.6 v 1.9 z"
         id="path3968" />
      <path
         style="opacity:0.11"
         d="m 95.7,186 v 2 l 5.2,2.6 v -2 z"
         id="path3970" />
      <path
         style="fill:#cc291f"
         d="m 110,184.1 v 1.9 l -9.1,4.6 v -2 z"
         id="path3972" />
      <path
         style="opacity:0.29"
         d="m 110,184.1 v 1.9 l -9.1,4.6 v -2 z"
         id="path3974" />
      <ellipse
         style="fill:#cc291f"
         cx="89.5"
         cy="100.2"
         rx="1.8"
         ry="0.80000001"
         transform="matrix(0.942,-0.3356,0.3356,0.942,-28.4242,35.8386)"
         id="ellipse3976" />
      <path
         style="fill:#656565"
         d="m 90.6,99.6 -10.8,-28.4 -2.4,0.9 10.8,28.3 c 0.1,0.3 0.8,0.4 1.4,0.1 0.7,-0.1 1.2,-0.6 1,-0.9 z"
         id="path3978" />
      <path
         style="opacity:0.2"
         d="M 90.6,99.6 79.8,71.2 77.4,72.1 77.6,72.6 79.1,72 90,100.3 c 0.4,-0.1 0.7,-0.4 0.6,-0.7 z"
         id="path3980" />
      <path
         style="fill:#762c07"
         d="m 71.8,71.3 c -4.1,2.6 -6.3,8.5 -2.5,13 2.7,3.2 9,1.4 14.1,2.9 5.1,1.5 9.9,4.8 13,2.9 1.2,-0.7 0.5,-3.7 -2.5,-6.5 -3.1,-2.8 -7.4,-8.3 -7.6,-8.7 -1,-1.8 -8,-7.7 -14.5,-3.6 z"
         id="path3982" />
      <path
         style="opacity:0.2"
         d="M 83.9,85.4 C 78.8,83.9 72.5,85.8 69.8,82.5 68.1,80.4 67.6,78.1 68,75.9 c -1.1,2.7 -0.9,5.8 1.3,8.5 2.7,3.2 9,1.4 14.1,2.9 5.1,1.5 9.9,4.8 13,2.9 0.5,-0.3 0.6,-0.9 0.5,-1.8 -3.2,1.8 -8,-1.5 -13,-3 z"
         id="path3984" />
      <path
         style="fill:#fbd7c7"
         d="m 81.2,65.2 c 0,0 -8.7,5 -8.6,13.1 0.1,8.1 7,26.9 8.6,32.9 1.6,6 5.1,13.4 5,19.4 -0.1,6 -1.2,14.1 0.8,20.6 2,6.4 8.6,18.1 8.6,19.8 0,1.7 0.1,7.4 1.8,9 1.7,1.6 9,2 9.9,1.8 0.9,-0.2 -1.4,-5 -3.2,-8.6 -1.8,-3.6 -4.6,-10.8 -5,-18 -0.3,-7.2 -2,-17.7 -1.8,-19.4 0.2,-1.7 0.3,-4.3 0.5,-6.8 0.2,-2.5 0.3,-7.8 -0.5,-12.6 -0.8,-4.8 -4.1,-23.2 -4.1,-26.1 0,-2.9 0,-10.4 0,-10.4 z"
         id="path3986" />
      <path
         style="fill:#fbd7c7"
         d="m 132.7,42.3 c 0,0 5.1,7.7 7.8,13.8 2.7,6.1 3.2,9.3 4.5,10.8 1.3,1.5 8.4,12.6 10.6,17.6 2.1,4.8 4.2,9.1 5.8,10.6 1.2,1.1 3.7,4.4 4.8,6.2 1.1,1.8 2.8,7.3 0.4,8.8 -2.3,1.5 -5,-0.5 -5,-0.5 l -2,-3.5 -1.5,0.6 c 0,0 -2.5,-4.3 -2.2,-5.7 0.3,-1.5 0.2,-2.8 -0.3,-3.7 -0.4,-0.9 -7.7,-8.6 -11.9,-15 -4.2,-6.4 -8.2,-13.8 -8.4,-14.5 -0.2,-0.7 -9.5,-13.5 -10,-16.7 -0.5,-3.2 7.4,-8.8 7.4,-8.8 z"
         id="path3988" />
      <path
         style="fill:#333399"
         d="m 94.2,86.3 c 0,0 7.7,7.7 11.7,11.2 4,3.5 12.6,9.9 12.6,9.9 l 12.6,-11.7 c 0,0 -6.1,-8.5 -9.3,-12 C 118.6,80.2 110,71 110,71 l -4.1,-1.8 -12.1,17.1 z"
         id="path3990" />
      <path
         style="fill:#333399"
         d="m 107.7,70.6 c 0,0 -13.9,-4.7 -17.1,-6.8 -3.2,-2.1 -7.2,-5.4 -7.2,-5.4 0,0 -10.1,8.4 -12.6,14.9 -2.5,6.5 1.1,17.9 3.6,23.4 2.5,5.5 7.8,18.9 7.8,18.9 l 15,-2 c 0,0 -0.2,-9.2 -0.7,-15.9 C 96.1,93 95.1,85 95.1,85 Z"
         id="path3992" />
      <path
         style="fill:#993399"
         d="m 104.1,33.2 c 0,0 -10.5,4.1 -13.1,7.7 -2.6,3.6 -3,5.1 -6.3,10.4 -2.6,4.2 -8.4,12.3 -10.6,15.3 -0.5,0.7 -0.5,1.7 0.1,2.3 1.6,1.7 4.9,4.8 9.1,6.2 6.8,2.2 16.1,0.6 21.7,-0.9 4.6,-1.2 5.8,-5.5 7.8,-6.4 2,-0.9 5.9,0.2 10.1,-3.5 1.8,-1.6 4.5,-10.8 4.5,-10.8 0,0 2.8,-2.7 5,-3.6 2.1,-0.9 4.1,-1.8 4.1,-1.8 0,0 -1.8,-6.5 -3.6,-9.5 -1.8,-3 -8.8,-6.1 -14.9,-5.9 -6,0.3 -13.9,0.5 -13.9,0.5 z"
         id="path3994" />
      <path
         style="fill:#ffffff"
         d="m 93.8,166.7 c 0,0 1.2,0.6 3.6,0.3 2.4,-0.3 3.8,-1.4 3.8,-1.4 0,0 2.1,4.7 2.9,6.5 0.8,1.8 2.2,4.4 2.2,4.4 0,0 -1.9,3.5 -4.8,3.7 -2.9,0.2 -7.2,-3.5 -7.2,-3.5 0,0 1.2,-2.9 0.8,-5.5 -0.2,-1.4 -1.3,-4.5 -1.3,-4.5 z"
         id="path3996" />
      <path
         style="fill:#333399"
         d="m 94.4,175.9 c 0,0 -0.9,2.6 -0.9,4 0,1.4 0.3,2.4 2.6,3.1 0.3,0.1 2,0.7 4,1.5 2.5,1 6.1,3.4 7.8,3.7 5.2,0.9 8.5,-2.1 7.5,-3.5 -0.6,-0.9 -5.3,-2.9 -6.5,-4.5 -1.2,-1.6 -2.6,-4.1 -2.6,-4.1 0,0 -0.4,0.6 -1.7,1.2 -1.8,0.9 -4.2,0.9 -5.7,0.5 -1.5,-0.4 -4.5,-1.9 -4.5,-1.9 z"
         id="path3998" />
      <path
         style="fill:#825012"
         d="m 128.9,19.3 c 1,1.1 2.6,7.3 2.7,13.1 0.1,5.8 2.8,5.6 2.8,5.6 0,0 -2.2,3.3 -5.5,2.1 -3,-1.1 -5,-10.4 -5,-10.4 z"
         id="path4000" />
      <path
         style="fill:#fbd7c7"
         d="m 129.3,21.1 c 1.2,2.2 1.6,18.4 -1.8,21.2 -1.7,1.4 -3.7,1.4 -5.6,0.8 -1.8,-0.5 -6.2,1.3 -7.1,0.7 -1.7,-1.3 -2.9,-12.3 -0.4,-20 2.5,-7.8 12.5,-7 14.9,-2.7 z"
         id="path4002" />
      <path
         style="fill:#825012"
         d="m 128.9,23.3 c -2.9,1.3 -5.1,1.4 -5,3.6 0.1,2.2 0.5,9.4 -2.3,10.8 -2.8,1.5 -5,0.5 -5,0.5 0,0 -0.1,3 1.9,4.1 2.2,1.2 4.4,0.4 4.4,0.4 0,0 -4.9,5.8 -11.7,3.5 -6.8,-2.3 -10.2,-12.8 -5.4,-24.2 4.8,-11.5 13.8,-11 18.9,-8.1 5.1,2.9 6.4,5.8 5.9,7.2 -0.5,1.4 -1.7,2.2 -1.7,2.2 z"
         id="path4004" />
      <path
         style="fill:#762c07"
         d="m 158.9,106.3 c -0.7,-0.3 -1.3,-0.4 -1.7,-0.2 l -1.9,0.9 c -0.5,0.2 -0.8,0.7 -0.8,1.4 0,1.4 1.1,3 2.5,3.7 0.7,0.3 1.3,0.4 1.7,0.2 0,0 1.9,-0.9 2,-1 0.4,-0.2 0.6,-0.7 0.6,-1.3 0,-1.4 -1.1,-3 -2.4,-3.7 z"
         id="path4006" />
      <path
         style="opacity:0.2"
         d="m 158.8,112.3 c 0.2,-0.1 1.8,-0.9 1.9,-1 0.4,-0.2 0.6,-0.7 0.6,-1.3 0,-0.5 -0.2,-1.1 -0.5,-1.7 l -1.9,0.9 c 0.3,0.6 0.5,1.2 0.5,1.7 0.1,0.7 -0.2,1.2 -0.6,1.4 z"
         id="path4008" />
      <path
         style="opacity:0.1"
         d="m 159.5,110.9 c 0,1.4 -1.1,1.9 -2.5,1.2 -1.4,-0.7 -2.5,-2.3 -2.5,-3.7 0,-1.4 1.1,-1.9 2.5,-1.2 1.4,0.7 2.5,2.4 2.5,3.7 z"
         id="path4010" />
      <path
         style="fill:#656565"
         d="m 133.3,123.5 c -0.6,0 -1.2,-0.3 -1.5,-0.9 -0.4,-0.8 -0.1,-1.9 0.8,-2.3 L 156,108.6 c 0.8,-0.4 1.9,-0.1 2.3,0.8 0.4,0.8 0.1,1.9 -0.8,2.3 L 134,123.3 c -0.2,0.1 -0.5,0.2 -0.7,0.2 z"
         id="path4012" />
      <path
         style="opacity:0.2"
         d="m 157.9,109.9 -23.4,11.7 c -0.2,0.1 -0.5,0.2 -0.8,0.2 -0.6,0 -1.2,-0.3 -1.5,-0.9 0,-0.1 -0.1,-0.2 -0.1,-0.2 -0.5,0.5 -0.7,1.3 -0.4,2 0.3,0.6 0.9,0.9 1.5,0.9 0.3,0 0.5,-0.1 0.8,-0.2 l 23.4,-11.7 c 0.8,-0.4 1.1,-1.3 0.9,-2 -0.1,0 -0.3,0.1 -0.4,0.2 z"
         id="path4014" />
      <path
         style="fill:#762c07"
         d="m 140,115.8 c -0.7,-0.3 -1.3,-0.4 -1.7,-0.2 l -1.9,0.9 c -0.5,0.2 -0.8,0.7 -0.8,1.4 0,1.4 1.1,3 2.5,3.7 0.7,0.3 1.3,0.4 1.7,0.2 0,0 1.9,-0.9 2,-1 0.4,-0.2 0.6,-0.7 0.6,-1.3 0.1,-1.4 -1.1,-3.1 -2.4,-3.7 z"
         id="path4016" />
      <path
         style="opacity:0.2"
         d="m 139.9,121.7 c 0.2,-0.1 1.8,-0.9 1.9,-1 0.4,-0.2 0.6,-0.7 0.6,-1.3 0,-0.5 -0.2,-1.1 -0.5,-1.7 l -1.9,0.9 c 0.3,0.6 0.5,1.2 0.5,1.7 0.1,0.7 -0.2,1.2 -0.6,1.4 z"
         id="path4018" />
      <path
         style="opacity:0.1"
         d="m 140.6,120.4 c 0,1.4 -1.1,1.9 -2.5,1.2 -1.4,-0.7 -2.5,-2.3 -2.5,-3.7 0,-1.4 1.1,-1.9 2.5,-1.2 1.4,0.7 2.5,2.3 2.5,3.7 z"
         id="path4020" />
      <path
         style="fill:#762c07"
         d="m 137.9,117.5 c -0.5,-0.2 -0.9,-0.3 -1.2,-0.1 l -10.2,5 c -0.3,0.2 -0.6,0.5 -0.6,1 0,1 0.8,2.2 1.8,2.6 0.5,0.2 0.9,0.3 1.2,0.1 0,0 10.2,-5 10.3,-5 0.3,-0.2 0.5,-0.5 0.5,-1 -0.1,-1 -0.9,-2.1 -1.8,-2.6 z"
         id="path4022" />
      <path
         style="opacity:0.2"
         d="m 128.9,126.1 c 0.1,-0.1 10.2,-5 10.2,-5 0.3,-0.2 0.5,-0.5 0.5,-1 0,-0.4 -0.1,-0.8 -0.3,-1.2 l -10.2,5 c 0.2,0.4 0.3,0.8 0.3,1.2 0,0.5 -0.2,0.8 -0.5,1 z"
         id="path4024" />
      <path
         style="opacity:0.1"
         d="m 129.4,125.1 c 0,1 -0.8,1.4 -1.8,0.9 -1,-0.5 -1.8,-1.7 -1.8,-2.6 0,-0.9 0.8,-1.4 1.8,-0.9 1,0.5 1.8,1.6 1.8,2.6 z"
         id="path4026" />
      <path
         style="fill:#fbd7c7"
         d="m 91.1,68.3 c 0,0 6,14.2 7.2,16.7 2.2,4.5 2.8,5.9 7.2,10.4 4.4,4.5 17.5,17.3 19,19 1.6,1.7 3.3,4.4 3.3,5 0.1,0.6 3.4,5.7 5.4,6.4 1.5,0.5 4,-1.1 4.8,-2.1 0.8,-1 0,-3.2 0,-3.2 l -2.7,-2.7 1.4,-0.5 c 0,0 -2,-2.5 -3.2,-3.2 -1.2,-0.7 -3.8,-2.9 -4.1,-3.6 -0.3,-0.8 -9.8,-14.2 -13.6,-18.4 -2.3,-2.5 -7.6,-6.8 -7.6,-6.8 0,0 -3.7,-11.5 -5.1,-16 -0.3,-0.9 -1.5,-4.2 -1.5,-4.2 z"
         id="path4028" />
    </g>
  </g>
  <path
     style="fill:#000000;fill-opacity:1;fill-rule:nonzero;stroke:none;stroke-width:0.264583"
     id="path1"
     d="m 93.343708,29.11545 c -0.267012,1.150707 -0.548711,2.297904 -0.8339,3.444232 -0.336788,1.415336 -0.693293,2.824798 -1.095256,4.223049 -0.0628,0.215299 -0.125611,0.430601 -0.188415,0.645904 -0.174252,0.597357 0.670538,0.843788 0.84479,0.24643 v 0 c 0.06313,-0.216413 0.126254,-0.432827 0.189384,-0.64924 0.404759,-1.408449 0.764333,-2.828041 1.103468,-4.25369 0.196533,-0.789985 0.3921,-1.580042 0.580338,-2.372053 0.08074,-0.339715 0.168203,-0.677916 0.241532,-1.019305 0.01495,-0.0696 0.02424,-0.14029 0.03635,-0.210434 0.03881,-0.621043 -0.83947,-0.675936 -0.878287,-0.05489 z" />
  <path
     style="fill:#000000;fill-opacity:1;fill-rule:nonzero;stroke:none;stroke-width:0.264583"
     id="path2"
     d="m 92.954792,33.070738 c -0.239173,-0.395081 -0.523835,-0.76142 -0.806617,-1.125903 -0.490543,-0.616624 -1.043699,-1.179983 -1.641589,-1.692079 -0.370265,-0.305996 -0.778033,-0.583144 -1.245388,-0.716997 -0.312391,-0.08947 -0.364241,-0.07054 -0.685027,-0.07867 -0.639871,0.04664 -1.126969,0.327213 -1.621147,0.710539 -0.255871,0.230672 -0.507548,0.481994 -0.660869,0.795763 -0.1026,0.209976 -0.116922,0.312338 -0.173447,0.534424 -0.0674,0.40766 -0.09219,0.848395 0.06855,1.239991 0.03567,0.08689 0.08637,0.166828 0.129561,0.250243 0.317741,0.465098 0.720254,0.728768 1.218129,0.968701 0.483767,0.211693 0.992999,0.351353 1.511289,0.445669 0.544497,0.06612 1.09356,0.03952 1.638559,-0.0031 0.396071,-0.03186 0.790882,-0.07409 1.183405,-0.135776 0.205041,-0.03603 0.409667,-0.07388 0.612682,-0.119954 0.606515,-0.139068 0.409843,-0.99681 -0.196672,-0.857739 v 0 c -0.182986,0.04252 -0.368068,0.07468 -0.552855,0.108397 -0.370004,0.05835 -0.742246,0.09755 -1.115608,0.127786 -0.470268,0.03724 -0.943565,0.062 -1.414187,0.01423 -0.441764,-0.07779 -0.874877,-0.198466 -1.288455,-0.374089 -0.313505,-0.146693 -0.610664,-0.322707 -0.826685,-0.600845 -0.0208,-0.03198 -0.0453,-0.06184 -0.0624,-0.09595 -0.11588,-0.231182 -0.07962,-0.51404 -0.05026,-0.75951 0.02111,-0.09358 0.04308,-0.213886 0.08158,-0.304337 0.09225,-0.216715 0.274839,-0.380606 0.440116,-0.540941 0.317683,-0.251695 0.662075,-0.476821 1.074759,-0.523488 0.06204,-0.0021 0.124184,-0.01037 0.186134,-0.0063 0.451403,0.0294 0.837591,0.322022 1.177044,0.591437 0.554252,0.470847 1.062567,0.994523 1.517631,1.562248 0.259199,0.333735 0.520973,0.668893 0.741641,1.029708 0.313534,0.537488 1.07366,0.09408 0.760124,-0.443408 z" />
  <path
     style="fill:#000000;fill-opacity:1;fill-rule:nonzero;stroke:none;stroke-width:0.264583"
     d="m 106.12931,37.000366 c -1.56851,-0.411498 -10.973957,-2.996343 -13.035533,-3.560317 -0.595297,-0.181169 -0.97066,0.595176 -0.380804,0.79334 1.983961,0.592703 11.577707,3.165851 13.192917,3.618142"
     id="path12" />
  <path
     style="fill:url(#linearGradient13);fill-opacity:1;fill-rule:nonzero;stroke:none;stroke-width:0.264583"
     d="m 105.90589,37.851531 c 0.9801,0.244412 2.00482,0.50003 3.07439,0.751306 0.60576,0.142311 0.81982,-0.703158 0.21591,-0.853101 -0.9667,-0.240019 -2.19968,-0.541764 -3.06688,-0.74937"
     id="path3" />
  <path
     style="fill:url(#linearGradient14);fill-opacity:1;fill-rule:nonzero;stroke:none;stroke-width:0.264583"
     d="m 119.60812,39.218321 c -0.9101,-0.251804 -1.83315,-0.456303 -2.77038,-0.578366 -0.80742,-0.09131 -1.62447,-0.147037 -2.42857,0.0095 -0.71551,0.131821 -1.42261,0.31202 -2.07465,0.64484 -0.24984,0.137869 -0.36271,0.187208 -0.5881,0.362571 -0.30505,0.23735 -0.54651,0.543695 -0.72453,0.885161 -0.20307,0.44531 -0.35825,0.911418 -0.36427,1.406332 0.007,0.261485 0.0179,0.52518 0.0814,0.780198 0.16372,0.600329 1.01271,0.368784 0.84899,-0.231545 l 3e-5,3.3e-5 c -0.0408,-0.187251 -0.0463,-0.379703 -0.0507,-0.570555 0.0143,-0.358034 0.13307,-0.694616 0.28358,-1.015701 0.1245,-0.228714 0.29162,-0.434113 0.50226,-0.589232 0.1576,-0.116073 0.25704,-0.1606 0.43229,-0.25444 0.57067,-0.285773 1.18819,-0.438504 1.81222,-0.552026 0.71878,-0.139497 1.44915,-0.08367 2.17041,-7.94e-4 0.89121,0.117774 1.76944,0.311425 2.63485,0.552019"
     id="path13" />
  <path
     style="fill:#000000;fill-opacity:1;fill-rule:nonzero;stroke:none;stroke-width:0.264583"
     d="m 119.37295,40.066316 c 1.06414,0.302638 2.11735,0.639283 3.16831,0.984292 1.21599,0.394168 2.43562,0.776877 3.65201,1.169802 1.10188,0.346649 2.1969,0.714148 3.29465,1.073492 0.42044,0.140297 0.84134,0.279196 1.26221,0.418173 0.59087,0.195115 0.8668,-0.640505 0.27593,-0.83562 v 0 c -0.42159,-0.139216 -0.84322,-0.27836 -1.26438,-0.418888 -1.09884,-0.359675 -2.19495,-0.727533 -3.29791,-1.07455 -1.21506,-0.392491 -2.43336,-0.774821 -3.64804,-1.168511 -1.06396,-0.349276 -2.13029,-0.689867 -3.20761,-0.996185"
     id="path7" />
  <path
     style="fill:url(#linearGradient15);fill-opacity:1;fill-rule:nonzero;stroke:none;stroke-width:0.264583"
     id="path8"
     d="m 109.53646,38.353676 c 0.005,-0.0066 0.009,-0.01357 0.0139,-0.01966 0.0302,-0.0352 0.0642,-0.06705 0.0981,-0.09878 0.0627,-0.05878 0.18432,-0.165092 0.24751,-0.214503 0.0549,-0.04293 0.11241,-0.08242 0.16861,-0.123635 0.38595,-0.270298 0.79922,-0.499956 1.22663,-0.697722 0.0944,-0.04371 0.19046,-0.08399 0.28569,-0.125987 0.35827,-0.152593 0.72235,-0.294147 1.09732,-0.400626 0.23416,-0.06649 0.30004,-0.07576 0.53922,-0.125635 0.45062,-0.07672 0.90649,-0.131165 1.3638,-0.143039 0.0903,-0.0024 0.18063,-0.0016 0.27095,-0.0024 0.49707,0.0035 0.9939,0.02622 1.48997,0.05695 0.62107,0.03839 0.67537,-0.83993 0.0543,-0.878324 v 0 c -0.51701,-0.03189 -1.03481,-0.0556 -1.55287,-0.05859 -0.10053,0.0011 -0.20109,5.3e-4 -0.30159,0.0032 -0.50499,0.01408 -1.00843,0.07411 -1.50572,0.161012 -0.27928,0.05919 -0.34551,0.06809 -0.61897,0.146352 -0.40725,0.116557 -0.80298,0.270084 -1.19223,0.436202 -0.10479,0.04643 -0.21042,0.091 -0.31436,0.139285 -0.47627,0.221252 -0.93619,0.47901 -1.36553,0.781852 -0.27689,0.206306 -0.56443,0.421121 -0.75932,0.711258 -0.32014,0.53358 0.43445,0.986335 0.7546,0.452757 z" />
  <path
     style="fill:#000000;fill-opacity:1;fill-rule:nonzero;stroke:none;stroke-width:0.264583"
     id="path11"
     d="m 127.24765,45.010622 c 0.0991,-0.0279 0.20159,-0.04446 0.30322,-0.06087 0.31784,-0.05296 0.62775,-0.144505 0.93703,-0.233267 0.30139,-0.08717 0.60326,-0.172919 0.90305,-0.265467 0.32683,-0.103794 0.65138,-0.214598 0.97754,-0.320429 0.32679,-0.10568 0.6576,-0.197993 0.9886,-0.289375 0.34958,-0.09706 0.70518,-0.169884 1.06218,-0.233355 0.39484,-0.06705 0.79377,-0.104767 1.19245,-0.140017 0.30317,-0.02495 0.60826,-0.04714 0.91262,-0.031 0.0575,0.003 0.11472,0.0091 0.17208,0.01368 0.29579,0.02944 0.58951,0.08712 0.87467,0.171382 0.0569,0.01683 0.11306,0.03636 0.16959,0.05454 0.2276,0.07419 0.44779,0.168942 0.65823,0.283051 0.1278,0.0693 0.18509,0.10903 0.3078,0.187439 0.24728,0.17268 0.48508,0.362612 0.68747,0.587317 0.0388,0.04304 0.0748,0.08845 0.11225,0.132673 0.14095,0.178427 0.27799,0.361844 0.39095,0.559649 0.0577,0.101063 0.0858,0.163393 0.13655,0.267864 0.0718,0.191016 0.11436,0.395322 0.1054,0.600305 -0.002,0.03579 -0.008,0.07126 -0.0114,0.106881 -0.0291,0.14655 -0.0734,0.292984 -0.15051,0.42213 -0.0445,0.07462 -0.0768,0.107802 -0.13282,0.174995 -0.0289,0.02852 -0.0562,0.05867 -0.0866,0.08555 -0.13956,0.123393 -0.3209,0.233957 -0.48944,0.312126 -0.046,0.02132 -0.0938,0.03854 -0.14075,0.05781 -0.2993,0.116052 -0.6152,0.17122 -0.93245,0.208904 -0.26595,0.02673 -0.51046,-0.01111 -0.76702,-0.07693 -0.25144,-0.07798 -0.48394,-0.202311 -0.70881,-0.336989 -0.23471,-0.149934 -0.44833,-0.329279 -0.65851,-0.511175 -0.206,-0.177276 -0.39578,-0.372403 -0.58039,-0.571553 -0.18196,-0.204245 -0.35839,-0.413366 -0.53384,-0.623202 -0.17708,-0.208187 -0.33791,-0.428768 -0.49297,-0.653555 -0.17067,-0.247042 -0.34372,-0.492437 -0.51561,-0.738635 -0.1647,-0.233484 -0.32121,-0.472408 -0.4735,-0.714107 -0.17389,-0.265153 -0.31966,-0.547021 -0.47147,-0.824995 -0.158,-0.289028 -0.30977,-0.581422 -0.45912,-0.874996 -0.11992,-0.238839 -0.24068,-0.477311 -0.36667,-0.713015 -0.0812,-0.149682 -0.16083,-0.300154 -0.23478,-0.453572 -0.0557,-0.119513 -0.11383,-0.23781 -0.16698,-0.358497 -0.049,-0.106776 -0.0947,-0.214966 -0.14064,-0.323043 -0.0337,-0.08165 -0.0656,-0.164008 -0.0998,-0.245444 -0.24142,-0.573511 -1.05249,-0.232084 -0.81106,0.341424 v 0 c 0.0348,0.08253 0.0666,0.166174 0.10122,0.24875 0.0475,0.11153 0.0946,0.223248 0.14515,0.333468 0.0573,0.129813 0.1194,0.257347 0.1796,0.385837 0.0794,0.164327 0.1642,0.325847 0.25137,0.486185 0.12331,0.230309 0.24095,0.463624 0.35831,0.697005 0.15329,0.30117 0.30896,0.601181 0.4711,0.897697 0.16059,0.294052 0.31545,0.59183 0.4993,0.872376 0.15971,0.253386 0.32384,0.503864 0.49646,0.748702 0.17098,0.244877 0.34309,0.488966 0.51286,0.734682 0.17055,0.247038 0.34778,0.489251 0.54219,0.718275 0.1852,0.221408 0.37132,0.442155 0.56385,0.657243 0.20672,0.222562 0.41932,0.440426 0.64985,0.638625 0.24922,0.215339 0.50354,0.426402 0.78343,0.601361 0.29903,0.177644 0.60949,0.338844 0.94558,0.434758 0.15112,0.03723 0.19432,0.05133 0.34899,0.07538 0.24391,0.03793 0.49176,0.04564 0.73747,0.02159 0.39858,-0.04882 0.79485,-0.122031 1.16946,-0.271965 0.0691,-0.02975 0.13937,-0.05682 0.20723,-0.08924 0.2532,-0.120973 0.5049,-0.284194 0.70986,-0.476311 0.0507,-0.04757 0.0962,-0.100499 0.14427,-0.150749 0.1104,-0.141163 0.14701,-0.176559 0.23448,-0.334616 0.12644,-0.228462 0.2006,-0.482338 0.23872,-0.739518 0.005,-0.06678 0.0127,-0.133414 0.0141,-0.200345 0.007,-0.331888 -0.0675,-0.660715 -0.19446,-0.965867 -0.0687,-0.139999 -0.0974,-0.204309 -0.17674,-0.341098 -0.13744,-0.237022 -0.30119,-0.458221 -0.47233,-0.671698 -0.0494,-0.05744 -0.0972,-0.116372 -0.14826,-0.17232 -0.25079,-0.27458 -0.54268,-0.508781 -0.84856,-0.718818 -0.1622,-0.102642 -0.21282,-0.138628 -0.38286,-0.230129 -0.25198,-0.135583 -0.51613,-0.247153 -0.788,-0.336127 -0.0695,-0.02199 -0.13852,-0.04551 -0.20849,-0.06596 -0.33793,-0.09874 -0.68584,-0.165354 -1.03617,-0.198972 -0.0723,-0.0053 -0.14441,-0.01236 -0.21678,-0.01593 -0.33763,-0.01669 -0.67598,0.0061 -1.0123,0.03415 -0.4244,0.03759 -0.84903,0.07829 -1.26925,0.150241 -0.38382,0.06854 -0.76615,0.146941 -1.142,0.251441 -0.34357,0.09486 -0.68689,0.190871 -1.02607,0.300622 -0.32222,0.104617 -0.64292,0.213911 -0.96573,0.316691 -0.29406,0.09101 -0.59037,0.174678 -0.886,0.260384 -0.27627,0.07933 -0.55289,0.162438 -0.83661,0.210701 -0.12876,0.02135 -0.25763,0.04374 -0.38377,0.07773 -0.003,7.93e-4 0.006,-0.0013 0.01,-0.0021 -0.60368,0.150918 -0.39024,1.004644 0.21343,0.853723 z" />
</svg>
