<?xml version="1.0" encoding="UTF-8" standalone="no"?>
<svg
   id="svg3224"
   version="1.1"
   viewBox="0 0 118.41217 70.13855"
   height="70.13855mm"
   width="118.41217mm"
   sodipodi:docname="41 meli li pali e ijo pona tawa mije. meli li pali e ijo+pona tawa mije..svg"
   inkscape:version="1.3 (0e150ed6c4, 2023-07-21)"
   xmlns:inkscape="http://www.inkscape.org/namespaces/inkscape"
   xmlns:sodipodi="http://sodipodi.sourceforge.net/DTD/sodipodi-0.dtd"
   xmlns:xlink="http://www.w3.org/1999/xlink"
   xmlns="http://www.w3.org/2000/svg"
   xmlns:svg="http://www.w3.org/2000/svg"
   xmlns:rdf="http://www.w3.org/1999/02/22-rdf-syntax-ns#"
   xmlns:cc="http://creativecommons.org/ns#"
   xmlns:dc="http://purl.org/dc/elements/1.1/">
  <sodipodi:namedview
     id="namedview1"
     pagecolor="#ffffff"
     bordercolor="#000000"
     borderopacity="0.25"
     inkscape:showpageshadow="2"
     inkscape:pageopacity="0.0"
     inkscape:pagecheckerboard="0"
     inkscape:deskcolor="#d1d1d1"
     inkscape:document-units="mm"
     inkscape:zoom="2.8284271"
     inkscape:cx="292.91898"
     inkscape:cy="140.53747"
     inkscape:window-width="1920"
     inkscape:window-height="1051"
     inkscape:window-x="-9"
     inkscape:window-y="-9"
     inkscape:window-maximized="1"
     inkscape:current-layer="svg3224" />
  <defs
     id="defs3218">
    <linearGradient
       id="swatch14"
       inkscape:swatch="solid">
      <stop
         style="stop-color:#ff4400;stop-opacity:1;"
         offset="0"
         id="stop14" />
    </linearGradient>
    <linearGradient
       inkscape:collect="always"
       xlink:href="#swatch14"
       id="linearGradient17"
       x1="88.22419"
       y1="38.769276"
       x2="94.77652"
       y2="38.769276"
       gradientUnits="userSpaceOnUse"
       gradientTransform="translate(-7.038997,11.731653)" />
    <linearGradient
       inkscape:collect="always"
       xlink:href="#swatch14"
       id="linearGradient18"
       x1="88.948593"
       y1="37.531216"
       x2="92.572685"
       y2="37.531216"
       gradientUnits="userSpaceOnUse"
       gradientTransform="translate(-7.038997,11.731653)" />
    <linearGradient
       inkscape:collect="always"
       xlink:href="#swatch14"
       id="linearGradient19"
       x1="88.440544"
       y1="39.771908"
       x2="92.821472"
       y2="39.771908"
       gradientUnits="userSpaceOnUse"
       gradientTransform="translate(-7.038997,11.731653)" />
  </defs>
  <metadata
     id="metadata3221">
    <rdf:RDF>
      <cc:Work
         rdf:about="">
        <dc:format>image/svg+xml</dc:format>
        <dc:type
           rdf:resource="http://purl.org/dc/dcmitype/StillImage" />
        <dc:title />
      </cc:Work>
    </rdf:RDF>
  </metadata>
  <g
     transform="translate(-104.55752,-110.32291)"
     id="layer1">
    <g
       transform="matrix(0.26458333,0,0,0.26458333,115.11163,106.13456)"
       id="g4211">
      <path
         style="fill:#262626"
         d="m 104.1,132.1 c 1.6,2 8.4,11.9 9.8,13.9 2.2,3.1 2.8,6.3 0.5,9 -2.2,2.7 -5.4,2.9 -8.1,1.3 -2.7,-1.6 -7.5,-9.7 -7.5,-9.7 z"
         id="path4171" />
      <path
         style="fill:#ffffff"
         d="m 104.6,136.6 c 2.1,2.6 6.9,10.1 8.5,12.6 1.3,2 1.7,5.2 -1.7,6.9 -3.4,1.7 -6.7,-1 -8.2,-3.3 -1.6,-2.2 -6.5,-9.8 -6.5,-9.8 z"
         id="path4173" />
      <path
         style="opacity:0.2"
         d="m 111,196.3 c 12.6,6.9 18.6,17 7.9,25.4 -10.7,8.4 -28.3,10.2 -42.4,2.4 -14.1,-7.8 -5.8,-16.2 3.7,-22.3 9.5,-6.1 19.3,-11.8 30.8,-5.5 z"
         id="path4175" />
      <path
         style="fill:#06547a"
         d="m 40.1,124.3 c -0.5,5.2 -2,11.3 0.5,20.7 2.5,9.4 4.8,21 7.7,23.7 2.6,2.5 7.6,3.3 13,0.9 5.4,-2.4 13.7,-6.7 17.7,-7.1 4,-0.4 18.6,-4.8 18.6,-4.8 0,0 -3.8,-16.2 -6.9,-16.1 -3.1,0.1 -28,7.7 -28,7.7 l -4.1,-22 z"
         id="path4177" />
      <path
         style="opacity:0.2"
         d="m 40.1,124.3 c -0.5,5.2 -2,11.3 0.5,20.7 2.5,9.4 4.8,21 7.7,23.7 2.6,2.5 7.6,3.3 13,0.9 5.4,-2.4 13.7,-6.7 17.7,-7.1 4,-0.4 18.6,-4.8 18.6,-4.8 0,0 -3.8,-16.2 -6.9,-16.1 -3.1,0.1 -28,7.7 -28,7.7 l -4.1,-22 z"
         id="path4179" />
      <path
         style="fill:#06547a"
         d="m 50.5,131 c 0,0 3.1,15.1 5.1,17.4 2,2.3 7.1,2.6 7.6,4.3 0.5,1.7 12.9,22.7 16.2,25.1 4.2,3.1 12.4,3 14.8,-1.4 2.2,-4.2 2.9,-14.3 5.6,-19.8 2.7,-5.5 5.6,-7.6 7.2,-9.6 2.6,-3.3 1,-17.5 -6.2,-18.7 -7.2,-1.2 -8.2,5.2 -9.9,8.2 -1.7,3 -4.7,8.9 -4.7,8.9 0,0 -5.5,-13.1 -7.5,-17.9 -2,-4.8 -4.7,-8.9 -4.7,-8.9 z"
         id="path4181" />
      <path
         style="fill:#fbd7c7"
         d="m 41.2,25.6 c 0.8,0 6.4,0.8 8.5,-0.7 1.2,-0.8 1.5,-2.9 1.5,-3.9 0.1,-1 -0.5,-4.3 -2.4,-4.9 -1.8,-0.6 -6,-0.2 -8,1.2 -1.6,1.1 -2,2 -3.3,3.4 -1.3,1.3 -2.5,2.4 -3.3,4.2 -1.3,2.6 -3.2,10.4 -5.7,14.1 -2.6,3.9 -0.6,6.7 1.6,9.4 2.2,2.7 11.2,11.1 11.6,12.2 0.4,1.1 16.2,-1.6 14.5,-4.8 -1.6,-3.2 -6,-4.6 -8.1,-5.2 -2.1,-0.6 -2.9,-1 -4,-2.5 -0.7,-0.9 -1.8,-2.5 -3.7,-3.8 -2.1,-1.3 -2.9,-2 -2.9,-2 0,0 2.7,-4.5 3,-8.8 0.4,-4.3 0.7,-7.9 0.7,-7.9 z"
         id="path4183" />
      <path
         style="fill:#e5e5e5"
         d="m 60.2,58.7 c 0,0 -2.6,-3.3 -5.3,-5 -2.7,-1.7 -5,-2.5 -5,-2.5 0,0 -2,1.5 -4.2,3.9 -2.2,2.4 -4.3,5.4 -4.3,5.4 0,0 -3.4,6.5 -2.9,15.7 0.5,9.2 3.6,23 2.9,28.3 -0.7,5.3 -1.8,18.4 -1.8,20.6 -0.1,2.2 5.8,8.3 15.3,8.1 9.4,-0.2 22.1,-4.4 22.3,-9.2 0.2,-4.8 -2.5,-4.8 -2.7,-9.4 -0.3,-4.6 1,-20.4 7.9,-29.3 5,-6.5 4.3,-7.2 8.1,-9.4 C 94.2,73.7 90.4,62.5 86.7,62.2 83,61.9 75.1,61.7 71.4,62.2 67.8,62.7 60.2,58.7 60.2,58.7 Z"
         id="path4185" />
      <path
         style="fill:#fbd7c7"
         d="m 99,60.7 c 0,0 -1.2,-3.2 -1.9,-9.2 C 96.4,45.6 96.6,43.3 95,41.8 93.4,40.3 90.7,40.4 90.2,39.2 89.7,38 88,37.5 87.3,36.1 86.5,34.6 86.6,32.7 88,31.8 c 1.4,-0.9 4.5,-2.3 5.8,-1.6 1.3,0.6 1.8,1.3 2.6,2.1 1,1.1 1.8,3 3.4,5.7 1.6,2.7 7.8,16.7 9.4,20.2 1.6,3.5 2.8,7.3 0,10.4 -2.8,3.1 -7.3,2 -11,3.3 -3.7,1.4 -7.2,4.2 -8.8,4.2 -1.6,0 -6.5,-1.7 -6.9,-8.1 -0.4,-6.4 4.6,-5.6 5.6,-5.5 1,0.1 1.4,0.2 3.8,-0.9 2.4,-1.1 7.1,-0.9 7.1,-0.9 z"
         id="path4187" />
      <path
         style="fill:#fbd7c7"
         d="m 71.1,59.4 c 0.5,-0.8 3.8,-3.9 5.3,-4.3 1.5,-0.3 3,-0.5 4.4,-1.9 1.7,-1.7 0.7,-2.9 0.7,-2.9 0,0 3.3,-3.5 2.2,-9.2 -1.1,-5.9 -10.2,-11.6 -17.4,-6.3 -2.8,2.1 -9.5,12.7 -9,15.1 0.5,2.3 1.6,2.8 0.9,4.1 -0.7,1.3 -1.4,5 -2,5.4 -0.5,0.3 -7,6.2 1,9.8 8.6,3.8 12.2,-2.7 13.8,-4.2 2.1,-2 3.1,-2.7 3.1,-2.7 0,0 -4.6,-0.2 -3,-2.9 z"
         id="path4189" />
      <path
         style="fill:#825012"
         d="M 83.7,41.1 C 82.9,36.9 78,32.7 72.6,32.7 c 0.4,0.6 1.1,1.4 1.8,2.1 2.7,2.3 4.2,1.1 5.2,4.2 1,3.1 -3.5,10.2 -3.5,10.2 l 1.2,0.8 c 0,0 2.9,-1.5 4.2,0.3 0,0 0,0 0,0 0.4,-0.5 3.2,-3.9 2.2,-9.2 z"
         id="path4191" />
    </g>
    <g
       transform="matrix(0.26458333,0,0,0.26458333,101.6124,118.89197)"
       id="g4317">
      <ellipse
         style="fill:#2d3134"
         cx="58.099998"
         cy="94"
         rx="19.1"
         ry="13"
         id="ellipse4213" />
      <path
         style="fill:#baa794"
         d="m 58.1,80 c -8.3,0 -15,4.5 -15,10 v 4 c 0,5.5 6.7,10 15,10 8.3,0 15,-4.5 15,-10 v -4 c 0,-5.5 -6.7,-10 -15,-10 z"
         id="path4215" />
      <path
         style="opacity:0.15"
         d="m 58.1,100 c -8.3,0 -15,-4.5 -15,-10 v 4 c 0,5.5 6.7,10 15,10 8.3,0 15,-4.5 15,-10 v -4 c 0,5.5 -6.7,10 -15,10 z"
         id="path4217" />
      <path
         style="fill:#f8ebcb"
         d="m 58.1,76 c -8.3,0 -15,4.5 -15,10 v 4 c 0,5.5 6.7,10 15,10 8.3,0 15,-4.5 15,-10 v -4 c 0,-5.5 -6.7,-10 -15,-10 z"
         id="path4219" />
      <path
         style="fill:#762c07"
         d="m 73.1,83 c 0,-5.5 -6.7,-10 -15,-10 -8.3,0 -15,4.5 -15,10 v 2 c 0,1.7 0.6,3.2 1.7,4.6 -0.3,1.1 -0.8,2.7 -0.8,3.1 0,0.6 0.5,1.2 1.2,1.2 0.6,0 1.2,-0.5 1.2,-1.2 0,-0.3 -0.2,-1.1 -0.4,-1.9 0.8,0.8 1.8,1.4 2.9,2 -0.3,0.9 -0.6,2.1 -0.6,2.4 0,0.6 0.5,1 1,1 0.6,0 1,-0.5 1,-1 0,-0.3 -0.2,-1.1 -0.5,-2 1.2,0.5 2.5,1 3.9,1.3 -0.4,1.2 -1,3.2 -1,3.7 0,0.7 0.6,1.3 1.3,1.3 0.7,0 1.3,-0.6 1.3,-1.3 0,-0.5 -0.6,-2.3 -0.9,-3.6 1.2,0.2 2.5,0.3 3.8,0.3 0.5,0 1.1,0 1.6,-0.1 -0.2,0.7 -0.4,1.3 -0.4,1.5 0,0.6 0.5,1 1,1 0.6,0 1,-0.5 1,-1 0,-0.2 -0.2,-0.9 -0.4,-1.7 2,-0.3 3.9,-0.8 5.6,-1.6 -0.4,1.4 -1.2,3.9 -1.2,4.5 0,0.8 0.7,1.5 1.5,1.5 0.8,0 1.5,-0.7 1.5,-1.5 0,-0.6 -0.9,-3.4 -1.3,-4.8 1.6,-0.8 2.9,-1.8 3.9,-2.9 -0.2,0.8 -0.5,1.6 -0.5,1.9 0,0.6 0.5,1 1,1 0.5,0 1,-0.5 1,-1 0,-0.4 -0.5,-2 -0.8,-2.9 0.8,-1.2 1.3,-2.6 1.3,-4 V 83 Z"
         id="path4221" />
      <path
         style="opacity:0.15"
         d="m 73.1,83 c 0,5 -5.5,9.1 -12.7,9.9 0,-0.1 0,-0.1 0,-0.1 0,0 0,0 0,0.1 -0.7,0.1 -1.5,0.1 -2.3,0.1 -8.3,0 -15,-4.5 -15,-10 v 2 c 0,1.7 0.6,3.2 1.7,4.6 -0.3,1.1 -0.8,2.7 -0.8,3.1 0,0.6 0.5,1.2 1.2,1.2 0.6,0 1.2,-0.5 1.2,-1.2 0,-0.3 -0.2,-1.1 -0.4,-1.9 0.8,0.8 1.8,1.4 2.9,2 -0.3,0.9 -0.6,2.1 -0.6,2.4 0,0.6 0.5,1 1,1 0.6,0 1,-0.5 1,-1 0,-0.3 -0.2,-1.1 -0.5,-2 1.2,0.5 2.5,1 3.9,1.3 -0.4,1.2 -1,3.2 -1,3.7 0,0.7 0.6,1.3 1.3,1.3 0.7,0 1.3,-0.6 1.3,-1.3 0,-0.5 -0.6,-2.3 -0.9,-3.6 1.2,0.2 2.5,0.3 3.8,0.3 0.5,0 1.1,0 1.6,-0.1 -0.2,0.7 -0.4,1.3 -0.4,1.5 0,0.6 0.5,1 1,1 0.5,0 1,-0.5 1,-1 0,-0.2 -0.2,-0.9 -0.4,-1.7 2,-0.3 3.9,-0.8 5.6,-1.6 -0.4,1.4 -1.2,3.9 -1.2,4.5 0,0.8 0.7,1.5 1.5,1.5 0.8,0 1.5,-0.7 1.5,-1.5 0,-0.6 -0.9,-3.4 -1.3,-4.8 1.6,-0.8 2.9,-1.8 3.9,-2.9 -0.2,0.8 -0.5,1.6 -0.5,1.9 0,0.6 0.5,1 1,1 0.5,0 1,-0.5 1,-1 0,-0.4 -0.5,-2 -0.8,-2.9 0.8,-1.2 1.3,-2.6 1.3,-4 V 83 Z"
         id="path4223" />
      <path
         style="fill:#f8ebcb"
         d="m 60.1,82 c 0,1.1 -0.9,2 -2,2 -1.1,0 -2,-0.9 -2,-2 0,-1.1 2,-3 2,-3 0,0 2,1.9 2,3 z"
         id="path4225" />
      <g
         style="fill:#baa794"
         id="g4243">
        <path
           d="m 47.1,83 c 0,0.6 -0.4,1 -1,1 -0.6,0 -1,-0.4 -1,-1 0,-0.6 1,-1.5 1,-1.5 0,0 1,0.9 1,1.5 z"
           id="path4227" />
        <path
           d="m 71.1,83 c 0,0.6 -0.4,1 -1,1 -0.6,0 -1,-0.4 -1,-1 0,-0.6 1,-1.5 1,-1.5 0,0 1,0.9 1,1.5 z"
           id="path4229" />
        <path
           d="m 67.1,89 c 0,0.6 -0.4,1 -1,1 -0.6,0 -1,-0.4 -1,-1 0,-0.6 1,-1.5 1,-1.5 0,0 1,0.9 1,1.5 z"
           id="path4231" />
        <path
           d="m 59.1,91 c 0,0.6 -0.4,1 -1,1 -0.6,0 -1,-0.4 -1,-1 0,-0.6 1,-1.5 1,-1.5 0,0 1,0.9 1,1.5 z"
           id="path4233" />
        <path
           d="m 59.1,74.5 c 0,0.6 -0.4,1 -1,1 -0.6,0 -1,-0.4 -1,-1 0,-0.6 1,-1.5 1,-1.5 0,0 1,0.9 1,1.5 z"
           id="path4235" />
        <path
           d="m 51.1,89 c 0,0.6 -0.4,1 -1,1 -0.6,0 -1,-0.4 -1,-1 0,-0.6 1,-1.5 1,-1.5 0,0 1,0.9 1,1.5 z"
           id="path4237" />
        <path
           d="m 67.1,77 c 0,0.6 -0.4,1 -1,1 -0.6,0 -1,-0.4 -1,-1 0,-0.6 1,-1.5 1,-1.5 0,0 1,0.9 1,1.5 z"
           id="path4239" />
        <path
           d="m 51.1,77 c 0,0.6 -0.4,1 -1,1 -0.6,0 -1,-0.4 -1,-1 0,-0.6 1,-1.5 1,-1.5 0,0 1,0.9 1,1.5 z"
           id="path4241" />
      </g>
      <path
         style="opacity:0.2"
         d="m 23.7,209.1 c -9.3,5.7 -10,12.5 2.1,18.9 13.2,7.1 20.9,5.5 31.1,-0.4 9,-5.2 6.9,-12.2 -8.2,-18.3 -12.2,-4.9 -18.4,-4.3 -25,-0.2 z"
         id="path4245" />
      <path
         style="fill:#fbd7c7"
         d="m 25.4,98 c -2.4,3.2 -11.5,14.3 -8.9,30 2.6,15.7 7.1,24.2 6.3,27.9 -0.8,3.7 -3.7,10.8 -3,18.7 0.8,9.7 3.7,19.7 3.8,23 0.2,3.3 1.3,6.3 0.4,8.8 -0.9,2.5 -3.1,4.4 -0.9,6.1 1.8,1.4 1,-0.6 10.2,2.7 12.3,4.5 9.7,-1.8 3.6,-2.9 -2.2,-0.4 -4.1,-4.8 -4.8,-7.7 -0.3,-1.2 -1.2,-15.8 -0.4,-22.6 0.8,-6.7 0.9,-17.1 0.8,-20.1 -0.1,-3 2.4,-14.4 3.4,-20 1.4,-8.5 4,-38.5 4,-38.5 z"
         id="path4247" />
      <path
         style="fill:#2d3134"
         d="m 23.6,207.3 c 0,0 -2.3,2.6 -2.2,4.9 0.1,2.3 1.9,5.7 1.9,7 v 3.2 l 1.7,1 1.6,-0.8 c 0,0 -0.7,-5.3 0.5,-6.1 1.2,-0.8 4.8,1.9 7.2,2.5 2.4,0.6 8.3,-0.1 10.4,-1 2.1,-0.9 0.4,-3.6 -1.5,-4.7 -2.6,-1.4 -6.7,-1.2 -6.7,-1.2 0,0 1.3,0.4 2.8,1.9 2.7,2.7 -4.8,3.3 -11.7,-2.6 -2.6,-2.4 -4,-4.1 -4,-4.1 z"
         id="path4249" />
      <path
         style="fill:#fbd7c7"
         d="m 22.2,61.3 c -5.4,2.1 -4.7,10.7 -6.4,17.4 -1.7,6.7 -7.2,17.2 -3.3,20.4 3.9,3.2 13.6,-0.4 17,-1.2 3.5,-0.7 9.1,-2.4 9.1,-2.4 l -2.3,-6.2 c 0,0 -7.2,0.2 -10.2,1.1 -3,0.9 -4.8,0.8 -4.8,0.8 0,0 3.7,-6.6 4.9,-10.1 1.3,-3.5 6.8,-24 -4,-19.8 z"
         id="path4251" />
      <path
         style="fill:#fbd7c7"
         d="m 33.9,102.3 c 0,0 -5.4,12.9 -5.4,19.1 0,6.2 4.1,8.5 4.9,10.5 0.8,2 1.1,8.5 3,16.2 1.9,7.7 4.2,12.5 2,18.1 -3.6,8.8 -2.9,16.4 -1.8,27.2 1.1,10.7 0.2,16.8 -0.1,18.5 -0.4,2 -3.5,3 -1.9,5.4 2.2,3.2 8.4,3.6 11.1,4.9 3.2,1.5 7.2,2 8.2,0.4 1,-1.6 0.2,-3.9 -3.4,-3.8 -3.1,0.1 -5.3,-5 -6.2,-7.3 -0.9,-2.2 1,-9.6 2.6,-21.2 1.5,-11.6 2.2,-24.2 2.9,-29 0.8,-4.8 3.2,-9 3.8,-30.5 C 54.2,109.3 52,103.2 52,103.2 Z"
         id="path4253" />
      <path
         style="fill:#2d3134"
         d="m 35.6,213.1 c 0,0 -2.4,2 -2.4,4.5 0,2.6 2.1,5.4 2.4,7.4 0.3,2 0.2,3.5 0.2,3.5 l 1.9,0.9 1.9,-0.8 c 0,0 -1.6,-5.7 0.1,-6.1 1.7,-0.4 6.8,3.6 9.9,3.6 3.1,0 7.3,-3.9 7.3,-5.4 0,-1.5 -3.4,-3.1 -5.4,-2.9 -2,0.1 -2.9,0.6 -2.9,0.6 0,0 3.1,1.3 3.5,2.4 0.4,1 -0.6,1.7 -1.9,2 -2.6,0.5 -5.1,-1.8 -9.3,-5.2 -3.6,-2.9 -5.3,-4.5 -5.3,-4.5 z"
         id="path4255" />
      <path
         style="fill:#fbd7c7"
         d="m 46.2,34.6 c 1.1,2.4 1,9.1 -0.2,12.8 -1.2,3.8 -1.8,4.4 -2.4,4.8 -0.6,0.4 -2,0.2 -2.2,1.2 -0.2,1 -0.7,4.9 -0.4,6.1 0.2,1.2 0.2,1.2 0.2,1.2 0,0 -4.2,-1 -6.4,-0.4 -2.2,0.6 -6.5,-1.4 -6.5,-2 0,-0.6 1.4,-7 0.2,-9 -1.2,-2 -5.1,-10.7 -3.3,-15.3 1.7,-4.6 16.9,-9.1 21,0.6 z"
         id="path4257" />
      <path
         style="fill:#3399cc"
         d="m 61.5,163.3 c -2,-9.8 -8.3,-49.4 -9,-58 0.5,-0.1 -0.4,-20.9 0,-21.9 0.5,-1.1 5,-3 4.6,-7.5 -0.3,-2.9 -2,-5.1 -3.7,-7 -1.3,-1.4 -2.9,-2.7 -4.3,-4.1 -1.7,-1.6 -6.2,-3.4 -10.8,-5 -5.4,-1.8 -11.7,-2 -15.8,-0.1 -5.6,2.7 -5.5,11.4 -7.3,18.6 -0.3,1.3 -1.4,4.4 -1.9,5.8 l 9.8,4.2 c 0.3,-0.6 1.6,-2.5 1.9,-3.1 0.1,0.3 0.1,0.5 0.2,0.7 0.8,3.5 0.1,7.7 -1.5,11.6 -0.9,2.2 -9.3,14.6 -8.1,26.8 1.8,19.2 -4.8,35.3 -2.1,36.9 2.7,1.6 12.2,-0.3 17.6,5.2 5.4,5.5 10.4,5.8 18.6,3.5 8.2,-2.3 12.3,-4.4 11.8,-6.6 z"
         id="path4259" />
      <path
         style="fill:#ffffff"
         d="M 61.5,149 C 59.4,129.5 56,112.6 52.6,105.3 37.3,107.4 20.7,102.4 20.7,102.4 l -0.8,1.4 c 0,0 4.3,4.3 29.1,4.4 0.3,1.3 2.5,10.9 3.3,21.8 0.8,11.4 0.8,21.5 1.8,22.9 1,1.4 7.6,-1.7 7.4,-3.9 z"
         id="path4261" />
      <path
         style="fill:#ffffff"
         d="m 28.5,106 c 0,0 -9.7,0.1 -7.5,4.8 1.6,3.4 4.8,1.1 6.6,-1.1 -0.8,3 -1.9,7.7 -2.9,10.6 -1.1,3.2 -2.4,6.4 -2.4,6.4 l 2.6,1 c 0,0 3.4,-15.6 3.5,-17.3 0.1,-1.6 0.4,7.6 0.9,11.5 0.5,3.9 0.5,4.5 0.5,4.5 l 1.9,-2.8 c 0,0 -1.2,-6.5 -1.5,-10.2 -0.2,-1.7 -0.2,-3.5 -0.2,-4.9 1,2.4 3.3,7.1 6.2,3.5 3.8,-4.6 -7.7,-6 -7.7,-6 z m -4.9,3.6 c -0.5,-2.2 3.6,-2.5 4.9,-2.6 -0.1,0.2 -4.5,4 -4.9,2.6 z m 10.9,0.9 c -1.1,1.5 -4.5,-3.1 -4.5,-3.3 2,0.4 5.9,1.4 4.5,3.3 z"
         id="path4263" />
      <path
         style="fill:#825012"
         d="m 47.1,36.7 c -0.1,1.9 -1.6,3.7 -2.2,4.2 -0.7,0.4 -1.3,-0.2 -1.9,1.1 -0.6,1.3 -1.4,7.1 -3.8,8.6 -2.4,1.5 -8,1.8 -10.7,-1.3 -2.7,-3.1 -5.9,-11.7 -2.4,-17.5 3.2,-5.3 9.8,-7.2 14.9,-4.6 5.1,2.6 6.2,7.6 6.1,9.5 z"
         id="path4265" />
      <path
         style="fill:#3399cc"
         d="m 29.9,43.6 c 3,0 4.7,2.3 4.6,3.3 -0.2,1 -6.3,1.3 -7.3,-0.8 -1,-2.1 0.3,-2.5 2.7,-2.5 z"
         id="path4267" />
      <path
         style="fill:#825012"
         d="m 29.8,44.9 c 2.1,0.2 6.3,3 6.7,8 0.4,5 -4.5,6.6 -4.3,13.1 0.1,4.5 4.8,12.3 4.8,12.3 0,0 -15.2,-9 -15,-20.9 0.2,-11.9 5.2,-12.8 7.8,-12.5 z"
         id="path4269" />
      <path
         style="opacity:0.15"
         d="m 52.6,105.3 c 0.2,0 0.1,-4 0,-8.5 -2.4,-12 -4.1,-25.1 -7.4,-24.2 -3.3,0.9 -2.3,14.6 -0.9,23.6 1.4,9 4.8,14.3 7,15 0.9,0.3 1.9,0.3 2.7,0.2 -0.3,-3.3 -1.3,-4.6 -1.4,-6.1 z"
         id="path4271" />
      <path
         style="fill:#fbd7c7"
         d="m 46.8,70.8 c 2.7,-1.7 7.9,1 8,8.8 0.1,7.8 1.6,16 1.9,17.6 0.3,1.6 1.2,7.1 1.2,7.1 l 10.8,-2 c 0,0 2.6,-1.6 3.4,-2.9 1.3,-2.1 5.5,-8.1 4.8,-1.5 -0.2,1.4 -1.6,5.3 -2.9,6.5 -1.3,1.2 -4.8,3.2 -6.7,4 -1.9,0.8 -8.4,6.6 -12.6,5.5 -4.2,-1.1 -4.5,-2.7 -6,-8.4 C 47.2,99.7 45.3,92.1 44.3,85.6 43.2,78.5 41,74.3 46.8,70.8 Z"
         id="path4273" />
      <path
         style="fill:#3399cc"
         d="M 46.4,99.1 57.2,96.6 C 56.8,93.9 55.9,85.3 55.8,78 55.7,70 49.7,66.8 46.9,68.5 c -5.9,3.6 -4.7,8.7 -3.6,15.8 0.6,4.6 1.9,10 3.1,14.8 z"
         id="path4275" />
    </g>
  </g>
  <path
     style="fill:#000000;fill-opacity:1;fill-rule:nonzero;stroke:none;stroke-width:0.264583"
     id="path2"
     d="m 105.64983,27.219636 c 0.23474,-0.07524 0.47046,-0.147808 0.70693,-0.217511 0.56616,-0.168034 1.13355,-0.33186 1.70202,-0.491909 0.87094,-0.236598 1.74089,-0.475811 2.605,-0.736373 0.80153,-0.24634 1.58508,-0.548988 2.34634,-0.900319 0.15126,-0.06981 0.30072,-0.143478 0.45108,-0.215216 0.70773,-0.35201 1.39098,-0.754496 2.03705,-1.210259 0.1184,-0.08352 0.23371,-0.171353 0.35056,-0.25703 0.44346,-0.334532 0.85165,-0.713411 1.21994,-1.129086 0.21629,-0.244113 0.26781,-0.318934 0.46513,-0.573399 0.19116,-0.258662 0.36838,-0.527673 0.52413,-0.809208 0.0956,-0.172791 0.17279,-0.323289 0.23682,-0.510923 0.0304,-0.08906 0.05,-0.181429 0.075,-0.272143 0.0658,-0.355237 0.0609,-0.718749 -0.0574,-1.063058 -0.0701,-0.204067 -0.12273,-0.275427 -0.2286,-0.458756 -0.24757,-0.387993 -0.6211,-0.660063 -1.02763,-0.863982 -0.0865,-0.04339 -0.17602,-0.08047 -0.26403,-0.120705 -0.3605,-0.135352 -0.73453,-0.246034 -1.1218,-0.262672 -0.26129,-0.01123 -0.33266,0.0083 -0.59027,0.0399 -0.50539,0.07671 -0.96215,0.317059 -1.37724,0.606614 -0.0838,0.05848 -0.16407,0.121946 -0.24611,0.182919 -0.32098,0.260538 -0.61391,0.554934 -0.87108,0.878719 -0.16334,0.205655 -0.21169,0.285556 -0.35839,0.501766 -0.2198,0.34558 -0.4019,0.715093 -0.54606,1.098418 -0.0931,0.247474 -0.11143,0.327265 -0.18539,0.579452 -0.10052,0.390381 -0.17062,0.789042 -0.20291,1.191019 -0.0187,0.232803 -0.019,0.371882 -0.0248,0.604419 -0.002,0.640158 0.0579,1.278191 0.10948,1.915636 0.0499,0.57846 0.10484,1.156477 0.15475,1.734937 0.0377,0.442924 0.0716,0.88615 0.1019,1.329636 0.0182,0.303041 0.0397,0.605857 0.0608,0.908709 0.0108,0.222428 0.0327,0.443876 0.0633,0.664397 0.0257,0.162947 0.043,0.327058 0.0675,0.490149 0.0231,0.137473 0.0422,0.275569 0.063,0.413401 0.0141,0.113879 0.0331,0.226982 0.0516,0.340198 0.10047,0.614088 0.96893,0.471992 0.86845,-0.142096 v 0 c -0.0179,-0.109647 -0.0365,-0.219137 -0.0499,-0.329454 -0.0209,-0.138298 -0.04,-0.276863 -0.0632,-0.4148 -0.0249,-0.159302 -0.0399,-0.320061 -0.0659,-0.479231 -0.0282,-0.200294 -0.0471,-0.401535 -0.057,-0.603601 -0.021,-0.302507 -0.0425,-0.604978 -0.0607,-0.907673 -0.0307,-0.448708 -0.065,-0.897155 -0.10311,-1.345294 -0.0498,-0.576918 -0.10449,-1.153403 -0.15436,-1.730316 -0.0491,-0.606759 -0.10654,-1.214009 -0.10687,-1.823305 0.005,-0.199058 0.005,-0.33784 0.0205,-0.536002 0.0269,-0.349007 0.087,-0.695174 0.17233,-1.034473 0.0614,-0.212304 0.079,-0.287853 0.15629,-0.495571 0.12126,-0.326093 0.27414,-0.641053 0.45931,-0.935626 0.12381,-0.183836 0.1674,-0.255884 0.30448,-0.430176 0.21342,-0.271377 0.45681,-0.518299 0.72276,-0.738302 0.20002,-0.150436 0.40009,-0.294704 0.62156,-0.412815 0.10645,-0.05677 0.26566,-0.132 0.38435,-0.166116 0.0673,-0.01934 0.13701,-0.02871 0.20552,-0.04306 0.16897,-0.02444 0.22427,-0.03957 0.39542,-0.03602 0.2895,0.006 0.56803,0.09334 0.83891,0.188003 0.25195,0.112619 0.48944,0.225536 0.70059,0.407065 0.0368,0.03167 0.0733,0.06418 0.10533,0.100703 0.0339,0.03862 0.0611,0.08261 0.0916,0.12391 0.0581,0.09399 0.0981,0.149175 0.1393,0.251214 0.0771,0.190702 0.0807,0.396866 0.0527,0.598095 -0.0137,0.05634 -0.0234,0.113782 -0.041,0.169025 -0.0476,0.149513 -0.10448,0.256845 -0.18072,0.395817 -0.13612,0.248096 -0.29174,0.484844 -0.45924,0.712791 -0.17774,0.23034 -0.22095,0.29387 -0.41596,0.515228 -0.3298,0.374367 -0.69579,0.715481 -1.09391,1.016398 -0.10807,0.07947 -0.21466,0.161004 -0.32421,0.23842 -0.60948,0.430682 -1.25396,0.811312 -1.92174,1.14407 -0.14359,0.06861 -0.28633,0.139068 -0.43079,0.205841 -0.7272,0.336129 -1.4757,0.625834 -2.24156,0.861302 -0.85891,0.259084 -1.72374,0.496498 -2.58941,0.731829 -0.57196,0.161064 -1.14284,0.325865 -1.71248,0.494924 -0.25386,0.07493 -0.50712,0.152329 -0.7587,0.23454 -0.58479,0.212651 -0.28405,1.039669 0.30074,0.827019 z" />
  <path
     id="path3"
     style="fill:#000000;fill-opacity:1;fill-rule:nonzero;stroke:none;stroke-width:0.264583"
     d="m 102.46664,38.914074 c 0.27628,-0.509778 0.58453,-1.000039 0.90511,-1.483095 0.28635,-0.439266 0.58865,-0.867922 0.90037,-1.289539 0.36233,-0.473234 0.7366,-0.937085 1.10788,-1.403293 0.38665,-0.496795 0.76815,-0.998608 1.11157,-1.526674 0.29407,-0.449787 0.59022,-0.898249 0.87712,-1.352671 0.26391,-0.404451 0.52679,-0.809622 0.80034,-1.207659 0.25289,-0.364381 0.50791,-0.727277 0.76648,-1.087648 0.24901,-0.354291 0.49985,-0.707276 0.75533,-1.056946 0.24292,-0.335789 0.48306,-0.673632 0.733,-1.004301 0.22273,-0.296228 0.45084,-0.588382 0.66612,-0.890148 0.18865,-0.259475 0.38506,-0.513253 0.58475,-0.764314 0.096,-0.12441 0.19218,-0.248678 0.29565,-0.36697 0.39836,-0.478029 -0.27767,-1.041391 -0.67603,-0.563363 -0.11052,0.126723 -0.21356,0.259655 -0.31629,0.392699 -0.20502,0.257377 -0.40586,0.518153 -0.5996,0.784127 -0.21257,0.298056 -0.4379,0.586539 -0.65792,0.879056 -0.25323,0.334967 -0.49652,0.67722 -0.74265,1.017381 -0.25783,0.352923 -0.511,0.709187 -0.76232,1.066762 -0.25957,0.361796 -0.51559,0.726115 -0.76947,1.091925 -0.2784,0.404873 -0.54588,0.817047 -0.81437,1.22851 -0.28677,0.454189 -0.58276,0.90244 -0.87669,1.352003 -0.33031,0.50774 -0.69755,0.990027 -1.06943,1.46768 -0.37297,0.467825 -0.74827,0.93381 -1.11212,1.408791 -0.32545,0.43903 -0.64001,0.886158 -0.93875,1.343779 -0.3342,0.502458 -0.65316,1.013864 -0.94145,1.54403 -0.30928,0.599228 -0.62166,1.196634 -0.9432,1.789401 -0.31191,0.574984 -0.59295,1.165939 -0.884077,1.751552 -0.29715,0.598842 -0.57215,1.208209 -0.84068,1.820288 -0.26589,0.582105 -0.48417,1.183378 -0.70617,1.782998 -0.22019,0.57853 -0.43067,1.160746 -0.63368,1.745515 -0.16161,0.475345 -0.3234,0.950666 -0.49091,1.423969 -0.15589,0.450331 -0.32776,0.894852 -0.48447,1.344874 -0.11417,0.361461 -0.22963,0.722487 -0.34795,1.082641 -0.0718,0.231849 -0.15018,0.461449 -0.22683,0.691729 -0.19647,0.590423 0.63851,0.868275 0.83499,0.277852 v 0 c 0.077,-0.231362 0.15563,-0.462087 0.2279,-0.694975 0.11667,-0.35527 0.23094,-0.711275 0.343,-1.067999 0.15604,-0.448633 0.32781,-0.891574 0.48295,-1.340551 0.16806,-0.474985 0.33053,-0.951934 0.49266,-1.42897 0.20098,-0.579112 0.40954,-1.155631 0.62759,-1.728541 0.21601,-0.583443 0.4278,-1.168726 0.68678,-1.735024 0.262857,-0.599226 0.531987,-1.195816 0.822827,-1.782085 0.28645,-0.576255 0.56293,-1.157785 0.8696,-1.723694 0.32147,-0.592675 0.63409,-1.189829 0.94304,-1.789102 z"
     sodipodi:nodetypes="cccccccccccccccccccccccccccccccccccssccccccccc" />
  <path
     style="fill:#000000;fill-rule:nonzero;stroke:none;stroke-width:0.264583;fill-opacity:1"
     id="path4"
     d="m 96.828543,52.015814 c 0.0179,-0.269081 0.0373,-0.538112 0.0569,-0.807093 0.0497,-0.694719 0.0995,-1.389395 0.14191,-2.084604 0.0606,-1.034034 0.0853,-2.06956 0.0884,-3.105219 -0.003,-0.616008 -0.006,-1.23282 -0.0498,-1.847598 -0.0254,-0.354844 -0.0395,-0.44137 -0.0805,-0.789721 -0.0738,-0.552923 -0.17931,-1.106797 -0.3724,-1.631923 -0.0331,-0.09016 -0.0722,-0.178038 -0.10828,-0.267055 -0.1394,-0.334428 -0.34268,-0.633203 -0.62448,-0.863698 -0.17272,-0.141271 -0.21956,-0.153389 -0.41509,-0.256164 -0.35278,-0.141531 -0.73731,-0.187645 -1.1093,-0.09373 -0.0779,0.01966 -0.15275,0.04961 -0.22913,0.07442 -0.39133,0.159695 -0.72033,0.427988 -1.0116,0.729634 -0.0567,0.05873 -0.10994,0.120729 -0.164914,0.181094 -0.20425,0.229142 -0.375896,0.483505 -0.513821,0.757484 -0.03118,0.06194 -0.06337,0.123639 -0.08843,0.188296 -0.03066,0.07911 -0.05227,0.161443 -0.07841,0.242165 -0.08275,0.310798 -0.09893,0.630758 -0.04856,0.94847 0.03189,0.201139 0.06221,0.28311 0.118626,0.477621 0.133792,0.368075 0.329837,0.709422 0.603985,0.991674 0.203484,0.209494 0.310344,0.274651 0.545164,0.450389 0.632,0.423204 1.3404,0.714582 2.05875,0.955768 0.16423,0.05514 0.33025,0.104754 0.49538,0.157131 1.01215,0.310353 2.05251,0.510783 3.08225,0.751266 0.44914,0.104354 0.892417,0.231529 1.336097,0.356475 0.59896,0.168649 0.83747,-0.678415 0.2385,-0.847063 v 0 c -0.45643,-0.128492 -0.912507,-0.259046 -1.374537,-0.366371 -1.0077,-0.235162 -2.02572,-0.431329 -3.01665,-0.733248 -0.15576,-0.04924 -0.31235,-0.09593 -0.46728,-0.147712 -0.63608,-0.212568 -1.26539,-0.465619 -1.82899,-0.833585 -0.15633,-0.114049 -0.26759,-0.185346 -0.40358,-0.319284 -0.191,-0.188108 -0.32809,-0.416041 -0.4251,-0.664604 -0.0511,-0.169055 -0.0908,-0.309075 -0.10766,-0.485645 -0.004,-0.04438 -0.01,-0.08892 -0.008,-0.133488 0.003,-0.104841 0.0245,-0.198601 0.0437,-0.300984 0.0114,-0.04233 0.0189,-0.08592 0.0342,-0.126982 0.0192,-0.05127 0.0448,-0.09989 0.0689,-0.149032 0.10288,-0.209812 0.2328,-0.403704 0.38839,-0.578342 0.23509,-0.262017 0.48723,-0.52016 0.81166,-0.669483 0.0355,-0.01389 0.07,-0.03059 0.10647,-0.04168 0.18095,-0.05504 0.37057,-0.04195 0.54879,0.01548 0.0363,0.01664 0.074,0.03045 0.10884,0.04991 0.25726,0.143605 0.39568,0.352571 0.51178,0.61717 0.0294,0.07097 0.0613,0.140933 0.0882,0.212897 0.17456,0.467783 0.26636,0.962959 0.33302,1.456031 0.0384,0.323101 0.052,0.407281 0.0759,0.736687 0.0432,0.597152 0.0448,1.196343 0.0483,1.794701 -0.003,1.018693 -0.0273,2.037252 -0.0868,3.05435 -0.0421,0.691734 -0.0918,1.382932 -0.14121,2.07418 -0.0211,0.290221 -0.0439,0.580437 -0.0592,0.871021 0,0.622255 0.88001,0.622255 0.88001,0 z" />
  <path
     style="fill:#000000;fill-opacity:1;fill-rule:nonzero;stroke:none;stroke-width:0.264583"
     d="m 93.559063,51.092913 c -0.848642,-0.187343 -1.703693,-0.339532 -2.564338,-0.459097 -1.084783,-0.124484 -2.170916,-0.237955 -3.2572,-0.348694 l -0.08924,0.875465 c 1.075706,0.109643 2.151229,0.222231 3.225517,0.344882 0.84006,0.116369 1.674485,0.265527 2.502801,0.448317 z"
     id="path13"
     sodipodi:nodetypes="ccccccc" />
  <path
     style="fill:#000000;fill-rule:nonzero;stroke:none;stroke-width:0.264583;fill-opacity:1"
     d="m 93.376603,51.953786 c 0.66793,0.141576 1.33599,0.283398 1.99962,0.444127 0.21142,0.05556 0.42007,0.120465 0.63041,0.179504 0.59032,0.196774 0.8686,-0.638066 0.27827,-0.834843 -0.22814,-0.06522 -0.45478,-0.134816 -0.68421,-0.195551 -0.67746,-0.164809 -1.35962,-0.309544 -2.04163,-0.45411 z"
     id="path12"
     sodipodi:nodetypes="ccccccc" />
  <path
     style="fill:#000000;fill-opacity:1;fill-rule:nonzero;stroke:none;stroke-width:0.264583"
     d="m 80.391747,49.800347 c -0.981197,-0.0529 -1.120722,-0.06099 -2.101805,-0.115935 -0.823309,-0.04884 -1.646277,-0.103574 -2.469306,-0.156975 -0.629722,-0.04119 -1.259665,-0.07891 -1.889805,-0.11313 -0.299495,-0.01617 -0.599096,-0.03029 -0.89871,-0.04404 -0.621602,-0.02851 -0.661924,0.850564 -0.04032,0.879076 v 0 c 0.297156,0.01363 0.594293,0.02764 0.891331,0.04367 0.627049,0.03404 1.2539,0.07159 1.880534,0.11258 0.825621,0.05356 1.651179,0.108479 2.477082,0.157446 0.981334,0.05494 1.121105,0.06308 2.102551,0.115974"
     id="path10"
     sodipodi:nodetypes="ccccssscccc" />
  <path
     style="fill:url(#linearGradient17);fill-rule:nonzero;stroke:none;stroke-width:0.264583"
     d="m 87.737525,50.285122 c -1.104197,-0.113281 -2.211607,-0.189907 -3.319283,-0.259197 -1.061328,-0.06495 -2.964794,-0.167031 -4.026495,-0.225578 l -0.04845,0.878666 c 1.059542,0.05842 2.960849,0.160383 4.020015,0.225198 1.096225,0.06855 2.192192,0.144282 3.284974,0.256376 z"
     id="path5"
     sodipodi:nodetypes="ccccccc" />
  <path
     style="fill:url(#linearGradient18);fill-rule:nonzero;stroke:none;stroke-width:0.264583"
     id="path6"
     d="m 82.115106,48.534383 c 0.264253,0.234874 0.538361,0.457825 0.815015,0.67781 0.376362,0.286718 0.754163,0.571413 1.127961,0.861505 0.248647,0.196479 0.486957,0.405455 0.729819,0.608914 0.477041,0.399542 1.042077,-0.275095 0.565036,-0.674634 v 0 c -0.251288,-0.210408 -0.497713,-0.426723 -0.75533,-0.629489 -0.371084,-0.287986 -0.745961,-0.570847 -1.119857,-0.855136 -0.286613,-0.227809 -0.567327,-0.462206 -0.845053,-0.700659 -0.503237,-0.365993 -1.020828,0.345697 -0.517591,0.711689 z" />
  <path
     style="fill:url(#linearGradient19);fill-rule:nonzero;stroke:none;stroke-width:0.264583"
     id="path7"
     d="m 82.080824,52.894801 c 0.183499,-0.106119 0.366572,-0.213022 0.552246,-0.315326 0.332095,-0.17527 0.659347,-0.359018 0.984907,-0.546062 0.301804,-0.1758 0.603051,-0.352568 0.900959,-0.534911 0.226414,-0.141798 0.449585,-0.288523 0.678878,-0.425667 0.113411,-0.06403 0.226153,-0.129133 0.338992,-0.194175 0.539057,-0.310835 0.09947,-1.073177 -0.439586,-0.762342 v 0 c -0.116949,0.06746 -0.233918,0.134745 -0.351314,0.201414 -0.231759,0.138777 -0.457843,0.286404 -0.686456,0.430255 -0.290894,0.178136 -0.585169,0.350631 -0.879856,0.522394 -0.321186,0.184528 -0.644073,0.365725 -0.971712,0.53863 -0.186269,0.102939 -0.37043,0.209611 -0.554423,0.316532 -0.543947,0.302194 -0.116581,1.071451 0.427365,0.769258 z" />
  <path
     style="fill:#000000;fill-opacity:1;fill-rule:nonzero;stroke:none;stroke-width:0.264583"
     id="path8"
     d="m 72.513654,46.838778 c -0.01693,0.192424 -0.02511,0.385602 -0.03363,0.57857 -0.01627,0.463034 -0.03365,0.925999 -0.05549,1.388809 -0.02863,0.51885 -0.05747,1.037695 -0.08671,1.556512 -0.02466,0.399579 -0.05128,0.799031 -0.07695,1.198544 -0.01582,0.236386 -0.02857,0.472969 -0.04374,0.709395 -0.0083,0.137917 -0.02064,0.27555 -0.03191,0.413245 -0.0508,0.620178 0.826257,0.692028 0.877062,0.07185 v 0 c 0.0117,-0.142878 0.02447,-0.285697 0.03305,-0.42881 0.01513,-0.236384 0.02796,-0.472916 0.04373,-0.709261 0.02582,-0.401812 0.05261,-0.803558 0.07736,-1.205436 0.02939,-0.521502 0.0584,-1.043027 0.08713,-1.564563 0.02188,-0.46373 0.03938,-0.927611 0.05561,-1.391568 0.009,-0.205931 0.02093,-0.411629 0.03448,-0.617287 0,-0.622252 -0.879999,-0.622252 -0.879999,0 z" />
  <path
     style="fill:#000000;fill-opacity:1;fill-rule:nonzero;stroke:none;stroke-width:0.264583"
     id="path9"
     d="m 73.104438,49.738308 c -0.07898,-0.09974 -0.172154,-0.203357 -0.2561,-0.303722 -0.234684,-0.292516 -0.485195,-0.571565 -0.740579,-0.845994 -0.264004,-0.273868 -0.540906,-0.535984 -0.838727,-0.773007 -0.05632,-0.04482 -0.11413,-0.08775 -0.171194,-0.131622 -0.273473,-0.198205 -0.560604,-0.380667 -0.867315,-0.523482 -0.05964,-0.02777 -0.120746,-0.0523 -0.181118,-0.07845 -0.240464,-0.09543 -0.489694,-0.170504 -0.745691,-0.210447 -0.163966,-0.02559 -0.232527,-0.02655 -0.396704,-0.03743 -0.307343,-0.0093 -0.614784,0.01616 -0.91122,0.101784 -0.224748,0.0649 -0.348251,0.123194 -0.563394,0.21249 -0.437187,0.199678 -0.847813,0.455665 -1.220475,0.759216 -0.06609,0.05383 -0.129316,0.111087 -0.193973,0.16663 -0.05904,0.05693 -0.119809,0.112123 -0.177111,0.170798 -0.203853,0.208751 -0.396792,0.445588 -0.536112,0.70299 -0.03363,0.06214 -0.06119,0.127373 -0.09179,0.191058 -0.023,0.06319 -0.04944,0.125233 -0.06899,0.189574 -0.07117,0.234202 -0.09876,0.490165 -0.06785,0.733662 0.0078,0.06146 0.02253,0.121863 0.03386,0.182788 0.02093,0.06156 0.03714,0.12492 0.06276,0.184681 0.08939,0.208522 0.242031,0.409583 0.401196,0.570352 0.03923,0.03962 0.08142,0.07618 0.122132,0.114272 0.167621,0.145562 0.35499,0.266524 0.555937,0.360798 0.1252,0.05873 0.180768,0.0762 0.309432,0.123696 0.217676,0.07522 0.441295,0.129998 0.669545,0.160869 0.16362,0.02213 0.214482,0.02245 0.380395,0.03318 0.395802,0.02451 0.791374,-0.0059 1.18454,-0.04993 0.370167,-0.04789 0.735616,-0.12866 1.093404,-0.234542 0.06952,-0.02056 0.13843,-0.04312 0.207644,-0.06467 0.362738,-0.116143 0.715441,-0.259946 1.065272,-0.409822 0.264739,-0.116175 0.52843,-0.234699 0.792387,-0.352636 0.170343,-0.07719 0.342247,-0.150827 0.51325,-0.226525 0.02247,-0.01022 0.04495,-0.02043 0.06744,-0.03063 0.566494,-0.257452 0.202399,-1.0586 -0.364097,-0.801144 v 0 c -0.01985,0.009 -0.0397,0.01807 -0.05954,0.02708 -0.171932,0.07611 -0.344773,0.150139 -0.516034,0.227762 -0.259862,0.11611 -0.519479,0.232779 -0.780072,0.347247 -0.322228,0.138169 -0.646918,0.271193 -0.980929,0.378667 -0.06137,0.01922 -0.122486,0.03933 -0.184127,0.05768 -0.311917,0.09295 -0.630485,0.16443 -0.953265,0.207068 -0.342196,0.03903 -0.686558,0.06678 -1.031187,0.04608 -0.145589,-0.0086 -0.290596,-0.01834 -0.434388,-0.04433 -0.08773,-0.01585 -0.163235,-0.03602 -0.248791,-0.06097 -0.04002,-0.01166 -0.07965,-0.02468 -0.119471,-0.03702 -0.08265,-0.02977 -0.135774,-0.04695 -0.215184,-0.08288 -0.128257,-0.05803 -0.24873,-0.131837 -0.35639,-0.222707 -0.02403,-0.02145 -0.04901,-0.04189 -0.07209,-0.06437 -0.06928,-0.06751 -0.129739,-0.142967 -0.185045,-0.222121 -0.01249,-0.01789 -0.02556,-0.03552 -0.03618,-0.05459 -0.01037,-0.0186 -0.01776,-0.03869 -0.02664,-0.05803 -0.0061,-0.02325 -0.01423,-0.04606 -0.01815,-0.06977 -0.02678,-0.164431 -0.0021,-0.331266 0.05638,-0.486049 0.01677,-0.0376 0.03136,-0.07624 0.05028,-0.112796 0.129284,-0.249781 0.33155,-0.46551 0.532571,-0.658612 0.05275,-0.0458 0.104238,-0.09307 0.15824,-0.137385 0.311798,-0.255843 0.6549,-0.47296 1.020764,-0.642771 0.155176,-0.06551 0.271183,-0.119328 0.430748,-0.169011 0.210451,-0.06552 0.429471,-0.0832 0.648846,-0.07898 0.111607,0.0066 0.18007,0.0082 0.290151,0.02414 0.192536,0.02793 0.379783,0.08396 0.560807,0.154234 0.04531,0.01918 0.09122,0.03699 0.135922,0.05753 0.256102,0.11772 0.495279,0.269876 0.723813,0.433903 0.04937,0.03776 0.09939,0.07468 0.148102,0.113285 0.26764,0.212152 0.515985,0.447425 0.753303,0.692706 0.244982,0.263055 0.485073,0.530717 0.709964,0.811327 0.09725,0.116034 0.197032,0.229897 0.293999,0.346123 0.429461,0.450294 1.066273,-0.157057 0.636813,-0.607347 z" />
</svg>
