<?xml version="1.0" encoding="UTF-8" standalone="no"?>
<svg
   id="svg3224"
   version="1.1"
   viewBox="0 0 87.547443 47.496937"
   height="47.496937mm"
   width="87.54744mm"
   sodipodi:docname="42 jan li pilin ike. jan li pilin+ike..svg"
   inkscape:version="1.3 (0e150ed6c4, 2023-07-21)"
   xmlns:inkscape="http://www.inkscape.org/namespaces/inkscape"
   xmlns:sodipodi="http://sodipodi.sourceforge.net/DTD/sodipodi-0.dtd"
   xmlns="http://www.w3.org/2000/svg"
   xmlns:svg="http://www.w3.org/2000/svg"
   xmlns:rdf="http://www.w3.org/1999/02/22-rdf-syntax-ns#"
   xmlns:cc="http://creativecommons.org/ns#"
   xmlns:dc="http://purl.org/dc/elements/1.1/">
  <sodipodi:namedview
     id="namedview1"
     pagecolor="#ffffff"
     bordercolor="#000000"
     borderopacity="0.25"
     inkscape:showpageshadow="2"
     inkscape:pageopacity="0.0"
     inkscape:pagecheckerboard="0"
     inkscape:deskcolor="#d1d1d1"
     inkscape:document-units="mm"
     inkscape:zoom="2.8284271"
     inkscape:cx="198.87378"
     inkscape:cy="99.171726"
     inkscape:window-width="1920"
     inkscape:window-height="1051"
     inkscape:window-x="-9"
     inkscape:window-y="-9"
     inkscape:window-maximized="1"
     inkscape:current-layer="svg3224" />
  <defs
     id="defs3218" />
  <metadata
     id="metadata3221">
    <rdf:RDF>
      <cc:Work
         rdf:about="">
        <dc:format>image/svg+xml</dc:format>
        <dc:type
           rdf:resource="http://purl.org/dc/dcmitype/StillImage" />
        <dc:title />
      </cc:Work>
    </rdf:RDF>
  </metadata>
  <g
     transform="translate(-118.94763,-113.0507)"
     id="layer1">
    <g
       transform="matrix(0.26458333,0,0,0.26458333,116.54698,98.816926)"
       id="g4403">
      <path
         style="opacity:0.2"
         d="m 60.1,229.4 c 19.4,-9.4 10.1,-21.9 -9.2,-25.3 -8.4,-1.5 -13.5,-14.9 -34.6,-1.6 -16.9,10.8 0,17.9 8.6,22 12.1,5.7 17.2,13.7 35.2,4.9 z"
         id="path4357" />
      <path
         style="fill:#262626"
         d="m 11.5,209 c -0.6,2.5 0,4.3 2.4,5.6 2.4,1.2 4.8,2 9.2,0.3 4.4,-1.7 8.7,-5.6 13,-7.4 4.3,-1.8 6.9,-3.9 7,-7.9 0.1,-3.9 -13,-6.1 -16.4,-1.9 -3.4,4.2 -7.7,6.3 -9.8,7.4 -2.1,1.1 -4.8,1.6 -5.4,3.9 z"
         id="path4359" />
      <path
         style="fill:#ffffff"
         d="m 12.3,209.1 c 0.4,1.2 3.4,3.9 6.5,3.3 3.1,-0.6 7.2,-3 10.3,-5.1 3.2,-2.1 6.7,-3.8 9.1,-4.9 2.4,-1.1 -7.9,-8.1 -7.9,-8.1 0,0 -4.7,5.5 -9.6,9 -4,2.8 -9.2,3.7 -8.4,5.8 z"
         id="path4361" />
      <path
         style="fill:#262626"
         d="m 52.6,209.3 c -0.8,3.1 -2.4,6.9 -6.6,11.6 -4.2,4.6 -3.9,4.8 -3.6,6.5 0.3,1.7 0.2,3.3 3.6,3.7 3.4,0.3 6.3,-0.1 8.8,-1.7 2.4,-1.6 9.3,-8.8 11.1,-11.1 1.8,-2.3 3.1,-2.9 3.1,-6 0,-3.1 -16.4,-3 -16.4,-3 z"
         id="path4363" />
      <path
         style="fill:#ffffff"
         d="m 67.1,212.4 c -1.8,2.4 -6.4,7.6 -9.6,10.5 -2.7,2.4 -3.7,4 -7.5,4.6 -3.4,0.6 -6.5,0.3 -7.3,-0.7 -0.8,-1 1.4,-3.6 4.9,-7.5 3.6,-4 5.2,-10.6 5.2,-10.6 z"
         id="path4365" />
      <path
         style="fill:#06547a"
         d="m 67.8,130.9 c -7.6,1.7 -24.2,7.9 -29,9.3 C 34,141.6 29,143 28,150 c -1,7 1.1,16.4 0.7,25.7 -0.4,9.3 -1,13 -0.6,14.9 0.4,2 0.5,2.4 -1.3,3.7 -1.8,1.4 -3.2,4.6 -2.3,6.4 1,1.8 7.9,6.5 13.9,4.8 6,-1.7 5.2,-3.3 6.3,-9.2 1.1,-5.9 1.8,-15.9 2.4,-24.4 0.6,-8.5 0,-12.7 1.1,-13.6 1.1,-1 7.4,-0.6 17.2,-2.5 9.8,-1.9 20.6,-9.2 20.6,-9.2 z"
         id="path4367" />
      <path
         style="opacity:0.2"
         d="m 67.8,130.9 c -7.6,1.7 -24.2,7.9 -29,9.3 C 34,141.6 29,143 28,150 c -1,7 1.1,16.4 0.7,25.7 -0.4,9.3 -1,13 -0.6,14.9 0.4,2 0.5,2.4 -1.3,3.7 -1.8,1.4 -3.2,4.6 -2.3,6.4 1,1.8 7.9,6.5 13.9,4.8 6,-1.7 5.2,-3.3 6.3,-9.2 1.1,-5.9 1.8,-15.9 2.4,-24.4 0.6,-8.5 0,-12.7 1.1,-13.6 1.1,-1 7.4,-0.6 17.2,-2.5 9.8,-1.9 20.6,-9.2 20.6,-9.2 z"
         id="path4369" />
      <path
         style="fill:#06547a"
         d="m 73.9,142.8 c -6.3,3.1 -15.3,12.7 -16.6,16.9 -1.3,4.2 -1.2,13.9 -1.3,17.2 -0.1,3.2 -1.2,21.9 -2.7,27.1 -0.8,2.6 -2.3,4.3 -2.6,6.4 -0.3,2.1 -1.3,2.7 -0.1,4 1.2,1.3 7.9,2.8 12.4,2.7 4.5,-0.1 5.7,-0.6 6.7,-2.3 1,-1.7 1.5,-3.2 0.5,-5.5 -1,-2.3 -0.9,-4.2 0.6,-5.9 1.5,-1.7 1.4,-6.4 1.8,-9.9 0.7,-6.1 1.3,-22.5 1.9,-23.1 0.6,-0.6 11.7,-5.1 17.1,-8.2 6.6,-3.8 9.1,-11.4 8.1,-20.3 -1,-8.9 -4.4,-12.7 -4.4,-12.7 z"
         id="path4371" />
      <path
         style="fill:#fbd7c7"
         d="m 50.3,85.9 c -0.8,1.7 -1.9,3.5 -3.3,6.7 -1.7,4 -5,9.1 -6.1,11.2 -1.3,2.6 -3.1,4.6 -3.1,9.2 0,4.8 2.1,19.3 1.9,21.4 -0.2,2 -0.5,4.1 1.4,5.6 1.9,1.6 3.3,2.7 3.5,3.7 0.2,1 0.6,1.2 0.6,2.4 -0.1,2.7 0.1,3.7 0.7,3.8 1,0.2 1.2,-3.3 1.2,-4.2 0,-0.9 -0.1,-1.8 -0.1,-1.8 0,0 0.8,1 1.1,3 0.3,2 0.2,4.6 1.4,5 1.2,0.4 1.2,-1.4 1,-3.2 -0.2,-1.8 -0.4,-3.1 -0.4,-3.1 l -0.7,-2 c 0,0 1.9,1.4 2.7,2.7 0.7,1 1.1,2.1 1.3,3.1 0.2,0.9 0.8,2.9 1.6,2.8 1,-0.1 0.6,-2.4 0.4,-3.4 -0.2,-1 -1.2,-3.7 -1.4,-4.1 -0.2,-0.4 -0.7,-1.4 -0.7,-1.4 0,0 1,0 1.9,1 0.9,1 1.5,2.5 2.3,3.5 0.8,1 1.2,1.7 1.9,1.2 0.7,-0.5 -1.1,-4.1 -1.6,-4.9 -0.5,-0.9 -0.6,-2 -1.9,-2.7 -1.3,-0.7 -3.7,-2.5 -4.8,-3.3 -1.2,-0.8 -3.2,-1.7 -3.4,-2.8 -0.3,-1.2 -0.6,-4.1 -0.4,-6.2 1,-12.9 0.1,-16.5 0.5,-17.5 0.5,-1.2 4,-6.1 7.5,-9.8 3.5,-3.7 6.7,-7.4 6.7,-7.4 z"
         id="path4373" />
      <path
         style="fill:#e5e5e5"
         d="m 64,75.2 c -4.5,0.2 -8.6,0 -11.8,5.2 -3.2,5.2 -2.9,7.1 -2.9,7.1 0,0 6,2.6 6.3,3.3 0.3,0.7 0.3,5.8 1.2,8.3 0.9,2.5 3.7,6.8 3.9,11.4 0.2,4.6 -0.4,20.7 0.1,22.5 0.8,2.8 4.1,7.9 10.1,9.5 6,1.6 15.3,1.4 21.2,-3.2 5.4,-4.2 5.1,-5.6 5,-7.5 C 97,129.9 93,126.7 92.5,123 92,119.3 94.7,111.1 94.5,103.4 94.4,95.7 94,92.5 89.4,86.6 85,81 80.2,76.3 77.5,74.8 74.1,72.8 64,75.2 64,75.2 Z"
         id="path4375" />
      <path
         style="fill:#fbd7c7"
         d="m 65.2,84.6 c 0,0 1,8 8.5,6.9 7.4,-1.1 10.7,-5.6 10.5,-8.4 -0.2,-2.4 -2.3,-4 -4.6,-6.3 -1.6,-1.7 -3.5,-2.7 -3.4,-3.7 0.2,-2 2.7,-9.9 -1.2,-14.6 -6.6,-7.9 -14.4,-3.6 -16.7,-1.9 -6,4.6 -6.7,11.2 -6.1,14.6 0.6,3.3 2.5,12.9 5,14.5 2.4,1.7 8,-1.1 8,-1.1 z"
         id="path4377" />
      <path
         style="fill:#825012"
         d="m 74.6,72.6 c 0,0 0.7,0.4 1.7,0.4 v 0 C 76.5,71 79,63.1 75.1,58.4 68.5,50.5 60.7,54.8 58.4,56.5 c -3,2.3 -4.7,5.1 -5.5,7.7 1,0.9 0.4,2.7 3.1,3.5 2.9,0.8 4.4,-3 7.5,-1.5 3.1,1.5 4,8 4,8 l 2.2,-1.6 c 0,0 0.9,-3.3 3.1,-3.2 2.1,0.2 1.8,3.2 1.8,3.2 z"
         id="path4379" />
      <path
         style="fill:#fbd7c7"
         d="m 62,153.7 c 0,0 1,-1.3 2,-1.8 0.9,-0.5 2,-0.9 2.6,-0.5 0.6,0.4 4,2.4 6.3,1.6 2.3,-0.8 3.1,-1.7 4.3,-3.4 1.2,-1.7 9.6,-8.3 11.5,-17.3 1.9,-9 4.7,-23.4 4.1,-24.2 -0.5,-0.8 -12.2,-3.5 -13.7,-2.7 -1.5,0.8 0.2,9.5 0.7,13.4 0.5,3.9 1.1,8.3 0.3,9.3 -0.8,0.9 -2.7,4.4 -4.3,8.4 -1.5,3.9 -2.9,8.8 -3.4,8.8 -0.5,0 -2.4,-1.9 -4.6,-1.6 -2.2,0.3 -2.2,0.8 -3,1.2 -0.6,0.3 -1.7,1 -2.7,1.6 -1,0.6 -1.8,1.4 -1.8,2.5 0,1.1 0.9,4.7 1.7,4.7 z"
         id="path4381" />
    </g>
    <path
       style="clip-rule:evenodd;fill:#3399cc;fill-opacity:1;fill-rule:evenodd;stroke-width:0.0422042"
       d="m 132.71119,119.24276 c 0,0 -0.45158,0.56554 -0.45158,0.81454 0,0.24901 0.20258,0.45159 0.45158,0.45159 0.24901,0 0.45159,-0.20258 0.45159,-0.45159 0,-0.249 -0.45159,-0.81454 -0.45159,-0.81454 z m -0.004,1.09731 c -0.1646,0 -0.29544,-0.13084 -0.29544,-0.29543 0,-0.0253 0.0169,-0.0422 0.0422,-0.0422 0.0253,0 0.0422,0.0169 0.0422,0.0422 0,0.11817 0.0929,0.21102 0.21103,0.21102 0.0253,0 0.0422,0.0169 0.0422,0.0422 0,0.0253 -0.0169,0.0422 -0.0422,0.0422 z"
       id="path4405" />
  </g>
  <path
     style="fill:#000000;fill-opacity:1;fill-rule:nonzero;stroke:none;stroke-width:0.264583"
     d="m 69.86402,16.730814 c -0.765554,0.420399 -1.507752,0.881751 -2.258124,1.328164 -1.232418,0.744282 -2.458132,1.499633 -3.696179,2.234601 -1.110832,0.654501 -2.232668,1.290684 -3.368847,1.900242 -1.051676,0.553042 -2.10888,1.095254 -3.179423,1.611058 -0.911416,0.434155 -1.822958,0.868297 -2.742002,1.28613 -0.84143,0.39342 -1.665425,0.822687 -2.510377,1.208554 -0.742402,0.335743 -1.495586,0.650547 -2.266865,0.914278 -0.72839,0.236429 -1.466795,0.411536 -2.218793,0.555893 -0.735513,0.139567 -1.478452,0.247541 -2.227782,0.271512 -0.622993,0.0097 -1.24601,-0.02655 -1.839505,-0.234251 -0.36623,-0.182653 -0.59863,-0.325414 -0.769159,-0.713584 -0.16242,-0.465 -0.204348,-0.795857 -0.05913,-1.280476 0.03137,-0.08759 0.05792,-0.177051 0.0941,-0.262759 0.227306,-0.538359 0.600178,-1.000129 1.019474,-1.400741 0.536297,-0.482019 1.12785,-0.977762 1.790933,-1.276148 0.130421,-0.05869 0.26806,-0.0998 0.40209,-0.149706 0.133852,-0.0389 0.266062,-0.08398 0.401558,-0.116697 0.636968,-0.153802 1.29686,-0.165979 1.930765,0.0076 0.274772,0.08775 0.439719,0.131897 0.702794,0.249373 0.384561,0.171725 0.744897,0.401278 1.034693,0.708859 0.05275,0.06878 0.109521,0.134667 0.158268,0.206348 0.126852,0.18654 0.238414,0.410288 0.283877,0.633196 0.03399,0.166627 0.02244,0.274982 0.01916,0.443517 -0.0078,0.06776 -0.0096,0.136468 -0.02336,0.203272 -0.08633,0.419527 -0.311946,0.798771 -0.469416,1.192333 -0.137993,0.294942 -0.259448,0.606219 -0.464193,0.862852 -0.382026,0.491178 0.312603,1.031446 0.694629,0.540268 l -1.3e-5,3.7e-5 c 0.24846,-0.306697 0.400714,-0.675653 0.566619,-1.030155 0.179152,-0.433748 0.415544,-0.855762 0.51695,-1.318178 0.02381,-0.108589 0.03363,-0.219781 0.05045,-0.329671 0.04897,-0.610459 -0.07873,-1.120062 -0.411975,-1.63635 -0.06604,-0.102321 -0.144182,-0.19631 -0.216271,-0.294465 -0.368448,-0.41889 -0.833096,-0.734118 -1.338775,-0.965335 -0.32716,-0.149591 -0.494004,-0.193181 -0.833512,-0.303445 -0.77384,-0.217326 -1.581833,-0.216352 -2.363121,-0.03488 -0.162213,0.03768 -0.320593,0.09029 -0.480888,0.135437 -0.976368,0.307957 -1.786284,0.944054 -2.538613,1.616694 -0.502457,0.476937 -0.944198,1.029153 -1.222219,1.668554 -0.04919,0.113137 -0.08663,0.231033 -0.129942,0.346549 -0.138227,0.430602 -0.180213,0.879537 -0.101259,1.325907 0.04039,0.22837 0.08136,0.326258 0.153196,0.541626 0.187868,0.464423 0.489612,0.811861 0.920949,1.067247 0.09064,0.05367 0.186769,0.09747 0.280156,0.146206 0.587801,0.226455 1.22123,0.324025 1.849729,0.335489 0.134207,0.0024 0.268438,-0.003 0.402659,-0.0046 0.800444,-0.02376 1.594045,-0.138393 2.37976,-0.28679 0.512403,-0.107929 1.027076,-0.209185 1.533591,-0.343078 0.359921,-0.09514 0.436377,-0.1252 0.792575,-0.240244 0.80259,-0.273222 1.585868,-0.600792 2.358208,-0.949576 0.848728,-0.386678 1.675688,-0.818458 2.520614,-1.213259 0.920988,-0.418737 1.834467,-0.853799 2.747817,-1.288875 1.081029,-0.52078 2.148594,-1.06823 3.210554,-1.626649 1.148779,-0.61603 2.282857,-1.259337 3.405955,-1.920914 1.240835,-0.736535 2.469251,-1.493595 3.704415,-2.239515 0.743204,-0.441934 1.477989,-0.899242 2.236246,-1.315377"
     id="path4" />
  <path
     style="fill:#ff4400;fill-opacity:1;fill-rule:nonzero;stroke:none;stroke-width:0.264583"
     d="m 70.297061,17.496892 c 0.366728,-0.201262 0.697179,-0.368339 1.069107,-0.559889 0.929769,-0.47471 1.859737,-0.949027 2.799739,-1.403222 0.12533,-0.06024 0.250658,-0.120471 0.375986,-0.180706 0.56084,-0.269552 0.179636,-1.0627 -0.381204,-0.793147 v 0 c -0.125889,0.0605 -0.251778,0.12101 -0.377664,0.181515 -0.946708,0.457523 -1.883441,0.935047 -2.819834,1.413249 -0.39049,0.201179 -0.713856,0.364528 -1.099171,0.576122"
     id="path1" />
  <path
     id="path2"
     style="fill:#ff4400;fill-opacity:1;fill-rule:nonzero;stroke:none;stroke-width:0.264583"
     d="m 79.244871,13.651774 c -0.532845,-0.0012 -1.066637,0.0022 -1.597836,0.04909 -0.453063,0.04312 -0.905987,0.09381 -1.352889,0.181901 -0.36255,0.07438 -0.721626,0.161857 -1.071252,0.284737 -0.275815,0.08948 -0.551588,0.179385 -0.821655,0.285254 -0.127344,0.05236 -0.256672,0.103256 -0.375171,0.17415 -0.527669,0.329793 -0.06103,1.076001 0.466638,0.746207 0.07842,-0.0408 0.16117,-0.07289 0.242879,-0.106453 0.249565,-0.09684 0.504061,-0.179964 0.75861,-0.262516 0.318452,-0.112704 0.645653,-0.19202 0.976168,-0.259416 0.416182,-0.08143 0.838052,-0.127954 1.259872,-0.167949 0.502874,-0.04381 1.008181,-0.04617 1.512569,-0.04496 0.523038,-0.0012 1.04331,0.05409 1.562178,0.113688 0.565052,0.07216 1.111985,0.214885 1.65468,0.383956 0.338602,0.114802 0.674139,0.240636 0.996321,0.396358 0.206767,0.09994 0.236658,0.121607 0.434082,0.234094 0.342776,0.204105 0.660085,0.448858 0.94878,0.723987 0.05655,0.05389 0.110575,0.110203 0.165881,0.165365 0.280551,0.302205 0.527124,0.637744 0.721403,1.002006 0.04099,0.07685 0.0776,0.156058 0.116272,0.234094 0.232167,0.480173 0.384709,0.992801 0.518831,1.507402 0.09432,0.420705 0.146488,0.852926 0.128158,1.284676 -0.0037,0.088 -0.01399,0.175769 -0.02119,0.26355 -0.0509,0.485698 -0.220125,0.948677 -0.428397,1.387512 -0.04555,0.09598 -0.09462,0.190215 -0.14211,0.285254 -0.184182,0.363487 -0.398812,0.712714 -0.654741,1.030428 -0.160041,0.19868 -0.21575,0.248456 -0.392224,0.431498 -0.286663,0.274562 -0.611405,0.505104 -0.964282,0.68678 -0.217998,0.112233 -0.383896,0.175647 -0.610816,0.270267 -0.57751,0.220436 -1.1729,0.394378 -1.775602,0.531234 -0.113859,0.02585 -0.228331,0.04742 -0.342615,0.07131 -0.418782,0.0714 -0.841651,0.130848 -1.267106,0.139009 -0.246344,0.0047 -0.308558,-0.0047 -0.551387,-0.02119 -0.08355,-0.01225 -0.168055,-0.01904 -0.250631,-0.03669 -0.435943,-0.09315 -0.823506,-0.33608 -1.191142,-0.576193 -0.379184,-0.258529 -0.702579,-0.588525 -0.982885,-0.950329 -0.05402,-0.06972 -0.104799,-0.141881 -0.157097,-0.212907 -0.193127,-0.273391 -0.365353,-0.563295 -0.491959,-0.873849 -0.07922,-0.194327 -0.08981,-0.251175 -0.148312,-0.452168 -0.07374,-0.304868 -0.101715,-0.620287 -0.07751,-0.933277 0.01439,-0.186139 0.04069,-0.307293 0.07338,-0.491959 0.08916,-0.431479 0.267296,-0.840256 0.492993,-1.217497 0.04465,-0.07463 0.09447,-0.146013 0.141594,-0.219108 0.179686,-0.267892 0.399002,-0.507511 0.642855,-0.718303 0.138662,-0.119863 0.20115,-0.160449 0.348815,-0.267167 0.342233,-0.231712 0.722814,-0.390979 1.110527,-0.528133 0.242263,-0.06596 0.487557,-0.134667 0.738456,-0.159163 0.146773,-0.01433 0.231533,-0.0086 0.380856,-0.0062 0.286857,0.01841 0.571814,0.06049 0.85111,0.128674 0.160086,0.03908 0.23743,0.0657 0.393775,0.114205 0.227436,0.08208 0.451751,0.177658 0.660425,0.300757 0.111656,0.06587 0.147979,0.09653 0.251664,0.172599 0.136766,0.114688 0.273277,0.237566 0.366903,0.391707 0.04744,0.07811 0.06613,0.136655 0.100252,0.221692 0.105513,0.288168 0.102875,0.573753 0.08785,0.874882 -0.01299,0.197753 -0.03728,0.395342 -0.09715,0.584977 -0.03548,0.112356 -0.06087,0.164312 -0.107487,0.273369 -0.102013,0.218134 -0.214719,0.434906 -0.367419,0.622701 -0.02537,0.03119 -0.05376,0.05949 -0.08062,0.0894 -0.195749,0.208826 -0.431625,0.372253 -0.672827,0.523482 -0.08796,0.05468 -0.114626,0.08174 -0.22841,0.125574 -0.01213,0.0041 -0.02466,0.0087 -0.03721,0.01344 -0.01826,0.0066 -0.03101,0.01213 -0.05374,0.01964 -0.0016,9.26e-4 -0.0026,0.0022 -0.0041,0.0031 -1.28e-4,7.6e-5 -3.89e-4,-7.6e-5 -5.17e-4,0 -0.03475,0.0087 -0.06964,0.0172 -0.104386,0.02584 -0.187272,0.04342 -0.376425,0.08736 -0.569475,0.09198 -0.02614,-6.61e-4 -0.05193,-6.22e-4 -0.07803,-0.0021 -0.113704,-0.0063 -0.22628,-0.02757 -0.33383,-0.06511 -0.04976,-0.01745 -0.09966,-0.03543 -0.144177,-0.06408 -0.54502,-0.297285 -0.965384,0.471049 -0.42478,0.770495 6.77e-4,3.79e-4 0.0014,6.55e-4 0.0021,10e-4 9.22e-4,4.58e-4 9.7e-4,7.5e-4 0.0015,0.001 0.03542,0.01977 0.07054,0.03892 0.107487,0.05581 0.06838,0.03126 0.08309,0.03528 0.15658,0.06253 0.177529,0.06254 0.363097,0.100879 0.55087,0.114205 0.04362,0.0031 0.08757,0.0038 0.131258,0.0057 0.270727,0.0027 0.536025,-0.05332 0.798401,-0.113689 0.03957,-0.0098 0.07929,-0.01966 0.118856,-0.02945 0.03916,-0.0097 0.07593,-0.02385 0.110588,-0.04083 0.06541,-0.0087 0.132923,-0.03107 0.201021,-0.0708 0.177348,-0.103531 0.08762,-0.05041 0.269234,-0.160197 0.312632,-0.197689 0.615721,-0.413272 0.866097,-0.68833 0.04245,-0.04936 0.08662,-0.09682 0.127124,-0.147795 0.193504,-0.243513 0.340585,-0.520949 0.469739,-0.802535 0.06744,-0.162263 0.09591,-0.219694 0.146761,-0.389123 0.07496,-0.249768 0.109421,-0.508806 0.125574,-0.768429 0.007,-0.152744 0.01468,-0.25723 0.0093,-0.411344 -0.01013,-0.290094 -0.06364,-0.576334 -0.165365,-0.848527 -0.07708,-0.176643 -0.09315,-0.233191 -0.199988,-0.396875 -0.148951,-0.228263 -0.350498,-0.416698 -0.561723,-0.586011 -0.151163,-0.108527 -0.186195,-0.139591 -0.348816,-0.234094 -0.259396,-0.150742 -0.537482,-0.268292 -0.820105,-0.36742 -0.191552,-0.05882 -0.269058,-0.0858 -0.466638,-0.133325 -0.337451,-0.08117 -0.681812,-0.130358 -1.028361,-0.148828 -0.225932,-0.0014 -0.295052,-0.0083 -0.518831,0.0155 -0.307364,0.03264 -0.608375,0.11576 -0.904338,0.201021 -0.466832,0.166505 -0.924051,0.362154 -1.333768,0.645439 -0.186608,0.13645 -0.252912,0.178826 -0.428915,0.332796 -0.298804,0.2614 -0.566122,0.559437 -0.786515,0.889868 -0.05683,0.08941 -0.116567,0.177037 -0.170532,0.268201 -0.273682,0.462354 -0.483181,0.964208 -0.589112,1.491898 -0.04221,0.246421 -0.06947,0.366595 -0.0863,0.617534 -0.02723,0.405986 0.01352,0.813549 0.113171,1.207678 0.07609,0.254049 0.08857,0.320807 0.190686,0.566374 0.152562,0.366876 0.356339,0.710604 0.586011,1.034045 0.06104,0.08227 0.119872,0.165768 0.182934,0.246497 0.337725,0.432337 0.729562,0.822996 1.184941,1.131197 0.09303,0.06017 0.184334,0.123389 0.279053,0.180867 0.485697,0.294734 1.014068,0.522869 1.585433,0.572058 0.291233,0.01833 0.356417,0.02878 0.651123,0.02222 0.471807,-0.0105 0.940354,-0.07566 1.404565,-0.156579 0.123764,-0.02604 0.248237,-0.04995 0.371554,-0.07803 0.647384,-0.147434 1.286635,-0.335469 1.906343,-0.574125 0.275926,-0.115924 0.438996,-0.178037 0.705384,-0.317293 0.427116,-0.223279 0.81899,-0.506713 1.164786,-0.842326 0.208782,-0.218631 0.271015,-0.274235 0.460437,-0.511597 0.28801,-0.360901 0.53048,-0.755931 0.738973,-1.16737 0.127937,-0.257538 0.195278,-0.382009 0.304891,-0.649056 0.177057,-0.431353 0.310634,-0.882862 0.355534,-1.348238 0.0081,-0.110103 0.01956,-0.219894 0.02377,-0.330213 0.01924,-0.506998 -0.044,-1.014392 -0.156579,-1.507918 -0.15017,-0.57337 -0.322905,-1.144107 -0.583427,-1.678451 -0.04703,-0.09359 -0.09133,-0.188435 -0.141077,-0.280603 -0.233077,-0.431766 -0.527191,-0.829438 -0.862996,-1.18649 -0.06481,-0.0642 -0.128592,-0.129497 -0.19482,-0.192237 -0.336706,-0.318976 -0.706633,-0.602413 -1.105876,-0.838708 -0.08212,-0.0464 -0.16332,-0.09452 -0.246497,-0.13901 -0.43304,-0.231603 -0.892208,-0.41012 -1.357023,-0.566374 -0.249326,-0.07735 -0.355081,-0.112715 -0.609782,-0.1788 -0.396972,-0.103 -0.799622,-0.184261 -1.206127,-0.238745 C 80.35373,13.707791 79.8008,13.65032 79.244885,13.651678 Z" />
  <path
     style="fill:#000000;fill-opacity:1;fill-rule:nonzero;stroke:none;stroke-width:0.264583"
     id="path3"
     d="m 43.811557,23.625051 c 0.0114,0.252684 0.06826,0.507103 0.164412,0.741151 0.03852,0.09376 0.08651,0.183337 0.129759,0.275005 0.06713,0.101906 0.126505,0.209364 0.201388,0.305718 0.286282,0.368378 0.671613,0.68213 1.135216,0.795083 0.52805,0.128654 0.900284,0.06046 1.43579,0.02471 0.334571,-0.09665 0.676217,-0.17153 1.003716,-0.28996 0.841078,-0.304151 1.65381,-0.724749 2.407531,-1.202237 0.494305,-0.313148 0.968428,-0.657554 1.440005,-1.003987 1.14078,-0.838048 1.805829,-1.411357 2.899595,-2.312124 1.819939,-1.571708 0.9281,-0.791197 2.676385,-2.340542 0.465688,-0.412715 -0.117978,-1.071299 -0.583668,-0.658584 v 0 c -1.734691,1.537428 -0.850876,0.76383 -2.652226,2.319899 -1.091647,0.899457 -1.708409,1.432626 -2.844215,2.270064 -0.928103,0.684298 -1.561187,1.130645 -2.571864,1.641349 -0.800687,0.404595 -1.040656,0.448363 -1.839973,0.698504 -0.299591,0.02465 -0.732846,0.08459 -1.048335,0.03423 -0.301821,-0.04818 -0.540395,-0.242423 -0.729326,-0.469855 -0.05071,-0.06105 -0.09157,-0.129645 -0.137354,-0.194468 -0.03107,-0.06247 -0.06488,-0.123642 -0.0932,-0.187404 -0.06243,-0.140573 -0.09841,-0.293838 -0.113636,-0.446549 0,-0.622254 -0.879998,-0.622254 -0.879998,0 z" />
</svg>
