<?xml version="1.0" encoding="UTF-8" standalone="no"?>
<svg
   id="svg3224"
   version="1.1"
   viewBox="0 0 73.804496 56.42141"
   height="56.42141mm"
   width="73.804497mm"
   sodipodi:docname="43 jan li pilin pona. jan li pilin+pona..svg"
   inkscape:version="1.3 (0e150ed6c4, 2023-07-21)"
   xmlns:inkscape="http://www.inkscape.org/namespaces/inkscape"
   xmlns:sodipodi="http://sodipodi.sourceforge.net/DTD/sodipodi-0.dtd"
   xmlns="http://www.w3.org/2000/svg"
   xmlns:svg="http://www.w3.org/2000/svg"
   xmlns:rdf="http://www.w3.org/1999/02/22-rdf-syntax-ns#"
   xmlns:cc="http://creativecommons.org/ns#"
   xmlns:dc="http://purl.org/dc/elements/1.1/">
  <sodipodi:namedview
     id="namedview1"
     pagecolor="#ffffff"
     bordercolor="#000000"
     borderopacity="0.25"
     inkscape:showpageshadow="2"
     inkscape:pageopacity="0.0"
     inkscape:pagecheckerboard="0"
     inkscape:deskcolor="#d1d1d1"
     inkscape:document-units="mm"
     inkscape:zoom="1.387711"
     inkscape:cx="239.60321"
     inkscape:cy="-3.9633614"
     inkscape:window-width="1920"
     inkscape:window-height="1051"
     inkscape:window-x="-9"
     inkscape:window-y="-9"
     inkscape:window-maximized="1"
     inkscape:current-layer="svg3224" />
  <defs
     id="defs3218" />
  <metadata
     id="metadata3221">
    <rdf:RDF>
      <cc:Work
         rdf:about="">
        <dc:format>image/svg+xml</dc:format>
        <dc:type
           rdf:resource="http://purl.org/dc/dcmitype/StillImage" />
        <dc:title />
      </cc:Work>
    </rdf:RDF>
  </metadata>
  <g
     transform="translate(-122.32688,-110.32291)"
     id="layer1">
    <g
       transform="matrix(0.26458333,0,0,0.26458333,115.11163,106.13456)"
       id="g4211">
      <path
         style="fill:#262626"
         d="m 104.1,132.1 c 1.6,2 8.4,11.9 9.8,13.9 2.2,3.1 2.8,6.3 0.5,9 -2.2,2.7 -5.4,2.9 -8.1,1.3 -2.7,-1.6 -7.5,-9.7 -7.5,-9.7 z"
         id="path4171" />
      <path
         style="fill:#ffffff"
         d="m 104.6,136.6 c 2.1,2.6 6.9,10.1 8.5,12.6 1.3,2 1.7,5.2 -1.7,6.9 -3.4,1.7 -6.7,-1 -8.2,-3.3 -1.6,-2.2 -6.5,-9.8 -6.5,-9.8 z"
         id="path4173" />
      <path
         style="opacity:0.2"
         d="m 111,196.3 c 12.6,6.9 18.6,17 7.9,25.4 -10.7,8.4 -28.3,10.2 -42.4,2.4 -14.1,-7.8 -5.8,-16.2 3.7,-22.3 9.5,-6.1 19.3,-11.8 30.8,-5.5 z"
         id="path4175" />
      <path
         style="fill:#06547a"
         d="m 40.1,124.3 c -0.5,5.2 -2,11.3 0.5,20.7 2.5,9.4 4.8,21 7.7,23.7 2.6,2.5 7.6,3.3 13,0.9 5.4,-2.4 13.7,-6.7 17.7,-7.1 4,-0.4 18.6,-4.8 18.6,-4.8 0,0 -3.8,-16.2 -6.9,-16.1 -3.1,0.1 -28,7.7 -28,7.7 l -4.1,-22 z"
         id="path4177" />
      <path
         style="opacity:0.2"
         d="m 40.1,124.3 c -0.5,5.2 -2,11.3 0.5,20.7 2.5,9.4 4.8,21 7.7,23.7 2.6,2.5 7.6,3.3 13,0.9 5.4,-2.4 13.7,-6.7 17.7,-7.1 4,-0.4 18.6,-4.8 18.6,-4.8 0,0 -3.8,-16.2 -6.9,-16.1 -3.1,0.1 -28,7.7 -28,7.7 l -4.1,-22 z"
         id="path4179" />
      <path
         style="fill:#06547a"
         d="m 50.5,131 c 0,0 3.1,15.1 5.1,17.4 2,2.3 7.1,2.6 7.6,4.3 0.5,1.7 12.9,22.7 16.2,25.1 4.2,3.1 12.4,3 14.8,-1.4 2.2,-4.2 2.9,-14.3 5.6,-19.8 2.7,-5.5 5.6,-7.6 7.2,-9.6 2.6,-3.3 1,-17.5 -6.2,-18.7 -7.2,-1.2 -8.2,5.2 -9.9,8.2 -1.7,3 -4.7,8.9 -4.7,8.9 0,0 -5.5,-13.1 -7.5,-17.9 -2,-4.8 -4.7,-8.9 -4.7,-8.9 z"
         id="path4181" />
      <path
         style="fill:#fbd7c7"
         d="m 41.2,25.6 c 0.8,0 6.4,0.8 8.5,-0.7 1.2,-0.8 1.5,-2.9 1.5,-3.9 0.1,-1 -0.5,-4.3 -2.4,-4.9 -1.8,-0.6 -6,-0.2 -8,1.2 -1.6,1.1 -2,2 -3.3,3.4 -1.3,1.3 -2.5,2.4 -3.3,4.2 -1.3,2.6 -3.2,10.4 -5.7,14.1 -2.6,3.9 -0.6,6.7 1.6,9.4 2.2,2.7 11.2,11.1 11.6,12.2 0.4,1.1 16.2,-1.6 14.5,-4.8 -1.6,-3.2 -6,-4.6 -8.1,-5.2 -2.1,-0.6 -2.9,-1 -4,-2.5 -0.7,-0.9 -1.8,-2.5 -3.7,-3.8 -2.1,-1.3 -2.9,-2 -2.9,-2 0,0 2.7,-4.5 3,-8.8 0.4,-4.3 0.7,-7.9 0.7,-7.9 z"
         id="path4183" />
      <path
         style="fill:#e5e5e5"
         d="m 60.2,58.7 c 0,0 -2.6,-3.3 -5.3,-5 -2.7,-1.7 -5,-2.5 -5,-2.5 0,0 -2,1.5 -4.2,3.9 -2.2,2.4 -4.3,5.4 -4.3,5.4 0,0 -3.4,6.5 -2.9,15.7 0.5,9.2 3.6,23 2.9,28.3 -0.7,5.3 -1.8,18.4 -1.8,20.6 -0.1,2.2 5.8,8.3 15.3,8.1 9.4,-0.2 22.1,-4.4 22.3,-9.2 0.2,-4.8 -2.5,-4.8 -2.7,-9.4 -0.3,-4.6 1,-20.4 7.9,-29.3 5,-6.5 4.3,-7.2 8.1,-9.4 C 94.2,73.7 90.4,62.5 86.7,62.2 83,61.9 75.1,61.7 71.4,62.2 67.8,62.7 60.2,58.7 60.2,58.7 Z"
         id="path4185" />
      <path
         style="fill:#fbd7c7"
         d="m 99,60.7 c 0,0 -1.2,-3.2 -1.9,-9.2 C 96.4,45.6 96.6,43.3 95,41.8 93.4,40.3 90.7,40.4 90.2,39.2 89.7,38 88,37.5 87.3,36.1 86.5,34.6 86.6,32.7 88,31.8 c 1.4,-0.9 4.5,-2.3 5.8,-1.6 1.3,0.6 1.8,1.3 2.6,2.1 1,1.1 1.8,3 3.4,5.7 1.6,2.7 7.8,16.7 9.4,20.2 1.6,3.5 2.8,7.3 0,10.4 -2.8,3.1 -7.3,2 -11,3.3 -3.7,1.4 -7.2,4.2 -8.8,4.2 -1.6,0 -6.5,-1.7 -6.9,-8.1 -0.4,-6.4 4.6,-5.6 5.6,-5.5 1,0.1 1.4,0.2 3.8,-0.9 2.4,-1.1 7.1,-0.9 7.1,-0.9 z"
         id="path4187" />
      <path
         style="fill:#fbd7c7"
         d="m 71.1,59.4 c 0.5,-0.8 3.8,-3.9 5.3,-4.3 1.5,-0.3 3,-0.5 4.4,-1.9 1.7,-1.7 0.7,-2.9 0.7,-2.9 0,0 3.3,-3.5 2.2,-9.2 -1.1,-5.9 -10.2,-11.6 -17.4,-6.3 -2.8,2.1 -9.5,12.7 -9,15.1 0.5,2.3 1.6,2.8 0.9,4.1 -0.7,1.3 -1.4,5 -2,5.4 -0.5,0.3 -7,6.2 1,9.8 8.6,3.8 12.2,-2.7 13.8,-4.2 2.1,-2 3.1,-2.7 3.1,-2.7 0,0 -4.6,-0.2 -3,-2.9 z"
         id="path4189" />
      <path
         style="fill:#825012"
         d="M 83.7,41.1 C 82.9,36.9 78,32.7 72.6,32.7 c 0.4,0.6 1.1,1.4 1.8,2.1 2.7,2.3 4.2,1.1 5.2,4.2 1,3.1 -3.5,10.2 -3.5,10.2 l 1.2,0.8 c 0,0 2.9,-1.5 4.2,0.3 0,0 0,0 0,0 0.4,-0.5 3.2,-3.9 2.2,-9.2 z"
         id="path4191" />
    </g>
  </g>
  <path
     style="fill:#000000;fill-opacity:1;fill-rule:nonzero;stroke:none;stroke-width:0.264583"
     d="M 60.960449,29.978903 C 59.909746,29.293849 58.848886,28.624798 57.787375,27.956649 56.71681,27.28474 55.648547,26.6091 54.570687,25.948896 53.640696,25.375591 52.715363,24.792662 51.835385,24.144005 51.034931,23.55441 50.245623,22.949018 49.506208,22.283259 c -0.622573,-0.560807 -1.257612,-1.132902 -1.651185,-1.886045 -0.04449,-0.09473 -0.09527,-0.186765 -0.133483,-0.284202 -0.129608,-0.330471 -0.199263,-0.736769 -0.179027,-1.092175 0.0046,-0.08137 0.02098,-0.161656 0.03146,-0.242484 0.0185,-0.07645 0.03234,-0.154177 0.05551,-0.229339 0.115097,-0.373247 0.342276,-0.701083 0.648552,-0.941703 0.06417,-0.04301 0.126185,-0.08941 0.1925,-0.129023 0.362808,-0.216712 0.680149,-0.271137 1.097148,-0.207845 0.2306,0.04444 0.301742,0.04709 0.524553,0.136503 0.418144,0.167791 0.790429,0.433734 1.142314,0.709909 0.08925,0.07815 0.181417,0.153098 0.267759,0.234454 0.429773,0.404962 0.777843,0.884201 0.989343,1.438104 0.130402,0.387886 0.277355,0.804616 0.251359,1.22175 -0.01259,0.202162 -0.06003,0.321468 -0.117223,0.51315 -0.03479,0.07867 -0.0634,0.160366 -0.104365,0.235997 -0.222039,0.40991 -0.57417,0.769833 -0.925603,1.069812 -0.294214,0.225108 -0.597257,0.452996 -0.950468,0.577035 -0.582633,0.218488 -0.273645,1.042458 0.308989,0.82397 h 6e-6 c 0.434903,-0.152474 0.811077,-0.425094 1.174673,-0.700931 0.356611,-0.289357 0.67637,-0.62415 0.941176,-0.999864 0.06702,-0.0951 0.133834,-0.190854 0.190412,-0.292513 0.06179,-0.111026 0.109276,-0.229428 0.163915,-0.344143 0.09052,-0.279 0.158099,-0.434709 0.185216,-0.730227 0.03882,-0.422999 -0.03701,-0.846876 -0.15199,-1.252274 -0.03818,-0.134616 -0.08724,-0.265906 -0.130857,-0.398859 -0.254516,-0.680684 -0.671944,-1.276231 -1.195814,-1.776681 -0.101338,-0.09681 -0.209738,-0.18594 -0.314605,-0.27891 -0.413245,-0.329315 -0.853268,-0.640685 -1.344689,-0.843723 -0.320741,-0.132519 -0.392811,-0.132638 -0.726671,-0.204487 -0.462819,-0.08097 -0.924903,-0.04513 -1.361847,0.132724 -0.263917,0.107426 -0.350237,0.177779 -0.586504,0.329343 -0.458161,0.342531 -0.803506,0.81146 -0.985825,1.355363 -0.03654,0.108997 -0.05947,0.222091 -0.0892,0.333136 -0.01685,0.11292 -0.04163,0.22494 -0.05058,0.338759 -0.03857,0.490114 0.03697,1.012443 0.208926,1.472734 0.04996,0.13372 0.116033,0.26085 0.174048,0.391274 0.43702,0.86934 1.150903,1.532602 1.862825,2.174995 0.760852,0.685261 1.5728,1.308772 2.396493,1.915664 0.899366,0.663136 1.844886,1.259412 2.795431,1.845473 1.075857,0.658973 2.142125,1.333369 3.2107,2.004029 1.057191,0.665477 2.113812,1.331732 3.160242,2.014044 z"
     id="path3"
     sodipodi:nodetypes="ccccccsccccscscscsccccsscsscsscscscscsccsccccccc" />
  <path
     style="fill:#ff4400;fill-opacity:1;fill-rule:nonzero;stroke:none;stroke-width:0.264583"
     d="m 60.479822,30.716053 c 0.99985,0.656972 1.982324,1.339912 2.959796,2.029586 0.866894,0.615899 1.729962,1.237049 2.599528,1.849183 0.680498,0.489538 1.372651,0.962322 2.066123,1.433158 0.508868,0.342911 1.022671,0.678529 1.538095,1.011489 0.355079,0.233021 0.708723,0.46827 1.065569,0.698585 0.250622,0.165248 0.506879,0.321543 0.758582,0.485076 0.191196,0.124749 0.384649,0.246237 0.573577,0.374394 0.139655,0.0947 0.278212,0.191002 0.411358,0.294722 0.125524,0.09525 0.245716,0.196019 0.377397,0.282881 0.08728,0.05701 0.178996,0.106628 0.265086,0.165413 0.517085,0.346151 1.00662,-0.385117 0.489534,-0.731272 v 0 c -0.0909,-0.06016 -0.184359,-0.115731 -0.276952,-0.173217 -0.112639,-0.06943 -0.206936,-0.163886 -0.315622,-0.239075 -0.148664,-0.114996 -0.302162,-0.223382 -0.457954,-0.328493 -0.193754,-0.13062 -0.390969,-0.256098 -0.586996,-0.383289 -0.252468,-0.164023 -0.509424,-0.3209 -0.76086,-0.486553 C 70.829303,36.768443 70.475857,36.533102 70.120807,36.30025 69.610992,35.971034 69.102921,35.638977 68.599583,35.299934 67.910213,34.831881 67.222141,34.36192 66.545699,33.875238 65.67638,33.263285 64.813597,32.642279 63.946936,32.026597 62.96067,31.33074 61.969329,30.641712 60.960449,29.978903 Z"
     id="path1"
     sodipodi:nodetypes="cccccccccccssccccccccccc" />
  <path
     style="fill:#ff4400;fill-opacity:1;fill-rule:nonzero;stroke:none;stroke-width:0.264583"
     id="path2"
     d="m 73.498664,38.558667 c -0.120563,-0.05651 -0.237307,-0.121036 -0.354568,-0.18405 -0.390967,-0.202943 -0.800121,-0.367789 -1.205537,-0.539093 -0.505785,-0.210678 -1.006787,-0.432491 -1.510564,-0.647854 -0.755711,-0.327012 -1.544754,-0.565661 -2.336419,-0.78745 -0.853594,-0.229987 -1.720075,-0.407189 -2.590274,-0.560769 -0.731409,-0.120962 -1.469014,-0.20471 -2.209908,-0.235894 -0.147939,-0.0062 -0.296029,-0.008 -0.444045,-0.01201 -0.580237,-0.0047 -1.160407,0.03098 -1.735611,0.107209 -0.131961,0.01749 -0.263912,0.03566 -0.394954,0.05905 -0.128524,0.02294 -0.255622,0.05328 -0.383432,0.07991 -0.454432,0.126836 -0.898525,0.300646 -1.298297,0.554302 -0.232632,0.147606 -0.273921,0.195585 -0.478602,0.371594 -0.214993,0.207738 -0.373047,0.455533 -0.477563,0.735132 -0.03164,0.08464 -0.06174,0.170746 -0.07788,0.259651 -0.04985,0.274566 -0.02479,0.347245 0.0013,0.616246 0.07518,0.388422 0.245708,0.742374 0.497491,1.047147 0.161256,0.195191 0.240699,0.253423 0.428403,0.421037 0.413551,0.323599 0.888772,0.559882 1.393018,0.705466 0.102814,0.02968 0.207713,0.05161 0.311568,0.07742 0.45688,0.09679 0.92774,0.105997 1.389713,0.03979 0.332145,-0.0476 0.43121,-0.08496 0.756677,-0.172551 0.524975,-0.167455 1.029123,-0.401238 1.495856,-0.694579 0.309732,-0.194667 0.417965,-0.287663 0.707946,-0.508995 0.458874,-0.383693 0.891243,-0.802055 1.279892,-1.257242 0.235924,-0.276312 0.356156,-0.443243 0.57522,-0.73185 0.588029,-0.789276 1.078114,-1.644277 1.566895,-2.496712 0.325429,-0.570195 0.644416,-1.144026 0.965636,-1.716593 0.304456,-0.542684 -0.463018,-0.973248 -0.767471,-0.430564 v 0 c -0.319879,0.57018 -0.637538,1.141616 -0.961586,1.709446 -0.470033,0.819852 -0.940179,1.642915 -1.504691,2.402735 -0.197472,0.260733 -0.317987,0.427561 -0.529508,0.676417 -0.352155,0.414311 -0.744529,0.794838 -1.159423,1.145694 -0.245215,0.188484 -0.355348,0.282056 -0.615799,0.447236 -0.400804,0.254195 -0.833652,0.458459 -1.284544,0.606022 -0.265134,0.07349 -0.347181,0.104887 -0.616326,0.146275 -0.361463,0.05559 -0.731017,0.05391 -1.089699,-0.01939 -0.08231,-0.01966 -0.165444,-0.03616 -0.246931,-0.05899 -0.39017,-0.109323 -0.760185,-0.28576 -1.084484,-0.529116 -0.05483,-0.04749 -0.111774,-0.09265 -0.164484,-0.142481 -0.230677,-0.218083 -0.391914,-0.458438 -0.469397,-0.768435 -0.0096,-0.06075 -0.03796,-0.202954 -0.0292,-0.271364 0.0068,-0.05325 0.02431,-0.10472 0.04097,-0.15576 0.0516,-0.158256 0.129206,-0.298818 0.246874,-0.417915 0.13724,-0.122137 0.180422,-0.169601 0.338267,-0.271576 0.320374,-0.206979 0.676871,-0.348967 1.041377,-0.456343 0.110953,-0.0236 0.221223,-0.05069 0.332861,-0.07081 0.12165,-0.02193 0.244171,-0.03887 0.366686,-0.05528 0.533474,-0.07143 1.0716,-0.105134 1.609842,-0.101544 0.139097,0.0036 0.278265,0.0051 0.41729,0.0109 0.706477,0.02932 1.409798,0.108807 2.10725,0.223954 0.84182,0.148307 1.680004,0.319659 2.505856,0.541557 0.754745,0.211129 1.507307,0.437623 2.227773,0.74921 0.50492,0.215799 1.007012,0.438174 1.51394,0.649287 0.380228,0.160653 0.764125,0.314854 1.131536,0.503674 0.14002,0.07522 0.279485,0.15225 0.424426,0.217705 0.571942,0.245118 0.918591,-0.563729 0.346649,-0.808847 z" />
  <path
     style="fill:#000000;fill-opacity:1;fill-rule:nonzero;stroke:none;stroke-width:0.264583"
     id="path4"
     d="m 49.281132,17.264466 c 0.0016,0.157317 -0.0063,0.314745 -0.0032,0.472041 0.0019,0.09846 0.0074,0.196822 0.01103,0.295234 0.01498,0.12234 0.01521,0.247407 0.04495,0.367021 0.08878,0.357121 0.232156,0.673211 0.475748,0.955613 0.340399,0.394636 0.75607,0.666908 1.219054,0.899362 0.286666,0.143928 0.591003,0.249576 0.886503,0.374364 0.865293,0.291431 1.11389,0.392429 2.00775,0.622202 1.165286,0.299545 2.352136,0.507544 3.541448,0.683992 0.40037,0.0594 0.802019,0.109855 1.203029,0.164782 1.690404,0.219766 3.390143,0.351851 5.089948,0.471981 0.620707,0.04386 0.682734,-0.833952 0.06203,-0.877811 v 0 c -1.680646,-0.118735 -3.361248,-0.249043 -5.032634,-0.46604 -0.394608,-0.05398 -0.789834,-0.103598 -1.18382,-0.161937 -1.154877,-0.171005 -2.307817,-0.371705 -3.439599,-0.661494 -0.845992,-0.216613 -1.094179,-0.315332 -1.909286,-0.587814 -0.568603,-0.233984 -0.854094,-0.312281 -1.345404,-0.644795 -0.258191,-0.174741 -0.4333,-0.34308 -0.586769,-0.608432 -0.04974,-0.086 -0.08896,-0.179072 -0.11502,-0.274936 -0.02558,-0.09418 -0.02572,-0.193493 -0.03859,-0.290239 -0.0035,-0.08515 -0.0087,-0.170241 -0.01037,-0.255441 -0.0032,-0.159162 0.0051,-0.318468 0.0033,-0.477653 0,-0.622254 -0.879999,-0.622254 -0.879999,0 z" />
</svg>
