<?xml version="1.0" encoding="UTF-8" standalone="no"?>
<svg
   width="169.45921mm"
   height="84.564842mm"
   viewBox="0 0 169.45921 84.56484"
   version="1.1"
   id="svg3748"
   sodipodi:docname="46 mije li pilin e ni, meli li lon lupa..svg"
   inkscape:version="1.3 (0e150ed6c4, 2023-07-21)"
   xmlns:inkscape="http://www.inkscape.org/namespaces/inkscape"
   xmlns:sodipodi="http://sodipodi.sourceforge.net/DTD/sodipodi-0.dtd"
   xmlns="http://www.w3.org/2000/svg"
   xmlns:svg="http://www.w3.org/2000/svg"
   xmlns:rdf="http://www.w3.org/1999/02/22-rdf-syntax-ns#"
   xmlns:cc="http://creativecommons.org/ns#"
   xmlns:dc="http://purl.org/dc/elements/1.1/">
  <sodipodi:namedview
     id="namedview1"
     pagecolor="#ffffff"
     bordercolor="#000000"
     borderopacity="0.25"
     inkscape:showpageshadow="2"
     inkscape:pageopacity="0.0"
     inkscape:pagecheckerboard="0"
     inkscape:deskcolor="#d1d1d1"
     inkscape:document-units="mm"
     inkscape:zoom="1.3093872"
     inkscape:cx="344.05406"
     inkscape:cy="179.85512"
     inkscape:window-width="1920"
     inkscape:window-height="1051"
     inkscape:window-x="-9"
     inkscape:window-y="-9"
     inkscape:window-maximized="1"
     inkscape:current-layer="svg3748" />
  <defs
     id="defs3742" />
  <metadata
     id="metadata3745">
    <rdf:RDF>
      <cc:Work
         rdf:about="">
        <dc:format>image/svg+xml</dc:format>
        <dc:type
           rdf:resource="http://purl.org/dc/dcmitype/StillImage" />
        <dc:title />
      </cc:Work>
    </rdf:RDF>
  </metadata>
  <g
     id="g4380"
     transform="matrix(0.26458333,0,0,0.26458333,-3.3178904,23.525926)">
    <path
       id="path4342"
       d="m 13.4,105 c 0,0 1,9.1 1.3,12.3 0.3,3.2 1.3,5.5 2.1,7.3 0.8,1.8 4.5,6.2 5,5.9 0.5,-0.3 -0.3,-2.1 -0.3,-2.5 0,-0.4 0.4,-1.7 -0.2,-2.5 -0.6,-0.7 -1.7,-4 -1.6,-4.7 0.1,-0.7 1.4,-0.9 1.5,-1.4 0.1,-0.5 0.1,-0.5 0.1,-0.5 0,0 -3.6,-6 -3.6,-8.6 0,-2.7 -0.1,-6.1 -0.1,-6.1 0,0 -0.6,-0.3 -2,0 -1.4,0.2 -2.2,0.8 -2.2,0.8 z"
       style="fill:#fbd7c7" />
    <path
       id="path4344"
       d="m 28.1,216.9 c 0.6,1.8 -6.7,11.8 7.1,13.5 20.6,2.7 21.6,-13.7 29.3,-18.2 13.9,-8.1 -3.1,-14.1 -22.5,-14.1 -16.3,0.1 -30.5,1.9 -29.4,10.1 0.7,6.1 14.6,5.6 15.5,8.7 z"
       style="opacity:0.3;fill:#262626" />
    <path
       id="path4346"
       d="m 34,200.2 c 0,0 -1.6,1.2 -5.5,1.1 -3.9,-0.1 -7.3,-0.8 -11.4,1.5 -4.8,2.7 -1.2,7 0.1,7.4 1.3,0.4 18.1,0.9 21.2,0.7 3.1,-0.2 2.1,-8.2 2.1,-8.2 z"
       style="fill:#762c07" />
    <path
       id="path4348"
       d="m 39.4,209.1 c -1.5,0.1 -9,0.6 -13.5,0.5 -5,-0.1 -6.4,-0.5 -7.8,-1 -1.7,-0.6 -3.2,-1.4 -3.3,-3.1 -0.5,2.2 0.9,4.1 2.5,4.6 1.5,0.5 3.3,0.9 8.6,1.1 4.2,0.1 11.3,-0.3 12.6,-0.4 0.8,-0.1 1.4,-0.7 1.7,-1.6 -0.4,0.3 -0.5,-0.1 -0.8,-0.1 z"
       style="fill:#262626" />
    <path
       id="path4350"
       d="m 39.7,211 c 0,0 -3.9,4.4 -6.6,7.6 -2.7,3.2 -3.8,5.6 -3.6,7.9 0.2,2.3 3.5,3.4 8,3.4 4.5,0 9.3,-2.8 11.5,-5.9 2.3,-3.1 5.6,-5.9 5.6,-7.4 0,-1.5 -0.1,-6.2 -0.1,-6.2 z"
       style="fill:#762c07" />
    <path
       id="path4352"
       d="m 54.6,210.4 h -0.5 c 0,1.5 0.1,3.3 0.1,4.1 0,1.5 -3.4,4.3 -5.6,7.4 -2.3,3.1 -7,5.9 -11.5,5.9 -3.5,0 -6.3,-0.6 -7.4,-2 0,0.2 0,0.4 0,0.6 0.1,2.3 3.5,3.4 8,3.4 4.6,0 9.3,-2.8 11.5,-5.9 2.3,-3.1 5.6,-5.9 5.6,-7.4 -0.1,-1.4 -0.2,-6.1 -0.2,-6.1 z"
       style="fill:#262626" />
    <path
       id="path4354"
       d="m 19.7,114.3 c 0,0 -0.5,13 1.6,23.9 2.1,10.9 9.5,26.4 9.5,31.1 0,4.7 2.3,19 2.1,22.8 -0.1,3.8 -0.9,8.6 -0.9,8.6 0,0 2.7,5 6.2,6.7 3.5,1.7 7.2,-0.4 7.2,-0.4 L 39,116.5 Z"
       style="fill:#3399cc" />
    <path
       id="path4356"
       d="m 19.7,114.3 c 0,0 -0.5,13 1.6,23.9 2.1,10.9 9.5,26.4 9.5,31.1 0,4.7 2.3,19 2.1,22.8 -0.1,3.8 -0.9,8.6 -0.9,8.6 0,0 2.7,5 6.2,6.7 3.5,1.7 7.2,-0.4 7.2,-0.4 L 39,116.5 Z"
       style="opacity:0.2" />
    <path
       id="path4358"
       d="m 31.1,119.4 c 0,0 0.3,14.3 -0.3,25.6 -0.5,11.3 2.3,21.7 3.4,25.3 1.1,3.6 1.5,9.7 1.5,15.2 0,5.5 0.2,26.2 1,27 0.8,0.8 5.2,3.6 10.9,4 4.3,0.3 9,-2.4 9,-3.1 0,-0.7 1.5,-16.4 0.3,-29.1 -1.2,-12.7 -3.8,-19.3 -3.6,-21.3 0.1,-2 3.1,-29.1 2.8,-34.7 -0.3,-5.6 -2,-18.4 -2,-18.4 z"
       style="fill:#3399cc" />
    <path
       id="path4360"
       d="m 17.9,69.4 c 0,0 -2.2,7.4 -3.6,17.6 -1.5,10.7 -0.7,25.3 -0.7,25.3 0,0 2.1,-1.6 6.2,-1.6 4.1,0 -1.9,-41.3 -1.9,-41.3 z"
       style="fill:#ffcc00" />
    <path
       id="path4362"
       d="m 17.9,69.4 c 0,0 -2.2,7.4 -3.6,17.6 -1.5,10.7 -0.7,25.3 -0.7,25.3 0,0 2.1,-1.6 6.2,-1.6 4.1,0 -1.9,-41.3 -1.9,-41.3 z"
       style="opacity:0.2" />
    <path
       id="path4364"
       d="m 51.5,127 c 0,0 -0.4,2.9 -2.3,5.1 -1.9,2.1 -3.5,5.8 -3.5,7.3 0,2.1 0,3.9 0.9,4 1.8,0.2 1.1,-1.3 1.7,-1.3 0.6,0 0.3,2.6 3,2.7 3.5,0.1 8.5,-2.3 8.5,-4.6 0,-1.2 -0.5,-4.4 -0.9,-6.2 -0.5,-1.9 -0.5,-4.5 -0.5,-4.5 z"
       style="fill:#fbd7c7" />
    <path
       id="path4366"
       d="m 38.8,44 c 9.5,2.5 20.1,4.6 23.7,12.3 3.1,6.6 2.9,8.7 2.7,14.9 -0.3,6.2 -0.8,18.5 -0.5,22.5 0.3,4 -1.1,20.8 -2.3,26.4 -1.2,5.6 -1.6,10.3 -2.5,10.6 -0.9,0.3 -10.2,-0.9 -9.5,-2.3 0.9,-2 1.2,-7.6 1.2,-7.6 0,0 -4.4,5.4 -14.2,4 -9.8,-1.3 -18.2,-6.1 -19.1,-8.6 -0.4,-1.2 -0.6,-19.8 0.3,-24.8 0.9,-5 -2,-15.7 -2.1,-20.4 -0.1,-4.7 2.9,-17.4 3.1,-19.7 0.1,-3.4 4.2,-11.2 19.2,-7.3 z"
       style="fill:#ffcc00" />
    <path
       id="path4368"
       d="m 51.5,120.9 c 0,0 0.7,-5.2 0.7,-9.8 0,-4.6 0.1,-11.3 -0.4,-13.9 C 51.3,94.5 49.6,85 49.3,82.5 48.6,76.4 49,72.7 49.5,71.4 c -2.4,4.1 -1,19 -0.3,25.2 0.9,8.7 -0.3,25.8 -0.6,26.6 -0.3,0.7 2.9,-2.3 2.9,-2.3 z"
       style="opacity:0.2" />
    <path
       id="path4370"
       d="m 42.5,38.2 c 0,0 0,5.2 0.9,6.1 0.9,0.9 3,1.3 2.3,2.6 -0.7,1.3 -8.1,9.7 -13.5,9.2 -5.3,-0.5 -4,-9.4 -4,-9.4 z"
       style="fill:#fbd7c7" />
    <path
       id="path4372"
       d="m 22.8,26.5 c -2.2,2.8 -1.3,11 -0.3,14.7 1,3.7 2.2,5.9 2.7,7.3 0.4,1.4 1.9,3.6 3.9,3.5 2,-0.1 8.2,-4.1 10.1,-7.1 C 41,41.9 43.6,39 44,37 44.4,35 44.6,34.1 42.9,33.7 41.2,33.3 37.6,25.9 33,25.6 28.4,25.3 24.1,24.8 22.8,26.5 Z"
       style="fill:#fbd7c7" />
    <path
       id="path4374"
       d="m 21.5,28.4 c -0.4,1.6 0.8,3.3 5.5,3.3 4.7,0 7.6,-2.3 8.1,-0.8 0.5,1.5 1.8,5.7 2.2,6.6 0.4,0.9 1,2 1.3,1.6 0.3,-0.4 1.8,-3.9 2.9,-4.7 1.1,-0.8 1.7,-0.8 1.7,-0.8 0,0 1.6,-8.3 -2,-12.6 C 37.6,16.7 25,15.6 21.5,28.4 Z"
       style="fill:#825012" />
    <path
       id="path4376"
       d="m 25,46.6 c 0,0 0.7,-0.7 1.6,-0.8 0.4,0 1.3,0.1 1.9,0.2 0.8,0.2 2.7,1.1 2.7,1.1 0,0 -2.8,0 -3.7,-0.1 C 26.4,46.9 25,46.6 25,46.6 Z"
       style="fill:#825012" />
    <path
       id="path4378"
       d="m 26.8,49 1.2,0.1 c 0,0 -0.2,0.6 0.6,1.3 0.8,0.7 2.9,0.8 2.9,0.8 0,0 -1.7,1.3 -3.2,0.9 -1.5,-0.4 -2.3,-1.8 -2.3,-1.8 0,0 0.5,-0.1 0.6,-0.5 0.2,-0.4 0.2,-0.8 0.2,-0.8 z"
       style="fill:#825012" />
  </g>
  <path
     id="path943"
     d="m 26.055652,22.951288 c -1.443093,0.279967 -2.540445,1.145321 -2.991412,2.358513 -0.0952,0.263 -0.115247,0.407225 -0.115247,0.848386 0.005,0.632048 0.08017,0.912015 0.40587,1.463466 0.486042,0.83566 1.433072,1.505885 2.485327,1.751917 0.496064,0.114532 1.508233,0.101806 1.994275,-0.02545 1.127416,-0.301177 1.979242,-0.903531 2.480316,-1.768884 0.300644,-0.517516 0.395849,-0.920499 0.360773,-1.548305 -0.02004,-0.369048 -0.05512,-0.568418 -0.160343,-0.827176 -0.40587,-1.039273 -1.357911,-1.840998 -2.57051,-2.17611 -0.481031,-0.127258 -1.418039,-0.169677 -1.889049,-0.07635 z"
     style="fill:none;stroke:#000000;stroke-width:1.32292;stroke-miterlimit:4;stroke-dasharray:none;stroke-opacity:1" />
  <path
     id="path945"
     d="m 17.489629,26.9591 c -0.390838,0.114532 -0.831783,0.356322 -1.047245,0.576903 -0.240515,0.246032 -0.481031,0.695676 -0.54617,1.026547 -0.215462,1.081692 0.54116,2.074303 1.783823,2.345787 1.047245,0.229064 2.179672,-0.178161 2.7058,-0.975644 0.255547,-0.386016 0.335719,-0.682951 0.310666,-1.141079 -0.05011,-0.869596 -0.67144,-1.569514 -1.643523,-1.84524 -0.425913,-0.123016 -1.112384,-0.114532 -1.563351,0.01273 z"
     style="fill:none;stroke:#000000;stroke-width:1.32292;stroke-miterlimit:4;stroke-dasharray:none;stroke-opacity:1" />
  <path
     id="path947"
     d="m 11.260344,29.815892 c -0.771654,0.267242 -1.227632,0.903531 -1.092342,1.514369 0.105226,0.458129 0.47101,0.869596 0.972084,1.085934 0.210451,0.09332 0.325698,0.114532 0.656407,0.114532 0.481031,0.0042 0.766643,-0.09332 1.157481,-0.407225 0.385827,-0.309661 0.496063,-0.525999 0.496063,-0.98837 0,-0.33087 -0.02004,-0.411467 -0.13529,-0.59387 -0.07015,-0.118774 -0.250537,-0.309661 -0.400859,-0.428435 -0.481031,-0.386015 -1.08232,-0.496305 -1.653544,-0.296935 z"
     style="fill:none;stroke:#000000;stroke-width:1.32292;stroke-miterlimit:4;stroke-dasharray:none;stroke-opacity:1" />
  <path
     id="path941"
     d="m 57.911935,0.69832373 c -1.603437,0.125503 -3.79313,0.99969097 -5.386545,2.15517697 -2.380102,1.722411 -3.833217,3.981452 -4.163925,6.465531 l -0.06514,0.467388 h -0.350752 c -3.99356,0 -7.58626,2.1075733 -9.044385,5.2927343 -0.195419,0.428439 -0.375806,0.995363 -0.511096,1.601236 l -0.115247,0.510665 -0.496063,0.220711 c -0.952041,0.419783 -1.723695,0.92612 -2.550467,1.666151 -0.841804,0.757341 -1.377953,1.510354 -1.718684,2.410509 -0.455977,1.207418 -0.591267,2.652859 -0.350751,3.804017 0.190408,0.92612 0.751611,2.072952 1.362921,2.778361 0.415891,0.48037 1.463136,1.393508 1.979242,1.72241 1.768791,1.133849 3.597711,1.523339 6.173232,1.315611 0.756622,-0.06492 0.641374,-0.155796 0.937008,0.727047 1.403007,4.202163 5.261277,7.067077 10.29206,7.642657 1.072298,0.121174 2.901219,0.03895 4.008592,-0.18609 0.761633,-0.151469 1.944167,-0.536631 2.871154,-0.939103 0.265569,-0.112519 0.646386,-0.268316 0.841804,-0.346214 l 0.355763,-0.142812 0.596278,0.346212 c 1.583394,0.913138 2.795993,1.384854 4.529709,1.77867 1.21761,0.272644 1.853974,0.350542 3.407303,0.415457 1.818899,0.07789 4.274161,-0.29861 6.037942,-0.930448 1.874017,-0.670788 3.472443,-1.592581 4.885471,-2.812983 1.573373,-1.358886 2.710811,-2.903863 3.477454,-4.730137 0.33572,-0.804945 0.536149,-1.510355 0.806729,-2.869242 l 0.03006,-0.138485 1.137438,0.02164 c 0.886901,0.01731 1.272727,0.0087 1.76378,-0.0476 2.124555,-0.246677 3.943455,-1.017001 5.486755,-2.341266 2.73086,-2.328285 3.69292,-5.591344 2.55548,-8.625037 -0.22047,-0.575579 -0.76664,-1.544976 -1.17752,-2.072951 -1.39299,-1.800308 -3.70795,-3.202472 -6.063,-3.665532 -0.992123,-0.199073 -3.126698,-0.199073 -4.309233,-0.0043 l -0.175376,0.02596 -0.260558,-0.454405 c -0.576235,-0.99969 -1.212599,-1.752704 -2.149608,-2.5360113 -1.227631,-1.029984 -2.700789,-1.791654 -4.339301,-2.241731 -1.117395,-0.311592 -2.415176,-0.432766 -3.783108,-0.354868 -1.222621,0.06924 -1.763781,0.160123 -2.816036,0.454405 -0.380817,0.108191 -0.711525,0.194745 -0.736579,0.194745 -0.05512,0 -0.08017,-0.04328 -0.591267,-0.952087 -0.91195,-1.627244 -2.214742,-2.955836 -3.923405,-3.994476 -1.202577,-0.731375 -2.881175,-1.37619697 -4.078742,-1.57094197 -0.496063,-0.08223 -3.552615,-0.121175 -4.379387,-0.06059 z"
     style="fill:#99cc33;fill-opacity:1;stroke:#000000;stroke-width:1.33622;stroke-miterlimit:4;stroke-dasharray:none;stroke-opacity:1" />
  <g
     transform="translate(-11.238205,-10.728601)"
     id="g1084">
    <g
       transform="matrix(0.396875,0,0,0.396875,50.15542,18.740983)"
       id="g4340">
      <path
         style="opacity:1;fill:#baa794"
         d="m 64,0 -12,4 -4,4 -8,4 -8,8 h -8 l -8,4 -4,4 -12,4 12,4 4,4 8,4 8,8 h 8 l 8,4 4,4 12,4 12,-4 4,-4 8,-4 h 8 l 8,-8 8,-4 4,-4 12,-4 -12,-4 -4,-4 -8,-4 H 96 L 88,12 80,8 76,4 Z"
         id="path4293" />
      <path
         style="opacity:0.11"
         d="m 64,0 12,4 4,4 8,4 8,8 h 8 l 8,4 4,4 12,4 -12,4 -4,4 -8,4 -8,8 -8,-8 -8,-4 -4,-4 -12,-4 z"
         id="path4295" />
      <path
         style="opacity:0.29"
         d="m 64,0 v 32 l -12,4 -4,4 -8,4 -8,8 -8,-8 -8,-4 -4,-4 -12,-4 12,-4 4,-4 8,-4 h 8 l 8,-8 8,-4 4,-4 z"
         id="path4297" />
      <path
         style="opacity:0.1;fill:#ffffff"
         d="m 16,24 8,-4 v 24 l -8,-4 z"
         id="path4299" />
      <path
         style="opacity:0.1;fill:#ffffff"
         d="m 48,8 4,-4 v 32 l -4,4 z"
         id="path4301" />
      <path
         style="opacity:0.1"
         d="M 52,4 64,0 v 32 l -12,4 z"
         id="path4303" />
      <path
         style="opacity:0.15"
         d="m 40,12 -8,8 v 32 l 8,-8 z"
         id="path4305" />
      <path
         style="opacity:0.1"
         d="M 12,36 0,32 12,28 Z"
         id="path4307" />
      <path
         style="opacity:0.1;fill:#ffffff"
         d="m 112,24 -8,-4 v 24 l 8,-4 z"
         id="path4309" />
      <path
         style="opacity:0.1;fill:#ffffff"
         d="M 80,8 76,4 v 32 l 4,4 z"
         id="path4311" />
      <path
         style="opacity:0.1"
         d="M 76,4 64,0 v 32 l 12,4 z"
         id="path4313" />
      <path
         style="opacity:0.15"
         d="m 88,12 8,8 v 32 l -8,-8 z"
         id="path4315" />
      <path
         style="opacity:0.1"
         d="m 116,36 12,-4 -12,-4 z"
         id="path4317" />
    </g>
    <g
       id="g4594"
       transform="matrix(0.13229166,0,0,0.13229166,70.052087,15.936408)">
      <path
         id="path4551"
         d="m 65.1,234.6 c 15.7,-7.7 6,-16.3 -10.9,-21.1 -15,-4.3 -26.2,-22.2 -43.2,-11.4 -13.8,8.7 4.9,17.9 18.3,22.6 19.1,6.9 22.8,16.2 35.8,9.9 z"
         style="opacity:0.2" />
      <path
         id="path4553"
         d="m 16.3,216.7 c 2.8,1.1 5.8,-0.2 9,-2.6 3.2,-2.4 6.2,-4.1 6.1,-6.9 -0.1,-2.8 -2.3,-3.7 -7.4,-2 -5.1,1.7 -11.1,10.2 -7.7,11.5 z"
         style="fill:#262626" />
      <path
         id="path4555"
         d="m 16.9,215.9 c 2.6,1 9.8,-4.1 11.7,-5.8 1.9,-1.7 3.1,-2.8 2.5,-4.3 -0.6,-1.7 -2.5,-2.9 -8.5,-0.8 -6,2.1 -9.8,9.3 -5.7,10.9 z"
         style="fill:#ffffff" />
      <path
         id="path4557"
         d="m 29,123 c 0,0 -3.9,6.7 -4.3,16.4 -0.4,9.6 0.1,23 -0.9,26 -1,3 -7.1,13.5 -8.7,24.8 -1.6,11.3 -2.2,25.2 0.4,26.5 2.6,1.3 6.8,-1 8.2,-1.9 2.7,-1.8 3.8,-4.5 4.1,-6.6 0.3,-2.1 -1.9,-3.7 -0.8,-11 1,-7.3 5.3,-17.3 8,-23.7 2.7,-6.5 6.2,-20.1 7.4,-23.6 1.2,-3.5 3.2,-24.7 3.2,-24.7 z"
         style="fill:#cc291f" />
      <path
         id="path4559"
         d="m 29,123 c 0,0 -3.9,6.7 -4.3,16.4 -0.4,9.6 0.1,23 -0.9,26 -1,3 -7.1,13.5 -8.7,24.8 -1.6,11.3 -2.2,25.2 0.4,26.5 2.6,1.3 6.8,-1 8.2,-1.9 2.7,-1.8 3.8,-4.5 4.1,-6.6 0.3,-2.1 -1.9,-3.7 -0.8,-11 1,-7.3 5.3,-17.3 8,-23.7 2.7,-6.5 6.2,-20.1 7.4,-23.6 1.2,-3.5 3.2,-24.7 3.2,-24.7 z"
         style="opacity:0.2" />
      <path
         id="path4561"
         d="m 46.1,229.4 c -0.2,1.6 0.5,2 3.4,2 2.9,0 10.8,-1 13.1,-1.7 2.3,-0.7 3.4,-2.3 3.3,-4.4 0,-1.9 -18.7,-6 -19.8,4.1 z"
         style="fill:#262626" />
      <path
         id="path4563"
         d="m 46.6,229.6 c 2,1.1 7.6,-0.5 9.8,-0.5 2.2,0 5.8,-0.2 7.6,-1.2 1.8,-1 2.7,-2.8 0.9,-4.3 -1.8,-1.5 -9.3,-2.2 -12.1,-2.2 -2.8,0 -11.6,5 -6.2,8.2 z"
         style="fill:#ffffff" />
      <path
         id="path4565"
         d="m 58.2,126.5 c 0,0 5.2,6.9 4.3,20.6 -0.9,13.7 -5.3,30.1 -5.7,43.2 -0.4,13.1 2.6,31.5 2.5,32.7 -0.1,1.2 0,5.2 -7.1,6.4 -7.1,1.2 -7.3,0 -7.8,-0.4 -0.5,-0.4 0.8,-13.5 0.2,-22.3 -0.6,-8.8 -0.4,-21 0.4,-28.3 0.8,-7.3 -0.9,-19.2 -2.5,-24.9 -0.9,-3.1 -1.9,-9.4 -2.3,-9.9 -0.7,-0.8 -3.6,-2.7 -4.7,-6.2 -1.7,-5.3 -1,-10 2.6,-15.7 3.7,-5.7 20.1,4.8 20.1,4.8 z"
         style="fill:#cc291f" />
      <path
         id="path4567"
         d="m 30.7,71.5 c 0,0 -0.9,-6.6 -3.6,-13.9 C 24.4,50.3 22,46.5 22,44.8 22,43 20.4,32.6 19.6,28.4 c -0.9,-4.3 -0.9,-5.9 -0.4,-7.1 0.5,-1.2 1.9,-1.7 2.2,-3.5 0.3,-1.8 0.3,-3 0.7,-3.9 0.5,-0.8 0.8,-0.6 0.2,-1 -0.6,-0.4 -1.7,0.2 -2,1 -0.3,0.8 -0.3,2.3 -0.7,2.5 -0.5,0.1 -0.7,-1.4 -0.9,-3 -0.2,-1.6 0.7,-7 -0.2,-7.2 -1.1,-0.2 -1.1,2.7 -1.3,4.1 -0.2,1.1 -0.4,3.4 -0.4,3.4 0,0 -1,-2.2 -1.5,-4.1 C 14.8,7.7 14.6,5.7 13.7,6 c -0.9,0.2 0,3.3 0.3,4.5 0.3,1.2 0.7,3.6 0.7,3.6 0,0 -1.4,-2.8 -2.1,-4.3 C 12,8.3 11.6,7 10.8,7.3 c -0.7,0.3 0.5,2.9 1,4.2 0.5,1.3 1,3.3 1,3.3 0,0 -1,-1.3 -1.6,-2.6 -0.6,-1.3 -1,-3.1 -1.8,-2.8 -0.7,0.4 0.5,2.6 1,3.8 0.5,1.2 0.8,2.7 1.4,3.8 0.6,1.1 2.1,4.2 2.2,5.2 0.1,1 0.5,7.7 0.6,12.1 0.1,4.4 -0.3,10.6 0,11.7 0.3,1.1 2.8,6.7 3.9,13.2 1.1,6.5 1.2,12.6 2.3,15.7 1.2,3.2 9.9,-3.4 9.9,-3.4 z"
         style="fill:#fbd7c7" />
      <path
         id="path4569"
         d="m 30.2,67.2 c 0,0 -2.8,1.4 -5.4,2.1 -2.6,0.7 -5.2,0.7 -5.5,1.6 -0.3,0.8 3.6,14.4 5.5,19.9 1.8,5.5 7,19 6.9,22 -0.1,3 -2.1,6.2 -2.9,9 -0.8,2.8 -1.5,4.7 -1.5,4.7 0,0 6,0.5 11.6,0.9 5.6,0.4 11.3,-0.3 15.4,0.1 3.7,0.4 5.7,1.8 5.7,1.8 0,0 -2.1,-8 -2.5,-13.4 C 57.1,110.4 56.6,98 57,97.2 c 0.4,-0.8 3.1,-2.3 3,-6.1 -0.1,-3.8 -2.1,-3.5 -2.2,-4.6 -0.1,-1.1 0.5,-2.8 -0.8,-4 -2,-1.9 -5.7,-5 -9,-6.4 -3.4,-1.7 -17.8,-8.9 -17.8,-8.9 z"
         style="fill:#ffcc00" />
      <path
         id="path4571"
         d="m 44.6,45.6 c -5.8,-0.1 -11.3,0.7 -13.9,10 -1,3.4 -1.5,6.8 -2.9,9.9 -2.7,5.8 -6.8,9.2 -3.1,13.6 4.5,5.3 15.4,7.9 18.6,4.9 3.2,-3 3,-7.1 5,-7.7 2,-0.6 4.9,1.6 6,-0.5 1.1,-2.1 -0.4,-4.7 -0.5,-8.6 -0.2,-4 5.4,-21.4 -9.2,-21.6 z"
         style="fill:#825012" />
      <path
         id="path4573"
         d="m 47.1,78.4 c -0.1,1.7 0.3,3.2 2.6,5.4 2.3,2.2 4.5,5.9 5.4,5.6 0.9,-0.3 2.1,-3.3 3.1,-6.7 1,-3.4 2.7,-6.9 2.7,-10.1 0,-3.2 -0.2,-3.2 0.6,-6.3 0.8,-3.1 1.9,-6.5 2,-11.1 0.1,-4.6 0,-8.1 0,-8.1 0,0 2.1,-2.4 2.9,-4.4 0.7,-2 0.5,-2.3 0.8,-2.7 0.3,-0.4 2.7,-2.2 1.9,-3.3 -0.7,-1.1 -2.7,1.1 -2.7,1.1 0,0 0.5,-3.8 0.5,-5.3 0,-1.4 0.5,-4.3 -1,-4 -1.5,0.3 -0.4,2.9 -1.4,5.7 -1,2.8 -3.6,7.8 -4.2,9 -0.6,1.2 -0.2,3 -1.5,6.9 -1.3,3.9 -3.4,8.2 -4.1,12 -0.7,3.9 -0.6,6.7 -1.2,7.9 -1.7,3.8 -6.3,7.7 -6.4,8.4 z"
         style="fill:#fbd7c7" />
    </g>
    <path
       style="fill:#99cc33;fill-opacity:1;stroke-width:0.0977273"
       mask="none"
       clip-path="none"
       d="m 47.381519,31.763507 c 5.077558,7.119155 16.425423,11.916705 21.75394,16.196628 13.630934,0.05368 5.046291,0.03172 12.157355,-1e-6 5.590072,-6.004121 15.476859,-11.739003 21.619156,-16.520106 h -1.95958 l 0.003,10e-4 -4.762497,1.5875 -1.587501,1.5875 -3.175,1.5875 -3.175,3.175 h -3.175 l -3.174999,1.5875 -1.587501,1.5875 -4.762499,1.5875 -4.7625,-1.5875 -1.5875,-1.5875 -3.175,-1.5875 h -3.175 l -3.175,-3.175 -3.175,-1.5875 -1.5875,-1.5875 -4.7625,-1.5875 0.0031,-10e-4 z"
       id="rect4530-3" />
  </g>
  <path
     style="fill:#000000;fill-opacity:1;fill-rule:nonzero;stroke:none;stroke-width:0.264583"
     id="path1"
     d="m 146.65738,55.874758 c 0.29983,0.307291 0.61129,0.602941 0.92535,0.895676 0.65718,0.606125 1.29336,1.233831 1.91821,1.873042 0.66813,0.688797 1.31694,1.396163 1.95125,2.11614 0.35325,0.403379 0.70155,0.813394 1.00102,1.259139 0.17637,0.262509 0.23862,0.381764 0.3956,0.654859 0.14482,0.295999 0.28088,0.603948 0.33247,0.932429 0.0295,0.187959 0.0288,0.450787 0.0105,0.637217 -0.0116,0.117396 -0.0366,0.233071 -0.0549,0.349612 -0.16017,0.60028 -0.51934,1.100934 -0.96869,1.520856 -0.0896,0.08376 -0.18533,0.160699 -0.27799,0.241049 -0.42405,0.341387 -0.91889,0.572465 -1.45042,0.68777 -0.0972,0.02112 -0.19589,0.03432 -0.29383,0.05143 -0.45405,0.05966 -0.91545,0.01107 -1.34114,-0.162647 -0.0732,-0.02987 -0.14185,-0.06986 -0.21278,-0.104765 -0.24818,-0.152545 -0.46071,-0.362161 -0.56443,-0.640987 -0.0587,-0.157899 -0.0787,-0.388269 -0.10022,-0.547905 -0.0496,-0.768553 0.13021,-1.517375 0.34434,-2.248611 0.24561,-0.813805 0.65145,-1.560738 1.06789,-2.296776 0.4822,-0.820624 1.05328,-1.582383 1.62176,-2.343905 0.47221,-0.654572 0.95982,-1.296966 1.47586,-1.917545 0.43683,-0.513772 0.89174,-1.01179 1.33558,-1.51951 0.25333,-0.290963 0.12923,-0.147428 0.37238,-0.430525 0.40541,-0.47206 -0.26218,-1.0454 -0.66759,-0.573341 v 0 c -0.23887,0.278151 -0.11646,0.136547 -0.36735,0.424701 -0.44859,0.513219 -0.9086,1.01644 -1.34972,1.536119 -0.52568,0.632514 -1.0233,1.286556 -1.50434,1.953687 -0.59069,0.791283 -1.18297,1.583629 -1.68259,2.437167 -0.44942,0.795217 -0.88348,1.603942 -1.14666,2.483462 -0.0977,0.335881 -0.15019,0.494756 -0.22437,0.838355 -0.12651,0.58606 -0.19291,1.186311 -0.14569,1.785728 0.055,0.348453 0.0593,0.513982 0.1998,0.843261 0.18925,0.443449 0.54875,0.774906 0.95811,1.01167 0.10493,0.04852 0.20716,0.103398 0.31478,0.145565 0.56396,0.221226 1.17489,0.275049 1.77221,0.192887 0.12114,-0.02231 0.24331,-0.0396 0.36342,-0.06683 0.6621,-0.150322 1.27715,-0.44652 1.80382,-0.875557 0.10894,-0.09573 0.22176,-0.187133 0.32681,-0.287071 0.60187,-0.572677 1.00989,-1.196514 1.21156,-2.008788 0.055,-0.389548 0.0893,-0.502282 0.0732,-0.893778 -0.0232,-0.565457 -0.20902,-1.095829 -0.46926,-1.593764 -0.17853,-0.309073 -0.24002,-0.427775 -0.44125,-0.725929 -0.31738,-0.470269 -0.68413,-0.904386 -1.05757,-1.330448 -0.64445,-0.731304 -1.30344,-1.449947 -1.98226,-2.149541 -0.63446,-0.648939 -1.28035,-1.286274 -1.94755,-1.901694 -0.33338,-0.310522 -0.65736,-0.630802 -0.98517,-0.946618 -0.49127,-0.381903 -1.03136,0.312861 -0.54009,0.694764 z" />
  <path
     style="fill:#000000;fill-opacity:1;fill-rule:nonzero;stroke:none;stroke-width:0.264583"
     d="m 149.73021,35.421658 c 0.009,0.779431 0.0207,1.558832 0.0326,2.338225 0.009,0.811819 -0.003,1.623496 -0.008,2.435315 -0.003,0.744001 -0.005,1.488029 8.1e-4,2.232028 0.006,0.720918 0.0173,1.441784 0.0237,2.162712 -0.003,0.725838 -0.004,1.451683 -1e-5,2.177516 0.004,0.726077 0.0106,1.45221 -0.007,2.178185 -0.0107,0.719501 -0.021,1.439002 -0.0302,2.15853 -0.008,0.657467 -0.0162,1.314945 -0.0199,1.97245 -0.002,0.508826 -0.003,1.017663 0.002,1.526479 0.005,0.44886 0.0129,0.897738 0.0329,1.346231 0.0188,0.429999 0.0416,0.860007 0.0864,1.288217 0.0358,0.350411 0.0783,0.699978 0.119,1.049815 0.0184,0.163543 0.0446,0.32765 0.0369,0.492651 -0.0108,0.622167 0.86911,0.637385 0.87987,0.01522 l 1e-5,4.9e-4 c 0.009,-0.203051 -0.0196,-0.40505 -0.0423,-0.606331 -0.0403,-0.3468 -0.0826,-0.693302 -0.11802,-1.040677 -0.0431,-0.411257 -0.0647,-0.824252 -0.0827,-1.237235 -0.0196,-0.439195 -0.0269,-0.878767 -0.0321,-1.318323 -0.005,-0.503984 -0.004,-1.008011 -0.002,-1.512007 0.004,-0.655203 0.0117,-1.310383 0.0199,-1.96554 0.009,-0.718809 0.0195,-1.437608 0.0302,-2.15639 0.0177,-0.731954 0.0111,-1.464057 0.007,-2.196116 -0.004,-0.723032 -0.003,-1.446077 1e-5,-2.169114 -0.006,-0.724706 -0.0173,-1.449356 -0.0237,-2.174065 -0.006,-0.740047 -0.004,-1.480114 -7.8e-4,-2.220165 0.006,-0.816257 0.0165,-1.632359 0.008,-2.448618 -0.0119,-0.779662 -0.0238,-1.559334 -0.0327,-2.339035"
     id="path4" />
  <path
     style="fill:#ff4400;fill-opacity:1;fill-rule:nonzero;stroke:none;stroke-width:0.264583"
     d="m 150.61016,35.412104 c -0.007,-0.601997 -0.01,-1.204031 -0.0105,-1.806062 -5e-4,-0.551271 0.003,-1.102544 0.007,-1.653799 0.004,-0.432713 0.008,-0.865406 0.013,-1.298108 0.007,-0.622215 -0.87307,-0.631943 -0.87994,-0.01022 v 0 c -0.005,0.433562 -0.009,0.867125 -0.0131,1.300698 -0.004,0.553945 -0.008,1.107909 -0.007,1.66188 6.4e-4,0.605072 0.004,1.210126 0.0106,1.815164"
     id="path2" />
  <path
     style="fill:#ff4400;fill-opacity:1;fill-rule:nonzero;stroke:none;stroke-width:0.264583"
     d="m 146.10984,32.561473 c 0.44273,-0.02545 1.15738,-0.05569 1.60021,-0.07937 0.20442,-0.0088 0.409,-0.01833 0.61355,-0.02139 0.62216,0.01076 0.63738,-0.869108 0.0152,-0.879869 l -2e-5,9e-5 c -0.22223,0.0022 -0.4444,0.01252 -0.66643,0.02208 -0.44709,0.02377 -1.166,0.05434 -1.613,0.07995"
     id="path20"
     sodipodi:nodetypes="ccccccc" />
  <path
     style="fill:#000000;fill-opacity:1;fill-rule:nonzero;stroke:none;stroke-width:0.264583"
     d="m 146.05937,31.682958 c -0.48233,0.03086 -0.69311,0.05042 -1.17597,0.07107 -0.49278,0.02118 -0.98597,0.02925 -1.47911,0.03563 -0.49248,0.0055 -0.98499,0.006 -1.47749,0.0058 -0.38605,-6.76e-4 -0.77211,-0.0022 -1.15816,-0.0042 -0.28101,-0.0019 -0.56204,-0.0037 -0.84305,-0.0066 -0.62223,-0.0058 -0.63086,0.873851 -0.009,0.879953 v 0 c 0.28232,0.0029 0.56464,0.0048 0.84696,0.0066 0.38748,0.0017 0.77495,0.0034 1.16242,0.0042 0.49648,5.86e-4 0.99297,-3.28e-4 1.48943,-0.0058 0.50187,-0.0065 1.00378,-0.01474 1.50527,-0.03637 0.48714,-0.02088 0.7022,-0.04056 1.18879,-0.07175"
     id="path5"
     sodipodi:nodetypes="ccccccssccccc" />
  <path
     style="fill:#000000;fill-opacity:1;fill-rule:nonzero;stroke:none;stroke-width:0.264583"
     id="path6"
     d="m 134.26663,33.53633 c 0.0507,0.213809 0.14958,0.411008 0.25519,0.602023 0.13867,0.227473 0.31799,0.425833 0.52652,0.591284 0.13464,0.106834 0.20596,0.146834 0.35033,0.238484 0.31384,0.182715 0.65299,0.32022 1.00118,0.422297 0.0692,0.0203 0.13926,0.03751 0.20889,0.05622 0.33859,0.07637 0.6865,0.133202 1.03491,0.118344 0.0682,-0.0028 0.13598,-0.01135 0.20397,-0.01708 0.34092,-0.04861 0.67256,-0.162953 0.95823,-0.358372 0.0637,-0.0436 0.12265,-0.09369 0.18398,-0.1406 0.28528,-0.248003 0.52497,-0.546233 0.71664,-0.871727 0.0392,-0.06653 0.0743,-0.135446 0.11144,-0.203173 0.17661,-0.356069 0.30254,-0.737989 0.34937,-1.133678 0.01,-0.08095 0.013,-0.16251 0.0195,-0.24376 0.008,-0.316401 -0.009,-0.635411 -0.0687,-0.94685 -0.0388,-0.20245 -0.0622,-0.262795 -0.121,-0.458671 -0.0949,-0.246918 -0.20984,-0.486531 -0.36866,-0.699469 -0.0569,-0.0764 -0.11968,-0.148332 -0.18392,-0.218654 -0.16014,-0.175325 -0.21244,-0.208825 -0.39483,-0.361912 -0.33177,-0.264787 -0.70987,-0.464475 -1.11428,-0.593028 -0.0782,-0.02486 -0.15811,-0.04424 -0.23717,-0.06631 -0.39517,-0.09875 -0.80428,-0.105624 -1.20736,-0.05949 -0.0735,0.0087 -0.14647,0.02077 -0.21971,0.0312 -0.27637,0.04703 -0.54782,0.122875 -0.80581,0.23318 -0.15744,0.06729 -0.20396,0.09671 -0.35306,0.177181 -0.27083,0.15972 -0.52515,0.352341 -0.7293,0.593307 -0.0429,0.05057 -0.0812,0.10483 -0.12185,0.157246 -0.15289,0.219029 -0.26935,0.462331 -0.34754,0.717758 -0.0481,0.157052 -0.0604,0.23674 -0.0926,0.395267 -0.0631,0.379575 -0.0301,0.762804 0.0311,1.139819 0.0443,0.237592 0.0986,0.476557 0.20306,0.696025 0.0208,0.04377 0.0453,0.0858 0.0679,0.128684 0.0816,0.144423 0.18493,0.274279 0.28934,0.402474 0.39373,0.481841 1.07517,-0.07492 0.68144,-0.556819 v 0 c -0.0699,-0.08522 -0.1403,-0.170702 -0.19732,-0.265372 -0.097,-0.168762 -0.1428,-0.357703 -0.1762,-0.548379 -0.0459,-0.272025 -0.0746,-0.549012 -0.0364,-0.824063 0.018,-0.0919 0.0345,-0.188522 0.0609,-0.278649 0.049,-0.167448 0.1203,-0.328999 0.21702,-0.474338 0.0232,-0.0316 0.0448,-0.06433 0.0696,-0.09471 0.13844,-0.169721 0.31543,-0.30269 0.5017,-0.415386 0.10203,-0.05624 0.14756,-0.08436 0.25446,-0.131139 0.19499,-0.08534 0.4004,-0.144438 0.60989,-0.18118 0.35451,-0.05278 0.71551,-0.08124 1.06758,0.006 0.0594,0.01593 0.11936,0.02977 0.17812,0.04779 0.30644,0.09421 0.59385,0.241155 0.84515,0.440671 0.0498,0.04047 0.10144,0.07867 0.14926,0.121339 0.0707,0.06313 0.19906,0.194102 0.25932,0.270685 0.11087,0.140898 0.18835,0.302382 0.25826,0.466356 0.0403,0.130217 0.0668,0.203285 0.0932,0.336702 0.0486,0.245648 0.0636,0.497404 0.0609,0.747294 -0.0101,0.149398 -0.009,0.199565 -0.0362,0.345885 -0.0438,0.234978 -0.12414,0.461762 -0.2281,0.676547 -0.0281,0.05232 -0.0547,0.105459 -0.0844,0.156884 -0.13781,0.238782 -0.30986,0.45944 -0.51325,0.6457 -0.0344,0.02811 -0.0672,0.05825 -0.10319,0.08433 -0.17005,0.123408 -0.3703,0.196266 -0.57622,0.23107 -0.0438,0.0042 -0.0875,0.01089 -0.1315,0.01343 -0.26919,0.01575 -0.53851,-0.03302 -0.80054,-0.08856 -0.33519,-0.08861 -0.66678,-0.19864 -0.96832,-0.373061 -0.22942,-0.142749 -0.43115,-0.281708 -0.57789,-0.515141 -0.0731,-0.127914 -0.14161,-0.260898 -0.1745,-0.405568 -0.16523,-0.599917 -1.01364,-0.366244 -0.84841,0.233673 z" />
  <path
     style="fill:#000000;fill-opacity:1;fill-rule:nonzero;stroke:none;stroke-width:0.264583"
     id="path7"
     d="m 139.94816,41.432013 c -0.0108,-0.280138 -0.0245,-0.560136 -0.034,-0.840372 -0.0145,-0.429805 -0.0387,-1.931889 -0.045,-2.361881 -0.007,-0.333938 -0.002,-0.668149 -0.0143,-1.001938 -0.008,-0.144982 -0.0154,-0.289949 -0.0231,-0.434933 -0.0328,-0.621381 -0.91162,-0.574921 -0.87877,0.04641 v 0 c 0.007,0.141 0.015,0.282002 0.0225,0.423002 0.0134,0.326461 0.005,0.653509 0.0137,0.980135 0.006,0.435704 0.0307,1.943491 0.0454,2.37901 0.009,0.265205 0.0196,0.530338 0.0336,0.795299 -0.0108,0.622167 0.8691,0.637385 0.87986,0.01522 z"
     sodipodi:nodetypes="ccccssscccccc" />
  <path
     style="fill:#000000;fill-opacity:1;fill-rule:nonzero;stroke:none;stroke-width:0.264583"
     id="path8"
     d="m 139.00079,36.28106 c -0.0936,0.03189 -0.19089,0.05261 -0.28676,0.07635 -0.22494,0.05362 -0.45284,0.09326 -0.68131,0.128307 -0.21842,0.02773 -0.43868,0.06242 -0.65963,0.0516 -0.0485,-0.0028 -0.0967,-0.0087 -0.14507,-0.01251 -0.34078,-0.0328 -0.67012,-0.125627 -0.98996,-0.244046 -0.20646,-0.07788 -0.40088,-0.18261 -0.5772,-0.315299 -0.10299,-0.07749 -0.16903,-0.137573 -0.26696,-0.222209 -0.16006,-0.162353 -0.30679,-0.339027 -0.42743,-0.532912 -0.0797,-0.128118 -0.10158,-0.181864 -0.16864,-0.318864 -0.1793,-0.390029 -0.28753,-0.806033 -0.38507,-1.222422 -0.10317,-0.466404 -0.16675,-0.940194 -0.22102,-1.414384 -0.0471,-0.453382 -0.0548,-0.908983 -0.0465,-1.364278 0.006,-0.387752 0.0619,-0.771425 0.14099,-1.150273 0.0524,-0.225088 0.10938,-0.450566 0.18835,-0.668093 0.0451,-0.124358 0.0677,-0.165624 0.12387,-0.286141 0.0921,-0.181385 0.19531,-0.358396 0.32188,-0.518181 0.0623,-0.07863 0.11139,-0.128133 0.17998,-0.201547 0.11585,-0.113574 0.24135,-0.217449 0.38402,-0.295784 0.084,-0.04615 0.12839,-0.06169 0.21736,-0.09881 0.16453,-0.06126 0.33565,-0.106351 0.50977,-0.130104 0.1092,-0.01491 0.15524,-0.01392 0.26626,-0.0182 0.28332,-0.007 0.5639,0.03626 0.84217,0.08408 0.24264,0.0429 0.47641,0.121497 0.70609,0.208892 0.20115,0.07939 0.39828,0.168313 0.59744,0.25244 0.15745,0.06473 0.31747,0.122918 0.47634,0.184045 0.10351,0.03619 0.29305,0.111644 0.39772,0.07989 0.11119,-0.03368 0.22193,-0.08087 0.31354,-0.152341 0.0577,-0.04501 0.079,-0.123231 0.11857,-0.184847 0.0149,-0.05735 0.0345,-0.11359 0.0447,-0.171933 0.025,-0.143888 0.009,-0.298795 -0.005,-0.442661 -0.01,-0.102189 -0.0274,-0.238009 -0.0398,-0.338888 -0.0622,-0.49286 -0.12276,-0.985931 -0.18035,-1.47935 -0.0879,-0.762524 -0.17864,-1.524708 -0.26493,-2.287404 -0.12426,-1.053876 -0.23212,-2.109439 -0.32767,-3.16627 -0.0707,-0.845379 -0.14316,-1.690588 -0.21772,-2.535634 -0.0547,-0.619848 -0.93128,-0.542506 -0.87659,0.07735 v 0 c 0.0746,0.845677 0.1471,1.691527 0.21788,2.537547 0.0962,1.063382 0.20465,2.125517 0.32968,3.185938 0.0864,0.763738 0.17727,1.526954 0.26529,2.29051 0.0578,0.495204 0.11855,0.990068 0.18099,1.484702 0.0147,0.119172 0.0243,0.192609 0.0367,0.30957 0.0131,0.123696 0.008,0.07184 0.0136,0.177542 5.9e-4,0.01051 -0.008,0.03417 0.002,0.03164 0.0138,-0.0038 0.0137,-0.02487 0.0205,-0.03725 0.11499,-0.134422 0.076,-0.117353 0.32313,-0.177049 0.025,-0.0056 0.0508,0.0079 0.0761,0.01242 0.005,8.87e-4 -0.0102,-7.07e-4 -0.0151,-0.0023 -0.0328,-0.0086 -0.0655,-0.02144 -0.0969,-0.03298 -0.15005,-0.0577 -0.30115,-0.112744 -0.45005,-0.173438 -0.20915,-0.08833 -0.41608,-0.181853 -0.62758,-0.264523 -0.28283,-0.107047 -0.57115,-0.201437 -0.86983,-0.25351 -0.34025,-0.05809 -0.68359,-0.107138 -1.02987,-0.09582 -0.0638,0.0029 -0.12782,0.0038 -0.19155,0.0094 -0.30531,0.02462 -0.60534,0.09839 -0.89071,0.208628 -0.14582,0.06329 -0.19644,0.08042 -0.33549,0.160172 -0.20944,0.120106 -0.39598,0.274573 -0.56571,0.445454 -0.10332,0.1121 -0.14992,0.158131 -0.24481,0.280158 -0.16112,0.207195 -0.29414,0.434968 -0.41093,0.669524 -0.0288,0.06311 -0.0594,0.12544 -0.0865,0.189342 -0.12975,0.306582 -0.21298,0.631011 -0.28817,0.95443 -0.0893,0.43268 -0.15259,0.870681 -0.15921,1.313312 -0.009,0.494023 3e-4,0.988423 0.0521,1.480292 0.0584,0.508106 0.12711,1.01573 0.2386,1.515323 0.11343,0.481874 0.24208,0.96239 0.45337,1.412192 0.0952,0.190195 0.1162,0.244136 0.22953,0.423022 0.1634,0.257934 0.36165,0.492838 0.5809,0.704801 0.12686,0.10879 0.20399,0.179025 0.33981,0.278548 0.23812,0.174484 0.49895,0.314016 0.77517,0.418068 0.0664,0.02425 0.13234,0.05 0.19933,0.07266 0.33233,0.112384 0.67764,0.186197 1.02641,0.222693 0.0701,0.0052 0.14003,0.01242 0.21024,0.01494 0.2666,0.0096 0.53223,-0.0265 0.79569,-0.06185 0.25479,-0.0393 0.50895,-0.08371 0.75972,-0.144043 0.13682,-0.03404 0.27569,-0.06384 0.40716,-0.115706 0.5761,-0.235193 0.24349,-1.049917 -0.33261,-0.814724 z" />
  <path
     style="fill:#000000;fill-opacity:1;fill-rule:nonzero;stroke:none;stroke-width:0.264583"
     id="path13"
     d="m 139.45999,39.252365 c 0.002,-0.002 0.008,-0.0059 0.005,-0.0069 -0.0326,-0.01607 -0.0675,-0.02687 -0.10114,-0.04055 -0.056,-0.02287 -0.11185,-0.04624 -0.1678,-0.06941 -0.30936,-0.127619 -0.61883,-0.25358 -0.93046,-0.375667 -1.28831,-0.504445 -2.59761,-0.952434 -3.9005,-1.417165 -1.26597,-0.45415 -2.52971,-0.914323 -3.79232,-1.377677 -0.44901,-0.16525 -0.89802,-0.33043 -1.346,-0.498442 -0.58263,-0.218498 -0.89164,0.605461 -0.30901,0.82396 v 0 c 0.44993,0.168726 0.90087,0.334669 1.35183,0.500602 1.26512,0.464278 2.53138,0.925364 3.79985,1.380408 1.29445,0.461705 2.59528,0.906717 3.87529,1.407727 0.49277,0.192861 0.24433,0.09294 0.68221,0.273559 0.18461,0.0761 0.37029,0.164628 0.56018,0.227601 0.0527,0.01751 0.10695,0.02985 0.16042,0.04478 0.61717,0.07938 0.72946,-0.793404 0.11229,-0.872798 z" />
  <path
     style="fill:#000000;fill-opacity:1;fill-rule:nonzero;stroke:none;stroke-width:0.264583"
     id="path15"
     d="m 133.66383,30.898401 c 0.009,-3.62e-4 0.032,0.0066 0.0273,-5.28e-4 -0.007,-0.01092 -0.024,-0.0094 -0.0361,-0.01353 -0.0374,-0.01295 -0.075,-0.0251 -0.11238,-0.03815 -0.22264,-0.07776 -0.44288,-0.162193 -0.66356,-0.245252 -0.87202,-0.325269 -1.73607,-0.671123 -2.60708,-0.999004 -0.87345,-0.327624 -1.75203,-0.641154 -2.63332,-0.946971 -0.59064,-0.202574 -1.18605,-0.390729 -1.78026,-0.582433 -0.42376,-0.14149 -0.84743,-0.283137 -1.27342,-0.417814 -0.34308,-0.106929 -0.6855,-0.216027 -1.0271,-0.327621 -0.5915,-0.193198 -0.86473,0.643302 -0.27323,0.83651 v 0 c 0.34428,0.11243 0.68935,0.222444 1.03512,0.33019 0.42435,0.134088 0.84627,0.275446 1.26843,0.416227 0.5881,0.189739 1.17738,0.375917 1.76198,0.576317 0.87409,0.303301 1.74549,0.614247 2.61181,0.939197 0.87105,0.327802 1.73504,0.673855 2.60711,0.999005 0.14156,0.05326 0.36685,0.138605 0.51524,0.192599 0.14679,0.05345 0.2989,0.115296 0.45259,0.147118 0.0367,0.0076 0.0745,0.0093 0.11167,0.01423 0.62216,0.01076 0.63738,-0.869108 0.0152,-0.879869 z" />
  <path
     style="fill:#000000;fill-opacity:1;fill-rule:nonzero;stroke:none;stroke-width:0.264583"
     id="path16"
     d="m 138.91855,25.365866 c -0.40893,-0.145144 -0.82724,-0.264486 -1.24205,-0.391978 -1.02081,-0.306629 -2.04454,-0.603517 -3.06995,-0.894393 -1.01942,-0.287753 -2.0389,-0.575386 -3.05892,-0.861038 -0.39181,-0.107802 -0.78328,-0.216798 -1.17428,-0.327496 -0.59872,-0.169489 -0.83843,0.677232 -0.2397,0.846721 v 0 c 0.3918,0.110913 0.78405,0.220182 1.17667,0.328178 1.01908,0.285386 2.03761,0.572753 3.05609,0.860229 1.01926,0.289099 2.03684,0.584261 3.05155,0.888964 0.38418,0.118081 0.77023,0.231694 1.1515,0.358607 0.5712,0.246845 0.92029,-0.56096 0.34909,-0.807794 z" />
  <path
     style="fill:#ff4400;fill-opacity:1;fill-rule:nonzero;stroke:none;stroke-width:0.264583"
     d="m 154.46098,31.440964 -0.79637,0.0059 -0.9085,0.0067 -0.56467,0.0041 c -0.62224,0.0046 -0.61573,0.884575 0.006,0.879974 v 2e-5 l 0.56466,-0.0041 0.9085,-0.0067 0.79637,-0.0059"
     id="path21"
     sodipodi:nodetypes="cccsscccc" />
  <path
     style="fill:#000000;fill-opacity:1;fill-rule:nonzero;stroke:none;stroke-width:0.264583"
     d="m 154.46747,32.320967 1.24631,-0.0092 c 0.37422,-5.29e-4 0.74815,-0.01256 1.12147,-0.03811 0.34624,-0.02552 0.69268,-0.04793 1.03906,-0.07134 0.38194,-0.025 0.76275,-0.06462 1.1442,-0.09626 0.34101,-0.03201 0.68215,-0.06241 1.02366,-0.08857 0.29082,-0.02137 0.58201,-0.03684 0.87322,-0.05141 0.22691,-0.01168 0.45392,-0.02015 0.68097,-0.02793 0.19462,-0.0066 0.38927,-0.01187 0.58394,-0.0159 0.11761,-0.003 0.0589,-9.81e-4 0.17598,-0.003 0.62213,-0.01264 0.60423,-0.892474 -0.0179,-0.879811 v 0 c -0.11867,0.0029 -0.0592,9.76e-4 -0.17836,0.0029 -0.19794,0.0046 -0.39587,0.01 -0.59376,0.01613 -0.23172,0.0077 -0.4634,0.01709 -0.69498,0.02859 -0.29894,0.01503 -0.59786,0.03097 -0.89638,0.05291 -0.34335,0.02637 -0.68634,0.05674 -1.02918,0.08901 -0.37697,0.03129 -0.75331,0.07038 -1.13076,0.09526 -0.34644,0.02331 -0.69295,0.04582 -1.03925,0.07134 -0.35566,0.02425 -0.71191,0.03559 -1.06843,0.03613 l -1.24632,0.0092"
     id="path17"
     sodipodi:nodetypes="ccccccccccssccccccccc" />
  <path
     style="fill:#000000;fill-opacity:1;fill-rule:nonzero;stroke:none;stroke-width:0.264583"
     id="path18"
     d="m 163.09127,34.995011 c -0.0427,-0.304464 -0.0745,-0.61021 -0.0991,-0.91663 -0.0497,-0.685552 -0.0677,-1.372836 -0.0867,-2.059758 -0.0209,-0.805631 -0.0376,-1.611352 -0.0543,-2.41708 -0.008,-0.369698 -0.0148,-0.739396 -0.0218,-1.109093 -0.0118,-0.622137 -0.89166,-0.60542 -0.87984,0.01669 v 0 c 0.007,0.370197 0.0142,0.740396 0.0218,1.110574 0.0167,0.807799 0.0335,1.615591 0.0544,2.423293 0.0195,0.702403 0.0381,1.405169 0.0892,2.106148 0.0271,0.333248 0.0611,0.665977 0.1093,0.99692 0.10683,0.613019 0.97377,0.461928 0.86693,-0.151081 z" />
  <path
     style="fill:#000000;fill-opacity:1;fill-rule:nonzero;stroke:none;stroke-width:0.264583"
     id="path19"
     d="m 162.3331,31.885375 c 0.21015,0.194463 0.44805,0.357552 0.68155,0.522384 0.40844,0.294268 0.83464,0.560698 1.2742,0.805546 0.29797,0.164307 0.60681,0.30877 0.93996,0.385402 0.23491,0.05407 0.30603,0.0519 0.54548,0.07304 0.42984,0.01994 0.86236,-0.03039 1.27153,-0.166376 0.0823,-0.02728 0.16229,-0.0612 0.24344,-0.0918 0.39159,-0.175365 0.77255,-0.39608 1.0857,-0.693319 0.0701,-0.0665 0.13314,-0.140018 0.19971,-0.210027 0.29671,-0.356323 0.53339,-0.76131 0.69005,-1.198246 0.03,-0.08349 0.0537,-0.169207 0.0806,-0.253825 0.0889,-0.31923 0.13837,-0.650204 0.10168,-0.981598 -0.0243,-0.219513 -0.0471,-0.255984 -0.11338,-0.467211 -0.15829,-0.376093 -0.42432,-0.688991 -0.77012,-0.906343 -0.0678,-0.04258 -0.14019,-0.07714 -0.21028,-0.115764 -0.29372,-0.13692 -0.61067,-0.19904 -0.93439,-0.184216 -0.17975,0.0083 -0.28661,0.03225 -0.46168,0.06263 -0.45042,0.09092 -0.86736,0.282153 -1.27592,0.485678 -0.36617,0.174943 -0.70537,0.398901 -1.0423,0.623478 -0.29613,0.192618 -0.58204,0.400224 -0.8722,0.601577 -0.21199,0.147006 -0.42599,0.291157 -0.63571,0.441413 -0.14487,0.10333 -0.29109,0.204686 -0.43411,0.310599 -0.49981,0.370662 0.0244,1.077503 0.5242,0.70684 v 0 c 0.13905,-0.10328 0.2818,-0.201336 0.42259,-0.302217 0.20605,-0.147769 0.4166,-0.289099 0.62484,-0.433729 0.28558,-0.198301 0.56708,-0.402594 0.85855,-0.592292 0.30628,-0.204264 0.61382,-0.409476 0.94694,-0.568219 0.333,-0.166356 0.67082,-0.327558 1.03711,-0.406696 0.29773,-0.05456 0.53838,-0.0906 0.82714,0.03131 0.0412,0.02091 0.0836,0.03945 0.12351,0.06264 0.18731,0.109056 0.33997,0.26687 0.43677,0.460982 0.0143,0.03865 0.0317,0.07636 0.043,0.116011 0.0746,0.261679 0.0316,0.534926 -0.0361,0.792703 -0.0197,0.06427 -0.0369,0.129302 -0.059,0.192779 -0.11644,0.334716 -0.29432,0.645627 -0.51552,0.921873 -0.0421,0.04658 -0.0813,0.09611 -0.12636,0.139896 -0.23814,0.231576 -0.53106,0.402676 -0.83018,0.541654 -0.059,0.02318 -0.11712,0.04858 -0.17698,0.06935 -0.30522,0.105847 -0.62936,0.145288 -0.95135,0.133488 -0.17231,-0.01298 -0.21776,-0.0098 -0.38657,-0.04519 -0.26504,-0.05549 -0.50656,-0.176496 -0.7427,-0.305139 -0.41252,-0.229229 -0.81186,-0.479642 -1.19489,-0.755727 -0.19444,-0.136973 -0.39259,-0.27256 -0.57106,-0.43004 -0.44324,-0.43675 -1.06088,0.190092 -0.61765,0.626823 z" />
</svg>
