<?xml version="1.0" encoding="UTF-8" standalone="no"?>
<svg
   id="svg3748"
   version="1.1"
   viewBox="0 0 217.07695 101.89817"
   height="101.89817mm"
   width="217.07695mm"
   sodipodi:docname="47 mije li sona e ijo meli. mije li sona e ni, meli li lon lupa. mije li sona tan ni, mije li lukin e meli lon lupa..svg"
   inkscape:version="1.3 (0e150ed6c4, 2023-07-21)"
   xmlns:inkscape="http://www.inkscape.org/namespaces/inkscape"
   xmlns:sodipodi="http://sodipodi.sourceforge.net/DTD/sodipodi-0.dtd"
   xmlns="http://www.w3.org/2000/svg"
   xmlns:svg="http://www.w3.org/2000/svg"
   xmlns:rdf="http://www.w3.org/1999/02/22-rdf-syntax-ns#"
   xmlns:cc="http://creativecommons.org/ns#"
   xmlns:dc="http://purl.org/dc/elements/1.1/">
  <sodipodi:namedview
     id="namedview1"
     pagecolor="#ffffff"
     bordercolor="#000000"
     borderopacity="0.25"
     inkscape:showpageshadow="2"
     inkscape:pageopacity="0.0"
     inkscape:pagecheckerboard="0"
     inkscape:deskcolor="#d1d1d1"
     inkscape:document-units="mm"
     inkscape:zoom="1.0866562"
     inkscape:cx="594.9444"
     inkscape:cy="178.98946"
     inkscape:window-width="1920"
     inkscape:window-height="1051"
     inkscape:window-x="-9"
     inkscape:window-y="-9"
     inkscape:window-maximized="1"
     inkscape:current-layer="svg3748" />
  <defs
     id="defs3742" />
  <metadata
     id="metadata3745">
    <rdf:RDF>
      <cc:Work
         rdf:about="">
        <dc:format>image/svg+xml</dc:format>
        <dc:type
           rdf:resource="http://purl.org/dc/dcmitype/StillImage" />
        <dc:title />
      </cc:Work>
    </rdf:RDF>
  </metadata>
  <g
     transform="translate(-36.018559,-76.268334)"
     id="layer1">
    <rect
       y="90.651863"
       x="36.018559"
       height="87.514496"
       width="117.96189"
       id="rect4530"
       style="fill:#99cc33;fill-opacity:1;stroke-width:0.315538" />
    <g
       id="g4380"
       transform="matrix(0.26458333,0,0,0.26458333,112.83983,71.489768)">
      <path
         id="path4342"
         d="m 13.4,105 c 0,0 1,9.1 1.3,12.3 0.3,3.2 1.3,5.5 2.1,7.3 0.8,1.8 4.5,6.2 5,5.9 0.5,-0.3 -0.3,-2.1 -0.3,-2.5 0,-0.4 0.4,-1.7 -0.2,-2.5 -0.6,-0.7 -1.7,-4 -1.6,-4.7 0.1,-0.7 1.4,-0.9 1.5,-1.4 0.1,-0.5 0.1,-0.5 0.1,-0.5 0,0 -3.6,-6 -3.6,-8.6 0,-2.7 -0.1,-6.1 -0.1,-6.1 0,0 -0.6,-0.3 -2,0 -1.4,0.2 -2.2,0.8 -2.2,0.8 z"
         style="fill:#fbd7c7" />
      <path
         id="path4344"
         d="m 28.1,216.9 c 0.6,1.8 -6.7,11.8 7.1,13.5 20.6,2.7 21.6,-13.7 29.3,-18.2 13.9,-8.1 -3.1,-14.1 -22.5,-14.1 -16.3,0.1 -30.5,1.9 -29.4,10.1 0.7,6.1 14.6,5.6 15.5,8.7 z"
         style="opacity:0.3;fill:#262626" />
      <path
         id="path4346"
         d="m 34,200.2 c 0,0 -1.6,1.2 -5.5,1.1 -3.9,-0.1 -7.3,-0.8 -11.4,1.5 -4.8,2.7 -1.2,7 0.1,7.4 1.3,0.4 18.1,0.9 21.2,0.7 3.1,-0.2 2.1,-8.2 2.1,-8.2 z"
         style="fill:#762c07" />
      <path
         id="path4348"
         d="m 39.4,209.1 c -1.5,0.1 -9,0.6 -13.5,0.5 -5,-0.1 -6.4,-0.5 -7.8,-1 -1.7,-0.6 -3.2,-1.4 -3.3,-3.1 -0.5,2.2 0.9,4.1 2.5,4.6 1.5,0.5 3.3,0.9 8.6,1.1 4.2,0.1 11.3,-0.3 12.6,-0.4 0.8,-0.1 1.4,-0.7 1.7,-1.6 -0.4,0.3 -0.5,-0.1 -0.8,-0.1 z"
         style="fill:#262626" />
      <path
         id="path4350"
         d="m 39.7,211 c 0,0 -3.9,4.4 -6.6,7.6 -2.7,3.2 -3.8,5.6 -3.6,7.9 0.2,2.3 3.5,3.4 8,3.4 4.5,0 9.3,-2.8 11.5,-5.9 2.3,-3.1 5.6,-5.9 5.6,-7.4 0,-1.5 -0.1,-6.2 -0.1,-6.2 z"
         style="fill:#762c07" />
      <path
         id="path4352"
         d="m 54.6,210.4 h -0.5 c 0,1.5 0.1,3.3 0.1,4.1 0,1.5 -3.4,4.3 -5.6,7.4 -2.3,3.1 -7,5.9 -11.5,5.9 -3.5,0 -6.3,-0.6 -7.4,-2 0,0.2 0,0.4 0,0.6 0.1,2.3 3.5,3.4 8,3.4 4.6,0 9.3,-2.8 11.5,-5.9 2.3,-3.1 5.6,-5.9 5.6,-7.4 -0.1,-1.4 -0.2,-6.1 -0.2,-6.1 z"
         style="fill:#262626" />
      <path
         id="path4354"
         d="m 19.7,114.3 c 0,0 -0.5,13 1.6,23.9 2.1,10.9 9.5,26.4 9.5,31.1 0,4.7 2.3,19 2.1,22.8 -0.1,3.8 -0.9,8.6 -0.9,8.6 0,0 2.7,5 6.2,6.7 3.5,1.7 7.2,-0.4 7.2,-0.4 L 39,116.5 Z"
         style="fill:#3399cc" />
      <path
         id="path4356"
         d="m 19.7,114.3 c 0,0 -0.5,13 1.6,23.9 2.1,10.9 9.5,26.4 9.5,31.1 0,4.7 2.3,19 2.1,22.8 -0.1,3.8 -0.9,8.6 -0.9,8.6 0,0 2.7,5 6.2,6.7 3.5,1.7 7.2,-0.4 7.2,-0.4 L 39,116.5 Z"
         style="opacity:0.2" />
      <path
         id="path4358"
         d="m 31.1,119.4 c 0,0 0.3,14.3 -0.3,25.6 -0.5,11.3 2.3,21.7 3.4,25.3 1.1,3.6 1.5,9.7 1.5,15.2 0,5.5 0.2,26.2 1,27 0.8,0.8 5.2,3.6 10.9,4 4.3,0.3 9,-2.4 9,-3.1 0,-0.7 1.5,-16.4 0.3,-29.1 -1.2,-12.7 -3.8,-19.3 -3.6,-21.3 0.1,-2 3.1,-29.1 2.8,-34.7 -0.3,-5.6 -2,-18.4 -2,-18.4 z"
         style="fill:#3399cc" />
      <path
         id="path4360"
         d="m 17.9,69.4 c 0,0 -2.2,7.4 -3.6,17.6 -1.5,10.7 -0.7,25.3 -0.7,25.3 0,0 2.1,-1.6 6.2,-1.6 4.1,0 -1.9,-41.3 -1.9,-41.3 z"
         style="fill:#ffcc00" />
      <path
         id="path4362"
         d="m 17.9,69.4 c 0,0 -2.2,7.4 -3.6,17.6 -1.5,10.7 -0.7,25.3 -0.7,25.3 0,0 2.1,-1.6 6.2,-1.6 4.1,0 -1.9,-41.3 -1.9,-41.3 z"
         style="opacity:0.2" />
      <path
         id="path4364"
         d="m 51.5,127 c 0,0 -0.4,2.9 -2.3,5.1 -1.9,2.1 -3.5,5.8 -3.5,7.3 0,2.1 0,3.9 0.9,4 1.8,0.2 1.1,-1.3 1.7,-1.3 0.6,0 0.3,2.6 3,2.7 3.5,0.1 8.5,-2.3 8.5,-4.6 0,-1.2 -0.5,-4.4 -0.9,-6.2 -0.5,-1.9 -0.5,-4.5 -0.5,-4.5 z"
         style="fill:#fbd7c7" />
      <path
         id="path4366"
         d="m 38.8,44 c 9.5,2.5 20.1,4.6 23.7,12.3 3.1,6.6 2.9,8.7 2.7,14.9 -0.3,6.2 -0.8,18.5 -0.5,22.5 0.3,4 -1.1,20.8 -2.3,26.4 -1.2,5.6 -1.6,10.3 -2.5,10.6 -0.9,0.3 -10.2,-0.9 -9.5,-2.3 0.9,-2 1.2,-7.6 1.2,-7.6 0,0 -4.4,5.4 -14.2,4 -9.8,-1.3 -18.2,-6.1 -19.1,-8.6 -0.4,-1.2 -0.6,-19.8 0.3,-24.8 0.9,-5 -2,-15.7 -2.1,-20.4 -0.1,-4.7 2.9,-17.4 3.1,-19.7 0.1,-3.4 4.2,-11.2 19.2,-7.3 z"
         style="fill:#ffcc00" />
      <path
         id="path4368"
         d="m 51.5,120.9 c 0,0 0.7,-5.2 0.7,-9.8 0,-4.6 0.1,-11.3 -0.4,-13.9 C 51.3,94.5 49.6,85 49.3,82.5 48.6,76.4 49,72.7 49.5,71.4 c -2.4,4.1 -1,19 -0.3,25.2 0.9,8.7 -0.3,25.8 -0.6,26.6 -0.3,0.7 2.9,-2.3 2.9,-2.3 z"
         style="opacity:0.2" />
      <path
         id="path4370"
         d="m 42.5,38.2 c 0,0 0,5.2 0.9,6.1 0.9,0.9 3,1.3 2.3,2.6 -0.7,1.3 -8.1,9.7 -13.5,9.2 -5.3,-0.5 -4,-9.4 -4,-9.4 z"
         style="fill:#fbd7c7" />
      <path
         id="path4372"
         d="m 22.8,26.5 c -2.2,2.8 -1.3,11 -0.3,14.7 1,3.7 2.2,5.9 2.7,7.3 0.4,1.4 1.9,3.6 3.9,3.5 2,-0.1 8.2,-4.1 10.1,-7.1 C 41,41.9 43.6,39 44,37 44.4,35 44.6,34.1 42.9,33.7 41.2,33.3 37.6,25.9 33,25.6 28.4,25.3 24.1,24.8 22.8,26.5 Z"
         style="fill:#fbd7c7" />
      <path
         id="path4374"
         d="m 21.5,28.4 c -0.4,1.6 0.8,3.3 5.5,3.3 4.7,0 7.6,-2.3 8.1,-0.8 0.5,1.5 1.8,5.7 2.2,6.6 0.4,0.9 1,2 1.3,1.6 0.3,-0.4 1.8,-3.9 2.9,-4.7 1.1,-0.8 1.7,-0.8 1.7,-0.8 0,0 1.6,-8.3 -2,-12.6 C 37.6,16.7 25,15.6 21.5,28.4 Z"
         style="fill:#825012" />
      <path
         id="path4376"
         d="m 25,46.6 c 0,0 0.7,-0.7 1.6,-0.8 0.4,0 1.3,0.1 1.9,0.2 0.8,0.2 2.7,1.1 2.7,1.1 0,0 -2.8,0 -3.7,-0.1 C 26.4,46.9 25,46.6 25,46.6 Z"
         style="fill:#825012" />
      <path
         id="path4378"
         d="m 26.8,49 1.2,0.1 c 0,0 -0.2,0.6 0.6,1.3 0.8,0.7 2.9,0.8 2.9,0.8 0,0 -1.7,1.3 -3.2,0.9 -1.5,-0.4 -2.3,-1.8 -2.3,-1.8 0,0 0.5,-0.1 0.6,-0.5 0.2,-0.4 0.2,-0.8 0.2,-0.8 z"
         style="fill:#825012" />
    </g>
    <g
       id="g4340"
       transform="matrix(0.79374999,0,0,0.79374999,44.369843,119.18907)">
      <path
         id="path4293"
         d="m 64,0 -12,4 -4,4 -8,4 -8,8 h -8 l -8,4 -4,4 -12,4 12,4 4,4 8,4 8,8 h 8 l 8,4 4,4 12,4 12,-4 4,-4 8,-4 h 8 l 8,-8 8,-4 4,-4 12,-4 -12,-4 -4,-4 -8,-4 H 96 L 88,12 80,8 76,4 Z"
         style="opacity:1;fill:#baa794" />
      <path
         id="path4295"
         d="m 64,0 12,4 4,4 8,4 8,8 h 8 l 8,4 4,4 12,4 -12,4 -4,4 -8,4 -8,8 -8,-8 -8,-4 -4,-4 -12,-4 z"
         style="opacity:0.11" />
      <path
         id="path4297"
         d="m 64,0 v 32 l -12,4 -4,4 -8,4 -8,8 -8,-8 -8,-4 -4,-4 -12,-4 12,-4 4,-4 8,-4 h 8 l 8,-8 8,-4 4,-4 z"
         style="opacity:0.29" />
      <path
         id="path4299"
         d="m 16,24 8,-4 v 24 l -8,-4 z"
         style="opacity:0.1;fill:#ffffff" />
      <path
         id="path4301"
         d="m 48,8 4,-4 v 32 l -4,4 z"
         style="opacity:0.1;fill:#ffffff" />
      <path
         id="path4303"
         d="M 52,4 64,0 v 32 l -12,4 z"
         style="opacity:0.1" />
      <path
         id="path4305"
         d="m 40,12 -8,8 v 32 l 8,-8 z"
         style="opacity:0.15" />
      <path
         id="path4307"
         d="M 12,36 0,32 12,28 Z"
         style="opacity:0.1" />
      <path
         id="path4309"
         d="m 112,24 -8,-4 v 24 l 8,-4 z"
         style="opacity:0.1;fill:#ffffff" />
      <path
         id="path4311"
         d="M 80,8 76,4 v 32 l 4,4 z"
         style="opacity:0.1;fill:#ffffff" />
      <path
         id="path4313"
         d="M 76,4 64,0 v 32 l 12,4 z"
         style="opacity:0.1" />
      <path
         id="path4315"
         d="m 88,12 8,8 v 32 l -8,-8 z"
         style="opacity:0.15" />
      <path
         id="path4317"
         d="m 116,36 12,-4 -12,-4 z"
         style="opacity:0.1" />
    </g>
    <g
       transform="matrix(0.26458333,0,0,0.26458333,84.163177,113.57992)"
       id="g4594">
      <path
         style="opacity:0.2"
         d="m 65.1,234.6 c 15.7,-7.7 6,-16.3 -10.9,-21.1 -15,-4.3 -26.2,-22.2 -43.2,-11.4 -13.8,8.7 4.9,17.9 18.3,22.6 19.1,6.9 22.8,16.2 35.8,9.9 z"
         id="path4551" />
      <path
         style="fill:#262626"
         d="m 16.3,216.7 c 2.8,1.1 5.8,-0.2 9,-2.6 3.2,-2.4 6.2,-4.1 6.1,-6.9 -0.1,-2.8 -2.3,-3.7 -7.4,-2 -5.1,1.7 -11.1,10.2 -7.7,11.5 z"
         id="path4553" />
      <path
         style="fill:#ffffff"
         d="m 16.9,215.9 c 2.6,1 9.8,-4.1 11.7,-5.8 1.9,-1.7 3.1,-2.8 2.5,-4.3 -0.6,-1.7 -2.5,-2.9 -8.5,-0.8 -6,2.1 -9.8,9.3 -5.7,10.9 z"
         id="path4555" />
      <path
         style="fill:#cc291f"
         d="m 29,123 c 0,0 -3.9,6.7 -4.3,16.4 -0.4,9.6 0.1,23 -0.9,26 -1,3 -7.1,13.5 -8.7,24.8 -1.6,11.3 -2.2,25.2 0.4,26.5 2.6,1.3 6.8,-1 8.2,-1.9 2.7,-1.8 3.8,-4.5 4.1,-6.6 0.3,-2.1 -1.9,-3.7 -0.8,-11 1,-7.3 5.3,-17.3 8,-23.7 2.7,-6.5 6.2,-20.1 7.4,-23.6 1.2,-3.5 3.2,-24.7 3.2,-24.7 z"
         id="path4557" />
      <path
         style="opacity:0.2"
         d="m 29,123 c 0,0 -3.9,6.7 -4.3,16.4 -0.4,9.6 0.1,23 -0.9,26 -1,3 -7.1,13.5 -8.7,24.8 -1.6,11.3 -2.2,25.2 0.4,26.5 2.6,1.3 6.8,-1 8.2,-1.9 2.7,-1.8 3.8,-4.5 4.1,-6.6 0.3,-2.1 -1.9,-3.7 -0.8,-11 1,-7.3 5.3,-17.3 8,-23.7 2.7,-6.5 6.2,-20.1 7.4,-23.6 1.2,-3.5 3.2,-24.7 3.2,-24.7 z"
         id="path4559" />
      <path
         style="fill:#262626"
         d="m 46.1,229.4 c -0.2,1.6 0.5,2 3.4,2 2.9,0 10.8,-1 13.1,-1.7 2.3,-0.7 3.4,-2.3 3.3,-4.4 0,-1.9 -18.7,-6 -19.8,4.1 z"
         id="path4561" />
      <path
         style="fill:#ffffff"
         d="m 46.6,229.6 c 2,1.1 7.6,-0.5 9.8,-0.5 2.2,0 5.8,-0.2 7.6,-1.2 1.8,-1 2.7,-2.8 0.9,-4.3 -1.8,-1.5 -9.3,-2.2 -12.1,-2.2 -2.8,0 -11.6,5 -6.2,8.2 z"
         id="path4563" />
      <path
         style="fill:#cc291f"
         d="m 58.2,126.5 c 0,0 5.2,6.9 4.3,20.6 -0.9,13.7 -5.3,30.1 -5.7,43.2 -0.4,13.1 2.6,31.5 2.5,32.7 -0.1,1.2 0,5.2 -7.1,6.4 -7.1,1.2 -7.3,0 -7.8,-0.4 -0.5,-0.4 0.8,-13.5 0.2,-22.3 -0.6,-8.8 -0.4,-21 0.4,-28.3 0.8,-7.3 -0.9,-19.2 -2.5,-24.9 -0.9,-3.1 -1.9,-9.4 -2.3,-9.9 -0.7,-0.8 -3.6,-2.7 -4.7,-6.2 -1.7,-5.3 -1,-10 2.6,-15.7 3.7,-5.7 20.1,4.8 20.1,4.8 z"
         id="path4565" />
      <path
         style="fill:#fbd7c7"
         d="m 30.7,71.5 c 0,0 -0.9,-6.6 -3.6,-13.9 C 24.4,50.3 22,46.5 22,44.8 22,43 20.4,32.6 19.6,28.4 c -0.9,-4.3 -0.9,-5.9 -0.4,-7.1 0.5,-1.2 1.9,-1.7 2.2,-3.5 0.3,-1.8 0.3,-3 0.7,-3.9 0.5,-0.8 0.8,-0.6 0.2,-1 -0.6,-0.4 -1.7,0.2 -2,1 -0.3,0.8 -0.3,2.3 -0.7,2.5 -0.5,0.1 -0.7,-1.4 -0.9,-3 -0.2,-1.6 0.7,-7 -0.2,-7.2 -1.1,-0.2 -1.1,2.7 -1.3,4.1 -0.2,1.1 -0.4,3.4 -0.4,3.4 0,0 -1,-2.2 -1.5,-4.1 C 14.8,7.7 14.6,5.7 13.7,6 c -0.9,0.2 0,3.3 0.3,4.5 0.3,1.2 0.7,3.6 0.7,3.6 0,0 -1.4,-2.8 -2.1,-4.3 C 12,8.3 11.6,7 10.8,7.3 c -0.7,0.3 0.5,2.9 1,4.2 0.5,1.3 1,3.3 1,3.3 0,0 -1,-1.3 -1.6,-2.6 -0.6,-1.3 -1,-3.1 -1.8,-2.8 -0.7,0.4 0.5,2.6 1,3.8 0.5,1.2 0.8,2.7 1.4,3.8 0.6,1.1 2.1,4.2 2.2,5.2 0.1,1 0.5,7.7 0.6,12.1 0.1,4.4 -0.3,10.6 0,11.7 0.3,1.1 2.8,6.7 3.9,13.2 1.1,6.5 1.2,12.6 2.3,15.7 1.2,3.2 9.9,-3.4 9.9,-3.4 z"
         id="path4567" />
      <path
         style="fill:#ffcc00"
         d="m 30.2,67.2 c 0,0 -2.8,1.4 -5.4,2.1 -2.6,0.7 -5.2,0.7 -5.5,1.6 -0.3,0.8 3.6,14.4 5.5,19.9 1.8,5.5 7,19 6.9,22 -0.1,3 -2.1,6.2 -2.9,9 -0.8,2.8 -1.5,4.7 -1.5,4.7 0,0 6,0.5 11.6,0.9 5.6,0.4 11.3,-0.3 15.4,0.1 3.7,0.4 5.7,1.8 5.7,1.8 0,0 -2.1,-8 -2.5,-13.4 C 57.1,110.4 56.6,98 57,97.2 c 0.4,-0.8 3.1,-2.3 3,-6.1 -0.1,-3.8 -2.1,-3.5 -2.2,-4.6 -0.1,-1.1 0.5,-2.8 -0.8,-4 -2,-1.9 -5.7,-5 -9,-6.4 -3.4,-1.7 -17.8,-8.9 -17.8,-8.9 z"
         id="path4569" />
      <path
         style="fill:#825012"
         d="m 44.6,45.6 c -5.8,-0.1 -11.3,0.7 -13.9,10 -1,3.4 -1.5,6.8 -2.9,9.9 -2.7,5.8 -6.8,9.2 -3.1,13.6 4.5,5.3 15.4,7.9 18.6,4.9 3.2,-3 3,-7.1 5,-7.7 2,-0.6 4.9,1.6 6,-0.5 1.1,-2.1 -0.4,-4.7 -0.5,-8.6 -0.2,-4 5.4,-21.4 -9.2,-21.6 z"
         id="path4571" />
      <path
         style="fill:#fbd7c7"
         d="m 47.1,78.4 c -0.1,1.7 0.3,3.2 2.6,5.4 2.3,2.2 4.5,5.9 5.4,5.6 0.9,-0.3 2.1,-3.3 3.1,-6.7 1,-3.4 2.7,-6.9 2.7,-10.1 0,-3.2 -0.2,-3.2 0.6,-6.3 0.8,-3.1 1.9,-6.5 2,-11.1 0.1,-4.6 0,-8.1 0,-8.1 0,0 2.1,-2.4 2.9,-4.4 0.7,-2 0.5,-2.3 0.8,-2.7 0.3,-0.4 2.7,-2.2 1.9,-3.3 -0.7,-1.1 -2.7,1.1 -2.7,1.1 0,0 0.5,-3.8 0.5,-5.3 0,-1.4 0.5,-4.3 -1,-4 -1.5,0.3 -0.4,2.9 -1.4,5.7 -1,2.8 -3.6,7.8 -4.2,9 -0.6,1.2 -0.2,3 -1.5,6.9 -1.3,3.9 -3.4,8.2 -4.1,12 -0.7,3.9 -0.6,6.7 -1.2,7.9 -1.7,3.8 -6.3,7.7 -6.4,8.4 z"
         id="path4573" />
    </g>
    <path
       id="rect4530-3"
       transform="matrix(0.26458333,0,0,0.26458333,36.018559,76.268334)"
       d="M 0,258.21289 V 385.12695 H 445.83984 V 258.21289 h -30.29882 l 0.0234,0.008 -36,12 -12,12 -24,12 -24,24 h -24 l -24,12 -12,12 -36,12 -36,-12 -12,-12 -24,-12 h -24 l -24,-24 -23.999997,-12 -12,-12 -36,-12 0.02344,-0.008 z"
       clip-path="none"
       mask="none"
       style="fill:#99cc33;fill-opacity:1;stroke-width:0.738726" />
  </g>
  <path
     style="fill:#000000;fill-opacity:1;fill-rule:nonzero;stroke:none;stroke-width:0.264583"
     id="path1"
     d="m 205.66737,72.852068 c -0.003,0.646764 0.003,1.29346 0.01,1.940178 0.0133,1.147049 0.0251,2.294114 0.0354,3.441192 0.008,0.88526 0.0142,1.770529 0.0201,2.655802 0.004,0.62224 0.88411,0.616397 0.87998,-0.0058 v 0 c -0.006,-0.885969 -0.0124,-1.771934 -0.0201,-2.657889 -0.0103,-1.14763 -0.0222,-2.295245 -0.0354,-3.442845 -0.007,-0.643524 -0.0128,-1.287025 -0.01,-1.930595 0,-0.622254 -0.88,-0.622254 -0.88,0 z" />
  <path
     style="fill:#000000;fill-opacity:1;fill-rule:nonzero;stroke:none;stroke-width:0.264583"
     id="path2"
     d="m 206.49964,77.264973 c 0.27233,-0.254951 0.55544,-0.49568 0.84706,-0.728274 0.63191,-0.506855 1.32022,-0.931795 2.02868,-1.321403 0.70404,-0.380181 1.45899,-0.643467 2.22448,-0.867311 0.57255,-0.160124 1.1719,-0.250511 1.76745,-0.199319 0.1088,0.0094 0.21629,0.03036 0.32443,0.04555 0.52863,0.11386 1.02219,0.35381 1.43303,0.707298 0.0791,0.06803 0.14959,0.145399 0.22438,0.218099 0.44035,0.514676 0.69379,1.112729 0.83877,1.767431 0.0366,0.397006 -0.0846,0.809386 -0.35857,1.108187 -0.0553,0.06026 -0.12344,0.107241 -0.18515,0.160861 -0.49531,0.409211 -1.10543,0.589053 -1.72658,0.699154 -0.69354,0.09743 -1.39991,0.08866 -2.09257,-0.0076 -0.66165,-0.104954 -1.29192,-0.332333 -1.91421,-0.572218 -0.50924,-0.192835 -0.98936,-0.451647 -1.4738,-0.698239 -0.36424,-0.172367 -0.71095,-0.378051 -1.06369,-0.572074 -0.19734,-0.09864 -0.38954,-0.207191 -0.58141,-0.315963 -0.54138,-0.306764 -0.97522,0.458867 -0.43383,0.765631 v 0 c 0.19518,0.110552 0.39058,0.221153 0.59128,0.321475 0.36102,0.198376 0.71582,0.40877 1.0885,0.585197 0.5114,0.260246 1.01873,0.532251 1.55658,0.735138 0.68636,0.264286 1.38277,0.510781 2.11294,0.623154 0.7848,0.103177 1.58269,0.119313 2.36753,0.0014 0.8157,-0.151201 1.52514,-0.379706 2.17192,-0.92373 0.10171,-0.09997 0.21329,-0.190789 0.30512,-0.299903 0.32378,-0.384756 0.51722,-0.916208 0.52484,-1.417415 0.002,-0.129797 -0.0206,-0.258809 -0.0308,-0.388213 -0.0284,-0.122336 -0.0513,-0.246098 -0.0853,-0.367009 -0.19129,-0.680666 -0.53893,-1.310877 -1.00412,-1.841909 -0.10054,-0.09458 -0.19604,-0.19483 -0.30163,-0.28373 -0.53074,-0.446815 -1.16854,-0.741758 -1.8469,-0.877223 -0.13779,-0.01761 -0.27488,-0.04197 -0.41337,-0.05284 -0.68834,-0.05406 -1.38051,0.04943 -2.04226,0.234395 -0.82673,0.242675 -1.64159,0.529136 -2.40153,0.940956 -0.75175,0.414476 -1.48237,0.866085 -2.15311,1.404435 -0.29628,0.236559 -0.58576,0.479747 -0.86151,0.740061 -0.47803,0.398357 0.0853,1.074392 0.56336,0.676034 z" />
  <path
     style="fill:#000000;fill-opacity:1;fill-rule:nonzero;stroke:none;stroke-width:0.264583"
     id="path3"
     d="m 205.77843,76.501437 c -0.43835,-0.02775 -0.87702,-0.0488 -1.31591,-0.06625 -0.8582,-0.02939 -1.71684,-0.04413 -2.57542,-0.05711 -1.22746,-0.02385 -2.4549,-0.01936 -3.68239,-0.0035 -1.51991,0.02656 -3.03912,0.08254 -4.55863,0.125435 -1.32615,0.03686 -2.65251,0.06498 -3.97892,0.09039 -0.94707,0.01753 -1.89412,0.03562 -2.84135,0.03929 -0.61717,-0.0072 -1.23398,-0.03128 -1.85083,-0.05126 -0.48181,-0.01292 -0.96345,-0.02901 -1.445,-0.04929 -0.38116,-0.01637 -0.76242,-0.03034 -1.14372,-0.04298 -0.28373,-0.01923 -0.56675,-0.04739 -0.85013,-0.07109 -0.26999,-0.02334 -0.54059,-0.03748 -0.81134,-0.04789 -0.35896,-0.01419 -0.71818,-0.02635 -1.07667,-0.04984 -0.40875,-0.02835 -0.81703,-0.06276 -1.22552,-0.09457 -0.36107,-0.02436 -0.72176,-0.05243 -1.08236,-0.08288 -0.052,-0.0043 -0.10402,-0.0085 -0.15604,-0.01279 -0.62017,-0.05083 -0.69206,0.826224 -0.0719,0.877059 v 0 c 0.0513,0.0042 0.10259,0.0084 0.15388,0.01261 0.36251,0.03062 0.72513,0.05887 1.08812,0.08335 0.41225,0.03208 0.82429,0.06683 1.23682,0.09537 0.36629,0.02357 0.73323,0.03687 1.09999,0.05104 0.25752,0.0098 0.5149,0.02327 0.77169,0.04547 0.29807,0.02491 0.59575,0.0551 0.89431,0.07366 0.37867,0.01254 0.7573,0.02643 1.13583,0.04268 0.48439,0.0204 0.96889,0.03661 1.45354,0.04961 0.62748,0.02032 1.25492,0.04493 1.88273,0.05171 0.95172,-0.0037 1.90325,-0.0218 2.85479,-0.03944 1.32907,-0.02547 2.6581,-0.05365 3.9869,-0.09058 1.51504,-0.04276 3.02977,-0.09856 4.5452,-0.125158 1.21926,-0.0158 2.43846,-0.02029 3.65769,0.0034 0.85137,0.01286 1.70279,0.02746 2.55378,0.05651 0.45055,0.01789 0.90073,0.04154 1.35085,0.06694 0.62225,0 0.62225,-0.88 0,-0.88 z" />
  <path
     style="fill:#000000;fill-opacity:1;fill-rule:nonzero;stroke:none;stroke-width:0.264583"
     id="path4"
     d="m 169.50514,73.810027 c -0.21071,0.198432 -0.37986,0.433114 -0.54083,0.672061 -0.34772,0.602748 -0.50165,1.282949 -0.607,1.963546 -0.0506,0.456946 -0.0716,0.922071 0.0139,1.376479 0.0528,0.280653 0.0935,0.369274 0.18471,0.636001 0.19099,0.501131 0.51001,0.937985 0.92438,1.278544 0.0883,0.07258 0.18382,0.135936 0.27573,0.203905 0.61822,0.418848 1.29086,0.589984 2.01608,0.711889 0.50576,0.05626 1.01512,0.02742 1.51351,-0.0726 0.28932,-0.05806 0.43452,-0.106404 0.71645,-0.188022 0.56676,-0.178932 1.10256,-0.443354 1.5839,-0.792614 0.089,-0.06458 0.17343,-0.135228 0.26014,-0.202842 0.41318,-0.374774 0.76437,-0.816659 1.01002,-1.31914 0.0471,-0.09629 0.0859,-0.196399 0.12885,-0.294599 0.22975,-0.560359 0.27786,-1.158789 0.27724,-1.757381 10e-4,-0.497626 -0.0883,-0.970941 -0.25002,-1.439409 -0.11936,-0.287449 -0.27826,-0.562573 -0.49206,-0.790871 -0.13424,-0.143338 -0.21037,-0.195906 -0.36222,-0.318093 -0.40862,-0.310677 -0.88783,-0.488755 -1.37533,-0.63143 -0.48614,-0.146968 -0.988,-0.204063 -1.49266,-0.235386 -0.5005,-0.01642 -0.99891,0.04852 -1.48883,0.145088 -0.42328,0.09812 -0.83616,0.233056 -1.23589,0.402618 -0.33873,0.144822 -0.62914,0.364927 -0.9027,0.607162 -0.46557,0.412852 0.11829,1.071264 0.58386,0.658412 v 0 c 0.20244,-0.179818 0.41251,-0.348526 0.66418,-0.456167 0.34321,-0.147486 0.69908,-0.261251 1.06226,-0.34894 0.41539,-0.08355 0.83847,-0.139219 1.26306,-0.129835 0.43988,0.02682 0.87733,0.07313 1.30111,0.202076 0.37797,0.108965 0.75321,0.239202 1.07328,0.475218 0.0888,0.06942 0.16182,0.121577 0.24083,0.200927 0.14382,0.144428 0.24747,0.325639 0.33055,0.510023 0.13249,0.371194 0.20081,0.755924 0.20058,1.151294 0.003,0.477644 -0.0266,0.956727 -0.20521,1.406014 -0.0322,0.07585 -0.0611,0.153155 -0.0965,0.227556 -0.18809,0.39543 -0.46107,0.742536 -0.77779,1.042663 -0.46551,0.368448 -0.97418,0.670607 -1.54656,0.842711 -0.60949,0.178435 -1.19975,0.308649 -1.84013,0.237417 -0.57699,-0.09411 -1.14731,-0.226583 -1.64181,-0.554991 -0.068,-0.04852 -0.13857,-0.09355 -0.20391,-0.145548 -0.30423,-0.242088 -0.54269,-0.551917 -0.68329,-0.914887 -0.0704,-0.197629 -0.10212,-0.265144 -0.14479,-0.472077 -0.0759,-0.368119 -0.052,-0.747306 -0.015,-1.118384 0.0832,-0.554001 0.20224,-1.10913 0.46884,-1.607529 0.14233,-0.215484 0.29905,-0.417629 0.4851,-0.597498 0.39835,-0.478028 -0.27768,-1.041391 -0.67604,-0.563362 z" />
  <path
     style="fill:#000000;fill-opacity:1;fill-rule:nonzero;stroke:none;stroke-width:0.264583"
     id="path5"
     d="m 175.3886,87.902254 c 0,-0.301068 0,-0.903205 0,-0.903205 -0.004,-0.581496 0.007,-1.561041 0.0163,-2.142425 0.008,-0.46228 0.0152,-0.924568 0.0216,-1.386872 0.005,-0.365514 0.008,-0.731046 0.0114,-1.096579 0.002,-0.212017 0.003,-0.424036 0.004,-0.636056 0.004,-0.622243 -0.87632,-0.627424 -0.87999,-0.0052 v 0 c -0.001,0.211244 -0.003,0.422489 -0.004,0.633731 -0.003,0.364011 -0.006,0.728021 -0.0113,1.092014 -0.006,0.46151 -0.0138,0.923005 -0.0215,1.384493 -0.01,0.586201 -0.0203,1.570563 -0.0165,2.156874 0,0 0,0.602137 0,0.903206 0,0.726888 0.87999,0.719674 0.87999,1.9e-5 z"
     sodipodi:nodetypes="scccscssccccss" />
  <path
     style="fill:#000000;fill-opacity:1;fill-rule:nonzero;stroke:none;stroke-width:0.264583"
     id="path6"
     d="m 174.52632,81.440924 c -0.20908,0.103427 -0.42584,0.19074 -0.64365,0.2739 -0.35008,0.1409 -0.7172,0.223609 -1.08673,0.293501 -0.39101,0.07282 -0.78907,0.100963 -1.18634,0.103631 -0.33875,0.0068 -0.66929,-0.05529 -0.99439,-0.144046 -0.27928,-0.0817 -0.51055,-0.249142 -0.72382,-0.440961 -0.22478,-0.205026 -0.38407,-0.465258 -0.52794,-0.730203 -0.16587,-0.305483 -0.27956,-0.634164 -0.37561,-0.967047 -0.0986,-0.335343 -0.15283,-0.680783 -0.20219,-1.026068 -0.0496,-0.359631 -0.08,-0.721504 -0.10528,-1.083536 -0.0271,-0.361676 -0.0195,-0.725186 0.005,-1.086762 0.0205,-0.387804 0.0818,-0.771113 0.14521,-1.153665 0.0661,-0.373918 0.15647,-0.742334 0.24937,-1.110225 0.0919,-0.378263 0.20046,-0.752023 0.33486,-1.117345 0.12048,-0.340602 0.27532,-0.666524 0.44782,-0.983405 0.15458,-0.263377 0.33827,-0.508171 0.54153,-0.735638 0.18496,-0.208716 0.42378,-0.355377 0.67242,-0.475925 0.29098,-0.141348 0.6112,-0.18754 0.9295,-0.219468 0.326,-0.03258 0.6532,-0.02656 0.97943,-0.0035 0.25377,0.02768 0.50492,0.07614 0.74634,0.15951 0.21904,0.08068 0.4248,0.192647 0.62633,0.309398 0.13017,0.07907 0.0629,0.03886 0.20187,0.120463 0.53669,0.314905 0.98203,-0.444087 0.44534,-0.758992 v 0 c -0.1334,-0.0782 -0.0644,-0.03714 -0.20689,-0.123392 -0.25242,-0.145568 -0.51073,-0.283628 -0.78595,-0.381508 -0.3136,-0.103709 -0.6367,-0.172814 -0.96602,-0.20336 -0.3766,-0.02581 -0.75436,-0.03212 -1.13058,0.006 -0.42277,0.04444 -0.84505,0.115931 -1.23005,0.306315 -0.34817,0.175057 -0.68064,0.384191 -0.93989,0.6803 -0.24624,0.278895 -0.47145,0.576425 -0.65671,0.899824 -0.19237,0.354976 -0.3658,0.719713 -0.50084,1.100797 -0.14378,0.394261 -0.26328,0.796436 -0.36173,1.204472 -0.0988,0.391528 -0.19438,0.783795 -0.26431,1.181799 -0.0681,0.411295 -0.13287,0.823546 -0.1552,1.240415 -0.0256,0.401088 -0.0347,0.804062 -0.004,1.205224 0.0268,0.383242 0.0593,0.766305 0.11203,1.146977 0.0554,0.38593 0.1178,0.771696 0.22814,1.146446 0.11488,0.394289 0.25154,0.783068 0.44899,1.144682 0.19448,0.352606 0.41278,0.694625 0.71558,0.965565 0.31788,0.27948 0.66614,0.516535 1.07883,0.632451 0.40266,0.107528 0.81239,0.182519 1.2312,0.174365 0.44975,-0.0047 0.90021,-0.03543 1.34282,-0.119043 0.42082,-0.08018 0.83859,-0.176641 1.23752,-0.336345 0.25619,-0.09852 0.51165,-0.200879 0.75606,-0.326352 0.54395,-0.302193 0.11659,-1.071452 -0.42736,-0.769258 z" />
  <path
     style="fill:#000000;fill-opacity:1;fill-rule:nonzero;stroke:none;stroke-width:0.264583"
     id="path7"
     d="m 175.36025,71.063098 c -0.0507,-0.340753 -0.0714,-0.685293 -0.0978,-1.028551 -0.0929,-1.173988 -0.10782,-2.352221 -0.12918,-3.529129 -0.0254,-1.54292 -0.0224,-3.086261 -0.0107,-4.629308 0.008,-0.812781 0.004,-0.414286 0.0134,-1.195485 0.007,-0.622209 -0.87247,-0.63277 -0.87993,-0.01056 v 0 c -0.009,0.783395 -0.005,0.383614 -0.0134,1.199345 -0.0118,1.550607 -0.0148,3.101509 0.0108,4.651989 0.0217,1.194091 0.0373,2.389501 0.13163,3.580619 0.0318,0.413612 0.0468,0.834033 0.14031,1.239362 0.19678,0.590322 1.03162,0.312042 0.83484,-0.27828 z" />
  <path
     style="fill:#000000;fill-opacity:1;fill-rule:nonzero;stroke:none;stroke-width:0.264583"
     id="path8"
     d="m 174.74411,85.654938 c -0.59481,-0.209172 -1.19221,-0.409493 -1.78212,-0.632561 -1.08535,-0.437216 -2.13,-0.967793 -3.18296,-1.476341 -1.28606,-0.624065 -2.58669,-1.218116 -3.89553,-1.792754 -1.13522,-0.494066 -2.28372,-0.9566 -3.42512,-1.436003 -0.68629,-0.290173 -1.36831,-0.590325 -2.04388,-0.904662 -0.56418,-0.262472 -0.93537,0.535411 -0.37119,0.797883 v 0 c 0.68567,0.318934 1.37777,0.62371 2.07431,0.918124 1.13707,0.477549 2.28117,0.938408 3.41214,1.43043 1.29914,0.570276 2.59005,1.160009 3.86656,1.779404 1.07637,0.519846 2.14435,1.062048 3.25463,1.507117 0.57595,0.217459 1.15742,0.417992 1.74043,0.61558 0.57009,0.249412 0.92281,-0.556808 0.35273,-0.806217 z" />
  <path
     style="fill:#000000;fill-opacity:1;fill-rule:nonzero;stroke:none;stroke-width:0.264583"
     id="path9"
     d="m 168.41059,75.03918 c -0.40812,-0.191121 -0.8136,-0.387716 -1.22271,-0.576836 -1.04279,-0.469984 -2.10609,-0.892067 -3.16587,-1.321659 -1.0627,-0.415005 -2.10791,-0.871505 -3.14666,-1.342681 -0.78226,-0.367288 -1.56945,-0.723623 -2.36023,-1.072134 -0.51921,-0.230324 -1.04479,-0.445899 -1.57501,-0.64952 -0.33445,-0.131281 -0.66818,-0.26433 -1.00146,-0.39855 -0.2821,-0.110584 -0.56441,-0.220605 -0.84148,-0.343371 -0.13803,-0.06058 -0.27511,-0.123288 -0.41253,-0.185233 -0.56729,-0.255709 -0.92892,0.546553 -0.36163,0.802263 v 0 c 0.13933,0.06281 0.27832,0.126377 0.41827,0.187796 0.28624,0.126342 0.57718,0.241155 0.86864,0.354838 0.3377,0.135991 0.67587,0.270824 1.01478,0.403788 0.51696,0.198429 1.02932,0.408717 1.53553,0.633254 0.7879,0.347238 1.57219,0.70236 2.35162,1.068284 1.04964,0.476067 2.10582,0.937316 3.17957,1.35681 1.04679,0.42432 2.09708,0.841118 3.12727,1.304925 0.40095,0.185272 0.79837,0.377969 1.19836,0.565122 0.55656,0.27828 0.95011,-0.508816 0.39354,-0.787096 z" />
  <path
     style="fill:#000000;fill-opacity:1;fill-rule:nonzero;stroke:none;stroke-width:0.264583"
     id="path10"
     d="m 174.73716,68.638808 c -0.39013,-0.134324 -0.77639,-0.279735 -1.16449,-0.419819 -0.94592,-0.332537 -1.90129,-0.636832 -2.84615,-0.972436 -0.97153,-0.358436 -1.9354,-0.73696 -2.89549,-1.124854 -0.81272,-0.334028 -1.624,-0.671425 -2.43078,-1.019565 -0.59993,-0.262533 -1.19899,-0.527067 -1.80224,-0.781895 -0.44176,-0.196494 -0.89136,-0.373245 -1.34673,-0.535344 -0.38368,-0.13048 -0.77255,-0.244899 -1.15983,-0.36405 -0.0506,-0.01558 -0.10124,-0.03115 -0.15186,-0.04673 -0.59474,-0.183 -0.85354,0.658084 -0.25881,0.841084 v 0 c 0.0506,0.01558 0.1013,0.03117 0.15194,0.04675 0.37513,0.115365 0.75175,0.226291 1.12358,0.35203 0.43944,0.156262 0.87309,0.327201 1.2993,0.516907 0.60118,0.25391 1.19811,0.517681 1.79599,0.779227 0.81309,0.350855 1.63071,0.690914 2.4498,1.027507 0.97172,0.392574 1.94727,0.775667 2.93065,1.138196 0.94349,0.334959 1.8972,0.639399 2.84188,0.970905 0.39927,0.144096 0.79651,0.29413 1.19824,0.431236 0.59337,0.18738 0.85837,-0.651772 0.265,-0.839153 z" />
  <path
     style="fill:#ff4400;fill-opacity:1;fill-rule:nonzero;stroke:none;stroke-width:0.264583"
     d="m 191.45137,71.446041 c -0.032,0.493899 -0.10095,1.794922 -0.14904,2.287586 -0.0252,0.58135 0.81716,0.632693 0.87778,0.0627 v -2e-6 c 0.0525,-0.494094 0.11725,-1.79748 0.14942,-2.293266"
     id="path21" />
  <path
     style="fill:#000000;fill-opacity:1;fill-rule:nonzero;stroke:none;stroke-width:0.264583"
     d="m 192.32953,71.503059 c 0.0717,-1.050956 0.14949,-2.177486 0.27091,-3.223957 0.17233,-1.419953 0.40569,-2.831042 0.66908,-4.236638 0.30374,-1.552381 0.65381,-3.095206 1.02203,-4.633403 0.32896,-1.393018 0.72344,-2.769026 1.1289,-4.141303 0.34874,-1.168797 0.74062,-2.324055 1.15666,-3.470429 0.40346,-1.08358 0.84808,-2.151065 1.30699,-3.212137 0.42187,-0.988896 0.89472,-1.954122 1.39282,-2.906456 0.44272,-0.831029 0.90037,-1.653907 1.35898,-2.476224 0.32628,-0.581465 0.65186,-1.163603 0.994,-1.73595 0.23923,-0.402069 0.47327,-0.806921 0.72808,-1.199425 0.0346,-0.05482 0.0692,-0.109646 0.10387,-0.164468 0.3322,-0.526163 -0.41191,-0.995958 -0.7441,-0.469794 v 0 l -0.0981,0.15543 c -0.26032,0.401759 -0.50091,0.815228 -0.74517,1.226849 -0.34646,0.579977 -0.67673,1.169535 -1.00715,1.758733 -0.46245,0.829206 -0.92391,1.658995 -1.37022,2.497044 -0.50801,0.971545 -0.9903,1.956221 -1.42073,2.964966 -0.46583,1.07728 -0.91717,2.161077 -1.32651,3.261281 -0.42197,1.16319 -0.81968,2.3353 -1.17337,3.521236 -0.40978,1.38701 -0.80828,2.777842 -1.14078,4.185801 -0.37153,1.552416 -0.72488,3.109471 -1.03117,4.676231 -0.26696,1.425781 -0.50373,2.85709 -0.67828,4.297431 -0.12264,1.061228 -0.20262,2.2024 -0.2749,3.268164"
     id="path13" />
  <path
     style="fill:#000000;fill-opacity:1;fill-rule:nonzero;stroke:none;stroke-width:0.264583"
     id="path14"
     d="m 202.20215,39.237114 c -0.44746,-0.226023 -0.906,-0.429477 -1.36319,-0.634841 -0.91764,-0.398521 -1.82199,-0.826006 -2.72097,-1.264701 -1.20092,-0.613648 -2.38788,-1.254487 -3.57616,-1.892239 -1.24308,-0.658442 -2.47457,-1.338527 -3.69502,-2.037953 -1.22527,-0.712332 -2.4408,-1.441217 -3.65141,-2.178142 -1.35672,-0.812221 -2.68799,-1.665259 -4.00911,-2.533817 -1.37011,-0.902692 -2.68253,-1.885768 -3.97062,-2.900752 -1.30158,-1.034306 -2.56868,-2.110202 -3.81203,-3.213487 -1.09747,-0.987253 -2.16046,-2.011879 -3.22511,-3.034163 -0.43415,-0.420476 -0.86355,-0.845793 -1.29315,-1.270899 -0.4423,-0.437685 -1.06128,0.18783 -0.61897,0.625512 v 0 c 0.43273,0.428209 0.86528,0.856628 1.30262,1.280144 1.07298,1.030274 2.14435,2.062848 3.25056,3.057647 1.25623,1.114593 2.53638,2.201599 3.85147,3.246473 1.30795,1.030412 2.64065,2.028396 4.03181,2.944847 1.32965,0.874144 2.66953,1.732656 4.03497,2.550181 1.21723,0.740947 2.43942,1.473827 3.67144,2.189983 1.22759,0.703373 2.46609,1.387594 3.71641,2.049809 1.19825,0.643099 2.39512,1.289431 3.60639,1.907725 0.90738,0.442741 1.82015,0.874265 2.74631,1.276572 0.44609,0.200367 0.89365,0.398608 1.33021,0.619197 0.55656,0.27828 0.95011,-0.508815 0.39355,-0.787096 z" />
  <path
     style="fill:#000000;fill-opacity:1;fill-rule:nonzero;stroke:none;stroke-width:0.264583"
     id="path15"
     d="m 197.69483,48.572625 c -0.0992,-0.402416 -0.21423,-0.800974 -0.32779,-1.199574 -0.22722,-0.814493 -0.45862,-1.627817 -0.68695,-2.442003 -0.23877,-0.850699 -0.46009,-1.706158 -0.69653,-2.557476 -0.22114,-0.797343 -0.46849,-1.586928 -0.71742,-2.375908 -0.21118,-0.684421 -0.43991,-1.363141 -0.66488,-2.043089 -0.1547,-0.485505 -0.32413,-0.96612 -0.47635,-1.452414 -0.11836,-0.346972 -0.22629,-0.697185 -0.33236,-1.048038 -0.18008,-0.595625 -1.02243,-0.340948 -0.84234,0.254677 v 0 c 0.10693,0.353634 0.21554,0.706689 0.33492,1.056386 0.15379,0.490725 0.3243,0.975924 0.48067,1.465818 0.2237,0.676071 0.45117,1.350912 0.66112,2.031444 0.24588,0.77928 0.49031,1.559124 0.70874,2.346661 0.23673,0.851985 0.45803,1.708198 0.69712,2.559553 0.22866,0.815364 0.46039,1.629863 0.68794,2.445533 0.1095,0.384263 0.22051,0.768496 0.31665,1.156306 0.13992,0.606319 0.99739,0.408443 0.85746,-0.197876 z" />
  <path
     style="fill:#000000;fill-opacity:1;fill-rule:nonzero;stroke:none;stroke-width:0.264583"
     id="path16"
     d="m 198.06589,43.909629 c -0.0907,-0.361675 -0.19075,-0.721011 -0.28542,-1.081693 -0.14321,-0.545198 -0.27514,-1.093235 -0.41383,-1.639581 -0.11648,-0.448598 -0.23346,-0.897051 -0.35982,-1.342972 -0.0839,-0.295262 -0.17401,-0.588711 -0.26254,-0.882602 -0.0435,-0.146831 -0.0224,-0.07479 -0.0633,-0.216093 -0.17291,-0.597747 -1.01825,-0.353211 -0.84534,0.244535 v 0 c 0.0428,0.147985 0.0208,0.07285 0.066,0.225386 0.0871,0.289274 0.17588,0.578117 0.25847,0.868727 0.12418,0.438134 0.23902,0.87879 0.35354,1.319544 0.13928,0.548645 0.27173,1.098999 0.41561,1.646475 0.0913,0.347753 0.18687,0.694418 0.27612,1.04266 0.13038,0.608441 0.99084,0.424055 0.86046,-0.184386 z" />
  <path
     style="fill:#000000;fill-opacity:1;fill-rule:nonzero;stroke:none;stroke-width:0.264583"
     d="m 182.15033,36.094827 c -0.21093,-1.20486 -0.35036,-1.828188 -0.64573,-3.015654 -0.28489,-1.186315 -0.59012,-2.368222 -0.95083,-3.534058 -0.29105,-0.919723 -0.60312,-1.833816 -1.00557,-2.711913 -0.18129,-0.391255 -0.36104,-0.785574 -0.61095,-1.139119 -0.38445,-0.489291 -1.07641,0.05439 -0.69196,0.543682 v 2e-6 c 0.20244,0.30294 0.35181,0.635439 0.50435,0.965171 0.38643,0.844344 0.68556,1.723361 0.96511,2.607575 0.35429,1.146098 0.65425,2.307934 0.93417,3.474108 0.29108,1.169681 0.42692,1.775063 0.63459,2.961923"
     id="path19" />
  <path
     style="fill:#ff4400;fill-opacity:1;fill-rule:nonzero;stroke:none;stroke-width:0.264583"
     d="m 181.28351,36.246544 c 0.18701,1.072742 0.41189,2.731773 0.52622,3.814334 0.0644,0.67006 0.12894,1.340856 0.15108,2.013953 0.0141,0.42858 0.009,0.530656 0.005,0.955032 -0.009,0.540697 -0.0569,1.080482 -0.1458,1.613919 -0.0189,0.113511 -0.0369,0.227319 -0.0623,0.339566 -0.0227,0.100438 -0.0545,0.198594 -0.0818,0.297892 -0.13689,0.437562 -0.39189,0.826666 -0.71356,1.151382 -0.0594,0.05997 -0.1236,0.114995 -0.18541,0.172495 -0.23639,0.192563 -0.47579,0.397922 -0.75875,0.520673 -0.089,0.0386 -0.25142,0.07606 -0.34241,0.09942 -0.22703,0.02222 -0.46365,-0.0024 -0.6819,-0.07096 -0.13887,-0.04361 -0.20996,-0.08603 -0.34059,-0.151492 -0.1701,-0.112033 -0.33713,-0.231384 -0.47719,-0.380627 -0.15663,-0.166905 -0.27583,-0.36054 -0.39478,-0.554509 -0.18792,-0.350271 -0.33803,-0.729517 -0.38658,-1.12668 -0.01,-0.07842 -0.0118,-0.157578 -0.0176,-0.236368 -0.0286,-0.568021 0.12075,-1.118378 0.29352,-1.653469 0.21487,-0.609417 0.54487,-1.167789 0.90688,-1.699784 0.30838,-0.461743 0.71781,-0.834403 1.15043,-1.176094 0.22995,-0.176141 0.47339,-0.338098 0.74059,-0.452461 0.14666,-0.06277 0.18143,-0.06784 0.33131,-0.110763 0.27485,-0.06556 0.44447,-0.02291 0.68761,0.103468 0.14658,0.07742 0.27408,0.183515 0.39835,0.291817 0.47116,0.406466 1.04599,-0.259844 0.57483,-0.666311 v 0 c -0.182,-0.155874 -0.36978,-0.306294 -0.58482,-0.415178 -0.0642,-0.0306 -0.12674,-0.065 -0.19261,-0.0918 -0.36443,-0.148249 -0.75363,-0.16501 -1.1332,-0.06578 -0.21096,0.0639 -0.25894,0.07159 -0.46325,0.161679 -0.3254,0.143486 -0.6244,0.339342 -0.90548,0.555731 -0.50141,0.398748 -0.97401,0.835001 -1.33196,1.371608 -0.40767,0.602372 -0.77806,1.234443 -1.0166,1.924989 -0.0367,0.114888 -0.0763,0.228875 -0.11,0.34466 -0.15594,0.535381 -0.25153,1.091594 -0.22258,1.650584 0.01,0.106389 0.0141,0.213334 0.0285,0.31917 0.0689,0.506251 0.25874,0.989713 0.50468,1.434523 0.13281,0.212553 0.18174,0.304604 0.33902,0.501073 0.2484,0.310312 0.55215,0.563118 0.89602,0.761863 0.0847,0.04038 0.16744,0.08531 0.25419,0.121136 0.34005,0.140431 0.72309,0.213953 1.09178,0.196514 0.0965,-0.0046 0.19171,-0.02405 0.28756,-0.03608 0.21467,-0.05847 0.32395,-0.07964 0.53208,-0.174292 0.35095,-0.159594 0.65298,-0.410355 0.94602,-0.655357 0.0783,-0.07435 0.15976,-0.145571 0.23499,-0.223059 0.41545,-0.427919 0.73608,-0.941163 0.91066,-1.512814 0.0326,-0.122872 0.07,-0.244565 0.0978,-0.36862 0.0272,-0.121441 0.0466,-0.244504 0.0669,-0.367289 0.0947,-0.574355 0.14567,-1.155385 0.15549,-1.737413 0.003,-0.446114 0.009,-0.552805 -0.006,-1.003067 -0.0231,-0.690256 -0.0887,-1.378196 -0.155,-2.06534 -0.11651,-1.102389 -0.34401,-2.781203 -0.53452,-3.873591"
     id="path17" />
  <path
     style="fill:#000000;fill-opacity:1;fill-rule:nonzero;stroke:none;stroke-width:0.264583"
     d="m 180.28319,51.182079 c 0.1906,0.49945 0.39603,0.993124 0.61673,1.480067 0.22704,0.488529 0.46694,0.971787 0.74524,1.433531 0.27456,0.455019 0.56647,0.899139 0.86588,1.338181 0.33229,0.484864 0.65808,0.974206 0.99716,1.454393 0.34507,0.487611 0.69498,0.971609 1.06296,1.442313 0.42457,0.55073 0.85843,1.094218 1.28997,1.639486 0.48936,0.611172 0.98729,1.215253 1.4897,1.81575 0.44071,0.525926 0.87774,1.05558 1.28351,1.609235 0.36726,0.494442 0.73464,0.989481 1.07652,1.50195 0.29502,0.457187 0.58556,0.917941 0.84449,1.396805 0.2151,0.414836 0.41947,0.836726 0.57376,1.278563 0.11804,0.348454 0.2155,0.702331 0.27256,1.066474 0.0513,0.26876 0.10695,0.537901 0.12743,0.811188 0.0121,0.125772 0.021,0.252758 0.033,0.377918 0.004,0.622238 0.88444,0.61593 0.87998,-0.0063 l 9e-5,-1e-6 c -0.0101,-0.152216 -0.0224,-0.304254 -0.0371,-0.456123 -0.0229,-0.300283 -0.0827,-0.596142 -0.13893,-0.891511 -0.0642,-0.403741 -0.17301,-0.796385 -0.30324,-1.183164 -0.16794,-0.484462 -0.39084,-0.947076 -0.6261,-1.401766 -0.27129,-0.503909 -0.57638,-0.988497 -0.88645,-1.469159 -0.35197,-0.528962 -0.73077,-1.039618 -1.10952,-1.549581 -0.41597,-0.567486 -0.86375,-1.110551 -1.31543,-1.649691 -0.49823,-0.595498 -0.99202,-1.194523 -1.47731,-1.800604 -0.42811,-0.541067 -0.8587,-1.080239 -1.27992,-1.626715 -0.3607,-0.461177 -0.70346,-0.935549 -1.04159,-1.413383 -0.33643,-0.476655 -0.65983,-0.962283 -0.9896,-1.443527 -0.28956,-0.425092 -0.57269,-0.854592 -0.83819,-1.295153 -0.26179,-0.43475 -0.48722,-0.889862 -0.70073,-1.349811 -0.21177,-0.468259 -0.40961,-0.94268 -0.59258,-1.422895"
     id="path20" />
  <path
     style="fill:#ff4400;fill-opacity:1;fill-rule:nonzero;stroke:none;stroke-width:0.264583"
     d="m 181.10552,50.868541 c -0.16292,-0.412913 -0.29844,-0.835927 -0.41765,-1.263306 -0.11775,-0.431208 -0.21243,-0.868416 -0.30742,-1.305099 -0.0826,-0.385088 -0.15814,-0.771567 -0.23783,-1.157245 -0.0734,-0.347786 -0.12745,-0.699044 -0.17237,-1.051506 -0.038,-0.309726 -0.0696,-0.620105 -0.0862,-0.931729 -0.007,-0.24971 -0.004,-0.500382 0.02,-0.749166 0.0272,-0.242061 0.0509,-0.484432 0.0822,-0.725994 0.019,-0.14976 0.01,-0.07532 0.0277,-0.223302 0.0752,-0.617697 -0.7984,-0.723987 -0.87355,-0.106289 v 0 c -0.0174,0.142833 -0.008,0.07064 -0.0269,0.216567 -0.0327,0.252754 -0.0579,0.506322 -0.086,0.759625 -0.0254,0.29108 -0.0329,0.583755 -0.0223,0.875815 0.0181,0.33308 0.0511,0.664914 0.092,0.995951 0.048,0.374771 0.10544,0.748283 0.18349,1.11811 0.0803,0.388679 0.15647,0.778171 0.23975,1.166246 0.0986,0.453416 0.19719,0.907324 0.31981,1.354972 0.12697,0.453127 0.27009,0.901936 0.44289,1.339888"
     id="path18" />
  <path
     style="fill:#000000;fill-opacity:1;fill-rule:nonzero;stroke:none;stroke-width:0.264583"
     id="path22"
     d="m 171.01915,22.328954 c -0.0275,-0.278831 -0.0578,-0.557231 -0.0802,-0.83657 -0.0294,-0.46183 -0.005,-0.341803 -0.0419,-0.803062 -0.0384,-0.4758 -0.0853,-0.950799 -0.13726,-1.425287 -0.0467,-0.426725 -0.085,-0.854286 -0.13024,-1.28116 -0.0469,-0.477411 -0.11566,-0.952187 -0.18896,-1.42613 -0.0725,-0.472977 -0.18489,-0.938671 -0.31298,-1.399315 -0.11397,-0.365932 -0.25749,-0.72629 -0.45633,-1.055222 -0.0378,-0.06258 -0.08,-0.12241 -0.12007,-0.183613 -0.17431,-0.244695 -0.38924,-0.458608 -0.63734,-0.628634 -0.17728,-0.121489 -0.24686,-0.149773 -0.43773,-0.248148 -0.31055,-0.140541 -0.6324,-0.259233 -0.96427,-0.338928 -0.20625,-0.04953 -0.29445,-0.05918 -0.50089,-0.09139 -0.33243,-0.03485 -0.67295,-0.03205 -0.99908,0.0497 -0.2366,0.05931 -0.27448,0.0892 -0.49667,0.191016 -0.29321,0.156676 -0.55799,0.359802 -0.79221,0.595151 -0.128,0.128617 -0.17664,0.191487 -0.29223,0.328094 -0.16489,0.201268 -0.31019,0.419746 -0.42597,0.653045 -0.0707,0.142419 -0.0848,0.188483 -0.14121,0.334137 -0.0906,0.267932 -0.13138,0.549137 -0.1215,0.831749 0.002,0.05172 0.007,0.10324 0.0109,0.154861 0.0198,0.313914 0.14177,0.600649 0.28603,0.875254 0.14846,0.267198 0.35105,0.493692 0.57117,0.703006 0.24524,0.225314 0.52674,0.405114 0.81284,0.573292 0.27769,0.159723 0.56774,0.296537 0.86347,0.419105 0.31596,0.126553 0.64447,0.215101 0.97434,0.296479 0.31353,0.08286 0.63161,0.1457 0.95228,0.193093 0.37444,0.05424 0.75291,0.05433 1.13027,0.04988 0.41906,-0.0036 0.8376,-0.02307 1.25583,-0.04821 0.4372,-0.02666 0.87325,-0.06763 1.30938,-0.107513 0.34935,-0.03202 0.699,-0.06068 1.04902,-0.0843 0.25841,-0.01696 0.51699,-0.03105 0.77563,-0.04381 0.12754,-0.0052 0.25495,-0.0122 0.38232,-0.02045 0.62094,-0.04037 0.56386,-0.918511 -0.0571,-0.878147 v 0 c -0.12279,0.008 -0.24564,0.01471 -0.3686,0.01968 -0.26395,0.01302 -0.52784,0.02741 -0.79155,0.04474 -0.35697,0.02413 -0.71357,0.05327 -1.06987,0.08595 -0.42703,0.03905 -0.85398,0.07929 -1.28207,0.105442 -0.40418,0.02432 -0.80864,0.04328 -1.21362,0.04669 -0.33111,0.0041 -0.66328,0.0061 -0.99198,-0.04063 -0.29296,-0.04256 -0.58318,-0.101317 -0.8695,-0.176866 -0.28727,-0.07063 -0.57364,-0.146365 -0.84917,-0.255506 -0.25848,-0.106034 -0.51124,-0.226414 -0.75407,-0.364797 -0.2291,-0.133845 -0.45567,-0.275767 -0.65357,-0.453818 -0.15193,-0.142217 -0.29317,-0.294781 -0.39822,-0.475975 -0.0898,-0.166529 -0.1735,-0.338003 -0.18586,-0.530069 -0.0181,-0.204504 -0.009,-0.408189 0.0552,-0.604877 0.10181,-0.271129 0.23108,-0.511466 0.41835,-0.734619 0.22831,-0.272793 0.47241,-0.522819 0.78847,-0.694978 0.0471,-0.02368 0.0928,-0.05042 0.14136,-0.07102 0.26531,-0.112599 0.56071,-0.118901 0.84337,-0.095 0.15543,0.02352 0.25005,0.03467 0.40367,0.07075 0.27374,0.06429 0.5391,0.161214 0.7962,0.274085 0.12251,0.06126 0.19554,0.09284 0.30838,0.167505 0.16703,0.110535 0.31395,0.248909 0.43199,0.410683 0.0287,0.0426 0.0592,0.08404 0.086,0.127794 0.1645,0.267864 0.28176,0.56288 0.37647,0.861528 0.11924,0.427109 0.22357,0.859066 0.29105,1.297681 0.0712,0.460037 0.1381,0.920877 0.18351,1.384298 0.0453,0.427886 0.0837,0.856482 0.13056,1.284216 0.051,0.466034 0.0972,0.932571 0.13486,1.399897 0.037,0.461237 0.0123,0.341195 0.0419,0.802999 0.0205,0.255674 0.0416,0.512548 0.0773,0.766259 0,0.622255 0.88,0.622255 0.88,0 z"
     sodipodi:nodetypes="cccscccscscscscscscccccccccccccccsscccccccccccccccscscsccccccccccc" />
  <path
     style="fill:#000000;fill-opacity:1;fill-rule:nonzero;stroke:none;stroke-width:0.264583"
     id="path11"
     d="m 192.8556,42.218067 c -0.2586,0.01894 -0.5174,0.0345 -0.77642,0.04711 -0.46458,0.0209 -0.92955,0.03169 -1.39456,0.03636 -0.52669,0.0051 -1.05324,-0.01423 -1.5797,-0.02753 -0.46435,-0.01042 -0.9285,-0.02801 -1.3927,-0.0434 -0.31754,-0.01622 -0.63569,-0.02482 -0.95273,-0.04949 -0.25994,-0.02098 -0.5191,-0.05014 -0.77871,-0.07465 -0.21764,-0.01754 -0.43346,-0.05197 -0.65,-0.07941 -0.17184,-0.01855 -0.34004,-0.05802 -0.50949,-0.09056 -0.0294,-0.0053 -0.0588,-0.01058 -0.0883,-0.01588 -0.61245,-0.110022 -0.76804,0.756116 -0.15559,0.866135 v 0 c 0.0261,0.0047 0.0522,0.0093 0.0783,0.01402 0.18771,0.03586 0.37418,0.07879 0.5645,0.09931 0.22583,0.02858 0.45091,0.06435 0.67791,0.0825 0.26479,0.02495 0.5291,0.05481 0.79424,0.07598 0.32975,0.02487 0.66044,0.03554 0.9907,0.05157 0.46652,0.01545 0.933,0.03314 1.39967,0.0436 0.53682,0.01355 1.07374,0.03318 1.6108,0.02776 0.47632,-0.0049 0.95261,-0.01582 1.4285,-0.03736 0.26564,-0.01297 0.53103,-0.02915 0.79626,-0.0483 0.62068,-0.04433 0.55798,-0.922097 -0.0627,-0.877763 z" />
  <path
     style="fill:#000000;fill-opacity:1;fill-rule:nonzero;stroke:none;stroke-width:0.264583"
     id="path12"
     d="m 189.46623,40.359597 c -0.12469,0.116565 -0.25925,0.221933 -0.39219,0.328785 -0.24694,0.1935 -0.49618,0.384024 -0.74211,0.5788 -0.21123,0.168627 -0.4221,0.337722 -0.63144,0.508696 -0.15555,0.124023 -0.30479,0.255621 -0.45584,0.384995 -0.47252,0.404876 0.10006,1.073118 0.57258,0.668242 v 0 c 0.14575,-0.124939 0.2898,-0.251965 0.43994,-0.371687 0.20592,-0.168203 0.41338,-0.334534 0.62116,-0.50043 0.24755,-0.196112 0.49861,-0.387712 0.74703,-0.582729 0.14683,-0.11803 0.29501,-0.234881 0.43283,-0.363524 0.46043,-0.418574 -0.13153,-1.069721 -0.59196,-0.651148 z" />
  <path
     style="fill:#000000;fill-opacity:1;fill-rule:nonzero;stroke:none;stroke-width:0.264583"
     id="path23"
     d="m 186.98355,42.836388 c 0.065,0.14428 0.16567,0.268481 0.26289,0.391941 0.11413,0.144936 0.12744,0.157943 0.25375,0.307707 0.32869,0.391618 0.68032,0.762964 1.02555,1.139831 0.22442,0.240212 0.4412,0.487317 0.6575,0.734816 0.40947,0.468543 1.07209,-0.110537 0.66262,-0.57908 v 0 c -0.22082,-0.252666 -0.44219,-0.504875 -0.67123,-0.750162 -0.33723,-0.368121 -0.68086,-0.730737 -1.00208,-1.113145 -0.1293,-0.152921 -0.2611,-0.307041 -0.37669,-0.470368 -0.23933,-0.574389 -1.05164,-0.235926 -0.81231,0.33846 z" />
</svg>
