<?xml version="1.0" encoding="UTF-8" standalone="no"?>
<svg
   enable-background="new 0 0 80 240"
   height="204.6866"
   viewBox="0 0 292.73804 204.6866"
   width="292.73804"
   version="1.1"
   id="svg68"
   sodipodi:docname="48 jan li jo e pan..svg"
   inkscape:version="1.3 (0e150ed6c4, 2023-07-21)"
   xmlns:inkscape="http://www.inkscape.org/namespaces/inkscape"
   xmlns:sodipodi="http://sodipodi.sourceforge.net/DTD/sodipodi-0.dtd"
   xmlns="http://www.w3.org/2000/svg"
   xmlns:svg="http://www.w3.org/2000/svg"
   xmlns:rdf="http://www.w3.org/1999/02/22-rdf-syntax-ns#"
   xmlns:cc="http://creativecommons.org/ns#"
   xmlns:dc="http://purl.org/dc/elements/1.1/">
  <metadata
     id="metadata74">
    <rdf:RDF>
      <cc:Work
         rdf:about="">
        <dc:format>image/svg+xml</dc:format>
        <dc:type
           rdf:resource="http://purl.org/dc/dcmitype/StillImage" />
        <dc:title />
      </cc:Work>
    </rdf:RDF>
  </metadata>
  <defs
     id="defs72" />
  <sodipodi:namedview
     pagecolor="#ffffff"
     bordercolor="#666666"
     borderopacity="1"
     objecttolerance="10"
     gridtolerance="10"
     guidetolerance="10"
     inkscape:pageopacity="0"
     inkscape:pageshadow="2"
     inkscape:window-width="1920"
     inkscape:window-height="1051"
     id="namedview70"
     showgrid="false"
     fit-margin-top="0"
     fit-margin-left="0"
     fit-margin-right="0"
     fit-margin-bottom="0"
     inkscape:zoom="1.4142136"
     inkscape:cx="146.72465"
     inkscape:cy="37.123105"
     inkscape:window-x="-9"
     inkscape:window-y="-9"
     inkscape:window-maximized="1"
     inkscape:current-layer="svg68"
     inkscape:showpageshadow="2"
     inkscape:pagecheckerboard="0"
     inkscape:deskcolor="#d1d1d1" />
  <path
     d="m 24.8,27.192878 c -3.4,0.9 -6.1,3.6 -6.3,11.2 -0.2,7.6 -2.2,16.1 -4.7,20.8 -2.5,4.7 -7.3000004,15.8 -8.0000004,16.3 -0.7,0.4 -3.6,3.1 -4.4,4.8 -1.39999998146973,3 -1.89999998,9.2 0.2,10 2.1,0.8 2.8,-4.9 3.3,-5.7 0.5,-0.8 3.8,-3.1 3.8,-3.8 0,-0.7 -0.1,-0.7 -0.1,-0.7 0,0 5.1000004,-6.1 7.9000004,-9.4 2.8,-3.3 7.3,-9.6 7.7,-11.9 0.6,-2.4 9.8,-34.1 0.6,-31.6 z"
     id="path2"
     inkscape:connector-curvature="0"
     style="fill:#fbd7c7" />
  <path
     d="m 18.2,179.79288 c -11.8000004,7.6 -12.4000004,14.4 0,21 13.5,7.2 22.4,3.3 32.9,-2.7 10.5,-6 11.8,-13.4 -3.6,-19.5 -12.5,-5 -20.4,-4.5 -29.3,1.2 z"
     id="path4"
     inkscape:connector-curvature="0"
     style="opacity:0.2" />
  <path
     d="m 36.2,28.292878 c 0,0 -9.1,-4 -12.3,0.3 -3.2,4.3 -1.7,11 -1.7,11 0,0 -5.3,6 -5.3,9.4 0,3.3 5.1,6.5 5.1,6.5 0,0 0.6,15.8 -0.3,22.3 -0.9,6.5 -3.8,23.300002 -3.1,33.900002 0.7,10.6 1.6,25 1.9,29.2 0.3,4.1 2.2,10 3,14.8 0.9,4.8 4.1,13.2 0.9,19.6 -3.2,6.4 -6.1,9.3 -7.4,10.5 -1.3,1.2 0.2,5.2 3,4.5 2.8,-0.7 7.2,-7.1 9.9,-8.1 2.7,-1.1 7.2,-4 6,-7.7 -1.2,-3.6 -1.7,-2.2 -2,-5.3 -0.3,-3.1 2.2,-16.7 1.3,-22.8 -0.9,-6.1 -3.2,-7.8 -3.6,-8.8 -0.4,-1 5.7,-29.5 5.7,-29.5 0,0 1.2,27.3 1.1,30.2 -0.1,2.9 2.1,17.7 2.7,24.6 0.7,7 1,18.8 -2,22.9 -2.9,4.1 -8,10.3 -6,11.7 2,1.4 8.3,2.7 9.8,-0.9 1.5,-3.6 5.3,-11.1 6.7,-13.1 1.4,-2 1.9,-3.1 1,-5 -0.9,-1.9 -1.5,-5 -0.5,-10.3 1,-5.3 4.1,-14.7 3.3,-19.7 -0.8,-5 -3.2,-8.1 -2.9,-11.7 0.3,-3.5 8.1,-24.8 6.6,-39.700002 -1.6,-14.8 -9,-17.5 -10.3,-23.5 -1.3,-6 3,-13.9 5.2,-18.2 2.2,-4.2 5.3,-11.6 2.6,-14.2 -2.7,-2.7 -5.9,-4.4 -7.1,-6.4 -1.2,-2 -2.5,-8.2 -2.5,-8.2 z"
     id="path6"
     inkscape:connector-curvature="0"
     style="fill:#fbd7c7" />
  <path
     d="m 18.8,183.89288 c 0,0 -4.9,1.7 -5.9,3.9 -0.8,1.8 -0.5,3.9 1.2,5 1.8,1 5.2,1.3 8.2,-0.4 2.9,-1.7 6.8,-8.4 7.5,-8.7 0.7,-0.3 0.2,3.7 0.2,3.7 l 2.1,1.1 2.3,-0.9 c 0,0 -0.2,-4.5 0.7,-6 0.9,-1.5 2.6,-3.9 2,-6.9 -0.6,-3 -2.6,-3.3 -2.6,-3.3 0,0 0,3.5 -4,7.3 -3.8,3.6 -5.9,9.6 -9.2,9.3 -4.5,-0.7 -2.5,-4.1 -2.5,-4.1 z"
     id="path8"
     inkscape:connector-curvature="0"
     style="fill:#2d3134" />
  <path
     d="m 35.7,190.69288 c 0,0 -4.6,3.5 -4.9,5.7 -0.3,2.2 -0.2,3.7 2.9,4.7 3.1,1 7.1,-0.2 9,-1.8 1.9,-1.6 4.4,-5.8 4.4,-5.8 l 2,1.1 2.3,-1.1 c 0,0 -0.3,-2.7 0.4,-5.1 0.7,-2.4 1.4,-4.4 1.4,-7.4 0,-3 -2.8,-3.3 -2.8,-3.3 0,0 1.7,1.6 -0.8,5.1 -2.5,3.5 -4.4,11.3 -8.1,11.5 -7,0.5 -5.8,-3.6 -5.8,-3.6 z"
     id="path10"
     inkscape:connector-curvature="0"
     style="fill:#2d3134" />
  <path
     d="m 54.2,84.392878 c -2.2,-3.5 -11.6,-10.6 -2.1,-28.8 2.2,-4.2 5.3,-11.6 2.6,-14.2 -2.7,-2.7 -5.9,-4.4 -7.1,-6.4 -1.2,-2 -2.5,-8.2 -2.5,-8.2 l -8.9,1.6 -5.5,-2 c 0,0 -2.5,-0.4 -7.3,1 -4.8,1.4 -5.7,10 -5.8,14.8 0,0.8 -0.1,1.7 -0.2,2.5 -0.7,1.3 -1.2,2.7 -1.2,4.4 0,0.4 0.1,0.8 0.2,1.2 -0.9,3.8 -2.1,6.7 -2.1,6.7 l 7.6,4.4 c 0.2,2.1 0.4,4.7 0.4,7.5 0,2.9 -5,26.6 -6,30.1 -1.9,6.800002 -4.2,32.100002 -3.7,33.100002 2.1,4.2 12.6,3.2 17.4,7.6 4.8,4.4 17.8,3.7 24,1.6 6.2,-2.1 9.4,-5.8 9.2,-6.5 -4.7,-19.1 -3.6,-42.000002 -9,-50.400002 z"
     id="path12"
     inkscape:connector-curvature="0"
     style="fill:#3399cc" />
  <path
     d="m 41.9,82.792878 c 4.6,-1.1 8.5,-3.7 9.3,-4.1 -0.8,-0.9 -1.4,-1.5 -1.4,-1.6 0,0 -7.3,4.4 -17.3,3.6 -10,-0.8 -11.5,-3 -11.5,-3 -1.4,6.7 -4.9,17.6 -5.9,21.2 -1.9,6.800002 -5.2000004,17.900002 -4.7,18.800002 2.1,4.2 13,3.2 17.8,7.6 4.8,4.4 18.9,1.3 18.9,1.3 0,0 1.1,-17.1 -2.6,-33.400002 -0.8,-3.3 -2,-7.7 -2.6,-10.4 z"
     id="path14"
     inkscape:connector-curvature="0"
     style="fill:#ffffff" />
  <path
     d="m 31.1,27.792878 -4.2,20.1 18.2,-11.9 -0.1,-5.3 z"
     id="path16"
     inkscape:connector-curvature="0"
     style="fill:#fbd7c7" />
  <path
     d="m 48.2,40.192878 -21.3,7.7 18.2,-11.9 z"
     id="path18"
     inkscape:connector-curvature="0"
     style="fill:#ffffff" />
  <path
     d="m 31.1,27.792878 -4.2,20.1 -1.7,-18.7 z"
     id="path20"
     inkscape:connector-curvature="0"
     style="fill:#ffffff" />
  <path
     d="m 16.5,49.692878 c 3.1,5.9 12.5,10.5 26.6,7.4 -0.9,2.3 -21.1,7.5 -26.6,-7.4 z"
     id="path22"
     inkscape:connector-curvature="0"
     style="opacity:0.15" />
  <ellipse
     cx="19.1"
     cy="86.59288"
     rx="19.1"
     ry="13"
     id="ellipse24"
     style="fill:#2d3134" />
  <path
     d="m 19.2,72.592878 c -8.3,0 -15.0000004,4.5 -15.0000004,10 v 4 c 0,5.5 6.7000004,10 15.0000004,10 8.3,0 15,-4.5 15,-10 v -4 c 0,-5.5 -6.7,-10 -15,-10 z"
     id="path26"
     inkscape:connector-curvature="0"
     style="fill:#baa794" />
  <path
     d="m 19.2,92.592878 c -8.3,0 -15.0000004,-4.5 -15.0000004,-10 v 4 c 0,5.5 6.7000004,10 15.0000004,10 8.3,0 15,-4.5 15,-10 v -4 c 0,5.5 -6.7,10 -15,10 z"
     id="path28"
     inkscape:connector-curvature="0"
     style="opacity:0.15" />
  <path
     d="m 19.2,68.592878 c -8.3,0 -15.0000004,4.5 -15.0000004,10 v 4 c 0,5.5 6.7000004,10 15.0000004,10 8.3,0 15,-4.5 15,-10 v -4 c 0,-5.5 -6.7,-10 -15,-10 z"
     id="path30"
     inkscape:connector-curvature="0"
     style="fill:#f8ebcb" />
  <path
     d="m 34.2,75.592878 c 0,-5.5 -6.7,-10 -15,-10 -8.3,0 -15.0000004,4.5 -15.0000004,10 v 2 c 0,1.7 0.6,3.2 1.7,4.6 -0.3,1.1 -0.8,2.7 -0.8,3.1 0,0.6 0.5,1.2 1.2,1.2 0.6,0 1.2,-0.5 1.2,-1.2 0,-0.3 -0.2,-1.1 -0.4,-1.9 0.8,0.8 1.8,1.4 2.9,2 -0.3,0.9 -0.6,2.1 -0.6,2.4 0,0.6 0.5,1 1.0000004,1 0.6,0 1,-0.5 1,-1 0,-0.3 -0.2,-1.1 -0.5,-2 1.2,0.5 2.5,1 3.9,1.3 -0.4,1.2 -1,3.2 -1,3.7 0,0.7 0.6,1.3 1.3,1.3 0.7,0 1.3,-0.6 1.3,-1.3 0,-0.5 -0.6,-2.3 -0.9,-3.6 1.2,0.2 2.5,0.3 3.8,0.3 0.5,0 1.1,0 1.6,-0.1 -0.2,0.7 -0.4,1.3 -0.4,1.5 0,0.6 0.5,1 1,1 0.6,0 1,-0.5 1,-1 0,-0.2 -0.2,-0.9 -0.4,-1.7 2,-0.3 3.9,-0.8 5.6,-1.6 -0.4,1.4 -1.2,3.9 -1.2,4.5 0,0.8 0.7,1.5 1.5,1.5 0.8,0 1.5,-0.7 1.5,-1.5 0,-0.6 -0.9,-3.4 -1.3,-4.8 1.6,-0.8 2.9,-1.8 3.9,-2.9 -0.2,0.8 -0.5,1.6 -0.5,1.9 0,0.6 0.5,1 1,1 0.5,0 1,-0.5 1,-1 0,-0.4 -0.5,-2 -0.8,-2.9 0.8,-1.2 1.3,-2.6 1.3,-4 v -1.8 z"
     id="path32"
     inkscape:connector-curvature="0"
     style="fill:#762c07" />
  <path
     d="m 34.2,75.592878 c 0,5 -5.5,9.1 -12.7,9.9 0,-0.1 0,-0.1 0,-0.1 0,0 0,0 0,0.1 -0.7,0.1 -1.5,0.1 -2.3,0.1 -8.3,0 -15.0000004,-4.5 -15.0000004,-10 v 2 c 0,1.7 0.6,3.2 1.7,4.6 -0.3,1.1 -0.8,2.7 -0.8,3.1 0,0.6 0.5,1.2 1.2,1.2 0.6,0 1.2,-0.5 1.2,-1.2 0,-0.3 -0.2,-1.1 -0.4,-1.9 0.8,0.8 1.8,1.4 2.9,2 -0.3,0.9 -0.6,2.1 -0.6,2.4 0,0.6 0.5,1 1.0000004,1 0.6,0 1,-0.5 1,-1 0,-0.3 -0.2,-1.1 -0.5,-2 1.2,0.5 2.5,1 3.9,1.3 -0.4,1.2 -1,3.2 -1,3.7 0,0.7 0.6,1.3 1.3,1.3 0.7,0 1.3,-0.6 1.3,-1.3 0,-0.5 -0.6,-2.3 -0.9,-3.6 1.2,0.2 2.5,0.3 3.8,0.3 0.5,0 1.1,0 1.6,-0.1 -0.2,0.7 -0.4,1.3 -0.4,1.5 0,0.6 0.5,1 1,1 0.5,0 1,-0.5 1,-1 0,-0.2 -0.2,-0.9 -0.4,-1.7 2,-0.3 3.9,-0.8 5.6,-1.6 -0.4,1.4 -1.2,3.9 -1.2,4.5 0,0.8 0.7,1.5 1.5,1.5 0.8,0 1.5,-0.7 1.5,-1.5 0,-0.6 -0.9,-3.4 -1.3,-4.8 1.6,-0.8 2.9,-1.8 3.9,-2.9 -0.2,0.8 -0.5,1.6 -0.5,1.9 0,0.6 0.5,1 1,1 0.5,0 1,-0.5 1,-1 0,-0.4 -0.5,-2 -0.8,-2.9 0.8,-1.2 1.3,-2.6 1.3,-4 v -1.8 z"
     id="path34"
     inkscape:connector-curvature="0"
     style="opacity:0.15" />
  <path
     d="m 21.2,74.592878 c 0,1.1 -0.9,2 -2,2 -1.1,0 -2,-0.9 -2,-2 0,-1.1 2,-3 2,-3 0,0 2,1.9 2,3 z"
     id="path36"
     inkscape:connector-curvature="0"
     style="fill:#f8ebcb" />
  <g
     id="g54"
     style="fill:#baa794"
     transform="translate(-6.1000004,-26.407122)">
    <path
       d="m 14.3,102 c 0,0.6 -0.4,1 -1,1 -0.6,0 -1,-0.4 -1,-1 0,-0.6 1,-1.5 1,-1.5 0,0 1,0.9 1,1.5 z"
       id="path38"
       inkscape:connector-curvature="0" />
    <path
       d="m 38.3,102 c 0,0.6 -0.4,1 -1,1 -0.6,0 -1,-0.4 -1,-1 0,-0.6 1,-1.5 1,-1.5 0,0 1,0.9 1,1.5 z"
       id="path40"
       inkscape:connector-curvature="0" />
    <path
       d="m 34.3,108 c 0,0.6 -0.4,1 -1,1 -0.6,0 -1,-0.4 -1,-1 0,-0.6 1,-1.5 1,-1.5 0,0 1,0.9 1,1.5 z"
       id="path42"
       inkscape:connector-curvature="0" />
    <path
       d="m 26.3,110 c 0,0.6 -0.4,1 -1,1 -0.6,0 -1,-0.4 -1,-1 0,-0.6 1,-1.5 1,-1.5 0,0 1,0.9 1,1.5 z"
       id="path44"
       inkscape:connector-curvature="0" />
    <path
       d="m 26.3,93.5 c 0,0.6 -0.4,1 -1,1 -0.6,0 -1,-0.4 -1,-1 0,-0.6 1,-1.5 1,-1.5 0,0 1,0.9 1,1.5 z"
       id="path46"
       inkscape:connector-curvature="0" />
    <path
       d="m 18.3,108 c 0,0.6 -0.4,1 -1,1 -0.6,0 -1,-0.4 -1,-1 0,-0.6 1,-1.5 1,-1.5 0,0 1,0.9 1,1.5 z"
       id="path48"
       inkscape:connector-curvature="0" />
    <path
       d="m 34.3,96 c 0,0.6 -0.4,1 -1,1 -0.6,0 -1,-0.4 -1,-1 0,-0.6 1,-1.5 1,-1.5 0,0 1,0.9 1,1.5 z"
       id="path50"
       inkscape:connector-curvature="0" />
    <path
       d="m 18.3,96 c 0,0.6 -0.4,1 -1,1 -0.6,0 -1,-0.4 -1,-1 0,-0.6 1,-1.5 1,-1.5 0,0 1,0.9 1,1.5 z"
       id="path52"
       inkscape:connector-curvature="0" />
  </g>
  <path
     d="m 27.6,7.392878 c -1.7,3.2 -2.8,10.5 -1.9,14.8 0.9,4.3 2.5,6.8 3.7,7.1 1.2,0.3 2.5,-0.2 2.5,-0.2 0,0 0.4,1.2 0.1,2.7 -0.6,3 -2.2,7.5 -1.8,8 0.5,0.7 8.8,-3 11.5,-5.2 2.2,-1.7 4,-4.8 3.9,-5.3 -0.1,-0.5 -1.7,-3.8 -1.5,-5 0.2,-1.2 3,-3.7 3.2,-4.9 0.2,-1.2 2.8,-11.8 -5.1,-14.6 -7.9,-2.8 -12.5,-1.4 -14.6,2.6 z"
     id="path56"
     inkscape:connector-curvature="0"
     style="fill:#fbd7c7" />
  <path
     d="m 26.1,9.492878 c 0,1.4 1.4,1.6 3.9,2.9 2.5,1.3 4.8,5.8 6.9,6.4 2.1,0.6 4.9,0 6.8,-0.4 2,-0.4 2.9,0.6 3.1,1.4 0.2,0.8 4.6,-6.3 2.6,-11.9 -2.1,-6 -9.3,-9.8 -16.2,-6.90000006 C 26.9,3.792878 26.1,8.292878 26.1,9.492878 Z"
     id="path58"
     inkscape:connector-curvature="0"
     style="fill:#825012" />
  <path
     d="m 49.3,41.592878 c 2.7,-2 8.4,-0.4 9.5,6.7 1.1,7.1 3.8,17.6 4.9,21.3 1.1,3.7 2.7,8 -0.8,11 -3.5,3 -19.4,11.7 -22.2,13.8 -2.7,2 -2.9,2.6 -6.4,4.8 -3.5,2.200002 -8,2.700002 -9.8,1.800002 -2.2,-1.100002 -1.4,-2.600002 0.9,-3.900002 2.9,-1.6 6,-4.3 6.7,-5.7 0.7,-1.4 1.5,-2 4,-2.4 2.5,-0.4 1,0.3 4,-1.5 3,-1.8 7.2,-6.9 10.7,-9.6 3,-2.3 5.3,-3.3 5.3,-3.3 0,0 -3.5,-7.5 -5.6,-13 -1.9,-5.7 -7.2,-15.7 -1.2,-20 z"
     id="path60"
     inkscape:connector-curvature="0"
     style="fill:#fbd7c7" />
  <path
     d="m 53.8,69.992878 9.3,-3 c -1.3,-5 -2.8,-12.7 -3.8,-18.5 -1.2,-7.4 -7.3,-9.1 -10.3,-7.3 -7.8,4.9 -1.4,14.6 0.8,20.3 0.9,2.6 2.9,6 4,8.5 z"
     id="path62"
     inkscape:connector-curvature="0"
     style="fill:#3399cc" />
  <path
     d="m 49.4,17.392878 c 0,0 4.9,4.5 3.8,9.7 -2.9,15 -4.8,7.8 -6.8,25.2 -3.3,-7.4 -5.5,-20.4 -2.5,-27.4 1.3,-3.2 5.5,-7.5 5.5,-7.5 z"
     id="path64"
     inkscape:connector-curvature="0"
     style="fill:#825012" />
  <path
     d="m 49.5,15.792878 c 1.3,0.7 0.9,2.4 -0.4,3.7 -1.3,1.3 -1.9,2.1 -2.8,1.4 -0.8,-0.7 0.3,-1.4 1.3,-2.9 0.9,-1.4 1.2,-2.6 1.9,-2.2 z"
     id="path66"
     inkscape:connector-curvature="0"
     style="fill:#3399cc" />
  <path
     style="fill:#000000;fill-opacity:1;fill-rule:nonzero;stroke:none"
     id="path1"
     d="m 283.28856,174.12078 c -0.0811,-1.74242 0.17815,-3.76324 -0.34471,-5.43289 -0.12062,-0.38518 -0.26845,-0.7613 -0.40266,-1.14196 -0.76166,-2.12689 -1.92567,-4.04493 -3.33054,-5.80069 -1.62405,-1.81038 -3.48628,-2.61855 -5.742,-3.35229 -1.6115,-0.50164 -3.27621,-0.78597 -4.95791,-0.49458 -0.3396,0.0588 -0.67082,0.15867 -1.00623,0.238 -1.28329,0.39219 -2.50105,0.9827 -3.48322,1.91496 -0.63989,0.60738 -0.87062,0.98035 -1.38703,1.67785 -1.23273,1.96413 -1.91009,4.17707 -2.38695,6.42719 -0.26245,1.75184 -0.48423,3.54901 -0.28149,5.32144 0.0416,0.36372 0.11827,0.72256 0.1774,1.08384 0.40584,2.07647 1.38639,3.92906 2.53439,5.67971 1.04402,1.53232 2.28795,2.89147 3.67744,4.11256 1.17183,1.02763 2.4525,1.88534 3.85558,2.55835 0.98317,0.42532 2.03346,0.77 3.11327,0.82173 0.75236,0.036 0.98262,-0.0258 1.70132,-0.12267 1.54256,-0.32996 2.90411,-1.05581 4.13834,-2.01577 1.29331,-1.17645 2.16251,-2.69526 2.90474,-4.25658 1.67015,-3.55071 1.77483,-7.47601 1.70306,-11.32409 -0.0229,-2.0129 -0.24161,-4.01477 -0.52719,-6.00513 -0.25146,-1.82207 -0.6152,-3.62431 -0.97708,-5.42665 -0.36924,-1.8125 -0.66696,-3.63687 -0.91711,-5.46923 -0.28195,-2.13405 -0.54792,-4.26934 -0.7622,-6.41132 -0.23522,-2.39054 -0.38793,-4.788 -0.53638,-7.18515 -0.13927,-2.07229 -0.13443,-4.15082 -0.14915,-6.22678 -0.0126,-2.00338 -0.0331,-4.00669 -0.055,-6.00999 -0.0194,-1.79876 -0.0441,-3.59744 -0.0706,-5.39611 -0.03,-2.03897 -0.0651,-4.07786 -0.10052,-6.11674 -0.0607,-3.17303 -3.38773,-3.19609 -3.32546,0.0586 0.0349,2.03596 0.0699,4.07192 0.10036,6.10795 0.0263,1.79444 0.0511,3.58891 0.0705,5.38344 0.0218,1.99902 0.0422,3.99807 0.0548,5.99718 0.0151,2.1367 0.0118,4.27595 0.15543,6.40886 0.15108,2.43911 0.30693,4.87852 0.54657,7.31087 0.21861,2.18171 0.48881,4.35677 0.77628,6.5304 0.2601,1.90071 0.5686,3.79336 0.95156,5.67357 0.34987,1.74249 0.70323,3.48455 0.946,5.24622 0.26897,1.85831 0.47308,3.72785 0.49408,5.6075 0.0436,1.85962 0.0744,3.7306 -0.18844,5.5771 -0.22189,1.46296 -0.56296,2.90602 -1.1978,4.25167 -0.51508,1.10364 -1.10734,2.18678 -1.96214,3.06846 -0.75799,0.61919 -1.60633,1.06731 -2.55344,1.33148 -0.16344,0.0271 -0.63698,0.11576 -0.82273,0.11166 -0.72399,-0.0162 -1.42941,-0.24276 -2.08747,-0.52555 -1.13309,-0.52704 -2.14435,-1.23856 -3.08967,-2.05606 -1.17062,-1.01763 -2.20796,-2.15973 -3.09004,-3.43946 -0.90371,-1.36226 -1.69674,-2.79642 -2.03374,-4.41454 -0.31933,-1.72097 -0.20205,-3.43624 0.0817,-5.15756 0.37079,-1.79226 0.89222,-3.55658 1.81879,-5.14949 0.89198,-1.24915 1.48065,-1.84554 2.98531,-2.32507 0.50692,-0.13586 0.71331,-0.21654 1.23761,-0.25724 0.99672,-0.0774 1.95286,0.17665 2.90148,0.4508 1.53815,0.49341 3.05012,1.0521 4.17418,2.27327 1.18212,1.45715 2.14835,3.05995 2.78858,4.83228 0.61792,1.70806 1.00057,3.46928 1.03513,5.29356 z"
     sodipodi:nodetypes="cscccscsccsccccscccccccccccccccccccccccccccccccccccsccccc" />
  <path
     id="path3"
     style="fill:#000000;fill-opacity:1;fill-rule:nonzero;stroke:none"
     d="m 263.26506,102.66445 c 0.17086,2.26933 0.82932,4.12104 2.27953,6.42241 1.05891,1.68041 2.36296,2.86484 3.90257,3.66123 3.85955,1.65798 8.10775,2.42391 12.30052,2.29233 3.8939,-0.19128 7.61515,-2.6432 9.12084,-6.27605 1.71796,-4.06332 2.29936,-8.65433 1.54599,-13.007496 -0.8722,-4.090794 -2.99204,-8.208515 -6.74582,-10.325694 -2.79352,-1.804361 -6.28997,-1.685004 -9.46645,-1.373622 -2.70987,0.305895 -5.13229,1.797678 -6.9103,3.822871 -2.77828,2.979703 -5.02127,6.615056 -5.66928,10.692471 -0.2551,1.34557 -0.39871,2.7212 -0.3576,4.09155 z m 3.32253,-0.12018 c -0.0181,-3.38242 0.89389,-6.815621 2.88526,-9.581291 1.4439,-1.980944 3.00376,-4.112794 5.31377,-5.124789 2.27262,-0.818254 4.78435,-0.747259 7.14237,-0.408035 2.66958,0.680016 4.82862,2.780449 5.9514,5.258524 1.7594,3.417288 1.8453,7.415951 1.07508,11.112881 -0.55053,2.79073 -1.68705,5.91176 -4.48835,7.14858 -2.66238,1.32107 -5.76189,0.73755 -8.56731,0.29925 -2.45217,-0.5017 -4.8402,-1.25925 -6.70395,-2.97971 -0.98052,-0.90514 -1.64935,-2.13784 -2.19794,-3.44858 -0.21894,-0.74055 -0.37294,-1.50435 -0.41033,-2.27683 z"
     sodipodi:nodetypes="cscccccccccccccccccscc" />
  <path
     style="fill:#000000;fill-opacity:1;fill-rule:nonzero;stroke:none"
     id="path5"
     d="m 279.58095,85.380477 c 0.0811,-0.912458 0.16703,-1.824599 0.24015,-2.737875 0.16828,-1.734947 0.32315,-3.470717 0.41838,-5.211318 0.0773,-1.601961 0.11207,-3.20554 0.13885,-4.809015 0.0217,-1.471734 0.0248,-2.943643 0.0237,-4.415502 8.5e-4,-1.340742 -0.006,-2.681216 -0.0437,-4.02144 -0.0335,-1.230193 -0.14953,-2.456399 -0.24289,-3.683077 -0.0881,-1.186972 -0.15127,-2.375571 -0.21023,-3.564281 -0.0624,-1.302324 -0.10596,-2.60547 -0.14849,-3.908564 -0.0446,-1.272621 -0.0427,-2.546339 -0.0491,-3.819571 -0.004,-1.017868 -0.0106,-2.035728 -0.0194,-3.053567 -0.009,-0.915524 -0.0199,-1.831034 -0.032,-2.746519 -0.0312,-2.351624 -3.35693,-2.307456 -3.3257,0.04413 v 0 c 0.0124,0.910319 0.0236,1.820671 0.0319,2.73105 0.009,1.013528 0.0153,2.027069 0.0194,3.040626 0.006,1.304151 0.005,2.60876 0.0509,3.912274 0.0431,1.321897 0.0874,2.643822 0.15088,3.964929 0.0604,1.217937 0.12532,2.435738 0.21573,3.651881 0.0894,1.173945 0.20171,2.347391 0.23462,3.524627 0.0372,1.309669 0.0431,2.619584 0.0424,3.929768 9.8e-4,1.452597 -0.002,2.905241 -0.0233,4.357723 -0.026,1.561683 -0.0597,3.123483 -0.13438,4.683728 -0.0927,1.712556 -0.24878,3.420014 -0.41273,5.127073 -0.0816,1.022267 -0.19725,2.042467 -0.25012,3.066506 0.045,2.3514 3.37037,2.287775 3.32538,-0.06363 z" />
  <path
     style="fill:#ff4400;fill-opacity:1;fill-rule:nonzero;stroke:none"
     id="path7"
     d="m 279.69257,43.1276 c -0.0323,-0.446365 -0.0602,-0.893012 -0.0718,-1.340433 0.0399,-0.730068 0.11498,-1.457656 0.18453,-2.18534 0.10175,-1.033736 0.15689,-2.07111 0.24398,-3.106025 0.0915,-1.100342 0.37565,-2.170584 0.69087,-3.224657 0.27027,-0.910506 0.59165,-1.808549 1.06575,-2.633759 0.41715,-0.666972 0.95811,-1.239435 1.52314,-1.781393 0.58057,-0.522932 1.25081,-0.929518 1.9283,-1.312438 0.61473,-0.349213 1.27836,-0.595954 1.94695,-0.819144 0.57111,-0.18715 1.15598,-0.325513 1.74331,-0.450272 1.15331,-0.198348 1.89154,-0.595053 2.24089,-1.836073 0.0725,-0.257444 0.0166,-0.534655 0.0249,-0.801982 -0.0587,-0.23606 -0.0969,-0.478215 -0.17615,-0.70818 -0.37352,-1.083043 -1.24106,-1.852448 -2.08937,-2.566071 -1.03238,-0.790615 -2.09679,-1.544522 -3.21107,-2.216369 -0.80073,-0.482791 -1.34692,-0.761613 -2.17428,-1.204917 -2.53513,-1.318375 -5.17212,-2.423693 -7.80871,-3.519366 -1.38624,-0.579578 -2.77631,-1.149951 -4.16569,-1.721957 -2.17473,-0.895332 -3.44093,2.180202 -1.26619,3.075534 v 0 c 1.38602,0.570621 2.77274,1.139597 4.15562,1.717799 2.53679,1.054045 5.07492,2.115206 7.51565,3.380467 0.67755,0.362115 1.30091,0.683459 1.95782,1.078355 0.99564,0.598533 1.94678,1.269831 2.87288,1.969933 0.57734,0.469252 0.20885,0.152273 0.69335,0.606408 0.0504,0.04724 0.10836,0.08694 0.15401,0.138839 0.009,0.01043 0.1892,0.273071 0.19806,0.274481 0.0265,0.0045 0.0173,-0.05084 0.026,-0.07621 0.11857,-0.414144 0.33693,-0.752923 0.74242,-0.927652 0.0539,-0.02323 0.22967,-0.047 0.17361,-0.02963 -0.043,0.01333 -0.54921,0.112047 -0.55655,0.113498 -0.71108,0.1518 -1.41869,0.322088 -2.10966,0.550478 -0.86972,0.293631 -1.73027,0.622633 -2.52953,1.079416 -0.9178,0.522703 -1.81814,1.086989 -2.59435,1.80996 -0.79687,0.770655 -1.54835,1.593581 -2.11737,2.551532 -0.10005,0.181597 -0.20605,0.360037 -0.30015,0.544771 -0.4483,0.880057 -0.75835,1.824361 -1.05117,2.764525 -0.37796,1.273583 -0.70993,2.56736 -0.8176,3.896043 -0.0855,1.022132 -0.14131,2.046528 -0.24052,3.067562 -0.0825,0.863017 -0.1781,1.726583 -0.19834,2.593859 0.0122,0.426635 0.0334,0.923111 0.0711,1.31196 0.045,2.35139 3.37037,2.287765 3.32538,-0.06363 z" />
  <path
     style="fill:#ff4400;fill-opacity:1;fill-rule:nonzero;stroke:none"
     id="path9"
     d="m 287.46902,19.808702 c 0.55244,-0.709598 1.04251,-1.463801 1.52741,-2.220205 0.45408,-0.723079 0.89281,-1.455546 1.33091,-2.188361 1.20667,-2.018672 -1.64817,-3.725152 -2.85484,-1.70648 v 0 c -0.42045,0.703492 -0.84159,1.406607 -1.27688,2.101071 -0.44292,0.69232 -0.89047,1.382667 -1.39682,2.031032 -1.40216,1.888129 1.26807,3.871081 2.67022,1.982943 z" />
  <path
     style="fill:#ff4400;fill-opacity:1;fill-rule:nonzero;stroke:none"
     id="path11"
     d="m 281.65839,16.702759 c 0.25327,-0.493006 0.5489,-0.962767 0.83843,-1.434862 0.61725,-1.002981 1.24054,-2.002247 1.86209,-3.00257 0.3271,-0.513241 0.16528,-0.259009 0.48546,-0.762686 1.26164,-1.9847783 -1.54525,-3.7690205 -2.8069,-1.7842423 v 0 c -0.32513,0.5114933 -0.15728,0.247624 -0.50362,0.7915893 -0.62508,1.006002 -1.2519,2.010936 -1.87262,3.019635 -0.36827,0.600995 -0.74641,1.199538 -1.04881,1.83738 -0.94452,2.153822 2.10145,3.489578 3.04597,1.335756 z" />
  <path
     style="fill:#ff4400;fill-opacity:1;fill-rule:nonzero;stroke:none"
     id="path13"
     d="m 276.39481,14.013637 c -7e-4,0.01542 -0.005,0.03101 -0.003,0.04627 4.6e-4,0.003 0.008,-0.0012 0.009,-0.0042 0.0199,-0.04729 0.0342,-0.09677 0.0536,-0.144291 0.039,-0.09586 0.0805,-0.190634 0.12138,-0.285654 0.21172,-0.491671 0.18193,-0.419417 0.41474,-0.935595 0.47632,-1.051215 0.92966,-2.112671 1.41202,-3.1611203 0.9826,-2.1367281 -2.0392,-3.5263265 -3.02178,-1.389599 v 0 c -0.48553,1.056301 -0.94334,2.1249953 -1.42252,3.1841753 -0.16731,0.371529 -0.30075,0.660874 -0.45708,1.033703 -0.18249,0.43523 -0.36589,0.87933 -0.41804,1.352714 -0.21496,2.341981 3.0971,2.645968 3.31206,0.303987 z" />
  <path
     style="fill:#000000;fill-opacity:1;fill-rule:nonzero;stroke:none"
     id="path15"
     d="m 264.87992,180.88863 c 1.06425,-0.17336 2.14818,-0.46316 3.09167,-1.00129 0.29926,-0.17067 0.57454,-0.38033 0.8618,-0.5705 0.29257,-0.28201 0.61445,-0.53648 0.87771,-0.84603 1.45426,-1.70998 1.9955,-3.94307 2.11634,-6.13878 0.0428,-0.77848 9e-4,-1.55933 10e-4,-2.33899 -0.17054,-2.83055 -0.55993,-5.65004 -1.32611,-8.38552 -0.55147,-1.96887 -1.50892,-4.55984 -2.30374,-6.43242 -0.47273,-1.11375 -1.00754,-2.20013 -1.51131,-3.30018 -2.85425,-5.90862 -6.29539,-11.50436 -9.68168,-17.11648 -0.43985,-0.72051 -0.87971,-1.44103 -1.31956,-2.16155 -1.22544,-2.00732 -4.06423,-0.2743 -2.8388,1.73303 v 0 c 0.43688,0.71562 0.87375,1.43122 1.31062,2.14682 3.32176,5.50516 6.69985,10.99272 9.50649,16.78527 0.47895,1.04161 0.98726,2.07022 1.43685,3.12485 0.72014,1.68924 1.65426,4.18995 2.16217,5.97652 0.70859,2.49248 1.06832,5.06288 1.23912,7.64351 0.0204,2.07154 0.13492,4.36112 -1.15876,6.12739 -0.11572,0.15798 -0.2604,0.29256 -0.3906,0.43882 -0.15263,0.11124 -0.29819,0.23291 -0.4579,0.33372 -0.57147,0.36072 -1.2509,0.51421 -1.90033,0.66803 -2.3432,0.2013 -2.05851,3.51508 0.28468,3.31378 z" />
</svg>
