<?xml version="1.0" encoding="UTF-8" standalone="no"?>
<!-- Created with Inkscape (http://www.inkscape.org/) -->

<svg
   width="128.91806mm"
   height="102.9199mm"
   viewBox="0 0 128.91806 102.9199"
   version="1.1"
   id="svg8"
   inkscape:version="1.3 (0e150ed6c4, 2023-07-21)"
   sodipodi:docname="49 jan li wile jo e pan..svg"
   xmlns:inkscape="http://www.inkscape.org/namespaces/inkscape"
   xmlns:sodipodi="http://sodipodi.sourceforge.net/DTD/sodipodi-0.dtd"
   xmlns="http://www.w3.org/2000/svg"
   xmlns:svg="http://www.w3.org/2000/svg"
   xmlns:rdf="http://www.w3.org/1999/02/22-rdf-syntax-ns#"
   xmlns:cc="http://creativecommons.org/ns#"
   xmlns:dc="http://purl.org/dc/elements/1.1/">
  <defs
     id="defs2" />
  <sodipodi:namedview
     id="base"
     pagecolor="#ffffff"
     bordercolor="#666666"
     borderopacity="1.0"
     inkscape:pageopacity="0.0"
     inkscape:pageshadow="2"
     inkscape:zoom="1.4142136"
     inkscape:cx="278.95362"
     inkscape:cy="181.37289"
     inkscape:document-units="mm"
     inkscape:current-layer="layer1"
     showgrid="false"
     fit-margin-top="0"
     fit-margin-left="0"
     fit-margin-right="0"
     fit-margin-bottom="0"
     inkscape:window-width="1920"
     inkscape:window-height="1051"
     inkscape:window-x="-9"
     inkscape:window-y="-9"
     inkscape:window-maximized="1"
     inkscape:showpageshadow="2"
     inkscape:pagecheckerboard="0"
     inkscape:deskcolor="#d1d1d1" />
  <metadata
     id="metadata5">
    <rdf:RDF>
      <cc:Work
         rdf:about="">
        <dc:format>image/svg+xml</dc:format>
        <dc:type
           rdf:resource="http://purl.org/dc/dcmitype/StillImage" />
        <dc:title />
      </cc:Work>
    </rdf:RDF>
  </metadata>
  <g
     inkscape:label="Layer 1"
     inkscape:groupmode="layer"
     id="layer1"
     transform="translate(-77.21162,-106.89239)">
    <path
       style="fill:none;stroke:#000000;stroke-width:1;stroke-linecap:round;stroke-linejoin:round;stroke-miterlimit:4;stroke-dasharray:none;stroke-opacity:1"
       inkscape:connector-curvature="0"
       d="m 145.31337,107.47008 c -0.60856,0.11122 -1.43963,0.88598 -2.04438,1.91005 -0.90333,1.52651 -1.45484,3.52861 -1.58036,5.73016 l -0.0247,0.41423 h -0.13312 c -1.5157,0 -2.87925,1.86786 -3.43266,4.69076 -0.0742,0.37971 -0.14263,0.88215 -0.19398,1.41912 l -0.0437,0.45258 -0.18827,0.19561 c -0.36134,0.37204 -0.6542,0.82078 -0.96799,1.47664 -0.3195,0.67121 -0.52298,1.33858 -0.6523,2.13635 -0.17306,1.07009 -0.22441,2.35113 -0.13313,3.37136 0.0723,0.82079 0.28527,1.83718 0.51728,2.46236 0.15785,0.42573 0.55531,1.23501 0.75119,1.52651 0.67132,1.00489 1.36546,1.35008 2.34296,1.16598 0.28716,-0.0575 0.24342,-0.13808 0.35562,0.64435 0.53249,3.72422 1.99684,6.26329 3.9062,6.77341 0.40697,0.10739 1.10111,0.0345 1.5214,-0.16493 0.28906,-0.13424 0.73788,-0.47559 1.0897,-0.83229 0.10079,-0.0997 0.24533,-0.2378 0.3195,-0.30684 l 0.13502,-0.12657 0.22631,0.30684 c 0.60095,0.80928 1.06117,1.22734 1.71918,1.57637 0.46213,0.24163 0.70365,0.31067 1.29319,0.3682 0.69034,0.069 1.62219,-0.26464 2.29161,-0.82462 0.71125,-0.59449 1.31791,-1.41145 1.8542,-2.49304 0.59715,-1.20433 1.02885,-2.57359 1.31982,-4.19215 0.12742,-0.71339 0.20349,-1.33857 0.30618,-2.5429 l 0.0114,-0.12274 0.4317,0.0192 c 0.33661,0.0153 0.48304,0.008 0.66941,-0.0422 0.80635,-0.21862 1.49668,-0.90133 2.08242,-2.07498 1.03645,-2.06347 1.40159,-4.9554 0.96989,-7.64405 -0.0837,-0.51011 -0.29096,-1.36926 -0.44691,-1.83718 -0.52868,-1.59555 -1.40729,-2.83824 -2.30112,-3.24863 -0.37654,-0.17643 -1.18669,-0.17643 -1.6355,-0.004 l -0.0666,0.023 -0.0989,-0.40272 c -0.2187,-0.88599 -0.46023,-1.55336 -0.81585,-2.24758 -0.46593,-0.91283 -1.02505,-1.58787 -1.64692,-1.98676 -0.42409,-0.27615 -0.91664,-0.38354 -1.43582,-0.31451 -0.46403,0.0614 -0.66942,0.14192 -1.06878,0.40273 -0.14454,0.0959 -0.27005,0.17259 -0.27956,0.17259 -0.0209,0 -0.0304,-0.0383 -0.22441,-0.8438 -0.34612,-1.44213 -0.84057,-2.61961 -1.48907,-3.54012 -0.45642,-0.64819 -1.0935,-1.21967 -1.54802,-1.39227 -0.53343,-0.17197 -1.10743,-0.15742 -1.66213,-0.0535 z"
       id="path1141"
       sodipodi:nodetypes="ccccsccccccccccccccccccccsccccccccccccccccsccccc" />
    <g
       id="g874"
       transform="matrix(0.26458333,0,0,0.26458333,108.80287,128.37354)">
      <path
         id="path815"
         d="m 28.6,81.8 c 0,0 -3.2,10.8 -5.9,19.1 -2.7,8.3 -4.4,13.8 -5.3,15.9 -0.9,2.1 -1.3,5.7 -0.8,7.3 0.5,1.6 2.3,5 3,5.7 1.7,1.6 4.4,1.2 4.8,0.8 0.4,-0.5 0.4,-2.2 -0.3,-2.9 -0.7,-0.7 -2.6,-3 -1.4,-6 1.2,-2.9 1,-4.2 1,-6 0,-1.5 -0.5,-1.7 0.7,-4.1 1.2,-2.5 6.9,-14.5 7.5,-16.2 0.6,-1.7 -3.3,-13.6 -3.3,-13.6 z"
         inkscape:connector-curvature="0"
         style="fill:#fbd7c7" />
      <path
         id="path817"
         d="m 24.3,206.2 c -11.8,7.6 -12.4,14.4 0,21 13.5,7.2 22.4,3.3 32.9,-2.7 10.5,-6 11.8,-13.4 -3.6,-19.5 -12.5,-5 -20.4,-4.5 -29.3,1.2 z"
         inkscape:connector-curvature="0"
         style="opacity:0.2" />
      <path
         id="path819"
         d="m 42.3,54.7 c 0,0 -9.1,-4 -12.3,0.3 -3.2,4.3 -1.7,11 -1.7,11 0,0 -5.3,6 -5.3,9.4 0,3.3 5.1,6.5 5.1,6.5 0,0 0.6,15.8 -0.3,22.3 -0.9,6.5 -3.8,23.3 -3.1,33.9 0.7,10.6 1.6,25 1.9,29.2 0.3,4.1 2.2,10 3,14.8 0.9,4.8 4.1,13.2 0.9,19.6 -3.2,6.4 -6.1,9.3 -7.4,10.5 -1.3,1.2 0.2,5.2 3,4.5 2.8,-0.7 7.2,-7.1 9.9,-8.1 2.7,-1.1 7.2,-4 6,-7.7 -1.2,-3.6 -1.7,-2.2 -2,-5.3 -0.3,-3.1 2.2,-16.7 1.3,-22.8 -0.9,-6.1 -3.2,-7.8 -3.6,-8.8 -0.4,-1 5.7,-29.5 5.7,-29.5 0,0 1.2,27.3 1.1,30.2 -0.1,2.9 2.1,17.7 2.7,24.6 0.7,7 1,18.8 -2,22.9 -2.9,4.1 -8,10.3 -6,11.7 2,1.4 8.3,2.7 9.8,-0.9 1.5,-3.6 5.3,-11.1 6.7,-13.1 1.4,-2 1.9,-3.1 1,-5 -0.9,-1.9 -1.5,-5 -0.5,-10.3 1,-5.3 4.1,-14.7 3.3,-19.7 -0.8,-5 -3.2,-8.1 -2.9,-11.7 0.3,-3.5 8.1,-24.8 6.6,-39.7 C 61.6,108.7 54.2,106 52.9,100 51.6,94 55.9,86.1 58.1,81.8 60.3,77.6 63.4,70.2 60.7,67.6 58,64.9 54.8,63.2 53.6,61.2 52.4,59.2 51.1,53 51.1,53 Z"
         inkscape:connector-curvature="0"
         style="fill:#fbd7c7" />
      <path
         id="path821"
         d="m 24.9,210.3 c 0,0 -4.9,1.7 -5.9,3.9 -0.8,1.8 -0.5,3.9 1.2,5 1.8,1 5.2,1.3 8.2,-0.4 2.9,-1.7 6.8,-8.4 7.5,-8.7 0.7,-0.3 0.2,3.7 0.2,3.7 l 2.1,1.1 2.3,-0.9 c 0,0 -0.2,-4.5 0.7,-6 0.9,-1.5 2.6,-3.9 2,-6.9 -0.6,-3 -2.6,-3.3 -2.6,-3.3 0,0 0,3.5 -4,7.3 -3.8,3.6 -5.9,9.6 -9.2,9.3 -4.5,-0.7 -2.5,-4.1 -2.5,-4.1 z"
         inkscape:connector-curvature="0"
         style="fill:#2d3134" />
      <path
         id="path823"
         d="m 41.8,217.1 c 0,0 -4.6,3.5 -4.9,5.7 -0.3,2.2 -0.2,3.7 2.9,4.7 3.1,1 7.1,-0.2 9,-1.8 1.9,-1.6 4.4,-5.8 4.4,-5.8 l 2,1.1 2.3,-1.1 c 0,0 -0.3,-2.7 0.4,-5.1 0.7,-2.4 1.4,-4.4 1.4,-7.4 0,-3 -2.8,-3.3 -2.8,-3.3 0,0 1.7,1.6 -0.8,5.1 -2.5,3.5 -4.4,11.3 -8.1,11.5 -7,0.5 -5.8,-3.6 -5.8,-3.6 z"
         inkscape:connector-curvature="0"
         style="fill:#2d3134" />
      <path
         id="path825"
         d="M 60.3,110.8 C 58.1,107.3 48.7,100.2 58.2,82 60.4,77.8 63.8,69.9 61.1,67.3 58.4,64.6 55.2,62.9 54,60.9 c -1.2,-2 -2.8,-7.8 -2.8,-7.8 l -8.9,1.6 -5.5,-2 c 0,0 -2.5,-0.4 -7.3,1 -4.8,1.4 -4.8,8.9 -4.9,13.6 0,0.8 -2,5 -2,8.1 0,4.2 5.3,7.1 5.4,12.1 0.2,2.1 0.1,4.8 0,7.6 0,2.9 -4.7,26.5 -5.7,30 -1.9,6.8 -4.2,32.1 -3.7,33.1 2.1,4.2 12.6,3.2 17.4,7.6 4.8,4.4 17.8,3.7 24,1.6 6.2,-2.1 9.4,-5.8 9.2,-6.5 -4.6,-18.8 -3.5,-41.7 -8.9,-50.1 z"
         inkscape:connector-curvature="0"
         style="fill:#3399cc" />
      <path
         id="path827"
         d="m 47.9,109.2 c 4.6,-1.1 8.5,-3.7 9.3,-4.1 -0.8,-0.9 -1.4,-1.5 -1.4,-1.6 0,0 -7.3,4.4 -17.3,3.6 -10,-0.8 -12.1,-3.6 -12.1,-3.6 -1.4,6.7 -4.3,18.2 -5.3,21.8 -1.9,6.8 -5.2,17.9 -4.7,18.8 2.1,4.2 13,3.2 17.8,7.6 4.8,4.4 18.9,1.3 18.9,1.3 0,0 1.1,-17.1 -2.6,-33.4 -0.7,-3.3 -1.9,-7.7 -2.6,-10.4 z"
         inkscape:connector-curvature="0"
         style="fill:#ffffff" />
      <path
         id="path829"
         d="M 37.2,54.2 33,74.3 51.2,62.4 51.1,57.1 Z"
         inkscape:connector-curvature="0"
         style="fill:#fbd7c7" />
      <path
         id="path831"
         d="M 54.3,66.6 33,74.3 51.2,62.4 Z"
         inkscape:connector-curvature="0"
         style="fill:#ffffff" />
      <path
         id="path833"
         d="M 37.2,54.2 33,74.3 31.3,55.6 Z"
         inkscape:connector-curvature="0"
         style="fill:#ffffff" />
      <path
         id="path835"
         d="M 22.6,76.1 C 25.7,82 35.1,86.6 49.2,83.5 48.3,85.8 28,91 22.6,76.1 Z"
         inkscape:connector-curvature="0"
         style="opacity:0.15" />
      <path
         id="path837"
         d="M 33.7,33.8 C 32,37 30.9,44.3 31.8,48.6 c 0.9,4.3 2.5,6.8 3.7,7.1 1.2,0.3 2.5,-0.2 2.5,-0.2 0,0 0.4,1.2 0.1,2.7 -0.6,3 -2.2,7.5 -1.8,8 0.5,0.7 8.8,-3 11.5,-5.2 2.2,-1.7 4,-4.8 3.9,-5.3 -0.1,-0.5 -1.7,-3.8 -1.5,-5 0.2,-1.2 3,-3.7 3.2,-4.9 C 53.6,44.6 56.2,34 48.3,31.2 40.4,28.4 35.8,29.8 33.7,33.8 Z"
         inkscape:connector-curvature="0"
         style="fill:#fbd7c7" />
      <path
         id="path839"
         d="m 32.2,35.9 c 0,1.4 1.4,1.6 3.9,2.9 2.5,1.3 4.8,5.8 6.9,6.4 2.1,0.6 4.9,0 6.8,-0.4 2,-0.4 2.9,0.6 3.1,1.4 0.2,0.8 4.6,-6.3 2.6,-11.9 -2.1,-6 -9.3,-9.8 -16.2,-6.9 -6.3,2.8 -7.1,7.3 -7.1,8.5 z"
         inkscape:connector-curvature="0"
         style="fill:#825012" />
      <path
         id="path841"
         d="M 51,75.2 C 49.9,72.3 50.3,65 56.3,64.7 c 6,-0.3 6.7,5.7 7.2,13.6 0.5,7.9 3.5,20.7 3.7,23.3 0.2,2.6 -1.5,9.7 -5.6,16 -4.1,6.3 -6.9,11.4 -7.1,12.3 -0.2,1 -1.4,4.9 -3.1,6.1 -0.7,0.5 -1.5,1.2 -1.9,2.5 -0.4,1.3 0.5,2.4 0.7,2.7 0.3,0.7 -0.2,1.5 -1.4,2.2 -1.3,0.8 -3.2,-0.5 -4.2,-1.3 -0.7,-0.5 -2.5,-2.1 -2,-4.3 0.4,-1.6 1.7,-6.6 3.7,-7.8 2,-1.2 3.9,-2.7 4.6,-4.1 0.7,-1.4 2.2,-11.9 4.8,-17.2 1.4,-2.9 3.1,-4.8 3.1,-5.9 C 58.7,101.9 52.1,78.1 51,75.2 Z"
         inkscape:connector-curvature="0"
         style="fill:#fbd7c7" />
      <path
         id="path843"
         d="m 56.1,94.5 9.6,-2.2 C 64.8,87.2 64,78.7 63.5,72.8 62.9,65.3 57.6,63.4 54.4,65 c -8.2,4.3 -2.6,14.4 -0.9,20.3 0.8,2.6 1.8,6.6 2.6,9.2 z"
         inkscape:connector-curvature="0"
         style="fill:#3399cc" />
      <path
         id="path845"
         d="m 55.5,43.8 c 0,0 4.9,4.5 3.8,9.7 -2.9,15 -4.8,7.8 -6.8,25.2 -3.3,-7.4 -5.5,-20.4 -2.6,-27.4 1.3,-3.2 5.6,-7.5 5.6,-7.5 z"
         inkscape:connector-curvature="0"
         style="fill:#825012" />
      <path
         id="path847"
         d="m 55.6,42.2 c 1.3,0.7 0.9,2.4 -0.4,3.7 -1.3,1.3 -1.9,2.1 -2.8,1.4 -0.8,-0.7 0.3,-1.4 1.3,-2.9 0.9,-1.4 1.2,-2.6 1.9,-2.2 z"
         inkscape:connector-curvature="0"
         style="fill:#3399cc" />
    </g>
    <g
       id="g1030"
       transform="matrix(0.26458333,0,0,0.26458333,77.21162,156.89562)">
      <path
         id="path974"
         d="m 0,160 80,40 80,-40 -80,-40 z"
         inkscape:connector-curvature="0"
         style="opacity:0.2" />
      <path
         id="path976"
         d="m 76,123 v 75 l 4,2 4,-2 v -75 l -4,-2 z"
         inkscape:connector-curvature="0"
         style="fill:#656565" />
      <path
         id="path978"
         d="m 80,200 -4,-2 v -75 l 4,2 z"
         inkscape:connector-curvature="0"
         style="opacity:0.11" />
      <path
         id="path980"
         d="m 80,200 4,-2 v -75 l -4,2 z"
         inkscape:connector-curvature="0"
         style="opacity:0.29" />
      <path
         id="path982"
         d="m 0,85 v 75 l 4,2 4,-2 V 85 L 4,83 Z"
         inkscape:connector-curvature="0"
         style="fill:#656565" />
      <path
         id="path984"
         d="M 4,162 0,160 V 85 l 4,2 z"
         inkscape:connector-curvature="0"
         style="opacity:0.11" />
      <path
         id="path986"
         d="m 4,162 4,-2 V 85 l -4,2 z"
         inkscape:connector-curvature="0"
         style="opacity:0.29" />
      <path
         id="path988"
         d="m 152,85 v 75 l 4,2 4,-2 V 85 l -4,-2 z"
         inkscape:connector-curvature="0"
         style="fill:#656565" />
      <path
         id="path990"
         d="m 156,162 -4,-2 V 85 l 4,2 z"
         inkscape:connector-curvature="0"
         style="opacity:0.11" />
      <path
         id="path992"
         d="m 156,162 4,-2 V 85 l -4,2 z"
         inkscape:connector-curvature="0"
         style="opacity:0.29" />
      <path
         id="path994"
         d="m 0,85 v 5 l 80,40 80,-40 V 85 L 80,45 Z"
         inkscape:connector-curvature="0"
         style="fill:#656565" />
      <path
         id="path996"
         d="M 80,130 0,90 v -5 l 80,40 z"
         inkscape:connector-curvature="0"
         style="opacity:0.11" />
      <path
         id="path998"
         d="M 80,130 160,90 V 85 L 80,125 Z"
         inkscape:connector-curvature="0"
         style="opacity:0.29" />
      <path
         id="path1000"
         d="m 0,80 v 5 l 80,40 80,-40 V 80 L 80,40 Z"
         inkscape:connector-curvature="0"
         style="fill:#ff9900" />
      <path
         id="path1002"
         d="M 80,125 0,85 v -5 l 80,40 z"
         inkscape:connector-curvature="0"
         style="opacity:0.11" />
      <path
         id="path1004"
         d="M 80,125 160,85 V 80 L 80,120 Z"
         inkscape:connector-curvature="0"
         style="opacity:0.29" />
    </g>
    <g
       id="g972"
       transform="matrix(0.26458333,0,0,0.26458333,93.305032,172.02853)">
      <ellipse
         id="ellipse916"
         ry="13"
         rx="19.1"
         cy="24"
         cx="19.9"
         style="fill:#2d3134" />
      <path
         id="path918"
         d="M 20,10 C 11.7,10 5,14.5 5,20 v 4 c 0,5.5 6.7,10 15,10 8.3,0 15,-4.5 15,-10 V 20 C 35,14.5 28.3,10 20,10 Z"
         inkscape:connector-curvature="0"
         style="fill:#baa794" />
      <path
         id="path920"
         d="M 20,30 C 11.7,30 5,25.5 5,20 v 4 c 0,5.5 6.7,10 15,10 8.3,0 15,-4.5 15,-10 v -4 c 0,5.5 -6.7,10 -15,10 z"
         inkscape:connector-curvature="0"
         style="opacity:0.15" />
      <path
         id="path922"
         d="M 20,6 C 11.7,6 5,10.5 5,16 v 4 c 0,5.5 6.7,10 15,10 8.3,0 15,-4.5 15,-10 V 16 C 35,10.5 28.3,6 20,6 Z"
         inkscape:connector-curvature="0"
         style="fill:#f8ebcb" />
      <path
         id="path924"
         d="M 35,13 C 35,7.5 28.3,3 20,3 11.7,3 5,7.5 5,13 v 2 c 0,1.7 0.6,3.2 1.7,4.6 -0.3,1.1 -0.8,2.7 -0.8,3.1 0,0.6 0.5,1.2 1.2,1.2 0.6,0 1.2,-0.5 1.2,-1.2 0,-0.3 -0.2,-1.1 -0.4,-1.9 0.8,0.8 1.8,1.4 2.9,2 -0.3,0.9 -0.6,2.1 -0.6,2.4 0,0.6 0.5,1 1,1 0.6,0 1,-0.5 1,-1 0,-0.3 -0.2,-1.1 -0.5,-2 1.2,0.5 2.5,1 3.9,1.3 -0.4,1.2 -1,3.2 -1,3.7 0,0.7 0.6,1.3 1.3,1.3 0.7,0 1.3,-0.6 1.3,-1.3 0,-0.5 -0.6,-2.3 -0.9,-3.6 1.2,0.2 2.5,0.3 3.8,0.3 0.5,0 1.1,0 1.6,-0.1 -0.2,0.7 -0.4,1.3 -0.4,1.5 0,0.6 0.5,1 1,1 0.6,0 1,-0.5 1,-1 0,-0.2 -0.2,-0.9 -0.4,-1.7 2,-0.3 3.9,-0.8 5.6,-1.6 -0.4,1.4 -1.2,3.9 -1.2,4.5 0,0.8 0.7,1.5 1.5,1.5 0.8,0 1.5,-0.7 1.5,-1.5 0,-0.6 -0.9,-3.4 -1.3,-4.8 1.6,-0.8 2.9,-1.8 3.9,-2.9 -0.2,0.8 -0.5,1.6 -0.5,1.9 0,0.6 0.5,1 1,1 0.5,0 1,-0.5 1,-1 0,-0.4 -0.5,-2 -0.8,-2.9 0.8,-1.2 1.3,-2.6 1.3,-4 V 13 Z"
         inkscape:connector-curvature="0"
         style="fill:#762c07" />
      <path
         id="path926"
         d="m 35,13 c 0,5 -5.5,9.1 -12.7,9.9 0,-0.1 0,-0.1 0,-0.1 0,0 0,0 0,0.1 C 21.5,22.9 20.8,23 20,23 11.7,23 5,18.5 5,13 v 2 c 0,1.7 0.6,3.2 1.7,4.6 -0.3,1.1 -0.8,2.7 -0.8,3.1 0,0.6 0.5,1.2 1.2,1.2 0.6,0 1.2,-0.5 1.2,-1.2 0,-0.3 -0.2,-1.1 -0.4,-1.9 0.8,0.8 1.8,1.4 2.9,2 -0.3,0.9 -0.6,2.1 -0.6,2.4 0,0.6 0.5,1 1,1 0.6,0 1,-0.5 1,-1 0,-0.3 -0.2,-1.1 -0.5,-2 1.2,0.5 2.5,1 3.9,1.3 -0.4,1.2 -1,3.2 -1,3.7 0,0.7 0.6,1.3 1.3,1.3 0.7,0 1.3,-0.6 1.3,-1.3 0,-0.5 -0.6,-2.3 -0.9,-3.6 1.2,0.2 2.5,0.3 3.8,0.3 0.5,0 1.1,0 1.6,-0.1 -0.2,0.7 -0.4,1.3 -0.4,1.5 0,0.6 0.5,1 1,1 0.5,0 1,-0.5 1,-1 0,-0.2 -0.2,-0.9 -0.4,-1.7 2,-0.3 3.9,-0.8 5.6,-1.6 -0.4,1.4 -1.2,3.9 -1.2,4.5 0,0.8 0.7,1.5 1.5,1.5 0.8,0 1.5,-0.7 1.5,-1.5 0,-0.6 -0.9,-3.4 -1.3,-4.8 1.6,-0.8 2.9,-1.8 3.9,-2.9 -0.2,0.8 -0.5,1.6 -0.5,1.9 0,0.6 0.5,1 1,1 0.5,0 1,-0.5 1,-1 0,-0.4 -0.5,-2 -0.8,-2.9 0.8,-1.2 1.3,-2.6 1.3,-4 V 13 Z"
         inkscape:connector-curvature="0"
         style="opacity:0.15" />
      <path
         id="path928"
         d="m 22,12 c 0,1.1 -0.9,2 -2,2 -1.1,0 -2,-0.9 -2,-2 0,-1.1 2,-3 2,-3 0,0 2,1.9 2,3 z"
         inkscape:connector-curvature="0"
         style="fill:#f8ebcb" />
      <g
         id="g946"
         style="fill:#baa794">
        <path
           id="path930"
           d="m 9,13 c 0,0.6 -0.4,1 -1,1 -0.6,0 -1,-0.4 -1,-1 0,-0.6 1,-1.5 1,-1.5 0,0 1,0.9 1,1.5 z"
           inkscape:connector-curvature="0" />
        <path
           id="path932"
           d="m 33,13 c 0,0.6 -0.4,1 -1,1 -0.6,0 -1,-0.4 -1,-1 0,-0.6 1,-1.5 1,-1.5 0,0 1,0.9 1,1.5 z"
           inkscape:connector-curvature="0" />
        <path
           id="path934"
           d="m 29,19 c 0,0.6 -0.4,1 -1,1 -0.6,0 -1,-0.4 -1,-1 0,-0.6 1,-1.5 1,-1.5 0,0 1,0.9 1,1.5 z"
           inkscape:connector-curvature="0" />
        <path
           id="path936"
           d="m 21,21 c 0,0.6 -0.4,1 -1,1 -0.6,0 -1,-0.4 -1,-1 0,-0.6 1,-1.5 1,-1.5 0,0 1,0.9 1,1.5 z"
           inkscape:connector-curvature="0" />
        <path
           id="path938"
           d="m 21,4.5 c 0,0.6 -0.4,1 -1,1 -0.6,0 -1,-0.4 -1,-1 0,-0.6 1,-1.5 1,-1.5 0,0 1,0.9 1,1.5 z"
           inkscape:connector-curvature="0" />
        <path
           id="path940"
           d="m 13,19 c 0,0.6 -0.4,1 -1,1 -0.6,0 -1,-0.4 -1,-1 0,-0.6 1,-1.5 1,-1.5 0,0 1,0.9 1,1.5 z"
           inkscape:connector-curvature="0" />
        <path
           id="path942"
           d="m 29,7 c 0,0.6 -0.4,1 -1,1 -0.6,0 -1,-0.4 -1,-1 0,-0.6 1,-1.5 1,-1.5 0,0 1,0.9 1,1.5 z"
           inkscape:connector-curvature="0" />
        <path
           id="path944"
           d="m 13,7 c 0,0.6 -0.4,1 -1,1 -0.6,0 -1,-0.4 -1,-1 0,-0.6 1,-1.5 1,-1.5 0,0 1,0.9 1,1.5 z"
           inkscape:connector-curvature="0" />
      </g>
    </g>
    <g
       id="g1139"
       transform="matrix(0.13229166,0,0,0.13229167,141.10831,107.95535)">
      <path
         id="path1032"
         d="m 30.9,53.6 c -3.4,0.9 -6.1,3.6 -6.3,11.2 -0.2,7.6 -2.2,16.1 -4.7,20.8 -2.5,4.7 -7.3,15.8 -8,16.3 -0.7,0.4 -3.6,3.1 -4.4,4.8 -1.4,3 -1.9,9.2 0.2,10 2.1,0.8 2.8,-4.9 3.3,-5.7 0.5,-0.8 3.8,-3.1 3.8,-3.8 0,-0.7 -0.1,-0.7 -0.1,-0.7 0,0 5.1,-6.1 7.9,-9.4 2.8,-3.3 7.3,-9.6 7.7,-11.9 0.6,-2.4 9.8,-34.1 0.6,-31.6 z"
         inkscape:connector-curvature="0"
         style="fill:#fbd7c7" />
      <path
         id="path1034"
         d="m 24.3,206.2 c -11.8,7.6 -12.4,14.4 0,21 13.5,7.2 22.4,3.3 32.9,-2.7 10.5,-6 11.8,-13.4 -3.6,-19.5 -12.5,-5 -20.4,-4.5 -29.3,1.2 z"
         inkscape:connector-curvature="0"
         style="opacity:0.2" />
      <path
         id="path1036"
         d="m 42.3,54.7 c 0,0 -9.1,-4 -12.3,0.3 -3.2,4.3 -1.7,11 -1.7,11 0,0 -5.3,6 -5.3,9.4 0,3.3 5.1,6.5 5.1,6.5 0,0 0.6,15.8 -0.3,22.3 -0.9,6.5 -3.8,23.3 -3.1,33.9 0.7,10.6 1.6,25 1.9,29.2 0.3,4.1 2.2,10 3,14.8 0.9,4.8 4.1,13.2 0.9,19.6 -3.2,6.4 -6.1,9.3 -7.4,10.5 -1.3,1.2 0.2,5.2 3,4.5 2.8,-0.7 7.2,-7.1 9.9,-8.1 2.7,-1.1 7.2,-4 6,-7.7 -1.2,-3.6 -1.7,-2.2 -2,-5.3 -0.3,-3.1 2.2,-16.7 1.3,-22.8 -0.9,-6.1 -3.2,-7.8 -3.6,-8.8 -0.4,-1 5.7,-29.5 5.7,-29.5 0,0 1.2,27.3 1.1,30.2 -0.1,2.9 2.1,17.7 2.7,24.6 0.7,7 1,18.8 -2,22.9 -2.9,4.1 -8,10.3 -6,11.7 2,1.4 8.3,2.7 9.8,-0.9 1.5,-3.6 5.3,-11.1 6.7,-13.1 1.4,-2 1.9,-3.1 1,-5 -0.9,-1.9 -1.5,-5 -0.5,-10.3 1,-5.3 4.1,-14.7 3.3,-19.7 -0.8,-5 -3.2,-8.1 -2.9,-11.7 0.3,-3.5 8.1,-24.8 6.6,-39.7 C 61.6,108.7 54.2,106 52.9,100 51.6,94 55.9,86.1 58.1,81.8 60.3,77.6 63.4,70.2 60.7,67.6 58,64.9 54.8,63.2 53.6,61.2 52.4,59.2 51.1,53 51.1,53 Z"
         inkscape:connector-curvature="0"
         style="fill:#fbd7c7" />
      <path
         id="path1038"
         d="m 24.9,210.3 c 0,0 -4.9,1.7 -5.9,3.9 -0.8,1.8 -0.5,3.9 1.2,5 1.8,1 5.2,1.3 8.2,-0.4 2.9,-1.7 6.8,-8.4 7.5,-8.7 0.7,-0.3 0.2,3.7 0.2,3.7 l 2.1,1.1 2.3,-0.9 c 0,0 -0.2,-4.5 0.7,-6 0.9,-1.5 2.6,-3.9 2,-6.9 -0.6,-3 -2.6,-3.3 -2.6,-3.3 0,0 0,3.5 -4,7.3 -3.8,3.6 -5.9,9.6 -9.2,9.3 -4.5,-0.7 -2.5,-4.1 -2.5,-4.1 z"
         inkscape:connector-curvature="0"
         style="fill:#2d3134" />
      <path
         id="path1040"
         d="m 41.8,217.1 c 0,0 -4.6,3.5 -4.9,5.7 -0.3,2.2 -0.2,3.7 2.9,4.7 3.1,1 7.1,-0.2 9,-1.8 1.9,-1.6 4.4,-5.8 4.4,-5.8 l 2,1.1 2.3,-1.1 c 0,0 -0.3,-2.7 0.4,-5.1 0.7,-2.4 1.4,-4.4 1.4,-7.4 0,-3 -2.8,-3.3 -2.8,-3.3 0,0 1.7,1.6 -0.8,5.1 -2.5,3.5 -4.4,11.3 -8.1,11.5 -7,0.5 -5.8,-3.6 -5.8,-3.6 z"
         inkscape:connector-curvature="0"
         style="fill:#2d3134" />
      <path
         id="path1042"
         d="M 60.3,110.8 C 58.1,107.3 48.7,100.2 58.2,82 c 2.2,-4.2 5.3,-11.6 2.6,-14.2 -2.7,-2.7 -5.9,-4.4 -7.1,-6.4 -1.2,-2 -2.5,-8.2 -2.5,-8.2 l -8.9,1.6 -5.5,-2 c 0,0 -2.5,-0.4 -7.3,1 -4.8,1.4 -5.7,10 -5.8,14.8 0,0.8 -0.1,1.7 -0.2,2.5 -0.7,1.3 -1.2,2.7 -1.2,4.4 0,0.4 0.1,0.8 0.2,1.2 -0.9,3.8 -2.1,6.7 -2.1,6.7 l 7.6,4.4 c 0.2,2.1 0.4,4.7 0.4,7.5 0,2.9 -5,26.6 -6,30.1 -1.9,6.8 -4.2,32.1 -3.7,33.1 2.1,4.2 12.6,3.2 17.4,7.6 4.8,4.4 17.8,3.7 24,1.6 6.2,-2.1 9.4,-5.8 9.2,-6.5 -4.7,-19.1 -3.6,-42 -9,-50.4 z"
         inkscape:connector-curvature="0"
         style="fill:#3399cc" />
      <path
         id="path1044"
         d="m 48,109.2 c 4.6,-1.1 8.5,-3.7 9.3,-4.1 -0.8,-0.9 -1.4,-1.5 -1.4,-1.6 0,0 -7.3,4.4 -17.3,3.6 -10,-0.8 -11.5,-3 -11.5,-3 -1.4,6.7 -4.9,17.6 -5.9,21.2 -1.9,6.8 -5.2,17.9 -4.7,18.8 2.1,4.2 13,3.2 17.8,7.6 4.8,4.4 18.9,1.3 18.9,1.3 0,0 1.1,-17.1 -2.6,-33.4 -0.8,-3.3 -2,-7.7 -2.6,-10.4 z"
         inkscape:connector-curvature="0"
         style="fill:#ffffff" />
      <path
         id="path1046"
         d="M 37.2,54.2 33,74.3 51.2,62.4 51.1,57.1 Z"
         inkscape:connector-curvature="0"
         style="fill:#fbd7c7" />
      <path
         id="path1048"
         d="M 54.3,66.6 33,74.3 51.2,62.4 Z"
         inkscape:connector-curvature="0"
         style="fill:#ffffff" />
      <path
         id="path1050"
         d="M 37.2,54.2 33,74.3 31.3,55.6 Z"
         inkscape:connector-curvature="0"
         style="fill:#ffffff" />
      <path
         id="path1052"
         d="M 22.6,76.1 C 25.7,82 35.1,86.6 49.2,83.5 48.3,85.8 28.1,91 22.6,76.1 Z"
         inkscape:connector-curvature="0"
         style="opacity:0.15" />
      <ellipse
         id="ellipse1054"
         ry="13"
         rx="19.1"
         cy="113"
         cx="25.200001"
         style="fill:#2d3134" />
      <path
         id="path1056"
         d="m 25.3,99 c -8.3,0 -15,4.5 -15,10 v 4 c 0,5.5 6.7,10 15,10 8.3,0 15,-4.5 15,-10 v -4 c 0,-5.5 -6.7,-10 -15,-10 z"
         inkscape:connector-curvature="0"
         style="fill:#baa794" />
      <path
         id="path1058"
         d="m 25.3,119 c -8.3,0 -15,-4.5 -15,-10 v 4 c 0,5.5 6.7,10 15,10 8.3,0 15,-4.5 15,-10 v -4 c 0,5.5 -6.7,10 -15,10 z"
         inkscape:connector-curvature="0"
         style="opacity:0.15" />
      <path
         id="path1060"
         d="m 25.3,95 c -8.3,0 -15,4.5 -15,10 v 4 c 0,5.5 6.7,10 15,10 8.3,0 15,-4.5 15,-10 v -4 c 0,-5.5 -6.7,-10 -15,-10 z"
         inkscape:connector-curvature="0"
         style="fill:#f8ebcb" />
      <path
         id="path1062"
         d="m 40.3,102 c 0,-5.5 -6.7,-10 -15,-10 -8.3,0 -15,4.5 -15,10 v 2 c 0,1.7 0.6,3.2 1.7,4.6 -0.3,1.1 -0.8,2.7 -0.8,3.1 0,0.6 0.5,1.2 1.2,1.2 0.6,0 1.2,-0.5 1.2,-1.2 0,-0.3 -0.2,-1.1 -0.4,-1.9 0.8,0.8 1.8,1.4 2.9,2 -0.3,0.9 -0.6,2.1 -0.6,2.4 0,0.6 0.5,1 1,1 0.6,0 1,-0.5 1,-1 0,-0.3 -0.2,-1.1 -0.5,-2 1.2,0.5 2.5,1 3.9,1.3 -0.4,1.2 -1,3.2 -1,3.7 0,0.7 0.6,1.3 1.3,1.3 0.7,0 1.3,-0.6 1.3,-1.3 0,-0.5 -0.6,-2.3 -0.9,-3.6 1.2,0.2 2.5,0.3 3.8,0.3 0.5,0 1.1,0 1.6,-0.1 -0.2,0.7 -0.4,1.3 -0.4,1.5 0,0.6 0.5,1 1,1 0.6,0 1,-0.5 1,-1 0,-0.2 -0.2,-0.9 -0.4,-1.7 2,-0.3 3.9,-0.8 5.6,-1.6 -0.4,1.4 -1.2,3.9 -1.2,4.5 0,0.8 0.7,1.5 1.5,1.5 0.8,0 1.5,-0.7 1.5,-1.5 0,-0.6 -0.9,-3.4 -1.3,-4.8 1.6,-0.8 2.9,-1.8 3.9,-2.9 -0.2,0.8 -0.5,1.6 -0.5,1.9 0,0.6 0.5,1 1,1 0.5,0 1,-0.5 1,-1 0,-0.4 -0.5,-2 -0.8,-2.9 0.8,-1.2 1.3,-2.6 1.3,-4 V 102 Z"
         inkscape:connector-curvature="0"
         style="fill:#762c07" />
      <path
         id="path1064"
         d="m 40.3,102 c 0,5 -5.5,9.1 -12.7,9.9 0,-0.1 0,-0.1 0,-0.1 0,0 0,0 0,0.1 -0.7,0.1 -1.5,0.1 -2.3,0.1 -8.3,0 -15,-4.5 -15,-10 v 2 c 0,1.7 0.6,3.2 1.7,4.6 -0.3,1.1 -0.8,2.7 -0.8,3.1 0,0.6 0.5,1.2 1.2,1.2 0.6,0 1.2,-0.5 1.2,-1.2 0,-0.3 -0.2,-1.1 -0.4,-1.9 0.8,0.8 1.8,1.4 2.9,2 -0.3,0.9 -0.6,2.1 -0.6,2.4 0,0.6 0.5,1 1,1 0.6,0 1,-0.5 1,-1 0,-0.3 -0.2,-1.1 -0.5,-2 1.2,0.5 2.5,1 3.9,1.3 -0.4,1.2 -1,3.2 -1,3.7 0,0.7 0.6,1.3 1.3,1.3 0.7,0 1.3,-0.6 1.3,-1.3 0,-0.5 -0.6,-2.3 -0.9,-3.6 1.2,0.2 2.5,0.3 3.8,0.3 0.5,0 1.1,0 1.6,-0.1 -0.2,0.7 -0.4,1.3 -0.4,1.5 0,0.6 0.5,1 1,1 0.5,0 1,-0.5 1,-1 0,-0.2 -0.2,-0.9 -0.4,-1.7 2,-0.3 3.9,-0.8 5.6,-1.6 -0.4,1.4 -1.2,3.9 -1.2,4.5 0,0.8 0.7,1.5 1.5,1.5 0.8,0 1.5,-0.7 1.5,-1.5 0,-0.6 -0.9,-3.4 -1.3,-4.8 1.6,-0.8 2.9,-1.8 3.9,-2.9 -0.2,0.8 -0.5,1.6 -0.5,1.9 0,0.6 0.5,1 1,1 0.5,0 1,-0.5 1,-1 0,-0.4 -0.5,-2 -0.8,-2.9 0.8,-1.2 1.3,-2.6 1.3,-4 V 102 Z"
         inkscape:connector-curvature="0"
         style="opacity:0.15" />
      <path
         id="path1066"
         d="m 27.3,101 c 0,1.1 -0.9,2 -2,2 -1.1,0 -2,-0.9 -2,-2 0,-1.1 2,-3 2,-3 0,0 2,1.9 2,3 z"
         inkscape:connector-curvature="0"
         style="fill:#f8ebcb" />
      <g
         id="g1084"
         style="fill:#baa794">
        <path
           id="path1068"
           d="m 14.3,102 c 0,0.6 -0.4,1 -1,1 -0.6,0 -1,-0.4 -1,-1 0,-0.6 1,-1.5 1,-1.5 0,0 1,0.9 1,1.5 z"
           inkscape:connector-curvature="0" />
        <path
           id="path1070"
           d="m 38.3,102 c 0,0.6 -0.4,1 -1,1 -0.6,0 -1,-0.4 -1,-1 0,-0.6 1,-1.5 1,-1.5 0,0 1,0.9 1,1.5 z"
           inkscape:connector-curvature="0" />
        <path
           id="path1072"
           d="m 34.3,108 c 0,0.6 -0.4,1 -1,1 -0.6,0 -1,-0.4 -1,-1 0,-0.6 1,-1.5 1,-1.5 0,0 1,0.9 1,1.5 z"
           inkscape:connector-curvature="0" />
        <path
           id="path1074"
           d="m 26.3,110 c 0,0.6 -0.4,1 -1,1 -0.6,0 -1,-0.4 -1,-1 0,-0.6 1,-1.5 1,-1.5 0,0 1,0.9 1,1.5 z"
           inkscape:connector-curvature="0" />
        <path
           id="path1076"
           d="m 26.3,93.5 c 0,0.6 -0.4,1 -1,1 -0.6,0 -1,-0.4 -1,-1 0,-0.6 1,-1.5 1,-1.5 0,0 1,0.9 1,1.5 z"
           inkscape:connector-curvature="0" />
        <path
           id="path1078"
           d="m 18.3,108 c 0,0.6 -0.4,1 -1,1 -0.6,0 -1,-0.4 -1,-1 0,-0.6 1,-1.5 1,-1.5 0,0 1,0.9 1,1.5 z"
           inkscape:connector-curvature="0" />
        <path
           id="path1080"
           d="m 34.3,96 c 0,0.6 -0.4,1 -1,1 -0.6,0 -1,-0.4 -1,-1 0,-0.6 1,-1.5 1,-1.5 0,0 1,0.9 1,1.5 z"
           inkscape:connector-curvature="0" />
        <path
           id="path1082"
           d="m 18.3,96 c 0,0.6 -0.4,1 -1,1 -0.6,0 -1,-0.4 -1,-1 0,-0.6 1,-1.5 1,-1.5 0,0 1,0.9 1,1.5 z"
           inkscape:connector-curvature="0" />
      </g>
      <path
         id="path1086"
         d="M 33.7,33.8 C 32,37 30.9,44.3 31.8,48.6 c 0.9,4.3 2.5,6.8 3.7,7.1 1.2,0.3 2.5,-0.2 2.5,-0.2 0,0 0.4,1.2 0.1,2.7 -0.6,3 -2.2,7.5 -1.8,8 0.5,0.7 8.8,-3 11.5,-5.2 2.2,-1.7 4,-4.8 3.9,-5.3 -0.1,-0.5 -1.7,-3.8 -1.5,-5 0.2,-1.2 3,-3.7 3.2,-4.9 C 53.6,44.6 56.2,34 48.3,31.2 40.4,28.4 35.8,29.8 33.7,33.8 Z"
         inkscape:connector-curvature="0"
         style="fill:#fbd7c7" />
      <path
         id="path1088"
         d="m 32.2,35.9 c 0,1.4 1.4,1.6 3.9,2.9 2.5,1.3 4.8,5.8 6.9,6.4 2.1,0.6 4.9,0 6.8,-0.4 2,-0.4 2.9,0.6 3.1,1.4 0.2,0.8 4.6,-6.3 2.6,-11.9 -2.1,-6 -9.3,-9.8 -16.2,-6.9 -6.3,2.8 -7.1,7.3 -7.1,8.5 z"
         inkscape:connector-curvature="0"
         style="fill:#825012" />
      <path
         id="path1090"
         d="m 55.4,68 c 2.7,-2 8.4,-0.4 9.5,6.7 1.1,7.1 3.8,17.6 4.9,21.3 1.1,3.7 2.7,8 -0.8,11 -3.5,3 -19.4,11.7 -22.2,13.8 -2.7,2 -2.9,2.6 -6.4,4.8 -3.5,2.2 -8,2.7 -9.8,1.8 -2.2,-1.1 -1.4,-2.6 0.9,-3.9 2.9,-1.6 6,-4.3 6.7,-5.7 0.7,-1.4 1.5,-2 4,-2.4 2.5,-0.4 1,0.3 4,-1.5 3,-1.8 7.2,-6.9 10.7,-9.6 3,-2.3 5.3,-3.3 5.3,-3.3 0,0 -3.5,-7.5 -5.6,-13 -1.9,-5.7 -7.2,-15.7 -1.2,-20 z"
         inkscape:connector-curvature="0"
         style="fill:#fbd7c7" />
      <path
         id="path1092"
         d="m 59.9,96.4 9.3,-3 c -1.3,-5 -2.8,-12.7 -3.8,-18.5 -1.2,-7.4 -7.3,-9.1 -10.3,-7.3 -7.8,4.9 -1.4,14.6 0.8,20.3 0.9,2.6 2.9,6 4,8.5 z"
         inkscape:connector-curvature="0"
         style="fill:#3399cc" />
      <path
         id="path1094"
         d="m 55.5,43.8 c 0,0 4.9,4.5 3.8,9.7 -2.9,15 -4.8,7.8 -6.8,25.2 C 49.2,71.3 47,58.3 50,51.3 c 1.3,-3.2 5.5,-7.5 5.5,-7.5 z"
         inkscape:connector-curvature="0"
         style="fill:#825012" />
      <path
         id="path1096"
         d="m 55.6,42.2 c 1.3,0.7 0.9,2.4 -0.4,3.7 -1.3,1.3 -1.9,2.1 -2.8,1.4 -0.8,-0.7 0.3,-1.4 1.3,-2.9 0.9,-1.4 1.2,-2.6 1.9,-2.2 z"
         inkscape:connector-curvature="0"
         style="fill:#3399cc" />
    </g>
    <path
       style="fill:none;stroke:#000000;stroke-width:1;stroke-miterlimit:4;stroke-dasharray:none;stroke-opacity:1"
       inkscape:connector-curvature="0"
       d="m 131.83122,128.25346 c -0.5477,0.25314 -0.96419,1.03557 -1.13534,2.13251 -0.0361,0.23779 -0.0437,0.3682 -0.0437,0.76709 0.002,0.57148 0.0304,0.82462 0.15404,1.32323 0.18447,0.75558 0.5439,1.36158 0.94327,1.58404 0.18827,0.10355 0.57242,0.0921 0.75689,-0.023 0.4279,-0.27231 0.75119,-0.81695 0.94137,-1.59938 0.1141,-0.46792 0.15024,-0.83229 0.13692,-1.39994 -0.008,-0.33368 -0.0209,-0.51395 -0.0609,-0.74791 -0.15404,-0.93968 -0.51538,-1.66459 -0.9756,-1.96759 -0.24421,-0.11872 -0.51924,-0.16742 -0.71695,-0.0691 z"
       id="path1143"
       sodipodi:nodetypes="cccccccccccc" />
    <path
       style="fill:none;stroke:#000000;stroke-width:1;stroke-miterlimit:4;stroke-dasharray:none;stroke-opacity:1"
       inkscape:connector-curvature="0"
       d="m 127.42251,131.31651 c -0.14833,0.10356 -0.31569,0.32218 -0.39746,0.52162 -0.0913,0.22246 -0.18257,0.62902 -0.20729,0.92818 -0.0818,0.97804 0.20539,1.87554 0.67702,2.121 0.39747,0.20712 0.82726,-0.16108 1.02695,-0.88215 0.097,-0.34902 0.12741,-0.61751 0.1179,-1.03173 -0.019,-0.78627 -0.25483,-1.41912 -0.62377,-1.66843 -0.16165,-0.11122 -0.42219,-0.10355 -0.59335,0.0115 z"
       id="path1145" />
    <path
       style="fill:none;stroke:#000000;stroke-width:1;stroke-miterlimit:4;stroke-dasharray:none;stroke-opacity:1"
       inkscape:connector-curvature="0"
       d="m 124.20975,133.58271 c -0.29287,0.24163 -0.46592,0.81695 -0.41458,1.36925 0.0399,0.41423 0.17877,0.78627 0.36894,0.98188 0.0799,0.0844 0.12362,0.10356 0.24913,0.10356 0.18257,0.004 0.29097,-0.0844 0.43931,-0.36821 0.14643,-0.27998 0.18827,-0.47559 0.18827,-0.89366 0,-0.29916 -0.008,-0.37203 -0.0513,-0.53696 -0.0266,-0.10739 -0.0951,-0.27999 -0.15214,-0.38738 -0.18257,-0.34903 -0.41078,-0.44875 -0.62758,-0.26848 z"
       id="path1147" />
    <path
       style="fill:#000000;fill-opacity:1;fill-rule:nonzero;stroke:none;stroke-width:0.264583"
       d="m 200.77993,169.92387 c -0.0133,1.62341 -0.063,4.19243 -0.0588,5.81592 0.007,1.8282 0.007,3.65641 0.008,5.48463 -0.003,1.2914 -0.008,2.58289 0.0446,3.87356 0.0298,1.13212 0.0533,2.2645 0.0989,3.39611 0.0218,0.64624 0.0415,1.29267 0.0324,1.93937 -0.005,0.51905 -0.0122,1.03865 -0.0545,1.55628 -0.0473,0.47142 -0.11121,0.94104 -0.1979,1.40695 -0.11391,0.58819 -0.24965,1.17338 -0.43794,1.74267 -0.20567,0.54876 -0.45198,1.08777 -0.84998,1.52677 -0.0611,0.0586 -0.11787,0.122 -0.18319,0.17583 -0.33534,0.27627 -0.74903,0.37717 -1.177,0.33673 -0.0937,-0.0221 -0.18898,-0.0383 -0.28115,-0.0661 -0.51059,-0.15392 -0.95986,-0.45361 -1.28804,-0.87384 -0.0649,-0.0972 -0.13638,-0.19027 -0.19484,-0.29147 -0.37811,-0.65459 -0.58561,-1.397 -0.79923,-2.11576 -0.0342,-0.15949 -0.0731,-0.31802 -0.1025,-0.47845 -0.13469,-0.73416 -0.16303,-1.47751 0.01,-2.20843 0.19838,-0.67199 0.40791,-1.25724 0.97449,-1.70673 0.0724,-0.0486 0.14122,-0.10303 0.21718,-0.1459 0.39198,-0.22105 0.86119,-0.24968 1.29588,-0.17632 0.23387,0.0631 0.32453,0.0756 0.54484,0.18357 0.41011,0.20099 0.76847,0.49904 1.07654,0.83243 0.46746,0.5434 0.87123,1.10374 1.10795,1.78834 0.11502,0.35574 0.2211,0.71703 0.22214,1.09441 0.033,0.62138 0.91174,0.57474 0.87876,-0.0466 l 5e-5,-1.1e-4 c -0.004,-0.45301 -0.12666,-0.8884 -0.26292,-1.31648 -0.22722,-0.6425 -0.57338,-1.23427 -0.99878,-1.76534 -0.0896,-0.11174 -0.18586,-0.21782 -0.27878,-0.32673 -0.46641,-0.50361 -1.02267,-0.94614 -1.67524,-1.18116 -0.12269,-0.0442 -0.25042,-0.0729 -0.37562,-0.10935 -0.50264,-0.10293 -1.02749,-0.0969 -1.5188,0.0643 -0.3449,0.11313 -0.40047,0.17319 -0.70773,0.36386 -0.59159,0.43446 -0.96411,1.05743 -1.20498,1.74139 -0.0525,0.14905 -0.0919,0.3024 -0.13783,0.45359 -0.21095,0.85522 -0.19172,1.72966 -0.037,2.59195 0.032,0.17797 0.0747,0.35384 0.11199,0.53076 0.22553,0.78326 0.46608,1.6143 0.87313,2.32676 0.0748,0.13107 0.16397,0.2535 0.24596,0.38024 0.4332,0.57443 1.02688,0.99525 1.71303,1.21436 0.12493,0.0399 0.25414,0.0648 0.38122,0.0972 0.53528,0.0752 1.06873,0.009 1.54945,-0.24821 0.3017,-0.16133 0.36465,-0.24498 0.61731,-0.47121 0.50688,-0.52866 0.82074,-1.18712 1.07744,-1.86367 0.20744,-0.61526 0.35456,-1.24889 0.47846,-1.88559 0.092,-0.49225 0.15936,-0.9885 0.2096,-1.48661 0.0456,-0.54379 0.0532,-1.08976 0.0589,-1.63514 0.009,-0.65965 -0.0107,-1.31904 -0.0329,-1.97822 -0.0456,-1.12946 -0.069,-2.25968 -0.0988,-3.38964 -0.0521,-1.28236 -0.0469,-2.56553 -0.0443,-3.84863 -0.001,-1.82987 -0.001,-3.65976 -0.008,-5.48963 -0.004,-1.62 0.0456,-4.18554 0.0588,-5.80547"
       id="path18" />
    <path
       style="fill:#ff4400;fill-opacity:1;fill-rule:nonzero;stroke:none;stroke-width:0.264583"
       d="m 201.6599,169.93102 c 0.0104,-1.26652 -0.0147,-1.58743 -0.0117,-2.85399 0.001,-0.62225 -0.87857,-0.62428 -0.88,-0.002 v 0 c -0.003,1.26483 0.0221,1.58402 0.0117,2.84881"
       id="path2" />
    <path
       style="fill:#000000;fill-opacity:1;fill-rule:nonzero;stroke:none;stroke-width:0.264583"
       id="path3"
       d="m 195.67468,194.8863 c 0.23584,0.0476 0.48272,0.10468 0.72527,0.0835 0.0825,-0.007 0.16336,-0.0275 0.24504,-0.0411 0.0949,-0.0442 0.20105,-0.0698 0.28474,-0.1327 0.45721,-0.34379 0.62245,-0.98723 0.61645,-1.53153 -0.002,-0.17727 -0.0342,-0.35296 -0.0511,-0.52944 -0.21139,-1.06714 -0.70338,-2.04692 -1.32119,-2.93535 -0.15171,-0.21817 -0.31744,-0.42624 -0.47615,-0.63937 -1.0203,-1.28294 -2.21015,-2.41154 -3.42945,-3.5011 -0.49124,-0.43703 -0.98954,-0.86599 -1.48631,-1.2967 -0.47015,-0.40763 -1.04662,0.25726 -0.57647,0.66488 v 0 c 0.49347,0.42785 0.98848,0.85396 1.47648,1.28805 1.17572,1.05023 2.3242,2.13674 3.31063,3.37138 0.14744,0.19691 0.30129,0.38919 0.44234,0.59074 0.54188,0.77433 0.98281,1.6251 1.18535,2.55333 0.0486,0.37975 0.0821,0.5714 -0.0272,0.9422 -0.0176,0.06 -0.046,0.11634 -0.066,0.17559 -0.008,0.0242 -0.007,0.0515 -0.0184,0.0746 -0.008,0.0171 -0.0248,0.0285 -0.0372,0.0427 -0.19041,0.058 -0.39244,0.006 -0.58296,-0.0333 -0.6036,-0.15122 -0.81745,0.70239 -0.21386,0.85362 z" />
    <path
       style="fill:#000000;fill-opacity:1;fill-rule:nonzero;stroke:none;stroke-width:0.264583"
       d="m 198.227,164.4605 c -0.43685,0.12142 -0.87198,0.25544 -1.28086,0.45433 -0.16623,0.0828 -0.23023,0.11206 -0.39276,0.20399 -0.25049,0.14183 -0.48996,0.30271 -0.72134,0.47368 -0.33351,0.25846 -0.65434,0.53452 -0.93085,0.8547 -0.25759,0.30396 -0.50024,0.62227 -0.68657,0.97593 -0.0777,0.15069 -0.11228,0.21095 -0.17882,0.36805 -0.11362,0.26825 -0.19502,0.54916 -0.26374,0.83179 -0.0422,0.20191 -0.0613,0.27979 -0.0923,0.48664 -0.0546,0.36339 -0.0828,0.73058 -0.11306,1.09651 -0.005,0.10191 -0.0121,0.20372 -0.0149,0.3057 -0.0137,0.49413 0.0241,0.98894 0.0923,1.47807 0.0437,0.23936 0.0587,0.338 0.11512,0.57669 0.0945,0.3997 0.21834,0.79228 0.36112,1.1772 0.0388,0.0956 0.0756,0.19199 0.11643,0.28674 0.20053,0.46602 0.44929,0.90982 0.72746,1.33367 0.0596,0.0871 0.11786,0.17514 0.17892,0.26123 0.30179,0.42545 0.63906,0.82428 0.98663,1.21272 0.3617,0.39817 0.73804,0.7824 1.10797,1.17286 0.38193,0.40807 0.76001,0.81967 1.13022,1.23842 0.3372,0.3752 0.6783,0.74731 0.99984,1.13618 0.30898,0.38178 0.61591,0.76691 0.87073,1.18796 0.16475,0.28411 0.32342,0.57524 0.40764,0.89498 0.0333,0.12371 0.0664,0.24738 0.0717,0.3761 0.0605,0.6193 0.93632,0.53376 0.87583,-0.0855 l -4.9e-4,5.3e-4 c -0.0101,-0.17583 -0.0524,-0.34646 -0.0969,-0.51612 -0.0845,-0.31214 -0.21628,-0.60932 -0.37136,-0.89247 -0.0401,-0.0732 -0.0832,-0.14463 -0.12477,-0.21694 -0.2768,-0.46158 -0.61092,-0.88396 -0.94876,-1.30151 -0.33077,-0.40096 -0.68205,-0.78436 -1.02941,-1.17086 -0.37415,-0.42317 -0.75627,-0.83911 -1.14222,-1.25151 -0.36651,-0.3876 -0.74047,-0.76801 -1.09897,-1.16308 -0.26219,-0.29357 -0.51895,-0.59254 -0.75649,-0.90662 -0.15864,-0.20976 -0.18642,-0.25608 -0.33418,-0.47253 -0.24976,-0.38192 -0.47324,-0.78158 -0.65289,-1.20143 -0.0357,-0.0833 -0.0677,-0.1681 -0.1015,-0.25214 -0.12802,-0.34879 -0.23963,-0.70421 -0.32459,-1.06608 -0.0484,-0.20568 -0.0641,-0.30823 -0.10166,-0.51553 -0.0579,-0.43527 -0.0915,-0.8751 -0.0778,-1.3145 0.002,-0.0891 0.009,-0.17825 0.0139,-0.26736 0.0292,-0.34323 0.0554,-0.68775 0.10697,-1.0286 0.025,-0.16572 0.0463,-0.2552 0.0808,-0.41819 0.0585,-0.23471 0.12595,-0.46849 0.22171,-0.69111 0.0478,-0.11104 0.0847,-0.17684 0.14087,-0.28443 0.15673,-0.29389 0.36026,-0.55839 0.57577,-0.81094 0.23756,-0.27285 0.51273,-0.50814 0.79855,-0.7284 0.20268,-0.14881 0.41213,-0.28923 0.63138,-0.41263 0.13339,-0.0751 0.19882,-0.10518 0.33608,-0.1732 0.35916,-0.17293 0.74137,-0.28846 1.12448,-0.39444"
       id="path19" />
    <path
       style="fill:#ff4400;fill-opacity:1;fill-rule:nonzero;stroke:none;stroke-width:0.264583"
       d="m 198.46215,165.30901 c 0.37018,-0.10256 0.74574,-0.18246 1.12388,-0.24893 0.32769,-0.057 0.6597,-0.0824 0.99104,-0.10727 0.27854,-0.0198 0.55764,-0.0336 0.83689,-0.0364 0.19453,-2.1e-4 0.38905,10e-4 0.58357,6.8e-4 0.13244,-2e-5 0.26477,-0.004 0.39717,-0.004 0.062,-0.001 0.12391,10e-4 0.18586,0.004 0.62198,0.019 0.64865,-0.86072 0.0267,-0.87959 v 0 c -0.0711,-0.002 -0.1424,-0.005 -0.21365,-0.004 -0.13271,4e-5 -0.26536,0.003 -0.39805,0.004 -0.19732,4.6e-4 -0.39465,-0.001 -0.59198,-6.2e-4 -0.29774,0.004 -0.59541,0.0165 -0.89237,0.0383 -0.36041,0.0271 -0.72144,0.0557 -1.07781,0.11819 -0.40589,0.0716 -0.80905,0.15749 -1.20642,0.26759"
       id="path4" />
    <path
       style="fill:#ff4400;fill-opacity:1;fill-rule:nonzero;stroke:none;stroke-width:0.264583"
       id="path5"
       d="m 205.77994,166.82947 c -0.085,-0.0151 -0.16828,-0.0359 -0.25138,-0.0594 -0.12718,-0.0452 -0.2626,-0.0829 -0.37276,-0.16421 -0.0168,-0.0123 -0.0317,-0.027 -0.0475,-0.0403 -0.0305,-0.0336 -0.0598,-0.063 -0.0841,-0.10211 -0.0634,-0.1022 -0.0834,-0.23059 -0.10658,-0.3459 -0.0295,-0.16903 -0.0337,-0.34364 0.0169,-0.50923 0.008,-0.0238 0.0178,-0.0465 0.0267,-0.0698 0.0689,-0.15806 0.18807,-0.28488 0.30142,-0.41193 0.1123,-0.12105 0.22417,-0.24276 0.32149,-0.37646 0.0774,-0.10631 0.0891,-0.13101 0.15763,-0.24409 0.14595,-0.2669 0.24513,-0.56773 0.21702,-0.87617 -0.007,-0.0787 -0.0277,-0.15571 -0.0416,-0.23356 -0.0904,-0.33311 -0.26716,-0.63437 -0.49217,-0.8945 -0.0421,-0.0487 -0.0878,-0.0942 -0.13176,-0.14125 -0.16167,-0.15831 -0.0809,-0.0819 -0.24206,-0.22931 -0.45993,-0.41913 -1.05267,0.23129 -0.59275,0.65043 v 0 c 0.1308,0.11873 0.0657,0.0577 0.19512,0.18321 0.0296,0.0307 0.0603,0.0603 0.0886,0.092 0.13584,0.15213 0.2502,0.32728 0.31409,0.52178 0.007,0.0232 0.0178,0.0457 0.0226,0.0697 0.029,0.14128 -0.0294,0.2822 -0.092,0.40522 -0.0471,0.08 -0.0493,0.0876 -0.10343,0.16401 -0.0823,0.11632 -0.18243,0.2183 -0.27795,0.3236 -0.19129,0.21499 -0.37632,0.43833 -0.47697,0.71242 -0.0176,0.0544 -0.0382,0.10793 -0.053,0.16316 -0.0776,0.28956 -0.0723,0.59248 -0.0184,0.88548 0.0138,0.0619 0.0248,0.1247 0.0415,0.18603 0.0841,0.3101 0.22585,0.56231 0.47066,0.77287 0.0432,0.0323 0.0847,0.0668 0.1295,0.0968 0.18034,0.12046 0.38682,0.19375 0.59187,0.25942 0.0882,0.0247 0.17623,0.048 0.26643,0.0642 0.004,5.9e-4 -0.0108,-0.003 -0.0108,-0.003 0.59992,0.16521 0.83357,-0.68321 0.23365,-0.84842 z" />
    <path
       style="fill:#ff4400;fill-opacity:1;fill-rule:nonzero;stroke:none;stroke-width:0.264583"
       d="m 200.6445,159.08015 c -0.009,0.417 -0.0127,0.83454 0.009,1.25126 0.0189,0.33661 0.0397,0.67322 0.0496,1.01025 0.003,0.19692 0.004,0.39388 0.005,0.59082 0.033,0.62138 0.91174,0.57474 0.87876,-0.0466 l -5e-4,4.6e-4 c 10e-4,-0.18622 -0.001,-0.37244 -0.004,-0.55863 -0.01,-0.34871 -0.031,-0.69697 -0.0505,-1.04524 -0.0201,-0.3939 -0.0163,-0.78857 -0.008,-1.18272"
       id="path20" />
    <path
       style="fill:#000000;fill-opacity:1;fill-rule:nonzero;stroke:none;stroke-width:0.264583"
       d="m 201.52424,159.09971 c 0.0154,-0.53653 0.0342,-1.07295 0.051,-1.60944 0.019,-0.50799 0.0338,-1.01613 0.0503,-1.52419 0.0162,-0.47015 0.0232,-0.94053 0.0263,-1.41091 0.002,-0.38344 -9.5e-4,-0.76688 -0.007,-1.15027 -0.006,-0.31931 -0.0224,-0.63826 -0.0395,-0.95712 l -0.007,-0.12404 c -0.034,-0.62132 -0.91266,-0.57327 -0.8787,0.0476 v 0 c 0.002,0.041 0.004,0.082 0.007,0.12302 0.0165,0.30805 0.0326,0.61617 0.0384,0.92465 0.006,0.3766 0.01,0.75323 0.007,1.12989 -0.003,0.4628 -0.01,0.92558 -0.0258,1.38813 -0.0165,0.50842 -0.0312,1.01689 -0.0503,1.52522 -0.0168,0.53929 -0.0359,1.07852 -0.0512,1.61786"
       id="path6" />
    <path
       id="path7"
       style="fill:#000000;fill-opacity:1;fill-rule:nonzero;stroke:none;stroke-width:0.264583"
       d="m 196.67552,147.64826 c 0.11192,0.7615 0.32559,1.51418 0.6216,2.22461 0.315,0.59619 0.68323,1.17325 1.12183,1.68664 0.34867,0.37809 0.83673,0.6215 1.27837,0.81689 1.12125,0.49603 2.45083,0.66255 3.58002,0.10606 0.71099,-0.34217 1.30888,-0.91725 1.72812,-1.58036 0.37436,-0.76128 0.58303,-1.60597 0.65937,-2.44886 0.0549,-2.07227 -1.29339,-4.12016 -3.24422,-4.84743 -1.18091,-0.46101 -2.53685,-0.48479 -3.72825,-0.0511 -0.9328,0.45688 -1.42751,1.4535 -1.77486,2.38297 -0.19284,0.54662 -0.29602,1.13086 -0.24198,1.7106 z m 0.87827,-0.0569 c -0.0754,-0.96517 0.33739,-1.90681 0.87447,-2.68638 0.25751,-0.37752 0.66002,-0.62839 1.11307,-0.68451 1.52214,-0.32554 3.23093,0.17292 4.22676,1.39791 0.66324,0.80072 1.0796,1.85391 1.01075,2.90143 -0.0967,0.69454 -0.25154,1.40189 -0.58171,2.02566 -0.51886,0.72986 -1.30646,1.34198 -2.23128,1.38634 -0.82041,0.0525 -1.3177,-0.12882 -2.06063,-0.45008 -0.47776,-0.20659 -1.03247,-0.74546 -1.29121,-1.12899 -0.39144,-0.52494 -0.67954,-1.1182 -0.82994,-1.75621 -0.0904,-0.33122 -0.19228,-0.66326 -0.23028,-1.00517 z"
       sodipodi:nodetypes="cccsccccccccccccccsccc" />
    <path
       style="fill:#000000;fill-opacity:1;fill-rule:nonzero;stroke:none;stroke-width:0.264583"
       id="path13"
       d="m 201.16652,143.47208 c 0.005,0.0139 0.007,0.0297 0.015,0.0416 0.005,0.007 -0.003,-0.0176 -0.003,-0.0263 -0.006,-0.0461 -0.0106,-0.0858 -0.0151,-0.13301 -0.009,-0.092 -0.0128,-0.14754 -0.0209,-0.24257 -0.0239,-0.29951 -0.0453,-0.59919 -0.0648,-0.89899 -0.0475,-0.62593 -0.0625,-1.25326 -0.0769,-1.88061 -0.016,-0.74051 -0.0352,-1.48092 -0.0584,-2.22125 -0.0357,-0.72967 -0.0304,-1.45976 -0.005,-2.18957 0.0343,-0.83599 0.0815,-1.67147 0.13583,-2.50639 0.039,-0.64398 0.092,-1.28666 0.18268,-1.92552 0.069,-0.42427 0.15459,-0.84839 0.29082,-1.25689 0.0261,-0.0782 0.056,-0.15508 0.084,-0.23262 0.23744,-0.61501 0.49916,-1.22024 0.77666,-1.81814 0.24645,-0.52398 0.55668,-1.01271 0.88562,-1.48784 0.2591,-0.37935 0.56094,-0.72521 0.8675,-1.06616 0.24294,-0.26725 0.48975,-0.53093 0.73597,-0.79515 0.10133,-0.10709 0.20198,-0.21482 0.30337,-0.32188 0.42787,-0.45181 -0.21109,-1.0569 -0.63896,-0.60509 v 0 c -0.10299,0.10877 -0.20527,0.2182 -0.3082,0.32703 -0.2498,0.26805 -0.50019,0.53558 -0.7466,0.80676 -0.33147,0.36874 -0.65656,0.74383 -0.93684,1.15391 -0.35699,0.51664 -0.69299,1.04844 -0.96016,1.61811 -0.28835,0.62192 -0.5608,1.25127 -0.80667,1.8913 -0.0325,0.0913 -0.0673,0.18177 -0.0976,0.27377 -0.14928,0.45198 -0.24468,0.92046 -0.32019,1.38966 -0.0932,0.6609 -0.14964,1.3255 -0.18951,1.99169 -0.0548,0.84392 -0.10263,1.6884 -0.13717,2.53341 -0.0254,0.74901 -0.031,1.49832 0.005,2.2472 0.0231,0.73797 0.0423,1.47605 0.0582,2.21421 0.0149,0.63956 0.0302,1.27912 0.0785,1.91724 0.0202,0.30479 0.0424,0.60946 0.0659,0.91399 0.0169,0.2042 0.0249,0.41269 0.0829,0.61035 0.22777,0.57906 1.0467,0.25693 0.81892,-0.32213 z" />
    <path
       style="fill:#000000;fill-opacity:1;fill-rule:nonzero;stroke:none;stroke-width:0.264583"
       id="path14"
       d="m 204.88456,123.58335 c -0.29432,-0.0813 -0.5909,-0.15585 -0.88551,-0.23685 -0.46635,-0.12818 -0.92872,-0.27039 -1.39472,-0.39981 -0.43579,-0.12101 -0.5953,-0.15972 -1.03908,-0.27388 -0.9065,-0.22932 -1.81544,-0.44893 -2.72532,-0.66439 -0.44466,-0.10333 -0.22774,-0.0528 -0.65077,-0.15149 -0.60598,-0.14135 -0.80588,0.71565 -0.19988,0.85699 v 0 c 0.42254,0.0986 0.20659,0.0483 0.64787,0.15081 0.90441,0.21416 1.80787,0.43245 2.70891,0.66035 0.42946,0.11042 0.59477,0.15065 1.01623,0.26768 0.46895,0.13021 0.93422,0.27339 1.40354,0.40227 0.31624,0.0869 0.63382,0.16829 0.95085,0.25215 0.61082,0.11872 0.7787,-0.74512 0.16788,-0.86383 z" />
    <path
       style="fill:#000000;fill-opacity:1;fill-rule:nonzero;stroke:none;stroke-width:0.264583"
       id="path15"
       d="m 201.85249,122.96651 c 0.0286,-0.17671 0.041,-0.35546 0.0647,-0.53287 0.0325,-0.20159 0.0901,-0.39773 0.1414,-0.59501 0.0542,-0.19688 0.0964,-0.39658 0.13054,-0.59785 0.0203,-0.10949 0.0389,-0.21927 0.0599,-0.32866 0.11644,-0.61125 -0.74802,-0.77591 -0.86445,-0.16465 v 0 c -0.0219,0.11552 -0.042,0.23139 -0.0632,0.34704 -0.0294,0.17606 -0.0669,0.35051 -0.11446,0.52263 -0.0604,0.23213 -0.1272,0.4632 -0.16211,0.701 -0.0211,0.15994 -0.0352,0.32061 -0.0561,0.48048 -0.11872,0.61083 0.74511,0.77871 0.86383,0.16789 z" />
    <path
       style="fill:#000000;fill-opacity:1;fill-rule:nonzero;stroke:none;stroke-width:0.264583"
       id="path16"
       d="m 199.93488,122.27533 c 0.0107,-0.16573 0.0322,-0.33061 0.051,-0.49556 0.0211,-0.25308 0.063,-0.50278 0.11671,-0.75067 0.0405,-0.16943 0.0807,-0.33883 0.11691,-0.50921 0.12891,-0.60876 -0.732,-0.79106 -0.86091,-0.1823 v 0 c -0.0357,0.16911 -0.0764,0.33706 -0.11608,0.50531 -0.0597,0.27645 -0.10671,0.55498 -0.13094,0.83705 -0.0243,0.21319 -0.0562,0.42707 -0.0555,0.64201 0.033,0.62139 0.91174,0.57475 0.87877,-0.0466 z" />
    <path
       style="fill:#000000;fill-opacity:1;fill-rule:nonzero;stroke:none;stroke-width:0.264583"
       id="path17"
       d="m 203.77065,123.64199 c 0.11544,-0.23332 0.19076,-0.48467 0.26625,-0.73309 0.10067,-0.31995 0.18296,-0.64518 0.26369,-0.97059 0.0315,-0.12641 0.0601,-0.25351 0.088,-0.38074 0.13329,-0.6078 -0.72628,-0.79632 -0.85957,-0.18851 v 0 c -0.0262,0.11945 -0.053,0.23875 -0.0825,0.35741 -0.0771,0.31102 -0.15552,0.6219 -0.25188,0.92764 -0.0603,0.20018 -0.11959,0.40346 -0.21005,0.59237 -0.27967,0.55587 0.50646,0.95138 0.78611,0.39551 z" />
  </g>
</svg>
