<?xml version="1.0" encoding="UTF-8" standalone="no"?>
<svg
   id="svg1124"
   version="1.1"
   viewBox="0 0 44.21484 54.698548"
   height="54.698547mm"
   width="44.21484mm"
   sodipodi:docname="5 ni li waso..svg"
   inkscape:version="1.3 (0e150ed6c4, 2023-07-21)"
   xmlns:inkscape="http://www.inkscape.org/namespaces/inkscape"
   xmlns:sodipodi="http://sodipodi.sourceforge.net/DTD/sodipodi-0.dtd"
   xmlns="http://www.w3.org/2000/svg"
   xmlns:svg="http://www.w3.org/2000/svg"
   xmlns:rdf="http://www.w3.org/1999/02/22-rdf-syntax-ns#"
   xmlns:cc="http://creativecommons.org/ns#"
   xmlns:dc="http://purl.org/dc/elements/1.1/">
  <sodipodi:namedview
     id="namedview1"
     pagecolor="#ffffff"
     bordercolor="#000000"
     borderopacity="0.25"
     inkscape:showpageshadow="2"
     inkscape:pageopacity="0.0"
     inkscape:pagecheckerboard="0"
     inkscape:deskcolor="#d1d1d1"
     inkscape:document-units="mm"
     inkscape:zoom="2.5929333"
     inkscape:cx="69.226618"
     inkscape:cy="102.77935"
     inkscape:window-width="1920"
     inkscape:window-height="1051"
     inkscape:window-x="-9"
     inkscape:window-y="-9"
     inkscape:window-maximized="1"
     inkscape:current-layer="layer1" />
  <defs
     id="defs1118" />
  <metadata
     id="metadata1121">
    <rdf:RDF>
      <cc:Work
         rdf:about="">
        <dc:format>image/svg+xml</dc:format>
        <dc:type
           rdf:resource="http://purl.org/dc/dcmitype/StillImage" />
        <dc:title />
      </cc:Work>
    </rdf:RDF>
  </metadata>
  <g
     transform="translate(-52.223561,-88.808679)"
     id="layer1">
    <path
       style="fill:#ff4400;fill-opacity:1;fill-rule:nonzero;stroke:none;stroke-width:0.264583"
       id="path5"
       d="m 83.448853,98.190695 c 0.572606,-0.003 1.145027,0.0166 1.717402,0.0306 0.39955,0.0151 0.798476,0.0424 1.197854,0.061 0.08497,0.006 0.170024,0.002 0.254513,0.0128 0.618945,0.0641 0.709594,-0.81122 0.09065,-0.87532 v 0 c -0.101389,-0.009 -0.202417,-0.0148 -0.304271,-0.0165 -0.405837,-0.0189 -0.811199,-0.047 -1.217237,-0.0617 -0.579541,-0.0142 -1.159137,-0.034 -1.738913,-0.0309 -0.622252,0 -0.622252,0.88 0,0.88 z" />
    <g
       transform="matrix(0.26458333,0,0,0.26458333,52.226691,103.27463)"
       id="g1693">
      <path
         style="opacity:0.2"
         d="m 54.4,127.4 c 9.1,5.9 23.5,12.9 10.6,19.8 C 51.3,154.5 33.1,145.9 26.3,138 17.2,127.5 6.9,124 2.4,122.8 c -3.7,-1 -3.8,-3.1 4.4,-1.8 1.4,0.2 11.6,1.5 21.6,2.9 10.2,1.4 23.2,1.7 26,3.5 z"
         id="path1669" />
      <path
         style="fill:#999999"
         d="m 46.3,127.9 c 0,0 0.8,2.9 2.8,4.1 2,1.2 6.1,3.4 6.5,4.3 0.4,0.9 1.4,3 3.5,2.6 2.1,-0.4 4.8,-2.2 4.1,-3.5 -0.7,-1.3 -1.7,-0.9 -3.8,-1.4 -2.1,-0.5 -5.2,-2.4 -6,-3.7 -0.9,-1.3 -1.7,-4 -1.7,-4 z"
         id="path1671" />
      <path
         style="opacity:0.2"
         d="m 46.3,127.9 c 0,0 0.8,2.9 2.8,4.1 2,1.2 6.1,3.4 6.5,4.3 0.4,0.9 1.4,3 3.5,2.6 2.1,-0.4 4.8,-2.2 4.1,-3.5 -0.7,-1.3 -1.7,-0.9 -3.8,-1.4 -2.1,-0.5 -5.2,-2.4 -6,-3.7 -0.9,-1.3 -1.7,-4 -1.7,-4 z"
         id="path1673" />
      <path
         style="fill:#999999"
         d="m 19.4,120.4 c 0,0 -8.5,-1.5 -12,-8.3 C 4,105.3 5.4,99.8 4.5,98.2 3.6,96.6 1.4,97 0.9,98.8 c -0.5,1.8 -1.2,13.5 4.9,19.8 6.3,6.3 13.8,7.8 13.8,7.8 0,0 1.8,6.3 5.5,8 3.7,1.7 5.1,0.5 5.1,0.5 0,0 -0.9,2 -0.2,3.1 0.7,1 8.4,3.1 9.5,4 1.1,1 2.1,3.8 4.9,2.8 2.8,-1 3.7,-2.1 3,-3.4 -0.7,-1.3 -2.6,-1.8 -4,-1.9 -1.4,-0.1 -6.5,-2.5 -6.5,-2.5 0,0 2.2,-2.1 2.7,-3.7 0.5,-1.6 0.3,-2.7 0.3,-2.7 l 6.9,-2.6 c 0,0 1.2,5.4 1.5,9.2 0.3,3.8 0.5,5.6 0.9,7.4 0.4,1.9 0.2,4.3 3.3,4 3.1,-0.3 4.3,-1.1 3.9,-2.3 -0.4,-1.2 -2.4,-2.4 -2.8,-4.6 -0.4,-2.1 0.1,-12.9 0.4,-14 0.2,-1.1 2.5,-7.1 2.5,-7.1 l 2.5,-0.5 c 0,0 1.1,7.8 1.5,11.3 0.4,3.5 0.7,9.2 0.7,10.4 0,1.2 0.7,2.6 2.2,2.7 1.5,0.2 4.6,-0.8 4.5,-2.1 -0.1,-1.3 -2.3,-3.1 -2.5,-4.6 -0.2,-1.5 -0.5,-14.8 0.9,-19.4 1.4,-4.6 2.4,-7.1 2.4,-7.1 L 60,91.5 c 0,0 -3.5,0.8 -7.9,0.7 -4.5,-0.1 -17.8,-0.1 -25.4,9.5 -7.8,9.7 -7.3,18.7 -7.3,18.7 z"
         id="path1675" />
      <path
         style="fill:#e5e5e5"
         d="m 56.3,120.7 c 0,0 2.5,-2.1 2.7,-4.9 0.2,-2.8 1.8,-5.1 3.2,-6 1.4,-1 6.2,-3.4 6.2,-3.4 0,0 1.3,4.3 -0.5,7.3 -1.8,3 -4.8,5.4 -7.3,6.2 -2.5,0.8 -4.3,0.8 -4.3,0.8 z"
         id="path1677" />
      <path
         style="opacity:0.2"
         d="m 46.8,128 c 0,0 -0.7,-3.1 -1,-5.4 -0.2,-2.4 -0.9,-6 -0.9,-6 0,0 -0.9,2.1 -2.8,3 -1.9,0.9 -3.7,1.3 -5.3,0.6 -1.6,-0.7 -5.4,-2.7 -5.4,-2.7 0,0 5.7,3.8 6.8,6.9 1.2,3.1 1.6,6.3 1.6,6.3 z"
         id="path1679" />
      <path
         style="fill:#999999"
         d="m 58.2,96 c 0,0 -0.5,2.8 0.7,5.7 1.3,2.9 4,5.2 5.4,6.9 1.3,1.6 2.8,3.2 5.8,2.9 3,-0.4 3.2,-1.9 4.1,-3.1 0.9,-1.2 4.1,-5.7 4.6,-8.7 0.5,-3.1 0.1,-5.3 0.1,-5.3 0,0 2.1,-7.3 0.5,-8.2 -1.6,-0.9 -3.2,2.7 -5.1,2.9 -2,0.2 -2.9,-0.3 -5.1,-0.2 -2.2,0.1 -5.7,1 -5.7,1 0,0 -3.3,-3.4 -5.3,-2.7 -2.4,0.9 0,8.8 0,8.8 z"
         id="path1681" />
      <path
         style="fill:#2d3134"
         d="m 69.7,110.5 c -0.6,0 -1.7,-1 -1.6,-1.5 0.1,-0.5 2.9,-0.5 3.1,0.1 0.2,0.5 -0.9,1.4 -1.5,1.4 z"
         id="path1683" />
      <path
         style="fill:#2d3134"
         d="m 72,104.4 c 0,0 0.3,-1.8 1.8,-2.4 1.5,-0.6 2.1,-0.3 2.1,-0.3 0,0 -0.3,1.7 -1.5,2.3 -1.1,0.6 -2.4,0.4 -2.4,0.4 z"
         id="path1685" />
      <path
         style="fill:#2d3134"
         d="m 67.3,104.4 c 0,0 -0.6,-1.8 -2,-2.3 -1.4,-0.5 -2.4,0 -2.4,0 0,0 0.2,1.5 1.4,2 1.2,0.5 3,0.3 3,0.3 z"
         id="path1687" />
      <path
         style="opacity:0.2"
         d="m 72.9,93.3 c 0,0 4.8,-7.5 6.4,-6.9 1.2,0.4 -0.4,8 -0.4,8 0,0 -1.3,-1.2 -3,-1.5 -1.6,-0.3 -3,0.4 -3,0.4 z"
         id="path1689" />
      <path
         style="opacity:0.2"
         d="m 65.2,93.2 c 0,0 -5.3,-6.3 -6.9,-5.8 -2.2,0.7 -0.1,8.6 -0.1,8.6 0,0 1.6,-2.1 2.9,-2.6 1.3,-0.5 4.1,-0.2 4.1,-0.2 z"
         id="path1691" />
    </g>
    <g
       transform="matrix(0.26458333,0,0,0.26458333,76.394373,122.7957)"
       id="g1735">
      <path
         style="opacity:0.2"
         d="m 24.5,61.8 c -6.5,4 -6.9,8.7 1.4,13.2 9.2,4.9 14.6,3.9 21.7,-0.3 6.2,-3.6 4.8,-8.5 -5.7,-12.8 C 33.5,58.6 29.1,59 24.5,61.8 Z"
         id="path1715" />
      <path
         style="fill:#baa794"
         d="m 39.7,61.7 c -0.1,1.1 -1.5,7.6 -2.3,8.7 -0.8,1.1 -5.8,4.2 -5.8,4.2 l 5.2,-1.7 1.2,3.1 0.7,-3.4 4.1,-1.8 -3.4,-0.3 c 0,0 1.5,-4.9 1.9,-6.2 0.4,-1.3 0.6,-2.5 0.6,-2.5 z"
         id="path1717" />
      <path
         style="fill:#baa794"
         d="m 32.6,58.1 c 0,0 -1.7,7.3 -2.1,8.1 -0.4,0.9 -6.1,3.6 -6.1,3.6 l 5,-1.4 0.7,3 1.3,-3 4.1,-1.3 -3,-0.6 c 0,0 1.4,-5.4 1.8,-6.8 0.4,-1.4 0.2,-1.9 0.2,-1.9 z"
         id="path1719" />
      <path
         style="fill:#825012"
         d="m 25.5,25.8 c 3.9,-2.7 11.7,-4.7 16.2,-4.3 4.5,0.4 12.4,2.8 13.5,4.6 1.1,1.9 7.9,16.1 0.4,25.6 -4.5,5.7 -9.1,5.7 -9.1,5.7 0,0 -1.3,4.9 -5.3,4.9 -3.6,0 -5.8,-3.6 -5.8,-3.6 0,0 -1.5,0.3 -3.3,-0.1 -1.9,-0.4 -3.3,-2.5 -3.3,-2.5 0,0 -8.9,-0.6 -10.8,-10.4 -2.1,-11 2.9,-16.7 7.5,-19.9 z"
         id="path1721" />
      <path
         style="fill:#762c07"
         d="M 41.4,22.3 C 41,21.6 43.4,16.5 45.2,11.2 47,5.6 47.4,1.6 49,1.4 c 1.6,-0.2 1.9,1.5 1.9,1.5 0,0 0.5,-2.2 2.1,-1.9 1.6,0.3 1.3,2.5 1.3,2.5 0,0 0.6,-1.1 1.9,-0.3 1.3,0.7 0.5,3.2 0.5,3.2 0,0 0.9,-1.1 2,-0.4 1.6,0.9 1.7,8.8 1.2,13.7 -0.7,7.2 -2.2,12.3 -2.2,12.3 0,0 -3.7,-6.2 -7.8,-7 -4.1,-0.8 -7.6,-0.9 -8.5,-2.7 z"
         id="path1723" />
      <path
         style="fill:#762c07"
         d="m 20.2,16.9 c 0.6,-1 2.7,-3.4 5.3,-2.3 2.6,1.1 4.6,4.2 6.4,7.7 1.8,3.5 2.1,5.4 4,6.9 1.1,0.9 5.2,2.6 5.2,2.6 l -6.4,0.6 0.2,4.1 -5,-2.1 -1.5,5.2 -3.5,-4.4 -4.1,4.2 -0.1,-4.4 -3.5,1.6 c 0,0 1.2,-1.8 1.9,-3.3 3.5,-7.7 -0.8,-13.5 1.1,-16.4 z"
         id="path1725" />
      <path
         style="fill:#baa794"
         d="m 17.8,18.3 c -1.3,0.6 -1.8,4.9 -1.8,4.9 0,0 2,-1.4 3.4,-1.8 1.5,-0.4 -0.5,-3.6 -1.6,-3.1 z"
         id="path1727" />
      <path
         style="fill:#cc291f"
         d="m 19.6,18 c 1.1,0 0.9,-1.3 2.7,-2.8 1.5,-1.3 2.6,-1.8 2.6,-2.6 0,-1.4 -2.5,-2 -2.7,-0.7 -0.1,0.7 -1.1,-0.5 -2,0.3 -0.8,0.6 -0.3,1.5 -0.5,1.8 -0.1,0.3 -1.4,0.2 -1.9,1 -0.4,0.8 -0.1,3 1.8,3 z"
         id="path1729" />
      <path
         style="fill:#cc291f"
         d="m 19.9,20.5 c -1.3,0.4 -2.2,2.7 -0.5,3.7 1.9,1.2 3,-2.8 3,-2.8 0,0 3.4,-2.1 3,-3.2 C 25,17.1 20.5,18 20.5,18 c 0,0 -1.8,-0.4 -2.7,0.3 -0.9,0.7 -0.9,1.1 -0.9,1.1 0,0 1.2,-0.3 2.2,0.2 1,0.5 0.8,0.9 0.8,0.9 z"
         id="path1731" />
      <path
         style="fill:#2d3134"
         d="m 23.3,18.2 c 0.6,-0.2 1.1,0.9 0.3,1.1 -0.7,0.3 -1.1,-0.8 -0.3,-1.1 z"
         id="path1733" />
    </g>
    <path
       style="fill:#000000;fill-opacity:1;fill-rule:nonzero;stroke:none;stroke-width:0.264583"
       id="path1"
       d="m 83.573179,116.89406 c 0.234828,0.4269 0.577479,0.78551 0.91777,1.12921 0.28746,0.2543 0.59313,0.49832 0.946746,0.65601 0.450895,0.20107 0.938323,0.2843 1.419193,0.37643 0.167912,0.0194 0.334743,0.0547 0.503737,0.0582 0.195975,0.004 0.392163,-0.014 0.586942,-0.036 0.518771,-0.0585 1.016341,-0.21438 1.482672,-0.44832 0.133987,-0.0672 0.259873,-0.14949 0.389808,-0.22424 0.555516,-0.33575 0.967655,-0.82298 1.387054,-1.30592 0.407937,-0.46988 -0.256572,-1.04679 -0.664509,-0.57691 v 0 c -0.35456,0.40851 -0.700331,0.83365 -1.166154,1.12282 -0.100237,0.0596 -0.196966,0.12555 -0.300712,0.17882 -0.18147,0.0932 -0.555342,0.24645 -0.750316,0.29692 -0.145267,0.0376 -0.29446,0.0589 -0.443132,0.0793 -0.14025,0.0192 -0.281308,0.0406 -0.422854,0.0391 -0.146884,-0.002 -0.292018,-0.0322 -0.438029,-0.0482 -0.388522,-0.0734 -0.79779,-0.13159 -1.165362,-0.28614 -0.277575,-0.11672 -0.514969,-0.30769 -0.74082,-0.50204 -0.200719,-0.20122 -0.391872,-0.40188 -0.564706,-0.62788 -0.05363,-0.0701 -0.111448,-0.13743 -0.158856,-0.21189 -0.01257,-0.0197 -0.02093,-0.0418 -0.03138,-0.0628 -0.278281,-0.55657 -1.065376,-0.16302 -0.787095,0.39354 z" />
    <path
       style="fill:#000000;fill-opacity:1;fill-rule:nonzero;stroke:none;stroke-width:0.264583"
       id="path2"
       d="m 85.327755,116.88014 c 0.356833,0.19783 0.732864,0.36326 1.134965,0.44298 0.108397,0.0215 0.218355,0.0342 0.327533,0.0513 0.514371,0.0447 1.046887,0.13307 1.556588,4.8e-4 0.10617,-0.0276 0.207402,-0.0716 0.311103,-0.10737 0.416483,-0.18733 0.774446,-0.48324 1.064855,-0.83295 0.02754,-0.0419 0.05508,-0.0838 0.08262,-0.12568 0.331563,-0.52656 -0.413104,-0.99546 -0.744667,-0.4689 v 0 c -0.0078,0.0143 -0.01561,0.0285 -0.02344,0.0427 -0.07269,0.0971 -0.160652,0.17389 -0.250743,0.25505 -0.131839,0.11876 -0.266433,0.2318 -0.431324,0.30343 -0.05625,0.0228 -0.110537,0.0513 -0.168769,0.0684 -0.41065,0.12087 -0.848612,0.0192 -1.26451,-0.005 -0.08411,-0.0122 -0.168765,-0.021 -0.252333,-0.0365 -0.312613,-0.0579 -0.602396,-0.18713 -0.880682,-0.33711 -0.529947,-0.32612 -0.991153,0.42334 -0.461206,0.74946 z" />
    <path
       style="fill:#000000;fill-opacity:1;fill-rule:nonzero;stroke:none;stroke-width:0.264583"
       id="path3"
       d="m 87.857783,116.86695 c 0.0083,-0.15335 0.02671,-0.30819 0.01699,-0.46194 -0.02929,-0.46258 -0.114464,-0.92443 -0.18502,-1.38179 -0.147897,-0.88847 -0.224603,-1.78583 -0.26747,-2.68479 -0.03585,-1.11254 -0.02672,-2.22605 -0.02677,-3.33902 0.014,-1.39554 -0.0034,-2.79028 -0.04387,-4.18518 -0.0222,-0.85912 -0.04406,-1.71814 -0.07508,-2.577 -0.0033,-0.41115 -0.0641,-0.81831 -0.106265,-1.22645 -0.0058,-0.24145 0.0075,-0.48293 0.01455,-0.72426 0.0053,-0.17809 0.0076,-0.356241 0.0089,-0.534391 0.0048,-0.622244 -0.875178,-0.629024 -0.879975,-0.007 v 0 c -0.0013,0.17182 -0.0035,0.343641 -0.0086,0.515401 -0.0082,0.28009 -0.0254,0.56064 -0.01024,0.84074 0.04037,0.38853 0.09892,0.77612 0.102153,1.16751 0.03095,0.85677 0.05272,1.7137 0.07487,2.57075 0.01818,0.62684 0.03987,1.25392 0.04488,1.88106 0.0061,0.75949 -0.0065,1.51913 -0.0013,2.27863 4.5e-5,1.12699 -0.0092,2.25453 0.02777,3.38106 0.04466,0.9298 0.12406,1.85796 0.276762,2.77697 0.06158,0.39867 0.08235,0.51824 0.134019,0.90731 0.01461,0.11 0.03265,0.21973 0.04076,0.3304 0.01151,0.15724 -0.01355,0.31485 -0.01704,0.47177 0,0.62225 0.879998,0.62225 0.879998,0 z" />
    <path
       style="fill:#000000;fill-opacity:1;fill-rule:nonzero;stroke:none;stroke-width:0.264583"
       id="path4"
       d="m 87.194523,99.583345 c 0,-0.36311 0,-0.72622 0,-1.08932 -0.0309,-0.47819 -0.06628,-0.95572 -0.08385,-1.43469 -0.02961,-0.56143 0.02262,-1.12137 0.0634,-1.680675 0.04428,-0.71628 0.199702,-1.420399 0.351091,-2.120211 0.162589,-0.71649 0.425889,-1.401651 0.72993,-2.068449 0.139218,-0.288603 0.28824,-0.584152 0.531122,-0.801667 0.03436,-0.03078 0.235778,-0.164529 0.265308,-0.184451 0.34017,-0.172185 0.729427,-0.170953 1.101865,-0.175961 0.244589,-0.0059 0.492496,0.02011 0.724226,0.102577 0.103944,0.03699 0.178858,0.08098 0.276849,0.132344 0.04604,0.02738 0.09457,0.05097 0.138126,0.08215 0.03991,0.02857 0.173352,0.16875 0.193728,0.190336 0.147849,0.156643 0.289658,0.317554 0.427159,0.483279 0.214217,0.266863 0.265925,0.480453 0.303641,0.8099 0.03913,0.311874 0.01461,0.62134 -0.02733,0.931003 -0.03406,0.386514 -0.153334,0.750495 -0.302381,1.105861 -0.175583,0.386719 -0.408303,0.741479 -0.675905,1.069988 -0.18674,0.220399 -0.366212,0.445867 -0.544549,0.672966 -0.384181,0.48949 0.30807,1.0328 0.69225,0.54331 v 0 c 0.175715,-0.22404 0.352716,-0.44617 0.536988,-0.663462 0.317368,-0.395811 0.597995,-0.819165 0.803706,-1.28478 0.180129,-0.43589 0.315759,-0.855464 0.362154,-1.327462 0.05054,-0.383342 0.07699,-0.767825 0.02866,-1.153399 -0.0218,-0.172731 -0.0288,-0.271259 -0.07329,-0.442037 -0.0795,-0.305123 -0.234103,-0.577953 -0.42763,-0.824916 -0.247013,-0.295855 -0.533601,-0.649492 -0.851001,-0.869075 -0.05829,-0.04033 -0.122444,-0.07144 -0.183666,-0.107156 -0.177776,-0.08937 -0.247364,-0.132337 -0.437898,-0.195596 -0.314256,-0.104336 -0.647166,-0.141957 -0.977056,-0.135727 -0.547106,0.009 -1.102635,0.03961 -1.584534,0.328886 -0.155006,0.106619 -0.274796,0.181613 -0.415422,0.313863 -0.305422,0.287228 -0.507794,0.661075 -0.686057,1.034672 -0.329176,0.724391 -0.613849,1.468861 -0.78912,2.247052 -0.159903,0.740064 -0.321998,1.484729 -0.368636,2.242183 -0.04311,0.591374 -0.09634,1.183474 -0.06513,1.777054 0.0173,0.46814 0.04883,0.93515 0.08325,1.4023 0,0.3631 0,0.72621 0,1.08932 0,0.622255 0.880002,0.622255 0.880002,0 z" />
    <path
       style="fill:#ff4400;fill-opacity:1;fill-rule:nonzero;stroke:none;stroke-width:0.264583"
       id="path7"
       d="m 82.705539,89.275369 c 0.0047,0.253914 -0.0067,0.508255 0,0.762115 0.0023,0.08564 -7.14e-4,0.172094 0.0128,0.256688 0.0195,0.121938 0.05727,0.240247 0.0859,0.36037 0.146256,0.421267 0.33701,0.828433 0.593309,1.194722 0.158147,0.226014 0.224803,0.288301 0.406869,0.491341 0.254473,0.266091 0.123565,0.13837 0.392411,0.383486 0.461584,0.4173 1.051737,-0.235479 0.590153,-0.65278 v 0 c -0.217739,-0.194687 -0.107021,-0.08856 -0.329769,-0.320842 -0.133871,-0.146566 -0.203163,-0.213458 -0.318582,-0.375754 -0.206407,-0.290241 -0.360137,-0.613001 -0.483833,-0.9459 -0.01921,-0.06018 -0.04664,-0.118328 -0.05765,-0.180534 -0.01228,-0.06929 -0.0097,-0.140449 -0.01162,-0.210797 -0.0067,-0.253859 0.0047,-0.508201 0,-0.762115 0,-0.622254 -0.879999,-0.622254 -0.879999,0 z" />
    <path
       style="fill:#ff4400;fill-opacity:1;fill-rule:nonzero;stroke:none;stroke-width:0.264583"
       id="path8"
       d="m 84.735463,92.186583 c -0.441396,0.03316 -0.796478,0.29919 -1.129451,0.566712 -0.232859,0.200551 -0.435517,0.425621 -0.589285,0.692992 -0.140745,0.244731 -0.236162,0.513231 -0.329013,0.778404 -0.08675,0.264505 -0.135354,0.537881 -0.161798,0.814171 -0.05468,0.619853 0.821913,0.697193 0.876595,0.0773 v 0 c 0.01556,-0.2048 0.05631,-0.4067 0.11662,-0.60315 0.08668,-0.252953 0.180311,-0.54137 0.339746,-0.759355 0.09111,-0.12457 0.190458,-0.210309 0.301318,-0.316816 0.176866,-0.145088 0.356299,-0.295027 0.575268,-0.370291 0.622252,0 0.622252,-0.88 0,-0.88 z" />
    <path
       style="fill:#000000;fill-opacity:1;fill-rule:nonzero;stroke:none;stroke-width:0.264583"
       id="path10"
       d="m 77.270688,130.34877 c 0.03646,-0.18233 0.05182,-0.3681 0.06948,-0.55293 0.0589,-0.61946 -0.817154,-0.70275 -0.87605,-0.0833 v 0 c -0.01667,0.17631 -0.03206,0.35312 -0.06664,0.52707 -0.07718,0.61745 0.796024,0.7266 0.873205,0.10915 z" />
    <path
       style="fill:#000000;fill-opacity:1;fill-rule:nonzero;stroke:none;stroke-width:0.264583"
       id="path11"
       d="m 77.772906,127.92564 c 0.03601,-0.20135 0.09077,-0.39926 0.144818,-0.59652 0.05571,-0.15788 0.02651,-0.0764 0.08779,-0.24437 0.212978,-0.58467 -0.613872,-0.88587 -0.82685,-0.30119 v 0 c -0.0729,0.20039 -0.03615,0.096 -0.109724,0.31327 -0.07436,0.27197 -0.155665,0.54656 -0.176031,0.82881 0,0.62226 0.88,0.62226 0.88,0 z" />
    <path
       style="fill:#000000;fill-opacity:1;fill-rule:nonzero;stroke:none;stroke-width:0.264583"
       id="path12"
       d="m 78.750088,125.54017 c 0.172939,-0.26821 0.368527,-0.52117 0.556437,-0.77895 0.366514,-0.50286 -0.344638,-1.02118 -0.711152,-0.51833 v 0 c -0.206956,0.28399 -0.423356,0.5622 -0.609338,0.86068 -0.308724,0.54027 0.455329,0.97687 0.764053,0.4366 z" />
    <path
       style="fill:#000000;fill-opacity:1;fill-rule:nonzero;stroke:none;stroke-width:0.264583"
       id="path13"
       d="m 80.886246,123.28722 c 0.258236,-0.12103 0.520369,-0.23408 0.780944,-0.35018 0.04933,-0.0213 0.09866,-0.0427 0.147984,-0.064 0.57108,-0.24712 0.221594,-1.05475 -0.349485,-0.80762 v 0 c -0.05223,0.0226 -0.104465,0.0452 -0.156699,0.0678 -0.272458,0.12145 -0.546593,0.23954 -0.816293,0.36688 -0.556559,0.27828 -0.163012,1.06538 0.393549,0.7871 z" />
    <path
       style="fill:#000000;fill-opacity:1;fill-rule:nonzero;stroke:none;stroke-width:0.264583"
       id="path14"
       d="m 83.774888,122.09639 c 0.258868,-0.10249 0.512119,-0.21848 0.775353,-0.30972 0.03844,-0.0118 0.07688,-0.0235 0.115324,-0.0353 0.594516,-0.18372 0.334698,-1.02449 -0.259815,-0.84077 v 0 c -0.04867,0.0151 -0.09734,0.0303 -0.146013,0.0454 -0.246428,0.0868 -0.489337,0.18497 -0.726604,0.29424 -0.598313,0.17094 -0.356558,1.01708 0.241755,0.84614 z" />
    <path
       style="fill:#000000;fill-opacity:1;fill-rule:nonzero;stroke:none;stroke-width:0.264583"
       id="path15"
       d="m 86.606043,121.18783 c 0.252569,-0.003 0.500814,-0.0677 0.745813,-0.1241 0.04443,-0.0103 0.08886,-0.0206 0.133297,-0.0309 0.606234,-0.14029 0.407834,-0.99763 -0.198398,-0.85734 v 0 c -0.04436,0.0103 -0.08871,0.0205 -0.133072,0.0308 -0.179869,0.0417 -0.363524,0.0932 -0.54764,0.1015 -0.622255,0 -0.622255,0.88 0,0.88 z" />
    <path
       style="fill:#000000;fill-opacity:1;fill-rule:nonzero;stroke:none;stroke-width:0.264583"
       id="path16"
       d="m 89.997247,120.97137 c 0.243539,-0.0141 0.483211,0.017 0.724332,0.0458 0.20148,0.0234 0.102036,0.0122 0.29832,0.0337 0.618567,0.0676 0.714213,-0.80715 0.09565,-0.87479 v 0 c -0.189492,-0.0207 -0.09291,-0.01 -0.28974,-0.0327 -0.275442,-0.0329 -0.550535,-0.0653 -0.828559,-0.052 -0.622255,0 -0.622255,0.88 0,0.88 z" />
    <path
       style="fill:#000000;fill-opacity:1;fill-rule:nonzero;stroke:none;stroke-width:0.264583"
       id="path17"
       d="m 93.316114,121.54886 c 0.138219,0.0317 0.255763,0.1264 0.37178,0.20463 0.02826,0.0206 0.05652,0.0411 0.08478,0.0617 0.503966,0.365 1.020144,-0.34771 0.516179,-0.71271 v 0 c -0.03638,-0.0263 -0.07277,-0.0525 -0.109149,-0.0787 -0.22143,-0.14916 -0.450196,-0.29826 -0.718915,-0.34292 -0.613786,-0.1023 -0.758457,0.76573 -0.144672,0.86803 z" />
    <path
       style="fill:#000000;fill-opacity:1;fill-rule:nonzero;stroke:none;stroke-width:0.264583"
       id="path18"
       d="m 95.307824,122.8219 c 0.08255,0.15814 0.201866,0.32119 0.290928,0.48606 0.298153,0.54618 1.070559,0.12452 0.772406,-0.42165 v 0 c -0.13103,-0.23821 -0.278279,-0.46916 -0.441079,-0.68667 -0.440002,-0.44 -1.062255,0.18226 -0.622255,0.62226 z" />
  </g>
</svg>
