<?xml version="1.0" encoding="UTF-8" standalone="no"?>
<!-- Generator: Adobe Illustrator 18.1.0, SVG Export Plug-In . SVG Version: 6.00 Build 0)  -->

<svg
   version="1.1"
   id="Layer_1"
   x="0px"
   y="0px"
   viewBox="0 0 261.86346 110.30025"
   xml:space="preserve"
   sodipodi:docname="6 ni li soweli wan..svg"
   width="261.86346"
   height="110.30025"
   inkscape:version="1.3 (0e150ed6c4, 2023-07-21)"
   xmlns:inkscape="http://www.inkscape.org/namespaces/inkscape"
   xmlns:sodipodi="http://sodipodi.sourceforge.net/DTD/sodipodi-0.dtd"
   xmlns="http://www.w3.org/2000/svg"
   xmlns:svg="http://www.w3.org/2000/svg"
   xmlns:rdf="http://www.w3.org/1999/02/22-rdf-syntax-ns#"
   xmlns:cc="http://creativecommons.org/ns#"
   xmlns:dc="http://purl.org/dc/elements/1.1/"><metadata
   id="metadata37"><rdf:RDF><cc:Work
       rdf:about=""><dc:format>image/svg+xml</dc:format><dc:type
         rdf:resource="http://purl.org/dc/dcmitype/StillImage" /><dc:title /></cc:Work></rdf:RDF></metadata><defs
   id="defs35"><inkscape:path-effect
     effect="simplify"
     id="path-effect12"
     is_visible="true"
     lpeversion="1.3"
     threshold="40.6897"
     steps="1"
     smooth_angles="360"
     helper_size="0"
     simplify_individual_paths="false"
     simplify_just_coalesce="false" /></defs><sodipodi:namedview
   pagecolor="#ffffff"
   bordercolor="#666666"
   borderopacity="1"
   objecttolerance="10"
   gridtolerance="10"
   guidetolerance="10"
   inkscape:pageopacity="0"
   inkscape:pageshadow="2"
   inkscape:window-width="1920"
   inkscape:window-height="1051"
   id="namedview33"
   showgrid="false"
   fit-margin-top="0"
   fit-margin-left="0"
   fit-margin-right="0"
   fit-margin-bottom="0"
   inkscape:zoom="2.085965"
   inkscape:cx="87.249786"
   inkscape:cy="80.777961"
   inkscape:window-x="-9"
   inkscape:window-y="-9"
   inkscape:window-maximized="1"
   inkscape:current-layer="Layer_1"
   inkscape:showpageshadow="2"
   inkscape:pagecheckerboard="0"
   inkscape:deskcolor="#d1d1d1" />&#10;<g
   id="g30"
   transform="translate(-28.796961,-38.781529)">&#10;	<path
   d="m 103.2,117 c 12.7,8.2 34.5,15.5 14.8,27.5 -18.4,11.2 -39.2,-0.4 -49.5,-10.6 -20.7,-20.6 -56.1,-20.3 -31.1,-23.8 1.9,-0.3 15.8,0 29.6,2 14.3,2 32.4,2.4 36.2,4.9 z"
   id="path2"
   inkscape:connector-curvature="0"
   style="opacity:0.2" />&#10;	<path
   d="m 96.1,110.4 c 0,0 2,4.7 1.9,6.2 -0.1,1.5 -0.8,3.5 0.1,4.3 0.9,0.7 7.8,5.2 9.1,7.1 1.3,1.9 2,5.2 6.6,3 4.6,-2.2 3.1,-5.5 0.9,-6.4 -2.1,-0.9 -6.5,-1.7 -8.8,-3.9 -2.3,-2.2 -3.2,-2.9 -1.2,-6.3 2,-3.4 2.9,-6.1 2.9,-6.1 z"
   id="path4"
   inkscape:connector-curvature="0"
   style="fill:#825012" />&#10;	<path
   d="m 96.1,110.4 c 0,0 2,4.7 1.9,6.2 -0.1,1.5 -0.8,3.5 0.1,4.3 0.9,0.7 7.8,5.2 9.1,7.1 1.3,1.9 2,5.2 6.6,3 4.6,-2.2 3.1,-5.5 0.9,-6.4 -2.1,-0.9 -6.5,-1.7 -8.8,-3.9 -2.3,-2.2 -3.2,-2.9 -1.2,-6.3 2,-3.4 2.9,-6.1 2.9,-6.1 z"
   id="path6"
   inkscape:connector-curvature="0"
   style="opacity:0.2" />&#10;	<path
   d="m 86.8,47.8 c 0.8,-1.5 2.6,-3.6 5.5,-5 2.9,-1.4 5,-1.9 5,-1.9 0,0 1.7,-3.1 5.5,-1.8 3.8,1.3 7.5,8.5 8.4,11.6 0.9,3.1 2.2,8.7 1,9.4 -1.2,0.7 -3,-2.1 -3,-2.1 0,0 1,4.5 1.8,7.3 0.7,2.8 -0.1,7.7 0.7,9.3 0.7,1.6 4.2,7.5 3.8,13.7 -0.4,6.2 -2.8,12.2 -2.9,14.8 -0.1,2.6 3.4,16.8 4,17.9 0.6,1.1 0.2,4.4 1.2,6.4 1,2 8.7,3.9 6.2,7.8 -2.4,3.9 -9.3,2 -10.3,-0.2 -1,-2.2 0.1,-4.6 -1.1,-8.8 -1.2,-4.2 -6.7,-15.8 -6.7,-15.8 0,0 -2,0.6 -4.8,0.9 -2.9,0.4 -5.9,3.9 -4.9,9.7 1,5.8 2,8 2.6,9.4 0.6,1.4 0.2,4.6 1.1,6.4 0.9,1.9 7.2,4.2 4.8,7.3 -2.4,3.1 -7.5,3.2 -10.2,0.6 -2.7,-2.6 -0.4,-3.8 -2.2,-10.2 -1.9,-6.4 -4,-13.8 -4,-13.8 l -6.3,1.5 -4.4,9.3 c 0,0 3.8,2.8 5.7,3.9 1.9,1.1 5.7,0.2 7,1.9 1.3,1.7 1.8,5.5 -2.2,7 -4,1.5 -6.3,-3.4 -7.7,-4.5 -1.4,-1 -7,-3.3 -8.5,-5 -1.5,-1.7 -0.2,-5.8 -0.2,-5.8 0,0 -5.9,-0.6 -8.8,-4.4 -2.9,-3.8 -2.5,-4.6 -3.7,-5.5 -1.2,-0.9 -3.1,-1.7 -8.8,-1.1 -5.7,0.6 -12.7,-1.8 -15.7,-5.2 -3.1,-3.4 -3.7,-11.3 -2.9,-12 0.8,-0.7 2.2,4.5 3.8,5.7 1.6,1.2 5.3,4.2 9.7,3.8 4.4,-0.4 12.5,-3.6 12.5,-3.6 0,0 4.6,-12.8 10.8,-19.7 6.2,-7 14.6,-11.7 15.9,-16.8 1.1,-5.1 1,-19.9 2.3,-22.4 z"
   id="path8"
   inkscape:connector-curvature="0"
   style="fill:#825012" />&#10;	<g
   id="g12">&#10;		<path
   d="m 84.6,108.1 c 0,0 -1.2,1.6 -4,1.6 -1.5,0 -3.7,-0.2 -5.3,-0.4 0.6,0.1 1.4,0.3 2.2,0.6 2.8,0.9 3.9,2.1 5.1,4.6 1.1,2.5 -0.8,7.7 -0.8,7.7 l 6.3,-1.5 c 0,0 -0.7,-2.1 -1,-3.2 -0.3,-1 -2.6,-6.6 -2.5,-9.4 z"
   id="path10"
   inkscape:connector-curvature="0"
   style="opacity:0.2" />&#10;	</g>&#10;	<path
   d="m 94.9,65.4 c -0.4,-1.5 -1.8,-5.1 -4,-7.5 -1.6,-1.8 -3,-5.8 -3.6,-8.3 l -1.1,0.3 c -0.6,3.7 -0.8,10.7 -1.3,15.8 0.9,0.7 4.2,1.9 5.3,2.5 4.7,2.6 5.5,0.5 4.7,-2.8 z"
   id="path14"
   inkscape:connector-curvature="0"
   style="opacity:0.2" />&#10;	<path
   d="m 93.7,52.8 c 0,0 -0.1,-2.2 0.8,-3.1 0.8,-0.9 2.5,-0.6 1.7,1.3 -0.8,2 -2.5,1.8 -2.5,1.8 z"
   id="path16"
   inkscape:connector-curvature="0"
   style="fill:#262626" />&#10;	<path
   d="m 102.9,45.7 c 0,0 -0.2,-1.1 0.7,-1.5 0.9,-0.3 1.8,1.5 1.8,1.5 z"
   id="path18"
   inkscape:connector-curvature="0"
   style="fill:#262626" />&#10;	<path
   d="m 111.1,53.4 c 0,0 -0.3,-0.6 -1,-0.8 -0.6,-0.2 -1.3,-0.1 -2.1,0.2 l -0.9,-1.8 -0.3,0.2 0.9,1.8 c -1.3,0.7 -1.9,1.5 -2.6,2.5 -0.4,0.6 -0.9,1.3 -1.6,1.9 -1.8,1.8 -2.8,2.1 -2.8,2.1 -0.1,0 -0.1,0.1 -0.1,0.2 0,0.1 0.1,0.1 0.2,0.1 0,0 0,0 0.1,0 0,0 1.1,-0.4 3,-2.2 0.7,-0.7 1.2,-1.4 1.6,-2 0.7,-1 1.3,-1.8 2.6,-2.5 0.8,-0.4 1.4,-0.5 1.9,-0.3 0.6,0.2 0.8,0.6 0.8,0.6 0,0.1 0.2,0.1 0.2,0.1 0.1,0.1 0.1,0 0.1,-0.1 z"
   id="path20"
   inkscape:connector-curvature="0"
   style="fill:#262626" />&#10;	<path
   d="m 87.4,47.1 c -0.8,-0.5 -2.7,0.7 -4.1,3.4 -1.4,2.7 -3.4,7.5 -1.8,9.9 1.6,2.4 4.3,4.5 6.7,5.4 2.3,0.9 5,2.6 5.7,2.1 0.7,-0.5 -1.1,-5.7 -3,-8.4 -1.9,-2.7 -4,-5.8 -4,-5.8 0,0 2.5,-5.3 0.5,-6.6 z"
   id="path22"
   inkscape:connector-curvature="0"
   style="fill:#825012" />&#10;	<path
   d="m 111.1,50.6 c 0.7,1.7 0.5,3.5 -0.1,5.2 -0.6,1.6 -1.7,2.3 -1.7,2.3 v 0.1 c 0.3,0.5 1.8,2.7 2.9,2 1.2,-0.7 -0.1,-6.3 -1,-9.4 -0.9,-3.1 -4.6,-10.2 -8.4,-11.6 -3.5,-1.2 -5.2,1.3 -5.5,1.7 1.6,0 4.4,0.4 5.9,1.9 1.6,1.5 2.6,2.4 3.6,3.8 1,1.4 3.5,2.2 4.3,4 z"
   id="path24"
   inkscape:connector-curvature="0"
   style="opacity:0.2" />&#10;	<path
   d="m 102.6,48.5 c -0.7,1.6 1.8,4 4.3,2.9 2.5,-1.2 1.5,-4 0.7,-4.6 -0.8,-0.7 -4.2,-0.2 -5,1.7 z"
   id="path26"
   inkscape:connector-curvature="0"
   style="fill:#262626" />&#10;	<path
   d="M 112.2,69.8 C 108,70.5 102.9,70.9 97.7,70.6 90,70.3 85.7,69 84,68 c -0.1,0.7 -0.2,1.4 -0.4,2 -0.2,0.6 -0.4,1.3 -0.8,1.9 4,2 10.5,2.6 14.7,2.7 1.1,0 2.2,0.1 3.3,0.1 3.7,0 7.7,-0.2 11.5,-0.9 -0.2,-1 -0.1,-2.5 -0.1,-4 z"
   id="path28"
   inkscape:connector-curvature="0"
   style="fill:#262626" />&#10;</g>&#10;<circle
   id="path11"
   style="fill:#000000;stroke:#000000"
   cx="136.86711"
   cy="17.018503"
   r="0.053095464" /><path
   style="fill:#ff4400;fill-opacity:1;fill-rule:nonzero;stroke:none"
   id="path23"
   d="m 118.10201,6.3631626 c 0.51436,0.8209313 0.89959,1.7110933 1.27955,2.5993616 0.56031,1.2974358 1.15894,2.5780878 1.77423,3.8502638 1.02429,2.117054 4.01826,0.668491 2.99397,-1.448563 v 0 c -0.59349,-1.226194 -1.17037,-2.4608336 -1.71092,-3.7113575 -0.45436,-1.0592818 -0.92248,-2.1171924 -1.54202,-3.0928104 -1.27498,-1.9762315 -4.0698,-0.1731261 -2.79481,1.8031055 z" /><path
   style="fill:#ff4400;fill-opacity:1;fill-rule:nonzero;stroke:none"
   id="path25"
   d="m 123.65308,19.609667 c 0.0646,0.186627 0.12539,0.374602 0.19374,0.559882 0.0867,0.235128 0.18101,0.467409 0.27145,0.701139 0.25001,0.646117 0.42811,1.095676 0.66406,1.756391 0.24827,0.695249 0.37045,1.087031 0.59621,1.781214 0.25841,0.830414 0.45872,1.676407 0.63043,2.528345 0.46722,2.304951 3.72691,1.644209 3.2597,-0.660741 v 0 c -0.19883,-0.976164 -0.42855,-1.945944 -0.72747,-2.897053 -0.24866,-0.763303 -0.36552,-1.139505 -0.64021,-1.907652 -0.24039,-0.672252 -0.4276,-1.146763 -0.68143,-1.802252 -0.0839,-0.216592 -0.16593,-0.433903 -0.25198,-0.649638 -0.0243,-0.06086 -0.0526,-0.120001 -0.079,-0.180001 -0.54473,-2.287871 -3.78027,-1.517505 -3.23554,0.770366 z" /><path
   style="fill:#ff4400;fill-opacity:1;fill-rule:nonzero;stroke:none"
   id="path27"
   d="m 127.85837,36.724126 c 0.11679,0.412978 0.24283,0.838615 0.31763,1.258114 0.0803,0.450544 0.13408,0.905533 0.18933,1.359835 0.1857,1.526801 0.30608,3.05686 0.39861,4.591538 0.14267,2.347496 3.46252,2.145744 3.31986,-0.201752 v 0 c -0.0926,-1.513176 -0.0804,-1.535145 -0.23587,-3.104283 -0.17627,-1.779125 -0.33105,-3.591572 -0.9617,-5.279754 -0.97319,-2.141024 -4.00106,-0.764722 -3.02786,1.376302 z" /><path
   style="fill:#ff4400;fill-opacity:1;fill-rule:nonzero;stroke:none"
   id="path29"
   d="m 129.01726,53.462258 c 0.17946,1.813965 0.14983,3.637025 0.0978,5.456066 -0.0289,0.907656 -0.0593,1.815265 -0.089,2.722897 -0.0769,2.350568 3.24729,2.459343 3.3242,0.108775 v 0 c 0.0299,-0.912304 0.0604,-1.824584 0.0895,-2.736913 0.0564,-1.988308 0.083,-3.981458 -0.12211,-5.963362 -0.29171,-2.333665 -3.59201,-1.921128 -3.3003,0.412537 z" /><path
   style="fill:#ff4400;fill-opacity:1;fill-rule:nonzero;stroke:none"
   id="path31"
   d="m 127.79645,72.586303 c -0.3655,1.229313 -0.67179,2.474513 -0.91726,3.733261 -0.12329,0.632366 -0.19711,1.272174 -0.25331,1.913412 -0.20212,2.343125 3.11156,2.628969 3.31368,0.285845 v 0 c 0.0443,-0.524685 0.10427,-1.048123 0.20468,-1.565499 0.21022,-1.088888 0.48001,-2.16238 0.77795,-3.230387 0.80372,-2.210231 -2.32202,-3.346863 -3.12574,-1.136632 z" /><path
   style="fill:#ff4400;fill-opacity:1;fill-rule:nonzero;stroke:none"
   id="path32"
   d="m 124.72302,87.24512 c -0.0524,0.28363 -0.14098,0.773542 -0.19722,0.99725 -0.0903,0.359056 -0.21013,0.710217 -0.30116,1.069082 -0.42255,1.665816 -0.75225,3.351753 -1.08064,5.037871 -0.0831,0.459018 -0.16612,0.918036 -0.24918,1.377054 -0.41853,2.314287 2.85437,2.906172 3.27289,0.591886 v 0 c 0.0803,-0.444522 0.16068,-0.889044 0.24102,-1.333565 0.31122,-1.600352 0.62137,-3.201859 1.02062,-4.783297 0.10971,-0.434553 0.24786,-0.861637 0.3558,-1.296632 0.0774,-0.311769 0.168,-0.839472 0.23043,-1.189284 0.33259,-2.328189 -2.95996,-2.798554 -3.29256,-0.470365 z" /><path
   style="fill:#000000;fill-opacity:1;fill-rule:nonzero;stroke:none"
   id="path33"
   d="m 141.59406,36.542966 c -1.98062,1.25933 -3.31071,3.293607 -4.49216,5.26848 -0.89274,1.643429 -1.45492,3.423814 -1.70346,5.276812 -0.14828,1.105542 -0.14096,1.822283 -0.1717,2.922476 -0.0626,2.885724 0.9688,5.592692 2.07148,8.207807 0.6072,1.651998 1.62535,3.073048 2.74463,4.410315 1.51658,1.797517 4.05865,-0.347252 2.54207,-2.144769 v 0 c -0.91636,-1.074862 -1.74163,-2.21686 -2.22298,-3.560084 -0.92103,-2.174755 -1.8434,-4.423881 -1.81035,-6.826479 0.0197,-0.820431 0.0177,-1.604339 0.12034,-2.420657 0.1835,-1.459919 0.59494,-2.863205 1.28766,-4.163733 0.42006,-0.709263 0.68512,-1.195735 1.17063,-1.861906 0.56049,-0.769055 0.74486,-0.931853 1.38768,-1.606118 0.12891,-0.135213 0.24695,-0.282251 0.38958,-0.402901 0.10119,-0.0856 0.22449,-0.140987 0.33673,-0.21148 2.04196,-1.166832 0.39181,-4.054595 -1.65015,-2.887763 z" /><path
   style="fill:#000000;fill-opacity:1;fill-rule:nonzero;stroke:none"
   id="path34"
   d="m 144.14826,43.100406 c -1.09849,1.004366 -1.83186,2.288563 -2.4213,3.637062 -0.46376,1.356489 -0.76657,2.813398 -0.68312,4.25529 0.0159,0.275216 0.0631,0.547728 0.0947,0.821591 0.30612,1.643103 1.28878,2.922578 2.39564,4.117187 0.15234,0.160868 0.30468,0.321735 0.45702,0.482602 1.61721,1.707547 4.03204,-0.579535 2.41483,-2.287081 v 0 c -0.14736,-0.155579 -0.29473,-0.311157 -0.44209,-0.466735 -0.63244,-0.668516 -1.26397,-1.362372 -1.5261,-2.266438 -0.16833,-1.127658 -0.005,-2.268513 0.34781,-3.35003 0.39969,-0.970762 0.92649,-1.881835 1.71445,-2.591622 1.66299,-1.662992 -0.68883,-4.014818 -2.35183,-2.351826 z" /><path
   style="fill:#000000;fill-opacity:1;fill-rule:nonzero;stroke:none"
   id="path36"
   d="m 143.85618,50.800921 c 2.04809,-0.03226 4.0964,-0.06379 6.14471,-0.08696 0.41662,0.0011 0.83324,6.39e-4 1.24984,0.0032 0.75688,0.0046 1.51363,0.0259 2.27052,0.02583 1.35125,-1.21e-4 2.70392,-0.0466 4.05478,-0.07239 2.9708,-0.05187 5.94187,-0.08575 8.91307,-0.101448 2.1522,-0.0091 4.30442,-0.0092 6.45663,-0.0091 1.20081,1.77e-4 2.40162,7.45e-4 3.60244,10e-4 0.81771,1.58e-4 1.63542,1.91e-4 2.45313,2.07e-4 0.59098,0.01786 1.17566,-0.0055 1.76179,-0.08305 0.47767,-0.07061 0.95889,-0.107321 1.44078,-0.131954 2.34862,-0.122746 2.17503,-3.444197 -0.17359,-3.321451 v 0 c -0.5718,0.03042 -1.1429,0.07411 -1.70986,0.157011 -0.1157,0.01586 -0.22967,0.04633 -0.34623,0.05346 -0.32307,0.01975 -0.64951,-0.01579 -0.97282,0 -0.81749,-1.6e-5 -1.63498,-4.9e-5 -2.45246,-2.07e-4 -1.201,-2.67e-4 -2.402,-8.35e-4 -3.60299,-0.001 -2.15814,-1.22e-4 -4.31628,2.6e-5 -6.4744,0.0092 -2.98651,0.01581 -5.97288,0.04983 -8.95898,0.102008 -1.31517,0.02511 -2.63246,0.07203 -3.948,0.07207 -0.76866,2.1e-5 -1.53717,-0.0216 -2.30581,-0.02611 -0.43181,-0.0025 -0.86364,-0.002 -1.29546,-0.003 -2.03577,0.02303 -4.07156,0.05399 -6.10709,0.08675 -2.35183,0 -2.35183,3.325984 0,3.325984 z" /><path
   style="fill:#ff4400;fill-opacity:1;fill-rule:nonzero;stroke:none"
   id="path37"
   d="m 181.82523,36.931721 c 0,2.402846 0,4.805693 0,7.208539 0.0129,2.746931 -0.0976,5.492587 -0.17308,8.238086 -0.0484,1.523601 -0.0333,3.048343 -0.0988,4.571343 -0.0339,0.669973 -0.0653,1.340005 -0.0805,2.010686 -0.01,0.492882 -0.008,0.985888 -0.008,1.478838 2e-4,0.554107 5.4e-4,1.108215 7.6e-4,1.662323 0.0109,0.539525 0.22213,1.034711 0.3673,1.545224 0.64894,2.260523 3.8458,1.342785 3.19686,-0.917738 v 0 c -0.0718,-0.248537 -0.0643,-0.229111 -0.1397,-0.465444 -0.0233,-0.07287 -0.0474,-0.145467 -0.0711,-0.2182 -0.001,0.0054 -0.001,0.02085 -0.004,0.01627 -0.009,-0.01259 -0.007,-0.05703 -0.0152,-0.04377 -0.0142,0.02366 -0.005,0.05491 -0.008,0.08237 -2.1e-4,-0.553705 -5.6e-4,-1.10741 -7.6e-4,-1.661115 -1e-5,-0.468083 -0.002,-0.93622 0.007,-1.404243 0.0144,-0.648187 0.0461,-1.295687 0.0783,-1.9432 0.0654,-1.539925 0.0538,-3.081403 0.10058,-4.621951 0.0763,-2.775955 0.18756,-5.552067 0.17433,-8.329476 0,-2.402846 0,-4.805693 0,-7.208539 0,-2.351826 -3.32598,-2.351826 -3.32598,0 z" /><path
   style="fill:#ff4400;fill-opacity:1;fill-rule:nonzero;stroke:none"
   id="path38"
   d="m 183.42055,65.781997 c 2.31424,-0.02492 4.62649,0.0907 6.93913,0.162031 4.51303,0.08058 9.02314,0.260216 13.5345,0.401398 2.10479,0.06693 4.21005,0.115726 6.31567,0.146158 2.35158,0.03396 2.3996,-3.291681 0.048,-3.325638 v 0 c -2.08695,-0.03011 -4.17354,-0.07856 -6.25966,-0.144877 -4.51186,-0.141178 -9.02248,-0.320838 -13.53601,-0.401445 -2.34678,-0.07236 -4.69324,-0.188657 -7.04165,-0.163611 -2.35182,0 -2.35182,3.325984 0,3.325984 z" /><path
   style="fill:#000000;fill-opacity:1;fill-rule:nonzero;stroke:none"
   id="path39"
   d="m 210.65039,66.408755 c 2.98216,-0.02814 5.96011,0.1133 8.93624,0.284683 5.04325,0.411252 10.10321,0.587153 15.14234,1.046492 2.8839,0.276873 5.77984,0.386711 8.66166,0.685674 2.47956,0.316472 4.924,0.88846 7.33744,1.531194 2.30585,0.636984 4.44414,1.691669 6.43495,3.002135 0.20444,0.158944 0.43354,0.290457 0.61332,0.476832 0.12356,0.128088 0.2016,0.294449 0.28325,0.452587 0.32374,0.627051 0.48014,1.322637 0.49941,2.026529 0.007,0.272476 -0.0227,0.544684 -0.0341,0.817026 -0.056,0.263671 -0.0855,0.534374 -0.16792,0.791012 -0.0783,0.243878 -0.19258,0.47561 -0.31164,0.702398 -0.56262,1.071639 -1.34347,1.767836 -2.28044,2.501206 -1.60198,1.095961 -3.54606,1.465888 -5.42846,1.772903 -0.29212,0.0123 -0.58407,0.04457 -0.87634,0.03691 -0.33993,-0.0089 -0.67854,-0.04859 -1.01647,-0.08653 -1.09032,-0.122398 -2.18558,-0.3079 -3.24096,-0.613893 -0.25738,-0.07462 -0.50722,-0.17317 -0.76083,-0.259755 -0.1954,-0.09278 -0.40167,-0.165485 -0.58621,-0.278345 -0.62135,-0.380012 -1.1712,-1.396188 -1.49155,-2.029877 -0.14009,-0.307967 -0.22544,-0.628958 -0.27287,-0.961965 -0.42572,-2.312973 -3.69676,-1.710906 -3.27104,0.602067 v 0 c 0.13085,0.651389 0.2876,1.290474 0.59018,1.888842 0.94795,1.803025 1.99898,3.187117 3.97803,3.934018 0.33941,0.111442 0.67462,0.236574 1.01823,0.334326 1.61581,0.459687 3.55431,0.783622 5.23152,0.792326 0.41404,0.0021 0.82652,-0.05101 1.23978,-0.07652 2.44619,-0.407648 4.9221,-0.964019 6.96197,-2.455162 0.29314,-0.237313 0.59902,-0.459693 0.87941,-0.711939 1.3497,-1.214216 2.43222,-2.714756 2.90868,-4.488668 0.11641,-0.433404 0.14818,-0.885213 0.22226,-1.32782 0.007,-1.11387 0.0734,-1.479117 -0.17439,-2.570404 -0.29871,-1.315803 -0.90758,-2.479957 -1.87415,-3.429449 -0.24436,-0.240045 -0.54532,-0.414681 -0.81798,-0.622022 -0.32373,-0.210659 -0.64137,-0.430963 -0.97117,-0.631976 -2.00607,-1.222707 -4.17368,-2.152951 -6.4307,-2.801323 -2.58221,-0.6842 -5.19601,-1.296168 -7.84967,-1.625067 -2.89553,-0.297641 -5.80414,-0.416179 -8.70188,-0.689581 -5.0761,-0.461008 -10.17256,-0.643085 -15.25285,-1.054693 -3.03971,-0.174391 -6.08129,-0.318458 -9.1271,-0.290163 -2.35182,0 -2.35182,3.325984 0,3.325984 z" /><path
   style="fill:#ff4400;fill-opacity:1;fill-rule:nonzero;stroke:none"
   id="path40"
   d="m 195.54183,49.274935 c -0.16422,0.132427 -0.3419,0.249708 -0.49266,0.39728 -0.58946,0.577015 -1.00279,1.615442 -0.84264,2.438784 0.0675,0.347014 0.24951,0.661545 0.37427,0.992317 0.1929,0.220376 0.34425,0.485595 0.57869,0.661128 0.8615,0.64503 1.78504,0.776754 2.81786,0.626281 0.23738,-0.03458 0.47397,-0.08896 0.69833,-0.173841 0.2589,-0.09795 0.49517,-0.247591 0.74276,-0.371387 0.46609,-0.380286 0.9179,-0.650794 1.06644,-1.325497 0.22319,-1.013817 0.005,-1.59814 -0.64288,-2.317132 -0.4403,-0.488798 -0.9233,-0.622408 -1.50247,-0.872355 -0.73612,-0.21094 -1.46051,-0.361105 -2.22812,-0.210507 -0.24636,0.04833 -0.49815,0.112714 -0.71308,0.242469 -0.3016,0.182075 -0.6228,0.379866 -0.81104,0.677654 -0.2341,0.370345 -0.27152,0.833134 -0.40728,1.249702 0.13702,0.41009 0.19105,0.858061 0.41107,1.230272 0.17008,0.28773 0.45859,0.490952 0.72538,0.692289 0.47837,0.361007 1.32486,0.648378 1.92035,0.72572 0.20371,0.02646 0.41043,0.01852 0.61564,0.02779 0.23556,-0.04215 0.48085,-0.04725 0.70667,-0.12644 1.05321,-0.369333 1.72282,-1.257589 1.49824,-2.455838 -0.16822,-0.897538 -0.73389,-1.128941 -1.36425,-1.547457 -0.59354,-0.258192 -1.21755,-0.472901 -1.87651,-0.445356 -0.23164,0.0097 -0.47013,0.02475 -0.6875,0.105364 -0.29606,0.109796 -0.61604,0.224688 -0.82959,0.457274 -0.28841,0.314102 -0.41232,0.746552 -0.61848,1.119828 0.0381,0.360247 -0.007,0.739596 0.11443,1.08074 0.25614,0.71697 1.12813,1.410011 1.89373,1.487897 0.33666,0.03425 0.68819,0.02623 1.01285,-0.06923 0.30491,-0.08965 0.55224,-0.31475 0.82836,-0.472125 0.19278,-0.290962 0.49239,-0.534603 0.57834,-0.872886 0.21445,-0.844017 0.0562,-1.457668 -0.48184,-2.064604 -0.16085,-0.18147 -0.3878,-0.291254 -0.5817,-0.436881 -2.04898,-1.154455 -3.68163,1.74324 -1.63265,2.897695 v 0 c -0.0969,-0.09097 -0.21528,-0.163477 -0.2907,-0.272919 -0.2965,-0.430253 -0.29427,-0.8444 -0.0977,-1.367372 0.0736,-0.195818 0.27724,-0.313362 0.41587,-0.470043 0.14988,-0.05537 0.29094,-0.147576 0.44965,-0.166124 0.29336,-0.03428 0.70495,0.02236 0.86465,0.318292 0.0763,0.141323 0.17221,0.280872 0.19738,0.439477 0.0353,0.222129 -0.0137,0.44961 -0.0206,0.674416 -0.18009,0.253341 -0.31077,0.550399 -0.54028,0.760022 -0.13348,0.121914 -0.33122,0.148806 -0.50586,0.195488 -0.0496,0.01327 -0.10449,-0.0022 -0.15291,-0.0194 -0.0104,-0.0037 -0.003,-0.03204 0.008,-0.03216 0.0638,-7.05e-4 0.1263,0.01831 0.18902,0.02999 0.0527,0.0098 0.1047,0.02296 0.15705,0.03445 -0.11777,-0.228385 -0.30373,-0.578016 -0.30053,-0.768004 0.0108,-0.641053 0.26891,-1.250846 0.92642,-1.356745 0.054,-0.0087 0.10881,0.01117 0.16321,0.01675 -0.14901,0.06043 -0.26055,-0.0039 -0.41247,-0.04441 -0.0429,-0.01145 -0.12061,-0.0721 -0.1302,-0.02871 -0.0164,0.07397 0.0765,0.134045 0.0905,0.208499 0.0428,0.227746 0.0524,0.460499 0.0786,0.690748 -0.12652,0.242595 -0.20287,0.518893 -0.37957,0.727784 -0.10634,0.125705 -0.28231,0.172194 -0.43463,0.23471 -0.0494,0.02029 -0.19697,-0.06654 -0.14373,-0.07092 0.10554,-0.0087 0.21115,0.01748 0.31613,0.03134 0.099,0.01307 0.19696,0.03292 0.29544,0.04938 0.40584,0.05882 0.0872,-0.02321 0.10041,-0.380311 0.0248,-0.667427 0.0454,-0.736081 0.45672,-1.107371 0.009,-0.0077 0.0143,0.01809 0.0215,0.02714 0.11566,0.07576 0.06,0.01917 -0.14863,0.110117 -0.0394,0.01716 -0.0738,0.04463 -0.11339,0.06119 -0.0377,0.01575 -0.11669,-0.0056 -0.11737,0.03522 -0.001,0.07254 0.0842,0.119309 0.11372,0.185594 0.0177,0.03986 0.0173,0.08553 0.026,0.12829 0.0221,0.275054 0.0781,0.333426 -0.0368,0.548415 -0.0572,0.107044 -0.31968,-0.139252 -0.30005,0.13569 2.05586,-1.142147 0.44062,-4.049581 -1.61524,-2.907433 z" /></svg>
