<?xml version="1.0" encoding="UTF-8" standalone="no"?>
<svg
   id="svg1124"
   version="1.1"
   viewBox="0 0 71.84871 33.65004"
   height="33.65004mm"
   width="71.848709mm"
   sodipodi:docname="7 ni li soweli tu..svg"
   inkscape:version="1.3 (0e150ed6c4, 2023-07-21)"
   xmlns:inkscape="http://www.inkscape.org/namespaces/inkscape"
   xmlns:sodipodi="http://sodipodi.sourceforge.net/DTD/sodipodi-0.dtd"
   xmlns="http://www.w3.org/2000/svg"
   xmlns:svg="http://www.w3.org/2000/svg"
   xmlns:rdf="http://www.w3.org/1999/02/22-rdf-syntax-ns#"
   xmlns:cc="http://creativecommons.org/ns#"
   xmlns:dc="http://purl.org/dc/elements/1.1/">
  <sodipodi:namedview
     id="namedview1"
     pagecolor="#ffffff"
     bordercolor="#000000"
     borderopacity="0.25"
     inkscape:showpageshadow="2"
     inkscape:pageopacity="0.0"
     inkscape:pagecheckerboard="0"
     inkscape:deskcolor="#d1d1d1"
     inkscape:document-units="mm"
     inkscape:zoom="2.326791"
     inkscape:cx="112.81632"
     inkscape:cy="52.647617"
     inkscape:window-width="1920"
     inkscape:window-height="1051"
     inkscape:window-x="-9"
     inkscape:window-y="-9"
     inkscape:window-maximized="1"
     inkscape:current-layer="svg1124" />
  <defs
     id="defs1118" />
  <metadata
     id="metadata1121">
    <rdf:RDF>
      <cc:Work
         rdf:about="">
        <dc:format>image/svg+xml</dc:format>
        <dc:type
           rdf:resource="http://purl.org/dc/dcmitype/StillImage" />
        <dc:title />
      </cc:Work>
    </rdf:RDF>
  </metadata>
  <g
     transform="translate(-52.223561,-109.30224)"
     id="layer1">
    <g
       transform="matrix(0.26458333,0,0,0.26458333,47.675858,99.041297)"
       id="g1831">
      <path
         style="opacity:0.2"
         d="m 103.2,117 c 12.7,8.2 34.5,15.5 14.8,27.5 -18.4,11.2 -39.2,-0.4 -49.5,-10.6 -20.7,-20.6 -56.1,-20.3 -31.1,-23.8 1.9,-0.3 15.8,0 29.6,2 14.3,2 32.4,2.4 36.2,4.9 z"
         id="path1803" />
      <path
         style="fill:#825012"
         d="m 96.1,110.4 c 0,0 2,4.7 1.9,6.2 -0.1,1.5 -0.8,3.5 0.1,4.3 0.9,0.7 7.8,5.2 9.1,7.1 1.3,1.9 2,5.2 6.6,3 4.6,-2.2 3.1,-5.5 0.9,-6.4 -2.1,-0.9 -6.5,-1.7 -8.8,-3.9 -2.3,-2.2 -3.2,-2.9 -1.2,-6.3 2,-3.4 2.9,-6.1 2.9,-6.1 z"
         id="path1805" />
      <path
         style="opacity:0.2"
         d="m 96.1,110.4 c 0,0 2,4.7 1.9,6.2 -0.1,1.5 -0.8,3.5 0.1,4.3 0.9,0.7 7.8,5.2 9.1,7.1 1.3,1.9 2,5.2 6.6,3 4.6,-2.2 3.1,-5.5 0.9,-6.4 -2.1,-0.9 -6.5,-1.7 -8.8,-3.9 -2.3,-2.2 -3.2,-2.9 -1.2,-6.3 2,-3.4 2.9,-6.1 2.9,-6.1 z"
         id="path1807" />
      <path
         style="fill:#825012"
         d="m 86.8,47.8 c 0.8,-1.5 2.6,-3.6 5.5,-5 2.9,-1.4 5,-1.9 5,-1.9 0,0 1.7,-3.1 5.5,-1.8 3.8,1.3 7.5,8.5 8.4,11.6 0.9,3.1 2.2,8.7 1,9.4 -1.2,0.7 -3,-2.1 -3,-2.1 0,0 1,4.5 1.8,7.3 0.7,2.8 -0.1,7.7 0.7,9.3 0.7,1.6 4.2,7.5 3.8,13.7 -0.4,6.2 -2.8,12.2 -2.9,14.8 -0.1,2.6 3.4,16.8 4,17.9 0.6,1.1 0.2,4.4 1.2,6.4 1,2 8.7,3.9 6.2,7.8 -2.4,3.9 -9.3,2 -10.3,-0.2 -1,-2.2 0.1,-4.6 -1.1,-8.8 -1.2,-4.2 -6.7,-15.8 -6.7,-15.8 0,0 -2,0.6 -4.8,0.9 -2.9,0.4 -5.9,3.9 -4.9,9.7 1,5.8 2,8 2.6,9.4 0.6,1.4 0.2,4.6 1.1,6.4 0.9,1.9 7.2,4.2 4.8,7.3 -2.4,3.1 -7.5,3.2 -10.2,0.6 -2.7,-2.6 -0.4,-3.8 -2.2,-10.2 -1.9,-6.4 -4,-13.8 -4,-13.8 l -6.3,1.5 -4.4,9.3 c 0,0 3.8,2.8 5.7,3.9 1.9,1.1 5.7,0.2 7,1.9 1.3,1.7 1.8,5.5 -2.2,7 -4,1.5 -6.3,-3.4 -7.7,-4.5 -1.4,-1 -7,-3.3 -8.5,-5 -1.5,-1.7 -0.2,-5.8 -0.2,-5.8 0,0 -5.9,-0.6 -8.8,-4.4 -2.9,-3.8 -2.5,-4.6 -3.7,-5.5 -1.2,-0.9 -3.1,-1.7 -8.8,-1.1 -5.7,0.6 -12.7,-1.8 -15.7,-5.2 -3.1,-3.4 -3.7,-11.3 -2.9,-12 0.8,-0.7 2.2,4.5 3.8,5.7 1.6,1.2 5.3,4.2 9.7,3.8 4.4,-0.4 12.5,-3.6 12.5,-3.6 0,0 4.6,-12.8 10.8,-19.7 6.2,-7 14.6,-11.7 15.9,-16.8 1.1,-5.1 1,-19.9 2.3,-22.4 z"
         id="path1809" />
      <g
         id="g1813">
        <path
           style="opacity:0.2"
           d="m 84.6,108.1 c 0,0 -1.2,1.6 -4,1.6 -1.5,0 -3.7,-0.2 -5.3,-0.4 0.6,0.1 1.4,0.3 2.2,0.6 2.8,0.9 3.9,2.1 5.1,4.6 1.1,2.5 -0.8,7.7 -0.8,7.7 l 6.3,-1.5 c 0,0 -0.7,-2.1 -1,-3.2 -0.3,-1 -2.6,-6.6 -2.5,-9.4 z"
           id="path1811" />
      </g>
      <path
         style="opacity:0.2"
         d="m 94.9,65.4 c -0.4,-1.5 -1.8,-5.1 -4,-7.5 -1.6,-1.8 -3,-5.8 -3.6,-8.3 l -1.1,0.3 c -0.6,3.7 -0.8,10.7 -1.3,15.8 0.9,0.7 4.2,1.9 5.3,2.5 4.7,2.6 5.5,0.5 4.7,-2.8 z"
         id="path1815" />
      <path
         style="fill:#262626"
         d="m 93.7,52.8 c 0,0 -0.1,-2.2 0.8,-3.1 0.8,-0.9 2.5,-0.6 1.7,1.3 -0.8,2 -2.5,1.8 -2.5,1.8 z"
         id="path1817" />
      <path
         style="fill:#262626"
         d="m 102.9,45.7 c 0,0 -0.2,-1.1 0.7,-1.5 0.9,-0.3 1.8,1.5 1.8,1.5 z"
         id="path1819" />
      <path
         style="fill:#262626"
         d="m 111.1,53.4 c 0,0 -0.3,-0.6 -1,-0.8 -0.6,-0.2 -1.3,-0.1 -2.1,0.2 l -0.9,-1.8 -0.3,0.2 0.9,1.8 c -1.3,0.7 -1.9,1.5 -2.6,2.5 -0.4,0.6 -0.9,1.3 -1.6,1.9 -1.8,1.8 -2.8,2.1 -2.8,2.1 -0.1,0 -0.1,0.1 -0.1,0.2 0,0.1 0.1,0.1 0.2,0.1 0,0 0,0 0.1,0 0,0 1.1,-0.4 3,-2.2 0.7,-0.7 1.2,-1.4 1.6,-2 0.7,-1 1.3,-1.8 2.6,-2.5 0.8,-0.4 1.4,-0.5 1.9,-0.3 0.6,0.2 0.8,0.6 0.8,0.6 0,0.1 0.2,0.1 0.2,0.1 0.1,0.1 0.1,0 0.1,-0.1 z"
         id="path1821" />
      <path
         style="fill:#825012"
         d="m 87.4,47.1 c -0.8,-0.5 -2.7,0.7 -4.1,3.4 -1.4,2.7 -3.4,7.5 -1.8,9.9 1.6,2.4 4.3,4.5 6.7,5.4 2.3,0.9 5,2.6 5.7,2.1 0.7,-0.5 -1.1,-5.7 -3,-8.4 -1.9,-2.7 -4,-5.8 -4,-5.8 0,0 2.5,-5.3 0.5,-6.6 z"
         id="path1823" />
      <path
         style="opacity:0.2"
         d="m 111.1,50.6 c 0.7,1.7 0.5,3.5 -0.1,5.2 -0.6,1.6 -1.7,2.3 -1.7,2.3 v 0.1 c 0.3,0.5 1.8,2.7 2.9,2 1.2,-0.7 -0.1,-6.3 -1,-9.4 -0.9,-3.1 -4.6,-10.2 -8.4,-11.6 -3.5,-1.2 -5.2,1.3 -5.5,1.7 1.6,0 4.4,0.4 5.9,1.9 1.6,1.5 2.6,2.4 3.6,3.8 1,1.4 3.5,2.2 4.3,4 z"
         id="path1825" />
      <path
         style="fill:#262626"
         d="m 102.6,48.5 c -0.7,1.6 1.8,4 4.3,2.9 2.5,-1.2 1.5,-4 0.7,-4.6 -0.8,-0.7 -4.2,-0.2 -5,1.7 z"
         id="path1827" />
      <path
         style="fill:#262626"
         d="M 112.2,69.8 C 108,70.5 102.9,70.9 97.7,70.6 90,70.3 85.7,69 84,68 c -0.1,0.7 -0.2,1.4 -0.4,2 -0.2,0.6 -0.4,1.3 -0.8,1.9 4,2 10.5,2.6 14.7,2.7 1.1,0 2.2,0.1 3.3,0.1 3.7,0 7.7,-0.2 11.5,-0.9 -0.2,-1 -0.1,-2.5 -0.1,-4 z"
         id="path1829" />
    </g>
    <g
       transform="matrix(0.26458333,0,0,0.26458333,52.226691,103.27463)"
       id="g1693">
      <path
         style="opacity:0.2"
         d="m 54.4,127.4 c 9.1,5.9 23.5,12.9 10.6,19.8 C 51.3,154.5 33.1,145.9 26.3,138 17.2,127.5 6.9,124 2.4,122.8 c -3.7,-1 -3.8,-3.1 4.4,-1.8 1.4,0.2 11.6,1.5 21.6,2.9 10.2,1.4 23.2,1.7 26,3.5 z"
         id="path1669" />
      <path
         style="fill:#999999"
         d="m 46.3,127.9 c 0,0 0.8,2.9 2.8,4.1 2,1.2 6.1,3.4 6.5,4.3 0.4,0.9 1.4,3 3.5,2.6 2.1,-0.4 4.8,-2.2 4.1,-3.5 -0.7,-1.3 -1.7,-0.9 -3.8,-1.4 -2.1,-0.5 -5.2,-2.4 -6,-3.7 -0.9,-1.3 -1.7,-4 -1.7,-4 z"
         id="path1671" />
      <path
         style="opacity:0.2"
         d="m 46.3,127.9 c 0,0 0.8,2.9 2.8,4.1 2,1.2 6.1,3.4 6.5,4.3 0.4,0.9 1.4,3 3.5,2.6 2.1,-0.4 4.8,-2.2 4.1,-3.5 -0.7,-1.3 -1.7,-0.9 -3.8,-1.4 -2.1,-0.5 -5.2,-2.4 -6,-3.7 -0.9,-1.3 -1.7,-4 -1.7,-4 z"
         id="path1673" />
      <path
         style="fill:#999999"
         d="m 19.4,120.4 c 0,0 -8.5,-1.5 -12,-8.3 C 4,105.3 5.4,99.8 4.5,98.2 3.6,96.6 1.4,97 0.9,98.8 c -0.5,1.8 -1.2,13.5 4.9,19.8 6.3,6.3 13.8,7.8 13.8,7.8 0,0 1.8,6.3 5.5,8 3.7,1.7 5.1,0.5 5.1,0.5 0,0 -0.9,2 -0.2,3.1 0.7,1 8.4,3.1 9.5,4 1.1,1 2.1,3.8 4.9,2.8 2.8,-1 3.7,-2.1 3,-3.4 -0.7,-1.3 -2.6,-1.8 -4,-1.9 -1.4,-0.1 -6.5,-2.5 -6.5,-2.5 0,0 2.2,-2.1 2.7,-3.7 0.5,-1.6 0.3,-2.7 0.3,-2.7 l 6.9,-2.6 c 0,0 1.2,5.4 1.5,9.2 0.3,3.8 0.5,5.6 0.9,7.4 0.4,1.9 0.2,4.3 3.3,4 3.1,-0.3 4.3,-1.1 3.9,-2.3 -0.4,-1.2 -2.4,-2.4 -2.8,-4.6 -0.4,-2.1 0.1,-12.9 0.4,-14 0.2,-1.1 2.5,-7.1 2.5,-7.1 l 2.5,-0.5 c 0,0 1.1,7.8 1.5,11.3 0.4,3.5 0.7,9.2 0.7,10.4 0,1.2 0.7,2.6 2.2,2.7 1.5,0.2 4.6,-0.8 4.5,-2.1 -0.1,-1.3 -2.3,-3.1 -2.5,-4.6 -0.2,-1.5 -0.5,-14.8 0.9,-19.4 1.4,-4.6 2.4,-7.1 2.4,-7.1 L 60,91.5 c 0,0 -3.5,0.8 -7.9,0.7 -4.5,-0.1 -17.8,-0.1 -25.4,9.5 -7.8,9.7 -7.3,18.7 -7.3,18.7 z"
         id="path1675" />
      <path
         style="fill:#e5e5e5"
         d="m 56.3,120.7 c 0,0 2.5,-2.1 2.7,-4.9 0.2,-2.8 1.8,-5.1 3.2,-6 1.4,-1 6.2,-3.4 6.2,-3.4 0,0 1.3,4.3 -0.5,7.3 -1.8,3 -4.8,5.4 -7.3,6.2 -2.5,0.8 -4.3,0.8 -4.3,0.8 z"
         id="path1677" />
      <path
         style="opacity:0.2"
         d="m 46.8,128 c 0,0 -0.7,-3.1 -1,-5.4 -0.2,-2.4 -0.9,-6 -0.9,-6 0,0 -0.9,2.1 -2.8,3 -1.9,0.9 -3.7,1.3 -5.3,0.6 -1.6,-0.7 -5.4,-2.7 -5.4,-2.7 0,0 5.7,3.8 6.8,6.9 1.2,3.1 1.6,6.3 1.6,6.3 z"
         id="path1679" />
      <path
         style="fill:#999999"
         d="m 58.2,96 c 0,0 -0.5,2.8 0.7,5.7 1.3,2.9 4,5.2 5.4,6.9 1.3,1.6 2.8,3.2 5.8,2.9 3,-0.4 3.2,-1.9 4.1,-3.1 0.9,-1.2 4.1,-5.7 4.6,-8.7 0.5,-3.1 0.1,-5.3 0.1,-5.3 0,0 2.1,-7.3 0.5,-8.2 -1.6,-0.9 -3.2,2.7 -5.1,2.9 -2,0.2 -2.9,-0.3 -5.1,-0.2 -2.2,0.1 -5.7,1 -5.7,1 0,0 -3.3,-3.4 -5.3,-2.7 -2.4,0.9 0,8.8 0,8.8 z"
         id="path1681" />
      <path
         style="fill:#2d3134"
         d="m 69.7,110.5 c -0.6,0 -1.7,-1 -1.6,-1.5 0.1,-0.5 2.9,-0.5 3.1,0.1 0.2,0.5 -0.9,1.4 -1.5,1.4 z"
         id="path1683" />
      <path
         style="fill:#2d3134"
         d="m 72,104.4 c 0,0 0.3,-1.8 1.8,-2.4 1.5,-0.6 2.1,-0.3 2.1,-0.3 0,0 -0.3,1.7 -1.5,2.3 -1.1,0.6 -2.4,0.4 -2.4,0.4 z"
         id="path1685" />
      <path
         style="fill:#2d3134"
         d="m 67.3,104.4 c 0,0 -0.6,-1.8 -2,-2.3 -1.4,-0.5 -2.4,0 -2.4,0 0,0 0.2,1.5 1.4,2 1.2,0.5 3,0.3 3,0.3 z"
         id="path1687" />
      <path
         style="opacity:0.2"
         d="m 72.9,93.3 c 0,0 4.8,-7.5 6.4,-6.9 1.2,0.4 -0.4,8 -0.4,8 0,0 -1.3,-1.2 -3,-1.5 -1.6,-0.3 -3,0.4 -3,0.4 z"
         id="path1689" />
      <path
         style="opacity:0.2"
         d="m 65.2,93.2 c 0,0 -5.3,-6.3 -6.9,-5.8 -2.2,0.7 -0.1,8.6 -0.1,8.6 0,0 1.6,-2.1 2.9,-2.6 1.3,-0.5 4.1,-0.2 4.1,-0.2 z"
         id="path1691" />
    </g>
  </g>
  <path
     style="fill:#000000;fill-opacity:1;fill-rule:nonzero;stroke:none;stroke-width:0.264583"
     id="path1"
     d="m 34.44036,2.5724301 c 0.199361,0.5525711 0.371043,1.114272 0.539125,1.6769881 0.09901,0.3341891 0.173577,0.6745192 0.245743,1.0152139 0.129233,0.6086866 0.990044,0.425927 0.860813,-0.1827596 v 0 C 36.008614,4.7179635 35.928633,4.3544443 35.822651,3.9974814 35.644867,3.4026758 35.464083,2.8084667 35.249209,2.2257811 35.004091,1.6538395 34.195242,2.0004885 34.44036,2.5724301 Z" />
  <path
     style="fill:#000000;fill-opacity:1;fill-rule:nonzero;stroke:none;stroke-width:0.264583"
     id="path2"
     d="m 35.582026,7.1011433 c -0.01794,0.6528848 0.03106,1.3036127 0.07377,1.9545766 0.0164,0.3307358 0.03857,0.659167 0.08098,0.9874531 0.08211,0.616812 0.954416,0.500688 0.872305,-0.1161241 v 0 c -0.04262,-0.3085052 -0.05643,-0.6180627 -0.07518,-0.9289394 -0.04145,-0.6318279 -0.09004,-1.2632552 -0.07188,-1.8969662 0,-0.6222539 -0.879999,-0.6222539 -0.879999,0 z" />
  <path
     style="fill:#000000;fill-opacity:1;fill-rule:nonzero;stroke:none;stroke-width:0.264583"
     id="path3"
     d="m 35.984058,12.568772 c -0.01209,0.564741 0.07086,1.124169 0.133855,1.683728 0.01037,0.102189 0.02074,0.204377 0.03109,0.306566 0.06284,0.619072 0.938345,0.530199 0.875501,-0.08887 v 0 c -0.01072,-0.105395 -0.0214,-0.21079 -0.03212,-0.316185 -0.05936,-0.526856 -0.139658,-1.053474 -0.128328,-1.585235 0,-0.622254 -0.879999,-0.622254 -0.879999,0 z" />
  <path
     style="fill:#000000;fill-opacity:1;fill-rule:nonzero;stroke:none;stroke-width:0.264583"
     id="path4"
     d="m 36.466494,17.615134 c 0.01537,0.499676 -0.01331,0.99666 -0.05758,1.494028 -0.04795,0.434422 -0.05463,0.871387 -0.134009,1.301519 -0.01035,0.05598 -0.02066,0.11197 -0.03101,0.167955 -0.112985,0.61191 0.752387,0.771695 0.865372,0.159784 v 0 c 0.01045,-0.05656 0.02088,-0.113113 0.03133,-0.16967 0.08273,-0.457154 0.0982,-0.919887 0.144865,-1.38167 0.04645,-0.523248 0.07635,-1.046327 0.06104,-1.571946 0,-0.622254 -0.880001,-0.622254 -0.880001,0 z" />
  <path
     style="fill:#000000;fill-opacity:1;fill-rule:nonzero;stroke:none;stroke-width:0.264583"
     id="path5"
     d="m 35.726293,23.844391 c -0.09055,0.67714 -0.189905,1.352842 -0.289552,2.028669 -0.04647,0.208744 -0.111453,0.412561 -0.166537,0.619092 -0.160025,0.601324 0.690377,0.827635 0.850403,0.226311 v 0 c 0.06339,-0.238771 0.140843,-0.473892 0.186727,-0.717069 0.101126,-0.68619 0.202102,-1.372243 0.293576,-2.059823 0.06872,-0.618448 -0.8059,-0.715628 -0.874617,-0.09718 z" />
  <path
     style="fill:#000000;fill-opacity:1;fill-rule:nonzero;stroke:none;stroke-width:0.264583"
     id="path6"
     d="m 34.617149,28.682349 c -0.02238,0.262024 -0.106408,0.513307 -0.171752,0.767011 -0.118853,0.311613 -0.21496,0.629941 -0.304424,0.950859 -0.06204,0.216964 -0.100534,0.438828 -0.131577,0.661943 -0.0846,0.616476 0.787222,0.736124 0.871828,0.119647 v 0 c 0.02479,-0.183904 0.05627,-0.366628 0.107453,-0.545367 0.09101,-0.326737 0.19322,-0.648999 0.309033,-0.968081 0.08326,-0.324901 0.188074,-0.648012 0.19944,-0.986012 0,-0.622253 -0.880001,-0.622253 -0.880001,0 z" />
  <path
     style="fill:#000000;fill-opacity:1;fill-rule:nonzero;stroke:none;stroke-width:0.264583"
     id="path8"
     d="m 40.331466,12.751149 c -0.567497,0.365431 -0.991248,0.893063 -1.373309,1.439857 -0.195262,0.311802 -0.369144,0.640756 -0.476171,0.994451 -0.111183,0.367434 -0.156794,0.746527 -0.201075,1.126067 -0.052,0.463077 -0.05937,0.926491 0.04194,1.383884 0.04172,0.18833 0.153643,0.544745 0.211066,0.733742 0.220014,0.577948 0.564211,1.088949 0.938363,1.576027 0.379788,0.492911 1.076868,-0.04419 0.697079,-0.537102 v 0 c -0.310859,-0.402037 -0.599085,-0.822299 -0.793533,-1.295027 -0.0297,-0.09753 -0.15979,-0.518006 -0.186044,-0.628743 -0.08877,-0.374423 -0.07722,-0.752135 -0.03465,-1.132131 0.07303,-0.644094 0.158824,-1.165029 0.525311,-1.718481 0.297416,-0.429318 0.622364,-0.840598 1.044567,-1.155448 0.556562,-0.278281 0.163013,-1.065377 -0.393549,-0.787096 z" />
  <path
     style="fill:#000000;fill-opacity:1;fill-rule:nonzero;stroke:none;stroke-width:0.264583"
     id="path9"
     d="m 40.801996,14.612015 c -0.462394,0.282356 -0.739256,0.718999 -0.958816,1.200206 -0.128971,0.342617 -0.240596,0.70053 -0.169807,1.070976 0.05465,0.286001 0.142735,0.416171 0.271537,0.668618 0.138054,0.237653 0.320905,0.442401 0.49889,0.649794 0.405495,0.471989 1.072989,-0.101469 0.667494,-0.573457 v 0 c -0.135496,-0.157529 -0.276921,-0.311339 -0.388411,-0.487622 -0.05341,-0.09553 -0.203486,-0.33817 -0.203785,-0.456808 -5.29e-4,-0.174749 0.07914,-0.350514 0.128154,-0.513913 0.130016,-0.304241 0.307017,-0.609998 0.591346,-0.79374 0.540269,-0.308724 0.103666,-1.072778 -0.436602,-0.764054 z" />
  <path
     style="fill:#000000;fill-opacity:1;fill-rule:nonzero;stroke:none;stroke-width:0.264583"
     id="path10"
     d="m 40.469764,16.842884 c 1.222338,0.01704 2.4447,0.04164 3.667117,0.05823 1.512287,0.02717 3.023589,0.09716 4.535694,0.138408 0.898019,0.02468 1.796288,0.03871 2.694617,0.04462 0.622242,0.0041 0.628028,-0.875888 0.0058,-0.879981 v 0 c -0.892262,-0.0059 -1.784461,-0.0198 -2.676416,-0.04431 -1.516118,-0.04134 -3.031432,-0.111582 -4.547743,-0.138654 -1.226397,-0.01664 -2.452735,-0.04141 -3.679058,-0.05831 -0.622255,0 -0.622255,0.880001 0,0.880001 z" />
  <path
     style="fill:#000000;fill-opacity:1;fill-rule:nonzero;stroke:none;stroke-width:0.264583"
     id="path11"
     d="m 51.221052,13.00312 c 0,0.0522 0.0034,0.104513 0,0.156603 -0.0072,0.110341 -0.02125,0.220133 -0.03185,0.330199 -0.01577,0.234199 -0.03346,0.468276 -0.04729,0.702597 -0.05531,0.937123 -0.08926,1.875227 -0.124489,2.813254 -0.0429,0.910369 -0.04696,1.821945 -0.01881,2.732725 0.0019,0.05897 0.0039,0.11794 0.0059,0.17691 0.02085,0.621905 0.900347,0.592432 0.879506,-0.02947 v 0 c -0.0019,-0.05822 -0.0039,-0.116446 -0.0058,-0.174669 -0.02762,-0.890699 -0.02355,-1.782179 0.0186,-2.672472 0.03489,-0.929385 0.06858,-1.858831 0.123129,-2.787333 0.01336,-0.227389 0.03043,-0.454545 0.04565,-0.681818 0.01183,-0.13664 0.0269,-0.273037 0.03547,-0.40992 0.0033,-0.0521 0,-0.104402 0,-0.156603 0,-0.622254 -0.879999,-0.622254 -0.879999,0 z" />
  <path
     style="fill:#000000;fill-opacity:1;fill-rule:nonzero;stroke:none;stroke-width:0.264583"
     id="path12"
     d="m 51.896811,20.445904 c 1.291347,-0.05902 2.583122,-0.09916 3.875569,-0.125605 1.426763,-0.0277 2.853775,-0.03481 4.280763,-0.03779 0.972671,-0.0015 1.945343,-9.53e-4 2.918015,-4.24e-4 0.548942,3.44e-4 1.097883,5.03e-4 1.646825,5.56e-4 0.804767,-2.91e-4 1.609585,0.01791 2.414,0.04091 0.723093,0.04983 1.456618,-0.0039 2.175626,0.104117 0.0973,0.01462 0.192982,0.03852 0.289473,0.05778 0.215805,0.05255 0.428035,0.132525 0.618818,0.248006 0.154514,0.09353 0.288377,0.220345 0.416433,0.345766 0.211183,0.255822 0.392888,0.567371 0.436324,0.902847 0.0052,0.04047 0.0013,0.0816 0.0019,0.122408 -0.122174,0.221577 -0.365914,0.363458 -0.572522,0.496401 -0.302432,0.175349 -0.630957,0.306775 -0.970841,0.389915 -0.226922,0.05551 -0.465502,0.08213 -0.69597,0.114259 -0.529897,0.05837 -1.073589,0.112415 -1.600026,0.0027 -0.170166,-0.05578 -0.31456,-0.163459 -0.454451,-0.271827 -0.496136,-0.375565 -1.027263,0.326078 -0.531127,0.701643 v 0 c 0.249259,0.185826 0.507476,0.359175 0.814787,0.433451 0.07492,0.01429 0.149278,0.03193 0.224758,0.04288 0.552654,0.08017 1.118026,0.01996 1.669212,-0.03754 0.330022,-0.04721 0.507931,-0.06392 0.830527,-0.144179 0.419862,-0.104464 0.823007,-0.274772 1.194721,-0.494806 0.379843,-0.251324 0.796364,-0.538943 0.926943,-1.004296 0.02601,-0.09267 0.02809,-0.190441 0.04214,-0.285661 -0.0078,-0.08867 -0.0088,-0.17819 -0.02328,-0.266003 -0.08309,-0.502283 -0.351518,-0.962092 -0.684491,-1.337781 -0.06611,-0.06235 -0.129548,-0.12766 -0.198337,-0.187042 -0.367056,-0.316871 -0.806889,-0.525822 -1.277921,-0.635055 -0.121047,-0.02296 -0.241237,-0.05103 -0.363144,-0.06887 -0.742315,-0.108647 -1.498044,-0.06086 -2.244505,-0.108792 -0.812742,-0.02316 -1.625886,-0.0416 -2.438985,-0.04127 -0.548822,-7.4e-5 -1.097645,-2.34e-4 -1.646467,-5.55e-4 -0.973442,-5.3e-4 -1.946886,-0.001 -2.920331,4.23e-4 -1.43238,0.003 -2.864784,0.01015 -4.296936,0.03797 -1.301097,0.02665 -2.601508,0.06717 -3.901504,0.126519 -0.621477,0.03107 -0.577532,0.909976 0.04395,0.878902 z" />
  <path
     style="fill:#ff4400;fill-opacity:1;fill-rule:nonzero;stroke:none;stroke-width:0.264583"
     id="path13"
     d="m 55.67708,14.930826 c -0.30706,0.589818 -0.590259,1.193417 -0.821291,1.817421 -0.05172,0.139688 -0.09744,0.281522 -0.146163,0.422282 -0.159793,0.502054 -0.278691,1.017054 -0.335741,1.540986 -0.01979,0.218554 -0.01214,0.438293 -0.0096,0.657389 5.29e-4,0.03638 7.94e-4,0.07275 0.0013,0.109132 0.0071,0.622213 0.887048,0.612162 0.879941,-0.01005 v 0 c -5.29e-4,-0.03639 -7.94e-4,-0.07278 -0.0013,-0.109173 -0.0021,-0.18443 -0.0091,-0.369385 0.0047,-0.553505 0.04815,-0.458301 0.155448,-0.908141 0.292589,-1.347637 0.04454,-0.129396 0.08627,-0.259789 0.133601,-0.388187 0.217959,-0.591233 0.48654,-1.162678 0.77683,-1.721449 0.295011,-0.547877 -0.479803,-0.965085 -0.774813,-0.417208 z" />
  <circle
     id="path14"
     style="fill:#000000;stroke:#000000;stroke-width:0.264583"
     cx="52.136806"
     cy="9.94977"
     r="0.00083305186" />
</svg>
