<?xml version="1.0" encoding="UTF-8" standalone="no"?>
<svg
   id="svg1880"
   version="1.1"
   viewBox="0 0 151.83643 81.19091"
   height="81.19091mm"
   width="151.83643mm"
   sodipodi:docname="8 ni li soweli mute..svg"
   inkscape:version="1.3 (0e150ed6c4, 2023-07-21)"
   xmlns:inkscape="http://www.inkscape.org/namespaces/inkscape"
   xmlns:sodipodi="http://sodipodi.sourceforge.net/DTD/sodipodi-0.dtd"
   xmlns="http://www.w3.org/2000/svg"
   xmlns:svg="http://www.w3.org/2000/svg"
   xmlns:rdf="http://www.w3.org/1999/02/22-rdf-syntax-ns#"
   xmlns:cc="http://creativecommons.org/ns#"
   xmlns:dc="http://purl.org/dc/elements/1.1/">
  <sodipodi:namedview
     id="namedview1"
     pagecolor="#ffffff"
     bordercolor="#000000"
     borderopacity="0.25"
     inkscape:showpageshadow="2"
     inkscape:pageopacity="0.0"
     inkscape:pagecheckerboard="0"
     inkscape:deskcolor="#d1d1d1"
     inkscape:document-units="mm"
     inkscape:zoom="1"
     inkscape:cx="377.5"
     inkscape:cy="114.5"
     inkscape:window-width="1920"
     inkscape:window-height="1051"
     inkscape:window-x="-9"
     inkscape:window-y="-9"
     inkscape:window-maximized="1"
     inkscape:current-layer="svg1880" />
  <defs
     id="defs1874" />
  <metadata
     id="metadata1877">
    <rdf:RDF>
      <cc:Work
         rdf:about="">
        <dc:format>image/svg+xml</dc:format>
        <dc:type
           rdf:resource="http://purl.org/dc/dcmitype/StillImage" />
        <dc:title />
      </cc:Work>
    </rdf:RDF>
  </metadata>
  <g
     transform="translate(-42.9436,-76.152346)"
     id="layer1">
    <g
       transform="matrix(-0.26458333,0,0,0.26458333,136.05047,57.467865)"
       id="g2465">
      <path
         style="opacity:0.2"
         d="m 186.9,284 c 22.7,-12.3 71.8,-34.2 38,-54.9 -31.5,-19.3 -75.1,8.2 -97.4,20 -32.8,17.5 -65.8,41.1 -45.8,53.7 20.6,12.9 62.4,4.4 105.2,-18.8 z"
         id="path2425" />
      <path
         style="fill:#762c07"
         d="m 181.9,201.4 c -4.6,12.9 -7,15.9 -6.6,21.2 0.4,5.3 0.2,7.6 -2,12.6 -2.2,5 -4.6,9.5 -0.7,11.9 4,2.5 13.3,0 15.3,-3.3 2,-3.3 1.7,-6 0.7,-9.3 -1,-3.3 -2.2,-5.5 0,-14.6 2.2,-9.1 13.3,-43.1 13.3,-43.1 0,0 -3.6,-5.8 -4.6,-8.6 -1,-2.8 0,-7.3 0,-7.3 L 182,173.5 c -0.1,0 4.6,15 -0.1,27.9 z"
         id="path2427" />
      <path
         style="opacity:0.15"
         d="m 181.9,201.4 c -4.6,12.9 -7,15.9 -6.6,21.2 0.4,5.3 0.2,7.6 -2,12.6 -2.2,5 -4.6,9.5 -0.7,11.9 4,2.5 13.3,0 15.3,-3.3 2,-3.3 1.7,-6 0.7,-9.3 -1,-3.3 -2.2,-5.5 0,-14.6 2.2,-9.1 13.3,-43.1 13.3,-43.1 0,0 -3.6,-5.8 -4.6,-8.6 -1,-2.8 0,-7.3 0,-7.3 L 182,173.5 c -0.1,0 4.6,15 -0.1,27.9 z"
         id="path2429" />
      <path
         style="fill:#762c07"
         d="M 225,95.3 C 214.2,83.9 207.7,84.6 193.2,86 165.8,88.7 162.7,105.1 144.8,109.9 126.9,114.7 112.5,102.1 94.4,89.3 76.3,76.5 61.5,75.7 53.9,78.7 46.3,81.7 39.2,94 38,95.9 c -1.2,2 1.3,10.6 -1.3,15.9 -2.7,5.3 -6.1,16.7 -9.3,20.6 -3.2,3.9 -4,13.9 3.3,18.6 7.3,4.7 11.3,0.8 15.3,-5.3 4,-6.1 9.5,-13.6 13.9,-14.6 4.4,-1 8,-4 8,-4 l 8,22.5 c 0,0 -4.6,7 -1.3,26.5 3.3,19.6 11.8,38.3 12.6,45.1 0.8,6.8 5.1,30.7 5.3,40.5 0.2,9.8 0.7,11.3 -3.3,14.6 -4,3.3 -8.5,8.8 -2,11.9 6.5,3.1 14.9,0.7 17.2,-2.7 2.3,-3.3 1.7,-18.7 0.7,-26.5 -1,-7.8 -4,-20.4 -3.3,-26.5 0.7,-6.1 2,-28.5 2,-28.5 l 8.6,3.3 c 0,0 2.2,21.9 4,33.8 1.8,11.9 5,23.9 3.3,34.5 -1.7,10.6 -9,21.1 -6.6,24.5 2.4,3.4 14.6,2.8 16.6,0 2,-2.8 0.5,-14.6 0,-23.9 -0.5,-9.3 2.7,-50.1 4,-59.7 1.3,-9.6 4,-18.6 4,-18.6 0,0 15.9,-4.6 25.9,-9.3 9.9,-4.6 19.2,-12.6 19.2,-12.6 l 14.6,-13.9 c 0,0 16.9,18.6 19.2,26.5 2.3,8 -3.5,30.7 -6.6,37.8 -3.2,7.1 -3.3,13.3 -2.7,15.9 0.7,2.7 0.5,8.1 -1.3,11.3 -1.8,3.2 -2,7.8 4.6,9.9 6.6,2.2 11.3,-2.3 12.6,-6.6 1.3,-4.3 -1.8,-8.8 -2.7,-11.9 -0.8,-3.2 4,-32.7 7.3,-39.8 3.3,-7.1 4.1,-5.1 3.3,-13.3 -0.8,-8.1 -1.3,-22.9 1.3,-35.8 2.6,-12.9 5.1,-47.7 -7.4,-60.8 z"
         id="path2431" />
      <path
         style="fill:#2d3134"
         d="m 214.4,88 c 0,0 4.1,-9.9 17.9,-9.9 13.8,0 22.5,7.8 32.5,29.2 9.9,21.4 22.5,27.9 22.5,27.9 0,0 -16.9,9.8 -29.8,-6.6 C 244.6,112.2 241.3,90.3 231,88 c -10.3,-2.3 -11.3,4.6 -11.3,4.6 z"
         id="path2433" />
      <path
         style="fill:#2d3134"
         d="m 172.6,247.1 c 4,2.5 13.3,0 15.3,-3.3 1.2,-2.1 1.6,-3.8 1.4,-5.7 -2.3,1.7 -14.7,3.1 -16.8,-1.1 -1.9,4.2 -3.4,8 0.1,10.1 z"
         id="path2435" />
      <path
         style="fill:#762c07"
         d="m 55.2,80 c 0,0 -14.3,-10.4 -15.3,-9.3 -1,1.1 4.5,12.7 7.3,14.6 2.9,1.9 8,-5.3 8,-5.3 z"
         id="path2437" />
      <path
         style="opacity:0.15"
         d="m 55.2,80 c 0,0 -14.3,-10.4 -15.3,-9.3 -1,1.1 4.5,12.7 7.3,14.6 2.9,1.9 8,-5.3 8,-5.3 z"
         id="path2439" />
      <path
         style="fill:#2d3134"
         d="m 53.3,107.2 7.3,-0.7 c 0,0 0.3,2.9 -3.3,3.3 -3.7,0.5 -4,-2.6 -4,-2.6 z"
         id="path2441" />
      <path
         style="fill:#2d3134"
         d="m 32,145 1.3,-6.6 c 0,0 3.2,1 2.7,4 -0.5,2.9 -4,2.6 -4,2.6 z"
         id="path2443" />
      <path
         style="opacity:0.15"
         d="m 36,139.7 c -3.3,-1.4 -6.4,-5 -8.3,-7.7 -0.1,0.1 -0.2,0.3 -0.3,0.4 -3.2,3.8 -4,13.9 3.3,18.6 7.3,4.7 11.3,0.8 15.3,-5.3 0.9,-1.4 1.9,-2.9 3,-4.4 -3.9,0.1 -9.5,-0.1 -13,-1.6 z"
         id="path2445" />
      <path
         style="fill:#2d3134"
         d="m 44.3,85.7 c -1.8,1.5 -3.6,6.8 1.3,8 4.9,1.2 10.1,-5 12.6,-6.6 2.5,-1.6 10.3,-5.5 19.2,-2 9,3.5 20.5,7.2 30.5,16.6 10.4,9.8 17.6,10.1 19.9,8.6 2.3,-1.5 -7.5,-2.2 -15.9,-10.6 C 105.8,93.6 93.8,84.8 78.7,79.8 63.8,74.8 56.6,75.3 44.3,85.7 Z"
         id="path2447" />
      <path
         style="opacity:0.15"
         d="m 116.3,142.4 -17.9,9.3 -19.9,-42.4 c 0,0 -1.1,4.6 -3.3,8.6 -2.2,4 -7.3,9.3 -7.3,9.3 l 8,22.5 c 0,0 -4.6,7 -1.3,26.5 3.3,19.6 11.8,38.3 12.6,45.1 0.8,6.8 5.1,30.7 5.3,40.5 0.2,9.8 0.7,11.3 -3.3,14.6 -4,3.3 -8.5,8.8 -2,11.9 6.5,3.1 14.9,0.7 17.2,-2.7 2.3,-3.3 1.7,-18.7 0.7,-26.5 -1,-7.8 -4,-20.4 -3.3,-26.5 0.7,-6.1 2,-28.5 2,-28.5 l 8.6,3.3 c 0,0 2.2,21.9 4,33.8 1.8,11.9 5,23.9 3.3,34.5 -1.7,10.6 -9,21.1 -6.6,24.5 0.9,1.4 3.5,2.2 6.4,2.3 l 4.8,-14.9 v -84.9 c 0,0 -7.1,-15.9 -10.6,-30.5 -3.5,-14.6 2.6,-29.8 2.6,-29.8 z"
         id="path2449" />
      <path
         style="opacity:0.15"
         d="m 197.2,162.3 c 0,0 16.9,18.6 19.2,26.5 2.3,8 -3.5,30.7 -6.6,37.8 -3.2,7.1 -3.3,13.3 -2.7,15.9 0.7,2.7 0.5,8.1 -1.3,11.3 -1.8,3.2 -2,7.8 4.6,9.9 0.2,0.1 0.4,0.1 0.6,0.2 1.3,-3.1 2.5,-6.1 2.7,-7.5 0.7,-3.5 1.3,-16.6 1.3,-19.9 0,-3.3 10.6,-41.1 10.6,-41.1 l -19.9,-39.1 z"
         id="path2451" />
      <g
         id="g2459">
        <path
           style="fill:#2d3134"
           d="m 87.1,288.3 c 6.5,3.2 14.9,0.7 17.2,-2.7 0.7,-1 1.1,-3.2 1.4,-5.9 -1.9,1 -5.9,2.5 -10.7,1.2 -3.8,-1 -5,-3.3 -5.3,-5.2 -0.2,0.2 -0.4,0.4 -0.6,0.6 -4,3.3 -8.5,8.8 -2,12 z"
           id="path2453" />
        <path
           style="fill:#2d3134"
           d="m 206.3,252.7 c -0.2,0.4 -0.3,0.7 -0.5,1.1 -1.8,3.2 -2,7.8 4.6,9.9 6.6,2.2 11.3,-2.3 12.6,-6.6 0.6,-2 0.3,-4 -0.4,-5.9 -1.9,1.8 -5,3.8 -8.9,3.9 -3.6,0.1 -6,-1.2 -7.4,-2.4 z"
           id="path2455" />
        <path
           style="fill:#2d3134"
           d="m 129.5,300.2 c 0.8,-1.1 1,-3.7 1,-7 -2.2,0.3 -5,0.6 -8.3,0.4 -3.4,-0.2 -6,-1.3 -7.7,-2.3 -1.6,4.1 -2.7,7.3 -1.6,8.9 2.4,3.5 14.6,2.8 16.6,0 z"
           id="path2457" />
      </g>
      <path
         style="fill:#762c07"
         d="m 59.2,87.3 c -1,-1 -0.9,-7.6 1.3,-8 2.2,-0.4 9.3,7.3 9.3,7.3 l -3.3,6 z"
         id="path2461" />
      <path
         style="opacity:0.1"
         d="m 59.2,87.3 c -1,-1 -0.9,-7.6 1.3,-8 2.2,-0.4 6,13.3 6,13.3 z"
         id="path2463" />
    </g>
    <g
       transform="matrix(-0.26458333,0,0,0.26458333,136.26214,88.688698)"
       id="g2537">
      <path
         style="opacity:0.2"
         d="m 202,201.7 c 22.3,-12.1 93.7,-42.5 60.6,-62.8 -31,-18.9 -97,16.9 -118.8,28.6 -32.2,17.1 -64.6,40.4 -44.9,52.7 20,12.6 61.1,4.2 103.1,-18.5 z"
         id="path2495" />
      <path
         style="fill:#825012"
         d="m 234.5,22.4 c 2.4,-1.7 7.1,-4.7 14.5,0 7.4,4.7 7.5,18.3 11,26.9 5.5,13.6 14.6,19.6 13.8,23.4 C 272.9,76.5 264.2,71 259.3,61 254.5,51 246.9,27.9 246.9,27.9 Z"
         id="path2497" />
      <path
         style="fill:#2d3134"
         d="m 207,144.3 c 0,0 -0.9,3.3 -0.7,4.1 0.2,0.9 3.4,1.9 6.9,2.1 3.4,0.2 7.4,-2.4 7.6,-3.4 0.2,-1 -1.4,-10.3 -1.4,-10.3 z"
         id="path2499" />
      <path
         style="fill:#fbd7c7"
         d="m 233.2,116.7 c 0.9,2.4 2.3,9.2 -1.4,13.8 -1.9,2.4 -3.4,2.8 -3.4,2.8 0,0 0.3,6 -1.4,6.9 -1.7,0.9 -4.1,-5.5 -4.1,-5.5 z"
         id="path2501" />
      <path
         style="fill:#f8ebcb"
         d="m 52,121.6 c 0,0 -1.4,5.9 -4.8,9.6 -3.4,3.8 -2.8,11 0,14.5 2.8,3.4 6,10 3.4,17.9 -2.6,7.9 -6.4,10.3 -3.4,15.2 2.9,4.8 11.2,8.6 16.5,3.4 5.3,-5.2 17.9,-17.9 21.4,-20.7 3.4,-2.8 7.8,-12.1 11.7,-13.8 4.4,-1.9 7.8,-2.1 9.6,2.8 1.9,4.8 2,5.6 3.4,9 1.3,2.9 6.2,5.3 5.5,13.8 -0.7,8.4 -5.5,20.3 -4.8,22 0.7,1.7 4.8,4 9,4.1 4.1,0.2 7.4,-2.8 7.6,-4.1 0.2,-1.4 -2.2,-4.7 -2.8,-9.6 -0.5,-5 0.7,-15.8 0.7,-15.8 0,0 4.3,-0.2 9,-1.4 4.7,-1.2 9.8,-4.8 11.7,1.4 1.9,6.2 4,22 2.8,28.2 -1.2,6.2 -4.5,13.4 -3.4,15.2 1,1.7 4.7,2.8 7.6,2.8 2.9,0 6.7,-2.2 7.6,-3.4 0.9,-1.2 -2.8,-11.5 -2.8,-17.9 0,-6.4 5.5,-25.5 6.9,-30.3 1.4,-4.8 3.4,-12.4 3.4,-12.4 0,0 38.9,-1.2 51.7,-13.1 12.7,-11.9 17.2,-24.8 17.2,-24.8 0,0 3.3,6.2 4.1,10.3 0.9,4.1 7.1,5.3 8.3,14.5 1.2,9.2 -4,23.9 -4.1,25.5 -0.2,1.6 1.9,4.1 7.6,4.1 5.7,0 7.6,-2.6 7.6,-4.1 0,-1.5 -2.4,-19.6 -2.8,-24.8 -0.4,-5.2 2.6,-14 0.7,-18.6 -1.9,-4.7 -2.6,-8.3 -2.1,-17.2 0.5,-8.9 5.9,-46.7 1.4,-60.6 -4.5,-14 -7.8,-18.9 -22.7,-20.7 -14.9,-1.8 -21.4,3.6 -33.8,9 -12.4,5.3 -25.7,23.3 -42,29.6 -16.3,6.3 -26.7,7.8 -40,15.2 -13.3,7.4 -41,33.6 -53,34.4 -12.1,0.9 -22.7,-6.2 -22.7,-6.2 0,0 -0.4,15.6 8.8,17 z"
         id="path2503" />
      <path
         style="fill:#825012"
         d="m 73.3,170.1 c -2.3,1.6 -14.1,-5.2 -13.1,-14.5 1,-9.3 8.6,-16.5 15.2,-15.2 6.5,1.4 15.2,-2.4 14.1,5.2 -1,7.7 -4.5,16.6 -16.2,24.5 z"
         id="path2505" />
      <g
         id="g2513">
        <path
           style="fill:#2d3134"
           d="m 244.9,164.3 c -0.2,1.6 1.9,4.1 7.6,4.1 5.7,0 7.6,-2.6 7.6,-4.1 0,-0.6 -0.4,-3.8 -0.9,-7.8 -4.2,2.2 -8.3,2.5 -12,-0.9 -1.1,4.4 -2.3,8 -2.3,8.7 z"
           id="path2507" />
        <path
           style="fill:#2d3134"
           d="m 110.5,195.3 c 0.7,1.7 4.8,4 9,4.1 4.1,0.2 7.4,-2.8 7.6,-4.1 0.1,-1.1 -1.3,-3.3 -2.2,-6.5 -3.4,1.4 -8,1.1 -12.7,-0.1 -1.1,3.3 -2,5.8 -1.7,6.6 z"
           id="path2509" />
        <path
           style="fill:#2d3134"
           d="m 152.6,215.9 c 2.9,0 6.7,-2.2 7.6,-3.4 0.4,-0.6 -0.3,-3.7 -1.1,-7.4 -5.6,2 -9.7,1.5 -12.3,-0.5 -1.2,4 -2.4,7.4 -1.7,8.6 0.9,1.7 4.5,2.7 7.5,2.7 z"
           id="path2511" />
      </g>
      <path
         style="fill:#2d3134"
         d="m 67.1,152.6 c -0.4,-0.3 4.1,-4.1 5.5,-2.8 1.4,1.4 -1.2,6 -5.5,2.8 z"
         id="path2515" />
      <path
         style="opacity:0.15"
         d="m 76.8,131.2 c 0,0 6.5,1 12.4,1.4 5.9,0.3 9,0.7 9,0.7 0,0 -1.4,5 -4.8,6.2 -3.5,1.2 -11.8,-0.3 -16.6,-8.3 z"
         id="path2517" />
      <path
         style="opacity:0.15"
         d="m 60.9,178.7 c -0.5,-2.1 -1.7,-2.8 -3.4,-0.7 -1.4,1.7 -5.8,3.1 -9.4,1.9 3.1,3.8 9.4,6.4 14.2,3.3 -0.5,-1.4 -1.1,-3.3 -1.4,-4.5 z"
         id="path2519" />
      <path
         style="fill:#2d3134"
         d="m 270.1,65.6 -5.2,3.6 c 0,0 0.6,6.2 5.6,10.5 4.3,3.8 12.6,6 19.2,4.3 -5.3,-3.2 -6.9,-8.7 -9.9,-11.8 -4.6,-4.7 -9.7,-6.6 -9.7,-6.6 z"
         id="path2521" />
      <path
         style="fill:#825012"
         d="m 210.1,123.6 c -0.7,-11.4 -2.8,-13.1 -7.6,-8.6 -4.8,4.5 -20.3,16.5 -27.9,21.4 -5.4,3.5 -6.6,11.3 -6.8,15.5 0.8,0 14.6,-0.5 28.2,-3.4 1.8,-0.4 14.8,-13.5 14.1,-24.9 z"
         id="path2523" />
      <path
         style="fill:#825012"
         d="m 118.8,76.1 c -3.8,2.1 -8.7,5.8 -14.2,9.9 11.9,-0.9 27.6,-1.8 32.4,4.2 9.3,11.7 34.4,11 38.6,-2.4 4.1,-13.4 11.4,-10 14.8,-1.4 4.1,10.3 24.7,-17.3 10.7,-25.1 -9.3,-5.2 9,-13.3 1,-13 -2.3,0.1 4.9,-12.9 8.5,-21.6 -3,1.4 -6.2,3 -9.9,4.6 -12.4,5.3 -25.7,23.3 -42,29.6 -6.3,2.4 -21.5,7.9 -36.1,13.2 -1.2,0.6 -2.5,1.3 -3.8,2 z"
         id="path2525" />
      <path
         style="fill:#825012"
         d="m 132.2,129.5 c -12.1,-11.4 -5.2,-18.3 -12.1,-13.8 -6.9,4.5 -9,16.9 -16.9,25.8 0,0 0.3,2.3 0.7,5.7 0.9,0.6 1.8,1.7 2.4,3.3 1.9,4.8 2,5.6 3.4,9 1.2,2.7 15.2,10.3 15.2,10.3 0,0 4.3,-0.2 9,-1.4 3.5,-0.9 7.2,-3.1 9.7,-1.6 7.3,-3 7.8,-7.5 9.6,-18 2.1,-12.1 -8.9,-7.9 -21,-19.3 z"
         id="path2527" />
      <path
         style="fill:#825012"
         d="m 231.8,33 c -6.9,3.3 8.3,16.9 0.3,20 -7.9,3.1 -18.9,0 -14.8,7.6 4.1,7.6 1.7,21.4 5.5,26.2 3.8,4.8 9,16.9 11.7,5.2 2.7,-11.7 4.8,-20 12.7,-21.7 7.9,-1.7 8.6,-7.6 7.6,-16.2 -1,-8.7 -14.4,-25.2 -23,-21.1 z"
         id="path2529" />
      <path
         style="fill:#825012"
         d="m 76.8,131.2 21.4,2.1 c 0,0 -6.2,-7.1 -11.3,-7.3 -5.1,-0.2 -10.1,5.2 -10.1,5.2 z"
         id="path2531" />
      <path
         style="fill:#825012"
         d="m 43,104.3 c 0,0 -0.2,15.8 9,17.2 0,0 13.6,-5 17.1,-2.8 4.3,2.8 11.2,0.5 11.4,-4.3 0.1,-2.7 -1.2,-6.4 -2.4,-9.1 -4.8,2.9 -9,4.9 -12.2,5.1 -12.2,1 -22.9,-6.1 -22.9,-6.1 z"
         id="path2533" />
      <path
         style="opacity:0.15"
         d="m 51.9,121.5 c 0.7,-1 1.6,-3 -0.6,-4.8 -3.1,-2.6 -6.4,-7.6 -8.3,-12.4 0,0 -0.2,15.8 8.9,17.2 z"
         id="path2535" />
    </g>
    <g
       transform="matrix(0.26458333,0,0,0.26458333,40.033183,104.37849)"
       id="g2600">
      <path
         style="opacity:0.2"
         d="M 77.8,116.2 C 67,122 32.4,136.7 48.4,146.6 c 15,9.2 47,-8.2 57.5,-13.8 15.6,-8.3 31.3,-19.6 21.8,-25.5 -9.7,-6.2 -29.6,-2.2 -49.9,8.9 z"
         id="path2568" />
      <path
         style="fill:#656565"
         d="m 100.3,83.5 c 2.1,3.6 3.3,7.7 3.5,13.6 0.3,7.2 -2.1,12.3 -2.3,12.6 -0.4,0.9 7.5,0.3 7.9,-0.6 0.1,-0.2 0.2,-3.6 0.2,-4 0,-0.4 -0.6,-1.5 -0.5,-2.1 0.1,-0.7 0.9,-0.8 0.6,-2.4 -0.3,-1.6 -1,-2.3 -0.7,-5.6 0.3,-3.3 1.7,-18.9 1.7,-18.9 z"
         id="path2570" />
      <path
         style="fill:#2d3134"
         d="m 102.7,106.5 c -0.5,1.9 -1.1,3.1 -1.2,3.3 -0.4,0.9 2.5,1.8 3.5,1.7 2.7,-0.3 4,-1.4 4.4,-2.3 0.1,-0.2 0.1,-2 0.2,-3.2 -1,1.1 -5.2,2.5 -6.9,0.5 z"
         id="path2572" />
      <path
         style="fill:#656565"
         d="m 49.5,97.1 c 1.8,4.1 5.2,12.7 5,22.2 -0.2,9.5 -2.2,15.5 -2.2,16 0,0.5 7.1,0.2 7.5,-1.2 0.4,-1.4 -0.4,-3.8 -0.5,-5.1 -0.1,-1.2 1.5,-0.9 1.2,-3.2 -0.3,-2.3 -1.3,-6.2 -1.2,-10.3 0.1,-4.1 1.8,-17.1 1.8,-17.1 z"
         id="path2574" />
      <path
         style="fill:#656565"
         d="m 64.6,100.8 c 0,0 2.6,9.2 3.6,15.8 1,6.6 0.4,15.5 0.1,18.2 -0.3,2.7 -2.1,7.5 -2.3,8.1 -0.2,0.6 8.1,-0.6 8.4,-1.4 0.3,-0.8 -0.4,-4.8 -0.5,-5.6 -0.1,-0.8 1.5,-0.6 1.2,-3.3 -0.3,-2.7 -1.6,-5.4 -1,-9.6 0.6,-4.2 1.7,-12.8 4.6,-19.3 2.9,-6.5 4.7,-13.2 4.7,-13.2 z"
         id="path2576" />
      <path
         style="fill:#656565"
         d="m 105.9,79.9 c 2.7,0.7 10.6,7.9 12.3,13.9 1.7,6 1.6,13.5 1,17.1 -0.6,3.6 -2.4,6.2 -2.4,6.9 0,0.7 8.1,-0.8 8.5,-1.8 0.4,-1 -0.4,-4.6 -0.4,-5.3 0,-0.7 1.2,-0.3 1,-2.5 -0.2,-2.2 -1.7,-11.4 -1.3,-14.4 0.4,-3 0.9,-7 0.4,-8.2 -0.5,-1.2 -2.3,-4.9 -2.4,-7.3 -0.1,-2.4 -0.7,-9.8 -0.7,-11.9 0,-2.1 -16,13.5 -16,13.5 z"
         id="path2578" />
      <path
         style="fill:#2d3134"
         d="m 53.1,132.3 c -0.4,1.8 -0.7,2.8 -0.7,3 0,0.5 1.1,1.1 2.3,1.2 1.2,0.1 4.8,-1.1 5.2,-2.4 0.2,-0.5 0.2,-1.1 0.1,-1.7 -2.6,0.7 -5,0.7 -6.9,-0.1 z"
         id="path2580" />
      <path
         style="fill:#2d3134"
         d="m 69.3,139.9 c -0.7,-0.2 -1.3,-0.6 -1.9,-1 -0.6,2 -1.2,3.8 -1.4,4.1 -0.2,0.6 2.1,1.4 3.3,1.3 3,-0.1 4.8,-1.9 5.1,-2.8 0.1,-0.2 0.1,-0.7 0.1,-1.3 -1.6,0.3 -3.4,0.2 -5.2,-0.3 z"
         id="path2582" />
      <path
         style="fill:#2d3134"
         d="m 116.8,117.8 c 0,0.7 2.1,1.2 3.1,1.1 2.9,-0.2 5,-1.9 5.4,-3 0.1,-0.3 0.1,-0.9 0.1,-1.6 -1.6,0.9 -5.7,1 -6.8,-1 -0.8,2.4 -1.8,4 -1.8,4.5 z"
         id="path2584" />
      <path
         style="fill:#f8ebcb"
         d="m 130.5,57.4 c 0,-2 -1.2,-3.6 -3,-4.3 0.3,-0.6 0.5,-1.3 0.5,-2 0,-1.6 -0.8,-3.1 -2.1,-3.9 0.1,-0.4 0.2,-0.9 0.2,-1.4 0,-2.2 -1.6,-4.1 -3.7,-4.5 0.1,-0.4 0.1,-0.7 0.1,-1.1 0,-2.5 -2.1,-4.6 -4.6,-4.6 -0.4,0 -0.7,0 -1,0.1 -0.7,-1.7 -2.3,-3 -4.3,-3 -0.6,0 -1.2,0.1 -1.7,0.3 -0.7,-1.6 -2.3,-2.8 -4.2,-2.8 -1.6,0 -3.1,0.9 -3.9,2.2 -0.7,-0.5 -1.6,-0.7 -2.5,-0.7 -2,0 -3.6,1.2 -4.3,2.9 -0.6,-0.3 -1.3,-0.5 -2.1,-0.5 -2.3,0 -4.2,1.7 -4.5,3.8 -0.8,-0.7 -1.9,-1.2 -3,-1.2 -2,0 -3.8,1.3 -4.4,3.2 -0.8,-0.9 -2.1,-1.5 -3.4,-1.5 -2.2,0 -4,1.5 -4.5,3.5 -0.7,-0.4 -1.5,-0.6 -2.3,-0.6 -2.4,0 -4.3,1.8 -4.6,4.1 -0.7,-0.5 -1.6,-0.8 -2.6,-0.8 -1.8,0 -3.3,1 -4.1,2.5 -0.8,-0.5 -1.7,-0.9 -2.7,-0.9 -0.4,0 -0.8,0.1 -1.1,0.1 -0.8,-1.2 -2.2,-2 -3.8,-2 -0.8,0 -1.6,0.2 -2.3,0.6 -0.8,-1.1 -2.2,-1.8 -3.7,-1.8 -2.5,0 -4.6,2.1 -4.6,4.6 0,0.3 0,0.6 0.1,0.9 -1.4,0.8 -2.3,2.3 -2.3,4 0,1.5 0.7,2.9 1.9,3.7 l -0.4,1.2 c -0.4,-0.1 -0.9,-0.2 -1.3,-0.2 -2.5,0 -4.6,2.1 -4.6,4.6 0,0.9 0.2,1.7 0.7,2.4 -1.9,0.6 -3.3,2.3 -3.3,4.4 0,1.6 0.8,3.1 2.1,3.9 -0.9,0.8 -1.4,2 -1.4,3.3 0,1.9 1.2,3.6 2.9,4.3 -0.6,0.8 -0.9,1.7 -0.9,2.8 0,1.7 1,3.3 2.4,4 -0.2,0.5 -0.2,1 -0.2,1.5 0,1.6 0.8,3.1 2.1,3.9 -0.1,0.4 -0.2,0.8 -0.2,1.2 0,2.5 2.1,4.6 4.6,4.6 0.1,0 0.2,0 0.4,0 0,0.2 0,0.4 0,0.6 0,2.5 2.1,4.6 4.6,4.6 1.3,0 2.5,-0.5 3.3,-1.4 0.8,1.4 2.3,2.4 4.1,2.4 1.7,0 3.1,-0.9 3.9,-2.2 0.7,0.6 1.6,1 2.5,1.1 0.6,1.9 2.3,3.3 4.4,3.3 0.8,0 1.5,-0.2 2.1,-0.5 0.8,0.7 1.9,1.1 3,1.1 2,0 3.7,-1.2 4.3,-3 0.3,0.1 0.7,0.1 1,0.1 2.3,0 4.2,-1.6 4.5,-3.8 2.5,-0.1 4.5,-2.1 4.5,-4.6 0,-0.6 -0.1,-1.1 -0.3,-1.6 1.5,-0.7 2.5,-2.2 2.5,-4 0.5,0.2 1.1,0.3 1.8,0.3 1.8,0 3.3,-1 4.1,-2.5 0.5,0.1 0.9,0.2 1.4,0.2 2.5,0 4.6,-2.1 4.6,-4.6 0,-0.1 0,-0.2 0,-0.3 0.6,0.3 1.3,0.4 2,0.4 0.8,0 1.6,-0.2 2.3,-0.6 0.8,1.5 2.3,2.5 4.1,2.5 1.4,0 2.7,-0.7 3.6,-1.7 0.8,0.8 2,1.3 3.2,1.3 2.4,0 4.4,-1.8 4.6,-4.2 2.4,-0.1 4.4,-2.1 4.4,-4.6 0,-0.4 -0.1,-0.8 -0.2,-1.2 2,-0.5 3.5,-2.3 3.5,-4.5 0,-1 -0.4,-2 -0.9,-2.8 1.4,-0.8 2.3,-2.3 2.3,-4 0,-1.3 -0.5,-2.4 -1.3,-3.3 1,-0.5 1.7,-1.8 1.7,-3.3 z"
         id="path2586" />
      <path
         style="fill:#656565"
         d="m 21.6,48 c -1.4,2.6 -10,19 -7.5,23.1 2.8,4.6 7.7,5 13.2,0.2 2.1,-1.8 3.9,-2.6 5.3,-2.7 0.2,0 0.3,0 0.5,-0.1 3.7,-0.7 6.7,-3.3 8.1,-6.8 L 45.8,49.6 34.6,41 c 0,0 -6.4,1.4 -10.6,-1 -4.2,-2.4 -13,0 -13,0 0,0 1.7,4.2 4.9,5.9 3.1,1.7 5.7,2.1 5.7,2.1 z"
         id="path2588" />
      <path
         style="fill:#2d3134"
         d="m 30.3,58.4 c 0,0 0.3,-2.7 2.4,-3.4 2.2,-0.7 2.6,0.2 2.6,0.2 0,0 0,2.2 -1.6,3 -1.5,0.7 -3.4,0.2 -3.4,0.2 z"
         id="path2590" />
      <path
         style="fill:#2d3134"
         d="m 17,69.6 c 1.4,0 3.2,-0.9 3.4,-1 0.2,-0.1 0.2,-0.3 0.1,-0.4 -0.1,-0.2 -0.3,-0.2 -0.4,-0.1 -0.7,0.4 -2.9,1.2 -3.8,0.8 -1.1,-0.5 -0.9,-1.6 -0.9,-1.7 0,-0.2 -0.1,-0.3 -0.2,-0.4 -0.2,0 -0.3,0.1 -0.4,0.2 -0.1,0.6 0,1.8 1.2,2.3 0,0 0,0 0.1,0 -0.4,2.2 0.6,4 1.2,4.8 0.3,0.1 0.6,0.3 0.9,0.3 0,-0.1 0,-0.2 -0.1,-0.2 0,0 -1.9,-2.1 -1.5,-4.7 0.2,0.1 0.3,0.1 0.4,0.1 z"
         id="path2592" />
      <path
         style="fill:#656565"
         d="m 40.1,52.6 c 8,-4 13.4,8.5 13.4,8.5 0,0 -5.4,3.7 -9.9,0.7 -4.5,-3 -5.5,-8.2 -3.5,-9.2 z"
         id="path2594" />
      <path
         style="fill:#f8ebcb"
         d="m 47.5,44.2 c 0,-2.5 -2.1,-4.6 -4.6,-4.6 -0.9,0 -1.7,0.2 -2.4,0.7 -0.7,-1.6 -2.3,-2.7 -4.2,-2.7 -1.2,0 -2.3,0.5 -3.2,1.3 -0.8,-0.7 -1.9,-1.2 -3.1,-1.2 -2.5,0 -4.6,2.1 -4.6,4.6 -1.2,0.8 -2,2.2 -2,3.8 0,2.5 1.9,4.5 4.4,4.6 0.8,1.2 2.2,2.1 3.8,2.1 1.4,0 2.6,-0.6 3.5,-1.6 0.8,1 2.1,1.6 3.5,1.6 0.8,0 1.5,-0.2 2.1,-0.5 0.6,0.5 1.4,0.9 2.3,0.9 1.9,0 3.5,-1.5 3.5,-3.5 0,-0.7 -0.2,-1.4 -0.6,-1.9 1,-0.9 1.6,-2.2 1.6,-3.6 z"
         id="path2596" />
      <path
         style="opacity:0.15"
         d="m 125.3,76.8 c 0,-0.4 -0.1,-0.8 -0.2,-1.2 2,-0.5 3.5,-2.3 3.5,-4.5 0,-1 -0.4,-2 -0.9,-2.8 -1.2,0 -4,-0.1 -4.3,2.1 -0.2,1 0.3,2 0.7,2.8 -0.8,0.3 -1.4,0.8 -1.8,1.5 -0.4,-0.2 -0.8,-0.2 -1.3,-0.2 -1.6,0 -2.9,1 -3.4,2.3 -0.7,-0.8 -1.7,-1.4 -2.9,-1.4 -0.6,0 -1.2,0.2 -1.7,0.4 -0.6,-1.3 -1.9,-2.1 -3.3,-2.1 -0.9,0 -1.6,0.3 -2.3,0.8 -0.6,-1.2 -1.8,-2 -3.3,-2 -1.3,0 -2.5,0.7 -3.1,1.7 -0.6,-0.4 -1.3,-0.7 -2.1,-0.7 -1.2,0 -2.3,0.6 -3,1.5 -0.4,-0.2 -0.9,-0.3 -1.3,-0.3 -2,0 -3.6,1.6 -3.7,3.5 -0.3,-0.1 -0.7,-0.2 -1.1,-0.2 -1.7,0 -3.1,1.2 -3.6,2.7 -0.3,-0.1 -0.6,-0.1 -0.9,-0.1 -2,0 -3.7,1.7 -3.7,3.7 0,0.4 0.1,0.7 0.2,1.1 0,0 0,0 0,0 -2,0 -3.7,1.7 -3.7,3.7 0,0.8 0.3,1.6 0.8,2.2 -1.7,0.4 -2.9,1.8 -2.9,3.6 0,0.6 0.1,1.1 0.3,1.6 -1.1,0.6 -1.9,1.8 -1.9,3.2 0,0.3 -1.8,-0.4 -3,-0.4 -1.2,0 -2.5,0.7 -3.4,1.4 0.1,-0.3 0.1,-0.5 0.1,-0.8 0,-2 -1.7,-3.7 -3.7,-3.7 -0.2,0 -0.3,0 -0.5,0 -0.2,-1.6 -1.4,-2.9 -2.9,-3.2 0.3,-0.5 0.5,-1.1 0.5,-1.8 0,-2 -1.7,-3.7 -3.7,-3.7 -0.2,0 -0.4,0 -0.6,0.1 0.1,-0.3 0.1,-0.6 0.1,-1 0,-2 -1.7,-3.7 -3.7,-3.7 -2,0 -3.7,1.7 -3.7,3.7 0,0.6 0.1,1.1 0.3,1.6 -0.9,0.5 -1.6,1.4 -1.8,2.4 0,0 0,0 0,0 -3,-0.8 -7,4 -3.9,7.5 0.1,0.1 0.2,0 0.4,0 0,0.2 0,0.4 0,0.6 0,2.5 2.1,4.6 4.6,4.6 1.3,0 2.5,-0.5 3.3,-1.4 0.8,1.4 2.3,2.4 4.1,2.4 1.7,0 3.1,-0.9 3.9,-2.2 0.7,0.6 1.6,1 2.5,1.1 0.6,1.9 2.3,3.3 4.4,3.3 0.8,0 1.5,-0.2 2.1,-0.5 0.8,0.7 1.9,1.1 3,1.1 2,0 3.7,-1.2 4.3,-3 0.3,0.1 0.7,0.1 1,0.1 2.3,0 4.2,-1.6 4.5,-3.8 2.5,-0.1 4.5,-2.1 4.5,-4.6 0,-0.6 -0.1,-1.1 -0.3,-1.6 1.5,-0.7 2.5,-2.2 2.5,-4 0.5,0.2 1.1,0.3 1.8,0.3 1.8,0 3.3,-1 4.1,-2.5 0.5,0.1 0.9,0.2 1.4,0.2 2.5,0 4.6,-2.1 4.6,-4.6 0,-0.1 0,-0.2 0,-0.3 0.6,0.3 1.3,0.4 2,0.4 0.8,0 1.6,-0.2 2.3,-0.6 0.8,1.5 2.3,2.5 4.1,2.5 1.4,0 2.7,-0.7 3.6,-1.7 0.8,0.8 2,1.3 3.2,1.3 2.4,0 4.4,-1.8 4.6,-4.2 2.3,0.2 4.3,-1.8 4.3,-4.2 z"
         id="path2598" />
    </g>
    <g
       transform="matrix(-0.26458333,0,0,0.26458333,103.42735,111.33703)"
       id="g2650">
      <path
         style="fill:#fbd7c7"
         d="m 111.7,81.3 c -1.3,7 0.1,10.3 -0.5,11.5 -0.6,1.2 -1.6,0.6 -1.6,0.6 0,0 -2.5,5.9 -4.3,5.9 -1.8,0 -1.8,-3.6 -1.8,-3.6 0,0 -1.2,3.2 -3.4,2.8 -1.9,-0.4 -0.5,-2.5 1.6,-7.7 2.2,-5.6 2.8,-11.5 2.8,-11.5 0,0 8.4,-5 7.2,2 z"
         id="path2626" />
      <path
         style="opacity:0.2"
         d="m 104.2,132.9 c 16.5,-8.9 57.4,-26.6 32.9,-41.6 -22.9,-14 -60.9,6.8 -77.1,15.4 -23.8,12.7 -47.8,29.9 -33.2,39 14.9,9.3 46.4,4 77.4,-12.8 z"
         id="path2628" />
      <path
         style="opacity:0.15"
         d="m 111.7,81.3 c -1.3,7 0.1,10.3 -0.5,11.5 -0.6,1.2 -1.6,0.6 -1.6,0.6 0,0 -2.5,5.9 -4.3,5.9 -1.8,0 -1.8,-3.6 -1.8,-3.6 0,0 -1.2,3.2 -3.4,2.8 -1.9,-0.4 -0.5,-2.5 1.6,-7.7 2.2,-5.6 2.8,-11.5 2.8,-11.5 0,0 8.4,-5 7.2,2 z"
         id="path2630" />
      <path
         style="fill:#2d3134"
         d="m 109.2,94.2 c -1.5,-0.1 -4.7,-0.5 -7.9,-2.2 -1.8,4.4 -2.9,6.2 -1.1,6.6 2.1,0.4 3.4,-2.8 3.4,-2.8 0,0 0,3.6 1.8,3.6 1.3,-0.1 3.1,-3.6 3.8,-5.2 z"
         id="path2632" />
      <g
         id="g2640">
        <path
           style="fill:#fbd7c7"
           d="m 146.8,52.3 c 2.3,-12.6 -1.6,-25.4 -12.9,-33.7 0.9,-3.7 1.4,-8.6 -1.4,-9.6 -3,-1.1 -5.6,1.1 -5.6,1.1 0,0 2.9,-0.8 3.2,1.9 0.2,1.6 -0.5,2.8 -1.1,3.5 -1.7,-0.9 -3.4,-1.7 -5.3,-2.4 -22.4,-8.5 -48.3,12.8 -63.3,21.3 -15,8.5 -25.2,16.4 -28.9,20.4 -2.8,3 -4.7,6.2 -5.9,9.4 -1.1,-0.1 -9.3,-0.6 -11.1,2.1 -0.4,0.6 2.1,9.5 2.1,9.5 0,0 -3.1,7 -2.3,13.6 0.8,6.6 -3.5,17.8 -4.7,19 -1.2,1.2 -2.6,2.5 -2.7,3.9 -0.2,3 4.1,7.8 8.3,8.3 3.6,0.5 14,-4.6 20.5,-7.5 -0.9,4.6 -1.9,7.9 -3.6,12.6 -1.5,3.9 -3.3,6.4 -3.7,8.5 -0.4,2.1 4.5,-0.6 4.5,-0.6 0,0 -0.5,2.7 1.4,3.4 1.9,0.7 4.6,-5.6 4.6,-5.6 0,0 0.4,1.1 1.3,0.8 0.9,-0.3 1.3,-4.1 1.6,-6.4 0.7,-4.6 3.9,-11.5 6.2,-15.9 1.9,0.8 3.7,1.2 5.3,1.2 4.4,0 11,-0.7 14.8,1.9 0.1,0 0.1,0.1 0.2,0.1 1.2,2.9 2.2,5.8 2.5,8 1.7,13.1 -2.4,18.9 -1.6,21.5 0.8,2.6 4.2,-2.1 4.2,-2.1 0,0 -0.3,2.7 1.4,3.2 1.7,0.5 5,-7.4 5,-7.4 0,0 1.6,1.8 2.1,0.6 0.5,-1.2 -0.3,-8.5 0.5,-13 0.7,-4 5.1,-15.6 6.4,-22.7 1.9,-1.8 3.8,-3.3 5.9,-4.2 9.1,-3.9 24.3,-10.6 35.8,-19.6 0.7,0.9 1.3,1.9 1.6,3.1 3.5,14.8 0.3,23.9 1,26.3 0.8,3 3.4,-1.2 3.4,-1.2 0,0 -0.4,2.5 1.7,2.8 2.1,0.3 3.5,-5.9 3.8,-6.6 0.3,-0.7 1.1,1.8 1.8,1 0.6,-0.8 -0.6,-6.1 -1,-8 -0.4,-1.9 -0.6,-19.2 0.5,-22.7 1,-3.4 5.2,-10.9 3.5,-19.8 z"
           id="path2634" />
        <path
           style="fill:#2d3134"
           d="m 33.8,101.9 c 0,0 0.1,-2 2.2,-2.9 2,-0.9 4.5,-0.3 4.5,-0.3 0,0 -0.1,2.5 -2,3.2 -2,0.7 -4.7,0 -4.7,0 z"
           id="path2636" />
        <path
           style="opacity:0.15"
           d="m 42.9,82.3 c 1.6,-3.8 8.6,-3.3 13.1,-2.2 4.5,1.2 7.6,0.3 7.6,0.3 0,0 -1,7.4 -3.9,10.8 -2.9,3.3 -6.6,4.2 -9.3,3.9 C 47.7,94.8 41,86.9 42.9,82.3 Z"
           id="path2638" />
      </g>
      <path
         style="fill:#2d3134"
         d="m 35.8,131.6 c -1.9,-0.7 -3.5,-1.3 -5.1,-2.5 -1.1,2.2 -2,3.8 -2.2,5.2 -0.3,2.1 4.5,-0.6 4.5,-0.6 0,0 -0.5,2.7 1.4,3.4 1.5,0.5 3.4,-3 4.2,-4.7 -0.8,-0.3 -1.8,-0.5 -2.8,-0.8 z"
         id="path2642" />
      <path
         style="fill:#2d3134"
         d="m 141.6,103 c -1.5,-0.1 -4.8,-0.4 -8.2,-2.3 -0.3,3.1 -0.7,5.2 -0.4,6.2 0.8,3 3.4,-1.2 3.4,-1.2 0,0 -0.4,2.5 1.7,2.8 1.7,0.2 2.9,-3.6 3.5,-5.5 z"
         id="path2644" />
      <path
         style="opacity:0.15"
         d="m 14.5,113 c -1.5,-1.7 -4.7,-2.9 -6.8,-2.6 -0.5,0.6 -0.8,1.2 -0.8,1.9 -0.2,3 4.1,7.8 8.3,8.3 0.8,0.1 1.8,0 3,-0.3 -0.1,-2.8 -2.2,-5.6 -3.7,-7.3 z"
         id="path2646" />
      <path
         style="fill:#2d3134"
         d="m 69.2,142.6 c 0.8,2.6 4.2,-2.1 4.2,-2.1 0,0 -0.3,2.7 1.4,3.2 1.3,0.4 3.4,-3.9 4.4,-6.1 -1.1,0 -4.9,-0.2 -8.8,-2.4 -0.7,3.8 -1.6,6 -1.2,7.4 z"
         id="path2648" />
    </g>
    <g
       transform="matrix(0.26458333,0,0,0.26458333,56.569642,106.97141)"
       id="g2690">
      <ellipse
         style="opacity:0.2"
         transform="matrix(0.9564,-0.2919,0.2919,0.9564,-38.1725,17.888)"
         cx="40.900002"
         cy="136.89999"
         rx="26.799999"
         ry="14.6"
         id="ellipse2672" />
      <path
         style="fill:#825012"
         d="m 41.1,114.4 c 0,0 -12.3,0.8 -17.3,2.2 -5,1.4 -3.7,8.6 0.8,11.3 4.5,2.7 7.4,3.8 7.4,3.8 0,0 -7.3,0.1 -9.2,1 -1.9,0.9 -6,2.7 -5.6,5.4 0.4,2.7 3.8,4.1 6.3,3.1 2.4,-1 6.2,-4.2 8.3,-4.7 2.1,-0.5 8.3,0 8.8,-0.5 0.5,-0.5 0.9,-1.3 0.9,-1.3 l 3.5,0.9 12.7,-12.9 z"
         id="path2674" />
      <path
         style="opacity:0.2"
         d="m 41.1,114.4 c 0,0 -12.3,0.8 -17.3,2.2 -5,1.4 -3.7,8.6 0.8,11.3 4.5,2.7 7.4,3.8 7.4,3.8 0,0 -7.3,0.1 -9.2,1 -1.9,0.9 -6,2.7 -5.6,5.4 0.4,2.7 3.8,4.1 6.3,3.1 2.4,-1 6.2,-4.2 8.3,-4.7 2.1,-0.5 8.3,0 8.8,-0.5 0.5,-0.5 0.9,-1.3 0.9,-1.3 l 3.5,0.9 12.7,-12.9 z"
         id="path2676" />
      <path
         style="fill:#825012"
         d="m 63.7,127.2 c -0.2,-2.9 -4.9,-6.2 -10.4,-4.4 -5.5,1.8 -10.4,7.2 -10,10.4 0.4,3.2 4.1,6.8 4.1,6.8 0,0 -4.3,-0.1 -5.9,1.3 -1.7,1.4 -1.4,2.4 -2.7,4.2 -1.3,1.8 -3.1,4.2 -0.3,5.2 2.8,1 5,0.9 6.4,-0.6 1.4,-1.5 1.8,-4.9 1.8,-4.9 0,0 5.1,-1.2 6.4,-1.9 2.6,-1.4 1.4,-4.6 1.4,-4.6 0,0 4.3,-1 6.6,-4.2 2.3,-3.2 2.9,-3.4 2.6,-7.3 z"
         id="path2678" />
      <path
         style="fill:#2d3134"
         d="m 14.5,64.7 c 2.5,-2.4 7.6,-5.6 8.1,-6.7 0.5,-1.2 -0.7,-5.2 0.4,-5.9 1.1,-0.7 3.5,-1.4 3.5,-1.4 0,0 0,-2.1 0.8,-4.8 0.8,-2.7 1,-5.3 1,-5.3 0,0 2.3,2.6 2.8,4.1 0.5,1.5 2.2,3.5 2.2,3.5 0,0 2.3,-0.7 4.5,0.4 1.9,0.9 2.5,1.8 2.5,1.8 L 41.2,46 c 0,0 2.5,2.6 3.1,6.1 0.5,3 0.4,3.8 0.4,3.8 0,0 2.2,4.6 2.4,9.5 0.2,4.9 2.3,9.8 5.6,14.3 3.3,4.5 9,11 10.1,17.3 1.1,6.3 4.2,17.6 3.9,22.7 -0.3,5.4 -0.8,13.8 -5.7,17.2 -3.3,2.3 -6.4,1.8 -6.4,1.8 0,0 -4.9,-4.2 -5,-5.1 -0.1,-0.9 7,-6.8 8.8,-8.3 1.8,-1.4 0.5,-2.6 0.5,-2.6 0,0 -4.3,-1.1 -6.2,-1.5 -4.6,-1.2 -9,-4 -9,-4 0,0 -1.5,5.3 -1.3,8.7 0.3,3.4 0.4,6.9 -1.1,9.1 -1.5,2.2 -3.4,6.4 -3.5,8.7 -0.1,2.3 -0.6,5.3 -2.9,6.4 -2.3,1.2 -6.6,-0.2 -6.6,-1.5 0,-1.3 1.5,-3.2 3,-4.8 1.5,-1.6 5.3,-10.1 5.7,-12.6 0.4,-2.5 0.5,-18.2 0.5,-18.2 l -5.6,-2 c 0,0 0.1,8.7 0.2,11.4 0.1,2.8 -0.2,6.3 -1.5,10.2 -1.3,3.9 -2.6,9.3 -3.1,10.7 -0.5,1.3 -2,3.2 -3.9,3.5 -3.2,0.4 -6.2,-1.5 -5.3,-3.3 0.9,-1.7 3.7,-3.8 5,-6 1.4,-2.4 3.2,-6.2 3.4,-10.3 0.3,-8 -1.9,-19.9 -2.3,-22.1 -0.4,-2.2 -3,-4.7 -2,-11 1,-6.3 5.1,-10.9 5.2,-13.1 0.1,-2.2 1.3,-8.3 -0.4,-9 -1.7,-0.7 -6.3,2 -10.5,-1.3 -4.2,-3.2 -2.2,-6 -2.2,-6 z"
         id="path2680" />
      <path
         style="fill:#825012"
         d="m 39.9,65.8 c -0.4,-1 -7.1,-1 -12.8,-2.1 C 23.6,63 19.3,62.9 16.6,63 c -0.8,0.6 -1.5,1.2 -2.1,1.8 0,0 -2,2.8 2.1,6.1 4.1,3.3 8.8,0.5 10.5,1.3 0.5,0.2 0.8,1 0.9,2 0.6,1.2 1.6,2.5 2.6,2.2 1.8,-0.6 9.7,-9.6 9.3,-10.6 z"
         id="path2682" />
      <path
         d="m 28.5,59.5 c -0.1,-0.7 3.8,-0.7 3.9,-0.1 0.1,0.6 -3.7,1.4 -3.9,0.1 z"
         id="path2684" />
      <path
         style="fill:#825012"
         d="m 39.7,59.9 c -1.4,-0.7 -1.2,-3.9 0,-6.3 1.2,-2.3 2.1,-5.3 2.1,-5.3 0,0 2.4,4.7 2,7.4 -0.4,2.6 -1.8,5.3 -4.1,4.2 z"
         id="path2686" />
      <path
         style="fill:#262626"
         d="m 15.8,66.9 c -0.7,-0.6 -1.9,-2.2 -1.3,-3.7 0.6,-1.4 4,-2.9 5.6,-1.6 1.6,1.3 0.2,4.1 -0.5,4.9 -0.8,0.9 -2.7,1.3 -3.8,0.4 z"
         id="path2688" />
    </g>
    <g
       transform="matrix(0.26458333,0,0,0.26458333,53.474017,117.8987)"
       id="g2800">
      <path
         style="opacity:0.2"
         d="m 103.2,117 c 12.7,8.2 34.5,15.5 14.8,27.5 -18.4,11.2 -39.2,-0.4 -49.5,-10.6 -20.7,-20.6 -56.1,-20.3 -31.1,-23.8 1.9,-0.3 15.8,0 29.6,2 14.3,2 32.4,2.4 36.2,4.9 z"
         id="path2772" />
      <path
         style="fill:#825012"
         d="m 96.1,110.4 c 0,0 2,4.7 1.9,6.2 -0.1,1.5 -0.8,3.5 0.1,4.3 0.9,0.7 7.8,5.2 9.1,7.1 1.3,1.9 2,5.2 6.6,3 4.6,-2.2 3.1,-5.5 0.9,-6.4 -2.1,-0.9 -6.5,-1.7 -8.8,-3.9 -2.3,-2.2 -3.2,-2.9 -1.2,-6.3 2,-3.4 2.9,-6.1 2.9,-6.1 z"
         id="path2774" />
      <path
         style="opacity:0.2"
         d="m 96.1,110.4 c 0,0 2,4.7 1.9,6.2 -0.1,1.5 -0.8,3.5 0.1,4.3 0.9,0.7 7.8,5.2 9.1,7.1 1.3,1.9 2,5.2 6.6,3 4.6,-2.2 3.1,-5.5 0.9,-6.4 -2.1,-0.9 -6.5,-1.7 -8.8,-3.9 -2.3,-2.2 -3.2,-2.9 -1.2,-6.3 2,-3.4 2.9,-6.1 2.9,-6.1 z"
         id="path2776" />
      <path
         style="fill:#825012"
         d="m 86.8,47.8 c 0.8,-1.5 2.6,-3.6 5.5,-5 2.9,-1.4 5,-1.9 5,-1.9 0,0 1.7,-3.1 5.5,-1.8 3.8,1.3 7.5,8.5 8.4,11.6 0.9,3.1 2.2,8.7 1,9.4 -1.2,0.7 -3,-2.1 -3,-2.1 0,0 1,4.5 1.8,7.3 0.7,2.8 -0.1,7.7 0.7,9.3 0.7,1.6 4.2,7.5 3.8,13.7 -0.4,6.2 -2.8,12.2 -2.9,14.8 -0.1,2.6 3.4,16.8 4,17.9 0.6,1.1 0.2,4.4 1.2,6.4 1,2 8.7,3.9 6.2,7.8 -2.4,3.9 -9.3,2 -10.3,-0.2 -1,-2.2 0.1,-4.6 -1.1,-8.8 -1.2,-4.2 -6.7,-15.8 -6.7,-15.8 0,0 -2,0.6 -4.8,0.9 -2.9,0.4 -5.9,3.9 -4.9,9.7 1,5.8 2,8 2.6,9.4 0.6,1.4 0.2,4.6 1.1,6.4 0.9,1.9 7.2,4.2 4.8,7.3 -2.4,3.1 -7.5,3.2 -10.2,0.6 -2.7,-2.6 -0.4,-3.8 -2.2,-10.2 -1.9,-6.4 -4,-13.8 -4,-13.8 l -6.3,1.5 -4.4,9.3 c 0,0 3.8,2.8 5.7,3.9 1.9,1.1 5.7,0.2 7,1.9 1.3,1.7 1.8,5.5 -2.2,7 -4,1.5 -6.3,-3.4 -7.7,-4.5 -1.4,-1 -7,-3.3 -8.5,-5 -1.5,-1.7 -0.2,-5.8 -0.2,-5.8 0,0 -5.9,-0.6 -8.8,-4.4 -2.9,-3.8 -2.5,-4.6 -3.7,-5.5 -1.2,-0.9 -3.1,-1.7 -8.8,-1.1 -5.7,0.6 -12.7,-1.8 -15.7,-5.2 -3.1,-3.4 -3.7,-11.3 -2.9,-12 0.8,-0.7 2.2,4.5 3.8,5.7 1.6,1.2 5.3,4.2 9.7,3.8 4.4,-0.4 12.5,-3.6 12.5,-3.6 0,0 4.6,-12.8 10.8,-19.7 6.2,-7 14.6,-11.7 15.9,-16.8 1.1,-5.1 1,-19.9 2.3,-22.4 z"
         id="path2778" />
      <g
         id="g2782">
        <path
           style="opacity:0.2"
           d="m 84.6,108.1 c 0,0 -1.2,1.6 -4,1.6 -1.5,0 -3.7,-0.2 -5.3,-0.4 0.6,0.1 1.4,0.3 2.2,0.6 2.8,0.9 3.9,2.1 5.1,4.6 1.1,2.5 -0.8,7.7 -0.8,7.7 l 6.3,-1.5 c 0,0 -0.7,-2.1 -1,-3.2 -0.3,-1 -2.6,-6.6 -2.5,-9.4 z"
           id="path2780" />
      </g>
      <path
         style="opacity:0.2"
         d="m 94.9,65.4 c -0.4,-1.5 -1.8,-5.1 -4,-7.5 -1.6,-1.8 -3,-5.8 -3.6,-8.3 l -1.1,0.3 c -0.6,3.7 -0.8,10.7 -1.3,15.8 0.9,0.7 4.2,1.9 5.3,2.5 4.7,2.6 5.5,0.5 4.7,-2.8 z"
         id="path2784" />
      <path
         style="fill:#262626"
         d="m 93.7,52.8 c 0,0 -0.1,-2.2 0.8,-3.1 0.8,-0.9 2.5,-0.6 1.7,1.3 -0.8,2 -2.5,1.8 -2.5,1.8 z"
         id="path2786" />
      <path
         style="fill:#262626"
         d="m 102.9,45.7 c 0,0 -0.2,-1.1 0.7,-1.5 0.9,-0.3 1.8,1.5 1.8,1.5 z"
         id="path2788" />
      <path
         style="fill:#262626"
         d="m 111.1,53.4 c 0,0 -0.3,-0.6 -1,-0.8 -0.6,-0.2 -1.3,-0.1 -2.1,0.2 l -0.9,-1.8 -0.3,0.2 0.9,1.8 c -1.3,0.7 -1.9,1.5 -2.6,2.5 -0.4,0.6 -0.9,1.3 -1.6,1.9 -1.8,1.8 -2.8,2.1 -2.8,2.1 -0.1,0 -0.1,0.1 -0.1,0.2 0,0.1 0.1,0.1 0.2,0.1 0,0 0,0 0.1,0 0,0 1.1,-0.4 3,-2.2 0.7,-0.7 1.2,-1.4 1.6,-2 0.7,-1 1.3,-1.8 2.6,-2.5 0.8,-0.4 1.4,-0.5 1.9,-0.3 0.6,0.2 0.8,0.6 0.8,0.6 0,0.1 0.2,0.1 0.2,0.1 0.1,0.1 0.1,0 0.1,-0.1 z"
         id="path2790" />
      <path
         style="fill:#825012"
         d="m 87.4,47.1 c -0.8,-0.5 -2.7,0.7 -4.1,3.4 -1.4,2.7 -3.4,7.5 -1.8,9.9 1.6,2.4 4.3,4.5 6.7,5.4 2.3,0.9 5,2.6 5.7,2.1 0.7,-0.5 -1.1,-5.7 -3,-8.4 -1.9,-2.7 -4,-5.8 -4,-5.8 0,0 2.5,-5.3 0.5,-6.6 z"
         id="path2792" />
      <path
         style="opacity:0.2"
         d="m 111.1,50.6 c 0.7,1.7 0.5,3.5 -0.1,5.2 -0.6,1.6 -1.7,2.3 -1.7,2.3 v 0.1 c 0.3,0.5 1.8,2.7 2.9,2 1.2,-0.7 -0.1,-6.3 -1,-9.4 -0.9,-3.1 -4.6,-10.2 -8.4,-11.6 -3.5,-1.2 -5.2,1.3 -5.5,1.7 1.6,0 4.4,0.4 5.9,1.9 1.6,1.5 2.6,2.4 3.6,3.8 1,1.4 3.5,2.2 4.3,4 z"
         id="path2794" />
      <path
         style="fill:#262626"
         d="m 102.6,48.5 c -0.7,1.6 1.8,4 4.3,2.9 2.5,-1.2 1.5,-4 0.7,-4.6 -0.8,-0.7 -4.2,-0.2 -5,1.7 z"
         id="path2796" />
      <path
         style="fill:#262626"
         d="M 112.2,69.8 C 108,70.5 102.9,70.9 97.7,70.6 90,70.3 85.7,69 84,68 c -0.1,0.7 -0.2,1.4 -0.4,2 -0.2,0.6 -0.4,1.3 -0.8,1.9 4,2 10.5,2.6 14.7,2.7 1.1,0 2.2,0.1 3.3,0.1 3.7,0 7.7,-0.2 11.5,-0.9 -0.2,-1 -0.1,-2.5 -0.1,-4 z"
         id="path2798" />
    </g>
    <g
       transform="matrix(0.26458333,0,0,0.26458333,52.4686,116.99912)"
       id="g2848">
      <path
         style="opacity:0.2"
         d="m 54.4,127.4 c 9.1,5.9 23.5,12.9 10.6,19.8 C 51.3,154.5 33.1,145.9 26.3,138 17.2,127.5 6.9,124 2.4,122.8 c -3.7,-1 -3.8,-3.1 4.4,-1.8 1.4,0.2 11.6,1.5 21.6,2.9 10.2,1.4 23.2,1.7 26,3.5 z"
         id="path2824" />
      <path
         style="fill:#999999"
         d="m 46.3,127.9 c 0,0 0.8,2.9 2.8,4.1 2,1.2 6.1,3.4 6.5,4.3 0.4,0.9 1.4,3 3.5,2.6 2.1,-0.4 4.8,-2.2 4.1,-3.5 -0.7,-1.3 -1.7,-0.9 -3.8,-1.4 -2.1,-0.5 -5.2,-2.4 -6,-3.7 -0.9,-1.3 -1.7,-4 -1.7,-4 z"
         id="path2826" />
      <path
         style="opacity:0.2"
         d="m 46.3,127.9 c 0,0 0.8,2.9 2.8,4.1 2,1.2 6.1,3.4 6.5,4.3 0.4,0.9 1.4,3 3.5,2.6 2.1,-0.4 4.8,-2.2 4.1,-3.5 -0.7,-1.3 -1.7,-0.9 -3.8,-1.4 -2.1,-0.5 -5.2,-2.4 -6,-3.7 -0.9,-1.3 -1.7,-4 -1.7,-4 z"
         id="path2828" />
      <path
         style="fill:#999999"
         d="m 19.4,120.4 c 0,0 -8.5,-1.5 -12,-8.3 C 4,105.3 5.4,99.8 4.5,98.2 3.6,96.6 1.4,97 0.9,98.8 c -0.5,1.8 -1.2,13.5 4.9,19.8 6.3,6.3 13.8,7.8 13.8,7.8 0,0 1.8,6.3 5.5,8 3.7,1.7 5.1,0.5 5.1,0.5 0,0 -0.9,2 -0.2,3.1 0.7,1 8.4,3.1 9.5,4 1.1,1 2.1,3.8 4.9,2.8 2.8,-1 3.7,-2.1 3,-3.4 -0.7,-1.3 -2.6,-1.8 -4,-1.9 -1.4,-0.1 -6.5,-2.5 -6.5,-2.5 0,0 2.2,-2.1 2.7,-3.7 0.5,-1.6 0.3,-2.7 0.3,-2.7 l 6.9,-2.6 c 0,0 1.2,5.4 1.5,9.2 0.3,3.8 0.5,5.6 0.9,7.4 0.4,1.9 0.2,4.3 3.3,4 3.1,-0.3 4.3,-1.1 3.9,-2.3 -0.4,-1.2 -2.4,-2.4 -2.8,-4.6 -0.4,-2.1 0.1,-12.9 0.4,-14 0.2,-1.1 2.5,-7.1 2.5,-7.1 l 2.5,-0.5 c 0,0 1.1,7.8 1.5,11.3 0.4,3.5 0.7,9.2 0.7,10.4 0,1.2 0.7,2.6 2.2,2.7 1.5,0.2 4.6,-0.8 4.5,-2.1 -0.1,-1.3 -2.3,-3.1 -2.5,-4.6 -0.2,-1.5 -0.5,-14.8 0.9,-19.4 1.4,-4.6 2.4,-7.1 2.4,-7.1 L 60,91.5 c 0,0 -3.5,0.8 -7.9,0.7 -4.5,-0.1 -17.8,-0.1 -25.4,9.5 -7.8,9.7 -7.3,18.7 -7.3,18.7 z"
         id="path2830" />
      <path
         style="fill:#e5e5e5"
         d="m 56.3,120.7 c 0,0 2.5,-2.1 2.7,-4.9 0.2,-2.8 1.8,-5.1 3.2,-6 1.4,-1 6.2,-3.4 6.2,-3.4 0,0 1.3,4.3 -0.5,7.3 -1.8,3 -4.8,5.4 -7.3,6.2 -2.5,0.8 -4.3,0.8 -4.3,0.8 z"
         id="path2832" />
      <path
         style="opacity:0.2"
         d="m 46.8,128 c 0,0 -0.7,-3.1 -1,-5.4 -0.2,-2.4 -0.9,-6 -0.9,-6 0,0 -0.9,2.1 -2.8,3 -1.9,0.9 -3.7,1.3 -5.3,0.6 -1.6,-0.7 -5.4,-2.7 -5.4,-2.7 0,0 5.7,3.8 6.8,6.9 1.2,3.1 1.6,6.3 1.6,6.3 z"
         id="path2834" />
      <path
         style="fill:#999999"
         d="m 58.2,96 c 0,0 -0.5,2.8 0.7,5.7 1.3,2.9 4,5.2 5.4,6.9 1.3,1.6 2.8,3.2 5.8,2.9 3,-0.4 3.2,-1.9 4.1,-3.1 0.9,-1.2 4.1,-5.7 4.6,-8.7 0.5,-3.1 0.1,-5.3 0.1,-5.3 0,0 2.1,-7.3 0.5,-8.2 -1.6,-0.9 -3.2,2.7 -5.1,2.9 -2,0.2 -2.9,-0.3 -5.1,-0.2 -2.2,0.1 -5.7,1 -5.7,1 0,0 -3.3,-3.4 -5.3,-2.7 -2.4,0.9 0,8.8 0,8.8 z"
         id="path2836" />
      <path
         style="fill:#2d3134"
         d="m 69.7,110.5 c -0.6,0 -1.7,-1 -1.6,-1.5 0.1,-0.5 2.9,-0.5 3.1,0.1 0.2,0.5 -0.9,1.4 -1.5,1.4 z"
         id="path2838" />
      <path
         style="fill:#2d3134"
         d="m 72,104.4 c 0,0 0.3,-1.8 1.8,-2.4 1.5,-0.6 2.1,-0.3 2.1,-0.3 0,0 -0.3,1.7 -1.5,2.3 -1.1,0.6 -2.4,0.4 -2.4,0.4 z"
         id="path2840" />
      <path
         style="fill:#2d3134"
         d="m 67.3,104.4 c 0,0 -0.6,-1.8 -2,-2.3 -1.4,-0.5 -2.4,0 -2.4,0 0,0 0.2,1.5 1.4,2 1.2,0.5 3,0.3 3,0.3 z"
         id="path2842" />
      <path
         style="opacity:0.2"
         d="m 72.9,93.3 c 0,0 4.8,-7.5 6.4,-6.9 1.2,0.4 -0.4,8 -0.4,8 0,0 -1.3,-1.2 -3,-1.5 -1.6,-0.3 -3,0.4 -3,0.4 z"
         id="path2844" />
      <path
         style="opacity:0.2"
         d="m 65.2,93.2 c 0,0 -5.3,-6.3 -6.9,-5.8 -2.2,0.7 -0.1,8.6 -0.1,8.6 0,0 1.6,-2.1 2.9,-2.6 1.3,-0.5 4.1,-0.2 4.1,-0.2 z"
         id="path2846" />
    </g>
  </g>
  <path
     style="fill:#000000;fill-opacity:1;fill-rule:nonzero;stroke:none;stroke-width:0.264583"
     id="path1"
     d="m 98.988593,10.088211 c 0.82205,1.453821 1.389367,3.038589 1.880637,4.630019 0.18381,0.594487 1.02454,0.334545 0.84073,-0.259942 v 0 c -0.52016,-1.679829 -1.11898,-3.35626 -2.00528,-4.8815661 -0.361678,-0.506349 -1.077764,0.00514 -0.716087,0.5114891 z" />
  <path
     style="fill:#000000;fill-opacity:1;fill-rule:nonzero;stroke:none;stroke-width:0.264583"
     id="path2"
     d="m 101.62336,18.771609 c 0.027,0.742481 0.18915,1.469285 0.281,2.205099 0.0471,0.42143 0.0715,0.844779 0.0959,1.267952 0.0359,0.621217 0.91445,0.570423 0.87854,-0.05079 v 0 c -0.0257,-0.442721 -0.0514,-0.885622 -0.10124,-1.32647 -0.0878,-0.699721 -0.23876,-1.390781 -0.27417,-2.095787 0,-0.622254 -0.88001,-0.622254 -0.88001,0 z" />
  <path
     style="fill:#000000;fill-opacity:1;fill-rule:nonzero;stroke:none;stroke-width:0.264583"
     id="path4"
     d="m 101.79779,25.396251 c 0.20638,1.452432 0.26058,2.921976 0.31892,4.386339 0.0248,0.62176 0.90409,0.586711 0.8793,-0.03505 v 0 c -0.0596,-1.494284 -0.11598,-2.993683 -0.32707,-4.47574 -0.088,-0.616 -0.95915,-0.491549 -0.87115,0.124451 z" />
  <path
     style="fill:#000000;fill-opacity:1;fill-rule:nonzero;stroke:none;stroke-width:0.264583"
     id="path5"
     d="m 102.48439,32.655166 c 0.13816,1.101727 0.22587,2.208659 0.28891,3.317017 0.0389,0.719106 0.0595,1.438971 0.0754,2.158887 0.0138,0.622101 0.89354,0.602657 0.87979,-0.01945 v 0 c -0.0162,-0.730121 -0.0372,-1.460193 -0.0767,-2.189488 -0.0648,-1.136362 -0.15468,-2.271366 -0.29771,-3.400782 -0.0946,-0.615019 -0.96439,-0.481209 -0.86977,0.13381 z" />
  <path
     style="fill:#000000;fill-opacity:1;fill-rule:nonzero;stroke:none;stroke-width:0.264583"
     id="path6"
     d="m 102.58364,42.246131 c 0.006,1.145466 0.005,2.290075 -0.0387,3.434774 -0.034,0.570814 -0.0978,1.13915 -0.15407,1.708015 -0.0613,0.619228 0.81442,0.705908 0.87572,0.08668 v 0 c 0.0581,-0.586523 0.12374,-1.172509 0.15771,-1.761122 0.0441,-1.155891 0.0461,-2.311689 0.0394,-3.468347 0,-0.622255 -0.88,-0.622255 -0.88,0 z" />
  <path
     style="fill:#000000;fill-opacity:1;fill-rule:nonzero;stroke:none;stroke-width:0.264583"
     id="path7"
     d="m 101.47419,51.633051 c -0.11706,0.590219 -0.36949,1.138107 -0.55293,1.708271 -0.18388,0.571529 -0.18391,0.61517 -0.32779,1.198293 -0.16775,0.743183 -0.0897,0.381262 -0.23528,1.085514 -0.12588,0.609388 0.73592,0.78741 0.8618,0.178022 v 0 c 0.14102,-0.683146 0.0654,-0.331899 0.22804,-1.053494 0.13342,-0.545121 0.13322,-0.585645 0.3056,-1.122736 0.19984,-0.622646 0.47697,-1.22152 0.59172,-1.869421 0.088,-0.616 -0.78315,-0.74045 -0.87116,-0.124449 z" />
  <path
     style="fill:#000000;fill-opacity:1;fill-rule:nonzero;stroke:none;stroke-width:0.264583"
     id="path8"
     d="m 98.432584,60.601738 c -0.394925,0.846613 -0.81231,1.682003 -1.261297,2.501235 -0.08491,0.168355 -0.169813,0.336706 -0.25472,0.505058 -0.27995,0.555723 0.50596,0.951632 0.78591,0.395909 v 0 c 0.0802,-0.159392 0.160396,-0.318785 0.240594,-0.478178 0.453953,-0.829043 0.8774,-1.673707 1.276609,-2.530478 0.278281,-0.556559 -0.508815,-0.950108 -0.787096,-0.393546 z" />
  <path
     style="fill:#000000;fill-opacity:1;fill-rule:nonzero;stroke:none;stroke-width:0.264583"
     id="path12"
     d="m 108.0193,32.98258 c -0.37552,0.195079 -0.69145,0.473038 -0.9746,0.784846 -0.11216,0.123513 -0.22262,0.249653 -0.31776,0.386699 -0.30062,0.433023 -0.37298,0.65255 -0.59476,1.138648 -0.2677,0.700654 -0.43815,1.432782 -0.55436,2.17252 -0.0544,0.346361 -0.14573,1.049981 -0.11896,1.404012 0.0207,0.273301 0.0954,0.5398 0.14308,0.809701 0.0904,0.252646 0.16163,0.512982 0.27116,0.757939 0.28715,0.642226 0.71467,1.218274 1.23914,1.685806 0.30177,0.269018 0.43968,0.333774 0.76817,0.531688 0.53514,0.31754 0.9842,-0.439256 0.44907,-0.756793 v 0 c -0.24822,-0.144346 -0.36824,-0.200557 -0.59645,-0.398603 -0.43415,-0.376769 -0.79043,-0.842785 -1.03351,-1.364456 -0.0933,-0.200313 -0.15546,-0.413739 -0.2332,-0.620609 -0.0427,-0.203597 -0.11037,-0.403519 -0.12812,-0.610788 -0.0276,-0.322191 0.0572,-0.969222 0.1052,-1.279245 0.1037,-0.669507 0.25456,-1.332859 0.49076,-1.968931 0.1612,-0.361114 0.25593,-0.621601 0.47482,-0.944811 0.0782,-0.11547 0.1707,-0.220819 0.26288,-0.325467 0.226,-0.256566 0.47657,-0.483563 0.78405,-0.638101 0.54026,-0.308726 0.10366,-1.072779 -0.43661,-0.764055 z" />
  <path
     style="fill:#000000;fill-opacity:1;fill-rule:nonzero;stroke:none;stroke-width:0.264583"
     id="path13"
     d="m 108.30175,35.584582 c -0.25409,0.439566 -0.46313,0.903822 -0.64748,1.376365 -0.1862,0.516678 -0.25151,1.060672 -0.17467,1.60569 0.0165,0.116872 0.0454,0.231651 0.0681,0.347475 0.0731,0.307803 0.1822,0.607832 0.38268,0.857954 0.20728,0.258606 0.47867,0.433951 0.74901,0.617267 0.51544,0.348599 1.00843,-0.380341 0.49299,-0.72894 v 0 c -0.17324,-0.116814 -0.37068,-0.226306 -0.51358,-0.382101 -0.13858,-0.151074 -0.201,-0.344339 -0.2487,-0.539276 -0.0181,-0.08541 -0.0409,-0.169971 -0.0545,-0.256225 -0.0644,-0.408348 -0.0197,-0.814258 0.11888,-1.202997 0.16025,-0.413925 0.3447,-0.818364 0.55948,-1.207074 0.34517,-0.517748 -0.38704,-1.005883 -0.7322,-0.488138 z" />
  <path
     style="fill:#000000;fill-opacity:1;fill-rule:nonzero;stroke:none;stroke-width:0.264583"
     id="path14"
     d="m 108.2618,38.37632 c 0.0693,0.0019 0.13863,0.0071 0.20797,0.0057 0.17363,-0.0035 0.5468,-0.03061 0.71373,-0.04098 0.44791,-0.02782 0.89538,-0.04905 1.34386,-0.06525 1.3447,-0.03146 2.68987,-0.03766 4.03489,-0.04178 0.85318,-0.0019 1.70636,-0.0016 2.55954,-0.0011 0.40798,2.65e-4 0.81596,5.3e-4 1.22394,5.3e-4 0.14568,3.1e-5 0.29136,3.9e-5 0.43705,5e-5 0.62225,4e-5 0.62231,-0.879962 5e-5,-0.880002 v 0 c -0.14563,-8e-6 -0.29127,-1.8e-5 -0.43691,-4.7e-5 -0.40787,-9.3e-5 -0.81574,-2.65e-4 -1.22361,-5.29e-4 -0.85425,-5.3e-4 -1.70851,-7.94e-4 -2.56276,0.0011 -1.35474,0.0042 -2.70964,0.01037 -4.06406,0.04235 -0.71272,0.0259 -1.42431,0.07617 -2.13651,0.105307 -0.61844,-0.06872 -0.71562,0.805902 -0.0972,0.874617 z" />
  <path
     style="fill:#000000;fill-opacity:1;fill-rule:nonzero;stroke:none;stroke-width:0.264583"
     id="path17"
     d="m 118.77111,33.219691 c 0,0.06341 0.002,0.126849 0,0.190217 -0.0133,0.386842 -0.0675,0.773105 -0.0994,1.158547 -0.0529,0.639847 -0.0421,0.535768 -0.0739,1.194512 -0.0425,1.17789 -0.0391,2.356805 -0.0381,3.535275 -0.0169,0.668467 0.0532,1.334069 0.10557,1.999395 0.0225,0.272095 0.033,0.544899 0.0371,0.817822 2.6e-4,0.03303 5.2e-4,0.06605 7.9e-4,0.09907 0.005,0.622233 0.88499,0.61514 0.87997,-0.0071 v 0 c -2.7e-4,-0.03514 -5.3e-4,-0.07028 -7.9e-4,-0.105421 -0.004,-0.291507 -0.0158,-0.582887 -0.0397,-0.873516 -0.0507,-0.642562 -0.11956,-1.285367 -0.10285,-1.93098 -0.001,-1.164166 -0.004,-2.32877 0.0371,-3.492375 0.0304,-0.637765 0.0198,-0.533636 0.0714,-1.158026 0.0254,-0.30734 0.0616,-0.613736 0.0858,-0.921171 0.0205,-0.260871 0.0171,-0.281747 0.0171,-0.506256 0,-0.622255 -0.87999,-0.622255 -0.87999,0 z" />
  <path
     style="fill:#000000;fill-opacity:1;fill-rule:nonzero;stroke:none;stroke-width:0.264583"
     id="path18"
     d="m 119.21636,42.82922 c 0.61955,-0.06042 1.24058,-0.104928 1.8618,-0.144264 0.78922,-0.04368 1.5798,-0.05322 2.37003,-0.05983 0.59661,-0.0038 1.19324,-0.003 1.78986,-0.0026 0.48082,5.29e-4 0.96164,7.94e-4 1.44246,7.94e-4 0.44251,9e-5 0.88503,8.7e-5 1.32755,9e-5 0.41521,-3e-6 0.83042,-6e-6 1.24563,-8e-6 0.37997,0 0.75993,0 1.1399,-3e-6 0.43383,0 0.86765,0 1.30147,0 0.65755,0 1.3151,0 1.97265,0 0.52125,0 1.04249,0 1.56374,0 0.39332,0 0.78664,0 1.17996,0 0.27275,0 0.54551,0 0.81827,0 0.22341,0 0.44681,0 0.67022,0 0.20704,0 0.41408,0 0.62112,0 0.23016,0 0.46032,0 0.69048,0 0.0376,0 0.0753,0 0.11291,0 0.62225,0 0.62225,-0.879999 0,-0.879999 v 0 c -0.0376,0 -0.0753,0 -0.11291,0 -0.23016,0 -0.46032,0 -0.69048,0 -0.20704,0 -0.41408,0 -0.62112,0 -0.22341,0 -0.44681,0 -0.67022,0 -0.27276,0 -0.54552,0 -0.81827,0 -0.39332,0 -0.78664,0 -1.17996,0 -0.52125,0 -1.04249,0 -1.56374,0 -0.65755,0 -1.3151,0 -1.97265,0 -0.43382,0 -0.86764,0 -1.30147,0 -0.37997,0 -0.75994,0 -1.13991,3e-6 -0.4152,0 -0.83041,5e-6 -1.24562,5e-6 -0.44244,0 -0.88489,0 -1.32733,-9e-5 -0.48068,-1.19e-4 -0.96136,-2.64e-4 -1.44204,-7.93e-4 -0.59929,-5.3e-4 -1.19859,-0.0013 -1.79787,0.0026 -0.80634,0.0068 -1.61304,0.01667 -2.41832,0.06156 -0.60259,0.03823 -1.20585,0.07713 -1.80614,0.142499 -0.62226,0 -0.62226,0.880002 0,0.880002 z" />
  <path
     style="fill:#000000;fill-opacity:1;fill-rule:nonzero;stroke:none;stroke-width:0.264583"
     id="path19"
     d="m 139.51929,42.554855 c 0.71333,0 1.42667,0 2.14,0 0.99307,0 1.98613,0 2.9792,0 0.63138,0.01913 1.26025,0.08689 1.88225,0.194641 0.70387,0.142806 1.38,0.392028 2.04308,0.66308 0.39926,0.179533 0.79015,0.386414 1.14438,0.645319 0.17769,0.129868 0.28174,0.224261 0.44964,0.367559 0.44241,0.362617 0.6316,0.819229 0.76113,1.360228 0.0939,0.427533 0.0181,0.856425 -0.17133,1.247955 -0.0373,0.07719 -0.0838,0.149619 -0.12568,0.22443 -0.14692,0.261255 -0.35228,0.486498 -0.62044,0.627346 -0.14821,0.07785 -0.36169,0.150365 -0.51592,0.207304 -0.59457,0.167396 -1.22089,0.207623 -1.83536,0.154992 -0.14894,-0.01275 -0.29671,-0.0367 -0.44506,-0.05504 -0.75069,-0.155401 -1.47262,-0.448734 -2.10246,-0.889217 -0.11648,-0.08146 -0.22569,-0.172871 -0.33853,-0.259308 -0.4537,-0.375454 -0.82359,-0.835443 -1.15272,-1.320617 -0.35098,-0.513816 -1.07763,-0.01744 -0.72664,0.496371 v 0 c 0.38547,0.561102 0.81504,1.094198 1.34692,1.524897 0.13361,0.100846 0.263,0.207537 0.40083,0.302543 0.74031,0.510326 1.58626,0.848371 2.46709,1.018982 0.17071,0.02019 0.34079,0.04671 0.51213,0.06055 0.73251,0.05915 1.47722,0.0021 2.18212,-0.209934 0.26172,-0.09895 0.44943,-0.15893 0.69631,-0.299699 0.38587,-0.22003 0.68682,-0.555522 0.90455,-0.938294 0.0566,-0.106032 0.11964,-0.20886 0.16977,-0.318093 0.2582,-0.562658 0.34307,-1.179849 0.20875,-1.786162 -0.0271,-0.107368 -0.0493,-0.216117 -0.0814,-0.322107 -0.17698,-0.584194 -0.49382,-1.103275 -0.96378,-1.49734 -0.20558,-0.174456 -0.30641,-0.266772 -0.52583,-0.425548 -0.40506,-0.293106 -0.85009,-0.528916 -1.30594,-0.731869 -0.72203,-0.294254 -1.45855,-0.563748 -2.22551,-0.715434 -0.67154,-0.11616 -1.35068,-0.188746 -2.03235,-0.207534 -0.99307,0 -1.98613,0 -2.9792,0 -0.71333,0 -1.42667,0 -2.14,0 -0.62226,0 -0.62226,0.879999 0,0.879999 z" />
  <path
     style="fill:#ff4400;fill-opacity:1;fill-rule:nonzero;stroke:none;stroke-width:0.264583"
     id="path20"
     d="m 119.19631,38.29514 c 0.18514,0.0052 0.37105,0.02196 0.55638,0.01468 0.0709,-0.0028 0.14166,-0.0097 0.2125,-0.01453 0.29326,-0.03194 0.5899,-0.07494 0.8692,-0.174247 0.21909,-0.0779 0.26755,-0.113318 0.4716,-0.221951 0.31601,-0.194738 0.5738,-0.463483 0.77072,-0.777327 0.13305,-0.21204 0.16386,-0.29814 0.26709,-0.523158 0.15691,-0.383828 0.26141,-0.789651 0.31155,-1.201433 0.0339,-0.278236 0.0272,-0.365027 0.031,-0.64766 -0.008,-0.421281 -0.0517,-0.847043 -0.1838,-1.249405 -0.069,-0.210177 -0.11781,-0.29826 -0.20978,-0.491212 -0.12873,-0.25335 -0.29385,-0.481965 -0.52414,-0.652315 -0.13837,-0.102346 -0.19039,-0.117721 -0.34364,-0.189685 -0.29656,-0.114281 -0.61306,-0.144571 -0.92773,-0.159083 -0.27714,-0.02072 -0.51925,0.03399 -0.76385,0.151217 -0.13937,0.06867 -0.28606,0.140037 -0.40471,0.241163 -0.002,0.0013 -0.12838,0.100589 -0.14645,0.117635 -0.12667,0.10986 -0.20448,0.159453 -0.28634,0.303796 -0.0519,0.08569 -0.0632,0.108932 -0.098,0.202595 -0.20989,0.585785 0.62851,1.072236 0.83841,0.486454 v 0 c 0.0147,-0.04758 0.0383,-0.09095 0.0635,-0.13385 0.0162,-0.02856 0.034,-0.05626 0.0485,-0.08566 10e-4,-0.0027 2.7e-4,-0.0063 0.002,-0.0089 0.0213,-0.03655 0.0592,-0.06056 0.086,-0.0925 0.0176,-0.01662 0.0354,-0.03289 0.0527,-0.04981 0.014,-0.01378 0.0249,-0.03107 0.0408,-0.04269 0.0634,-0.04641 0.13354,-0.08498 0.2039,-0.119372 0.0587,-0.02946 0.11421,-0.05411 0.17588,-0.07613 0.0263,-0.0094 0.0317,-0.01593 0.0618,-0.01693 0.0289,-0.0011 0.0578,0.0013 0.0868,0.0021 0.20458,0.0087 0.41092,0.02315 0.60788,0.08337 0.0249,0.0098 0.0505,0.01797 0.0747,0.02941 0.1829,0.08665 0.26554,0.216588 0.3596,0.391512 0.0593,0.120935 0.1104,0.216233 0.1546,0.344807 0.1108,0.322382 0.14349,0.666031 0.15163,1.004642 -0.001,0.214804 0.004,0.30807 -0.0202,0.518615 -0.0387,0.333878 -0.11962,0.664035 -0.24401,0.976201 -0.0296,0.06658 -0.0569,0.134292 -0.089,0.199745 -0.13313,0.271724 -0.3128,0.520848 -0.56701,0.690411 -0.12976,0.07244 -0.17012,0.101331 -0.3092,0.153861 -0.21612,0.08163 -0.44908,0.110792 -0.67691,0.138184 -0.049,0.004 -0.0979,0.0099 -0.14702,0.01212 -0.18547,0.0082 -0.37145,-0.01161 -0.5568,-0.01466 -0.62225,0 -0.62225,0.879999 0,0.879999 z"
     sodipodi:nodetypes="cscscscscscscccccccsscccccccscccccscccccsccccc" />
</svg>
