<?xml version="1.0" encoding="UTF-8" standalone="no"?>
<svg
   id="svg1880"
   version="1.1"
   viewBox="0 0 78.358824 37.709251"
   height="37.709251mm"
   width="78.358826mm"
   sodipodi:docname="9 jan li pilin e soweli..svg"
   inkscape:version="1.3 (0e150ed6c4, 2023-07-21)"
   xmlns:inkscape="http://www.inkscape.org/namespaces/inkscape"
   xmlns:sodipodi="http://sodipodi.sourceforge.net/DTD/sodipodi-0.dtd"
   xmlns="http://www.w3.org/2000/svg"
   xmlns:svg="http://www.w3.org/2000/svg"
   xmlns:rdf="http://www.w3.org/1999/02/22-rdf-syntax-ns#"
   xmlns:cc="http://creativecommons.org/ns#"
   xmlns:dc="http://purl.org/dc/elements/1.1/">
  <sodipodi:namedview
     id="namedview1"
     pagecolor="#ffffff"
     bordercolor="#000000"
     borderopacity="0.25"
     inkscape:showpageshadow="2"
     inkscape:pageopacity="0.0"
     inkscape:pagecheckerboard="0"
     inkscape:deskcolor="#d1d1d1"
     inkscape:document-units="mm"
     inkscape:zoom="8.3052944"
     inkscape:cx="164.77441"
     inkscape:cy="67.848287"
     inkscape:window-width="1920"
     inkscape:window-height="1051"
     inkscape:window-x="-9"
     inkscape:window-y="-9"
     inkscape:window-maximized="1"
     inkscape:current-layer="svg1880" />
  <defs
     id="defs1874" />
  <metadata
     id="metadata1877">
    <rdf:RDF>
      <cc:Work
         rdf:about="">
        <dc:format>image/svg+xml</dc:format>
        <dc:type
           rdf:resource="http://purl.org/dc/dcmitype/StillImage" />
        <dc:title />
      </cc:Work>
    </rdf:RDF>
  </metadata>
  <path
     style="fill:#ff4400;fill-opacity:1;fill-rule:nonzero;stroke:none;stroke-width:0.264583"
     id="path8"
     d="m 44.845524,13.975063 c -0.189693,0.09312 -0.379098,0.186867 -0.568386,0.280837 -0.272947,0.132099 -0.540022,0.274801 -0.801976,0.427433 -0.236651,0.13235 -0.464185,0.2796 -0.686667,0.434346 -0.221692,0.154977 -0.424263,0.333244 -0.622827,0.516204 -0.218673,0.200182 -0.413964,0.422927 -0.603829,0.649987 -0.180417,0.21267 -0.340125,0.441355 -0.475316,0.685064 -0.08715,0.172075 -0.160333,0.350865 -0.204325,0.539034 -0.02835,0.121278 -0.03083,0.166457 -0.04639,0.289525 -0.03082,0.275978 0.0095,0.54845 0.07998,0.814749 0.06857,0.260735 0.212587,0.486194 0.37575,0.696857 0.165076,0.204364 0.364146,0.376313 0.570151,0.537709 0.216567,0.163569 0.456726,0.287958 0.705633,0.393648 0.250545,0.102845 0.513223,0.167142 0.777981,0.220308 0.273145,0.05922 0.551992,0.06701 0.830157,0.05966 0.304038,-0.01361 0.597233,-0.09521 0.885552,-0.186483 0.289105,-0.09497 0.568092,-0.217265 0.842386,-0.348294 0.288856,-0.13568 0.568036,-0.289783 0.84388,-0.449901 0.270844,-0.158878 0.53298,-0.331753 0.790472,-0.511278 0.199845,-0.141206 0.395547,-0.288182 0.589584,-0.437233 0.02653,-0.01989 0.05305,-0.03978 0.07958,-0.05967 0.497744,-0.37343 -0.03036,-1.077348 -0.528109,-0.703918 v 0 c -0.02924,0.02195 -0.05847,0.04389 -0.08771,0.06584 -0.183234,0.140896 -0.368162,0.279668 -0.556826,0.413238 -0.237443,0.165736 -0.479198,0.325287 -0.728933,0.47204 -0.255545,0.148487 -0.514069,0.291561 -0.781838,0.417105 -0.23736,0.113844 -0.478806,0.220158 -0.72884,0.303345 -0.209939,0.06691 -0.42259,0.131382 -0.643874,0.145553 -0.212108,0.0064 -0.424825,0.003 -0.63314,-0.04297 -0.20684,-0.04104 -0.412364,-0.0892 -0.608563,-0.168273 -0.178112,-0.0743 -0.34994,-0.161557 -0.505917,-0.276411 -0.150612,-0.117007 -0.297448,-0.240594 -0.419767,-0.387833 -0.09329,-0.115702 -0.179004,-0.238856 -0.218488,-0.3841 -0.04446,-0.156047 -0.07073,-0.316272 -0.05535,-0.479039 0.02056,-0.189134 0.05985,-0.341611 0.149498,-0.511799 0.103431,-0.195154 0.237617,-0.372155 0.377978,-0.542114 0.165333,-0.197886 0.334436,-0.392849 0.525013,-0.567257 0.169124,-0.155906 0.340463,-0.309025 0.529344,-0.441154 0.202948,-0.141529 0.410837,-0.275664 0.62702,-0.396274 0.244885,-0.142884 0.494752,-0.276027 0.750062,-0.399453 0.176562,-0.08767 0.353655,-0.174263 0.52977,-0.262817 0.570084,-0.249411 0.217363,-1.055629 -0.352719,-0.806218 z" />
  <path
     style="fill:#ff4400;fill-opacity:1;fill-rule:nonzero;stroke:none;stroke-width:0.264583"
     id="path9"
     d="m 46.475319,15.64696 c -0.130995,0.07935 -0.264446,0.154486 -0.397034,0.231119 -0.214098,0.128786 -0.425789,0.261306 -0.640281,0.389467 -0.223597,0.134022 -0.45021,0.262939 -0.675468,0.39414 -0.221088,0.120171 -0.435091,0.252614 -0.652407,0.379317 -0.20407,0.11768 -0.400211,0.24819 -0.592876,0.383539 -0.180729,0.123087 -0.357679,0.251638 -0.534138,0.380741 -0.152564,0.114786 -0.310404,0.222374 -0.474133,0.32056 -0.151379,0.09526 -0.310753,0.175677 -0.46958,0.257356 -0.122992,0.0614 -0.245676,0.123371 -0.36812,0.185846 -0.55427,0.282816 -0.154308,1.066672 0.399963,0.783856 v 0 c 0.123333,-0.06293 0.246941,-0.125293 0.370787,-0.187213 0.17635,-0.0908 0.352983,-0.180891 0.521335,-0.286232 0.185692,-0.112423 0.366141,-0.233222 0.539461,-0.364033 0.171969,-0.125894 0.344504,-0.251137 0.52069,-0.371093 0.172151,-0.121251 0.347541,-0.237996 0.530045,-0.343218 0.217088,-0.126713 0.431046,-0.258827 0.651899,-0.379021 0.228076,-0.132861 0.457538,-0.263387 0.683921,-0.399125 0.210839,-0.125981 0.419103,-0.255952 0.629275,-0.383 0.126291,-0.073 0.253822,-0.143986 0.378049,-0.220458 0.546275,-0.297968 0.124886,-1.070516 -0.421388,-0.772548 z" />
  <g
     transform="translate(-74.315898,-97.162905)"
     id="layer1">
    <g
       transform="matrix(0.26458333,0,0,0.26458333,70.608485,89.897267)"
       id="g2690">
      <ellipse
         style="opacity:0.2"
         transform="matrix(0.9564,-0.2919,0.2919,0.9564,-38.1725,17.888)"
         cx="40.900002"
         cy="136.89999"
         rx="26.799999"
         ry="14.6"
         id="ellipse2672" />
      <path
         style="fill:#825012"
         d="m 41.1,114.4 c 0,0 -12.3,0.8 -17.3,2.2 -5,1.4 -3.7,8.6 0.8,11.3 4.5,2.7 7.4,3.8 7.4,3.8 0,0 -7.3,0.1 -9.2,1 -1.9,0.9 -6,2.7 -5.6,5.4 0.4,2.7 3.8,4.1 6.3,3.1 2.4,-1 6.2,-4.2 8.3,-4.7 2.1,-0.5 8.3,0 8.8,-0.5 0.5,-0.5 0.9,-1.3 0.9,-1.3 l 3.5,0.9 12.7,-12.9 z"
         id="path2674" />
      <path
         style="opacity:0.2"
         d="m 41.1,114.4 c 0,0 -12.3,0.8 -17.3,2.2 -5,1.4 -3.7,8.6 0.8,11.3 4.5,2.7 7.4,3.8 7.4,3.8 0,0 -7.3,0.1 -9.2,1 -1.9,0.9 -6,2.7 -5.6,5.4 0.4,2.7 3.8,4.1 6.3,3.1 2.4,-1 6.2,-4.2 8.3,-4.7 2.1,-0.5 8.3,0 8.8,-0.5 0.5,-0.5 0.9,-1.3 0.9,-1.3 l 3.5,0.9 12.7,-12.9 z"
         id="path2676" />
      <path
         style="fill:#825012"
         d="m 63.7,127.2 c -0.2,-2.9 -4.9,-6.2 -10.4,-4.4 -5.5,1.8 -10.4,7.2 -10,10.4 0.4,3.2 4.1,6.8 4.1,6.8 0,0 -4.3,-0.1 -5.9,1.3 -1.7,1.4 -1.4,2.4 -2.7,4.2 -1.3,1.8 -3.1,4.2 -0.3,5.2 2.8,1 5,0.9 6.4,-0.6 1.4,-1.5 1.8,-4.9 1.8,-4.9 0,0 5.1,-1.2 6.4,-1.9 2.6,-1.4 1.4,-4.6 1.4,-4.6 0,0 4.3,-1 6.6,-4.2 2.3,-3.2 2.9,-3.4 2.6,-7.3 z"
         id="path2678" />
      <path
         style="fill:#2d3134"
         d="m 14.5,64.7 c 2.5,-2.4 7.6,-5.6 8.1,-6.7 0.5,-1.2 -0.7,-5.2 0.4,-5.9 1.1,-0.7 3.5,-1.4 3.5,-1.4 0,0 0,-2.1 0.8,-4.8 0.8,-2.7 1,-5.3 1,-5.3 0,0 2.3,2.6 2.8,4.1 0.5,1.5 2.2,3.5 2.2,3.5 0,0 2.3,-0.7 4.5,0.4 1.9,0.9 2.5,1.8 2.5,1.8 L 41.2,46 c 0,0 2.5,2.6 3.1,6.1 0.5,3 0.4,3.8 0.4,3.8 0,0 2.2,4.6 2.4,9.5 0.2,4.9 2.3,9.8 5.6,14.3 3.3,4.5 9,11 10.1,17.3 1.1,6.3 4.2,17.6 3.9,22.7 -0.3,5.4 -0.8,13.8 -5.7,17.2 -3.3,2.3 -6.4,1.8 -6.4,1.8 0,0 -4.9,-4.2 -5,-5.1 -0.1,-0.9 7,-6.8 8.8,-8.3 1.8,-1.4 0.5,-2.6 0.5,-2.6 0,0 -4.3,-1.1 -6.2,-1.5 -4.6,-1.2 -9,-4 -9,-4 0,0 -1.5,5.3 -1.3,8.7 0.3,3.4 0.4,6.9 -1.1,9.1 -1.5,2.2 -3.4,6.4 -3.5,8.7 -0.1,2.3 -0.6,5.3 -2.9,6.4 -2.3,1.2 -6.6,-0.2 -6.6,-1.5 0,-1.3 1.5,-3.2 3,-4.8 1.5,-1.6 5.3,-10.1 5.7,-12.6 0.4,-2.5 0.5,-18.2 0.5,-18.2 l -5.6,-2 c 0,0 0.1,8.7 0.2,11.4 0.1,2.8 -0.2,6.3 -1.5,10.2 -1.3,3.9 -2.6,9.3 -3.1,10.7 -0.5,1.3 -2,3.2 -3.9,3.5 -3.2,0.4 -6.2,-1.5 -5.3,-3.3 0.9,-1.7 3.7,-3.8 5,-6 1.4,-2.4 3.2,-6.2 3.4,-10.3 0.3,-8 -1.9,-19.9 -2.3,-22.1 -0.4,-2.2 -3,-4.7 -2,-11 1,-6.3 5.1,-10.9 5.2,-13.1 0.1,-2.2 1.3,-8.3 -0.4,-9 -1.7,-0.7 -6.3,2 -10.5,-1.3 -4.2,-3.2 -2.2,-6 -2.2,-6 z"
         id="path2680" />
      <path
         style="fill:#825012"
         d="m 39.9,65.8 c -0.4,-1 -7.1,-1 -12.8,-2.1 C 23.6,63 19.3,62.9 16.6,63 c -0.8,0.6 -1.5,1.2 -2.1,1.8 0,0 -2,2.8 2.1,6.1 4.1,3.3 8.8,0.5 10.5,1.3 0.5,0.2 0.8,1 0.9,2 0.6,1.2 1.6,2.5 2.6,2.2 1.8,-0.6 9.7,-9.6 9.3,-10.6 z"
         id="path2682" />
      <path
         d="m 28.5,59.5 c -0.1,-0.7 3.8,-0.7 3.9,-0.1 0.1,0.6 -3.7,1.4 -3.9,0.1 z"
         id="path2684" />
      <path
         style="fill:#825012"
         d="m 39.7,59.9 c -1.4,-0.7 -1.2,-3.9 0,-6.3 1.2,-2.3 2.1,-5.3 2.1,-5.3 0,0 2.4,4.7 2,7.4 -0.4,2.6 -1.8,5.3 -4.1,4.2 z"
         id="path2686" />
      <path
         style="fill:#262626"
         d="m 15.8,66.9 c -0.7,-0.6 -1.9,-2.2 -1.3,-3.7 0.6,-1.4 4,-2.9 5.6,-1.6 1.6,1.3 0.2,4.1 -0.5,4.9 -0.8,0.9 -2.7,1.3 -3.8,0.4 z"
         id="path2688" />
    </g>
    <g
       transform="matrix(0.26458333,0,0,0.26458333,71.031818,93.733725)"
       id="g2921">
      <path
         style="opacity:0.2"
         d="M 120.5,152.9 C 143.7,141.2 111.8,126.7 96.9,121.6 82,116.4 67.2,110.7 55.4,112.9 43.6,115.1 44.3,125.3 59.7,130.2 75,135 96.1,141 99.9,146 c 3.9,5 6.8,13.9 20.6,6.9 z"
         id="path2889" />
      <path
         style="fill:#28896d"
         d="m 93,111.8 c 0,0 9.1,4.8 12.2,6.9 3.1,2.1 7.5,5.8 7.5,5.8 0,0 -2.1,2 -2.4,4.1 -0.3,2.1 -0.4,4.7 -0.4,4.7 0,0 -10.2,-5.4 -14.2,-6.8 -4.1,-1.4 -14.4,-6 -14.4,-6 z"
         id="path2891" />
      <path
         style="opacity:0.2"
         d="m 93,111.8 c 0,0 9.1,4.8 12.2,6.9 3.1,2.1 7.5,5.8 7.5,5.8 0,0 -2.1,2 -2.4,4.1 -0.3,2.1 -0.4,4.7 -0.4,4.7 0,0 -10.2,-5.4 -14.2,-6.8 -4.1,-1.4 -14.4,-6 -14.4,-6 z"
         id="path2893" />
      <path
         style="fill:#fbd7c7"
         d="m 67.6,80.3 c 0,0 -3.4,8.6 -4.7,9.6 -1.3,1 -4.8,3.7 -5.5,4.8 -0.9,1.4 -2.8,5.9 -2,6.6 0.9,0.9 3.5,-3.9 3.5,-3.9 0,0 0.1,1.5 -1.5,4.5 -0.8,1.6 -2.6,5.7 -1.3,6.3 1.3,0.5 5.9,-2.3 7.2,-4.2 1.3,-1.9 2.7,-5.1 3.2,-6.1 0.4,-1 1.1,-2.5 1.3,-3.6 0.2,-1.1 -0.1,-1.6 0.4,-2.6 0.4,-1 6,-8.6 6,-8.6 z"
         id="path2895" />
      <polygon
         style="fill:#ff9900"
         points="72.1,86.5 78,78.5 69.8,72.9 66.2,83.3 "
         id="polygon2897" />
      <path
         style="fill:#fbd7c7"
         d="m 39.1,78.6 -0.2,6.2 c 0,0 -6.9,-1 -8.6,-1.5 -1.7,-0.4 -7.4,-2.5 -8.4,-3.3 -1,-0.7 -3.4,-3.1 -2.9,-6.2 0.2,-1.6 2.7,-3.9 4.2,-3.8 1.5,0.1 0.9,1.4 0.3,2 -0.6,0.6 -1,1.4 0.1,1.8 1.1,0.4 2.5,-0.1 3.6,1.5 1.1,1.6 0.7,3.2 2.3,3.4 1.6,0.3 9.6,-0.1 9.6,-0.1 z"
         id="path2899" />
      <path
         style="fill:#ff9900"
         d="m 38.4,78.3 -0.7,6.8 c 0,0 6.9,1.5 10.5,1.6 3.6,0.1 8.8,0.3 10,-1.7 1.2,-2 1.7,-8.2 1.9,-10 0.1,-1.8 0.1,-5 0.1,-5 0,0 1.8,2.9 4.3,3.4 2.4,0.5 5.9,-0.7 7.2,1.3 1.3,1.9 6.7,12.3 6.7,12.3 0,0 12.7,-2.9 17.9,-6.1 5.2,-3.3 8.2,-5.9 8.2,-5.9 0,0 -10.8,-16.8 -14.8,-21.1 C 85.6,49.6 75.7,36 71.4,35.7 67.2,35.4 62,35 62,35 l -8.3,5.7 c 0,0 -2.6,7.6 -4.3,10.7 -1.7,3.1 -2.7,7.2 -2,10.7 0.7,3.5 2.4,9 2.6,11 0.2,2 0.5,4.7 0.5,4.7 0,0 -2.4,-0.1 -5.3,-0.1 -2.9,0 -6.8,0.6 -6.8,0.6 z"
         id="path2901" />
      <path
         style="fill:#28896d"
         d="m 50,49.5 1.2,-2.8 c 0,0 6.6,-2.7 12.7,1 6.1,3.6 19.7,19.1 19.7,19.1 L 91.7,62 C 91.7,62 83.8,50.1 78.2,44.1 73.7,39.2 66,35.6 66,35.6 l 3.3,-0.2 c 0,0 5.4,2.2 10.3,7.5 6.9,7.5 15.9,20.6 15.9,20.6 l 5.4,3.3 c 0,0 8,10 10.9,14.9 4.2,7.3 3.7,20 -10.5,26.8 -4.9,2.4 -11.4,7.1 -13.7,9.2 -2.3,2.1 -5,4 -5,4 0,0 8.5,3.8 11.4,5.4 2.9,1.6 8.6,3.6 8.6,3.6 l -3.5,11.2 c 0,0 -12,-5 -15.4,-6.2 -3.5,-1.2 -13.5,-3.7 -16.5,-5 -3,-1.3 -3.6,-6.2 -2.4,-9.5 1.3,-3.9 4.1,-12.2 8.1,-18.6 2,-3.3 5.1,-7.5 6.1,-9.8 1,-2.3 -1.3,-7.2 -2.6,-9 -1.3,-1.8 -2.2,-3.8 -4.8,-6.1 -2.5,-2.3 -7.1,-3.5 -9.8,-5.5 -1,-0.8 -1.5,-2.1 -1.5,-2.1 0,0 4,3.2 9.8,3.4 3,1.6 5.4,4.6 6.2,4.7 3.4,0.2 6.1,-2.5 6.5,-4.4 0.3,-1.5 -1,-4.4 -1.7,-5.4 C 80.4,67.4 64.7,50.6 60.9,49.1 54.9,47 50,49.5 50,49.5 Z"
         id="path2903" />
      <path
         style="fill:#825012"
         d="m 109.6,121.6 c 2,0.8 3.5,1.3 5.7,0.8 2.2,-0.5 4.6,-1.3 6.2,-0.6 1.6,0.7 2.4,1.3 3.1,4.1 0.7,2.9 0.7,3.4 0.7,3.4 l -0.8,0.1 c 0,0 1.1,2.5 2,4.7 0.9,2.1 0.8,10.1 -1.6,12.3 -2.4,2.1 -4.6,1.7 -5.7,0.4 -1.9,-2.3 -2,-7 -3.3,-8 -1.3,-1 -7.8,-2.3 -7.8,-2.3 0,0 1.9,-5.4 2.1,-8.5 0.2,-3.1 -0.6,-6.4 -0.6,-6.4 z"
         id="path2905" />
      <path
         style="opacity:0.5"
         d="m 126.5,134.2 c -0.9,-2.1 -2,-4.7 -2,-4.7 l 0.8,-0.1 c 0,0 0,-0.5 -0.7,-3.4 -0.7,-2.9 -1.5,-3.4 -3.1,-4.1 -0.4,-0.2 -0.8,-0.3 -1.3,-0.3 -1.1,0.5 -1.8,1.2 -1.6,3.3 0.2,3 1,5.2 1.2,8.4 0.2,3.1 -0.8,7.5 0.5,11.6 0.5,1.5 1.2,2.4 2.1,3 0.8,-0.2 1.7,-0.6 2.6,-1.4 2.3,-2.2 2.4,-10.2 1.5,-12.3 z"
         id="path2907" />
      <path
         style="fill:#fbd7c7"
         d="m 36.8,23.5 c -0.8,2.6 1.4,9.5 3.8,12.9 2.4,3.4 4.4,5 5.9,4.8 1.6,-0.1 2.6,-1.4 3.7,-0.7 1.1,0.7 2.5,2.7 2.5,2.7 0,0 2.1,-3.4 4.2,-4.4 2.1,-1 4.5,-3.3 4.5,-3.3 0,0 -4,-2.7 -4.4,-4.2 -0.4,-1.5 1.7,-9.5 -1.5,-12.6 -3.2,-3.1 -15.3,-6 -18.7,4.8 z"
         id="path2909" />
      <path
         style="fill:#762c07"
         d="m 41.5,28.8 c 0.9,-0.2 1.7,-2.4 3.1,-1 1.4,1.4 2.1,4.4 4.3,5.8 2.2,1.4 6.9,-0.3 7.7,-1 0.7,-0.7 2.2,-6.5 1.6,-9.5 -0.6,-3 -5.4,-12.7 -15.4,-9.5 -10,3.2 -7.2,12.8 -6.3,14 0.9,1.4 3.4,1.5 5,1.2 z"
         id="path2911" />
      <path
         style="fill:#ff9900"
         d="m 55.6,22.2 c -3.3,0.8 -4.4,4 -3.3,5.6 1.1,1.6 3.5,0.9 5,0.3 1.6,-0.6 2.1,-3.3 1.6,-4.4 -0.4,-1.2 -2.3,-1.7 -3.3,-1.5 z"
         id="path2913" />
      <path
         style="fill:#762c07"
         d="m 55.7,23.7 c -1.9,1 -4.4,5.7 -2.8,9.1 1.6,3.4 7.3,3.7 8.9,6.9 1.6,3.3 -0.4,10.1 -0.4,10.1 0,0 8.6,-10.1 5.9,-17.5 -2.8,-7.1 -7.4,-10.8 -11.6,-8.6 z"
         id="path2915" />
      <path
         style="fill:#825012"
         d="m 99.3,129.1 c 1.4,0.5 4.5,0.4 6.1,0.3 1.6,-0.1 4.5,-1.3 5.6,1.2 1.1,2.5 1.9,6 1.9,6 l -0.4,0.3 c 0,0 0.8,3.3 2,5.3 1.2,2 4.3,11 1.3,12.3 -3,1.3 -4.5,0.1 -6,-1.1 -1.5,-1.2 -3.4,-5.6 -3.7,-6.5 -0.3,-0.9 -3.3,-2.4 -5,-2.7 -1.8,-0.2 -4.2,-1.1 -4.2,-1.1 0,0 1.4,-6.7 1.8,-9 0.3,-2.4 0.6,-5 0.6,-5 z"
         id="path2917" />
      <path
         style="opacity:0.5"
         d="m 114.5,142.2 c -1.2,-2 -2,-5.3 -2,-5.3 l 0.4,-0.3 c 0,0 -0.8,-3.5 -1.9,-6 -0.4,-0.8 -0.9,-1.2 -1.5,-1.4 -2.8,0.9 -3.4,2.6 -2.9,5.5 0.5,3 0.5,5.8 0.9,9.2 0.3,3.1 1.3,8.6 5.2,11.1 0.9,0.2 1.9,0.1 3.2,-0.5 3,-1.3 -0.2,-10.3 -1.4,-12.3 z"
         id="path2919" />
    </g>
  </g>
  <path
     style="fill:#000000;fill-opacity:1;fill-rule:nonzero;stroke:none;stroke-width:0.264583"
     id="path1"
     d="m 72.656355,14.072504 c -0.264737,0.524455 -0.348832,1.11064 -0.436819,1.684672 -0.05841,0.475754 -0.144806,1.140883 0.08393,1.587233 0.205748,0.40149 0.333623,0.414896 0.702042,0.65637 0.149617,0.0557 0.294619,0.125856 0.448845,0.167113 0.758978,0.203038 1.597697,0.06001 2.273945,-0.333759 0.202809,-0.118091 0.379561,-0.276118 0.569341,-0.414177 0.725451,-0.656186 1.320927,-1.45537 1.669852,-2.374207 0.05808,-0.152933 0.100973,-0.311208 0.151458,-0.466812 0.109791,-0.396394 0.174744,-0.802508 0.215059,-1.211248 0.02503,-0.253701 0.03789,-0.370438 0.0055,-0.625557 -0.01122,-0.08838 -0.03641,-0.174413 -0.05461,-0.26162 -0.0519,-0.09763 -0.09049,-0.203592 -0.155689,-0.292886 -0.243372,-0.333303 -0.711936,-0.55044 -1.120876,-0.543607 -0.195503,0.0033 -0.388003,0.04879 -0.582006,0.07318 -0.246812,0.073 -0.497898,0.132863 -0.740437,0.219003 -1.165084,0.41379 -2.251694,1.059893 -3.210718,1.836431 -0.219406,0.177657 -0.424381,0.372433 -0.636572,0.55865 -0.188553,0.183124 -0.382453,0.360897 -0.565655,0.549371 -0.211162,0.217236 -0.724292,0.799879 -0.93503,1.038346 -0.361243,0.408774 -0.722204,0.817805 -1.081572,1.228227 -0.724635,0.82025 -1.420458,1.665079 -2.14187,2.488111 -0.477719,0.530547 -0.95245,1.06485 -1.448724,1.578243 -0.40582,0.399557 -0.815504,0.795158 -1.219456,1.196715 -0.22592,0.253772 -0.48382,0.476026 -0.720307,0.719218 -0.108006,0.111069 -0.211305,0.226644 -0.318982,0.338033 -0.300588,0.293925 -0.598368,0.589583 -0.867265,0.913107 -0.191494,0.276395 -0.41135,0.528132 -0.643027,0.770968 -0.204655,0.209627 -0.426088,0.400341 -0.641226,0.598806 -0.374568,0.34067 -0.778655,0.646413 -1.173884,0.962259 -0.34157,0.29114 -0.706015,0.552987 -1.059707,0.828905 -0.183695,0.131394 -0.0903,0.06286 -0.279918,0.205976 -0.496396,0.375221 0.03425,1.077231 0.530643,0.70201 v 0 c 0.181633,-0.137524 0.08494,-0.06589 0.290602,-0.214181 0.356336,-0.27807 0.723575,-0.541949 1.067766,-0.83527 0.411527,-0.328894 0.832053,-0.64756 1.221396,-1.00308 0.228727,-0.211288 0.464031,-0.414826 0.681326,-0.638272 0.245684,-0.257981 0.481454,-0.524291 0.684572,-0.817783 0.252143,-0.30793 0.540157,-0.581685 0.821785,-0.862193 0.10178,-0.105524 0.199237,-0.215174 0.301398,-0.320328 0.237979,-0.244951 0.497599,-0.468767 0.72523,-0.724076 0.4082,-0.405787 0.822445,-0.805291 1.232078,-1.20952 0.505613,-0.524081 0.990835,-1.067917 1.477491,-1.609509 0.721437,-0.823204 1.417601,-1.667925 2.142152,-2.488435 0.358216,-0.409124 0.718068,-0.816814 1.078129,-1.224316 0.173106,-0.195915 0.713592,-0.80913 0.889934,-0.991108 0.172781,-0.178303 0.355727,-0.346465 0.533588,-0.519697 0.19472,-0.171989 0.382778,-0.351826 0.584155,-0.515966 1.047319,-0.853652 2.249321,-1.527139 3.554505,-1.888662 0.460536,-0.0903 0.481015,-0.11354 0.868153,0.08879 0.0591,0.22263 0.0554,0.355458 0.03282,0.591815 -0.03361,0.35166 -0.08745,0.701292 -0.178901,1.04301 -0.108961,0.346493 -0.128884,0.453047 -0.290391,0.785762 -0.297706,0.613293 -0.722011,1.157048 -1.220666,1.619323 -0.135564,0.105877 -0.260656,0.22674 -0.406691,0.317632 -0.36704,0.228445 -0.829503,0.365369 -1.263269,0.35384 -0.283191,-0.0075 -0.390821,-0.06173 -0.649472,-0.145887 -0.08332,-0.03618 -0.250399,-0.08914 -0.312709,-0.177454 -0.09672,-0.137087 -0.09317,-0.310999 -0.09843,-0.468489 -0.01109,-0.33186 0.0072,-0.358269 0.05034,-0.705831 0.07313,-0.48344 0.134442,-0.980209 0.353954,-1.423642 0.278278,-0.55656 -0.508818,-0.950108 -0.787098,-0.393547 z" />
  <path
     style="fill:#000000;fill-opacity:1;fill-rule:nonzero;stroke:none;stroke-width:0.264583"
     id="path2"
     d="M 58.913722,28.016482 C 58.624083,27.629676 58.30943,27.262394 57.98762,26.902155 57.653599,26.52688 57.307098,26.16308 56.969159,25.79141 c -0.28581,-0.295954 -0.570391,-0.592815 -0.861618,-0.883405 -0.302125,-0.291778 -0.597604,-0.590297 -0.898737,-0.883095 -0.254725,-0.258553 -0.526007,-0.500373 -0.780068,-0.759469 -0.266316,-0.24592 -0.54124,-0.482325 -0.813927,-0.721117 -0.180396,-0.160027 -0.359923,-0.321059 -0.518673,-0.502781 -0.144675,-0.161612 -0.28506,-0.327077 -0.432994,-0.485772 -0.155773,-0.157154 -0.301582,-0.322224 -0.442962,-0.49215 -0.172919,-0.22808 -0.356315,-0.446426 -0.567465,-0.639865 -0.168191,-0.175827 -0.349332,-0.337393 -0.536755,-0.492291 -0.176192,-0.15287 -0.360429,-0.296267 -0.524434,-0.462631 -0.118755,-0.127458 -0.26898,-0.229914 -0.374999,-0.36892 -0.11248,-0.140387 -0.246777,-0.260616 -0.375171,-0.386034 -0.117832,-0.131046 -0.266213,-0.22678 -0.398849,-0.340486 -0.114014,-0.0981 -0.230381,-0.193545 -0.340458,-0.296244 -0.09095,-0.112078 -0.177382,-0.227161 -0.274748,-0.334167 -0.127059,-0.133873 -0.244949,-0.275078 -0.365586,-0.414787 -0.140647,-0.155932 -0.282469,-0.310836 -0.429863,-0.46043 -0.142026,-0.14086 -0.284226,-0.281822 -0.415271,-0.433072 -0.197634,-0.218604 -0.339466,-0.479635 -0.492464,-0.729614 -0.181745,-0.304125 -0.347107,-0.618425 -0.554371,-0.906556 -0.123613,-0.171841 -0.203073,-0.261904 -0.33578,-0.421145 -0.399013,-0.477482 -1.074275,0.08681 -0.675262,0.564289 v 0 c 0.107823,0.12862 0.183399,0.214589 0.283287,0.351599 0.200806,0.275437 0.354682,0.580688 0.531574,0.871241 0.178832,0.292113 0.348017,0.59403 0.579906,0.848709 0.143764,0.16394 0.296326,0.319735 0.451866,0.472512 0.133996,0.135682 0.262374,0.276663 0.390536,0.41784 0.127399,0.147309 0.253815,0.294793 0.386006,0.437603 0.115366,0.119661 0.198718,0.266633 0.32091,0.380406 0.122171,0.113319 0.250534,0.219341 0.37664,0.328088 0.117581,0.09645 0.244009,0.181738 0.347683,0.294377 0.107908,0.104903 0.220946,0.20413 0.315281,0.321505 0.131553,0.15183 0.280439,0.2865 0.425984,0.424643 0.185849,0.184944 0.388033,0.350817 0.58779,0.520268 0.177512,0.145912 0.346232,0.300529 0.50604,0.465753 0.183189,0.162585 0.330369,0.358609 0.481579,0.55034 0.152148,0.182762 0.308999,0.360493 0.476178,0.529821 0.142034,0.151788 0.276098,0.310768 0.414732,0.465597 0.184978,0.21006 0.390218,0.399825 0.600435,0.584452 0.256286,0.224335 0.51377,0.447363 0.766185,0.676064 0.25943,0.263133 0.534154,0.510767 0.794134,0.773451 0.298479,0.290019 0.591061,0.586009 0.890527,0.87501 0.281164,0.280537 0.555749,0.567255 0.832146,0.852535 0.336386,0.369817 0.681061,0.732007 1.0136,1.10536 0.307801,0.343625 0.607992,0.694712 0.884489,1.064186 0.379397,0.493213 1.076904,-0.04333 0.69751,-0.536546 z" />
  <path
     style="fill:#000000;fill-opacity:1;fill-rule:nonzero;stroke:none;stroke-width:0.264583"
     id="path3"
     d="m 76.968339,13.95945 c -0.06137,0.0086 -0.123971,0.01088 -0.184095,0.02588 -0.437893,0.10929 -0.918808,0.383916 -1.162931,0.770972 -0.134046,0.212526 -0.214008,0.454687 -0.321014,0.682031 -0.593629,1.819032 -0.897292,3.716678 -1.143045,5.609477 -0.04673,0.359936 -0.08584,0.720821 -0.128767,1.081232 -0.104497,0.947485 -0.190926,1.897097 -0.240342,2.84911 -0.03218,0.621421 0.846643,0.666927 0.878821,0.04551 v 0 c 0.04816,-0.932481 0.133337,-1.862561 0.235355,-2.79062 0.04217,-0.354611 0.08061,-0.709685 0.126521,-1.063832 0.235006,-1.812864 0.525471,-3.628792 1.076709,-5.375949 0.06152,-0.155011 0.10949,-0.316115 0.184571,-0.465032 0.14116,-0.279988 0.408249,-0.378616 0.678217,-0.48878 0.622255,0 0.622255,-0.88 0,-0.88 z" />
  <path
     style="fill:#000000;fill-opacity:1;fill-rule:nonzero;stroke:none;stroke-width:0.264583"
     id="path4"
     d="m 51.856068,21.551512 c 0.721685,-0.06218 1.448168,-0.08388 2.172449,-0.07184 0.253751,0.0042 0.507312,0.01622 0.760968,0.02434 2.016339,0.07864 4.027905,0.239568 6.041662,0.363184 0.987534,0.05667 1.975342,0.112505 2.964273,0.137548 0.248266,0.0064 0.496602,0.006 0.744918,0.0046 0.175895,-9.26e-4 0.35179,-0.0015 0.527688,-0.0019 0.141301,-2.29e-4 0.282599,-1.86e-4 0.4239,-1.87e-4 0.03002,1e-6 0.06004,2e-6 0.09006,3e-6 0.622255,1.6e-5 0.622279,-0.879984 2.4e-5,-0.88 v 0 c -0.03003,-1e-6 -0.06006,-2e-6 -0.09009,-3e-6 -0.141862,1e-6 -0.283726,-4.2e-5 -0.42559,1.88e-4 -0.176954,3.44e-4 -0.353907,9.26e-4 -0.530858,0.0019 -0.239284,0.0013 -0.478589,0.0018 -0.717825,-0.0043 -0.978368,-0.02467 -1.955607,-0.08028 -2.932594,-0.136177 -2.022435,-0.124107 -4.042672,-0.28582 -6.067718,-0.364395 -0.26334,-0.0083 -0.526585,-0.02051 -0.79002,-0.02478 -0.753123,-0.0122 -1.508442,0.01101 -2.258814,0.07621 -0.619165,0.06192 -0.531601,0.937549 0.08756,0.875632 z" />
  <path
     style="fill:#ff4400;fill-opacity:1;fill-rule:nonzero;stroke:none;stroke-width:0.264583"
     id="path5"
     d="m 56.072367,23.111678 c 0.161629,-0.109583 0.315074,-0.231303 0.478449,-0.338339 0.107812,-0.07064 0.211034,-0.126232 0.323453,-0.18962 0.341027,-0.176967 0.717151,-0.264922 1.08997,-0.346141 0.350038,-0.06549 0.708266,-0.06514 1.063138,-0.07077 0.33293,-0.01825 0.660881,0.03618 0.984223,0.108909 0.214784,0.04818 0.393724,0.166611 0.574966,0.284334 0.163166,0.118668 0.320607,0.246329 0.465339,0.387038 0.08052,0.08815 0.134602,0.196028 0.197932,0.296414 0.08177,0.105988 0.149916,0.221222 0.227492,0.330089 6.3e-5,10e-4 1.27e-4,0.002 1.93e-4,0.003 0.326017,0.530012 1.075565,0.06895 0.749548,-0.461058 v 0 c -0.01312,-0.02046 -0.02627,-0.04092 -0.0394,-0.06138 -0.07261,-0.08744 -0.11724,-0.197132 -0.194451,-0.281589 -0.10165,-0.159552 -0.191804,-0.328041 -0.331163,-0.4596 -0.186256,-0.177975 -0.384889,-0.343417 -0.59622,-0.490952 -0.05169,-0.03356 -0.187137,-0.122123 -0.234413,-0.1499 -0.196222,-0.115294 -0.407606,-0.199255 -0.628163,-0.25527 -0.390953,-0.08666 -0.787887,-0.149491 -1.189961,-0.129921 -0.413176,0.0067 -0.829855,0.0095 -1.236612,0.09087 -0.458922,0.100234 -0.918959,0.216456 -1.335847,0.440065 -0.161544,0.09171 -0.238241,0.131836 -0.39403,0.234105 -0.163497,0.10733 -0.317373,0.228861 -0.479089,0.338787 -0.50977,0.356839 -0.0051,1.077763 0.504647,0.720924 z" />
  <path
     style="fill:#000000;fill-opacity:1;fill-rule:nonzero;stroke:none;stroke-width:0.264583"
     id="path6"
     d="m 46.163394,14.289239 c -0.185463,-0.186686 -0.335201,-0.402988 -0.484288,-0.618646 -0.330372,-0.490411 -0.604145,-1.015077 -0.860632,-1.546883 -0.151061,-0.325454 -0.290594,-0.656331 -0.412483,-0.993862 -0.0361,-0.09998 -0.07341,-0.199691 -0.103161,-0.301738 -0.06714,-0.230329 -0.07216,-0.318356 -0.106759,-0.552551 -0.02405,-0.2814306 -0.04902,-0.5436271 0.154795,-0.7688836 0.08726,-0.096439 0.289716,-0.2366875 0.384664,-0.3069606 0.243644,-0.1663342 0.517787,-0.2896391 0.806611,-0.3542723 0.162767,-0.036424 0.412303,-0.052234 0.577686,-0.049915 0.09042,0.00127 0.18042,0.012451 0.270629,0.018674 0.159793,0.036271 0.269434,0.045758 0.409541,0.1332071 0.05044,0.031479 0.09188,0.07566 0.134699,0.1169072 0.125863,0.1212487 0.194456,0.1987489 0.285795,0.3497059 0.04414,0.072952 0.07921,0.1510196 0.118819,0.2265293 0.231871,0.517247 0.331214,1.076346 0.405734,1.634191 0.05261,0.408774 0.07371,0.82021 0.08066,1.231969 0.0016,0.171577 0.0011,0.08854 0.0013,0.249113 0.0016,0.622252 0.881652,0.619913 0.879999,-0.0023 v 0 c -5.3e-4,-0.168328 2.3e-5,-0.08106 -0.0016,-0.261792 -0.0077,-0.445959 -0.03113,-0.891573 -0.08838,-1.334253 C 48.527208,10.493515 48.401552,9.8297822 48.112021,9.2197216 47.956967,8.9420564 47.920666,8.841941 47.710166,8.6026833 47.552025,8.4229334 47.340684,8.2438179 47.129435,8.1314657 46.881613,7.9996617 46.71328,7.9880243 46.442997,7.9357899 c -0.320897,-0.017081 -0.426966,-0.03551 -0.752938,0.00103 -0.41589,0.046618 -0.80074,0.1659292 -1.17036,0.3630642 -0.110612,0.058994 -0.212178,0.1335675 -0.318268,0.2003512 -0.250944,0.1957073 -0.42087,0.3014252 -0.613179,0.5670981 -0.299268,0.4134363 -0.312063,0.8579266 -0.262081,1.3420736 0.05054,0.318488 0.05161,0.390002 0.144053,0.704013 0.03274,0.111197 0.07346,0.219913 0.112966,0.328887 0.131011,0.361363 0.280599,0.715713 0.442738,1.064153 0.276982,0.572669 0.572455,1.137659 0.929643,1.66524 0.179501,0.258674 0.361997,0.516427 0.58543,0.739804 0.439999,0.44 1.062254,-0.182254 0.622255,-0.622254 z" />
</svg>
